g AW_Cube2x3
v -0.92343956 -1 0.92343956
v -1 -0.92343956 0.92343956
v -0.92343956 -0.92343956 1
v -0.92343956 4.9234395 1
v -1 4.9234395 0.92343956
v -0.92343956 5 0.92343956
v 0.92343956 -0.92343956 1
v 1 -0.92343956 0.92343956
v 0.92343956 -1 0.92343956
v 0.92343956 4.9234395 1
v 0.92343956 5 0.92343956
v 1 4.9234395 0.92343956
v -0.92343956 -0.92343986 -3
v -1 -0.92343986 -2.9234395
v -0.92343956 -1.0000002 -2.9234395
v -0.92343956 4.923439 -3
v -0.92343956 4.9999995 -2.9234395
v -1 4.923439 -2.9234395
v 0.92343956 -0.92343986 -3
v 0.92343956 -1.0000002 -2.9234395
v 1 -0.92343986 -2.9234395
v 0.92343956 4.923439 -3
v 1 4.923439 -2.9234395
v 0.92343956 4.9999995 -2.9234395
v 0.92343956 -1 0
v -0.92343956 -1 0.92343956
v 0.92343956 -1 0.92343956
v -0.92343956 -1 0
v 0.92343956 -1 -0.92343956
v -0.92343956 -1 -0.92343956
v -0.92343956 -1.0000001 -1.9234395
v 0.92343956 -1.0000001 -1.9234395
v -0.92343956 -1.0000002 -2.9234395
v 0.92343956 -1.0000002 -2.9234395
v 1 4.9234395 0
v 1 -0.92343956 0
v 1 -0.92343956 0.92343956
v 1 4.9234395 0.92343956
v 0.92343956 4.9234395 1
v 0.92343956 -0.92343956 1
v -0.92343956 -0.92343956 1
v -0.92343956 4.9234395 1
v -1 -0.92343956 0
v -1 4.9234395 0
v -1 4.9234395 0.92343956
v -1 -0.92343956 0.92343956
v -0.92343956 5 0
v 0.92343956 5 0
v 0.92343956 5 0.92343956
v -0.92343956 5 0.92343956
v 1 -0.92343974 -1.9234395
v 1 -0.92343986 -2.9234395
v 0.92343956 -1.0000002 -2.9234395
v 0.92343956 -1.0000001 -1.9234395
v 1 -0.92343956 -0.92343956
v 0.92343956 -1 -0.92343956
v 0.92343956 -1 0
v 1 -0.92343956 0
v 0.92343956 -1 0.92343956
v 1 -0.92343956 0.92343956
v -1 -0.92343974 -1.9234395
v -1 -0.92343986 -2.9234395
v -1 4.923439 -2.9234395
v -1 4.923439 -1.9234395
v 0.92343956 5 -1.9234395
v 0.92343956 4.9999995 -2.9234395
v 1 4.923439 -2.9234395
v 1 4.923439 -1.9234395
v 0.92343956 5 -0.92343956
v 1 4.9234395 -0.92343956
v 1 4.9234395 0
v 0.92343956 5 0
v 1 4.9234395 0.92343956
v 0.92343956 5 0.92343956
v -0.92343956 -1 0
v -1 -0.92343956 0.92343956
v -0.92343956 -1 0.92343956
v -1 -0.92343956 0
v -0.92343956 -1 -0.92343956
v -1 -0.92343956 -0.92343956
v -1 -0.92343974 -1.9234395
v -0.92343956 -1.0000001 -1.9234395
v -1 -0.92343986 -2.9234395
v -0.92343956 -1.0000002 -2.9234395
v -0.92343956 -0.92343956 1
v -1 -0.92343956 0.92343956
v -1 4.9234395 0.92343956
v -0.92343956 4.9234395 1
v -0.92343956 5 -1.9234395
v -0.92343956 4.9999995 -2.9234395
v 0.92343956 4.9999995 -2.9234395
v 0.92343956 5 -1.9234395
v -0.92343956 4.9234395 1
v -0.92343956 5 0.92343956
v 0.92343956 5 0.92343956
v 0.92343956 4.9234395 1
v 0.92343956 4.9234395 1
v 1 4.9234395 0.92343956
v 1 -0.92343956 0.92343956
v 0.92343956 -0.92343956 1
v 1 4.923439 -1.9234395
v 1 4.923439 -2.9234395
v 1 -0.92343986 -2.9234395
v 1 -0.92343974 -1.9234395
v 0.92343956 -0.92343956 1
v 0.92343956 -1 0.92343956
v -0.92343956 -1 0.92343956
v -0.92343956 -0.92343956 1
v -1 4.923439 -1.9234395
v -1 4.923439 -2.9234395
v -0.92343956 4.9999995 -2.9234395
v -0.92343956 5 -1.9234395
v -1 4.9234395 -0.92343956
v -0.92343956 5 -0.92343956
v -0.92343956 5 0
v -1 4.9234395 0
v -0.92343956 5 0.92343956
v -1 4.9234395 0.92343956
v -0.92343956 4.923439 -3
v -1 4.923439 -2.9234395
v -1 -0.92343986 -2.9234395
v -0.92343956 -0.92343986 -3
v 0.92343956 4.923439 -3
v 0.92343956 4.9999995 -2.9234395
v -0.92343956 4.9999995 -2.9234395
v -0.92343956 4.923439 -3
v 0.92343956 -0.92343986 -3
v 1 -0.92343986 -2.9234395
v 1 4.923439 -2.9234395
v 0.92343956 4.923439 -3
v -0.92343956 -0.92343986 -3
v -0.92343956 -1.0000002 -2.9234395
v 0.92343956 -1.0000002 -2.9234395
v 0.92343956 -0.92343986 -3
v -0.92343956 4.923439 -3
v -0.92343956 -0.92343986 -3
v 0.92343956 -0.92343986 -3
v 0.92343956 4.923439 -3
v -0.92343956 5 -0.92343956
v 0.92343956 5 -0.92343956
v 0.92343956 5 0
v -0.92343956 5 0
v -1 -0.92343956 -0.92343956
v -1 4.9234395 0
v -1 -0.92343956 0
v -1 4.9234395 -0.92343956
v -1 4.923439 -1.9234395
v -1 -0.92343974 -1.9234395
v 1 4.9234395 -0.92343956
v 1 -0.92343956 0
v 1 4.9234395 0
v 1 -0.92343956 -0.92343956
v 1 -0.92343974 -1.9234395
v 1 4.923439 -1.9234395
v -0.92343956 5 -0.92343956
v -0.92343956 5 -1.9234395
v 0.92343956 5 -1.9234395
v 0.92343956 5 -0.92343956
vt 0.4354264 0.6049838
vt 0.5950797 0.6602112
vt 0.5950797 0.6049838
vt 0.4354264 0.6049838
vt 0.5950797 0.6602112
vt 0.5950797 0.6049838
vt 0.4354264 0.6049838
vt 0.5950797 0.6602112
vt 0.5950797 0.6049838
vt 0.4354264 0.6049838
vt 0.5950797 0.6602112
vt 0.5950797 0.6049838
vt 0.4354264 0.6049838
vt 0.5950797 0.6602112
vt 0.5950797 0.6049838
vt 0.4354264 0.6049838
vt 0.5950797 0.6602112
vt 0.5950797 0.6049838
vt 0.4354264 0.6049838
vt 0.5950797 0.6602112
vt 0.5950797 0.6049838
vt 0.4354264 0.6049838
vt 0.5950797 0.6602112
vt 0.5950797 0.6049838
vt 0.48010212 0.4574263
vt 9.8228455E-05 0.5774274
vt 0.48010218 0.57742727
vt 9.804964E-05 0.4574263
vt 0.48010212 0.3374253
vt 9.804964E-05 0.33742532
vt 9.803474E-05 0.2074753
vt 0.48010206 0.20747527
vt 9.7990036E-05 0.07752532
vt 0.48010194 0.07752527
vt -0.66332495 0.62968713
vt 1.6230197 0.62968713
vt 1.6230199 0.4867906
vt -0.66332483 0.4867906
vt -0.44014943 0.46331012
vt 1.4401493 0.46331024
vt 1.4401494 0.16634116
vt -0.4401493 0.1663411
vt -0.66332483 0.6314593
vt 1.6230197 0.6314593
vt 1.6230199 0.48856276
vt -0.66332483 0.48856276
vt 0.7599 9.797041E-05
vt 0.75990003 0.24009995
vt 0.999902 0.24009995
vt 0.9999019 9.797041E-05
vt 0.4767404 0.6615714
vt 0.4767404 0.6615714
vt 0.4767404 0.6036236
vt 0.4767404 0.6036236
vt 0.4767404 0.6615714
vt 0.4767404 0.6036236
vt -0.025810823 0.6036236
vt -0.025810823 0.6615714
vt -0.52836204 0.6036236
vt -0.52836204 0.6615714
vt -0.38765582 0.6168381
vt -0.38765582 0.45312038
vt 1.5268178 0.45312038
vt 1.5268178 0.6168381
vt 1.9892899 0.6615714
vt 1.9892899 0.6615714
vt 1.9892899 0.6036236
vt 1.9892899 0.6036236
vt 1.9892899 0.6615714
vt 1.9892899 0.6036236
vt 1.4867387 0.6036236
vt 1.4867387 0.6615714
vt 0.9841874 0.6036236
vt 0.9841874 0.6615714
vt 1.1623558 0.6036236
vt 1.664907 0.6615714
vt 1.664907 0.6036236
vt 1.1623558 0.6615714
vt 0.6598045 0.6036236
vt 0.6598045 0.6615714
vt 0.6598045 0.6615714
vt 0.6598045 0.6036236
vt 0.6598045 0.6615714
vt 0.6598045 0.6036236
vt 0.2998463 0.6036236
vt 0.2998463 0.6615714
vt 1.3049487 0.6615714
vt 1.3049487 0.6036236
vt 0.25999796 9.797041E-05
vt 9.797041E-05 9.80014E-05
vt 9.797041E-05 0.24009998
vt 0.25999796 0.24009995
vt 1.8396137 0.6036236
vt 1.8396137 0.6615714
vt 2.844716 0.6615714
vt 2.844716 0.6036236
vt -0.52836204 0.6036236
vt -0.52836204 0.6615714
vt 0.4767404 0.6615714
vt 0.4767404 0.6036236
vt 1.5268178 0.6168381
vt 1.5268178 0.45312038
vt -0.38765582 0.45312038
vt -0.38765582 0.6168381
vt -0.52836204 0.6036236
vt -0.52836204 0.6615714
vt 0.4767404 0.6615714
vt 0.4767404 0.6036236
vt -0.25814867 0.6615714
vt -0.25814867 0.6615714
vt -0.25814867 0.6036236
vt -0.25814867 0.6036236
vt -0.25814867 0.6615714
vt -0.25814867 0.6036236
vt -0.76069975 0.6036236
vt -0.76069975 0.6615714
vt -1.2632508 0.6036236
vt -1.2632508 0.6615714
vt -1.3029852 0.6036236
vt -1.3029852 0.6615714
vt -0.29788256 0.6615714
vt -0.29788256 0.6036236
vt 1.0775064 0.6036236
vt 1.0775064 0.6615714
vt 2.0826087 0.6615714
vt 2.0826087 0.6036236
vt -1.0843892 0.6036236
vt -1.0843892 0.6615714
vt -0.079286814 0.6615714
vt -0.079286814 0.6036236
vt -0.52836204 0.6036236
vt -0.52836204 0.6615714
vt 0.4767404 0.6615714
vt 0.4767404 0.6036236
vt -0.4401495 0.32032248
vt 1.4401493 0.3203226
vt 1.4401493 0.023353457
vt -0.44014946 0.023353308
vt 0.269947 0.93207777
vt 0.74995095 0.93207777
vt 0.74995095 0.8120768
vt 0.269947 0.8120768
vt -0.18309143 0.34507608
vt 1.0928247 0.44583327
vt -0.18309143 0.44583327
vt 1.0928247 0.34507608
vt 1.0928245 0.23596531
vt -0.18309155 0.23596531
vt 1.0928247 0.34507608
vt -0.18309143 0.44583327
vt 1.0928247 0.44583327
vt -0.18309143 0.34507608
vt -0.18309155 0.23596531
vt 1.0928245 0.23596531
vt 0.269947 0.93207777
vt 0.26994696 0.57371604
vt 0.74995095 0.57371604
vt 0.74995095 0.93207777
vn -0.46056148 -0.75879264 0.46056148
vn -0.75879264 -0.46056148 0.46056148
vn -0.46056148 -0.46056148 0.75879264
vn -0.46056148 0.46056148 0.75879264
vn -0.75879264 0.46056148 0.46056148
vn -0.46056148 0.75879264 0.46056148
vn 0.46056148 -0.46056148 0.75879264
vn 0.75879264 -0.46056148 0.46056148
vn 0.46056148 -0.75879264 0.46056148
vn 0.46056148 0.46056148 0.75879264
vn 0.46056148 0.75879264 0.46056148
vn 0.75879264 0.46056148 0.46056148
vn -0.46056148 -0.46056148 -0.75879264
vn -0.75879264 -0.46056148 -0.46056148
vn -0.46056148 -0.75879264 -0.46056148
vn -0.46056148 0.46056148 -0.75879264
vn -0.46056148 0.75879264 -0.46056148
vn -0.75879264 0.46056148 -0.46056148
vn 0.46056148 -0.46056148 -0.75879264
vn 0.46056148 -0.75879264 -0.46056148
vn 0.75879264 -0.46056148 -0.46056148
vn 0.46056148 0.46056148 -0.75879264
vn 0.75879264 0.46056148 -0.46056148
vn 0.46056148 0.75879264 -0.46056148
vn -0 -1 0
vn -0 -1 0
vn -0 -1 0
vn -0 -1 0
vn -0 -1 0
vn -0 -1 0
vn -0 -1 0
vn -0 -1 0
vn -0 -1 0
vn -0 -1 0
vn 1 0 0
vn 1 0 0
vn 1 0 0
vn 1 0 0
vn -0 0 1
vn -0 0 1
vn -0 0 1
vn -0 0 1
vn -1 0 0
vn -1 0 0
vn -1 0 0
vn -1 0 0
vn -0 1 0
vn -0 1 0
vn -0 1 0
vn -0 1 0
vn 0.70710677 -0.70710677 0
vn 0.75879264 -0.46056148 -0.46056148
vn 0.46056148 -0.75879264 -0.46056148
vn 0.70710677 -0.70710677 0
vn 0.70710677 -0.70710677 0
vn 0.70710677 -0.70710677 0
vn 0.70710677 -0.70710677 0
vn 0.70710677 -0.70710677 0
vn 0.46056148 -0.75879264 0.46056148
vn 0.75879264 -0.46056148 0.46056148
vn -1 0 0
vn -1 0 0
vn -1 0 0
vn -1 0 0
vn 0.70710677 0.70710677 0
vn 0.46056148 0.75879264 -0.46056148
vn 0.75879264 0.46056148 -0.46056148
vn 0.70710677 0.70710677 0
vn 0.70710677 0.70710677 0
vn 0.70710677 0.70710677 0
vn 0.70710677 0.70710677 0
vn 0.70710677 0.70710677 0
vn 0.75879264 0.46056148 0.46056148
vn 0.46056148 0.75879264 0.46056148
vn -0.70710677 -0.70710677 0
vn -0.75879264 -0.46056148 0.46056148
vn -0.46056148 -0.75879264 0.46056148
vn -0.70710677 -0.70710677 0
vn -0.70710677 -0.70710677 0
vn -0.70710677 -0.70710677 0
vn -0.70710677 -0.70710677 0
vn -0.70710677 -0.70710677 0
vn -0.75879264 -0.46056148 -0.46056148
vn -0.46056148 -0.75879264 -0.46056148
vn -0.46056148 -0.46056148 0.75879264
vn -0.75879264 -0.46056148 0.46056148
vn -0.75879264 0.46056148 0.46056148
vn -0.46056148 0.46056148 0.75879264
vn -0 1 0
vn -0 1 0
vn -0 1 0
vn -0 1 0
vn -0.46056148 0.46056148 0.75879264
vn -0.46056148 0.75879264 0.46056148
vn 0.46056148 0.75879264 0.46056148
vn 0.46056148 0.46056148 0.75879264
vn 0.46056148 0.46056148 0.75879264
vn 0.75879264 0.46056148 0.46056148
vn 0.75879264 -0.46056148 0.46056148
vn 0.46056148 -0.46056148 0.75879264
vn 1 0 0
vn 1 0 0
vn 1 0 0
vn 1 0 0
vn 0.46056148 -0.46056148 0.75879264
vn 0.46056148 -0.75879264 0.46056148
vn -0.46056148 -0.75879264 0.46056148
vn -0.46056148 -0.46056148 0.75879264
vn -0.70710677 0.70710677 0
vn -0.75879264 0.46056148 -0.46056148
vn -0.46056148 0.75879264 -0.46056148
vn -0.70710677 0.70710677 0
vn -0.70710677 0.70710677 0
vn -0.70710677 0.70710677 0
vn -0.70710677 0.70710677 0
vn -0.70710677 0.70710677 0
vn -0.46056148 0.75879264 0.46056148
vn -0.75879264 0.46056148 0.46056148
vn -0.46056148 0.46056148 -0.75879264
vn -0.75879264 0.46056148 -0.46056148
vn -0.75879264 -0.46056148 -0.46056148
vn -0.46056148 -0.46056148 -0.75879264
vn 0.46056148 0.46056148 -0.75879264
vn 0.46056148 0.75879264 -0.46056148
vn -0.46056148 0.75879264 -0.46056148
vn -0.46056148 0.46056148 -0.75879264
vn 0.46056148 -0.46056148 -0.75879264
vn 0.75879264 -0.46056148 -0.46056148
vn 0.75879264 0.46056148 -0.46056148
vn 0.46056148 0.46056148 -0.75879264
vn -0.46056148 -0.46056148 -0.75879264
vn -0.46056148 -0.75879264 -0.46056148
vn 0.46056148 -0.75879264 -0.46056148
vn 0.46056148 -0.46056148 -0.75879264
vn -0 0 -1
vn -0 0 -1
vn -0 0 -1
vn -0 0 -1
vn -0 1 0
vn -0 1 0
vn -0 1 0
vn -0 1 0
vn -1 0 0
vn -1 0 0
vn -1 0 0
vn -1 0 0
vn -1 0 0
vn -1 0 0
vn 1 0 0
vn 1 0 0
vn 1 0 0
vn 1 0 0
vn 1 0 0
vn 1 0 0
vn -0 1 0
vn -0 1 0
vn -0 1 0
vn -0 1 0
g AW_Cube2x3_0
f 3/3/3 2/2/2 1/1/1
f 6/6/6 5/5/5 4/4/4
f 9/9/9 8/8/8 7/7/7
f 12/12/12 11/11/11 10/10/10
f 15/15/15 14/14/14 13/13/13
f 18/18/18 17/17/17 16/16/16
f 21/21/21 20/20/20 19/19/19
f 24/24/24 23/23/23 22/22/22
f 27/27/27 26/26/26 25/25/25
f 26/26/26 28/28/28 25/25/25
f 25/25/25 28/28/28 29/29/29
f 28/28/28 30/30/30 29/29/29
f 30/30/30 31/31/31 29/29/29
f 31/31/31 32/32/32 29/29/29
f 31/31/31 33/33/33 32/32/32
f 33/33/33 34/34/34 32/32/32
f 37/37/37 36/36/36 35/35/35
f 38/38/38 37/37/37 35/35/35
f 41/41/41 40/40/40 39/39/39
f 42/42/42 41/41/41 39/39/39
f 45/45/45 44/44/44 43/43/43
f 46/46/46 45/45/45 43/43/43
f 49/49/49 48/48/48 47/47/47
f 50/50/50 49/49/49 47/47/47
f 53/53/53 52/52/52 51/51/51
f 54/54/54 53/53/53 51/51/51
f 54/54/54 51/51/51 55/55/55
f 56/56/56 54/54/54 55/55/55
f 56/56/56 55/55/55 57/57/57
f 55/55/55 58/58/58 57/57/57
f 57/57/57 58/58/58 59/59/59
f 58/58/58 60/60/60 59/59/59
f 63/63/63 62/62/62 61/61/61
f 64/64/64 63/63/63 61/61/61
f 67/67/67 66/66/66 65/65/65
f 68/68/68 67/67/67 65/65/65
f 68/68/68 65/65/65 69/69/69
f 70/70/70 68/68/68 69/69/69
f 70/70/70 69/69/69 71/71/71
f 69/69/69 72/72/72 71/71/71
f 71/71/71 72/72/72 73/73/73
f 72/72/72 74/74/74 73/73/73
f 77/77/77 76/76/76 75/75/75
f 76/76/76 78/78/78 75/75/75
f 75/75/75 78/78/78 79/79/79
f 78/78/78 80/80/80 79/79/79
f 80/80/80 81/81/81 79/79/79
f 81/81/81 82/82/82 79/79/79
f 81/81/81 83/83/83 82/82/82
f 83/83/83 84/84/84 82/82/82
f 87/87/87 86/86/86 85/85/85
f 88/88/88 87/87/87 85/85/85
f 91/91/91 90/90/90 89/89/89
f 92/92/92 91/91/91 89/89/89
f 95/95/95 94/94/94 93/93/93
f 96/96/96 95/95/95 93/93/93
f 99/99/99 98/98/98 97/97/97
f 100/100/100 99/99/99 97/97/97
f 103/103/103 102/102/102 101/101/101
f 104/104/104 103/103/103 101/101/101
f 107/107/107 106/106/106 105/105/105
f 108/108/108 107/107/107 105/105/105
f 111/111/111 110/110/110 109/109/109
f 112/112/112 111/111/111 109/109/109
f 112/112/112 109/109/109 113/113/113
f 114/114/114 112/112/112 113/113/113
f 114/114/114 113/113/113 115/115/115
f 113/113/113 116/116/116 115/115/115
f 115/115/115 116/116/116 117/117/117
f 116/116/116 118/118/118 117/117/117
f 121/121/121 120/120/120 119/119/119
f 122/122/122 121/121/121 119/119/119
f 125/125/125 124/124/124 123/123/123
f 126/126/126 125/125/125 123/123/123
f 129/129/129 128/128/128 127/127/127
f 130/130/130 129/129/129 127/127/127
f 133/133/133 132/132/132 131/131/131
f 134/134/134 133/133/133 131/131/131
f 137/137/137 136/136/136 135/135/135
f 138/138/138 137/137/137 135/135/135
f 141/141/141 140/140/140 139/139/139
f 142/142/142 141/141/141 139/139/139
f 145/145/145 144/144/144 143/143/143
f 144/144/144 146/146/146 143/143/143
f 146/146/146 147/147/147 143/143/143
f 147/147/147 148/148/148 143/143/143
f 151/151/151 150/150/150 149/149/149
f 150/150/150 152/152/152 149/149/149
f 152/152/152 153/153/153 149/149/149
f 153/153/153 154/154/154 149/149/149
f 157/157/157 156/156/156 155/155/155
f 158/158/158 157/157/157 155/155/155
