g AW_Cube1x2
v -0.92343956 -0.92343956 -1
v -1 -0.92343956 -0.92343956
v -0.92343956 -1 -0.92343956
v -0.92343956 -1 0.92343956
v -1 -0.92343956 0.92343956
v -0.92343956 -0.92343956 1
v -0.92343956 2.9234395 -1
v -0.92343956 3 -0.92343956
v -1 2.9234395 -0.92343956
v -0.92343956 2.9234395 1
v -1 2.9234395 0.92343956
v -0.92343956 3 0.92343956
v 0.92343956 -0.92343956 -1
v 0.92343956 -1 -0.92343956
v 1 -0.92343956 -0.92343956
v 0.92343956 -0.92343956 1
v 1 -0.92343956 0.92343956
v 0.92343956 -1 0.92343956
v 0.92343956 2.9234395 -1
v 1 2.9234395 -0.92343956
v 0.92343956 3 -0.92343956
v 0.92343956 2.9234395 1
v 0.92343956 3 0.92343956
v 1 2.9234395 0.92343956
v 0.92343956 -1 -0.92343956
v -0.92343956 -1 -0.92343956
v -0.92343956 -1 0.92343956
v 0.92343956 -1 0.92343956
v 1 2.9234395 -0.92343956
v 1 -0.92343956 -0.92343956
v 1 -0.92343956 0.92343956
v 1 2.9234395 0.92343956
v 0.92343956 2.9234395 1
v 0.92343956 -0.92343956 1
v -0.92343956 -0.92343956 1
v -0.92343956 2.9234395 1
v -1 -0.92343956 -0.92343956
v -1 2.9234395 -0.92343956
v -1 2.9234395 0.92343956
v -1 -0.92343956 0.92343956
v -0.92343956 3 -0.92343956
v 0.92343956 3 -0.92343956
v 0.92343956 3 0.92343956
v -0.92343956 3 0.92343956
v -0.92343956 2.9234395 -1
v -1 2.9234395 -0.92343956
v -1 -0.92343956 -0.92343956
v -0.92343956 -0.92343956 -1
v -0.92343956 -1 -0.92343956
v -1 -0.92343956 -0.92343956
v -1 -0.92343956 0.92343956
v -0.92343956 -1 0.92343956
v -0.92343956 -0.92343956 1
v -1 -0.92343956 0.92343956
v -1 2.9234395 0.92343956
v -0.92343956 2.9234395 1
v -0.92343956 3 0.92343956
v -1 2.9234395 0.92343956
v -1 2.9234395 -0.92343956
v -0.92343956 3 -0.92343956
v 0.92343956 2.9234395 -1
v 0.92343956 3 -0.92343956
v -0.92343956 3 -0.92343956
v -0.92343956 2.9234395 -1
v -0.92343956 2.9234395 1
v -0.92343956 3 0.92343956
v 0.92343956 3 0.92343956
v 0.92343956 2.9234395 1
v 1 2.9234395 0.92343956
v 0.92343956 3 0.92343956
v 0.92343956 3 -0.92343956
v 1 2.9234395 -0.92343956
v 0.92343956 -0.92343956 -1
v 1 -0.92343956 -0.92343956
v 1 2.9234395 -0.92343956
v 0.92343956 2.9234395 -1
v 0.92343956 2.9234395 1
v 1 2.9234395 0.92343956
v 1 -0.92343956 0.92343956
v 0.92343956 -0.92343956 1
v 0.92343956 -1 0.92343956
v 1 -0.92343956 0.92343956
v 1 -0.92343956 -0.92343956
v 0.92343956 -1 -0.92343956
v -0.92343956 -0.92343956 -1
v -0.92343956 -1 -0.92343956
v 0.92343956 -1 -0.92343956
v 0.92343956 -0.92343956 -1
v 0.92343956 -0.92343956 1
v 0.92343956 -1 0.92343956
v -0.92343956 -1 0.92343956
v -0.92343956 -0.92343956 1
v -0.92343956 2.9234395 -1
v -0.92343956 -0.92343956 -1
v 0.92343956 -0.92343956 -1
v 0.92343956 2.9234395 -1
vt 0.4354264 0.6049838
vt 0.5950797 0.6602112
vt 0.5950797 0.6049838
vt 0.4354264 0.6049838
vt 0.5950797 0.6602112
vt 0.5950797 0.6049838
vt 0.4354264 0.6049838
vt 0.5950797 0.6602112
vt 0.5950797 0.6049838
vt 0.4354264 0.6049838
vt 0.5950797 0.6602112
vt 0.5950797 0.6049838
vt 0.4354264 0.6049838
vt 0.5950797 0.6602112
vt 0.5950797 0.6049838
vt 0.4354264 0.6049838
vt 0.5950797 0.6602112
vt 0.5950797 0.6049838
vt 0.4354264 0.6049838
vt 0.5950797 0.6602112
vt 0.5950797 0.6049838
vt 0.4354264 0.6049838
vt 0.5950797 0.6602112
vt 0.5950797 0.6049838
vt 0.44025564 0
vt 0.44025564 0.5
vt 1.4402556 0.5
vt 1.4402556 0
vt -0.28226757 0.77258366
vt 1.2419622 0.77258366
vt 1.2419624 0.4867906
vt -0.28226745 0.4867906
vt -0.44014943 0.46331012
vt 1.4401493 0.46331024
vt 1.4401494 0.16634116
vt -0.4401493 0.1663411
vt -0.28226745 0.7743558
vt 1.2419622 0.7743558
vt 1.2419624 0.48856276
vt -0.28226745 0.48856276
vt -0.04502842 0.51321304
vt 1.0016228 0.51321316
vt 1.0016229 -0.010112643
vt -0.04502833 -0.010112703
vt -1.3029852 0.6036236
vt -1.3029852 0.6615714
vt -0.29788256 0.6615714
vt -0.29788256 0.6036236
vt 0.6598045 0.6036236
vt 0.6598045 0.6615714
vt 1.664907 0.6615714
vt 1.664907 0.6036236
vt 0.2998463 0.6036236
vt 0.2998463 0.6615714
vt 1.3049487 0.6615714
vt 1.3049487 0.6036236
vt -1.2632508 0.6036236
vt -1.2632508 0.6615714
vt -0.25814867 0.6615714
vt -0.25814867 0.6036236
vt 1.0775064 0.6036236
vt 1.0775064 0.6615714
vt 2.0826087 0.6615714
vt 2.0826087 0.6036236
vt 1.8396137 0.6036236
vt 1.8396137 0.6615714
vt 2.844716 0.6615714
vt 2.844716 0.6036236
vt 0.9841874 0.6036236
vt 0.9841874 0.6615714
vt 1.9892899 0.6615714
vt 1.9892899 0.6036236
vt -1.0843892 0.6036236
vt -1.0843892 0.6615714
vt -0.079286814 0.6615714
vt -0.079286814 0.6036236
vt -0.52836204 0.6036236
vt -0.52836204 0.6615714
vt 0.4767404 0.6615714
vt 0.4767404 0.6036236
vt -0.52836204 0.6036236
vt -0.52836204 0.6615714
vt 0.4767404 0.6615714
vt 0.4767404 0.6036236
vt -0.52836204 0.6036236
vt -0.52836204 0.6615714
vt 0.4767404 0.6615714
vt 0.4767404 0.6036236
vt -0.52836204 0.6036236
vt -0.52836204 0.6615714
vt 0.4767404 0.6615714
vt 0.4767404 0.6036236
vt -0.4401495 0.32032248
vt 1.4401493 0.3203226
vt 1.4401493 0.023353457
vt -0.44014946 0.023353308
vn -0.46056148 -0.46056148 -0.75879264
vn -0.75879264 -0.46056148 -0.46056148
vn -0.46056148 -0.75879264 -0.46056148
vn -0.46056148 -0.75879264 0.46056148
vn -0.75879264 -0.46056148 0.46056148
vn -0.46056148 -0.46056148 0.75879264
vn -0.46056148 0.46056148 -0.75879264
vn -0.46056148 0.75879264 -0.46056148
vn -0.75879264 0.46056148 -0.46056148
vn -0.46056148 0.46056148 0.75879264
vn -0.75879264 0.46056148 0.46056148
vn -0.46056148 0.75879264 0.46056148
vn 0.46056148 -0.46056148 -0.75879264
vn 0.46056148 -0.75879264 -0.46056148
vn 0.75879264 -0.46056148 -0.46056148
vn 0.46056148 -0.46056148 0.75879264
vn 0.75879264 -0.46056148 0.46056148
vn 0.46056148 -0.75879264 0.46056148
vn 0.46056148 0.46056148 -0.75879264
vn 0.75879264 0.46056148 -0.46056148
vn 0.46056148 0.75879264 -0.46056148
vn 0.46056148 0.46056148 0.75879264
vn 0.46056148 0.75879264 0.46056148
vn 0.75879264 0.46056148 0.46056148
vn -0 -1 0
vn -0 -1 0
vn -0 -1 0
vn -0 -1 0
vn 1 0 0
vn 1 0 0
vn 1 0 0
vn 1 0 0
vn -0 0 1
vn -0 0 1
vn -0 0 1
vn -0 0 1
vn -1 0 0
vn -1 0 0
vn -1 0 0
vn -1 0 0
vn -0 1 0
vn -0 1 0
vn -0 1 0
vn -0 1 0
vn -0.46056148 0.46056148 -0.75879264
vn -0.75879264 0.46056148 -0.46056148
vn -0.75879264 -0.46056148 -0.46056148
vn -0.46056148 -0.46056148 -0.75879264
vn -0.46056148 -0.75879264 -0.46056148
vn -0.75879264 -0.46056148 -0.46056148
vn -0.75879264 -0.46056148 0.46056148
vn -0.46056148 -0.75879264 0.46056148
vn -0.46056148 -0.46056148 0.75879264
vn -0.75879264 -0.46056148 0.46056148
vn -0.75879264 0.46056148 0.46056148
vn -0.46056148 0.46056148 0.75879264
vn -0.46056148 0.75879264 0.46056148
vn -0.75879264 0.46056148 0.46056148
vn -0.75879264 0.46056148 -0.46056148
vn -0.46056148 0.75879264 -0.46056148
vn 0.46056148 0.46056148 -0.75879264
vn 0.46056148 0.75879264 -0.46056148
vn -0.46056148 0.75879264 -0.46056148
vn -0.46056148 0.46056148 -0.75879264
vn -0.46056148 0.46056148 0.75879264
vn -0.46056148 0.75879264 0.46056148
vn 0.46056148 0.75879264 0.46056148
vn 0.46056148 0.46056148 0.75879264
vn 0.75879264 0.46056148 0.46056148
vn 0.46056148 0.75879264 0.46056148
vn 0.46056148 0.75879264 -0.46056148
vn 0.75879264 0.46056148 -0.46056148
vn 0.46056148 -0.46056148 -0.75879264
vn 0.75879264 -0.46056148 -0.46056148
vn 0.75879264 0.46056148 -0.46056148
vn 0.46056148 0.46056148 -0.75879264
vn 0.46056148 0.46056148 0.75879264
vn 0.75879264 0.46056148 0.46056148
vn 0.75879264 -0.46056148 0.46056148
vn 0.46056148 -0.46056148 0.75879264
vn 0.46056148 -0.75879264 0.46056148
vn 0.75879264 -0.46056148 0.46056148
vn 0.75879264 -0.46056148 -0.46056148
vn 0.46056148 -0.75879264 -0.46056148
vn -0.46056148 -0.46056148 -0.75879264
vn -0.46056148 -0.75879264 -0.46056148
vn 0.46056148 -0.75879264 -0.46056148
vn 0.46056148 -0.46056148 -0.75879264
vn 0.46056148 -0.46056148 0.75879264
vn 0.46056148 -0.75879264 0.46056148
vn -0.46056148 -0.75879264 0.46056148
vn -0.46056148 -0.46056148 0.75879264
vn -0 0 -1
vn -0 0 -1
vn -0 0 -1
vn -0 0 -1
g AW_Cube1x2_0
f 3/3/3 2/2/2 1/1/1
f 6/6/6 5/5/5 4/4/4
f 9/9/9 8/8/8 7/7/7
f 12/12/12 11/11/11 10/10/10
f 15/15/15 14/14/14 13/13/13
f 18/18/18 17/17/17 16/16/16
f 21/21/21 20/20/20 19/19/19
f 24/24/24 23/23/23 22/22/22
f 27/27/27 26/26/26 25/25/25
f 28/28/28 27/27/27 25/25/25
f 31/31/31 30/30/30 29/29/29
f 32/32/32 31/31/31 29/29/29
f 35/35/35 34/34/34 33/33/33
f 36/36/36 35/35/35 33/33/33
f 39/39/39 38/38/38 37/37/37
f 40/40/40 39/39/39 37/37/37
f 43/43/43 42/42/42 41/41/41
f 44/44/44 43/43/43 41/41/41
f 47/47/47 46/46/46 45/45/45
f 48/48/48 47/47/47 45/45/45
f 51/51/51 50/50/50 49/49/49
f 52/52/52 51/51/51 49/49/49
f 55/55/55 54/54/54 53/53/53
f 56/56/56 55/55/55 53/53/53
f 59/59/59 58/58/58 57/57/57
f 60/60/60 59/59/59 57/57/57
f 63/63/63 62/62/62 61/61/61
f 64/64/64 63/63/63 61/61/61
f 67/67/67 66/66/66 65/65/65
f 68/68/68 67/67/67 65/65/65
f 71/71/71 70/70/70 69/69/69
f 72/72/72 71/71/71 69/69/69
f 75/75/75 74/74/74 73/73/73
f 76/76/76 75/75/75 73/73/73
f 79/79/79 78/78/78 77/77/77
f 80/80/80 79/79/79 77/77/77
f 83/83/83 82/82/82 81/81/81
f 84/84/84 83/83/83 81/81/81
f 87/87/87 86/86/86 85/85/85
f 88/88/88 87/87/87 85/85/85
f 91/91/91 90/90/90 89/89/89
f 92/92/92 91/91/91 89/89/89
f 95/95/95 94/94/94 93/93/93
f 96/96/96 95/95/95 93/93/93
