g BazaarWoodColumn1
v -0.6551157 0.84718055 -9.6243515
v 0.6551157 0.84718055 9.6243515
v -0.6551157 0.84718055 9.6243515
v 0.6551157 0.84718055 -9.6243515
v 0.84718055 0.6551157 9.6243515
v 0.84718055 0.6551157 -9.6243515
v 0.84718055 -0.6551157 9.6243515
v 0.84718055 -0.6551157 -9.6243515
v 0.6551157 -0.84718055 9.6243515
v 0.6551157 -0.84718055 -9.6243515
v -0.6551157 -0.84718055 9.6243515
v -0.6551157 -0.84718055 -9.6243515
v -0.84718055 -0.6551157 9.6243515
v -0.84718055 -0.6551157 -9.6243515
v -0.84718055 0.6551157 9.6243515
v -0.84718055 0.6551157 -9.6243515
v -0.6551157 0.84718055 9.6243515
v -0.6551157 0.84718055 -9.6243515
v -0.6551157 -0.6551157 -9.816417
v -0.84718055 -0.6551157 -9.6243515
v -0.6551157 -0.84718055 -9.6243515
v 0.6551157 -0.84718055 -9.6243515
v -0.6551157 0.6551157 -9.816417
v -0.84718055 0.6551157 -9.6243515
v -0.6551157 0.84718055 -9.6243515
v 0.6551157 -0.6551157 -9.816417
v 0.84718055 -0.6551157 -9.6243515
v 0.84718055 0.6551157 -9.6243515
v 0.6551157 0.6551157 -9.816417
v 0.6551157 0.84718055 -9.6243515
v -0.6551157 -0.84718055 9.6243515
v -0.84718055 -0.6551157 9.6243515
v -0.6551157 -0.6551157 9.816417
v -0.84718055 0.6551157 9.6243515
v 0.6551157 -0.6551157 9.816417
v 0.6551157 -0.84718055 9.6243515
v 0.84718055 -0.6551157 9.6243515
v 0.6551157 0.6551157 9.816417
v 0.84718055 0.6551157 9.6243515
v 0.6551157 0.84718055 9.6243515
v -0.6551157 0.6551157 9.816417
v -0.6551157 0.84718055 9.6243515
vt 1.0024493 -4.312176
vt 0.7929248 5.312176
vt 1.002449 5.312176
vt 0.7929248 -4.312176
vt 0.7524493 5.312176
vt 0.7524492 -4.312176
vt 0.54292494 5.312176
vt 0.5429246 -4.312176
vt 0.5024494 5.312176
vt 0.50244904 -4.312176
vt 0.29292482 5.312176
vt 0.2929248 -4.312176
vt 0.2524492 5.312176
vt 0.25244927 -4.312176
vt 0.042924613 5.312176
vt 0.042925 -4.312176
vt 0.0024490654 5.312176
vt 0.0024493933 -4.312176
vt 0.31657323 0.6774886
vt 0.23962498 0.69451094
vt 0.30304497 0.7579311
vt 0.6843663 0.75796247
vt 0.30921602 0.326478
vt 0.22857708 0.31366444
vt 0.29268444 0.24947284
vt 0.6678346 0.68095744
vt 0.7484735 0.69377077
vt 0.7374259 0.3129242
vt 0.66047776 0.32994676
vt 0.67400587 0.2495038
vt 0.28773016 0.24482213
vt 0.2236228 0.30901355
vt 0.30426186 0.321827
vt 0.23467064 0.6898601
vt 0.65552324 0.32529572
vt 0.66905147 0.24485321
vt 0.7324715 0.30827338
vt 0.6628805 0.6763063
vt 0.74351937 0.6891198
vt 0.6794122 0.7533109
vt 0.31161875 0.6728376
vt 0.2980907 0.75328064
vn -0.34156927 0.8755917 -0.34156927
vn 0.34156927 0.8755917 0.34156927
vn -0.34156927 0.8755917 0.34156927
vn 0.34156927 0.8755917 -0.34156927
vn 0.8755917 0.34156927 0.34156927
vn 0.8755917 0.34156927 -0.34156927
vn 0.8755917 -0.34156927 0.34156927
vn 0.8755917 -0.34156927 -0.34156927
vn 0.34156927 -0.8755917 0.34156927
vn 0.34156927 -0.8755917 -0.34156927
vn -0.34156927 -0.8755917 0.34156927
vn -0.34156927 -0.8755917 -0.34156927
vn -0.8755917 -0.34156927 0.34156927
vn -0.8755917 -0.34156927 -0.34156927
vn -0.8755917 0.34156927 0.34156927
vn -0.8755917 0.34156927 -0.34156927
vn -0.34156927 0.8755917 0.34156927
vn -0.34156927 0.8755917 -0.34156927
vn -0.34156927 -0.34156927 -0.8755917
vn -0.8755917 -0.34156927 -0.34156927
vn -0.34156927 -0.8755917 -0.34156927
vn 0.34156927 -0.8755917 -0.34156927
vn -0.34156927 0.34156927 -0.8755917
vn -0.8755917 0.34156927 -0.34156927
vn -0.34156927 0.8755917 -0.34156927
vn 0.34156927 -0.34156927 -0.8755917
vn 0.8755917 -0.34156927 -0.34156927
vn 0.8755917 0.34156927 -0.34156927
vn 0.34156927 0.34156927 -0.8755917
vn 0.34156927 0.8755917 -0.34156927
vn -0.34156927 -0.8755917 0.34156927
vn -0.8755917 -0.34156927 0.34156927
vn -0.34156927 -0.34156927 0.8755917
vn -0.8755917 0.34156927 0.34156927
vn 0.34156927 -0.34156927 0.8755917
vn 0.34156927 -0.8755917 0.34156927
vn 0.8755917 -0.34156927 0.34156927
vn 0.34156927 0.34156927 0.8755917
vn 0.8755917 0.34156927 0.34156927
vn 0.34156927 0.8755917 0.34156927
vn -0.34156927 0.34156927 0.8755917
vn -0.34156927 0.8755917 0.34156927
g BazaarWoodColumn1_0
f 3/3/3 2/2/2 1/1/1
f 2/2/2 4/4/4 1/1/1
f 4/4/4 2/2/2 5/5/5
f 6/6/6 4/4/4 5/5/5
f 5/5/5 7/7/7 6/6/6
f 7/7/7 8/8/8 6/6/6
f 8/8/8 7/7/7 9/9/9
f 10/10/10 8/8/8 9/9/9
f 9/9/9 11/11/11 10/10/10
f 11/11/11 12/12/12 10/10/10
f 11/11/11 13/13/13 12/12/12
f 13/13/13 14/14/14 12/12/12
f 13/13/13 15/15/15 14/14/14
f 15/15/15 16/16/16 14/14/14
f 16/16/16 15/15/15 17/17/17
f 18/18/18 16/16/16 17/17/17
f 21/21/21 20/20/20 19/19/19
f 22/22/22 21/21/21 19/19/19
f 19/19/19 20/20/20 23/23/23
f 20/20/20 24/24/24 23/23/23
f 24/24/24 25/25/25 23/23/23
f 26/26/26 22/22/22 19/19/19
f 26/26/26 19/19/19 23/23/23
f 27/27/27 22/22/22 26/26/26
f 28/28/28 27/27/27 26/26/26
f 23/23/23 25/25/25 29/29/29
f 29/29/29 26/26/26 23/23/23
f 29/29/29 28/28/28 26/26/26
f 25/25/25 30/30/30 29/29/29
f 30/30/30 28/28/28 29/29/29
f 33/33/33 32/32/32 31/31/31
f 34/34/34 32/32/32 33/33/33
f 33/33/33 31/31/31 35/35/35
f 31/31/31 36/36/36 35/35/35
f 36/36/36 37/37/37 35/35/35
f 35/35/35 37/37/37 38/38/38
f 33/33/33 35/35/35 38/38/38
f 37/37/37 39/39/39 38/38/38
f 39/39/39 40/40/40 38/38/38
f 41/41/41 34/34/34 33/33/33
f 41/41/41 33/33/33 38/38/38
f 38/38/38 40/40/40 41/41/41
f 42/42/42 34/34/34 41/41/41
f 40/40/40 42/42/42 41/41/41
