g bbCloverfieldLargeSparse_LOD1
v -3.607722 0.4152382 0.1252398
v -3.2151277 0.2666176 0.2675884
v -3.538472 0.2219188 -0.2675884
v -3.1458776 0.07329818 -0.1252398
v -1.628072 0.3799636 0.16936079
v -2.2419593 0.39490122 -0.3220602
v -2.11882 0.3137992 0.78039664
v -2.7327075 0.328737 0.2889756
v -0.38123924 0.3010894 0.476971
v -0.24991362 0.366155 0.017067587
v -0.8320082 0.20366262 0.33447024
v -0.70068264 0.2687284 -0.1254332
v -1.6254357 0.20475498 0.5692784
v -2.3093278 0.43271762 0.8297066
v -1.357077 0.18979317 1.2870932
v -2.0409691 0.4177558 1.5475215
v -0.702714 0.25148818 0.29209802
v -0.38817224 0.34880242 0.6456885
v -0.33951503 0.104275994 0.009524203
v -0.024973392 0.20159021 0.3631148
v -2.3583467 0.30917582 2.1915488
v -2.2310467 0.2100464 2.5819397
v -1.9555691 0.33894163 2.067768
v -1.8282694 0.23981221 2.4581594
v -1.462328 0.44560143 2.1461713
v -0.8138254 0.4579936 1.9116148
v -1.6830857 0.2425032 1.5250889
v -1.034583 0.2548956 1.2905327
v -1.3136553 0.26286262 2.0346882
v -1.6047239 0.3354492 2.3006742
v -1.0700756 0.1493494 2.3322148
v -1.3611443 0.22193602 2.5982006
v -0.08087541 0.5988916 0.03573897
v -0.60242623 0.56024736 0.36706218
v 0.22464919 0.29674897 0.4814388
v -0.29690143 0.25810477 0.8127618
v 0.14457361 0.2580616 0.4250104
v -0.042371985 0.30396318 0.0967042
v -0.18679479 0.22158161 0.6085992
v -0.3737404 0.267483 0.280293
v -0.15953521 0.27669 1.1229957
v 0.06846219 0.3421936 0.8323764
v -0.4337212 0.1797158 0.88603324
v -0.2057236 0.2452194 0.5954138
v 0.11866479 0.4133452 2.748365
v -0.5301822 0.40663502 2.523126
v -0.086952806 0.15009318 3.348531
v -0.7357998 0.14338279 3.123292
v 0.18896583 0.3317186 0.61819965
v -0.2277178 0.267239 0.64260083
v 0.2277178 0.23629999 1.0277992
v -0.18896583 0.1718202 1.0522002
v 0.2915642 0.360342 3.880469
v 0.68902844 0.2635054 3.660631
v 0.061319806 0.3279844 3.4784439
v 0.458784 0.2311478 3.2586057
v 0.8833527 0.288793 2.053124
v 0.5095392 0.37979862 1.5020195
v 0.32576737 0.26731038 2.4277859
v -0.04804602 0.358316 1.8766816
v 0.43692327 0.251347 2.5157726
v 0.75833625 0.28951582 3.0113664
v 0.93260545 0.27066842 2.1928144
v 1.2540184 0.30883703 2.688408
v 0.6787104 0.4144396 2.1799781
v 0.8297062 0.5047812 2.9207962
v 1.3901002 0.1685334 2.0649686
v 1.5410962 0.2588748 2.8057866
v 0.242013 0.4598828 1.2391452
v 0.90549225 0.400915 1.0546088
v 0.048507597 0.2898068 0.5977674
v 0.711987 0.2308388 0.413231
v 2.0101929 0.50148165 2.6621826
v 2.0200229 0.37712142 2.1227727
v 1.4671904 0.39445323 2.6769624
v 1.4770201 0.27009302 2.1375523
v 0.385224 0.28316364 0.5788767
v 0.5149682 0.35140082 0.21509862
v 0.06797822 0.10510961 0.43232903
v 0.1977226 0.1733468 0.068551205
v 1.199839 0.66488284 1.5646496
v 1.7847254 0.5601699 1.9177895
v 1.4738163 0.34563544 1.0162134
v 2.0587025 0.24092244 1.3693532
v 1.844718 0.2335006 1.7091366
v 2.2094111 0.2748326 1.3034886
v 1.4369911 0.2649208 1.3457758
v 1.801684 0.3062528 0.9401278
v 0.1288576 0.431627 0.4737692
v 0.590173 0.3001072 0.2661182
v -0.10381322 0.3403506 0.014681578
v 0.3575024 0.20883103 -0.19296941
v 1.4709119 0.3048124 0.33015618
v 0.97784424 0.18227361 0.1881362
v 1.3177131 0.33740804 0.83391076
v 0.8246452 0.21486922 0.69189084
v 1.2371614 0.31182024 0.6816412
v 1.4412376 0.32170883 0.24947082
v 0.8595584 0.083247 0.49810258
v 1.0636346 0.093135595 0.06593201
v 0.75440925 0.4799448 0.13170199
v 0.42480302 0.39266542 -0.2922238
v 0.3851032 0.2587814 0.4643744
v 0.055497218 0.17150201 0.040448602
v 2.0191002 0.3770464 -0.16833161
v 1.964173 0.533483 0.5738688
v 2.7546341 0.2062726 -0.0779032
v 2.6997068 0.36270902 0.6642972
v 3.0976684 0.4771944 0.3481906
v 3.7352045 0.4516418 0.21508561
v 2.967995 0.17598741 -0.21508598
v 3.6055305 0.15043479 -0.348191
v 2.6188767 0.3226412 -0.19442417
v 3.1120627 0.3787496 0.06155143
v 2.874163 0.34294078 -0.6907316
v 3.367349 0.399049 -0.434756
v 0.4800584 0.39111882 0.19259
v 0.92087954 0.398068 -0.143581
v 0.17473717 0.16720119 -0.2124068
v 0.6155584 0.17415039 -0.5485776
v 0.42004362 0.54967344 -0.59829324
v 0.47727758 0.39878842 0.05880339
v 1.009243 0.2403322 -0.7206456
v 1.0664772 0.089447 -0.063549
v 0.2743794 0.2316354 0.074369386
v 0.9499596 0.3348074 -0.035359215
v 0.16617337 0.21333562 -0.6090412
v 0.8417538 0.3165076 -0.71876985
v 1.4326804 0.41717082 -1.6187184
v 1.6423272 0.29005823 -0.90254205
v 2.1438706 0.29666382 -1.8482937
v 2.3535173 0.1695514 -1.1321176
v 2.2683556 0.3208734 -2.6997025
v 1.9181509 0.36081582 -2.9882371
v 2.000729 0.09862379 -2.4056413
v 1.6505245 0.1385664 -2.6941757
v 0.34062764 0.27869222 -0.454381
v -0.012737191 0.174212 -0.519038
v 0.28215924 0.2485282 -0.086094595
v -0.07120558 0.14404798 -0.1507516
v -0.12632261 0.3082376 -0.5451544
v -0.010781777 0.18417981 -0.14817257
v 0.2799972 0.253919 -0.6803878
v 0.395538 0.12986122 -0.28340617
v 0.33831358 0.3857016 -1.93087
v 0.5389148 0.3171644 -2.3391323
v -0.0707952 0.28352317 -2.114734
v 0.12980603 0.214986 -2.5229964
v 0.13293241 0.32802182 -0.4410758
v 0.2719364 0.19673881 -0.83069324
v -0.27193722 0.35587484 -0.5949068
v -0.13293321 0.22459161 -0.9845241
v 0.042774227 0.47284085 -0.69208485
v -0.3187944 0.41262123 -1.1182169
v -0.3313342 0.24170063 -0.3419936
v -0.6929028 0.18148103 -0.76812583
v -0.412117 0.28541023 -0.5775275
v -0.37995443 0.33940384 -1.0025918
v -0.805021 0.11907001 -0.62838614
v -0.77285844 0.17306362 -1.0534502
v -0.27180842 0.51844424 0.16340579
v 0.23193441 0.37119803 0.0883682
v -0.41019103 0.2742184 -0.28634182
v 0.09355181 0.12697242 -0.36137938
v -0.77070636 0.55237544 -0.1170676
v -0.168822 0.6606522 0.21569262
v -0.4253202 0.2621778 -0.6473618
v 0.1765642 0.3704546 -0.31460163
v -2.4189289 0.41965842 -0.75639045
v -2.1999094 0.4431262 -1.3227214
v -2.9502952 0.21681224 -0.97029346
v -2.7312758 0.24028003 -1.5366244
v -1.5963758 0.4114134 -0.06517019
v -0.87281436 0.34858963 -0.024108602
v -1.5717814 0.2338738 -0.7701874
v -0.84822 0.17105001 -0.7291256
v -2.7215378 0.427664 -0.25632942
v -2.2313423 0.5469472 0.17650142
v -2.2941303 0.10748241 -0.6521442
v -1.8039349 0.22676583 -0.21931341
vt 0.000100000005 0.000100016594
vt 0.99990004 0.000100016594
vt 0.000100000005 0.99990004
vt 0.99990004 0.99990004
vt 0.000100000005 0.000100016594
vt 0.99990004 0.000100016594
vt 0.000100000005 0.99990004
vt 0.99990004 0.99990004
vt 0.000100000005 0.000100016594
vt 0.99990004 0.000100016594
vt 0.000100000005 0.99990004
vt 0.99990004 0.99990004
vt 0.000100000005 0.000100016594
vt 0.99990004 0.000100016594
vt 0.000100000005 0.99990004
vt 0.99990004 0.99990004
vt 0.000100000005 0.000100016594
vt 0.99990004 0.000100016594
vt 0.000100000005 0.99990004
vt 0.99990004 0.99990004
vt 0.000100000005 0.000100016594
vt 0.99990004 0.000100016594
vt 0.000100000005 0.99990004
vt 0.99990004 0.99990004
vt 0.000100000005 0.000100016594
vt 0.99990004 0.000100016594
vt 0.000100000005 0.99990004
vt 0.99990004 0.99990004
vt 0.000100000005 0.000100016594
vt 0.99990004 0.000100016594
vt 0.000100000005 0.99990004
vt 0.99990004 0.99990004
vt 0.000100000005 0.000100016594
vt 0.99990004 0.000100016594
vt 0.000100000005 0.99990004
vt 0.99990004 0.99990004
vt 0.000100000005 0.000100016594
vt 0.99990004 0.000100016594
vt 0.000100000005 0.99990004
vt 0.99990004 0.99990004
vt 0.000100000005 0.000100016594
vt 0.99990004 0.000100016594
vt 0.000100000005 0.99990004
vt 0.99990004 0.99990004
vt 0.000100000005 0.000100016594
vt 0.99990004 0.000100016594
vt 0.000100000005 0.99990004
vt 0.99990004 0.99990004
vt 0.000100000005 0.000100016594
vt 0.99990004 0.000100016594
vt 0.000100000005 0.99990004
vt 0.99990004 0.99990004
vt 0.000100000005 0.000100016594
vt 0.99990004 0.000100016594
vt 0.000100000005 0.99990004
vt 0.99990004 0.99990004
vt 0.000100000005 0.000100016594
vt 0.99990004 0.000100016594
vt 0.000100000005 0.99990004
vt 0.99990004 0.99990004
vt 0.000100000005 0.000100016594
vt 0.99990004 0.000100016594
vt 0.000100000005 0.99990004
vt 0.99990004 0.99990004
vt 0.000100000005 0.000100016594
vt 0.99990004 0.000100016594
vt 0.000100000005 0.99990004
vt 0.99990004 0.99990004
vt 0.000100000005 0.000100016594
vt 0.99990004 0.000100016594
vt 0.000100000005 0.99990004
vt 0.99990004 0.99990004
vt 0.000100000005 0.000100016594
vt 0.99990004 0.000100016594
vt 0.000100000005 0.99990004
vt 0.99990004 0.99990004
vt 0.000100000005 0.000100016594
vt 0.99990004 0.000100016594
vt 0.000100000005 0.99990004
vt 0.99990004 0.99990004
vt 0.000100000005 0.000100016594
vt 0.99990004 0.000100016594
vt 0.000100000005 0.99990004
vt 0.99990004 0.99990004
vt 0.000100000005 0.000100016594
vt 0.99990004 0.000100016594
vt 0.000100000005 0.99990004
vt 0.99990004 0.99990004
vt 0.000100000005 0.000100016594
vt 0.99990004 0.000100016594
vt 0.000100000005 0.99990004
vt 0.99990004 0.99990004
vt 0.000100000005 0.000100016594
vt 0.99990004 0.000100016594
vt 0.000100000005 0.99990004
vt 0.99990004 0.99990004
vt 0.000100000005 0.000100016594
vt 0.99990004 0.000100016594
vt 0.000100000005 0.99990004
vt 0.99990004 0.99990004
vt 0.000100000005 0.000100016594
vt 0.99990004 0.000100016594
vt 0.000100000005 0.99990004
vt 0.99990004 0.99990004
vt 0.000100000005 0.000100016594
vt 0.99990004 0.000100016594
vt 0.000100000005 0.99990004
vt 0.99990004 0.99990004
vt 0.000100000005 0.000100016594
vt 0.99990004 0.000100016594
vt 0.000100000005 0.99990004
vt 0.99990004 0.99990004
vt 0.000100000005 0.000100016594
vt 0.99990004 0.000100016594
vt 0.000100000005 0.99990004
vt 0.99990004 0.99990004
vt 0.000100000005 0.000100016594
vt 0.99990004 0.000100016594
vt 0.000100000005 0.99990004
vt 0.99990004 0.99990004
vt 0.000100000005 0.000100016594
vt 0.99990004 0.000100016594
vt 0.000100000005 0.99990004
vt 0.99990004 0.99990004
vt 0.000100000005 0.000100016594
vt 0.99990004 0.000100016594
vt 0.000100000005 0.99990004
vt 0.99990004 0.99990004
vt 0.000100000005 0.000100016594
vt 0.99990004 0.000100016594
vt 0.000100000005 0.99990004
vt 0.99990004 0.99990004
vt 0.000100000005 0.000100016594
vt 0.99990004 0.000100016594
vt 0.000100000005 0.99990004
vt 0.99990004 0.99990004
vt 0.000100000005 0.000100016594
vt 0.99990004 0.000100016594
vt 0.000100000005 0.99990004
vt 0.99990004 0.99990004
vt 0.000100000005 0.000100016594
vt 0.99990004 0.000100016594
vt 0.000100000005 0.99990004
vt 0.99990004 0.99990004
vt 0.000100000005 0.000100016594
vt 0.99990004 0.000100016594
vt 0.000100000005 0.99990004
vt 0.99990004 0.99990004
vt 0.000100000005 0.000100016594
vt 0.99990004 0.000100016594
vt 0.000100000005 0.99990004
vt 0.99990004 0.99990004
vt 0.000100000005 0.000100016594
vt 0.99990004 0.000100016594
vt 0.000100000005 0.99990004
vt 0.99990004 0.99990004
vt 0.000100000005 0.000100016594
vt 0.99990004 0.000100016594
vt 0.000100000005 0.99990004
vt 0.99990004 0.99990004
vt 0.000100000005 0.000100016594
vt 0.99990004 0.000100016594
vt 0.000100000005 0.99990004
vt 0.99990004 0.99990004
vt 0.000100000005 0.000100016594
vt 0.99990004 0.000100016594
vt 0.000100000005 0.99990004
vt 0.99990004 0.99990004
vt 0.000100000005 0.000100016594
vt 0.99990004 0.000100016594
vt 0.000100000005 0.99990004
vt 0.99990004 0.99990004
vt 0.000100000005 0.000100016594
vt 0.99990004 0.000100016594
vt 0.000100000005 0.99990004
vt 0.99990004 0.99990004
vt 0.000100000005 0.000100016594
vt 0.99990004 0.000100016594
vt 0.000100000005 0.99990004
vt 0.99990004 0.99990004
vn -0.024288002 0.99734706 -0.068626
vn 0.645205 0.743904 0.17412199
vn 0.093804 0.667679 -0.7385161
vn 0.76329696 0.414236 -0.495769
vn 0.498876 0.86663693 0.008032
vn -0.091129005 0.88099295 -0.46427003
vn 0.027220001 0.80304605 0.595295
vn -0.56278396 0.817403 0.12299301
vn 0.053956006 0.845235 0.531664
vn 0.25961202 0.9471281 -0.188547
vn -0.651951 0.692664 0.308507
vn -0.446294 0.79455805 -0.41170397
vn 0.44590598 0.701726 -0.555652
vn -0.22853999 0.92654 -0.29882103
vn 0.710558 0.68697095 0.15224801
vn 0.036112003 0.911784 0.409078
vn -0.44126797 0.825809 -0.351172
vn 0.050839003 0.97805905 0.202028
vn 0.126964 0.59549206 -0.79326504
vn 0.619072 0.747743 -0.24006401
vn -0.47119498 0.881467 -0.031481
vn -0.24339902 0.70408 0.6671051
vn 0.249555 0.9347321 -0.25298
vn 0.477352 0.757344 0.445606
vn -0.33269703 0.912054 0.239728
vn 0.378019 0.925636 -0.01733
vn -0.57463294 0.689472 -0.440937
vn 0.136083 0.703054 -0.69799507
vn 0.317078 0.83459306 -0.450462
vn -0.231702 0.971448 0.051028002
vn 0.77632296 0.620576 0.110495
vn 0.22754198 0.75743 0.61198395
vn 0.31464303 0.94383806 -0.100842
vn -0.32215104 0.896655 0.30369103
vn 0.687678 0.57493293 0.443341
vn 0.050884005 0.52775 0.84787405
vn 0.49401802 0.82572204 0.272266
vn 0.122711994 0.91689104 -0.37980703
vn -0.164137 0.75326604 0.636906
vn -0.535444 0.84443504 -0.015168001
vn -0.215932 0.83470106 0.50660497
vn 0.24347202 0.96668696 -0.07897901
vn -0.768403 0.6393021 0.029137
vn -0.308999 0.77128893 -0.556446
vn 0.35673404 0.929133 0.097221
vn -0.357326 0.921749 -0.150657
vn 0.13045101 0.6394231 0.757708
vn -0.58361 0.632038 0.509831
vn 0.224097 0.956232 -0.188154
vn -0.521662 0.8408291 -0.144482
vn 0.29345304 0.785456 0.54492605
vn -0.452306 0.670054 0.588598
vn -0.011408001 0.929631 0.368315
vn 0.6355141 0.77201796 0.010501001
vn -0.38615903 0.876965 -0.28603104
vn 0.26076302 0.719352 -0.64384407
vn 0.565395 0.79785407 0.20918101
vn 0.144982 0.900205 -0.410623
vn -0.061697997 0.773694 0.63054806
vn -0.48211104 0.876044 0.010744001
vn -0.574553 0.806251 -0.14088601
vn -0.164104 0.854993 0.491994
vn 0.058440004 0.83092403 -0.553308
vn 0.46888798 0.87966603 0.07957201
vn -0.177645 0.87078696 -0.458446
vn -0.027746003 0.96047205 0.27699104
vn 0.528578 0.62666696 -0.572621
vn 0.678477 0.716352 0.16281602
vn -0.245603 0.941247 0.231804
vn 0.479995 0.876758 0.02999
vn -0.45722502 0.75524795 -0.469624
vn 0.268373 0.69075906 -0.671438
vn 0.19972101 0.9651601 0.16904701
vn 0.21314201 0.795371 -0.56741107
vn -0.54164296 0.819034 0.18922602
vn -0.528222 0.649245 -0.547233
vn -0.23014 0.844383 0.48379
vn 0.019917002 0.975897 -0.21732101
vn -0.84156907 0.501219 0.201348
vn -0.5915121 0.632733 -0.499762
vn -0.16859601 0.97042406 -0.17277601
vn 0.471031 0.855911 0.21341503
vn 0.131023 0.62129796 -0.772542
vn 0.77064997 0.506785 -0.38635105
vn 0.023313003 0.79109 0.611256
vn 0.52723795 0.84820205 0.050740004
vn -0.540076 0.8345061 0.109171
vn -0.036151003 0.891617 -0.45134398
vn -0.037182003 0.965647 0.25718197
vn 0.629928 0.775456 -0.043103002
vn -0.373648 0.8336521 -0.40670702
vn 0.293462 0.6434611 -0.706992
vn 0.289599 0.88483 -0.36497802
vn -0.4169 0.70924795 -0.568473
vn 0.070086 0.93153507 0.35683507
vn -0.63641304 0.75595295 0.15333901
vn -0.23486501 0.914985 0.328088
vn 0.08783301 0.9306211 -0.355288
vn -0.831955 0.55355006 0.037864
vn -0.509256 0.569187 -0.6455111
vn 0.134903 0.9744621 0.17951399
vn -0.32306302 0.85319304 -0.409503
vn -0.378223 0.66717005 0.64174104
vn -0.83618903 0.545901 0.052724008
vn -0.13235101 0.81215 -0.568239
vn -0.186946 0.96764106 0.16947503
vn 0.598737 0.642409 -0.478357
vn 0.54414207 0.79789907 0.259357
vn -0.34562 0.9382521 0.01518
vn 0.39375302 0.908617 -0.13918702
vn -0.496008 0.58893096 -0.638073
vn 0.24336603 0.559296 -0.79244
vn -0.596059 0.788623 0.150957
vn 0.07145901 0.86456406 0.49741504
vn -0.250534 0.816098 -0.520785
vn 0.416984 0.892039 -0.174327
vn -0.307081 0.921006 0.239684
vn 0.29393402 0.9304811 -0.218651
vn -0.723356 0.615717 -0.312488
vn -0.122341 0.62519205 -0.770823
vn 0.048242003 0.984731 -0.16726302
vn 0.11218199 0.816168 0.56682
vn 0.70647395 0.63914704 -0.30395103
vn 0.770413 0.47058398 0.43013301
vn -0.437734 0.789085 0.430968
vn 0.30005002 0.90175605 0.31113598
vn -0.55590296 0.7691 -0.31536698
vn 0.18188101 0.881772 -0.435199
vn -0.28942502 0.9458651 -0.146879
vn -0.080078006 0.81893396 0.56827295
vn 0.420748 0.82553 -0.376126
vn 0.63009506 0.69860005 0.339026
vn 0.299266 0.88527393 0.35599104
vn -0.28188 0.95155704 -0.122816
vn -0.14484599 0.516463 0.84397
vn -0.72599196 0.58274496 0.365163
vn 0.171921 0.94469804 -0.27926302
vn -0.54204696 0.73359805 -0.409902
vn 0.053786006 0.88375205 0.46485403
vn -0.66018206 0.672652 0.33421504
vn -0.283018 0.95867604 -0.029008001
vn -0.08069201 0.741436 0.66615504
vn 0.42849702 0.86355704 -0.26581803
vn 0.6308231 0.646317 0.429345
vn 0.055031 0.954638 0.29264104
vn 0.38465706 0.842018 -0.378212
vn -0.617213 0.78673893 -0.009483
vn -0.287587 0.67412007 -0.680336
vn 0.37083703 0.89381707 0.252134
vn 0.6129379 0.66516304 -0.42645603
vn -0.334318 0.94232804 -0.015791
vn -0.092217006 0.71367395 -0.69438106
vn 0.17479 0.960974 0.21442501
vn -0.311445 0.879991 -0.35863402
vn -0.328309 0.650138 0.685226
vn -0.814544 0.56915504 0.112165995
vn -0.018928 0.870818 0.49124
vn 0.037652 0.965803 -0.256528
vn -0.71012104 0.57819504 0.401771
vn -0.6535411 0.67318004 -0.345997
vn -0.116437 0.9915561 -0.057093002
vn 0.601795 0.78161293 -0.164081
vn -0.31374198 0.64334106 -0.69834006
vn 0.40449104 0.43339798 -0.805328
vn -0.445977 0.85567796 -0.26252502
vn 0.207502 0.973237 0.098759
vn -0.070984006 0.540605 -0.838277
vn 0.58249396 0.6581631 -0.476992
vn -0.08016001 0.90758806 0.412139
vn 0.19228902 0.93678105 -0.292347
vn -0.74115103 0.655258 0.146055
vn -0.468702 0.68445104 -0.558431
vn -0.306326 0.941237 0.14226002
vn 0.445537 0.875956 0.184928
vn -0.280769 0.75675297 -0.590333
vn 0.47109398 0.69147205 -0.5476661
vn -0.34696 0.8391961 -0.41877
vn 0.21046802 0.97484004 0.073424004
vn 0.13906802 0.475101 -0.868873
vn 0.69649506 0.610744 -0.37667802
g bbCloverfieldLargeSparse_LOD1_0
f 2/2/2 3/3/3 1/1/1
f 4/4/4 3/3/3 2/2/2
f 6/6/6 7/7/7 5/5/5
f 8/8/8 7/7/7 6/6/6
f 10/10/10 11/11/11 9/9/9
f 12/12/12 11/11/11 10/10/10
f 14/14/14 15/15/15 13/13/13
f 16/16/16 15/15/15 14/14/14
f 18/18/18 19/19/19 17/17/17
f 20/20/20 19/19/19 18/18/18
f 22/22/22 23/23/23 21/21/21
f 24/24/24 23/23/23 22/22/22
f 26/26/26 27/27/27 25/25/25
f 28/28/28 27/27/27 26/26/26
f 30/30/30 31/31/31 29/29/29
f 32/32/32 31/31/31 30/30/30
f 34/34/34 35/35/35 33/33/33
f 36/36/36 35/35/35 34/34/34
f 38/38/38 39/39/39 37/37/37
f 40/40/40 39/39/39 38/38/38
f 42/42/42 43/43/43 41/41/41
f 44/44/44 43/43/43 42/42/42
f 46/46/46 47/47/47 45/45/45
f 48/48/48 47/47/47 46/46/46
f 50/50/50 51/51/51 49/49/49
f 52/52/52 51/51/51 50/50/50
f 54/54/54 55/55/55 53/53/53
f 56/56/56 55/55/55 54/54/54
f 58/58/58 59/59/59 57/57/57
f 60/60/60 59/59/59 58/58/58
f 62/62/62 63/63/63 61/61/61
f 64/64/64 63/63/63 62/62/62
f 66/66/66 67/67/67 65/65/65
f 68/68/68 67/67/67 66/66/66
f 70/70/70 71/71/71 69/69/69
f 72/72/72 71/71/71 70/70/70
f 74/74/74 75/75/75 73/73/73
f 76/76/76 75/75/75 74/74/74
f 78/78/78 79/79/79 77/77/77
f 80/80/80 79/79/79 78/78/78
f 82/82/82 83/83/83 81/81/81
f 84/84/84 83/83/83 82/82/82
f 86/86/86 87/87/87 85/85/85
f 88/88/88 87/87/87 86/86/86
f 90/90/90 91/91/91 89/89/89
f 92/92/92 91/91/91 90/90/90
f 94/94/94 95/95/95 93/93/93
f 96/96/96 95/95/95 94/94/94
f 98/98/98 99/99/99 97/97/97
f 100/100/100 99/99/99 98/98/98
f 102/102/102 103/103/103 101/101/101
f 104/104/104 103/103/103 102/102/102
f 106/106/106 107/107/107 105/105/105
f 108/108/108 107/107/107 106/106/106
f 110/110/110 111/111/111 109/109/109
f 112/112/112 111/111/111 110/110/110
f 114/114/114 115/115/115 113/113/113
f 116/116/116 115/115/115 114/114/114
f 118/118/118 119/119/119 117/117/117
f 120/120/120 119/119/119 118/118/118
f 122/122/122 123/123/123 121/121/121
f 124/124/124 123/123/123 122/122/122
f 126/126/126 127/127/127 125/125/125
f 128/128/128 127/127/127 126/126/126
f 130/130/130 131/131/131 129/129/129
f 132/132/132 131/131/131 130/130/130
f 134/134/134 135/135/135 133/133/133
f 136/136/136 135/135/135 134/134/134
f 138/138/138 139/139/139 137/137/137
f 140/140/140 139/139/139 138/138/138
f 142/142/142 143/143/143 141/141/141
f 144/144/144 143/143/143 142/142/142
f 146/146/146 147/147/147 145/145/145
f 148/148/148 147/147/147 146/146/146
f 150/150/150 151/151/151 149/149/149
f 152/152/152 151/151/151 150/150/150
f 154/154/154 155/155/155 153/153/153
f 156/156/156 155/155/155 154/154/154
f 158/158/158 159/159/159 157/157/157
f 160/160/160 159/159/159 158/158/158
f 162/162/162 163/163/163 161/161/161
f 164/164/164 163/163/163 162/162/162
f 166/166/166 167/167/167 165/165/165
f 168/168/168 167/167/167 166/166/166
f 170/170/170 171/171/171 169/169/169
f 172/172/172 171/171/171 170/170/170
f 174/174/174 175/175/175 173/173/173
f 176/176/176 175/175/175 174/174/174
f 178/178/178 179/179/179 177/177/177
f 180/180/180 179/179/179 178/178/178
