g BeetleGlandMesh
v 1.4229946 0.019881016 0.945032
v 1.5220156 -0.026135627 0.6984519
v 1.54459 -0.005507515 0.7059653
v 1.561146 -0.044333816 0.6512205
v 1.4636825 0.06550908 0.969417
v 1.3049169 0.07411845 1.1066927
v 1.5670072 -0.015933014 0.7207645
v 1.3526835 0.13940161 1.1443313
v 1.1505806 0.1409651 1.1470993
v 1.4979565 0.049549118 1.0183849
v 1.1879086 0.21736103 1.1903315
v 0.97010094 0.20813164 1.0842507
v 1.5662354 -0.04670075 0.72753
v 1.384344 0.124363735 1.2204204
v 0.99323857 0.30210215 1.131658
v 0.8236989 0.24704173 0.9223459
v 1.4905944 -0.01160236 1.0416425
v 1.5432037 -0.06711614 0.7207645
v 1.1944294 0.21235017 1.278189
v 0.828211 0.37655044 0.9732263
v 0.7733798 0.23798126 0.71350586
v 1.5207865 -0.05669067 0.7059653
v 1.5220156 -0.026135627 0.6984519
v 1.3674378 0.044366434 1.2569976
v 1.4486206 -0.056625076 1.0183849
v 1.4143348 -0.04065983 0.969417
v 1.4229946 0.019881016 0.945032
v 0.96489596 0.30795026 1.2288828
v 0.74348754 0.46189892 0.77247125
v 0.8262112 0.14910477 0.36530626
v 1.3177822 -0.019989965 1.2204204
v 1.2860218 -0.0049078427 1.1443313
v 1.3049169 0.07411845 1.1066927
v 1.1635879 0.13084272 1.3210664
v 0.7452725 0.39247525 1.0821122
v 0.72232985 0.602787 0.43346697
v 0.8792094 0.2910048 -0.0019162446
v 1.117702 0.0604839 1.1903315
v 1.1505806 0.1409651 1.1470993
v 1.1245914 0.055317044 1.278189
v 0.9151283 0.21917886 1.2770145
v 0.5384706 0.48784977 0.92207015
v 0.91794527 0.12036539 1.131658
v 0.97010094 0.20813164 1.0842507
v 0.8906219 0.1258696 1.2288828
v 0.6660875 0.27747342 1.1363767
v 0.73937476 0.13301142 0.9732263
v 0.8236989 0.24704173 0.9223459
v 0.6600576 0.14847645 1.0821122
v 0.40080297 0.28802496 0.99797535
v 0.6147705 0.036414824 0.77247125
v 0.7733798 0.23798126 0.71350586
v 0.4248655 0.06319397 0.92207015
v 0.22960049 0.6401563 0.7250417
v 0.500366 -0.29107836 0.43346697
v 0.8262112 0.14910477 0.36530626
v 0.060943887 -0.2462445 0.7250417
v -0.0016857269 0.2219983 0.8828433
v 0.72461 -0.2346679 -0.0019162446
v 0.8792094 0.2910048 -0.0019162446
v 0.673206 -0.13985205 -0.43630004
v 0.72581196 0.31892657 -0.3810249
v 0.35239947 0.0017593866 -0.7027933
v 0.15571459 -0.4429709 -0.7027933
v -0.09105384 -0.2026435 -0.851103
v 0.43077365 -0.5508149 -0.3810249
v 0.29982337 -0.6537472 -0.0027380115
v -0.057844665 -0.7318465 -0.44464874
v -0.37098312 -0.47118318 -0.7174576
v 0.0912815 -0.61287034 0.3789332
v -0.21020703 -0.79517615 -0.010623304
v -0.32855356 -0.57067466 0.43155164
v -0.49142453 -0.67282784 -0.40340906
v -0.639559 -0.57751405 -0.031450797
v -0.38163793 -0.12117243 0.70792145
v -0.5090241 -0.23594455 -0.8371999
v -0.325786 -0.11941394 -0.8975895
v -0.7164509 -0.31217432 -0.46809173
v -0.6754331 -0.35489163 0.36318576
v -0.310182 0.39097917 0.7079214
v -0.8125415 -0.13578784 -0.046758197
v -0.6896218 0.08627083 0.42021775
v -0.53203046 -0.12955993 -0.8902943
v -0.40998328 -0.0639222 -0.9208777
v -0.67408764 -0.12588628 -0.71997935
v -0.5364465 -0.0763846 -0.9743483
v -0.44896206 -0.034562923 -0.98746645
v -0.6354892 -0.05230187 -0.83283186
v -0.51436293 -0.051998865 -1.1252766
v -0.45859963 -0.02775755 -1.1279719
v -0.6116831 -0.017365351 -0.9527168
v -0.49955553 -0.030389361 -1.2222681
v -0.47022703 -0.018317517 -1.2222918
v -0.4920354 0.00020588207 -1.2424471
v -0.5620104 -0.0127698835 -1.1239898
v -0.52420485 -0.009529727 -1.2246921
v -0.5170136 0.021309175 -1.2270119
v -0.5489897 0.046757862 -1.1259156
v -0.5929423 0.078499325 -0.9464447
v -0.61020356 0.08592674 -0.81091774
v -0.48779184 0.033495095 -1.2246921
v -0.49305427 0.07106419 -1.1239898
v -0.46311602 0.012614427 -1.2222681
v -0.47022703 -0.018317517 -1.2222918
v -0.44517368 0.03165272 -1.1252766
v -0.45859963 -0.02775755 -1.1279719
v -0.50428724 0.1202587 -0.9527168
v -0.42806268 0.060490824 -0.9743483
v -0.44896206 -0.034562923 -0.98746645
v -0.6436572 0.09674151 -0.677346
v -0.48551056 0.15225145 -0.83283186
v -0.37895933 0.07278106 -0.8902943
v -0.40998328 -0.0639222 -0.9208777
v -0.7189644 0.106899515 -0.4161058
v -0.45342487 0.21628252 -0.71997935
v -0.27837485 0.100895554 -0.8371999
v -0.325786 -0.11941394 -0.8975895
v -0.6815734 0.31462407 -0.046758197
v -0.40483767 0.38292047 -0.46809173
v -0.022420868 0.21456943 -0.71745765
v -0.09105384 -0.2026435 -0.851103
v 0.35239947 0.0017593866 -0.7027933
v -0.5280337 0.5019509 0.36318576
v -0.31890514 0.64742875 -0.031450793
v -0.10330619 0.75185966 0.43155164
v 0.3749568 0.48876402 -0.44464874
v 0.72581196 0.31892657 -0.3810249
v -0.03514217 0.5692568 -0.40340906
v 0.1765549 0.79627204 -0.010623299
v 0.3417168 0.7127906 0.32328898
v 0.65409327 0.6850016 -0.0027380115
vt 0.8291442 0.94866395
vt 0.9074201 0.99521965
vt 0.9086891 0.9838975
vt 0.9341129 0.9895502
vt 0.83887964 0.92787427
vt 0.7695455 0.9020497
vt 0.91155756 0.9755281
vt 0.78753024 0.876922
vt 0.71600246 0.8617131
vt 0.8450684 0.9093798
vt 0.73897105 0.83562714
vt 0.6520562 0.8151285
vt 0.91764075 0.96870846
vt 0.8011078 0.8579381
vt 0.67778426 0.78313214
vt 0.57196546 0.78419954
vt 0.8584474 0.893825
vt 0.9256794 0.96436703
vt 0.76086324 0.8155809
vt 0.5953231 0.7334103
vt 0.48827374 0.7870637
vt 0.9344848 0.9635113
vt 0.94579667 0.96488947
vt 0.81695503 0.8421518
vt 0.8765767 0.8842774
vt 0.89601547 0.8825392
vt 0.91850895 0.87796754
vt 0.7045824 0.7591507
vt 0.5063726 0.6960844
vt 0.34387857 0.81967354
vt 0.8359651 0.82893914
vt 0.85798484 0.8201044
vt 0.8873204 0.8094425
vt 0.78277594 0.79697526
vt 0.62966305 0.69102347
vt 0.38777137 0.66266483
vt 0.20548356 0.7346179
vt 0.8293714 0.76185495
vt 0.8621498 0.748168
vt 0.8040182 0.7789372
vt 0.7329389 0.7335789
vt 0.5562719 0.6230431
vt 0.7917045 0.68720114
vt 0.8353278 0.6743892
vt 0.7605787 0.70798594
vt 0.67170596 0.6498709
vt 0.7642501 0.5904295
vt 0.8263951 0.58799726
vt 0.7135299 0.61264986
vt 0.61135644 0.5613589
vt 0.7447635 0.48633274
vt 0.8435711 0.50674945
vt 0.668707 0.5118369
vt 0.47824776 0.5407849
vt 0.71938896 0.33957112
vt 0.8891719 0.37300268
vt 0.6126617 0.38408056
vt 0.552539 0.46190307
vt 0.7783916 0.23754509
vt 0.9551348 0.2284158
vt 0.77536756 0.12174569
vt 0.9135793 0.07937528
vt 0.72312564 -0.0012763874
vt 0.6195571 0.09336771
vt 0.5383009 0.011754321
vt 0.67599654 0.16816197
vt 0.65548605 0.23792006
vt 0.586323 0.17627312
vt 0.50555587 0.13085024
vt 0.62349087 0.2993871
vt 0.5774614 0.24303658
vt 0.5650011 0.30644742
vt 0.5249008 0.20142345
vt 0.5175658 0.25624964
vt 0.53807247 0.37053588
vt 0.43234053 0.10682188
vt 0.44082728 0.02882369
vt 0.4551938 0.20816632
vt 0.5150806 0.31074384
vt 0.48969948 0.42843437
vt 0.46041054 0.28279248
vt 0.47893348 0.35050225
vt 0.39443883 0.09258358
vt 0.40284386 0.03953655
vt 0.39994112 0.1629316
vt 0.36131474 0.074095055
vt 0.37160975 0.03717895
vt 0.36922628 0.13559766
vt 0.31799683 0.039992496
vt 0.32275188 0.019319879
vt 0.34060898 0.10329698
vt 0.29251346 0.0288886
vt 0.29022467 0.018892186
vt 0.27967075 0.028414356
vt 0.30767298 0.056003615
vt 0.28937504 0.03629233
vt 0.2830584 0.039709345
vt 0.29211673 0.06477602
vt 0.31187505 0.1201029
vt 0.33023944 0.16165401
vt 0.2760398 0.040232047
vt 0.2739398 0.067330495
vt 0.2692864 0.036151364
vt 0.26531217 0.026596325
vt 0.25554106 0.06052719
vt 0.23928572 0.04661493
vt 0.27832338 0.12704434
vt 0.24118394 0.11603771
vt 0.21124133 0.0899957
vt 0.34971514 0.19987057
vt 0.28117406 0.17323239
vt 0.22425711 0.1556909
vt 0.18724877 0.10896213
vt 0.38813367 0.25430447
vt 0.28267238 0.21849133
vt 0.20047656 0.19617309
vt 0.15081769 0.12106772
vt 0.40777716 0.3293542
vt 0.30679157 0.30427366
vt 0.15998033 0.29906616
vt 0.06287792 0.16834246
vt 0.013147088 0.37040725
vt 0.43767834 0.3941306
vt 0.3627231 0.39936298
vt 0.4201418 0.46906328
vt 0.17975745 0.47650093
vt 0.09829062 0.59670025
vt 0.26296514 0.39674354
vt 0.32300135 0.49125865
vt 0.38059723 0.5520497
vt 0.27991697 0.59768486
vn -0.77904105 0.3622666 -0.5117206
vn -0.7590753 0.35298586 -0.54699683
vn 0.021577185 0.91014826 -0.41372043
vn 0.29273695 -0.13614465 -0.94645107
vn 0.030580048 0.9476152 -0.31794703
vn -0.4927316 0.23261693 -0.8385135
vn 0.8833711 0.46535298 -0.05569709
vn 0.21427722 0.9002634 -0.3789603
vn 0.047731724 -0.0026856726 -0.99885654
vn 0.85267437 0.48827577 0.18583107
vn 0.36967558 0.8215691 -0.43400943
vn 0.51388747 -0.177532 -0.83928657
vn 0.9013174 -0.41902578 0.10974631
vn 0.6796049 0.57068133 0.46093377
vn 0.53827417 0.75673336 -0.3709657
vn 0.85130215 -0.25321767 -0.45952734
vn 0.8266424 -0.38286307 0.41240564
vn 0.21335569 -0.9753752 -0.0558796
vn 0.34517354 0.73530203 0.5832548
vn 0.69305736 0.7006566 -0.16956389
vn 0.9752959 -0.22074398 -0.008362208
vn -0.6821037 -0.60290647 -0.4138096
vn -0.7590753 0.35298586 -0.54699683
vn 0.53737634 -0.24436465 0.80716324
vn 0.17884019 -0.96677464 0.18265502
vn -0.703777 -0.6340097 -0.3205146
vn -0.77904105 0.3622666 -0.5117206
vn 0.09750746 0.82892025 0.5508027
vn 0.7338059 0.66901344 0.11810966
vn 0.95901144 -0.20899692 0.1913567
vn 0.026033131 -0.8937025 0.44790417
vn -0.52673274 -0.7500425 -0.39998606
vn -0.4927316 0.23261693 -0.8385135
vn 0.055269815 -0.023987893 0.9981832
vn -0.008575994 0.85134286 0.52453953
vn 0.6820158 0.70994097 0.17560832
vn 0.985999 0.12122037 -0.11450626
vn -0.27589652 -0.83596045 -0.4743956
vn 0.047731724 -0.0026856726 -0.99885654
vn -0.25806996 -0.78327405 0.56558096
vn -0.3065932 0.12064135 0.9441643
vn -0.010376472 0.8066487 0.5909401
vn 0.045869824 -0.9229204 -0.38224852
vn 0.51388747 -0.177532 -0.83928657
vn -0.38984767 -0.7351073 0.5546494
vn -0.4522279 0.16373347 0.8767447
vn 0.3834398 -0.92014563 -0.07941025
vn 0.85130215 -0.25321767 -0.45952734
vn -0.2897833 -0.7317066 0.616953
vn -0.3623825 0.12821029 0.923169
vn 0.5594558 -0.7648532 0.3193882
vn 0.9752959 -0.22074398 -0.008362208
vn -0.034395054 -0.6341569 0.772439
vn -0.053439226 0.8155357 0.57623416
vn 0.5977169 -0.6701388 0.4400552
vn 0.95901144 -0.20899692 0.1913567
vn 0.0504789 -0.56900156 0.8207857
vn -0.2879781 0.06586019 0.95536953
vn 0.8568555 -0.5131184 0.050081912
vn 0.985999 0.12122037 -0.11450626
vn 0.80512387 -0.271101 -0.52752227
vn 0.7223697 0.32530898 -0.61020994
vn 0.4365128 0.10089571 -0.8940227
vn 0.3401971 -0.5059467 -0.79264367
vn 0.19474211 -0.15079467 -0.9691937
vn 0.608313 -0.718244 -0.33775842
vn 0.4859927 -0.86443466 0.12870078
vn 0.113348804 -0.9080418 -0.40325198
vn -0.26341382 -0.6269926 -0.7331394
vn 0.2504438 -0.81465954 0.52307534
vn -0.09891189 -0.98570085 0.13641967
vn -0.2820305 -0.74769664 0.6011726
vn -0.5015554 -0.7986615 -0.33253905
vn -0.73289335 -0.6726175 0.102240056
vn -0.45241913 -0.24259849 0.8581742
vn -0.38979658 -0.53601605 -0.74882936
vn 0.17084484 -0.1620859 -0.9718746
vn -0.88914967 -0.33345398 -0.31340283
vn -0.77503 -0.4135935 0.47777492
vn -0.5102549 0.40581733 0.7582561
vn -0.99869376 -0.043336548 0.027070083
vn -0.87062216 0.14777413 0.46923319
vn -0.35821152 -0.6353318 -0.68413305
vn 0.414242 -0.32622358 -0.8496951
vn -0.8948704 -0.21527918 -0.39097553
vn -0.21629226 -0.90545493 -0.3651973
vn 0.73426145 -0.5828251 -0.348102
vn -0.9179512 -0.16556571 -0.3604907
vn -0.1315066 -0.97120786 -0.19864853
vn 0.7669635 -0.6301125 -0.12134687
vn -0.92971164 -0.24513161 -0.27485746
vn -0.0951589 -0.8497158 -0.51858246
vn 0.6703828 -0.5629555 -0.4833922
vn 0.06650071 -0.055727534 -0.9962289
vn -0.89925206 -0.313403 -0.3051628
vn -0.7411552 -0.29838482 -0.60137796
vn -0.583957 0.48971328 -0.6474372
vn -0.7311538 0.59525084 -0.3333026
vn -0.7718146 0.5986759 -0.2142183
vn -0.79512274 0.5679056 -0.21275096
vn 0.16486634 0.7831914 -0.59952503
vn 0.1265007 0.94529134 -0.3007024
vn 0.82149637 0.24189843 -0.5163613
vn 0.6703828 -0.5629555 -0.4833922
vn 0.9275868 0.32044685 -0.19208498
vn 0.7669635 -0.6301125 -0.12134687
vn 0.014923678 0.9624704 -0.27097613
vn 0.8360291 0.41833502 -0.35503694
vn 0.73426145 -0.5828251 -0.348102
vn -0.8363796 0.4817766 -0.26145828
vn -0.13022543 0.9151794 -0.38142902
vn 0.4966132 0.5091873 -0.702925
vn 0.414242 -0.32622358 -0.8496951
vn -0.891596 0.38588828 -0.23695321
vn -0.27305496 0.838636 -0.4713074
vn 0.22403936 0.52562726 -0.82068413
vn 0.17084484 -0.1620859 -0.9718746
vn -0.8425373 0.532312 -0.08230967
vn -0.42543536 0.7713076 -0.47338077
vn 0.119849585 0.5275579 -0.8410225
vn 0.19474211 -0.15079467 -0.9691937
vn 0.4365128 0.10089571 -0.8940227
vn -0.7183974 0.6348351 0.28441077
vn -0.4678055 0.85909826 -0.20762533
vn -0.26161334 0.91808826 0.29777896
vn 0.25880533 0.66434836 -0.7011854
vn 0.7223697 0.32530898 -0.61020994
vn -0.11954497 0.7976887 -0.5911021
vn 0.02520878 0.9795106 -0.19980857
vn 0.18707964 0.96530646 0.18216613
vn 0.5424546 0.814689 -0.20499985
g BeetleGlandMesh_0
f 3/3/3 2/2/2 1/1/1
f 3/3/3 4/4/4 2/2/2
f 5/5/5 3/3/3 1/1/1
f 5/5/5 1/1/1 6/6/6
f 3/3/3 7/7/7 4/4/4
f 7/7/7 3/3/3 5/5/5
f 8/8/8 5/5/5 6/6/6
f 8/8/8 6/6/6 9/9/9
f 10/10/10 7/7/7 5/5/5
f 10/10/10 5/5/5 8/8/8
f 11/11/11 8/8/8 9/9/9
f 11/11/11 9/9/9 12/12/12
f 7/7/7 13/13/13 4/4/4
f 13/13/13 7/7/7 10/10/10
f 14/14/14 10/10/10 8/8/8
f 14/14/14 8/8/8 11/11/11
f 15/15/15 11/11/11 12/12/12
f 15/15/15 12/12/12 16/16/16
f 17/17/17 13/13/13 10/10/10
f 17/17/17 10/10/10 14/14/14
f 4/4/4 13/13/13 18/18/18
f 18/18/18 13/13/13 17/17/17
f 19/19/19 14/14/14 11/11/11
f 19/19/19 11/11/11 15/15/15
f 20/20/20 15/15/15 16/16/16
f 20/20/20 16/16/16 21/21/21
f 22/22/22 4/4/4 18/18/18
f 23/23/23 4/4/4 22/22/22
f 24/24/24 17/17/17 14/14/14
f 24/24/24 14/14/14 19/19/19
f 25/25/25 18/18/18 17/17/17
f 22/22/22 18/18/18 25/25/25
f 25/25/25 17/17/17 24/24/24
f 23/23/23 22/22/22 26/26/26
f 26/26/26 22/22/22 25/25/25
f 27/27/27 23/23/23 26/26/26
f 28/28/28 19/19/19 15/15/15
f 28/28/28 15/15/15 20/20/20
f 29/29/29 20/20/20 21/21/21
f 29/29/29 21/21/21 30/30/30
f 31/31/31 25/25/25 24/24/24
f 26/26/26 25/25/25 31/31/31
f 27/27/27 26/26/26 32/32/32
f 32/32/32 26/26/26 31/31/31
f 33/33/33 27/27/27 32/32/32
f 34/34/34 24/24/24 19/19/19
f 31/31/31 24/24/24 34/34/34
f 34/34/34 19/19/19 28/28/28
f 35/35/35 28/28/28 20/20/20
f 35/35/35 20/20/20 29/29/29
f 36/36/36 29/29/29 30/30/30
f 36/36/36 30/30/30 37/37/37
f 33/33/33 32/32/32 38/38/38
f 39/39/39 33/33/33 38/38/38
f 32/32/32 31/31/31 40/40/40
f 40/40/40 31/31/31 34/34/34
f 38/38/38 32/32/32 40/40/40
f 41/41/41 34/34/34 28/28/28
f 40/40/40 34/34/34 41/41/41
f 41/41/41 28/28/28 35/35/35
f 42/42/42 35/35/35 29/29/29
f 42/42/42 29/29/29 36/36/36
f 39/39/39 38/38/38 43/43/43
f 44/44/44 39/39/39 43/43/43
f 38/38/38 40/40/40 45/45/45
f 45/45/45 40/40/40 41/41/41
f 43/43/43 38/38/38 45/45/45
f 46/46/46 41/41/41 35/35/35
f 45/45/45 41/41/41 46/46/46
f 46/46/46 35/35/35 42/42/42
f 44/44/44 43/43/43 47/47/47
f 48/48/48 44/44/44 47/47/47
f 43/43/43 45/45/45 49/49/49
f 49/49/49 45/45/45 46/46/46
f 47/47/47 43/43/43 49/49/49
f 50/50/50 46/46/46 42/42/42
f 49/49/49 46/46/46 50/50/50
f 48/48/48 47/47/47 51/51/51
f 52/52/52 48/48/48 51/51/51
f 47/47/47 49/49/49 53/53/53
f 53/53/53 49/49/49 50/50/50
f 51/51/51 47/47/47 53/53/53
f 50/50/50 42/42/42 54/54/54
f 54/54/54 42/42/42 36/36/36
f 52/52/52 51/51/51 55/55/55
f 56/56/56 52/52/52 55/55/55
f 51/51/51 53/53/53 57/57/57
f 55/55/55 51/51/51 57/57/57
f 53/53/53 50/50/50 58/58/58
f 58/58/58 50/50/50 54/54/54
f 57/57/57 53/53/53 58/58/58
f 56/56/56 55/55/55 59/59/59
f 60/60/60 56/56/56 59/59/59
f 61/61/61 60/60/60 59/59/59
f 62/62/62 60/60/60 61/61/61
f 63/63/63 62/62/62 61/61/61
f 64/64/64 63/63/63 61/61/61
f 65/65/65 63/63/63 64/64/64
f 61/61/61 59/59/59 66/66/66
f 64/64/64 61/61/61 66/66/66
f 59/59/59 55/55/55 67/67/67
f 59/59/59 67/67/67 66/66/66
f 66/66/66 68/68/68 64/64/64
f 66/66/66 67/67/67 68/68/68
f 64/64/64 69/69/69 65/65/65
f 64/64/64 68/68/68 69/69/69
f 55/55/55 70/70/70 67/67/67
f 55/55/55 57/57/57 70/70/70
f 68/68/68 67/67/67 71/71/71
f 67/67/67 70/70/70 71/71/71
f 70/70/70 57/57/57 72/72/72
f 70/70/70 72/72/72 71/71/71
f 68/68/68 71/71/71 73/73/73
f 68/68/68 73/73/73 69/69/69
f 71/71/71 74/74/74 73/73/73
f 71/71/71 72/72/72 74/74/74
f 72/72/72 57/57/57 75/75/75
f 57/57/57 58/58/58 75/75/75
f 69/69/69 76/76/76 65/65/65
f 76/76/76 77/77/77 65/65/65
f 73/73/73 78/78/78 69/69/69
f 73/73/73 74/74/74 78/78/78
f 72/72/72 79/79/79 74/74/74
f 72/72/72 75/75/75 79/79/79
f 75/75/75 58/58/58 80/80/80
f 80/80/80 58/58/58 54/54/54
f 74/74/74 79/79/79 81/81/81
f 78/78/78 74/74/74 81/81/81
f 79/79/79 75/75/75 82/82/82
f 82/82/82 75/75/75 80/80/80
f 79/79/79 82/82/82 81/81/81
f 76/76/76 83/83/83 77/77/77
f 83/83/83 84/84/84 77/77/77
f 85/85/85 76/76/76 69/69/69
f 78/78/78 85/85/85 69/69/69
f 83/83/83 86/86/86 84/84/84
f 86/86/86 87/87/87 84/84/84
f 88/88/88 83/83/83 76/76/76
f 85/85/85 88/88/88 76/76/76
f 86/86/86 89/89/89 87/87/87
f 89/89/89 90/90/90 87/87/87
f 91/91/91 86/86/86 83/83/83
f 88/88/88 91/91/91 83/83/83
f 89/89/89 92/92/92 90/90/90
f 92/92/92 93/93/93 90/90/90
f 92/92/92 94/94/94 93/93/93
f 95/95/95 89/89/89 86/86/86
f 91/91/91 95/95/95 86/86/86
f 96/96/96 92/92/92 89/89/89
f 92/92/92 96/96/96 94/94/94
f 95/95/95 96/96/96 89/89/89
f 97/97/97 96/96/96 95/95/95
f 96/96/96 97/97/97 94/94/94
f 98/98/98 95/95/95 91/91/91
f 98/98/98 97/97/97 95/95/95
f 99/99/99 91/91/91 88/88/88
f 99/99/99 98/98/98 91/91/91
f 100/100/100 88/88/88 85/85/85
f 100/100/100 99/99/99 88/88/88
f 97/97/97 101/101/101 94/94/94
f 101/101/101 97/97/97 98/98/98
f 102/102/102 98/98/98 99/99/99
f 102/102/102 101/101/101 98/98/98
f 94/94/94 101/101/101 103/103/103
f 103/103/103 101/101/101 102/102/102
f 94/94/94 103/103/103 104/104/104
f 104/104/104 103/103/103 105/105/105
f 105/105/105 103/103/103 102/102/102
f 106/106/106 104/104/104 105/105/105
f 107/107/107 102/102/102 99/99/99
f 105/105/105 102/102/102 107/107/107
f 107/107/107 99/99/99 100/100/100
f 106/106/106 105/105/105 108/108/108
f 108/108/108 105/105/105 107/107/107
f 109/109/109 106/106/106 108/108/108
f 110/110/110 100/100/100 85/85/85
f 110/110/110 85/85/85 78/78/78
f 111/111/111 107/107/107 100/100/100
f 108/108/108 107/107/107 111/111/111
f 111/111/111 100/100/100 110/110/110
f 109/109/109 108/108/108 112/112/112
f 112/112/112 108/108/108 111/111/111
f 113/113/113 109/109/109 112/112/112
f 114/114/114 110/110/110 78/78/78
f 78/78/78 81/81/81 114/114/114
f 115/115/115 111/111/111 110/110/110
f 112/112/112 111/111/111 115/115/115
f 115/115/115 110/110/110 114/114/114
f 113/113/113 112/112/112 116/116/116
f 116/116/116 112/112/112 115/115/115
f 117/117/117 113/113/113 116/116/116
f 81/81/81 118/118/118 114/114/114
f 81/81/81 82/82/82 118/118/118
f 119/119/119 115/115/115 114/114/114
f 116/116/116 115/115/115 119/119/119
f 114/114/114 118/118/118 119/119/119
f 117/117/117 116/116/116 120/120/120
f 120/120/120 116/116/116 119/119/119
f 121/121/121 117/117/117 120/120/120
f 120/120/120 122/122/122 121/121/121
f 82/82/82 123/123/123 118/118/118
f 82/82/82 80/80/80 123/123/123
f 119/119/119 118/118/118 124/124/124
f 118/118/118 123/123/123 124/124/124
f 123/123/123 80/80/80 125/125/125
f 123/123/123 125/125/125 124/124/124
f 125/125/125 80/80/80 54/54/54
f 120/120/120 126/126/126 122/122/122
f 126/126/126 127/127/127 122/122/122
f 119/119/119 128/128/128 120/120/120
f 119/119/119 124/124/124 128/128/128
f 128/128/128 126/126/126 120/120/120
f 124/124/124 129/129/129 128/128/128
f 124/124/124 125/125/125 129/129/129
f 128/128/128 129/129/129 126/126/126
f 125/125/125 54/54/54 130/130/130
f 125/125/125 130/130/130 129/129/129
f 130/130/130 54/54/54 36/36/36
f 126/126/126 131/131/131 127/127/127
f 126/126/126 129/129/129 131/131/131
f 129/129/129 130/130/130 131/131/131
f 130/130/130 36/36/36 131/131/131
f 131/131/131 37/37/37 127/127/127
f 131/131/131 36/36/36 37/37/37
