g CategorySymbolAttack
v -0.6662245 -0.15406728 0.047464695
v -0.6662245 0.3734791 0.047464695
v -0.33433014 0.3734791 0.047464695
v -0.33433014 -0.15406728 0.047464695
v -0.3343302 0.42347634 0.047464695
v -0.6662245 0.42347634 0.047464695
v -0.64598197 0.4984722 0.047464695
v -0.3545727 0.4984722 0.047464695
v -0.57145774 0.56346864 0.047464695
v -0.42909703 0.56346864 0.047464695
v -0.7001404 -0.18406558 0.047464695
v -0.30041426 -0.18406558 0.047464695
v -0.30041426 -0.2940595 0.047464695
v -0.7001404 -0.2940595 0.047464695
v -0.16594718 -0.15406728 0.047464695
v -0.16594718 0.3734791 0.047464695
v 0.1659473 0.3734791 0.047464695
v 0.1659473 -0.15406728 0.047464695
v 0.16594729 0.42347634 0.047464695
v -0.16594718 0.42347634 0.047464695
v -0.14570457 0.4984722 0.047464695
v 0.14570466 0.4984722 0.047464695
v -0.07118028 0.56346864 0.047464695
v 0.0711804 0.56346864 0.047464695
v -0.19986296 -0.18406558 0.047464695
v 0.19986312 -0.18406558 0.047464695
v 0.19986312 -0.2940595 0.047464695
v -0.19986296 -0.2940595 0.047464695
v 0.33433026 -0.15406728 0.047464695
v 0.33433026 0.3734791 0.047464695
v 0.66622466 0.3734791 0.047464695
v 0.66622466 -0.15406728 0.047464695
v 0.66622466 0.42347634 0.047464695
v 0.33433026 0.42347634 0.047464695
v 0.35457283 0.4984722 0.047464695
v 0.6459821 0.4984722 0.047464695
v 0.42909718 0.56346864 0.047464695
v 0.57145786 0.56346864 0.047464695
v 0.30041438 -0.18406558 0.047464695
v 0.7001406 -0.18406558 0.047464695
v 0.7001406 -0.2940595 0.047464695
v 0.30041438 -0.2940595 0.047464695
v -0.7718853 -0.32201523 -0.27229106
v -0.22866936 -0.32201523 -0.27229106
v -0.22866936 0.541427 -0.27229106
v -0.7718853 0.541427 -0.27229106
v -0.2286694 0.37754452 -0.27229106
v -0.7387541 0.5002913 -0.27229106
v -0.7718852 0.37754452 -0.27229106
v -0.2618006 0.5002913 -0.27229106
v -0.6167792 0.60667175 -0.27229106
v -0.38377556 0.60667175 -0.27229106
v -0.8273959 -0.14904827 -0.27229106
v -0.8273959 -0.32907677 -0.27229106
v -0.17315878 -0.32907677 -0.27229106
v -0.17315878 -0.14904827 -0.27229106
v -0.271608 -0.32201523 -0.27229106
v 0.27160814 -0.32201523 -0.27229106
v 0.27160814 0.541427 -0.27229106
v -0.271608 0.541427 -0.27229106
v 0.27160808 0.37754452 -0.27229106
v -0.23847668 0.5002913 -0.27229106
v -0.271608 0.37754452 -0.27229106
v 0.23847672 0.5002913 -0.27229106
v -0.11650174 0.60667175 -0.27229106
v 0.1165019 0.60667175 -0.27229106
v -0.32711843 -0.14904827 -0.27229106
v -0.32711843 -0.32907677 -0.27229106
v 0.3271186 -0.32907677 -0.27229106
v 0.3271186 -0.14904827 -0.27229106
v 0.22866948 -0.32201523 -0.27229106
v 0.77188545 -0.32201523 -0.27229106
v 0.77188545 0.541427 -0.27229106
v 0.22866948 0.541427 -0.27229106
v 0.77188545 0.37754452 -0.27229106
v 0.26180074 0.5002913 -0.27229106
v 0.22866948 0.37754452 -0.27229106
v 0.73875415 0.5002913 -0.27229106
v 0.3837757 0.60667175 -0.27229106
v 0.61677927 0.60667175 -0.27229106
v 0.17315887 -0.14904827 -0.27229106
v 0.17315887 -0.32907677 -0.27229106
v 0.8273961 -0.32907677 -0.27229106
v 0.8273961 -0.14904827 -0.27229106
v 0.66622466 -0.15406728 0.047464695
v 0.66622466 0.3734791 0.047464695
v 0.77188545 0.541427 -0.27229106
v 0.77188545 -0.32201523 -0.27229106
v -0.16594718 0.42347634 0.047464695
v 0.16594729 0.42347634 0.047464695
v 0.27160808 0.37754452 -0.27229106
v -0.271608 0.37754452 -0.27229106
v -0.64598197 0.4984722 0.047464695
v -0.6662245 0.42347634 0.047464695
v -0.7718852 0.37754452 -0.27229106
v -0.7387541 0.5002913 -0.27229106
v 0.66622466 0.3734791 0.047464695
v 0.33433026 0.3734791 0.047464695
v 0.22866948 0.541427 -0.27229106
v 0.77188545 0.541427 -0.27229106
v -0.3343302 0.42347634 0.047464695
v -0.3545727 0.4984722 0.047464695
v -0.2618006 0.5002913 -0.27229106
v -0.2286694 0.37754452 -0.27229106
v 0.33433026 0.42347634 0.047464695
v 0.66622466 0.42347634 0.047464695
v 0.77188545 0.37754452 -0.27229106
v 0.22866948 0.37754452 -0.27229106
v -0.14570457 0.4984722 0.047464695
v -0.16594718 0.42347634 0.047464695
v -0.271608 0.37754452 -0.27229106
v -0.23847668 0.5002913 -0.27229106
v -0.42909703 0.56346864 0.047464695
v -0.57145774 0.56346864 0.047464695
v -0.6167792 0.60667175 -0.27229106
v -0.38377556 0.60667175 -0.27229106
v 0.16594729 0.42347634 0.047464695
v 0.14570466 0.4984722 0.047464695
v 0.23847672 0.5002913 -0.27229106
v 0.27160808 0.37754452 -0.27229106
v -0.57145774 0.56346864 0.047464695
v -0.64598197 0.4984722 0.047464695
v -0.7387541 0.5002913 -0.27229106
v -0.6167792 0.60667175 -0.27229106
v 0.35457283 0.4984722 0.047464695
v 0.33433026 0.42347634 0.047464695
v 0.22866948 0.37754452 -0.27229106
v 0.26180074 0.5002913 -0.27229106
v 0.0711804 0.56346864 0.047464695
v -0.07118028 0.56346864 0.047464695
v -0.11650174 0.60667175 -0.27229106
v 0.1165019 0.60667175 -0.27229106
v -0.3545727 0.4984722 0.047464695
v -0.42909703 0.56346864 0.047464695
v -0.38377556 0.60667175 -0.27229106
v -0.2618006 0.5002913 -0.27229106
v 0.66622466 0.42347634 0.047464695
v 0.6459821 0.4984722 0.047464695
v 0.73875415 0.5002913 -0.27229106
v 0.77188545 0.37754452 -0.27229106
v -0.07118028 0.56346864 0.047464695
v -0.14570457 0.4984722 0.047464695
v -0.23847668 0.5002913 -0.27229106
v -0.11650174 0.60667175 -0.27229106
v -0.30041426 -0.18406558 0.047464695
v -0.7001404 -0.18406558 0.047464695
v -0.8273959 -0.14904827 -0.27229106
v -0.17315878 -0.14904827 -0.27229106
v 0.57145786 0.56346864 0.047464695
v 0.42909718 0.56346864 0.047464695
v 0.3837757 0.60667175 -0.27229106
v 0.61677927 0.60667175 -0.27229106
v 0.14570466 0.4984722 0.047464695
v 0.0711804 0.56346864 0.047464695
v 0.1165019 0.60667175 -0.27229106
v 0.23847672 0.5002913 -0.27229106
v -0.7001404 -0.2940595 0.047464695
v -0.30041426 -0.2940595 0.047464695
v -0.17315878 -0.32907677 -0.27229106
v -0.8273959 -0.32907677 -0.27229106
v 0.42909718 0.56346864 0.047464695
v 0.35457283 0.4984722 0.047464695
v 0.26180074 0.5002913 -0.27229106
v 0.3837757 0.60667175 -0.27229106
v 0.19986312 -0.18406558 0.047464695
v -0.19986296 -0.18406558 0.047464695
v -0.32711843 -0.14904827 -0.27229106
v 0.3271186 -0.14904827 -0.27229106
v -0.30041426 -0.2940595 0.047464695
v -0.30041426 -0.18406558 0.047464695
v -0.17315878 -0.14904827 -0.27229106
v -0.17315878 -0.32907677 -0.27229106
v 0.6459821 0.4984722 0.047464695
v 0.57145786 0.56346864 0.047464695
v 0.61677927 0.60667175 -0.27229106
v 0.73875415 0.5002913 -0.27229106
v -0.6662245 0.3734791 0.047464695
v -0.6662245 -0.15406728 0.047464695
v -0.7718853 -0.32201523 -0.27229106
v -0.7718853 0.541427 -0.27229106
v -0.19986296 -0.2940595 0.047464695
v 0.19986312 -0.2940595 0.047464695
v 0.3271186 -0.32907677 -0.27229106
v -0.32711843 -0.32907677 -0.27229106
v -0.7001404 -0.18406558 0.047464695
v -0.7001404 -0.2940595 0.047464695
v -0.8273959 -0.32907677 -0.27229106
v -0.8273959 -0.14904827 -0.27229106
v 0.7001406 -0.18406558 0.047464695
v 0.30041438 -0.18406558 0.047464695
v 0.17315887 -0.14904827 -0.27229106
v 0.8273961 -0.14904827 -0.27229106
v -0.6662245 -0.15406728 0.047464695
v -0.33433014 -0.15406728 0.047464695
v -0.22866936 -0.32201523 -0.27229106
v -0.7718853 -0.32201523 -0.27229106
v 0.19986312 -0.2940595 0.047464695
v 0.19986312 -0.18406558 0.047464695
v 0.3271186 -0.14904827 -0.27229106
v 0.3271186 -0.32907677 -0.27229106
v -0.16594718 0.3734791 0.047464695
v -0.16594718 -0.15406728 0.047464695
v -0.271608 -0.32201523 -0.27229106
v -0.271608 0.541427 -0.27229106
v 0.30041438 -0.2940595 0.047464695
v 0.7001406 -0.2940595 0.047464695
v 0.8273961 -0.32907677 -0.27229106
v 0.17315887 -0.32907677 -0.27229106
v -0.33433014 -0.15406728 0.047464695
v -0.33433014 0.3734791 0.047464695
v -0.22866936 0.541427 -0.27229106
v -0.22866936 -0.32201523 -0.27229106
v -0.19986296 -0.18406558 0.047464695
v -0.19986296 -0.2940595 0.047464695
v -0.32711843 -0.32907677 -0.27229106
v -0.32711843 -0.14904827 -0.27229106
v -0.16594718 -0.15406728 0.047464695
v 0.1659473 -0.15406728 0.047464695
v 0.27160814 -0.32201523 -0.27229106
v -0.271608 -0.32201523 -0.27229106
v 0.7001406 -0.2940595 0.047464695
v 0.7001406 -0.18406558 0.047464695
v 0.8273961 -0.14904827 -0.27229106
v 0.8273961 -0.32907677 -0.27229106
v -0.33433014 0.3734791 0.047464695
v -0.6662245 0.3734791 0.047464695
v -0.7718853 0.541427 -0.27229106
v -0.22866936 0.541427 -0.27229106
v 0.33433026 0.3734791 0.047464695
v 0.33433026 -0.15406728 0.047464695
v 0.22866948 -0.32201523 -0.27229106
v 0.22866948 0.541427 -0.27229106
v 0.1659473 -0.15406728 0.047464695
v 0.1659473 0.3734791 0.047464695
v 0.27160814 0.541427 -0.27229106
v 0.27160814 -0.32201523 -0.27229106
v 0.30041438 -0.18406558 0.047464695
v 0.30041438 -0.2940595 0.047464695
v 0.17315887 -0.32907677 -0.27229106
v 0.17315887 -0.14904827 -0.27229106
v -0.6662245 0.42347634 0.047464695
v -0.3343302 0.42347634 0.047464695
v -0.2286694 0.37754452 -0.27229106
v -0.7718852 0.37754452 -0.27229106
v 0.33433026 -0.15406728 0.047464695
v 0.66622466 -0.15406728 0.047464695
v 0.77188545 -0.32201523 -0.27229106
v 0.22866948 -0.32201523 -0.27229106
v 0.1659473 0.3734791 0.047464695
v -0.16594718 0.3734791 0.047464695
v -0.271608 0.541427 -0.27229106
v 0.27160814 0.541427 -0.27229106
vn -0 0 1
vn -0 0 1
vn -0 0 1
vn -0 0 1
vn -0 0 1
vn -0 0 1
vn -0 0 1
vn -0 0 1
vn -0 0 1
vn -0 0 1
vn -0 0 1
vn -0 0 1
vn -0 0 1
vn -0 0 1
vn -0 0 1
vn -0 0 1
vn -0 0 1
vn -0 0 1
vn -0 0 1
vn -0 0 1
vn -0 0 1
vn -0 0 1
vn -0 0 1
vn -0 0 1
vn -0 0 1
vn -0 0 1
vn -0 0 1
vn -0 0 1
vn -0 0 1
vn -0 0 1
vn -0 0 1
vn -0 0 1
vn -0 0 1
vn -0 0 1
vn -0 0 1
vn -0 0 1
vn -0 0 1
vn -0 0 1
vn -0 0 1
vn -0 0 1
vn -0 0 1
vn -0 0 1
vn -0 0 -1
vn -0 0 -1
vn -0 0 -1
vn -0 0 -1
vn -0 0 -1
vn -0 0 -1
vn -0 0 -1
vn -0 0 -1
vn -0 0 -1
vn -0 0 -1
vn -0 0 -1
vn -0 0 -1
vn -0 0 -1
vn -0 0 -1
vn -0 0 -1
vn -0 0 -1
vn -0 0 -1
vn -0 0 -1
vn -0 0 -1
vn -0 0 -1
vn -0 0 -1
vn -0 0 -1
vn -0 0 -1
vn -0 0 -1
vn -0 0 -1
vn -0 0 -1
vn -0 0 -1
vn -0 0 -1
vn -0 0 -1
vn -0 0 -1
vn -0 0 -1
vn -0 0 -1
vn -0 0 -1
vn -0 0 -1
vn -0 0 -1
vn -0 0 -1
vn -0 0 -1
vn -0 0 -1
vn -0 0 -1
vn -0 0 -1
vn -0 0 -1
vn -0 0 -1
vn 0.9495036 0 0.31375608
vn 0.9495036 0 0.31375608
vn 0.9495036 0 0.31375608
vn 0.9495036 0 0.31375608
vn -0 -0.9898398 0.14218691
vn -0 -0.9898398 0.14218691
vn -0 -0.9898398 0.14218691
vn -0 -0.9898398 0.14218691
vn -0.92930824 0.25083363 0.27105108
vn -0.92930824 0.25083363 0.27105108
vn -0.92930824 0.25083363 0.27105108
vn -0.92930824 0.25083363 0.27105108
vn -0 0.8853111 0.46499923
vn -0 0.8853111 0.46499923
vn -0 0.8853111 0.46499923
vn -0 0.8853111 0.46499923
vn 0.9293081 0.25083408 0.27105117
vn 0.9293081 0.25083408 0.27105117
vn 0.9293081 0.25083408 0.27105117
vn 0.9293081 0.25083408 0.27105117
vn -0 -0.9898398 0.14218694
vn -0 -0.9898398 0.14218694
vn -0 -0.9898398 0.14218694
vn -0 -0.9898398 0.14218694
vn -0.9293078 0.2508353 0.2710511
vn -0.9293078 0.2508353 0.2710511
vn -0.9293078 0.2508353 0.2710511
vn -0.9293078 0.2508353 0.2710511
vn -0 0.99099535 0.13389637
vn -0 0.99099535 0.13389637
vn -0 0.99099535 0.13389637
vn -0 0.99099535 0.13389637
vn 0.9293078 0.25083542 0.27105084
vn 0.9293078 0.25083542 0.27105084
vn 0.9293078 0.25083542 0.27105084
vn 0.9293078 0.25083542 0.27105084
vn -0.6451378 0.7397089 0.19138451
vn -0.6451378 0.7397089 0.19138451
vn -0.6451378 0.7397089 0.19138451
vn -0.6451378 0.7397089 0.19138451
vn -0.92930794 0.25083467 0.27105114
vn -0.92930794 0.25083467 0.27105114
vn -0.92930794 0.25083467 0.27105114
vn -0.92930794 0.25083467 0.27105114
vn -0 0.99099535 0.13389626
vn -0 0.99099535 0.13389626
vn -0 0.99099535 0.13389626
vn -0 0.99099535 0.13389626
vn 0.6451375 0.73970914 0.19138448
vn 0.6451375 0.73970914 0.19138448
vn 0.6451375 0.73970914 0.19138448
vn 0.6451375 0.73970914 0.19138448
vn 0.929308 0.25083447 0.27105102
vn 0.929308 0.25083447 0.27105102
vn 0.929308 0.25083447 0.27105102
vn 0.929308 0.25083447 0.27105102
vn -0.64513755 0.7397091 0.19138443
vn -0.64513755 0.7397091 0.19138443
vn -0.64513755 0.7397091 0.19138443
vn -0.64513755 0.7397091 0.19138443
vn -0 0.9940568 0.10886177
vn -0 0.9940568 0.10886177
vn -0 0.9940568 0.10886177
vn -0 0.9940568 0.10886177
vn -0 0.99099535 0.13389625
vn -0 0.99099535 0.13389625
vn -0 0.99099535 0.13389625
vn -0 0.99099535 0.13389625
vn 0.64513785 0.73970884 0.19138463
vn 0.64513785 0.73970884 0.19138463
vn 0.64513785 0.73970884 0.19138463
vn 0.64513785 0.73970884 0.19138463
vn -0 -0.9940568 0.10886172
vn -0 -0.9940568 0.10886172
vn -0 -0.9940568 0.10886172
vn -0 -0.9940568 0.10886172
vn -0.64513737 0.7397092 0.19138458
vn -0.64513737 0.7397092 0.19138458
vn -0.64513737 0.7397092 0.19138458
vn -0.64513737 0.7397092 0.19138458
vn -0 0.9940568 0.1088619
vn -0 0.9940568 0.1088619
vn -0 0.9940568 0.1088619
vn -0 0.9940568 0.1088619
vn 0.92912334 0 0.3697699
vn 0.92912334 0 0.3697699
vn 0.92912334 0 0.3697699
vn 0.92912334 0 0.3697699
vn 0.6451378 0.7397089 0.19138442
vn 0.6451378 0.7397089 0.19138442
vn 0.6451378 0.7397089 0.19138442
vn 0.6451378 0.7397089 0.19138442
vn -0.9495036 0 0.31375608
vn -0.9495036 0 0.31375608
vn -0.9495036 0 0.31375608
vn -0.9495036 0 0.31375608
vn -0 -0.9940568 0.10886176
vn -0 -0.9940568 0.10886176
vn -0 -0.9940568 0.10886176
vn -0 -0.9940568 0.10886176
vn -0.92912334 0 0.3697699
vn -0.92912334 0 0.3697699
vn -0.92912334 0 0.3697699
vn -0.92912334 0 0.3697699
vn -0 0.9940568 0.10886186
vn -0 0.9940568 0.10886186
vn -0 0.9940568 0.10886186
vn -0 0.9940568 0.10886186
vn -0 -0.8853111 0.4649993
vn -0 -0.8853111 0.4649993
vn -0 -0.8853111 0.4649993
vn -0 -0.8853111 0.4649993
vn 0.92912334 0 0.3697699
vn 0.92912334 0 0.3697699
vn 0.92912334 0 0.3697699
vn 0.92912334 0 0.3697699
vn -0.9495036 0 0.3137561
vn -0.9495036 0 0.3137561
vn -0.9495036 0 0.3137561
vn -0.9495036 0 0.3137561
vn -0 -0.9940568 0.1088617
vn -0 -0.9940568 0.1088617
vn -0 -0.9940568 0.1088617
vn -0 -0.9940568 0.1088617
vn 0.9495036 0 0.31375605
vn 0.9495036 0 0.31375605
vn 0.9495036 0 0.31375605
vn 0.9495036 0 0.31375605
vn -0.92912334 0 0.3697698
vn -0.92912334 0 0.3697698
vn -0.92912334 0 0.3697698
vn -0.92912334 0 0.3697698
vn -0 -0.8853111 0.46499914
vn -0 -0.8853111 0.46499914
vn -0 -0.8853111 0.46499914
vn -0 -0.8853111 0.46499914
vn 0.92912334 0 0.3697699
vn 0.92912334 0 0.3697699
vn 0.92912334 0 0.3697699
vn 0.92912334 0 0.3697699
vn -0 0.8853111 0.4649993
vn -0 0.8853111 0.4649993
vn -0 0.8853111 0.4649993
vn -0 0.8853111 0.4649993
vn -0.9495036 0 0.31375605
vn -0.9495036 0 0.31375605
vn -0.9495036 0 0.31375605
vn -0.9495036 0 0.31375605
vn 0.9495036 0 0.31375623
vn 0.9495036 0 0.31375623
vn 0.9495036 0 0.31375623
vn 0.9495036 0 0.31375623
vn -0.92912334 0 0.36976996
vn -0.92912334 0 0.36976996
vn -0.92912334 0 0.36976996
vn -0.92912334 0 0.36976996
vn -0 -0.9898398 0.14218712
vn -0 -0.9898398 0.14218712
vn -0 -0.9898398 0.14218712
vn -0 -0.9898398 0.14218712
vn -0 -0.885311 0.4649993
vn -0 -0.885311 0.4649993
vn -0 -0.885311 0.4649993
vn -0 -0.885311 0.4649993
vn -0 0.88531125 0.46499905
vn -0 0.88531125 0.46499905
vn -0 0.88531125 0.46499905
vn -0 0.88531125 0.46499905
g CategorySymbolAttack_0
f 3/3/3 2/2/2 1/1/1
f 4/4/4 3/3/3 1/1/1
f 7/7/7 6/6/6 5/5/5
f 8/8/8 7/7/7 5/5/5
f 9/9/9 7/7/7 8/8/8
f 10/10/10 9/9/9 8/8/8
f 13/13/13 12/12/12 11/11/11
f 14/14/14 13/13/13 11/11/11
f 17/17/17 16/16/16 15/15/15
f 18/18/18 17/17/17 15/15/15
f 21/21/21 20/20/20 19/19/19
f 22/22/22 21/21/21 19/19/19
f 23/23/23 21/21/21 22/22/22
f 24/24/24 23/23/23 22/22/22
f 27/27/27 26/26/26 25/25/25
f 28/28/28 27/27/27 25/25/25
f 31/31/31 30/30/30 29/29/29
f 32/32/32 31/31/31 29/29/29
f 35/35/35 34/34/34 33/33/33
f 36/36/36 35/35/35 33/33/33
f 37/37/37 35/35/35 36/36/36
f 38/38/38 37/37/37 36/36/36
f 41/41/41 40/40/40 39/39/39
f 42/42/42 41/41/41 39/39/39
f 45/45/45 44/44/44 43/43/43
f 46/46/46 45/45/45 43/43/43
f 49/49/49 48/48/48 47/47/47
f 48/48/48 50/50/50 47/47/47
f 48/48/48 51/51/51 50/50/50
f 51/51/51 52/52/52 50/50/50
f 55/55/55 54/54/54 53/53/53
f 56/56/56 55/55/55 53/53/53
f 59/59/59 58/58/58 57/57/57
f 60/60/60 59/59/59 57/57/57
f 63/63/63 62/62/62 61/61/61
f 62/62/62 64/64/64 61/61/61
f 62/62/62 65/65/65 64/64/64
f 65/65/65 66/66/66 64/64/64
f 69/69/69 68/68/68 67/67/67
f 70/70/70 69/69/69 67/67/67
f 73/73/73 72/72/72 71/71/71
f 74/74/74 73/73/73 71/71/71
f 77/77/77 76/76/76 75/75/75
f 76/76/76 78/78/78 75/75/75
f 76/76/76 79/79/79 78/78/78
f 79/79/79 80/80/80 78/78/78
f 83/83/83 82/82/82 81/81/81
f 84/84/84 83/83/83 81/81/81
f 87/87/87 86/86/86 85/85/85
f 88/88/88 87/87/87 85/85/85
f 91/91/91 90/90/90 89/89/89
f 92/92/92 91/91/91 89/89/89
f 95/95/95 94/94/94 93/93/93
f 96/96/96 95/95/95 93/93/93
f 99/99/99 98/98/98 97/97/97
f 100/100/100 99/99/99 97/97/97
f 103/103/103 102/102/102 101/101/101
f 104/104/104 103/103/103 101/101/101
f 107/107/107 106/106/106 105/105/105
f 108/108/108 107/107/107 105/105/105
f 111/111/111 110/110/110 109/109/109
f 112/112/112 111/111/111 109/109/109
f 115/115/115 114/114/114 113/113/113
f 116/116/116 115/115/115 113/113/113
f 119/119/119 118/118/118 117/117/117
f 120/120/120 119/119/119 117/117/117
f 123/123/123 122/122/122 121/121/121
f 124/124/124 123/123/123 121/121/121
f 127/127/127 126/126/126 125/125/125
f 128/128/128 127/127/127 125/125/125
f 131/131/131 130/130/130 129/129/129
f 132/132/132 131/131/131 129/129/129
f 135/135/135 134/134/134 133/133/133
f 136/136/136 135/135/135 133/133/133
f 139/139/139 138/138/138 137/137/137
f 140/140/140 139/139/139 137/137/137
f 143/143/143 142/142/142 141/141/141
f 144/144/144 143/143/143 141/141/141
f 147/147/147 146/146/146 145/145/145
f 148/148/148 147/147/147 145/145/145
f 151/151/151 150/150/150 149/149/149
f 152/152/152 151/151/151 149/149/149
f 155/155/155 154/154/154 153/153/153
f 156/156/156 155/155/155 153/153/153
f 159/159/159 158/158/158 157/157/157
f 160/160/160 159/159/159 157/157/157
f 163/163/163 162/162/162 161/161/161
f 164/164/164 163/163/163 161/161/161
f 167/167/167 166/166/166 165/165/165
f 168/168/168 167/167/167 165/165/165
f 171/171/171 170/170/170 169/169/169
f 172/172/172 171/171/171 169/169/169
f 175/175/175 174/174/174 173/173/173
f 176/176/176 175/175/175 173/173/173
f 179/179/179 178/178/178 177/177/177
f 180/180/180 179/179/179 177/177/177
f 183/183/183 182/182/182 181/181/181
f 184/184/184 183/183/183 181/181/181
f 187/187/187 186/186/186 185/185/185
f 188/188/188 187/187/187 185/185/185
f 191/191/191 190/190/190 189/189/189
f 192/192/192 191/191/191 189/189/189
f 195/195/195 194/194/194 193/193/193
f 196/196/196 195/195/195 193/193/193
f 199/199/199 198/198/198 197/197/197
f 200/200/200 199/199/199 197/197/197
f 203/203/203 202/202/202 201/201/201
f 204/204/204 203/203/203 201/201/201
f 207/207/207 206/206/206 205/205/205
f 208/208/208 207/207/207 205/205/205
f 211/211/211 210/210/210 209/209/209
f 212/212/212 211/211/211 209/209/209
f 215/215/215 214/214/214 213/213/213
f 216/216/216 215/215/215 213/213/213
f 219/219/219 218/218/218 217/217/217
f 220/220/220 219/219/219 217/217/217
f 223/223/223 222/222/222 221/221/221
f 224/224/224 223/223/223 221/221/221
f 227/227/227 226/226/226 225/225/225
f 228/228/228 227/227/227 225/225/225
f 231/231/231 230/230/230 229/229/229
f 232/232/232 231/231/231 229/229/229
f 235/235/235 234/234/234 233/233/233
f 236/236/236 235/235/235 233/233/233
f 239/239/239 238/238/238 237/237/237
f 240/240/240 239/239/239 237/237/237
f 243/243/243 242/242/242 241/241/241
f 244/244/244 243/243/243 241/241/241
f 247/247/247 246/246/246 245/245/245
f 248/248/248 247/247/247 245/245/245
f 251/251/251 250/250/250 249/249/249
f 252/252/252 251/251/251 249/249/249
