g centerlight emit shell
v -0.2460805 0.25185844 0.41508284
v -3.3225664E-09 -6.6269252E-09 0.4377197
v -0.31838584 0.13540283 0.41502228
v -5.964817E-12 0.3607031 0.41497836
v 0.13375893 0.33143896 0.41503674
v -3.3225664E-09 -6.6269252E-09 0.4377197
v 0.3434467 -5.3743095E-12 0.41496888
v -3.3225664E-09 -6.6269252E-09 0.4377197
v 0.31838584 0.13540283 0.41502228
v 0.2460805 0.25185844 0.41508284
v 0.31838584 0.13540283 0.41502228
v -3.3225664E-09 -6.6269252E-09 0.4377197
v 7.381812E-12 -0.3607031 0.41497836
v -3.3225664E-09 -6.6269252E-09 0.4377197
v 0.13375893 -0.33143896 0.41503674
v 7.381812E-12 -0.3607031 0.41497836
v -0.13375893 -0.33143896 0.41503674
v -3.3225664E-09 -6.6269252E-09 0.4377197
v -0.3434467 -7.03844E-12 0.41496888
v -0.31838584 0.13540283 0.41502228
v -3.3225664E-09 -6.6269252E-09 0.4377197
v -0.2460805 -0.25185844 0.41508284
v -3.3225664E-09 -6.6269252E-09 0.4377197
v -0.13375893 -0.33143896 0.41503674
v 0.3434467 -5.3743095E-12 0.41496888
v 0.31838584 -0.13540283 0.41502228
v -3.3225664E-09 -6.6269252E-09 0.4377197
v 0.2460805 0.25185844 0.41508284
v -3.3225664E-09 -6.6269252E-09 0.4377197
v 0.13375893 0.33143896 0.41503674
v -0.50547135 -0.50547147 0.0831663
v -0.36612463 -0.337382 0.0831663
v -0.36612463 0.337382 0.0831663
v -0.36612463 0.337382 0.0831663
v -0.50547147 0.50547147 0.0831663
v -0.337382 0.36612463 0.0831663
v 0.5054697 -0.50547147 0.0831663
v -0.337382 -0.36612463 0.0831663
v 0.337382 -0.36612463 0.0831663
v 0.36612463 -0.337382 0.0831663
v 0.36612463 -0.337382 0.0831663
v 0.5054697 -0.50547147 0.0831663
v 0.36612463 0.337382 0.0831663
v 0.50547147 0.50547147 0.0831663
v 0.36612463 0.337382 0.0831663
v 0.337382 0.36612463 0.0831663
v -0.50547147 0.50547147 0.0831663
v -0.337382 0.36612463 0.0831663
v -0.36612463 -0.337382 0.0831663
v -0.50547135 -0.50547147 0.0831663
v -0.337382 -0.36612463 0.0831663
v 0.2460805 -0.25185844 0.41508284
v 0.13375893 -0.33143896 0.41503674
v -3.3225664E-09 -6.6269252E-09 0.4377197
v 0.31838584 -0.13540283 0.41502228
v -5.964817E-12 0.3607031 0.41497836
v -3.3225664E-09 -6.6269252E-09 0.4377197
v -0.13375893 0.33143896 0.41503674
v -0.2460805 0.25185844 0.41508284
v -0.3573729 0.15777196 0.34734756
v -0.281554 0.28919667 0.3475253
v -0.1549087 0.37200856 0.3473968
v -0.31838584 0.13540283 0.41502228
v -0.38160145 -7.03844E-12 0.34716684
v -0.3434467 -7.03844E-12 0.41496888
v -0.13375893 0.33143896 0.41503674
v -7.633146E-12 0.40008643 0.34724158
v -5.964817E-12 0.3607031 0.41497836
v -0.2460805 -0.25185844 0.41508284
v -0.31838584 -0.13540283 0.41502228
v -3.3225664E-09 -6.6269252E-09 0.4377197
v -0.3434467 -7.03844E-12 0.41496888
v -7.633146E-12 0.40008643 0.34724158
v 0.13375893 0.33143896 0.41503674
v -5.964817E-12 0.3607031 0.41497836
v 0.1549087 0.37200856 0.3473968
v 0.2460805 0.25185844 0.41508284
v 0.281554 0.28919667 0.3475253
v 0.3573729 0.15777196 0.34734756
v 0.31838584 0.13540283 0.41502228
v 0.38160145 -7.03844E-12 0.34716684
v 0.3434467 -5.3743095E-12 0.41496888
v -0.38160145 -7.03844E-12 0.34716684
v -0.3434467 -7.03844E-12 0.41496888
v -0.31838584 -0.13540283 0.41502228
v -0.3573729 -0.15777196 0.34734756
v -0.2460805 -0.25185844 0.41508284
v -0.281554 -0.28919667 0.3475253
v -0.1549087 -0.37200856 0.3473968
v -0.13375893 -0.33143896 0.41503674
v -7.633146E-12 -0.40008643 0.34724158
v 7.381812E-12 -0.3607031 0.41497836
v -7.633146E-12 -0.40008643 0.34724158
v 7.381812E-12 -0.3607031 0.41497836
v 0.13375893 -0.33143896 0.41503674
v 0.1549087 -0.37200856 0.3473968
v 0.2460805 -0.25185844 0.41508284
v 0.281554 -0.28919667 0.3475253
v 0.3573729 -0.15777196 0.34734756
v 0.31838584 -0.13540283 0.41502228
v 0.38160145 -7.03844E-12 0.34716684
v 0.3434467 -5.3743095E-12 0.41496888
v -0.20639004 0.22318448 0.010355843
v -0.14486322 0.16165766 0.010355843
v 0.20639005 0.22318447 0.010355843
v 0.14486322 0.16165766 0.010355843
v 0.16165766 0.14486323 0.010355843
v 0.22318448 0.20639004 0.010355843
v 0.2231845 -0.20639004 0.010355843
v -0.20639004 0.22318448 0.010355843
v -0.16165766 0.14486322 0.010355843
v -0.2231845 -0.20639004 0.010355843
v -0.16165766 -0.14486323 0.010355843
v -0.22318448 0.20639004 0.010355843
v 0.14486322 -0.16165766 0.010355843
v 0.20639004 -0.22318448 0.010355843
v 0.16165766 -0.14486322 0.010355843
v 0.16165766 0.14486323 0.010355843
v 0.2231845 -0.20639004 0.010355843
v -0.20639004 -0.22318448 0.010355843
v 0.20639004 -0.22318448 0.010355843
v 0.14486322 -0.16165766 0.010355843
v -0.14486323 -0.16165766 0.010355843
v -0.2231845 -0.20639004 0.010355843
v -0.16165766 -0.14486323 0.010355843
vt 0.5847962 0.91048604
vt 0.60077775 0.9186939
vt 0.6032325 0.9044026
vt 0.5587308 0.92911464
vt 0.5705165 0.9190548
vt 0.5900836 0.9292029
vt 0.62416273 0.8998103
vt 0.62279963 0.91455066
vt 0.6032325 0.9044026
vt 0.5847962 0.91048604
vt 0.6032325 0.9044026
vt 0.599869 0.91824466
vt 0.5587308 0.92911464
vt 0.59144676 0.9298769
vt 0.5705165 0.9190548
vt 0.5587308 0.92911464
vt 0.5705165 0.9190548
vt 0.59008366 0.92920303
vt 0.62416273 0.8998103
vt 0.6032325 0.9044026
vt 0.60077775 0.91869384
vt 0.5847962 0.91048604
vt 0.59986895 0.9182446
vt 0.5705165 0.9190548
vt 0.62416273 0.8998103
vt 0.6032325 0.9044026
vt 0.6241628 0.9152247
vt 0.5847962 0.91048604
vt 0.59986895 0.9182446
vt 0.5705165 0.9190548
vt 0.37003225 0.94772214
vt 0.37130505 0.94666696
vt 0.37130505 0.94666696
vt 0.37130505 0.94666696
vt 0.37003225 0.94772214
vt 0.3710874 0.9464493
vt 0.37003225 0.94772214
vt 0.3710874 0.9464493
vt 0.3710874 0.9464493
vt 0.37130505 0.94666696
vt 0.37130505 0.94666696
vt 0.37003225 0.94772214
vt 0.37130505 0.94666696
vt 0.37003225 0.94772214
vt 0.37130505 0.94666696
vt 0.3710874 0.9464493
vt 0.37003225 0.94772214
vt 0.3710874 0.9464493
vt 0.37130505 0.94666696
vt 0.37003225 0.94772214
vt 0.3710874 0.9464493
vt 0.5847962 0.91048604
vt 0.5705165 0.9190548
vt 0.60077775 0.9186939
vt 0.6032325 0.9044026
vt 0.5587308 0.92911464
vt 0.59144676 0.9298769
vt 0.5705165 0.9190548
vt 0.5847962 0.91048604
vt 0.5968701 0.8988824
vt 0.57564425 0.9056863
vt 0.55978054 0.9155254
vt 0.60323244 0.9044026
vt 0.6213133 0.8938996
vt 0.62416273 0.8998103
vt 0.57051647 0.91905475
vt 0.5471341 0.92718554
vt 0.5587308 0.92911464
vt 0.5847962 0.91048604
vt 0.6032325 0.9044026
vt 0.62279963 0.9145507
vt 0.62416273 0.8998103
vt 0.5471341 0.92718554
vt 0.57051647 0.91905475
vt 0.5587308 0.92911464
vt 0.55978054 0.9155254
vt 0.58479613 0.910486
vt 0.57564425 0.9056863
vt 0.5968701 0.8988824
vt 0.60323244 0.9044026
vt 0.6213133 0.8938996
vt 0.62416273 0.8998103
vt 0.6213133 0.8938996
vt 0.62416273 0.8998103
vt 0.60323244 0.9044026
vt 0.5968701 0.8988824
vt 0.58479613 0.910486
vt 0.57564425 0.9056863
vt 0.55978054 0.9155254
vt 0.57051647 0.91905475
vt 0.5471341 0.92718554
vt 0.5587308 0.92911464
vt 0.5471341 0.92718554
vt 0.5587308 0.92911464
vt 0.57051647 0.91905475
vt 0.55978054 0.9155254
vt 0.58479613 0.910486
vt 0.57564425 0.9056863
vt 0.5968701 0.8988824
vt 0.60323244 0.9044026
vt 0.6213133 0.8938996
vt 0.62416273 0.8998103
vt 0.3828572 0.9389149
vt 0.38069287 0.9378327
vt 0.3828572 0.9389149
vt 0.38069287 0.9378327
vt 0.38128364 0.9375373
vt 0.38344797 0.9386195
vt 0.38344797 0.9386195
vt 0.3828572 0.9389149
vt 0.38128364 0.9375373
vt 0.38344797 0.9386195
vt 0.38128364 0.9375373
vt 0.38344797 0.9386195
vt 0.38069287 0.9378327
vt 0.3828572 0.9389149
vt 0.38128364 0.9375373
vt 0.38128364 0.9375373
vt 0.38344797 0.9386195
vt 0.3828572 0.9389149
vt 0.3828572 0.9389149
vt 0.38069287 0.9378327
vt 0.38069287 0.9378327
vt 0.38344797 0.9386195
vt 0.38128364 0.9375373
vn -0.38189572 0.35691935 0.8525046
vn -0 0 1
vn -0.5115296 0.18086222 0.84001565
vn -0 0.55643433 0.8308916
vn 0.20359531 0.49791446 0.8429887
vn -0 0 1
vn 0.5592842 0 0.82897604
vn -0 0 1
vn 0.5115296 0.18086223 0.84001565
vn 0.38189572 0.3569194 0.8525046
vn 0.5115296 0.18086223 0.84001565
vn -0 0 1
vn -0 -0.55643433 0.8308916
vn -0 0 1
vn 0.20359534 -0.4979144 0.84298885
vn -0 -0.55643433 0.8308916
vn -0.20359531 -0.49791446 0.8429887
vn -0 0 1
vn -0.5592842 0 0.82897604
vn -0.5115296 0.18086222 0.84001565
vn -0 0 1
vn -0.38189572 -0.3569194 0.8525046
vn -0 0 1
vn -0.20359531 -0.49791446 0.8429887
vn 0.5592842 0 0.82897604
vn 0.5115297 -0.18086222 0.84001565
vn -0 0 1
vn 0.38189572 0.3569194 0.8525046
vn -0 0 1
vn 0.20359531 0.49791446 0.8429887
vn -0 0 -1
vn -0 0 -1
vn -0 0 -1
vn -0 0 -1
vn -0 0 -1
vn -0 0 -1
vn -0 0 -1
vn -0 0 -1
vn -0 0 -1
vn -0 0 -1
vn -0 0 -1
vn -0 0 -1
vn -0 0 -1
vn -0 0 -1
vn -0 0 -1
vn -0 0 -1
vn -0 0 -1
vn -0 0 -1
vn -0 0 -1
vn -0 0 -1
vn -0 0 -1
vn 0.38189572 -0.3569194 0.85250473
vn 0.20359534 -0.4979144 0.84298885
vn -0 0 1
vn 0.5115297 -0.18086222 0.84001565
vn -0 0.55643433 0.8308916
vn -0 0 1
vn -0.20359534 0.4979144 0.84298885
vn -0.38189572 0.35691935 0.8525046
vn -0.78196 0.29434225 0.5494554
vn -0.58720356 0.5586039 0.5857932
vn -0.32195523 0.76372474 0.55952597
vn -0.5115296 0.18086222 0.84001565
vn -0.85859287 0 0.51265794
vn -0.5592842 0 0.82897604
vn -0.20359534 0.4979144 0.84298885
vn -0 0.8493096 0.5278951
vn -0 0.55643433 0.8308916
vn -0.38189572 -0.3569194 0.8525046
vn -0.5115297 -0.18086222 0.8400156
vn -0 0 1
vn -0.5592842 0 0.82897604
vn -0 0.8493096 0.5278951
vn 0.20359531 0.49791446 0.8429887
vn -0 0.55643433 0.8308916
vn 0.32195523 0.76372486 0.55952597
vn 0.38189572 0.3569194 0.8525046
vn 0.58720356 0.55860394 0.5857932
vn 0.78196 0.29434225 0.54945534
vn 0.5115296 0.18086223 0.84001565
vn 0.85859287 0 0.51265794
vn 0.5592842 0 0.82897604
vn -0.85859287 0 0.51265794
vn -0.5592842 0 0.82897604
vn -0.5115297 -0.18086222 0.8400156
vn -0.78196 -0.29434225 0.54945534
vn -0.38189572 -0.3569194 0.8525046
vn -0.58720356 -0.55860394 0.5857932
vn -0.32195523 -0.76372486 0.55952597
vn -0.20359531 -0.49791446 0.8429887
vn -0 -0.8493096 0.5278951
vn -0 -0.55643433 0.8308916
vn -0 -0.8493096 0.5278951
vn -0 -0.55643433 0.8308916
vn 0.20359534 -0.4979144 0.84298885
vn 0.32195523 -0.76372474 0.55952597
vn 0.38189572 -0.3569194 0.85250473
vn 0.58720356 -0.5586039 0.5857932
vn 0.78196 -0.29434225 0.5494554
vn 0.5115297 -0.18086222 0.84001565
vn 0.85859287 0 0.51265794
vn 0.5592842 0 0.82897604
vn -0 0 -1
vn -0 0 -1
vn -0 0 -1
vn -0 0 -1
vn -0 0 -1
vn -0 0 -1
vn -0 0 -1
vn -0 0 -1
vn -0 0 -1
vn -0 0 -1
vn -0 0 -1
vn -0 0 -1
vn -0 0 -1
vn -0 0 -1
vn -0 0 -1
vn -0 0 -1
vn -0 0 -1
vn -0 0 -1
vn -0 0 -1
vn -0 0 -1
vn -0 0 -1
vn -0 0 -1
vn -0 0 -1
g centerlight emit shell_0
f 3/3/3 2/2/2 1/1/1
f 6/6/6 5/5/5 4/4/4
f 9/9/9 8/8/8 7/7/7
f 12/12/12 11/11/11 10/10/10
f 15/15/15 14/14/14 13/13/13
f 18/18/18 17/17/17 16/16/16
f 21/21/21 20/20/20 19/19/19
f 24/24/24 23/23/23 22/22/22
f 27/27/27 26/26/26 25/25/25
f 30/30/30 29/29/29 28/28/28
f 33/33/33 32/32/32 31/31/31
f 31/31/31 35/35/35 34/34/34
f 36/36/36 34/34/34 35/35/35
f 31/31/31 38/38/38 37/37/37
f 38/38/38 39/39/39 37/37/37
f 39/39/39 40/40/40 37/37/37
f 43/43/43 42/42/42 41/41/41
f 42/42/42 45/45/45 44/44/44
f 46/46/46 44/44/44 45/45/45
f 44/44/44 46/46/46 47/47/47
f 46/46/46 48/48/48 47/47/47
f 51/51/51 50/50/50 49/49/49
f 54/54/54 53/53/53 52/52/52
f 55/55/55 54/54/54 52/52/52
f 58/58/58 57/57/57 56/56/56
f 57/57/57 58/58/58 59/59/59
f 61/61/61 60/60/60 59/59/59
f 61/61/61 59/59/59 62/62/62
f 60/60/60 63/63/63 59/59/59
f 60/60/60 64/64/64 63/63/63
f 64/64/64 65/65/65 63/63/63
f 59/59/59 66/66/66 62/62/62
f 62/62/62 66/66/66 67/67/67
f 66/66/66 68/68/68 67/67/67
f 71/71/71 70/70/70 69/69/69
f 70/70/70 71/71/71 72/72/72
f 75/75/75 74/74/74 73/73/73
f 74/74/74 76/76/76 73/73/73
f 74/74/74 77/77/77 76/76/76
f 77/77/77 78/78/78 76/76/76
f 78/78/78 77/77/77 79/79/79
f 77/77/77 80/80/80 79/79/79
f 79/79/79 80/80/80 81/81/81
f 80/80/80 82/82/82 81/81/81
f 85/85/85 84/84/84 83/83/83
f 86/86/86 85/85/85 83/83/83
f 87/87/87 85/85/85 86/86/86
f 88/88/88 87/87/87 86/86/86
f 87/87/87 88/88/88 89/89/89
f 90/90/90 87/87/87 89/89/89
f 90/90/90 89/89/89 91/91/91
f 92/92/92 90/90/90 91/91/91
f 95/95/95 94/94/94 93/93/93
f 96/96/96 95/95/95 93/93/93
f 97/97/97 95/95/95 96/96/96
f 98/98/98 97/97/97 96/96/96
f 98/98/98 99/99/99 97/97/97
f 99/99/99 100/100/100 97/97/97
f 99/99/99 101/101/101 100/100/100
f 101/101/101 102/102/102 100/100/100
f 105/105/105 104/104/104 103/103/103
f 104/104/104 105/105/105 106/106/106
f 105/105/105 107/107/107 106/106/106
f 105/105/105 108/108/108 107/107/107
f 108/108/108 109/109/109 107/107/107
f 104/104/104 111/111/111 110/110/110
f 112/112/112 110/110/110 111/111/111
f 111/111/111 113/113/113 112/112/112
f 112/112/112 114/114/114 110/110/110
f 117/117/117 116/116/116 115/115/115
f 116/116/116 117/117/117 118/118/118
f 118/118/118 119/119/119 116/116/116
f 122/122/122 121/121/121 120/120/120
f 120/120/120 123/123/123 122/122/122
f 120/120/120 124/124/124 123/123/123
f 123/123/123 124/124/124 125/125/125
