g Cube.259
v -1 -1 1
v -1 -1 -1
v -1 1 -1
v -1 1 1
v -1 -1 -1
v 1 -1 -1
v 1 1 -1
v -1 1 -1
v 1 -1 -1
v 1 -1 1
v 1 1 1
v 1 1 -1
v 1 -1 1
v -1 -1 1
v -1 1 1
v 1 1 1
v -1 -1 -1
v -1 -1 1
v 1 -1 1
v 1 -1 -1
v 1 1 -1
v 1 1 1
v -1 1 1
v -1 1 -1
vt 0.9309913 0.32319987
vt 0.9309913 0.31738886
vt 0.92500705 0.31738886
vt 0.92500705 0.32319987
vt 0.9309913 0.270901
vt 0.9309913 0.26509002
vt 0.92500705 0.26509002
vt 0.92500705 0.270901
vt 0.81916887 0.88113296
vt 0.81916887 0.875322
vt 0.8131847 0.875322
vt 0.8131847 0.88113296
vt 0.92500705 0.3115779
vt 0.9309913 0.3115779
vt 0.9309913 0.3057669
vt 0.92500705 0.3057669
vt 0.96258396 0.04648787
vt 0.96258396 0.040676888
vt 0.9565998 0.040676888
vt 0.9565998 0.04648787
vt 0.9029481 0.9276208
vt 0.89696383 0.9276208
vt 0.89696383 0.9334318
vt 0.9029481 0.9334318
vn -1 0 0
vn -1 0 0
vn -1 0 0
vn -1 0 0
vn -0 0 -1
vn -0 0 -1
vn -0 0 -1
vn -0 0 -1
vn 1 0 0
vn 1 0 0
vn 1 0 0
vn 1 0 0
vn -0 0 1
vn -0 0 1
vn -0 0 1
vn -0 0 1
vn -0 -1 0
vn -0 -1 0
vn -0 -1 0
vn -0 -1 0
vn -0 1 0
vn -0 1 0
vn -0 1 0
vn -0 1 0
g Cube.259_0
f 3/3/3 2/2/2 1/1/1
f 4/4/4 3/3/3 1/1/1
f 7/7/7 6/6/6 5/5/5
f 8/8/8 7/7/7 5/5/5
f 11/11/11 10/10/10 9/9/9
f 12/12/12 11/11/11 9/9/9
f 15/15/15 14/14/14 13/13/13
f 16/16/16 15/15/15 13/13/13
f 19/19/19 18/18/18 17/17/17
f 20/20/20 19/19/19 17/17/17
f 23/23/23 22/22/22 21/21/21
f 24/24/24 23/23/23 21/21/21
