g Cube.379
v -0.572876 0.029675812 6.627174
v -0.58230996 0.0485697 6.641367
v -0.5710804 0.065968804 6.6170206
v -0.119180314 0.5109059 6.5183616
v 0.0014491387 0.57652134 6.5751657
v 0.04143339 0.55444336 6.515696
v 0.00819588 -0.060488656 6.225079
v 0.121589944 -0.47878736 6.4796305
v -0.020873863 -0.54077 6.5838213
v -0.3959629 -0.32463458 6.5843897
v -0.37303272 -0.3705578 6.607961
v -0.42673603 0.28961664 6.457189
v 0.00819588 -0.060488656 6.225079
v -0.3959629 -0.32463458 6.5843897
v -0.572876 0.029675812 6.627174
v -0.5710804 0.065968804 6.6170206
v 0.04143339 0.55444336 6.515696
v 0.20733531 0.46283698 6.4473133
v 0.00819588 -0.060488656 6.225079
v -0.119180314 0.5109059 6.5183616
v -0.42673603 0.28961664 6.457189
v -0.3730326 0.37282488 6.4892874
v 0.3703501 0.37282485 6.5352426
v 0.56009483 -0.049093075 6.5800896
v 0.53789556 -0.086702935 6.559074
v 0.00819588 -0.060488656 6.225079
v 0.20733531 0.46283698 6.4473133
v -0.6746929 -0.674691 1.0355424
v -0.98943555 -0.9894355 -0.97887105
v -0.96448714 0.9644871 -0.928974
v -0.67625976 0.6762593 1.0304252
v -0.37303272 -0.3705578 3.2386882
v -0.58230996 0.048569728 3.2386882
v -0.3730326 0.37282494 3.2386882
v -0.98943555 -0.9894355 -0.97887105
v 0.96455204 -0.96455204 -0.92910427
v 0.9999214 0.9999214 -0.9998429
v -0.96448714 0.9644871 -0.928974
v 0.96455204 -0.96455204 -0.92910427
v 0.6770597 0.6770613 1.0278059
v 0.9999214 0.9999214 -0.9998429
v 0.67429936 -0.6743002 1.0368185
v 0.37035006 -0.37055784 3.2386882
v 0.56009483 -0.049093045 3.2386882
v 0.37035015 0.37282488 3.2386882
v -0.98943555 -0.9894355 -0.97887105
v 0.67429936 -0.6743002 1.0368185
v 0.96455204 -0.96455204 -0.92910427
v -0.6746929 -0.674691 1.0355424
v -0.37303272 -0.3705578 3.2386882
v 0.37035006 -0.37055784 3.2386882
v -0.020873863 -0.54077 3.2386882
v 0.9999214 0.9999214 -0.9998429
v 0.6770597 0.6770613 1.0278059
v -0.67625976 0.6762593 1.0304252
v -0.96448714 0.9644871 -0.928974
v 0.0014491387 0.57652134 6.5751657
v 0.0014491387 0.57652146 3.2386882
v 0.37035015 0.37282488 3.2386882
v 0.04143339 0.55444336 6.515696
v 0.20733531 0.46283698 6.4473133
v 0.3703501 0.37282485 6.5352426
v -0.67625976 0.6762593 1.0304252
v 0.6770597 0.6770613 1.0278059
v 0.37035015 0.37282488 3.2386882
v -0.3730326 0.37282494 3.2386882
v 0.0014491387 0.57652146 3.2386882
v 0.37035006 -0.37055784 6.583015
v 0.37035006 -0.37055784 3.2386882
v -0.020873863 -0.54077 3.2386882
v 0.121589944 -0.47878736 6.4796305
v -0.020873863 -0.54077 6.5838213
v -0.3959629 -0.32463458 6.5843897
v -0.37303272 -0.3705578 6.607961
v -0.37303272 -0.3705578 3.2386882
v -0.58230996 0.048569728 3.2386882
v -0.572876 0.029675812 6.627174
v -0.58230996 0.0485697 6.641367
v -0.37303272 -0.3705578 3.2386882
v -0.37303272 -0.3705578 6.607961
v -0.020873863 -0.54077 6.5838213
v -0.020873863 -0.54077 3.2386882
v -0.5710804 0.065968804 6.6170206
v -0.58230996 0.0485697 6.641367
v -0.58230996 0.048569728 3.2386882
v -0.3730326 0.37282494 3.2386882
v -0.42673603 0.28961664 6.457189
v -0.3730326 0.37282488 6.4892874
v 0.56009483 -0.049093045 3.2386882
v 0.56009483 -0.049093075 6.5800896
v 0.3703501 0.37282485 6.5352426
v 0.37035015 0.37282488 3.2386882
v -0.3730326 0.37282488 6.4892874
v -0.3730326 0.37282494 3.2386882
v 0.0014491387 0.57652146 3.2386882
v -0.119180314 0.5109059 6.5183616
v 0.0014491387 0.57652134 6.5751657
v 0.56009483 -0.049093045 3.2386882
v 0.37035006 -0.37055784 3.2386882
v 0.37035006 -0.37055784 6.583015
v 0.53789556 -0.086702935 6.559074
v 0.56009483 -0.049093075 6.5800896
v 0.53789556 -0.086702935 6.559074
v 0.37035006 -0.37055784 6.583015
v 0.121589944 -0.47878736 6.4796305
v 0.00819588 -0.060488656 6.225079
vt 0.09747054 0.078730494
vt 0.099439405 0.080124654
vt 0.10135783 0.078730494
vt 0.27556816 0.0787305
vt 0.28985983 0.08300747
vt 0.2933703 0.0787305
vt 0.818181 0
vt 0.79092884 0.04720262
vt 0.80281496 0.06182231
vt 0.848541 0.052585844
vt 0.8445012 0.057266198
vt 0.12601711 0.060809817
vt 0.090909 0
vt 0.06054893 0.052585844
vt 0.09747054 0.078730494
vt 0.10135783 0.078730494
vt 0.2933703 0.0787305
vt 0.3079359 0.060984354
vt 0.272727 0
vt 0.27556816 0.0787305
vt 0.23761891 0.060809817
vt 0.24549279 0.06972998
vt 0.4369372 0.07272532
vt 0.48582473 0.063033596
vt 0.48789346 0.05776197
vt 0.454545 0
vt 0.41933608 0.060984354
vt 0.375 0
vt 0.375 0.25
vt 0.625 0.25
vt 0.625 0
vt 0.375 0
vt 0.5 0
vt 0.625 0
vt 0.375 0.25
vt 0.375 0.5
vt 0.625 0.5
vt 0.625 0.25
vt 0.375 0.5
vt 0.625 0.75
vt 0.625 0.5
vt 0.375 0.75
vt 0.375 0.75
vt 0.5 0.75
vt 0.625 0.75
vt 0.125 0.5
vt 0.375 0.75
vt 0.375 0.5
vt 0.125 0.75
vt 0.125 0.75
vt 0.375 0.75
vt 0.25 0.75
vt 0.625 0.5
vt 0.625 0.75
vt 0.875 0.75
vt 0.875 0.5
vt 0.75 0.75
vt 0.75 0.75
vt 0.625 0.75
vt 0.7364515 0.75
vt 0.6802366 0.75
vt 0.625 0.75
vt 0.875 0.75
vt 0.625 0.75
vt 0.625 0.75
vt 0.875 0.75
vt 0.75 0.75
vt 0.375 0.75
vt 0.375 0.75
vt 0.25 0.75
vt 0.29551864 0.75000006
vt 0.25 0.75
vt 0.38869604 0
vt 0.375 0
vt 0.375 0
vt 0.5 0
vt 0.49436516 0
vt 0.5 0
vt 0.125 0.75
vt 0.125 0.75
vt 0.25 0.75
vt 0.25 0.75
vt 0.5067074 0
vt 0.5 0
vt 0.5 0
vt 0.625 0
vt 0.5929233 0
vt 0.625 0
vt 0.5 0.75
vt 0.5 0.75
vt 0.625 0.75
vt 0.625 0.75
vt 0.875 0.75
vt 0.875 0.75
vt 0.75 0.75
vt 0.79026556 0.75
vt 0.75 0.75
vt 0.5 0.75
vt 0.375 0.75
vt 0.375 0.75
vt 0.48537558 0.75
vt 0.5 0.75
vt 0.6030146 0.05776197
vt 0.6379087 0.06415355
vt 0.6636151 0.04720262
vt 0.636363 0
vn 0.8793476 0.08744877 0.46808165
vn 0.8793476 0.08744877 0.46808165
vn 0.8793476 0.08744877 0.46808165
vn 0.2376349 -0.8476004 0.4744505
vn 0.2376349 -0.8476004 0.4744505
vn 0.2376349 -0.8476004 0.4744505
vn 0.32057458 0.554315 0.7680931
vn 0.32057458 0.554315 0.7680931
vn 0.32057458 0.554315 0.7680931
vn 0.32057458 0.554315 0.7680931
vn 0.32057458 0.554315 0.7680931
vn 0.5784076 0.19310243 0.7925631
vn 0.5784076 0.19310243 0.7925631
vn 0.5784076 0.19310243 0.7925631
vn 0.5784076 0.19310243 0.7925631
vn 0.5784076 0.19310243 0.7925631
vn 0.13121915 -0.42937896 0.89354086
vn 0.13121915 -0.42937896 0.89354086
vn 0.13121915 -0.42937896 0.89354086
vn 0.13121915 -0.42937896 0.89354086
vn 0.13121915 -0.42937896 0.89354086
vn 0.13121915 -0.42937896 0.89354086
vn -0.532583 -0.15099303 0.8328003
vn -0.532583 -0.15099303 0.8328003
vn -0.532583 -0.15099303 0.8328003
vn -0.532583 -0.15099303 0.8328003
vn -0.532583 -0.15099303 0.8328003
vn -0.98867583 0.0049625277 0.1499845
vn -0.98867583 0.0049625277 0.1499845
vn -0.98867583 0.0049625277 0.1499845
vn -0.98867583 0.0049625277 0.1499845
vn -0.9946924 -0.00041082915 0.10289224
vn -0.9946924 -0.00041082915 0.10289224
vn -0.9946924 -0.00041082915 0.10289224
vn -0.0053046476 -0.0052370364 -0.9999722
vn -0.0053046476 -0.0052370364 -0.9999722
vn -0.0053046476 -0.0052370364 -0.9999722
vn -0.0053046476 -0.0052370364 -0.9999722
vn 0.98839927 -0.0077176928 0.15168132
vn 0.98839927 -0.0077176928 0.15168132
vn 0.98839927 -0.0077176928 0.15168132
vn 0.98839927 -0.0077176928 0.15168132
vn 0.9942325 -0.00071821455 0.10724369
vn 0.9942325 -0.00071821455 0.10724369
vn 0.9942325 -0.00071821455 0.10724369
vn 0.0052432506 -0.9886361 0.15023676
vn 0.0052432506 -0.9886361 0.15023676
vn 0.0052432506 -0.9886361 0.15023676
vn 0.0052432506 -0.9886361 0.15023676
vn 0.00010196906 -0.9939459 0.109870546
vn 0.00010196906 -0.9939459 0.109870546
vn 0.00010196906 -0.9939459 0.109870546
vn -0.007441562 0.9884397 0.15143181
vn -0.007441562 0.9884397 0.15143181
vn -0.007441562 0.9884397 0.15143181
vn -0.007441562 0.9884397 0.15143181
vn 0.48337725 0.87541217 0
vn 0.48337725 0.87541217 0
vn 0.48337725 0.87541217 0
vn 0.48337725 0.87541217 0
vn 0.48337725 0.87541217 0
vn 0.48337725 0.87541217 0
vn -0.00020959279 0.9945509 0.104252055
vn -0.00020959279 0.9945509 0.104252055
vn -0.00020959279 0.9945509 0.104252055
vn -0.00020959279 0.9945509 0.104252055
vn -0.00020959279 0.9945509 0.104252055
vn 0.39895245 -0.9169717 0
vn 0.39895245 -0.9169717 0
vn 0.39895245 -0.9169717 0
vn 0.39895245 -0.9169717 0
vn 0.39895245 -0.9169717 0
vn -0.8946717 -0.44672424 0
vn -0.8946717 -0.44672424 0
vn -0.8946717 -0.44672424 0
vn -0.8946717 -0.44672424 0
vn -0.8946717 -0.44672424 0
vn -0.8946717 -0.44672424 0
vn -0.43517306 -0.9003468 0
vn -0.43517306 -0.9003468 0
vn -0.43517306 -0.9003468 0
vn -0.43517306 -0.9003468 0
vn -0.8402016 0.5422741 0
vn -0.8402016 0.5422741 0
vn -0.8402016 0.5422741 0
vn -0.8402016 0.5422741 0
vn -0.8402016 0.5422741 0
vn -0.8402016 0.5422741 0
vn 0.9120173 0.4101519 0
vn 0.9120173 0.4101519 0
vn 0.9120173 0.4101519 0
vn 0.9120173 0.4101519 0
vn -0.47782797 0.8784534 0
vn -0.47782797 0.8784534 0
vn -0.47782797 0.8784534 0
vn -0.47782797 0.8784534 0
vn -0.47782797 0.8784534 0
vn 0.86117476 -0.5083089 0
vn 0.86117476 -0.5083089 0
vn 0.86117476 -0.5083089 0
vn 0.86117476 -0.5083089 0
vn 0.86117476 -0.5083089 0
vn -0.48614863 0.3543261 0.7988194
vn -0.48614863 0.3543261 0.7988194
vn -0.48614863 0.3543261 0.7988194
vn -0.48614863 0.3543261 0.7988194
g Cube.379_0
f 3/3/3 2/2/2 1/1/1
f 6/6/6 5/5/5 4/4/4
f 9/9/9 8/8/8 7/7/7
f 7/7/7 10/10/10 9/9/9
f 10/10/10 11/11/11 9/9/9
f 14/14/14 13/13/13 12/12/12
f 12/12/12 15/15/15 14/14/14
f 12/12/12 16/16/16 15/15/15
f 19/19/19 18/18/18 17/17/17
f 17/17/17 20/20/20 19/19/19
f 20/20/20 21/21/21 19/19/19
f 20/20/20 22/22/22 21/21/21
f 25/25/25 24/24/24 23/23/23
f 23/23/23 26/26/26 25/25/25
f 23/23/23 27/27/27 26/26/26
f 30/30/30 29/29/29 28/28/28
f 31/31/31 30/30/30 28/28/28
f 31/31/31 28/28/28 32/32/32
f 32/32/32 33/33/33 31/31/31
f 33/33/33 34/34/34 31/31/31
f 37/37/37 36/36/36 35/35/35
f 38/38/38 37/37/37 35/35/35
f 41/41/41 40/40/40 39/39/39
f 40/40/40 42/42/42 39/39/39
f 43/43/43 42/42/42 40/40/40
f 40/40/40 44/44/44 43/43/43
f 40/40/40 45/45/45 44/44/44
f 48/48/48 47/47/47 46/46/46
f 47/47/47 49/49/49 46/46/46
f 50/50/50 49/49/49 47/47/47
f 47/47/47 51/51/51 50/50/50
f 51/51/51 52/52/52 50/50/50
f 55/55/55 54/54/54 53/53/53
f 56/56/56 55/55/55 53/53/53
f 59/59/59 58/58/58 57/57/57
f 57/57/57 60/60/60 59/59/59
f 60/60/60 61/61/61 59/59/59
f 59/59/59 61/61/61 62/62/62
f 65/65/65 64/64/64 63/63/63
f 63/63/63 66/66/66 65/65/65
f 66/66/66 67/67/67 65/65/65
f 70/70/70 69/69/69 68/68/68
f 68/68/68 71/71/71 70/70/70
f 70/70/70 71/71/71 72/72/72
f 75/75/75 74/74/74 73/73/73
f 73/73/73 76/76/76 75/75/75
f 73/73/73 77/77/77 76/76/76
f 77/77/77 78/78/78 76/76/76
f 81/81/81 80/80/80 79/79/79
f 82/82/82 81/81/81 79/79/79
f 85/85/85 84/84/84 83/83/83
f 83/83/83 86/86/86 85/85/85
f 83/83/83 87/87/87 86/86/86
f 87/87/87 88/88/88 86/86/86
f 91/91/91 90/90/90 89/89/89
f 92/92/92 91/91/91 89/89/89
f 95/95/95 94/94/94 93/93/93
f 93/93/93 96/96/96 95/95/95
f 96/96/96 97/97/97 95/95/95
f 100/100/100 99/99/99 98/98/98
f 98/98/98 101/101/101 100/100/100
f 98/98/98 102/102/102 101/101/101
f 105/105/105 104/104/104 103/103/103
f 106/106/106 105/105/105 103/103/103
