g Cube.226
v -1 -1 1
v -1 -1 -1
v -1 1 -1
v -1 1 1
v -1 -1 -1
v 1 -1 -1
v 1 1 -1
v -1 1 -1
v 1 -1 -1
v 1 -1 1
v 1 1 1
v 1 1 -1
v 1 -1 1
v -1 -1 1
v -1 1 1
v 1 1 1
v -1 -1 -1
v -1 -1 1
v 1 -1 1
v 1 -1 -1
v 1 1 -1
v 1 1 1
v -1 1 1
v -1 1 -1
vt 0.8012162 0.92180985
vt 0.8012162 0.9159988
vt 0.795232 0.9159988
vt 0.795232 0.92180985
vt 0.9190228 0.270901
vt 0.9190228 0.26509002
vt 0.9130386 0.26509002
vt 0.9130386 0.270901
vt 0.90893227 0.88113296
vt 0.90893227 0.875322
vt 0.9029481 0.875322
vt 0.9029481 0.88113296
vt 0.8431058 0.92180985
vt 0.84909004 0.92180985
vt 0.84909004 0.9159988
vt 0.8431058 0.9159988
vt 0.89696383 0.9392428
vt 0.89696383 0.9334318
vt 0.8909796 0.9334318
vt 0.8909796 0.9392428
vt 0.9568061 0.86951095
vt 0.9508219 0.86951095
vt 0.9508219 0.875322
vt 0.9568061 0.875322
vn -1 0 0
vn -1 0 0
vn -1 0 0
vn -1 0 0
vn -0 0 -1
vn -0 0 -1
vn -0 0 -1
vn -0 0 -1
vn 1 0 0
vn 1 0 0
vn 1 0 0
vn 1 0 0
vn -0 0 1
vn -0 0 1
vn -0 0 1
vn -0 0 1
vn -0 -1 0
vn -0 -1 0
vn -0 -1 0
vn -0 -1 0
vn -0 1 0
vn -0 1 0
vn -0 1 0
vn -0 1 0
g Cube.226_0
f 3/3/3 2/2/2 1/1/1
f 4/4/4 3/3/3 1/1/1
f 7/7/7 6/6/6 5/5/5
f 8/8/8 7/7/7 5/5/5
f 11/11/11 10/10/10 9/9/9
f 12/12/12 11/11/11 9/9/9
f 15/15/15 14/14/14 13/13/13
f 16/16/16 15/15/15 13/13/13
f 19/19/19 18/18/18 17/17/17
f 20/20/20 19/19/19 17/17/17
f 23/23/23 22/22/22 21/21/21
f 24/24/24 23/23/23 21/21/21
