g Cube.573
v -1 -1 1
v -1 -1 -1
v -1 1 -1
v -1 1 1
v -1 -1 -1
v 1 -1 -1
v 1 1 -1
v -1 1 -1
v 1 -1 -1
v 1 -1 1
v 1 1 1
v 1 1 -1
v 1 -1 1
v -1 -1 1
v -1 1 1
v 1 1 1
v -1 -1 -1
v -1 -1 1
v 1 -1 1
v 1 -1 -1
v 1 1 -1
v 1 1 1
v -1 1 1
v -1 1 -1
vt 0.544636 0.91397
vt 0.544636 0.908159
vt 0.53865176 0.908159
vt 0.53865176 0.91397
vt 0.92500705 0.3115779
vt 0.92500705 0.3057669
vt 0.9190228 0.3057669
vt 0.9190228 0.3115779
vt 0.8909796 0.86951095
vt 0.8909796 0.8637
vt 0.8849954 0.8637
vt 0.8849954 0.86951095
vt 0.52803904 0.9141415
vt 0.5340232 0.9141415
vt 0.5340232 0.9083305
vt 0.52803904 0.9083305
vt 0.49299818 0.93881077
vt 0.49299818 0.9329998
vt 0.48701397 0.9329998
vt 0.48701397 0.93881077
vt 0.9609124 0.2360351
vt 0.95492816 0.2360351
vt 0.95492816 0.24184608
vt 0.9609124 0.24184608
vn -1 0 0
vn -1 0 0
vn -1 0 0
vn -1 0 0
vn -0 0 -1
vn -0 0 -1
vn -0 0 -1
vn -0 0 -1
vn 1 0 0
vn 1 0 0
vn 1 0 0
vn 1 0 0
vn -0 0 1
vn -0 0 1
vn -0 0 1
vn -0 0 1
vn -0 -1 0
vn -0 -1 0
vn -0 -1 0
vn -0 -1 0
vn -0 1 0
vn -0 1 0
vn -0 1 0
vn -0 1 0
g Cube.573_0
f 3/3/3 2/2/2 1/1/1
f 4/4/4 3/3/3 1/1/1
f 7/7/7 6/6/6 5/5/5
f 8/8/8 7/7/7 5/5/5
f 11/11/11 10/10/10 9/9/9
f 12/12/12 11/11/11 9/9/9
f 15/15/15 14/14/14 13/13/13
f 16/16/16 15/15/15 13/13/13
f 19/19/19 18/18/18 17/17/17
f 20/20/20 19/19/19 17/17/17
f 23/23/23 22/22/22 21/21/21
f 24/24/24 23/23/23 21/21/21
