g Cube.228
v 0.7909614 1 -1
v 0.7909614 1 1
v -0.79800904 1 1
v -0.79800904 1 -1
v -1 -1 1
v -1 -1 -1
v -1 0.79800904 -1
v -1 0.79800904 1
v -1 -1 -1
v -1 -1 1
v 1 -1 1
v 1 -1 -1
v 1 -1 -1
v 1 -1 1
v 1 0.7909614 1
v 1 0.7909614 -1
v 0.7909614 1 -1
v 1 0.7909614 -1
v 1 0.7909614 1
v 0.7909614 1 1
v -1 -1 -1
v 1 -1 -1
v 1 0.7909614 -1
v 0.7909614 1 -1
v -0.79800904 1 -1
v -1 0.79800904 -1
v -0.79800904 1 1
v -1 0.79800904 1
v -1 0.79800904 -1
v -0.79800904 1 -1
v 0.7909614 1 1
v 1 0.7909614 1
v 1 -1 1
v -1 -1 1
v -0.79800904 1 1
v -1 0.79800904 1
vt 0.65112984 0.5
vt 0.65112984 0.75
vt 0.8497511 0.74999994
vt 0.8497511 0.5
vt 0.375 0
vt 0.375 0.25
vt 0.5997512 0.25
vt 0.5997512 0
vt 0.125 0.5
vt 0.125 0.75
vt 0.375 0.75
vt 0.375 0.5
vt 0.375 0.5
vt 0.375 0.75
vt 0.5988702 0.75
vt 0.5988702 0.5
vt 0.65112984 0.5
vt 0.5988702 0.5
vt 0.5988702 0.75
vt 0.65112984 0.75
vt 0.375 0.25
vt 0.375 0.5
vt 0.5988702 0.5
vt 0.625 0.47387016
vt 0.625 0.27524886
vt 0.5997512 0.25
vt 0.31731302 0.6076765
vt 0.31816775 0.6076765
vt 0.31816775 0.60186553
vt 0.31731302 0.60186553
vt 0.625 0.77612984
vt 0.5988702 0.75
vt 0.375 0.75
vt 0.375 1
vt 0.625 0.9747511
vt 0.5997512 1
vn -0 1 0
vn -0 1 0
vn -0 1 0
vn -0 1 0
vn -1 0 0
vn -1 0 0
vn -1 0 0
vn -1 0 0
vn -0 -1 0
vn -0 -1 0
vn -0 -1 0
vn -0 -1 0
vn 1 0 0
vn 1 0 0
vn 1 0 0
vn 1 0 0
vn 0.70710677 0.70710677 0
vn 0.70710677 0.70710677 0
vn 0.70710677 0.70710677 0
vn 0.70710677 0.70710677 0
vn -0 0 -1
vn -0 0 -1
vn -0 0 -1
vn -0 0 -1
vn -0 0 -1
vn -0 0 -1
vn -0.70710677 0.70710677 0
vn -0.70710677 0.70710677 0
vn -0.70710677 0.70710677 0
vn -0.70710677 0.70710677 0
vn -0 0 1
vn -0 0 1
vn -0 0 1
vn -0 0 1
vn -0 0 1
vn -0 0 1
g Cube.228_0
f 3/3/3 2/2/2 1/1/1
f 4/4/4 3/3/3 1/1/1
f 7/7/7 6/6/6 5/5/5
f 8/8/8 7/7/7 5/5/5
f 11/11/11 10/10/10 9/9/9
f 12/12/12 11/11/11 9/9/9
f 15/15/15 14/14/14 13/13/13
f 16/16/16 15/15/15 13/13/13
f 19/19/19 18/18/18 17/17/17
f 20/20/20 19/19/19 17/17/17
f 23/23/23 22/22/22 21/21/21
f 21/21/21 24/24/24 23/23/23
f 21/21/21 25/25/25 24/24/24
f 21/21/21 26/26/26 25/25/25
f 29/29/29 28/28/28 27/27/27
f 30/30/30 29/29/29 27/27/27
f 33/33/33 32/32/32 31/31/31
f 31/31/31 34/34/34 33/33/33
f 31/31/31 35/35/35 34/34/34
f 35/35/35 36/36/36 34/34/34
