g Cube.257
v -1 -1 1
v -1 -1 -1
v -1 1 -1
v -1 1 1
v -1 -1 -1
v 1 -1 -1
v 1 1 -1
v -1 1 -1
v 1 -1 -1
v 1 -1 1
v 1 1 1
v 1 1 -1
v 1 -1 1
v -1 -1 1
v -1 1 1
v 1 1 1
v -1 -1 -1
v -1 -1 1
v 1 -1 1
v 1 -1 -1
v 1 1 -1
v 1 1 1
v -1 1 1
v -1 1 -1
vt 0.7533424 0.91018784
vt 0.7533424 0.90437686
vt 0.74735814 0.90437686
vt 0.74735814 0.91018784
vt 0.7653108 0.8985659
vt 0.7653108 0.8927549
vt 0.75932664 0.8927549
vt 0.75932664 0.8985659
vt 0.75932664 0.86951095
vt 0.75932664 0.8637
vt 0.7533424 0.8637
vt 0.7533424 0.86951095
vt 0.80720043 0.91018784
vt 0.8131847 0.91018784
vt 0.8131847 0.90437686
vt 0.80720043 0.90437686
vt 0.8131847 0.9392428
vt 0.8131847 0.9334318
vt 0.80720043 0.9334318
vt 0.80720043 0.9392428
vt 0.9568061 0.90437686
vt 0.9508219 0.90437686
vt 0.9508219 0.91018784
vt 0.9568061 0.91018784
vn -1 0 0
vn -1 0 0
vn -1 0 0
vn -1 0 0
vn -0 0 -1
vn -0 0 -1
vn -0 0 -1
vn -0 0 -1
vn 1 0 0
vn 1 0 0
vn 1 0 0
vn 1 0 0
vn -0 0 1
vn -0 0 1
vn -0 0 1
vn -0 0 1
vn -0 -1 0
vn -0 -1 0
vn -0 -1 0
vn -0 -1 0
vn -0 1 0
vn -0 1 0
vn -0 1 0
vn -0 1 0
g Cube.257_0
f 3/3/3 2/2/2 1/1/1
f 4/4/4 3/3/3 1/1/1
f 7/7/7 6/6/6 5/5/5
f 8/8/8 7/7/7 5/5/5
f 11/11/11 10/10/10 9/9/9
f 12/12/12 11/11/11 9/9/9
f 15/15/15 14/14/14 13/13/13
f 16/16/16 15/15/15 13/13/13
f 19/19/19 18/18/18 17/17/17
f 20/20/20 19/19/19 17/17/17
f 23/23/23 22/22/22 21/21/21
f 24/24/24 23/23/23 21/21/21
