g Cube.593
v -0.9885789 -0.9356927 0.9505577
v -0.9428286 -0.9877561 -0.96099144
v -1.0773065 0.39065346 -1.1421046
v -1.0405117 0.74304044 0.98052037
v -0.9428286 -0.9877561 -0.96099144
v 0.92387843 -0.95061445 -0.9191463
v 0.9360544 0.8879061 -0.77288055
v -1.0773065 0.39065346 -1.1421046
v 0.92387843 -0.95061445 -0.9191463
v 0.94239295 -0.95009303 1.0237352
v 0.62774944 1.4139732 0.9318352
v 0.9360544 0.8879061 -0.77288055
v 0.94239295 -0.95009303 1.0237352
v -0.9885789 -0.9356927 0.9505577
v -1.0405117 0.74304044 0.98052037
v 0.62774944 1.4139732 0.9318352
v -0.9428286 -0.9877561 -0.96099144
v -0.9885789 -0.9356927 0.9505577
v 0.94239295 -0.95009303 1.0237352
v 0.92387843 -0.95061445 -0.9191463
v -1.0773065 0.39065346 -1.1421046
v -0.61930966 2.9882164 -0.67455375
v -0.7726777 2.7960541 0.6655028
v -1.0405117 0.74304044 0.98052037
v -0.7726777 2.7960541 0.6655028
v -1.170012 3.5427318 0.73934895
v 0.3210534 3.7228854 1.3585654
v 0.40021706 3.0086598 0.8178253
v -1.0405117 0.74304044 0.98052037
v -0.7726777 2.7960541 0.6655028
v 0.40021706 3.0086598 0.8178253
v 0.62774944 1.4139732 0.9318352
v 0.9360544 0.8879061 -0.77288055
v 0.79959714 2.244796 -0.79448
v -0.61930966 2.9882164 -0.67455375
v -1.0773065 0.39065346 -1.1421046
v 0.62774944 1.4139732 0.9318352
v 0.40021706 3.0086598 0.8178253
v 0.79959714 2.244796 -0.79448
v 0.9360544 0.8879061 -0.77288055
v 0.3210534 3.7228854 1.3585654
v 0.56571287 5.3971543 1.1832107
v 0.8494351 4.4402175 -0.6677973
v 0.54744333 4.0549307 -0.37621912
v 0.79959714 2.244796 -0.79448
v 0.54744333 4.0549307 -0.37621912
v -0.8359918 3.598673 -0.8679502
v -0.61930966 2.9882164 -0.67455375
v 0.40021706 3.0086598 0.8178253
v 0.3210534 3.7228854 1.3585654
v 0.54744333 4.0549307 -0.37621912
v 0.79959714 2.244796 -0.79448
v -0.61930966 2.9882164 -0.67455375
v -0.8359918 3.598673 -0.8679502
v -1.170012 3.5427318 0.73934895
v -0.7726777 2.7960541 0.6655028
v -0.9428262 5.132103 -0.86304474
v -0.8987602 5.7325077 -0.9569954
v -1.2007241 5.6917224 0.8846472
v -1.3744619 4.6355653 1.0074621
v -0.8359918 3.598673 -0.8679502
v -0.9428262 5.132103 -0.86304474
v -1.3744619 4.6355653 1.0074621
v -1.170012 3.5427318 0.73934895
v -1.170012 3.5427318 0.73934895
v -1.3744619 4.6355653 1.0074621
v 0.56571287 5.3971543 1.1832107
v 0.3210534 3.7228854 1.3585654
v 0.54744333 4.0549307 -0.37621912
v 0.8494351 4.4402175 -0.6677973
v -0.9428262 5.132103 -0.86304474
v -0.8359918 3.598673 -0.8679502
v -1.2007241 5.6917224 0.8846472
v -0.9246414 6.7981615 1.3606145
v 1.1650602 6.819821 1.0665408
v 0.52172405 6.184871 0.9561153
v -1.3744619 4.6355653 1.0074621
v -1.2007241 5.6917224 0.8846472
v 0.52172405 6.184871 0.9561153
v 0.56571287 5.3971543 1.1832107
v 0.8494351 4.4402175 -0.6677973
v 0.8518655 5.638102 -0.79972523
v -0.8987602 5.7325077 -0.9569954
v -0.9428262 5.132103 -0.86304474
v 0.56571287 5.3971543 1.1832107
v 0.52172405 6.184871 0.9561153
v 0.8518655 5.638102 -0.79972523
v 0.8494351 4.4402175 -0.6677973
v 1.1650602 6.819821 1.0665408
v 1.6600218 8.871589 1.1314536
v 1.0837193 8.871589 -1.655065
v 0.8299278 6.863973 -1.291115
v 0.8518655 5.638102 -0.79972523
v 0.8299278 6.863973 -1.291115
v -1.1638163 7.1208043 -0.7194294
v -0.8987602 5.7325077 -0.9569954
v 0.52172405 6.184871 0.9561153
v 1.1650602 6.819821 1.0665408
v 0.8299278 6.863973 -1.291115
v 0.8518655 5.638102 -0.79972523
v -0.8987602 5.7325077 -0.9569954
v -1.1638163 7.1208043 -0.7194294
v -0.9246414 6.7981615 1.3606145
v -1.2007241 5.6917224 0.8846472
v 1.0837193 8.871589 -1.655065
v 1.6600218 8.871589 1.1314536
v -1.1207613 8.871589 1.6775984
v -1.6775984 8.871589 -1.1207613
v -1.1638163 7.1208043 -0.7194294
v -1.6775984 8.871589 -1.1207613
v -1.1207613 8.871589 1.6775984
v -0.9246414 6.7981615 1.3606145
v -0.9246414 6.7981615 1.3606145
v -1.1207613 8.871589 1.6775984
v 1.6600218 8.871589 1.1314536
v 1.1650602 6.819821 1.0665408
v 0.8299278 6.863973 -1.291115
v 1.0837193 8.871589 -1.655065
v -1.6775984 8.871589 -1.1207613
v -1.1638163 7.1208043 -0.7194294
vt 0.375 0
vt 0.375 0.25
vt 0.625 0.25
vt 0.625 0
vt 0.375 0.25
vt 0.375 0.5
vt 0.625 0.5
vt 0.625 0.25
vt 0.375 0.5
vt 0.375 0.75
vt 0.625 0.75
vt 0.625 0.5
vt 0.375 0.75
vt 0.375 1
vt 0.625 1
vt 0.625 0.75
vt 0.125 0.5
vt 0.125 0.75
vt 0.375 0.75
vt 0.375 0.5
vt 0.625 0.25
vt 0.625 0.25
vt 0.625 0
vt 0.625 0
vt 0.625 1
vt 0.625 1
vt 0.625 0.75
vt 0.625 0.75
vt 0.625 1
vt 0.625 1
vt 0.625 0.75
vt 0.625 0.75
vt 0.625 0.5
vt 0.625 0.5
vt 0.625 0.25
vt 0.625 0.25
vt 0.625 0.75
vt 0.625 0.75
vt 0.625 0.5
vt 0.625 0.5
vt 0.625 0.75
vt 0.625 0.75
vt 0.625 0.5
vt 0.625 0.5
vt 0.625 0.5
vt 0.625 0.5
vt 0.625 0.25
vt 0.625 0.25
vt 0.625 0.75
vt 0.625 0.75
vt 0.625 0.5
vt 0.625 0.5
vt 0.625 0.25
vt 0.625 0.25
vt 0.625 0
vt 0.625 0
vt 0.625 0.25
vt 0.625 0.25
vt 0.625 0
vt 0.625 0
vt 0.625 0.25
vt 0.625 0.25
vt 0.625 0
vt 0.625 0
vt 0.625 1
vt 0.625 1
vt 0.625 0.75
vt 0.625 0.75
vt 0.625 0.5
vt 0.625 0.5
vt 0.625 0.25
vt 0.625 0.25
vt 0.625 1
vt 0.625 1
vt 0.625 0.75
vt 0.625 0.75
vt 0.625 1
vt 0.625 1
vt 0.625 0.75
vt 0.625 0.75
vt 0.625 0.5
vt 0.625 0.5
vt 0.625 0.25
vt 0.625 0.25
vt 0.625 0.75
vt 0.625 0.75
vt 0.625 0.5
vt 0.625 0.5
vt 0.625 0.75
vt 0.625 0.75
vt 0.625 0.5
vt 0.625 0.5
vt 0.625 0.5
vt 0.625 0.5
vt 0.625 0.25
vt 0.625 0.25
vt 0.625 0.75
vt 0.625 0.75
vt 0.625 0.5
vt 0.625 0.5
vt 0.625 0.25
vt 0.625 0.25
vt 0.625 0
vt 0.625 0
vt 0.625 0.5
vt 0.625 0.75
vt 0.875 0.75
vt 0.875 0.5
vt 0.625 0.25
vt 0.625 0.25
vt 0.625 0
vt 0.625 0
vt 0.625 1
vt 0.625 1
vt 0.625 0.75
vt 0.625 0.75
vt 0.625 0.5
vt 0.625 0.5
vt 0.625 0.25
vt 0.625 0.25
vn -0.99815035 -0.06067151 0.003866917
vn -0.99815035 -0.06067151 0.003866917
vn -0.99815035 -0.06067151 0.003866917
vn -0.99815035 -0.06067151 0.003866917
vn 0.106268495 -0.0067307944 -0.99431473
vn 0.106268495 -0.0067307944 -0.99431473
vn 0.106268495 -0.0067307944 -0.99431473
vn 0.106268495 -0.0067307944 -0.99431473
vn 0.9951167 0.07072965 0.068848036
vn 0.9951167 0.07072965 0.068848036
vn 0.9951167 0.07072965 0.068848036
vn 0.9951167 0.07072965 0.068848036
vn -0.00944182 0.014461947 0.99985087
vn -0.00944182 0.014461947 0.99985087
vn -0.00944182 0.014461947 0.99985087
vn -0.00944182 0.014461947 0.99985087
vn 0.0055732233 -0.9998909 0.013680558
vn 0.0055732233 -0.9998909 0.013680558
vn 0.0055732233 -0.9998909 0.013680558
vn 0.0055732233 -0.9998909 0.013680558
vn -0.98702836 0.15537445 -0.04041838
vn -0.98702836 0.15537445 -0.04041838
vn -0.98702836 0.15537445 -0.04041838
vn -0.98702836 0.15537445 -0.04041838
vn -0.19128683 -0.43296784 0.88087916
vn -0.19128683 -0.43296784 0.88087916
vn -0.19128683 -0.43296784 0.88087916
vn -0.19128683 -0.43296784 0.88087916
vn -0.072604224 0.11729363 0.99043965
vn -0.072604224 0.11729363 0.99043965
vn -0.072604224 0.11729363 0.99043965
vn -0.072604224 0.11729363 0.99043965
vn 0.07955164 0.10531699 -0.99125165
vn 0.07955164 0.10531699 -0.99125165
vn 0.07955164 0.10531699 -0.99125165
vn 0.07955164 0.10531699 -0.99125165
vn 0.9789312 0.1280304 0.15906587
vn 0.9789312 0.1280304 0.15906587
vn 0.9789312 0.1280304 0.15906587
vn 0.9789312 0.1280304 0.15906587
vn 0.9608276 -0.21552056 0.17424513
vn 0.9608276 -0.21552056 0.17424513
vn 0.9608276 -0.21552056 0.17424513
vn 0.9608276 -0.21552056 0.17424513
vn 0.14255379 0.11889269 -0.9826204
vn 0.14255379 0.11889269 -0.9826204
vn 0.14255379 0.11889269 -0.9826204
vn 0.14255379 0.11889269 -0.9826204
vn 0.98248327 0.062216964 0.17565773
vn 0.98248327 0.062216964 0.17565773
vn 0.98248327 0.062216964 0.17565773
vn 0.98248327 0.062216964 0.17565773
vn -0.88968 -0.41858718 -0.18235755
vn -0.88968 -0.41858718 -0.18235755
vn -0.88968 -0.41858718 -0.18235755
vn -0.88968 -0.41858718 -0.18235755
vn -0.97835916 0.10532949 -0.1780984
vn -0.97835916 0.10532949 -0.1780984
vn -0.97835916 0.10532949 -0.1780984
vn -0.97835916 0.10532949 -0.1780984
vn -0.9694015 -0.0912081 -0.22790755
vn -0.9694015 -0.0912081 -0.22790755
vn -0.9694015 -0.0912081 -0.22790755
vn -0.9694015 -0.0912081 -0.22790755
vn -0.2179073 -0.029534845 0.9755225
vn -0.2179073 -0.029534845 0.9755225
vn -0.2179073 -0.029534845 0.9755225
vn -0.2179073 -0.029534845 0.9755225
vn 0.1968847 -0.16443476 -0.96653897
vn 0.1968847 -0.16443476 -0.96653897
vn 0.1968847 -0.16443476 -0.96653897
vn 0.1968847 -0.16443476 -0.96653897
vn 0.10343592 -0.3660392 0.9248331
vn 0.10343592 -0.3660392 0.9248331
vn 0.10343592 -0.3660392 0.9248331
vn 0.10343592 -0.3660392 0.9248331
vn -0.1319966 0.19376801 0.97212696
vn -0.1319966 0.19376801 0.97212696
vn -0.1319966 0.19376801 0.97212696
vn -0.1319966 0.19376801 0.97212696
vn 0.07046771 -0.12611182 -0.98951006
vn 0.07046771 -0.12611182 -0.98951006
vn 0.07046771 -0.12611182 -0.98951006
vn 0.07046771 -0.12611182 -0.98951006
vn 0.9877987 0.047492336 0.1483176
vn 0.9877987 0.047492336 0.1483176
vn 0.9877987 0.047492336 0.1483176
vn 0.9877987 0.047492336 0.1483176
vn 0.9662615 -0.19095916 -0.1728393
vn 0.9662615 -0.19095916 -0.1728393
vn 0.9662615 -0.19095916 -0.1728393
vn 0.9662615 -0.19095916 -0.1728393
vn -0.11943946 -0.108931005 -0.9868477
vn -0.11943946 -0.108931005 -0.9868477
vn -0.11943946 -0.108931005 -0.9868477
vn -0.11943946 -0.108931005 -0.9868477
vn 0.9501053 -0.30976316 0.036696292
vn 0.9501053 -0.30976316 0.036696292
vn 0.9501053 -0.30976316 0.036696292
vn 0.9501053 -0.30976316 0.036696292
vn -0.9998461 0.008765538 -0.015195917
vn -0.9998461 0.008765538 -0.015195917
vn -0.9998461 0.008765538 -0.015195917
vn -0.9998461 0.008765538 -0.015195917
vn -0 1 0
vn -0 1 0
vn -0 1 0
vn -0 1 0
vn -0.973092 -0.17739503 0.14704752
vn -0.973092 -0.17739503 0.14704752
vn -0.973092 -0.17739503 0.14704752
vn -0.973092 -0.17739503 0.14704752
vn 0.16954155 -0.10301861 0.9801239
vn 0.16954155 -0.10301861 0.9801239
vn 0.16954155 -0.10301861 0.9801239
vn 0.16954155 -0.10301861 0.9801239
vn -0.232238 -0.20946975 -0.9498357
vn -0.232238 -0.20946975 -0.9498357
vn -0.232238 -0.20946975 -0.9498357
vn -0.232238 -0.20946975 -0.9498357
g Cube.593_0
f 3/3/3 2/2/2 1/1/1
f 4/4/4 3/3/3 1/1/1
f 7/7/7 6/6/6 5/5/5
f 8/8/8 7/7/7 5/5/5
f 11/11/11 10/10/10 9/9/9
f 12/12/12 11/11/11 9/9/9
f 15/15/15 14/14/14 13/13/13
f 16/16/16 15/15/15 13/13/13
f 19/19/19 18/18/18 17/17/17
f 20/20/20 19/19/19 17/17/17
f 23/23/23 22/22/22 21/21/21
f 24/24/24 23/23/23 21/21/21
f 27/27/27 26/26/26 25/25/25
f 28/28/28 27/27/27 25/25/25
f 31/31/31 30/30/30 29/29/29
f 32/32/32 31/31/31 29/29/29
f 35/35/35 34/34/34 33/33/33
f 36/36/36 35/35/35 33/33/33
f 39/39/39 38/38/38 37/37/37
f 40/40/40 39/39/39 37/37/37
f 43/43/43 42/42/42 41/41/41
f 44/44/44 43/43/43 41/41/41
f 47/47/47 46/46/46 45/45/45
f 48/48/48 47/47/47 45/45/45
f 51/51/51 50/50/50 49/49/49
f 52/52/52 51/51/51 49/49/49
f 55/55/55 54/54/54 53/53/53
f 56/56/56 55/55/55 53/53/53
f 59/59/59 58/58/58 57/57/57
f 60/60/60 59/59/59 57/57/57
f 63/63/63 62/62/62 61/61/61
f 64/64/64 63/63/63 61/61/61
f 67/67/67 66/66/66 65/65/65
f 68/68/68 67/67/67 65/65/65
f 71/71/71 70/70/70 69/69/69
f 72/72/72 71/71/71 69/69/69
f 75/75/75 74/74/74 73/73/73
f 76/76/76 75/75/75 73/73/73
f 79/79/79 78/78/78 77/77/77
f 80/80/80 79/79/79 77/77/77
f 83/83/83 82/82/82 81/81/81
f 84/84/84 83/83/83 81/81/81
f 87/87/87 86/86/86 85/85/85
f 88/88/88 87/87/87 85/85/85
f 91/91/91 90/90/90 89/89/89
f 92/92/92 91/91/91 89/89/89
f 95/95/95 94/94/94 93/93/93
f 96/96/96 95/95/95 93/93/93
f 99/99/99 98/98/98 97/97/97
f 100/100/100 99/99/99 97/97/97
f 103/103/103 102/102/102 101/101/101
f 104/104/104 103/103/103 101/101/101
f 107/107/107 106/106/106 105/105/105
f 108/108/108 107/107/107 105/105/105
f 111/111/111 110/110/110 109/109/109
f 112/112/112 111/111/111 109/109/109
f 115/115/115 114/114/114 113/113/113
f 116/116/116 115/115/115 113/113/113
f 119/119/119 118/118/118 117/117/117
f 120/120/120 119/119/119 117/117/117
