g Cube.619
v -1 -1 1
v -1 -1 -1
v -1 1 -1
v -1 1 1
v -1 -1 -1
v 1 -1 -1
v 1 1 -1
v -1 1 -1
v 1 -1 -1
v 1 -1 1
v 1 1 1
v 1 1 -1
v 1 -1 1
v -1 -1 1
v -1 1 1
v 1 1 1
v -1 -1 -1
v -1 -1 1
v 1 -1 1
v 1 -1 -1
v 1 1 -1
v 1 1 1
v -1 1 1
v -1 1 -1
vt 0.8550742 0.90437686
vt 0.8550742 0.8985659
vt 0.84909004 0.8985659
vt 0.84909004 0.90437686
vt 0.92688495 0.875322
vt 0.92688495 0.86951095
vt 0.92090076 0.86951095
vt 0.92090076 0.875322
vt 0.30325067 0.7976156
vt 0.30325067 0.79180455
vt 0.29726645 0.79180455
vt 0.29726645 0.7976156
vt 0.87901115 0.90437686
vt 0.8849954 0.90437686
vt 0.8849954 0.8985659
vt 0.87901115 0.8985659
vt 0.9627903 0.88694394
vt 0.9627903 0.88113296
vt 0.9568061 0.88113296
vt 0.9568061 0.88694394
vt 0.95492816 0.31738886
vt 0.948944 0.31738886
vt 0.948944 0.32319987
vt 0.95492816 0.32319987
vn -1 0 0
vn -1 0 0
vn -1 0 0
vn -1 0 0
vn -0 0 -1
vn -0 0 -1
vn -0 0 -1
vn -0 0 -1
vn 1 0 0
vn 1 0 0
vn 1 0 0
vn 1 0 0
vn -0 0 1
vn -0 0 1
vn -0 0 1
vn -0 0 1
vn -0 -1 0
vn -0 -1 0
vn -0 -1 0
vn -0 -1 0
vn -0 1 0
vn -0 1 0
vn -0 1 0
vn -0 1 0
g Cube.619_0
f 3/3/3 2/2/2 1/1/1
f 4/4/4 3/3/3 1/1/1
f 7/7/7 6/6/6 5/5/5
f 8/8/8 7/7/7 5/5/5
f 11/11/11 10/10/10 9/9/9
f 12/12/12 11/11/11 9/9/9
f 15/15/15 14/14/14 13/13/13
f 16/16/16 15/15/15 13/13/13
f 19/19/19 18/18/18 17/17/17
f 20/20/20 19/19/19 17/17/17
f 23/23/23 22/22/22 21/21/21
f 24/24/24 23/23/23 21/21/21
