g Cube.554
v -1 -1 1
v -1 -1 -1
v -1 1 -1
v -1 1 1
v -1 -1 -1
v 1 -1 -1
v 1 1 -1
v -1 1 -1
v 1 -1 -1
v 1 -1 1
v 1 1 1
v 1 1 -1
v 1 -1 1
v -1 -1 1
v -1 1 1
v 1 1 1
v -1 -1 -1
v -1 -1 1
v 1 -1 1
v 1 -1 -1
v 1 1 -1
v 1 1 1
v -1 1 1
v -1 1 -1
vt 0.8849954 0.9159988
vt 0.8849954 0.91018784
vt 0.87901115 0.91018784
vt 0.87901115 0.9159988
vt 0.9149165 0.8927549
vt 0.9149165 0.88694394
vt 0.90893227 0.88694394
vt 0.90893227 0.8927549
vt 0.84909004 0.875322
vt 0.84909004 0.86951095
vt 0.8431058 0.86951095
vt 0.8431058 0.875322
vt 0.9149165 0.9159988
vt 0.92090076 0.9159988
vt 0.92090076 0.91018784
vt 0.9149165 0.91018784
vt 0.96258396 0.08716476
vt 0.96258396 0.081353776
vt 0.9565998 0.081353776
vt 0.9565998 0.08716476
vt 0.87901115 0.9276208
vt 0.8730269 0.9276208
vt 0.8730269 0.9334318
vt 0.87901115 0.9334318
vn -1 0 0
vn -1 0 0
vn -1 0 0
vn -1 0 0
vn -0 0 -1
vn -0 0 -1
vn -0 0 -1
vn -0 0 -1
vn 1 0 0
vn 1 0 0
vn 1 0 0
vn 1 0 0
vn -0 0 1
vn -0 0 1
vn -0 0 1
vn -0 0 1
vn -0 -1 0
vn -0 -1 0
vn -0 -1 0
vn -0 -1 0
vn -0 1 0
vn -0 1 0
vn -0 1 0
vn -0 1 0
g Cube.554_0
f 3/3/3 2/2/2 1/1/1
f 4/4/4 3/3/3 1/1/1
f 7/7/7 6/6/6 5/5/5
f 8/8/8 7/7/7 5/5/5
f 11/11/11 10/10/10 9/9/9
f 12/12/12 11/11/11 9/9/9
f 15/15/15 14/14/14 13/13/13
f 16/16/16 15/15/15 13/13/13
f 19/19/19 18/18/18 17/17/17
f 20/20/20 19/19/19 17/17/17
f 23/23/23 22/22/22 21/21/21
f 24/24/24 23/23/23 21/21/21
