g Cube.696
v 0.7158035 0.049561515 -0.8751235
v 0.71452236 0.074505195 -0.9999998
v 0.730852 0.05832621 -1
v 0.47888258 0.5742287 -0.3377931
v 0.43018687 0.72717935 -0.9999999
v 0.5060597 0.609447 -1
v 0.4657462 1 0.4791057
v 0.43955454 1 -1
v 0.41068622 0.89085376 -1
v 0.49439982 0.9913241 1
v 0.49164355 1 1
v 0.49064094 1 0.96031386
v 0.5060597 0.609447 -1
v 0.5965332 0.48668468 -1
v 0.47888258 0.5742287 -0.3377931
v 0.90478575 -0.07403821 1
v 0.7069036 0.11368387 1
v 0.7158035 0.049561515 -0.8751235
v 0.65926534 0.47641528 -0.17009076
v 0.68183386 0.43798915 -0.9999999
v 0.67605233 0.41695845 -0.9999999
v 0.730852 0.05832621 -1
v 0.8105683 -0.008886576 -0.9999999
v 0.7158035 0.049561515 -0.8751235
v 1 -0.12790933 -0.58984894
v 1 -0.11472811 1
v 0.90781057 -0.07591706 1
v 0.6538081 0.4895832 0.15652911
v 0.65926534 0.47641528 -0.17009076
v 0.67605233 0.41695845 -0.9999999
v 0.71452236 0.074505195 -0.9999998
v 0.7158035 0.049561515 -0.8751235
v 0.7069036 0.11368387 1
v 0.67256474 0.35709327 0.9999999
v 0.6534255 0.49234095 0.23903666
v 0.4791236 1 0.76981175
v 0.4657462 1 0.4791057
v 0.41068622 0.89085376 -1
v 0.43018687 0.72717935 -0.9999999
v 0.47888258 0.5742287 -0.3377931
v 0.5519445 0.62411624 1
v 0.49439982 0.9913241 1
v 0.49064094 1 0.96031386
v -1 -1 1
v -1 -1 -1
v -1 1 -1
v -1 1 1
v -1 -1 -1
v 1 -1 -1
v 1 -0.12654975 -1
v 0.8105683 -0.008886576 -0.9999999
v 0.730852 0.05832621 -1
v 0.71452236 0.074505195 -0.9999998
v 0.67605233 0.41695845 -0.9999999
v 0.5965332 0.48668468 -1
v 0.68183386 0.43798915 -0.9999999
v 0.5060597 0.609447 -1
v 0.43018687 0.72717935 -0.9999999
v 0.41068622 0.89085376 -1
v -1 1 -1
v 0.43955454 1 -1
v 1 -0.12654975 -1
v 1 -1 -1
v 1 -1 1
v 1 -0.12790933 -0.58984894
v 1 -0.11472811 1
v 0.5519445 0.62411624 1
v 0.650138 0.5503757 1
v 0.63729787 0.46682584 1
v -1 -1 1
v 0.67256474 0.35709327 0.9999999
v 0.49439982 0.9913241 1
v 0.7069036 0.11368387 1
v 0.49164355 1 1
v -1 1 1
v 0.90478575 -0.07403821 1
v 0.90781057 -0.07591706 1
v 1 -1 1
v 1 -0.11472811 1
v -1 -1 -1
v -1 -1 1
v 1 -1 1
v 1 -1 -1
v -1 1 1
v -1 1 -1
v 0.43955454 1 -1
v 0.4657462 1 0.4791057
v 0.4791236 1 0.76981175
v 0.49064094 1 0.96031386
v 0.49164355 1 1
v 0.8105683 -0.008886576 -0.9999999
v 1 -0.12654975 -1
v 1 -0.12790933 -0.58984894
v 0.7158035 0.049561515 -0.8751235
v 0.90478575 -0.07403821 1
v 0.90781057 -0.07591706 1
v 0.650138 0.5503757 1
v 0.5519445 0.62411624 1
v 0.47888258 0.5742287 -0.3377931
v 0.6498244 0.49658045 0.30998892
v 0.47888258 0.5742287 -0.3377931
v 0.5965332 0.48668468 -1
v 0.68183386 0.43798915 -0.9999999
v 0.65926534 0.47641528 -0.17009076
v 0.6498293 0.49655265 0.3091803
v 0.6498244 0.49658045 0.30998892
v 0.6538081 0.4895832 0.15652911
v 0.6534255 0.49234095 0.23903666
v 0.67256474 0.35709327 0.9999999
v 0.63729787 0.46682584 1
v 0.6498293 0.49655265 0.3091803
v 0.6534255 0.49234095 0.23903666
v 0.63729787 0.46682584 1
v 0.650138 0.5503757 1
v 0.6498244 0.49658045 0.30998892
v 0.6498293 0.49655265 0.3091803
vt 0.22727251 0.0787305
vt 0.22317928 0.08582027
vt 0.22963905 0.08282953
vt 0.22727251 0.0787305
vt 0.2021735 0.12220381
vt 0.23678173 0.095201164
vt 0.10467464 0.157461
vt 0.15314348 0.17733704
vt 0.16126893 0.157461
vt 0.08632034 0.14951311
vt 0.08601929 0.15197328
vt 0.08745055 0.15147072
vt 0.23678173 0.095201164
vt 0.2669003 0.0787305
vt 0.22727251 0.0787305
vt 0.09136618 0.00079187966
vt 0.07998641 0.0787305
vt 0.13636349 0.0787305
vt 0.104113325 0.157461
vt 0.13403618 0.16156107
vt 0.13494277 0.157461
vt 0.22963905 0.08282953
vt 0.2537297 0.0787305
vt 0.22727251 0.0787305
vt 0.4230669 0.054522317
vt 0.4644497 0.026851512
vt 0.45417225 0.0006456247
vt 0.0921448 0.15532048
vt 0.104113325 0.157461
vt 0.13494277 0.157461
vt 0.14045672 0.08582027
vt 0.13636349 0.0787305
vt 0.07998641 0.0787305
vt 0.07204729 0.124791145
vt 0.08966623 0.15530843
vt 0.09357686 0.15284006
vt 0.10467464 0.157461
vt 0.16126893 0.157461
vt 0.1614625 0.12220381
vt 0.13636349 0.0787305
vt 0.09250187 0.078730494
vt 0.08632034 0.14951311
vt 0.08745055 0.15147072
vt 0.9429597 0.23022412
vt 0.9429597 0.22441313
vt 0.9369755 0.22441313
vt 0.9369755 0.23022412
vt 0.92500705 0.29414493
vt 0.92500705 0.28833395
vt 0.92239356 0.28833395
vt 0.9220415 0.28888434
vt 0.9218404 0.28911594
vt 0.921792 0.2891634
vt 0.92076737 0.2892752
vt 0.9205587 0.28950623
vt 0.9207044 0.2892584
vt 0.92019135 0.28976908
vt 0.91983914 0.28998953
vt 0.9193494 0.29004622
vt 0.9190228 0.29414493
vt 0.9190228 0.28996232
vt 0.897915 0.85577685
vt 0.9005285 0.8557769
vt 0.9005285 0.84996593
vt 0.8979191 0.8545853
vt 0.8978796 0.84996593
vt 0.93831617 0.26037118
vt 0.9380224 0.26058543
vt 0.9380608 0.26082817
vt 0.9429597 0.26509002
vt 0.93795514 0.26114696
vt 0.9384882 0.25930426
vt 0.93785256 0.2618543
vt 0.93849653 0.25927904
vt 0.9429597 0.25927904
vt 0.93726045 0.26239964
vt 0.93725145 0.26240516
vt 0.9369755 0.26509002
vt 0.9369755 0.26251787
vt 0.96656364 0.8430755
vt 0.96656364 0.83726454
vt 0.9605794 0.83726454
vt 0.9605794 0.8430755
vt 0.95492816 0.28252298
vt 0.9609124 0.28252298
vt 0.96091247 0.27834037
vt 0.9564867 0.27826428
vt 0.95561683 0.2782254
vt 0.9550469 0.27819192
vt 0.95492816 0.27818903
vt 0.2537297 0.0787305
vt 0.30570468 0.069572285
vt 0.3042051 0.054522317
vt 0.22727251 0.0787305
vt 0.27226982 0.00079187966
vt 0.27309975 0.0006456247
vt 0.08740991 0.04326501
vt 0.09250187 0.078730494
vt 0.13636349 0.0787305
vt 0.108095095 0.029767578
vt 0.22727251 0.0787305
vt 0.2669003 0.0787305
vt 0.28689113 0.064128615
vt 0.2664934 0.042752035
vt 0.2555568 0.029791322
vt 0.2555409 0.029767578
vt 0.25926828 0.033752788
vt 0.25767657 0.031308994
vt 0.07204729 0.124791145
vt 0.06381508 0.157461
vt 0.08679093 0.15746099
vt 0.08966623 0.15530843
vt 0.06381508 0.157461
vt 0.06403949 0.18251863
vt 0.086764194 0.15747978
vt 0.08679093 0.15746099
vn 0.69752467 0.7040209 0.13346896
vn 0.69752467 0.7040209 0.13346896
vn 0.69752467 0.7040209 0.13346896
vn 0.83888876 0.5406237 0.06318028
vn 0.83888876 0.5406237 0.06318028
vn 0.83888876 0.5406237 0.06318028
vn 0.9666146 -0.25566238 -0.017116552
vn 0.9666146 -0.25566238 -0.017116552
vn 0.9666146 -0.25566238 -0.017116552
vn 0.9527825 0.30269793 -0.024071097
vn 0.9527825 0.30269793 -0.024071097
vn 0.9527825 0.30269793 -0.024071097
vn 0.80332863 0.5920378 0.064455196
vn 0.80332863 0.5920378 0.064455196
vn 0.80332863 0.5920378 0.064455196
vn 0.68807703 0.72531796 -0.02153741
vn 0.68807703 0.72531796 -0.02153741
vn 0.68807703 0.72531796 -0.02153741
vn 0.9635143 -0.26487833 0.038465977
vn 0.9635143 -0.26487833 0.038465977
vn 0.9635143 -0.26487833 0.038465977
vn 0.6391142 0.75800776 0.13022046
vn 0.6391142 0.75800776 0.13022046
vn 0.6391142 0.75800776 0.13022046
vn 0.3879986 0.9216283 -0.0076410878
vn 0.3879986 0.9216283 -0.0076410878
vn 0.3879986 0.9216283 -0.0076410878
vn 0.9936766 0.111626245 0.012102248
vn 0.9936766 0.111626245 0.012102248
vn 0.9936766 0.111626245 0.012102248
vn 0.9936766 0.111626245 0.012102248
vn 0.9936766 0.111626245 0.012102248
vn 0.9901951 0.13969117 -7.7102944E-05
vn 0.9901951 0.13969117 -7.7102944E-05
vn 0.9901951 0.13969117 -7.7102944E-05
vn 0.99194217 0.118182845 -0.045646187
vn 0.99194217 0.118182845 -0.045646187
vn 0.99194217 0.118182845 -0.045646187
vn 0.99194217 0.118182845 -0.045646187
vn 0.99194217 0.118182845 -0.045646187
vn 0.9861854 0.15454382 -0.0596223
vn 0.9861854 0.15454382 -0.0596223
vn 0.9861854 0.15454382 -0.0596223
vn -1 0 0
vn -1 0 0
vn -1 0 0
vn -1 0 0
vn -0 0 -1
vn -0 0 -1
vn -0 0 -1
vn -0 0 -1
vn -0 0 -1
vn -0 0 -1
vn -0 0 -1
vn -0 0 -1
vn -0 0 -1
vn -0 0 -1
vn -0 0 -1
vn -0 0 -1
vn -0 0 -1
vn -0 0 -1
vn 1 0 0
vn 1 0 0
vn 1 0 0
vn 1 0 0
vn 1 0 0
vn -0 0 1
vn -0 0 1
vn -0 0 1
vn -0 0 1
vn -0 0 1
vn -0 0 1
vn -0 0 1
vn -0 0 1
vn -0 0 1
vn -0 0 1
vn -0 0 1
vn -0 0 1
vn -0 0 1
vn -0 -1 0
vn -0 -1 0
vn -0 -1 0
vn -0 -1 0
vn -0 1 0
vn -0 1 0
vn -0 1 0
vn -0 1 0
vn -0 1 0
vn -0 1 0
vn -0 1 0
vn 0.5276357 0.84946615 0.002815836
vn 0.5276357 0.84946615 0.002815836
vn 0.5276357 0.84946615 0.002815836
vn 0.5276357 0.84946615 0.002815836
vn 0.5276357 0.84946615 0.002815836
vn 0.5276357 0.84946615 0.002815836
vn 0.5993231 0.79806423 -0.06249185
vn 0.5993231 0.79806423 -0.06249185
vn 0.5993231 0.79806423 -0.06249185
vn 0.5993231 0.79806423 -0.06249185
vn 0.49559543 0.86814237 -0.026719093
vn 0.49559543 0.86814237 -0.026719093
vn 0.49559543 0.86814237 -0.026719093
vn 0.49559543 0.86814237 -0.026719093
vn 0.49559543 0.86814237 -0.026719093
vn 0.49559543 0.86814237 -0.026719093
vn 0.49559543 0.86814237 -0.026719093
vn 0.49559543 0.86814237 -0.026719093
vn 0.95159847 0.30583438 0.030422434
vn 0.95159847 0.30583438 0.030422434
vn 0.95159847 0.30583438 0.030422434
vn 0.95159847 0.30583438 0.030422434
vn 0.9883316 -0.15189056 0.0113923345
vn 0.9883316 -0.15189056 0.0113923345
vn 0.9883316 -0.15189056 0.0113923345
vn 0.9883316 -0.15189056 0.0113923345
g Cube.696_0
f 3/3/3 2/2/2 1/1/1
f 6/6/6 5/5/5 4/4/4
f 9/9/9 8/8/8 7/7/7
f 12/12/12 11/11/11 10/10/10
f 15/15/15 14/14/14 13/13/13
f 18/18/18 17/17/17 16/16/16
f 21/21/21 20/20/20 19/19/19
f 24/24/24 23/23/23 22/22/22
f 27/27/27 26/26/26 25/25/25
f 30/30/30 29/29/29 28/28/28
f 31/31/31 30/30/30 28/28/28
f 28/28/28 32/32/32 31/31/31
f 33/33/33 32/32/32 28/28/28
f 28/28/28 34/34/34 33/33/33
f 28/28/28 35/35/35 34/34/34
f 38/38/38 37/37/37 36/36/36
f 39/39/39 38/38/38 36/36/36
f 36/36/36 40/40/40 39/39/39
f 41/41/41 40/40/40 36/36/36
f 36/36/36 42/42/42 41/41/41
f 36/36/36 43/43/43 42/42/42
f 46/46/46 45/45/45 44/44/44
f 47/47/47 46/46/46 44/44/44
f 50/50/50 49/49/49 48/48/48
f 48/48/48 51/51/51 50/50/50
f 48/48/48 52/52/52 51/51/51
f 48/48/48 53/53/53 52/52/52
f 48/48/48 54/54/54 53/53/53
f 48/48/48 55/55/55 54/54/54
f 56/56/56 54/54/54 55/55/55
f 48/48/48 57/57/57 55/55/55
f 48/48/48 58/58/58 57/57/57
f 48/48/48 59/59/59 58/58/58
f 59/59/59 48/48/48 60/60/60
f 60/60/60 61/61/61 59/59/59
f 64/64/64 63/63/63 62/62/62
f 62/62/62 65/65/65 64/64/64
f 64/64/64 65/65/65 66/66/66
f 69/69/69 68/68/68 67/67/67
f 69/69/69 67/67/67 70/70/70
f 71/71/71 69/69/69 70/70/70
f 67/67/67 72/72/72 70/70/70
f 73/73/73 71/71/71 70/70/70
f 72/72/72 74/74/74 70/70/70
f 74/74/74 75/75/75 70/70/70
f 76/76/76 73/73/73 70/70/70
f 77/77/77 76/76/76 70/70/70
f 77/77/77 70/70/70 78/78/78
f 78/78/78 79/79/79 77/77/77
f 82/82/82 81/81/81 80/80/80
f 83/83/83 82/82/82 80/80/80
f 86/86/86 85/85/85 84/84/84
f 84/84/84 87/87/87 86/86/86
f 84/84/84 88/88/88 87/87/87
f 84/84/84 89/89/89 88/88/88
f 84/84/84 90/90/90 89/89/89
f 93/93/93 92/92/92 91/91/91
f 91/91/91 94/94/94 93/93/93
f 94/94/94 95/95/95 93/93/93
f 95/95/95 96/96/96 93/93/93
f 99/99/99 98/98/98 97/97/97
f 100/100/100 99/99/99 97/97/97
f 103/103/103 102/102/102 101/101/101
f 101/101/101 104/104/104 103/103/103
f 101/101/101 105/105/105 104/104/104
f 101/101/101 106/106/106 105/105/105
f 105/105/105 107/107/107 104/104/104
f 105/105/105 108/108/108 107/107/107
f 111/111/111 110/110/110 109/109/109
f 112/112/112 111/111/111 109/109/109
f 115/115/115 114/114/114 113/113/113
f 116/116/116 115/115/115 113/113/113
