g Cube.312
v -1 -1 1
v -1 -1 -1
v -1 1 -1
v -1 1 1
v -1 -1 -1
v 1 -1 -1
v 1 1 -1
v -1 1 -1
v 1 -1 -1
v 1 -1 1
v 1 1 1
v 1 1 -1
v 1 -1 1
v -1 -1 1
v -1 1 1
v 1 1 1
v -1 -1 -1
v -1 -1 1
v 1 -1 1
v 1 -1 -1
v 1 1 -1
v 1 1 1
v -1 1 1
v -1 1 -1
vt 0.9309913 0.35225478
vt 0.9309913 0.3464438
vt 0.92500705 0.3464438
vt 0.92500705 0.35225478
vt 0.9309913 0.26509002
vt 0.9309913 0.25927904
vt 0.92500705 0.25927904
vt 0.92500705 0.26509002
vt 0.795232 0.86951095
vt 0.795232 0.8637
vt 0.78924775 0.8637
vt 0.78924775 0.86951095
vt 0.92500705 0.32901084
vt 0.9309913 0.32901084
vt 0.9309913 0.32319987
vt 0.92500705 0.32319987
vt 0.96258396 0.034865905
vt 0.96258396 0.029054921
vt 0.9565998 0.029054921
vt 0.9565998 0.034865905
vt 0.9328692 0.9276208
vt 0.92688495 0.9276208
vt 0.92688495 0.9334318
vt 0.9328692 0.9334318
vn -1 0 0
vn -1 0 0
vn -1 0 0
vn -1 0 0
vn -0 0 -1
vn -0 0 -1
vn -0 0 -1
vn -0 0 -1
vn 1 0 0
vn 1 0 0
vn 1 0 0
vn 1 0 0
vn -0 0 1
vn -0 0 1
vn -0 0 1
vn -0 0 1
vn -0 -1 0
vn -0 -1 0
vn -0 -1 0
vn -0 -1 0
vn -0 1 0
vn -0 1 0
vn -0 1 0
vn -0 1 0
g Cube.312_0
f 3/3/3 2/2/2 1/1/1
f 4/4/4 3/3/3 1/1/1
f 7/7/7 6/6/6 5/5/5
f 8/8/8 7/7/7 5/5/5
f 11/11/11 10/10/10 9/9/9
f 12/12/12 11/11/11 9/9/9
f 15/15/15 14/14/14 13/13/13
f 16/16/16 15/15/15 13/13/13
f 19/19/19 18/18/18 17/17/17
f 20/20/20 19/19/19 17/17/17
f 23/23/23 22/22/22 21/21/21
f 24/24/24 23/23/23 21/21/21
