g Cube.590
v -1 -1 1
v -1 -1 -1
v -1 1 -1
v -1 1 1
v -1 -1 -1
v 1 -1 -1
v 1 1 -1
v -1 1 -1
v 1 -1 -1
v 1 -1 1
v 1 1 1
v 1 1 -1
v 1 -1 1
v -1 -1 1
v -1 1 1
v 1 1 1
v -1 -1 -1
v -1 -1 1
v 1 -1 1
v 1 -1 -1
v 1 1 -1
v 1 1 1
v -1 1 1
v -1 1 -1
vt 0.9369755 0.276712
vt 0.9369755 0.270901
vt 0.9309913 0.270901
vt 0.9309913 0.276712
vt 0.8431058 0.8985659
vt 0.8431058 0.8927549
vt 0.83712155 0.8927549
vt 0.83712155 0.8985659
vt 0.31601998 0.85800314
vt 0.31601998 0.85219216
vt 0.31003577 0.85219216
vt 0.31003577 0.85800314
vt 0.9309913 0.29414493
vt 0.9369755 0.29414493
vt 0.9369755 0.28833395
vt 0.9309913 0.28833395
vt 0.9448376 0.9392428
vt 0.9448376 0.9334318
vt 0.93885344 0.9334318
vt 0.93885344 0.9392428
vt 0.8610585 0.92180985
vt 0.8550742 0.92180985
vt 0.8550742 0.9276208
vt 0.8610585 0.9276208
vn -1 0 0
vn -1 0 0
vn -1 0 0
vn -1 0 0
vn -0 0 -1
vn -0 0 -1
vn -0 0 -1
vn -0 0 -1
vn 1 0 0
vn 1 0 0
vn 1 0 0
vn 1 0 0
vn -0 0 1
vn -0 0 1
vn -0 0 1
vn -0 0 1
vn -0 -1 0
vn -0 -1 0
vn -0 -1 0
vn -0 -1 0
vn -0 1 0
vn -0 1 0
vn -0 1 0
vn -0 1 0
g Cube.590_0
f 3/3/3 2/2/2 1/1/1
f 4/4/4 3/3/3 1/1/1
f 7/7/7 6/6/6 5/5/5
f 8/8/8 7/7/7 5/5/5
f 11/11/11 10/10/10 9/9/9
f 12/12/12 11/11/11 9/9/9
f 15/15/15 14/14/14 13/13/13
f 16/16/16 15/15/15 13/13/13
f 19/19/19 18/18/18 17/17/17
f 20/20/20 19/19/19 17/17/17
f 23/23/23 22/22/22 21/21/21
f 24/24/24 23/23/23 21/21/21
