g Cube.255
v -1 -1 1
v -1 -1 -1
v -1 1 -1
v -1 1 1
v -1 -1 -1
v 1 -1 -1
v 1 1 -1
v -1 1 -1
v 1 -1 -1
v 1 -1 1
v 1 1 1
v 1 1 -1
v 1 -1 1
v -1 -1 1
v -1 1 1
v 1 1 1
v -1 -1 -1
v -1 -1 1
v 1 -1 1
v 1 -1 -1
v 1 1 -1
v 1 1 1
v -1 1 1
v -1 1 -1
vt 0.8251531 0.91018784
vt 0.8251531 0.90437686
vt 0.81916887 0.90437686
vt 0.81916887 0.91018784
vt 0.31601998 0.89868003
vt 0.31601998 0.892869
vt 0.31003577 0.89286906
vt 0.31003577 0.89868003
vt 0.81916887 0.86951095
vt 0.81916887 0.8637
vt 0.8131847 0.8637
vt 0.8131847 0.86951095
vt 0.87901115 0.91018784
vt 0.8849954 0.91018784
vt 0.8849954 0.90437686
vt 0.87901115 0.90437686
vt 0.74137396 0.9392428
vt 0.74137396 0.9334318
vt 0.7353897 0.9334318
vt 0.7353897 0.9392428
vt 0.9605794 0.7326668
vt 0.95459515 0.7326668
vt 0.95459515 0.73847777
vt 0.9605794 0.73847777
vn -1 0 0
vn -1 0 0
vn -1 0 0
vn -1 0 0
vn -0 0 -1
vn -0 0 -1
vn -0 0 -1
vn -0 0 -1
vn 1 0 0
vn 1 0 0
vn 1 0 0
vn 1 0 0
vn -0 0 1
vn -0 0 1
vn -0 0 1
vn -0 0 1
vn -0 -1 0
vn -0 -1 0
vn -0 -1 0
vn -0 -1 0
vn -0 1 0
vn -0 1 0
vn -0 1 0
vn -0 1 0
g Cube.255_0
f 3/3/3 2/2/2 1/1/1
f 4/4/4 3/3/3 1/1/1
f 7/7/7 6/6/6 5/5/5
f 8/8/8 7/7/7 5/5/5
f 11/11/11 10/10/10 9/9/9
f 12/12/12 11/11/11 9/9/9
f 15/15/15 14/14/14 13/13/13
f 16/16/16 15/15/15 13/13/13
f 19/19/19 18/18/18 17/17/17
f 20/20/20 19/19/19 17/17/17
f 23/23/23 22/22/22 21/21/21
f 24/24/24 23/23/23 21/21/21
