g CustomCollisionTrapezoidOneSide
v 1.0155934 2.1261601 -0.25584352
v -1.0049629 -2.1261604 -0.25584352
v 1.0155934 -2.1261609 -0.25584352
v 1.0155934 -1.0000006 1
v -1.0049629 -0.99999964 1
v 1.0155934 0.99999946 1
v -1.0049629 2.126161 -0.25584352
v -1.0049629 1 1
vn 0.5483373 0.76361924 -0.34089872
vn -0.5483373 -0.76361924 -0.34089872
vn 0.5483373 -0.76361924 -0.34089872
vn 0.6258349 -0.3179532 0.7122054
vn -0.6258349 -0.3179532 0.7122054
vn 0.6258349 0.3179532 0.7122054
vn -0.5483373 0.76361924 -0.34089872
vn -0.6258349 0.3179532 0.7122054
g CustomCollisionTrapezoidOneSide_0
f 3/3/3 2/2/2 1/1/1
f 4/4/4 3/3/3 1/1/1
f 4/4/4 5/5/5 3/3/3
f 5/5/5 2/2/2 3/3/3
f 6/6/6 4/4/4 1/1/1
f 5/5/5 4/4/4 6/6/6
f 2/2/2 7/7/7 1/1/1
f 1/1/1 7/7/7 6/6/6
f 8/8/8 5/5/5 6/6/6
f 5/5/5 8/8/8 2/2/2
f 8/8/8 7/7/7 2/2/2
f 7/7/7 8/8/8 6/6/6
