g Cylinder.024
v -0 -1 -1
v 0.19509032 -1 -0.9807852
v 0.19509032 1 -0.9807852
v -0 1 -1
v 0.19509032 -1 -0.9807852
v 0.38268343 -1 -0.92387944
v 0.38268343 1 -0.92387944
v 0.19509032 1 -0.9807852
v 0.38268343 -1 -0.92387944
v 0.55557024 -1 -0.83146954
v 0.55557024 1 -0.83146954
v 0.38268343 1 -0.92387944
v 0.55557024 -1 -0.83146954
v 0.70710677 -1 -0.70710677
v 0.70710677 1 -0.70710677
v 0.55557024 1 -0.83146954
v 0.70710677 -1 -0.70710677
v 0.83146966 -1 -0.5555702
v 0.83146966 1 -0.5555702
v 0.70710677 1 -0.70710677
v 0.83146966 -1 -0.5555702
v 0.92387944 -1 -0.3826834
v 0.92387944 1 -0.3826834
v 0.83146966 1 -0.5555702
v 0.92387944 -1 -0.3826834
v 0.9807852 -1 -0.19509035
v 0.9807852 1 -0.19509035
v 0.92387944 1 -0.3826834
v 0.9807852 -1 -0.19509035
v 1 -1 -7.54979E-08
v 1 1 -7.54979E-08
v 0.9807852 1 -0.19509035
v 1 -1 -7.54979E-08
v 0.98078525 -1 0.19509019
v 0.98078525 1 0.19509019
v 1 1 -7.54979E-08
v 0.98078525 -1 0.19509019
v 0.9238795 -1 0.38268325
v 0.9238795 1 0.38268325
v 0.98078525 1 0.19509019
v 0.9238795 -1 0.38268325
v 0.83146966 -1 0.5555702
v 0.83146966 1 0.5555702
v 0.9238795 1 0.38268325
v 0.83146966 -1 0.5555702
v 0.70710677 -1 0.70710677
v 0.70710677 1 0.70710677
v 0.83146966 1 0.5555702
v 0.70710677 -1 0.70710677
v 0.5555702 -1 0.83146966
v 0.5555702 1 0.83146966
v 0.70710677 1 0.70710677
v 0.5555702 -1 0.83146966
v 0.38268325 -1 0.9238796
v 0.38268325 1 0.9238796
v 0.5555702 1 0.83146966
v 0.38268325 -1 0.9238796
v 0.19509009 -1 0.98078525
v 0.19509009 1 0.98078525
v 0.38268325 1 0.9238796
v 0.19509009 -1 0.98078525
v -3.2584134E-07 -1 1
v -3.2584134E-07 1 1
v 0.19509009 1 0.98078525
v -3.2584134E-07 -1 1
v -0.19509073 -1 0.9807852
v -0.19509073 1 0.9807852
v -3.2584134E-07 1 1
v -0.19509073 -1 0.9807852
v -0.38268387 -1 0.9238793
v -0.38268387 1 0.9238793
v -0.19509073 1 0.9807852
v -0.38268387 -1 0.9238793
v -0.5555707 -1 0.83146924
v -0.5555707 1 0.83146924
v -0.38268387 1 0.9238793
v -0.5555707 -1 0.83146924
v -0.70710725 -1 0.7071063
v -0.70710725 1 0.7071063
v -0.5555707 1 0.83146924
v -0.70710725 -1 0.7071063
v -0.83147 -1 0.55556965
v -0.83147 1 0.55556965
v -0.70710725 1 0.7071063
v -0.83147 -1 0.55556965
v -0.9238798 -1 0.38268268
v -0.9238798 1 0.38268268
v -0.83147 1 0.55556965
v -0.9238798 -1 0.38268268
v -0.9807854 -1 0.19508944
v -0.9807854 1 0.19508944
v -0.9238798 1 0.38268268
v -0.9807854 -1 0.19508944
v -1 -1 -9.655992E-07
v -1 1 -9.655992E-07
v -0.9807854 1 0.19508944
v -1 -1 -9.655992E-07
v -0.9807851 -1 -0.19509134
v -0.9807851 1 -0.19509134
v -1 1 -9.655992E-07
v -0.9807851 -1 -0.19509134
v -0.9238791 -1 -0.38268447
v -0.9238791 1 -0.38268447
v -0.9807851 1 -0.19509134
v -0.9238791 -1 -0.38268447
v -0.83146894 -1 -0.55557126
v -0.83146894 1 -0.55557126
v -0.9238791 1 -0.38268447
v -0.83146894 -1 -0.55557126
v -0.7071059 -1 -0.70710766
v -0.7071059 1 -0.70710766
v -0.83146894 1 -0.55557126
v -0.7071059 -1 -0.70710766
v -0.5555691 -1 -0.8314703
v -0.5555691 1 -0.8314703
v -0.7071059 1 -0.70710766
v -0.5555691 -1 -0.8314703
v -0.38268206 -1 -0.92388004
v -0.38268206 1 -0.92388004
v -0.5555691 1 -0.8314703
v -0.19508882 1 -0.9807855
v -0 1 -1
v 0.19509032 1 -0.9807852
v -0.38268206 1 -0.92388004
v 0.38268343 1 -0.92387944
v -0.5555691 1 -0.8314703
v 0.55557024 1 -0.83146954
v -0.7071059 1 -0.70710766
v 0.70710677 1 -0.70710677
v -0.83146894 1 -0.55557126
v 0.83146966 1 -0.5555702
v -0.9238791 1 -0.38268447
v 0.92387944 1 -0.3826834
v -0.9807851 1 -0.19509134
v 0.9807852 1 -0.19509035
v -1 1 -9.655992E-07
v 1 1 -7.54979E-08
v -0.9807854 1 0.19508944
v 0.98078525 1 0.19509019
v -0.9238798 1 0.38268268
v 0.9238795 1 0.38268325
v -0.83147 1 0.55556965
v 0.83146966 1 0.5555702
v -0.70710725 1 0.7071063
v 0.70710677 1 0.70710677
v -0.5555707 1 0.83146924
v 0.5555702 1 0.83146966
v -0.38268387 1 0.9238793
v 0.38268325 1 0.9238796
v -0.19509073 1 0.9807852
v 0.19509009 1 0.98078525
v -3.2584134E-07 1 1
v -0.38268206 -1 -0.92388004
v -0.19508882 -1 -0.9807855
v -0.19508882 1 -0.9807855
v -0.38268206 1 -0.92388004
v -0.19508882 -1 -0.9807855
v -0 -1 -1
v -0 1 -1
v -0.19508882 1 -0.9807855
v 0.19509032 -1 -0.9807852
v -0 -1 -1
v -0.19508882 -1 -0.9807855
v -0.38268206 -1 -0.92388004
v 0.38268343 -1 -0.92387944
v -0.5555691 -1 -0.8314703
v 0.55557024 -1 -0.83146954
v -0.7071059 -1 -0.70710766
v 0.70710677 -1 -0.70710677
v -0.83146894 -1 -0.55557126
v 0.83146966 -1 -0.5555702
v -0.9238791 -1 -0.38268447
v 0.92387944 -1 -0.3826834
v -0.9807851 -1 -0.19509134
v 0.9807852 -1 -0.19509035
v -1 -1 -9.655992E-07
v 1 -1 -7.54979E-08
v -0.9807854 -1 0.19508944
v 0.98078525 -1 0.19509019
v -0.9238798 -1 0.38268268
v 0.9238795 -1 0.38268325
v -0.83147 -1 0.55556965
v 0.83146966 -1 0.5555702
v -0.70710725 -1 0.7071063
v 0.70710677 -1 0.70710677
v -0.5555707 -1 0.83146924
v 0.5555702 -1 0.83146966
v -0.38268387 -1 0.9238793
v 0.38268325 -1 0.9238796
v -0.19509073 -1 0.9807852
v 0.19509009 -1 0.98078525
v -3.2584134E-07 -1 1
vt 0.29438093 0.7788336
vt 0.29379436 0.7788336
vt 0.29379436 0.7846446
vt 0.29438093 0.7846446
vt 0.29379436 0.7788336
vt 0.2932191 0.7788336
vt 0.2932191 0.7846446
vt 0.29379436 0.7846446
vt 0.2932191 0.7788336
vt 0.2926772 0.7788336
vt 0.2926772 0.7846446
vt 0.2932191 0.7846446
vt 0.2926772 0.7788336
vt 0.29218948 0.7788336
vt 0.29218948 0.7846446
vt 0.2926772 0.7846446
vt 0.29218948 0.7788336
vt 0.29177472 0.7788336
vt 0.29177472 0.7846446
vt 0.29218948 0.7846446
vt 0.9767532 0.8981142
vt 0.9762655 0.8981142
vt 0.9762655 0.9039252
vt 0.9767532 0.9039252
vt 0.9762655 0.8981142
vt 0.97572356 0.8981142
vt 0.97572356 0.9039252
vt 0.9762655 0.9039252
vt 0.97572356 0.8981142
vt 0.9751483 0.8981142
vt 0.9751483 0.9039252
vt 0.97572356 0.9039252
vt 0.9751483 0.8981142
vt 0.97456175 0.8981142
vt 0.97456175 0.9039252
vt 0.9751483 0.9039252
vt 0.97456175 0.8981142
vt 0.97398645 0.8981142
vt 0.97398645 0.9039252
vt 0.97456175 0.9039252
vt 0.97398645 0.8981142
vt 0.9734445 0.8981142
vt 0.9734445 0.9039252
vt 0.97398645 0.9039252
vt 0.9734445 0.8981142
vt 0.97295684 0.8981142
vt 0.97295684 0.9039252
vt 0.9734445 0.9039252
vt 0.97319406 0.040676888
vt 0.97368175 0.040676888
vt 0.97368175 0.034865905
vt 0.97319406 0.034865905
vt 0.97368175 0.040676888
vt 0.9742237 0.040676888
vt 0.9742237 0.034865905
vt 0.97368175 0.034865905
vt 0.9742237 0.040676888
vt 0.974799 0.040676888
vt 0.974799 0.034865905
vt 0.9742237 0.034865905
vt 0.974799 0.040676888
vt 0.97538555 0.040676888
vt 0.97538555 0.034865905
vt 0.974799 0.034865905
vt 0.97538555 0.040676888
vt 0.9759608 0.040676888
vt 0.9759608 0.034865905
vt 0.97538555 0.034865905
vt 0.9759608 0.040676888
vt 0.9765027 0.040676888
vt 0.9765027 0.034865905
vt 0.9759608 0.034865905
vt 0.9765027 0.040676888
vt 0.9769904 0.040676888
vt 0.9769904 0.034865905
vt 0.9765027 0.034865905
vt 0.9769904 0.040676888
vt 0.9774052 0.040676888
vt 0.9774052 0.034865905
vt 0.9769904 0.034865905
vt 0.97319406 0.034865905
vt 0.97368175 0.034865905
vt 0.97368175 0.029054921
vt 0.97319406 0.029054921
vt 0.97368175 0.034865905
vt 0.9742237 0.034865905
vt 0.9742237 0.029054921
vt 0.97368175 0.029054921
vt 0.9742237 0.034865905
vt 0.974799 0.034865905
vt 0.974799 0.029054921
vt 0.9742237 0.029054921
vt 0.974799 0.034865905
vt 0.97538555 0.034865905
vt 0.97538555 0.029054921
vt 0.974799 0.029054921
vt 0.97538555 0.034865905
vt 0.9759608 0.034865905
vt 0.9759608 0.029054921
vt 0.97538555 0.029054921
vt 0.9759608 0.034865905
vt 0.9765027 0.034865905
vt 0.9765027 0.029054921
vt 0.9759608 0.029054921
vt 0.9765027 0.034865905
vt 0.9769904 0.034865905
vt 0.9769904 0.029054921
vt 0.9765027 0.029054921
vt 0.9769904 0.034865905
vt 0.9774052 0.034865905
vt 0.9774052 0.029054921
vt 0.9769904 0.029054921
vt 0.29640058 0.7788336
vt 0.29598582 0.7788336
vt 0.29598582 0.7846446
vt 0.29640058 0.7846446
vt 0.29598582 0.7788336
vt 0.29549813 0.7788336
vt 0.29549813 0.7846446
vt 0.29598582 0.7846446
vt 0.9681309 0.83690745
vt 0.96867275 0.8371254
vt 0.96924806 0.8372365
vt 0.96764314 0.836591
vt 0.9698346 0.8372365
vt 0.9672284 0.83618826
vt 0.97040987 0.8371254
vt 0.9669025 0.8357147
vt 0.9709518 0.83690745
vt 0.9666781 0.83518845
vt 0.9714395 0.836591
vt 0.96656364 0.83462983
vt 0.97185427 0.83618826
vt 0.96656364 0.83406025
vt 0.9721801 0.8357147
vt 0.9666781 0.83350164
vt 0.9724046 0.83518845
vt 0.9669025 0.8329754
vt 0.97251904 0.83462983
vt 0.9672284 0.8325018
vt 0.97251904 0.83406025
vt 0.96764314 0.8320991
vt 0.9724046 0.83350164
vt 0.9681308 0.83178264
vt 0.9721801 0.8329754
vt 0.96867275 0.83156466
vt 0.97185427 0.8325018
vt 0.96924806 0.8314535
vt 0.9714395 0.8320991
vt 0.9698346 0.8314535
vt 0.9709518 0.83178264
vt 0.97040987 0.83156466
vt 0.29549813 0.7788336
vt 0.2949562 0.7788336
vt 0.2949562 0.7846446
vt 0.29549813 0.7846446
vt 0.2949562 0.7788336
vt 0.29438093 0.7788336
vt 0.29438093 0.7846446
vt 0.2949562 0.7846446
vt 0.96656364 0.8282493
vt 0.96656364 0.82881886
vt 0.9666781 0.8293775
vt 0.9669025 0.82990366
vt 0.9666781 0.8276906
vt 0.9672284 0.8303773
vt 0.9669025 0.8271644
vt 0.96764314 0.83078
vt 0.9672284 0.82669085
vt 0.9681308 0.8310965
vt 0.96764314 0.82628804
vt 0.96867275 0.83131444
vt 0.9681308 0.8259716
vt 0.96924806 0.83142555
vt 0.96867275 0.8257537
vt 0.9698346 0.83142555
vt 0.96924806 0.8256425
vt 0.97040987 0.83131444
vt 0.9698346 0.8256425
vt 0.9709518 0.8310965
vt 0.97040987 0.8257537
vt 0.9714395 0.83078
vt 0.9709518 0.8259716
vt 0.97185427 0.8303773
vt 0.9714395 0.82628804
vt 0.9721801 0.82990366
vt 0.97185427 0.8266908
vt 0.9724046 0.8293775
vt 0.9721801 0.8271644
vt 0.97251904 0.82881886
vt 0.9724046 0.8276906
vt 0.97251904 0.8282493
vn 0.09801729 0 -0.9951847
vn 0.09801729 0 -0.9951847
vn 0.09801729 0 -0.9951847
vn 0.09801729 0 -0.9951847
vn 0.29028463 0 -0.95694035
vn 0.29028463 0 -0.95694035
vn 0.29028463 0 -0.95694035
vn 0.29028463 0 -0.95694035
vn 0.4713967 0 -0.8819213
vn 0.4713967 0 -0.8819213
vn 0.4713967 0 -0.8819213
vn 0.4713967 0 -0.8819213
vn 0.6343934 0 -0.77301043
vn 0.6343934 0 -0.77301043
vn 0.6343934 0 -0.77301043
vn 0.6343934 0 -0.77301043
vn 0.77301043 0 -0.6343934
vn 0.77301043 0 -0.6343934
vn 0.77301043 0 -0.6343934
vn 0.77301043 0 -0.6343934
vn 0.8819214 0 -0.4713965
vn 0.8819214 0 -0.4713965
vn 0.8819214 0 -0.4713965
vn 0.8819214 0 -0.4713965
vn 0.95694035 0 -0.29028475
vn 0.95694035 0 -0.29028475
vn 0.95694035 0 -0.29028475
vn 0.95694035 0 -0.29028475
vn 0.9951847 0 -0.09801731
vn 0.9951847 0 -0.09801731
vn 0.9951847 0 -0.09801731
vn 0.9951847 0 -0.09801731
vn 0.9951847 0 0.09801701
vn 0.9951847 0 0.09801701
vn 0.9951847 0 0.09801701
vn 0.9951847 0 0.09801701
vn 0.95694035 0 0.29028475
vn 0.95694035 0 0.29028475
vn 0.95694035 0 0.29028475
vn 0.95694035 0 0.29028475
vn 0.8819214 0 0.47139645
vn 0.8819214 0 0.47139645
vn 0.8819214 0 0.47139645
vn 0.8819214 0 0.47139645
vn 0.77301043 0 0.6343934
vn 0.77301043 0 0.6343934
vn 0.77301043 0 0.6343934
vn 0.77301043 0 0.6343934
vn 0.6343934 0 0.77301043
vn 0.6343934 0 0.77301043
vn 0.6343934 0 0.77301043
vn 0.6343934 0 0.77301043
vn 0.4713967 0 0.8819213
vn 0.4713967 0 0.8819213
vn 0.4713967 0 0.8819213
vn 0.4713967 0 0.8819213
vn 0.29028428 0 0.9569405
vn 0.29028428 0 0.9569405
vn 0.29028428 0 0.9569405
vn 0.29028428 0 0.9569405
vn 0.09801695 0 0.9951847
vn 0.09801695 0 0.9951847
vn 0.09801695 0 0.9951847
vn 0.09801695 0 0.9951847
vn -0.09801756 0 0.9951847
vn -0.09801756 0 0.9951847
vn -0.09801756 0 0.9951847
vn -0.09801756 0 0.9951847
vn -0.29028517 0 0.9569401
vn -0.29028517 0 0.9569401
vn -0.29028517 0 0.9569401
vn -0.29028517 0 0.9569401
vn -0.47139704 0 0.88192105
vn -0.47139704 0 0.88192105
vn -0.47139704 0 0.88192105
vn -0.47139704 0 0.88192105
vn -0.6343937 0 0.77301013
vn -0.6343937 0 0.77301013
vn -0.6343937 0 0.77301013
vn -0.6343937 0 0.77301013
vn -0.77301085 0 0.6343927
vn -0.77301085 0 0.6343927
vn -0.77301085 0 0.6343927
vn -0.77301085 0 0.6343927
vn -0.8819216 0 0.4713961
vn -0.8819216 0 0.4713961
vn -0.8819216 0 0.4713961
vn -0.8819216 0 0.4713961
vn -0.95694065 0 0.2902837
vn -0.95694065 0 0.2902837
vn -0.95694065 0 0.2902837
vn -0.95694065 0 0.2902837
vn -0.99518484 0 0.098016344
vn -0.99518484 0 0.098016344
vn -0.99518484 0 0.098016344
vn -0.99518484 0 0.098016344
vn -0.9951846 0 -0.09801815
vn -0.9951846 0 -0.09801815
vn -0.9951846 0 -0.09801815
vn -0.9951846 0 -0.09801815
vn -0.95694 0 -0.29028577
vn -0.95694 0 -0.29028577
vn -0.95694 0 -0.29028577
vn -0.95694 0 -0.29028577
vn -0.88192075 0 -0.47139764
vn -0.88192075 0 -0.47139764
vn -0.88192075 0 -0.47139764
vn -0.88192075 0 -0.47139764
vn -0.7730096 0 -0.63439435
vn -0.7730096 0 -0.63439435
vn -0.7730096 0 -0.63439435
vn -0.7730096 0 -0.63439435
vn -0.6343924 0 -0.77301115
vn -0.6343924 0 -0.77301115
vn -0.6343924 0 -0.77301115
vn -0.6343924 0 -0.77301115
vn -0.4713955 0 -0.88192195
vn -0.4713955 0 -0.88192195
vn -0.4713955 0 -0.88192195
vn -0.4713955 0 -0.88192195
vn -0 1 0
vn -0 1 0
vn -0 1 0
vn -0 1 0
vn -0 1 0
vn -0 1 0
vn -0 1 0
vn -0 1 0
vn -0 1 0
vn -0 1 0
vn -0 1 0
vn -0 1 0
vn -0 1 0
vn -0 1 0
vn -0 1 0
vn -0 1 0
vn -0 1 0
vn -0 1 0
vn -0 1 0
vn -0 1 0
vn -0 1 0
vn -0 1 0
vn -0 1 0
vn -0 1 0
vn -0 1 0
vn -0 1 0
vn -0 1 0
vn -0 1 0
vn -0 1 0
vn -0 1 0
vn -0 1 0
vn -0 1 0
vn -0.29028302 0 -0.9569409
vn -0.29028302 0 -0.9569409
vn -0.29028302 0 -0.9569409
vn -0.29028302 0 -0.9569409
vn -0.09801653 0 -0.99518484
vn -0.09801653 0 -0.99518484
vn -0.09801653 0 -0.99518484
vn -0.09801653 0 -0.99518484
vn -0 -1 0
vn -0 -1 0
vn -0 -1 0
vn -0 -1 0
vn -0 -1 0
vn -0 -1 0
vn -0 -1 0
vn -0 -1 0
vn -0 -1 0
vn -0 -1 0
vn -0 -1 0
vn -0 -1 0
vn -0 -1 0
vn -0 -1 0
vn -0 -1 0
vn -0 -1 0
vn -0 -1 0
vn -0 -1 0
vn -0 -1 0
vn -0 -1 0
vn -0 -1 0
vn -0 -1 0
vn -0 -1 0
vn -0 -1 0
vn -0 -1 0
vn -0 -1 0
vn -0 -1 0
vn -0 -1 0
vn -0 -1 0
vn -0 -1 0
vn -0 -1 0
vn -0 -1 0
g Cylinder.024_0
f 3/3/3 2/2/2 1/1/1
f 4/4/4 3/3/3 1/1/1
f 7/7/7 6/6/6 5/5/5
f 8/8/8 7/7/7 5/5/5
f 11/11/11 10/10/10 9/9/9
f 12/12/12 11/11/11 9/9/9
f 15/15/15 14/14/14 13/13/13
f 16/16/16 15/15/15 13/13/13
f 19/19/19 18/18/18 17/17/17
f 20/20/20 19/19/19 17/17/17
f 23/23/23 22/22/22 21/21/21
f 24/24/24 23/23/23 21/21/21
f 27/27/27 26/26/26 25/25/25
f 28/28/28 27/27/27 25/25/25
f 31/31/31 30/30/30 29/29/29
f 32/32/32 31/31/31 29/29/29
f 35/35/35 34/34/34 33/33/33
f 36/36/36 35/35/35 33/33/33
f 39/39/39 38/38/38 37/37/37
f 40/40/40 39/39/39 37/37/37
f 43/43/43 42/42/42 41/41/41
f 44/44/44 43/43/43 41/41/41
f 47/47/47 46/46/46 45/45/45
f 48/48/48 47/47/47 45/45/45
f 51/51/51 50/50/50 49/49/49
f 52/52/52 51/51/51 49/49/49
f 55/55/55 54/54/54 53/53/53
f 56/56/56 55/55/55 53/53/53
f 59/59/59 58/58/58 57/57/57
f 60/60/60 59/59/59 57/57/57
f 63/63/63 62/62/62 61/61/61
f 64/64/64 63/63/63 61/61/61
f 67/67/67 66/66/66 65/65/65
f 68/68/68 67/67/67 65/65/65
f 71/71/71 70/70/70 69/69/69
f 72/72/72 71/71/71 69/69/69
f 75/75/75 74/74/74 73/73/73
f 76/76/76 75/75/75 73/73/73
f 79/79/79 78/78/78 77/77/77
f 80/80/80 79/79/79 77/77/77
f 83/83/83 82/82/82 81/81/81
f 84/84/84 83/83/83 81/81/81
f 87/87/87 86/86/86 85/85/85
f 88/88/88 87/87/87 85/85/85
f 91/91/91 90/90/90 89/89/89
f 92/92/92 91/91/91 89/89/89
f 95/95/95 94/94/94 93/93/93
f 96/96/96 95/95/95 93/93/93
f 99/99/99 98/98/98 97/97/97
f 100/100/100 99/99/99 97/97/97
f 103/103/103 102/102/102 101/101/101
f 104/104/104 103/103/103 101/101/101
f 107/107/107 106/106/106 105/105/105
f 108/108/108 107/107/107 105/105/105
f 111/111/111 110/110/110 109/109/109
f 112/112/112 111/111/111 109/109/109
f 115/115/115 114/114/114 113/113/113
f 116/116/116 115/115/115 113/113/113
f 119/119/119 118/118/118 117/117/117
f 120/120/120 119/119/119 117/117/117
f 123/123/123 122/122/122 121/121/121
f 121/121/121 124/124/124 123/123/123
f 124/124/124 125/125/125 123/123/123
f 124/124/124 126/126/126 125/125/125
f 126/126/126 127/127/127 125/125/125
f 126/126/126 128/128/128 127/127/127
f 128/128/128 129/129/129 127/127/127
f 128/128/128 130/130/130 129/129/129
f 130/130/130 131/131/131 129/129/129
f 130/130/130 132/132/132 131/131/131
f 132/132/132 133/133/133 131/131/131
f 132/132/132 134/134/134 133/133/133
f 134/134/134 135/135/135 133/133/133
f 134/134/134 136/136/136 135/135/135
f 136/136/136 137/137/137 135/135/135
f 136/136/136 138/138/138 137/137/137
f 138/138/138 139/139/139 137/137/137
f 138/138/138 140/140/140 139/139/139
f 140/140/140 141/141/141 139/139/139
f 140/140/140 142/142/142 141/141/141
f 142/142/142 143/143/143 141/141/141
f 142/142/142 144/144/144 143/143/143
f 144/144/144 145/145/145 143/143/143
f 144/144/144 146/146/146 145/145/145
f 146/146/146 147/147/147 145/145/145
f 146/146/146 148/148/148 147/147/147
f 148/148/148 149/149/149 147/147/147
f 148/148/148 150/150/150 149/149/149
f 150/150/150 151/151/151 149/149/149
f 150/150/150 152/152/152 151/151/151
f 155/155/155 154/154/154 153/153/153
f 156/156/156 155/155/155 153/153/153
f 159/159/159 158/158/158 157/157/157
f 160/160/160 159/159/159 157/157/157
f 163/163/163 162/162/162 161/161/161
f 161/161/161 164/164/164 163/163/163
f 161/161/161 165/165/165 164/164/164
f 165/165/165 166/166/166 164/164/164
f 165/165/165 167/167/167 166/166/166
f 167/167/167 168/168/168 166/166/166
f 167/167/167 169/169/169 168/168/168
f 169/169/169 170/170/170 168/168/168
f 169/169/169 171/171/171 170/170/170
f 171/171/171 172/172/172 170/170/170
f 171/171/171 173/173/173 172/172/172
f 173/173/173 174/174/174 172/172/172
f 173/173/173 175/175/175 174/174/174
f 175/175/175 176/176/176 174/174/174
f 175/175/175 177/177/177 176/176/176
f 177/177/177 178/178/178 176/176/176
f 177/177/177 179/179/179 178/178/178
f 179/179/179 180/180/180 178/178/178
f 179/179/179 181/181/181 180/180/180
f 181/181/181 182/182/182 180/180/180
f 181/181/181 183/183/183 182/182/182
f 183/183/183 184/184/184 182/182/182
f 183/183/183 185/185/185 184/184/184
f 185/185/185 186/186/186 184/184/184
f 185/185/185 187/187/187 186/186/186
f 187/187/187 188/188/188 186/186/186
f 187/187/187 189/189/189 188/188/188
f 189/189/189 190/190/190 188/188/188
f 189/189/189 191/191/191 190/190/190
f 191/191/191 192/192/192 190/190/190
