g Cylinder
v -0 0.9999999 -0.004956543
v 0.75073326 1.8124303 1.9950435
v -3.5828375E-08 1.9617605 1.9950435
v 0.3826834 0.9238794 -0.004956543
v 1.3871741 1.3871742 1.9950435
v 0.7071067 0.7071067 -0.004956543
v 1.8124301 0.7507332 1.9950435
v 0.9238794 0.38268337 -0.004956543
v 1.9617604 -9.649979E-08 1.9950435
v 0.9999999 -4.3711385E-08 -0.004956543
v 1.8124301 -0.7507334 1.9950435
v 0.9238794 -0.38268346 -0.004956543
v 1.3871741 -1.3871742 1.9950435
v 0.7071067 -0.7071067 -0.004956543
v 0.7507333 -1.8124303 1.9950435
v 0.38268343 -0.9238794 -0.004956543
v 2.603892E-07 -1.9617605 1.9950435
v 1.5099579E-07 -0.9999999 -0.004956543
v -0.7507328 -1.8124305 1.9950435
v -0.38268316 -0.9238795 -0.004956543
v -1.387174 -1.3871746 1.9950435
v -0.70710653 -0.70710695 -0.004956543
v -1.8124304 -0.7507335 1.9950435
v -0.9238794 -0.38268352 -0.004956543
v -1.9617605 1.2645247E-08 1.9950435
v -0.9999999 1.1924879E-08 -0.004956543
v -1.8124303 0.75073355 1.9950435
v -0.9238793 0.38268355 -0.004956543
v -1.3871739 1.3871746 1.9950435
v -0.7071065 0.70710695 -0.004956543
v -0.7507323 1.8124307 1.9950435
v -0.38268292 0.9238796 -0.004956543
v -3.5828375E-08 1.9617605 1.9950435
v -0 0.9999999 -0.004956543
vt 0.9767647 0.02367875
vt 0.9171691 0.9772084
vt 0.9767647 0.9772084
vt 0.9171691 0.02367875
vt 0.8575735 0.9772084
vt 0.8575735 0.02367875
vt 0.7979779 0.9772084
vt 0.7979779 0.02367875
vt 0.73838234 0.9772084
vt 0.73838234 0.02367881
vt 0.67878675 0.9772084
vt 0.67878675 0.02367881
vt 0.61919117 0.9772085
vt 0.61919117 0.023678869
vt 0.5595956 0.9772086
vt 0.5595956 0.023678869
vt 0.50000006 0.9772086
vt 0.5 0.023678869
vt 0.44040447 0.9772086
vt 0.44040447 0.023678869
vt 0.38080886 0.9772086
vt 0.3808089 0.023678869
vt 0.32121325 0.9772086
vt 0.3212133 0.023678869
vt 0.26161766 0.9772086
vt 0.26161766 0.023678869
vt 0.20202202 0.9772086
vt 0.20202202 0.023678869
vt 0.1424264 0.9772085
vt 0.1424264 0.023678869
vt 0.08283079 0.9772084
vt 0.08283079 0.02367881
vt 0.023235291 0.9772084
vt 0.023235291 0.02367875
vn -0 0.90121806 -0.43336597
vn 0.34486535 0.832621 -0.43337065
vn -0 0.90121806 -0.43336597
vn 0.34486535 0.832621 -0.43337065
vn 0.63725245 0.63725245 -0.4333805
vn 0.63725245 0.63725245 -0.4333805
vn 0.832621 0.34486535 -0.43337065
vn 0.832621 0.34486535 -0.43337065
vn 0.90121806 0 -0.43336597
vn 0.90121806 0 -0.43336597
vn 0.832621 -0.34486535 -0.43337065
vn 0.832621 -0.34486535 -0.43337065
vn 0.63725245 -0.63725245 -0.4333805
vn 0.63725245 -0.63725245 -0.4333805
vn 0.34486535 -0.832621 -0.43337065
vn 0.34486535 -0.832621 -0.43337065
vn -0 -0.90121806 -0.43336597
vn -0 -0.90121806 -0.43336597
vn -0.34486535 -0.832621 -0.43337065
vn -0.34486535 -0.832621 -0.43337065
vn -0.63725245 -0.63725245 -0.4333805
vn -0.63725245 -0.63725245 -0.4333805
vn -0.832621 -0.34486535 -0.43337065
vn -0.832621 -0.34486535 -0.43337065
vn -0.90121806 0 -0.43336597
vn -0.90121806 0 -0.43336597
vn -0.832621 0.34486535 -0.43337065
vn -0.832621 0.34486535 -0.43337065
vn -0.63725245 0.63725245 -0.4333805
vn -0.63725245 0.63725245 -0.4333805
vn -0.34486535 0.832621 -0.43337065
vn -0.34486535 0.832621 -0.43337065
vn -0 0.90121806 -0.43336597
vn -0 0.90121806 -0.43336597
g Cylinder_0
f 3/3/3 2/2/2 1/1/1
f 2/2/2 4/4/4 1/1/1
f 2/2/2 5/5/5 4/4/4
f 5/5/5 6/6/6 4/4/4
f 5/5/5 7/7/7 6/6/6
f 7/7/7 8/8/8 6/6/6
f 7/7/7 9/9/9 8/8/8
f 9/9/9 10/10/10 8/8/8
f 9/9/9 11/11/11 10/10/10
f 11/11/11 12/12/12 10/10/10
f 11/11/11 13/13/13 12/12/12
f 13/13/13 14/14/14 12/12/12
f 13/13/13 15/15/15 14/14/14
f 15/15/15 16/16/16 14/14/14
f 15/15/15 17/17/17 16/16/16
f 17/17/17 18/18/18 16/16/16
f 17/17/17 19/19/19 18/18/18
f 19/19/19 20/20/20 18/18/18
f 19/19/19 21/21/21 20/20/20
f 21/21/21 22/22/22 20/20/20
f 21/21/21 23/23/23 22/22/22
f 23/23/23 24/24/24 22/22/22
f 23/23/23 25/25/25 24/24/24
f 25/25/25 26/26/26 24/24/24
f 25/25/25 27/27/27 26/26/26
f 27/27/27 28/28/28 26/26/26
f 27/27/27 29/29/29 28/28/28
f 29/29/29 30/30/30 28/28/28
f 29/29/29 31/31/31 30/30/30
f 31/31/31 32/32/32 30/30/30
f 31/31/31 33/33/33 32/32/32
f 33/33/33 34/34/34 32/32/32
