g DCStalagmiteSingle
v -0.41896725 0.13613057 -3.1267507
v -0.2589357 -0.35639492 -3.1267507
v 2.3841858E-07 4.4786282E-07 -7.47416
v -0.40965986 -0.56384885 0.06572604
v -0.6628437 0.2153709 0.06572604
v -0 -8.791685E-08 3.4459953
v -0 0.44052812 -3.1267507
v -0 0.69695526 0.06572604
v 0.4189675 0.13613066 -3.1267507
v 0.6628442 0.215371 0.06572604
v 0.25893617 -0.3563949 -3.1267507
v -0.2589357 -0.35639492 -3.1267507
v 0.40966034 -0.5638488 0.06572604
v -0.40965986 -0.56384885 0.06572604
vt 0.27315018 0.43142092
vt 0.31309414 0.4254296
vt 0.2237356 0.0990856
vt 0.34612584 0.6720651
vt 0.28624907 0.66008306
vt 0.19697885 0.8916428
vt 0.23375009 0.43374884
vt 0.23285323 0.653583
vt 0.19459437 0.4326898
vt 0.18116549 0.6513206
vt 0.15534428 0.42811188
vt 0.11667448 0.41972888
vt 0.12703139 0.6531291
vt 0.06519064 0.6599991
vn -0.9471908 0.3077546 -0.09009238
vn -0.58538604 -0.8057336 -0.09009225
vn -0 0 -1
vn -0.58676744 -0.8076369 0.058536362
vn -0.94942504 0.30848914 0.05853603
vn -0 0 1
vn -0 0.99593335 -0.0900927
vn -0 0.99828523 0.058535956
vn 0.9471908 0.3077546 -0.09009238
vn 0.94942504 0.30848914 0.05853603
vn 0.58538604 -0.8057336 -0.09009225
vn -0.58538604 -0.8057336 -0.09009225
vn 0.58676744 -0.8076369 0.058536362
vn -0.58676744 -0.8076369 0.058536362
g DCStalagmiteSingle_0
f 3/3/3 2/2/2 1/1/1
f 2/2/2 4/4/4 1/1/1
f 4/4/4 5/5/5 1/1/1
f 4/4/4 6/6/6 5/5/5
f 1/1/1 5/5/5 7/7/7
f 3/3/3 1/1/1 7/7/7
f 5/5/5 8/8/8 7/7/7
f 5/5/5 6/6/6 8/8/8
f 3/3/3 7/7/7 9/9/9
f 7/7/7 8/8/8 9/9/9
f 8/8/8 6/6/6 10/10/10
f 8/8/8 10/10/10 9/9/9
f 3/3/3 9/9/9 11/11/11
f 9/9/9 10/10/10 11/11/11
f 3/3/3 11/11/11 12/12/12
f 10/10/10 6/6/6 13/13/13
f 10/10/10 13/13/13 11/11/11
f 11/11/11 13/13/13 12/12/12
f 13/13/13 6/6/6 14/14/14
f 13/13/13 14/14/14 12/12/12
