g Debris.009
v -0.01 -0.13135739 -0.024948593
v -0.009999974 0.010000009 -0.027393173
v -0.01 0.01 0.11756795
v -0.01 -0.13135739 0.11756795
v -0.009999974 0.010000009 -0.027393173
v -0.049635503 0.09625534 -0.16545452
v -0.04963582 0.09625524 0.06834134
v -0.01 0.01 0.11756795
v 0.010000026 0.010000009 -0.027393173
v 0.01 -0.13135739 -0.024948593
v 0.01 -0.13135739 0.11756795
v 0.01 0.01 0.11756795
v 0.01 -0.13135739 -0.024948593
v -0.01 -0.13135739 -0.024948593
v -0.01 -0.13135739 0.11756795
v 0.01 -0.13135739 0.11756795
v -0.009999974 0.010000009 -0.027393173
v -0.01 -0.13135739 -0.024948593
v 0.01 -0.13135739 -0.024948593
v 0.010000026 0.010000009 -0.027393173
v 0.01 0.01 0.11756795
v 0.01 -0.13135739 0.11756795
v -0.01 -0.13135739 0.11756795
v -0.01 0.01 0.11756795
v -0.049635503 0.09625534 -0.16545452
v -0.03138568 0.104437254 -0.16545452
v -0.031385988 0.10443716 0.06834134
v -0.04963582 0.09625524 0.06834134
v 0.01 0.01 0.11756795
v -0.031385988 0.10443716 0.06834134
v -0.03138568 0.104437254 -0.16545452
v 0.010000026 0.010000009 -0.027393173
v 0.010000026 0.010000009 -0.027393173
v -0.03138568 0.104437254 -0.16545452
v -0.049635503 0.09625534 -0.16545452
v -0.009999974 0.010000009 -0.027393173
v -0.01 0.01 0.11756795
v -0.04963582 0.09625524 0.06834134
v -0.031385988 0.10443716 0.06834134
v 0.01 0.01 0.11756795
vn -1 0 0
vn -1 0 0
vn -1 0 0
vn -1 0 0
vn -0.908657 -0.4175433 -9.317798E-07
vn -0.908657 -0.4175433 -9.317798E-07
vn -0.908657 -0.4175433 -9.317798E-07
vn -0.908657 -0.4175433 -9.317798E-07
vn 1 0 0
vn 1 0 0
vn 1 0 0
vn 1 0 0
vn -0 -1 0
vn -0 -1 0
vn -0 -1 0
vn -0 -1 0
vn -0 -0.017291026 -0.9998505
vn -0 -0.017291026 -0.9998505
vn -0 -0.017291026 -0.9998505
vn -0 -0.017291026 -0.9998505
vn -0 0 1
vn -0 0 1
vn -0 0 1
vn -0 0 1
vn -0.4090958 0.91249144 -1.9214407E-07
vn -0.4090958 0.91249144 -1.9214407E-07
vn -0.4090958 0.91249144 -1.9214407E-07
vn -0.4090958 0.91249144 -1.9214407E-07
vn 0.9159091 0.40138587 9.349066E-07
vn 0.9159091 0.40138587 9.349066E-07
vn 0.9159091 0.40138587 9.349066E-07
vn 0.9159091 0.40138587 9.349066E-07
vn 0.17125884 -0.8006223 -0.5741728
vn 0.17125884 -0.8006223 -0.5741728
vn 0.17125884 -0.8006223 -0.5741728
vn 0.17125884 -0.8006223 -0.5741728
vn -0.0948008 0.4431868 0.89140236
vn -0.0948008 0.4431868 0.89140236
vn -0.0948008 0.4431868 0.89140236
vn -0.0948008 0.4431868 0.89140236
g Debris.009_0
f 3/3/3 2/2/2 1/1/1
f 4/4/4 3/3/3 1/1/1
f 7/7/7 6/6/6 5/5/5
f 8/8/8 7/7/7 5/5/5
f 11/11/11 10/10/10 9/9/9
f 12/12/12 11/11/11 9/9/9
f 15/15/15 14/14/14 13/13/13
f 16/16/16 15/15/15 13/13/13
f 19/19/19 18/18/18 17/17/17
f 20/20/20 19/19/19 17/17/17
f 23/23/23 22/22/22 21/21/21
f 24/24/24 23/23/23 21/21/21
f 27/27/27 26/26/26 25/25/25
f 28/28/28 27/27/27 25/25/25
f 31/31/31 30/30/30 29/29/29
f 32/32/32 31/31/31 29/29/29
f 35/35/35 34/34/34 33/33/33
f 36/36/36 35/35/35 33/33/33
f 39/39/39 38/38/38 37/37/37
f 40/40/40 39/39/39 37/37/37
