g dioramawater
v -0.73471034 -0.73471034 -3.1624992E-08
v -0 0 0
v -0 -1 0
v -1 0 0
v 0.73471034 -0.73471034 -3.1624992E-08
v -0.73471034 0.73471034 -3.1624992E-08
v 1 0 0
v -0 1 0
v 0.73471034 0.73471034 -3.1624992E-08
v 1.3801298 2.2169976 -0.5119852
v 2.7491646 3.586032 -0.5119851
v 2.7491646 1.7226657 -0.5119851
v 0.885798 3.586032 -0.5119851
v 4.1181993 2.2169976 -0.5119852
v 1.3801298 4.9550667 -0.5119852
v 4.61253 3.586032 -0.5119851
v 2.7491646 5.4493985 -0.5119851
v 4.1181993 4.9550667 -0.5119852
v 1.7329273 2.8321671 2.5404446
v 2.3267212 3.4259613 2.5404446
v 2.3267212 2.6177597 2.5404446
v 1.5185199 3.4259613 2.5404446
v 2.9205148 2.8321671 2.5404446
v 1.7329273 4.019755 2.5404446
v 3.1349225 3.4259613 2.5404446
v 2.3267212 4.234163 2.5404446
v 2.9205148 4.019755 2.5404446
vt 0.7346633 9.998002E-05
vt 0.5 0.5
vt 0.9999 0.31949577
vt 0.3194957 0.0001000117
vt 0.9999 0.73466337
vt 9.998002E-05 0.26533666
vt 0.68050426 0.9999
vt 0.0001000117 0.68050426
vt 0.26533666 0.99990004
vt 0.7346633 9.998002E-05
vt 0.5 0.5
vt 0.9999 0.31949577
vt 0.3194957 0.0001000117
vt 0.9999 0.73466337
vt 9.998002E-05 0.26533666
vt 0.68050426 0.9999
vt 0.0001000117 0.68050426
vt 0.26533666 0.99990004
vt 0.7346633 9.998002E-05
vt 0.5 0.5
vt 0.9999 0.31949577
vt 0.3194957 0.0001000117
vt 0.9999 0.73466337
vt 9.998002E-05 0.26533666
vt 0.68050426 0.9999
vt 0.0001000117 0.68050426
vt 0.26533666 0.99990004
vn -0 0 1
vn -0 0 1
vn -0 0 1
vn -0 0 1
vn -0 0 1
vn -0 0 1
vn -0 0 1
vn -0 0 1
vn -0 0 1
vn -0 0 1
vn -0 0 1
vn -0 0 1
vn -0 0 1
vn -0 0 1
vn -0 0 1
vn -0 0 1
vn -0 0 1
vn -0 0 1
vn -0 0 1
vn -0 0 1
vn -0 0 1
vn -0 0 1
vn -0 0 1
vn -0 0 1
vn -0 0 1
vn -0 0 1
vn -0 0 1
g dioramawater_0
f 3/3/3 2/2/2 1/1/1
f 1/1/1 2/2/2 4/4/4
f 5/5/5 2/2/2 3/3/3
f 2/2/2 6/6/6 4/4/4
f 7/7/7 2/2/2 5/5/5
f 8/8/8 6/6/6 2/2/2
f 7/7/7 9/9/9 2/2/2
f 2/2/2 9/9/9 8/8/8
f 12/12/12 11/11/11 10/10/10
f 10/10/10 11/11/11 13/13/13
f 14/14/14 11/11/11 12/12/12
f 11/11/11 15/15/15 13/13/13
f 16/16/16 11/11/11 14/14/14
f 17/17/17 15/15/15 11/11/11
f 16/16/16 18/18/18 11/11/11
f 11/11/11 18/18/18 17/17/17
f 21/21/21 20/20/20 19/19/19
f 19/19/19 20/20/20 22/22/22
f 23/23/23 20/20/20 21/21/21
f 20/20/20 24/24/24 22/22/22
f 25/25/25 20/20/20 23/23/23
f 26/26/26 24/24/24 20/20/20
f 25/25/25 27/27/27 20/20/20
f 20/20/20 27/27/27 26/26/26
