g donut3Mesh
v -0.37909266 1.905842 -0.33593068
v -8.5572005E-08 1.9440731 0.36561736
v -1.3035918E-07 1.943179 -0.33593068
v -0.37926704 1.9067191 0.36561736
v -0.74362016 1.7952644 -0.33593068
v -0.7439623 1.7960905 0.36561736
v -1.0795707 1.6156958 -0.33593068
v -1.0800674 1.6164391 0.36561736
v -1.3740338 1.3740368 -0.33593068
v -1.3746659 1.3746688 0.36561736
v -1.6156936 1.0795743 -0.33593068
v -1.6164371 1.0800711 0.36561736
v -1.795263 0.7436244 -0.33593068
v -1.796089 0.7439666 0.36561736
v -1.9058416 0.37909725 -0.33593068
v -1.9067184 0.37927166 0.36561736
v -1.9431796 1.6148714E-06 -0.33593068
v -1.9440736 1.5994842E-06 0.36561736
v -1.9058424 -0.3790941 -0.33593068
v -1.9067191 -0.37926853 0.36561736
v -1.7952646 -0.7436214 -0.33593068
v -1.7960904 -0.74396366 0.36561736
v -1.6156956 -1.079572 -0.33593068
v -1.616439 -1.0800685 0.36561736
v -1.3740366 -1.3740349 -0.33593068
v -1.3746685 -1.3746672 0.36561736
v -1.0795738 -1.6156945 -0.33593068
v -1.0800703 -1.6164378 0.36561736
v -0.7436236 -1.7952636 -0.33593068
v -0.74396574 -1.7960898 0.36561736
v -0.37909642 -1.9058421 -0.33593068
v -0.37927076 -1.906719 0.36561736
v -7.635274E-07 -1.9431797 -0.33593068
v -7.190315E-07 -1.9440739 0.36561736
v 0.3790949 -1.9058422 -0.33593068
v 0.37926942 -1.9067192 0.36561736
v 0.7436222 -1.7952642 -0.33593068
v 0.7439645 -1.7960902 0.36561736
v 1.0795724 -1.6156951 -0.33593068
v 1.0800693 -1.6164386 0.36561736
v 1.3740352 -1.3740357 -0.33593068
v 1.3746675 -1.3746679 0.36561736
v 1.6156945 -1.0795729 -0.33593068
v 1.6164382 -1.0800695 0.36561736
v 1.7952636 -0.7436226 -0.33593068
v 1.7960895 -0.7439647 0.36561736
v 1.9058416 -0.37909555 -0.33593068
v 1.9067186 -0.37926996 0.36561736
v 1.9431792 -1.1475497E-07 -0.33593068
v 1.9440736 -1.3093815E-07 0.36561736
v 1.9058415 0.3790953 -0.33593068
v 1.9067184 0.37926978 0.36561736
v 1.7952634 0.7436223 -0.33593068
v 1.7960894 0.7439645 0.36561736
v 1.6156945 1.0795722 -0.33593068
v 1.6164382 1.080069 0.36561736
v 1.3740352 1.3740351 -0.33593068
v 1.3746675 1.3746673 0.36561736
v 1.0795726 1.6156943 -0.33593068
v 1.0800694 1.6164377 0.36561736
v 0.74362254 1.7952632 -0.33593068
v 0.7439647 1.7960893 0.36561736
v 0.37909535 1.9058415 -0.33593068
v 0.37926987 1.9067184 0.36561736
v -1.3035918E-07 1.943179 -0.33593068
v -8.5572005E-08 1.9440731 0.36561736
vt 0.031249791 0.0062724054
vt 0 0.99540234
vt 2.9802322E-08 0.006272346
vt 0.031249791 0.99540234
vt 0.06249979 0.0062724054
vt 0.06249979 0.99540234
vt 0.09374982 0.006272465
vt 0.09374982 0.9954024
vt 0.12499982 0.006272465
vt 0.12499982 0.9954024
vt 0.15624982 0.0062725246
vt 0.15624982 0.9954024
vt 0.18749985 0.0062725246
vt 0.18749985 0.99540246
vt 0.21874988 0.0062725246
vt 0.21874985 0.99540246
vt 0.24999988 0.006272584
vt 0.24999988 0.99540246
vt 0.28124988 0.006272584
vt 0.28124988 0.99540246
vt 0.31249988 0.006272584
vt 0.31249988 0.99540246
vt 0.34374994 0.006272644
vt 0.34374994 0.9954025
vt 0.3749999 0.006272644
vt 0.37499994 0.9954025
vt 0.40624994 0.006272644
vt 0.40624994 0.9954025
vt 0.43749994 0.006272584
vt 0.43749994 0.99540246
vt 0.46874994 0.006272584
vt 0.46874994 0.99540246
vt 0.49999994 0.006272584
vt 0.49999994 0.99540246
vt 0.53124994 0.006272584
vt 0.53124994 0.99540246
vt 0.56249994 0.0062725246
vt 0.56249994 0.99540246
vt 0.59374994 0.0062725246
vt 0.59374994 0.9954024
vt 0.62499994 0.006272465
vt 0.625 0.9954024
vt 0.65625 0.006272465
vt 0.65625 0.9954024
vt 0.6875 0.0062724054
vt 0.6875 0.9954024
vt 0.71875 0.0062724054
vt 0.71875 0.99540234
vt 0.75 0.006272346
vt 0.75 0.99540234
vt 0.78125 0.006272346
vt 0.78125 0.99540234
vt 0.8125 0.006272346
vt 0.8125 0.99540234
vt 0.84375 0.006272346
vt 0.84375 0.99540234
vt 0.875 0.006272346
vt 0.875 0.99540234
vt 0.90625 0.006272346
vt 0.90625 0.99540234
vt 0.9375 0.006272346
vt 0.9375 0.99540234
vt 0.96875 0.006272346
vt 0.96875 0.99540234
vt 1 0.006272346
vt 1 0.99540234
vn 0.19507708 -0.98078716 0.0012512766
vn -0 -0.9999993 0.0012512961
vn -0 -0.9999993 0.0012512961
vn 0.19507708 -0.98078716 0.0012512766
vn 0.38268125 -0.9238796 0.0012512903
vn 0.38268125 -0.9238796 0.0012512903
vn 0.5555727 -0.831467 0.00125129
vn 0.5555727 -0.831467 0.00125129
vn 0.70710623 -0.70710623 0.0012512994
vn 0.70710623 -0.70710623 0.0012512994
vn 0.831467 -0.5555727 0.00125129
vn 0.831467 -0.5555727 0.00125129
vn 0.9238796 -0.38268125 0.0012512903
vn 0.9238796 -0.38268125 0.0012512903
vn 0.98078716 -0.19507708 0.0012512766
vn 0.98078716 -0.19507708 0.0012512766
vn 0.9999993 0 0.0012512961
vn 0.9999993 0 0.0012512961
vn 0.98078716 0.19507708 0.0012512766
vn 0.98078716 0.19507708 0.0012512766
vn 0.9238796 0.38268125 0.0012512903
vn 0.9238796 0.38268125 0.0012512903
vn 0.831467 0.5555727 0.00125129
vn 0.831467 0.5555727 0.00125129
vn 0.70710623 0.70710623 0.0012512994
vn 0.70710623 0.70710623 0.0012512994
vn 0.5555727 0.831467 0.00125129
vn 0.5555727 0.831467 0.00125129
vn 0.38268125 0.9238796 0.0012512903
vn 0.38268125 0.9238796 0.0012512903
vn 0.19507708 0.98078716 0.0012512766
vn 0.19507708 0.98078716 0.0012512766
vn -0 0.9999993 0.0012512961
vn -0 0.9999993 0.0012512961
vn -0.19507708 0.98078716 0.0012512766
vn -0.19507708 0.98078716 0.0012512766
vn -0.38268125 0.9238796 0.0012512903
vn -0.38268125 0.9238796 0.0012512903
vn -0.5555727 0.831467 0.00125129
vn -0.5555727 0.831467 0.00125129
vn -0.70710623 0.70710623 0.0012512994
vn -0.70710623 0.70710623 0.0012512994
vn -0.831467 0.5555727 0.00125129
vn -0.831467 0.5555727 0.00125129
vn -0.9238796 0.38268125 0.0012512903
vn -0.9238796 0.38268125 0.0012512903
vn -0.98078716 0.19507708 0.0012512766
vn -0.98078716 0.19507708 0.0012512766
vn -0.9999993 0 0.0012512961
vn -0.9999993 0 0.0012512961
vn -0.98078716 -0.19507708 0.0012512766
vn -0.98078716 -0.19507708 0.0012512766
vn -0.9238796 -0.38268125 0.0012512903
vn -0.9238796 -0.38268125 0.0012512903
vn -0.831467 -0.5555727 0.00125129
vn -0.831467 -0.5555727 0.00125129
vn -0.70710623 -0.70710623 0.0012512994
vn -0.70710623 -0.70710623 0.0012512994
vn -0.5555727 -0.831467 0.00125129
vn -0.5555727 -0.831467 0.00125129
vn -0.38268125 -0.9238796 0.0012512903
vn -0.38268125 -0.9238796 0.0012512903
vn -0.19507708 -0.98078716 0.0012512766
vn -0.19507708 -0.98078716 0.0012512766
vn -0 -0.9999993 0.0012512961
vn -0 -0.9999993 0.0012512961
g donut3Mesh_0
f 3/3/3 2/2/2 1/1/1
f 2/2/2 4/4/4 1/1/1
f 1/1/1 4/4/4 5/5/5
f 4/4/4 6/6/6 5/5/5
f 5/5/5 6/6/6 7/7/7
f 6/6/6 8/8/8 7/7/7
f 7/7/7 8/8/8 9/9/9
f 8/8/8 10/10/10 9/9/9
f 9/9/9 10/10/10 11/11/11
f 10/10/10 12/12/12 11/11/11
f 11/11/11 12/12/12 13/13/13
f 12/12/12 14/14/14 13/13/13
f 13/13/13 14/14/14 15/15/15
f 14/14/14 16/16/16 15/15/15
f 15/15/15 16/16/16 17/17/17
f 16/16/16 18/18/18 17/17/17
f 17/17/17 18/18/18 19/19/19
f 18/18/18 20/20/20 19/19/19
f 19/19/19 20/20/20 21/21/21
f 20/20/20 22/22/22 21/21/21
f 21/21/21 22/22/22 23/23/23
f 22/22/22 24/24/24 23/23/23
f 23/23/23 24/24/24 25/25/25
f 24/24/24 26/26/26 25/25/25
f 25/25/25 26/26/26 27/27/27
f 26/26/26 28/28/28 27/27/27
f 27/27/27 28/28/28 29/29/29
f 28/28/28 30/30/30 29/29/29
f 29/29/29 30/30/30 31/31/31
f 30/30/30 32/32/32 31/31/31
f 31/31/31 32/32/32 33/33/33
f 32/32/32 34/34/34 33/33/33
f 33/33/33 34/34/34 35/35/35
f 34/34/34 36/36/36 35/35/35
f 35/35/35 36/36/36 37/37/37
f 36/36/36 38/38/38 37/37/37
f 37/37/37 38/38/38 39/39/39
f 38/38/38 40/40/40 39/39/39
f 39/39/39 40/40/40 41/41/41
f 40/40/40 42/42/42 41/41/41
f 41/41/41 42/42/42 43/43/43
f 42/42/42 44/44/44 43/43/43
f 43/43/43 44/44/44 45/45/45
f 44/44/44 46/46/46 45/45/45
f 45/45/45 46/46/46 47/47/47
f 46/46/46 48/48/48 47/47/47
f 47/47/47 48/48/48 49/49/49
f 48/48/48 50/50/50 49/49/49
f 49/49/49 50/50/50 51/51/51
f 50/50/50 52/52/52 51/51/51
f 51/51/51 52/52/52 53/53/53
f 52/52/52 54/54/54 53/53/53
f 53/53/53 54/54/54 55/55/55
f 54/54/54 56/56/56 55/55/55
f 55/55/55 56/56/56 57/57/57
f 56/56/56 58/58/58 57/57/57
f 57/57/57 58/58/58 59/59/59
f 58/58/58 60/60/60 59/59/59
f 59/59/59 60/60/60 61/61/61
f 60/60/60 62/62/62 61/61/61
f 61/61/61 62/62/62 63/63/63
f 62/62/62 64/64/64 63/63/63
f 63/63/63 64/64/64 65/65/65
f 64/64/64 66/66/66 65/65/65
