g DustPuff1Model
v -0.86168265 0.32359043 0.27095893
v -0.97063917 0.22839332 0.045734014
v -0.78717124 0.29423007 0.12575683
v -0.5671219 0.4304667 0.34248427
v -1.1072206 -0.23964027 0.15659972
v -0.99158025 -0.30792865 0.21406409
v -1.0611857 -0.15339334 0.06757545
v -1.1397301 -0.13775913 0.029829215
v -1.0106825 7.5628974E-05 -0.024040993
v -1.2111024 -0.17078061 0.11014719
v -1.0289749 -0.32729086 0.34445578
v -1.1123494 -0.016074412 -0.033568885
v -0.95390683 0.14222278 0.007952332
v -1.2369417 -0.09919758 0.03247687
v -1.0656252 0.11449067 -0.04536816
v -0.78717124 0.29423007 0.12575683
v -0.97063917 0.22839332 0.045734014
v -1.2253274 -0.0071147284 -0.0025157628
v -1.2142881 -0.20343167 0.23820977
v -1.1903543 0.080957584 0.0042487974
v -1.2942021 -0.10107991 0.16652443
v -1.2896166 -0.00062636187 0.12495956
v -0.867413 -0.40128797 0.6462621
v -1.1515326 -0.2201691 0.47951162
v -1.2668155 -0.10403825 0.3962666
v -0.4558136 -0.60920227 0.7427799
v -0.7856047 -0.45805967 0.4406362
v -1.1246996 0.15070151 0.063206695
v -1.2474904 0.08471876 0.15299696
v -1.1272256 0.1769662 0.22091097
v -0.86168265 0.32359043 0.27095893
v -1.2948983 -0.007452987 0.34819365
v -1.2358536 0.0846379 0.37215486
v -1.0822825 0.18479289 0.4174537
v -0.7397469 0.36885247 0.5344293
v -0.5671219 0.4304667 0.34248427
v -1.173697 -0.09978455 0.65188354
v -1.2026207 -0.007852578 0.61401314
v -1.1457874 0.09557673 0.6478825
v -0.9852025 0.2111207 0.66884273
v -1.0598255 -0.22553423 0.7079347
v -0.67482394 -0.43325484 0.94820476
v -0.07498156 -0.69830346 1.1018896
v -0.9608182 5.3279095E-05 0.9517956
v -0.9608097 -0.1135111 0.95274127
v -0.9216018 -0.23893768 0.9204687
v -0.45589572 -0.39363262 1.2437536
v 0.32643446 -0.64427036 1.471369
v -0.35936722 -0.19815353 1.4255459
v -0.94876397 0.10950762 0.9316282
v -0.28334627 0.016174033 1.4768093
v 0.54530245 -0.3628619 1.7152516
v 1.3549339 -0.9281285 1.6054778
v 0.7761211 -0.96848917 1.1438373
v 0.2592392 -0.8060551 0.687146
v -0.38894486 -0.54483855 0.4401837
v -0.99158025 -0.30792865 0.21406409
v -0.88978374 0.20922184 0.84443843
v -0.34730884 0.21090722 1.3549826
v 0.6719809 0.05392506 1.7954414
v 1.7038616 -0.5271136 1.8849909
v 2.3094726 -0.9120839 1.4974385
v 1.6784401 -0.9560381 1.0946504
v -0.593074 0.38318247 0.8359357
v -0.44284004 0.33992267 1.0970044
v 0.50248605 0.38162607 1.6351082
v 1.8098859 0.111123785 1.9567814
v 2.7306569 -0.4978519 1.545403
v 0.83517134 -0.7563594 0.6977691
v -0.29278275 0.5427082 0.6374353
v -0.006864666 0.61995703 0.9898422
v 0.25429222 0.5644426 1.3250511
v 2.271692 -0.5714579 0.9726317
v 1.5708151 0.6055657 1.7680807
v 2.7390115 0.0806647 1.5434873
v -0.18901967 0.49087578 0.3690413
v 0.33925506 0.7246999 0.6300495
v 0.8453542 0.88885015 1.0292767
v 1.1817049 0.8236526 1.4332631
v 2.42407 0.5902239 1.5109065
v 2.3722095 0.075433336 0.943299
v -0.5563409 0.31721446 0.18805835
v -0.78717124 0.29423007 0.12575683
v -0.95390683 0.14222278 0.007952332
v -0.76562244 0.15604056 0.08068844
v -1.0106825 7.5628974E-05 -0.024040993
v -0.25125262 0.3511579 0.18705478
v -0.83526254 0.011680896 0.06355267
v -1.0611857 -0.15339334 0.06757545
v 0.3007376 0.51002616 0.34295222
v -0.34180924 0.1916171 0.14898227
v -0.8828885 -0.16001417 0.13001119
v 0.8959335 0.7130834 0.636285
v 0.41507822 0.31584153 0.30123684
v -0.37854534 0.0039484906 0.15369181
v -0.8027823 -0.33424112 0.23407674
v 1.5373113 0.9022721 1.0292876
v 1.1796887 0.45008457 0.59367406
v -0.45531386 -0.18764356 0.19698939
v 0.4142769 0.018911822 0.28452626
v 0.15134047 -0.53473836 0.41201663
v 1.9393934 0.8539558 1.3884226
v 2.0345397 0.6221615 1.0007604
v 1.3778238 0.043999586 0.54470104
v -0.46440536 -0.33962873 0.26071462
v 0.2815177 -0.28754148 0.3264481
v 1.2030909 -0.42375022 0.5767454
v -0.7856047 -0.45805967 0.4406362
v -0.99158025 -0.30792865 0.21406409
v -1.1072206 -0.23964027 0.15659972
v -1.0289749 -0.32729086 0.34445578
vt 0.29510015 0.83548135
vt 0.214198 0.7929091
vt 1.0759617 0.9464192
vt 0.5848297 0.9578462
vt 0.23032135 0.19384491
vt 0.079850346 0.04554367
vt 0.05578211 0.17795402
vt 0.19658336 0.29843658
vt 0.067185104 0.51352173
vt 0.24835962 0.33102578
vt 0.29951334 0.152102
vt 0.19483787 0.48271888
vt 0.074599385 0.80679566
vt 0.23829871 0.40467066
vt 0.1927756 0.6705439
vt 0.07596171 0.9464192
vt 0.214198 0.7929091
vt 0.23602566 0.49783248
vt 0.27408454 0.32050335
vt 0.2376639 0.5854753
vt 0.26511508 0.4173364
vt 0.26071846 0.5037155
vt 0.40245748 0.15823352
vt 0.31550908 0.31469297
vt 0.29766935 0.41854048
vt 0.6092179 0.13433307
vt 0.6205745 0.048814952
vt 0.2449674 0.66044116
vt 0.2654357 0.577412
vt 0.27627736 0.6667218
vt 0.29510015 0.83548135
vt 0.29092073 0.49800986
vt 0.296041 0.57304436
vt 0.3095943 0.6671645
vt 0.37675846 0.82624686
vt 0.5848297 0.9578462
vt 0.33403003 0.42476606
vt 0.32689607 0.49771988
vt 0.33390275 0.5772858
vt 0.35081214 0.67115
vt 0.35377556 0.3224578
vt 0.464224 0.20968348
vt 0.5975872 0.21698481
vt 0.3824125 0.5033788
vt 0.38594022 0.4193263
vt 0.39323243 0.32657653
vt 0.4989278 0.28717703
vt 0.5921839 0.3093738
vt 0.49877468 0.4018829
vt 0.37987852 0.5813179
vt 0.49671113 0.5093757
vt 0.5843712 0.40678328
vt 0.6470643 0.35674435
vt 0.67054576 0.29023296
vt 0.70672864 0.2372492
vt 0.745289 0.1890102
vt 1.0798503 0.04554367
vt 0.3802321 0.6592102
vt 0.4884831 0.6120596
vt 0.5804468 0.51351213
vt 0.63656694 0.43031394
vt 0.6774645 0.402856
vt 0.7004022 0.37022334
vt 0.4381336 0.77774817
vt 0.47774816 0.7128825
vt 0.5784247 0.6072884
vt 0.6327851 0.5143305
vt 0.6793837 0.45236647
vt 0.7297103 0.3409791
vt 0.58873427 0.86859316
vt 0.5773504 0.7871125
vt 0.57920694 0.7005937
vt 0.7121072 0.43650556
vt 0.63513184 0.5887441
vt 0.6803873 0.50774515
vt 0.74070704 0.80620223
vt 0.6965987 0.7679804
vt 0.6583472 0.71875584
vt 0.64106894 0.6549887
vt 0.6773642 0.5623154
vt 0.71500754 0.5082133
vt 0.80391926 0.818783
vt 1.0759617 0.9464192
vt 1.0745994 0.80679566
vt 0.85195273 0.7177603
vt 1.0671852 0.51352173
vt 0.787544 0.7230654
vt 0.8578909 0.5246059
vt 1.0557821 0.17795402
vt 0.75338966 0.69520944
vt 0.7987199 0.63170713
vt 0.8482144 0.2890013
vt 0.7243688 0.6659653
vt 0.76520896 0.60354245
vt 0.799999 0.5056085
vt 0.8151707 0.1691702
vt 0.69583625 0.64085156
vt 0.7381961 0.584474
vt 0.7975544 0.37315708
vt 0.7699957 0.50688434
vt 0.75650215 0.30965072
vt 0.6754366 0.6087924
vt 0.7085419 0.57677984
vt 0.7434348 0.507542
vt 0.78815615 0.28259557
vt 0.7678305 0.40533113
vt 0.74136555 0.42481261
vt 0.6205745 0.048814952
vt 1.0798503 0.04554367
vt 0.23032135 0.19384491
vt 0.29951334 0.152102
vn -0.38047737 0.9180347 -0.11157657
vn -0.13889337 0.7838884 -0.6051673
vn 0.014587906 0.7291511 -0.6841972
vn -0.2093311 0.92857665 -0.30647364
vn -0.25831738 -0.8447504 -0.4686886
vn -0.15879202 -0.8214886 -0.5476692
vn 0.16611478 -0.605527 -0.7782949
vn -0.08493536 -0.62674546 -0.77458125
vn 0.3214634 -0.2650936 -0.9090581
vn -0.51668245 -0.7636707 -0.3870998
vn -0.49346098 -0.86722666 -0.06643976
vn -0.034089886 -0.23450911 -0.97151595
vn 0.31864905 0.20954359 -0.9244211
vn -0.61914307 -0.45125693 -0.6426734
vn -0.09409008 0.3853024 -0.917981
vn 0.014587906 0.7291511 -0.6841972
vn -0.13889337 0.7838884 -0.6051673
vn -0.6435251 0.019593244 -0.7651742
vn -0.6541802 -0.75452757 -0.05231
vn -0.58755803 0.5115649 -0.62695843
vn -0.9175105 -0.3749637 -0.1325771
vn -0.9516802 0.19471249 -0.23746988
vn -0.53772247 -0.8251854 0.17298435
vn -0.69372624 -0.69143736 0.20163871
vn -0.9051463 -0.36760694 0.21348368
vn -0.3701643 -0.92890525 0.0106511125
vn -0.33461186 -0.91719174 -0.21631967
vn -0.49059802 0.8188943 -0.29786852
vn -0.75259376 0.6460221 -0.12750757
vn -0.53506535 0.8439517 -0.038088154
vn -0.38047737 0.9180347 -0.11157657
vn -0.9732593 0.17988053 0.14286068
vn -0.75857717 0.6356471 0.14322507
vn -0.53991705 0.83436733 0.11099872
vn -0.42385527 0.90234053 0.07828261
vn -0.2093311 0.92857665 -0.30647364
vn -0.84897393 -0.28641957 0.44408005
vn -0.89992404 0.13672668 0.414056
vn -0.7500449 0.5503259 0.36684322
vn -0.5380848 0.80674577 0.24418448
vn -0.69922715 -0.6054109 0.38020918
vn -0.52242315 -0.77078635 0.36464024
vn -0.3658374 -0.88439447 0.2898438
vn -0.716127 0.12521921 0.6866457
vn -0.72232753 -0.18909673 0.6651957
vn -0.6491788 -0.52459854 0.5507842
vn -0.49770454 -0.5804721 0.6444706
vn -0.32441473 -0.6730309 0.66466874
vn -0.4835456 -0.2315794 0.8441295
vn -0.65188426 0.47817054 0.5885575
vn -0.43532562 0.12518966 0.8915263
vn -0.25783026 -0.29378244 0.92044306
vn -0.06958293 -0.8225741 0.56438476
vn -0.14618431 -0.98895675 0.0243844
vn -0.12204766 -0.9125954 -0.3902229
vn -0.12433445 -0.8364345 -0.5337774
vn -0.15879202 -0.8214886 -0.5476692
vn -0.5156569 0.75648606 0.4022771
vn -0.46773636 0.4956003 0.731849
vn -0.22248219 0.10876907 0.9688504
vn 0.07986857 -0.31718534 0.94499445
vn 0.41957557 -0.88203037 0.21442667
vn 0.1858617 -0.89491343 -0.40569124
vn -0.4383193 0.8607075 0.2589569
vn -0.4419814 0.7554763 0.4836403
vn -0.28297383 0.5162624 0.808331
vn 0.14554419 0.13556455 0.9800199
vn 0.85344905 -0.45657268 0.2513286
vn 0.117468774 -0.7207742 -0.6831439
vn -0.3168166 0.9472149 -0.049104903
vn -0.3561588 0.90474105 0.23365483
vn -0.33433735 0.7842813 0.52261007
vn 0.5433871 -0.41627637 -0.7290024
vn 0.023499765 0.57372993 0.81870735
vn 0.93898803 0.21372682 0.26948562
vn -0.13034888 0.8780162 -0.46053958
vn -0.14704327 0.9329832 -0.3285126
vn -0.14798519 0.98898906 -0.0010376358
vn -0.13068429 0.8739549 0.46810728
vn 0.6511009 0.7178774 0.24641366
vn 0.6434731 0.15061373 -0.75050503
vn 0.026368262 0.6219735 -0.7825942
vn 0.014587906 0.7291511 -0.6841972
vn 0.31864905 0.20954359 -0.9244211
vn 0.24293219 0.16581036 -0.95576715
vn 0.3214634 -0.2650936 -0.9090581
vn 0.044832844 0.54705834 -0.83589303
vn 0.2909135 -0.21903966 -0.9313382
vn 0.16611478 -0.605527 -0.7782949
vn 0.109686 0.57653815 -0.8096744
vn 0.13562845 0.16370633 -0.9771413
vn 0.18811747 -0.47548187 -0.859377
vn 0.15101007 0.7125368 -0.6851914
vn 0.24012452 0.21616702 -0.9463678
vn 0.16620927 -0.1412443 -0.97592247
vn -0.01355041 -0.68460083 -0.72879225
vn 0.19169374 0.9129944 -0.36013147
vn 0.3068422 0.35921353 -0.88137025
vn 0.12598231 -0.3501747 -0.92817354
vn 0.22391549 -0.058626365 -0.97284365
vn 0.0868871 -0.56664306 -0.8193695
vn 0.28895319 0.944866 0.15405956
vn 0.49966198 0.574953 -0.6478942
vn 0.32591048 0.04596134 -0.94428277
vn 0.056613646 -0.5264001 -0.8483501
vn 0.17377332 -0.32258233 -0.9304533
vn 0.25757846 -0.35768 -0.8976182
vn -0.33461186 -0.91719174 -0.21631967
vn -0.15879202 -0.8214886 -0.5476692
vn -0.25831738 -0.8447504 -0.4686886
vn -0.49346098 -0.86722666 -0.06643976
g DustPuff1Model_0
f 3/3/3 2/2/2 1/1/1
f 4/4/4 3/3/3 1/1/1
f 7/7/7 6/6/6 5/5/5
f 8/8/8 7/7/7 5/5/5
f 9/9/9 7/7/7 8/8/8
f 8/8/8 5/5/5 10/10/10
f 10/10/10 5/5/5 11/11/11
f 12/12/12 9/9/9 8/8/8
f 13/13/13 9/9/9 12/12/12
f 14/14/14 8/8/8 10/10/10
f 12/12/12 8/8/8 14/14/14
f 15/15/15 13/13/13 12/12/12
f 16/16/16 13/13/13 15/15/15
f 17/17/17 16/16/16 15/15/15
f 15/15/15 12/12/12 18/18/18
f 18/18/18 12/12/12 14/14/14
f 14/14/14 10/10/10 19/19/19
f 19/19/19 10/10/10 11/11/11
f 17/17/17 15/15/15 20/20/20
f 20/20/20 15/15/15 18/18/18
f 18/18/18 14/14/14 21/21/21
f 21/21/21 14/14/14 19/19/19
f 20/20/20 18/18/18 22/22/22
f 22/22/22 18/18/18 21/21/21
f 19/19/19 11/11/11 23/23/23
f 21/21/21 19/19/19 24/24/24
f 24/24/24 19/19/19 23/23/23
f 22/22/22 21/21/21 25/25/25
f 25/25/25 21/21/21 24/24/24
f 23/23/23 11/11/11 26/26/26
f 11/11/11 27/27/27 26/26/26
f 28/28/28 17/17/17 20/20/20
f 29/29/29 20/20/20 22/22/22
f 28/28/28 20/20/20 29/29/29
f 17/17/17 28/28/28 30/30/30
f 30/30/30 28/28/28 29/29/29
f 31/31/31 17/17/17 30/30/30
f 29/29/29 22/22/22 32/32/32
f 32/32/32 22/22/22 25/25/25
f 30/30/30 29/29/29 33/33/33
f 33/33/33 29/29/29 32/32/32
f 31/31/31 30/30/30 34/34/34
f 34/34/34 30/30/30 33/33/33
f 35/35/35 31/31/31 34/34/34
f 36/36/36 31/31/31 35/35/35
f 32/32/32 25/25/25 37/37/37
f 33/33/33 32/32/32 38/38/38
f 38/38/38 32/32/32 37/37/37
f 34/34/34 33/33/33 39/39/39
f 39/39/39 33/33/33 38/38/38
f 35/35/35 34/34/34 40/40/40
f 40/40/40 34/34/34 39/39/39
f 37/37/37 25/25/25 41/41/41
f 25/25/25 24/24/24 41/41/41
f 41/41/41 24/24/24 42/42/42
f 24/24/24 23/23/23 42/42/42
f 42/42/42 23/23/23 43/43/43
f 23/23/23 26/26/26 43/43/43
f 39/39/39 38/38/38 44/44/44
f 38/38/38 37/37/37 45/45/45
f 44/44/44 38/38/38 45/45/45
f 37/37/37 41/41/41 46/46/46
f 45/45/45 37/37/37 46/46/46
f 46/46/46 41/41/41 47/47/47
f 41/41/41 42/42/42 47/47/47
f 45/45/45 46/46/46 47/47/47
f 47/47/47 42/42/42 48/48/48
f 42/42/42 43/43/43 48/48/48
f 49/49/49 45/45/45 47/47/47
f 44/44/44 45/45/45 49/49/49
f 49/49/49 47/47/47 48/48/48
f 50/50/50 39/39/39 44/44/44
f 40/40/40 39/39/39 50/50/50
f 51/51/51 44/44/44 49/49/49
f 50/50/50 44/44/44 51/51/51
f 52/52/52 49/49/49 48/48/48
f 51/51/51 49/49/49 52/52/52
f 48/48/48 43/43/43 53/53/53
f 52/52/52 48/48/48 53/53/53
f 43/43/43 54/54/54 53/53/53
f 43/43/43 26/26/26 54/54/54
f 26/26/26 55/55/55 54/54/54
f 26/26/26 27/27/27 55/55/55
f 27/27/27 56/56/56 55/55/55
f 27/27/27 57/57/57 56/56/56
f 58/58/58 40/40/40 50/50/50
f 59/59/59 50/50/50 51/51/51
f 58/58/58 50/50/50 59/59/59
f 60/60/60 51/51/51 52/52/52
f 59/59/59 51/51/51 60/60/60
f 61/61/61 52/52/52 53/53/53
f 60/60/60 52/52/52 61/61/61
f 53/53/53 54/54/54 62/62/62
f 61/61/61 53/53/53 62/62/62
f 54/54/54 55/55/55 63/63/63
f 54/54/54 63/63/63 62/62/62
f 64/64/64 40/40/40 58/58/58
f 64/64/64 35/35/35 40/40/40
f 65/65/65 58/58/58 59/59/59
f 65/65/65 64/64/64 58/58/58
f 66/66/66 59/59/59 60/60/60
f 65/65/65 59/59/59 66/66/66
f 67/67/67 60/60/60 61/61/61
f 66/66/66 60/60/60 67/67/67
f 68/68/68 61/61/61 62/62/62
f 62/62/62 63/63/63 68/68/68
f 67/67/67 61/61/61 68/68/68
f 55/55/55 69/69/69 63/63/63
f 55/55/55 56/56/56 69/69/69
f 70/70/70 35/35/35 64/64/64
f 70/70/70 36/36/36 35/35/35
f 71/71/71 64/64/64 65/65/65
f 71/71/71 70/70/70 64/64/64
f 72/72/72 65/65/65 66/66/66
f 72/72/72 71/71/71 65/65/65
f 63/63/63 73/73/73 68/68/68
f 63/63/63 69/69/69 73/73/73
f 74/74/74 66/66/66 67/67/67
f 72/72/72 66/66/66 74/74/74
f 75/75/75 67/67/67 68/68/68
f 68/68/68 73/73/73 75/75/75
f 74/74/74 67/67/67 75/75/75
f 76/76/76 36/36/36 70/70/70
f 77/77/77 70/70/70 71/71/71
f 77/77/77 76/76/76 70/70/70
f 78/78/78 71/71/71 72/72/72
f 78/78/78 77/77/77 71/71/71
f 79/79/79 72/72/72 74/74/74
f 79/79/79 78/78/78 72/72/72
f 80/80/80 74/74/74 75/75/75
f 79/79/79 74/74/74 80/80/80
f 73/73/73 81/81/81 75/75/75
f 75/75/75 81/81/81 80/80/80
f 76/76/76 82/82/82 36/36/36
f 82/82/82 83/83/83 36/36/36
f 83/83/83 82/82/82 84/84/84
f 82/82/82 85/85/85 84/84/84
f 84/84/84 85/85/85 86/86/86
f 87/87/87 82/82/82 76/76/76
f 82/82/82 87/87/87 85/85/85
f 85/85/85 88/88/88 86/86/86
f 86/86/86 88/88/88 89/89/89
f 90/90/90 87/87/87 76/76/76
f 90/90/90 76/76/76 77/77/77
f 87/87/87 91/91/91 85/85/85
f 85/85/85 91/91/91 88/88/88
f 91/91/91 87/87/87 90/90/90
f 88/88/88 92/92/92 89/89/89
f 89/89/89 92/92/92 57/57/57
f 93/93/93 90/90/90 77/77/77
f 93/93/93 77/77/77 78/78/78
f 94/94/94 91/91/91 90/90/90
f 94/94/94 90/90/90 93/93/93
f 91/91/91 95/95/95 88/88/88
f 88/88/88 95/95/95 92/92/92
f 95/95/95 91/91/91 94/94/94
f 92/92/92 96/96/96 57/57/57
f 57/57/57 96/96/96 56/56/56
f 97/97/97 93/93/93 78/78/78
f 97/97/97 78/78/78 79/79/79
f 98/98/98 94/94/94 93/93/93
f 98/98/98 93/93/93 97/97/97
f 95/95/95 99/99/99 92/92/92
f 92/92/92 99/99/99 96/96/96
f 100/100/100 95/95/95 94/94/94
f 100/100/100 94/94/94 98/98/98
f 99/99/99 95/95/95 100/100/100
f 56/56/56 96/96/96 101/101/101
f 56/56/56 101/101/101 69/69/69
f 102/102/102 97/97/97 79/79/79
f 102/102/102 79/79/79 80/80/80
f 103/103/103 97/97/97 102/102/102
f 80/80/80 103/103/103 102/102/102
f 103/103/103 98/98/98 97/97/97
f 81/81/81 103/103/103 80/80/80
f 104/104/104 98/98/98 103/103/103
f 104/104/104 100/100/100 98/98/98
f 81/81/81 104/104/104 103/103/103
f 99/99/99 105/105/105 96/96/96
f 96/96/96 105/105/105 101/101/101
f 106/106/106 99/99/99 100/100/100
f 105/105/105 99/99/99 106/106/106
f 106/106/106 100/100/100 104/104/104
f 101/101/101 105/105/105 106/106/106
f 69/69/69 101/101/101 107/107/107
f 101/101/101 106/106/106 107/107/107
f 107/107/107 106/106/106 104/104/104
f 107/107/107 104/104/104 81/81/81
f 69/69/69 107/107/107 73/73/73
f 73/73/73 107/107/107 81/81/81
f 110/110/110 109/109/109 108/108/108
f 111/111/111 110/110/110 108/108/108
