g FountainWater
v -1.179816 -1.179816 -0.03456366
v 1.1798156 -0.16198666 -0.03456366
v 1.179816 -1.179816 -0.03456366
v -1.179816 0 -0.03456366
v 1.1798156 0.16198666 -0.03456366
v 2.2864342 -0.16198666 -0.03456366
v 2.2864342 0.16198666 -0.03456366
v -1.179816 1.179816 -0.03456366
v 1.179816 1.179816 -0.03456366
v -1.9421923 1.4533997E-07 -2.8295698
v 0.8178081 -1.8599998 -2.8295698
v -1.9421923 -1.8599997 -2.8295698
v 1.5834724 0.10026721 -2.8295698
v -1.9421924 1.8600006 -2.8295698
v 3.5778072 -1.8599998 -2.8295698
v 2.27081 1.8600004 -2.8295698
v 3.5778072 0.1569849 -2.8295698
v 3.5778072 1.8600004 -2.8295698
vt 0.5042715 0.30430228
vt 0.57123375 0.3331865
vt 0.57123375 0.30430228
vt 0.5042715 0.3377834
vt 0.57123375 0.3423803
vt 0.60263765 0.3331865
vt 0.60263765 0.3423803
vt 0.5042715 0.37126452
vt 0.57123375 0.37126452
vt 0.6342318 0.623637
vt 0.5862374 0.54223365
vt 0.581715 0.62060654
vt 0.6428398 0.5236857
vt 0.6867486 0.6266675
vt 0.59075975 0.46386075
vt 0.6936519 0.50703514
vt 0.6477091 0.46714696
vt 0.6957935 0.46992165
vn -0 0 1
vn -0 0 1
vn -0 0 1
vn -0 0 1
vn -0 0 1
vn -0 0 1
vn -0 0 1
vn -0 0 1
vn -0 0 1
vn -0 0 1
vn -0 0 1
vn -0 0 1
vn -0 0 1
vn -0 0 1
vn -0 0 1
vn -0 0 1
vn -0 0 1
vn -0 0 1
g FountainWater_0
f 3/3/3 2/2/2 1/1/1
f 2/2/2 4/4/4 1/1/1
f 5/5/5 4/4/4 2/2/2
f 5/5/5 2/2/2 6/6/6
f 7/7/7 5/5/5 6/6/6
f 8/8/8 4/4/4 5/5/5
f 9/9/9 8/8/8 5/5/5
f 12/12/12 11/11/11 10/10/10
f 11/11/11 13/13/13 10/10/10
f 14/14/14 10/10/10 13/13/13
f 13/13/13 11/11/11 15/15/15
f 16/16/16 14/14/14 13/13/13
f 17/17/17 13/13/13 15/15/15
f 16/16/16 13/13/13 17/17/17
f 18/18/18 16/16/16 17/17/17
