g FracturedGround_cell.002_cell
v -0.67830443 0.09364277 -0.12509984
v -0.75069666 0.001032412 -0.22876614
v -0.6244968 0.16378015 -0.22876605
v -0.48829567 -0.5626474 -0.15605593
v -0.18764958 -0.09492326 0.3012511
v -0.14068672 -0.4403582 0.2319851
v -0.59851944 -0.45101 -0.22876607
v -0.56980145 -0.51342034 -0.22105089
v -0.5794275 -0.50754225 -0.22876605
v -0.18764958 -0.09492326 0.3012511
v -0.2781468 0.15806049 0.29596275
v -0.16646472 0.22214878 0.29315853
v -0.028722048 0.22214878 0.2916693
v 0.26410222 -0.016855657 0.13933633
v -0.05899176 0.2826203 0.29350317
v 0.26410222 0.46115315 0.13933633
v 0.1921215 0.47338212 0.16518818
v 0.24435507 0.5115181 0.14253946
v 0.39519823 0.692019 -0.12293829
v 0.3904369 0.6935648 -0.11764703
v 0.46756792 0.6622257 -0.22876544
v 0.52879167 0.27566904 -0.22876544
v 0.5215857 0.23587018 -0.20763244
v 0.50816953 0.19668901 -0.1895537
v 0.35087 -0.16965735 -0.03425373
v 0.1944983 -0.423507 0.052927777
v 0.091506004 -0.45706588 0.16733073
v -0.14068672 -0.4403582 0.2319851
v 0.111498415 -0.5371505 0.0863532
v -0.10754573 -0.73103607 0.16733207
v 0.058344185 -0.5944194 0.09831281
v -0.11859128 -0.7849879 0.13817091
v 0.51715386 0.26742947 -0.22876556
v 0.52879167 0.27566904 -0.22876544
v 0.46756792 0.6622257 -0.22876544
v -0.5794275 -0.50754225 -0.22876605
v 0.27603853 0.671626 -0.22876552
v -0.6244968 0.16378015 -0.22876605
v -0.59851944 -0.45101 -0.22876607
v -0.75069666 0.001032412 -0.22876614
v 0.5215857 0.23587018 -0.20763244
v 0.52879167 0.27566904 -0.22876544
v 0.51715386 0.26742947 -0.22876556
v 0.50816953 0.19668901 -0.1895537
v 0.058344185 -0.5944194 0.09831281
v 0.35087 -0.16965735 -0.03425373
v 0.1944983 -0.423507 0.052927777
v 0.111498415 -0.5371505 0.0863532
v 0.058344185 -0.5944194 0.09831281
v 0.51715386 0.26742947 -0.22876556
v -0.5794275 -0.50754225 -0.22876605
v -0.11859128 -0.7849879 0.13817091
v -0.48829567 -0.5626474 -0.15605593
v -0.56980145 -0.51342034 -0.22105089
v -0.67830443 0.09364277 -0.12509984
v -0.6244968 0.16378015 -0.22876605
v 0.27603853 0.671626 -0.22876552
v 0.3904369 0.6935648 -0.11764703
v -0.2781468 0.15806049 0.29596275
v 0.3904369 0.6935648 -0.11764703
v 0.24435507 0.5115181 0.14253946
v -0.2781468 0.15806049 0.29596275
v 0.1921215 0.47338212 0.16518818
v 0.1921215 0.47338212 0.16518818
v -0.16646472 0.22214878 0.29315853
v -0.2781468 0.15806049 0.29596275
v -0.05899176 0.2826203 0.29350317
v -0.67830443 0.09364277 -0.12509984
v -0.48829567 -0.5626474 -0.15605593
v -0.56980145 -0.51342034 -0.22105089
v -0.59851944 -0.45101 -0.22876607
v -0.75069666 0.001032412 -0.22876614
v -0.14068672 -0.4403582 0.2319851
v -0.10754573 -0.73103607 0.16733207
v -0.11859128 -0.7849879 0.13817091
v -0.48829567 -0.5626474 -0.15605593
v -0.48829567 -0.5626474 -0.15605593
v -0.2781468 0.15806049 0.29596275
v -0.18764958 -0.09492326 0.3012511
v -0.67830443 0.09364277 -0.12509984
v 0.27603853 0.671626 -0.22876552
v 0.46756792 0.6622257 -0.22876544
v 0.39519823 0.692019 -0.12293829
v 0.3904369 0.6935648 -0.11764703
vt 0 0
vt 0.6732007 0.6732007
vt 0.6758424 0
vt 1 0.6554924
vt 0.2828945 0.2507618
vt 0.8301872 0.3857459
vt 1 0.52864516
vt 1 0.45638165
vt 0.92584383 0.4543864
vt 0.5971488 0.49271837
vt 0.58971876 0.51315176
vt 0.5987924 0.51835865
vt 0.6099833 0.51835865
vt 0.6337739 0.4989407
vt 0.60752404 0.5232717
vt 0.6337739 0.53777665
vt 0.6279259 0.5387702
vt 0.63216954 0.54186857
vt 0.6444248 0.55653346
vt 0.64403796 0.55665904
vt 0.65030456 0.55411285
vt 0.65527874 0.5227069
vt 0.6546933 0.51947343
vt 0.6536033 0.5162902
vt 0.64082336 0.48652625
vt 0.62811893 0.46590218
vt 0.61975133 0.46317568
vt 0.60088676 0.4645331
vt 0.6213756 0.45666918
vt 0.60357934 0.4409169
vt 0.617057 0.45201632
vt 0.6026819 0.4365335
vt 0.6543335 0.52203757
vt 0.65527874 0.5227069
vt 0.65030456 0.55411285
vt 0.5652413 0.4590748
vt 0.63474363 0.55487657
vt 0.56157964 0.51361656
vt 0.5636903 0.46366784
vt 0.5513262 0.50039405
vt 0.09138568 0.060167313
vt 0.06422059 0.053558752
vt 0.064225316 0.064225316
vt 0.114627734 0.07246724
vt 0.48480642 0.48480642
vt 0.31429866 0.21666846
vt 0.42641717 0.3600066
vt 0.4694129 0.43608588
vt 0.48480642 0
vt 0.064225316 0
vt 0.08519212 0.06110952
vt 0.577814 0.120086305
vt 0.19431904 0.10365683
vt 0.09699418 0.066186905
vt 1 1
vt 1 0.32415757
vt 0.93487537 0.20753343
vt 0.7894978 0.026258994
vt 0.3108351 0.3108351
vt 0.7894978 0.026258994
vt 0.5186993 0.44914716
vt 0.3108351 0.3108351
vt 0.44061142 0.41950965
vt 0.44061142 0.41950965
vt 0.25212193 0.20244217
vt 0.3108351 0.3108351
vt 0.25166205 0.109354205
vt 1 0
vt 0.34450758 0
vt 0.45638165 0.45638165
vt 0.52864516 0.52864516
vt 1 0.6732007
vt 0.8301872 0.3857459
vt 0.67863274 0.48398387
vt 0.6741209 0.52828854
vt 1 0.6554924
vt 1 0.6554924
vt 0.3108351 0
vt 0.2828945 0.2507618
vt 1 0
vt 0.25356752 0.06415189
vt 0.13716854 0.064229585
vt 0.31709665 0.20016123
vt 0.3267875 0.20695724
vn -0.790242 0.61277896 0.004415005
vn -0.790242 0.61277896 0.004415005
vn -0.790242 0.61277896 0.004415005
vn -0.6872456 -0.23147227 0.68855935
vn -0.6872456 -0.23147227 0.68855935
vn -0.6872456 -0.23147227 0.68855935
vn -0.6909062 -0.23333037 0.6842556
vn -0.6909062 -0.23333037 0.6842556
vn -0.6909062 -0.23333037 0.6842556
vn 0.257277 -0.087223925 0.9623931
vn 0.010834075 0.024781039 0.99963415
vn 0.0108342515 0.016632864 0.999803
vn 0.26090366 -6.103723E-05 0.9653648
vn 0.640139 -0.109716296 0.7603843
vn 0.19879939 0.0698575 0.9775473
vn 0.6402068 0.10968695 0.7603314
vn 0.354938 0.13306358 0.9253719
vn 0.6070946 0.18894644 0.771839
vn 0.8139834 0.1691081 0.5557281
vn 0.75448644 0.25742632 0.60372347
vn 0.88933504 0.14084698 -0.4350234
vn 0.94457585 0.14960617 -0.2922234
vn 0.8216636 0.067386 0.56597525
vn 0.81008655 -0.0235909 0.58583564
vn 0.7939087 -0.20106372 0.57383126
vn 0.7522113 -0.28773677 0.59277797
vn 0.53677773 -0.27113563 0.7989712
vn 0.2532186 -0.16776459 0.95275146
vn 0.6814901 -0.42921975 0.5927407
vn 0.56458366 -0.41018456 0.716236
vn 0.6375866 -0.4632277 0.6155514
vn 0.6375866 -0.4632277 0.6155514
vn -0 0 -1
vn 0.94457585 0.14960617 -0.2922234
vn 0.88933504 0.14084698 -0.4350234
vn -0 0 -1
vn -0 0 -1
vn -0 0 -1
vn -0 0 -1
vn -0 0 -1
vn 0.34559703 -0.48812968 -0.80143124
vn 0.34559703 -0.48812968 -0.80143124
vn 0.34559703 -0.48812968 -0.80143124
vn 0.34559703 -0.48812968 -0.80143124
vn 0.34559703 -0.48812968 -0.80143124
vn 0.34559703 -0.48812968 -0.80143124
vn 0.34559703 -0.48812968 -0.80143124
vn 0.34559703 -0.48812968 -0.80143124
vn 0.34480193 -0.48788753 -0.801921
vn 0.34480193 -0.48788753 -0.801921
vn 0.34480193 -0.48788753 -0.801921
vn 0.34480193 -0.48788753 -0.801921
vn 0.34480193 -0.48788753 -0.801921
vn 0.34480193 -0.48788753 -0.801921
vn -0.46599072 0.8262245 0.31655267
vn -0.46599072 0.8262245 0.31655267
vn -0.46599072 0.8262245 0.31655267
vn -0.46599072 0.8262245 0.31655267
vn -0.46599072 0.8262245 0.31655267
vn -0.46599072 0.8262245 0.31655267
vn -0.46599072 0.8262245 0.31655267
vn -0.46599072 0.8262245 0.31655267
vn -0.46599072 0.8262245 0.31655267
vn -0.46599072 0.8262245 0.31655267
vn -0.46599072 0.8262245 0.31655267
vn -0.46599072 0.8262245 0.31655267
vn -0.46599072 0.8262245 0.31655267
vn -0.6881919 -0.2316753 0.6875451
vn -0.6881919 -0.2316753 0.6875451
vn -0.6881919 -0.2316753 0.6875451
vn -0.6881919 -0.2316753 0.6875451
vn -0.6881919 -0.2316753 0.6875451
vn -0.6872456 -0.23147227 0.68855935
vn -0.6872456 -0.23147227 0.68855935
vn -0.6872456 -0.23147227 0.68855935
vn -0.6872456 -0.23147227 0.68855935
vn -0.6872456 -0.23147227 0.68855935
vn -0.6872456 -0.23147227 0.68855935
vn -0.6872456 -0.23147227 0.68855935
vn -0.6872456 -0.23147227 0.68855935
vn 0.047583655 0.9695059 -0.24040395
vn 0.047583655 0.9695059 -0.24040395
vn 0.047583655 0.9695059 -0.24040395
vn 0.047583655 0.9695059 -0.24040395
g FracturedGround_cell.002_cell_0
f 3/3/3 2/2/2 1/1/1
f 6/6/6 5/5/5 4/4/4
f 9/9/9 8/8/8 7/7/7
f 12/12/12 11/11/11 10/10/10
f 13/13/13 12/12/12 10/10/10
f 13/13/13 10/10/10 14/14/14
f 15/15/15 12/12/12 13/13/13
f 15/15/15 13/13/13 16/16/16
f 16/16/16 13/13/13 14/14/14
f 17/17/17 15/15/15 16/16/16
f 18/18/18 17/17/17 16/16/16
f 18/18/18 16/16/16 19/19/19
f 20/20/20 18/18/18 19/19/19
f 21/21/21 19/19/19 16/16/16
f 22/22/22 21/21/21 16/16/16
f 16/16/16 23/23/23 22/22/22
f 23/23/23 16/16/16 14/14/14
f 24/24/24 23/23/23 14/14/14
f 24/24/24 14/14/14 25/25/25
f 25/25/25 14/14/14 26/26/26
f 14/14/14 10/10/10 27/27/27
f 14/14/14 27/27/27 26/26/26
f 10/10/10 28/28/28 27/27/27
f 26/26/26 27/27/27 29/29/29
f 30/30/30 27/27/27 28/28/28
f 31/31/31 29/29/29 27/27/27
f 31/31/31 27/27/27 30/30/30
f 30/30/30 32/32/32 31/31/31
f 35/35/35 34/34/34 33/33/33
f 33/33/33 36/36/36 35/35/35
f 36/36/36 37/37/37 35/35/35
f 36/36/36 38/38/38 37/37/37
f 36/36/36 39/39/39 38/38/38
f 39/39/39 40/40/40 38/38/38
f 43/43/43 42/42/42 41/41/41
f 41/41/41 44/44/44 43/43/43
f 44/44/44 45/45/45 43/43/43
f 44/44/44 46/46/46 45/45/45
f 46/46/46 47/47/47 45/45/45
f 47/47/47 48/48/48 45/45/45
f 51/51/51 50/50/50 49/49/49
f 49/49/49 52/52/52 51/51/51
f 52/52/52 53/53/53 51/51/51
f 53/53/53 54/54/54 51/51/51
f 57/57/57 56/56/56 55/55/55
f 55/55/55 58/58/58 57/57/57
f 55/55/55 59/59/59 58/58/58
f 62/62/62 61/61/61 60/60/60
f 62/62/62 63/63/63 61/61/61
f 66/66/66 65/65/65 64/64/64
f 64/64/64 65/65/65 67/67/67
f 70/70/70 69/69/69 68/68/68
f 68/68/68 71/71/71 70/70/70
f 68/68/68 72/72/72 71/71/71
f 75/75/75 74/74/74 73/73/73
f 73/73/73 76/76/76 75/75/75
f 79/79/79 78/78/78 77/77/77
f 78/78/78 80/80/80 77/77/77
f 83/83/83 82/82/82 81/81/81
f 84/84/84 83/83/83 81/81/81
