g FracturedGround_cell.006
v -0.49629557 0.9494258 -0.4505123
v -0.9304303 -0.20360376 -0.21752584
v -0.82217664 -0.10040204 -0.45051146
v 0.4920963 -0.8813399 0.116105676
v 0.55032295 -0.761289 0.15036488
v 0.38331664 -0.85061085 -0.4505129
v -0.38974667 1.2100774 -0.45051205
v 0.8302286 0.20328395 -0.45051265
v 0.99411136 0.32500356 0.07303178
v -0.96531916 -0.26276678 -0.10724968
v -0.9304303 -0.20360376 -0.21752584
v -0.943339 -0.1007317 -0.079107344
v 0.074888274 -1.0440564 0.07518077
v 0.23188996 -1.1432222 0.07715273
v 0.3432336 -1.2131112 0.077953756
v -0.096054554 -0.93836546 0.0761441
v -0.19061717 -0.87726885 0.07308942
v -0.48302466 -0.69993335 0.079449475
v -0.47787446 -0.703103 0.07940054
v -0.19061717 -0.87726885 0.07308942
v -0.9512441 -0.284913 -0.08922893
v -0.81744933 -0.1033847 -0.45051157
v -0.82217664 -0.10040204 -0.45051146
v -0.9304303 -0.20360376 -0.21752584
v -0.96531916 -0.26276678 -0.10724968
v -0.943339 -0.1007317 -0.079107344
v -0.9304303 -0.20360376 -0.21752584
v -0.85469747 0.19647427 -0.067934334
v -0.9345076 -0.060481846 -0.067799985
v -0.9300549 -0.04343739 -0.06521171
v -0.8791207 0.12088807 -0.06497371
v -0.42189682 1.1916405 -0.44777417
v -0.38974667 1.2100774 -0.45051205
v -0.095300436 1.1223023 -0.1337784
v -0.4464987 1.1512672 -0.4106961
v -0.12558487 1.0472835 -0.054412007
v -0.5239657 0.79259336 -0.08240783
v -0.0048056245 1.086527 -0.054412246
v -0.49365234 1.0623964 -0.35061502
v -0.63198835 0.78279316 -0.19240868
v -0.7699287 0.45405018 -0.08240962
v 0.28909346 0.88882947 0.036790967
v -0.786951 0.4068787 -0.07515013
v 0.25003183 0.73080444 0.082000315
v 0.44446567 0.7822124 0.08071011
v 0.590176 0.66001415 0.07651323
v -0.114248306 0.58957756 0.079493284
v -0.42754948 0.42711067 0.06992406
v 0.5337512 0.4037428 0.07203722
v 0.81350917 0.4746372 0.07421601
v 0.83813494 0.45688635 0.07945806
v 0.751045 0.18884648 0.13055718
v 0.94285846 0.36745352 0.07333863
v -0.48524714 0.078940615 0.07949346
v -0.7914248 0.3920493 -0.075567245
v 0.21274489 0.29944015 0.07203746
v -0.08698186 0.17967676 0.07447398
v 0.45039213 0.114170715 0.16022629
v 0.16326672 -0.0021374077 0.13055706
v -0.924052 -0.05171384 -0.05441326
v -0.85469747 0.19647427 -0.067934334
v -0.8791207 0.12088807 -0.06497371
v -0.9300549 -0.04343739 -0.06521171
v -0.9345076 -0.060481846 -0.067799985
v -0.943339 -0.1007317 -0.079107344
v -0.96531916 -0.26276678 -0.10724968
v -0.9512441 -0.284913 -0.08922893
v -0.9240514 -0.32735145 -0.0544129
v -0.76015496 -0.46863106 -0.0008047223
v -0.50699174 -0.31114876 0.08200115
v -0.48302466 -0.69993335 0.079449475
v -0.10826084 -0.14238697 0.07203734
v -0.10826084 -0.4799106 0.07203734
v -0.47787446 -0.703103 0.07940054
v 0.1413795 -0.31114876 0.16022575
v -0.08698186 -0.8019743 0.07447398
v -0.19061717 -0.87726885 0.07308942
v -0.096054554 -0.93836546 0.0761441
v 0.074888274 -1.0440564 0.07518077
v 0.21274489 -0.9217377 0.07203746
v 0.23188996 -1.1432222 0.07715273
v 0.3432336 -1.2131112 0.077953756
v 0.43491483 -0.99392605 0.07203734
v 0.4920963 -0.8813399 0.116105676
v 0.16326672 -0.62016016 0.13055706
v 0.3854085 -0.45876664 0.20806074
v 0.3854085 -0.16353093 0.20806074
v 0.45039213 -0.7364683 0.16022629
v 0.55032295 -0.761289 0.15036488
v 0.64239615 -0.57056594 0.20278543
v 0.65393186 -0.5460166 0.20806086
v 0.6602801 -0.53179383 0.20955563
v 0.58858943 -0.31114876 0.2276696
v 0.7548908 -0.31114876 0.21468493
v 0.66619605 -0.07229605 0.20806086
v 0.78525126 -0.23615809 0.20806047
v 0.8546407 -0.05637522 0.17634216
v 0.88533306 0.029102907 0.15054342
v 0.9534359 0.21975388 0.09135312
v 0.9887117 0.3123811 0.072797656
v 0.99411136 0.32500356 0.07303178
v 0.38331664 -0.85061085 -0.4505129
v 0.3432336 -1.2131112 0.077953756
v 0.43491483 -0.99392605 0.07203734
v 0.4920963 -0.8813399 0.116105676
v 0.55032295 -0.761289 0.15036488
v 0.8302286 0.20328395 -0.45051265
v 0.38331664 -0.85061085 -0.4505129
v 0.64239615 -0.57056594 0.20278543
v 0.65393186 -0.5460166 0.20806086
v 0.6602801 -0.53179383 0.20955563
v 0.7548908 -0.31114876 0.21468493
v 0.78525126 -0.23615809 0.20806047
v 0.8546407 -0.05637522 0.17634216
v 0.88533306 0.029102907 0.15054342
v 0.9534359 0.21975388 0.09135312
v 0.9887117 0.3123811 0.072797656
v 0.99411136 0.32500356 0.07303178
v 0.99411136 0.32500356 0.07303178
v -0.095300436 1.1223023 -0.1337784
v -0.38974667 1.2100774 -0.45051205
v -0.0048056245 1.086527 -0.054412246
v 0.28909346 0.88882947 0.036790967
v 0.99411136 0.32500356 0.07303178
v 0.94285846 0.36745352 0.07333863
v 0.28909346 0.88882947 0.036790967
v 0.81350917 0.4746372 0.07421601
v 0.83813494 0.45688635 0.07945806
v 0.590176 0.66001415 0.07651323
v 0.44446567 0.7822124 0.08071011
v 0.38331664 -0.85061085 -0.4505129
v 0.8302286 0.20328395 -0.45051265
v -0.38974667 1.2100774 -0.45051205
v -0.81744933 -0.1033847 -0.45051157
v -0.42189682 1.1916405 -0.44777417
v -0.49629557 0.9494258 -0.4505123
v -0.82217664 -0.10040204 -0.45051146
v -0.85469747 0.19647427 -0.067934334
v -0.9304303 -0.20360376 -0.21752584
v -0.49629557 0.9494258 -0.4505123
v -0.7914248 0.3920493 -0.075567245
v -0.786951 0.4068787 -0.07515013
v -0.7699287 0.45405018 -0.08240962
v -0.63198835 0.78279316 -0.19240868
v -0.49365234 1.0623964 -0.35061502
v -0.42189682 1.1916405 -0.44777417
v -0.4464987 1.1512672 -0.4106961
v 0.3432336 -1.2131112 0.077953756
v 0.38331664 -0.85061085 -0.4505129
v -0.81744933 -0.1033847 -0.45051157
v -0.9512441 -0.284913 -0.08922893
v -0.9240514 -0.32735145 -0.0544129
v -0.76015496 -0.46863106 -0.0008047223
v -0.76015496 -0.46863106 -0.0008047223
v 0.074888274 -1.0440564 0.07518077
v 0.3432336 -1.2131112 0.077953756
v -0.19061717 -0.87726885 0.07308942
v -0.48302466 -0.69993335 0.079449475
vt 0.17659087 0.17659087
vt 1 1
vt 1 0.17706001
vt 0.7920373 0.7059409
vt 0.83610773 0.6408896
vt 1 0.93604505
vt 0.09933955 0.012928421
vt 1 0.935805
vt 1 0.2629123
vt 1 0.22285765
vt 1 0
vt 0.72056854 0
vt 0.7395436 0.18977912
vt 0.74197155 0.078725636
vt 0.74292517 0
vt 0.7408962 0.3105269
vt 0.73703533 0.37751472
vt 0.7454843 0.58548325
vt 0.7453366 0.58017087
vt 0.73703533 0.37751472
vt 1 0.5288452
vt 1 0.064436704
vt 0.82294 0
vt 0 0
vt 0.22285765 0.22285765
vt 1 0.27943146
vt 1 0
vt 0.6981581 0
vt 0.96672744 0.26896968
vt 0.9509293 0.2583889
vt 0.77942854 0.08728613
vt 0.42584044 0.6404531
vt 0.42845246 0.6419511
vt 0.45237485 0.6348198
vt 0.42384163 0.63717306
vt 0.44991437 0.6287249
vt 0.4175478 0.6080325
vt 0.4597271 0.63191324
vt 0.4200106 0.62995267
vt 0.40877146 0.60723627
vt 0.39756444 0.58052754
vt 0.48360506 0.6158512
vt 0.3961815 0.576695
vt 0.4804315 0.60301244
vt 0.4962283 0.6071891
vt 0.5080666 0.5972611
vt 0.45083544 0.5915385
vt 0.42538115 0.5783388
vt 0.50348234 0.5764402
vt 0.5262114 0.5822001
vt 0.5282121 0.5807579
vt 0.5211364 0.55898094
vt 0.5367204 0.57349193
vt 0.4206935 0.55005157
vt 0.395818 0.5754902
vt 0.4774021 0.5679661
vt 0.4530507 0.5582359
vt 0.49670976 0.5529139
vt 0.4733822 0.5434644
vt 0.38504267 0.5394365
vt 0.3906774 0.5596007
vt 0.38869312 0.55345964
vt 0.38455495 0.5401089
vt 0.38419318 0.5387242
vt 0.38347566 0.53545403
vt 0.3816899 0.5222895
vt 0.38283348 0.5204902
vt 0.38504273 0.5170423
vt 0.39835852 0.505564
vt 0.41892686 0.51835865
vt 0.42087406 0.48677173
vt 0.45132187 0.53206974
vt 0.45132187 0.50464755
vt 0.42129248 0.4865142
vt 0.471604 0.51835865
vt 0.4530507 0.4784814
vt 0.4446308 0.47236407
vt 0.4523136 0.46740025
vt 0.4662019 0.45881337
vt 0.4774021 0.4687512
vt 0.47895753 0.4507566
vt 0.48800373 0.44507846
vt 0.49545234 0.4628862
vt 0.50009805 0.4720333
vt 0.4733822 0.49325296
vt 0.4914302 0.5063654
vt 0.4914302 0.5303519
vt 0.49670976 0.48380342
vt 0.50482863 0.48178685
vt 0.5123092 0.4972822
vt 0.5132464 0.49927673
vt 0.5137622 0.50043225
vt 0.50793767 0.51835865
vt 0.5214489 0.5183587
vt 0.5142428 0.5377644
vt 0.5239155 0.5244513
vt 0.5295531 0.5390578
vt 0.53204674 0.5460025
vt 0.5375797 0.56149197
vt 0.54044574 0.5690175
vt 0.5408845 0.5700431
vt 1 0.93604505
vt 1 0.25707486
vt 0.7865851 0.051215056
vt 0.7920373 0.7059409
vt 0.83610773 0.6408896
vt 0.06419498 0
vt 1 0.93604505
vt 0.9035423 0.5372722
vt 0.91033036 0.5237361
vt 0.91225624 0.51568335
vt 0.9189231 0.3883191
vt 0.91043466 0.3439027
vt 0.8697318 0.23528178
vt 0.83660436 0.18219146
vt 0.7605983 0.06355618
vt 0.73678243 0.0072941445
vt 0.73708767 0
vt 1 0.2629123
vt 0.6376425 0.22835432
vt 0.09933955 0.012928421
vt 0.7652284 0.29299688
vt 0.82889146 0.48842734
vt 1 0.2629123
vt 0.9578337 0.22035025
vt 0.82889146 0.48842734
vt 0.8513919 0.1127772
vt 0.8702652 0.124914646
vt 0.7810178 0.6839555
vt 0.8535015 0.59136915
vt 0.49126038 0.4745297
vt 0.5275694 0.56015426
vt 0.42845246 0.6419511
vt 0.39370364 0.53523844
vt 0.42598853 0.6406957
vt 0.41979584 0.6207744
vt 0.39331952 0.5354808
vt 0.6981581 0.6981581
vt 1 1
vt 1 0.17659087
vt 0.6563906 0.55626106
vt 0.6519197 0.5454307
vt 0.6489428 0.5115863
vt 0.7060182 0.2798714
vt 0.83924454 0.08732186
vt 0.93582046 0
vt 0.8944213 0.026806585
vt 0.74292517 0
vt 0.06395495 0
vt 0.064436704 0.064436704
vt 0.5288452 0.5288452
vt 0.60738045 0.57358384
vt 0.83113945 0.64242554
vt 0.83113945 0.64242554
vt 0.7395436 0.18977912
vt 0.74292517 0
vt 0.73703533 0.37751472
vt 0.7454843 0.58548325
vn -0.9115896 0.28296974 -0.29821566
vn -0.9115896 0.28296974 -0.29821566
vn -0.9115896 0.28296974 -0.29821566
vn 0.9032064 -0.38288537 -0.19395088
vn 0.9032064 -0.38288537 -0.19395088
vn 0.9032064 -0.38288537 -0.19395088
vn 0.59524876 0.72143483 -0.3538514
vn 0.59524876 0.72143483 -0.3538514
vn 0.59524876 0.72143483 -0.3538514
vn -0.962226 0.16776597 -0.21441947
vn -0.962226 0.16776597 -0.21441947
vn -0.962226 0.16776597 -0.21441947
vn -0.44859734 -0.72082084 -0.52837265
vn -0.44859734 -0.72082084 -0.52837265
vn -0.44859734 -0.72082084 -0.52837265
vn -0.44859734 -0.72082084 -0.52837265
vn -0.44859734 -0.72082084 -0.52837265
vn -0.44859734 -0.72082084 -0.52837265
vn -0.44859734 -0.72082084 -0.52837265
vn -0.44859734 -0.72082084 -0.52837265
vn -0.45300502 -0.71796054 -0.52850646
vn -0.45300502 -0.71796054 -0.52850646
vn -0.45300502 -0.71796054 -0.52850646
vn -0.45300502 -0.71796054 -0.52850646
vn -0.45300502 -0.71796054 -0.52850646
vn -0.9123688 0.28322595 -0.29557788
vn -0.9123688 0.28322595 -0.29557788
vn -0.9123688 0.28322595 -0.29557788
vn -0.9123688 0.28322595 -0.29557788
vn -0.9123688 0.28322595 -0.29557788
vn -0.9123688 0.28322595 -0.29557788
vn -0.40126625 0.78724235 -0.46822533
vn -0.40846515 0.8013657 -0.43700033
vn -0.33088914 0.745584 0.5784609
vn -0.41134164 0.70594627 0.57657415
vn -0.27485606 0.53494084 0.7989321
vn -0.45345706 0.46505448 0.76032954
vn -0.14496617 0.4462211 0.8831034
vn -0.47802305 0.64566535 0.59549165
vn -0.62641996 0.53431106 0.5675472
vn -0.4101186 0.2979601 0.8619876
vn -0.08652306 0.29372066 0.95196736
vn -0.37718555 0.1615376 0.91194123
vn -0.045411814 0.13977562 0.98914135
vn -0.011902242 0.07010115 0.99746895
vn 0.006531052 -0.01889122 0.99980026
vn -0.096257195 0.1442332 0.9848509
vn -0.21106711 0.1533563 0.9653665
vn -0.019989854 0.12280789 0.99222916
vn -0.043428414 0.14099738 0.9890569
vn 0.028688285 0.17817257 0.98358095
vn 0.0748942 0.23054227 0.97017586
vn 0.15906522 0.1228086 0.9796
vn -0.16693889 0.04696873 0.98484784
vn -0.35985366 0.10709241 0.9268422
vn -0.05600204 0.11111903 0.992228
vn -0.04355055 0.03164816 0.99854976
vn -0.08115085 0.24977009 0.96489865
vn -0.19608736 0.14246471 0.97018224
vn -0.5936913 0.09610517 0.7989334
vn -0.32743526 0.1423698 0.9340862
vn -0.3390966 0.14514837 0.9294867
vn -0.78596705 0.19529387 0.5866141
vn -0.7981842 0.033449695 0.6014841
vn -0.7881016 0 0.61554515
vn -0.7881016 0 0.61554515
vn -0.7881016 0 0.61554515
vn -0.45150557 0 0.8922683
vn -0.3055271 -0.009491452 0.95213604
vn -0.14710166 -0.00033570916 0.98912126
vn -0.06943045 -0.005676511 0.9975706
vn -0.122990794 0.01892166 0.99222744
vn -0.122990794 -0.01892166 0.99222744
vn 0.013916604 0.0051882076 0.99988973
vn -0.262619 0 0.96489966
vn -0.04355055 -0.03164816 0.99854976
vn -0.0051882262 -0.011200465 0.9999238
vn 0.00039674735 0.0122076105 0.9999254
vn 0.008362208 0.016236112 0.9998332
vn -0.05600204 -0.11111903 0.992228
vn 0.006073234 0.023591004 0.9997032
vn 0.0076908506 0.023743976 0.9996885
vn -0.0524006 -0.16132182 0.98550975
vn -0.07449842 -0.31007951 0.9477872
vn -0.19608736 -0.14246471 0.97018224
vn -0.14200369 -0.10318386 0.98447347
vn -0.14200369 0.10318386 0.98447347
vn -0.08115085 -0.24977009 0.96489865
vn 0.025056146 -0.28031757 0.95958024
vn -0.048373554 -0.19526437 0.9795569
vn -0.04351992 -0.13394736 0.99003243
vn -0.0049745804 -0.08340816 0.9965031
vn -0 0 1
vn 0.07782285 0.014282781 0.99686486
vn 0.054231875 0.16693774 0.9844749
vn 0.10281774 0.074709944 0.99189055
vn 0.14673561 0.19510832 0.96974295
vn 0.14371307 0.24091548 0.95984703
vn 0.16245198 0.16910508 0.9721177
vn 0.10880043 0.080844976 0.9907706
vn -0.0068972358 -0.015564558 0.99985504
vn 0.9032064 -0.38288537 -0.19395088
vn 0.9032064 -0.38288537 -0.19395088
vn 0.9032064 -0.38288537 -0.19395088
vn 0.9032064 -0.38288537 -0.19395088
vn 0.9032064 -0.38288537 -0.19395088
vn 0.9032064 -0.38288537 -0.19395088
vn 0.9032064 -0.38288537 -0.19395088
vn 0.9032064 -0.38288537 -0.19395088
vn 0.9032064 -0.38288537 -0.19395088
vn 0.9032064 -0.38288537 -0.19395088
vn 0.9032064 -0.38288537 -0.19395088
vn 0.9032064 -0.38288537 -0.19395088
vn 0.9032064 -0.38288537 -0.19395088
vn 0.9032064 -0.38288537 -0.19395088
vn 0.9032064 -0.38288537 -0.19395088
vn 0.9032064 -0.38288537 -0.19395088
vn 0.9032064 -0.38288537 -0.19395088
vn 0.59524876 0.72143483 -0.3538514
vn 0.59524876 0.72143483 -0.3538514
vn 0.59524876 0.72143483 -0.3538514
vn 0.59524876 0.72143483 -0.3538514
vn 0.59524876 0.72143483 -0.3538514
vn 0.59524876 0.72143483 -0.3538514
vn 0.59524876 0.72143483 -0.3538514
vn 0.59524876 0.72143483 -0.3538514
vn 0.59524876 0.72143483 -0.3538514
vn 0.59524876 0.72143483 -0.3538514
vn 0.59524876 0.72143483 -0.3538514
vn 0.59524876 0.72143483 -0.3538514
vn -0.00018311664 6.103888E-05 -1
vn -0.00018311106 6.103702E-05 -1
vn -0.40846515 0.8013657 -0.43700033
vn -0.00018311106 6.103702E-05 -1
vn -0.40126625 0.78724235 -0.46822533
vn -0.00018311106 6.103702E-05 -1
vn -0.00018311106 6.103702E-05 -1
vn -0.91200566 0.28348303 -0.29645085
vn -0.91200566 0.28348303 -0.29645085
vn -0.91200566 0.28348303 -0.29645085
vn -0.91200566 0.28348303 -0.29645085
vn -0.91200566 0.28348303 -0.29645085
vn -0.91200566 0.28348303 -0.29645085
vn -0.91200566 0.28348303 -0.29645085
vn -0.91200566 0.28348303 -0.29645085
vn -0.91200566 0.28348303 -0.29645085
vn -0.91200566 0.28348303 -0.29645085
vn -0.44859734 -0.72082084 -0.52837265
vn -0.44859734 -0.72082084 -0.52837265
vn -0.44859734 -0.72082084 -0.52837265
vn -0.44859734 -0.72082084 -0.52837265
vn -0.44859734 -0.72082084 -0.52837265
vn -0.44859734 -0.72082084 -0.52837265
vn -0.44859734 -0.72082084 -0.52837265
vn -0.44859734 -0.72082084 -0.52837265
vn -0.44859734 -0.72082084 -0.52837265
vn -0.44859734 -0.72082084 -0.52837265
vn -0.44859734 -0.72082084 -0.52837265
g FracturedGround_cell.006_0
f 3/3/3 2/2/2 1/1/1
f 6/6/6 5/5/5 4/4/4
f 9/9/9 8/8/8 7/7/7
f 12/12/12 11/11/11 10/10/10
f 15/15/15 14/14/14 13/13/13
f 17/17/17 13/13/13 16/16/16
f 20/20/20 19/19/19 18/18/18
f 23/23/23 22/22/22 21/21/21
f 21/21/21 24/24/24 23/23/23
f 21/21/21 25/25/25 24/24/24
f 28/28/28 27/27/27 26/26/26
f 26/26/26 29/29/29 28/28/28
f 29/29/29 30/30/30 28/28/28
f 30/30/30 31/31/31 28/28/28
f 34/34/34 33/33/33 32/32/32
f 32/32/32 35/35/35 34/34/34
f 35/35/35 36/36/36 34/34/34
f 37/37/37 36/36/36 35/35/35
f 34/34/34 36/36/36 38/38/38
f 39/39/39 37/37/37 35/35/35
f 40/40/40 37/37/37 39/39/39
f 40/40/40 41/41/41 37/37/37
f 38/38/38 36/36/36 42/42/42
f 41/41/41 43/43/43 37/37/37
f 36/36/36 44/44/44 42/42/42
f 42/42/42 44/44/44 45/45/45
f 45/45/45 44/44/44 46/46/46
f 37/37/37 47/47/47 36/36/36
f 47/47/47 44/44/44 36/36/36
f 43/43/43 48/48/48 37/37/37
f 48/48/48 47/47/47 37/37/37
f 44/44/44 49/49/49 46/46/46
f 46/46/46 49/49/49 50/50/50
f 50/50/50 49/49/49 51/51/51
f 49/49/49 52/52/52 51/51/51
f 53/53/53 51/51/51 52/52/52
f 54/54/54 48/48/48 43/43/43
f 55/55/55 54/54/54 43/43/43
f 47/47/47 56/56/56 44/44/44
f 44/44/44 56/56/56 49/49/49
f 48/48/48 57/57/57 47/47/47
f 54/54/54 57/57/57 48/48/48
f 47/47/47 57/57/57 56/56/56
f 56/56/56 58/58/58 49/49/49
f 49/49/49 58/58/58 52/52/52
f 57/57/57 59/59/59 56/56/56
f 56/56/56 59/59/59 58/58/58
f 60/60/60 54/54/54 55/55/55
f 55/55/55 61/61/61 60/60/60
f 61/61/61 62/62/62 60/60/60
f 63/63/63 60/60/60 62/62/62
f 64/64/64 60/60/60 63/63/63
f 60/60/60 64/64/64 65/65/65
f 60/60/60 65/65/65 66/66/66
f 60/60/60 66/66/66 67/67/67
f 67/67/67 68/68/68 60/60/60
f 68/68/68 69/69/69 60/60/60
f 69/69/69 70/70/70 60/60/60
f 70/70/70 54/54/54 60/60/60
f 71/71/71 70/70/70 69/69/69
f 70/70/70 72/72/72 54/54/54
f 54/54/54 72/72/72 57/57/57
f 72/72/72 59/59/59 57/57/57
f 71/71/71 73/73/73 70/70/70
f 70/70/70 73/73/73 72/72/72
f 71/71/71 74/74/74 73/73/73
f 72/72/72 75/75/75 59/59/59
f 73/73/73 75/75/75 72/72/72
f 74/74/74 76/76/76 73/73/73
f 77/77/77 76/76/76 74/74/74
f 78/78/78 76/76/76 77/77/77
f 78/78/78 79/79/79 76/76/76
f 79/79/79 80/80/80 76/76/76
f 81/81/81 80/80/80 79/79/79
f 81/81/81 82/82/82 80/80/80
f 82/82/82 83/83/83 80/80/80
f 83/83/83 84/84/84 80/80/80
f 76/76/76 85/85/85 73/73/73
f 80/80/80 85/85/85 76/76/76
f 73/73/73 85/85/85 75/75/75
f 85/85/85 86/86/86 75/75/75
f 75/75/75 87/87/87 59/59/59
f 75/75/75 86/86/86 87/87/87
f 59/59/59 87/87/87 58/58/58
f 84/84/84 88/88/88 80/80/80
f 80/80/80 88/88/88 85/85/85
f 88/88/88 86/86/86 85/85/85
f 84/84/84 89/89/89 88/88/88
f 89/89/89 90/90/90 88/88/88
f 88/88/88 90/90/90 86/86/86
f 90/90/90 91/91/91 86/86/86
f 91/91/91 92/92/92 86/86/86
f 92/92/92 93/93/93 86/86/86
f 86/86/86 93/93/93 87/87/87
f 94/94/94 93/93/93 92/92/92
f 58/58/58 87/87/87 95/95/95
f 87/87/87 93/93/93 95/95/95
f 95/95/95 93/93/93 94/94/94
f 96/96/96 95/95/95 94/94/94
f 97/97/97 95/95/95 96/96/96
f 58/58/58 95/95/95 52/52/52
f 52/52/52 95/95/95 97/97/97
f 98/98/98 52/52/52 97/97/97
f 99/99/99 52/52/52 98/98/98
f 53/53/53 52/52/52 99/99/99
f 99/99/99 100/100/100 53/53/53
f 101/101/101 53/53/53 100/100/100
f 104/104/104 103/103/103 102/102/102
f 102/102/102 105/105/105 104/104/104
f 108/108/108 107/107/107 106/106/106
f 107/107/107 109/109/109 106/106/106
f 107/107/107 110/110/110 109/109/109
f 107/107/107 111/111/111 110/110/110
f 107/107/107 112/112/112 111/111/111
f 107/107/107 113/113/113 112/112/112
f 107/107/107 114/114/114 113/113/113
f 107/107/107 115/115/115 114/114/114
f 107/107/107 116/116/116 115/115/115
f 107/107/107 117/117/117 116/116/116
f 107/107/107 118/118/118 117/117/117
f 121/121/121 120/120/120 119/119/119
f 120/120/120 122/122/122 119/119/119
f 122/122/122 123/123/123 119/119/119
f 126/126/126 125/125/125 124/124/124
f 126/126/126 127/127/127 125/125/125
f 125/125/125 127/127/127 128/128/128
f 126/126/126 129/129/129 127/127/127
f 126/126/126 130/130/130 129/129/129
f 133/133/133 132/132/132 131/131/131
f 131/131/131 134/134/134 133/133/133
f 134/134/134 135/135/135 133/133/133
f 134/134/134 136/136/136 135/135/135
f 134/134/134 137/137/137 136/136/136
f 140/140/140 139/139/139 138/138/138
f 138/138/138 141/141/141 140/140/140
f 141/141/141 142/142/142 140/140/140
f 142/142/142 143/143/143 140/140/140
f 143/143/143 144/144/144 140/140/140
f 144/144/144 145/145/145 140/140/140
f 145/145/145 146/146/146 140/140/140
f 145/145/145 147/147/147 146/146/146
f 150/150/150 149/149/149 148/148/148
f 148/148/148 151/151/151 150/150/150
f 148/148/148 152/152/152 151/151/151
f 148/148/148 153/153/153 152/152/152
f 156/156/156 155/155/155 154/154/154
f 155/155/155 157/157/157 154/154/154
f 158/158/158 154/154/154 157/157/157
