g golemBridgeChunk.002
v -0.06952709 1.8491755 -0.18467394
v 0.5748269 1.7712319 -0.3001361
v 1.1146111 1.8425587 -0.26698124
v 1.1555215 1.2050302 -0.07046304
v 1.052783 1.1390159 -0.057694536
v 1.0423802 1.1561351 -0.013349147
v -0.06952709 1.8491755 -0.18467394
v -0.15704893 1.8791883 0.026643984
v -1.014639 1.8759059 0.026226781
v -0.8983809 1.7898413 -0.2686477
v -0.15704893 1.8791883 0.026643984
v -0.06952709 1.8491755 -0.18467394
v 1.1146111 1.8425587 -0.26698124
v 1.1041524 1.8548619 -0.018524995
v -0.06952709 1.8491755 -0.18467394
v -0.8983809 1.7898413 -0.2686477
v -0.7964312 1.6563658 -0.31616428
v -0.03190309 1.5850073 -0.30342248
v -0.15704893 1.8791883 0.026643984
v -0.111903034 1.9720947 0.41088808
v -0.9857201 1.9920892 0.43228686
v -1.014639 1.8759059 0.026226781
v -0.8983809 1.7898413 -0.2686477
v -1.014639 1.8759059 0.026226781
v -0.9958394 1.7717301 0.23526306
v -0.7964312 1.6563658 -0.31616428
v -0.03190309 1.5850073 -0.30342248
v 0.11878848 1.6151427 -0.30668977
v 0.5748269 1.7712319 -0.3001361
v -0.06952709 1.8491755 -0.18467394
v -0.11539679 1.1364993 -0.050137054
v -0.025441531 1.2410213 0.29776844
v 1.0281584 1.2361022 0.24193138
v 1.0423802 1.1561351 -0.013349147
v 0.62572974 1.874282 0.42128348
v 0.52920043 1.369813 0.638155
v -0.18429075 1.352472 0.6252231
v 0.11341767 1.8399458 0.42119205
v -0.7964312 1.6563658 -0.31616428
v -0.9958394 1.7717301 0.23526306
v -1.0083079 1.5325826 0.021878289
v -0.9619606 1.4289232 -0.17827412
v 0.11341767 1.8399458 0.42119205
v -0.9812761 1.8744642 0.4488061
v -0.9857201 1.9920892 0.43228686
v -0.111903034 1.9720947 0.41088808
v -0.15704893 1.8791883 0.026643984
v 1.1041524 1.8548619 -0.018524995
v 1.0843209 1.9279946 0.29747805
v -0.111903034 1.9720947 0.41088808
v 0.45688364 1.9630092 0.41507912
v -0.9619606 1.4289232 -0.17827412
v -1.0083079 1.5325826 0.021878289
v -0.99271494 1.3550446 0.15005718
v -0.94912463 1.3165429 -0.11687766
v -0.11539679 1.1364993 -0.050137054
v 0.05685172 1.2790855 -0.13667837
v -0.03190309 1.5850073 -0.30342248
v -0.7964312 1.6563658 -0.31616428
v -0.82911813 1.1522963 -0.031327963
v -0.9619606 1.4289232 -0.17827412
v -0.94912463 1.3165429 -0.11687766
v -0.94912463 1.3165429 -0.11687766
v -0.99271494 1.3550446 0.15005718
v -0.9650206 1.2956605 0.44597703
v -0.82911813 1.1522963 -0.031327963
v -0.9812761 1.8744642 0.4488061
v 0.11341767 1.8399458 0.42119205
v -0.18429075 1.352472 0.6252231
v -0.9603755 1.5152817 0.59044474
v -0.9515305 1.3630553 0.6503542
v -0.9694751 1.6715288 0.5289638
v 1.1555215 1.2050302 -0.07046304
v 1.16121 1.3206708 -0.10725699
v 1.1473588 1.4713471 -0.15439612
v 1.052783 1.1390159 -0.057694536
v 1.131574 1.6586006 -0.21577412
v 1.1146111 1.8425587 -0.26698124
v 0.5748269 1.7712319 -0.3001361
v 0.7423434 1.136021 -0.06999982
v 0.61027265 1.275091 -0.13883254
v 0.11878848 1.6151427 -0.30668977
v -0.82911813 1.1522963 -0.031327963
v -0.9650206 1.2956605 0.44597703
v -0.025441531 1.2410213 0.29776844
v -0.11539679 1.1364993 -0.050137054
v -0.9515305 1.3630553 0.6503542
v -0.9650206 1.2956605 0.44597703
v -0.99271494 1.3550446 0.15005718
v -1.0083079 1.5325826 0.021878289
v -0.9603755 1.5152817 0.59044474
v -0.9694751 1.6715288 0.5289638
v -0.9958394 1.7717301 0.23526306
v -0.9812761 1.8744642 0.4488061
v -1.014639 1.8759059 0.026226781
v -0.9857201 1.9920892 0.43228686
v 1.149 1.354607 0.11529603
v 1.16121 1.3206708 -0.10725699
v 1.1555215 1.2050302 -0.07046304
v 1.1473218 1.2930853 0.18587755
v -0.18429075 1.352472 0.6252231
v -0.025441531 1.2410213 0.29776844
v -0.9650206 1.2956605 0.44597703
v -0.9515305 1.3630553 0.6503542
v 0.45688364 1.9630092 0.41507912
v 1.0843209 1.9279946 0.29747805
v 1.0920593 1.8268175 0.34727207
v 0.62572974 1.874282 0.42128348
v 0.62572974 1.874282 0.42128348
v 0.11341767 1.8399458 0.42119205
v -0.111903034 1.9720947 0.41088808
v 0.45688364 1.9630092 0.41507912
v -0.11539679 1.1364993 -0.050137054
v 0.7423434 1.136021 -0.06999982
v 0.61027265 1.275091 -0.13883254
v 0.05685172 1.2790855 -0.13667837
v 0.05685172 1.2790855 -0.13667837
v 0.61027265 1.275091 -0.13883254
v 0.11878848 1.6151427 -0.30668977
v -0.03190309 1.5850073 -0.30342248
v 1.0920593 1.8268175 0.34727207
v 1.1267059 1.4024253 0.50916976
v 1.023285 1.3469868 0.5511114
v 0.62572974 1.874282 0.42128348
v 0.52920043 1.369813 0.638155
v 1.023285 1.3469868 0.5511114
v 1.0281584 1.2361022 0.24193138
v -0.025441531 1.2410213 0.29776844
v -0.18429075 1.352472 0.6252231
v 0.52920043 1.369813 0.638155
v 1.052783 1.1390159 -0.057694536
v 0.7423434 1.136021 -0.06999982
v -0.11539679 1.1364993 -0.050137054
v 1.0423802 1.1561351 -0.013349147
v 1.023285 1.3469868 0.5511114
v 1.1267059 1.4024253 0.50916976
v 1.1473218 1.2930853 0.18587755
v 1.0281584 1.2361022 0.24193138
v 1.0281584 1.2361022 0.24193138
v 1.1473218 1.2930853 0.18587755
v 1.1555215 1.2050302 -0.07046304
v 1.0423802 1.1561351 -0.013349147
v 1.1473588 1.4713471 -0.15439612
v 1.16121 1.3206708 -0.10725699
v 1.149 1.354607 0.11529603
v 1.1267059 1.4024253 0.50916976
v 1.1473218 1.2930853 0.18587755
v 1.0920593 1.8268175 0.34727207
v 1.131574 1.6586006 -0.21577412
v 1.1146111 1.8425587 -0.26698124
v 1.1041524 1.8548619 -0.018524995
v 1.0843209 1.9279946 0.29747805
vt 0.06761923 0.32267946
vt 0.025810298 0.5424226
vt 0.047453996 0.7257783
vt 0.51801187 0.71563345
vt 0.52236724 0.67689276
vt 0.50626427 0.673151
vt 0.06761923 0.32267946
vt 0.13858204 0.29154384
vt 0.13292752 0
vt 0.029110953 0.041405067
vt 0.13858204 0.29154384
vt 0.06761923 0.32267946
vt 0.047453996 0.7257783
vt 0.12896949 0.72057396
vt 0.06761923 0.32267946
vt 0.029110953 0.041405067
vt 0 0.07624201
vt 0.0010351763 0.3359885
vt 0.13858204 0.29154384
vt 0.2729749 0.3044185
vt 0.27677655 0.0072365943
vt 0.13292752 0
vt 0.5102623 0.9687011
vt 0.5102623 0.8622194
vt 0.45389906 0.8059979
vt 0.4691399 0.99999994
vt 0.0010351763 0.3359885
vt 0.004133591 0.38727036
vt 0.025810298 0.5424226
vt 0.06761923 0.32267946
vt 0.5289738 0.28785175
vt 0.40481946 0.31369627
vt 0.41538355 0.66562986
vt 0.50626427 0.673151
vt 0.808736 0.5478551
vt 0.9948551 0.51444346
vt 1 0.2728077
vt 0.8204779 0.3743278
vt 0.4691399 0.99999994
vt 0.45389906 0.8059979
vt 0.39997843 0.8997126
vt 0.38643223 0.9760989
vt 0.8204779 0.3743278
vt 0.81332886 0.0020853928
vt 0.77342415 0
vt 0.7767394 0.29706112
vt 0.13858204 0.29154384
vt 0.12896949 0.72057396
vt 0.23879871 0.7117949
vt 0.2729749 0.3044185
vt 0.27677655 0.49774364
vt 0.38643223 0.9760989
vt 0.39997843 0.8997126
vt 0.3286923 0.8772238
vt 0.34331483 0.96829504
vt 0.5574756 0.27865428
vt 0.6093668 0.34129035
vt 0.72983164 0.3201647
vt 0.77342415 0.06288229
vt 0.5781005 0.036958307
vt 0.6878329 0
vt 0.64407325 0.0010579777
vt 0.34331483 0.96829504
vt 0.3286923 0.8772238
vt 0.2772332 0.78842694
vt 0.2775674 0.9601992
vt 0.81332886 0.0020853928
vt 0.8204779 0.3743278
vt 1 0.2728077
vt 0.94444376 0.008977914
vt 1 0.011897173
vt 0.8874213 0.0059741023
vt 0.54837704 0.71138173
vt 0.5890263 0.71650267
vt 0.64242584 0.7159608
vt 0.52897376 0.67479193
vt 0.7091631 0.7157926
vt 0.7734241 0.7150661
vt 0.77053183 0.5305239
vt 0.537946 0.5695677
vt 0.5940674 0.5288176
vt 0.7356119 0.37203464
vt 0.5264538 0.0508185
vt 0.35806403 0
vt 0.40481946 0.31369627
vt 0.5289738 0.28785175
vt 0.27677655 0.71563345
vt 0.2772332 0.78842694
vt 0.3286923 0.8772238
vt 0.39997843 0.8997126
vt 0.33244085 0.71886003
vt 0.3895748 0.7221679
vt 0.45389906 0.8059979
vt 0.463813 0.7265633
vt 0.5102623 0.8622194
vt 0.50358367 0.719489
vt 0.605279 0.9157767
vt 0.5296928 0.90232444
vt 0.52897376 0.9435162
vt 0.6212908 0.9433113
vt 0.28826398 0.25782967
vt 0.40481946 0.31369627
vt 0.35806403 0
vt 0.28472698 0.0024677499
vt 0.779462 0.49000368
vt 0.7781645 0.70566976
vt 0.81610173 0.7080263
vt 0.808736 0.5478551
vt 0.808736 0.5478551
vt 0.8204779 0.3743278
vt 0.7767394 0.29706112
vt 0.779462 0.49000368
vt 0.5574756 0.27865428
vt 0.537946 0.5695677
vt 0.5940674 0.5288176
vt 0.6093668 0.34129035
vt 0.6093668 0.34129035
vt 0.5940674 0.5288176
vt 0.7356119 0.37203464
vt 0.72983164 0.3201647
vt 0.81610173 0.7080263
vt 0.9704547 0.7196636
vt 0.992856 0.68411547
vt 0.808736 0.5478551
vt 0.9948551 0.51444346
vt 0.30359098 0.6615159
vt 0.41538355 0.66562986
vt 0.40481946 0.31369627
vt 0.28826398 0.25782967
vt 0.27677655 0.49590388
vt 0.52236724 0.67689276
vt 0.52897376 0.57379913
vt 0.5289738 0.28785175
vt 0.50626427 0.673151
vt 0.30359098 0.6615159
vt 0.30979544 0.70071167
vt 0.4258068 0.71059394
vt 0.41538355 0.66562986
vt 0.41538355 0.66562986
vt 0.4258068 0.71059394
vt 0.51801187 0.71563345
vt 0.50626427 0.673151
vt 0.5312838 0.8485591
vt 0.5296928 0.90232444
vt 0.605279 0.9157767
vt 0.73772293 0.94351614
vt 0.6212908 0.9433113
vt 0.7327469 0.78891605
vt 0.5323345 0.7814467
vt 0.53632015 0.71650267
vt 0.61784214 0.7397763
vt 0.7279465 0.750832
vn -0.01913528 0.41307178 -0.9104975
vn -0.056856543 0.6489214 -0.7587281
vn -0.046450876 0.68824816 -0.7239867
vn 0.5149567 -0.7966523 0.3164879
vn 0.52844405 -0.7429651 0.4107916
vn 0.2606688 -0.90698457 0.33080307
vn -0.004669468 0.98928636 -0.14591326
vn -0.0015259328 0.97714627 -0.21256243
vn -0.0074466416 0.9692842 -0.24583071
vn -0.024445998 0.9722243 -0.23277105
vn -0.0015259328 0.97714627 -0.21256243
vn -0.004669468 0.98928636 -0.14591326
vn 0.007904315 0.9959132 -0.0899688
vn 0.010101684 0.9877373 -0.1557979
vn -0.01913528 0.41307178 -0.9104975
vn 0.05847449 0.40248516 -0.91355705
vn 0.05847449 0.40248516 -0.91355705
vn -0.032502715 0.39522082 -0.91801095
vn -0.0015259328 0.97714627 -0.21256243
vn 0.009583063 0.9703005 -0.24171294
vn 0.006195421 0.9665772 -0.25630116
vn -0.0074466416 0.9692842 -0.24583071
vn -0.8228877 -0.5394259 -0.17853701
vn -0.8228877 -0.5394259 -0.17853701
vn -0.8228877 -0.5394259 -0.17853701
vn -0.8228877 -0.5394259 -0.17853701
vn -0.032502715 0.39522082 -0.91801095
vn -0.11349933 0.38597095 -0.91550225
vn -0.056856543 0.6489214 -0.7587281
vn -0.01913528 0.41307178 -0.9104975
vn -0.0029603494 -0.9572 0.2894123
vn 0.0039369646 -0.95125 0.30839556
vn 0.2733309 -0.90917003 0.3141657
vn 0.2606688 -0.90698457 0.33080307
vn 0.124274656 0.37840903 0.91725814
vn 0.06409083 0.38472813 0.9208022
vn 0.014679682 0.37855878 0.9254609
vn -0.0029908752 0.24006352 0.9707526
vn -0.8394038 0.38265145 -0.38597804
vn -0.8394038 0.38265145 -0.38597804
vn -0.8394038 0.38265145 -0.38597804
vn -0.8394038 0.38265145 -0.38597804
vn -0.0029908752 0.24006352 0.9707526
vn 0.031892486 0.24674712 0.968555
vn 0.028322075 0.13245453 0.9907843
vn 0.022797972 0.12143658 0.9923374
vn -0.0015259328 0.97714627 -0.21256243
vn 0.010101684 0.9877373 -0.1557979
vn 0.012512944 0.9733849 -0.22883429
vn 0.009583063 0.9703005 -0.24171294
vn 0.012512944 0.9733849 -0.22883429
vn -0.9743732 -0.1819835 -0.13220738
vn -0.99438417 -0.1033388 -0.022828536
vn -0.94730175 -0.3201111 -0.012176978
vn -0.9243083 -0.36882606 -0.098089114
vn -0.029908467 -0.48665348 -0.87308306
vn -0.014343951 -0.47551724 -0.8795894
vn -0.014984628 -0.47291604 -0.88098013
vn -0.0346089 -0.48833945 -0.8719672
vn -0.0346089 -0.48833945 -0.8719672
vn -0.0346089 -0.48833945 -0.8719672
vn -0.0346089 -0.48833945 -0.8719672
vn -0.9243083 -0.36882606 -0.098089114
vn -0.94730175 -0.3201111 -0.012176978
vn -0.7966947 -0.6027168 -0.044832192
vn -0.7966947 -0.6027168 -0.044832192
vn 0.031892486 0.24674712 0.968555
vn -0.0029908752 0.24006352 0.9707526
vn 0.014679682 0.37855878 0.9254609
vn 0.03531062 0.36784694 0.92921567
vn 0.03531062 0.36784694 0.92921567
vn 0.03531062 0.36784694 0.92921567
vn 0.08942105 -0.30235305 -0.94899243
vn 0.08942105 -0.30235305 -0.94899243
vn 0.08942105 -0.30235305 -0.94899243
vn 0.08942105 -0.30235305 -0.94899243
vn 0.08942105 -0.30235305 -0.94899243
vn 0.08942105 -0.30235305 -0.94899243
vn 0.08942105 -0.30235305 -0.94899243
vn 0.06070294 -0.35365793 -0.9334031
vn 0.040132787 -0.39085978 -0.9195749
vn 0.033448573 -0.40992817 -0.9115042
vn -0.011780345 -0.9578396 0.28706196
vn -0.0071110176 -0.952205 0.305377
vn 0.0039369646 -0.95125 0.30839556
vn -0.0029603494 -0.9572 0.2894123
vn -0.99629575 -0.02655161 0.08179116
vn -0.99629575 -0.02655161 0.08179116
vn -0.94730175 -0.3201111 -0.012176978
vn -0.99438417 -0.1033388 -0.022828536
vn -0.99629575 -0.02655161 0.08179116
vn -0.99629575 -0.02655161 0.08179116
vn -0.99629575 -0.02655161 0.08179116
vn -0.99629575 -0.02655161 0.08179116
vn -0.99629575 -0.02655161 0.08179116
vn -0.99629575 -0.02655161 0.08179116
vn 0.99818724 0.041475415 0.04361175
vn 0.9979603 0.046846148 0.04336702
vn 0.9988477 -0.013611357 0.04602225
vn 0.99728954 0.059877656 0.04275667
vn 0.0028993362 -0.9461907 0.32359642
vn 0.0039369646 -0.95125 0.30839556
vn -0.0071110176 -0.952205 0.305377
vn -0.0039369413 -0.94816196 0.31776303
vn 0.024048971 0.12228963 0.9922031
vn 0.18711364 0.43386197 0.88133556
vn 0.1832359 0.39549536 0.9000045
vn 0.124274656 0.37840903 0.91725814
vn 0.124274656 0.37840903 0.91725814
vn -0.0029908752 0.24006352 0.9707526
vn 0.022797972 0.12143658 0.9923374
vn 0.024048971 0.12228963 0.9922031
vn -0.029908467 -0.48665348 -0.87308306
vn 0.06070294 -0.35365793 -0.9334031
vn 0.040132787 -0.39085978 -0.9195749
vn -0.014343951 -0.47551724 -0.8795894
vn -0.014343951 -0.47551724 -0.8795894
vn 0.040132787 -0.39085978 -0.9195749
vn 0.033448573 -0.40992817 -0.9115042
vn -0.014984628 -0.47291604 -0.88098013
vn 0.1832359 0.39549536 0.9000045
vn 0.17954594 0.3611367 0.91506475
vn 0.17954594 0.3611367 0.91506475
vn 0.124274656 0.37840903 0.91725814
vn 0.06409083 0.38472813 0.9208022
vn 0.25181416 -0.9098393 0.3298213
vn 0.2733309 -0.90917003 0.3141657
vn 0.0039369646 -0.95125 0.30839556
vn 0.0028993362 -0.9461907 0.32359642
vn 0.014954199 -0.94254184 0.3337533
vn 0.004059018 -0.9489863 0.3152911
vn 0.004059018 -0.9489863 0.3152911
vn -0.0029603494 -0.9572 0.2894123
vn 0.2606688 -0.90698457 0.33080307
vn 0.25181416 -0.9098393 0.3298213
vn 0.5315512 -0.79303885 0.29756123
vn 0.5188027 -0.80339795 0.29222518
vn 0.2733309 -0.90917003 0.3141657
vn 0.2733309 -0.90917003 0.3141657
vn 0.5188027 -0.80339795 0.29222518
vn 0.5149567 -0.7966523 0.3164879
vn 0.2606688 -0.90698457 0.33080307
vn 0.99449205 0.09644003 0.04104805
vn 0.9979603 0.046846148 0.04336702
vn 0.99818724 0.041475415 0.04361175
vn 0.99449205 0.09644003 0.04104805
vn 0.99728954 0.059877656 0.04275667
vn 0.99449205 0.09644003 0.04104805
vn 0.99449205 0.09644003 0.04104805
vn 0.99449205 0.09644003 0.04104805
vn 0.99449205 0.09644003 0.04104805
vn 0.99449205 0.09644003 0.04104805
g golemBridgeChunk.002_0
f 3/3/3 2/2/2 1/1/1
f 6/6/6 5/5/5 4/4/4
f 9/9/9 8/8/8 7/7/7
f 10/10/10 9/9/9 7/7/7
f 13/13/13 12/12/12 11/11/11
f 14/14/14 13/13/13 11/11/11
f 17/17/17 16/16/16 15/15/15
f 18/18/18 17/17/17 15/15/15
f 21/21/21 20/20/20 19/19/19
f 22/22/22 21/21/21 19/19/19
f 25/25/25 24/24/24 23/23/23
f 26/26/26 25/25/25 23/23/23
f 29/29/29 28/28/28 27/27/27
f 30/30/30 29/29/29 27/27/27
f 33/33/33 32/32/32 31/31/31
f 34/34/34 33/33/33 31/31/31
f 37/37/37 36/36/36 35/35/35
f 38/38/38 37/37/37 35/35/35
f 41/41/41 40/40/40 39/39/39
f 42/42/42 41/41/41 39/39/39
f 45/45/45 44/44/44 43/43/43
f 46/46/46 45/45/45 43/43/43
f 49/49/49 48/48/48 47/47/47
f 47/47/47 50/50/50 49/49/49
f 50/50/50 51/51/51 49/49/49
f 54/54/54 53/53/53 52/52/52
f 55/55/55 54/54/54 52/52/52
f 58/58/58 57/57/57 56/56/56
f 56/56/56 59/59/59 58/58/58
f 56/56/56 60/60/60 59/59/59
f 60/60/60 61/61/61 59/59/59
f 60/60/60 62/62/62 61/61/61
f 65/65/65 64/64/64 63/63/63
f 66/66/66 65/65/65 63/63/63
f 69/69/69 68/68/68 67/67/67
f 67/67/67 70/70/70 69/69/69
f 70/70/70 71/71/71 69/69/69
f 67/67/67 72/72/72 70/70/70
f 75/75/75 74/74/74 73/73/73
f 73/73/73 76/76/76 75/75/75
f 76/76/76 77/77/77 75/75/75
f 76/76/76 78/78/78 77/77/77
f 76/76/76 79/79/79 78/78/78
f 76/76/76 80/80/80 79/79/79
f 80/80/80 81/81/81 79/79/79
f 81/81/81 82/82/82 79/79/79
f 85/85/85 84/84/84 83/83/83
f 86/86/86 85/85/85 83/83/83
f 89/89/89 88/88/88 87/87/87
f 87/87/87 90/90/90 89/89/89
f 87/87/87 91/91/91 90/90/90
f 91/91/91 92/92/92 90/90/90
f 92/92/92 93/93/93 90/90/90
f 92/92/92 94/94/94 93/93/93
f 94/94/94 95/95/95 93/93/93
f 94/94/94 96/96/96 95/95/95
f 99/99/99 98/98/98 97/97/97
f 100/100/100 99/99/99 97/97/97
f 103/103/103 102/102/102 101/101/101
f 104/104/104 103/103/103 101/101/101
f 107/107/107 106/106/106 105/105/105
f 108/108/108 107/107/107 105/105/105
f 111/111/111 110/110/110 109/109/109
f 112/112/112 111/111/111 109/109/109
f 115/115/115 114/114/114 113/113/113
f 116/116/116 115/115/115 113/113/113
f 119/119/119 118/118/118 117/117/117
f 120/120/120 119/119/119 117/117/117
f 123/123/123 122/122/122 121/121/121
f 121/121/121 124/124/124 123/123/123
f 124/124/124 125/125/125 123/123/123
f 128/128/128 127/127/127 126/126/126
f 126/126/126 129/129/129 128/128/128
f 126/126/126 130/130/130 129/129/129
f 133/133/133 132/132/132 131/131/131
f 134/134/134 133/133/133 131/131/131
f 137/137/137 136/136/136 135/135/135
f 138/138/138 137/137/137 135/135/135
f 141/141/141 140/140/140 139/139/139
f 142/142/142 141/141/141 139/139/139
f 145/145/145 144/144/144 143/143/143
f 143/143/143 146/146/146 145/145/145
f 147/147/147 145/145/145 146/146/146
f 143/143/143 148/148/148 146/146/146
f 143/143/143 149/149/149 148/148/148
f 149/149/149 150/150/150 148/148/148
f 150/150/150 151/151/151 148/148/148
f 151/151/151 152/152/152 148/148/148
