g GPRuinBlockFull__1_
v -0.9617093 0.9053692 1
v -0.8017884 0.7454483 1
v -0.8017884 -0.7681638 1
v -0.9617093 -0.9280848 1
v 0.9581326 -0.92029464 1
v 0.79821163 -0.76037365 1
v 0.79821163 0.7454483 1
v 0.9581326 0.9053692 1
v -0.9546994 0.99253726 -2.0120643E-10
v 0.95112264 0.99253726 -2.0120643E-10
v 0.95112264 0.99253726 0.959921
v -0.9546994 0.99253726 0.959921
v 0.95112264 -1.0074626 -2.0120643E-10
v -0.9624894 -1.0074626 -2.0120643E-10
v -0.9624894 -1.0074626 0.959921
v 0.95112264 -1.0074626 0.959921
v 0.9110436 0.9524583 1
v 0.75112265 0.7925373 1
v -0.7546994 0.7925373 1
v -0.91462034 0.9524583 1
v -0.9224105 -0.9673836 1
v -0.76248944 -0.8074627 1
v 0.75112265 -0.8074627 1
v 0.9110436 -0.9673836 1
v 0.9110436 -0.9673836 1
v 0.95112264 -1.0074626 0.959921
v -0.9624894 -1.0074626 0.959921
v -0.9224105 -0.9673836 1
v 0.75112265 0.7925373 1
v 0.79821163 0.7454483 1
v 0.79821163 -0.76037365 1
v 0.75112265 -0.8074627 1
v -0.7546994 0.7925373 1
v -0.76248944 -0.8074627 1
v -0.8017884 0.7454483 1
v -0.8017884 -0.7681638 1
v 0.99821156 0.9454483 -2.0120643E-10
v 0.99821156 -0.9603736 -2.0120643E-10
v 0.99821156 -0.9603736 0.959921
v 0.99821156 0.9454483 0.959921
v -0.91462034 0.9524583 1
v -0.9546994 0.99253726 0.959921
v 0.95112264 0.99253726 0.959921
v 0.9110436 0.9524583 1
v 0.9581326 0.9053692 1
v 0.99821156 0.9454483 0.959921
v 0.99821156 -0.9603736 0.959921
v 0.9581326 -0.92029464 1
v -0.9617093 -0.9280848 1
v -1.0017884 -0.9681637 0.959921
v -1.0017884 0.9454483 0.959921
v -0.9617093 0.9053692 1
v -1.0017884 -0.9681637 -2.0120643E-10
v -1.0017884 0.9454483 -2.0120643E-10
v -1.0017884 0.9454483 0.959921
v -1.0017884 -0.9681637 0.959921
v -1.0017884 -0.9681637 0.959921
v -0.9624894 -1.0074626 -2.0120643E-10
v -1.0017884 -0.9681637 -2.0120643E-10
v -0.9624894 -1.0074626 0.959921
v -0.9617093 -0.9280848 1
v -0.9224105 -0.9673836 1
v -0.8017884 -0.7681638 1
v -0.76248944 -0.8074627 1
v -0.9546994 0.99253726 0.959921
v -1.0017884 0.9454483 -2.0120643E-10
v -0.9546994 0.99253726 -2.0120643E-10
v -1.0017884 0.9454483 0.959921
v -0.91462034 0.9524583 1
v -0.9617093 0.9053692 1
v -0.7546994 0.7925373 1
v -0.8017884 0.7454483 1
v 0.99821156 0.9454483 0.959921
v 0.95112264 0.99253726 -2.0120643E-10
v 0.99821156 0.9454483 -2.0120643E-10
v 0.95112264 0.99253726 0.959921
v 0.9581326 0.9053692 1
v 0.9110436 0.9524583 1
v 0.79821163 0.7454483 1
v 0.75112265 0.7925373 1
v 0.99821156 -0.9603736 -2.0120643E-10
v 0.95112264 -1.0074626 -2.0120643E-10
v 0.95112264 -1.0074626 0.959921
v 0.99821156 -0.9603736 0.959921
v 0.9110436 -0.9673836 1
v 0.9581326 -0.92029464 1
v 0.75112265 -0.8074627 1
v 0.79821163 -0.76037365 1
v 0.95112264 -1.0074626 -2.0120643E-10
v 0.99821156 -0.9603736 -2.0120643E-10
v 0.99821156 0.9454483 -2.0120643E-10
v 0.95112264 0.99253726 -2.0120643E-10
v -0.9624894 -1.0074626 -2.0120643E-10
v -0.9546994 0.99253726 -2.0120643E-10
v -1.0017884 0.9454483 -2.0120643E-10
v -1.0017884 -0.9681637 -2.0120643E-10
vt 1.4258319 0.73800075
vt 1.416286 0.52956307
vt -0.4257662 0.52956307
vt -0.4337343 0.73800075
vt 1.4258319 0.73800075
vt 1.416286 0.52956307
vt -0.4162856 0.52956307
vt -0.42583317 0.73800075
vt 1.5009038 0.05116719
vt -0.51169217 0.051166713
vt -0.51169217 0.55801713
vt 1.5009035 0.5580173
vt 1.5091299 0.05125414
vt -0.5116923 0.05125414
vt -0.51169217 0.55810446
vt 1.5091299 0.55810434
vt 1.4258319 0.73800075
vt 1.416286 0.52956307
vt -0.41628563 0.52956307
vt -0.42583328 0.73800075
vt 1.433733 0.7380008
vt 1.4257663 0.52956307
vt -0.41628563 0.52956307
vt -0.42583328 0.73800075
vt -0.5295782 0.7853002
vt -0.53154445 0.843606
vt 1.3820679 0.84360635
vt 1.3804269 0.7853004
vt 0.97050273 0.4999999
vt 0.9999292 0.48528668
vt 0.99992925 0.0147839235
vt 0.9705028 7.0700684E-05
vt 0.029497163 0.49999997
vt 0.024629068 7.0700684E-05
vt 7.070178E-05 0.48528674
vt 7.073702E-05 0.0123499045
vt 1.5009032 0.051079825
vt -0.5116923 0.051079825
vt -0.51169217 0.5579302
vt 1.5009034 0.55792993
vt -0.5295782 0.7853002
vt -0.53154445 0.843606
vt 1.3742778 0.84360635
vt 1.3723116 0.7853004
vt -0.5295782 0.7853002
vt -0.5315442 0.843606
vt 1.3742778 0.84360635
vt 1.3723118 0.7853004
vt -0.5376936 0.7853002
vt -0.53933454 0.843606
vt 1.3742776 0.84360635
vt 1.3723118 0.7853004
vt 1.5094796 0.051341623
vt -0.5113423 0.05099252
vt -0.51169264 0.5578429
vt 1.5091295 0.5581918
vt 0.47489852 0.69652575
vt -1.0538328 0.58493096
vt -1.0538325 0.6965239
vt 0.47489852 0.5849287
vt 0.58545595 0.69652575
vt 0.5854561 0.5849288
vt 0.9456456 0.69652575
vt 0.9456455 0.5849288
vt 0.47491854 0.6953657
vt -1.0538328 0.5835757
vt -1.0538328 0.69536525
vt 0.47491854 0.5835756
vt 0.5854743 0.69536585
vt 0.5854743 0.5835756
vt 0.9456579 0.6953657
vt 0.9456579 0.5835756
vt 0.47491813 0.6951193
vt -1.0538328 0.58333075
vt -1.0538328 0.69512033
vt 0.474918 0.5833292
vt 0.58547366 0.69511944
vt 0.58547384 0.5833292
vt 0.9456577 0.6951196
vt 0.9456577 0.5833295
vt -1.0538328 0.5844993
vt -1.0538328 0.69628954
vt 0.4749204 0.69628865
vt 0.47492045 0.58449894
vt 0.58547574 0.6962884
vt 0.58547574 0.58449894
vt 0.9456579 0.6962884
vt 0.9456577 0.5844988
vt 0.97638816 0.5
vt 0.9999293 0.4882294
vt 0.9999293 0.011841296
vt 0.97638816 7.0700684E-05
vt 0.019717367 0.5
vt 0.02361192 7.0700684E-05
vt 7.075888E-05 0.011841311
vt 7.0701855E-05 0.4901767
vn -0.38230047 0.006781175 0.92401314
vn -0 0 1
vn -0 0 1
vn -0.38533095 -0.0057209954 0.92276067
vn 0.38230938 -0.006809148 0.92400926
vn -0 0 1
vn -0 0 1
vn 0.38230953 0.006809146 0.92400926
vn -0.016780308 0.6959251 -0.7179183
vn 0.01678358 0.6960609 -0.71778655
vn 0.024484573 0.9993722 0.025609246
vn -0.024484573 0.9993722 0.025609246
vn 0.016738126 -0.6969458 -0.7169285
vn -0.014041278 -0.6977655 -0.71618867
vn -0.020437226 -0.99946874 0.02538735
vn 0.02438731 -0.9993747 0.025605878
vn 0.0068091587 0.38230953 0.92400926
vn -0 0 1
vn -0 0 1
vn -0.006809158 0.38230947 0.92400926
vn -0.0057209847 -0.38533106 0.92276067
vn -0 0 1
vn -0 0 1
vn 0.0067811785 -0.3823006 0.92401314
vn 0.0067811785 -0.3823006 0.92401314
vn 0.02438731 -0.9993747 0.025605878
vn -0.020437226 -0.99946874 0.02538735
vn -0.0057209847 -0.38533106 0.92276067
vn -0 0 1
vn -0 0 1
vn -0 0 1
vn -0 0 1
vn -0 0 1
vn -0 0 1
vn -0 0 1
vn -0 0 1
vn 0.9990017 0.024088131 -0.037622675
vn 0.99906605 -0.024089677 -0.03587064
vn 0.9993722 -0.024484541 0.025609234
vn 0.9993722 0.024484547 0.025609238
vn -0.006809158 0.38230947 0.92400926
vn -0.024484573 0.9993722 0.025609246
vn 0.024484573 0.9993722 0.025609246
vn 0.0068091587 0.38230953 0.92400926
vn 0.38230953 0.006809146 0.92400926
vn 0.9993722 0.024484547 0.025609238
vn 0.9993722 -0.024484541 0.025609234
vn 0.38230938 -0.006809148 0.92400926
vn -0.38533095 -0.0057209954 0.92276067
vn -0.99946874 -0.02043726 0.02538735
vn -0.9993747 0.024387313 0.02560588
vn -0.38230047 0.006781175 0.92401314
vn -0.9993456 -0.020110067 -0.030067211
vn -0.99901676 0.023992782 -0.037282567
vn -0.9993747 0.024387313 0.02560588
vn -0.99946874 -0.02043726 0.02538735
vn -0.99946874 -0.02043726 0.02538735
vn -0.014041278 -0.6977655 -0.71618867
vn -0.9993456 -0.020110067 -0.030067211
vn -0.020437226 -0.99946874 0.02538735
vn -0.38533095 -0.0057209954 0.92276067
vn -0.0057209847 -0.38533106 0.92276067
vn -0 0 1
vn -0 0 1
vn -0.024484573 0.9993722 0.025609246
vn -0.99901676 0.023992782 -0.037282567
vn -0.016780308 0.6959251 -0.7179183
vn -0.9993747 0.024387313 0.02560588
vn -0.006809158 0.38230947 0.92400926
vn -0.38230047 0.006781175 0.92401314
vn -0 0 1
vn -0 0 1
vn 0.9993722 0.024484547 0.025609238
vn 0.01678358 0.6960609 -0.71778655
vn 0.9990017 0.024088131 -0.037622675
vn 0.024484573 0.9993722 0.025609246
vn 0.38230953 0.006809146 0.92400926
vn 0.0068091587 0.38230953 0.92400926
vn -0 0 1
vn -0 0 1
vn 0.99906605 -0.024089677 -0.03587064
vn 0.016738126 -0.6969458 -0.7169285
vn 0.02438731 -0.9993747 0.025605878
vn 0.9993722 -0.024484541 0.025609234
vn 0.0067811785 -0.3823006 0.92401314
vn 0.38230938 -0.006809148 0.92400926
vn -0 0 1
vn -0 0 1
vn 0.016738126 -0.6969458 -0.7169285
vn 0.99906605 -0.024089677 -0.03587064
vn 0.9990017 0.024088131 -0.037622675
vn 0.01678358 0.6960609 -0.71778655
vn -0.014041278 -0.6977655 -0.71618867
vn -0.016780308 0.6959251 -0.7179183
vn -0.99901676 0.023992782 -0.037282567
vn -0.9993456 -0.020110067 -0.030067211
g GPRuinBlockFull__1__0
f 3/3/3 2/2/2 1/1/1
f 4/4/4 3/3/3 1/1/1
f 7/7/7 6/6/6 5/5/5
f 8/8/8 7/7/7 5/5/5
f 11/11/11 10/10/10 9/9/9
f 12/12/12 11/11/11 9/9/9
f 15/15/15 14/14/14 13/13/13
f 16/16/16 15/15/15 13/13/13
f 19/19/19 18/18/18 17/17/17
f 20/20/20 19/19/19 17/17/17
f 23/23/23 22/22/22 21/21/21
f 24/24/24 23/23/23 21/21/21
f 27/27/27 26/26/26 25/25/25
f 28/28/28 27/27/27 25/25/25
f 31/31/31 30/30/30 29/29/29
f 29/29/29 32/32/32 31/31/31
f 29/29/29 33/33/33 32/32/32
f 33/33/33 34/34/34 32/32/32
f 33/33/33 35/35/35 34/34/34
f 35/35/35 36/36/36 34/34/34
f 39/39/39 38/38/38 37/37/37
f 40/40/40 39/39/39 37/37/37
f 43/43/43 42/42/42 41/41/41
f 44/44/44 43/43/43 41/41/41
f 47/47/47 46/46/46 45/45/45
f 48/48/48 47/47/47 45/45/45
f 51/51/51 50/50/50 49/49/49
f 52/52/52 51/51/51 49/49/49
f 55/55/55 54/54/54 53/53/53
f 56/56/56 55/55/55 53/53/53
f 59/59/59 58/58/58 57/57/57
f 58/58/58 60/60/60 57/57/57
f 61/61/61 57/57/57 60/60/60
f 62/62/62 61/61/61 60/60/60
f 61/61/61 62/62/62 63/63/63
f 62/62/62 64/64/64 63/63/63
f 67/67/67 66/66/66 65/65/65
f 66/66/66 68/68/68 65/65/65
f 65/65/65 68/68/68 69/69/69
f 68/68/68 70/70/70 69/69/69
f 69/69/69 70/70/70 71/71/71
f 70/70/70 72/72/72 71/71/71
f 75/75/75 74/74/74 73/73/73
f 74/74/74 76/76/76 73/73/73
f 73/73/73 76/76/76 77/77/77
f 76/76/76 78/78/78 77/77/77
f 77/77/77 78/78/78 79/79/79
f 78/78/78 80/80/80 79/79/79
f 83/83/83 82/82/82 81/81/81
f 84/84/84 83/83/83 81/81/81
f 83/83/83 84/84/84 85/85/85
f 84/84/84 86/86/86 85/85/85
f 87/87/87 85/85/85 86/86/86
f 88/88/88 87/87/87 86/86/86
f 91/91/91 90/90/90 89/89/89
f 89/89/89 92/92/92 91/91/91
f 89/89/89 93/93/93 92/92/92
f 93/93/93 94/94/94 92/92/92
f 93/93/93 95/95/95 94/94/94
f 93/93/93 96/96/96 95/95/95
