g GrayBox2SidedSloped.001
v 1 -5 -2
v -1 -5 -2
v -1 -5 2
v -1 -3 -2
v -1 -3 2
v 1 -5 2
v 1 -3 2
v 1 -3 -2
v -1 -1 0
v 1 -1 0
v 1 -1 -2
v -1 -1 -2
v 1 1 -2
v 1 1 0
v -1 1 0
v -1 1 -2
v 1 3 -2
v -1 3 -2
v -1 3 2
v 1 3 2
v -1 5 -2
v -1 5 2
v 1 5 2
v 1 5 -2
vn 0.57735026 -0.57735026 -0.57735026
vn -0.57735026 -0.57735026 -0.57735026
vn -0.57735026 -0.57735026 0.57735026
vn -0.70710677 0 -0.70710677
vn -0.63025284 0.2971048 0.7172937
vn 0.57735026 -0.57735026 0.57735026
vn 0.63025284 0.2971048 0.7172937
vn 0.70710677 0 -0.70710677
vn -0.8041847 0.22746067 0.5491345
vn 0.8041847 0.22746067 0.5491345
vn 0.70710677 0 -0.70710677
vn -0.70710677 0 -0.70710677
vn 0.70710677 0 -0.70710677
vn 0.8041847 -0.22746067 0.5491345
vn -0.8041847 -0.22746067 0.5491345
vn -0.70710677 0 -0.70710677
vn 0.70710677 0 -0.70710677
vn -0.70710677 0 -0.70710677
vn -0.63025284 -0.2971048 0.7172937
vn 0.63025284 -0.2971048 0.7172937
vn -0.57735026 0.57735026 -0.57735026
vn -0.57735026 0.57735026 0.57735026
vn 0.57735026 0.57735026 0.57735026
vn 0.57735026 0.57735026 -0.57735026
g GrayBox2SidedSloped.001_0
f 3/3/3 2/2/2 1/1/1
f 1/1/1 2/2/2 4/4/4
f 2/2/2 3/3/3 5/5/5
f 4/4/4 2/2/2 5/5/5
f 6/6/6 3/3/3 1/1/1
f 5/5/5 3/3/3 7/7/7
f 3/3/3 6/6/6 7/7/7
f 6/6/6 1/1/1 8/8/8
f 8/8/8 1/1/1 4/4/4
f 7/7/7 6/6/6 8/8/8
f 5/5/5 7/7/7 9/9/9
f 4/4/4 5/5/5 9/9/9
f 8/8/8 10/10/10 7/7/7
f 7/7/7 10/10/10 9/9/9
f 8/8/8 4/4/4 11/11/11
f 8/8/8 11/11/11 10/10/10
f 4/4/4 12/12/12 11/11/11
f 4/4/4 9/9/9 12/12/12
f 10/10/10 11/11/11 13/13/13
f 11/11/11 12/12/12 13/13/13
f 9/9/9 10/10/10 14/14/14
f 14/14/14 10/10/10 13/13/13
f 9/9/9 15/15/15 12/12/12
f 15/15/15 9/9/9 14/14/14
f 12/12/12 16/16/16 13/13/13
f 15/15/15 16/16/16 12/12/12
f 17/17/17 13/13/13 16/16/16
f 17/17/17 14/14/14 13/13/13
f 18/18/18 16/16/16 15/15/15
f 18/18/18 17/17/17 16/16/16
f 19/19/19 15/15/15 14/14/14
f 18/18/18 15/15/15 19/19/19
f 17/17/17 20/20/20 14/14/14
f 20/20/20 19/19/19 14/14/14
f 18/18/18 21/21/21 17/17/17
f 19/19/19 22/22/22 18/18/18
f 22/22/22 21/21/21 18/18/18
f 23/23/23 22/22/22 19/19/19
f 20/20/20 23/23/23 19/19/19
f 22/22/22 23/23/23 21/21/21
f 21/21/21 24/24/24 17/17/17
f 17/17/17 24/24/24 20/20/20
f 23/23/23 24/24/24 21/21/21
f 24/24/24 23/23/23 20/20/20
