g Icicle1
v 0.801286 -0.36856177 3.2112243
v 0.12745087 0.17814434 4.8977942
v 0.13353233 0.19387898 4.8959723
v 0.39474678 -0.47044903 0.46747196
v -0.045379158 -0.35026884 0.2780556
v 0.11064163 -0.54523164 0.4447888
v 0.31707248 0.058816247 0.19038555
v 0.21579641 0.21774226 0.16971244
v -0.16926904 0.14540875 0.20882249
v -0.18688126 -0.24198566 0.27140486
v 0.34824798 -0.8311793 2.5866368
v -0.030656245 -0.9215595 2.0942788
v -0.3151671 -0.79903316 2.6549227
v 0.10060424 0.17571054 4.906571
v 0.068513624 0.17898595 4.9040933
v 0.7917206 -0.51791096 2.7105844
v 0.52341574 -0.85009915 2.0419078
v 0.801286 -0.36856177 3.2112243
v 0.12745087 0.17814434 4.8977942
v -0.56641763 -0.6898899 2.0438592
v -0.63772184 -0.19772655 0.7761369
v -0.7582897 -0.10392511 0.9589325
v -0.73940325 -0.18495862 2.9308662
v -0.16926904 0.14540875 0.20882249
v 0.21579641 0.21774226 0.16971244
v 0.18991186 0.38073903 0.32049808
v -0.1134104 0.49103796 0.42972285
v -0.3104631 0.2545355 0.34627834
v -0.3151671 -0.79903316 2.6549227
v -0.56641763 -0.6898899 2.0438592
v -0.73940325 -0.18495862 2.9308662
v 0.068513624 0.17898595 4.9040933
v -0.24717064 0.1913959 4.4974756
v -0.19780746 0.23890997 4.6361327
v 0.049740303 0.19567907 4.906064
v -0.13711737 0.25736806 4.734094
v 0.03290762 0.21589372 4.897332
v -0.1134104 0.49103796 0.42972285
v 0.18991186 0.38073903 0.32049808
v 0.4047203 0.7435914 1.1022775
v 0.14396712 0.7636743 1.4417156
v 0.36116394 0.7673039 1.6279566
v 0.04830759 0.26745263 4.829188
v 0.13063662 0.21250851 4.884463
v 0.07251238 0.23571356 4.8855324
v 0.03290762 0.21589372 4.897332
v 0.051566232 0.22697216 4.8964067
v -0.13711737 0.25736806 4.734094
v -0.19135788 0.28435928 4.6294
v 0.14396712 0.7636743 1.4417156
v -0.1134104 0.49103796 0.42972285
v -0.3104631 0.2545355 0.34627834
v -0.67717046 0.22440974 0.7482543
v -0.19780746 0.23890997 4.6361327
v -0.13711737 0.25736806 4.734094
v -0.24717064 0.1913959 4.4974756
v -0.7582897 -0.10392511 0.9589325
v -0.73940325 -0.18495862 2.9308662
v 0.39474678 -0.47044903 0.46747196
v 0.11064163 -0.54523164 0.4447888
v -0.030656245 -0.9215595 2.0942788
v 0.52341574 -0.85009915 2.0419078
v 0.34824798 -0.8311793 2.5866368
v 0.03290762 0.21589372 4.897332
v 0.051566232 0.22697216 4.8964067
v 0.09285475 0.20047042 4.9136844
v 0.049740303 0.19567907 4.906064
v 0.068513624 0.17898595 4.9040933
v 0.049740303 0.19567907 4.906064
v 0.09285475 0.20047042 4.9136844
v 0.10060424 0.17571054 4.906571
v 0.12745087 0.17814434 4.8977942
v 0.13353233 0.19387898 4.8959723
v 0.13063662 0.21250851 4.884463
v 0.13353233 0.19387898 4.8959723
v 0.09285475 0.20047042 4.9136844
v 0.07251238 0.23571356 4.8855324
v 0.051566232 0.22697216 4.8964067
v -0.045379158 -0.35026884 0.2780556
v -0.18688126 -0.24198566 0.27140486
v -0.63772184 -0.19772655 0.7761369
v 0.11064163 -0.54523164 0.4447888
v -0.030656245 -0.9215595 2.0942788
v -0.56641763 -0.6898899 2.0438592
v -0.3151671 -0.79903316 2.6549227
v -0.63772184 -0.19772655 0.7761369
v -0.18688126 -0.24198566 0.27140486
v -0.16926904 0.14540875 0.20882249
v -0.7582897 -0.10392511 0.9589325
v -0.67717046 0.22440974 0.7482543
v -0.3104631 0.2545355 0.34627834
v 0.45469272 0.28495094 0.42205578
v 0.7917206 -0.51791096 2.7105844
v 0.801286 -0.36856177 3.2112243
v 0.13353233 0.19387898 4.8959723
v 0.13063662 0.21250851 4.884463
v 0.36116394 0.7673039 1.6279566
v 0.4047203 0.7435914 1.1022775
v 0.39474678 -0.47044903 0.46747196
v 0.52341574 -0.85009915 2.0419078
v 0.7917206 -0.51791096 2.7105844
v 0.45469272 0.28495094 0.42205578
v 0.31707248 0.058816247 0.19038555
v 0.18991186 0.38073903 0.32049808
v 0.21579641 0.21774226 0.16971244
v 0.31707248 0.058816247 0.19038555
v 0.45469272 0.28495094 0.42205578
v 0.4047203 0.7435914 1.1022775
vt 0.09228841 0.5617554
vt 0.28525499 0.85164285
vt 0.287524 0.8509207
vt 0.8075122 1
vt 0.81947964 0.9128652
vt 0.7818353 0.95212394
vt 0.9161093 0.95927894
vt 0.941622 0.93517405
vt 0.90826505 0.87126964
vt 0.833071 0.8839223
vt 0.91083646 0.34019348
vt 0.8521518 0.24462545
vt 0.7818353 0.34090593
vt 0.811449 0.7920913
vt 0.8054467 0.79128736
vt 1 0.3915997
vt 0.96226305 0.25176695
vt 0.98891824 0.48553354
vt 0.8169666 0.7913281
vt 0.6658309 0.541859
vt 0.75319177 0.7635058
vt 0.7818353 0.7323106
vt 0.768588 0.3794983
vt 0.90826505 0.87126964
vt 0.941622 0.93517405
vt 0.96190035 0.92914534
vt 0.9619004 0.8750695
vt 0.91404563 0.8465354
vt 0.62142944 0.42770106
vt 0.6658309 0.541859
vt 0.768588 0.3794983
vt 0.74354273 0.00013883981
vt 0.7791836 0.080700144
vt 0.7818354 0.05389583
vt 0.74831784 0
vt 0.77843714 0.034545127
vt 0.75345206 0.0016788098
vt 0.40548915 0.011427126
vt 0.3615981 0
vt 0.2907896 0.13020173
vt 0.33452624 0.18621294
vt 0.29546303 0.22236243
vt 0.38804597 0.80429125
vt 0.3781371 0.8171358
vt 0.38640577 0.81572163
vt 0.39510018 0.81791115
vt 0.3908449 0.81764656
vt 0.4218802 0.7850367
vt 0.42933148 0.7647263
vt 0.33452624 0.18621294
vt 0.40548915 0.011427126
vt 0.46093476 0.0015934586
vt 0.5276304 0.06888176
vt 0.43438908 0.7673404
vt 0.4218802 0.7850367
vt 0.44748324 0.74352705
vt 0.5699708 0.11611523
vt 0.5699708 0.47008762
vt 1 0.014592523
vt 0.9442172 0
vt 0.8521518 0.24462545
vt 0.96226305 0.25176695
vt 0.91083646 0.34019348
vt 0.39510018 0.81791115
vt 0.3908449 0.81764656
vt 0.38580394 0.8221945
vt 0.39385554 0.820378
vt 0.8054467 0.79128736
vt 0.8022008 0.7924317
vt 0.8103577 0.7948758
vt 0.811449 0.7920913
vt 0.8169666 0.7913281
vt 0.8186014 0.79225796
vt 0.3781371 0.8171358
vt 0.3792145 0.81984425
vt 0.38580394 0.8221945
vt 0.38640577 0.81572163
vt 0.3908449 0.81764656
vt 0.6636677 0.8403978
vt 0.6967481 0.8434717
vt 0.75319177 0.7635058
vt 0.6149215 0.80956846
vt 0.5699708 0.5230048
vt 0.6658309 0.541859
vt 0.62142944 0.42770106
vt 0.79220575 0.8177933
vt 0.833071 0.8839223
vt 0.90826505 0.87126964
vt 0.7936322 0.79854995
vt 0.8691773 0.79487586
vt 0.91404563 0.8465354
vt 0.16767012 0.04367819
vt 0.054118842 0.47541878
vt 0.09228841 0.5617554
vt 0.287524 0.8509207
vt 0.29078948 0.8483849
vt 0.2907896 0.24859487
vt 0.27011272 0.154604
vt 0.039095283 0.070739254
vt 0 0.36346504
vt 0.054118842 0.47541878
vt 0.16767012 0.04367819
vt 0.13272983 0.007673744
vt 0.20345514 0.023058854
vt 0.16863918 0
vt 0.13272983 0.007673744
vt 0.16767012 0.04367819
vt 0.27011272 0.154604
vn 0.85643196 -0.2808384 0.43319064
vn 0.85643196 -0.2808384 0.43319064
vn 0.85643196 -0.2808384 0.43319064
vn 0.2479385 -0.44677147 -0.85960555
vn 0.100682035 -0.3170004 -0.94306624
vn 0.2479385 -0.44677147 -0.85960555
vn 0.035005223 -0.2558708 -0.966077
vn -0.06662248 -0.15750737 -0.985268
vn -0.06662248 -0.15750737 -0.985268
vn -0.06662248 -0.15750737 -0.985268
vn 0.19947566 -0.9088412 0.36635646
vn -0.012055133 -0.9306256 0.36577407
vn -0.012055133 -0.9306256 0.36577407
vn 0.15699133 -0.9166475 0.36757454
vn -0.012055133 -0.9306256 0.36577407
vn 0.37633663 -0.85643977 0.35338593
vn 0.37633663 -0.85643977 0.35338593
vn 0.37633663 -0.85643977 0.35338593
vn 0.37633663 -0.85643977 0.35338593
vn -0.9243648 -0.3792618 -0.041353483
vn -0.9243648 -0.3792618 -0.041353483
vn -0.9243648 -0.3792618 -0.041353483
vn -0.9243648 -0.3792618 -0.041353483
vn -0.18583272 0.58099806 -0.79240614
vn -0.18583272 0.58099806 -0.79240614
vn -0.18583272 0.58099806 -0.79240614
vn -0.18583272 0.58099806 -0.79240614
vn -0.18583272 0.58099806 -0.79240614
vn -0.6631291 -0.662183 0.34896067
vn -0.6631291 -0.662183 0.34896067
vn -0.6631291 -0.662183 0.34896067
vn -0.6631291 -0.662183 0.34896067
vn -0.6631291 -0.662183 0.34896067
vn -0.66604537 -0.6459334 0.37303302
vn -0.66899055 -0.6239741 0.40386647
vn -0.6693453 -0.50283295 0.5469331
vn -0.6693453 -0.50283295 0.5469331
vn -0.03018291 0.95913905 -0.2813206
vn -0.03018291 0.95913905 -0.2813206
vn -0.03018291 0.95913905 -0.2813206
vn -0.011047846 0.98579144 -0.16760986
vn 0.021180328 0.9994124 0.02694846
vn -0.17722268 0.9454725 0.27326536
vn 0.042664945 0.98639035 0.15878806
vn -0.10733656 0.9467713 0.30348444
vn -0.27479002 0.8476864 0.45378202
vn -0.27479002 0.8476864 0.45378202
vn -0.27479002 0.8476864 0.45378202
vn -0.68308264 0.72431415 0.09363316
vn -0.49711946 0.8670674 0.032655034
vn -0.49711946 0.8670674 0.032655034
vn -0.49711946 0.8670674 0.032655034
vn -0.62745184 0.7770588 0.049838454
vn -0.8521001 0.5168756 0.082249634
vn -0.8521001 0.5168756 0.082249634
vn -0.8521001 0.5168756 0.082249634
vn -0.8521001 0.5168756 0.082249634
vn -0.8521001 0.5168756 0.082249634
vn 0.1564406 -0.9723672 -0.17328712
vn 0.1564406 -0.9723672 -0.17328712
vn 0.1564406 -0.9723672 -0.17328712
vn 0.1564406 -0.9723672 -0.17328712
vn 0.1564406 -0.9723672 -0.17328712
vn -0.17853989 0.29964182 0.937197
vn -0.17853989 0.29964182 0.937197
vn -0.17853989 0.29964182 0.937197
vn -0.17853989 0.29964182 0.937197
vn -0.12183168 -0.28620678 0.9503909
vn -0.12183168 -0.28620678 0.9503909
vn 0.062197838 -0.225017 0.97236764
vn 0.17402133 -0.18317713 0.967555
vn 0.35741344 -0.106512934 0.92785275
vn 0.35741344 -0.106512934 0.92785275
vn 0.269944 0.6537864 0.7068901
vn 0.269944 0.6537864 0.7068901
vn 0.269944 0.6537864 0.7068901
vn 0.269944 0.6537864 0.7068901
vn 0.269944 0.6537864 0.7068901
vn -0.45137307 -0.856266 -0.25113922
vn -0.45137307 -0.856266 -0.25113922
vn -0.45137307 -0.856266 -0.25113922
vn -0.45137307 -0.856266 -0.25113922
vn -0.45137307 -0.856266 -0.25113922
vn -0.45137307 -0.856266 -0.25113922
vn -0.45137307 -0.856266 -0.25113922
vn -0.75458056 -0.097294345 -0.6489545
vn -0.75458056 -0.097294345 -0.6489545
vn -0.75458056 -0.097294345 -0.6489545
vn -0.75458056 -0.097294345 -0.6489545
vn -0.75458056 -0.097294345 -0.6489545
vn -0.75458056 -0.097294345 -0.6489545
vn 0.9132403 0.40342614 0.056917295
vn 0.9132403 0.40342614 0.056917295
vn 0.9132403 0.40342614 0.056917295
vn 0.9132403 0.40342614 0.056917295
vn 0.9132403 0.40342614 0.056917295
vn 0.9132403 0.40342614 0.056917295
vn 0.9132403 0.40342614 0.056917295
vn 0.9632338 -0.18469965 -0.1951066
vn 0.9632338 -0.18469965 -0.1951066
vn 0.9632338 -0.18469965 -0.1951066
vn 0.9632338 -0.18469965 -0.1951066
vn 0.9632338 -0.18469965 -0.1951066
vn 0.498687 0.6723118 -0.5470907
vn 0.498687 0.6723118 -0.5470907
vn 0.498687 0.6723118 -0.5470907
vn 0.498687 0.6723118 -0.5470907
vn 0.498687 0.6723118 -0.5470907
g Icicle1_0
f 3/3/3 2/2/2 1/1/1
f 6/6/6 5/5/5 4/4/4
f 5/5/5 7/7/7 4/4/4
f 8/8/8 7/7/7 5/5/5
f 5/5/5 9/9/9 8/8/8
f 5/5/5 10/10/10 9/9/9
f 13/13/13 12/12/12 11/11/11
f 11/11/11 14/14/14 13/13/13
f 14/14/14 15/15/15 13/13/13
f 16/16/16 14/14/14 11/11/11
f 11/11/11 17/17/17 16/16/16
f 16/16/16 18/18/18 14/14/14
f 18/18/18 19/19/19 14/14/14
f 22/22/22 21/21/21 20/20/20
f 23/23/23 22/22/22 20/20/20
f 26/26/26 25/25/25 24/24/24
f 24/24/24 27/27/27 26/26/26
f 24/24/24 28/28/28 27/27/27
f 31/31/31 30/30/30 29/29/29
f 29/29/29 32/32/32 31/31/31
f 32/32/32 33/33/33 31/31/31
f 32/32/32 34/34/34 33/33/33
f 32/32/32 35/35/35 34/34/34
f 34/34/34 35/35/35 36/36/36
f 35/35/35 37/37/37 36/36/36
f 40/40/40 39/39/39 38/38/38
f 38/38/38 41/41/41 40/40/40
f 41/41/41 42/42/42 40/40/40
f 42/42/42 41/41/41 43/43/43
f 43/43/43 44/44/44 42/42/42
f 43/43/43 45/45/45 44/44/44
f 46/46/46 45/45/45 43/43/43
f 46/46/46 47/47/47 45/45/45
f 48/48/48 46/46/46 43/43/43
f 43/43/43 49/49/49 48/48/48
f 49/49/49 43/43/43 50/50/50
f 50/50/50 51/51/51 49/49/49
f 49/49/49 51/51/51 52/52/52
f 52/52/52 53/53/53 49/49/49
f 54/54/54 49/49/49 53/53/53
f 54/54/54 55/55/55 49/49/49
f 56/56/56 54/54/54 53/53/53
f 56/56/56 53/53/53 57/57/57
f 57/57/57 58/58/58 56/56/56
f 61/61/61 60/60/60 59/59/59
f 59/59/59 62/62/62 61/61/61
f 62/62/62 63/63/63 61/61/61
f 66/66/66 65/65/65 64/64/64
f 67/67/67 66/66/66 64/64/64
f 70/70/70 69/69/69 68/68/68
f 71/71/71 70/70/70 68/68/68
f 70/70/70 71/71/71 72/72/72
f 73/73/73 70/70/70 72/72/72
f 76/76/76 75/75/75 74/74/74
f 74/74/74 77/77/77 76/76/76
f 77/77/77 78/78/78 76/76/76
f 81/81/81 80/80/80 79/79/79
f 79/79/79 82/82/82 81/81/81
f 82/82/82 83/83/83 81/81/81
f 83/83/83 84/84/84 81/81/81
f 83/83/83 85/85/85 84/84/84
f 88/88/88 87/87/87 86/86/86
f 86/86/86 89/89/89 88/88/88
f 89/89/89 90/90/90 88/88/88
f 90/90/90 91/91/91 88/88/88
f 94/94/94 93/93/93 92/92/92
f 92/92/92 95/95/95 94/94/94
f 92/92/92 96/96/96 95/95/95
f 92/92/92 97/97/97 96/96/96
f 92/92/92 98/98/98 97/97/97
f 101/101/101 100/100/100 99/99/99
f 99/99/99 102/102/102 101/101/101
f 99/99/99 103/103/103 102/102/102
f 106/106/106 105/105/105 104/104/104
f 104/104/104 107/107/107 106/106/106
f 104/104/104 108/108/108 107/107/107
