g Icosphere.455
v 0.56597316 0.43000445 -0.056969542
v 0.12581721 0.43157077 -0.03636686
v 0.56597316 0.4289785 -0.5272
v 0.56597316 0.43112236 0.5008684
v 0.56597316 0.43000445 -0.056969542
v 0.56597316 0.43130916 -0.033279315
v 0.56597316 0.43000445 -0.056969542
v 0.56597316 0.43036234 -0.56358206
v 0.56597316 0.4289785 -0.5272
v 0.56597316 0.4293024 -0.690832
v -0.6881894 0.23511045 -0.6908322
v -0.9510578 0.21685682 -0.6908322
v -0.89442617 0.23511045 0.6004238
v -1.621485 0.06968805 -0.2528051
v -1.6781166 0.19746365 -0.56181777
v -1.6781166 0.43157077 0.056207508
v 0.56597316 0.23410602 -0.690832
v -0.6881894 0.23511045 -0.6908322
v -0.89442617 0.23511045 0.6004238
v 0.56597316 0.23494591 0.80901176
v -0.2143204 0.43157077 0.6004238
v 0.56597316 0.4305645 0.7622513
v 0.56597316 0.23494591 0.80901176
v -0.89442617 0.23511045 0.6004238
v -0.7236073 0.43157077 0.57478964
v -0.95105785 0.43157077 0.57774097
v -0.7236073 0.43157077 -0.6908322
v -0.9510578 0.21685682 -0.6908322
v -0.6881894 0.23511045 -0.6908322
v -0.2234921 0.43157077 -0.69083214
v 0.56597316 0.4293024 -0.690832
v 0.56597316 0.23410602 -0.690832
v 1.2672632 0.32390139 -0.6908363
v 1.2672632 0.12851302 -0.6908363
v 1.7883489 0.20642774 -0.69083935
v 1.7883489 -0.018418444 -0.69083935
v 2.3467734 0.028770328 -0.690843
v 2.3467734 -0.16768996 -0.690843
v -0.9510578 0.21685682 -0.6908322
v -1.6781166 0.19746365 -0.56181777
v -1.621485 0.06968805 -0.2528051
v -0.89442617 0.23511045 0.6004238
v -0.7236073 0.43157077 0.57478964
v -0.42532265 0.43157077 0.27196434
v -0.2143204 0.43157077 0.6004238
v 0.34160632 0.43157077 0.5205539
v 0.12581721 0.43157077 -0.03636686
v 0.56597316 0.43112236 0.5008684
v 0.56597316 0.4305645 0.7622513
v 0.34160632 0.43157077 0.5205539
v 0.56597316 0.43000445 -0.056969542
v 0.12581721 0.43157077 -0.03636686
v 0.56597316 0.4293024 -0.690832
v 0.56597316 0.4289785 -0.5272
v -0.2234921 0.43157077 -0.69083214
v -0.2763241 0.43157077 -0.49007612
v 0.12581721 0.43157077 -0.03636686
v -0.7236073 0.43157077 -0.6908322
v -0.85064787 0.43157077 0.024752168
v -1.4506661 0.43157077 -0.7774169
v -0.2763241 0.43157077 -0.49007612
v -1.5777066 0.43638998 -0.25847927
v -0.42532265 0.43157077 0.27196434
v 0.12581721 0.43157077 -0.03636686
v -0.7236073 0.43157077 0.57478964
v -0.95105785 0.43157077 0.57774097
v -1.6781166 0.43157077 0.056207508
v -0.89442617 0.23511045 0.6004238
v -1.621485 0.06968805 -0.2528051
v -1.6781166 0.43157077 0.056207508
v -0.95105785 0.43157077 0.57774097
v 0.56597316 0.4305645 0.7622513
v 0.56597316 0.43112236 0.5008684
v 0.56597316 0.4290531 0.3127774
v 0.56597316 0.43130916 -0.033279315
v 0.56597316 0.23494591 0.80901176
v 1.2672632 0.13243088 0.80900747
v 1.2672632 0.12851302 -0.6908363
v 0.56597316 0.23410602 -0.690832
v -0.7236073 0.43157077 -0.6908322
v -1.4506661 0.43157077 -0.7774169
v -1.6781166 0.19746365 -0.56181777
v -0.9510578 0.21685682 -0.6908322
v 1.2672632 0.3110435 0.31277317
v 1.7883489 0.18512985 0.7622439
v 1.2672632 0.31735015 0.76224715
v 1.7883489 0.17112537 0.31277004
v 2.3467734 0.028770328 0.7622404
v 2.3467734 0.028770328 0.31276643
v 1.7883489 0.17154217 -0.033286676
v 2.3467734 0.028770328 -0.033290282
v 1.7883489 0.17898849 -0.56358945
v 2.3467734 0.028770328 -0.56359303
v 1.2672632 0.3258731 -0.5635863
v 1.2672632 0.3332091 -0.033283547
v 1.7883489 0.17112537 0.31277004
v 1.2672632 0.3110435 0.31277317
v 0.56597316 0.4293024 -0.690832
v 1.2672632 0.32390139 -0.6908363
v 1.2672632 0.3258731 -0.5635863
v 0.56597316 0.43036234 -0.56358206
v 1.2672632 0.3332091 -0.033283547
v 0.56597316 0.43130916 -0.033279315
v 1.2672632 0.3110435 0.31277317
v 0.56597316 0.4290531 0.3127774
v 1.2672632 0.31735015 0.76224715
v 0.56597316 0.4305645 0.7622513
v 0.56597316 0.4305645 0.7622513
v 1.2672632 0.13243088 0.80900747
v 0.56597316 0.23494591 0.80901176
v 1.2672632 0.31735015 0.76224715
v 1.7883489 -0.012120012 0.8090044
v 1.7883489 0.18512985 0.7622439
v 2.3467734 -0.16768996 0.80900085
v 2.3467734 0.028770328 0.7622404
v 1.2672632 0.32390139 -0.6908363
v 1.7883489 0.17898849 -0.56358945
v 1.2672632 0.3258731 -0.5635863
v 1.7883489 0.20642774 -0.69083935
v 2.3467734 0.028770328 -0.56359303
v 2.3467734 0.028770328 -0.690843
v 1.2672632 0.13243088 0.80900747
v 1.7883489 -0.018418444 -0.69083935
v 1.2672632 0.12851302 -0.6908363
v 1.7883489 -0.012120012 0.8090044
v 2.3467734 -0.16768996 -0.690843
v 2.3467734 -0.16768996 0.80900085
v 2.3467734 0.028770328 -0.690843
v 2.3467734 -0.16768996 -0.690843
v 2.3467734 -0.16768996 0.80900085
v 2.3467734 0.028770328 0.7622404
v 2.3467734 0.028770328 -0.56359303
v 2.3467734 0.028770328 -0.033290282
v 2.3467734 0.028770328 0.31276643
v -1.6781166 0.19746365 -0.56181777
v -1.4506661 0.43157077 -0.7774169
v -1.5777066 0.43638998 -0.25847927
v -1.6781166 0.43157077 0.056207508
vt 0.5909085 0.3936515
vt 0.545454 0.472382
vt 0.49999952 0.3936515
vt 0.72727203 0.314921
vt 0.68181753 0.3936515
vt 0.636363 0.314921
vt 0.5909085 0.3936515
vt 0.545454 0.314921
vt 0.49999952 0.3936515
vt 0.454545 0.314921
vt 0.27272698 0.157461
vt 0.22727251 0.236191
vt 0.181818 0.157461
vt 0.181818 0.157461
vt 0.22727251 0.236191
vt 0.13636349 0.236191
vt 0.545454 0.157461
vt 0.27272698 0.157461
vt 0.181818 0.157461
vt 0.818181 0.157461
vt 0.9090905 0.314921
vt 0.7727265 0.236191
vt 0.818181 0.157461
vt 0.181818 0.157461
vt 0.090909 0.314921
vt 0.13636349 0.236191
vt 0.272727 0.314921
vt 0.22727251 0.236191
vt 0.27272698 0.157461
vt 0.36363602 0.314921
vt 0.454545 0.314921
vt 0.545454 0.157461
vt 0.454545 0.314921
vt 0.545454 0.157461
vt 0.454545 0.314921
vt 0.545454 0.157461
vt 0.454545 0.314921
vt 0.545454 0.157461
vt 0.22727251 0.236191
vt 0.22727251 0.236191
vt 0.181818 0.157461
vt 0.181818 0.157461
vt 1 0.314921
vt 0.954545 0.3936515
vt 0.9090905 0.314921
vt 0.8636355 0.3936515
vt 0.90909 0.472382
vt 0.72727203 0.314921
vt 0.7727265 0.236191
vt 0.7727265 0.3936515
vt 0.68181753 0.3936515
vt 0.727272 0.472382
vt 0.454545 0.314921
vt 0.4090905 0.3936515
vt 0.36363602 0.314921
vt 0.3181815 0.3936515
vt 0.363636 0.472382
vt 0.272727 0.314921
vt 0.18181801 0.314921
vt 0.272727 0.314921
vt 0.22727251 0.3936515
vt 0.18181801 0.314921
vt 0.13636349 0.3936515
vt 0.181818 0.472382
vt 0.090909 0.314921
vt 0.13636349 0.236191
vt 0.13636349 0.236191
vt 0.181818 0.157461
vt 0.181818 0.157461
vt 0.13636349 0.236191
vt 0.13636349 0.236191
vt 0.7727265 0.236191
vt 0.72727203 0.314921
vt 0.68181753 0.236191
vt 0.636363 0.314921
vt 0.818181 0.157461
vt 0.818181 0.157461
vt 0.545454 0.157461
vt 0.545454 0.157461
vt 0.272727 0.314921
vt 0.272727 0.314921
vt 0.22727251 0.236191
vt 0.22727251 0.236191
vt 0.68181753 0.236191
vt 0.7727265 0.236191
vt 0.7727265 0.236191
vt 0.68181753 0.236191
vt 0.7727265 0.236191
vt 0.68181753 0.236191
vt 0.636363 0.314921
vt 0.636363 0.314921
vt 0.545454 0.314921
vt 0.545454 0.314921
vt 0.545454 0.314921
vt 0.636363 0.314921
vt 0.68181753 0.236191
vt 0.68181753 0.236191
vt 0.454545 0.314921
vt 0.454545 0.314921
vt 0.545454 0.314921
vt 0.545454 0.314921
vt 0.636363 0.314921
vt 0.636363 0.314921
vt 0.68181753 0.236191
vt 0.68181753 0.236191
vt 0.7727265 0.236191
vt 0.7727265 0.236191
vt 0.7727265 0.236191
vt 0.818181 0.157461
vt 0.818181 0.157461
vt 0.7727265 0.236191
vt 0.818181 0.157461
vt 0.7727265 0.236191
vt 0.818181 0.157461
vt 0.7727265 0.236191
vt 0.454545 0.314921
vt 0.545454 0.314921
vt 0.545454 0.314921
vt 0.454545 0.314921
vt 0.545454 0.314921
vt 0.454545 0.314921
vt 0.818181 0.157461
vt 0.545454 0.157461
vt 0.545454 0.157461
vt 0.818181 0.157461
vt 0.545454 0.157461
vt 0.818181 0.157461
vt 0.454545 0.314921
vt 0.545454 0.157461
vt 0.818181 0.157461
vt 0.7727265 0.236191
vt 0.545454 0.314921
vt 0.636363 0.314921
vt 0.68181753 0.236191
vt 0.22727251 0.236191
vt 0.272727 0.314921
vt 0.18181801 0.314921
vt 0.13636349 0.236191
vn 0.0034565986 0.99999166 -0.002181774
vn 0.0034565986 0.99999166 -0.002181774
vn 0.0034565986 0.99999166 -0.002181774
vn -1 0 0
vn -1 0 0
vn -1 0 0
vn -1 0 0
vn -1 0 0
vn -1 0 0
vn -1 0 0
vn 0.06926914 -0.99753666 0.011063528
vn 0.06926914 -0.99753666 0.011063528
vn 0.06926914 -0.99753666 0.011063528
vn -0.9707447 -0.22454375 0.08505682
vn -0.9707447 -0.22454375 0.08505682
vn -0.9707447 -0.22454375 0.08505682
vn -0.00045118673 -0.9999999 0.00026757244
vn -0.00045118673 -0.9999999 0.00026757244
vn -0.00045118673 -0.9999999 0.00026757244
vn -0.00045118673 -0.9999999 0.00026757244
vn -0.123703115 0.3228997 0.938314
vn -0.123703115 0.3228997 0.938314
vn -0.123703115 0.3228997 0.938314
vn -0.123703115 0.3228997 0.938314
vn -0.123703115 0.3228997 0.938314
vn -0.123703115 0.3228997 0.938314
vn -0 -2.1615341E-07 -1
vn -0 -2.1615341E-07 -1
vn -0 -2.1615341E-07 -1
vn -0 -2.1615341E-07 -1
vn -0 -2.1615341E-07 -1
vn -0 -2.1615341E-07 -1
vn -6.0344914E-06 0 -1
vn -6.0344914E-06 0 -1
vn -5.948044E-06 0 -1
vn -5.948044E-06 0 -1
vn -6.4042315E-06 0 -1
vn -6.4042315E-06 0 -1
vn 0.1642754 -0.9832523 -0.07892053
vn 0.1642754 -0.9832523 -0.07892053
vn 0.1642754 -0.9832523 -0.07892053
vn 0.1642754 -0.9832523 -0.07892053
vn -0 1 0
vn -0 1 0
vn -0 1 0
vn -0 1 0
vn -0 1 0
vn 0.0009887865 0.9999943 0.0032454974
vn 0.0009887865 0.9999943 0.0032454974
vn 0.0034952157 0.99999297 -0.0013542575
vn 0.0034952157 0.99999297 -0.0013542575
vn 0.0034952157 0.99999297 -0.0013542575
vn 0.0028733562 0.9999939 0.0019793762
vn 0.0028733562 0.9999939 0.0019793762
vn 0.0028733562 0.9999939 0.0019793762
vn 0.0029618435 0.99999225 -0.0026252405
vn 0.0029618435 0.99999225 -0.0026252405
vn -0 1 0
vn -0 1 0
vn 0.0040927227 0.999987 -0.0030613435
vn -0 1 0
vn 0.0040927227 0.999987 -0.0030613435
vn -0 1 0
vn -0 1 0
vn -0 1 0
vn -2.3750408E-07 1 0
vn 0.00021306852 0.99998426 0.005603412
vn -0.5811405 -0.4615948 0.6702283
vn -0.5811405 -0.4615948 0.6702283
vn -0.5811405 -0.4615948 0.6702283
vn -0.5811405 -0.4615948 0.6702283
vn 1 0 0
vn 1 0 0
vn 1 0 0
vn 1 0 0
vn -0.14676817 -0.98916966 0.0015688924
vn -0.14676817 -0.98916966 0.0015688924
vn -0.14676817 -0.98916966 0.0015688924
vn -0.14676817 -0.98916966 0.0015688924
vn -0.020991502 -0.4155382 -0.9093334
vn -0.020991502 -0.4155382 -0.9093334
vn -0.020991502 -0.4155382 -0.9093334
vn -0.020991502 -0.4155382 -0.9093334
vn 0.25259408 0.9673255 -0.021856055
vn 0.25259408 0.9673255 -0.021856055
vn 0.25259408 0.9673255 -0.021856055
vn 0.25259408 0.9673255 -0.021856055
vn 0.25835052 0.96593404 -0.0150480075
vn 0.24736205 0.9689229 0.0005835106
vn 0.24736205 0.9689229 0.0005835106
vn 0.24736205 0.9689229 0.0005835106
vn 0.28388527 0.95885825 9.973128E-05
vn 0.25374427 0.96724755 0.0067909556
vn 0.28388527 0.95885825 9.973128E-05
vn 0.28388527 0.95885825 9.973128E-05
vn 0.27784002 0.9601164 0.031326834
vn 0.27784002 0.9601164 0.031326834
vn 0.1479875 0.9889191 -0.011780071
vn 0.1479875 0.9889191 -0.011780071
vn 0.1479875 0.9889191 -0.011780071
vn 0.1479875 0.9889191 -0.011780071
vn 0.14295258 0.9896994 -0.0077290805
vn 0.14295258 0.9896994 -0.0077290805
vn 0.1626545 0.9866457 -0.008580738
vn 0.1626545 0.9866457 -0.008580738
vn 0.1626545 0.9866457 -0.008580738
vn 0.1626545 0.9866457 -0.008580738
vn 0.036688846 0.2384974 0.9704498
vn 0.036688846 0.2384974 0.9704498
vn 0.036688846 0.2384974 0.9704498
vn 0.036688846 0.2384974 0.9704498
vn 0.06300599 0.23722489 0.9694094
vn 0.06300599 0.23722489 0.9694094
vn 0.064418964 0.23062678 0.9709075
vn 0.064418964 0.23062678 0.9709075
vn 0.24472614 0.9647737 0.09654412
vn 0.24472614 0.9647737 0.09654412
vn 0.24472614 0.9647737 0.09654412
vn 0.24472614 0.9647737 0.09654412
vn 0.28018984 0.9544135 0.10290138
vn 0.28018984 0.9544135 0.10290138
vn -0.26934937 -0.9630369 0.0032798878
vn -0.26934937 -0.9630369 0.0032798878
vn -0.26934937 -0.9630369 0.0032798878
vn -0.26934937 -0.9630369 0.0032798878
vn -0.26331493 -0.9647078 0.0020256
vn -0.26331493 -0.9647078 0.0020256
vn 1 0 0
vn 1 0 0
vn 1 0 0
vn 1 0 0
vn 1 0 0
vn 1 0 0
vn 1 0 0
vn -0.7756351 0.5946458 -0.21162826
vn -0.7756351 0.5946458 -0.21162826
vn -0.7756351 0.5946458 -0.21162826
vn -0.7756351 0.5946458 -0.21162826
g Icosphere.455_0
f 3/3/3 2/2/2 1/1/1
f 6/6/6 5/5/5 4/4/4
f 8/8/8 7/7/7 6/6/6
f 8/8/8 9/9/9 7/7/7
f 10/10/10 9/9/9 8/8/8
f 13/13/13 12/12/12 11/11/11
f 16/16/16 15/15/15 14/14/14
f 19/19/19 18/18/18 17/17/17
f 20/20/20 19/19/19 17/17/17
f 23/23/23 22/22/22 21/21/21
f 21/21/21 24/24/24 23/23/23
f 21/21/21 25/25/25 24/24/24
f 25/25/25 26/26/26 24/24/24
f 29/29/29 28/28/28 27/27/27
f 29/29/29 27/27/27 30/30/30
f 29/29/29 30/30/30 31/31/31
f 31/31/31 32/32/32 29/29/29
f 31/31/31 33/33/33 32/32/32
f 33/33/33 34/34/34 32/32/32
f 33/33/33 35/35/35 34/34/34
f 35/35/35 36/36/36 34/34/34
f 35/35/35 37/37/37 36/36/36
f 37/37/37 38/38/38 36/36/36
f 41/41/41 40/40/40 39/39/39
f 42/42/42 41/41/41 39/39/39
f 45/45/45 44/44/44 43/43/43
f 45/45/45 46/46/46 44/44/44
f 46/46/46 47/47/47 44/44/44
f 48/48/48 46/46/46 45/45/45
f 49/49/49 48/48/48 45/45/45
f 48/48/48 51/51/51 50/50/50
f 51/51/51 52/52/52 50/50/50
f 55/55/55 54/54/54 53/53/53
f 55/55/55 56/56/56 54/54/54
f 56/56/56 57/57/57 54/54/54
f 58/58/58 56/56/56 55/55/55
f 58/58/58 60/60/60 59/59/59
f 59/59/59 61/61/61 58/58/58
f 60/60/60 62/62/62 59/59/59
f 59/59/59 63/63/63 61/61/61
f 63/63/63 64/64/64 61/61/61
f 65/65/65 63/63/63 59/59/59
f 65/65/65 59/59/59 66/66/66
f 59/59/59 62/62/62 66/66/66
f 62/62/62 67/67/67 66/66/66
f 70/70/70 69/69/69 68/68/68
f 71/71/71 70/70/70 68/68/68
f 74/74/74 73/73/73 72/72/72
f 75/75/75 73/73/73 74/74/74
f 78/78/78 77/77/77 76/76/76
f 79/79/79 78/78/78 76/76/76
f 82/82/82 81/81/81 80/80/80
f 83/83/83 82/82/82 80/80/80
f 86/86/86 85/85/85 84/84/84
f 85/85/85 87/87/87 84/84/84
f 85/85/85 88/88/88 87/87/87
f 88/88/88 89/89/89 87/87/87
f 87/87/87 89/89/89 90/90/90
f 89/89/89 91/91/91 90/90/90
f 90/90/90 91/91/91 92/92/92
f 91/91/91 93/93/93 92/92/92
f 90/90/90 92/92/92 94/94/94
f 95/95/95 90/90/90 94/94/94
f 96/96/96 90/90/90 95/95/95
f 97/97/97 96/96/96 95/95/95
f 100/100/100 99/99/99 98/98/98
f 101/101/101 100/100/100 98/98/98
f 102/102/102 100/100/100 101/101/101
f 103/103/103 102/102/102 101/101/101
f 104/104/104 102/102/102 103/103/103
f 105/105/105 104/104/104 103/103/103
f 106/106/106 104/104/104 105/105/105
f 107/107/107 106/106/106 105/105/105
f 110/110/110 109/109/109 108/108/108
f 109/109/109 111/111/111 108/108/108
f 109/109/109 112/112/112 111/111/111
f 112/112/112 113/113/113 111/111/111
f 112/112/112 114/114/114 113/113/113
f 114/114/114 115/115/115 113/113/113
f 118/118/118 117/117/117 116/116/116
f 117/117/117 119/119/119 116/116/116
f 117/117/117 120/120/120 119/119/119
f 120/120/120 121/121/121 119/119/119
f 124/124/124 123/123/123 122/122/122
f 123/123/123 125/125/125 122/122/122
f 123/123/123 126/126/126 125/125/125
f 126/126/126 127/127/127 125/125/125
f 130/130/130 129/129/129 128/128/128
f 128/128/128 131/131/131 130/130/130
f 128/128/128 132/132/132 131/131/131
f 132/132/132 133/133/133 131/131/131
f 133/133/133 134/134/134 131/131/131
f 137/137/137 136/136/136 135/135/135
f 138/138/138 137/137/137 135/135/135
