g Icosphere.603
v -0.21432042 0.43157077 0.6004238
v 0.56597316 0.4305645 0.7622514
v 0.56597316 0.23494591 0.80901176
v -0.8944262 0.23511046 0.6004238
v -0.9510579 0.43157077 0.57774097
v -0.7236073 0.43157077 0.57478964
v -0.7236073 0.43157077 0.57478964
v -0.42532265 0.43157077 0.27196434
v -0.21432042 0.43157077 0.6004238
v 0.5632425 0.4262999 -0.6863322
v 0.32730627 0.4300873 -0.45350313
v -0.2234921 0.43157077 -0.69083214
v -0.2763241 0.43157077 -0.49007612
v -0.7236073 0.43157077 -0.6908322
v 0.7116213 0.40732723 0.042154677
v 0.51620996 0.4294492 -0.036886517
v 0.6720501 0.40502954 -0.3452415
v 0.51620996 0.4294492 -0.036886517
v 0.12614948 0.43154982 -0.036782056
v 0.32730627 0.4300873 -0.45350313
v 0.51620996 0.4294492 -0.036886517
v 0.32730627 0.4300873 -0.45350313
v 0.6720501 0.40502954 -0.3452415
v 0.6720501 0.40502954 -0.3452415
v 0.32730627 0.4300873 -0.45350313
v 0.5632425 0.4262999 -0.6863322
v 0.32844546 0.43140537 0.50340027
v 0.12614948 0.43154982 -0.036782056
v 0.51620996 0.4294492 -0.036886517
v 0.32844546 0.43140537 0.50340027
v 0.51620996 0.4294492 -0.036886517
v 0.57844484 0.41950205 0.33459926
v -0.8944262 0.23511046 0.6004238
v -1.621485 0.06968805 -0.2528051
v -1.6781167 0.43157077 0.056207508
v 0.56597316 0.4305645 0.7622514
v 0.57844484 0.41950205 0.33459926
v 0.77429205 0.39519382 0.39265788
v -0.6881894 0.23511046 -0.6908322
v -0.95105785 0.21685682 -0.6908322
v -0.8944262 0.23511046 0.6004238
v -1.621485 0.06968805 -0.2528051
v -1.6781166 0.19746365 -0.56181777
v -1.6781167 0.43157077 0.056207508
v 2.3467734 0.028770328 0.7622404
v 2.3467734 0.028770328 0.31276643
v 2.3467734 0.028770328 -0.033290282
v -0.8944262 0.23511046 0.6004238
v -1.6781167 0.43157077 0.056207508
v -0.9510579 0.43157077 0.57774097
v 0.56597316 0.23410603 -0.6908321
v -0.6881894 0.23511046 -0.6908322
v -0.8944262 0.23511046 0.6004238
v 0.56597316 0.23494591 0.80901176
v 0.56597316 0.23494591 0.80901176
v -0.8944262 0.23511046 0.6004238
v -0.21432042 0.43157077 0.6004238
v -0.7236073 0.43157077 0.57478964
v -0.6881894 0.23511046 -0.6908322
v 0.56597316 0.23410603 -0.6908321
v 0.5632425 0.4262999 -0.6863322
v -0.2234921 0.43157077 -0.69083214
v -0.7236073 0.43157077 -0.6908322
v -0.95105785 0.21685682 -0.6908322
v -0.95105785 0.21685682 -0.6908322
v -1.6781166 0.19746365 -0.56181777
v -1.621485 0.06968805 -0.2528051
v -0.8944262 0.23511046 0.6004238
v -0.7236073 0.43157077 -0.6908322
v -0.2763241 0.43157077 -0.49007612
v -0.85064787 0.43157077 0.02475217
v -0.42532265 0.43157077 0.27196434
v 0.12614948 0.43154982 -0.036782056
v 0.32730627 0.4300873 -0.45350313
v 0.12614948 0.43154982 -0.036782056
v -0.2763241 0.43157077 -0.49007612
v -0.2234921 0.43157077 -0.69083214
v -0.85064787 0.43157077 0.02475217
v -0.42532265 0.43157077 0.27196434
v -0.7236073 0.43157077 0.57478964
v -0.9510579 0.43157077 0.57774097
v -0.42532265 0.43157077 0.27196434
v 0.12614948 0.43154982 -0.036782056
v 0.32844546 0.43140537 0.50340027
v -0.21432042 0.43157077 0.6004238
v -0.21432042 0.43157077 0.6004238
v 0.32844546 0.43140537 0.50340027
v 0.57844484 0.41950205 0.33459926
v 0.56597316 0.4305645 0.7622514
v 0.57844484 0.41950205 0.33459926
v 0.51620996 0.4294492 -0.036886517
v 0.7116213 0.40732723 0.042154677
v 0.77429205 0.39519382 0.39265788
v -0.85064787 0.43157077 0.02475217
v -1.4506661 0.43157077 -0.77741694
v -0.7236073 0.43157077 -0.6908322
v -1.5777066 0.43639 -0.25847927
v -0.9510579 0.43157077 0.57774097
v -1.6781167 0.43157077 0.056207508
v 0.56597316 0.23494591 0.80901176
v 1.2672633 0.13243088 0.8090075
v 1.2672633 0.12851302 -0.6908363
v 0.56597316 0.23410603 -0.6908321
v -0.7236073 0.43157077 -0.6908322
v -1.4506661 0.43157077 -0.77741694
v -1.6781166 0.19746365 -0.56181777
v -0.95105785 0.21685682 -0.6908322
v 1.2672633 0.3110435 0.31277317
v 1.788349 0.18512985 0.762244
v 1.2672633 0.31735015 0.76224715
v 1.788349 0.17112538 0.31277004
v 2.3467734 0.028770328 0.7622404
v 2.3467734 0.028770328 0.31276643
v 1.788349 0.17154217 -0.033286676
v 2.3467734 0.028770328 -0.033290282
v 1.788349 0.1789885 -0.56358945
v 2.3467734 0.028770328 -0.56359303
v 1.2487493 0.31029704 -0.40838626
v 1.2672633 0.3332091 -0.033283547
v 1.2672633 0.3332091 -0.033283547
v 1.788349 0.17112538 0.31277004
v 1.2672633 0.3110435 0.31277317
v 0.5632425 0.4262999 -0.6863322
v 1.2672633 0.3239014 -0.6908363
v 1.2487493 0.31029704 -0.40838626
v 0.6720501 0.40502954 -0.3452415
v 0.6720501 0.40502954 -0.3452415
v 1.2487493 0.31029704 -0.40838626
v 1.2672633 0.3332091 -0.033283547
v 0.7116213 0.40732723 0.042154677
v 0.77429205 0.39519382 0.39265788
v 1.2672633 0.31735015 0.76224715
v 0.56597316 0.4305645 0.7622514
v 1.2672633 0.3110435 0.31277317
v 0.7116213 0.40732723 0.042154677
v 1.2672633 0.3332091 -0.033283547
v 0.56597316 0.4305645 0.7622514
v 1.2672633 0.13243088 0.8090075
v 0.56597316 0.23494591 0.80901176
v 1.2672633 0.31735015 0.76224715
v 1.788349 -0.012120012 0.8090044
v 1.788349 0.18512985 0.762244
v 2.3467734 -0.16768998 0.80900085
v 2.3467734 0.028770328 0.7622404
v 0.56597316 0.23410603 -0.6908321
v 1.2672633 0.3239014 -0.6908363
v 0.5632425 0.4262999 -0.6863322
v 1.2672633 0.12851302 -0.6908363
v 1.788349 0.20642775 -0.6908394
v 1.788349 -0.018418446 -0.6908394
v 2.3467734 0.028770328 -0.690843
v 2.3467734 -0.16768998 -0.690843
v 1.2672633 0.3239014 -0.6908363
v 1.788349 0.1789885 -0.56358945
v 1.2487493 0.31029704 -0.40838626
v 1.788349 0.20642775 -0.6908394
v 2.3467734 0.028770328 -0.56359303
v 2.3467734 0.028770328 -0.690843
v 1.2672633 0.13243088 0.8090075
v 1.788349 -0.018418446 -0.6908394
v 1.2672633 0.12851302 -0.6908363
v 1.788349 -0.012120012 0.8090044
v 2.3467734 -0.16768998 -0.690843
v 2.3467734 -0.16768998 0.80900085
v 2.3467734 0.028770328 -0.690843
v 2.3467734 -0.16768998 -0.690843
v 2.3467734 -0.16768998 0.80900085
v 2.3467734 0.028770328 0.7622404
v 2.3467734 0.028770328 -0.56359303
v 2.3467734 0.028770328 -0.033290282
v -1.6781166 0.19746365 -0.56181777
v -1.4506661 0.43157077 -0.77741694
v -1.5777066 0.43639 -0.25847927
v -1.6781167 0.43157077 0.056207508
vt 0.9090905 0.314921
vt 0.7727265 0.236191
vt 0.818181 0.157461
vt 0.181818 0.157461
vt 0.13636349 0.236191
vt 0.090909 0.314921
vt 1 0.314921
vt 0.954545 0.3936515
vt 0.9090905 0.314921
vt 0.454545 0.314921
vt 0.4090905 0.3936515
vt 0.36363602 0.314921
vt 0.3181815 0.3936515
vt 0.272727 0.314921
vt 0.636363 0.314921
vt 0.5909085 0.3936515
vt 0.545454 0.314921
vt 0.5909085 0.3936515
vt 0.545454 0.472382
vt 0.49999952 0.3936515
vt 0.5909085 0.3936515
vt 0.49999952 0.3936515
vt 0.545454 0.314921
vt 0.545454 0.314921
vt 0.49999952 0.3936515
vt 0.454545 0.314921
vt 0.7727265 0.3936515
vt 0.727272 0.472382
vt 0.68181753 0.3936515
vt 0.7727265 0.3936515
vt 0.68181753 0.3936515
vt 0.72727203 0.314921
vt 0.181818 0.157461
vt 0.181818 0.157461
vt 0.13636349 0.236191
vt 0.7727265 0.236191
vt 0.72727203 0.314921
vt 0.68181753 0.236191
vt 0.27272698 0.157461
vt 0.22727251 0.236191
vt 0.181818 0.157461
vt 0.181818 0.157461
vt 0.22727251 0.236191
vt 0.13636349 0.236191
vt 0.7727265 0.236191
vt 0.68181753 0.236191
vt 0.636363 0.314921
vt 0.181818 0.157461
vt 0.13636349 0.236191
vt 0.13636349 0.236191
vt 0.545454 0.157461
vt 0.27272698 0.157461
vt 0.181818 0.157461
vt 0.818181 0.157461
vt 0.818181 0.157461
vt 0.181818 0.157461
vt 0.9090905 0.314921
vt 0.090909 0.314921
vt 0.27272698 0.157461
vt 0.545454 0.157461
vt 0.454545 0.314921
vt 0.36363602 0.314921
vt 0.272727 0.314921
vt 0.22727251 0.236191
vt 0.22727251 0.236191
vt 0.22727251 0.236191
vt 0.181818 0.157461
vt 0.181818 0.157461
vt 0.272727 0.314921
vt 0.22727251 0.3936515
vt 0.18181801 0.314921
vt 0.13636349 0.3936515
vt 0.181818 0.472382
vt 0.4090905 0.3936515
vt 0.363636 0.472382
vt 0.3181815 0.3936515
vt 0.36363602 0.314921
vt 0.18181801 0.314921
vt 0.13636349 0.3936515
vt 0.090909 0.314921
vt 0.13636349 0.236191
vt 0.954545 0.3936515
vt 0.90909 0.472382
vt 0.8636355 0.3936515
vt 0.9090905 0.314921
vt 0.9090905 0.314921
vt 0.8636355 0.3936515
vt 0.72727203 0.314921
vt 0.7727265 0.236191
vt 0.72727203 0.314921
vt 0.68181753 0.3936515
vt 0.636363 0.314921
vt 0.68181753 0.236191
vt 0.18181801 0.314921
vt 0.272727 0.314921
vt 0.272727 0.314921
vt 0.18181801 0.314921
vt 0.13636349 0.236191
vt 0.13636349 0.236191
vt 0.818181 0.157461
vt 0.818181 0.157461
vt 0.545454 0.157461
vt 0.545454 0.157461
vt 0.272727 0.314921
vt 0.272727 0.314921
vt 0.22727251 0.236191
vt 0.22727251 0.236191
vt 0.68181753 0.236191
vt 0.7727265 0.236191
vt 0.7727265 0.236191
vt 0.68181753 0.236191
vt 0.7727265 0.236191
vt 0.68181753 0.236191
vt 0.636363 0.314921
vt 0.636363 0.314921
vt 0.545454 0.314921
vt 0.545454 0.314921
vt 0.545454 0.314921
vt 0.636363 0.314921
vt 0.636363 0.314921
vt 0.68181753 0.236191
vt 0.68181753 0.236191
vt 0.454545 0.314921
vt 0.454545 0.314921
vt 0.545454 0.314921
vt 0.545454 0.314921
vt 0.545454 0.314921
vt 0.545454 0.314921
vt 0.636363 0.314921
vt 0.636363 0.314921
vt 0.68181753 0.236191
vt 0.7727265 0.236191
vt 0.7727265 0.236191
vt 0.68181753 0.236191
vt 0.636363 0.314921
vt 0.636363 0.314921
vt 0.7727265 0.236191
vt 0.818181 0.157461
vt 0.818181 0.157461
vt 0.7727265 0.236191
vt 0.818181 0.157461
vt 0.7727265 0.236191
vt 0.818181 0.157461
vt 0.7727265 0.236191
vt 0.545454 0.157461
vt 0.454545 0.314921
vt 0.454545 0.314921
vt 0.545454 0.157461
vt 0.454545 0.314921
vt 0.545454 0.157461
vt 0.454545 0.314921
vt 0.545454 0.157461
vt 0.454545 0.314921
vt 0.545454 0.314921
vt 0.545454 0.314921
vt 0.454545 0.314921
vt 0.545454 0.314921
vt 0.454545 0.314921
vt 0.818181 0.157461
vt 0.545454 0.157461
vt 0.545454 0.157461
vt 0.818181 0.157461
vt 0.545454 0.157461
vt 0.818181 0.157461
vt 0.454545 0.314921
vt 0.545454 0.157461
vt 0.818181 0.157461
vt 0.7727265 0.236191
vt 0.545454 0.314921
vt 0.636363 0.314921
vt 0.22727251 0.236191
vt 0.272727 0.314921
vt 0.18181801 0.314921
vt 0.13636349 0.236191
vn -0.123703115 0.32289997 0.938314
vn -0.123703115 0.32289997 0.938314
vn -0.123703115 0.32289997 0.938314
vn -0.123703115 0.32289997 0.938314
vn -0.123703115 0.32289997 0.938314
vn -0.123703115 0.32289997 0.938314
vn -0 1 0
vn -0 1 0
vn -0 1 0
vn 0.0067531224 0.9999329 -0.00942245
vn 0.0067531224 0.9999329 -0.00942245
vn 0.0067531224 0.9999329 -0.00942245
vn -0 1 0
vn -0 1 0
vn 0.11970163 0.99264467 -0.018114775
vn 0.11970163 0.99264467 -0.018114775
vn 0.11970163 0.99264467 -0.018114775
vn 0.005385037 0.9999851 -0.0009099611
vn 0.005385037 0.9999851 -0.0009099611
vn 0.005385037 0.9999851 -0.0009099611
vn 0.08383973 0.995811 -0.03648951
vn 0.08383973 0.995811 -0.03648951
vn 0.08383973 0.995811 -0.03648951
vn 0.05885576 0.9973219 0.043417748
vn 0.05885576 0.9973219 0.043417748
vn 0.05885576 0.9973219 0.043417748
vn 0.0053848075 0.999984 -0.0017492905
vn 0.0053848075 0.999984 -0.0017492905
vn 0.0053848075 0.999984 -0.0017492905
vn 0.05890639 0.9981211 0.016857678
vn 0.05890639 0.9981211 0.016857678
vn 0.05890639 0.9981211 0.016857678
vn -0.5554684 -0.5885375 0.5874338
vn -0.5554684 -0.5885375 0.5874338
vn -0.5554684 -0.5885375 0.5874338
vn 0.12952508 0.991335 -0.021866413
vn 0.12952508 0.991335 -0.021866413
vn 0.12952508 0.991335 -0.021866413
vn 0.06926918 -0.99753666 0.011063526
vn 0.06926918 -0.99753666 0.011063526
vn 0.06926918 -0.99753666 0.011063526
vn -0.9707444 -0.22454564 0.08505664
vn -0.9707444 -0.22454564 0.08505664
vn -0.9707444 -0.22454564 0.08505664
vn 1 0 0
vn 1 0 0
vn 1 0 0
vn -0.58127135 -0.07399883 0.810338
vn -0.58127135 -0.07399883 0.810338
vn -0.58127135 -0.07399883 0.810338
vn -0.00045119377 -0.9999999 0.00026757675
vn -0.00045119377 -0.9999999 0.00026757675
vn -0.00045119377 -0.9999999 0.00026757675
vn -0.00045119377 -0.9999999 0.00026757675
vn -0.123703115 0.32289997 0.938314
vn -0.123703115 0.32289997 0.938314
vn -0.123703115 0.32289997 0.938314
vn -0.123703115 0.32289997 0.938314
vn 0.0016197705 0.0064755017 -0.9999777
vn 0.0016197705 0.0064755017 -0.9999777
vn 0.0016197705 0.0064755017 -0.9999777
vn 0.0016197705 0.0064755017 -0.9999777
vn 0.0016197705 0.0064755017 -0.9999777
vn 0.0016197705 0.0064755017 -0.9999777
vn 0.16427542 -0.9832523 -0.07892054
vn 0.16427542 -0.9832523 -0.07892054
vn 0.16427542 -0.9832523 -0.07892054
vn 0.16427542 -0.9832523 -0.07892054
vn -0 1 0
vn -0 1 0
vn -0 1 0
vn 4.266107E-05 1 0
vn 4.266107E-05 1 0
vn 0.002594329 0.99999416 -0.0022570686
vn 0.002594329 0.99999416 -0.0022570686
vn 0.002594329 0.99999416 -0.0022570686
vn 0.0024190033 0.9999969 0.0006363992
vn -0 1 0
vn -0 1 0
vn -0 1 0
vn -0 1 0
vn 0.00015517086 1 0.00020940397
vn 0.00015517086 1 0.00020940397
vn 0.00015517086 1 0.00020940397
vn 0.0002733509 1 -0.00017574108
vn 0.012473138 0.99988866 -0.008197731
vn 0.012473138 0.99988866 -0.008197731
vn 0.012473138 0.99988866 -0.008197731
vn 0.012473138 0.99988866 -0.008197731
vn 0.10915795 0.99398947 0.008328611
vn 0.10915795 0.99398947 0.008328611
vn 0.10915795 0.99398947 0.008328611
vn 0.11935926 0.99276567 0.013025057
vn 0.0040927334 0.999987 -0.0030614014
vn 0.0040927334 0.999987 -0.0030614014
vn 0.0040927334 0.999987 -0.0030614014
vn 0.0040927334 0.999987 -0.0030614014
vn 0.00021300769 0.99998426 0.0056034746
vn 0.00021300769 0.99998426 0.0056034746
vn -0.14676817 -0.98916966 0.0015689112
vn -0.14676817 -0.98916966 0.0015689112
vn -0.14676817 -0.98916966 0.0015689112
vn -0.14676817 -0.98916966 0.0015689112
vn -0.020991499 -0.41553867 -0.9093332
vn -0.020991499 -0.41553867 -0.9093332
vn -0.020991499 -0.41553867 -0.9093332
vn -0.020991499 -0.41553867 -0.9093332
vn 0.252594 0.9673255 -0.02185609
vn 0.252594 0.9673255 -0.02185609
vn 0.252594 0.9673255 -0.02185609
vn 0.252594 0.9673255 -0.02185609
vn 0.25835052 0.96593404 -0.015048022
vn 0.24736196 0.9689229 0.00058347307
vn 0.24736196 0.9689229 0.00058347307
vn 0.24736196 0.9689229 0.00058347307
vn 0.26320723 0.9644916 -0.021857206
vn 0.25374416 0.96724755 0.0067908806
vn 0.26320723 0.9644916 -0.021857206
vn 0.26320723 0.9644916 -0.021857206
vn 0.27784008 0.9601164 0.03132683
vn 0.27784008 0.9601164 0.03132683
vn 0.27784008 0.9601164 0.03132683
vn 0.15374869 0.98755974 0.032970395
vn 0.15374869 0.98755974 0.032970395
vn 0.15374869 0.98755974 0.032970395
vn 0.15374869 0.98755974 0.032970395
vn 0.14213325 0.9888903 -0.04352209
vn 0.14213325 0.9888903 -0.04352209
vn 0.14213325 0.9888903 -0.04352209
vn 0.14213325 0.9888903 -0.04352209
vn 0.16246428 0.98667437 -0.008885242
vn 0.16246428 0.98667437 -0.008885242
vn 0.16246428 0.98667437 -0.008885242
vn 0.16246428 0.98667437 -0.008885242
vn 0.1541814 0.9874313 0.034749694
vn 0.1541814 0.9874313 0.034749694
vn 0.036688823 0.23849717 0.9704499
vn 0.036688823 0.23849717 0.9704499
vn 0.036688823 0.23849717 0.9704499
vn 0.036688823 0.23849717 0.9704499
vn 0.06300606 0.23722471 0.9694094
vn 0.06300606 0.23722471 0.9694094
vn 0.064418994 0.23062685 0.9709075
vn 0.064418994 0.23062685 0.9709075
vn -0.0014911488 0.0115987575 -0.9999317
vn -0.0014911488 0.0115987575 -0.9999317
vn -0.0014911488 0.0115987575 -0.9999317
vn -0.0014911488 0.0115987575 -0.9999317
vn -0 0 -1
vn -0 0 -1
vn -0 0 -1
vn -0 0 -1
vn 0.24191536 0.9643199 0.10753728
vn 0.24191536 0.9643199 0.10753728
vn 0.24191536 0.9643199 0.10753728
vn 0.24191536 0.9643199 0.10753728
vn 0.28018975 0.9544135 0.10290141
vn 0.28018975 0.9544135 0.10290141
vn -0.26934934 -0.9630369 0.003279896
vn -0.26934934 -0.9630369 0.003279896
vn -0.26934934 -0.9630369 0.003279896
vn -0.26934934 -0.9630369 0.003279896
vn -0.263315 -0.9647078 0.0020255963
vn -0.263315 -0.9647078 0.0020255963
vn 1 0 0
vn 1 0 0
vn 1 0 0
vn 1 0 0
vn 1 0 0
vn 1 0 0
vn -0.77563506 0.59464586 -0.21162847
vn -0.77563506 0.59464586 -0.21162847
vn -0.77563506 0.59464586 -0.21162847
vn -0.77563506 0.59464586 -0.21162847
g Icosphere.603_0
f 3/3/3 2/2/2 1/1/1
f 6/6/6 5/5/5 4/4/4
f 9/9/9 8/8/8 7/7/7
f 12/12/12 11/11/11 10/10/10
f 14/14/14 13/13/13 12/12/12
f 17/17/17 16/16/16 15/15/15
f 20/20/20 19/19/19 18/18/18
f 23/23/23 22/22/22 21/21/21
f 26/26/26 25/25/25 24/24/24
f 29/29/29 28/28/28 27/27/27
f 32/32/32 31/31/31 30/30/30
f 35/35/35 34/34/34 33/33/33
f 38/38/38 37/37/37 36/36/36
f 41/41/41 40/40/40 39/39/39
f 44/44/44 43/43/43 42/42/42
f 47/47/47 46/46/46 45/45/45
f 50/50/50 49/49/49 48/48/48
f 53/53/53 52/52/52 51/51/51
f 54/54/54 53/53/53 51/51/51
f 57/57/57 56/56/56 55/55/55
f 57/57/57 58/58/58 56/56/56
f 61/61/61 60/60/60 59/59/59
f 59/59/59 62/62/62 61/61/61
f 59/59/59 63/63/63 62/62/62
f 59/59/59 64/64/64 63/63/63
f 67/67/67 66/66/66 65/65/65
f 68/68/68 67/67/67 65/65/65
f 71/71/71 70/70/70 69/69/69
f 71/71/71 72/72/72 70/70/70
f 72/72/72 73/73/73 70/70/70
f 76/76/76 75/75/75 74/74/74
f 77/77/77 76/76/76 74/74/74
f 80/80/80 79/79/79 78/78/78
f 80/80/80 78/78/78 81/81/81
f 84/84/84 83/83/83 82/82/82
f 85/85/85 84/84/84 82/82/82
f 88/88/88 87/87/87 86/86/86
f 89/89/89 88/88/88 86/86/86
f 92/92/92 91/91/91 90/90/90
f 92/92/92 90/90/90 93/93/93
f 96/96/96 95/95/95 94/94/94
f 95/95/95 97/97/97 94/94/94
f 94/94/94 97/97/97 98/98/98
f 97/97/97 99/99/99 98/98/98
f 102/102/102 101/101/101 100/100/100
f 103/103/103 102/102/102 100/100/100
f 106/106/106 105/105/105 104/104/104
f 107/107/107 106/106/106 104/104/104
f 110/110/110 109/109/109 108/108/108
f 109/109/109 111/111/111 108/108/108
f 109/109/109 112/112/112 111/111/111
f 112/112/112 113/113/113 111/111/111
f 111/111/111 113/113/113 114/114/114
f 113/113/113 115/115/115 114/114/114
f 114/114/114 115/115/115 116/116/116
f 115/115/115 117/117/117 116/116/116
f 114/114/114 116/116/116 118/118/118
f 119/119/119 114/114/114 118/118/118
f 121/121/121 114/114/114 120/120/120
f 122/122/122 121/121/121 120/120/120
f 125/125/125 124/124/124 123/123/123
f 126/126/126 125/125/125 123/123/123
f 129/129/129 128/128/128 127/127/127
f 130/130/130 129/129/129 127/127/127
f 133/133/133 132/132/132 131/131/131
f 132/132/132 134/134/134 131/131/131
f 131/131/131 134/134/134 135/135/135
f 134/134/134 136/136/136 135/135/135
f 139/139/139 138/138/138 137/137/137
f 138/138/138 140/140/140 137/137/137
f 138/138/138 141/141/141 140/140/140
f 141/141/141 142/142/142 140/140/140
f 141/141/141 143/143/143 142/142/142
f 143/143/143 144/144/144 142/142/142
f 147/147/147 146/146/146 145/145/145
f 146/146/146 148/148/148 145/145/145
f 146/146/146 149/149/149 148/148/148
f 149/149/149 150/150/150 148/148/148
f 149/149/149 151/151/151 150/150/150
f 151/151/151 152/152/152 150/150/150
f 155/155/155 154/154/154 153/153/153
f 154/154/154 156/156/156 153/153/153
f 154/154/154 157/157/157 156/156/156
f 157/157/157 158/158/158 156/156/156
f 161/161/161 160/160/160 159/159/159
f 160/160/160 162/162/162 159/159/159
f 160/160/160 163/163/163 162/162/162
f 163/163/163 164/164/164 162/162/162
f 167/167/167 166/166/166 165/165/165
f 165/165/165 168/168/168 167/167/167
f 165/165/165 169/169/169 168/168/168
f 169/169/169 170/170/170 168/168/168
f 173/173/173 172/172/172 171/171/171
f 174/174/174 173/173/173 171/171/171
