g Icosphere.491
v 1.3068592E-08 -0.58982724 0
v -0.16245556 -0.5411368 0.49999526
v 0.42532268 -0.55387187 0.3090114
v 0.7236073 0.1265765 0.5257253
v 0.85064787 0.283283 1.1007746E-08
v 0.42532268 -0.55387187 0.3090114
v 1.3068592E-08 -0.58982724 0
v -0.5257298 -0.61473423 0
v -0.16245556 -0.5411368 0.49999526
v 1.3068592E-08 -0.58982724 0
v -0.16245556 -0.6113347 -0.49999526
v -0.5257298 -0.61473423 0
v 1.3068592E-08 -0.58982724 0
v 0.42532268 -0.5485396 -0.3090114
v -0.16245556 -0.6113347 -0.49999526
v 0.7236073 0.1265765 0.5257253
v 0.9510578 0.45267487 0.30901262
v 0.85064787 0.283283 1.1007746E-08
v -0.27638802 -0.28361046 0.85064924
v -1.4901161E-08 0.45267487 1
v 0.26286882 -0.3712413 0.8090116
v -0.89442617 -0.24330768 -6.4512435E-09
v -0.95105785 0.45267487 0.30901262
v -0.6881894 -0.064457506 0.49999693
v 0.7236073 -0.2601465 -0.5257253
v 0.5877856 0.34242377 -0.8090167
v 0.26286882 -0.18252927 -0.8090116
v 0.7236073 0.1265765 0.5257253
v 0.5877856 0.45267487 0.8090167
v 0.9510578 0.45267487 0.30901262
v -0.27638802 -0.28361046 0.85064924
v -0.5877856 0.21364056 0.8090167
v -1.4901161E-08 0.45267487 1
v -0.89442617 -0.24330768 -6.4512435E-09
v -0.9510578 0.06789174 -0.30901262
v -0.95105785 0.45267487 0.30901262
v -0.27638802 -0.39789787 -0.85064924
v -0 0.45267487 -1
v -0.5877856 0.25254896 -0.8090167
v 0.7236073 -0.2601465 -0.5257253
v 0.9510578 0.34242377 -0.30901262
v 0.5877856 0.34242377 -0.8090167
v 0.9510578 0.34242377 -0.30901262
v 0.89442617 0.45267487 6.519258E-09
v 0.6881894 0.45267487 -0.4999969
v 0.9510578 0.34242377 -0.30901262
v 0.6881894 0.45267487 -0.4999969
v 0.5877856 0.34242377 -0.8090167
v 0.5877856 0.34242377 -0.8090167
v 0.6881894 0.45267487 -0.4999969
v 0.27638802 0.45267487 -0.85064924
v -0 0.45267487 -1
v -0.26286882 0.45267487 -0.8090116
v -0.5877856 0.25254896 -0.8090167
v -0.5877856 0.25254896 -0.8090167
v -0.26286882 0.45267487 -0.8090116
v -0.7236073 0.45267487 -0.5257253
v -0.9510578 0.06789174 -0.30901262
v -0.7236073 0.45267487 -0.5257253
v -0.85064787 0.45267487 -2.9802322E-08
v -0.9510578 0.06789174 -0.30901262
v -0.85064787 0.45267487 -2.9802322E-08
v -0.95105785 0.45267487 0.30901262
v -0.5877856 0.21364056 0.8090167
v -0.7236073 0.45267487 0.5257253
v -0.26286882 0.45267487 0.8090116
v -0.5877856 0.21364056 0.8090167
v -0.26286882 0.45267487 0.8090116
v -1.4901161E-08 0.45267487 1
v 0.5877856 0.34242377 -0.8090167
v 0.27638802 0.45267487 -0.85064924
v -0 0.45267487 -1
v 0.5877856 0.34242377 -0.8090167
v -0 0.45267487 -1
v 0.26286882 -0.18252927 -0.8090116
v 0.26286882 -0.18252927 -0.8090116
v -0 0.45267487 -1
v -0.27638802 -0.39789787 -0.85064924
v -0.5877856 0.25254896 -0.8090167
v -0.7236073 0.45267487 -0.5257253
v -0.9510578 0.06789174 -0.30901262
v -0.6881894 -0.12463572 -0.49999693
v -0.9510578 0.06789174 -0.30901262
v -0.89442617 -0.24330768 -6.4512435E-09
v -0.95105785 0.45267487 0.30901262
v -0.7236073 0.45267487 0.5257253
v -0.5877856 0.21364056 0.8090167
v -0.95105785 0.45267487 0.30901262
v -0.5877856 0.21364056 0.8090167
v -0.6881894 -0.064457506 0.49999693
v -0.6881894 -0.064457506 0.49999693
v -0.5877856 0.21364056 0.8090167
v -0.27638802 -0.28361046 0.85064924
v -1.4901161E-08 0.45267487 1
v 0.5877856 0.45267487 0.8090167
v 0.26286882 -0.3712413 0.8090116
v 0.26286882 -0.3712413 0.8090116
v 0.5877856 0.45267487 0.8090167
v 0.7236073 0.1265765 0.5257253
v 0.9510578 0.45267487 0.30901262
v 0.89442617 0.45267487 6.519258E-09
v 0.9510578 0.34242377 -0.30901262
v 0.9510578 0.45267487 0.30901262
v 0.9510578 0.34242377 -0.30901262
v 0.85064787 0.283283 1.1007746E-08
v 0.85064787 0.283283 1.1007746E-08
v 0.9510578 0.34242377 -0.30901262
v 0.7236073 -0.2601465 -0.5257253
v -0.16245556 -0.6113347 -0.49999526
v 0.26286882 -0.18252927 -0.8090116
v -0.27638802 -0.39789787 -0.85064924
v -0.16245556 -0.6113347 -0.49999526
v -0.27638802 -0.39789787 -0.85064924
v -0.6881894 -0.12463572 -0.49999693
v -0.16245556 -0.6113347 -0.49999526
v -0.6881894 -0.12463572 -0.49999693
v -0.5257298 -0.61473423 0
v -0.5257298 -0.61473423 0
v -0.6881894 -0.12463572 -0.49999693
v -0.89442617 -0.24330768 -6.4512435E-09
v -0.5257298 -0.61473423 0
v -0.89442617 -0.24330768 -6.4512435E-09
v -0.6881894 -0.064457506 0.49999693
v -0.5257298 -0.61473423 0
v -0.6881894 -0.064457506 0.49999693
v -0.16245556 -0.5411368 0.49999526
v -0.16245556 -0.5411368 0.49999526
v -0.6881894 -0.064457506 0.49999693
v -0.27638802 -0.28361046 0.85064924
v 0.85064787 0.283283 1.1007746E-08
v 0.7236073 -0.2601465 -0.5257253
v 0.42532268 -0.5485396 -0.3090114
v 0.85064787 0.283283 1.1007746E-08
v 0.42532268 -0.5485396 -0.3090114
v 0.42532268 -0.55387187 0.3090114
v 0.42532268 -0.55387187 0.3090114
v 0.42532268 -0.5485396 -0.3090114
v 1.3068592E-08 -0.58982724 0
v -0.16245556 -0.5411368 0.49999526
v -0.27638802 -0.28361046 0.85064924
v 0.26286882 -0.3712413 0.8090116
v -0.16245556 -0.5411368 0.49999526
v 0.26286882 -0.3712413 0.8090116
v 0.42532268 -0.55387187 0.3090114
v 0.42532268 -0.55387187 0.3090114
v 0.26286882 -0.3712413 0.8090116
v 0.7236073 0.1265765 0.5257253
v -0.27638802 -0.39789787 -0.85064924
v -0.5877856 0.25254896 -0.8090167
v -0.6881894 -0.12463572 -0.49999693
v -0.9510578 0.06789174 -0.30901262
v -0.7236073 0.45267487 0.5257253
v -0.42532265 0.45267487 0.3090114
v -0.26286882 0.45267487 0.8090116
v 0.16245556 0.45267487 0.4999953
v 1.4901161E-08 0.45267487 0
v 0.27638802 0.45267487 0.85064924
v -1.4901161E-08 0.45267487 1
v 0.5877856 0.45267487 0.8090167
v 0.6881894 0.45267487 0.49999693
v 0.9510578 0.45267487 0.30901262
v 0.16245556 0.45267487 0.4999953
v 0.89442617 0.45267487 6.519258E-09
v 0.5257298 0.45267487 3.7252903E-09
v 1.4901161E-08 0.45267487 0
v 0.5257298 0.45267487 3.7252903E-09
v 0.6881894 0.45267487 -0.4999969
v 0.16245557 0.45267487 -0.49999523
v 1.4901161E-08 0.45267487 0
v 0.27638802 0.45267487 -0.85064924
v -0 0.45267487 -1
v -0.26286882 0.45267487 -0.8090116
v 0.16245557 0.45267487 -0.49999523
v -0.42532265 0.45267487 -0.3090114
v 1.4901161E-08 0.45267487 0
v -0.7236073 0.45267487 -0.5257253
v -0.42532265 0.45267487 -0.3090114
v -0.85064787 0.45267487 -2.9802322E-08
v -0.42532265 0.45267487 0.3090114
v 1.4901161E-08 0.45267487 0
v -0.7236073 0.45267487 0.5257253
v -0.95105785 0.45267487 0.30901262
v 0.42532268 -0.5485396 -0.3090114
v 0.7236073 -0.2601465 -0.5257253
v 0.26286882 -0.18252927 -0.8090116
v -0.16245556 -0.6113347 -0.49999526
vt 0.818181 0
vt 0.8636355 0.0787305
vt 0.7727265 0.0787305
vt 0.727272 0.157461
vt 0.636363 0.157461
vt 0.68181753 0.0787305
vt 0.090909 0
vt 0.13636349 0.0787305
vt 0.0454545 0.0787305
vt 0.272727 0
vt 0.3181815 0.0787305
vt 0.22727251 0.0787305
vt 0.454545 0
vt 0.49999952 0.0787305
vt 0.4090905 0.0787305
vt 0.727272 0.157461
vt 0.68181753 0.236191
vt 0.636363 0.157461
vt 0.90909 0.157461
vt 0.8636355 0.236191
vt 0.818181 0.157461
vt 0.181818 0.157461
vt 0.13636349 0.236191
vt 0.090909 0.157461
vt 0.545454 0.157461
vt 0.49999952 0.236191
vt 0.45454502 0.157461
vt 0.727272 0.157461
vt 0.7727265 0.236191
vt 0.68181753 0.236191
vt 0.90909 0.157461
vt 0.954545 0.236191
vt 0.8636355 0.236191
vt 0.181818 0.157461
vt 0.22727251 0.236191
vt 0.13636349 0.236191
vt 0.363636 0.157461
vt 0.4090905 0.236191
vt 0.3181815 0.236191
vt 0.545454 0.157461
vt 0.5909085 0.236191
vt 0.49999952 0.236191
vt 0.5909085 0.236191
vt 0.636363 0.314921
vt 0.545454 0.314921
vt 0.5909085 0.236191
vt 0.545454 0.314921
vt 0.49999952 0.236191
vt 0.49999952 0.236191
vt 0.545454 0.314921
vt 0.454545 0.314921
vt 0.4090905 0.236191
vt 0.36363602 0.314921
vt 0.3181815 0.236191
vt 0.3181815 0.236191
vt 0.36363602 0.314921
vt 0.272727 0.314921
vt 0.22727251 0.236191
vt 0.272727 0.314921
vt 0.18181801 0.314921
vt 0.22727251 0.236191
vt 0.18181801 0.314921
vt 0.13636349 0.236191
vt 0.954545 0.236191
vt 1 0.314921
vt 0.9090905 0.314921
vt 0.954545 0.236191
vt 0.9090905 0.314921
vt 0.8636355 0.236191
vt 0.49999952 0.236191
vt 0.454545 0.314921
vt 0.4090905 0.236191
vt 0.49999952 0.236191
vt 0.4090905 0.236191
vt 0.45454502 0.157461
vt 0.45454502 0.157461
vt 0.4090905 0.236191
vt 0.363636 0.157461
vt 0.3181815 0.236191
vt 0.272727 0.314921
vt 0.22727251 0.236191
vt 0.27272698 0.157461
vt 0.22727251 0.236191
vt 0.181818 0.157461
vt 0.13636349 0.236191
vt 0.090909 0.314921
vt 0.0454545 0.236191
vt 0.13636349 0.236191
vt 0.0454545 0.236191
vt 0.090909 0.157461
vt 0.090909 0.157461
vt 0.0454545 0.236191
vt 0 0.157461
vt 0.8636355 0.236191
vt 0.7727265 0.236191
vt 0.818181 0.157461
vt 0.818181 0.157461
vt 0.7727265 0.236191
vt 0.727272 0.157461
vt 0.68181753 0.236191
vt 0.636363 0.314921
vt 0.5909085 0.236191
vt 0.68181753 0.236191
vt 0.5909085 0.236191
vt 0.636363 0.157461
vt 0.636363 0.157461
vt 0.5909085 0.236191
vt 0.545454 0.157461
vt 0.4090905 0.0787305
vt 0.45454502 0.157461
vt 0.363636 0.157461
vt 0.3181815 0.0787305
vt 0.363636 0.157461
vt 0.27272698 0.157461
vt 0.3181815 0.0787305
vt 0.27272698 0.157461
vt 0.22727251 0.0787305
vt 0.22727251 0.0787305
vt 0.27272698 0.157461
vt 0.181818 0.157461
vt 0.13636349 0.0787305
vt 0.181818 0.157461
vt 0.090909 0.157461
vt 0.13636349 0.0787305
vt 0.090909 0.157461
vt 0.0454545 0.0787305
vt 0.0454545 0.0787305
vt 0.090909 0.157461
vt 0 0.157461
vt 0.636363 0.157461
vt 0.545454 0.157461
vt 0.5909085 0.0787305
vt 0.636363 0.157461
vt 0.5909085 0.0787305
vt 0.68181753 0.0787305
vt 0.68181753 0.0787305
vt 0.5909085 0.0787305
vt 0.636363 0
vt 0.8636355 0.0787305
vt 0.90909 0.157461
vt 0.818181 0.157461
vt 0.8636355 0.0787305
vt 0.818181 0.157461
vt 0.7727265 0.0787305
vt 0.7727265 0.0787305
vt 0.818181 0.157461
vt 0.727272 0.157461
vt 0.363636 0.157461
vt 0.3181815 0.236191
vt 0.27272698 0.157461
vt 0.22727251 0.236191
vt 1 0.314921
vt 0.954545 0.3936515
vt 0.9090905 0.314921
vt 0.8636355 0.3936515
vt 0.90909 0.472382
vt 0.818181 0.314921
vt 0.8636355 0.236191
vt 0.7727265 0.236191
vt 0.72727203 0.314921
vt 0.68181753 0.236191
vt 0.7727265 0.3936515
vt 0.636363 0.314921
vt 0.68181753 0.3936515
vt 0.727272 0.472382
vt 0.5909085 0.3936515
vt 0.545454 0.314921
vt 0.49999952 0.3936515
vt 0.545454 0.472382
vt 0.454545 0.314921
vt 0.4090905 0.236191
vt 0.36363602 0.314921
vt 0.4090905 0.3936515
vt 0.3181815 0.3936515
vt 0.363636 0.472382
vt 0.272727 0.314921
vt 0.22727251 0.3936515
vt 0.18181801 0.314921
vt 0.13636349 0.3936515
vt 0.181818 0.472382
vt 0.090909 0.314921
vt 0.13636349 0.236191
vt 0.49999952 0.0787305
vt 0.545454 0.157461
vt 0.45454502 0.157461
vt 0.4090905 0.0787305
vn 0.011095547 -0.99487644 0.10048798
vn 0.011095547 -0.99487644 0.10048798
vn 0.011095547 -0.99487644 0.10048798
vn 0.9010172 -0.42406058 0.09132669
vn 0.9010172 -0.42406058 0.09132669
vn 0.9010172 -0.42406058 0.09132669
vn 0.047025528 -0.9926016 0.1119406
vn 0.047025528 -0.9926016 0.1119406
vn 0.047025528 -0.9926016 0.1119406
vn 0.04730495 -0.99849963 0.027580826
vn 0.04730495 -0.99849963 0.027580826
vn 0.04730495 -0.99849963 0.027580826
vn 0.103259124 -0.9946116 0.009233316
vn 0.103259124 -0.9946116 0.009233316
vn 0.103259124 -0.9946116 0.009233316
vn 0.8304441 -0.55600506 0.034942802
vn 0.8304441 -0.55600506 0.034942802
vn 0.8304441 -0.55600506 0.034942802
vn 0.040711086 -0.21328619 0.9761412
vn 0.040711086 -0.21328619 0.9761412
vn 0.040711086 -0.21328619 0.9761412
vn -0.8529724 -0.26821417 0.44777155
vn -0.8529724 -0.26821417 0.44777155
vn -0.8529724 -0.26821417 0.44777155
vn 0.46581158 -0.2883197 -0.8365951
vn 0.46581158 -0.2883197 -0.8365951
vn 0.46581158 -0.2883197 -0.8365951
vn 0.7970879 -0.17110328 0.57911533
vn 0.7970879 -0.17110328 0.57911533
vn 0.7970879 -0.17110328 0.57911533
vn -0.273918 -0.09137925 0.9574021
vn -0.273918 -0.09137925 0.9574021
vn -0.273918 -0.09137925 0.9574021
vn -0.9913396 -0.11148175 0.06940851
vn -0.9913396 -0.11148175 0.06940851
vn -0.9913396 -0.11148175 0.06940851
vn -0.2848842 -0.07522223 -0.9556059
vn -0.2848842 -0.07522223 -0.9556059
vn -0.2848842 -0.07522223 -0.9556059
vn 0.805469 -0.093571134 -0.5852045
vn 0.805469 -0.093571134 -0.5852045
vn 0.805469 -0.093571134 -0.5852045
vn 0.5026326 0.8392719 -0.20732392
vn 0.5026326 0.8392719 -0.20732392
vn 0.5026326 0.8392719 -0.20732392
vn 0.5981397 0.67333263 -0.4345712
vn 0.5981397 0.67333263 -0.4345712
vn 0.5981397 0.67333263 -0.4345712
vn 0.35249287 0.83927566 -0.41396278
vn 0.35249287 0.83927566 -0.41396278
vn 0.35249287 0.83927566 -0.41396278
vn -0.42522678 0.6903961 -0.5852653
vn -0.42522678 0.6903961 -0.5852653
vn -0.42522678 0.6903961 -0.5852653
vn -0.39900276 0.64782214 -0.6489401
vn -0.39900276 0.64782214 -0.6489401
vn -0.39900276 0.64782214 -0.6489401
vn -0.8889563 0.404489 -0.2148148
vn -0.8889563 0.404489 -0.2148148
vn -0.8889563 0.404489 -0.2148148
vn -0.85188365 0.44460177 -0.27680957
vn -0.85188365 0.44460177 -0.27680957
vn -0.85188365 0.44460177 -0.27680957
vn -0.42667478 0.57998925 0.69394606
vn -0.42667478 0.57998925 0.69394606
vn -0.42667478 0.57998925 0.69394606
vn -0.4592129 0.62421614 0.6320426
vn -0.4592129 0.62421614 0.6320426
vn -0.4592129 0.62421614 0.6320426
vn 0.33439398 0.7107967 -0.6188286
vn 0.33439398 0.7107967 -0.6188286
vn 0.33439398 0.7107967 -0.6188286
vn 0.27542472 -0.17048158 -0.94608516
vn 0.27542472 -0.17048158 -0.94608516
vn 0.27542472 -0.17048158 -0.94608516
vn 0.16278172 -0.22171092 -0.9614294
vn 0.16278172 -0.22171092 -0.9614294
vn 0.16278172 -0.22171092 -0.9614294
vn -0.8263191 0.18980458 -0.5302556
vn -0.8263191 0.18980458 -0.5302556
vn -0.8263191 0.18980458 -0.5302556
vn -0.71530133 -0.55361587 -0.42644274
vn -0.71530133 -0.55361587 -0.42644274
vn -0.71530133 -0.55361587 -0.42644274
vn -0.62523526 0.42244843 0.656215
vn -0.62523526 0.42244843 0.656215
vn -0.62523526 0.42244843 0.656215
vn -0.83631355 -0.24374963 0.4910864
vn -0.83631355 -0.24374963 0.4910864
vn -0.83631355 -0.24374963 0.4910864
vn -0.7083521 -0.39459574 0.5852619
vn -0.7083521 -0.39459574 0.5852619
vn -0.7083521 -0.39459574 0.5852619
vn 0.30674776 -0.1209737 0.94407165
vn 0.30674776 -0.1209737 0.94407165
vn 0.30674776 -0.1209737 0.94407165
vn 0.7024254 -0.27701026 0.65563995
vn 0.7024254 -0.27701026 0.65563995
vn 0.7024254 -0.27701026 0.65563995
vn 0.6918843 0.710787 -0.12679926
vn 0.6918843 0.710787 -0.12679926
vn 0.6918843 0.710787 -0.12679926
vn 0.74602944 -0.6555633 0.11694777
vn 0.74602944 -0.6555633 0.11694777
vn 0.74602944 -0.6555633 0.11694777
vn 0.8874269 -0.41043136 0.2098083
vn 0.8874269 -0.41043136 0.2098083
vn 0.8874269 -0.41043136 0.2098083
vn 0.34286022 -0.748823 -0.5671957
vn 0.34286022 -0.748823 -0.5671957
vn 0.34286022 -0.748823 -0.5671957
vn -0.6626361 -0.71578234 -0.22038412
vn -0.6626361 -0.71578234 -0.22038412
vn -0.6626361 -0.71578234 -0.22038412
vn -0.607967 -0.6567294 -0.44618672
vn -0.607967 -0.6567294 -0.44618672
vn -0.607967 -0.6567294 -0.44618672
vn -0.644778 -0.64003867 -0.41786566
vn -0.644778 -0.64003867 -0.41786566
vn -0.644778 -0.64003867 -0.41786566
vn -0.62323934 -0.6186583 0.4783668
vn -0.62323934 -0.6186583 0.4783668
vn -0.62323934 -0.6186583 0.4783668
vn -0.57672024 -0.63607174 0.5126466
vn -0.57672024 -0.63607174 0.5126466
vn -0.57672024 -0.63607174 0.5126466
vn -0.6386528 -0.70437706 0.30979916
vn -0.6386528 -0.70437706 0.30979916
vn -0.6386528 -0.70437706 0.30979916
vn 0.77032435 -0.5271546 0.35875946
vn 0.77032435 -0.5271546 0.35875946
vn 0.77032435 -0.5271546 0.35875946
vn 0.89094275 -0.45409885 -0.0039179986
vn 0.89094275 -0.45409885 -0.0039179986
vn 0.89094275 -0.45409885 -0.0039179986
vn 0.090429805 -0.9958658 -0.008592312
vn 0.090429805 -0.9958658 -0.008592312
vn 0.090429805 -0.9958658 -0.008592312
vn -0.08858774 -0.81633365 0.5707465
vn -0.08858774 -0.81633365 0.5707465
vn -0.08858774 -0.81633365 0.5707465
vn 0.10018488 -0.92364526 0.36992237
vn 0.10018488 -0.92364526 0.36992237
vn 0.10018488 -0.92364526 0.36992237
vn 0.7721493 -0.47346246 0.42381442
vn 0.7721493 -0.47346246 0.42381442
vn 0.7721493 -0.47346246 0.42381442
vn -0.7270667 -0.30883124 -0.6131862
vn -0.7270667 -0.30883124 -0.6131862
vn -0.7270667 -0.30883124 -0.6131862
vn -0.70117295 -0.33081144 -0.63160145
vn 1.6166307E-07 1 0
vn 1.6166307E-07 1 0
vn 1.6166307E-07 1 0
vn 1.1337719E-07 1 0
vn 1.1337719E-07 1 0
vn -0 1 0
vn -0 1 0
vn -0 1 0
vn -0 1 0
vn 4.8024873E-07 1 0
vn -0 1 0
vn -0 1 0
vn -0 1 0
vn -0 1 0
vn -0 1 0
vn -0 1 0
vn -0 1 0
vn -0 1 0
vn 1.6166283E-07 1 0
vn -0 1 0
vn 1.6166283E-07 1 0
vn 1.6166283E-07 1 0
vn -0 1 0
vn -0 1 0
vn -1.6166406E-07 1 0
vn -1.6166406E-07 1 0
vn -1.6166406E-07 1 0
vn -0 1 0
vn -0 1 0
vn 2.4249607E-07 1 0
vn -0 1 0
vn 0.25943068 -0.73717296 -0.6239164
vn 0.25943068 -0.73717296 -0.6239164
vn 0.25943068 -0.73717296 -0.6239164
vn 0.28080976 -0.72867537 -0.6246424
g Icosphere.491_0
f 3/3/3 2/2/2 1/1/1
f 6/6/6 5/5/5 4/4/4
f 9/9/9 8/8/8 7/7/7
f 12/12/12 11/11/11 10/10/10
f 15/15/15 14/14/14 13/13/13
f 18/18/18 17/17/17 16/16/16
f 21/21/21 20/20/20 19/19/19
f 24/24/24 23/23/23 22/22/22
f 27/27/27 26/26/26 25/25/25
f 30/30/30 29/29/29 28/28/28
f 33/33/33 32/32/32 31/31/31
f 36/36/36 35/35/35 34/34/34
f 39/39/39 38/38/38 37/37/37
f 42/42/42 41/41/41 40/40/40
f 45/45/45 44/44/44 43/43/43
f 48/48/48 47/47/47 46/46/46
f 51/51/51 50/50/50 49/49/49
f 54/54/54 53/53/53 52/52/52
f 57/57/57 56/56/56 55/55/55
f 60/60/60 59/59/59 58/58/58
f 63/63/63 62/62/62 61/61/61
f 66/66/66 65/65/65 64/64/64
f 69/69/69 68/68/68 67/67/67
f 72/72/72 71/71/71 70/70/70
f 75/75/75 74/74/74 73/73/73
f 78/78/78 77/77/77 76/76/76
f 81/81/81 80/80/80 79/79/79
f 84/84/84 83/83/83 82/82/82
f 87/87/87 86/86/86 85/85/85
f 90/90/90 89/89/89 88/88/88
f 93/93/93 92/92/92 91/91/91
f 96/96/96 95/95/95 94/94/94
f 99/99/99 98/98/98 97/97/97
f 102/102/102 101/101/101 100/100/100
f 105/105/105 104/104/104 103/103/103
f 108/108/108 107/107/107 106/106/106
f 111/111/111 110/110/110 109/109/109
f 114/114/114 113/113/113 112/112/112
f 117/117/117 116/116/116 115/115/115
f 120/120/120 119/119/119 118/118/118
f 123/123/123 122/122/122 121/121/121
f 126/126/126 125/125/125 124/124/124
f 129/129/129 128/128/128 127/127/127
f 132/132/132 131/131/131 130/130/130
f 135/135/135 134/134/134 133/133/133
f 138/138/138 137/137/137 136/136/136
f 141/141/141 140/140/140 139/139/139
f 144/144/144 143/143/143 142/142/142
f 147/147/147 146/146/146 145/145/145
f 150/150/150 149/149/149 148/148/148
f 150/150/150 151/151/151 149/149/149
f 154/154/154 153/153/153 152/152/152
f 154/154/154 155/155/155 153/153/153
f 155/155/155 156/156/156 153/153/153
f 157/157/157 155/155/155 154/154/154
f 157/157/157 154/154/154 158/158/158
f 159/159/159 157/157/157 158/158/158
f 160/160/160 157/157/157 159/159/159
f 161/161/161 160/160/160 159/159/159
f 160/160/160 162/162/162 157/157/157
f 163/163/163 160/160/160 161/161/161
f 160/160/160 164/164/164 162/162/162
f 163/163/163 164/164/164 160/160/160
f 164/164/164 165/165/165 162/162/162
f 167/167/167 166/166/166 163/163/163
f 167/167/167 168/168/168 166/166/166
f 168/168/168 169/169/169 166/166/166
f 170/170/170 168/168/168 167/167/167
f 172/172/172 170/170/170 171/171/171
f 172/172/172 173/173/173 170/170/170
f 172/172/172 174/174/174 173/173/173
f 174/174/174 175/175/175 173/173/173
f 176/176/176 174/174/174 172/172/172
f 178/178/178 177/177/177 176/176/176
f 178/178/178 179/179/179 177/177/177
f 179/179/179 180/180/180 177/177/177
f 181/181/181 179/179/179 178/178/178
f 181/181/181 178/178/178 182/182/182
f 185/185/185 184/184/184 183/183/183
f 186/186/186 185/185/185 183/183/183
