g Icosphere.026
v 2.4789062E-09 -0.7513364 0
v -0.16245556 -0.50681275 0.49999526
v 0.42532268 -0.55834913 0.3090114
v 0.7236073 0.1265765 0.5257253
v 0.85064787 0.283283 1.1007746E-08
v 0.42532268 -0.55834913 0.3090114
v 2.4789062E-09 -0.7513364 0
v -0.5257298 -0.61473966 0
v -0.16245556 -0.50681275 0.49999526
v 2.4789062E-09 -0.7513364 0
v -0.16245556 -0.62092626 -0.49999526
v -0.5257298 -0.61473966 0
v 2.4789062E-09 -0.7513364 0
v 0.42532268 -0.54440916 -0.3090114
v -0.16245556 -0.62092626 -0.49999526
v 0.7236073 0.1265765 0.5257253
v 0.9510578 0.45267487 0.30901262
v 0.85064787 0.283283 1.1007746E-08
v -0.27638802 -0.28361046 0.85064924
v -1.4901161E-08 0.45267487 1
v 0.26286882 -0.3712413 0.8090116
v -0.89442617 -0.24330768 -6.4512435E-09
v -0.95105785 0.45267487 0.30901262
v -0.6881894 -0.064457506 0.49999693
v 0.7236073 -0.2601465 -0.5257253
v 0.5877856 0.34242377 -0.8090167
v 0.26286882 -0.18252927 -0.8090116
v 0.7236073 0.1265765 0.5257253
v 0.5877856 0.45267487 0.8090167
v 0.9510578 0.45267487 0.30901262
v -0.27638802 -0.28361046 0.85064924
v -0.5877856 0.21364056 0.8090167
v -1.4901161E-08 0.45267487 1
v -0.89442617 -0.24330768 -6.4512435E-09
v -0.9510578 0.06789174 -0.30901262
v -0.95105785 0.45267487 0.30901262
v -0.27638802 -0.39789787 -0.85064924
v -0 0.45267487 -1
v -0.5877856 0.25254896 -0.8090167
v 0.7236073 -0.2601465 -0.5257253
v 0.9510578 0.34242377 -0.30901262
v 0.5877856 0.34242377 -0.8090167
v 0.9510578 0.34242377 -0.30901262
v 0.89442617 0.45267487 6.519258E-09
v 0.6881894 0.45267487 -0.4999969
v 0.9510578 0.34242377 -0.30901262
v 0.6881894 0.45267487 -0.4999969
v 0.5877856 0.34242377 -0.8090167
v 0.5877856 0.34242377 -0.8090167
v 0.6881894 0.45267487 -0.4999969
v 0.27638802 0.45267487 -0.85064924
v -0 0.45267487 -1
v -0.26286882 0.45267487 -0.8090116
v -0.5877856 0.25254896 -0.8090167
v -0.5877856 0.25254896 -0.8090167
v -0.26286882 0.45267487 -0.8090116
v -0.7236073 0.45267487 -0.5257253
v -0.9510578 0.06789174 -0.30901262
v -0.7236073 0.45267487 -0.5257253
v -0.85064787 0.45267487 -2.9802322E-08
v -0.9510578 0.06789174 -0.30901262
v -0.85064787 0.45267487 -2.9802322E-08
v -0.95105785 0.45267487 0.30901262
v -0.5877856 0.21364056 0.8090167
v -0.7236073 0.45267487 0.5257253
v -0.26286882 0.45267487 0.8090116
v -0.5877856 0.21364056 0.8090167
v -0.26286882 0.45267487 0.8090116
v -1.4901161E-08 0.45267487 1
v 0.5877856 0.34242377 -0.8090167
v 0.27638802 0.45267487 -0.85064924
v -0 0.45267487 -1
v 0.5877856 0.34242377 -0.8090167
v -0 0.45267487 -1
v 0.26286882 -0.18252927 -0.8090116
v 0.26286882 -0.18252927 -0.8090116
v -0 0.45267487 -1
v -0.27638802 -0.39789787 -0.85064924
v -0.5877856 0.25254896 -0.8090167
v -0.7236073 0.45267487 -0.5257253
v -0.9510578 0.06789174 -0.30901262
v -0.6881894 -0.12463572 -0.49999693
v -0.9510578 0.06789174 -0.30901262
v -0.89442617 -0.24330768 -6.4512435E-09
v -0.95105785 0.45267487 0.30901262
v -0.7236073 0.45267487 0.5257253
v -0.5877856 0.21364056 0.8090167
v -0.95105785 0.45267487 0.30901262
v -0.5877856 0.21364056 0.8090167
v -0.6881894 -0.064457506 0.49999693
v -0.6881894 -0.064457506 0.49999693
v -0.5877856 0.21364056 0.8090167
v -0.27638802 -0.28361046 0.85064924
v -1.4901161E-08 0.45267487 1
v 0.5877856 0.45267487 0.8090167
v 0.26286882 -0.3712413 0.8090116
v 0.26286882 -0.3712413 0.8090116
v 0.5877856 0.45267487 0.8090167
v 0.7236073 0.1265765 0.5257253
v 0.9510578 0.45267487 0.30901262
v 0.89442617 0.45267487 6.519258E-09
v 0.9510578 0.34242377 -0.30901262
v 0.9510578 0.45267487 0.30901262
v 0.9510578 0.34242377 -0.30901262
v 0.85064787 0.283283 1.1007746E-08
v 0.85064787 0.283283 1.1007746E-08
v 0.9510578 0.34242377 -0.30901262
v 0.7236073 -0.2601465 -0.5257253
v -0.16245556 -0.62092626 -0.49999526
v 0.26286882 -0.18252927 -0.8090116
v -0.27638802 -0.39789787 -0.85064924
v -0.16245556 -0.62092626 -0.49999526
v -0.27638802 -0.39789787 -0.85064924
v -0.6881894 -0.12463572 -0.49999693
v -0.5257298 -0.61473966 0
v -0.89442617 -0.24330768 -6.4512435E-09
v -0.6881894 -0.064457506 0.49999693
v -0.5257298 -0.61473966 0
v -0.6881894 -0.064457506 0.49999693
v -0.16245556 -0.50681275 0.49999526
v -0.16245556 -0.50681275 0.49999526
v -0.6881894 -0.064457506 0.49999693
v -0.27638802 -0.28361046 0.85064924
v 0.85064787 0.283283 1.1007746E-08
v 0.7236073 -0.2601465 -0.5257253
v 0.42532268 -0.54440916 -0.3090114
v 0.85064787 0.283283 1.1007746E-08
v 0.42532268 -0.54440916 -0.3090114
v 0.42532268 -0.55834913 0.3090114
v 0.42532268 -0.55834913 0.3090114
v 0.42532268 -0.54440916 -0.3090114
v 2.4789062E-09 -0.7513364 0
v -0.16245556 -0.50681275 0.49999526
v -0.27638802 -0.28361046 0.85064924
v 0.26286882 -0.3712413 0.8090116
v -0.16245556 -0.50681275 0.49999526
v 0.26286882 -0.3712413 0.8090116
v 0.42532268 -0.55834913 0.3090114
v 0.42532268 -0.55834913 0.3090114
v 0.26286882 -0.3712413 0.8090116
v 0.7236073 0.1265765 0.5257253
v -0.27638802 -0.39789787 -0.85064924
v -0.5877856 0.25254896 -0.8090167
v -0.6881894 -0.12463572 -0.49999693
v -0.9510578 0.06789174 -0.30901262
v -0.7236073 0.45267487 0.5257253
v -0.42532265 0.45267487 0.3090114
v -0.26286882 0.45267487 0.8090116
v 0.16245556 0.45267487 0.4999953
v 1.4901161E-08 0.45267487 0
v 0.27638802 0.45267487 0.85064924
v -1.4901161E-08 0.45267487 1
v 0.5877856 0.45267487 0.8090167
v 0.6881894 0.45267487 0.49999693
v 0.9510578 0.45267487 0.30901262
v 0.16245556 0.45267487 0.4999953
v 0.89442617 0.45267487 6.519258E-09
v 0.5257298 0.45267487 3.7252903E-09
v 1.4901161E-08 0.45267487 0
v 0.5257298 0.45267487 3.7252903E-09
v 0.6881894 0.45267487 -0.4999969
v 0.16245557 0.45267487 -0.49999523
v 1.4901161E-08 0.45267487 0
v 0.27638802 0.45267487 -0.85064924
v -0 0.45267487 -1
v -0.26286882 0.45267487 -0.8090116
v 0.16245557 0.45267487 -0.49999523
v -0.42532265 0.45267487 -0.3090114
v 1.4901161E-08 0.45267487 0
v -0.7236073 0.45267487 -0.5257253
v -0.42532265 0.45267487 -0.3090114
v -0.85064787 0.45267487 -2.9802322E-08
v -0.42532265 0.45267487 0.3090114
v 1.4901161E-08 0.45267487 0
v -0.7236073 0.45267487 0.5257253
v -0.95105785 0.45267487 0.30901262
v 0.42532268 -0.54440916 -0.3090114
v 0.7236073 -0.2601465 -0.5257253
v 0.26286882 -0.18252927 -0.8090116
v -0.16245556 -0.62092626 -0.49999526
v -0.16245556 -0.62092626 -0.49999526
v -0.6881894 -0.12463572 -0.49999693
v -0.5257298 -0.61473966 0
v -0.89442617 -0.24330768 -6.4512435E-09
vt 0.818181 0
vt 0.8636355 0.0787305
vt 0.7727265 0.0787305
vt 0.727272 0.157461
vt 0.636363 0.157461
vt 0.68181753 0.0787305
vt 0.090909 0
vt 0.13636349 0.0787305
vt 0.0454545 0.0787305
vt 0.272727 0
vt 0.3181815 0.0787305
vt 0.22727251 0.0787305
vt 0.454545 0
vt 0.49999952 0.0787305
vt 0.4090905 0.0787305
vt 0.727272 0.157461
vt 0.68181753 0.236191
vt 0.636363 0.157461
vt 0.90909 0.157461
vt 0.8636355 0.236191
vt 0.818181 0.157461
vt 0.181818 0.157461
vt 0.13636349 0.236191
vt 0.090909 0.157461
vt 0.545454 0.157461
vt 0.49999952 0.236191
vt 0.45454502 0.157461
vt 0.727272 0.157461
vt 0.7727265 0.236191
vt 0.68181753 0.236191
vt 0.90909 0.157461
vt 0.954545 0.236191
vt 0.8636355 0.236191
vt 0.181818 0.157461
vt 0.22727251 0.236191
vt 0.13636349 0.236191
vt 0.363636 0.157461
vt 0.4090905 0.236191
vt 0.3181815 0.236191
vt 0.545454 0.157461
vt 0.5909085 0.236191
vt 0.49999952 0.236191
vt 0.5909085 0.236191
vt 0.636363 0.314921
vt 0.545454 0.314921
vt 0.5909085 0.236191
vt 0.545454 0.314921
vt 0.49999952 0.236191
vt 0.49999952 0.236191
vt 0.545454 0.314921
vt 0.454545 0.314921
vt 0.4090905 0.236191
vt 0.36363602 0.314921
vt 0.3181815 0.236191
vt 0.3181815 0.236191
vt 0.36363602 0.314921
vt 0.272727 0.314921
vt 0.22727251 0.236191
vt 0.272727 0.314921
vt 0.18181801 0.314921
vt 0.22727251 0.236191
vt 0.18181801 0.314921
vt 0.13636349 0.236191
vt 0.954545 0.236191
vt 1 0.314921
vt 0.9090905 0.314921
vt 0.954545 0.236191
vt 0.9090905 0.314921
vt 0.8636355 0.236191
vt 0.49999952 0.236191
vt 0.454545 0.314921
vt 0.4090905 0.236191
vt 0.49999952 0.236191
vt 0.4090905 0.236191
vt 0.45454502 0.157461
vt 0.45454502 0.157461
vt 0.4090905 0.236191
vt 0.363636 0.157461
vt 0.3181815 0.236191
vt 0.272727 0.314921
vt 0.22727251 0.236191
vt 0.27272698 0.157461
vt 0.22727251 0.236191
vt 0.181818 0.157461
vt 0.13636349 0.236191
vt 0.090909 0.314921
vt 0.0454545 0.236191
vt 0.13636349 0.236191
vt 0.0454545 0.236191
vt 0.090909 0.157461
vt 0.090909 0.157461
vt 0.0454545 0.236191
vt 0 0.157461
vt 0.8636355 0.236191
vt 0.7727265 0.236191
vt 0.818181 0.157461
vt 0.818181 0.157461
vt 0.7727265 0.236191
vt 0.727272 0.157461
vt 0.68181753 0.236191
vt 0.636363 0.314921
vt 0.5909085 0.236191
vt 0.68181753 0.236191
vt 0.5909085 0.236191
vt 0.636363 0.157461
vt 0.636363 0.157461
vt 0.5909085 0.236191
vt 0.545454 0.157461
vt 0.4090905 0.0787305
vt 0.45454502 0.157461
vt 0.363636 0.157461
vt 0.3181815 0.0787305
vt 0.363636 0.157461
vt 0.27272698 0.157461
vt 0.13636349 0.0787305
vt 0.181818 0.157461
vt 0.090909 0.157461
vt 0.13636349 0.0787305
vt 0.090909 0.157461
vt 0.0454545 0.0787305
vt 0.0454545 0.0787305
vt 0.090909 0.157461
vt 0 0.157461
vt 0.636363 0.157461
vt 0.545454 0.157461
vt 0.5909085 0.0787305
vt 0.636363 0.157461
vt 0.5909085 0.0787305
vt 0.68181753 0.0787305
vt 0.68181753 0.0787305
vt 0.5909085 0.0787305
vt 0.636363 0
vt 0.8636355 0.0787305
vt 0.90909 0.157461
vt 0.818181 0.157461
vt 0.8636355 0.0787305
vt 0.818181 0.157461
vt 0.7727265 0.0787305
vt 0.7727265 0.0787305
vt 0.818181 0.157461
vt 0.727272 0.157461
vt 0.363636 0.157461
vt 0.3181815 0.236191
vt 0.27272698 0.157461
vt 0.22727251 0.236191
vt 1 0.314921
vt 0.954545 0.3936515
vt 0.9090905 0.314921
vt 0.8636355 0.3936515
vt 0.90909 0.472382
vt 0.818181 0.314921
vt 0.8636355 0.236191
vt 0.7727265 0.236191
vt 0.72727203 0.314921
vt 0.68181753 0.236191
vt 0.7727265 0.3936515
vt 0.636363 0.314921
vt 0.68181753 0.3936515
vt 0.727272 0.472382
vt 0.5909085 0.3936515
vt 0.545454 0.314921
vt 0.49999952 0.3936515
vt 0.545454 0.472382
vt 0.454545 0.314921
vt 0.4090905 0.236191
vt 0.36363602 0.314921
vt 0.4090905 0.3936515
vt 0.3181815 0.3936515
vt 0.363636 0.472382
vt 0.272727 0.314921
vt 0.22727251 0.3936515
vt 0.18181801 0.314921
vt 0.13636349 0.3936515
vt 0.181818 0.472382
vt 0.090909 0.314921
vt 0.13636349 0.236191
vt 0.49999952 0.0787305
vt 0.545454 0.157461
vt 0.45454502 0.157461
vt 0.4090905 0.0787305
vt 0.3181815 0.0787305
vt 0.27272698 0.157461
vt 0.22727251 0.0787305
vt 0.181818 0.157461
vn 0.07062062 -0.8868365 0.45665488
vn 0.07062062 -0.8868365 0.45665488
vn 0.07062062 -0.8868365 0.45665488
vn 0.9019212 -0.4219504 0.092174046
vn 0.9019212 -0.4219504 0.092174046
vn 0.9019212 -0.4219504 0.092174046
vn -0.23415698 -0.9012174 0.36466122
vn -0.23415698 -0.9012174 0.36466122
vn -0.23415698 -0.9012174 0.36466122
vn -0.24788652 -0.9540586 -0.16829844
vn -0.24788652 -0.9540586 -0.16829844
vn -0.24788652 -0.9540586 -0.16829844
vn 0.22190866 -0.92347676 -0.31296512
vn 0.22190866 -0.92347676 -0.31296512
vn 0.22190866 -0.92347676 -0.31296512
vn 0.8304441 -0.55600506 0.034942802
vn 0.8304441 -0.55600506 0.034942802
vn 0.8304441 -0.55600506 0.034942802
vn 0.040711086 -0.21328619 0.9761412
vn 0.040711086 -0.21328619 0.9761412
vn 0.040711086 -0.21328619 0.9761412
vn -0.8529724 -0.26821417 0.44777155
vn -0.8529724 -0.26821417 0.44777155
vn -0.8529724 -0.26821417 0.44777155
vn 0.46581158 -0.2883197 -0.8365951
vn 0.46581158 -0.2883197 -0.8365951
vn 0.46581158 -0.2883197 -0.8365951
vn 0.7970879 -0.17110328 0.57911533
vn 0.7970879 -0.17110328 0.57911533
vn 0.7970879 -0.17110328 0.57911533
vn -0.273918 -0.09137925 0.9574021
vn -0.273918 -0.09137925 0.9574021
vn -0.273918 -0.09137925 0.9574021
vn -0.9913396 -0.11148175 0.06940851
vn -0.9913396 -0.11148175 0.06940851
vn -0.9913396 -0.11148175 0.06940851
vn -0.2848842 -0.07522223 -0.9556059
vn -0.2848842 -0.07522223 -0.9556059
vn -0.2848842 -0.07522223 -0.9556059
vn 0.805469 -0.093571134 -0.5852045
vn 0.805469 -0.093571134 -0.5852045
vn 0.805469 -0.093571134 -0.5852045
vn 0.5026326 0.8392719 -0.20732392
vn 0.5026326 0.8392719 -0.20732392
vn 0.5026326 0.8392719 -0.20732392
vn 0.5981397 0.67333263 -0.4345712
vn 0.5981397 0.67333263 -0.4345712
vn 0.5981397 0.67333263 -0.4345712
vn 0.35249287 0.83927566 -0.41396278
vn 0.35249287 0.83927566 -0.41396278
vn 0.35249287 0.83927566 -0.41396278
vn -0.42522678 0.6903961 -0.5852653
vn -0.42522678 0.6903961 -0.5852653
vn -0.42522678 0.6903961 -0.5852653
vn -0.39900276 0.64782214 -0.6489401
vn -0.39900276 0.64782214 -0.6489401
vn -0.39900276 0.64782214 -0.6489401
vn -0.8889563 0.404489 -0.2148148
vn -0.8889563 0.404489 -0.2148148
vn -0.8889563 0.404489 -0.2148148
vn -0.85188365 0.44460177 -0.27680957
vn -0.85188365 0.44460177 -0.27680957
vn -0.85188365 0.44460177 -0.27680957
vn -0.42667478 0.57998925 0.69394606
vn -0.42667478 0.57998925 0.69394606
vn -0.42667478 0.57998925 0.69394606
vn -0.4592129 0.62421614 0.6320426
vn -0.4592129 0.62421614 0.6320426
vn -0.4592129 0.62421614 0.6320426
vn 0.33439398 0.7107967 -0.6188286
vn 0.33439398 0.7107967 -0.6188286
vn 0.33439398 0.7107967 -0.6188286
vn 0.27542472 -0.17048158 -0.94608516
vn 0.27542472 -0.17048158 -0.94608516
vn 0.27542472 -0.17048158 -0.94608516
vn 0.16278172 -0.22171092 -0.9614294
vn 0.16278172 -0.22171092 -0.9614294
vn 0.16278172 -0.22171092 -0.9614294
vn -0.8263191 0.18980458 -0.5302556
vn -0.8263191 0.18980458 -0.5302556
vn -0.8263191 0.18980458 -0.5302556
vn -0.71530133 -0.55361587 -0.42644274
vn -0.71530133 -0.55361587 -0.42644274
vn -0.71530133 -0.55361587 -0.42644274
vn -0.62523526 0.42244843 0.656215
vn -0.62523526 0.42244843 0.656215
vn -0.62523526 0.42244843 0.656215
vn -0.83631355 -0.24374963 0.4910864
vn -0.83631355 -0.24374963 0.4910864
vn -0.83631355 -0.24374963 0.4910864
vn -0.7083521 -0.39459574 0.5852619
vn -0.7083521 -0.39459574 0.5852619
vn -0.7083521 -0.39459574 0.5852619
vn 0.30674776 -0.1209737 0.94407165
vn 0.30674776 -0.1209737 0.94407165
vn 0.30674776 -0.1209737 0.94407165
vn 0.7024254 -0.27701026 0.65563995
vn 0.7024254 -0.27701026 0.65563995
vn 0.7024254 -0.27701026 0.65563995
vn 0.6918843 0.710787 -0.12679926
vn 0.6918843 0.710787 -0.12679926
vn 0.6918843 0.710787 -0.12679926
vn 0.74602944 -0.6555633 0.11694777
vn 0.74602944 -0.6555633 0.11694777
vn 0.74602944 -0.6555633 0.11694777
vn 0.8874269 -0.41043136 0.2098083
vn 0.8874269 -0.41043136 0.2098083
vn 0.8874269 -0.41043136 0.2098083
vn 0.34019077 -0.7394941 -0.5808776
vn 0.34019077 -0.7394941 -0.5808776
vn 0.34019077 -0.7394941 -0.5808776
vn -0.66757566 -0.70718175 -0.23288773
vn -0.66757566 -0.70718175 -0.23288773
vn -0.66757566 -0.70718175 -0.23288773
vn -0.62324363 -0.61865354 0.47836727
vn -0.62324363 -0.61865354 0.47836727
vn -0.62324363 -0.61865354 0.47836727
vn -0.5440093 -0.6465504 0.5348145
vn -0.5440093 -0.6465504 0.5348145
vn -0.5440093 -0.6465504 0.5348145
vn -0.62031883 -0.73724246 0.26772743
vn -0.62031883 -0.73724246 0.26772743
vn -0.62031883 -0.73724246 0.26772743
vn 0.7673636 -0.5293959 0.36179146
vn 0.7673636 -0.5293959 0.36179146
vn 0.7673636 -0.5293959 0.36179146
vn 0.890941 -0.45400366 -0.010240366
vn 0.890941 -0.45400366 -0.010240366
vn 0.890941 -0.45400366 -0.010240366
vn 0.42536953 -0.90478957 -0.020408211
vn 0.42536953 -0.90478957 -0.020408211
vn 0.42536953 -0.90478957 -0.020408211
vn -0.09926404 -0.853727 0.51117206
vn -0.09926404 -0.853727 0.51117206
vn -0.09926404 -0.853727 0.51117206
vn 0.03534261 -0.9321619 0.36031252
vn 0.03534261 -0.9321619 0.36031252
vn 0.03534261 -0.9321619 0.36031252
vn 0.7717267 -0.47121543 0.4270759
vn 0.7717267 -0.47121543 0.4270759
vn 0.7717267 -0.47121543 0.4270759
vn -0.7270667 -0.30883124 -0.6131862
vn -0.7270667 -0.30883124 -0.6131862
vn -0.7270667 -0.30883124 -0.6131862
vn -0.70117295 -0.33081144 -0.63160145
vn 1.6166307E-07 1 0
vn 1.6166307E-07 1 0
vn 1.6166307E-07 1 0
vn 1.1337719E-07 1 0
vn 1.1337719E-07 1 0
vn -0 1 0
vn -0 1 0
vn -0 1 0
vn -0 1 0
vn 4.8024873E-07 1 0
vn -0 1 0
vn -0 1 0
vn -0 1 0
vn -0 1 0
vn -0 1 0
vn -0 1 0
vn -0 1 0
vn -0 1 0
vn 1.6166283E-07 1 0
vn -0 1 0
vn 1.6166283E-07 1 0
vn 1.6166283E-07 1 0
vn -0 1 0
vn -0 1 0
vn -1.6166406E-07 1 0
vn -1.6166406E-07 1 0
vn -1.6166406E-07 1 0
vn -0 1 0
vn -0 1 0
vn 2.4249607E-07 1 0
vn -0 1 0
vn 0.2562739 -0.7415777 -0.619989
vn 0.2562739 -0.7415777 -0.619989
vn 0.2562739 -0.7415777 -0.619989
vn 0.2963045 -0.72540057 -0.62128717
vn -0.61648744 -0.65306306 -0.43983167
vn -0.61648744 -0.65306306 -0.43983167
vn -0.61648744 -0.65306306 -0.43983167
vn -0.6447824 -0.6400338 -0.41786644
g Icosphere.026_0
f 3/3/3 2/2/2 1/1/1
f 6/6/6 5/5/5 4/4/4
f 9/9/9 8/8/8 7/7/7
f 12/12/12 11/11/11 10/10/10
f 15/15/15 14/14/14 13/13/13
f 18/18/18 17/17/17 16/16/16
f 21/21/21 20/20/20 19/19/19
f 24/24/24 23/23/23 22/22/22
f 27/27/27 26/26/26 25/25/25
f 30/30/30 29/29/29 28/28/28
f 33/33/33 32/32/32 31/31/31
f 36/36/36 35/35/35 34/34/34
f 39/39/39 38/38/38 37/37/37
f 42/42/42 41/41/41 40/40/40
f 45/45/45 44/44/44 43/43/43
f 48/48/48 47/47/47 46/46/46
f 51/51/51 50/50/50 49/49/49
f 54/54/54 53/53/53 52/52/52
f 57/57/57 56/56/56 55/55/55
f 60/60/60 59/59/59 58/58/58
f 63/63/63 62/62/62 61/61/61
f 66/66/66 65/65/65 64/64/64
f 69/69/69 68/68/68 67/67/67
f 72/72/72 71/71/71 70/70/70
f 75/75/75 74/74/74 73/73/73
f 78/78/78 77/77/77 76/76/76
f 81/81/81 80/80/80 79/79/79
f 84/84/84 83/83/83 82/82/82
f 87/87/87 86/86/86 85/85/85
f 90/90/90 89/89/89 88/88/88
f 93/93/93 92/92/92 91/91/91
f 96/96/96 95/95/95 94/94/94
f 99/99/99 98/98/98 97/97/97
f 102/102/102 101/101/101 100/100/100
f 105/105/105 104/104/104 103/103/103
f 108/108/108 107/107/107 106/106/106
f 111/111/111 110/110/110 109/109/109
f 114/114/114 113/113/113 112/112/112
f 117/117/117 116/116/116 115/115/115
f 120/120/120 119/119/119 118/118/118
f 123/123/123 122/122/122 121/121/121
f 126/126/126 125/125/125 124/124/124
f 129/129/129 128/128/128 127/127/127
f 132/132/132 131/131/131 130/130/130
f 135/135/135 134/134/134 133/133/133
f 138/138/138 137/137/137 136/136/136
f 141/141/141 140/140/140 139/139/139
f 144/144/144 143/143/143 142/142/142
f 144/144/144 145/145/145 143/143/143
f 148/148/148 147/147/147 146/146/146
f 148/148/148 149/149/149 147/147/147
f 149/149/149 150/150/150 147/147/147
f 151/151/151 149/149/149 148/148/148
f 151/151/151 148/148/148 152/152/152
f 153/153/153 151/151/151 152/152/152
f 154/154/154 151/151/151 153/153/153
f 155/155/155 154/154/154 153/153/153
f 154/154/154 156/156/156 151/151/151
f 157/157/157 154/154/154 155/155/155
f 154/154/154 158/158/158 156/156/156
f 157/157/157 158/158/158 154/154/154
f 158/158/158 159/159/159 156/156/156
f 161/161/161 160/160/160 157/157/157
f 161/161/161 162/162/162 160/160/160
f 162/162/162 163/163/163 160/160/160
f 164/164/164 162/162/162 161/161/161
f 166/166/166 164/164/164 165/165/165
f 166/166/166 167/167/167 164/164/164
f 166/166/166 168/168/168 167/167/167
f 168/168/168 169/169/169 167/167/167
f 170/170/170 168/168/168 166/166/166
f 172/172/172 171/171/171 170/170/170
f 172/172/172 173/173/173 171/171/171
f 173/173/173 174/174/174 171/171/171
f 175/175/175 173/173/173 172/172/172
f 175/175/175 172/172/172 176/176/176
f 179/179/179 178/178/178 177/177/177
f 180/180/180 179/179/179 177/177/177
f 183/183/183 182/182/182 181/181/181
f 184/184/184 182/182/182 183/183/183
