g Icosphere.044
v 0.56597316 0.43000445 -0.056969542
v 0.12581721 0.43157077 -0.03636686
v 0.56597316 0.4289785 -0.5272
v 0.56597316 0.43112236 0.5008684
v 0.56597316 0.43000445 -0.056969542
v 0.56597316 0.43130916 -0.033279315
v 0.56597316 0.43000445 -0.056969542
v 0.56597316 0.43036234 -0.56358206
v 0.56597316 0.4289785 -0.5272
v 0.56597316 0.4293024 -0.690832
v -0.6881894 0.23511045 -0.6908322
v -0.9510578 0.21685682 -0.6908322
v -0.89442617 0.23511045 0.6004238
v -1.621485 0.06968805 -0.2528051
v -1.6781166 0.19746365 -0.56181777
v -1.6781166 0.43157077 0.056207508
v -1.6781166 0.19746365 -0.56181777
v -1.4506661 0.43157077 -0.7774169
v -1.5777066 0.43638998 -0.25847927
v -1.6781166 0.19746365 -0.56181777
v -1.5777066 0.43638998 -0.25847927
v -1.6781166 0.43157077 0.056207508
v 0.56597316 0.23410602 -0.690832
v -0.6881894 0.23511045 -0.6908322
v -0.89442617 0.23511045 0.6004238
v 0.56597316 0.23494591 0.80901176
v -0.2143204 0.43157077 0.6004238
v 0.56597316 0.4305645 0.7622513
v 0.56597316 0.23494591 0.80901176
v -0.89442617 0.23511045 0.6004238
v -0.7236073 0.43157077 0.57478964
v -0.95105785 0.43157077 0.57774097
v -0.7236073 0.43157077 -0.6908322
v -0.9510578 0.21685682 -0.6908322
v -0.6881894 0.23511045 -0.6908322
v -0.2234921 0.43157077 -0.69083214
v 0.56597316 0.4293024 -0.690832
v 0.56597316 0.23410602 -0.690832
v 1.2672632 0.32390139 -0.6908363
v 1.2672632 0.12851302 -0.6908363
v 1.7883489 0.20642774 -0.69083935
v 1.7883489 -0.018418444 -0.69083935
v 2.3467734 0.028770328 -0.690843
v 2.3467734 -0.16768996 -0.690843
v -0.9510578 0.21685682 -0.6908322
v -1.6781166 0.19746365 -0.56181777
v -1.621485 0.06968805 -0.2528051
v -0.89442617 0.23511045 0.6004238
v -0.7236073 0.43157077 0.57478964
v -0.42532265 0.43157077 0.27196434
v -0.2143204 0.43157077 0.6004238
v 0.34160632 0.43157077 0.5205539
v 0.12581721 0.43157077 -0.03636686
v 0.56597316 0.43112236 0.5008684
v 0.56597316 0.4305645 0.7622513
v 0.34160632 0.43157077 0.5205539
v 0.56597316 0.43000445 -0.056969542
v 0.12581721 0.43157077 -0.03636686
v 0.56597316 0.4293024 -0.690832
v 0.56597316 0.4289785 -0.5272
v -0.2234921 0.43157077 -0.69083214
v -0.2763241 0.43157077 -0.49007612
v 0.12581721 0.43157077 -0.03636686
v -0.7236073 0.43157077 -0.6908322
v -0.85064787 0.43157077 0.024752168
v -1.4506661 0.43157077 -0.7774169
v -0.2763241 0.43157077 -0.49007612
v -1.5777066 0.43638998 -0.25847927
v -0.42532265 0.43157077 0.27196434
v 0.12581721 0.43157077 -0.03636686
v -0.7236073 0.43157077 0.57478964
v -0.95105785 0.43157077 0.57774097
v -1.6781166 0.43157077 0.056207508
v -0.89442617 0.23511045 0.6004238
v -1.621485 0.06968805 -0.2528051
v -1.6781166 0.43157077 0.056207508
v -0.95105785 0.43157077 0.57774097
v 0.56597316 0.4305645 0.7622513
v 0.56597316 0.43112236 0.5008684
v 0.56597316 0.4290531 0.3127774
v 0.56597316 0.43130916 -0.033279315
v 0.56597316 0.23494591 0.80901176
v 1.2672632 0.13243088 0.80900747
v 1.2672632 0.12851302 -0.6908363
v 0.56597316 0.23410602 -0.690832
v -0.7236073 0.43157077 -0.6908322
v -1.4506661 0.43157077 -0.7774169
v -1.6781166 0.19746365 -0.56181777
v -0.9510578 0.21685682 -0.6908322
v 1.2672632 0.3110435 0.31277317
v 1.7883489 0.18512985 0.7622439
v 1.2672632 0.31735015 0.76224715
v 1.7883489 0.17112537 0.31277004
v 2.3467734 0.028770328 0.7622404
v 2.3467734 0.028770328 0.31276643
v 1.7883489 0.17154217 -0.033286676
v 2.3467734 0.028770328 -0.033290282
v 1.7883489 0.17898849 -0.56358945
v 2.3467734 0.028770328 -0.56359303
v 1.2672632 0.3258731 -0.5635863
v 1.2672632 0.3332091 -0.033283547
v 1.7883489 0.17112537 0.31277004
v 1.2672632 0.3110435 0.31277317
v 0.56597316 0.4293024 -0.690832
v 1.2672632 0.32390139 -0.6908363
v 1.2672632 0.3258731 -0.5635863
v 0.56597316 0.43036234 -0.56358206
v 1.2672632 0.3332091 -0.033283547
v 0.56597316 0.43130916 -0.033279315
v 1.2672632 0.3110435 0.31277317
v 0.56597316 0.4290531 0.3127774
v 1.2672632 0.31735015 0.76224715
v 0.56597316 0.4305645 0.7622513
v 0.56597316 0.4305645 0.7622513
v 1.2672632 0.13243088 0.80900747
v 0.56597316 0.23494591 0.80901176
v 1.2672632 0.31735015 0.76224715
v 1.7883489 -0.012120012 0.8090044
v 1.7883489 0.18512985 0.7622439
v 2.3467734 -0.16768996 0.80900085
v 2.3467734 0.028770328 0.7622404
v 1.2672632 0.32390139 -0.6908363
v 1.7883489 0.17898849 -0.56358945
v 1.2672632 0.3258731 -0.5635863
v 1.7883489 0.20642774 -0.69083935
v 2.3467734 0.028770328 -0.56359303
v 2.3467734 0.028770328 -0.690843
v 1.2672632 0.13243088 0.80900747
v 1.7883489 -0.018418444 -0.69083935
v 1.2672632 0.12851302 -0.6908363
v 1.7883489 -0.012120012 0.8090044
v 2.3467734 -0.16768996 -0.690843
v 2.3467734 -0.16768996 0.80900085
v 2.3467734 0.028770328 -0.690843
v 2.3467734 -0.16768996 -0.690843
v 2.3467734 -0.16768996 0.80900085
v 2.3467734 0.028770328 0.7622404
v 2.3467734 0.028770328 -0.56359303
v 2.3467734 0.028770328 -0.033290282
v 2.3467734 0.028770328 0.31276643
vt 0.5909085 0.3936515
vt 0.545454 0.472382
vt 0.49999952 0.3936515
vt 0.72727203 0.314921
vt 0.68181753 0.3936515
vt 0.636363 0.314921
vt 0.5909085 0.3936515
vt 0.545454 0.314921
vt 0.49999952 0.3936515
vt 0.454545 0.314921
vt 0.27272698 0.157461
vt 0.22727251 0.236191
vt 0.181818 0.157461
vt 0.181818 0.157461
vt 0.22727251 0.236191
vt 0.13636349 0.236191
vt 0.22727251 0.236191
vt 0.272727 0.314921
vt 0.18181801 0.314921
vt 0.22727251 0.236191
vt 0.18181801 0.314921
vt 0.13636349 0.236191
vt 0.545454 0.157461
vt 0.27272698 0.157461
vt 0.181818 0.157461
vt 0.818181 0.157461
vt 0.9090905 0.314921
vt 0.7727265 0.236191
vt 0.818181 0.157461
vt 0.181818 0.157461
vt 0.090909 0.314921
vt 0.13636349 0.236191
vt 0.272727 0.314921
vt 0.22727251 0.236191
vt 0.27272698 0.157461
vt 0.36363602 0.314921
vt 0.454545 0.314921
vt 0.545454 0.157461
vt 0.454545 0.314921
vt 0.545454 0.157461
vt 0.454545 0.314921
vt 0.545454 0.157461
vt 0.454545 0.314921
vt 0.545454 0.157461
vt 0.22727251 0.236191
vt 0.22727251 0.236191
vt 0.181818 0.157461
vt 0.181818 0.157461
vt 1 0.314921
vt 0.954545 0.3936515
vt 0.9090905 0.314921
vt 0.8636355 0.3936515
vt 0.90909 0.472382
vt 0.72727203 0.314921
vt 0.7727265 0.236191
vt 0.7727265 0.3936515
vt 0.68181753 0.3936515
vt 0.727272 0.472382
vt 0.454545 0.314921
vt 0.4090905 0.3936515
vt 0.36363602 0.314921
vt 0.3181815 0.3936515
vt 0.363636 0.472382
vt 0.272727 0.314921
vt 0.18181801 0.314921
vt 0.272727 0.314921
vt 0.22727251 0.3936515
vt 0.18181801 0.314921
vt 0.13636349 0.3936515
vt 0.181818 0.472382
vt 0.090909 0.314921
vt 0.13636349 0.236191
vt 0.13636349 0.236191
vt 0.181818 0.157461
vt 0.181818 0.157461
vt 0.13636349 0.236191
vt 0.13636349 0.236191
vt 0.7727265 0.236191
vt 0.72727203 0.314921
vt 0.68181753 0.236191
vt 0.636363 0.314921
vt 0.818181 0.157461
vt 0.818181 0.157461
vt 0.545454 0.157461
vt 0.545454 0.157461
vt 0.272727 0.314921
vt 0.272727 0.314921
vt 0.22727251 0.236191
vt 0.22727251 0.236191
vt 0.68181753 0.236191
vt 0.7727265 0.236191
vt 0.7727265 0.236191
vt 0.68181753 0.236191
vt 0.7727265 0.236191
vt 0.68181753 0.236191
vt 0.636363 0.314921
vt 0.636363 0.314921
vt 0.545454 0.314921
vt 0.545454 0.314921
vt 0.545454 0.314921
vt 0.636363 0.314921
vt 0.68181753 0.236191
vt 0.68181753 0.236191
vt 0.454545 0.314921
vt 0.454545 0.314921
vt 0.545454 0.314921
vt 0.545454 0.314921
vt 0.636363 0.314921
vt 0.636363 0.314921
vt 0.68181753 0.236191
vt 0.68181753 0.236191
vt 0.7727265 0.236191
vt 0.7727265 0.236191
vt 0.7727265 0.236191
vt 0.818181 0.157461
vt 0.818181 0.157461
vt 0.7727265 0.236191
vt 0.818181 0.157461
vt 0.7727265 0.236191
vt 0.818181 0.157461
vt 0.7727265 0.236191
vt 0.454545 0.314921
vt 0.545454 0.314921
vt 0.545454 0.314921
vt 0.454545 0.314921
vt 0.545454 0.314921
vt 0.454545 0.314921
vt 0.818181 0.157461
vt 0.545454 0.157461
vt 0.545454 0.157461
vt 0.818181 0.157461
vt 0.545454 0.157461
vt 0.818181 0.157461
vt 0.31742513 0.70691276
vt 0.31801298 0.70691276
vt 0.31801298 0.70255494
vt 0.31742513 0.70269084
vt 0.31742513 0.706543
vt 0.31742513 0.70500225
vt 0.31742513 0.7039968
vn 0.0034565986 0.99999166 -0.002181774
vn 0.0034565986 0.99999166 -0.002181774
vn 0.0034565986 0.99999166 -0.002181774
vn -1 0 0
vn -1 0 0
vn -1 0 0
vn -1 0 0
vn -1 0 0
vn -1 0 0
vn -1 0 0
vn 0.06926914 -0.99753666 0.011063528
vn 0.06926914 -0.99753666 0.011063528
vn 0.06926914 -0.99753666 0.011063528
vn -0.9707447 -0.22454375 0.08505682
vn -0.9707447 -0.22454375 0.08505682
vn -0.9707447 -0.22454375 0.08505682
vn -0.7879581 0.5829188 -0.19831234
vn -0.7879581 0.5829188 -0.19831234
vn -0.7879581 0.5829188 -0.19831234
vn -0.75603116 0.61209315 -0.2318598
vn -0.75603116 0.61209315 -0.2318598
vn -0.75603116 0.61209315 -0.2318598
vn -0.00045118673 -0.9999999 0.00026757244
vn -0.00045118673 -0.9999999 0.00026757244
vn -0.00045118673 -0.9999999 0.00026757244
vn -0.00045118673 -0.9999999 0.00026757244
vn -0.123703115 0.3228997 0.938314
vn -0.123703115 0.3228997 0.938314
vn -0.123703115 0.3228997 0.938314
vn -0.123703115 0.3228997 0.938314
vn -0.123703115 0.3228997 0.938314
vn -0.123703115 0.3228997 0.938314
vn -0 -2.1615341E-07 -1
vn -0 -2.1615341E-07 -1
vn -0 -2.1615341E-07 -1
vn -0 -2.1615341E-07 -1
vn -0 -2.1615341E-07 -1
vn -0 -2.1615341E-07 -1
vn -6.0344914E-06 0 -1
vn -6.0344914E-06 0 -1
vn -5.948044E-06 0 -1
vn -5.948044E-06 0 -1
vn -6.4042315E-06 0 -1
vn -6.4042315E-06 0 -1
vn 0.1642754 -0.9832523 -0.07892053
vn 0.1642754 -0.9832523 -0.07892053
vn 0.1642754 -0.9832523 -0.07892053
vn 0.1642754 -0.9832523 -0.07892053
vn -0 1 0
vn -0 1 0
vn -0 1 0
vn -0 1 0
vn -0 1 0
vn 0.0009887865 0.9999943 0.0032454974
vn 0.0009887865 0.9999943 0.0032454974
vn 0.0034952157 0.99999297 -0.0013542575
vn 0.0034952157 0.99999297 -0.0013542575
vn 0.0034952157 0.99999297 -0.0013542575
vn 0.0028733562 0.9999939 0.0019793762
vn 0.0028733562 0.9999939 0.0019793762
vn 0.0028733562 0.9999939 0.0019793762
vn 0.0029618435 0.99999225 -0.0026252405
vn 0.0029618435 0.99999225 -0.0026252405
vn -0 1 0
vn -0 1 0
vn 0.0040927227 0.999987 -0.0030613435
vn -0 1 0
vn 0.0040927227 0.999987 -0.0030613435
vn -0 1 0
vn -0 1 0
vn -0 1 0
vn -2.3750408E-07 1 0
vn 0.00021306852 0.99998426 0.005603412
vn -0.5811405 -0.4615948 0.6702283
vn -0.5811405 -0.4615948 0.6702283
vn -0.5811405 -0.4615948 0.6702283
vn -0.5811405 -0.4615948 0.6702283
vn 1 0 0
vn 1 0 0
vn 1 0 0
vn 1 0 0
vn -0.14676817 -0.98916966 0.0015688924
vn -0.14676817 -0.98916966 0.0015688924
vn -0.14676817 -0.98916966 0.0015688924
vn -0.14676817 -0.98916966 0.0015688924
vn -0.020991502 -0.4155382 -0.9093334
vn -0.020991502 -0.4155382 -0.9093334
vn -0.020991502 -0.4155382 -0.9093334
vn -0.020991502 -0.4155382 -0.9093334
vn 0.25259408 0.9673255 -0.021856055
vn 0.25259408 0.9673255 -0.021856055
vn 0.25259408 0.9673255 -0.021856055
vn 0.25259408 0.9673255 -0.021856055
vn 0.25835052 0.96593404 -0.0150480075
vn 0.24736205 0.9689229 0.0005835106
vn 0.24736205 0.9689229 0.0005835106
vn 0.24736205 0.9689229 0.0005835106
vn 0.28388527 0.95885825 9.973128E-05
vn 0.25374427 0.96724755 0.0067909556
vn 0.28388527 0.95885825 9.973128E-05
vn 0.28388527 0.95885825 9.973128E-05
vn 0.27784002 0.9601164 0.031326834
vn 0.27784002 0.9601164 0.031326834
vn 0.1479875 0.9889191 -0.011780071
vn 0.1479875 0.9889191 -0.011780071
vn 0.1479875 0.9889191 -0.011780071
vn 0.1479875 0.9889191 -0.011780071
vn 0.14295258 0.9896994 -0.0077290805
vn 0.14295258 0.9896994 -0.0077290805
vn 0.1626545 0.9866457 -0.008580738
vn 0.1626545 0.9866457 -0.008580738
vn 0.1626545 0.9866457 -0.008580738
vn 0.1626545 0.9866457 -0.008580738
vn 0.036688846 0.2384974 0.9704498
vn 0.036688846 0.2384974 0.9704498
vn 0.036688846 0.2384974 0.9704498
vn 0.036688846 0.2384974 0.9704498
vn 0.06300599 0.23722489 0.9694094
vn 0.06300599 0.23722489 0.9694094
vn 0.064418964 0.23062678 0.9709075
vn 0.064418964 0.23062678 0.9709075
vn 0.24472614 0.9647737 0.09654412
vn 0.24472614 0.9647737 0.09654412
vn 0.24472614 0.9647737 0.09654412
vn 0.24472614 0.9647737 0.09654412
vn 0.28018984 0.9544135 0.10290138
vn 0.28018984 0.9544135 0.10290138
vn -0.26934937 -0.9630369 0.0032798878
vn -0.26934937 -0.9630369 0.0032798878
vn -0.26934937 -0.9630369 0.0032798878
vn -0.26934937 -0.9630369 0.0032798878
vn -0.26331493 -0.9647078 0.0020256
vn -0.26331493 -0.9647078 0.0020256
vn 1 0 0
vn 1 0 0
vn 1 0 0
vn 1 0 0
vn 1 0 0
vn 1 0 0
vn 1 0 0
g Icosphere.044_0
f 3/3/3 2/2/2 1/1/1
f 6/6/6 5/5/5 4/4/4
f 8/8/8 7/7/7 6/6/6
f 8/8/8 9/9/9 7/7/7
f 10/10/10 9/9/9 8/8/8
f 13/13/13 12/12/12 11/11/11
f 16/16/16 15/15/15 14/14/14
f 19/19/19 18/18/18 17/17/17
f 22/22/22 21/21/21 20/20/20
f 25/25/25 24/24/24 23/23/23
f 26/26/26 25/25/25 23/23/23
f 29/29/29 28/28/28 27/27/27
f 27/27/27 30/30/30 29/29/29
f 27/27/27 31/31/31 30/30/30
f 31/31/31 32/32/32 30/30/30
f 35/35/35 34/34/34 33/33/33
f 35/35/35 33/33/33 36/36/36
f 35/35/35 36/36/36 37/37/37
f 37/37/37 38/38/38 35/35/35
f 37/37/37 39/39/39 38/38/38
f 39/39/39 40/40/40 38/38/38
f 39/39/39 41/41/41 40/40/40
f 41/41/41 42/42/42 40/40/40
f 41/41/41 43/43/43 42/42/42
f 43/43/43 44/44/44 42/42/42
f 47/47/47 46/46/46 45/45/45
f 48/48/48 47/47/47 45/45/45
f 51/51/51 50/50/50 49/49/49
f 51/51/51 52/52/52 50/50/50
f 52/52/52 53/53/53 50/50/50
f 54/54/54 52/52/52 51/51/51
f 55/55/55 54/54/54 51/51/51
f 54/54/54 57/57/57 56/56/56
f 57/57/57 58/58/58 56/56/56
f 61/61/61 60/60/60 59/59/59
f 61/61/61 62/62/62 60/60/60
f 62/62/62 63/63/63 60/60/60
f 64/64/64 62/62/62 61/61/61
f 64/64/64 66/66/66 65/65/65
f 65/65/65 67/67/67 64/64/64
f 66/66/66 68/68/68 65/65/65
f 65/65/65 69/69/69 67/67/67
f 69/69/69 70/70/70 67/67/67
f 71/71/71 69/69/69 65/65/65
f 71/71/71 65/65/65 72/72/72
f 65/65/65 68/68/68 72/72/72
f 68/68/68 73/73/73 72/72/72
f 76/76/76 75/75/75 74/74/74
f 77/77/77 76/76/76 74/74/74
f 80/80/80 79/79/79 78/78/78
f 81/81/81 79/79/79 80/80/80
f 84/84/84 83/83/83 82/82/82
f 85/85/85 84/84/84 82/82/82
f 88/88/88 87/87/87 86/86/86
f 89/89/89 88/88/88 86/86/86
f 92/92/92 91/91/91 90/90/90
f 91/91/91 93/93/93 90/90/90
f 91/91/91 94/94/94 93/93/93
f 94/94/94 95/95/95 93/93/93
f 93/93/93 95/95/95 96/96/96
f 95/95/95 97/97/97 96/96/96
f 96/96/96 97/97/97 98/98/98
f 97/97/97 99/99/99 98/98/98
f 96/96/96 98/98/98 100/100/100
f 101/101/101 96/96/96 100/100/100
f 102/102/102 96/96/96 101/101/101
f 103/103/103 102/102/102 101/101/101
f 106/106/106 105/105/105 104/104/104
f 107/107/107 106/106/106 104/104/104
f 108/108/108 106/106/106 107/107/107
f 109/109/109 108/108/108 107/107/107
f 110/110/110 108/108/108 109/109/109
f 111/111/111 110/110/110 109/109/109
f 112/112/112 110/110/110 111/111/111
f 113/113/113 112/112/112 111/111/111
f 116/116/116 115/115/115 114/114/114
f 115/115/115 117/117/117 114/114/114
f 115/115/115 118/118/118 117/117/117
f 118/118/118 119/119/119 117/117/117
f 118/118/118 120/120/120 119/119/119
f 120/120/120 121/121/121 119/119/119
f 124/124/124 123/123/123 122/122/122
f 123/123/123 125/125/125 122/122/122
f 123/123/123 126/126/126 125/125/125
f 126/126/126 127/127/127 125/125/125
f 130/130/130 129/129/129 128/128/128
f 129/129/129 131/131/131 128/128/128
f 129/129/129 132/132/132 131/131/131
f 132/132/132 133/133/133 131/131/131
f 136/136/136 135/135/135 134/134/134
f 134/134/134 137/137/137 136/136/136
f 134/134/134 138/138/138 137/137/137
f 138/138/138 139/139/139 137/137/137
f 139/139/139 140/140/140 137/137/137
