g ImpSwipeMesh1
v -1.0778052 -0.18038389 -0.12500536
v -0.5294689 0.031998716 0.12846506
v -1.0039191 0.060648218 -0.12500536
v -0.6090123 -0.10193504 0.12846506
v -1.1035948 -0.44692597 -0.12500536
v -0.66303074 -0.26851577 0.12846506
v -1.0809934 -0.72756636 -0.12500536
v -0.6866747 -0.4621777 0.12846506
v -1.0046802 -1.0064992 -0.12500536
v -0.6688935 -0.6701033 0.12846506
v -0.8665846 -1.2655022 -0.12500536
v -0.59803367 -0.8733305 0.12846506
v -0.66665375 -1.487269 -0.12500536
v -0.4722433 -1.0535374 0.12846506
v -0.43114367 -1.6603105 -0.12500536
v -0.31168616 -1.2002503 0.12846506
v -0.18601832 -1.7752303 -0.12500536
v -0.13649458 -1.3025063 0.12846506
v 0.05383165 -1.8255568 -0.12500536
v 0.03983329 -1.3504537 0.12846506
v 0.2821473 -1.8142582 -0.12500536
v 0.20910919 -1.344595 0.12846506
v 0.50010675 -1.7472663 -0.12500536
v 0.36931998 -1.2902958 0.12846506
v 0.7088348 -1.6310043 -0.12500536
v 0.51938546 -1.1950822 0.12846506
v 0.9007805 -1.4739742 -0.12500536
v 0.65292966 -1.0683988 0.12846506
v 1.0688511 -1.2851628 -0.12500536
v 0.7649198 -0.9197258 0.12846506
v 1.2067568 -1.0735831 -0.12500536
v 0.85163355 -0.7576553 0.12846506
v 1.3092517 -0.847925 -0.12500536
v 0.91030556 -0.5895428 0.12846506
v 1.3723441 -0.61631215 -0.12500536
v 0.938743 -0.42159712 0.12846506
vt 0.0535551 0.99531364
vt 2.321601E-05 0.015624076
vt 2.321601E-05 0.9953136
vt 0.0535551 0.015624225
vt 0.11168471 0.9953137
vt 0.11168471 0.015624315
vt 0.17424268 0.9953139
vt 0.17424268 0.015624464
vt 0.2395857 0.995314
vt 0.2395857 0.015624553
vt 0.30635604 0.9953141
vt 0.30635604 0.015624702
vt 0.37438747 0.9953141
vt 0.37438747 0.015624702
vt 0.44128856 0.99531424
vt 0.44128856 0.015624791
vt 0.5034435 0.99531436
vt 0.5034435 0.01562494
vt 0.55959076 0.99531454
vt 0.55959076 0.01562503
vt 0.6118228 0.99531466
vt 0.6118228 0.015625179
vt 0.6639515 0.99531466
vt 0.6639515 0.015625179
vt 0.71863437 0.99531466
vt 0.71863437 0.015625268
vt 0.77534133 0.99531484
vt 0.77534133 0.015625358
vt 0.8329466 0.99531496
vt 0.8329466 0.015625507
vt 0.8902175 0.9953151
vt 0.8902175 0.015625596
vt 0.94611514 0.9953151
vt 0.94611514 0.015625596
vt 0.9999768 0.9953152
vt 0.9999768 0.015625745
vn 0.49267167 -0.13254493 -0.86006194
vn 0.4723782 -0.19327891 -0.8599431
vn 0.4723782 -0.19327891 -0.8599431
vn 0.48417732 -0.15878817 -0.8604409
vn 0.51430994 -0.036500994 -0.85682726
vn 0.510255 -0.061649326 -0.8578107
vn 0.514976 0.061190408 -0.8550177
vn 0.5172613 0.032899156 -0.85519487
vn 0.484253 0.1686813 -0.85851365
vn 0.49639177 0.1383427 -0.85700446
vn 0.41961014 0.27424663 -0.8652838
vn 0.43813458 0.24976967 -0.8635121
vn 0.34230024 0.3562779 -0.8694231
vn 0.3582995 0.34184945 -0.86876947
vn 0.26027107 0.41360152 -0.8724636
vn 0.27610472 0.4044978 -0.87186456
vn 0.15982693 0.4525022 -0.8773238
vn 0.17600666 0.44796705 -0.87655413
vn 0.04062109 0.46959934 -0.88194466
vn 0.04977696 0.469173 -0.88170224
vn -0.08179154 0.46181703 -0.883196
vn -0.083378196 0.4615404 -0.8831923
vn -0.19013803 0.43301418 -0.8811051
vn -0.19813004 0.42989212 -0.88087296
vn -0.27583653 0.39052936 -0.87829435
vn -0.28489935 0.38460648 -0.8780149
vn -0.34120515 0.33980128 -0.8764212
vn -0.3491059 0.33210686 -0.8762592
vn -0.39112914 0.28330615 -0.8756458
vn -0.39748114 0.27448905 -0.8755938
vn -0.42977265 0.2209902 -0.87547636
vn -0.43477756 0.2111018 -0.8754453
vn -0.45949802 0.15110087 -0.8752315
vn -0.46330935 0.13959405 -0.87513316
vn -0.4732867 0.108403035 -0.8742131
vn -0.4732867 0.108403035 -0.8742131
g ImpSwipeMesh1_0
f 3/3/3 2/2/2 1/1/1
f 2/2/2 4/4/4 1/1/1
f 1/1/1 4/4/4 5/5/5
f 4/4/4 6/6/6 5/5/5
f 5/5/5 6/6/6 7/7/7
f 6/6/6 8/8/8 7/7/7
f 7/7/7 8/8/8 9/9/9
f 8/8/8 10/10/10 9/9/9
f 9/9/9 10/10/10 11/11/11
f 10/10/10 12/12/12 11/11/11
f 11/11/11 12/12/12 13/13/13
f 12/12/12 14/14/14 13/13/13
f 13/13/13 14/14/14 15/15/15
f 14/14/14 16/16/16 15/15/15
f 15/15/15 16/16/16 17/17/17
f 16/16/16 18/18/18 17/17/17
f 17/17/17 18/18/18 19/19/19
f 18/18/18 20/20/20 19/19/19
f 19/19/19 20/20/20 21/21/21
f 20/20/20 22/22/22 21/21/21
f 21/21/21 22/22/22 23/23/23
f 22/22/22 24/24/24 23/23/23
f 23/23/23 24/24/24 25/25/25
f 24/24/24 26/26/26 25/25/25
f 25/25/25 26/26/26 27/27/27
f 26/26/26 28/28/28 27/27/27
f 27/27/27 28/28/28 29/29/29
f 28/28/28 30/30/30 29/29/29
f 29/29/29 30/30/30 31/31/31
f 30/30/30 32/32/32 31/31/31
f 31/31/31 32/32/32 33/33/33
f 32/32/32 34/34/34 33/33/33
f 33/33/33 34/34/34 35/35/35
f 34/34/34 36/36/36 35/35/35
