g LunarInfectionSingleMesh
v 0.8606396 0.18761104 1.7967825E-07
v 0.86063963 9.775016E-08 -0.18761076
v 2.8606396 3.8435218E-07 5.569871E-07
v 0.8606395 1.0818813E-07 0.18761115
v -2.1484165 -9.468447E-08 -7.947286E-08
v 0.8606396 -0.18761086 1.9607974E-07
v 0.8606395 1.0818813E-07 0.18761115
v 2.8606396 3.8435218E-07 5.569871E-07
v 0.86063963 9.775016E-08 -0.18761076
vt 0.5978655 0.5615261
vt 0.5978655 0.5615261
vt 0.98342085 0.5617495
vt 0.5978655 0.5615261
vt 0.018414572 0.56118983
vt 0.5978655 0.5615261
vt 0.5978655 0.5615261
vt 0.98342085 0.5617495
vt 0.5978655 0.5615261
vn 0.015106782 0.9998859 0
vn 0.010681683 0.7070664 -0.7070664
vn 0.093388915 0.99562967 0
vn 0.010681683 0.7070664 0.7070664
vn -1 0 0
vn 0.015106782 -0.9998859 0
vn 0.010681683 -0.7070664 0.7070664
vn 0.093388915 -0.99562967 0
vn 0.010681683 -0.7070664 -0.7070664
g LunarInfectionSingleMesh_0
f 3/3/3 2/2/2 1/1/1
f 3/3/3 1/1/1 4/4/4
f 2/2/2 5/5/5 1/1/1
f 1/1/1 5/5/5 4/4/4
f 7/7/7 5/5/5 6/6/6
f 8/8/8 7/7/7 6/6/6
f 6/6/6 5/5/5 9/9/9
f 8/8/8 6/6/6 9/9/9
