g mdlBrother_Unfinished_Large_Ring
v 0.114944234 -0.02693899 0.0663625
v 0.08635372 -0.02693899 0.086352944
v 0.09385163 -0.02693899 0.09385097
v 0.1057612 -0.02693899 0.061060786
v 0.12820363 -0.02693899 0.034351707
v 0.1179613 -0.02693899 0.03160727
v -0.1282036 -0.02693899 0.034351707
v -0.13272619 -0.02693899 -3.5762787E-07
v -0.15980731 0.026939154 -3.5762787E-07
v -0.15436198 0.026939154 0.041360736
v -0.11494421 -0.02693899 0.06636274
v -0.13839716 0.026939154 0.079903245
v -0.09385152 -0.02693899 0.09385121
v -0.11300076 0.026939154 0.11300027
v -0.066363044 -0.026939034 0.11494386
v -0.079903595 0.026939094 0.13839686
v -0.03435202 -0.026939034 0.12820327
v -0.041361123 0.026939094 0.15436184
v 3.632158E-08 -0.026939034 0.13272607
v 4.4703484E-08 0.026939094 0.15980709
v 0.034352098 -0.026939034 0.12820327
v 0.04136121 0.026939094 0.15436184
v 0.06636312 -0.026939034 0.11494386
v 0.079903685 0.026939094 0.13839686
v 0.09385163 -0.02693899 0.09385097
v 0.1130009 0.026939154 0.11300027
v 0.114944234 -0.02693899 0.0663625
v 0.13839716 0.026939154 0.07990301
v 0.12820363 -0.02693899 0.034351707
v 0.154362 0.026939154 0.041360497
v 0.13272616 -0.02693899 -5.9604645E-07
v 0.1598073 0.026939154 -5.9604645E-07
v -0.13272619 -0.02693899 -3.5762787E-07
v -0.15436202 0.026939154 -0.04136169
v -0.15980731 0.026939154 -3.5762787E-07
v -0.12820365 -0.02693899 -0.03435242
v -0.13839725 0.026939154 -0.07990408
v -0.11494429 -0.02693899 -0.06636357
v -0.11300092 0.026939154 -0.11300123
v -0.09385166 -0.02693899 -0.093851924
v -0.079903744 0.026939154 -0.13839757
v -0.06636318 -0.02693899 -0.1149447
v -0.041361284 0.026939154 -0.15436256
v -0.034352154 -0.02693899 -0.1282041
v -7.916242E-09 0.026939154 -0.1598078
v -6.9849193E-09 -0.02693899 -0.13272667
v 0.041361157 0.026939154 -0.15436256
v 0.03435205 -0.02693899 -0.1282041
v 0.07990363 0.026939154 -0.13839757
v 0.066363074 -0.02693899 -0.1149447
v 0.113000795 0.026939154 -0.11300123
v 0.093851544 -0.02693899 -0.093851924
v 0.13839716 0.026939154 -0.07990408
v 0.114944234 -0.02693899 -0.06636357
v 0.154362 0.026939154 -0.04136169
v 0.12820363 -0.02693899 -0.03435266
v 0.1598073 0.026939154 -5.9604645E-07
v 0.13272616 -0.02693899 -5.9604645E-07
v 0.12820363 -0.02693899 -0.03435266
v 0.12212252 -0.02693899 -5.9604645E-07
v 0.13272616 -0.02693899 -5.9604645E-07
v 0.1179613 -0.02693899 -0.031608224
v 0.114944234 -0.02693899 -0.06636357
v 0.1057612 -0.02693899 -0.06106174
v 0.093851544 -0.02693899 -0.093851924
v 0.08635363 -0.02693899 -0.08635414
v 0.13272616 -0.02693899 -5.9604645E-07
v 0.12212252 -0.02693899 -5.9604645E-07
v 0.1179613 -0.02693899 0.03160727
v 0.12820363 -0.02693899 0.034351707
v 0.12212252 -0.02693899 -5.9604645E-07
v 0.114427686 0.026939183 -0.030661225
v 0.118464254 0.026939183 -5.9604645E-07
v 0.1179613 -0.02693899 -0.031608224
v 0.10259304 0.026939183 -0.059232593
v 0.1057612 -0.02693899 -0.06106174
v 0.08376684 0.026939183 -0.083767295
v 0.08635363 -0.02693899 -0.08635414
v 0.059232105 0.026939183 -0.10259342
v 0.061061237 -0.02693899 -0.10576165
v 0.030660793 0.026939183 -0.11442804
v 0.03160762 -0.02693899 -0.117961764
v -6.9849193E-09 0.026939183 -0.11846471
v -6.9849193E-09 -0.02693899 -0.122123
v -0.030660883 0.026939183 -0.11442804
v -0.03160772 -0.02693899 -0.117961764
v -0.059232205 0.026939183 -0.10259342
v -0.06106134 -0.02693899 -0.10576165
v -0.08376695 0.026939183 -0.083767295
v -0.08635374 -0.02693899 -0.08635414
v -0.10259309 0.026939183 -0.059232593
v -0.10576124 -0.02693899 -0.06106174
v -0.114427686 0.026939183 -0.030661225
v -0.1179613 -0.02693899 -0.031608224
v -0.11846424 0.026939183 -3.5762787E-07
v -0.122122504 -0.02693899 -3.5762787E-07
v 0.1179613 -0.02693899 0.03160727
v 0.12212252 -0.02693899 -5.9604645E-07
v 0.118464254 0.026939183 -5.9604645E-07
v 0.114427686 0.026939183 0.030660272
v 0.1057612 -0.02693899 0.061060786
v 0.10259304 0.026939183 0.05923164
v 0.08635372 -0.02693899 0.086352944
v 0.08376692 0.026939183 0.08376634
v 0.06106128 -0.026939034 0.10576093
v 0.05923214 0.026939124 0.102592826
v 0.03160766 -0.026939034 0.11796081
v 0.03066083 0.026939124 0.11442721
v 3.306195E-08 -0.026939034 0.12212217
v 3.259629E-08 0.026939124 0.118463874
v -0.031607598 -0.026939034 0.11796081
v -0.030660763 0.026939124 0.11442721
v -0.06106122 -0.026939034 0.10576093
v -0.059232086 0.026939124 0.102592826
v -0.086353615 -0.02693899 0.08635318
v -0.08376683 0.026939183 0.08376634
v -0.10576116 -0.02693899 0.061061025
v -0.102593005 0.026939183 0.05923164
v -0.117961265 -0.02693899 0.03160727
v -0.11442764 0.026939183 0.03066051
v -0.122122504 -0.02693899 -3.5762787E-07
v -0.11846424 0.026939183 -3.5762787E-07
v -0.13272619 -0.02693899 -3.5762787E-07
v -0.122122504 -0.02693899 -3.5762787E-07
v -0.1179613 -0.02693899 -0.031608224
v -0.12820365 -0.02693899 -0.03435242
v -0.12820365 -0.02693899 -0.03435242
v -0.1179613 -0.02693899 -0.031608224
v -0.10576124 -0.02693899 -0.06106174
v -0.11494429 -0.02693899 -0.06636357
v -0.08635374 -0.02693899 -0.08635414
v -0.09385166 -0.02693899 -0.093851924
v -0.09385166 -0.02693899 -0.093851924
v -0.08635374 -0.02693899 -0.08635414
v -0.06106134 -0.02693899 -0.10576165
v -0.06636318 -0.02693899 -0.1149447
v -0.03160772 -0.02693899 -0.117961764
v -0.034352154 -0.02693899 -0.1282041
v -0.034352154 -0.02693899 -0.1282041
v -0.03160772 -0.02693899 -0.117961764
v -6.9849193E-09 -0.02693899 -0.122123
v -6.9849193E-09 -0.02693899 -0.13272667
v 0.03160762 -0.02693899 -0.117961764
v 0.03435205 -0.02693899 -0.1282041
v 0.061061237 -0.02693899 -0.10576165
v 0.066363074 -0.02693899 -0.1149447
v 0.08635363 -0.02693899 -0.08635414
v 0.093851544 -0.02693899 -0.093851924
v -0.1282036 -0.02693899 0.034351707
v -0.122122504 -0.02693899 -3.5762787E-07
v -0.13272619 -0.02693899 -3.5762787E-07
v -0.117961265 -0.02693899 0.03160727
v -0.11494421 -0.02693899 0.06636274
v -0.10576116 -0.02693899 0.061061025
v -0.09385152 -0.02693899 0.09385121
v -0.086353615 -0.02693899 0.08635318
v -0.066363044 -0.026939034 0.11494386
v -0.06106122 -0.026939034 0.10576093
v -0.03435202 -0.026939034 0.12820327
v -0.031607598 -0.026939034 0.11796081
v -0.06106122 -0.026939034 0.10576093
v -0.066363044 -0.026939034 0.11494386
v 3.632158E-08 -0.026939034 0.13272607
v 3.306195E-08 -0.026939034 0.12212217
v -0.031607598 -0.026939034 0.11796081
v -0.03435202 -0.026939034 0.12820327
v 0.034352098 -0.026939034 0.12820327
v 3.306195E-08 -0.026939034 0.12212217
v 3.632158E-08 -0.026939034 0.13272607
v 0.03160766 -0.026939034 0.11796081
v 0.06636312 -0.026939034 0.11494386
v 0.06106128 -0.026939034 0.10576093
v 0.09385163 -0.02693899 0.09385097
v 0.08635372 -0.02693899 0.086352944
v 0.06106128 -0.026939034 0.10576093
v 0.06636312 -0.026939034 0.11494386
vt 0.8341912 0.37725407
vt 0.7472527 0.37518552
vt 0.76779616 0.3756743
vt 0.8082669 0.37663722
vt 0.88035953 0.37835255
vt 0.8503994 0.3776397
vt 0.112606406 0.3600853
vt 0.09131652 0.3595788
vt 0.008553207 0.37608686
vt 0.036001176 0.37673992
vt 0.15822011 0.3611706
vt 0.092059284 0.3780737
vt 0.22417083 0.3627398
vt 0.17172062 0.3799691
vt 0.30579636 0.36468187
vt 0.26937872 0.38229266
vt 0.39804947 0.36687687
vt 0.37914705 0.3849044
vt 0.49568942 0.3692
vt 0.49502358 0.38766146
vt 0.59339553 0.37152478
vt 0.6109741 0.39042026
vt 0.68584543 0.37372443
vt 0.7209658 0.3930373
vt 0.76779616 0.3756743
vt 0.8189963 0.39536977
vt 0.8341912 0.37725407
vt 0.89917004 0.39727736
vt 0.88035953 0.37835255
vt 0.95587575 0.3986265
vt 0.9022902 0.37887436
vt 0.9840837 0.39929774
vt 0.09131652 0.3595788
vt 0.013627082 0.37620756
vt 0.008553207 0.37608686
vt 0.09725118 0.35971996
vt 0.053343564 0.37715253
vt 0.13170084 0.36053964
vt 0.12722665 0.37891045
vt 0.19379628 0.3620171
vt 0.23148152 0.381391
vt 0.28007925 0.36407
vt 0.35868236 0.38441747
vt 0.38440034 0.36655214
vt 0.49821687 0.38773745
vt 0.49833378 0.369263
vt 0.63759303 0.39105365
vt 0.61214453 0.3719709
vt 0.764344 0.39406943
vt 0.7161144 0.37444466
vt 0.8679222 0.39653385
vt 0.8018629 0.37648487
vt 0.94099367 0.39827248
vt 0.86330676 0.3779468
vt 0.9798466 0.39919686
vt 0.89705133 0.3787497
vt 0.9840837 0.39929774
vt 0.9022902 0.37887436
vt 0.89705133 0.3787497
vt 0.8700311 0.37810686
vt 0.9022902 0.37887436
vt 0.86459255 0.37797743
vt 0.86330676 0.3779468
vt 0.8330225 0.37722626
vt 0.8018629 0.37648487
vt 0.7762323 0.37587503
vt 0.9022902 0.37887436
vt 0.8700311 0.37810686
vt 0.8503994 0.3776397
vt 0.88035953 0.37835255
vt 0.8700311 0.37810686
vt 0.852973 0.39617822
vt 0.85845566 0.39630863
vt 0.86459255 0.37797743
vt 0.8221761 0.39544544
vt 0.8330225 0.37722626
vt 0.76700175 0.39413267
vt 0.7762323 0.37587503
vt 0.69061047 0.3923151
vt 0.6974422 0.37400037
vt 0.59841967 0.39012155
vt 0.6022442 0.37173533
vt 0.49772945 0.38772586
vt 0.49821106 0.36926
vt 0.39693466 0.38532764
vt 0.39406848 0.3667822
vt 0.3044387 0.38312688
vt 0.29855388 0.36450958
vt 0.22758201 0.38129818
vt 0.21928203 0.36262348
vt 0.17183673 0.37997186
vt 0.16189885 0.36125815
vt 0.14041814 0.3792243
vt 0.12968585 0.3604917
vt 0.13431564 0.3790791
vt 0.12360826 0.3603471
vt 0.8503994 0.3776397
vt 0.8700311 0.37810686
vt 0.85845566 0.39630863
vt 0.8395952 0.3958599
vt 0.8082669 0.37663722
vt 0.7988406 0.39489022
vt 0.7472527 0.37518552
vt 0.73968416 0.39348269
vt 0.67166173 0.37338695
vt 0.6662942 0.3917365
vt 0.58619726 0.37135348
vt 0.5832554 0.38976076
vt 0.49577963 0.36920217
vt 0.49537286 0.38766977
vt 0.40542632 0.36705238
vt 0.40755177 0.38558018
vt 0.32014695 0.36502331
vt 0.3246932 0.38360876
vt 0.24486005 0.36323208
vt 0.25160074 0.3818697
vt 0.18426341 0.3617903
vt 0.19285023 0.38047183
vt 0.1426461 0.3608001
vt 0.15259835 0.37951413
vt 0.12360826 0.3603471
vt 0.13431564 0.3790791
vt 0.09131652 0.3595788
vt 0.12360826 0.3603471
vt 0.12968585 0.3604917
vt 0.09725118 0.35971996
vt 0.09725118 0.35971996
vt 0.12968585 0.3604917
vt 0.16189885 0.36125815
vt 0.13170084 0.36053964
vt 0.21928203 0.36262348
vt 0.19379628 0.3620171
vt 0.19379628 0.3620171
vt 0.21928203 0.36262348
vt 0.29855388 0.36450958
vt 0.28007925 0.36407
vt 0.39406848 0.3667822
vt 0.38440034 0.36655214
vt 0.38440034 0.36655214
vt 0.39406848 0.3667822
vt 0.49821106 0.36926
vt 0.49833378 0.369263
vt 0.6022442 0.37173533
vt 0.61214453 0.3719709
vt 0.6974422 0.37400037
vt 0.7161144 0.37444466
vt 0.7762323 0.37587503
vt 0.8018629 0.37648487
vt 0.112606406 0.3600853
vt 0.12360826 0.3603471
vt 0.09131652 0.3595788
vt 0.1426461 0.3608001
vt 0.15822011 0.3611706
vt 0.18426341 0.3617903
vt 0.22417083 0.3627398
vt 0.24486005 0.36323208
vt 0.30579636 0.36468187
vt 0.32014695 0.36502331
vt 0.39804947 0.36687687
vt 0.40542632 0.36705238
vt 0.32014695 0.36502331
vt 0.30579636 0.36468187
vt 0.49568942 0.3692
vt 0.49577963 0.36920217
vt 0.40542632 0.36705238
vt 0.39804947 0.36687687
vt 0.59339553 0.37152478
vt 0.49577963 0.36920217
vt 0.49568942 0.3692
vt 0.58619726 0.37135348
vt 0.68584543 0.37372443
vt 0.67166173 0.37338695
vt 0.76779616 0.3756743
vt 0.7472527 0.37518552
vt 0.67166173 0.37338695
vt 0.68584543 0.37372443
vn -0 -1 0
vn -0 -1 0
vn -0 -1 0
vn -0 -1 0
vn -0 -1 0
vn -0 -1 0
vn -0.8630381 -0.449097 0.23125096
vn -0.8934828 -0.4490974 0
vn -0.8934828 -0.44909742 0
vn -0.8630382 -0.44909704 0.23125072
vn -0.77377874 -0.4490965 0.44674236
vn -0.7737788 -0.4490965 0.4467422
vn -0.63178843 -0.4490962 0.631788
vn -0.63178873 -0.44909614 0.6317877
vn -0.4467434 -0.44909772 0.7737774
vn -0.44674328 -0.44909775 0.77377754
vn -0.23125243 -0.44909847 0.863037
vn -0.23125215 -0.44909844 0.86303717
vn -0 -0.44909805 0.89348245
vn -0 -0.44909802 0.8934825
vn 0.23125245 -0.44909838 0.86303705
vn 0.23125213 -0.44909844 0.86303705
vn 0.4467439 -0.44909853 0.7737767
vn 0.44674382 -0.4490985 0.7737768
vn 0.63179016 -0.44909748 0.6317854
vn 0.63179 -0.44909745 0.6317855
vn 0.7737794 -0.44909662 0.44674128
vn 0.77377945 -0.4490966 0.44674116
vn 0.8630383 -0.44909668 0.23125127
vn 0.8630385 -0.44909662 0.23125051
vn 0.8934829 -0.44909713 0
vn 0.893483 -0.4490971 0
vn -0.8934828 -0.4490974 0
vn -0.8630381 -0.44909757 -0.23124985
vn -0.8934828 -0.44909742 0
vn -0.8630383 -0.44909766 -0.2312495
vn -0.773779 -0.4490975 -0.44674113
vn -0.77377886 -0.4490975 -0.4467412
vn -0.63178784 -0.44909725 -0.6317877
vn -0.63178796 -0.44909725 -0.63178766
vn -0.4467427 -0.44909728 -0.7737781
vn -0.4467427 -0.44909722 -0.77377814
vn -0.2312509 -0.44909772 -0.86303777
vn -0.23125097 -0.44909772 -0.86303777
vn -0 -0.4490978 -0.8934826
vn -0 -0.44909787 -0.8934826
vn 0.23125099 -0.44909763 -0.86303777
vn 0.23125109 -0.4490977 -0.86303777
vn 0.44674277 -0.44909722 -0.77377814
vn 0.44674283 -0.44909725 -0.7737781
vn 0.63178766 -0.44909707 -0.631788
vn 0.6317877 -0.4490971 -0.63178796
vn 0.7737784 -0.449097 -0.44674256
vn 0.7737783 -0.449097 -0.44674277
vn 0.8630382 -0.44909704 -0.23125082
vn 0.8630381 -0.44909704 -0.23125109
vn 0.893483 -0.4490971 0
vn 0.8934829 -0.44909713 0
vn -0 -1 0
vn -0 -1 0
vn -0 -1 0
vn -0 -1 0
vn -0 -1 0
vn -0 -1 0
vn -0 -1 0
vn -0 -1 0
vn -0 -1 0
vn -0 -1 0
vn -0 -1 0
vn -0 -1 0
vn -0.9977028 -0.067742944 0
vn -0.9637068 -0.06774328 0.2582247
vn -0.9977028 -0.06774295 0
vn -0.9637067 -0.067743294 0.25822517
vn -0.8640354 -0.06774353 0.49885225
vn -0.8640354 -0.06774353 0.49885225
vn -0.7054817 -0.06774356 0.70548296
vn -0.70548165 -0.06774357 0.70548314
vn -0.49885118 -0.0677441 0.86403596
vn -0.49885112 -0.0677441 0.864036
vn -0.25822547 -0.067744285 0.96370655
vn -0.25822532 -0.06774428 0.96370655
vn -0 -0.067744136 0.9977028
vn -0 -0.06774414 0.9977028
vn 0.25822523 -0.0677443 0.96370655
vn 0.25822517 -0.0677443 0.9637067
vn 0.49885106 -0.06774418 0.864036
vn 0.49885097 -0.06774418 0.86403614
vn 0.7054823 -0.06774372 0.7054824
vn 0.70548224 -0.067743726 0.70548254
vn 0.8640362 -0.06774353 0.4988509
vn 0.8640362 -0.06774354 0.49885097
vn 0.96370727 -0.0677434 0.25822344
vn 0.96370703 -0.0677434 0.2582239
vn 0.9977028 -0.067743026 0
vn 0.9977028 -0.06774303 0
vn -0.9637068 -0.06774331 -0.25822473
vn -0.9977028 -0.067742944 0
vn -0.9977028 -0.06774295 0
vn -0.9637069 -0.06774331 -0.25822422
vn -0.8640354 -0.06774285 -0.4988523
vn -0.8640354 -0.06774285 -0.4988523
vn -0.7054852 -0.06774163 -0.70547974
vn -0.7054851 -0.06774164 -0.7054799
vn -0.4988524 -0.06774195 -0.8640355
vn -0.4988524 -0.06774195 -0.8640355
vn -0.258223 -0.067742705 -0.9637073
vn -0.25822297 -0.067742705 -0.9637073
vn -0 -0.067743085 -0.9977028
vn -0 -0.067743085 -0.9977028
vn 0.25822297 -0.06774269 -0.9637073
vn 0.25822294 -0.06774269 -0.9637073
vn 0.49885127 -0.067742735 -0.864036
vn 0.49885133 -0.06774274 -0.864036
vn 0.70548356 -0.067743726 -0.7054811
vn 0.70548385 -0.06774374 -0.70548093
vn 0.8640349 -0.06774412 -0.49885318
vn 0.86403525 -0.06774412 -0.49885258
vn 0.9637068 -0.0677432 -0.25822496
vn 0.9637067 -0.067743205 -0.25822514
vn 0.9977028 -0.06774303 0
vn 0.9977028 -0.067743026 0
vn -0 -1 0
vn -0 -1 0
vn -0 -1 0
vn -0 -1 0
vn -0 -1 0
vn -0 -1 0
vn -0 -1 0
vn -0 -1 0
vn -0 -1 0
vn -0 -1 0
vn -0 -1 0
vn -0 -1 0
vn -0 -1 0
vn -0 -1 0
vn -0 -1 0
vn -0 -1 0
vn -0 -1 0
vn -0 -1 0
vn -0 -1 0
vn -0 -1 0
vn -0 -1 0
vn -0 -1 0
vn -0 -1 0
vn -0 -1 0
vn -0 -1 0
vn -0 -1 0
vn -0 -1 0
vn -0 -1 0
vn -0 -1 0
vn -0 -1 0
vn -0 -1 0
vn -0 -1 0
vn -0 -1 0
vn -0 -1 0
vn -0 -1 0
vn -0 -1 0
vn -0 -1 0
vn -0 -1 0
vn -0 -1 0
vn -0 -1 0
vn -0 -1 0
vn -0 -1 0
vn -0 -1 0
vn -0 -1 0
vn -0 -1 0
vn -0 -1 0
vn -0 -1 0
vn -0 -1 0
vn -0 -1 0
vn -0 -1 0
vn -0 -1 0
vn -0 -1 0
vn -0 -1 0
vn -0 -1 0
g mdlBrother_Unfinished_Large_Ring_0
f 3/3/3 2/2/2 1/1/1
f 2/2/2 4/4/4 1/1/1
f 1/1/1 4/4/4 5/5/5
f 4/4/4 6/6/6 5/5/5
f 9/9/9 8/8/8 7/7/7
f 10/10/10 9/9/9 7/7/7
f 10/10/10 7/7/7 11/11/11
f 12/12/12 10/10/10 11/11/11
f 12/12/12 11/11/11 13/13/13
f 14/14/14 12/12/12 13/13/13
f 14/14/14 13/13/13 15/15/15
f 16/16/16 14/14/14 15/15/15
f 16/16/16 15/15/15 17/17/17
f 18/18/18 16/16/16 17/17/17
f 18/18/18 17/17/17 19/19/19
f 20/20/20 18/18/18 19/19/19
f 20/20/20 19/19/19 21/21/21
f 22/22/22 20/20/20 21/21/21
f 22/22/22 21/21/21 23/23/23
f 24/24/24 22/22/22 23/23/23
f 24/24/24 23/23/23 25/25/25
f 26/26/26 24/24/24 25/25/25
f 26/26/26 25/25/25 27/27/27
f 28/28/28 26/26/26 27/27/27
f 28/28/28 27/27/27 29/29/29
f 30/30/30 28/28/28 29/29/29
f 30/30/30 29/29/29 31/31/31
f 32/32/32 30/30/30 31/31/31
f 35/35/35 34/34/34 33/33/33
f 34/34/34 36/36/36 33/33/33
f 34/34/34 37/37/37 36/36/36
f 37/37/37 38/38/38 36/36/36
f 37/37/37 39/39/39 38/38/38
f 39/39/39 40/40/40 38/38/38
f 39/39/39 41/41/41 40/40/40
f 41/41/41 42/42/42 40/40/40
f 41/41/41 43/43/43 42/42/42
f 43/43/43 44/44/44 42/42/42
f 43/43/43 45/45/45 44/44/44
f 45/45/45 46/46/46 44/44/44
f 45/45/45 47/47/47 46/46/46
f 47/47/47 48/48/48 46/46/46
f 47/47/47 49/49/49 48/48/48
f 49/49/49 50/50/50 48/48/48
f 49/49/49 51/51/51 50/50/50
f 51/51/51 52/52/52 50/50/50
f 51/51/51 53/53/53 52/52/52
f 53/53/53 54/54/54 52/52/52
f 53/53/53 55/55/55 54/54/54
f 55/55/55 56/56/56 54/54/54
f 55/55/55 57/57/57 56/56/56
f 57/57/57 58/58/58 56/56/56
f 61/61/61 60/60/60 59/59/59
f 60/60/60 62/62/62 59/59/59
f 59/59/59 62/62/62 63/63/63
f 62/62/62 64/64/64 63/63/63
f 63/63/63 64/64/64 65/65/65
f 64/64/64 66/66/66 65/65/65
f 69/69/69 68/68/68 67/67/67
f 70/70/70 69/69/69 67/67/67
f 73/73/73 72/72/72 71/71/71
f 72/72/72 74/74/74 71/71/71
f 72/72/72 75/75/75 74/74/74
f 75/75/75 76/76/76 74/74/74
f 75/75/75 77/77/77 76/76/76
f 77/77/77 78/78/78 76/76/76
f 77/77/77 79/79/79 78/78/78
f 79/79/79 80/80/80 78/78/78
f 79/79/79 81/81/81 80/80/80
f 81/81/81 82/82/82 80/80/80
f 81/81/81 83/83/83 82/82/82
f 83/83/83 84/84/84 82/82/82
f 83/83/83 85/85/85 84/84/84
f 85/85/85 86/86/86 84/84/84
f 85/85/85 87/87/87 86/86/86
f 87/87/87 88/88/88 86/86/86
f 87/87/87 89/89/89 88/88/88
f 89/89/89 90/90/90 88/88/88
f 89/89/89 91/91/91 90/90/90
f 91/91/91 92/92/92 90/90/90
f 91/91/91 93/93/93 92/92/92
f 93/93/93 94/94/94 92/92/92
f 93/93/93 95/95/95 94/94/94
f 95/95/95 96/96/96 94/94/94
f 99/99/99 98/98/98 97/97/97
f 100/100/100 99/99/99 97/97/97
f 100/100/100 97/97/97 101/101/101
f 102/102/102 100/100/100 101/101/101
f 102/102/102 101/101/101 103/103/103
f 104/104/104 102/102/102 103/103/103
f 104/104/104 103/103/103 105/105/105
f 106/106/106 104/104/104 105/105/105
f 106/106/106 105/105/105 107/107/107
f 108/108/108 106/106/106 107/107/107
f 108/108/108 107/107/107 109/109/109
f 110/110/110 108/108/108 109/109/109
f 110/110/110 109/109/109 111/111/111
f 112/112/112 110/110/110 111/111/111
f 112/112/112 111/111/111 113/113/113
f 114/114/114 112/112/112 113/113/113
f 114/114/114 113/113/113 115/115/115
f 116/116/116 114/114/114 115/115/115
f 116/116/116 115/115/115 117/117/117
f 118/118/118 116/116/116 117/117/117
f 118/118/118 117/117/117 119/119/119
f 120/120/120 118/118/118 119/119/119
f 120/120/120 119/119/119 121/121/121
f 122/122/122 120/120/120 121/121/121
f 125/125/125 124/124/124 123/123/123
f 126/126/126 125/125/125 123/123/123
f 129/129/129 128/128/128 127/127/127
f 130/130/130 129/129/129 127/127/127
f 131/131/131 129/129/129 130/130/130
f 132/132/132 131/131/131 130/130/130
f 135/135/135 134/134/134 133/133/133
f 136/136/136 135/135/135 133/133/133
f 137/137/137 135/135/135 136/136/136
f 138/138/138 137/137/137 136/136/136
f 141/141/141 140/140/140 139/139/139
f 142/142/142 141/141/141 139/139/139
f 143/143/143 141/141/141 142/142/142
f 144/144/144 143/143/143 142/142/142
f 145/145/145 143/143/143 144/144/144
f 146/146/146 145/145/145 144/144/144
f 147/147/147 145/145/145 146/146/146
f 148/148/148 147/147/147 146/146/146
f 151/151/151 150/150/150 149/149/149
f 150/150/150 152/152/152 149/149/149
f 149/149/149 152/152/152 153/153/153
f 152/152/152 154/154/154 153/153/153
f 153/153/153 154/154/154 155/155/155
f 154/154/154 156/156/156 155/155/155
f 155/155/155 156/156/156 157/157/157
f 156/156/156 158/158/158 157/157/157
f 161/161/161 160/160/160 159/159/159
f 162/162/162 161/161/161 159/159/159
f 165/165/165 164/164/164 163/163/163
f 166/166/166 165/165/165 163/163/163
f 169/169/169 168/168/168 167/167/167
f 168/168/168 170/170/170 167/167/167
f 167/167/167 170/170/170 171/171/171
f 170/170/170 172/172/172 171/171/171
f 175/175/175 174/174/174 173/173/173
f 176/176/176 175/175/175 173/173/173
