g mdlBrother_Unfinished_Cap
v 0.044741973 0.011988583 -0.040685132
v 0.0463203 1.03581215E-08 -0.040685132
v 0.0463203 1.03581215E-08 0.009811014
v 0.044741973 0.011988583 0.009811014
v 0.04011455 0.02316015 -0.040685132
v 0.04011455 0.02316015 0.009811014
v 0.03275339 0.0327534 -0.040685132
v 0.03275339 0.0327534 0.009811014
v 0.023160154 0.040114563 -0.040685132
v 0.023160154 0.040114563 0.009811014
v 0.011988579 0.044741984 -0.040685132
v 0.011988579 0.044741984 0.009811014
v 2.3330955E-09 0.04632031 -0.040685132
v 2.3330955E-09 0.04632031 0.009811014
v -0.011988606 0.044741984 -0.040685132
v -0.011988606 0.044741984 0.009811014
v -0.023160184 0.040114563 -0.040685132
v -0.023160184 0.040114563 0.009811014
v -0.032753434 0.0327534 -0.040685132
v -0.032753434 0.0327534 0.009811014
v -0.040114567 0.023160135 -0.040685132
v -0.040114567 0.023160135 0.009811014
v -0.04474199 0.011988562 -0.040685132
v -0.04474199 0.011988562 0.009811014
v -0.046320315 -1.4673844E-08 -0.040685132
v -0.046320315 -1.4673844E-08 0.009811014
v 0.0463203 1.03581215E-08 -0.040685132
v 0.044741973 -0.011988566 0.009811014
v 0.0463203 1.03581215E-08 0.009811014
v 0.044741973 -0.011988566 -0.040685132
v 0.04011455 -0.023160143 0.009811014
v 0.04011455 -0.023160143 -0.040685132
v 0.03275342 -0.032753393 0.009811014
v 0.03275342 -0.032753393 -0.040685132
v 0.023160169 -0.040114556 0.009811014
v 0.023160169 -0.040114556 -0.040685132
v 0.011988593 -0.044741977 0.009811014
v 0.011988593 -0.044741977 -0.040685132
v 2.0370889E-08 -0.046320304 0.009811014
v 2.0370889E-08 -0.046320304 -0.040685132
v -0.011988556 -0.044741977 0.009811014
v -0.011988556 -0.044741977 -0.040685132
v -0.023160126 -0.040114556 0.009811014
v -0.023160126 -0.040114556 -0.040685132
v -0.032753374 -0.032753423 0.009811014
v -0.032753374 -0.032753423 -0.040685132
v -0.040114567 -0.023160158 0.009811014
v -0.040114567 -0.023160158 -0.040685132
v -0.044741962 -0.011988588 0.009811014
v -0.044741962 -0.011988588 -0.040685132
v -0.046320315 -1.4673844E-08 0.009811014
v -0.046320315 -1.4673844E-08 -0.040685132
v 0.044741973 -0.011988566 -0.040685132
v 0.0463203 1.03581215E-08 -0.040685132
v 0.044741973 0.011988583 -0.040685132
v 0.04011455 -0.023160143 -0.040685132
v 0.04011455 0.02316015 -0.040685132
v 0.03275342 -0.032753393 -0.040685132
v 0.03275339 0.0327534 -0.040685132
v 0.023160169 -0.040114556 -0.040685132
v 0.023160154 0.040114563 -0.040685132
v 0.011988593 -0.044741977 -0.040685132
v 0.011988579 0.044741984 -0.040685132
v 2.0370889E-08 -0.046320304 -0.040685132
v 2.3330955E-09 0.04632031 -0.040685132
v -0.011988556 -0.044741977 -0.040685132
v -0.011988606 0.044741984 -0.040685132
v -0.023160126 -0.040114556 -0.040685132
v -0.023160184 0.040114563 -0.040685132
v -0.032753374 -0.032753423 -0.040685132
v -0.032753434 0.0327534 -0.040685132
v -0.040114567 -0.023160158 -0.040685132
v -0.040114567 0.023160135 -0.040685132
v -0.044741962 -0.011988588 -0.040685132
v -0.04474199 0.011988562 -0.040685132
v -0.046320315 -1.4673844E-08 -0.040685132
v 0.029874362 0.008004817 0.030873775
v 0.030928217 6.838789E-09 0.030873775
v 0.029874362 -0.008004806 0.030873775
v 0.026784617 0.01546411 0.030873775
v 0.026784617 -0.015464103 0.030873775
v 0.021869544 0.021869555 0.030873775
v 0.021869564 -0.021869551 0.030873775
v 0.015464122 -0.026784625 0.030873775
v 0.015464113 0.026784625 0.030873775
v 0.008004824 -0.02987437 0.030873775
v 0.008004814 0.02987437 0.030873775
v 1.38725005E-08 -0.03092822 0.030873775
v 1.8286066E-09 0.030928224 0.030873775
v -0.008004799 -0.02987437 0.030873775
v -0.008004832 0.02987437 0.030873775
v -0.015464093 -0.026784625 0.030873775
v -0.015464131 0.026784625 0.030873775
v -0.02186954 -0.02186957 0.030873775
v -0.02186958 0.021869555 0.030873775
v -0.026784632 -0.015464113 0.030873775
v -0.026784632 0.015464101 0.030873775
v -0.029874377 0.008004802 0.030873775
v -0.02987436 -0.00800482 0.030873775
v -0.030928232 -9.875137E-09 0.030873775
v -0.046320315 -1.4673844E-08 0.009811014
v -0.030928232 -9.875137E-09 0.030873775
v -0.02987436 -0.00800482 0.030873775
v -0.044741962 -0.011988588 0.009811014
v -0.026784632 -0.015464113 0.030873775
v -0.040114567 -0.023160158 0.009811014
v -0.02186954 -0.02186957 0.030873775
v -0.032753374 -0.032753423 0.009811014
v -0.015464093 -0.026784625 0.030873775
v -0.023160126 -0.040114556 0.009811014
v -0.008004799 -0.02987437 0.030873775
v -0.011988556 -0.044741977 0.009811014
v 1.38725005E-08 -0.03092822 0.030873775
v 2.0370889E-08 -0.046320304 0.009811014
v 0.008004824 -0.02987437 0.030873775
v 0.011988593 -0.044741977 0.009811014
v 0.015464122 -0.026784625 0.030873775
v 0.023160169 -0.040114556 0.009811014
v 0.021869564 -0.021869551 0.030873775
v 0.03275342 -0.032753393 0.009811014
v 0.026784617 -0.015464103 0.030873775
v 0.04011455 -0.023160143 0.009811014
v 0.029874362 -0.008004806 0.030873775
v 0.044741973 -0.011988566 0.009811014
v 0.030928217 6.838789E-09 0.030873775
v 0.0463203 1.03581215E-08 0.009811014
v 0.0463203 1.03581215E-08 0.009811014
v 0.030928217 6.838789E-09 0.030873775
v 0.029874362 0.008004817 0.030873775
v 0.044741973 0.011988583 0.009811014
v 0.026784617 0.01546411 0.030873775
v 0.04011455 0.02316015 0.009811014
v 0.021869544 0.021869555 0.030873775
v 0.03275339 0.0327534 0.009811014
v 0.015464113 0.026784625 0.030873775
v 0.023160154 0.040114563 0.009811014
v 0.008004814 0.02987437 0.030873775
v 0.011988579 0.044741984 0.009811014
v 1.8286066E-09 0.030928224 0.030873775
v 2.3330955E-09 0.04632031 0.009811014
v -0.008004832 0.02987437 0.030873775
v -0.011988606 0.044741984 0.009811014
v -0.015464131 0.026784625 0.030873775
v -0.023160184 0.040114563 0.009811014
v -0.02186958 0.021869555 0.030873775
v -0.032753434 0.0327534 0.009811014
v -0.026784632 0.015464101 0.030873775
v -0.040114567 0.023160135 0.009811014
v -0.029874377 0.008004802 0.030873775
v -0.04474199 0.011988562 0.009811014
v -0.030928232 -9.875137E-09 0.030873775
v -0.046320315 -1.4673844E-08 0.009811014
vt 0.2365129 0.106975645
vt 0.2271212 0.106975645
vt 0.2271212 0.117434725
vt 0.2365129 0.117434725
vt 0.26404423 0.106975645
vt 0.26404423 0.117434725
vt 0.30784538 0.106975645
vt 0.30784538 0.117434725
vt 0.36492506 0.106975645
vt 0.36492506 0.117434725
vt 0.43139815 0.106975645
vt 0.43139815 0.117434725
vt 0.5027306 0.106975645
vt 0.5027306 0.117434725
vt 0.57406306 0.106975645
vt 0.57406306 0.117434725
vt 0.6405353 0.106975645
vt 0.6405353 0.117434725
vt 0.69761586 0.106975645
vt 0.69761586 0.117434725
vt 0.7414161 0.106975645
vt 0.7414161 0.117434725
vt 0.76895 0.106975645
vt 0.76895 0.117434725
vt 0.7783409 0.106975645
vt 0.7783409 0.117434725
vt 0.2271212 0.106975645
vt 0.2365129 0.117434725
vt 0.2271212 0.117434725
vt 0.2365129 0.106975645
vt 0.26404423 0.117434725
vt 0.26404423 0.106975645
vt 0.30784538 0.117434725
vt 0.30784538 0.106975645
vt 0.36492506 0.117434725
vt 0.36492506 0.106975645
vt 0.43139815 0.117434725
vt 0.43139815 0.106975645
vt 0.5027306 0.117434725
vt 0.5027306 0.106975645
vt 0.57406306 0.117434725
vt 0.57406306 0.106975645
vt 0.6405353 0.117434725
vt 0.6405353 0.106975645
vt 0.69761586 0.117434725
vt 0.69761586 0.106975645
vt 0.7414161 0.117434725
vt 0.7414161 0.106975645
vt 0.7689483 0.117434725
vt 0.7689483 0.106975645
vt 0.7783409 0.117434725
vt 0.7783409 0.106975645
vt 0.2365129 0.106975645
vt 0.2271212 0.106975645
vt 0.2365129 0.106975645
vt 0.26404423 0.106975645
vt 0.26404423 0.106975645
vt 0.30784538 0.106975645
vt 0.30784538 0.106975645
vt 0.36492506 0.106975645
vt 0.36492506 0.106975645
vt 0.43139815 0.106975645
vt 0.43139815 0.106975645
vt 0.5027306 0.106975645
vt 0.5027306 0.106975645
vt 0.57406306 0.106975645
vt 0.57406306 0.106975645
vt 0.6405353 0.106975645
vt 0.6405353 0.106975645
vt 0.69761586 0.106975645
vt 0.69761586 0.106975645
vt 0.7414161 0.106975645
vt 0.7414161 0.106975645
vt 0.7689483 0.106975645
vt 0.76895 0.106975645
vt 0.7783409 0.106975645
vt 0.32497478 0.12179738
vt 0.3187045 0.12179738
vt 0.32497478 0.12179738
vt 0.34335923 0.12179738
vt 0.34335923 0.12179738
vt 0.37260622 0.12179738
vt 0.3726028 0.12179738
vt 0.41071755 0.12179738
vt 0.41071755 0.12179738
vt 0.45510086 0.12179738
vt 0.45510086 0.12179738
vt 0.5027306 0.12179738
vt 0.5027306 0.12179738
vt 0.5503604 0.12179738
vt 0.5503604 0.12179738
vt 0.59474194 0.12179738
vt 0.59474194 0.12179738
vt 0.6328567 0.12179738
vt 0.6328567 0.12179738
vt 0.662102 0.12179738
vt 0.662102 0.12179738
vt 0.6804856 0.12179738
vt 0.6804856 0.12179738
vt 0.6867559 0.12179738
vt 0.7783409 0.117434725
vt 0.6867559 0.12179738
vt 0.6804856 0.12179738
vt 0.7689483 0.117434725
vt 0.662102 0.12179738
vt 0.7414161 0.117434725
vt 0.6328567 0.12179738
vt 0.69761586 0.117434725
vt 0.59474194 0.12179738
vt 0.6405353 0.117434725
vt 0.5503604 0.12179738
vt 0.57406306 0.117434725
vt 0.5027306 0.12179738
vt 0.5027306 0.117434725
vt 0.45510086 0.12179738
vt 0.43139815 0.117434725
vt 0.41071755 0.12179738
vt 0.36492506 0.117434725
vt 0.3726028 0.12179738
vt 0.30784538 0.117434725
vt 0.34335923 0.12179738
vt 0.26404423 0.117434725
vt 0.32497478 0.12179738
vt 0.2365129 0.117434725
vt 0.3187045 0.12179738
vt 0.2271212 0.117434725
vt 0.2271212 0.117434725
vt 0.3187045 0.12179738
vt 0.32497478 0.12179738
vt 0.2365129 0.117434725
vt 0.34335923 0.12179738
vt 0.26404423 0.117434725
vt 0.37260622 0.12179738
vt 0.30784538 0.117434725
vt 0.41071755 0.12179738
vt 0.36492506 0.117434725
vt 0.45510086 0.12179738
vt 0.43139815 0.117434725
vt 0.5027306 0.12179738
vt 0.5027306 0.117434725
vt 0.5503604 0.12179738
vt 0.57406306 0.117434725
vt 0.59474194 0.12179738
vt 0.6405353 0.117434725
vt 0.6328567 0.12179738
vt 0.69761586 0.117434725
vt 0.662102 0.12179738
vt 0.7414161 0.117434725
vt 0.6804856 0.12179738
vt 0.76895 0.117434725
vt 0.6867559 0.12179738
vt 0.7783409 0.117434725
vn 0.9659257 0.25881928 0
vn 1 0 0
vn 1 0 0
vn 0.9659257 0.25881928 0
vn 0.86602527 0.50000036 0
vn 0.86602527 0.50000036 0
vn 0.707107 0.70710653 0
vn 0.707107 0.70710653 0
vn 0.50000054 0.86602515 0
vn 0.50000054 0.86602515 0
vn 0.25881922 0.9659257 0
vn 0.25881922 0.9659257 0
vn -0 1 0
vn -0 1 0
vn -0.25881898 0.9659258 0
vn -0.25881898 0.9659258 0
vn -0.5000001 0.8660253 0
vn -0.5000001 0.8660253 0
vn -0.7071077 0.7071058 0
vn -0.7071077 0.7071058 0
vn -0.866026 0.49999908 0
vn -0.866026 0.49999908 0
vn -0.9659257 0.25881916 0
vn -0.9659257 0.25881916 0
vn -1 0 0
vn -1 0 0
vn 1 0 0
vn 0.9659258 -0.2588191 0
vn 1 0 0
vn 0.9659258 -0.2588191 0
vn 0.8660258 -0.49999934 0
vn 0.8660258 -0.49999934 0
vn 0.70710737 -0.7071061 0
vn 0.70710737 -0.7071061 0
vn 0.5000001 -0.8660253 0
vn 0.5000001 -0.8660253 0
vn 0.25881922 -0.9659257 0
vn 0.25881922 -0.9659257 0
vn -0 -1 0
vn -0 -1 0
vn -0.25881925 -0.9659257 0
vn -0.25881925 -0.9659257 0
vn -0.4999995 -0.8660257 0
vn -0.4999995 -0.8660257 0
vn -0.7071057 -0.7071078 0
vn -0.7071057 -0.7071078 0
vn -0.8660255 -0.4999998 0
vn -0.8660255 -0.4999998 0
vn -0.9659257 -0.2588193 0
vn -0.9659257 -0.2588193 0
vn -1 0 0
vn -1 0 0
vn -0 0 -1
vn -0 0 -1
vn -0 0 -1
vn -0 0 -1
vn -0 0 -1
vn -0 0 -1
vn -0 0 -1
vn -0 0 -1
vn -0 0 -1
vn -0 0 -1
vn -0 0 -1
vn -0 0 -1
vn -0 0 -1
vn -0 0 -1
vn -0 0 -1
vn -0 0 -1
vn -0 0 -1
vn -0 0 -1
vn -0 0 -1
vn -0 0 -1
vn -0 0 -1
vn -0 0 -1
vn -0 0 -1
vn -0 0 -1
vn -0 0 1
vn -0 0 1
vn -0 0 1
vn -0 0 1
vn -0 0 1
vn -0 0 1
vn -0 0 1
vn -0 0 1
vn -0 0 1
vn -0 0 1
vn -0 0 1
vn -0 0 1
vn -0 0 1
vn -0 0 1
vn -0 0 1
vn -0 0 1
vn -0 0 1
vn -0 0 1
vn -0 0 1
vn -0 0 1
vn -0 0 1
vn -0 0 1
vn -0 0 1
vn -0 0 1
vn -0.80738986 0 0.5900182
vn -0.80738986 0 0.5900183
vn -0.7798788 -0.2089683 0.59001803
vn -0.77987885 -0.20896828 0.59001803
vn -0.69922024 -0.4036949 0.5900183
vn -0.69922024 -0.40369496 0.5900183
vn -0.5709101 -0.5709117 0.5900182
vn -0.57091016 -0.57091165 0.59001815
vn -0.40369454 -0.6992207 0.5900179
vn -0.4036946 -0.69922066 0.590018
vn -0.20896807 -0.77987885 0.59001803
vn -0.20896804 -0.77987885 0.5900181
vn -0 -0.80739 0.5900182
vn -0 -0.80739 0.5900182
vn 0.20896797 -0.77987874 0.5900183
vn 0.20896797 -0.77987874 0.5900182
vn 0.40369514 -0.6992201 0.59001815
vn 0.40369514 -0.6992201 0.59001815
vn 0.5709115 -0.5709102 0.5900183
vn 0.5709115 -0.5709102 0.5900183
vn 0.6992206 -0.40369424 0.5900182
vn 0.6992206 -0.40369433 0.5900182
vn 0.7798788 -0.20896801 0.5900182
vn 0.7798788 -0.20896798 0.5900182
vn 0.80739 0 0.5900182
vn 0.80738986 0 0.5900183
vn 0.80738986 0 0.5900183
vn 0.80739 0 0.5900182
vn 0.7798787 0.20896815 0.5900183
vn 0.7798787 0.20896809 0.5900183
vn 0.69922 0.40369523 0.5900182
vn 0.6992201 0.4036952 0.5900183
vn 0.57091117 0.5709107 0.5900182
vn 0.57091117 0.57091063 0.59001815
vn 0.40369546 0.6992198 0.5900184
vn 0.40369532 0.6992198 0.59001833
vn 0.20896801 0.77987874 0.5900183
vn 0.20896803 0.7798787 0.59001833
vn -0 0.80739 0.5900182
vn -0 0.80739 0.5900182
vn -0.20896783 0.77987874 0.5900184
vn -0.20896786 0.7798787 0.5900184
vn -0.40369496 0.69922006 0.5900184
vn -0.403695 0.69922 0.5900184
vn -0.5709116 0.5709099 0.59001845
vn -0.5709115 0.57091 0.59001845
vn -0.6992208 0.40369424 0.59001815
vn -0.69922066 0.4036943 0.5900181
vn -0.7798788 0.20896818 0.5900181
vn -0.7798788 0.20896813 0.5900181
vn -0.80738986 0 0.5900183
vn -0.80738986 0 0.5900182
g mdlBrother_Unfinished_Cap_0
f 3/3/3 2/2/2 1/1/1
f 4/4/4 3/3/3 1/1/1
f 4/4/4 1/1/1 5/5/5
f 6/6/6 4/4/4 5/5/5
f 6/6/6 5/5/5 7/7/7
f 8/8/8 6/6/6 7/7/7
f 8/8/8 7/7/7 9/9/9
f 10/10/10 8/8/8 9/9/9
f 10/10/10 9/9/9 11/11/11
f 12/12/12 10/10/10 11/11/11
f 12/12/12 11/11/11 13/13/13
f 14/14/14 12/12/12 13/13/13
f 14/14/14 13/13/13 15/15/15
f 16/16/16 14/14/14 15/15/15
f 16/16/16 15/15/15 17/17/17
f 18/18/18 16/16/16 17/17/17
f 18/18/18 17/17/17 19/19/19
f 20/20/20 18/18/18 19/19/19
f 20/20/20 19/19/19 21/21/21
f 22/22/22 20/20/20 21/21/21
f 22/22/22 21/21/21 23/23/23
f 24/24/24 22/22/22 23/23/23
f 24/24/24 23/23/23 25/25/25
f 26/26/26 24/24/24 25/25/25
f 29/29/29 28/28/28 27/27/27
f 28/28/28 30/30/30 27/27/27
f 28/28/28 31/31/31 30/30/30
f 31/31/31 32/32/32 30/30/30
f 31/31/31 33/33/33 32/32/32
f 33/33/33 34/34/34 32/32/32
f 33/33/33 35/35/35 34/34/34
f 35/35/35 36/36/36 34/34/34
f 35/35/35 37/37/37 36/36/36
f 37/37/37 38/38/38 36/36/36
f 37/37/37 39/39/39 38/38/38
f 39/39/39 40/40/40 38/38/38
f 39/39/39 41/41/41 40/40/40
f 41/41/41 42/42/42 40/40/40
f 41/41/41 43/43/43 42/42/42
f 43/43/43 44/44/44 42/42/42
f 43/43/43 45/45/45 44/44/44
f 45/45/45 46/46/46 44/44/44
f 45/45/45 47/47/47 46/46/46
f 47/47/47 48/48/48 46/46/46
f 47/47/47 49/49/49 48/48/48
f 49/49/49 50/50/50 48/48/48
f 49/49/49 51/51/51 50/50/50
f 51/51/51 52/52/52 50/50/50
f 55/55/55 54/54/54 53/53/53
f 53/53/53 56/56/56 55/55/55
f 56/56/56 57/57/57 55/55/55
f 56/56/56 58/58/58 57/57/57
f 58/58/58 59/59/59 57/57/57
f 58/58/58 60/60/60 59/59/59
f 60/60/60 61/61/61 59/59/59
f 60/60/60 62/62/62 61/61/61
f 62/62/62 63/63/63 61/61/61
f 62/62/62 64/64/64 63/63/63
f 64/64/64 65/65/65 63/63/63
f 64/64/64 66/66/66 65/65/65
f 66/66/66 67/67/67 65/65/65
f 66/66/66 68/68/68 67/67/67
f 68/68/68 69/69/69 67/67/67
f 68/68/68 70/70/70 69/69/69
f 70/70/70 71/71/71 69/69/69
f 70/70/70 72/72/72 71/71/71
f 72/72/72 73/73/73 71/71/71
f 72/72/72 74/74/74 73/73/73
f 74/74/74 75/75/75 73/73/73
f 74/74/74 76/76/76 75/75/75
f 79/79/79 78/78/78 77/77/77
f 77/77/77 80/80/80 79/79/79
f 80/80/80 81/81/81 79/79/79
f 80/80/80 82/82/82 81/81/81
f 82/82/82 83/83/83 81/81/81
f 82/82/82 84/84/84 83/83/83
f 82/82/82 85/85/85 84/84/84
f 85/85/85 86/86/86 84/84/84
f 85/85/85 87/87/87 86/86/86
f 87/87/87 88/88/88 86/86/86
f 87/87/87 89/89/89 88/88/88
f 89/89/89 90/90/90 88/88/88
f 89/89/89 91/91/91 90/90/90
f 91/91/91 92/92/92 90/90/90
f 91/91/91 93/93/93 92/92/92
f 93/93/93 94/94/94 92/92/92
f 93/93/93 95/95/95 94/94/94
f 95/95/95 96/96/96 94/94/94
f 95/95/95 97/97/97 96/96/96
f 97/97/97 98/98/98 96/96/96
f 98/98/98 99/99/99 96/96/96
f 98/98/98 100/100/100 99/99/99
f 103/103/103 102/102/102 101/101/101
f 104/104/104 103/103/103 101/101/101
f 105/105/105 103/103/103 104/104/104
f 106/106/106 105/105/105 104/104/104
f 107/107/107 105/105/105 106/106/106
f 108/108/108 107/107/107 106/106/106
f 109/109/109 107/107/107 108/108/108
f 110/110/110 109/109/109 108/108/108
f 111/111/111 109/109/109 110/110/110
f 112/112/112 111/111/111 110/110/110
f 113/113/113 111/111/111 112/112/112
f 114/114/114 113/113/113 112/112/112
f 115/115/115 113/113/113 114/114/114
f 116/116/116 115/115/115 114/114/114
f 117/117/117 115/115/115 116/116/116
f 118/118/118 117/117/117 116/116/116
f 119/119/119 117/117/117 118/118/118
f 120/120/120 119/119/119 118/118/118
f 121/121/121 119/119/119 120/120/120
f 122/122/122 121/121/121 120/120/120
f 123/123/123 121/121/121 122/122/122
f 124/124/124 123/123/123 122/122/122
f 125/125/125 123/123/123 124/124/124
f 126/126/126 125/125/125 124/124/124
f 129/129/129 128/128/128 127/127/127
f 130/130/130 129/129/129 127/127/127
f 131/131/131 129/129/129 130/130/130
f 132/132/132 131/131/131 130/130/130
f 133/133/133 131/131/131 132/132/132
f 134/134/134 133/133/133 132/132/132
f 135/135/135 133/133/133 134/134/134
f 136/136/136 135/135/135 134/134/134
f 137/137/137 135/135/135 136/136/136
f 138/138/138 137/137/137 136/136/136
f 139/139/139 137/137/137 138/138/138
f 140/140/140 139/139/139 138/138/138
f 141/141/141 139/139/139 140/140/140
f 142/142/142 141/141/141 140/140/140
f 143/143/143 141/141/141 142/142/142
f 144/144/144 143/143/143 142/142/142
f 145/145/145 143/143/143 144/144/144
f 146/146/146 145/145/145 144/144/144
f 147/147/147 145/145/145 146/146/146
f 148/148/148 147/147/147 146/146/146
f 149/149/149 147/147/147 148/148/148
f 150/150/150 149/149/149 148/148/148
f 151/151/151 149/149/149 150/150/150
f 152/152/152 151/151/151 150/150/150
