g mdlCircle
v 5.672453E-08 0.6888688 0
v -0 1 0
v -0.38268346 0.9238795 0
v -0.2636187 0.63643175 0
v -8.195639E-08 3.7252903E-09 0
v -0.70710677 0.70710677 0
v 0.26361832 0.636432 0
v 0.38268298 0.92387974 0
v -0.48710376 0.4871038 0
v -0.9238795 0.38268343 0
v 0.48710358 0.48710397 0
v 0.70710653 0.707107 0
v -0.6364318 0.2636187 0
v -1 -4.371139E-08 0
v 0.6364317 0.26361877 0
v 0.92387944 0.3826836 0
v -0.68886876 -4.607491E-08 0
v 0.68886876 -9.346824E-09 0
v -0.63643175 -0.26361874 0
v -0.9238795 -0.38268352 0
v 1 1.1924881E-08 0
v -0.70710677 -0.70710677 0
v 0.6364318 -0.26361877 0
v 0.9238795 -0.38268358 0
v -0.4871038 -0.48710376 0
v -0.3826835 -0.9238795 0
v 0.48710364 -0.48710397 0
v 0.7071066 -0.707107 0
v -0.2636187 -0.6364318 0
v -1.509958E-07 -1 0
v 0.26361853 -0.6364318 0
v 0.38268322 -0.9238796 0
v -9.89983E-08 -0.68886876 0
vt 0.5665461 0.8345501
vt 0.596602 0.9856514
vt 0.77509934 0.9117154
vt 0.68950737 0.78361785
vt 0.5 0.49999997
vt 0.9117154 0.77509934
vt 0.43345398 0.83455014
vt 0.4033981 0.98565143
vt 0.78361785 0.68950737
vt 0.9856513 0.5966021
vt 0.3104927 0.783618
vt 0.22490072 0.9117155
vt 0.8345501 0.5665462
vt 0.9856513 0.40339786
vt 0.21638218 0.68950737
vt 0.0882847 0.77509946
vt 0.83455 0.4334538
vt 0.1654499 0.5665461
vt 0.78361773 0.31049252
vt 0.91171515 0.22490051
vt 0.014348596 0.5966021
vt 0.77509934 0.08828464
vt 0.16544986 0.4334538
vt 0.014348596 0.4033979
vt 0.68950737 0.21638213
vt 0.5966021 0.014348596
vt 0.21638218 0.31049252
vt 0.0882847 0.22490048
vt 0.5665462 0.16544987
vt 0.40339798 0.014348596
vt 0.31049266 0.21638209
vt 0.22490066 0.08828458
vt 0.4334539 0.1654499
vn -0 0 -1
vn -0 0 -1
vn -0 0 -1
vn -0 0 -1
vn -0 0 -1
vn -0 0 -1
vn -0 0 -1
vn -0 0 -1
vn -0 0 -1
vn -0 0 -1
vn -0 0 -1
vn -0 0 -1
vn -0 0 -1
vn -0 0 -1
vn -0 0 -1
vn -0 0 -1
vn -0 0 -1
vn -0 0 -1
vn -0 0 -1
vn -0 0 -1
vn -0 0 -1
vn -0 0 -1
vn -0 0 -1
vn -0 0 -1
vn -0 0 -1
vn -0 0 -1
vn -0 0 -1
vn -0 0 -1
vn -0 0 -1
vn -0 0 -1
vn -0 0 -1
vn -0 0 -1
vn -0 0 -1
g mdlCircle_0
f 3/3/3 2/2/2 1/1/1
f 4/4/4 3/3/3 1/1/1
f 1/1/1 5/5/5 4/4/4
f 6/6/6 3/3/3 4/4/4
f 1/1/1 2/2/2 7/7/7
f 7/7/7 5/5/5 1/1/1
f 2/2/2 8/8/8 7/7/7
f 9/9/9 6/6/6 4/4/4
f 4/4/4 5/5/5 9/9/9
f 10/10/10 6/6/6 9/9/9
f 7/7/7 8/8/8 11/11/11
f 11/11/11 5/5/5 7/7/7
f 8/8/8 12/12/12 11/11/11
f 13/13/13 10/10/10 9/9/9
f 9/9/9 5/5/5 13/13/13
f 14/14/14 10/10/10 13/13/13
f 11/11/11 12/12/12 15/15/15
f 15/15/15 5/5/5 11/11/11
f 12/12/12 16/16/16 15/15/15
f 13/13/13 5/5/5 17/17/17
f 17/17/17 14/14/14 13/13/13
f 18/18/18 5/5/5 15/15/15
f 15/15/15 16/16/16 18/18/18
f 17/17/17 5/5/5 19/19/19
f 20/20/20 14/14/14 17/17/17
f 19/19/19 20/20/20 17/17/17
f 16/16/16 21/21/21 18/18/18
f 22/22/22 20/20/20 19/19/19
f 18/18/18 21/21/21 23/23/23
f 23/23/23 5/5/5 18/18/18
f 21/21/21 24/24/24 23/23/23
f 25/25/25 22/22/22 19/19/19
f 19/19/19 5/5/5 25/25/25
f 26/26/26 22/22/22 25/25/25
f 23/23/23 24/24/24 27/27/27
f 27/27/27 5/5/5 23/23/23
f 24/24/24 28/28/28 27/27/27
f 29/29/29 26/26/26 25/25/25
f 25/25/25 5/5/5 29/29/29
f 30/30/30 26/26/26 29/29/29
f 27/27/27 28/28/28 31/31/31
f 31/31/31 5/5/5 27/27/27
f 28/28/28 32/32/32 31/31/31
f 29/29/29 5/5/5 33/33/33
f 33/33/33 30/30/30 29/29/29
f 33/33/33 5/5/5 31/31/31
f 32/32/32 30/30/30 33/33/33
f 31/31/31 32/32/32 33/33/33
