g mdlConstellationPiece
v -0.007700667 -0.004548227 0.18834889
v -0.007700667 0.008198304 0.18815091
v -0.0013267845 -0.002845028 0.23886938
v -0.008774504 -0.00585835 -0.00066627585
v -0.008774504 0.009035415 -0.000897589
v -0.007700667 -0.0050791223 -0.18294
v 0.005047336 0.008198304 0.18815091
v -0.0013267845 -0.002845028 0.23886938
v -0.007700667 0.00766741 -0.18313818
v -0.0013267845 0.0060674935 -0.24043377
v 0.0061210543 0.009035415 -0.000897589
v 0.005047336 -0.004548227 0.18834889
v -0.0013267845 -0.002845028 0.23886938
v 0.005047336 0.00766741 -0.18313818
v -0.0013267845 0.0060674935 -0.24043377
v 0.0061210543 -0.00585835 -0.00066627585
v -0.007700667 -0.004548227 0.18834889
v -0.0013267845 -0.002845028 0.23886938
v -0.008774504 -0.00585835 -0.00066627585
v 0.005047336 -0.0050791223 -0.18294
v -0.0013267845 0.0060674935 -0.24043377
v -0.007700667 -0.0050791223 -0.18294
v -0.0013267845 0.0060674935 -0.24043377
vt 0.5625 0
vt 0.5625 0.25
vt 0.625 0.25
vt 0.5 0
vt 0.5 0.25
vt 0.4375 0
vt 0.5625 0.5
vt 0.625 0.5
vt 0.4375 0.25
vt 0.375 0
vt 0.5 0.5
vt 0.5625 0.75
vt 0.625 0.75
vt 0.4375 0.5
vt 0.375 0.25
vt 0.5 0.75
vt 0.5625 1
vt 0.625 1
vt 0.5 1
vt 0.4375 0.75
vt 0.375 0.5
vt 0.4375 1
vt 0.375 0.75
vn -0.7155217 -0.6959589 0.060580533
vn -0.6937007 0.71073043 0.11679686
vn -0 -0.08966615 0.99597186
vn -0.70715225 -0.7070607 0.0008850466
vn -0.70706046 0.707152 -0.0011902347
vn -0.69517064 -0.7111323 -0.105017215
vn 0.6937007 0.71073043 0.11679686
vn -0 -0.08966615 0.99597186
vn -0.71502936 0.6970232 -0.053774454
vn -0 0.08130261 -0.99668944
vn 0.70706046 0.707152 -0.0011902347
vn 0.7155217 -0.6959589 0.060580533
vn -0 -0.08966615 0.99597186
vn 0.71502936 0.6970232 -0.053774454
vn -0 0.08130261 -0.99668944
vn 0.70715225 -0.7070607 0.0008850466
vn -0.7155217 -0.6959589 0.060580533
vn -0 -0.08966615 0.99597186
vn -0.70715225 -0.7070607 0.0008850466
vn 0.69517064 -0.7111323 -0.105017215
vn -0 0.08130261 -0.99668944
vn -0.69517064 -0.7111323 -0.105017215
vn -0 0.08130261 -0.99668944
g mdlConstellationPiece_0
f 3/3/3 2/2/2 1/1/1
f 1/1/1 2/2/2 4/4/4
f 2/2/2 5/5/5 4/4/4
f 4/4/4 5/5/5 6/6/6
f 2/2/2 7/7/7 5/5/5
f 8/8/8 7/7/7 2/2/2
f 5/5/5 9/9/9 6/6/6
f 6/6/6 9/9/9 10/10/10
f 7/7/7 11/11/11 5/5/5
f 5/5/5 11/11/11 9/9/9
f 7/7/7 12/12/12 11/11/11
f 13/13/13 12/12/12 7/7/7
f 11/11/11 14/14/14 9/9/9
f 9/9/9 14/14/14 15/15/15
f 12/12/12 16/16/16 11/11/11
f 11/11/11 16/16/16 14/14/14
f 12/12/12 17/17/17 16/16/16
f 18/18/18 17/17/17 12/12/12
f 17/17/17 19/19/19 16/16/16
f 16/16/16 20/20/20 14/14/14
f 16/16/16 19/19/19 20/20/20
f 14/14/14 20/20/20 21/21/21
f 19/19/19 22/22/22 20/20/20
f 20/20/20 22/22/22 23/23/23
