g mdlGolemClamp
v -0 0.79922414 0.81839156
v -0.45167592 -0.79922426 0.81839156
v -0.45167592 0.79922414 0.81839156
v -0 -0.79922426 0.81839156
v 0.45167592 -0.79922426 0.81839156
v 0.45167592 0.79922414 0.81839156
v -0.6199676 -0.79922426 -1.2059104
v -0.6199676 0.79922414 -1.2059104
v -0.6199676 0.79922414 0.72471035
v -0.6199676 -0.79922426 0.72471035
v -0.35944787 0.79922414 -1.2059104
v -0.17081839 0.79922414 -1.2059104
v -0.17081839 -0.79922426 -1.2059104
v -0.35944787 -0.79922426 -1.2059104
v -0.4516767 -0.79922426 -1.3702713
v -0.17081839 -0.79922426 -1.3702713
v -0.17081839 0.79922414 -1.3702713
v -0.4516767 0.79922414 -1.3702713
v -0.6199676 -0.79922426 -1.2059104
v -0.4516767 -0.79922426 -1.3702713
v -0.4516767 0.79922414 -1.3702713
v -0.6199676 0.79922414 -1.2059104
v -0.17081839 0.79922414 -1.2059104
v -0.17081839 0.79922414 -1.3702713
v -0.17081839 -0.79922426 -1.3702713
v -0.17081839 -0.79922426 -1.2059104
v -0.35944787 0.79922414 -1.2059104
v -0.35944787 -0.79922426 -1.2059104
v -0.35944787 -0.79922426 0.60590184
v -0.35944787 0.79922414 0.60590184
v -0.35944787 -0.79922426 -1.2059104
v -0.17081839 -0.79922426 -1.2059104
v -0.17081839 -0.79922426 -1.3702713
v -0.4516767 -0.79922426 -1.3702713
v -0.6199676 -0.79922426 -1.2059104
v -0.6199676 -0.79922426 0.72471035
v -0.35944787 -0.79922426 0.60590184
v -0.45167592 -0.79922426 0.81839156
v -0 -0.79922426 0.81839156
v -0 -0.79922426 0.60590184
v 0.35944787 -0.79922426 0.60590184
v 0.45167592 -0.79922426 0.81839156
v 0.6199676 -0.79922426 0.72471035
v 0.35944787 -0.79922426 -1.2059104
v 0.6199676 -0.79922426 -1.2059104
v 0.4516767 -0.79922426 -1.3702713
v 0.17081839 -0.79922426 -1.3702713
v 0.17081839 -0.79922426 -1.2059104
v -0 -0.79922426 0.60590184
v -0.35944787 0.79922414 0.60590184
v -0.35944787 -0.79922426 0.60590184
v -0 0.79922414 0.60590184
v 0.35944787 0.79922414 0.60590184
v 0.35944787 -0.79922426 0.60590184
v -0.4516767 0.79922414 -1.3702713
v -0.17081839 0.79922414 -1.3702713
v -0.17081839 0.79922414 -1.2059104
v -0.35944787 0.79922414 -1.2059104
v -0.6199676 0.79922414 -1.2059104
v -0.35944787 0.79922414 0.60590184
v -0.6199676 0.79922414 0.72471035
v -0.45167592 0.79922414 0.81839156
v -0 0.79922414 0.81839156
v -0 0.79922414 0.60590184
v 0.35944787 0.79922414 0.60590184
v 0.45167592 0.79922414 0.81839156
v 0.6199676 0.79922414 0.72471035
v 0.6199676 0.79922414 -1.2059104
v 0.35944787 0.79922414 -1.2059104
v 0.4516767 0.79922414 -1.3702713
v 0.17081839 0.79922414 -1.2059104
v 0.17081839 0.79922414 -1.3702713
v -0.45167592 -0.79922426 0.81839156
v -0.6199676 -0.79922426 0.72471035
v -0.6199676 0.79922414 0.72471035
v -0.45167592 0.79922414 0.81839156
v 0.6199676 -0.79922426 -1.2059104
v 0.6199676 -0.79922426 0.72471035
v 0.6199676 0.79922414 0.72471035
v 0.6199676 0.79922414 -1.2059104
v 0.35944787 0.79922414 -1.2059104
v 0.35944787 -0.79922426 -1.2059104
v 0.17081839 -0.79922426 -1.2059104
v 0.17081839 0.79922414 -1.2059104
v 0.4516767 -0.79922426 -1.3702713
v 0.4516767 0.79922414 -1.3702713
v 0.17081839 0.79922414 -1.3702713
v 0.17081839 -0.79922426 -1.3702713
v 0.6199676 -0.79922426 -1.2059104
v 0.6199676 0.79922414 -1.2059104
v 0.4516767 0.79922414 -1.3702713
v 0.4516767 -0.79922426 -1.3702713
v 0.17081839 0.79922414 -1.2059104
v 0.17081839 -0.79922426 -1.2059104
v 0.17081839 -0.79922426 -1.3702713
v 0.17081839 0.79922414 -1.3702713
v 0.35944787 0.79922414 -1.2059104
v 0.35944787 0.79922414 0.60590184
v 0.35944787 -0.79922426 0.60590184
v 0.35944787 -0.79922426 -1.2059104
v 0.45167592 -0.79922426 0.81839156
v 0.45167592 0.79922414 0.81839156
v 0.6199676 0.79922414 0.72471035
v 0.6199676 -0.79922426 0.72471035
vt 0.118337594 1
vt 0.032123033 0.7007145
vt 0.03212301 1
vt 0.11833762 0.7007145
vt 0.2045522 0.7007145
vt 0.20455217 1
vt 0.3051072 0
vt 0 4.46403E-08
vt 3.413148E-08 0.36147982
vt 0.30510724 0.3614798
vt 0.9326221 0.8978564
vt 0.96862715 0.8978564
vt 0.96862715 0.59857094
vt 0.93262213 0.59857094
vt 0.87901264 0.8978564
vt 0.9326221 0.8978564
vt 0.93262213 0.598571
vt 0.8790127 0.59857094
vt 0.8468898 0.8978564
vt 0.87901264 0.8978564
vt 0.8790127 0.59857094
vt 0.8468898 0.59857094
vt 0.9686273 0.598571
vt 1 0.59857094
vt 0.9999999 0.29928547
vt 0.96862715 0.2992855
vt 0.3051072 0.36147982
vt 0 0.36147985
vt 1.13771605E-08 0.7007145
vt 0.3051072 0.7007145
vt 0.79716253 0.78881454
vt 0.76115745 0.78881454
vt 0.76115745 0.81958866
vt 0.8147669 0.81958866
vt 0.8468898 0.78881454
vt 0.8468897 0.42733476
vt 0.7971625 0.44957986
vt 0.81476665 0.40979433
vt 0.7285521 0.40979433
vt 0.7285521 0.44957986
vt 0.65994173 0.44957986
vt 0.6423375 0.40979436
vt 0.6102145 0.4273348
vt 0.6599418 0.78881454
vt 0.61021453 0.78881454
vt 0.6423374 0.81958866
vt 0.6959468 0.81958866
vt 0.6959468 0.78881454
vt 0.91550016 0.29928547
vt 0.84688985 0
vt 0.8468898 0.29928544
vt 0.91550016 1.1160075E-08
vt 0.98411053 2.232015E-08
vt 0.98411053 0.29928547
vt 0.64233744 0.40979433
vt 0.6959469 0.40979433
vt 0.6959469 0.3790202
vt 0.6599418 0.3790202
vt 0.61021453 0.3790202
vt 0.65994173 0.039785553
vt 0.6102145 0.017540457
vt 0.6423375 4.46403E-08
vt 0.7285521 2.232015E-08
vt 0.7285521 0.039785553
vt 0.7971625 0.039785553
vt 0.81476665 0
vt 0.8468897 0.017540412
vt 0.8468898 0.3790202
vt 0.79716253 0.3790202
vt 0.81476694 0.40979433
vt 0.7611575 0.3790202
vt 0.7611575 0.40979433
vt 0.032123033 0.7007145
vt 0 0.7007145
vt 0 1
vt 0.03212301 1
vt 0.30510724 0
vt 0.30510724 0.3614798
vt 0.6102145 0.3614798
vt 0.6102144 0
vt 0.96862715 0.59857094
vt 0.96862715 0.2992855
vt 0.93262213 0.29928547
vt 0.9326221 0.59857094
vt 0.8790127 0.29928547
vt 0.8790127 0.59857094
vt 0.93262213 0.59857094
vt 0.93262213 0.29928547
vt 0.8468898 0.29928547
vt 0.84688985 0.59857094
vt 0.8790127 0.59857094
vt 0.8790127 0.29928547
vt 0.96862715 0.59857094
vt 0.9686272 0.8978565
vt 0.9999999 0.8978565
vt 0.9999999 0.59857094
vt 0.30510724 0.36147985
vt 0.30510727 0.7007145
vt 0.6102145 0.7007145
vt 0.6102144 0.36147982
vt 0.2045522 0.7007145
vt 0.20455217 1
vt 0.2366752 1
vt 0.2366752 0.7007146
vn -0 0 1
vn -0 0 1
vn -0 0 1
vn -0 0 1
vn -0 0 1
vn -0 0 1
vn -1 0 0
vn -1 0 0
vn -1 0 0
vn -1 0 0
vn -0 0 1
vn -0 0 1
vn -0 0 1
vn -0 0 1
vn -0 0 -1
vn -0 0 -1
vn -0 0 -1
vn -0 0 -1
vn -0.6987043 0 -0.7154106
vn -0.6987043 0 -0.7154106
vn -0.6987043 0 -0.7154106
vn -0.6987043 0 -0.7154106
vn 1 0 0
vn 1 0 0
vn 1 0 0
vn 1 0 0
vn 1 0 0
vn 1 0 0
vn 1 0 0
vn 1 0 0
vn -0 -1 0
vn -0 -1 0
vn -0 -1 0
vn -0 -1 0
vn -0 -1 0
vn -0 -1 0
vn -0 -1 0
vn -0 -1 0
vn -0 -1 0
vn -0 -1 0
vn -0 -1 0
vn -0 -1 0
vn -0 -1 0
vn -0 -1 0
vn -0 -1 0
vn -0 -1 0
vn -0 -1 0
vn -0 -1 0
vn -0 0 -1
vn -0 0 -1
vn -0 0 -1
vn -0 0 -1
vn -0 0 -1
vn -0 0 -1
vn -0 1 0
vn -0 1 0
vn -0 1 0
vn -0 1 0
vn -0 1 0
vn -0 1 0
vn -0 1 0
vn -0 1 0
vn -0 1 0
vn -0 1 0
vn -0 1 0
vn -0 1 0
vn -0 1 0
vn -0 1 0
vn -0 1 0
vn -0 1 0
vn -0 1 0
vn -0 1 0
vn -0.4863802 0 0.8737472
vn -0.4863802 0 0.8737472
vn -0.4863802 0 0.8737472
vn -0.4863802 0 0.8737472
vn 1 0 0
vn 1 0 0
vn 1 0 0
vn 1 0 0
vn -0 0 1
vn -0 0 1
vn -0 0 1
vn -0 0 1
vn -0 0 -1
vn -0 0 -1
vn -0 0 -1
vn -0 0 -1
vn 0.6987043 0 -0.7154106
vn 0.6987043 0 -0.7154106
vn 0.6987043 0 -0.7154106
vn 0.6987043 0 -0.7154106
vn -1 0 0
vn -1 0 0
vn -1 0 0
vn -1 0 0
vn -1 0 0
vn -1 0 0
vn -1 0 0
vn -1 0 0
vn 0.4863802 0 0.8737472
vn 0.4863802 0 0.8737472
vn 0.4863802 0 0.8737472
vn 0.4863802 0 0.8737472
g mdlGolemClamp_0
f 3/3/3 2/2/2 1/1/1
f 2/2/2 4/4/4 1/1/1
f 4/4/4 5/5/5 1/1/1
f 5/5/5 6/6/6 1/1/1
f 9/9/9 8/8/8 7/7/7
f 10/10/10 9/9/9 7/7/7
f 13/13/13 12/12/12 11/11/11
f 14/14/14 13/13/13 11/11/11
f 17/17/17 16/16/16 15/15/15
f 18/18/18 17/17/17 15/15/15
f 21/21/21 20/20/20 19/19/19
f 22/22/22 21/21/21 19/19/19
f 25/25/25 24/24/24 23/23/23
f 26/26/26 25/25/25 23/23/23
f 29/29/29 28/28/28 27/27/27
f 30/30/30 29/29/29 27/27/27
f 33/33/33 32/32/32 31/31/31
f 34/34/34 33/33/33 31/31/31
f 35/35/35 34/34/34 31/31/31
f 36/36/36 35/35/35 31/31/31
f 37/37/37 36/36/36 31/31/31
f 38/38/38 36/36/36 37/37/37
f 39/39/39 38/38/38 37/37/37
f 39/39/39 37/37/37 40/40/40
f 41/41/41 39/39/39 40/40/40
f 42/42/42 39/39/39 41/41/41
f 43/43/43 42/42/42 41/41/41
f 43/43/43 41/41/41 44/44/44
f 45/45/45 43/43/43 44/44/44
f 46/46/46 45/45/45 44/44/44
f 47/47/47 46/46/46 44/44/44
f 48/48/48 47/47/47 44/44/44
f 51/51/51 50/50/50 49/49/49
f 50/50/50 52/52/52 49/49/49
f 52/52/52 53/53/53 49/49/49
f 53/53/53 54/54/54 49/49/49
f 57/57/57 56/56/56 55/55/55
f 58/58/58 57/57/57 55/55/55
f 58/58/58 55/55/55 59/59/59
f 60/60/60 58/58/58 59/59/59
f 61/61/61 60/60/60 59/59/59
f 62/62/62 60/60/60 61/61/61
f 62/62/62 63/63/63 60/60/60
f 63/63/63 64/64/64 60/60/60
f 64/64/64 63/63/63 65/65/65
f 63/63/63 66/66/66 65/65/65
f 65/65/65 66/66/66 67/67/67
f 65/65/65 67/67/67 68/68/68
f 69/69/69 65/65/65 68/68/68
f 70/70/70 69/69/69 68/68/68
f 71/71/71 69/69/69 70/70/70
f 72/72/72 71/71/71 70/70/70
f 75/75/75 74/74/74 73/73/73
f 76/76/76 75/75/75 73/73/73
f 79/79/79 78/78/78 77/77/77
f 80/80/80 79/79/79 77/77/77
f 83/83/83 82/82/82 81/81/81
f 84/84/84 83/83/83 81/81/81
f 87/87/87 86/86/86 85/85/85
f 88/88/88 87/87/87 85/85/85
f 91/91/91 90/90/90 89/89/89
f 92/92/92 91/91/91 89/89/89
f 95/95/95 94/94/94 93/93/93
f 96/96/96 95/95/95 93/93/93
f 99/99/99 98/98/98 97/97/97
f 100/100/100 99/99/99 97/97/97
f 103/103/103 102/102/102 101/101/101
f 104/104/104 103/103/103 101/101/101
