g mdlGTSpiralSeaweed
v 2.1845422 -15.798359 5.4978585
v 0.2278015 -15.798359 5.9115806
v 2.4727235 -14.777094 5.3744125
v 4.122192 -14.777094 4.243372
v 4.341198 -13.755829 4.019039
v 5.4322777 -13.755829 2.3428693
v 5.548764 -12.734564 2.0518026
v 5.915347 -12.734564 0.08568549
v 5.9115806 -11.713299 -0.22780246
v 5.4978585 -11.713299 -2.1845431
v 5.3744125 -10.692034 -2.4727242
v 4.243372 -10.692034 -4.122193
v 4.0190387 -9.670769 -4.341198
v 2.3428686 -9.670769 -5.4322777
v 2.051803 -8.649504 -5.5487638
v 0.08568597 -8.649504 -5.9153476
v -0.22780198 -7.6282387 -5.9115806
v -2.1845427 -7.6282387 -5.4978585
v -2.4727275 -6.6069727 -5.3744106
v -4.1221952 -6.6069727 -4.243369
v -4.3412 -5.5857077 -4.019037
v -5.4322786 -5.5857077 -2.3428664
v -5.548764 -4.5644436 -2.0518022
v -5.915347 -4.5644436 -0.085685015
v -5.9115806 -3.5431786 0.22780222
v -5.4978585 -3.5431786 2.184543
v -5.374411 -2.5219126 2.4727278
v -4.2433686 -2.5219126 4.1221957
v -4.0190377 -1.5006485 4.3411994
v -2.02093 -1.4642534 5.43133
v -1.7298622 -0.4429874 5.547817
v -0.81623435 -0.41839564 5.5201507
v -0.96176827 -0.92902863 5.461907
v -0.6594918 0.092236884 5.518267
v -0.08568215 -0.47938251 5.0984497
v 0.22780287 0.5418825 5.0946827
v 0.27554965 0.5418825 4.6809607
vt 1.0042508 0.31504905
vt 1.0042506 0.19418788
vt 0.94175065 0.19418788
vt 0.94175076 0.31504908
vt 0.87925076 0.19418788
vt 0.87925076 0.31504908
vt 0.81675076 0.19418788
vt 0.81675076 0.31504908
vt 0.75425076 0.19418794
vt 0.75425076 0.31504908
vt 0.69175076 0.19418794
vt 0.69175076 0.31504908
vt 0.6292507 0.19418794
vt 0.62925076 0.31504908
vt 0.5667507 0.19418794
vt 0.56675076 0.3150491
vt 0.5042507 0.19418794
vt 0.50425076 0.3150491
vt 0.44175068 0.19418794
vt 0.44175074 0.3150491
vt 0.3792507 0.19418794
vt 0.3792507 0.3150491
vt 0.3167507 0.19418794
vt 0.3167507 0.3150491
vt 0.25425068 0.19418794
vt 0.2542507 0.3150491
vt 0.19175068 0.19418794
vt 0.1917507 0.3150491
vt 0.1292507 0.19418794
vt 0.1292507 0.3150491
vt 0.06675071 0.19418794
vt 0.06675071 0.25461853
vt 0.098000705 0.3150491
vt 0.035500713 0.19418797
vt 0.06675071 0.3150491
vt 0.0042507127 0.194188
vt 0.0042507127 0.3150491
vn 0.32560903 0.022370553 0.9452398
vn 0.20649438 0.05975702 0.9766213
vn 0.47435713 -0.011292038 0.8802601
vn 0.650154 0.011292163 0.7597185
vn 0.77512085 -0.01129202 0.6317122
vn 0.8913964 0.0112919975 0.45308378
vn 0.9578726 -0.011292069 0.28697115
vn 0.9969317 0.011292008 0.07745707
vn 0.99478006 -0.011292181 -0.101415984
vn 0.9506956 0.011292009 -0.30991983
vn 0.8802601 -0.011292038 -0.47435713
vn 0.7597185 0.011292163 -0.650154
vn 0.6317122 -0.01129202 -0.77512085
vn 0.45308378 0.0112919975 -0.8913964
vn 0.28697115 -0.011292069 -0.9578726
vn 0.07745707 0.011292008 -0.9969317
vn -0.10138578 -0.011292215 -0.9947831
vn -0.30991983 0.011292009 -0.9506956
vn -0.47438076 -0.011291873 -0.8802473
vn -0.650154 0.011292163 -0.7597185
vn -0.77512085 -0.01129202 -0.6317122
vn -0.8913964 0.0112919975 -0.45308378
vn -0.9578726 -0.011292069 -0.28697115
vn -0.9969317 0.011292008 -0.07745707
vn -0.99478006 -0.011292181 0.101415984
vn -0.9506956 0.011292009 0.30991983
vn -0.8802473 -0.011291873 0.47438076
vn -0.74373007 0.0038759783 0.6684689
vn -0.58697057 -0.029878031 0.80905676
vn -0.35188285 -0.02133271 0.9358009
vn -0.11282804 -0.06439468 0.9915256
vn 0.2593486 -0.12555426 0.9575878
vn 0.16260582 -0.1574481 0.97404796
vn 0.37465173 -0.111608125 0.9204237
vn 0.57522583 -0.19248459 0.7950251
vn 0.870152 -0.26554406 0.4151167
vn 0.9503257 -0.29130217 0.109654136
g mdlGTSpiralSeaweed_0
f 3/3/3 2/2/2 1/1/1
f 4/4/4 3/3/3 1/1/1
f 5/5/5 3/3/3 4/4/4
f 6/6/6 5/5/5 4/4/4
f 7/7/7 5/5/5 6/6/6
f 8/8/8 7/7/7 6/6/6
f 9/9/9 7/7/7 8/8/8
f 10/10/10 9/9/9 8/8/8
f 11/11/11 9/9/9 10/10/10
f 12/12/12 11/11/11 10/10/10
f 13/13/13 11/11/11 12/12/12
f 14/14/14 13/13/13 12/12/12
f 15/15/15 13/13/13 14/14/14
f 16/16/16 15/15/15 14/14/14
f 17/17/17 15/15/15 16/16/16
f 18/18/18 17/17/17 16/16/16
f 19/19/19 17/17/17 18/18/18
f 20/20/20 19/19/19 18/18/18
f 21/21/21 19/19/19 20/20/20
f 22/22/22 21/21/21 20/20/20
f 23/23/23 21/21/21 22/22/22
f 24/24/24 23/23/23 22/22/22
f 25/25/25 23/23/23 24/24/24
f 26/26/26 25/25/25 24/24/24
f 27/27/27 25/25/25 26/26/26
f 28/28/28 27/27/27 26/26/26
f 29/29/29 27/27/27 28/28/28
f 30/30/30 29/29/29 28/28/28
f 31/31/31 29/29/29 30/30/30
f 32/32/32 31/31/31 30/30/30
f 33/33/33 32/32/32 30/30/30
f 34/34/34 31/31/31 32/32/32
f 35/35/35 32/32/32 33/33/33
f 34/34/34 32/32/32 35/35/35
f 36/36/36 34/34/34 35/35/35
f 37/37/37 36/36/36 35/35/35
