g mdlGlassEye
v 0.73698264 -1.7250569 -0.2505799
v 0.6055263 -1.8522239 -8.875577E-08
v 0.7747281 -1.7250569 -8.304596E-08
v 0.73698264 -1.7250569 0.25057977
v 0.5760623 -1.8522239 -0.19560295
v 0.003522443 -1.9793907 -1.0137228E-07
v 0.6436701 -1.7250569 -0.44314113
v 0.50322235 -1.8522239 0.34591615
v 0.6436701 -1.7250569 0.4431409
v 0.35737145 -1.8522239 -0.51209515
v 0.4568258 -1.7250569 -0.6560268
v 0.2418382 -1.7250569 -0.77120566
v 0.35737157 -1.8522239 0.51209503
v 0.45718807 -1.7250569 0.65516984
v 0.18955195 -1.8522239 -0.6020039
v 0.0035224562 -1.7250569 -0.8028608
v 0.18955204 -1.8522239 0.6020037
v 0.24183826 -1.7250569 0.7712054
v 0.0035224566 -1.8522239 -0.62671393
v 0.0035223619 -1.8522239 0.62671375
v -0.18250701 -1.8522239 -0.6020039
v -0.23479325 -1.7250569 -0.77120566
v 0.0035223349 -1.7249442 0.8023045
v -0.4497809 -1.7250569 -0.6560268
v -0.18250714 -1.8522239 0.6020037
v -0.23479341 -1.7250569 0.7712054
v -0.35032657 -1.8522239 -0.51209515
v -0.6366252 -1.7250569 -0.44314107
v -0.35032672 -1.8522239 0.512095
v -0.44978103 -1.7250569 0.65602654
v -0.5690174 -1.8522239 -0.19560295
v -0.7299379 -1.7250569 -0.2505799
v -0.76768315 -1.7250569 -8.304596E-08
v -0.49617726 -1.8522239 0.34591615
v -0.6366252 -1.7250569 0.4431409
v -0.72993773 -1.7250569 0.25057977
v -0.5984813 -1.8522239 -8.875577E-08
v -0.6366252 -1.7250569 0.4431409
v -0.49617726 -1.5976646 0.34591615
v -0.72993773 -1.7250569 0.25057977
v -0.44978103 -1.7250569 0.65602654
v -0.5984813 -1.5976646 -8.8475645E-08
v 0.003522443 -1.4704978 -1.0151416E-07
v -0.76768315 -1.7250569 -8.304596E-08
v -0.35032672 -1.5976646 0.512095
v -0.23479341 -1.7250569 0.7712054
v -0.5690174 -1.5976646 -0.19560295
v -0.7299379 -1.7250569 -0.2505799
v -0.6366252 -1.7250569 -0.44314107
v -0.18250714 -1.5976646 0.6020037
v 0.0035223349 -1.7249442 0.8023045
v -0.35032657 -1.5976646 -0.51209515
v -0.4497809 -1.7250569 -0.6560268
v 0.0035223619 -1.5976646 0.62671375
v 0.24183826 -1.7250569 0.7712054
v -0.18250701 -1.5976646 -0.6020039
v 0.18955204 -1.5976646 0.6020037
v 0.0035224566 -1.5976646 -0.62671393
v -0.23479325 -1.7250569 -0.77120566
v 0.45718807 -1.7250569 0.65516984
v 0.0035224562 -1.7250569 -0.8028608
v 0.35737157 -1.5976646 0.51209503
v 0.6436701 -1.7250569 0.4431409
v 0.18955195 -1.5976646 -0.6020039
v 0.2418382 -1.7250569 -0.77120566
v 0.50322235 -1.5976646 0.34591615
v 0.73698264 -1.7250569 0.25057977
v 0.35737145 -1.5976646 -0.51209515
v 0.4568258 -1.7250569 -0.6560268
v 0.6436701 -1.7250569 -0.44314113
v 0.6055263 -1.5976646 -8.8475645E-08
v 0.7747281 -1.7250569 -8.304596E-08
v 0.73698264 -1.7250569 -0.2505799
v 0.5760623 -1.5976646 -0.19560295
vt 0 0
vt 0 0
vt 0 0
vt 0 0
vt 0 0
vt 0 0
vt 0 0
vt 0 0
vt 0 0
vt 0 0
vt 0 0
vt 0 0
vt 0 0
vt 0 0
vt 0 0
vt 0 0
vt 0 0
vt 0 0
vt 0 0
vt 0 0
vt 0 0
vt 0 0
vt 0 0
vt 0 0
vt 0 0
vt 0 0
vt 0 0
vt 0 0
vt 0 0
vt 0 0
vt 0 0
vt 0 0
vt 0 0
vt 0 0
vt 0 0
vt 0 0
vt 0 0
vt 0 0
vt 0 0
vt 0 0
vt 0 0
vt 0 0
vt 0 0
vt 0 0
vt 0 0
vt 0 0
vt 0 0
vt 0 0
vt 0 0
vt 0 0
vt 0 0
vt 0 0
vt 0 0
vt 0 0
vt 0 0
vt 0 0
vt 0 0
vt 0 0
vt 0 0
vt 0 0
vt 0 0
vt 0 0
vt 0 0
vt 0 0
vt 0 0
vt 0 0
vt 0 0
vt 0 0
vt 0 0
vt 0 0
vt 0 0
vt 0 0
vt 0 0
vt 0 0
vn 0.57184196 -0.8007374 -0.17837182
vn 0.4268784 -0.90416074 0.016374474
vn 0.6008032 -0.799397 0
vn 0.54792655 -0.819158 0.16957806
vn 0.40076923 -0.9047853 -0.14404024
vn -0 -0.9999999 -0.00049451157
vn 0.47597733 -0.81998557 -0.31791413
vn 0.3638878 -0.9061014 0.21579137
vn 0.49726817 -0.80196834 0.3310152
vn 0.27338573 -0.90692055 -0.32055476
vn 0.36360267 -0.8083655 -0.4629667
vn 0.17846525 -0.8122608 -0.555322
vn 0.26513305 -0.9055817 0.3310987
vn 0.3643084 -0.8079469 0.46314284
vn 0.12900615 -0.90783185 -0.39899707
vn -0 -0.8107889 -0.58533865
vn 0.12907116 -0.9076584 0.39937055
vn 0.17854226 -0.811812 0.5559533
vn -0 -0.9094605 -0.4157903
vn -0 -0.90921956 0.41631687
vn -0.12900615 -0.9078318 -0.3989974
vn -0.17846526 -0.8122608 -0.555322
vn -0 -0.8101571 0.5862128
vn -0.3636027 -0.80836546 -0.46296686
vn -0.128774 -0.9077386 0.39928403
vn -0.17809649 -0.8120164 0.5557975
vn -0.27338573 -0.9069205 -0.3205551
vn -0.47597718 -0.81998557 -0.31791428
vn -0.26494893 -0.90573794 0.3308184
vn -0.36360294 -0.8083657 0.4629663
vn -0.40076917 -0.90478534 -0.14403981
vn -0.5718414 -0.8007377 -0.17837203
vn -0.6008029 -0.7993972 0
vn -0.3638745 -0.9061393 0.21565494
vn -0.49724343 -0.802077 0.3307893
vn -0.54792637 -0.81915814 0.16957799
vn -0.42687827 -0.90416086 0.016374849
vn 0.49780974 -0.80157006 -0.33116585
vn 0.3642326 -0.9059456 -0.21586344
vn 0.54858583 -0.8186741 -0.16978322
vn 0.36402482 -0.8078693 -0.46350092
vn 0.42729315 -0.9039645 -0.016393336
vn -0 -0.9999999 0.00049463287
vn 0.60148245 -0.79888606 0
vn 0.26520798 -0.90554357 -0.33114287
vn 0.17851035 -0.81163305 -0.5562247
vn 0.40115997 -0.9045892 0.1441842
vn 0.57249063 -0.80022866 0.17857352
vn 0.47655186 -0.81950337 0.31829634
vn 0.12900296 -0.9075877 -0.39955336
vn -0 -0.80994076 -0.58651173
vn 0.273658 -0.90672636 0.32087165
vn 0.36402467 -0.80786914 0.4635013
vn -0 -0.9091384 -0.4164942
vn -0.17895685 -0.81142896 -0.5563789
vn 0.12913367 -0.90764016 0.39939177
vn -0.12930042 -0.9075073 -0.39963967
vn -0 -0.90927416 0.41619772
vn 0.17867409 -0.81177133 0.55597025
vn -0.3647306 -0.80744994 -0.46367675
vn -0 -0.81029683 0.5860195
vn -0.26539224 -0.905387 -0.33142316
vn -0.4978345 -0.80146134 -0.33139193
vn -0.12913369 -0.90764004 0.39939195
vn -0.17867412 -0.8117713 0.5559703
vn -0.36424595 -0.90590787 -0.21599948
vn -0.548586 -0.8186739 -0.16978312
vn -0.27365798 -0.90672636 0.32087162
vn -0.3640248 -0.8078694 0.46350092
vn -0.47655195 -0.8195031 0.31829664
vn -0.42729327 -0.9039644 -0.01639316
vn -0.60148275 -0.79888576 0
vn -0.5724911 -0.80022824 0.17857398
vn -0.40116006 -0.90458906 0.14418446
g mdlGlassEye_0
f 3/3/3 2/2/2 1/1/1
f 4/4/4 2/2/2 3/3/3
f 2/2/2 5/5/5 1/1/1
f 2/2/2 6/6/6 5/5/5
f 1/1/1 5/5/5 7/7/7
f 8/8/8 2/2/2 4/4/4
f 8/8/8 6/6/6 2/2/2
f 9/9/9 8/8/8 4/4/4
f 5/5/5 10/10/10 7/7/7
f 5/5/5 6/6/6 10/10/10
f 7/7/7 10/10/10 11/11/11
f 11/11/11 10/10/10 12/12/12
f 13/13/13 8/8/8 9/9/9
f 13/13/13 6/6/6 8/8/8
f 14/14/14 13/13/13 9/9/9
f 10/10/10 15/15/15 12/12/12
f 10/10/10 6/6/6 15/15/15
f 12/12/12 15/15/15 16/16/16
f 17/17/17 13/13/13 14/14/14
f 17/17/17 6/6/6 13/13/13
f 18/18/18 17/17/17 14/14/14
f 15/15/15 19/19/19 16/16/16
f 15/15/15 6/6/6 19/19/19
f 20/20/20 6/6/6 17/17/17
f 20/20/20 17/17/17 18/18/18
f 19/19/19 6/6/6 21/21/21
f 16/16/16 19/19/19 22/22/22
f 19/19/19 21/21/21 22/22/22
f 23/23/23 20/20/20 18/18/18
f 22/22/22 21/21/21 24/24/24
f 25/25/25 20/20/20 23/23/23
f 25/25/25 6/6/6 20/20/20
f 26/26/26 25/25/25 23/23/23
f 21/21/21 27/27/27 24/24/24
f 21/21/21 6/6/6 27/27/27
f 24/24/24 27/27/27 28/28/28
f 29/29/29 25/25/25 26/26/26
f 29/29/29 6/6/6 25/25/25
f 30/30/30 29/29/29 26/26/26
f 28/28/28 27/27/27 31/31/31
f 27/27/27 6/6/6 31/31/31
f 28/28/28 31/31/31 32/32/32
f 32/32/32 31/31/31 33/33/33
f 34/34/34 29/29/29 30/30/30
f 34/34/34 6/6/6 29/29/29
f 35/35/35 34/34/34 30/30/30
f 36/36/36 34/34/34 35/35/35
f 31/31/31 37/37/37 33/33/33
f 31/31/31 6/6/6 37/37/37
f 37/37/37 6/6/6 34/34/34
f 33/33/33 37/37/37 36/36/36
f 36/36/36 37/37/37 34/34/34
f 40/40/40 39/39/39 38/38/38
f 38/38/38 39/39/39 41/41/41
f 40/40/40 42/42/42 39/39/39
f 42/42/42 43/43/43 39/39/39
f 44/44/44 42/42/42 40/40/40
f 39/39/39 45/45/45 41/41/41
f 39/39/39 43/43/43 45/45/45
f 41/41/41 45/45/45 46/46/46
f 47/47/47 42/42/42 44/44/44
f 47/47/47 43/43/43 42/42/42
f 48/48/48 47/47/47 44/44/44
f 49/49/49 47/47/47 48/48/48
f 45/45/45 50/50/50 46/46/46
f 45/45/45 43/43/43 50/50/50
f 46/46/46 50/50/50 51/51/51
f 49/49/49 52/52/52 47/47/47
f 52/52/52 43/43/43 47/47/47
f 53/53/53 52/52/52 49/49/49
f 50/50/50 54/54/54 51/51/51
f 50/50/50 43/43/43 54/54/54
f 51/51/51 54/54/54 55/55/55
f 56/56/56 43/43/43 52/52/52
f 56/56/56 52/52/52 53/53/53
f 54/54/54 43/43/43 57/57/57
f 54/54/54 57/57/57 55/55/55
f 58/58/58 43/43/43 56/56/56
f 59/59/59 56/56/56 53/53/53
f 58/58/58 56/56/56 59/59/59
f 55/55/55 57/57/57 60/60/60
f 61/61/61 58/58/58 59/59/59
f 57/57/57 62/62/62 60/60/60
f 57/57/57 43/43/43 62/62/62
f 60/60/60 62/62/62 63/63/63
f 64/64/64 58/58/58 61/61/61
f 64/64/64 43/43/43 58/58/58
f 65/65/65 64/64/64 61/61/61
f 62/62/62 66/66/66 63/63/63
f 62/62/62 43/43/43 66/66/66
f 63/63/63 66/66/66 67/67/67
f 68/68/68 64/64/64 65/65/65
f 68/68/68 43/43/43 64/64/64
f 69/69/69 68/68/68 65/65/65
f 70/70/70 68/68/68 69/69/69
f 66/66/66 71/71/71 67/67/67
f 66/66/66 43/43/43 71/71/71
f 67/67/67 71/71/71 72/72/72
f 72/72/72 71/71/71 73/73/73
f 74/74/74 43/43/43 68/68/68
f 74/74/74 68/68/68 70/70/70
f 73/73/73 74/74/74 70/70/70
f 71/71/71 43/43/43 74/74/74
f 71/71/71 74/74/74 73/73/73
