g mdlGravityFieldCollision.002
v 204.54419 -59.61284 146.90572
v 203.959 -67.71592 146.90341
v 188.71738 -66.52418 146.23265
v 189.39058 -58.428463 146.23967
v 205.19484 -53.068047 142.13518
v 176.92267 -65.457985 145.7
v 190.13458 -51.889927 141.4737
v 205.6624 -50.582443 134.41313
v 177.74193 -57.376278 145.71492
v 165.06236 -64.125565 145.05333
v 190.66513 -49.40807 133.75345
v 205.76819 -53.106564 126.6898
v 178.64078 -50.851048 140.95692
v 166.08437 -56.06754 145.08063
v 153.1391 -62.43724 144.25438
v 190.77934 -51.933144 126.02915
v 205.47177 -59.675987 121.91654
v 179.27577 -48.377693 133.2408
v 167.19824 -49.565903 140.33537
v 154.41823 -54.4166 144.30023
v 141.1572 -60.30243 143.26457
v 190.43356 -58.50007 121.25383
v 204.88644 -67.780106 121.91669
v 179.40396 -50.904358 125.51585
v 167.97826 -47.10799 132.62657
v 155.80482 -47.953136 139.57425
v 142.74405 -52.337643 143.33713
v 129.1232 -57.630295 142.04518
v 189.76004 -66.59785 121.25171
v 204.23584 -74.32288 126.68898
v 178.97627 -57.46504 120.73666
v 168.12582 -49.63716 124.901436
v 156.76886 -45.520523 131.87726
v 144.4571 -45.932026 138.6391
v 131.06276 -49.744843 142.15466
v 117.04751 -54.3306 140.55795
v 189.01617 -73.13237 126.021164
v 203.76848 -76.806206 134.40967
v 178.15642 -65.54982 120.72904
v 167.58443 -56.186153 120.11587
v 156.94102 -48.0535 124.15258
v 145.64142 -43.538006 130.95985
v 133.15005 -43.422123 137.49553
v 119.37364 -46.551674 140.71596
v 104.947845 -50.32777 138.7658
v 107.66954 -42.680027 138.9826
v 92.89433 -45.61811 136.64085
v 95.95663 -38.102577 136.91759
v 121.8721 -40.341232 136.10828
v 110.59379 -36.610565 134.43849
v 99.254944 -32.17828 132.43898
v 134.58691 -41.08362 129.84145
v 145.84303 -46.076538 123.23646
v 123.587364 -38.078354 128.48827
v 112.60229 -34.444427 126.86229
v 101.52779 -30.115065 124.90952
v 134.8223 -43.629944 122.120415
v 156.25534 -54.58306 119.35714
v 123.86128 -40.63537 120.77118
v 112.92427 -37.017048 119.15215
v 101.903496 -32.708054 117.20949
v 144.98463 -52.57623 118.42655
v 166.56143 -64.24823 120.09823
v 133.76584 -50.086445 117.29025
v 122.58864 -47.033367 115.91416
v 111.43593 -43.343796 114.26275
v 100.2377 -38.96523 112.28853
v 154.97466 -62.608665 119.32321
v 177.25787 -72.06906 125.492256
v 143.39546 -60.546795 118.36804
v 131.82304 -57.978344 117.1967
v 120.25816 -54.81925 115.77338
v 108.70888 -50.998848 114.063034
v 97.1695 -46.488476 112.0284
v 165.44807 -70.74194 124.85041
v 188.48607 -75.60968 133.73866
v 203.66273 -74.28269 142.13039
v 105.787415 -57.054695 118.62061
v 93.873886 -52.399754 116.52088
v 117.762184 -61.01573 120.39385
v 176.62366 -74.53563 133.2043
v 188.37195 -73.08581 141.45778
v 203.959 -67.71592 146.90341
v 188.71738 -66.52418 146.23265
v 176.49565 -72.01077 140.9215
v 176.92267 -65.457985 145.7
v 103.785995 -59.205093 126.18806
v 91.60863 -54.447224 124.04233
v 164.66939 -73.19091 132.5538
v 164.52211 -70.66414 140.26869
v 165.06236 -64.125565 145.05333
v 153.5889 -69.06236 124.05776
v 152.62697 -71.48398 131.74811
v 152.45525 -68.95397 139.46013
v 153.1391 -62.43724 144.25438
v 141.68369 -66.94093 123.07619
v 140.5025 -69.32208 130.74767
v 140.30151 -66.78707 138.45612
v 141.1572 -60.30243 143.26457
v 129.7376 -64.28808 121.86743
v 128.30513 -66.61211 129.51271
v 128.0706 -64.06982 137.21675
v 129.1232 -57.630295 142.04518
v 116.05278 -63.263035 128.00452
v 115.78002 -60.710358 135.70305
v 117.04751 -54.3306 140.55795
v 103.4656 -56.63638 133.87929
v 104.947845 -50.32777 138.7658
v 91.23489 -51.857517 131.72354
v 92.89433 -45.61811 136.64085
vt 0.88793355 6.7580295
vt 0.998171 6.7599583
vt 0.998171 6.579278
vt 0.89145523 6.5771728
vt 0.7900949 6.7563624
vt 0.998171 6.397157
vt 0.7928775 6.5753446
vt 0.69183296 6.7551646
vt 0.89528865 6.394879
vt 0.998171 6.2132044
vt 0.6935491 6.5739875
vt 0.59332 6.754572
vt 0.7959058 6.3928976
vt 0.89939374 6.2107925
vt 0.998171 6.026932
vt 0.593823 6.57327
vt 0.49487072 6.7546544
vt 0.69544977 6.391403
vt 0.7991418 6.2086954
vt 0.90367955 6.0244617
vt 0.998171 5.837723
vt 0.49424872 6.5733414
vt 0.39672285 6.755254
vt 0.59444785 6.3905683
vt 0.6975075 6.2070875
vt 0.8025095 6.0223136
vt 0.9079891 5.835314
vt 0.998171 5.644808
vt 0.39526182 6.573947
vt 0.2989527 6.7561812
vt 0.49369025 6.390622
vt 0.5951867 6.2061524
vt 0.699674 6.0206394
vt 0.80588275 5.8332186
vt 0.91206354 5.642659
vt 0.998171 5.447283
vt 0.29702944 6.574875
vt 0.20148784 6.757236
vt 0.39381424 6.391221
vt 0.4932054 6.2061844
vt 0.5960248 6.0196247
vt 0.7018715 5.831559
vt 0.80905443 5.640794
vt 0.9154617 5.4456873
vt 0.998171 5.2442255
vt 0.9175454 5.243579
vt 0.998171 5.036031
vt 0.9178794 5.0362763
vt 0.81166536 5.444308
vt 0.81302315 5.24299
vt 0.8137847 5.036446
vt 0.703984 5.6392736
vt 0.59694207 5.8305035
vt 0.7058403 5.4431124
vt 0.70698684 5.2422743
vt 0.70761317 5.036169
vt 0.59792924 5.638221
vt 0.49280927 6.0196376
vt 0.5990915 5.4421954
vt 0.5998736 5.2415934
vt 0.6003557 5.0357504
vt 0.49253088 5.8304873
vt 0.3923977 6.206769
vt 0.49242166 5.6381474
vt 0.4925891 5.4418902
vt 0.49338192 5.2410665
vt 0.4935754 5.0352783
vt 0.39104795 6.0201826
vt 0.29506814 6.392147
vt 0.38983116 5.83096
vt 0.38885218 5.638475
vt 0.38827688 5.442006
vt 0.38833794 5.2409105
vt 0.3886168 5.0348754
vt 0.29308307 6.2076764
vt 0.19942832 6.5759306
vt 0.104148544 6.7582846
vt 0.28578117 5.240914
vt 0.2861667 5.0346327
vt 0.28651732 5.4422803
vt 0.19726405 6.3932104
vt 0.10210816 6.577004
vt 0.0049209646 6.759348
vt 0.0049209646 6.578189
vt 0.09987859 6.3943195
vt 0.0049209646 6.3956356
vt 0.18589312 5.240906
vt 0.18589428 5.0343776
vt 0.19500417 6.208728
vt 0.097465254 6.209857
vt 0.0049209646 6.2112846
vt 0.29112202 6.021042
vt 0.19269982 6.022044
vt 0.094918676 6.0231524
vt 0.0049209646 6.0246477
vt 0.28927314 5.8317094
vt 0.19045052 5.8325987
vt 0.09234101 5.833616
vt 0.0049209646 5.8351083
vt 0.28767633 5.6390333
vt 0.18842688 5.6397076
vt 0.08992232 5.6405215
vt 0.0049209646 5.6418834
vt 0.18689677 5.4426355
vt 0.08811853 5.4430904
vt 0.0049209646 5.4439178
vt 0.08681483 5.2409544
vt 0.0049209646 5.2411737
vt 0.0866218 5.03409
vt 0.0049209646 5.0339155
vn -0.017609619 0.3093128 0.9507973
vn -0.06570775 -0.3060156 0.94975626
vn -0.06811911 -0.30623084 0.94951695
vn -0.016236331 0.30946696 0.9507716
vn 0.037263375 0.8072205 0.58907264
vn -0.07828183 -0.30598578 0.9488123
vn 0.041872457 0.8073876 0.5885338
vn 0.07797522 0.9969537 0.0017395648
vn -0.01605326 0.308247 0.95117086
vn -0.096196055 -0.30458015 0.9476166
vn 0.084017806 0.99646395 0.00082400313
vn 0.088840954 0.8049399 -0.58666766
vn 0.05231009 0.8056181 0.5901213
vn -0.018647028 0.3076912 0.95130354
vn -0.1189636 -0.30192584 0.9458797
vn 0.09400082 0.8039206 -0.58726096
vn 0.065646335 0.30433536 -0.9503002
vn 0.10074222 0.99490947 0.0024720144
vn 0.066134706 0.8035962 0.5914891
vn -0.021943431 0.3073301 0.9513499
vn -0.14621891 -0.29762614 0.9434187
vn 0.06796652 0.30369776 -0.95034117
vn 0.017304348 -0.31260744 -0.94972473
vn 0.11053976 0.8024051 -0.5864528
vn 0.1256787 0.9920622 0.004181152
vn 0.08365228 0.8006326 0.5932873
vn -0.025910722 0.30723587 0.9512806
vn -0.17746726 -0.29115006 0.9400729
vn 0.01593071 -0.31226635 -0.949861
vn -0.037569858 -0.80947626 -0.58594936
vn 0.077884376 0.30201554 -0.95011604
vn 0.13697131 0.79927397 -0.5851495
vn 0.15732394 0.9875244 0.0066835973
vn 0.1045595 0.7964345 0.59561676
vn -0.030488871 0.3075439 0.9510452
vn -0.21192545 -0.28208914 0.9356887
vn -0.042085715 -0.80860114 -0.58685
vn -0.07806869 -0.99694747 0.001007141
vn 0.015442451 -0.31348786 -0.94946665
vn 0.09558508 0.29932895 -0.9493502
vn 0.17048062 0.7943555 -0.58304006
vn 0.19516687 0.98071736 0.010162716
vn 0.12854716 0.79066277 0.598605
vn -0.03570733 0.3084259 0.950578
vn -0.24808893 -0.27003208 0.9303411
vn -0.0419639 0.3104413 0.9496659
vn -0.2660652 -0.26246396 0.9275354
vn -0.044985108 0.31282046 0.9487464
vn 0.15473185 0.78318125 0.60223347
vn 0.18091686 0.7743901 0.60629123
vn 0.19398122 0.77027875 0.60748833
vn 0.23857161 0.97101116 0.014863039
vn 0.2106113 0.7870228 -0.5798602
vn 0.28618097 0.9579448 0.021027908
vn 0.33491537 0.941816 0.028535254
vn 0.35899717 0.9327884 0.03204514
vn 0.2566367 0.7766244 -0.5753192
vn 0.11801901 0.29549006 -0.948028
vn 0.30720705 0.76270723 -0.56912345
vn 0.3597004 0.7454643 -0.56115824
vn 0.3858197 0.73596287 -0.5563287
vn 0.14487569 0.2900566 -0.94597995
vn 0.017609712 -0.31459433 -0.9490628
vn 0.17563896 0.2826093 -0.94301796
vn 0.2095411 0.27292833 -0.938937
vn 0.24540682 0.2611243 -0.93358964
vn 0.2638687 0.25550646 -0.93010205
vn 0.020356411 -0.31581432 -0.9486027
vn -0.05282857 -0.80839 -0.58627194
vn 0.023621641 -0.3171831 -0.9480701
vn 0.027314935 -0.31874543 -0.9474467
vn 0.03155694 -0.3204525 -0.94673884
vn 0.037049796 -0.3223393 -0.9458989
vn 0.040742595 -0.32233953 -0.94574696
vn -0.06695898 -0.80723107 -0.5864252
vn -0.08408098 -0.9964588 -0.00036623297
vn -0.08877953 -0.8045702 0.58718395
vn -0.18467106 -0.7807091 -0.59698415
vn -0.19724661 -0.77543586 -0.59982747
vn -0.1578764 -0.7894431 -0.5931734
vn -0.100926824 -0.9948938 -0.00027467238
vn -0.09399912 -0.8047301 0.58615166
vn -0.06570775 -0.3060156 0.94975626
vn -0.06811911 -0.30623084 0.94951695
vn -0.11063043 -0.80313116 0.585441
vn -0.07828183 -0.30598578 0.9488123
vn -0.33570758 -0.94169027 -0.022797598
vn -0.3596388 -0.9326988 -0.027070574
vn -0.12595382 -0.9920352 -0.001312337
vn -0.13712491 -0.800226 0.5838109
vn -0.096196055 -0.30458015 0.9476166
vn -0.084874064 -0.80509806 -0.587038
vn -0.15769333 -0.98748314 -0.00314349
vn -0.17069447 -0.79551613 0.58139277
vn -0.1189636 -0.30192584 0.9458797
vn -0.10635949 -0.8016484 -0.58825797
vn -0.19569002 -0.9806475 -0.0059817913
vn -0.21085864 -0.7884081 0.57788515
vn -0.14621891 -0.29762614 0.9434187
vn -0.1309892 -0.7965255 -0.59024495
vn -0.23921129 -0.9709146 -0.010132451
vn -0.25690946 -0.7782055 0.5730564
vn -0.17746726 -0.29115006 0.9400729
vn -0.2869145 -0.95782626 -0.01577862
vn -0.30748454 -0.7643623 0.5667482
vn -0.21192545 -0.28208914 0.9356887
vn -0.3597989 -0.74694365 0.5591243
vn -0.24808893 -0.27003208 0.9303411
vn -0.3857695 -0.73699063 0.55500144
vn -0.2660652 -0.26246396 0.9275354
g mdlGravityFieldCollision.002_0
f 3/3/3 2/2/2 1/1/1
f 4/4/4 3/3/3 1/1/1
f 4/4/4 1/1/1 5/5/5
f 6/6/6 3/3/3 4/4/4
f 7/7/7 4/4/4 5/5/5
f 7/7/7 5/5/5 8/8/8
f 9/9/9 6/6/6 4/4/4
f 9/9/9 4/4/4 7/7/7
f 10/10/10 6/6/6 9/9/9
f 11/11/11 7/7/7 8/8/8
f 11/11/11 8/8/8 12/12/12
f 13/13/13 9/9/9 7/7/7
f 13/13/13 7/7/7 11/11/11
f 14/14/14 10/10/10 9/9/9
f 14/14/14 9/9/9 13/13/13
f 15/15/15 10/10/10 14/14/14
f 16/16/16 11/11/11 12/12/12
f 16/16/16 12/12/12 17/17/17
f 18/18/18 13/13/13 11/11/11
f 18/18/18 11/11/11 16/16/16
f 19/19/19 14/14/14 13/13/13
f 19/19/19 13/13/13 18/18/18
f 20/20/20 15/15/15 14/14/14
f 20/20/20 14/14/14 19/19/19
f 21/21/21 15/15/15 20/20/20
f 22/22/22 16/16/16 17/17/17
f 22/22/22 17/17/17 23/23/23
f 24/24/24 18/18/18 16/16/16
f 24/24/24 16/16/16 22/22/22
f 25/25/25 19/19/19 18/18/18
f 25/25/25 18/18/18 24/24/24
f 26/26/26 20/20/20 19/19/19
f 26/26/26 19/19/19 25/25/25
f 27/27/27 21/21/21 20/20/20
f 27/27/27 20/20/20 26/26/26
f 28/28/28 21/21/21 27/27/27
f 29/29/29 22/22/22 23/23/23
f 29/29/29 23/23/23 30/30/30
f 31/31/31 24/24/24 22/22/22
f 31/31/31 22/22/22 29/29/29
f 32/32/32 25/25/25 24/24/24
f 32/32/32 24/24/24 31/31/31
f 33/33/33 26/26/26 25/25/25
f 33/33/33 25/25/25 32/32/32
f 34/34/34 27/27/27 26/26/26
f 34/34/34 26/26/26 33/33/33
f 35/35/35 28/28/28 27/27/27
f 35/35/35 27/27/27 34/34/34
f 36/36/36 28/28/28 35/35/35
f 37/37/37 29/29/29 30/30/30
f 37/37/37 30/30/30 38/38/38
f 39/39/39 31/31/31 29/29/29
f 39/39/39 29/29/29 37/37/37
f 40/40/40 32/32/32 31/31/31
f 40/40/40 31/31/31 39/39/39
f 41/41/41 33/33/33 32/32/32
f 41/41/41 32/32/32 40/40/40
f 42/42/42 34/34/34 33/33/33
f 42/42/42 33/33/33 41/41/41
f 43/43/43 35/35/35 34/34/34
f 43/43/43 34/34/34 42/42/42
f 44/44/44 36/36/36 35/35/35
f 44/44/44 35/35/35 43/43/43
f 45/45/45 36/36/36 44/44/44
f 46/46/46 45/45/45 44/44/44
f 47/47/47 45/45/45 46/46/46
f 48/48/48 47/47/47 46/46/46
f 49/49/49 44/44/44 43/43/43
f 46/46/46 44/44/44 49/49/49
f 48/48/48 46/46/46 50/50/50
f 50/50/50 46/46/46 49/49/49
f 51/51/51 48/48/48 50/50/50
f 52/52/52 43/43/43 42/42/42
f 49/49/49 43/43/43 52/52/52
f 53/53/53 42/42/42 41/41/41
f 52/52/52 42/42/42 53/53/53
f 50/50/50 49/49/49 54/54/54
f 54/54/54 49/49/49 52/52/52
f 51/51/51 50/50/50 55/55/55
f 55/55/55 50/50/50 54/54/54
f 56/56/56 51/51/51 55/55/55
f 54/54/54 52/52/52 57/57/57
f 57/57/57 52/52/52 53/53/53
f 53/53/53 41/41/41 58/58/58
f 58/58/58 41/41/41 40/40/40
f 55/55/55 54/54/54 59/59/59
f 59/59/59 54/54/54 57/57/57
f 56/56/56 55/55/55 60/60/60
f 60/60/60 55/55/55 59/59/59
f 61/61/61 56/56/56 60/60/60
f 57/57/57 53/53/53 62/62/62
f 62/62/62 53/53/53 58/58/58
f 58/58/58 40/40/40 63/63/63
f 63/63/63 40/40/40 39/39/39
f 59/59/59 57/57/57 64/64/64
f 64/64/64 57/57/57 62/62/62
f 60/60/60 59/59/59 65/65/65
f 65/65/65 59/59/59 64/64/64
f 61/61/61 60/60/60 66/66/66
f 66/66/66 60/60/60 65/65/65
f 67/67/67 61/61/61 66/66/66
f 62/62/62 58/58/58 68/68/68
f 68/68/68 58/58/58 63/63/63
f 63/63/63 39/39/39 69/69/69
f 69/69/69 39/39/39 37/37/37
f 64/64/64 62/62/62 70/70/70
f 70/70/70 62/62/62 68/68/68
f 65/65/65 64/64/64 71/71/71
f 71/71/71 64/64/64 70/70/70
f 66/66/66 65/65/65 72/72/72
f 72/72/72 65/65/65 71/71/71
f 67/67/67 66/66/66 73/73/73
f 73/73/73 66/66/66 72/72/72
f 74/74/74 67/67/67 73/73/73
f 68/68/68 63/63/63 75/75/75
f 75/75/75 63/63/63 69/69/69
f 69/69/69 37/37/37 76/76/76
f 76/76/76 37/37/37 38/38/38
f 76/76/76 38/38/38 77/77/77
f 74/74/74 73/73/73 78/78/78
f 79/79/79 74/74/74 78/78/78
f 73/73/73 72/72/72 80/80/80
f 78/78/78 73/73/73 80/80/80
f 81/81/81 69/69/69 76/76/76
f 75/75/75 69/69/69 81/81/81
f 82/82/82 76/76/76 77/77/77
f 81/81/81 76/76/76 82/82/82
f 82/82/82 77/77/77 83/83/83
f 84/84/84 82/82/82 83/83/83
f 85/85/85 82/82/82 84/84/84
f 85/85/85 81/81/81 82/82/82
f 86/86/86 85/85/85 84/84/84
f 79/79/79 78/78/78 87/87/87
f 88/88/88 79/79/79 87/87/87
f 89/89/89 75/75/75 81/81/81
f 89/89/89 81/81/81 85/85/85
f 90/90/90 85/85/85 86/86/86
f 90/90/90 89/89/89 85/85/85
f 91/91/91 90/90/90 86/86/86
f 92/92/92 75/75/75 89/89/89
f 92/92/92 68/68/68 75/75/75
f 70/70/70 68/68/68 92/92/92
f 93/93/93 89/89/89 90/90/90
f 93/93/93 92/92/92 89/89/89
f 94/94/94 90/90/90 91/91/91
f 94/94/94 93/93/93 90/90/90
f 95/95/95 94/94/94 91/91/91
f 96/96/96 70/70/70 92/92/92
f 96/96/96 92/92/92 93/93/93
f 71/71/71 70/70/70 96/96/96
f 97/97/97 93/93/93 94/94/94
f 97/97/97 96/96/96 93/93/93
f 98/98/98 94/94/94 95/95/95
f 98/98/98 97/97/97 94/94/94
f 99/99/99 98/98/98 95/95/95
f 100/100/100 71/71/71 96/96/96
f 100/100/100 96/96/96 97/97/97
f 72/72/72 71/71/71 100/100/100
f 80/80/80 72/72/72 100/100/100
f 101/101/101 100/100/100 97/97/97
f 101/101/101 97/97/97 98/98/98
f 80/80/80 100/100/100 101/101/101
f 102/102/102 98/98/98 99/99/99
f 102/102/102 101/101/101 98/98/98
f 103/103/103 102/102/102 99/99/99
f 104/104/104 80/80/80 101/101/101
f 104/104/104 101/101/101 102/102/102
f 78/78/78 80/80/80 104/104/104
f 87/87/87 78/78/78 104/104/104
f 105/105/105 102/102/102 103/103/103
f 105/105/105 104/104/104 102/102/102
f 87/87/87 104/104/104 105/105/105
f 106/106/106 105/105/105 103/103/103
f 107/107/107 87/87/87 105/105/105
f 107/107/107 105/105/105 106/106/106
f 88/88/88 87/87/87 107/107/107
f 108/108/108 107/107/107 106/106/106
f 109/109/109 88/88/88 107/107/107
f 109/109/109 107/107/107 108/108/108
f 110/110/110 109/109/109 108/108/108
