g mdlGTHoleBoxEasyCollision
v 4.56262 4.56262 -4.56262
v 8.990912 4.56262 -4.56262
v 8.990912 -4.56262 -4.56262
v 4.56262 -4.56262 -4.56262
v -4.56262 4.56262 -4.56262
v -4.56262 -4.56262 -4.56262
v -8.990912 4.56262 -4.56262
v -8.990912 -4.56262 -4.56262
v -4.56262 8.990912 4.56262
v -4.56262 4.56262 4.56262
v 4.56262 4.56262 4.56262
v 4.56262 8.990912 4.56262
v -8.990912 4.56262 4.56262
v -4.56262 4.56262 4.56262
v -4.56262 4.56262 -4.56262
v -8.990912 4.56262 -4.56262
v 4.56262 -8.990912 4.56262
v 4.56262 -4.56262 4.56262
v -4.56262 -4.56262 4.56262
v -4.56262 -8.990912 4.56262
v -8.990912 8.990912 -8.990912
v -8.990912 -8.990912 -8.990912
v 8.990912 -8.990912 -8.990912
v 8.990912 8.990912 -8.990912
v 8.990912 8.990912 8.990912
v 8.990912 -8.990912 8.990912
v -8.990912 -8.990912 8.990912
v -8.990912 8.990912 8.990912
v -8.990912 -4.56262 -4.56262
v -4.56262 -4.56262 -4.56262
v -4.56262 -4.56262 4.56262
v -8.990912 -4.56262 4.56262
v 4.56262 -4.56262 4.56262
v 8.990912 -4.56262 4.56262
v 8.990912 4.56262 4.56262
v 4.56262 4.56262 4.56262
v -4.56262 -4.56262 4.56262
v -4.56262 4.56262 4.56262
v -8.990912 -4.56262 4.56262
v -8.990912 4.56262 4.56262
v 4.56262 -4.56262 -4.56262
v 8.990912 -4.56262 -4.56262
v 8.990912 -4.56262 4.56262
v 4.56262 -4.56262 4.56262
v 4.56262 4.56262 4.56262
v 8.990912 4.56262 4.56262
v 8.990912 4.56262 -4.56262
v 4.56262 4.56262 -4.56262
v 4.56262 -8.990912 -4.56262
v 4.56262 -4.56262 -4.56262
v 4.56262 -4.56262 4.56262
v 4.56262 -8.990912 4.56262
v -4.56262 -8.990912 4.56262
v -4.56262 -4.56262 4.56262
v -4.56262 -4.56262 -4.56262
v -4.56262 -8.990912 -4.56262
v -4.56262 -8.990912 -4.56262
v -4.56262 -4.56262 -4.56262
v 4.56262 -4.56262 -4.56262
v 4.56262 -8.990912 -4.56262
v -4.56262 8.990912 -4.56262
v -4.56262 4.56262 -4.56262
v -4.56262 4.56262 4.56262
v -4.56262 8.990912 4.56262
v 4.56262 8.990912 4.56262
v 4.56262 4.56262 4.56262
v 4.56262 4.56262 -4.56262
v 4.56262 8.990912 -4.56262
v 4.56262 8.990912 -4.56262
v 4.56262 4.56262 -4.56262
v -4.56262 4.56262 -4.56262
v -4.56262 8.990912 -4.56262
v -8.990912 -8.990912 -8.990912
v -8.990912 -4.56262 -4.56262
v -8.990912 -4.56262 4.56262
v -8.990912 -8.990912 8.990912
v -8.990912 8.990912 -8.990912
v -8.990912 4.56262 4.56262
v -8.990912 4.56262 -4.56262
v -8.990912 8.990912 8.990912
v -8.990912 8.990912 -8.990912
v -4.56262 8.990912 -4.56262
v -4.56262 8.990912 4.56262
v -8.990912 8.990912 8.990912
v 8.990912 8.990912 -8.990912
v 4.56262 8.990912 4.56262
v 4.56262 8.990912 -4.56262
v 8.990912 8.990912 8.990912
v 8.990912 8.990912 -8.990912
v 8.990912 4.56262 -4.56262
v 8.990912 4.56262 4.56262
v 8.990912 8.990912 8.990912
v 8.990912 -8.990912 -8.990912
v 8.990912 -4.56262 4.56262
v 8.990912 -4.56262 -4.56262
v 8.990912 -8.990912 8.990912
v 8.990912 -8.990912 -8.990912
v 4.56262 -8.990912 -4.56262
v 4.56262 -8.990912 4.56262
v 8.990912 -8.990912 8.990912
v -8.990912 -8.990912 -8.990912
v -4.56262 -8.990912 4.56262
v -4.56262 -8.990912 -4.56262
v -8.990912 -8.990912 8.990912
vt 0.43656623 0.18843378
vt 0.43656623 0.18843378
vt 0.43656623 0.061566222
vt 0.43656623 0.061566222
vt 0.43656623 0.18843378
vt 0.43656623 0.061566222
vt 0.43656623 0.18843378
vt 0.43656623 0.061566222
vt 0.56343377 0.31156623
vt 0.56343377 0.31156623
vt 0.56343377 0.4384338
vt 0.56343377 0.4384338
vt 0.56343377 0.18843378
vt 0.56343377 0.18843378
vt 0.43656623 0.18843378
vt 0.43656623 0.18843378
vt 0.56343377 0.81156623
vt 0.56343377 0.81156623
vt 0.56343377 0.9384338
vt 0.56343377 0.9384338
vt 0.125 0.5
vt 0.125 0.75
vt 0.375 0.75
vt 0.375 0.5
vt 0.625 0.5
vt 0.625 0.75
vt 0.875 0.75
vt 0.875 0.5
vt 0.43656623 0.061566222
vt 0.43656623 0.061566222
vt 0.56343377 0.061566222
vt 0.56343377 0.061566222
vt 0.56343377 0.061566222
vt 0.56343377 0.061566222
vt 0.56343377 0.18843378
vt 0.56343377 0.18843378
vt 0.56343377 0.061566222
vt 0.56343377 0.18843378
vt 0.56343377 0.061566222
vt 0.56343377 0.18843378
vt 0.43656623 0.061566222
vt 0.43656623 0.061566222
vt 0.56343377 0.061566222
vt 0.56343377 0.061566222
vt 0.56343377 0.18843378
vt 0.56343377 0.18843378
vt 0.43656623 0.18843378
vt 0.43656623 0.18843378
vt 0.43656623 0.8115662
vt 0.43656623 0.8115662
vt 0.56343377 0.81156623
vt 0.56343377 0.81156623
vt 0.56343377 0.9384338
vt 0.56343377 0.9384338
vt 0.43656623 0.93843377
vt 0.43656623 0.93843377
vt 0.43656623 0.93843377
vt 0.43656623 0.93843377
vt 0.43656623 0.8115662
vt 0.43656623 0.8115662
vt 0.43656623 0.31156623
vt 0.43656623 0.31156623
vt 0.56343377 0.31156623
vt 0.56343377 0.31156623
vt 0.56343377 0.4384338
vt 0.56343377 0.4384338
vt 0.43656623 0.43843377
vt 0.43656623 0.43843377
vt 0.43656623 0.43843377
vt 0.43656623 0.43843377
vt 0.43656623 0.31156623
vt 0.43656623 0.31156623
vt 0.375 0
vt 0.43656623 0.061566222
vt 0.56343377 0.061566222
vt 0.625 0
vt 0.375 0.25
vt 0.56343377 0.18843378
vt 0.43656623 0.18843378
vt 0.625 0.25
vt 0.375 0.25
vt 0.43656623 0.31156623
vt 0.56343377 0.31156623
vt 0.625 0.25
vt 0.375 0.5
vt 0.56343377 0.4384338
vt 0.43656623 0.43843377
vt 0.625 0.5
vt 0.375 0.5
vt 0.43656623 0.56156623
vt 0.56343377 0.56156623
vt 0.625 0.5
vt 0.375 0.75
vt 0.56343377 0.6884338
vt 0.43656623 0.68843377
vt 0.625 0.75
vt 0.375 0.75
vt 0.43656623 0.8115662
vt 0.56343377 0.81156623
vt 0.625 0.75
vt 0.375 1
vt 0.56343377 0.9384338
vt 0.43656623 0.93843377
vt 0.625 1
vn -0 0 1
vn -0 0 1
vn -0 0 1
vn -0 0 1
vn -0 0 1
vn -0 0 1
vn -0 0 1
vn -0 0 1
vn -0 0 -1
vn -0 0 -1
vn -0 0 -1
vn -0 0 -1
vn -0 -1 0
vn -0 -1 0
vn -0 -1 0
vn -0 -1 0
vn -0 0 -1
vn -0 0 -1
vn -0 0 -1
vn -0 0 -1
vn -0 0 -1
vn -0 0 -1
vn -0 0 -1
vn -0 0 -1
vn -0 0 1
vn -0 0 1
vn -0 0 1
vn -0 0 1
vn -0 1 0
vn -0 1 0
vn -0 1 0
vn -0 1 0
vn -0 0 -1
vn -0 0 -1
vn -0 0 -1
vn -0 0 -1
vn -0 0 -1
vn -0 0 -1
vn -0 0 -1
vn -0 0 -1
vn -0 1 0
vn -0 1 0
vn -0 1 0
vn -0 1 0
vn -0 -1 0
vn -0 -1 0
vn -0 -1 0
vn -0 -1 0
vn -1 0 0
vn -1 0 0
vn -1 0 0
vn -1 0 0
vn 1 0 0
vn 1 0 0
vn 1 0 0
vn 1 0 0
vn -0 0 1
vn -0 0 1
vn -0 0 1
vn -0 0 1
vn 1 0 0
vn 1 0 0
vn 1 0 0
vn 1 0 0
vn -1 0 0
vn -1 0 0
vn -1 0 0
vn -1 0 0
vn -0 0 1
vn -0 0 1
vn -0 0 1
vn -0 0 1
vn -1 0 0
vn -1 0 0
vn -1 0 0
vn -1 0 0
vn -1 0 0
vn -1 0 0
vn -1 0 0
vn -1 0 0
vn -0 1 0
vn -0 1 0
vn -0 1 0
vn -0 1 0
vn -0 1 0
vn -0 1 0
vn -0 1 0
vn -0 1 0
vn 1 0 0
vn 1 0 0
vn 1 0 0
vn 1 0 0
vn 1 0 0
vn 1 0 0
vn 1 0 0
vn 1 0 0
vn -0 -1 0
vn -0 -1 0
vn -0 -1 0
vn -0 -1 0
vn -0 -1 0
vn -0 -1 0
vn -0 -1 0
vn -0 -1 0
g mdlGTHoleBoxEasyCollision_0
f 3/3/3 2/2/2 1/1/1
f 4/4/4 3/3/3 1/1/1
f 4/4/4 1/1/1 5/5/5
f 6/6/6 4/4/4 5/5/5
f 6/6/6 5/5/5 7/7/7
f 8/8/8 6/6/6 7/7/7
f 11/11/11 10/10/10 9/9/9
f 12/12/12 11/11/11 9/9/9
f 15/15/15 14/14/14 13/13/13
f 16/16/16 15/15/15 13/13/13
f 19/19/19 18/18/18 17/17/17
f 20/20/20 19/19/19 17/17/17
f 23/23/23 22/22/22 21/21/21
f 24/24/24 23/23/23 21/21/21
f 27/27/27 26/26/26 25/25/25
f 28/28/28 27/27/27 25/25/25
f 31/31/31 30/30/30 29/29/29
f 32/32/32 31/31/31 29/29/29
f 35/35/35 34/34/34 33/33/33
f 36/36/36 35/35/35 33/33/33
f 36/36/36 33/33/33 37/37/37
f 38/38/38 36/36/36 37/37/37
f 38/38/38 37/37/37 39/39/39
f 40/40/40 38/38/38 39/39/39
f 43/43/43 42/42/42 41/41/41
f 44/44/44 43/43/43 41/41/41
f 47/47/47 46/46/46 45/45/45
f 48/48/48 47/47/47 45/45/45
f 51/51/51 50/50/50 49/49/49
f 52/52/52 51/51/51 49/49/49
f 55/55/55 54/54/54 53/53/53
f 56/56/56 55/55/55 53/53/53
f 59/59/59 58/58/58 57/57/57
f 60/60/60 59/59/59 57/57/57
f 63/63/63 62/62/62 61/61/61
f 64/64/64 63/63/63 61/61/61
f 67/67/67 66/66/66 65/65/65
f 68/68/68 67/67/67 65/65/65
f 71/71/71 70/70/70 69/69/69
f 72/72/72 71/71/71 69/69/69
f 75/75/75 74/74/74 73/73/73
f 76/76/76 75/75/75 73/73/73
f 73/73/73 74/74/74 77/77/77
f 78/78/78 75/75/75 76/76/76
f 74/74/74 79/79/79 77/77/77
f 80/80/80 78/78/78 76/76/76
f 77/77/77 79/79/79 80/80/80
f 79/79/79 78/78/78 80/80/80
f 83/83/83 82/82/82 81/81/81
f 84/84/84 83/83/83 81/81/81
f 81/81/81 82/82/82 85/85/85
f 86/86/86 83/83/83 84/84/84
f 82/82/82 87/87/87 85/85/85
f 88/88/88 86/86/86 84/84/84
f 85/85/85 87/87/87 88/88/88
f 87/87/87 86/86/86 88/88/88
f 91/91/91 90/90/90 89/89/89
f 92/92/92 91/91/91 89/89/89
f 89/89/89 90/90/90 93/93/93
f 94/94/94 91/91/91 92/92/92
f 90/90/90 95/95/95 93/93/93
f 96/96/96 94/94/94 92/92/92
f 93/93/93 95/95/95 96/96/96
f 95/95/95 94/94/94 96/96/96
f 99/99/99 98/98/98 97/97/97
f 100/100/100 99/99/99 97/97/97
f 97/97/97 98/98/98 101/101/101
f 102/102/102 99/99/99 100/100/100
f 98/98/98 103/103/103 101/101/101
f 104/104/104 102/102/102 100/100/100
f 101/101/101 103/103/103 104/104/104
f 103/103/103 102/102/102 104/104/104
