g mdlGTWaterTube
v -0.9238791 0.38268447 -4.19401
v -0.83146894 0.55557126 -4.19401
v -0.83146894 0.55557126 4.19401
v -0.9238791 0.38268447 4.19401
v -0.9807851 0.19509135 -4.19401
v -0.9807851 0.19509135 4.19401
v -1 9.655992E-07 -4.19401
v -1 9.655992E-07 4.19401
v -0.9807854 -0.19508946 -4.19401
v -0.9807854 -0.19508946 4.19401
v -0.92387986 -0.38268268 -4.19401
v -0.92387986 -0.38268268 4.19401
v -0.83147 -0.55556965 -4.19401
v -0.83147 -0.55556965 4.19401
v -0.70710725 -0.70710635 -4.19401
v -0.70710725 -0.70710635 4.19401
v -0.5555707 -0.8314693 -4.19401
v -0.5555707 -0.8314693 4.19401
v -0.38268387 -0.9238793 -4.19401
v -0.38268387 -0.9238793 4.19401
v -0.19509073 -0.9807852 -4.19401
v -0.19509073 -0.9807852 4.19401
v -3.2584137E-07 -1 -4.19401
v -3.2584137E-07 -1 4.19401
v 0.19509009 -0.9807853 -4.19401
v 0.19509009 -0.9807853 4.19401
v 0.38268328 -0.9238796 -4.19401
v 0.38268328 -0.9238796 4.19401
v 0.5555702 -0.83146966 -4.19401
v 0.5555702 -0.83146966 4.19401
v 0.70710677 -0.70710677 -4.19401
v 0.70710677 -0.70710677 4.19401
v 0.83146966 -0.5555702 -4.19401
v 0.83146966 -0.5555702 4.19401
v 0.92387956 -0.38268328 -4.19401
v 0.92387956 -0.38268328 4.19401
v 0.9807853 -0.1950902 -4.19401
v 0.9807853 -0.1950902 4.19401
v 1 7.5497894E-08 -4.19401
v 1 7.5497894E-08 4.19401
v 0.98078525 0.19509035 -4.19401
v 0.98078525 0.19509035 4.19401
v 0.9238795 0.38268343 -4.19401
v 0.9238795 0.38268343 4.19401
v 0.83146966 0.5555702 -4.19401
v 0.83146966 0.5555702 4.19401
v 0.70710677 0.70710677 -4.19401
v 0.70710677 0.70710677 4.19401
v 0.55557024 0.8314696 -4.19401
v 0.55557024 0.8314696 4.19401
v 0.38268346 0.9238795 -4.19401
v 0.38268346 0.9238795 4.19401
v 0.19509032 0.98078525 -4.19401
v 0.19509032 0.98078525 4.19401
v -0 1 -4.19401
v -0 1 4.19401
v -0.19508882 0.98078555 -4.19401
v -0.19508882 0.98078555 4.19401
v -0.38268209 0.9238801 -4.19401
v -0.38268209 0.9238801 4.19401
v -0.5555691 0.8314704 -4.19401
v -0.5555691 0.8314704 4.19401
v -0.7071059 0.70710766 -4.19401
v -0.7071059 0.70710766 4.19401
v -0.83146894 0.55557126 -4.19401
v -0.83146894 0.55557126 4.19401
v 0.98078525 0.19509035 4.19401
v 1 7.5497894E-08 4.19401
v 0.9807853 -0.1950902 4.19401
v 0.92387956 -0.38268328 4.19401
v 0.9238795 0.38268343 4.19401
v 0.83146966 -0.5555702 4.19401
v 0.83146966 0.5555702 4.19401
v 0.70710677 0.70710677 4.19401
v 0.70710677 -0.70710677 4.19401
v 0.55557024 0.8314696 4.19401
v 0.5555702 -0.83146966 4.19401
v 0.38268346 0.9238795 4.19401
v 0.38268328 -0.9238796 4.19401
v 0.19509032 0.98078525 4.19401
v 0.19509009 -0.9807853 4.19401
v -0 1 4.19401
v -3.2584137E-07 -1 4.19401
v -0.19508882 0.98078555 4.19401
v -0.19509073 -0.9807852 4.19401
v -0.38268209 0.9238801 4.19401
v -0.38268387 -0.9238793 4.19401
v -0.5555691 0.8314704 4.19401
v -0.5555707 -0.8314693 4.19401
v -0.7071059 0.70710766 4.19401
v -0.70710725 -0.70710635 4.19401
v -0.83146894 0.55557126 4.19401
v -0.83147 -0.55556965 4.19401
v -0.9238791 0.38268447 4.19401
v -0.92387986 -0.38268268 4.19401
v -0.9807851 0.19509135 4.19401
v -0.9807854 -0.19508946 4.19401
v -1 9.655992E-07 4.19401
v 0.9807853 -0.1950902 -4.19401
v 1 7.5497894E-08 -4.19401
v 0.98078525 0.19509035 -4.19401
v 0.92387956 -0.38268328 -4.19401
v 0.9238795 0.38268343 -4.19401
v 0.83146966 -0.5555702 -4.19401
v 0.83146966 0.5555702 -4.19401
v 0.70710677 -0.70710677 -4.19401
v 0.70710677 0.70710677 -4.19401
v 0.5555702 -0.83146966 -4.19401
v 0.55557024 0.8314696 -4.19401
v 0.38268346 0.9238795 -4.19401
v 0.38268328 -0.9238796 -4.19401
v 0.19509032 0.98078525 -4.19401
v 0.19509009 -0.9807853 -4.19401
v -0 1 -4.19401
v -3.2584137E-07 -1 -4.19401
v -0.19508882 0.98078555 -4.19401
v -0.19509073 -0.9807852 -4.19401
v -0.38268209 0.9238801 -4.19401
v -0.38268387 -0.9238793 -4.19401
v -0.5555691 0.8314704 -4.19401
v -0.5555707 -0.8314693 -4.19401
v -0.7071059 0.70710766 -4.19401
v -0.70710725 -0.70710635 -4.19401
v -0.83146894 0.55557126 -4.19401
v -0.83147 -0.55556965 -4.19401
v -0.9238791 0.38268447 -4.19401
v -0.92387986 -0.38268268 -4.19401
v -0.9807851 0.19509135 -4.19401
v -0.9807854 -0.19508946 -4.19401
v -1 9.655992E-07 -4.19401
vt 0.03186634 -0.0033249855
vt 0.0007774234 -0.0033249855
vt 0.00078195333 0.99650156
vt 0.031870723 0.99650145
vt 0.06295529 -0.0033251047
vt 0.06295928 0.99650156
vt 0.09404418 -0.0033251047
vt 0.09404805 0.99650145
vt 0.1251331 -0.003325224
vt 0.12513676 0.99650145
vt 0.1562219 -0.0033253431
vt 0.15622535 0.9965013
vt 0.18731076 -0.003325224
vt 0.18731418 0.99650145
vt 0.21839967 -0.0033253431
vt 0.21840283 0.9965013
vt 0.24948856 -0.0033253431
vt 0.2494916 0.9965012
vt 0.28057748 -0.0033253431
vt 0.28058022 0.9965012
vt 0.31166637 -0.0033253431
vt 0.31166893 0.9965012
vt 0.3427552 -0.0033253431
vt 0.34275758 0.9965012
vt 0.3738441 -0.0033254623
vt 0.37384623 0.9965012
vt 0.404933 -0.0033253431
vt 0.40493497 0.9965012
vt 0.43602186 -0.0033254623
vt 0.43602365 0.9965012
vt 0.46711078 -0.0033254623
vt 0.46711227 0.9965012
vt 0.4981997 -0.0033254623
vt 0.49820104 0.9965011
vt 0.52928853 -0.0033254623
vt 0.5292898 0.9965012
vt 0.5603774 -0.0033254623
vt 0.56037843 0.9965012
vt 0.5914663 -0.0033254623
vt 0.5914671 0.9965012
vt 0.6225552 -0.0033254623
vt 0.62255585 0.9965012
vt 0.6536441 -0.0033253431
vt 0.6536445 0.9965012
vt 0.68473303 -0.0033254623
vt 0.6847333 0.9965012
vt 0.7158219 -0.0033254623
vt 0.7158219 0.9965012
vt 0.7469108 -0.0033254623
vt 0.7469107 0.9965012
vt 0.77799964 -0.0033254623
vt 0.7779994 0.9965012
vt 0.8090886 -0.0033254623
vt 0.809088 0.9965013
vt 0.84017754 -0.0033253431
vt 0.8401767 0.9965013
vt 0.87126637 -0.0033254623
vt 0.8712652 0.99650145
vt 0.9023553 -0.003325224
vt 0.90235376 0.99650145
vt 0.93344426 -0.0033253431
vt 0.9334425 0.99650145
vt 0.9645331 -0.003325224
vt 0.9645312 0.99650145
vt 0.9956219 -0.003325224
vt 0.99561995 0.99650156
vt 0.48538846 0.29682168
vt 0.49 0.25000003
vt 0.48538846 0.20317835
vt 0.4717311 0.15815601
vt 0.47173107 0.34184402
vt 0.4495527 0.11666316
vt 0.4495527 0.38333684
vt 0.41970563 0.41970563
vt 0.41970563 0.080294386
vt 0.38333684 0.4495527
vt 0.38333684 0.050447285
vt 0.34184402 0.47173107
vt 0.341844 0.028268889
vt 0.29682168 0.48538846
vt 0.29682162 0.014611527
vt 0.25 0.49
vt 0.24999993 0.010000005
vt 0.20317869 0.48538852
vt 0.20317823 0.014611557
vt 0.1581563 0.47173122
vt 0.15815587 0.028268963
vt 0.11666341 0.4495529
vt 0.116663024 0.050447375
vt 0.080294594 0.41970584
vt 0.08029427 0.080294475
vt 0.050447464 0.38333708
vt 0.050447196 0.11666329
vt 0.028269023 0.34184426
vt 0.028268844 0.15815616
vt 0.014611587 0.29682192
vt 0.0146114975 0.20317852
vt 0.010000005 0.25000024
vt 0.98538846 0.20317835
vt 0.99 0.25000003
vt 0.98538846 0.29682168
vt 0.97173107 0.15815601
vt 0.97173107 0.34184402
vt 0.9495527 0.11666316
vt 0.9495527 0.38333684
vt 0.9197056 0.080294386
vt 0.9197056 0.41970563
vt 0.88333684 0.050447285
vt 0.88333684 0.4495527
vt 0.841844 0.47173107
vt 0.84184396 0.028268889
vt 0.79682165 0.48538846
vt 0.7968216 0.014611527
vt 0.75 0.49
vt 0.74999994 0.010000005
vt 0.7031787 0.48538852
vt 0.7031782 0.014611557
vt 0.6581563 0.47173122
vt 0.65815586 0.028268963
vt 0.6166634 0.4495529
vt 0.61666304 0.050447375
vt 0.5802946 0.41970584
vt 0.58029425 0.080294475
vt 0.55044746 0.38333708
vt 0.5504472 0.11666329
vt 0.52826905 0.34184426
vt 0.5282688 0.15815616
vt 0.5146116 0.29682192
vt 0.5146115 0.20317852
vt 0.51 0.25000024
vn -0.923879 0.3826846 0
vn -0.83146894 0.55557126 0
vn -0.83146894 0.55557126 0
vn -0.923879 0.3826846 0
vn -0.98078513 0.19509137 0
vn -0.98078513 0.19509137 0
vn -1 0 0
vn -1 0 0
vn -0.9807854 -0.19508946 0
vn -0.9807854 -0.19508946 0
vn -0.9238798 -0.3826827 0
vn -0.9238798 -0.3826827 0
vn -0.83147013 -0.5555695 0
vn -0.83147013 -0.5555695 0
vn -0.7071072 -0.7071063 0
vn -0.7071072 -0.7071063 0
vn -0.55557054 -0.83146936 0
vn -0.55557054 -0.83146936 0
vn -0.38268387 -0.92387944 0
vn -0.38268387 -0.92387944 0
vn -0.19509082 -0.98078525 0
vn -0.19509082 -0.98078525 0
vn -0 -1 0
vn -0 -1 0
vn 0.19509003 -0.98078537 0
vn 0.19509003 -0.98078537 0
vn 0.38268322 -0.9238796 0
vn 0.38268322 -0.9238796 0
vn 0.55557024 -0.8314696 0
vn 0.55557024 -0.8314696 0
vn 0.70710665 -0.7071068 0
vn 0.70710665 -0.7071068 0
vn 0.8314696 -0.5555702 0
vn 0.8314696 -0.5555702 0
vn 0.9238795 -0.38268337 0
vn 0.9238795 -0.38268337 0
vn 0.98078525 -0.19509028 0
vn 0.98078525 -0.19509028 0
vn 1 0 0
vn 1 0 0
vn 0.98078525 0.19509041 0
vn 0.98078525 0.19509041 0
vn 0.9238796 0.3826833 0
vn 0.9238796 0.3826833 0
vn 0.8314696 0.5555702 0
vn 0.8314696 0.5555702 0
vn 0.7071067 0.7071068 0
vn 0.7071067 0.7071068 0
vn 0.55557024 0.8314696 0
vn 0.55557024 0.8314696 0
vn 0.3826833 0.9238795 0
vn 0.3826833 0.9238795 0
vn 0.19509035 0.98078525 0
vn 0.19509035 0.98078525 0
vn -0 1 0
vn -0 1 0
vn -0.19508916 0.9807854 0
vn -0.19508916 0.9807854 0
vn -0.38268194 0.9238801 0
vn -0.38268194 0.9238801 0
vn -0.5555691 0.8314704 0
vn -0.5555691 0.8314704 0
vn -0.70710593 0.7071076 0
vn -0.70710593 0.7071076 0
vn -0.83146894 0.55557126 0
vn -0.83146894 0.55557126 0
vn -0 0 1
vn -0 0 1
vn -0 0 1
vn -0 0 1
vn -0 0 1
vn -0 0 1
vn -0 0 1
vn -0 0 1
vn -0 0 1
vn -0 0 1
vn -0 0 1
vn -0 0 1
vn -0 0 1
vn -0 0 1
vn -0 0 1
vn -0 0 1
vn -0 0 1
vn -0 0 1
vn -0 0 1
vn -0 0 1
vn -0 0 1
vn -0 0 1
vn -0 0 1
vn -0 0 1
vn -0 0 1
vn -0 0 1
vn -0 0 1
vn -0 0 1
vn -0 0 1
vn -0 0 1
vn -0 0 1
vn -0 0 1
vn -0 0 -1
vn -0 0 -1
vn -0 0 -1
vn -0 0 -1
vn -0 0 -1
vn -0 0 -1
vn -0 0 -1
vn -0 0 -1
vn -0 0 -1
vn -0 0 -1
vn -0 0 -1
vn -0 0 -1
vn -0 0 -1
vn -0 0 -1
vn -0 0 -1
vn -0 0 -1
vn -0 0 -1
vn -0 0 -1
vn -0 0 -1
vn -0 0 -1
vn -0 0 -1
vn -0 0 -1
vn -0 0 -1
vn -0 0 -1
vn -0 0 -1
vn -0 0 -1
vn -0 0 -1
vn -0 0 -1
vn -0 0 -1
vn -0 0 -1
vn -0 0 -1
vn -0 0 -1
g mdlGTWaterTube_0
f 3/3/3 2/2/2 1/1/1
f 4/4/4 3/3/3 1/1/1
f 4/4/4 1/1/1 5/5/5
f 6/6/6 4/4/4 5/5/5
f 6/6/6 5/5/5 7/7/7
f 8/8/8 6/6/6 7/7/7
f 8/8/8 7/7/7 9/9/9
f 10/10/10 8/8/8 9/9/9
f 10/10/10 9/9/9 11/11/11
f 12/12/12 10/10/10 11/11/11
f 12/12/12 11/11/11 13/13/13
f 14/14/14 12/12/12 13/13/13
f 14/14/14 13/13/13 15/15/15
f 16/16/16 14/14/14 15/15/15
f 16/16/16 15/15/15 17/17/17
f 18/18/18 16/16/16 17/17/17
f 18/18/18 17/17/17 19/19/19
f 20/20/20 18/18/18 19/19/19
f 20/20/20 19/19/19 21/21/21
f 22/22/22 20/20/20 21/21/21
f 22/22/22 21/21/21 23/23/23
f 24/24/24 22/22/22 23/23/23
f 24/24/24 23/23/23 25/25/25
f 26/26/26 24/24/24 25/25/25
f 26/26/26 25/25/25 27/27/27
f 28/28/28 26/26/26 27/27/27
f 28/28/28 27/27/27 29/29/29
f 30/30/30 28/28/28 29/29/29
f 30/30/30 29/29/29 31/31/31
f 32/32/32 30/30/30 31/31/31
f 32/32/32 31/31/31 33/33/33
f 34/34/34 32/32/32 33/33/33
f 34/34/34 33/33/33 35/35/35
f 36/36/36 34/34/34 35/35/35
f 36/36/36 35/35/35 37/37/37
f 38/38/38 36/36/36 37/37/37
f 38/38/38 37/37/37 39/39/39
f 40/40/40 38/38/38 39/39/39
f 40/40/40 39/39/39 41/41/41
f 42/42/42 40/40/40 41/41/41
f 42/42/42 41/41/41 43/43/43
f 44/44/44 42/42/42 43/43/43
f 44/44/44 43/43/43 45/45/45
f 46/46/46 44/44/44 45/45/45
f 46/46/46 45/45/45 47/47/47
f 48/48/48 46/46/46 47/47/47
f 48/48/48 47/47/47 49/49/49
f 50/50/50 48/48/48 49/49/49
f 50/50/50 49/49/49 51/51/51
f 52/52/52 50/50/50 51/51/51
f 52/52/52 51/51/51 53/53/53
f 54/54/54 52/52/52 53/53/53
f 54/54/54 53/53/53 55/55/55
f 56/56/56 54/54/54 55/55/55
f 56/56/56 55/55/55 57/57/57
f 58/58/58 56/56/56 57/57/57
f 58/58/58 57/57/57 59/59/59
f 60/60/60 58/58/58 59/59/59
f 60/60/60 59/59/59 61/61/61
f 62/62/62 60/60/60 61/61/61
f 62/62/62 61/61/61 63/63/63
f 64/64/64 62/62/62 63/63/63
f 64/64/64 63/63/63 65/65/65
f 66/66/66 64/64/64 65/65/65
f 69/69/69 68/68/68 67/67/67
f 67/67/67 70/70/70 69/69/69
f 67/67/67 71/71/71 70/70/70
f 71/71/71 72/72/72 70/70/70
f 71/71/71 73/73/73 72/72/72
f 73/73/73 74/74/74 72/72/72
f 74/74/74 75/75/75 72/72/72
f 74/74/74 76/76/76 75/75/75
f 76/76/76 77/77/77 75/75/75
f 76/76/76 78/78/78 77/77/77
f 78/78/78 79/79/79 77/77/77
f 78/78/78 80/80/80 79/79/79
f 80/80/80 81/81/81 79/79/79
f 80/80/80 82/82/82 81/81/81
f 82/82/82 83/83/83 81/81/81
f 82/82/82 84/84/84 83/83/83
f 84/84/84 85/85/85 83/83/83
f 84/84/84 86/86/86 85/85/85
f 86/86/86 87/87/87 85/85/85
f 86/86/86 88/88/88 87/87/87
f 88/88/88 89/89/89 87/87/87
f 88/88/88 90/90/90 89/89/89
f 90/90/90 91/91/91 89/89/89
f 90/90/90 92/92/92 91/91/91
f 92/92/92 93/93/93 91/91/91
f 92/92/92 94/94/94 93/93/93
f 94/94/94 95/95/95 93/93/93
f 94/94/94 96/96/96 95/95/95
f 96/96/96 97/97/97 95/95/95
f 96/96/96 98/98/98 97/97/97
f 101/101/101 100/100/100 99/99/99
f 99/99/99 102/102/102 101/101/101
f 102/102/102 103/103/103 101/101/101
f 102/102/102 104/104/104 103/103/103
f 104/104/104 105/105/105 103/103/103
f 104/104/104 106/106/106 105/105/105
f 106/106/106 107/107/107 105/105/105
f 106/106/106 108/108/108 107/107/107
f 108/108/108 109/109/109 107/107/107
f 108/108/108 110/110/110 109/109/109
f 108/108/108 111/111/111 110/110/110
f 111/111/111 112/112/112 110/110/110
f 111/111/111 113/113/113 112/112/112
f 113/113/113 114/114/114 112/112/112
f 113/113/113 115/115/115 114/114/114
f 115/115/115 116/116/116 114/114/114
f 115/115/115 117/117/117 116/116/116
f 117/117/117 118/118/118 116/116/116
f 117/117/117 119/119/119 118/118/118
f 119/119/119 120/120/120 118/118/118
f 119/119/119 121/121/121 120/120/120
f 121/121/121 122/122/122 120/120/120
f 121/121/121 123/123/123 122/122/122
f 123/123/123 124/124/124 122/122/122
f 123/123/123 125/125/125 124/124/124
f 125/125/125 126/126/126 124/124/124
f 125/125/125 127/127/127 126/126/126
f 127/127/127 128/128/128 126/126/126
f 127/127/127 129/129/129 128/128/128
f 129/129/129 130/130/130 128/128/128
