g mdlGTChainLinkSingleCollision
v 1.5 13.4856415 1.4901161E-06
v -1.5 5.075119 5.9604645E-08
v -1.5 13.4856415 1.4901161E-06
v 1.5 5.075119 5.9604645E-08
v -3.5 2.575119 5.9604645E-08
v -6.5 5.075119 5.9604645E-08
v -6.5 2.575119 5.9604645E-08
v -6.5 0 5.9604645E-08
v -3.5 0 5.9604645E-08
v -3.5 -2.575119 5.9604645E-08
v -6.5 -2.575119 5.9604645E-08
v -6.5 -5.075119 5.9604645E-08
v -1.5 -5.075119 5.9604645E-08
v 1.5 -5.075119 5.9604645E-08
v 3.5 2.575119 5.9604645E-08
v 3.5 -2.575119 5.9604645E-08
v 6.5 2.575119 5.9604645E-08
v 6.5 5.075119 5.9604645E-08
v 3.5 0 5.9604645E-08
v 6.5 0 5.9604645E-08
v 6.5 -2.575119 5.9604645E-08
v 6.5 -5.075119 5.9604645E-08
v 1.5 13.4856415 -4.9999986
v -1.5 13.4856415 -4.9999986
v -1.5 5.075119 -5
v 1.5 5.075119 -5
v 1.5 5.075119 -5
v 6.5 2.575119 -5
v 6.5 5.075119 -5
v 3.5 2.575119 -5
v -3.5 2.575119 -5
v 3.5 0 -5
v 6.5 0 -5
v -1.5 5.075119 -5
v 6.5 -2.575119 -5
v -6.5 5.075119 -5
v -6.5 2.575119 -5
v -6.5 0 -5
v -3.5 0 -5
v -3.5 -2.575119 -5
v -6.5 -2.575119 -5
v -6.5 -5.075119 -5
v 3.5 -2.575119 -5
v -1.5 -5.075119 -5
v 1.5 -5.075119 -5
v 6.5 -5.075119 -5
v 1.5 -13.4856415 -4.9999986
v -1.5 -13.4856415 -4.9999986
v 1.5 13.4856415 1.4901161E-06
v -1.5 13.4856415 1.4901161E-06
v -1.5 13.4856415 -4.9999986
v 1.5 13.4856415 -4.9999986
v -1.5 5.075119 5.9604645E-08
v -6.5 5.075119 5.9604645E-08
v -6.5 5.075119 -5
v -1.5 5.075119 -5
v 1.5 5.075119 5.9604645E-08
v 1.5 13.4856415 1.4901161E-06
v 1.5 13.4856415 -4.9999986
v 1.5 5.075119 -5
v 6.5 2.575119 5.9604645E-08
v 6.5 5.075119 5.9604645E-08
v 6.5 5.075119 -5
v 6.5 2.575119 -5
v 6.5 0 5.9604645E-08
v 6.5 0 -5
v 6.5 -2.575119 -5
v 6.5 -2.575119 5.9604645E-08
v 6.5 -5.075119 -5
v 6.5 -5.075119 5.9604645E-08
v 3.5 2.575119 5.9604645E-08
v 3.5 0 -5
v 3.5 2.575119 -5
v 3.5 0 5.9604645E-08
v 3.5 -2.575119 5.9604645E-08
v 3.5 -2.575119 -5
v 6.5 5.075119 5.9604645E-08
v 1.5 5.075119 5.9604645E-08
v 1.5 5.075119 -5
v 6.5 5.075119 -5
v -3.5 0 5.9604645E-08
v -3.5 2.575119 5.9604645E-08
v -3.5 2.575119 -5
v -3.5 0 -5
v -3.5 -2.575119 -5
v -3.5 -2.575119 5.9604645E-08
v -3.5 2.575119 5.9604645E-08
v 3.5 2.575119 5.9604645E-08
v 3.5 2.575119 -5
v -3.5 2.575119 -5
v -6.5 5.075119 5.9604645E-08
v -6.5 2.575119 -5
v -6.5 5.075119 -5
v -6.5 2.575119 5.9604645E-08
v -6.5 0 -5
v -6.5 0 5.9604645E-08
v -6.5 -2.575119 5.9604645E-08
v -6.5 -2.575119 -5
v -6.5 -5.075119 5.9604645E-08
v -6.5 -5.075119 -5
v -1.5 13.4856415 1.4901161E-06
v -1.5 5.075119 5.9604645E-08
v -1.5 5.075119 -5
v -1.5 13.4856415 -4.9999986
v 1.5 -13.4856415 1.4901161E-06
v -1.5 -13.4856415 1.4901161E-06
v -1.5 -5.075119 5.9604645E-08
v 1.5 -5.075119 5.9604645E-08
v 1.5 -13.4856415 1.4901161E-06
v 1.5 -13.4856415 -4.9999986
v -1.5 -13.4856415 -4.9999986
v -1.5 -13.4856415 1.4901161E-06
v -1.5 -5.075119 5.9604645E-08
v -1.5 -5.075119 -5
v -6.5 -5.075119 -5
v -6.5 -5.075119 5.9604645E-08
v 1.5 -5.075119 5.9604645E-08
v 1.5 -5.075119 -5
v 1.5 -13.4856415 -4.9999986
v 1.5 -13.4856415 1.4901161E-06
v 6.5 -5.075119 5.9604645E-08
v 6.5 -5.075119 -5
v 1.5 -5.075119 -5
v 1.5 -5.075119 5.9604645E-08
v -3.5 -2.575119 5.9604645E-08
v -3.5 -2.575119 -5
v 3.5 -2.575119 -5
v 3.5 -2.575119 5.9604645E-08
v -1.5 -13.4856415 1.4901161E-06
v -1.5 -13.4856415 -4.9999986
v -1.5 -5.075119 -5
v -1.5 -5.075119 5.9604645E-08
vt 0.625 0.5
vt 0.875 0.75
vt 0.875 0.5
vt 0.625 0.75
vt 0.875 0.75
vt 0.875 0.75
vt 0.875 0.75
vt 0.875 0.75
vt 0.875 0.75
vt 0.875 0.75
vt 0.875 0.75
vt 0.875 0.75
vt 0.875 0.75
vt 0.625 0.75
vt 0.625 0.75
vt 0.625 0.75
vt 0.625 0.75
vt 0.625 0.75
vt 0.625 0.75
vt 0.625 0.75
vt 0.625 0.75
vt 0.625 0.75
vt 0.625 0.5
vt 0.875 0.5
vt 0.875 0.75
vt 0.625 0.75
vt 0.625 0.75
vt 0.625 0.75
vt 0.625 0.75
vt 0.625 0.75
vt 0.875 0.75
vt 0.625 0.75
vt 0.625 0.75
vt 0.875 0.75
vt 0.625 0.75
vt 0.875 0.75
vt 0.875 0.75
vt 0.875 0.75
vt 0.875 0.75
vt 0.875 0.75
vt 0.875 0.75
vt 0.875 0.75
vt 0.625 0.75
vt 0.875 0.75
vt 0.625 0.75
vt 0.625 0.75
vt 0.625 0.5
vt 0.875 0.5
vt 0.625 0.5
vt 0.875 0.5
vt 0.875 0.5
vt 0.625 0.5
vt 0.875 0.75
vt 0.875 0.75
vt 0.875 0.75
vt 0.875 0.75
vt 0.625 0.75
vt 0.625 0.5
vt 0.625 0.5
vt 0.625 0.75
vt 0.625 0.75
vt 0.625 0.75
vt 0.625 0.75
vt 0.625 0.75
vt 0.625 0.75
vt 0.625 0.75
vt 0.625 0.75
vt 0.625 0.75
vt 0.625 0.75
vt 0.625 0.75
vt 0.625 0.75
vt 0.625 0.75
vt 0.625 0.75
vt 0.625 0.75
vt 0.625 0.75
vt 0.625 0.75
vt 0.625 0.75
vt 0.625 0.75
vt 0.625 0.75
vt 0.625 0.75
vt 0.875 0.75
vt 0.875 0.75
vt 0.875 0.75
vt 0.875 0.75
vt 0.875 0.75
vt 0.875 0.75
vt 0.875 0.75
vt 0.625 0.75
vt 0.625 0.75
vt 0.875 0.75
vt 0.875 0.75
vt 0.875 0.75
vt 0.875 0.75
vt 0.875 0.75
vt 0.875 0.75
vt 0.875 0.75
vt 0.875 0.75
vt 0.875 0.75
vt 0.875 0.75
vt 0.875 0.75
vt 0.875 0.5
vt 0.875 0.75
vt 0.875 0.75
vt 0.875 0.5
vt 0.625 0.5
vt 0.875 0.5
vt 0.875 0.75
vt 0.625 0.75
vt 0.625 0.5
vt 0.625 0.5
vt 0.875 0.5
vt 0.875 0.5
vt 0.875 0.75
vt 0.875 0.75
vt 0.875 0.75
vt 0.875 0.75
vt 0.625 0.75
vt 0.625 0.75
vt 0.625 0.5
vt 0.625 0.5
vt 0.625 0.75
vt 0.625 0.75
vt 0.625 0.75
vt 0.625 0.75
vt 0.875 0.75
vt 0.875 0.75
vt 0.625 0.75
vt 0.625 0.75
vt 0.875 0.5
vt 0.875 0.5
vt 0.875 0.75
vt 0.875 0.75
vn -0 0 1
vn -0 0 1
vn -0 0 1
vn -0 0 1
vn -0 0 1
vn -0 0 1
vn -0 0 1
vn -0 0 1
vn -0 0 1
vn -0 0 1
vn -0 0 1
vn -0 0 1
vn -0 0 1
vn -0 0 1
vn -0 0 1
vn -0 0 1
vn -0 0 1
vn -0 0 1
vn -0 0 1
vn -0 0 1
vn -0 0 1
vn -0 0 1
vn -0 0 -1
vn -0 0 -1
vn -0 0 -1
vn -0 0 -1
vn -0 0 -1
vn -0 0 -1
vn -0 0 -1
vn -0 0 -1
vn -0 0 -1
vn -0 0 -1
vn -0 0 -1
vn -0 0 -1
vn -0 0 -1
vn -0 0 -1
vn -0 0 -1
vn -0 0 -1
vn -0 0 -1
vn -0 0 -1
vn -0 0 -1
vn -0 0 -1
vn -0 0 -1
vn -0 0 -1
vn -0 0 -1
vn -0 0 -1
vn -0 0 -1
vn -0 0 -1
vn -0 1 0
vn -0 1 0
vn -0 1 0
vn -0 1 0
vn -0 1 0
vn -0 1 0
vn -0 1 0
vn -0 1 0
vn 1 0 0
vn 1 0 0
vn 1 0 0
vn 1 0 0
vn 1 0 0
vn 1 0 0
vn 1 0 0
vn 1 0 0
vn 1 0 0
vn 1 0 0
vn 1 0 0
vn 1 0 0
vn 1 0 0
vn 1 0 0
vn -1 0 0
vn -1 0 0
vn -1 0 0
vn -1 0 0
vn -1 0 0
vn -1 0 0
vn -0 1 0
vn -0 1 0
vn -0 1 0
vn -0 1 0
vn 1 0 0
vn 1 0 0
vn 1 0 0
vn 1 0 0
vn 1 0 0
vn 1 0 0
vn -0 -1 0
vn -0 -1 0
vn -0 -1 0
vn -0 -1 0
vn -1 0 0
vn -1 0 0
vn -1 0 0
vn -1 0 0
vn -1 0 0
vn -1 0 0
vn -1 0 0
vn -1 0 0
vn -1 0 0
vn -1 0 0
vn -1 0 0
vn -1 0 0
vn -1 0 0
vn -1 0 0
vn -0 0 1
vn -0 0 1
vn -0 0 1
vn -0 0 1
vn -0 -1 0
vn -0 -1 0
vn -0 -1 0
vn -0 -1 0
vn -0 -1 0
vn -0 -1 0
vn -0 -1 0
vn -0 -1 0
vn 1 0 0
vn 1 0 0
vn 1 0 0
vn 1 0 0
vn -0 -1 0
vn -0 -1 0
vn -0 -1 0
vn -0 -1 0
vn -0 1 0
vn -0 1 0
vn -0 1 0
vn -0 1 0
vn -1 0 0
vn -1 0 0
vn -1 0 0
vn -1 0 0
g mdlGTChainLinkSingleCollision_0
f 3/3/3 2/2/2 1/1/1
f 2/2/2 4/4/4 1/1/1
f 2/2/2 5/5/5 4/4/4
f 2/2/2 6/6/6 5/5/5
f 6/6/6 7/7/7 5/5/5
f 7/7/7 8/8/8 5/5/5
f 8/8/8 9/9/9 5/5/5
f 9/9/9 8/8/8 10/10/10
f 8/8/8 11/11/11 10/10/10
f 11/11/11 12/12/12 10/10/10
f 12/12/12 13/13/13 10/10/10
f 10/10/10 13/13/13 14/14/14
f 5/5/5 15/15/15 4/4/4
f 16/16/16 10/10/10 14/14/14
f 15/15/15 17/17/17 4/4/4
f 17/17/17 18/18/18 4/4/4
f 15/15/15 19/19/19 17/17/17
f 19/19/19 20/20/20 17/17/17
f 20/20/20 19/19/19 21/21/21
f 19/19/19 16/16/16 21/21/21
f 21/21/21 16/16/16 14/14/14
f 22/22/22 21/21/21 14/14/14
f 25/25/25 24/24/24 23/23/23
f 26/26/26 25/25/25 23/23/23
f 29/29/29 28/28/28 27/27/27
f 28/28/28 30/30/30 27/27/27
f 30/30/30 31/31/31 27/27/27
f 32/32/32 30/30/30 28/28/28
f 33/33/33 32/32/32 28/28/28
f 31/31/31 34/34/34 27/27/27
f 32/32/32 33/33/33 35/35/35
f 36/36/36 34/34/34 31/31/31
f 37/37/37 36/36/36 31/31/31
f 38/38/38 37/37/37 31/31/31
f 39/39/39 38/38/38 31/31/31
f 38/38/38 39/39/39 40/40/40
f 41/41/41 38/38/38 40/40/40
f 42/42/42 41/41/41 40/40/40
f 43/43/43 32/32/32 35/35/35
f 44/44/44 42/42/42 40/40/40
f 43/43/43 35/35/35 45/45/45
f 40/40/40 43/43/43 45/45/45
f 44/44/44 40/40/40 45/45/45
f 35/35/35 46/46/46 45/45/45
f 44/44/44 45/45/45 47/47/47
f 48/48/48 44/44/44 47/47/47
f 51/51/51 50/50/50 49/49/49
f 52/52/52 51/51/51 49/49/49
f 55/55/55 54/54/54 53/53/53
f 56/56/56 55/55/55 53/53/53
f 59/59/59 58/58/58 57/57/57
f 60/60/60 59/59/59 57/57/57
f 63/63/63 62/62/62 61/61/61
f 64/64/64 63/63/63 61/61/61
f 64/64/64 61/61/61 65/65/65
f 66/66/66 64/64/64 65/65/65
f 67/67/67 66/66/66 65/65/65
f 68/68/68 67/67/67 65/65/65
f 69/69/69 67/67/67 68/68/68
f 70/70/70 69/69/69 68/68/68
f 73/73/73 72/72/72 71/71/71
f 72/72/72 74/74/74 71/71/71
f 74/74/74 72/72/72 75/75/75
f 72/72/72 76/76/76 75/75/75
f 79/79/79 78/78/78 77/77/77
f 80/80/80 79/79/79 77/77/77
f 83/83/83 82/82/82 81/81/81
f 84/84/84 83/83/83 81/81/81
f 85/85/85 84/84/84 81/81/81
f 86/86/86 85/85/85 81/81/81
f 89/89/89 88/88/88 87/87/87
f 90/90/90 89/89/89 87/87/87
f 93/93/93 92/92/92 91/91/91
f 92/92/92 94/94/94 91/91/91
f 92/92/92 95/95/95 94/94/94
f 95/95/95 96/96/96 94/94/94
f 96/96/96 95/95/95 97/97/97
f 95/95/95 98/98/98 97/97/97
f 97/97/97 98/98/98 99/99/99
f 98/98/98 100/100/100 99/99/99
f 103/103/103 102/102/102 101/101/101
f 104/104/104 103/103/103 101/101/101
f 107/107/107 106/106/106 105/105/105
f 108/108/108 107/107/107 105/105/105
f 111/111/111 110/110/110 109/109/109
f 112/112/112 111/111/111 109/109/109
f 115/115/115 114/114/114 113/113/113
f 116/116/116 115/115/115 113/113/113
f 119/119/119 118/118/118 117/117/117
f 120/120/120 119/119/119 117/117/117
f 123/123/123 122/122/122 121/121/121
f 124/124/124 123/123/123 121/121/121
f 127/127/127 126/126/126 125/125/125
f 128/128/128 127/127/127 125/125/125
f 131/131/131 130/130/130 129/129/129
f 132/132/132 131/131/131 129/129/129
