g mdlGolemClampOpenable2
v -0.0011867285 0.7795125 -0.000106573105
v 0.44902456 0.7795125 0.036238015
v 0.44902456 -0.8189359 0.036238015
v -0.0011867285 -0.8189359 -0.000106573105
v 0.7796582 -0.8189359 -1.9679581
v 0.6243086 -0.8189359 -0.04359764
v 0.6243086 0.7795125 -0.04359764
v 0.7796582 0.7795125 -1.9679581
v 0.5199833 0.7795125 -1.988921
v 0.5199833 -0.8189359 -1.988921
v 0.33196545 -0.8189359 -2.0040994
v 0.33196545 0.7795125 -2.0040994
v 0.3741938 0.7795125 -0.18298388
v -0.0011867285 0.7795125 -0.000106573105
v 0.01591146 0.7795125 -0.21190727
v 0.44902456 0.7795125 0.036238015
v 0.6243086 0.7795125 -0.04359764
v 0.7796582 0.7795125 -1.9679581
v 0.5199833 0.7795125 -1.988921
v 0.6251385 0.7795125 -2.1453278
v 0.33196545 0.7795125 -2.0040994
v 0.345191 0.7795125 -2.1679275
v 0.6251385 -0.8189359 -2.1453278
v 0.6251385 0.7795125 -2.1453278
v 0.345191 0.7795125 -2.1679275
v 0.345191 -0.8189359 -2.1679275
v 0.7796582 -0.8189359 -1.9679581
v 0.7796582 0.7795125 -1.9679581
v 0.6251385 0.7795125 -2.1453278
v 0.6251385 -0.8189359 -2.1453278
v 0.33196545 0.7795125 -2.0040994
v 0.33196545 -0.8189359 -2.0040994
v 0.345191 -0.8189359 -2.1679275
v 0.345191 0.7795125 -2.1679275
v 0.5199833 0.7795125 -1.988921
v 0.3741938 0.7795125 -0.18298388
v 0.3741938 -0.8189359 -0.18298388
v 0.5199833 -0.8189359 -1.988921
v 0.5199833 -0.8189359 -1.988921
v 0.345191 -0.8189359 -2.1679275
v 0.33196545 -0.8189359 -2.0040994
v 0.6251385 -0.8189359 -2.1453278
v 0.7796582 -0.8189359 -1.9679581
v 0.6243086 -0.8189359 -0.04359764
v 0.3741938 -0.8189359 -0.18298388
v 0.44902456 -0.8189359 0.036238015
v -0.0011867285 -0.8189359 -0.000106573105
v 0.01591146 -0.8189359 -0.21190727
v 0.01591146 -0.8189359 -0.21190727
v 0.3741938 -0.8189359 -0.18298388
v 0.3741938 0.7795125 -0.18298388
v 0.01591146 0.7795125 -0.21190727
v 0.44902456 -0.8189359 0.036238015
v 0.44902456 0.7795125 0.036238015
v 0.6243086 0.7795125 -0.04359764
v 0.6243086 -0.8189359 -0.04359764
v -0.0011867285 0.7795125 -0.000106573105
v -0.0011867285 -0.8189359 -0.000106573105
v 0.01591146 -0.8189359 -0.21190727
v 0.01591146 0.7795125 -0.21190727
vt 0.58121425 0.85246384
vt 0.6978918 0.8524638
vt 0.6978918 0.45289925
vt 0.5812142 0.45289928
vt 1.5616127E-08 0
vt 0 0.48259774
vt 0.41878572 0.48259774
vt 0.4187857 0
vt 0.26057568 0.88216233
vt 0.26057568 0.48259774
vt 0.21184862 0.48259777
vt 0.21184866 0.88216233
vt 0.9317451 0.05311615
vt 0.8375715 0
vt 0.8375715 0.053116117
vt 0.9559084 4.014214E-08
vt 1 0.023417564
vt 0.99999994 0.5060154
vt 0.931745 0.5060154
vt 0.95590854 0.5471008
vt 0.882325 0.50601536
vt 0.882325 0.54710084
vt 0.07358349 0.88216233
vt 0.07358352 0.48259774
vt 1.5616127E-08 0.48259774
vt 0 0.88216233
vt 0.11767492 0.88216233
vt 0.11767493 0.48259774
vt 0.07358352 0.48259774
vt 0.07358349 0.88216233
vt 0.26057568 0.48259774
vt 0.26057568 0.88216233
vt 0.30363753 0.88216233
vt 0.30363753 0.48259774
vt 0.8375715 0.45289925
vt 0.83757144 0
vt 0.41878572 6.7047246E-08
vt 0.4187858 0.45289925
vt 0.51295924 0.49398467
vt 0.46353927 0.45289925
vt 0.46353924 0.49398467
vt 0.5371228 0.4528993
vt 0.5812142 0.4939846
vt 0.5812142 0.97658247
vt 0.5129593 0.9468839
vt 0.5371226 1
vt 0.41878572 1
vt 0.41878572 0.9468839
vt 0.21184856 0.48259774
vt 0.11767493 0.48259777
vt 0.11767502 0.88216233
vt 0.21184862 0.88216233
vt 0.6978918 0.45289925
vt 0.6978918 0.8524638
vt 0.7454609 0.8524638
vt 0.74546087 0.45289925
vt 0.7454609 0.45289925
vt 0.745461 0.8524638
vt 0.80113226 0.8524638
vt 0.8011322 0.45289925
vn -0.08046606 0 0.9967573
vn -0.08046606 0 0.9967573
vn -0.08046606 0 0.9967573
vn -0.08046606 0 0.9967573
vn 0.9967573 0 0.080466144
vn 0.9967573 0 0.080466144
vn 0.9967573 0 0.080466144
vn 0.9967573 0 0.080466144
vn -0.080466144 0 0.9967573
vn -0.080466144 0 0.9967573
vn -0.080466144 0 0.9967573
vn -0.080466144 0 0.9967573
vn -0 1 0
vn -0 1 0
vn -0 1 0
vn -0 1 0
vn -0 1 0
vn -0 1 0
vn -0 1 0
vn -0 1 0
vn -0 1 0
vn -0 1 0
vn 0.080466606 0 -0.9967573
vn 0.080466606 0 -0.9967573
vn 0.080466606 0 -0.9967573
vn 0.080466606 0 -0.9967573
vn 0.7540051 0 -0.6568686
vn 0.7540051 0 -0.6568686
vn 0.7540051 0 -0.6568686
vn 0.7540051 0 -0.6568686
vn -0.9967573 0 -0.08046644
vn -0.9967573 0 -0.08046644
vn -0.9967573 0 -0.08046644
vn -0.9967573 0 -0.08046644
vn -0.9967573 0 -0.080466114
vn -0.9967573 0 -0.080466114
vn -0.9967573 0 -0.080466114
vn -0.9967573 0 -0.080466114
vn -0 -1 0
vn -0 -1 0
vn -0 -1 0
vn -0 -1 0
vn -0 -1 0
vn -0 -1 0
vn -0 -1 0
vn -0 -1 0
vn -0 -1 0
vn -0 -1 0
vn 0.08046616 0 -0.9967573
vn 0.08046616 0 -0.9967573
vn 0.08046616 0 -0.9967573
vn 0.08046616 0 -0.9967573
vn 0.414496 0 0.91005117
vn 0.414496 0 0.91005117
vn 0.414496 0 0.91005117
vn 0.414496 0 0.91005117
vn -0.9967573 0 -0.08046595
vn -0.9967573 0 -0.08046595
vn -0.9967573 0 -0.08046595
vn -0.9967573 0 -0.08046595
g mdlGolemClampOpenable2_0
f 3/3/3 2/2/2 1/1/1
f 4/4/4 3/3/3 1/1/1
f 7/7/7 6/6/6 5/5/5
f 8/8/8 7/7/7 5/5/5
f 11/11/11 10/10/10 9/9/9
f 12/12/12 11/11/11 9/9/9
f 15/15/15 14/14/14 13/13/13
f 14/14/14 16/16/16 13/13/13
f 13/13/13 16/16/16 17/17/17
f 13/13/13 17/17/17 18/18/18
f 19/19/19 13/13/13 18/18/18
f 20/20/20 19/19/19 18/18/18
f 21/21/21 19/19/19 20/20/20
f 22/22/22 21/21/21 20/20/20
f 25/25/25 24/24/24 23/23/23
f 26/26/26 25/25/25 23/23/23
f 29/29/29 28/28/28 27/27/27
f 30/30/30 29/29/29 27/27/27
f 33/33/33 32/32/32 31/31/31
f 34/34/34 33/33/33 31/31/31
f 37/37/37 36/36/36 35/35/35
f 38/38/38 37/37/37 35/35/35
f 41/41/41 40/40/40 39/39/39
f 40/40/40 42/42/42 39/39/39
f 42/42/42 43/43/43 39/39/39
f 43/43/43 44/44/44 39/39/39
f 44/44/44 45/45/45 39/39/39
f 44/44/44 46/46/46 45/45/45
f 46/46/46 47/47/47 45/45/45
f 45/45/45 47/47/47 48/48/48
f 51/51/51 50/50/50 49/49/49
f 52/52/52 51/51/51 49/49/49
f 55/55/55 54/54/54 53/53/53
f 56/56/56 55/55/55 53/53/53
f 59/59/59 58/58/58 57/57/57
f 60/60/60 59/59/59 57/57/57
