g mdlGravityFieldCollision.003
v 37.095387 -3.865088 120.21663
v 32.405792 -10.453645 119.49097
v 20.447063 -1.0899478 114.54381
v 25.339296 5.3403397 115.35238
v 42.301357 0.96535444 116.27021
v 8.529051 9.042107 109.04629
v 30.797245 9.972281 111.51017
v 46.033974 2.1875846 109.15255
v 13.601402 15.322383 109.93518
v -3.2723804 19.683157 103.19046
v 34.735615 11.032572 104.478455
v 46.862186 -0.67086995 101.58441
v 19.281775 19.76523 106.19276
v 1.9177234 25.860268 104.135124
v -14.968217 30.607025 97.16607
v 35.644955 8.11071 96.94432
v 44.467377 -6.5171394 96.4639
v 23.399918 20.670633 99.24417
v 7.737335 30.177172 100.4592
v -9.715512 36.72818 98.140755
v -26.568274 41.593773 91.157974
v 33.175354 2.3235292 91.79274
v 39.767838 -13.112021 95.750015
v 24.37909 17.689144 91.74453
v 11.963021 30.983095 93.56444
v -3.831048 40.98381 94.49617
v -21.301786 47.704098 92.13787
v -38.07143 52.419205 85.351814
v 28.273748 -4.112434 90.99453
v 34.563534 -17.933123 99.71014
v 21.843513 11.960383 86.563385
v 12.978507 27.968325 86.08524
v 0.43697476 41.747578 87.6239
v -15.419211 51.960545 88.49055
v -32.839226 58.56387 86.312614
v -49.46553 62.854755 79.93359
v 22.817106 -8.736063 94.84926
v 30.841888 -19.143257 106.82447
v 16.76437 5.6766324 85.6818
v 10.395089 22.285099 80.8812
v 1.4575591 38.72736 80.149635
v -11.168029 52.737423 81.61043
v -27.025282 62.883568 82.6291
v -44.320385 69.08116 80.851295
v -60.773884 72.70909 75.06846
v -55.758854 79.05109 75.92839
v -38.64942 73.52996 77.09837
v -50.290123 83.674324 72.08655
v -22.85086 63.72944 75.71135
v -34.619244 74.504005 70.1135
v -46.45733 84.81588 65.018036
v -10.171384 49.73902 74.126114
v -21.908329 60.7809 68.20227
v -33.765568 71.63548 62.565144
v -45.719 82.04622 57.423584
v -1.1590538 33.07736 74.929214
v -12.809017 44.111126 68.89547
v -24.555872 55.164642 62.967323
v -36.411716 66.02052 57.331635
v -48.353024 76.42403 52.196392
v 5.2012286 16.106514 79.941
v -6.412629 26.95642 73.956535
v -18.073542 38.002655 67.91528
v -29.78321 49.02362 62.003826
v -41.54891 59.799934 56.408516
v -53.356537 70.09053 51.327835
v 11.085114 1.2397985 89.43284
v -0.6173259 11.793314 83.62156
v -12.296052 22.702438 77.60214
v -23.955072 33.745926 71.560104
v -35.596115 44.70169 65.68116
v -47.21888 55.346855 60.151093
v -58.82432 65.46063 55.154385
v 18.888918 -9.785539 101.87835
v 30.018795 -16.286674 114.37687
v 6.9744544 0.34158945 96.37945
v 17.984562 -6.865307 109.39834
v 32.405792 -10.453645 119.49097
v 20.447063 -1.0899478 114.54381
v 5.9987926 3.3215058 103.86923
v 8.529051 9.042107 109.04629
v -4.838601 10.991161 90.51471
v -5.852418 14.004552 97.98828
v -3.2723804 19.683157 103.19046
v -16.562557 21.939474 84.47304
v -17.583246 24.958538 91.94542
v -14.968217 30.607025 97.16607
v -28.20757 32.96701 78.439
v -29.206074 35.96444 85.92503
v -26.568274 41.593773 91.157974
v -39.774757 43.850807 72.5978
v -40.72094 46.798466 80.11235
v -38.07143 52.419205 85.351814
v -51.256397 54.36435 67.134995
v -62.66805 64.30647 62.222088
v -52.1156 57.231934 74.69309
v -49.46553 62.854755 79.93359
v -63.41407 67.075005 69.83131
v -60.773884 72.70909 75.06846
vt 0.907402 3.9107163
vt 0.998171 3.9092138
vt 0.998171 3.6617875
vt 0.9037469 3.6634798
vt 0.8064302 3.9120078
vt 0.998171 3.4065683
vt 0.803634 3.6649582
vt 0.70376545 3.9130144
vt 0.8993438 3.4083135
vt 0.998171 3.1461267
vt 0.70209056 3.666118
vt 0.5999315 3.9135
vt 0.80011743 3.4098523
vt 0.8950699 3.1476908
vt 0.998171 2.883075
vt 0.59959763 3.666786
vt 0.49630657 3.9132402
vt 0.69987464 3.4110467
vt 0.79665744 3.1490748
vt 0.8913589 2.8843985
vt 0.998171 2.6201131
vt 0.49711415 3.6665428
vt 0.39376277 3.912591
vt 0.5989717 3.4117165
vt 0.6976555 3.150132
vt 0.7936246 2.885582
vt 0.8881989 2.6212463
vt 0.998171 2.360098
vt 0.39556575 3.6658108
vt 0.292903 3.9117105
vt 0.4980737 3.4115548
vt 0.598297 3.150708
vt 0.6956967 2.8864746
vt 0.7910033 2.6222825
vt 0.8854373 2.3611076
vt 0.998171 2.1059198
vt 0.29545623 3.6647637
vt 0.19363728 3.9107318
vt 0.39785507 3.4108481
vt 0.49897784 3.150616
vt 0.5976909 2.8869429
vt 0.69399494 2.623054
vt 0.78866035 2.362067
vt 0.8829366 2.1068358
vt 0.998171 1.8604002
vt 0.88072354 1.8611302
vt 0.7864689 2.1077595
vt 0.7844271 1.8619487
vt 0.69246596 2.362772
vt 0.69102705 2.108428
vt 0.6896716 1.8625255
vt 0.5971748 2.6234345
vt 0.5967339 2.3630912
vt 0.59635276 2.1086936
vt 0.59604156 1.862696
vt 0.4997691 2.8868926
vt 0.50048876 2.623411
vt 0.5011926 2.3630862
vt 0.5019344 2.108706
vt 0.50274956 1.8627374
vt 0.40009192 3.1500173
vt 0.40207446 2.886395
vt 0.4038498 2.6229758
vt 0.4055236 2.3626757
vt 0.40720093 2.1082938
vt 0.40892634 1.8623546
vt 0.29865867 3.4097655
vt 0.30181092 3.1490498
vt 0.30461735 2.8855562
vt 0.30710757 2.6222193
vt 0.30940342 2.3619425
vt 0.31162676 2.1075432
vt 0.31380785 1.8616217
vt 0.19671535 3.663567
vt 0.095175095 3.9094977
vt 0.20043164 3.408491
vt 0.098766364 3.6622877
vt 0.0049209646 3.9080706
vt 0.0049209646 3.6606824
vt 0.102770664 3.4071314
vt 0.0049209646 3.4055514
vt 0.20408136 3.1478713
vt 0.106658466 3.1465974
vt 0.0049209646 3.145192
vt 0.2073251 2.8845143
vt 0.11007849 2.8833835
vt 0.0049209646 2.8822055
vt 0.21015584 2.6212718
vt 0.11298046 2.6202607
vt 0.0049209646 2.619298
vt 0.21267816 2.3610327
vt 0.115434475 2.360097
vt 0.0049209646 2.3593247
vt 0.21499348 2.106628
vt 0.2170937 1.8607378
vt 0.117499955 2.1057425
vt 0.0049209646 2.1051726
vt 0.11911882 1.8599454
vt 0.0049209646 1.8596529
vn -0.10913608 0.351854 0.929671
vn -0.47185653 -0.14295168 0.8700093
vn -0.48550168 -0.13217928 0.8641857
vn -0.11490334 0.35597146 0.9274058
vn 0.29609737 0.7136917 0.63479954
vn -0.50745136 -0.11270931 0.8542774
vn 0.30045885 0.7096871 0.6372352
vn 0.58870995 0.8026476 0.09579889
vn -0.122748606 0.36440036 0.9231171
vn -0.52052796 -0.100040495 0.84796375
vn 0.6017484 0.7921582 0.10190384
vn 0.65515757 0.58282685 -0.4807093
vn 0.30953008 0.7033859 0.6398746
vn -0.1263491 0.36955586 0.9205783
vn -0.525599 -0.09448695 0.84546906
vn 0.6717648 0.569616 -0.47357115
vn 0.46926275 0.13858756 -0.8721158
vn 0.6240621 0.77345484 0.11096878
vn 0.31651217 0.6985791 0.64172226
vn -0.12616561 0.37114173 0.9199652
vn -0.5233783 -0.095770076 0.84670144
vn 0.48269406 0.12738778 -0.8664749
vn 0.10327682 -0.35838643 -0.9278433
vn 0.6991565 0.54637915 -0.46113995
vn 0.6387053 0.7605073 0.116979994
vn 0.3216397 0.6951617 0.64288265
vn -0.12241292 0.3693446 0.9211947
vn -0.5137867 -0.10391706 0.85160106
vn 0.10828295 -0.3630897 -0.9254408
vn -0.30144033 -0.7171148 -0.62839484
vn 0.50536364 0.10922739 -0.85596555
vn 0.71624917 0.53093815 -0.45287067
vn 0.6465628 0.75338227 0.11988193
vn 0.32524174 0.6930576 0.643342
vn -0.11493528 0.364094 0.9242432
vn -0.49587876 -0.119300224 0.86015797
vn -0.306537 -0.7133913 -0.6301649
vn -0.5904181 -0.80200547 -0.090518974
vn 0.117864974 -0.3693123 -0.92180055
vn 0.5191542 0.09784306 -0.84906167
vn 0.7241874 0.5234328 -0.44896626
vn 0.6484119 0.75181115 0.11975752
vn 0.3274684 0.6923225 0.6430039
vn -0.1031235 0.35527098 0.9290576
vn -0.48457497 -0.12888023 0.8652035
vn -0.09610332 0.34986612 0.9318573
vn 0.32838425 0.692964 0.64184475
vn 0.3283862 0.693609 0.64114654
vn 0.64432544 0.75581276 0.116584085
vn 0.6337522 0.76562375 0.11035578
vn 0.6266132 0.772005 0.10660238
vn 0.7239212 0.523561 -0.4492462
vn 0.71542746 0.5313671 -0.4536656
vn 0.6977922 0.5472407 -0.46218356
vn 0.68637997 0.55725265 -0.4672816
vn 0.5248652 0.093388036 -0.8460468
vn 0.52328926 0.09567899 -0.8467667
vn 0.5143388 0.104894236 -0.8511479
vn 0.49712375 0.12143504 -0.8591399
vn 0.48620123 0.13162927 -0.86387616
vn 0.123419054 -0.37236297 -0.91984427
vn 0.12506898 -0.37215495 -0.91970557
vn 0.12314543 -0.36864278 -0.92137814
vn 0.11752975 -0.36162296 -0.9248868
vn 0.10767292 -0.3507305 -0.93026596
vn 0.101507954 -0.34432134 -0.93334824
vn -0.31395334 -0.7058228 -0.63501775
vn -0.31901756 -0.699867 -0.6390727
vn -0.32228473 -0.6954758 -0.64221954
vn -0.32408583 -0.6924859 -0.6445399
vn -0.32447973 -0.6907402 -0.64621276
vn -0.32347098 -0.6901874 -0.6473082
vn -0.32268324 -0.6902302 -0.6476555
vn -0.6036788 -0.7914358 -0.09592329
vn -0.6551596 -0.5827981 0.48074135
vn -0.62540567 -0.77293694 -0.10694034
vn -0.6716699 -0.5695522 0.47378242
vn -0.47185653 -0.14295168 0.8700093
vn -0.48550168 -0.13217928 0.8641857
vn -0.69904745 -0.54651135 0.4611485
vn -0.50745136 -0.11270931 0.8542774
vn -0.639383 -0.76024014 -0.11499738
vn -0.71622705 -0.5312495 0.45254025
vn -0.52052796 -0.100040495 0.84796375
vn -0.64658767 -0.7533757 -0.119789325
vn -0.7242609 -0.5238997 0.4483026
vn -0.525599 -0.09448695 0.84546906
vn -0.64779055 -0.752073 -0.121464536
vn -0.72405636 -0.5242198 0.4482588
vn -0.5233783 -0.095770076 0.84670144
vn -0.64307576 -0.756303 -0.12024671
vn -0.7156666 -0.53221786 0.4522891
vn -0.5137867 -0.10391706 0.85160106
vn -0.63183916 -0.76633734 -0.11621716
vn -0.62447804 -0.77276945 -0.113377765
vn -0.6981319 -0.5483731 0.46032456
vn -0.49587876 -0.119300224 0.86015797
vn -0.686745 -0.55841136 0.46535808
vn -0.48457497 -0.12888023 0.8652035
g mdlGravityFieldCollision.003_0
f 3/3/3 2/2/2 1/1/1
f 4/4/4 3/3/3 1/1/1
f 4/4/4 1/1/1 5/5/5
f 6/6/6 3/3/3 4/4/4
f 7/7/7 4/4/4 5/5/5
f 7/7/7 5/5/5 8/8/8
f 9/9/9 6/6/6 4/4/4
f 9/9/9 4/4/4 7/7/7
f 10/10/10 6/6/6 9/9/9
f 11/11/11 7/7/7 8/8/8
f 11/11/11 8/8/8 12/12/12
f 13/13/13 9/9/9 7/7/7
f 13/13/13 7/7/7 11/11/11
f 14/14/14 10/10/10 9/9/9
f 14/14/14 9/9/9 13/13/13
f 15/15/15 10/10/10 14/14/14
f 16/16/16 11/11/11 12/12/12
f 16/16/16 12/12/12 17/17/17
f 18/18/18 13/13/13 11/11/11
f 18/18/18 11/11/11 16/16/16
f 19/19/19 14/14/14 13/13/13
f 19/19/19 13/13/13 18/18/18
f 20/20/20 15/15/15 14/14/14
f 20/20/20 14/14/14 19/19/19
f 21/21/21 15/15/15 20/20/20
f 22/22/22 16/16/16 17/17/17
f 22/22/22 17/17/17 23/23/23
f 24/24/24 18/18/18 16/16/16
f 24/24/24 16/16/16 22/22/22
f 25/25/25 19/19/19 18/18/18
f 25/25/25 18/18/18 24/24/24
f 26/26/26 20/20/20 19/19/19
f 26/26/26 19/19/19 25/25/25
f 27/27/27 21/21/21 20/20/20
f 27/27/27 20/20/20 26/26/26
f 28/28/28 21/21/21 27/27/27
f 29/29/29 22/22/22 23/23/23
f 29/29/29 23/23/23 30/30/30
f 31/31/31 24/24/24 22/22/22
f 31/31/31 22/22/22 29/29/29
f 32/32/32 25/25/25 24/24/24
f 32/32/32 24/24/24 31/31/31
f 33/33/33 26/26/26 25/25/25
f 33/33/33 25/25/25 32/32/32
f 34/34/34 27/27/27 26/26/26
f 34/34/34 26/26/26 33/33/33
f 35/35/35 28/28/28 27/27/27
f 35/35/35 27/27/27 34/34/34
f 36/36/36 28/28/28 35/35/35
f 37/37/37 29/29/29 30/30/30
f 37/37/37 30/30/30 38/38/38
f 39/39/39 31/31/31 29/29/29
f 39/39/39 29/29/29 37/37/37
f 40/40/40 32/32/32 31/31/31
f 40/40/40 31/31/31 39/39/39
f 41/41/41 33/33/33 32/32/32
f 41/41/41 32/32/32 40/40/40
f 42/42/42 34/34/34 33/33/33
f 42/42/42 33/33/33 41/41/41
f 43/43/43 35/35/35 34/34/34
f 43/43/43 34/34/34 42/42/42
f 44/44/44 36/36/36 35/35/35
f 44/44/44 35/35/35 43/43/43
f 45/45/45 36/36/36 44/44/44
f 46/46/46 45/45/45 44/44/44
f 46/46/46 44/44/44 47/47/47
f 47/47/47 44/44/44 43/43/43
f 48/48/48 46/46/46 47/47/47
f 49/49/49 43/43/43 42/42/42
f 47/47/47 43/43/43 49/49/49
f 48/48/48 47/47/47 50/50/50
f 50/50/50 47/47/47 49/49/49
f 51/51/51 48/48/48 50/50/50
f 52/52/52 42/42/42 41/41/41
f 49/49/49 42/42/42 52/52/52
f 50/50/50 49/49/49 53/53/53
f 53/53/53 49/49/49 52/52/52
f 51/51/51 50/50/50 54/54/54
f 54/54/54 50/50/50 53/53/53
f 55/55/55 51/51/51 54/54/54
f 52/52/52 41/41/41 56/56/56
f 56/56/56 41/41/41 40/40/40
f 53/53/53 52/52/52 57/57/57
f 57/57/57 52/52/52 56/56/56
f 54/54/54 53/53/53 58/58/58
f 58/58/58 53/53/53 57/57/57
f 55/55/55 54/54/54 59/59/59
f 59/59/59 54/54/54 58/58/58
f 60/60/60 55/55/55 59/59/59
f 56/56/56 40/40/40 61/61/61
f 61/61/61 40/40/40 39/39/39
f 57/57/57 56/56/56 62/62/62
f 62/62/62 56/56/56 61/61/61
f 58/58/58 57/57/57 63/63/63
f 63/63/63 57/57/57 62/62/62
f 59/59/59 58/58/58 64/64/64
f 64/64/64 58/58/58 63/63/63
f 60/60/60 59/59/59 65/65/65
f 65/65/65 59/59/59 64/64/64
f 66/66/66 60/60/60 65/65/65
f 61/61/61 39/39/39 67/67/67
f 67/67/67 39/39/39 37/37/37
f 62/62/62 61/61/61 68/68/68
f 68/68/68 61/61/61 67/67/67
f 63/63/63 62/62/62 69/69/69
f 69/69/69 62/62/62 68/68/68
f 64/64/64 63/63/63 70/70/70
f 70/70/70 63/63/63 69/69/69
f 65/65/65 64/64/64 71/71/71
f 71/71/71 64/64/64 70/70/70
f 66/66/66 65/65/65 72/72/72
f 72/72/72 65/65/65 71/71/71
f 73/73/73 66/66/66 72/72/72
f 67/67/67 37/37/37 74/74/74
f 74/74/74 37/37/37 38/38/38
f 74/74/74 38/38/38 75/75/75
f 68/68/68 67/67/67 76/76/76
f 76/76/76 67/67/67 74/74/74
f 77/77/77 74/74/74 75/75/75
f 76/76/76 74/74/74 77/77/77
f 77/77/77 75/75/75 78/78/78
f 79/79/79 77/77/77 78/78/78
f 80/80/80 77/77/77 79/79/79
f 80/80/80 76/76/76 77/77/77
f 81/81/81 80/80/80 79/79/79
f 82/82/82 68/68/68 76/76/76
f 82/82/82 76/76/76 80/80/80
f 69/69/69 68/68/68 82/82/82
f 83/83/83 80/80/80 81/81/81
f 83/83/83 82/82/82 80/80/80
f 84/84/84 83/83/83 81/81/81
f 85/85/85 69/69/69 82/82/82
f 85/85/85 82/82/82 83/83/83
f 70/70/70 69/69/69 85/85/85
f 86/86/86 83/83/83 84/84/84
f 86/86/86 85/85/85 83/83/83
f 87/87/87 86/86/86 84/84/84
f 88/88/88 70/70/70 85/85/85
f 88/88/88 85/85/85 86/86/86
f 71/71/71 70/70/70 88/88/88
f 89/89/89 86/86/86 87/87/87
f 89/89/89 88/88/88 86/86/86
f 90/90/90 89/89/89 87/87/87
f 91/91/91 71/71/71 88/88/88
f 91/91/91 88/88/88 89/89/89
f 72/72/72 71/71/71 91/91/91
f 92/92/92 89/89/89 90/90/90
f 92/92/92 91/91/91 89/89/89
f 93/93/93 92/92/92 90/90/90
f 94/94/94 72/72/72 91/91/91
f 94/94/94 91/91/91 92/92/92
f 73/73/73 72/72/72 94/94/94
f 95/95/95 73/73/73 94/94/94
f 96/96/96 92/92/92 93/93/93
f 96/96/96 94/94/94 92/92/92
f 95/95/95 94/94/94 96/96/96
f 97/97/97 96/96/96 93/93/93
f 98/98/98 95/95/95 96/96/96
f 98/98/98 96/96/96 97/97/97
f 99/99/99 98/98/98 97/97/97
