g mdlIcoRockM
v -2.4045973 1.7081766 -0.76198226
v -2.5118513 1.0169691 -1.380721
v -2.5977015 0.15378128 -1.5983484
v -2.5118513 1.0169691 -1.380721
v -2.564282 0.5875595 -1.4977978
v -2.5977015 0.15378128 -1.5983484
v -1.7169075 2.4193447 -0.6958832
v -2.4045973 1.7081766 -0.76198226
v -1.4321471 -0.66922015 -2.453368
v -0.14819553 2.2938437 -1.8787621
v 0.09884088 -0.13753499 -2.832201
v 0.43111807 1.7150174 -2.3044183
v 2.8070092 0.8098168 -0.20148727
v 2.4468596 0.9097321 -0.84598684
v 2.532198 0.4490332 -1.2275221
v 0.086568706 -2.7629845 1.0994118
v 1.9775064 -2.0710123 0.8906479
v 2.2294683 -1.8103358 0.842687
v 2.966184 -0.55695 0.31832057
v 2.9683735 -0.6282039 0.42588648
v 2.9836533 -0.3560299 0.39461234
v 2.9209964 -0.5385523 0.15438075
v 2.4863021 0.45711362 -1.30729
v 1.6905211 -0.8431574 -2.058114
v 1.740392 -1.1245611 -1.8862066
v 2.532198 0.4490332 -1.2275221
v 2.884933 0.7494571 0.58797294
v 2.8070092 0.8098168 -0.20148727
v -1.4202365 -2.5091805 -0.2532411
v -1.582819 -2.3973675 -0.44219753
v -0.8337833 -2.4482148 1.2603586
v -0.22568531 -2.8811257 0.34009945
v 0.086568706 -2.7629845 1.0994118
v 0.06361961 0.18328287 2.9901273
v 2.1311781 -1.5805544 1.3325781
v 1.9775064 -2.0710123 0.8906479
v 0.086568706 -2.7629845 1.0994118
v -0.8337833 -2.4482148 1.2603586
v -0.14765035 0.11373729 2.9850771
v -0.98383594 -1.615719 2.0429556
v -1.1659501 -0.84278905 2.5014112
v -1.0198913 -1.5122478 2.097493
v -1.7169075 2.4193447 -0.6958832
v -0.14819553 2.2938437 -1.8787621
v 0.5015062 2.7488484 -1.0212944
v 0.42612088 2.7686803 0.37295315
v -1.4995791 2.5926464 0.1985852
v -0.4330675 2.6662657 1.0459851
v 2.9209964 -0.5385523 0.15438075
v 1.740392 -1.1245611 -1.8862066
v 1.0181512 -1.9317788 -1.721194
v 0.96726036 -2.636659 -0.057963
v 2.2294683 -1.8103358 0.842687
v 2.966184 -0.55695 0.31832057
v 2.9683735 -0.6282039 0.42588648
v 2.6180532 -1.242509 0.84254664
v 1.0181512 -1.9317788 -1.721194
v 1.740392 -1.1245611 -1.8862066
v 1.6905211 -0.8431574 -2.058114
v 0.56019926 -0.958343 -2.704413
v 0.11277626 -1.5295837 -2.5362697
v 0.11277626 -1.5295837 -2.5362697
v 0.56019926 -0.958343 -2.704413
v 0.09884088 -0.13753499 -2.832201
v -2.0084233 -1.6497595 -1.3251686
v -1.4321471 -0.66922015 -2.453368
v 2.884933 0.7494571 0.58797294
v 2.9836533 -0.3560299 0.39461234
v 2.9683735 -0.6282039 0.42588648
v 2.6180532 -1.242509 0.84254664
v 2.382625 1.1538411 1.195615
v 2.1311781 -1.5805544 1.3325781
v 0.69980055 0.7037083 2.771365
v 0.06361961 0.18328287 2.9901273
v -0.98383594 -1.615719 2.0429556
v -0.8337833 -2.4482148 1.2603586
v -1.582819 -2.3973675 -0.44219753
v -1.8334334 -2.1873958 -0.8575475
v -1.9902525 -2.0024045 -0.98196894
v -2.1076603 -1.8244395 -1.0580902
v -2.7067704 -1.0944512 -0.41535303
v -1.0198913 -1.5122478 2.097493
v -1.1659501 -0.84278905 2.5014112
v -2.3797202 0.1381302 1.5687047
v 0.5015062 2.7488484 -1.0212944
v 1.7265551 1.7426081 -1.4899507
v 2.4863021 0.45711362 -1.30729
v 2.532198 0.4490332 -1.2275221
v 2.4468596 0.9097321 -0.84598684
v 0.42612088 2.7686803 0.37295315
v 2.8070092 0.8098168 -0.20148727
v 2.884933 0.7494571 0.58797294
v 1.2677984 2.0188284 1.5371563
v 2.382625 1.1538411 1.195615
v 0.29753444 2.1735735 1.6077915
v 0.9499977 1.8798394 1.9718235
v 0.69980055 0.7037083 2.771365
v 0.06361961 0.18328287 2.9901273
v 0.024304768 2.445956 1.3381875
v -0.14765035 0.11373729 2.9850771
v -0.4330675 2.6662657 1.0459851
v -2.2447832 0.90324295 1.653906
v -2.157586 1.8127344 1.1186626
v -2.7067704 -1.0944512 -0.41535303
v -2.1076603 -1.8244395 -1.0580902
v -2.1332 -1.7383058 -1.0940388
v -2.0084233 -1.6497595 -1.3251686
v -2.0905557 -1.7444195 -1.1776994
v -1.4321471 -0.66922015 -2.453368
v -2.5977015 0.15378128 -1.5983484
v 1.0181512 -1.9317788 -1.721194
v 0.11277626 -1.5295837 -2.5362697
v -2.0084233 -1.6497595 -1.3251686
v 0.96726036 -2.636659 -0.057963
v -2.0905557 -1.7444195 -1.1776994
v -2.1332 -1.7383058 -1.0940388
v -2.1076603 -1.8244395 -1.0580902
v -1.9902525 -2.0024045 -0.98196894
v -1.8334334 -2.1873958 -0.8575475
v -1.582819 -2.3973675 -0.44219753
v -1.4202365 -2.5091805 -0.2532411
v -0.22568531 -2.8811257 0.34009945
v -2.160457 2.0383286 0.26477095
v -1.4995791 2.5926464 0.1985852
v -0.4330675 2.6662657 1.0459851
v -2.1584804 2.0345623 0.36001584
v -2.2222059 1.8917389 0.8871957
v -2.157586 1.8127344 1.1186626
v -1.7169075 2.4193447 -0.6958832
v -1.4995791 2.5926464 0.1985852
v -2.160457 2.0383286 0.26477095
v -2.4045973 1.7081766 -0.76198226
v -2.2222059 1.8917389 0.8871957
v -2.1584804 2.0345623 0.36001584
v 1.2677984 2.0188284 1.5371563
v 2.382625 1.1538411 1.195615
v 0.69980055 0.7037083 2.771365
v 0.9499977 1.8798394 1.9718235
v 1.9775064 -2.0710123 0.8906479
v 2.1311781 -1.5805544 1.3325781
v 2.6180532 -1.242509 0.84254664
v 2.2294683 -1.8103358 0.842687
v -0.14765035 0.11373729 2.9850771
v -1.1659501 -0.84278905 2.5014112
v -2.3797202 0.1381302 1.5687047
v -2.2447832 0.90324295 1.653906
v 1.6905211 -0.8431574 -2.058114
v 2.4863021 0.45711362 -1.30729
v 1.7265551 1.7426081 -1.4899507
v 0.43111807 1.7150174 -2.3044183
v 0.56019926 -0.958343 -2.704413
v 0.09884088 -0.13753499 -2.832201
v -0.4330675 2.6662657 1.0459851
v 0.42612088 2.7686803 0.37295315
v 1.2677984 2.0188284 1.5371563
v 0.024304768 2.445956 1.3381875
v 0.29753444 2.1735735 1.6077915
v 0.9499977 1.8798394 1.9718235
v 0.43111807 1.7150174 -2.3044183
v 1.7265551 1.7426081 -1.4899507
v 0.5015062 2.7488484 -1.0212944
v -0.14819553 2.2938437 -1.8787621
v -2.3797202 0.1381302 1.5687047
v -2.7067704 -1.0944512 -0.41535303
v -2.5977015 0.15378128 -1.5983484
v -2.2447832 0.90324295 1.653906
v -2.564282 0.5875595 -1.4977978
v -2.5118513 1.0169691 -1.380721
v -2.157586 1.8127344 1.1186626
v -2.4045973 1.7081766 -0.76198226
v -2.2222059 1.8917389 0.8871957
v 2.2294683 -1.8103358 0.842687
v 0.96726036 -2.636659 -0.057963
v -0.22568531 -2.8811257 0.34009945
v 0.086568706 -2.7629845 1.0994118
vt 0.68591815 0.13233364
vt 0.6976904 0.22089669
vt 0.6978532 0.310783
vt 0.6976904 0.22089669
vt 0.69737214 0.2660779
vt 0.6978532 0.310783
vt 0.73282987 0.052942824
vt 0.68591815 0.13233364
vt 0.8066451 0.40076706
vt 0.88122857 0.08333399
vt 0.92705977 0.3413188
vt 0.93516105 0.14396396
vt 0.47030047 0.49441737
vt 0.52523166 0.47600344
vt 0.5409815 0.43332052
vt 0.048958853 0.8623696
vt 0.09121662 0.666058
vt 0.10679516 0.6385429
vt 0.399658 0.38951966
vt 0.39028403 0.3850374
vt 0.39832875 0.4092914
vt 0.4126661 0.3864103
vt 0.54770774 0.43060067
vt 0.5867232 0.26630497
vt 0.567206 0.24654385
vt 0.5409815 0.43332052
vt 0.4107202 0.5052816
vt 0.47030047 0.49441737
vt 0.0015479871 0.98772347
vt 0 1.0000001
vt 0.07277578 0.95504117
vt 0.007540618 0.8810897
vt 0.048958853 0.8623696
vt 0.31945845 0.879693
vt 0.1422931 0.65543556
vt 0.09121662 0.666058
vt 0.048958853 0.8623696
vt 0.07277578 0.95504117
vt 0.31401348 0.90108943
vt 0.15938735 0.978545
vt 0.22809719 1
vt 0.16824888 0.9824633
vt 0 0.21681657
vt 0.02418143 0.41180062
vt 0.081613414 0.41020632
vt 0.14471255 0.31228292
vt 0.047886945 0.17625605
vt 0.13869965 0.20143712
vt 0.4126661 0.3864103
vt 0.567206 0.24654385
vt 0.54992896 0.14376293
vt 0.41529304 0.10548707
vt 0.346812 0.25236145
vt 0.399658 0.38951966
vt 0.39028403 0.3850374
vt 0.35269266 0.32085225
vt 0.54992896 0.14376293
vt 0.567206 0.24654385
vt 0.5867232 0.26630497
vt 0.65040886 0.19247328
vt 0.63337237 0.12356251
vt 0.9171537 0.46066874
vt 0.9545963 0.4064625
vt 0.92705977 0.3413188
vt 0.72875214 0.46066874
vt 0.8066451 0.40076706
vt 0.26252177 0.55344826
vt 0.18358028 0.54688287
vt 0.16739939 0.55057716
vt 0.14464504 0.5963911
vt 0.31284195 0.6116179
vt 0.1422931 0.65543556
vt 0.34574232 0.8093567
vt 0.31945845 0.879693
vt 0.5291146 0.50528175
vt 0.4436637 0.51501024
vt 0.35692284 0.65267587
vt 0.346812 0.6986627
vt 0.350157 0.7200678
vt 0.35583612 0.7372312
vt 0.42334446 0.73174006
vt 0.53749776 0.50744855
vt 0.5951702 0.51749235
vt 0.595515 0.6523185
vt 0.081613414 0.41020632
vt 0.15443754 0.5196336
vt 0.2457536 0.54688287
vt 0.25215307 0.54493666
vt 0.2502474 0.5196002
vt 0.14471255 0.31228292
vt 0.30264553 0.50258833
vt 0.346812 0.4552357
vt 0.2687517 0.28803232
vt 0.33735418 0.3826832
vt 0.21908623 0.21236713
vt 0.27907097 0.23330079
vt 0.346812 0.14501539
vt 0.34444457 0.07530329
vt 0.18304673 0.21345453
vt 0.3362682 0.058746137
vt 0.13869965 0.20143712
vt 0.14109887 0
vt 0.08751602 0.054749798
vt 0.42334446 0.73174006
vt 0.35583612 0.7372312
vt 0.35898516 0.74549484
vt 0.3546862 0.7695334
vt 0.35511574 0.75178635
vt 0.3661497 0.92143
vt 0.44287592 0.90445894
vt 0.54992896 0.14376293
vt 0.63337237 0.12356251
vt 0.5803786 0.03189175
vt 0.41529304 0.10548707
vt 0.5690771 0.021990232
vt 0.5639281 0.02184018
vt 0.5589763 0.016013095
vt 0.5474864 0.007057564
vt 0.53167385 0.000109882036
vt 0.4927108 0
vt 0.47377685 0.0008074613
vt 0.40194666 0.033831872
vt 0.03811093 0.1143351
vt 0.047886945 0.17625605
vt 0.13869965 0.20143712
vt 0.04295128 0.108111545
vt 0.07036129 0.066338316
vt 0.08751602 0.054749798
vt 0.6316149 0.9765233
vt 0.6871441 0.9166594
vt 0.6495636 0.8758579
vt 0.57802826 0.9363026
vt 0.6697754 0.8171594
vt 0.65390444 0.86806315
vt 0.2687517 0.28803232
vt 0.33735418 0.3826832
vt 0.346812 0.14501539
vt 0.27907097 0.23330079
vt 0.09121662 0.666058
vt 0.1422931 0.65543556
vt 0.14464504 0.5963911
vt 0.10679516 0.6385429
vt 0.68714404 0.5403425
vt 0.5951702 0.51749235
vt 0.595515 0.6523185
vt 0.6469219 0.6939382
vt 0.5867232 0.26630497
vt 0.54770774 0.43060067
vt 0.60270894 0.50528175
vt 0.6833359 0.4287143
vt 0.65040886 0.19247328
vt 0.68591815 0.24110405
vt 0.13869965 0.20143712
vt 0.14471255 0.31228292
vt 0.2687517 0.28803232
vt 0.18304673 0.21345453
vt 0.21908623 0.21236713
vt 0.27907097 0.23330079
vt 0.93516105 0.14396396
vt 0.99999994 0.092310406
vt 0.8996733 0
vt 0.88122857 0.08333399
vt 0.595515 0.6523185
vt 0.42334446 0.73174006
vt 0.44287592 0.90445894
vt 0.6469219 0.6939382
vt 0.4740207 0.9238706
vt 0.5059096 0.9417121
vt 0.67682713 0.7938631
vt 0.57802826 0.9363026
vt 0.6697754 0.8171594
vt 0.10679516 0.6385429
vt 0.010395813 0.75378805
vt 0.007540618 0.8810897
vt 0.048958853 0.8623696
vn -0.38929808 0.38539168 -0.8366124
vn -0.38929808 0.38539168 -0.8366124
vn -0.38929808 0.38539168 -0.8366124
vn -0.38929808 0.38539168 -0.8366124
vn -0.38929808 0.38539168 -0.8366124
vn -0.38929808 0.38539168 -0.8366124
vn -0.38929808 0.38539168 -0.8366124
vn -0.38929808 0.38539168 -0.8366124
vn -0.38929808 0.38539168 -0.8366124
vn -0.38929808 0.38539168 -0.8366124
vn -0.38929808 0.38539168 -0.8366124
vn -0.38929808 0.38539168 -0.8366124
vn 0.69577837 0.7141205 -0.07696961
vn 0.7548335 0.623509 -0.20362468
vn 0.71301425 0.6924445 -0.1101429
vn 0.3585109 -0.9293756 0.087926276
vn 0.3585109 -0.9293756 0.087926276
vn 0.3585109 -0.9293756 0.087926276
vn 0.92725164 -0.12698857 -0.35224757
vn 0.92725164 -0.12698857 -0.35224757
vn 0.92725164 -0.12698857 -0.35224757
vn 0.92725164 -0.12698857 -0.35224757
vn 0.92725164 -0.12698857 -0.35224757
vn 0.92725164 -0.12698857 -0.35224757
vn 0.92725164 -0.12698857 -0.35224757
vn 0.92725164 -0.12698857 -0.35224757
vn 0.92725164 -0.12698857 -0.35224757
vn 0.92725164 -0.12698857 -0.35224757
vn -0.38273636 -0.89740545 0.21949126
vn -0.38273636 -0.89740545 0.21949126
vn -0.38273636 -0.89740545 0.21949126
vn -0.38273636 -0.89740545 0.21949126
vn -0.38273636 -0.89740545 0.21949126
vn 0.17429478 -0.5553872 0.8131214
vn 0.17429478 -0.5553872 0.8131214
vn 0.17429478 -0.5553872 0.8131214
vn 0.17429478 -0.5553872 0.8131214
vn 0.17429478 -0.5553872 0.8131214
vn 0.17429478 -0.5553872 0.8131214
vn 0.17429478 -0.5553872 0.8131214
vn 0.17429478 -0.5553872 0.8131214
vn 0.17429478 -0.5553872 0.8131214
vn -0.1370007 0.98180276 -0.13150723
vn -0.1370007 0.98180276 -0.13150723
vn -0.1370007 0.98180276 -0.13150723
vn -0.1370007 0.98180276 -0.13150723
vn -0.1370007 0.98180276 -0.13150723
vn -0.1370007 0.98180276 -0.13150723
vn 0.71588844 -0.6389495 -0.28150892
vn 0.71588844 -0.6389495 -0.28150892
vn 0.71588844 -0.6389495 -0.28150892
vn 0.71588844 -0.6389495 -0.28150892
vn 0.71588844 -0.6389495 -0.28150892
vn 0.71588844 -0.6389495 -0.28150892
vn 0.71588844 -0.6389495 -0.28150892
vn 0.71588844 -0.6389495 -0.28150892
vn 0.43449813 -0.5162889 -0.7380089
vn 0.43449813 -0.5162889 -0.7380089
vn 0.43449813 -0.5162889 -0.7380089
vn 0.43449813 -0.5162889 -0.7380089
vn 0.43449813 -0.5162889 -0.7380089
vn -0.2701518 -0.41572613 -0.8684409
vn -0.2701518 -0.41572613 -0.8684409
vn -0.2701518 -0.41572613 -0.8684409
vn -0.2701518 -0.41572613 -0.8684409
vn -0.2701518 -0.41572613 -0.8684409
vn 0.676095 -0.06717307 0.73374605
vn 0.676095 -0.06717307 0.73374605
vn 0.676095 -0.06717307 0.73374605
vn 0.676095 -0.06717307 0.73374605
vn 0.66690826 0.06439578 0.74235207
vn 0.676095 -0.06717307 0.73374605
vn 0.66809833 0.05362244 0.7421382
vn 0.676095 -0.06717307 0.73374605
vn -0.75368184 -0.53946465 0.37542173
vn -0.75368184 -0.53946465 0.37542173
vn -0.75368184 -0.53946465 0.37542173
vn -0.75368184 -0.53946465 0.37542173
vn -0.75368184 -0.53946465 0.37542173
vn -0.75368184 -0.53946465 0.37542173
vn -0.75368184 -0.53946465 0.37542173
vn -0.75368184 -0.53946465 0.37542173
vn -0.75368184 -0.53946465 0.37542173
vn -0.75368184 -0.53946465 0.37542173
vn 0.662147 0.74915755 -0.018006394
vn 0.662147 0.74915755 -0.018006394
vn 0.662147 0.74915755 -0.018006394
vn 0.71301425 0.6924445 -0.1101429
vn 0.7548335 0.623509 -0.20362468
vn 0.662147 0.74915755 -0.018006394
vn 0.69577837 0.7141205 -0.07696961
vn 0.662147 0.74915755 -0.018006394
vn 0.662147 0.74915755 -0.018006394
vn 0.662147 0.74915755 -0.018006394
vn -0.24482252 0.55980796 0.79162943
vn -0.24482252 0.55980796 0.79162943
vn -0.24482252 0.55980796 0.79162943
vn -0.24482252 0.55980796 0.79162943
vn -0.24482252 0.55980796 0.79162943
vn -0.24482252 0.55980796 0.79162943
vn -0.24482252 0.55980796 0.79162943
vn -0.24482252 0.55980796 0.79162943
vn -0.24482252 0.55980796 0.79162943
vn -0.77254367 -0.32720104 -0.5441652
vn -0.77254367 -0.32720104 -0.5441652
vn -0.77254367 -0.32720104 -0.5441652
vn -0.77254367 -0.32720104 -0.5441652
vn -0.77254367 -0.32720104 -0.5441652
vn -0.77254367 -0.32720104 -0.5441652
vn -0.77254367 -0.32720104 -0.5441652
vn -0.07593187 -0.8839899 -0.46129835
vn -0.07593187 -0.8839899 -0.46129835
vn -0.07593187 -0.8839899 -0.46129835
vn -0.07593187 -0.8839899 -0.46129835
vn -0.07593187 -0.8839899 -0.46129835
vn -0.07593187 -0.8839899 -0.46129835
vn -0.07593187 -0.8839899 -0.46129835
vn -0.07593187 -0.8839899 -0.46129835
vn -0.07593187 -0.8839899 -0.46129835
vn -0.07593187 -0.8839899 -0.46129835
vn -0.07593187 -0.8839899 -0.46129835
vn -0.07593187 -0.8839899 -0.46129835
vn -0.60015494 0.7796064 0.17896307
vn -0.5646679 0.79405093 0.22501872
vn -0.4426161 0.8205626 0.36161882
vn -0.60015494 0.7796064 0.17896307
vn -0.48760492 0.8144043 0.3146222
vn -0.4426161 0.8205626 0.36161882
vn -0.72177005 0.69198364 -0.014374363
vn -0.5646679 0.79405093 0.22501872
vn -0.60015494 0.7796064 0.17896307
vn -0.72177005 0.69198364 -0.014374363
vn -0.48760492 0.8144043 0.3146222
vn -0.60015494 0.7796064 0.17896307
vn 0.5857297 0.40557328 0.70173424
vn 0.66690826 0.06439578 0.74235207
vn 0.66809833 0.05362244 0.7421382
vn 0.5857297 0.40557328 0.70173424
vn 0.7351762 -0.5449808 0.40312773
vn 0.7351762 -0.5449808 0.40312773
vn 0.7351762 -0.5449808 0.40312773
vn 0.7351762 -0.5449808 0.40312773
vn -0.53348565 0.07910725 0.84210163
vn -0.53348565 0.07910725 0.84210163
vn -0.53348565 0.07910725 0.84210163
vn -0.53348565 0.07910725 0.84210163
vn 0.50277424 0.166391 -0.8482523
vn 0.50277424 0.166391 -0.8482523
vn 0.50277424 0.166391 -0.8482523
vn 0.50277424 0.166391 -0.8482523
vn 0.50277424 0.166391 -0.8482523
vn 0.50277424 0.166391 -0.8482523
vn 0.21122403 0.88039005 0.4246149
vn 0.21122403 0.88039005 0.4246149
vn 0.21122403 0.88039005 0.4246149
vn 0.21122403 0.88039005 0.4246149
vn 0.21122403 0.88039005 0.4246149
vn 0.21122403 0.88039005 0.4246149
vn 0.3376102 0.7238384 -0.6017286
vn 0.3376102 0.7238384 -0.6017286
vn 0.3376102 0.7238384 -0.6017286
vn 0.3376102 0.7238384 -0.6017286
vn -0.9889904 0.121006824 0.08517782
vn -0.9889904 0.121006824 0.08517782
vn -0.9889904 0.121006824 0.08517782
vn -0.9889904 0.121006824 0.08517782
vn -0.9889904 0.121006824 0.08517782
vn -0.9889904 0.121006824 0.08517782
vn -0.9889904 0.121006824 0.08517782
vn -0.9889904 0.121006824 0.08517782
vn -0.9889904 0.121006824 0.08517782
vn 0.3585109 -0.9293756 0.087926276
vn 0.3585109 -0.9293756 0.087926276
vn 0.3585109 -0.9293756 0.087926276
vn 0.3585109 -0.9293756 0.087926276
g mdlIcoRockM_0
f 3/3/3 2/2/2 1/1/1
f 6/6/6 5/5/5 4/4/4
f 6/6/6 8/8/8 7/7/7
f 9/9/9 6/6/6 7/7/7
f 9/9/9 7/7/7 10/10/10
f 11/11/11 9/9/9 10/10/10
f 10/10/10 12/12/12 11/11/11
f 15/15/15 14/14/14 13/13/13
f 18/18/18 17/17/17 16/16/16
f 21/21/21 20/20/20 19/19/19
f 19/19/19 22/22/22 21/21/21
f 23/23/23 21/21/21 22/22/22
f 24/24/24 23/23/23 22/22/22
f 22/22/22 25/25/25 24/24/24
f 23/23/23 26/26/26 21/21/21
f 27/27/27 21/21/21 26/26/26
f 26/26/26 28/28/28 27/27/27
f 31/31/31 30/30/30 29/29/29
f 29/29/29 32/32/32 31/31/31
f 32/32/32 33/33/33 31/31/31
f 36/36/36 35/35/35 34/34/34
f 34/34/34 37/37/37 36/36/36
f 34/34/34 38/38/38 37/37/37
f 34/34/34 39/39/39 38/38/38
f 39/39/39 40/40/40 38/38/38
f 39/39/39 41/41/41 40/40/40
f 41/41/41 42/42/42 40/40/40
f 45/45/45 44/44/44 43/43/43
f 43/43/43 46/46/46 45/45/45
f 43/43/43 47/47/47 46/46/46
f 47/47/47 48/48/48 46/46/46
f 51/51/51 50/50/50 49/49/49
f 49/49/49 52/52/52 51/51/51
f 49/49/49 53/53/53 52/52/52
f 49/49/49 54/54/54 53/53/53
f 54/54/54 55/55/55 53/53/53
f 55/55/55 56/56/56 53/53/53
f 59/59/59 58/58/58 57/57/57
f 57/57/57 60/60/60 59/59/59
f 57/57/57 61/61/61 60/60/60
f 64/64/64 63/63/63 62/62/62
f 62/62/62 65/65/65 64/64/64
f 65/65/65 66/66/66 64/64/64
f 69/69/69 68/68/68 67/67/67
f 67/67/67 70/70/70 69/69/69
f 67/67/67 71/71/71 70/70/70
f 71/71/71 72/72/72 70/70/70
f 71/71/71 73/73/73 72/72/72
f 73/73/73 74/74/74 72/72/72
f 77/77/77 76/76/76 75/75/75
f 75/75/75 78/78/78 77/77/77
f 75/75/75 79/79/79 78/78/78
f 75/75/75 80/80/80 79/79/79
f 75/75/75 81/81/81 80/80/80
f 75/75/75 82/82/82 81/81/81
f 82/82/82 83/83/83 81/81/81
f 83/83/83 84/84/84 81/81/81
f 87/87/87 86/86/86 85/85/85
f 85/85/85 88/88/88 87/87/87
f 85/85/85 89/89/89 88/88/88
f 85/85/85 90/90/90 89/89/89
f 90/90/90 91/91/91 89/89/89
f 90/90/90 92/92/92 91/91/91
f 90/90/90 93/93/93 92/92/92
f 93/93/93 94/94/94 92/92/92
f 97/97/97 96/96/96 95/95/95
f 95/95/95 98/98/98 97/97/97
f 95/95/95 99/99/99 98/98/98
f 99/99/99 100/100/100 98/98/98
f 99/99/99 101/101/101 100/100/100
f 101/101/101 102/102/102 100/100/100
f 101/101/101 103/103/103 102/102/102
f 106/106/106 105/105/105 104/104/104
f 104/104/104 107/107/107 106/106/106
f 108/108/108 106/106/106 107/107/107
f 104/104/104 109/109/109 107/107/107
f 104/104/104 110/110/110 109/109/109
f 113/113/113 112/112/112 111/111/111
f 111/111/111 114/114/114 113/113/113
f 114/114/114 115/115/115 113/113/113
f 114/114/114 116/116/116 115/115/115
f 114/114/114 117/117/117 116/116/116
f 114/114/114 118/118/118 117/117/117
f 114/114/114 119/119/119 118/118/118
f 114/114/114 120/120/120 119/119/119
f 114/114/114 121/121/121 120/120/120
f 114/114/114 122/122/122 121/121/121
f 125/125/125 124/124/124 123/123/123
f 123/123/123 126/126/126 125/125/125
f 126/126/126 127/127/127 125/125/125
f 127/127/127 128/128/128 125/125/125
f 131/131/131 130/130/130 129/129/129
f 131/131/131 129/129/129 132/132/132
f 132/132/132 133/133/133 131/131/131
f 133/133/133 134/134/134 131/131/131
f 137/137/137 136/136/136 135/135/135
f 138/138/138 137/137/137 135/135/135
f 141/141/141 140/140/140 139/139/139
f 142/142/142 141/141/141 139/139/139
f 145/145/145 144/144/144 143/143/143
f 146/146/146 145/145/145 143/143/143
f 149/149/149 148/148/148 147/147/147
f 147/147/147 150/150/150 149/149/149
f 147/147/147 151/151/151 150/150/150
f 151/151/151 152/152/152 150/150/150
f 155/155/155 154/154/154 153/153/153
f 153/153/153 156/156/156 155/155/155
f 156/156/156 157/157/157 155/155/155
f 157/157/157 158/158/158 155/155/155
f 161/161/161 160/160/160 159/159/159
f 162/162/162 161/161/161 159/159/159
f 165/165/165 164/164/164 163/163/163
f 163/163/163 166/166/166 165/165/165
f 166/166/166 167/167/167 165/165/165
f 166/166/166 168/168/168 167/167/167
f 166/166/166 169/169/169 168/168/168
f 169/169/169 170/170/170 168/168/168
f 169/169/169 171/171/171 170/170/170
f 174/174/174 173/173/173 172/172/172
f 172/172/172 175/175/175 174/174/174
