g mdlLunarWispCore
v -1.8245464E-09 0.1989603 0.80721307
v -1.8245464E-09 3.0822946E-08 0.83137107
v -0.09948015 0.17230463 0.80721307
v -1.8245464E-09 0.38635772 0.7361424
v -0.19317888 0.33459562 0.7361424
v -1.8245464E-09 0.5513015 0.6222899
v -0.17230466 0.09948015 0.80721307
v -1.8245464E-09 3.0822946E-08 0.83137107
v -0.27565074 0.47744107 0.6222899
v -1.8245464E-09 0.68420553 0.4722724
v -0.33459562 0.19317889 0.7361424
v -0.34210277 0.5925393 0.4722724
v -1.8245464E-09 0.77734613 0.2948079
v -0.19896029 3.0822946E-08 0.80721307
v -0.4774411 0.27565074 0.6222899
v -0.38867307 0.67320144 0.2948079
v -1.8245464E-09 0.8253101 0.10021019
v -0.38635772 3.0822946E-08 0.7361424
v -0.17230466 -0.09948012 0.80721307
v -0.59253937 0.3421027 0.4722724
v -0.41265506 0.71473944 0.10021019
v -1.8245464E-09 0.8253101 -0.10021138
v -0.09948015 -0.17230466 0.80721307
v -1.8245464E-09 -0.19896027 0.80721307
v -0.5513015 3.0822946E-08 0.6222899
v -0.33459562 -0.19317886 0.7361424
v -0.19317888 -0.33459562 0.7361424
v -1.8245464E-09 -0.38635772 0.7361424
v -0.67320144 0.38867307 0.2948079
v -0.41265506 0.71473944 -0.10021138
v -1.8245464E-09 0.77734613 -0.2948091
v -0.68420553 3.0822946E-08 0.4722724
v -0.4774411 -0.27565074 0.6222899
v -0.27565074 -0.47744107 0.6222899
v -1.8245464E-09 -0.5513015 0.6222899
v -0.7147395 0.41265506 0.10021019
v -0.38867307 0.67320144 -0.2948091
v -1.8245464E-09 0.68420553 -0.4722736
v -0.77734613 1.0206236E-09 0.2948079
v -0.59253937 -0.34210277 0.4722724
v -0.34210277 -0.59253937 0.4722724
v -1.8245464E-09 -0.68420553 0.4722724
v -0.7147395 0.41265506 -0.10021138
v -0.34210277 0.5925393 -0.4722736
v -1.8245464E-09 0.5513015 -0.6222913
v -0.8253101 1.0206236E-09 0.10021019
v -0.67320144 -0.38867307 0.2948079
v -0.38867307 -0.67320144 0.2948079
v -1.8245464E-09 -0.77734613 0.2948079
v -0.67320144 0.38867307 -0.2948091
v -0.27565074 0.47744107 -0.6222913
v -1.8245464E-09 0.38635772 -0.7361438
v -0.8253101 1.0206236E-09 -0.10021138
v -0.7147395 -0.41265506 0.10021019
v -0.41265506 -0.7147395 0.10021019
v -1.8245464E-09 -0.8253101 0.10021019
v -0.59253937 0.3421027 -0.4722736
v -0.19317888 0.33459562 -0.7361438
v -1.8245464E-09 0.1989603 -0.80721426
v -0.77734613 1.0206236E-09 -0.2948091
v -0.7147395 -0.41265506 -0.10021138
v -0.41265506 -0.7147395 -0.10021138
v -1.8245464E-09 -0.8253101 -0.10021138
v -0.4774411 0.27565074 -0.6222913
v -0.09948015 0.17230463 -0.80721426
v -1.8245464E-09 -2.8781699E-08 -0.83137226
v -0.68420553 -2.8781699E-08 -0.4722736
v -0.67320144 -0.38867307 -0.2948091
v -0.38867307 -0.6732015 -0.2948091
v -1.8245464E-09 -0.77734613 -0.2948091
v -0.33459562 0.19317889 -0.7361438
v -0.5513015 -2.8781699E-08 -0.6222913
v -0.59253937 -0.3421028 -0.4722736
v -0.34210277 -0.59253937 -0.4722736
v -1.8245464E-09 -0.6842056 -0.4722736
v -0.17230466 0.09948015 -0.80721426
v -0.38635772 -2.8781699E-08 -0.7361438
v -0.4774411 -0.27565077 -0.6222913
v -0.27565074 -0.4774411 -0.6222913
v -1.8245464E-09 -0.55130154 -0.6222913
v -0.19896029 -2.8781699E-08 -0.80721426
v -0.33459562 -0.19317892 -0.7361438
v -0.19317888 -0.33459568 -0.7361438
v -1.8245464E-09 -0.38635778 -0.7361438
v -0.17230466 -0.09948018 -0.80721426
v -0.09948015 -0.17230472 -0.80721426
v -1.8245464E-09 -0.19896033 -0.80721426
v 0.09948015 0.17230463 -0.80721426
v -1.8245464E-09 0.38635772 -0.7361438
v -1.8245464E-09 0.1989603 -0.80721426
v -1.8245464E-09 -2.8781699E-08 -0.83137226
v 0.19317888 0.33459562 -0.7361438
v -1.8245464E-09 0.5513015 -0.6222913
v 0.17230466 0.09948015 -0.80721426
v 0.27565074 0.47744107 -0.6222913
v -1.8245464E-09 0.68420553 -0.4722736
v 0.33459562 0.19317889 -0.7361438
v 0.34210277 0.5925393 -0.4722736
v -1.8245464E-09 0.77734613 -0.2948091
v 0.19896029 -2.8781699E-08 -0.80721426
v 0.4774411 0.27565074 -0.6222913
v 0.38867307 0.67320144 -0.2948091
v -1.8245464E-09 0.8253101 -0.10021138
v 0.38635772 -2.8781699E-08 -0.7361438
v 0.17230466 -0.09948018 -0.80721426
v 0.59253937 0.3421027 -0.4722736
v 0.41265506 0.71473944 -0.10021138
v -1.8245464E-09 0.8253101 0.10021019
v 0.09948015 -0.17230472 -0.80721426
v -1.8245464E-09 -0.19896033 -0.80721426
v 0.33459562 -0.19317892 -0.7361438
v 0.5513015 -2.8781699E-08 -0.6222913
v 0.19317888 -0.33459568 -0.7361438
v -1.8245464E-09 -0.38635778 -0.7361438
v 0.67320144 0.38867307 -0.2948091
v 0.41265506 0.71473944 0.10021019
v -1.8245464E-09 0.77734613 0.2948079
v 0.4774411 -0.27565077 -0.6222913
v 0.27565074 -0.4774411 -0.6222913
v -1.8245464E-09 -0.55130154 -0.6222913
v 0.68420553 -2.8781699E-08 -0.4722736
v 0.7147395 0.41265506 -0.10021138
v 0.38867307 0.67320144 0.2948079
v -1.8245464E-09 0.68420553 0.4722724
v 0.34210277 -0.59253937 -0.4722736
v -1.8245464E-09 -0.6842056 -0.4722736
v 0.59253937 -0.3421028 -0.4722736
v 0.77734613 1.0206236E-09 -0.2948091
v 0.7147395 0.41265506 0.10021019
v 0.34210277 0.5925393 0.4722724
v -1.8245464E-09 0.5513015 0.6222899
v 0.38867307 -0.6732015 -0.2948091
v -1.8245464E-09 -0.77734613 -0.2948091
v 0.67320144 -0.38867307 -0.2948091
v 0.8253101 1.0206236E-09 -0.10021138
v 0.67320144 0.38867307 0.2948079
v 0.27565074 0.47744107 0.6222899
v -1.8245464E-09 0.38635772 0.7361424
v 0.41265506 -0.7147395 -0.10021138
v -1.8245464E-09 -0.8253101 -0.10021138
v 0.7147395 -0.41265506 -0.10021138
v 0.8253101 1.0206236E-09 0.10021019
v 0.59253937 0.3421027 0.4722724
v 0.19317888 0.33459562 0.7361424
v -1.8245464E-09 0.1989603 0.80721307
v 0.41265506 -0.7147395 0.10021019
v -1.8245464E-09 -0.8253101 0.10021019
v 0.7147395 -0.41265506 0.10021019
v 0.77734613 1.0206236E-09 0.2948079
v 0.4774411 0.27565074 0.6222899
v 0.09948015 0.17230463 0.80721307
v -1.8245464E-09 3.0822946E-08 0.83137107
v 0.38867307 -0.67320144 0.2948079
v -1.8245464E-09 -0.77734613 0.2948079
v 0.67320144 -0.38867307 0.2948079
v 0.68420553 3.0822946E-08 0.4722724
v 0.33459562 0.19317889 0.7361424
v 0.34210277 -0.59253937 0.4722724
v -1.8245464E-09 -0.68420553 0.4722724
v 0.59253937 -0.34210277 0.4722724
v 0.5513015 3.0822946E-08 0.6222899
v 0.17230466 0.09948015 0.80721307
v 0.27565074 -0.47744107 0.6222899
v -1.8245464E-09 -0.5513015 0.6222899
v 0.4774411 -0.27565074 0.6222899
v 0.38635772 3.0822946E-08 0.7361424
v 0.19317888 -0.33459562 0.7361424
v -1.8245464E-09 -0.38635772 0.7361424
v 0.33459562 -0.19317886 0.7361424
v 0.19896029 3.0822946E-08 0.80721307
v 0.17230466 -0.09948012 0.80721307
v 0.09948015 -0.17230466 0.80721307
v -1.8245464E-09 -0.19896027 0.80721307
vt 0.799692 0.596252
vt 0.798596 0.61554
vt 0.80678 0.599691
vt 0.804789 0.577268
vt 0.817303 0.586002
vt 0.814534 0.558525
vt 0.811606 0.60662
vt 0.798596 0.61554
vt 0.829775 0.573934
vt 0.829252 0.541662
vt 0.825127 0.599548
vt 0.843876 0.564083
vt 0.84867 0.528702
vt 0.813354 0.61554
vt 0.838625 0.593728
vt 0.859239 0.557094
vt 0.871537 0.521606
vt 0.827747 0.615539
vt 0.811607 0.624459
vt 0.851868 0.589222
vt 0.875396 0.553468
vt 0.895681 0.521605
vt 0.806781 0.631388
vt 0.799693 0.634828
vt 0.841414 0.615539
vt 0.825127 0.631531
vt 0.817304 0.645078
vt 0.80479 0.653811
vt 0.864762 0.586155
vt 0.891822 0.553468
vt 0.918548 0.528701
vt 0.854266 0.615539
vt 0.838626 0.63735
vt 0.829776 0.657144
vt 0.814536 0.672554
vt 0.877365 0.584606
vt 0.907979 0.557093
vt 0.937966 0.541661
vt 0.866361 0.615539
vt 0.851869 0.641856
vt 0.843878 0.666995
vt 0.829254 0.689417
vt 0.889854 0.584606
vt 0.923342 0.564082
vt 0.952684 0.558524
vt 0.877924 0.615538
vt 0.864763 0.644922
vt 0.859241 0.673983
vt 0.848672 0.702376
vt 0.902456 0.586154
vt 0.937443 0.573933
vt 0.962429 0.577267
vt 0.889296 0.615538
vt 0.877366 0.646471
vt 0.875398 0.677609
vt 0.871539 0.709471
vt 0.91535 0.589221
vt 0.949915 0.586
vt 0.967526 0.596251
vt 0.900858 0.615538
vt 0.889855 0.646471
vt 0.891824 0.677609
vt 0.895683 0.709471
vt 0.928593 0.593727
vt 0.960438 0.59969
vt 0.968623 0.615538
vt 0.912953 0.615538
vt 0.902457 0.644922
vt 0.90798 0.673983
vt 0.918549 0.702375
vt 0.942092 0.599547
vt 0.925805 0.615538
vt 0.915351 0.641855
vt 0.923343 0.666994
vt 0.937967 0.689415
vt 0.955612 0.606619
vt 0.939471 0.615538
vt 0.928593 0.637349
vt 0.937443 0.657143
vt 0.952685 0.672552
vt 0.953864 0.615538
vt 0.942092 0.63153
vt 0.949915 0.645076
vt 0.96243 0.653809
vt 0.955612 0.624457
vt 0.960438 0.631386
vt 0.967526 0.634826
vt 0.027512 0.105702
vt 0.025469 0.082688
vt 0.020237 0.102172
vt 0.019111 0.121968
vt 0.038313 0.091652
vt 0.035471 0.06345
vt 0.032465 0.112814
vt 0.051114 0.079267
vt 0.050578 0.046143
vt 0.046342 0.105555
vt 0.065587 0.069155
vt 0.070507 0.032842
vt 0.034259 0.121968
vt 0.060197 0.099582
vt 0.081355 0.061982
vt 0.093977 0.025559
vt 0.049032 0.121968
vt 0.032465 0.131122
vt 0.073789 0.094957
vt 0.097937 0.058261
vt 0.118757 0.025558
vt 0.027512 0.138234
vt 0.020238 0.141765
vt 0.046343 0.138381
vt 0.063059 0.121967
vt 0.038314 0.152284
vt 0.02547 0.161248
vt 0.087023 0.091809
vt 0.114796 0.05826
vt 0.142226 0.032841
vt 0.060198 0.144353
vt 0.051115 0.164668
vt 0.035473 0.180485
vt 0.07625 0.121967
vt 0.099958 0.090219
vt 0.131379 0.061982
vt 0.162156 0.046142
vt 0.065588 0.174779
vt 0.05058 0.197792
vt 0.07379 0.148978
vt 0.088664 0.121967
vt 0.112776 0.090219
vt 0.147147 0.069154
vt 0.177262 0.063449
vt 0.081357 0.181952
vt 0.07051 0.211092
vt 0.087024 0.152125
vt 0.100532 0.121967
vt 0.125711 0.091808
vt 0.161619 0.079265
vt 0.187264 0.082686
vt 0.097939 0.185673
vt 0.093979 0.218375
vt 0.099959 0.153714
vt 0.112203 0.121966
vt 0.138944 0.094956
vt 0.17442 0.09165
vt 0.192495 0.10217
vt 0.114798 0.185672
vt 0.118759 0.218374
vt 0.112777 0.153714
vt 0.124071 0.121966
vt 0.152536 0.09958
vt 0.18522 0.1057
vt 0.193621 0.121966
vt 0.13138 0.181951
vt 0.142228 0.211092
vt 0.125711 0.152124
vt 0.136484 0.121966
vt 0.16639 0.105553
vt 0.147147 0.174778
vt 0.162157 0.19779
vt 0.138945 0.148977
vt 0.149674 0.121966
vt 0.180267 0.112812
vt 0.161619 0.164667
vt 0.177262 0.180483
vt 0.152536 0.144352
vt 0.163701 0.121966
vt 0.17442 0.152283
vt 0.187264 0.161246
vt 0.166391 0.138379
vt 0.178473 0.121966
vt 0.180267 0.13112
vt 0.18522 0.138232
vt 0.192495 0.141762
vn -0 0.25805652 0.96612984
vn -0 0 1
vn -0.12902813 0.22348343 0.96612984
vn -0 0.48014504 0.87718904
vn -0.24007255 0.4158179 0.87718904
vn -0 0.67403203 0.7387022
vn -0.22348338 0.12902823 0.96612984
vn -0 0 1
vn -0.33701602 0.5837289 0.7387022
vn -0 0.8292134 0.5589322
vn -0.41581786 0.24007258 0.87718904
vn -0.4146067 0.7181198 0.5589321
vn -0 0.9374285 0.34817782
vn -0.25805643 0 0.96612984
vn -0.58372885 0.33701602 0.7387022
vn -0.4687143 0.81183684 0.34817773
vn -0 0.99298674 0.11822627
vn -0.48014504 0 0.87718904
vn -0.2234833 -0.12902822 0.96612984
vn -0.71811986 0.41460663 0.55893224
vn -0.4964934 0.8599516 0.11822619
vn -0 0.99298674 -0.11822626
vn -0.12902826 -0.22348346 0.96612984
vn -0 -0.2580565 0.96612984
vn -0.674032 0 0.7387022
vn -0.41581777 -0.24007255 0.87718916
vn -0.24007243 -0.41581792 0.87718916
vn -0 -0.48014504 0.87718904
vn -0.81183684 0.4687143 0.34817773
vn -0.4964934 0.85995173 -0.118226185
vn -0 0.9374285 -0.34817785
vn -0.82921326 0 0.5589323
vn -0.58372873 -0.337016 0.73870224
vn -0.33701596 -0.58372885 0.7387022
vn -0 -0.67403203 0.7387022
vn -0.8599516 0.4964934 0.118226156
vn -0.4687143 0.81183684 -0.3481778
vn -0 0.8292135 -0.55893207
vn -0.9374285 0 0.34817776
vn -0.71811974 -0.41460666 0.5589323
vn -0.4146066 -0.71811986 0.5589322
vn -0 -0.8292134 0.5589321
vn -0.8599516 0.4964934 -0.11822614
vn -0.41460672 0.7181199 -0.558932
vn -0 0.6740323 -0.7387018
vn -0.99298674 0 0.11822621
vn -0.81183684 -0.46871436 0.34817776
vn -0.46871427 -0.81183696 0.34817773
vn -0 -0.9374285 0.3481778
vn -0.81183684 0.4687143 -0.34817773
vn -0.3370161 0.5837291 -0.7387018
vn -0 0.48014468 -0.87718934
vn -0.99298674 0 -0.118226185
vn -0.85995173 -0.4964934 0.11822619
vn -0.4964934 -0.85995173 0.11822623
vn -0 -0.99298674 0.11822627
vn -0.71812 0.4146068 -0.558932
vn -0.2400724 0.41581753 -0.87718934
vn -0 0.25805584 -0.96612996
vn -0.9374285 0 -0.3481777
vn -0.85995173 -0.4964934 -0.11822614
vn -0.4964934 -0.85995173 -0.118226096
vn -0 -0.99298674 -0.11822608
vn -0.583729 0.33701617 -0.7387019
vn -0.12902784 0.22348285 -0.96612996
vn -0 0 -1
vn -0.8292135 0 -0.558932
vn -0.81183696 -0.4687144 -0.3481777
vn -0.46871433 -0.81183696 -0.3481777
vn -0 -0.9374285 -0.34817773
vn -0.41581744 0.24007231 -0.87718934
vn -0.6740323 0 -0.7387019
vn -0.7181199 -0.41460675 -0.55893207
vn -0.41460675 -0.7181199 -0.55893207
vn -0 -0.8292135 -0.5589321
vn -0.2234829 0.1290279 -0.96612996
vn -0.4801446 0 -0.87718934
vn -0.583729 -0.33701614 -0.7387019
vn -0.33701614 -0.583729 -0.7387019
vn -0 -0.67403233 -0.73870176
vn -0.25805578 0 -0.96612996
vn -0.41581753 -0.24007237 -0.87718934
vn -0.24007241 -0.41581756 -0.87718934
vn -0 -0.48014474 -0.87718934
vn -0.22348282 -0.12902789 -0.96612996
vn -0.12902787 -0.2234829 -0.96612996
vn -0 -0.25805584 -0.96612996
vn 0.12902771 0.22348289 -0.9661301
vn -0 0.48014468 -0.87718934
vn -0 0.25805584 -0.96612996
vn -0 0 -1
vn 0.24007237 0.41581753 -0.87718934
vn -0 0.6740323 -0.7387018
vn 0.22348276 0.12902793 -0.9661301
vn 0.33701617 0.58372915 -0.7387018
vn -0 0.8292135 -0.55893207
vn 0.41581753 0.24007234 -0.87718934
vn 0.41460675 0.7181199 -0.558932
vn -0 0.9374285 -0.34817785
vn 0.25805578 0 -0.96612996
vn 0.583729 0.3370162 -0.7387018
vn 0.4687143 0.81183684 -0.3481778
vn -0 0.99298674 -0.11822626
vn 0.48014462 0 -0.87718934
vn 0.2234828 -0.12902786 -0.96612996
vn 0.71812 0.4146068 -0.558932
vn 0.4964934 0.85995173 -0.118226185
vn -0 0.99298674 0.11822627
vn 0.12902811 -0.22348289 -0.96612996
vn -0 -0.25805584 -0.96612996
vn 0.41581753 -0.24007237 -0.87718934
vn 0.6740322 0 -0.7387019
vn 0.2400724 -0.4158176 -0.87718934
vn -0 -0.48014474 -0.87718934
vn 0.81183684 0.4687143 -0.34817773
vn 0.4964934 0.8599516 0.11822619
vn -0 0.9374285 0.34817782
vn 0.583729 -0.33701614 -0.7387019
vn 0.33701614 -0.583729 -0.7387018
vn -0 -0.67403233 -0.73870176
vn 0.8292135 0 -0.558932
vn 0.85995173 0.4964934 -0.11822614
vn 0.46871433 0.81183696 0.3481778
vn -0 0.8292134 0.5589322
vn 0.41460672 -0.7181199 -0.558932
vn -0 -0.8292135 -0.5589321
vn 0.7181199 -0.41460675 -0.55893207
vn 0.9374285 0 -0.3481777
vn 0.85995173 0.4964934 0.118226156
vn 0.4146067 0.7181198 0.5589321
vn -0 0.67403203 0.7387022
vn 0.4687143 -0.81183684 -0.34817773
vn -0 -0.9374285 -0.34817773
vn 0.81183684 -0.4687143 -0.34817773
vn 0.99298674 0 -0.118226185
vn 0.81183684 0.4687143 0.34817773
vn 0.33701605 0.58372885 0.73870206
vn -0 0.48014504 0.87718904
vn 0.49649337 -0.85995173 -0.118226096
vn -0 -0.99298674 -0.11822608
vn 0.85995173 -0.4964934 -0.11822614
vn 0.99298674 0 0.11822621
vn 0.7181198 0.4146066 0.5589323
vn 0.24007255 0.4158179 0.87718904
vn -0 0.25805652 0.96612984
vn 0.4964934 -0.85995173 0.11822623
vn -0 -0.99298674 0.11822627
vn 0.85995173 -0.4964934 0.11822619
vn 0.9374285 0 0.34817776
vn 0.58372885 0.33701602 0.7387022
vn 0.12902813 0.22348343 0.96612984
vn -0 0 1
vn 0.4687143 -0.81183684 0.34817773
vn -0 -0.9374285 0.3481778
vn 0.81183684 -0.4687143 0.34817773
vn 0.82921326 0 0.5589323
vn 0.4158179 0.24007258 0.87718904
vn 0.4146067 -0.7181199 0.5589322
vn -0 -0.8292134 0.5589321
vn 0.71811974 -0.4146067 0.5589323
vn 0.67403203 0 0.7387022
vn 0.2234834 0.12902825 0.96612984
vn 0.33701596 -0.58372885 0.7387022
vn -0 -0.67403203 0.7387022
vn 0.5837288 -0.337016 0.7387022
vn 0.4801451 0 0.87718904
vn 0.24007247 -0.41581786 0.87718904
vn -0 -0.48014504 0.87718904
vn 0.4158178 -0.24007252 0.87718904
vn 0.25805646 0 0.96612984
vn 0.22348335 -0.1290282 0.96612984
vn 0.12902832 -0.22348344 0.96612984
vn -0 -0.2580565 0.96612984
g mdlLunarWispCore_0
f 3/3/3 2/2/2 1/1/1
f 3/3/3 1/1/1 4/4/4
f 5/5/5 3/3/3 4/4/4
f 5/5/5 4/4/4 6/6/6
f 7/7/7 3/3/3 5/5/5
f 7/7/7 8/8/8 3/3/3
f 9/9/9 5/5/5 6/6/6
f 9/9/9 6/6/6 10/10/10
f 11/11/11 7/7/7 5/5/5
f 11/11/11 5/5/5 9/9/9
f 12/12/12 9/9/9 10/10/10
f 12/12/12 10/10/10 13/13/13
f 14/14/14 8/8/8 7/7/7
f 14/14/14 7/7/7 11/11/11
f 15/15/15 11/11/11 9/9/9
f 15/15/15 9/9/9 12/12/12
f 16/16/16 12/12/12 13/13/13
f 16/16/16 13/13/13 17/17/17
f 18/18/18 14/14/14 11/11/11
f 18/18/18 11/11/11 15/15/15
f 19/19/19 8/8/8 14/14/14
f 19/19/19 14/14/14 18/18/18
f 20/20/20 15/15/15 12/12/12
f 20/20/20 12/12/12 16/16/16
f 21/21/21 16/16/16 17/17/17
f 21/21/21 17/17/17 22/22/22
f 23/23/23 8/8/8 19/19/19
f 24/24/24 8/8/8 23/23/23
f 25/25/25 18/18/18 15/15/15
f 25/25/25 15/15/15 20/20/20
f 26/26/26 19/19/19 18/18/18
f 23/23/23 19/19/19 26/26/26
f 26/26/26 18/18/18 25/25/25
f 24/24/24 23/23/23 27/27/27
f 27/27/27 23/23/23 26/26/26
f 28/28/28 24/24/24 27/27/27
f 29/29/29 20/20/20 16/16/16
f 29/29/29 16/16/16 21/21/21
f 30/30/30 21/21/21 22/22/22
f 30/30/30 22/22/22 31/31/31
f 32/32/32 25/25/25 20/20/20
f 32/32/32 20/20/20 29/29/29
f 33/33/33 26/26/26 25/25/25
f 27/27/27 26/26/26 33/33/33
f 33/33/33 25/25/25 32/32/32
f 28/28/28 27/27/27 34/34/34
f 34/34/34 27/27/27 33/33/33
f 35/35/35 28/28/28 34/34/34
f 36/36/36 29/29/29 21/21/21
f 36/36/36 21/21/21 30/30/30
f 37/37/37 30/30/30 31/31/31
f 37/37/37 31/31/31 38/38/38
f 39/39/39 32/32/32 29/29/29
f 39/39/39 29/29/29 36/36/36
f 40/40/40 33/33/33 32/32/32
f 34/34/34 33/33/33 40/40/40
f 40/40/40 32/32/32 39/39/39
f 35/35/35 34/34/34 41/41/41
f 41/41/41 34/34/34 40/40/40
f 42/42/42 35/35/35 41/41/41
f 43/43/43 36/36/36 30/30/30
f 43/43/43 30/30/30 37/37/37
f 44/44/44 37/37/37 38/38/38
f 44/44/44 38/38/38 45/45/45
f 46/46/46 39/39/39 36/36/36
f 46/46/46 36/36/36 43/43/43
f 47/47/47 40/40/40 39/39/39
f 41/41/41 40/40/40 47/47/47
f 47/47/47 39/39/39 46/46/46
f 42/42/42 41/41/41 48/48/48
f 48/48/48 41/41/41 47/47/47
f 49/49/49 42/42/42 48/48/48
f 50/50/50 43/43/43 37/37/37
f 50/50/50 37/37/37 44/44/44
f 51/51/51 44/44/44 45/45/45
f 51/51/51 45/45/45 52/52/52
f 53/53/53 46/46/46 43/43/43
f 53/53/53 43/43/43 50/50/50
f 54/54/54 47/47/47 46/46/46
f 48/48/48 47/47/47 54/54/54
f 54/54/54 46/46/46 53/53/53
f 49/49/49 48/48/48 55/55/55
f 55/55/55 48/48/48 54/54/54
f 56/56/56 49/49/49 55/55/55
f 57/57/57 50/50/50 44/44/44
f 57/57/57 44/44/44 51/51/51
f 58/58/58 51/51/51 52/52/52
f 58/58/58 52/52/52 59/59/59
f 60/60/60 53/53/53 50/50/50
f 60/60/60 50/50/50 57/57/57
f 61/61/61 54/54/54 53/53/53
f 55/55/55 54/54/54 61/61/61
f 61/61/61 53/53/53 60/60/60
f 56/56/56 55/55/55 62/62/62
f 62/62/62 55/55/55 61/61/61
f 63/63/63 56/56/56 62/62/62
f 64/64/64 57/57/57 51/51/51
f 64/64/64 51/51/51 58/58/58
f 65/65/65 58/58/58 59/59/59
f 59/59/59 66/66/66 65/65/65
f 67/67/67 60/60/60 57/57/57
f 67/67/67 57/57/57 64/64/64
f 68/68/68 61/61/61 60/60/60
f 62/62/62 61/61/61 68/68/68
f 68/68/68 60/60/60 67/67/67
f 63/63/63 62/62/62 69/69/69
f 69/69/69 62/62/62 68/68/68
f 70/70/70 63/63/63 69/69/69
f 71/71/71 58/58/58 65/65/65
f 71/71/71 64/64/64 58/58/58
f 72/72/72 67/67/67 64/64/64
f 72/72/72 64/64/64 71/71/71
f 73/73/73 68/68/68 67/67/67
f 69/69/69 68/68/68 73/73/73
f 73/73/73 67/67/67 72/72/72
f 70/70/70 69/69/69 74/74/74
f 74/74/74 69/69/69 73/73/73
f 75/75/75 70/70/70 74/74/74
f 76/76/76 71/71/71 65/65/65
f 65/65/65 66/66/66 76/76/76
f 77/77/77 72/72/72 71/71/71
f 77/77/77 71/71/71 76/76/76
f 78/78/78 73/73/73 72/72/72
f 74/74/74 73/73/73 78/78/78
f 78/78/78 72/72/72 77/77/77
f 75/75/75 74/74/74 79/79/79
f 79/79/79 74/74/74 78/78/78
f 80/80/80 75/75/75 79/79/79
f 81/81/81 77/77/77 76/76/76
f 76/76/76 66/66/66 81/81/81
f 82/82/82 78/78/78 77/77/77
f 79/79/79 78/78/78 82/82/82
f 82/82/82 77/77/77 81/81/81
f 80/80/80 79/79/79 83/83/83
f 83/83/83 79/79/79 82/82/82
f 84/84/84 80/80/80 83/83/83
f 85/85/85 82/82/82 81/81/81
f 81/81/81 66/66/66 85/85/85
f 83/83/83 82/82/82 85/85/85
f 84/84/84 83/83/83 86/86/86
f 86/86/86 83/83/83 85/85/85
f 85/85/85 66/66/66 86/86/86
f 87/87/87 84/84/84 86/86/86
f 86/86/86 66/66/66 87/87/87
f 90/90/90 89/89/89 88/88/88
f 88/88/88 91/91/91 90/90/90
f 89/89/89 92/92/92 88/88/88
f 89/89/89 93/93/93 92/92/92
f 94/94/94 91/91/91 88/88/88
f 88/88/88 92/92/92 94/94/94
f 93/93/93 95/95/95 92/92/92
f 93/93/93 96/96/96 95/95/95
f 92/92/92 97/97/97 94/94/94
f 92/92/92 95/95/95 97/97/97
f 96/96/96 98/98/98 95/95/95
f 96/96/96 99/99/99 98/98/98
f 100/100/100 91/91/91 94/94/94
f 94/94/94 97/97/97 100/100/100
f 95/95/95 101/101/101 97/97/97
f 95/95/95 98/98/98 101/101/101
f 99/99/99 102/102/102 98/98/98
f 99/99/99 103/103/103 102/102/102
f 97/97/97 104/104/104 100/100/100
f 97/97/97 101/101/101 104/104/104
f 105/105/105 91/91/91 100/100/100
f 100/100/100 104/104/104 105/105/105
f 98/98/98 106/106/106 101/101/101
f 98/98/98 102/102/102 106/106/106
f 103/103/103 107/107/107 102/102/102
f 103/103/103 108/108/108 107/107/107
f 109/109/109 91/91/91 105/105/105
f 110/110/110 91/91/91 109/109/109
f 104/104/104 111/111/111 105/105/105
f 105/105/105 111/111/111 109/109/109
f 101/101/101 112/112/112 104/104/104
f 101/101/101 106/106/106 112/112/112
f 104/104/104 112/112/112 111/111/111
f 109/109/109 113/113/113 110/110/110
f 111/111/111 113/113/113 109/109/109
f 113/113/113 114/114/114 110/110/110
f 102/102/102 115/115/115 106/106/106
f 102/102/102 107/107/107 115/115/115
f 108/108/108 116/116/116 107/107/107
f 108/108/108 117/117/117 116/116/116
f 112/112/112 118/118/118 111/111/111
f 111/111/111 118/118/118 113/113/113
f 113/113/113 119/119/119 114/114/114
f 118/118/118 119/119/119 113/113/113
f 119/119/119 120/120/120 114/114/114
f 106/106/106 121/121/121 112/112/112
f 112/112/112 121/121/121 118/118/118
f 106/106/106 115/115/115 121/121/121
f 107/107/107 122/122/122 115/115/115
f 107/107/107 116/116/116 122/122/122
f 117/117/117 123/123/123 116/116/116
f 117/117/117 124/124/124 123/123/123
f 119/119/119 125/125/125 120/120/120
f 125/125/125 126/126/126 120/120/120
f 118/118/118 127/127/127 119/119/119
f 121/121/121 127/127/127 118/118/118
f 127/127/127 125/125/125 119/119/119
f 115/115/115 128/128/128 121/121/121
f 121/121/121 128/128/128 127/127/127
f 115/115/115 122/122/122 128/128/128
f 116/116/116 129/129/129 122/122/122
f 116/116/116 123/123/123 129/129/129
f 124/124/124 130/130/130 123/123/123
f 124/124/124 131/131/131 130/130/130
f 125/125/125 132/132/132 126/126/126
f 132/132/132 133/133/133 126/126/126
f 127/127/127 134/134/134 125/125/125
f 128/128/128 134/134/134 127/127/127
f 134/134/134 132/132/132 125/125/125
f 122/122/122 135/135/135 128/128/128
f 128/128/128 135/135/135 134/134/134
f 122/122/122 129/129/129 135/135/135
f 123/123/123 136/136/136 129/129/129
f 123/123/123 130/130/130 136/136/136
f 131/131/131 137/137/137 130/130/130
f 131/131/131 138/138/138 137/137/137
f 132/132/132 139/139/139 133/133/133
f 139/139/139 140/140/140 133/133/133
f 134/134/134 141/141/141 132/132/132
f 135/135/135 141/141/141 134/134/134
f 141/141/141 139/139/139 132/132/132
f 129/129/129 142/142/142 135/135/135
f 135/135/135 142/142/142 141/141/141
f 129/129/129 136/136/136 142/142/142
f 130/130/130 143/143/143 136/136/136
f 130/130/130 137/137/137 143/143/143
f 138/138/138 144/144/144 137/137/137
f 138/138/138 145/145/145 144/144/144
f 139/139/139 146/146/146 140/140/140
f 146/146/146 147/147/147 140/140/140
f 141/141/141 148/148/148 139/139/139
f 142/142/142 148/148/148 141/141/141
f 148/148/148 146/146/146 139/139/139
f 136/136/136 149/149/149 142/142/142
f 142/142/142 149/149/149 148/148/148
f 136/136/136 143/143/143 149/149/149
f 137/137/137 150/150/150 143/143/143
f 137/137/137 144/144/144 150/150/150
f 145/145/145 151/151/151 144/144/144
f 145/145/145 152/152/152 151/151/151
f 146/146/146 153/153/153 147/147/147
f 153/153/153 154/154/154 147/147/147
f 148/148/148 155/155/155 146/146/146
f 149/149/149 155/155/155 148/148/148
f 155/155/155 153/153/153 146/146/146
f 143/143/143 156/156/156 149/149/149
f 149/149/149 156/156/156 155/155/155
f 143/143/143 150/150/150 156/156/156
f 144/144/144 157/157/157 150/150/150
f 144/144/144 151/151/151 157/157/157
f 153/153/153 158/158/158 154/154/154
f 158/158/158 159/159/159 154/154/154
f 155/155/155 160/160/160 153/153/153
f 156/156/156 160/160/160 155/155/155
f 160/160/160 158/158/158 153/153/153
f 150/150/150 161/161/161 156/156/156
f 156/156/156 161/161/161 160/160/160
f 150/150/150 157/157/157 161/161/161
f 151/151/151 162/162/162 157/157/157
f 151/151/151 152/152/152 162/162/162
f 158/158/158 163/163/163 159/159/159
f 163/163/163 164/164/164 159/159/159
f 160/160/160 165/165/165 158/158/158
f 161/161/161 165/165/165 160/160/160
f 165/165/165 163/163/163 158/158/158
f 157/157/157 166/166/166 161/161/161
f 157/157/157 162/162/162 166/166/166
f 161/161/161 166/166/166 165/165/165
f 163/163/163 167/167/167 164/164/164
f 167/167/167 168/168/168 164/164/164
f 165/165/165 169/169/169 163/163/163
f 166/166/166 169/169/169 165/165/165
f 169/169/169 167/167/167 163/163/163
f 162/162/162 170/170/170 166/166/166
f 166/166/166 170/170/170 169/169/169
f 162/162/162 152/152/152 170/170/170
f 170/170/170 171/171/171 169/169/169
f 169/169/169 171/171/171 167/167/167
f 170/170/170 152/152/152 171/171/171
f 167/167/167 172/172/172 168/168/168
f 171/171/171 172/172/172 167/167/167
f 171/171/171 152/152/152 172/172/172
f 172/172/172 173/173/173 168/168/168
f 172/172/172 152/152/152 173/173/173
