g mdlLunarWingsGlow
v 0.1427499 1.1025559 1.320405
v 0.39052063 1.0344208 1.5205423
v -0.1499179 1.6489549 1.5949177
v -0.28901726 1.5780512 1.3549274
v -0.8990934 1.2190412 0.55061704
v -0.8651713 0.9897921 0.33182847
v -0.6284733 1.2404337 0.14224952
v -0.705324 1.4242252 0.3954209
v -0.41720968 1.6673523 1.3813314
v -0.30651063 1.7580407 1.6271712
v -0.42627573 1.7969579 1.6641197
v -0.51525354 1.6992118 1.4115785
v 0.12663078 1.078204 1.2494442
v 0.3234108 0.82286274 1.1115706
v 0.39052063 1.0344208 1.5205423
v 0.1427499 1.1025559 1.320405
v 0.040981956 0.9915508 1.4088987
v 0.26620644 0.89882314 1.6286414
v 0.1981475 0.6820724 1.2299547
v 0.024085708 0.96294785 1.3463578
v -0.51525354 1.6992118 1.4115785
v -0.42627573 1.7969579 1.6641197
v -0.5133206 1.6988301 1.7353864
v -0.58651143 1.6188807 1.4699199
v -0.26190498 1.3010077 0.77735174
v -0.097581945 1.0920782 0.5983231
v 0.3234108 0.82286274 1.1115706
v 0.12663078 1.078204 1.2494442
v 0.040981956 0.9915508 1.4088987
v 0.26620644 0.89882314 1.6286414
v -0.5133206 1.6988301 1.7353864
v -0.58651143 1.6188807 1.4699199
v -0.41720968 1.6673523 1.3813314
v -0.30651063 1.7580407 1.6271712
v -0.1499179 1.6489549 1.5949177
v -0.28901726 1.5780512 1.3549274
v -0.705324 1.4242252 0.3954209
v -0.6284733 1.2404337 0.14224952
v -0.097581945 1.0920782 0.5983231
v -0.26190498 1.3010077 0.77735174
v 0.024085708 0.96294785 1.3463578
v 0.1981475 0.6820724 1.2299547
v -0.8651713 0.9897921 0.33182847
v -0.8990934 1.2190412 0.55061704
v 1.1570452 0.9860469 0.45430207
v 1.2640207 1.5806843 0.23368178
v 1.4941262 1.5720435 0.4038232
v 1.3279626 0.8128606 0.670823
v 0.4981505 1.5499029 -0.5149783
v 0.33966368 1.6841165 -0.2688047
v 0.068554305 1.51059 -0.28182897
v 0.26215327 1.3466424 -0.5825413
v 1.3083222 1.707641 0.14986901
v 1.3497276 1.7700294 0.07282488
v 1.5988214 1.8033373 0.20732938
v 1.5482426 1.727127 0.3014422
v 1.0864292 0.9763222 0.42589274
v 1.1570452 0.9860469 0.45430207
v 1.3279626 0.8128606 0.670823
v 0.9137442 0.6814692 0.50445664
v 1.2470013 0.9118757 0.3242387
v 1.1845343 0.89767873 0.29405075
v 1.033584 0.5854026 0.34340575
v 1.4378481 0.722257 0.5119447
v 1.3497276 1.7700294 0.07282488
v 1.4089413 1.7160366 -0.019441022
v 1.6711533 1.7373822 0.09462242
v 1.5988214 1.8033373 0.20732938
v 0.66905594 1.3706734 0.119690135
v 1.0864292 0.9763222 0.42589274
v 0.9137442 0.6814692 0.50445664
v 0.46167725 1.1346623 0.18291914
v 1.2470013 0.9118757 0.3242387
v 1.4089413 1.7160366 -0.019441022
v 1.6711533 1.7373822 0.09462242
v 1.4378481 0.722257 0.5119447
v 1.3083222 1.707641 0.14986901
v 1.2640207 1.5806843 0.23368178
v 1.4941262 1.5720435 0.4038232
v 1.5482426 1.727127 0.3014422
v 0.33966368 1.6841165 -0.2688047
v 0.66905594 1.3706734 0.119690135
v 0.46167725 1.1346623 0.18291914
v 0.068554305 1.51059 -0.28182897
v 1.1845343 0.89767873 0.29405075
v 0.4981505 1.5499029 -0.5149783
v 0.26215327 1.3466424 -0.5825413
v 1.033584 0.5854026 0.34340575
v 0.14679141 0.92718476 1.3422515
v -0.4479135 0.9316821 0.9466803
v -0.7359039 1.0163496 1.0695127
v -0.34409285 0.9973684 1.2255726
v -0.94409406 1.0099251 0.54368126
v -0.9075683 1.1170446 0.491305
v -0.96363294 1.2867807 0.8050159
v -1.017662 1.1367946 0.8757984
v 0.22660345 1.135201 1.249333
v -0.23287438 1.2883228 1.0946069
v -0.58728445 1.2590656 0.985078
v -0.30590135 1.1002496 0.90578264
v -0.94409406 1.0099251 0.54368126
v -1.017662 1.1367946 0.8757984
v -0.7359039 1.0163496 1.0695127
v -0.4479135 0.9316821 0.9466803
v -0.6735683 1.4998765 1.5384607
v -0.8798649 1.4153535 1.1687088
v -0.41595328 1.4152956 1.136555
v -0.12421709 1.3612393 1.3929148
v -0.7076436 1.4103763 1.5790751
v -0.92756206 1.2900748 1.2255591
v -0.8798649 1.4153535 1.1687088
v -0.6735683 1.4998765 1.5384607
v -0.7076436 1.4103763 1.5790751
v -0.6383584 1.3348069 1.579636
v -0.8869675 1.2106988 1.2372186
v -0.92756206 1.2900748 1.2255591
v 0.22660345 1.135201 1.249333
v -0.222091 1.305459 1.1384753
v -0.23287438 1.2883228 1.0946069
v 0.24128301 1.158267 1.310377
v -0.41595328 1.4152956 1.136555
v -0.12421709 1.3612393 1.3929148
v -0.7984185 1.146806 0.539619
v -0.30590135 1.1002496 0.90578264
v -0.58728445 1.2590656 0.985078
v -0.87537354 1.3330486 0.82866526
v 0.14679141 0.92718476 1.3422515
v -0.34409285 0.9973684 1.2255726
v -0.33294505 1.0145068 1.2697021
v 0.16197132 0.9502425 1.4036622
v 0.16197132 0.9502425 1.4036622
v -0.33294505 1.0145068 1.2697021
v -0.8869675 1.2106988 1.2372186
v -0.6383584 1.3348069 1.579636
v -0.9075683 1.1170446 0.491305
v -0.7984185 1.146806 0.539619
v -0.87537354 1.3330486 0.82866526
v -0.96363294 1.2867807 0.8050159
v 1.1551064 0.8203367 0.4095241
v 1.1401153 1.050417 -0.044728316
v 1.063664 1.2075768 -0.42902893
v 0.8818727 1.0572987 -0.20640038
v 0.5883673 1.3351333 -0.70778614
v 0.9373428 1.4323605 -0.6838521
v 0.8695603 1.5671483 -0.5963134
v 0.5385663 1.4322654 -0.6474772
v 1.0653045 1.0050946 0.53631014
v 0.8280046 1.1790503 -0.026040116
v 0.9717612 1.4031794 -0.22550634
v 1.0136096 1.3090996 0.13206428
v 0.5883673 1.3351333 -0.70778614
v 0.8818727 1.0572987 -0.20640038
v 1.063664 1.2075768 -0.42902893
v 0.9373428 1.4323605 -0.6838521
v 1.5486195 1.5819947 -0.14227995
v 1.2904955 1.3049684 0.30361062
v 1.0995643 1.4785384 0.008363111
v 1.2195457 1.6142541 -0.419928
v 1.5878289 1.5023363 -0.19648421
v 1.5486195 1.5819947 -0.14227995
v 1.2195457 1.6142541 -0.419928
v 1.2744292 1.5027514 -0.4958008
v 1.5878289 1.5023363 -0.19648421
v 1.2744292 1.5027514 -0.4958008
v 1.2718554 1.4140145 -0.48153454
v 1.5692201 1.4100286 -0.15593183
v 1.0653045 1.0050946 0.53631014
v 1.0136096 1.3090996 0.13206428
v 1.0558228 1.3161128 0.15449676
v 1.1240464 1.0142162 0.5669711
v 1.0995643 1.4785384 0.008363111
v 1.2904955 1.3049684 0.30361062
v 0.5673531 1.4209132 -0.5284139
v 0.8794962 1.581 -0.4953226
v 0.9717612 1.4031794 -0.22550634
v 0.8280046 1.1790503 -0.026040116
v 1.1551064 0.8203367 0.4095241
v 1.2141107 0.8292503 0.44070697
v 1.1825145 1.057287 -0.021913791
v 1.1401153 1.050417 -0.044728316
v 1.2141107 0.8292503 0.44070697
v 1.5692201 1.4100286 -0.15593183
v 1.2718554 1.4140145 -0.48153454
v 1.1825145 1.057287 -0.021913791
v 0.5385663 1.4322654 -0.6474772
v 0.8695603 1.5671483 -0.5963134
v 0.8794962 1.581 -0.4953226
v 0.5673531 1.4209132 -0.5284139
vt 0.7450383 0.00060003996
vt 0.7450388 1.0006001
vt 0.8873273 1.0006001
vt 0.88732696 0.00059974194
vt 0.35891658 0.000600338
vt 0.3589173 1.0006003
vt 0.43471178 1.0006003
vt 0.43471122 0.0006002188
vt 0.91975117 0.00059974194
vt 0.9197515 1.0005996
vt 0.94794667 1.0005996
vt 0.9479461 0.00059974194
vt 0.7092936 0.00060003996
vt 0.7092943 1.0006
vt 0.7450388 1.0006001
vt 0.7450383 0.00060003996
vt 0.051155746 0.0006006062
vt 0.051156014 1.0006008
vt 0.08557162 1.0006008
vt 0.08557099 0.0006006062
vt 0.9479461 0.00059974194
vt 0.94794667 1.0005996
vt 0.9800174 1.0005996
vt 0.98001707 0.0005995035
vt 0.570454 0.0006002188
vt 0.5704544 1.0006001
vt 0.7092943 1.0006
vt 0.7092936 0.00060003996
vt 0.051155746 0.0006006062
vt 0.051156014 1.0006008
vt 0.01873216 1.0006008
vt 0.018731713 0.000600785
vt 0.91975117 0.00059974194
vt 0.9197515 1.0005996
vt 0.8873273 1.0006001
vt 0.88732696 0.00059974194
vt 0.43471122 0.0006002188
vt 0.43471178 1.0006003
vt 0.5704544 1.0006001
vt 0.570454 0.0006002188
vt 0.08557099 0.0006006062
vt 0.08557162 1.0006008
vt 0.3589173 1.0006003
vt 0.35891658 0.000600338
vt 0.7450383 0.00060003996
vt 0.88732696 0.00059974194
vt 0.8873273 1.0006001
vt 0.7450388 1.0006001
vt 0.35891658 0.000600338
vt 0.43471122 0.0006002188
vt 0.43471178 1.0006003
vt 0.3589173 1.0006003
vt 0.91975117 0.00059974194
vt 0.9479461 0.00059974194
vt 0.94794667 1.0005996
vt 0.9197515 1.0005996
vt 0.7092936 0.00060003996
vt 0.7450383 0.00060003996
vt 0.7450388 1.0006001
vt 0.7092943 1.0006
vt 0.051155746 0.0006006062
vt 0.08557099 0.0006006062
vt 0.08557162 1.0006008
vt 0.051156014 1.0006008
vt 0.9479461 0.00059974194
vt 0.98001707 0.0005995035
vt 0.9800174 1.0005996
vt 0.94794667 1.0005996
vt 0.570454 0.0006002188
vt 0.7092936 0.00060003996
vt 0.7092943 1.0006
vt 0.5704544 1.0006001
vt 0.051155746 0.0006006062
vt 0.018731713 0.000600785
vt 0.01873216 1.0006008
vt 0.051156014 1.0006008
vt 0.91975117 0.00059974194
vt 0.88732696 0.00059974194
vt 0.8873273 1.0006001
vt 0.9197515 1.0005996
vt 0.43471122 0.0006002188
vt 0.570454 0.0006002188
vt 0.5704544 1.0006001
vt 0.43471178 1.0006003
vt 0.08557099 0.0006006062
vt 0.35891658 0.000600338
vt 0.3589173 1.0006003
vt 0.08557162 1.0006008
vt 0.26727772 -0.00060009956
vt 0.13541079 -0.00060009956
vt 0.13541147 0.99940026
vt 0.2672782 0.99940014
vt 0.9826871 -0.0006008148
vt 0.9506681 -0.0006008148
vt 0.9506686 0.9993994
vt 0.9826876 0.9993993
vt 0.6951751 -0.000600338
vt 0.6951759 0.99939966
vt 0.8129971 0.9993994
vt 0.81299675 -0.0006005764
vt 0.016061723 -0.0005992651
vt 0.016061991 0.9994005
vt 0.13541147 0.99940026
vt 0.13541079 -0.00060009956
vt 0.4938758 -0.0006002188
vt 0.49387628 0.9993998
vt 0.60415953 0.99939966
vt 0.60415924 -0.0006002188
vt 0.46715546 -0.0006002188
vt 0.46715584 0.9993998
vt 0.49387628 0.9993998
vt 0.4938758 -0.0006002188
vt 0.46715546 -0.0006002188
vt 0.4465568 -0.0006002188
vt 0.4465573 0.9993998
vt 0.46715584 0.9993998
vt 0.6951751 -0.000600338
vt 0.6828448 0.9993996
vt 0.6951759 0.99939966
vt 0.68284404 -0.000600338
vt 0.60415953 0.99939966
vt 0.60415924 -0.0006002188
vt 0.92653716 -0.0006008148
vt 0.81299675 -0.0006005764
vt 0.8129971 0.9993994
vt 0.92653763 0.9993993
vt 0.26727772 -0.00060009956
vt 0.2672782 0.99940014
vt 0.2796911 0.9994
vt 0.27969068 -0.00060009956
vt 0.27969068 -0.00060009956
vt 0.2796911 0.9994
vt 0.4465573 0.9993998
vt 0.4465568 -0.0006002188
vt 0.9506681 -0.0006008148
vt 0.92653716 -0.0006008148
vt 0.92653763 0.9993993
vt 0.9506686 0.9993994
vt 0.26727772 -0.00060009956
vt 0.2672782 0.99940014
vt 0.13541147 0.99940026
vt 0.13541079 -0.00060009956
vt 0.9826871 -0.0006008148
vt 0.9826876 0.9993993
vt 0.9506686 0.9993994
vt 0.9506681 -0.0006008148
vt 0.6951751 -0.000600338
vt 0.81299675 -0.0006005764
vt 0.8129971 0.9993994
vt 0.6951759 0.99939966
vt 0.016061723 -0.0005992651
vt 0.13541079 -0.00060009956
vt 0.13541147 0.99940026
vt 0.016061991 0.9994005
vt 0.4938758 -0.0006002188
vt 0.60415924 -0.0006002188
vt 0.60415953 0.99939966
vt 0.49387628 0.9993998
vt 0.46715546 -0.0006002188
vt 0.4938758 -0.0006002188
vt 0.49387628 0.9993998
vt 0.46715584 0.9993998
vt 0.46715546 -0.0006002188
vt 0.46715584 0.9993998
vt 0.4465573 0.9993998
vt 0.4465568 -0.0006002188
vt 0.6951751 -0.000600338
vt 0.6951759 0.99939966
vt 0.6828448 0.9993996
vt 0.68284404 -0.000600338
vt 0.60415953 0.99939966
vt 0.60415924 -0.0006002188
vt 0.92653716 -0.0006008148
vt 0.92653763 0.9993993
vt 0.8129971 0.9993994
vt 0.81299675 -0.0006005764
vt 0.26727772 -0.00060009956
vt 0.27969068 -0.00060009956
vt 0.2796911 0.9994
vt 0.2672782 0.99940014
vt 0.27969068 -0.00060009956
vt 0.4465568 -0.0006002188
vt 0.4465573 0.9993998
vt 0.2796911 0.9994
vt 0.9506681 -0.0006008148
vt 0.9506686 0.9993994
vt 0.92653763 0.9993993
vt 0.92653716 -0.0006008148
vn 0.6036183 0.5917503 -0.5343001
vn 0.6036183 0.59175026 -0.5343001
vn 0.6036183 0.5917503 -0.5343001
vn 0.6036183 0.59175026 -0.5343001
vn -0.78552794 0.36245105 -0.5015726
vn -0.78552794 0.36245108 -0.5015726
vn -0.78552794 0.36245108 -0.5015726
vn -0.78552794 0.36245108 -0.5015726
vn 0.16655116 0.89838624 -0.40640244
vn 0.16655116 0.89838624 -0.40640244
vn 0.16655116 0.89838624 -0.40640247
vn 0.16655114 0.89838624 -0.40640244
vn 0.5677649 0.6955166 -0.44034058
vn 0.5677648 0.6955166 -0.4403406
vn 0.5677648 0.6955166 -0.4403406
vn 0.5677649 0.6955165 -0.44034058
vn -0.671494 -0.5957804 0.440615
vn -0.67149395 -0.5957804 0.44061503
vn -0.671494 -0.5957803 0.44061503
vn -0.67149395 -0.5957803 0.44061503
vn -0.746188 0.66571474 0.0052390243
vn -0.74618804 0.6657147 0.0052390243
vn -0.74618804 0.6657147 0.005239024
vn -0.746188 0.66571474 0.0052390243
vn 0.68990076 0.68873566 -0.22289081
vn 0.68990076 0.6887356 -0.22289081
vn 0.6899007 0.6887356 -0.22289081
vn 0.6899007 0.68873566 -0.2228908
vn 0.6379088 0.67285985 -0.37460914
vn 0.6379088 0.67285985 -0.3746091
vn 0.6379088 0.67285985 -0.37460914
vn 0.6379089 0.67285985 -0.37460917
vn -0.43398207 -0.764104 0.47728878
vn -0.4339821 -0.76410407 0.47728878
vn -0.4339821 -0.76410407 0.47728878
vn -0.43398207 -0.764104 0.47728878
vn 0.5381586 0.7511746 -0.382259
vn 0.5381586 0.7511746 -0.38225907
vn 0.53815866 0.7511746 -0.38225907
vn 0.5381586 0.7511747 -0.38225904
vn -0.6132676 -0.5929349 0.5218534
vn -0.6132676 -0.59293497 0.5218534
vn -0.6132676 -0.59293497 0.5218534
vn -0.61326766 -0.59293497 0.5218534
vn -0.5474153 0.37915346 0.74604225
vn -0.5474153 0.37915352 0.74604225
vn -0.5474153 0.37915346 0.7460423
vn -0.5474153 0.37915346 0.74604225
vn -0.39993235 0.67164487 -0.6236564
vn -0.39993232 0.67164487 -0.62365633
vn -0.39993235 0.67164487 -0.6236564
vn -0.39993232 0.67164487 -0.6236564
vn -0.35860524 0.8103176 0.4634519
vn -0.35860524 0.8103176 0.46345183
vn -0.35860524 0.8103176 0.46345183
vn -0.35860524 0.8103176 0.46345183
vn -0.4437063 0.47914723 0.757326
vn -0.4437063 0.47914723 0.757326
vn -0.44370624 0.47914714 0.757326
vn -0.4437063 0.4791472 0.757326
vn 0.46046203 -0.3489268 -0.81622607
vn 0.46046203 -0.34892678 -0.81622595
vn 0.46046203 -0.34892678 -0.81622595
vn 0.46046203 -0.34892672 -0.81622595
vn 0.120274775 0.8885314 -0.44277063
vn 0.120274775 0.8885314 -0.44277063
vn 0.120274775 0.8885314 -0.44277063
vn 0.120274775 0.8885314 -0.44277063
vn -0.23964708 0.40700012 0.88143075
vn -0.23964705 0.40700015 0.88143075
vn -0.23964705 0.40700015 0.88143075
vn -0.23964702 0.40700015 0.88143075
vn -0.38653624 0.4261153 0.8179336
vn -0.3865362 0.42611524 0.8179336
vn -0.3865363 0.42611536 0.8179336
vn -0.38653624 0.42611536 0.8179336
vn 0.46320558 -0.59515536 -0.6566816
vn 0.4632056 -0.59515536 -0.65668154
vn 0.4632056 -0.59515536 -0.6566816
vn 0.4632056 -0.5951554 -0.6566816
vn -0.37947375 0.53582484 0.75424886
vn -0.37947375 0.53582484 0.75424886
vn -0.37947375 0.53582484 0.75424886
vn -0.37947375 0.53582484 0.75424886
vn 0.53587824 -0.37550786 -0.75619346
vn 0.53587824 -0.37550783 -0.75619346
vn 0.53587824 -0.3755078 -0.75619334
vn 0.53587824 -0.37550786 -0.75619346
vn -0.18442357 -0.939137 0.2898445
vn -0.18442357 -0.939137 0.2898445
vn -0.18442357 -0.939137 0.28984448
vn -0.18442355 -0.939137 0.28984448
vn -0.93975276 0.19723968 -0.27921528
vn -0.9397529 0.1972397 -0.2792153
vn -0.9397529 0.1972397 -0.27921528
vn -0.93975276 0.19723968 -0.27921528
vn 0.3279019 0.60290104 -0.72731745
vn 0.32790196 0.602901 -0.72731745
vn 0.32790196 0.602901 -0.7273175
vn 0.32790196 0.602901 -0.7273175
vn -0.35138282 -0.92407066 0.15041143
vn -0.35138285 -0.92407054 0.15041141
vn -0.35138282 -0.92407054 0.15041141
vn -0.35138282 -0.92407054 0.15041141
vn 0.110884465 0.98446935 -0.13610607
vn 0.110884465 0.98446935 -0.13610607
vn 0.11088445 0.98446935 -0.13610606
vn 0.11088446 0.98446935 -0.13610607
vn -0.81328094 0.46709603 0.34698048
vn -0.81328094 0.46709597 0.34698042
vn -0.81328094 0.46709603 0.34698048
vn -0.81328094 0.46709603 0.34698048
vn -0.6722318 -0.42913416 0.60328126
vn -0.6722318 -0.42913416 0.6032813
vn -0.6722318 -0.4291342 0.6032813
vn -0.6722318 -0.42913416 0.6032813
vn 0.4104476 0.81377876 -0.41145715
vn 0.4181339 0.83510816 -0.35743317
vn 0.4104476 0.81377876 -0.41145715
vn 0.41637582 0.83012587 -0.3708399
vn 0.4196261 0.8393978 -0.34543514
vn 0.4196261 0.8393978 -0.34543514
vn 0.3929329 0.8301925 -0.39545423
vn 0.39293292 0.8301925 -0.39545423
vn 0.3929329 0.83019257 -0.39545426
vn 0.39293292 0.8301925 -0.3954542
vn -0.22199254 -0.89149463 0.3949135
vn -0.22199252 -0.89149463 0.39491346
vn -0.22199252 -0.89149463 0.3949135
vn -0.22199251 -0.89149463 0.39491346
vn -0.28254226 -0.79245615 0.54053956
vn -0.28254226 -0.79245615 0.5405397
vn -0.28254226 -0.79245615 0.5405396
vn -0.28254226 -0.79245615 0.5405397
vn -0.13211887 0.8404606 -0.5255192
vn -0.13211887 0.8404606 -0.5255192
vn -0.13211888 0.8404607 -0.52551925
vn -0.13211887 0.8404606 -0.5255192
vn 0.24500014 -0.8697568 -0.42836663
vn 0.2450002 -0.8697568 -0.42836666
vn 0.24500017 -0.8697568 -0.42836663
vn 0.24500017 -0.8697568 -0.42836666
vn -0.07840059 0.5073334 -0.8581761
vn -0.07840058 0.50733334 -0.8581761
vn -0.07840058 0.5073334 -0.85817605
vn -0.078400575 0.50733334 -0.8581761
vn -0.72685444 0.5680121 0.38606328
vn -0.72685444 0.5680121 0.38606328
vn -0.72685444 0.5680122 0.38606328
vn -0.72685444 0.5680121 0.3860633
vn 0.1416079 -0.7863824 -0.6012903
vn 0.14160787 -0.78638226 -0.6012903
vn 0.14160788 -0.78638226 -0.6012903
vn 0.14160788 -0.78638226 -0.6012903
vn -0.07697704 0.9140351 0.39826414
vn -0.07697704 0.9140351 0.39826414
vn -0.07697705 0.9140351 0.39826414
vn -0.07697705 0.91403514 0.39826414
vn 0.5313915 0.63955873 -0.5555066
vn 0.5313916 0.63955873 -0.55550665
vn 0.5313916 0.63955873 -0.55550665
vn 0.5313915 0.63955873 -0.5555066
vn 0.6848414 -0.28339902 -0.67132497
vn 0.68484133 -0.28339902 -0.67132497
vn 0.68484145 -0.28339905 -0.67132497
vn 0.68484145 -0.28339905 -0.67132497
vn -0.41696915 0.69960964 0.5802439
vn -0.41696915 0.69960964 0.5802439
vn -0.3638997 0.71014726 0.6027171
vn -0.3770735 0.70778054 0.59737945
vn -0.35210788 0.7121301 0.6073638
vn -0.35210788 0.7121301 0.6073638
vn -0.39668143 0.7182312 0.57165354
vn -0.39668146 0.71823126 0.5716535
vn -0.39668143 0.7182312 0.57165354
vn -0.39668143 0.7182312 0.57165354
vn 0.35871762 -0.8276009 -0.4317388
vn 0.3587176 -0.82760096 -0.43173876
vn 0.3587176 -0.82760096 -0.43173882
vn 0.35871762 -0.82760096 -0.43173882
vn 0.5205472 -0.7354599 -0.43373877
vn 0.5205473 -0.7354599 -0.4337387
vn 0.5205472 -0.7354599 -0.43373877
vn 0.5205472 -0.7354599 -0.4337387
vn -0.42296 0.9038739 0.06416139
vn -0.42296 0.9038739 0.06416139
vn -0.42296 0.9038739 0.06416139
vn -0.42295995 0.9038739 0.06416139
g mdlLunarWingsGlow_0
f 3/3/3 2/2/2 1/1/1
f 4/4/4 3/3/3 1/1/1
f 7/7/7 6/6/6 5/5/5
f 8/8/8 7/7/7 5/5/5
f 11/11/11 10/10/10 9/9/9
f 12/12/12 11/11/11 9/9/9
f 15/15/15 14/14/14 13/13/13
f 16/16/16 15/15/15 13/13/13
f 19/19/19 18/18/18 17/17/17
f 20/20/20 19/19/19 17/17/17
f 23/23/23 22/22/22 21/21/21
f 24/24/24 23/23/23 21/21/21
f 27/27/27 26/26/26 25/25/25
f 28/28/28 27/27/27 25/25/25
f 31/31/31 30/30/30 29/29/29
f 32/32/32 31/31/31 29/29/29
f 35/35/35 34/34/34 33/33/33
f 36/36/36 35/35/35 33/33/33
f 39/39/39 38/38/38 37/37/37
f 40/40/40 39/39/39 37/37/37
f 43/43/43 42/42/42 41/41/41
f 44/44/44 43/43/43 41/41/41
f 47/47/47 46/46/46 45/45/45
f 48/48/48 47/47/47 45/45/45
f 51/51/51 50/50/50 49/49/49
f 52/52/52 51/51/51 49/49/49
f 55/55/55 54/54/54 53/53/53
f 56/56/56 55/55/55 53/53/53
f 59/59/59 58/58/58 57/57/57
f 60/60/60 59/59/59 57/57/57
f 63/63/63 62/62/62 61/61/61
f 64/64/64 63/63/63 61/61/61
f 67/67/67 66/66/66 65/65/65
f 68/68/68 67/67/67 65/65/65
f 71/71/71 70/70/70 69/69/69
f 72/72/72 71/71/71 69/69/69
f 75/75/75 74/74/74 73/73/73
f 76/76/76 75/75/75 73/73/73
f 79/79/79 78/78/78 77/77/77
f 80/80/80 79/79/79 77/77/77
f 83/83/83 82/82/82 81/81/81
f 84/84/84 83/83/83 81/81/81
f 87/87/87 86/86/86 85/85/85
f 88/88/88 87/87/87 85/85/85
f 91/91/91 90/90/90 89/89/89
f 92/92/92 91/91/91 89/89/89
f 95/95/95 94/94/94 93/93/93
f 96/96/96 95/95/95 93/93/93
f 99/99/99 98/98/98 97/97/97
f 100/100/100 99/99/99 97/97/97
f 103/103/103 102/102/102 101/101/101
f 104/104/104 103/103/103 101/101/101
f 107/107/107 106/106/106 105/105/105
f 108/108/108 107/107/107 105/105/105
f 111/111/111 110/110/110 109/109/109
f 112/112/112 111/111/111 109/109/109
f 115/115/115 114/114/114 113/113/113
f 116/116/116 115/115/115 113/113/113
f 119/119/119 118/118/118 117/117/117
f 118/118/118 120/120/120 117/117/117
f 118/118/118 121/121/121 120/120/120
f 121/121/121 122/122/122 120/120/120
f 125/125/125 124/124/124 123/123/123
f 126/126/126 125/125/125 123/123/123
f 129/129/129 128/128/128 127/127/127
f 130/130/130 129/129/129 127/127/127
f 133/133/133 132/132/132 131/131/131
f 134/134/134 133/133/133 131/131/131
f 137/137/137 136/136/136 135/135/135
f 138/138/138 137/137/137 135/135/135
f 141/141/141 140/140/140 139/139/139
f 142/142/142 141/141/141 139/139/139
f 145/145/145 144/144/144 143/143/143
f 146/146/146 145/145/145 143/143/143
f 149/149/149 148/148/148 147/147/147
f 150/150/150 149/149/149 147/147/147
f 153/153/153 152/152/152 151/151/151
f 154/154/154 153/153/153 151/151/151
f 157/157/157 156/156/156 155/155/155
f 158/158/158 157/157/157 155/155/155
f 161/161/161 160/160/160 159/159/159
f 162/162/162 161/161/161 159/159/159
f 165/165/165 164/164/164 163/163/163
f 166/166/166 165/165/165 163/163/163
f 169/169/169 168/168/168 167/167/167
f 170/170/170 169/169/169 167/167/167
f 171/171/171 169/169/169 170/170/170
f 172/172/172 171/171/171 170/170/170
f 175/175/175 174/174/174 173/173/173
f 176/176/176 175/175/175 173/173/173
f 179/179/179 178/178/178 177/177/177
f 180/180/180 179/179/179 177/177/177
f 183/183/183 182/182/182 181/181/181
f 184/184/184 183/183/183 181/181/181
f 187/187/187 186/186/186 185/185/185
f 188/188/188 187/187/187 185/185/185
