g mdlMajorConstructStone2.002
v -0.16341925 -0.18385822 -0.1306575
v -0.21985781 0.034466 -0.11746459
v -0.21713322 -0.032592356 -0.073453136
v -0.108506024 -0.24283367 -0.0844425
v -0.107705474 -0.05579412 -0.014510289
v -0.042841166 -0.20315486 -0.040091507
v -0.05720651 -0.2621116 -0.09240566
v -0.035699785 -0.20634824 -0.0416321
v -0.021225095 -0.27541155 -0.12803833
v 0.01072979 -0.2688715 -0.13892423
v 0.07355732 -0.24398905 -0.14672568
v 0.11514717 -0.21949863 -0.14281905
v 0.1412226 0.052438736 -0.04671576
v 0.20122677 -0.11457777 -0.07338578
v 0.20340168 -0.11520296 -0.07533757
v -0.12178308 -0.015142679 -0.008109525
v -0.14557993 0.092692494 -0.051895656
v -0.21985781 0.034466 -0.11746459
v -0.16184676 0.09841508 -0.0773637
v -0.18793693 0.10806471 -0.11978513
v -0.1078403 0.0215438 -0.006914988
v -0.10847026 0.088623494 -0.023804411
v 0.044077158 0.10674241 -0.024695046
v 0.06687915 0.11047545 -0.028250284
v 0.076322734 0.110937834 -0.02982881
v 0.07542837 0.11220613 -0.030688643
v 0.08860582 0.14978096 -0.1510199
v 0.044077158 0.10674241 -0.024695046
v 0.0025857687 0.14459333 -0.16731377
v -0.013193846 0.1431112 -0.16853085
v -0.027430713 0.14147645 -0.16863573
v -0.10847026 0.088623494 -0.023804411
v -0.14557993 0.092692494 -0.051895656
v -0.16184676 0.09841508 -0.0773637
v -0.17112851 0.111958236 -0.12621841
v -0.18793693 0.10806471 -0.11978513
v 0.076322734 0.110937834 -0.02982881
v 0.12512904 0.11260441 -0.15046372
v 0.07542837 0.11220613 -0.030688643
v 0.08860582 0.14978096 -0.1510199
v 0.20473081 0.02048409 -0.123024516
v 0.21873385 0.002610147 -0.1142528
v 0.23029333 -0.020801723 -0.11800371
v 0.20340168 -0.11520296 -0.07533757
v 0.23029333 -0.020801723 -0.11800371
v 0.18284756 -0.079334676 -0.17110226
v 0.12512904 0.11260441 -0.15046372
v -0.108506024 -0.24283367 -0.0844425
v -0.058281958 -0.26131177 -0.14592221
v -0.16341925 -0.18385822 -0.1306575
v -0.05720651 -0.2621116 -0.09240566
v -0.021225095 -0.27541155 -0.12803833
v 0.01072979 -0.2688715 -0.13892423
v 0.20340168 -0.11520296 -0.07533757
v 0.23029333 -0.020801723 -0.11800371
v 0.18284756 -0.079334676 -0.17110226
v 0.11514717 -0.21949863 -0.14281905
v -0.21985781 0.034466 -0.11746459
v -0.17112851 0.111958236 -0.12621841
v -0.18793693 0.10806471 -0.11978513
v -0.10969579 -0.099731445 -0.18350375
v -0.16341925 -0.18385822 -0.1306575
v -0.027430713 0.14147645 -0.16863573
v -0.058281958 -0.26131177 -0.14592221
v -0.013193846 0.1431112 -0.16853085
v 0.038086355 -0.15782064 -0.18703403
v 0.01072979 -0.2688715 -0.13892423
v 0.07355732 -0.24398905 -0.14672568
v 0.11514717 -0.21949863 -0.14281905
v 0.18284756 -0.079334676 -0.17110226
v 0.0025857687 0.14459333 -0.16731377
v 0.12512904 0.11260441 -0.15046372
v 0.08860582 0.14978096 -0.1510199
vt 0.35829473 0.46343812
vt 0.33098748 0.5856539
vt 0.36237305 0.5508514
vt 0.40109095 0.44508022
vt 0.42149603 0.5373929
vt 0.4382117 0.46158522
vt 0.42063725 0.42797658
vt 0.44129944 0.45923585
vt 0.43381786 0.404262
vt 0.4526766 0.3910119
vt 0.49843413 0.3899322
vt 0.5289364 0.3984647
vt 0.5597475 0.5595129
vt 0.5614196 0.4763997
vt 0.5627616 0.4757295
vt 0.41731662 0.55929077
vt 0.40188503 0.6302282
vt 0.33098748 0.5856539
vt 0.37994435 0.6348062
vt 0.34383217 0.64271075
vt 0.42767695 0.5774399
vt 0.43143982 0.61513567
vt 0.51816547 0.605954
vt 0.53132886 0.6041074
vt 0.53699726 0.60222465
vt 0.5371132 0.6034681
vt 0.5648103 0.6831042
vt 0.51816547 0.605954
vt 0.50853217 0.6946708
vt 0.49899805 0.69645065
vt 0.49037963 0.6969954
vt 0.43143982 0.61513567
vt 0.40188503 0.6302282
vt 0.39374566 0.6504051
vt 0.39701876 0.68684226
vt 0.3841808 0.68629044
vt 0.53699726 0.60222465
vt 0.62309736 0.5989497
vt 0.5371132 0.6034681
vt 0.6159874 0.6328169
vt 0.5979017 0.5273135
vt 0.59196943 0.5172479
vt 0.5925942 0.5062131
vt 0.5627616 0.4757295
vt 0.5925942 0.5062131
vt 0.63337207 0.46433067
vt 0.62309736 0.5989497
vt 0.40109095 0.44508022
vt 0.40455756 0.39798012
vt 0.35829473 0.46343812
vt 0.42063725 0.42797658
vt 0.43381786 0.404262
vt 0.4526766 0.3910119
vt 0.5627616 0.4757295
vt 0.5925942 0.5062131
vt 0.63337207 0.46433067
vt 0.5289364 0.3984647
vt 0.3518018 0.7343221
vt 0.39701876 0.68684226
vt 0.3841808 0.68629044
vt 0.42822722 0.8394157
vt 0.3725536 0.89623946
vt 0.49037963 0.6969954
vt 0.4465746 0.96147037
vt 0.49899805 0.69645065
vt 0.52497584 0.887934
vt 0.49781883 0.9738009
vt 0.5464643 0.95792145
vt 0.57969224 0.9435737
vt 0.63337207 0.83874136
vt 0.50853217 0.6946708
vt 0.59189236 0.7058276
vt 0.5648103 0.6831042
vn -0.83393615 -0.42597562 -0.35084918
vn -0.57389283 0.022465704 -0.81862223
vn -0.90855163 -0.12081573 0.39992186
vn -0.4228979 -0.47606358 0.7710517
vn -0.17722881 -0.21642661 0.9600778
vn -0.08998015 -0.35616446 0.9300808
vn 0.15672006 -0.6972966 0.6994399
vn 0.1582045 -0.4852301 0.85995525
vn 0.3543752 -0.70059603 0.61934114
vn 0.35437337 -0.700597 0.6193411
vn 0.35437325 -0.7005966 0.61934155
vn 0.35437357 -0.7005965 0.61934143
vn 0.5521649 0.3255164 0.7675631
vn 0.47223496 -0.27497366 0.8374865
vn 0.35439345 -0.70060146 0.6193245
vn -0.28342912 -0.05866505 0.95719707
vn -0.65934384 0.25485966 0.7073276
vn -0.75844353 0.33894473 0.5566684
vn -0.7587882 0.3399302 0.55559695
vn -0.7613851 0.34748086 0.5473115
vn -0.20481296 0.09583017 0.97409874
vn -0.32575622 0.2279651 0.9175591
vn 0.14565358 -0.05355341 0.9878852
vn 0.040270843 0.56016487 0.8274017
vn 0.15613239 0.14611413 0.97686917
vn -0.011273898 0.83365023 0.55217767
vn -0.11141167 0.9520083 0.28507483
vn -0.11141077 0.9520083 0.285075
vn -0.111408584 0.95200884 0.28507435
vn -0.11141125 0.9520081 0.28507558
vn -0.11141214 0.952008 0.28507555
vn -0.11141054 0.9520083 0.28507504
vn -0.111411035 0.9520084 0.2850746
vn -0.111411676 0.9520083 0.28507465
vn -0.11141202 0.952008 0.28507563
vn -0.11141393 0.95200765 0.2850759
vn 0.6816061 0.6739038 0.2850732
vn 0.6816111 0.67389786 0.2850753
vn 0.6816035 0.67390686 0.28507218
vn 0.6816111 0.67389774 0.2850755
vn 0.76705885 0.5644029 -0.30507383
vn 0.8696511 0.44134283 0.22118676
vn 0.6115524 0.17731813 0.7710784
vn 0.6827025 0.13046518 0.7189548
vn 0.6064079 0.28519765 -0.7422478
vn 0.27920422 0.06341439 -0.95813555
vn 0.24302655 0.17565964 -0.9539821
vn -0.53372824 -0.8244431 -0.18822253
vn -0.30265757 -0.73339695 -0.6087095
vn -0.59694165 -0.75916344 -0.25948304
vn -0.35270196 -0.93571025 -0.0068971487
vn -0.14981277 -0.90338516 -0.40180996
vn 0.03554878 -0.48456413 -0.8740331
vn 0.83286667 -0.43531793 -0.34180614
vn 0.85719895 -0.39404497 -0.33156994
vn 0.8363196 -0.4297231 -0.34045172
vn 0.8145337 -0.46375364 -0.34852186
vn -0.57389283 0.022465704 -0.81862223
vn -0.34929323 0.14897473 -0.925095
vn -0.3815546 0.1366617 -0.91418797
vn -0.30654442 -0.07523643 -0.94887817
vn -0.83393615 -0.42597562 -0.35084918
vn -0.10955181 0.09833163 -0.9891053
vn -0.30265757 -0.73339695 -0.6087095
vn 0.033725444 0.067059815 -0.9971788
vn 0.07132081 -0.18548566 -0.98005533
vn 0.03554878 -0.48456413 -0.8740331
vn 0.15564096 -0.36526462 -0.9178004
vn 0.27054882 -0.31429446 -0.9099573
vn 0.27920422 0.06341439 -0.95813555
vn 0.10259865 0.099337704 -0.9897502
vn 0.24302655 0.17565964 -0.9539821
vn 0.17465018 0.15703875 -0.9720268
g mdlMajorConstructStone2.002_0
f 3/3/3 2/2/2 1/1/1
f 3/3/3 1/1/1 4/4/4
f 3/3/3 4/4/4 5/5/5
f 6/6/6 5/5/5 4/4/4
f 6/6/6 4/4/4 7/7/7
f 8/8/8 6/6/6 7/7/7
f 6/6/6 8/8/8 5/5/5
f 7/7/7 9/9/9 8/8/8
f 8/8/8 9/9/9 10/10/10
f 11/11/11 8/8/8 10/10/10
f 12/12/12 8/8/8 11/11/11
f 8/8/8 13/13/13 5/5/5
f 14/14/14 13/13/13 8/8/8
f 8/8/8 12/12/12 14/14/14
f 15/15/15 14/14/14 12/12/12
f 16/16/16 3/3/3 5/5/5
f 3/3/3 16/16/16 17/17/17
f 3/3/3 17/17/17 18/18/18
f 17/17/17 19/19/19 18/18/18
f 20/20/20 18/18/18 19/19/19
f 21/21/21 17/17/17 16/16/16
f 5/5/5 21/21/21 16/16/16
f 22/22/22 17/17/17 21/21/21
f 23/23/23 22/22/22 21/21/21
f 21/21/21 5/5/5 23/23/23
f 5/5/5 13/13/13 23/23/23
f 13/13/13 24/24/24 23/23/23
f 25/25/25 24/24/24 13/13/13
f 26/26/26 24/24/24 25/25/25
f 26/26/26 27/27/27 24/24/24
f 24/24/24 27/27/27 28/28/28
f 29/29/29 28/28/28 27/27/27
f 30/30/30 28/28/28 29/29/29
f 31/31/31 28/28/28 30/30/30
f 28/28/28 31/31/31 32/32/32
f 32/32/32 31/31/31 33/33/33
f 34/34/34 33/33/33 31/31/31
f 35/35/35 34/34/34 31/31/31
f 36/36/36 34/34/34 35/35/35
f 38/38/38 37/37/37 13/13/13
f 37/37/37 38/38/38 39/39/39
f 40/40/40 39/39/39 38/38/38
f 38/38/38 13/13/13 41/41/41
f 42/42/42 41/41/41 13/13/13
f 13/13/13 14/14/14 42/42/42
f 42/42/42 14/14/14 43/43/43
f 14/14/14 44/44/44 43/43/43
f 42/42/42 45/45/45 41/41/41
f 41/41/41 45/45/45 46/46/46
f 47/47/47 41/41/41 46/46/46
f 50/50/50 49/49/49 48/48/48
f 51/51/51 48/48/48 49/49/49
f 52/52/52 51/51/51 49/49/49
f 52/52/52 49/49/49 53/53/53
f 56/56/56 55/55/55 54/54/54
f 57/57/57 56/56/56 54/54/54
f 60/60/60 59/59/59 58/58/58
f 59/59/59 61/61/61 58/58/58
f 61/61/61 62/62/62 58/58/58
f 63/63/63 61/61/61 59/59/59
f 61/61/61 64/64/64 62/62/62
f 63/63/63 65/65/65 61/61/61
f 66/66/66 64/64/64 61/61/61
f 65/65/65 66/66/66 61/61/61
f 66/66/66 67/67/67 64/64/64
f 68/68/68 67/67/67 66/66/66
f 68/68/68 66/66/66 69/69/69
f 66/66/66 70/70/70 69/69/69
f 70/70/70 66/66/66 65/65/65
f 71/71/71 70/70/70 65/65/65
f 72/72/72 70/70/70 71/71/71
f 73/73/73 72/72/72 71/71/71
