g mdlMajorConstructDeathShard1
v -0.3789512 0.25172412 -0.22410846
v 0.37051475 0.36927658 -0.22410846
v -0.349764 0.36927655 -0.22410846
v 0.4335097 0.30416173 -0.22410846
v -0.3789512 -0.3001566 -0.22410846
v 0.4335097 -0.44318482 -0.22410846
v -0.3475238 -0.44318482 -0.22410846
v 0.4335097 0.30416173 -0.22410846
v 0.4335097 -0.44318482 -0.22410846
v 0.43428662 -0.4439617 -0.014674861
v 0.4349787 0.3083227 0.17184648
v 0.4335097 -0.44318482 -0.22410846
v -0.07445663 -0.44376808 -0.066946864
v 0.43428662 -0.4439617 -0.014674861
v -0.3475238 -0.44318482 -0.22410846
v -0.35123998 -0.4439061 -0.02967155
v 0.37051475 0.36927658 -0.22410846
v 0.4335097 0.30416173 -0.22410846
v 0.4349787 0.3083227 0.17184648
v 0.37468362 0.37077978 0.18112528
v -0.349764 0.36927655 -0.22410846
v -0.065327555 0.37078962 0.18378294
v -0.35415316 0.37099478 0.22278821
v 0.13621506 0.37068862 0.1565783
v 0.37051475 0.36927658 -0.22410846
v 0.37468362 0.37077978 0.18112528
v -0.349764 0.36927655 -0.22410846
v -0.35415316 0.37099478 0.22278821
v -0.3804989 0.26360682 0.19312282
v -0.3789512 0.25172412 -0.22410846
v -0.35123998 -0.4439061 -0.02967155
v -0.3475238 -0.44318482 -0.22410846
v -0.3789512 -0.3001566 -0.22410846
v -0.3798394 -0.31761324 0.013249777
v -0.3789512 0.25172412 -0.22410846
v -0.3804989 0.26360682 0.19312282
v -0.35123998 -0.4439061 -0.02967155
v -0.3798394 -0.31761324 0.013249777
v -0.07445663 -0.44376808 -0.066946864
v 0.13621506 0.37068862 0.1565783
v 0.4349787 0.3083227 0.17184648
v 0.43428662 -0.4439617 -0.014674861
v 0.37468362 0.37077978 0.18112528
v -0.065327555 0.37078962 0.18378294
v -0.3804989 0.26360682 0.19312282
v -0.35415316 0.37099478 0.22278821
vt 0.5609986 0.30586782
vt 0.4890398 0.3177767
vt 0.5582878 0.31719303
vt 0.48293072 0.31156754
vt 0.56055146 0.25280973
vt 0.48232508 0.2397173
vt 0.55741405 0.23908442
vt 0.41162303 0.23750177
vt 0.48232508 0.2397173
vt 0.48299342 0.22033012
vt 0.41248804 0.20059942
vt 0.48232508 0.2397173
vt 0.53061295 0.22531976
vt 0.48299342 0.22033012
vt 0.55741405 0.23908442
vt 0.55709296 0.22177827
vt 0.40313795 0.23725328
vt 0.41162303 0.23750177
vt 0.41248804 0.20059942
vt 0.4044032 0.19955797
vt 0.3340858 0.23448059
vt 0.3622256 0.19761683
vt 0.33625427 0.19355087
vt 0.3814891 0.20092435
vt 0.40313795 0.23725328
vt 0.4044032 0.19955797
vt 0.3340858 0.23448059
vt 0.33625427 0.19355087
vt 0.32581958 0.19550598
vt 0.32262483 0.2338473
vt 0.55709296 0.22177827
vt 0.55741405 0.23908442
vt 0.57093716 0.23876451
vt 0.5689056 0.21773349
vt 0.62103254 0.23725812
vt 0.620973 0.19935225
vt 0.3542378 0.18925835
vt 0.35548323 0.18345945
vt 0.3651405 0.19379827
vt 0.38873336 0.16289112
vt 0.40033302 0.17101528
vt 0.38679603 0.20310827
vt 0.3988875 0.16724734
vt 0.38079825 0.15957685
vt 0.3663733 0.1589233
vt 0.36942777 0.15482467
vn -0 0 -1
vn -0 0 -1
vn -0 0 -1
vn -0 0 -1
vn -0 0 -1
vn -0 0 -1
vn -0 0 -1
vn 0.9999932 0 -0.003709893
vn 0.9999932 0 -0.0037095835
vn 0.9999932 0 -0.0037096902
vn 0.9999932 0 -0.0037099575
vn -0 -0.9999932 -0.0037100047
vn -0 -0.9999931 -0.0037106574
vn -0 -0.9999932 -0.003709759
vn -0 -0.9999932 -0.0037102315
vn -0 -0.9999932 -0.0037098324
vn 0.71867335 0.69527644 -0.009972696
vn 0.7186734 0.69527626 -0.00997274
vn 0.7186726 0.69527704 -0.009972454
vn 0.7186725 0.6952772 -0.009972411
vn 7.4959156E-05 0.99999297 -0.0037615786
vn 6.700985E-05 0.99999297 -0.0037561012
vn 0.00019134395 0.9999926 -0.003842826
vn -0 0.9999932 -0.003709432
vn -0 0.9999932 -0.0037093344
vn -0 0.9999932 -0.0037096299
vn -0.97047776 0.24096343 -0.010461743
vn -0.9704743 0.24097754 -0.010457933
vn -0.98932564 0.14551158 -0.007811444
vn -0.9928388 0.11925141 -0.007083282
vn -0.9765205 -0.21454518 -0.019441474
vn -0.97651505 -0.21456857 -0.019459516
vn -0.99462163 -0.10295684 -0.011301259
vn -0.99575776 -0.09141961 -0.0104426555
vn -0.9928388 0.11925141 -0.007083282
vn -0.98932564 0.14551158 -0.007811444
vn 0.12775065 -0.29308757 0.9475122
vn 0.12775092 -0.2930869 0.94751245
vn 0.03203148 -0.27222157 0.96170133
vn -0.002707536 -0.26400807 0.9645167
vn -0.09932762 -0.23937686 0.96583277
vn -0.09932782 -0.23937707 0.96583265
vn -0.099327326 -0.23937589 0.96583295
vn 0.12775064 -0.29308632 0.9475126
vn 0.12775108 -0.29308674 0.94751245
vn 0.12775134 -0.29308718 0.9475122
g mdlMajorConstructDeathShard1_0
f 3/3/3 2/2/2 1/1/1
f 4/4/4 1/1/1 2/2/2
f 1/1/1 4/4/4 5/5/5
f 6/6/6 5/5/5 4/4/4
f 7/7/7 5/5/5 6/6/6
f 10/10/10 9/9/9 8/8/8
f 11/11/11 10/10/10 8/8/8
f 14/14/14 13/13/13 12/12/12
f 12/12/12 13/13/13 15/15/15
f 15/15/15 13/13/13 16/16/16
f 19/19/19 18/18/18 17/17/17
f 20/20/20 19/19/19 17/17/17
f 23/23/23 22/22/22 21/21/21
f 22/22/22 24/24/24 21/21/21
f 21/21/21 24/24/24 25/25/25
f 25/25/25 24/24/24 26/26/26
f 29/29/29 28/28/28 27/27/27
f 30/30/30 29/29/29 27/27/27
f 33/33/33 32/32/32 31/31/31
f 34/34/34 33/33/33 31/31/31
f 35/35/35 33/33/33 34/34/34
f 36/36/36 35/35/35 34/34/34
f 39/39/39 38/38/38 37/37/37
f 40/40/40 38/38/38 39/39/39
f 39/39/39 41/41/41 40/40/40
f 39/39/39 42/42/42 41/41/41
f 40/40/40 41/41/41 43/43/43
f 44/44/44 38/38/38 40/40/40
f 38/38/38 44/44/44 45/45/45
f 46/46/46 45/45/45 44/44/44
