g mdlMajorConstructDeathShard2
v -0.30020705 -0.19314718 0.33757657
v -0.017826002 -0.20504755 0.40561873
v -0.28298083 -0.2059837 0.33066827
v -0.50389284 -0.21013921 -0.25552833
v -0.4966766 -0.20873863 -0.6330904
v -0.507462 -0.16093746 -0.61893356
v -0.5173378 -0.11704198 -0.60593426
v -0.5193309 -0.15576506 -0.07791929
v -0.5193281 -0.03925751 -0.07486517
v -0.5167192 -0.102543205 0.1415988
v -0.51754814 0.10055721 -0.54299814
v -0.5193309 -0.15576506 -0.07791929
v -0.426958 -0.21086425 -0.060065433
v -0.50389284 -0.21013921 -0.25552833
v -0.5167192 -0.102543205 0.1415988
v -0.30020705 -0.19314718 0.33757657
v -0.28298083 -0.2059837 0.33066827
v -0.436053 -0.116129756 0.29525685
v 0.29732236 -0.18776953 0.36683828
v 0.2929059 -0.2056796 0.35501534
v 0.18037803 -0.20446599 0.45217842
v 0.29608926 -0.07557809 0.46558267
v 0.29966363 -0.20787334 0.17938764
v 0.2929059 -0.2056796 0.35501534
v 0.29732236 -0.18776953 0.36683828
v 0.2963172 0.09553371 0.4472974
v 0.29608926 -0.07557809 0.46558267
v 0.30265436 0.13463838 -0.060065314
v 0.30265436 -0.21086425 -0.060065314
v 0.30176458 0.15678069 -0.30003315
v 0.3010987 0.40720823 -0.47956994
v 0.30043766 -0.20864758 -0.6576561
v 0.30265445 0.2831717 -0.060071856
v 0.30265436 0.17019895 -0.060065314
v 0.2985601 0.18413927 0.26772016
v 0.30265436 0.17019895 -0.060065314
v 0.30176458 0.15678069 -0.30003315
v 0.25156733 0.14834751 0.32529017
v 0.2985601 0.18413927 0.26772016
v 0.18037803 -0.20446599 0.45217842
v 0.2929059 -0.2056796 0.35501534
v -0.017826002 -0.20504755 0.40561873
v 0.29966363 -0.20787334 0.17938764
v 0.30265436 -0.21086425 -0.060065314
v -0.28298083 -0.2059837 0.33066827
v -0.426958 -0.21086425 -0.060065433
v -0.50389284 -0.21013921 -0.25552833
v 0.30043766 -0.20864758 -0.6576561
v -0.4966766 -0.20873863 -0.6330904
v -0.51754814 0.10055721 -0.54299814
v 0.30043766 -0.20864758 -0.6576561
v 0.3010987 0.40720823 -0.47956994
v -0.5173378 -0.11704198 -0.60593426
v -0.507462 -0.16093746 -0.61893356
v -0.4966766 -0.20873863 -0.6330904
v -0.32322165 -0.07814184 0.3183914
v -0.30020705 -0.19314718 0.33757657
v -0.436053 -0.116129756 0.29525685
v 0.12547171 0.07325061 0.40928918
v -0.017826002 -0.20504755 0.40561873
v 0.2097078 0.10174532 0.4261089
v 0.18037803 -0.20446599 0.45217842
v 0.24959159 0.115245745 0.43404284
v 0.29608926 -0.07557809 0.46558267
v 0.2963172 0.09553371 0.4472974
v 0.2691488 0.12184642 0.43799847
v 0.24959159 0.115245745 0.43404284
v 0.25156733 0.14834751 0.32529017
v 0.2691488 0.12184642 0.43799847
v 0.2097078 0.10174532 0.4261089
v 0.12547171 0.07325061 0.40928918
v 0.30265445 0.2831717 -0.060071856
v 0.2985601 0.18413927 0.26772016
v -0.32322165 -0.07814184 0.3183914
v -0.5193281 -0.03925751 -0.07486517
v 0.3010987 0.40720823 -0.47956994
v -0.51754814 0.10055721 -0.54299814
v -0.5167192 -0.102543205 0.1415988
v -0.436053 -0.116129756 0.29525685
v 0.25156733 0.14834751 0.32529017
v 0.2963172 0.09553371 0.4472974
v 0.2691488 0.12184642 0.43799847
v 0.30265436 0.13463838 -0.060065314
v 0.30176458 0.15678069 -0.30003315
vt 0.54085773 0.089090645
vt 0.516437 0.08191102
vt 0.5390256 0.09002249
vt 0.55562043 0.14240837
vt 0.5562439 0.17601383
vt 0.560745 0.17464676
vt 0.5646531 0.17357215
vt 0.5601434 0.12678732
vt 0.5705279 0.12576677
vt 0.56249726 0.1066441
vt 0.5839335 0.16656807
vt 0.5601434 0.12678732
vt 0.55063593 0.12498726
vt 0.55562043 0.14240837
vt 0.56249726 0.1066441
vt 0.54085773 0.089090645
vt 0.5390256 0.09002249
vt 0.5554061 0.09270246
vt 0.4893522 0.085016385
vt 0.49057436 0.08629878
vt 0.49872747 0.077466205
vt 0.48301083 0.07434357
vt 0.48793563 0.10043092
vt 0.49057436 0.08629878
vt 0.4893522 0.085016385
vt 0.46753693 0.07177194
vt 0.48301083 0.07434357
vt 0.45515054 0.117707945
vt 0.48641524 0.12107707
vt 0.45108214 0.1400951
vt 0.42696238 0.1570352
vt 0.48450813 0.17639574
vt 0.43885472 0.117348984
vt 0.44940704 0.117035955
vt 0.44600728 0.086192474
vt 0.6577444 0.32743225
vt 0.63573825 0.32807562
vt 0.6930281 0.3326397
vt 0.6877998 0.32718444
vt 0.49872747 0.077466205
vt 0.49057436 0.08629878
vt 0.516437 0.08191102
vt 0.48793563 0.10043092
vt 0.48641524 0.12107707
vt 0.5390256 0.09002249
vt 0.55063593 0.12498726
vt 0.55562043 0.14240837
vt 0.48450813 0.17639574
vt 0.5562439 0.17601383
vt 0.5373155 0.15347722
vt 0.509432 0.17877674
vt 0.50093603 0.15179062
vt 0.5403214 0.16300762
vt 0.5407246 0.16497816
vt 0.5411622 0.16712454
vt 0.5463346 0.07995894
vt 0.54085773 0.089090645
vt 0.5550989 0.08638306
vt 0.5115164 0.054381285
vt 0.516437 0.08191102
vt 0.5050736 0.049547583
vt 0.49872747 0.077466205
vt 0.5018876 0.047392204
vt 0.49204317 0.06289072
vt 0.49706873 0.047823034
vt 0.50030863 0.046265274
vt 0.51933753 0.26200998
vt 0.5191257 0.26724154
vt 0.5183759 0.26190102
vt 0.52129877 0.26222616
vt 0.52544093 0.2626855
vt 0.5161981 0.28596136
vt 0.51674455 0.27020097
vt 0.5475037 0.26519507
vt 0.5567753 0.28327155
vt 0.51583433 0.30610302
vt 0.55619574 0.30576283
vt 0.55687374 0.27288577
vt 0.5530516 0.26583946
vt 0.6930281 0.3326397
vt 0.7033269 0.34032443
vt 0.70292485 0.33677936
vt 0.65739816 0.33233747
vt 0.63573825 0.32807562
vn -0.20209281 -0.6604109 0.72319853
vn -0.20209281 -0.6604109 0.72319853
vn -0.20209281 -0.6604109 0.72319853
vn -0.9766377 -0.21401632 -0.019383678
vn -0.9765148 -0.21456972 -0.019459821
vn -0.97657317 -0.2143076 -0.019423747
vn -0.99246126 -0.1219006 -0.01268617
vn -0.9996785 -0.02534482 0.00080277043
vn -0.99999607 -4.903608E-05 0.0027954269
vn -0.99992836 -0.00029023679 0.011966783
vn -0.99999297 0.00012266655 -0.003765672
vn -0.53033966 -0.8224516 0.20570199
vn -0.5303447 -0.82244843 0.2057014
vn -0.5303394 -0.8224541 0.2056925
vn -0.5303548 -0.82244176 0.205702
vn -0.5303618 -0.8224375 0.20570083
vn -0.530364 -0.82243615 0.20570067
vn -0.53036046 -0.82243764 0.20570408
vn 0.54150206 -0.5520745 0.6340262
vn 0.5415032 -0.552071 0.6340283
vn 0.541501 -0.55207795 0.63402426
vn 0.54150057 -0.55207896 0.63402355
vn 0.99987674 -0.008230063 0.0133712785
vn 0.9636026 -0.26427174 0.0403781
vn 0.9971527 -0.07264113 0.0202445
vn 0.99992204 0 0.0124882385
vn 0.99992204 0 0.012484394
vn 0.99999225 0 0.003957408
vn 0.99999046 0 0.0043673487
vn 0.9999931 0 -0.0037133116
vn 0.9999932 0 -0.0037091395
vn 0.9999932 0 -0.0037093675
vn 0.9999958 0 0.0028903126
vn 0.9999914 0 0.004138859
vn 0.99992204 0 0.012489646
vn 0.6364974 -0.7702038 0.040707123
vn 0.6364977 -0.7702036 0.040707167
vn 0.6364927 -0.7702077 0.040706303
vn 0.63649225 -0.7702081 0.040706214
vn -0 -0.99992204 0.01248936
vn -0 -0.99992204 0.012489733
vn -0 -0.99992204 0.012489599
vn -0 -0.99992204 0.01248979
vn -0 -0.99999046 0.004367588
vn -0 -0.99992204 0.01248966
vn -0 -0.9999968 0.0025263913
vn -0 -0.9999932 -0.0037094238
vn -0 -0.9999932 -0.003709368
vn -0 -0.9999932 -0.0037095435
vn -0.02962357 0.27769396 -0.96021265
vn -0.029623287 0.27769473 -0.9602126
vn -0.029623112 0.2776951 -0.96021247
vn -0.029623797 0.27769375 -0.96021277
vn -0.029623792 0.27769393 -0.96021265
vn -0.029623909 0.27769327 -0.9602129
vn -0.23508045 0.11398208 0.9652695
vn -0.2335731 0.112014316 0.9658657
vn -0.2361572 0.11372771 0.96503675
vn -0.2291742 0.10572044 0.9676272
vn -0.22845705 0.104791656 0.9678977
vn -0.22802123 0.104397744 0.968043
vn -0.22788127 0.10426082 0.9680908
vn -0.2294024 0.10398036 0.96776164
vn -0.2285971 0.10427828 0.9679202
vn -0.23069587 0.10369794 0.9674845
vn -0.23068717 0.10371885 0.96748424
vn -0.35614446 0.89572126 0.2661663
vn -0.356144 0.8957214 0.26616672
vn -0.35614508 0.8957211 0.26616627
vn -0.35614395 0.8957215 0.26616645
vn -0.3561439 0.8957214 0.26616666
vn -0.35614404 0.8957215 0.26616645
vn -0.35614443 0.8957212 0.26616663
vn -0.3561441 0.8957214 0.2661664
vn -0.35614422 0.8957214 0.26616627
vn -0.35614416 0.8957215 0.2661662
vn -0.3561443 0.8957215 0.266166
vn -0.35614452 0.8957212 0.26616657
vn -0.3561443 0.8957215 0.26616618
vn 0.6827502 0.7277886 0.06462177
vn 0.68274933 0.7277893 0.06462217
vn 0.68274885 0.7277897 0.06462245
vn 0.6827539 0.72778493 0.06462239
vn 0.68275416 0.7277848 0.06462243
g mdlMajorConstructDeathShard2_0
f 3/3/3 2/2/2 1/1/1
f 6/6/6 5/5/5 4/4/4
f 7/7/7 6/6/6 4/4/4
f 8/8/8 7/7/7 4/4/4
f 9/9/9 7/7/7 8/8/8
f 9/9/9 8/8/8 10/10/10
f 11/11/11 7/7/7 9/9/9
f 14/14/14 13/13/13 12/12/12
f 12/12/12 13/13/13 15/15/15
f 15/15/15 13/13/13 16/16/16
f 16/16/16 13/13/13 17/17/17
f 18/18/18 15/15/15 16/16/16
f 21/21/21 20/20/20 19/19/19
f 22/22/22 21/21/21 19/19/19
f 25/25/25 24/24/24 23/23/23
f 23/23/23 26/26/26 25/25/25
f 27/27/27 25/25/25 26/26/26
f 26/26/26 23/23/23 28/28/28
f 28/28/28 23/23/23 29/29/29
f 29/29/29 30/30/30 28/28/28
f 31/31/31 30/30/30 29/29/29
f 32/32/32 31/31/31 29/29/29
f 30/30/30 31/31/31 33/33/33
f 34/34/34 30/30/30 33/33/33
f 33/33/33 35/35/35 34/34/34
f 38/38/38 37/37/37 36/36/36
f 39/39/39 38/38/38 36/36/36
f 42/42/42 41/41/41 40/40/40
f 42/42/42 43/43/43 41/41/41
f 43/43/43 42/42/42 44/44/44
f 45/45/45 44/44/44 42/42/42
f 46/46/46 44/44/44 45/45/45
f 46/46/46 47/47/47 44/44/44
f 44/44/44 47/47/47 48/48/48
f 47/47/47 49/49/49 48/48/48
f 52/52/52 51/51/51 50/50/50
f 53/53/53 50/50/50 51/51/51
f 54/54/54 53/53/53 51/51/51
f 55/55/55 54/54/54 51/51/51
f 58/58/58 57/57/57 56/56/56
f 57/57/57 59/59/59 56/56/56
f 59/59/59 57/57/57 60/60/60
f 61/61/61 59/59/59 60/60/60
f 61/61/61 60/60/60 62/62/62
f 63/63/63 61/61/61 62/62/62
f 63/63/63 62/62/62 64/64/64
f 63/63/63 64/64/64 65/65/65
f 66/66/66 63/63/63 65/65/65
f 69/69/69 68/68/68 67/67/67
f 67/67/67 68/68/68 70/70/70
f 70/70/70 68/68/68 71/71/71
f 68/68/68 72/72/72 71/71/71
f 73/73/73 72/72/72 68/68/68
f 71/71/71 72/72/72 74/74/74
f 72/72/72 75/75/75 74/74/74
f 76/76/76 75/75/75 72/72/72
f 76/76/76 77/77/77 75/75/75
f 78/78/78 74/74/74 75/75/75
f 79/79/79 74/74/74 78/78/78
f 82/82/82 81/81/81 80/80/80
f 81/81/81 83/83/83 80/80/80
f 84/84/84 80/80/80 83/83/83
