g mdlMoon_Pillar_Busted1
v 0.9683862 0.6509032 -6.2924433
v 1 0.59546614 -6.285569
v 0.9999999 0.6503644 -6.3000145
v 0.9683862 0.6509032 -6.2924433
v 0.9959551 0.8802519 -6.415172
v 0.8762046 1.000002 -6.464973
v 0.5674168 1.000002 -6.432102
v 0.9683862 0.6509032 -6.2924433
v 0.9999999 0.6503644 -6.3000145
v 0.9999999 0.87620676 -6.4141316
v 0.9959551 0.8802519 -6.415172
v 0.876206 0.9999992 -4.7683716E-07
v 1.0000012 0.87620395 -4.7683716E-07
v 0.9999999 -0.8762027 4.2915344E-06
v 0.876206 -1.0000006 -1.4305115E-06
v -0.8762035 0.9999993 -1.4305115E-06
v -0.8762035 -1.0000006 -1.4305115E-06
v -0.99999875 0.8762041 -1.4305115E-06
v -1.0000001 -0.8762027 4.2915344E-06
v -1.0000001 -0.8762027 -2.2499957
v -0.99999875 0.8762041 -1.4305115E-06
v -1.0000001 -0.8762027 4.2915344E-06
v -1.0000001 0.87620676 -2.2499957
v -1.0000001 -0.8762027 -4.4999957
v -1.0000001 0.87620676 -4.4999957
v -1.0000001 -0.8762027 -5.751883
v -1.0000001 -0.7554416 -5.7041397
v -1.0000001 0.05173417 -6.37128
v -1.0000001 0.8762067 -6.587568
v -0.87620485 1.000002 -2.2499957
v 0.876206 0.9999992 -4.7683716E-07
v -0.8762035 0.9999993 -1.4305115E-06
v 0.8762046 1.000002 -2.2499957
v -0.87620485 1.000002 -4.4999957
v 0.8762046 1.000002 -4.4999957
v 0.5674168 1.000002 -6.432102
v 0.8762046 1.000002 -6.464973
v -0.8762049 1.000002 -6.6052003
v 0.9999999 0.87620676 -2.2499957
v 0.9999999 -0.8762027 4.2915344E-06
v 1.0000012 0.87620395 -4.7683716E-07
v 0.9999999 -0.8762027 -2.2499957
v 0.9999999 0.87620676 -4.4999957
v 0.9999999 -0.8762027 -4.4999957
v 1 0.59546614 -6.285569
v 0.9999999 -0.8762027 -5.119983
v 0.9999999 0.6503644 -6.3000145
v 0.9999999 0.87620676 -6.4141316
v 0.8762046 -0.999998 -2.2499957
v -0.8762035 -1.0000006 -1.4305115E-06
v 0.876206 -1.0000006 -1.4305115E-06
v -0.87620485 -0.999998 -2.2499957
v 0.8762046 -0.999998 -4.4999957
v -0.87620485 -0.999998 -4.4999957
v 0.8762046 -0.999998 -4.954837
v -0.7055955 -0.99999815 -5.416151
v -0.87620485 -0.999998 -5.6390724
v -0.87620485 -0.999998 -2.2499957
v -1.0000001 -0.8762027 4.2915344E-06
v -0.8762035 -1.0000006 -1.4305115E-06
v -1.0000001 -0.8762027 -2.2499957
v -0.87620485 -0.999998 -4.4999957
v -1.0000001 -0.8762027 -4.4999957
v -1.0000001 -0.8762027 -5.751883
v -0.87620485 -0.999998 -5.6390724
v -0.8762035 0.9999993 -1.4305115E-06
v -0.99999875 0.8762041 -1.4305115E-06
v -1.0000001 0.87620676 -2.2499957
v -0.87620485 1.000002 -2.2499957
v -1.0000001 0.87620676 -4.4999957
v -0.87620485 1.000002 -4.4999957
v -1.0000001 0.8762067 -6.587568
v -0.8762049 1.000002 -6.6052003
v 1.0000012 0.87620395 -4.7683716E-07
v 0.876206 0.9999992 -4.7683716E-07
v 0.8762046 1.000002 -2.2499957
v 0.9999999 0.87620676 -2.2499957
v 0.8762046 1.000002 -4.4999957
v 0.9999999 0.87620676 -4.4999957
v 0.9959551 0.8802519 -6.415172
v 0.9999999 0.87620676 -6.4141316
v 0.8762046 1.000002 -6.464973
v 0.876206 -1.0000006 -1.4305115E-06
v 0.9999999 -0.8762027 4.2915344E-06
v 0.9999999 -0.8762027 -2.2499957
v 0.8762046 -0.999998 -2.2499957
v 0.9999999 -0.8762027 -4.4999957
v 0.8762046 -0.999998 -4.4999957
v 0.9307469 -0.9454559 -4.98401
v 0.8762046 -0.999998 -4.954837
v 0.9999999 -0.8762027 -5.119983
v 0.9307469 -0.9454559 -4.98401
v 0.9999999 -0.8762027 -5.119983
v 1 0.59546614 -6.285569
v 0.9683862 0.6509032 -6.2924433
v -1.0000001 -0.7554416 -5.7041397
v -1.0000001 -0.8762027 -5.751883
v -0.87620485 -0.999998 -5.6390724
v -0.7055955 -0.99999815 -5.416151
v -1.0000001 0.05173417 -6.37128
v 0.9683862 0.6509032 -6.2924433
v 0.5674168 1.000002 -6.432102
v -0.8762049 1.000002 -6.6052003
v -1.0000001 0.8762067 -6.587568
v 0.9307469 -0.9454559 -4.98401
v 0.9683862 0.6509032 -6.2924433
v -1.0000001 0.05173417 -6.37128
v 0.8762046 -0.999998 -4.954837
v -0.7055955 -0.99999815 -5.416151
v -1.0000001 -0.7554416 -5.7041397
vt 0.069613844 0.32323888
vt 0.06889462 0.31509206
vt 0.062295735 0.3215584
vt 0.069613844 0.32323888
vt 0.034951992 0.35068455
vt 0.047467895 0.37187496
vt 0.11793794 0.38766626
vt 0.069613844 0.32323888
vt 0.062295735 0.3215584
vt 0.034505036 0.3499693
vt 0.034951992 0.35068455
vt 0.46701744 0.49999988
vt 0.532983 0.49999988
vt 0.9998751 0.2665534
vt 0.999876 0.23357058
vt 0.00012397904 0.26655328
vt 0.5329825 0.00012397904
vt 0.00012397904 0.2335705
vt 0.46701494 0.0001241587
vt 1.3141227 0.075850576
vt 2.1282458 0.39288992
vt 2.128246 0.075850576
vt 1.3141227 0.39288992
vt 0.49999973 0.07585051
vt 0.49999985 0.3928898
vt 0.047026306 0.07585056
vt 0.0643014 0.09769819
vt -0.17709154 0.24372932
vt -0.25535128 0.3928897
vt 1.3141227 0.1730493
vt 2.1282458 0.4900887
vt 2.1282458 0.17304938
vt 1.3141227 0.49008858
vt 0.49999973 0.1730493
vt 0.49999976 0.49008852
vt -0.19909891 0.43422383
vt -0.2109926 0.49008852
vt -0.26173145 0.17304936
vt 1.3141222 0.09705828
vt 2.1282454 0.41409755
vt 2.1282458 0.09705828
vt 1.3141222 0.41409755
vt 0.49999955 0.09705828
vt 0.49999955 0.41409755
vt -0.14607874 0.1478488
vt 0.27566803 0.41409755
vt -0.15130553 0.13791682
vt -0.19259682 0.09705828
vt 1.3141224 0.13285717
vt 2.1282458 0.4498966
vt 2.1282458 0.13285726
vt 1.3141222 0.44989654
vt 0.49999964 0.13285732
vt 0.49999955 0.44989645
vt 0.33542335 0.13285732
vt 0.16850497 0.41903046
vt 0.08784482 0.4498965
vt 1.3982089 0.83186615
vt 2.2964191 0.8565761
vt 2.2964191 0.83186626
vt 1.3982089 0.8565759
vt 0.49999952 0.8318661
vt 0.49999952 0.85657585
vt 0.00024092197 0.85657585
vt 0.045275405 0.83186615
vt 2.2964191 0.85480404
vt 2.2964191 0.8300943
vt 1.3982093 0.83009416
vt 1.3982093 0.8548039
vt 0.49999967 0.83009416
vt 0.4999997 0.8548039
vt -0.33336788 0.8300943
vt -0.3404068 0.85480404
vt 2.2964191 0.8551275
vt 2.2964191 0.83041775
vt 1.3982089 0.83041775
vt 1.3982089 0.8551275
vt 0.49999952 0.83041775
vt 0.49999952 0.8551275
vt -0.26454702 0.8543201
vt -0.26413167 0.8551275
vt -0.28442767 0.83041775
vt 2.2964191 0.85389984
vt 2.2964191 0.8291901
vt 1.3982091 0.8291899
vt 1.3982091 0.8538997
vt 0.4999996 0.8291901
vt 0.4999996 0.85389984
vt 0.30677894 0.84301317
vt 0.31842506 0.85389984
vt 0.25249797 0.8291901
vt 0.26185966 0.12995908
vt 0.23832953 0.13539691
vt 0.06889462 0.31509206
vt 0.069613844 0.32323888
vt 0.6676082 0.27288455
vt 0.6835663 0.2606136
vt 0.67076385 0.23821153
vt 0.630575 0.22467421
vt 0.57461715 0.37179297
vt 0.069613844 0.32323888
vt 0.11793794 0.38766626
vt 0.4374341 0.47414112
vt 0.47916424 0.46722704
vt 0.26185966 0.12995908
vt 0.069613844 0.32323888
vt 0.57461715 0.37179297
vt 0.28022364 0.12665549
vt 0.630575 0.22467421
vt 0.6676082 0.27288455
vn -0.22964019 -0.24766669 -0.9412368
vn -0.22964019 -0.24766669 -0.9412368
vn -0.22964019 -0.24766669 -0.9412368
vn -0.09393812 -0.46092573 -0.8824529
vn -0.09393812 -0.46092573 -0.8824529
vn -0.09393812 -0.46092573 -0.8824529
vn -0.09393812 -0.46092573 -0.8824529
vn -0.21619877 -0.44032463 -0.8714197
vn -0.21619877 -0.44032463 -0.8714197
vn -0.21619877 -0.44032463 -0.8714197
vn -0.21619877 -0.44032463 -0.8714197
vn -0 0 1
vn -0 0 1
vn -0 0 1
vn -0 0 1
vn -0 0 1
vn -0 0 1
vn -0 0 1
vn -0 0 1
vn -1 0 0
vn -1 0 0
vn -1 0 0
vn -1 0 0
vn -1 0 0
vn -1 0 0
vn -1 0 0
vn -1 0 0
vn -1 0 0
vn -1 0 0
vn -0 1 0
vn -0 1 0
vn -0 1 0
vn -0 1 0
vn -0 1 0
vn -0 1 0
vn -0 1 0
vn -0 1 0
vn -0 1 0
vn 1 0 0
vn 1 0 0
vn 1 0 0
vn 1 0 0
vn 1 0 0
vn 1 0 0
vn 1 0 0
vn 1 0 0
vn 1 0 0
vn 1 0 0
vn -0 -1 0
vn -0 -1 0
vn -0 -1 0
vn -0 -1 0
vn -0 -1 0
vn -0 -1 0
vn -0 -1 0
vn -0 -1 0
vn -0 -1 0
vn -0.70710766 -0.7071058 0
vn -0.70710844 -0.70710504 0
vn -0.70710844 -0.70710504 0
vn -0.7071076 -0.7071059 0
vn -0.70710677 -0.7071067 0
vn -0.70710677 -0.7071067 0
vn -0.70710677 -0.70710677 0
vn -0.70710677 -0.70710677 0
vn -0.70710677 0.70710677 0
vn -0.70710677 0.70710677 0
vn -0.70710677 0.70710677 0
vn -0.70710677 0.7071067 0
vn -0.70710677 0.70710677 0
vn -0.70710677 0.70710677 0
vn -0.7071067 0.7071068 0
vn -0.7071067 0.7071068 0
vn 0.70710725 0.70710623 0
vn 0.70710725 0.70710623 0
vn 0.70710695 0.7071066 0
vn 0.70710695 0.70710653 0
vn 0.7071067 0.7071068 0
vn 0.7071067 0.7071068 0
vn 0.70710677 0.70710677 0
vn 0.70710677 0.70710677 0
vn 0.70710677 0.70710677 0
vn 0.70711255 -0.707101 0
vn 0.70711255 -0.707101 0
vn 0.7071096 -0.70710397 0
vn 0.7071096 -0.7071039 0
vn 0.7071067 -0.7071068 0
vn 0.7071067 -0.7071068 0
vn 0.70710677 -0.70710677 0
vn 0.70710677 -0.70710677 0
vn 0.70710677 -0.70710677 0
vn -0.6763699 -0.45731023 -0.57740027
vn -0.6763699 -0.45731023 -0.57740027
vn -0.6763699 -0.45731023 -0.57740027
vn -0.6763699 -0.45731023 -0.57740027
vn 0.7721399 0.23363182 -0.5909452
vn 0.7721399 0.23363182 -0.5909452
vn 0.7721399 0.23363182 -0.5909452
vn 0.7721399 0.23363182 -0.5909452
vn 0.115208596 -0.2520589 -0.96082944
vn 0.115208596 -0.2520589 -0.96082944
vn 0.115208596 -0.2520589 -0.96082944
vn 0.115208596 -0.2520589 -0.96082944
vn 0.115208596 -0.2520589 -0.96082944
vn 0.2193222 -0.621565 -0.75203377
vn 0.2193222 -0.621565 -0.75203377
vn 0.2193222 -0.621565 -0.75203377
vn 0.2193222 -0.621565 -0.75203377
vn 0.2193222 -0.621565 -0.75203377
vn 0.2193222 -0.621565 -0.75203377
g mdlMoon_Pillar_Busted1_0
f 3/3/3 2/2/2 1/1/1
f 6/6/6 5/5/5 4/4/4
f 7/7/7 6/6/6 4/4/4
f 10/10/10 9/9/9 8/8/8
f 11/11/11 10/10/10 8/8/8
f 14/14/14 13/13/13 12/12/12
f 12/12/12 15/15/15 14/14/14
f 12/12/12 16/16/16 15/15/15
f 16/16/16 17/17/17 15/15/15
f 16/16/16 18/18/18 17/17/17
f 18/18/18 19/19/19 17/17/17
f 22/22/22 21/21/21 20/20/20
f 21/21/21 23/23/23 20/20/20
f 20/20/20 23/23/23 24/24/24
f 23/23/23 25/25/25 24/24/24
f 26/26/26 24/24/24 25/25/25
f 25/25/25 27/27/27 26/26/26
f 25/25/25 28/28/28 27/27/27
f 25/25/25 29/29/29 28/28/28
f 32/32/32 31/31/31 30/30/30
f 31/31/31 33/33/33 30/30/30
f 30/30/30 33/33/33 34/34/34
f 33/33/33 35/35/35 34/34/34
f 36/36/36 34/34/34 35/35/35
f 35/35/35 37/37/37 36/36/36
f 36/36/36 38/38/38 34/34/34
f 41/41/41 40/40/40 39/39/39
f 40/40/40 42/42/42 39/39/39
f 39/39/39 42/42/42 43/43/43
f 42/42/42 44/44/44 43/43/43
f 45/45/45 43/43/43 44/44/44
f 44/44/44 46/46/46 45/45/45
f 45/45/45 47/47/47 43/43/43
f 47/47/47 48/48/48 43/43/43
f 51/51/51 50/50/50 49/49/49
f 50/50/50 52/52/52 49/49/49
f 49/49/49 52/52/52 53/53/53
f 52/52/52 54/54/54 53/53/53
f 55/55/55 53/53/53 54/54/54
f 56/56/56 55/55/55 54/54/54
f 54/54/54 57/57/57 56/56/56
f 60/60/60 59/59/59 58/58/58
f 59/59/59 61/61/61 58/58/58
f 58/58/58 61/61/61 62/62/62
f 61/61/61 63/63/63 62/62/62
f 62/62/62 63/63/63 64/64/64
f 65/65/65 62/62/62 64/64/64
f 68/68/68 67/67/67 66/66/66
f 69/69/69 68/68/68 66/66/66
f 70/70/70 68/68/68 69/69/69
f 71/71/71 70/70/70 69/69/69
f 72/72/72 70/70/70 71/71/71
f 73/73/73 72/72/72 71/71/71
f 76/76/76 75/75/75 74/74/74
f 77/77/77 76/76/76 74/74/74
f 78/78/78 76/76/76 77/77/77
f 79/79/79 78/78/78 77/77/77
f 80/80/80 78/78/78 79/79/79
f 79/79/79 81/81/81 80/80/80
f 80/80/80 82/82/82 78/78/78
f 85/85/85 84/84/84 83/83/83
f 86/86/86 85/85/85 83/83/83
f 87/87/87 85/85/85 86/86/86
f 88/88/88 87/87/87 86/86/86
f 89/89/89 87/87/87 88/88/88
f 88/88/88 90/90/90 89/89/89
f 89/89/89 91/91/91 87/87/87
f 94/94/94 93/93/93 92/92/92
f 95/95/95 94/94/94 92/92/92
f 98/98/98 97/97/97 96/96/96
f 99/99/99 98/98/98 96/96/96
f 102/102/102 101/101/101 100/100/100
f 100/100/100 103/103/103 102/102/102
f 100/100/100 104/104/104 103/103/103
f 107/107/107 106/106/106 105/105/105
f 105/105/105 108/108/108 107/107/107
f 108/108/108 109/109/109 107/107/107
f 109/109/109 110/110/110 107/107/107
