g mdlMoon_Pillar_Busted2
v -1.0000002 0.60782784 -2.590903
v -1.0000002 0.22311085 -2.2499962
v -1.0000002 -0.8762027 -1.2758676
v 0.876206 0.9999992 -4.7683716E-07
v 1.0000011 0.87620395 -4.7683716E-07
v 0.9999999 -0.8762027 4.2915344E-06
v 0.876206 -1.0000006 -1.4305115E-06
v -0.8762035 0.9999993 -1.4305115E-06
v -0.8762035 -1.0000006 -1.4305115E-06
v -0.99999875 0.8762041 -1.4305115E-06
v -1.0000002 -0.8762027 4.2915344E-06
v -0.87620485 1.000002 -2.2499962
v 0.876206 0.9999992 -4.7683716E-07
v -0.8762035 0.9999993 -1.4305115E-06
v 0.8762046 1.000002 -2.2499962
v -0.8762048 1.000002 -2.7897158
v 0.62702245 1.0000019 -2.7982783
v 0.8762046 1.000002 -2.9094386
v 0.9999999 0.87620676 -2.2499962
v 0.9999999 -0.8762027 4.2915344E-06
v 1.0000011 0.87620395 -4.7683716E-07
v 0.9999999 -0.8762027 -2.2499962
v 0.9999997 -0.5473657 -2.337231
v 0.9999999 -0.8762027 -2.7287607
v 0.9999999 0.8762067 -2.9144666
v -0.87620425 -0.9999991 -1.2743771
v -0.8762035 -1.0000006 -1.4305115E-06
v 0.876206 -1.0000006 -1.4305115E-06
v -0.2946302 -0.99999857 -1.7827239
v 0.17440139 -0.99999845 -1.7853956
v 0.61487937 -0.99999803 -1.9818933
v 0.73033965 -0.999998 -2.2499962
v 0.8762046 -0.999998 -2.2499962
v 0.87620467 -0.999998 -2.5887003
v -0.87620485 1.000002 -2.2499962
v -1.0000002 0.8762067 -2.7264752
v -0.8762048 1.000002 -2.7897158
v -1.0000002 0.87620676 -2.2499962
v -0.8762035 0.9999993 -1.4305115E-06
v -0.99999875 0.8762041 -1.4305115E-06
v 0.9999999 0.87620676 -2.2499962
v 0.8762046 1.000002 -2.9094386
v 0.9999999 0.8762067 -2.9144666
v 0.8762046 1.000002 -2.2499962
v 1.0000011 0.87620395 -4.7683716E-07
v 0.876206 0.9999992 -4.7683716E-07
v 0.8762046 -0.999998 -2.2499962
v 0.9999999 -0.8762027 -2.7287607
v 0.87620467 -0.999998 -2.5887003
v 0.9999999 -0.8762027 -2.2499962
v 0.876206 -1.0000006 -1.4305115E-06
v 0.9999999 -0.8762027 4.2915344E-06
v -0.87620425 -0.9999991 -1.2743771
v -0.2946302 -0.99999857 -1.7827239
v -1.0000002 0.60782784 -2.590903
v -1.0000002 -0.8762027 -1.2758676
v 0.9999997 -0.5473657 -2.337231
v 0.61487937 -0.99999803 -1.9818933
v 0.73033965 -0.999998 -2.2499962
v 0.87620467 -0.999998 -2.5887003
v 0.9999999 -0.8762027 -2.7287607
v -1.0000002 -0.8762027 -1.2758676
v -1.0000002 -0.8762027 4.2915344E-06
v -0.8762035 -1.0000006 -1.4305115E-06
v -0.87620425 -0.9999991 -1.2743771
v -0.99999875 0.8762041 -1.4305115E-06
v -1.0000002 -0.8762027 4.2915344E-06
v -1.0000002 -0.8762027 -1.2758676
v -1.0000002 0.22311085 -2.2499962
v -1.0000002 0.87620676 -2.2499962
v -1.0000002 0.8762067 -2.7264752
v -1.0000002 0.60782784 -2.590903
v 0.9999997 -0.5473657 -2.337231
v 0.9999999 0.8762067 -2.9144666
v 0.8762046 1.000002 -2.9094386
v 0.61487937 -0.99999803 -1.9818933
v 0.62702245 1.0000019 -2.7982783
v 0.17440139 -0.99999845 -1.7853956
v 0.17440139 -0.99999845 -1.7853956
v 0.62702245 1.0000019 -2.7982783
v -0.8762048 1.000002 -2.7897158
v -0.2946302 -0.99999857 -1.7827239
v -1.0000002 0.60782784 -2.590903
v -1.0000002 0.8762067 -2.7264752
vt 0.588973 0.0128931105
vt 0.6328052 0.042373054
vt 0.7580543 0.12661086
vt 0.46701744 0.49999988
vt 0.532983 0.49999988
vt 0.9998751 0.2665534
vt 0.999876 0.23357058
vt 0.00012397904 0.26655328
vt 0.5329825 0.00012397904
vt 0.00012397904 0.2335705
vt 0.46701494 0.0001241587
vt 1.3141227 0.1730493
vt 2.1282458 0.4900887
vt 2.1282458 0.17304938
vt 1.3141227 0.49008858
vt 1.1188346 0.1730493
vt 1.1157364 0.4450075
vt 1.075515 0.49008858
vt 1.3141222 0.09705828
vt 2.1282454 0.41409755
vt 2.1282458 0.09705828
vt 1.3141222 0.41409755
vt 1.282558 0.35460564
vt 1.1408898 0.41409755
vt 1.0736953 0.09705828
vt 1.6671339 0.44989657
vt 2.1282458 0.4498966
vt 2.1282458 0.13285726
vt 1.483197 0.3446803
vt 1.4822302 0.25982484
vt 1.4111309 0.18013519
vt 1.3141223 0.1592465
vt 1.3141224 0.13285717
vt 1.1915684 0.1328572
vt 1.3982093 0.8548039
vt 1.207997 0.83009416
vt 1.182751 0.8548039
vt 1.3982093 0.83009416
vt 2.2964191 0.85480404
vt 2.2964191 0.8300943
vt 1.3982089 0.8551275
vt 1.1349567 0.83041775
vt 1.1329495 0.8551276
vt 1.3982089 0.83041775
vt 2.2964191 0.8551275
vt 2.2964191 0.83041775
vt 1.3982091 0.8538997
vt 1.2070843 0.82918996
vt 1.2629972 0.8538997
vt 1.3982091 0.8291899
vt 2.2964191 0.85389984
vt 2.2964191 0.8291901
vt 0.7437413 0.13940088
vt 0.61023974 0.1549216
vt 0.588973 0.0128931105
vt 0.7580543 0.12661086
vt 0.4034334 0.28948662
vt 0.48792082 0.261239
vt 0.47945046 0.2858172
vt 0.46874955 0.31686777
vt 0.4442876 0.3285241
vt 1.7870853 0.85657597
vt 2.2964191 0.8565761
vt 2.2964191 0.83186626
vt 1.7876813 0.8318662
vt 2.1282458 0.39288992
vt 2.128246 0.075850576
vt 1.666594 0.075850576
vt 1.3141227 0.27473426
vt 1.3141227 0.39288992
vt 1.1417172 0.39288992
vt 1.1907716 0.3443358
vt 0.4034334 0.28948662
vt 0.1458377 0.18129137
vt 0.12426733 0.15174441
vt 0.48792082 0.261239
vt 0.12593894 0.111209065
vt 0.49087575 0.18958496
vt 0.49087575 0.18958496
vt 0.12593894 0.111209065
vt 0.5084956 0.0001143869
vt 0.61023974 0.1549216
vt 0.588973 0.0128931105
vt 0.55545926 -0.0021128152
vn -0.5474556 -0.55499476 -0.626317
vn -0.5474556 -0.55499476 -0.626317
vn -0.5474556 -0.55499476 -0.626317
vn -0 0 1
vn -0 0 1
vn -0 0 1
vn -0 0 1
vn -0 0 1
vn -0 0 1
vn -0 0 1
vn -0 0 1
vn -0 1 0
vn -0 1 0
vn -0 1 0
vn -0 1 0
vn -0 1 0
vn -0 1 0
vn -0 1 0
vn 1 0 0
vn 1 0 0
vn 1 0 0
vn 1 0 0
vn 1 0 0
vn 1 0 0
vn 1 0 0
vn -0 -1 0
vn -0 -1 0
vn -0 -1 0
vn -0 -1 0
vn -0 -1 0
vn -0 -1 0
vn -0 -1 0
vn -0 -1 0
vn -0 -1 0
vn -0.7071063 0.70710725 0
vn -0.7071064 0.7071071 0
vn -0.7071064 0.7071071 0
vn -0.7071063 0.70710725 0
vn -0.70710623 0.7071073 0
vn -0.70710623 0.7071073 0
vn 0.70710695 0.70710653 0
vn 0.70710677 0.70710677 0
vn 0.70710677 0.70710677 0
vn 0.70710695 0.70710653 0
vn 0.70710725 0.7071063 0
vn 0.70710725 0.7071063 0
vn 0.7071095 -0.707104 0
vn 0.70710653 -0.70710695 0
vn 0.70710653 -0.70710695 0
vn 0.7071095 -0.70710397 0
vn 0.70711243 -0.70710105 0
vn 0.70711243 -0.70710105 0
vn -0.5474556 -0.55499476 -0.626317
vn -0.5474556 -0.55499476 -0.626317
vn -0.5474556 -0.55499476 -0.626317
vn -0.5474556 -0.55499476 -0.626317
vn -0.83091676 0.42606142 -0.35783958
vn -0.83091676 0.42606142 -0.35783958
vn -0.83091676 0.42606142 -0.35783958
vn -0.83091676 0.42606142 -0.35783958
vn -0.83091676 0.42606142 -0.35783958
vn -0.7071089 -0.7071046 0
vn -0.7071089 -0.7071046 0
vn -0.7071089 -0.7071046 0
vn -0.7071089 -0.7071046 0
vn -1 0 0
vn -1 0 0
vn -1 0 0
vn -1 0 0
vn -1 0 0
vn -1 0 0
vn -1 0 0
vn -0.38204744 -0.34726292 -0.85641587
vn -0.38204744 -0.34726292 -0.85641587
vn -0.38204744 -0.34726292 -0.85641587
vn -0.38204744 -0.34726292 -0.85641587
vn -0.38204744 -0.34726292 -0.85641587
vn -0.38204744 -0.34726292 -0.85641587
vn -0.0050842077 -0.450883 -0.8925686
vn -0.0050842077 -0.450883 -0.8925686
vn -0.0050842077 -0.450883 -0.8925686
vn -0.0050842077 -0.450883 -0.8925686
vn -0.0050842077 -0.450883 -0.8925686
vn -0.0050842077 -0.450883 -0.8925686
g mdlMoon_Pillar_Busted2_0
f 3/3/3 2/2/2 1/1/1
f 6/6/6 5/5/5 4/4/4
f 4/4/4 7/7/7 6/6/6
f 4/4/4 8/8/8 7/7/7
f 8/8/8 9/9/9 7/7/7
f 8/8/8 10/10/10 9/9/9
f 10/10/10 11/11/11 9/9/9
f 14/14/14 13/13/13 12/12/12
f 13/13/13 15/15/15 12/12/12
f 16/16/16 12/12/12 15/15/15
f 17/17/17 16/16/16 15/15/15
f 15/15/15 18/18/18 17/17/17
f 21/21/21 20/20/20 19/19/19
f 20/20/20 22/22/22 19/19/19
f 23/23/23 19/19/19 22/22/22
f 22/22/22 24/24/24 23/23/23
f 23/23/23 25/25/25 19/19/19
f 28/28/28 27/27/27 26/26/26
f 28/28/28 26/26/26 29/29/29
f 28/28/28 29/29/29 30/30/30
f 28/28/28 30/30/30 31/31/31
f 28/28/28 31/31/31 32/32/32
f 32/32/32 33/33/33 28/28/28
f 34/34/34 33/33/33 32/32/32
f 37/37/37 36/36/36 35/35/35
f 36/36/36 38/38/38 35/35/35
f 35/35/35 38/38/38 39/39/39
f 38/38/38 40/40/40 39/39/39
f 43/43/43 42/42/42 41/41/41
f 42/42/42 44/44/44 41/41/41
f 41/41/41 44/44/44 45/45/45
f 44/44/44 46/46/46 45/45/45
f 49/49/49 48/48/48 47/47/47
f 48/48/48 50/50/50 47/47/47
f 47/47/47 50/50/50 51/51/51
f 50/50/50 52/52/52 51/51/51
f 55/55/55 54/54/54 53/53/53
f 53/53/53 56/56/56 55/55/55
f 59/59/59 58/58/58 57/57/57
f 57/57/57 60/60/60 59/59/59
f 57/57/57 61/61/61 60/60/60
f 64/64/64 63/63/63 62/62/62
f 65/65/65 64/64/64 62/62/62
f 68/68/68 67/67/67 66/66/66
f 66/66/66 69/69/69 68/68/68
f 66/66/66 70/70/70 69/69/69
f 69/69/69 70/70/70 71/71/71
f 72/72/72 69/69/69 71/71/71
f 75/75/75 74/74/74 73/73/73
f 73/73/73 76/76/76 75/75/75
f 76/76/76 77/77/77 75/75/75
f 76/76/76 78/78/78 77/77/77
f 81/81/81 80/80/80 79/79/79
f 79/79/79 82/82/82 81/81/81
f 82/82/82 83/83/83 81/81/81
f 83/83/83 84/84/84 81/81/81
