g mdlMoon_Pillar_Busted3
v -0.9504796 -0.9257232 -4.992073
v -1.0000001 -0.8762027 -4.9221883
v -1.0000001 -0.7940235 -4.9163055
v -0.10165548 -0.111154556 -4.828347
v -0.049313545 -0.999998 -4.4999957
v -0.77130485 -0.999998 -5.074727
v 0.034999393 -0.999998 -4.4328794
v 0.41117448 -0.999998 -3.7182739
v 0.4971465 -0.82921773 -3.5810616
v 0.5520987 -0.999998 -3.5580428
v 0.72173744 -0.999998 -3.1703205
v 0.8154053 -0.9999979 -2.8013957
v 0.42434943 -0.39294767 -2.657317
v 0.6560247 -0.99999833 -2.0469022
v 0.69892645 -0.9999979 -2.2499957
v 0.5867424 -0.9999984 -1.929195
v -0.06760508 -0.43026888 -1.7597857
v 0.03263953 -0.9999989 -1.426415
v -0.56351763 -0.99999917 -1.2514874
v -0.28148854 -0.17447042 -3.4246519
v -0.10165548 -0.111154556 -4.828347
v -0.79080063 -0.92694163 -1.2313174
v -0.76729316 -0.9999992 -1.221471
v -0.8554571 -0.99999917 -1.2353643
v -0.87620425 -0.99999917 -1.2441597
v -0.962906 -0.9132971 -1.3086413
v -0.9999999 -0.37876183 -1.782518
v -1.0000001 -0.8762027 -1.3546817
v -0.99999994 -0.24109048 -1.9226205
v -0.384416 -0.01663065 -2.50061
v -1 -0.21150768 -1.9806666
v -1.0000001 -0.15516677 -2.2499957
v -1.0000001 0.060997084 -3.283333
v -1.0000001 0.060997084 -3.283333
v -1.0000001 0.046219442 -3.3909483
v -1.0000001 -0.33955294 -4.4509573
v -1.0000001 -0.33627507 -4.698391
v -0.10165548 -0.111154556 -4.828347
v -0.77130485 -0.999998 -5.074727
v -0.87620485 -0.999998 -5.047038
v -0.9504796 -0.9257232 -4.992073
v -1.0000001 -0.7940235 -4.9163055
v -0.28148854 -0.17447042 -3.4246519
v -0.10165548 -0.111154556 -4.828347
v -1.0000001 -0.33627507 -4.698391
v -1 -0.33890316 -4.4999957
v -1.0000001 -0.33955294 -4.4509573
v 0.876206 0.9999992 -4.7683716E-07
v 1.0000012 0.87620395 -4.7683716E-07
v 0.9999999 -0.8762027 4.2915344E-06
v 0.876206 -1.0000006 -1.4305115E-06
v -0.8762035 0.9999993 -1.4305115E-06
v -0.8762035 -1.0000006 -1.4305115E-06
v -0.99999875 0.8762041 -1.4305115E-06
v -1.0000001 -0.8762027 4.2915344E-06
v 0.9999999 0.87620676 -8.999996
v 0.9999999 -0.8762027 -8.999996
v 0.9999999 -0.8762027 -6.7499957
v 0.9999999 0.87620676 -6.7499957
v 0.9999999 -0.8762027 -4.4999957
v 0.9999999 0.87620676 -4.4999957
v 0.9999999 -0.8762027 -2.2499957
v 0.9999999 0.87620676 -2.2499957
v 0.9999999 -0.8762027 4.2915344E-06
v 1.0000012 0.87620395 -4.7683716E-07
v -0.87620485 1.000002 -2.2499957
v 0.876206 0.9999992 -4.7683716E-07
v -0.8762035 0.9999993 -1.4305115E-06
v 0.8762046 1.000002 -2.2499957
v -0.87620485 1.000002 -4.4999957
v 0.8762046 1.000002 -4.4999957
v -0.87620485 1.000002 -6.7499957
v 0.8762046 1.000002 -6.7499957
v -0.87620485 1.000002 -8.999996
v 0.8762046 1.000002 -8.999996
v 0.8762046 -0.999998 -8.999996
v -0.87620485 -0.999998 -8.999996
v -0.87620485 -0.999998 -6.7499957
v 0.8762046 -0.999998 -6.7499957
v 0.8762046 -0.999998 -4.4999957
v -0.77130485 -0.999998 -5.074727
v -0.87620485 -0.999998 -5.047038
v -0.049313545 -0.999998 -4.4999957
v 0.034999393 -0.999998 -4.4328794
v 0.5520987 -0.999998 -3.5580428
v 0.41117448 -0.999998 -3.7182739
v 0.72173744 -0.999998 -3.1703205
v 0.8154053 -0.9999979 -2.8013957
v 0.8762046 -0.999998 -2.2499957
v 0.69892645 -0.9999979 -2.2499957
v 0.876206 -1.0000006 -1.4305115E-06
v 0.6560247 -0.99999833 -2.0469022
v 0.5867424 -0.9999984 -1.929195
v 0.03263953 -0.9999989 -1.426415
v -0.56351763 -0.99999917 -1.2514874
v -0.76729316 -0.9999992 -1.221471
v -0.8762035 -1.0000006 -1.4305115E-06
v -0.8554571 -0.99999917 -1.2353643
v -0.87620425 -0.99999917 -1.2441597
v -1.0000001 -0.7940235 -4.9163055
v -1.0000001 -0.8762027 -4.9221883
v -1.0000001 -0.8762027 -6.7499957
v -1.0000001 0.87620676 -6.7499957
v -1.0000001 -0.8762027 -8.999996
v -1.0000001 0.87620676 -8.999996
v -1.0000001 -0.33627507 -4.698391
v -1.0000001 0.87620676 -4.4999957
v -1 -0.33890316 -4.4999957
v -1.0000001 0.046219442 -3.3909483
v -1.0000001 -0.33955294 -4.4509573
v -1.0000001 0.060997084 -3.283333
v -1.0000001 0.87620676 -2.2499957
v -1.0000001 -0.15516677 -2.2499957
v -0.99999875 0.8762041 -1.4305115E-06
v -1 -0.21150768 -1.9806666
v -0.99999994 -0.24109048 -1.9226205
v -0.9999999 -0.37876183 -1.782518
v -1.0000001 -0.8762027 -1.3546817
v -1.0000001 -0.8762027 4.2915344E-06
v -0.87620485 1.000002 -6.7499957
v -1.0000001 0.87620676 -8.999996
v -0.87620485 1.000002 -8.999996
v -1.0000001 0.87620676 -6.7499957
v -0.87620485 1.000002 -4.4999957
v -1.0000001 0.87620676 -4.4999957
v -0.87620485 1.000002 -2.2499957
v -1.0000001 0.87620676 -2.2499957
v -0.8762035 0.9999993 -1.4305115E-06
v -0.99999875 0.8762041 -1.4305115E-06
v 0.9999999 0.87620676 -6.7499957
v 0.8762046 1.000002 -8.999996
v 0.9999999 0.87620676 -8.999996
v 0.8762046 1.000002 -6.7499957
v 0.9999999 0.87620676 -4.4999957
v 0.8762046 1.000002 -4.4999957
v 0.9999999 0.87620676 -2.2499957
v 0.8762046 1.000002 -2.2499957
v 1.0000012 0.87620395 -4.7683716E-07
v 0.876206 0.9999992 -4.7683716E-07
v 0.8762046 -0.999998 -6.7499957
v 0.9999999 -0.8762027 -8.999996
v 0.8762046 -0.999998 -8.999996
v 0.9999999 -0.8762027 -6.7499957
v 0.8762046 -0.999998 -4.4999957
v 0.9999999 -0.8762027 -4.4999957
v 0.8762046 -0.999998 -2.2499957
v 0.9999999 -0.8762027 -2.2499957
v 0.876206 -1.0000006 -1.4305115E-06
v 0.9999999 -0.8762027 4.2915344E-06
v -0.9504796 -0.9257232 -4.992073
v -0.87620485 -0.999998 -5.047038
v -0.87620485 -0.999998 -6.7499957
v -1.0000001 -0.8762027 -6.7499957
v -1.0000001 -0.8762027 -4.9221883
v -0.87620485 -0.999998 -8.999996
v -1.0000001 -0.8762027 -8.999996
v 0.8762046 -0.999998 -8.999996
v 0.9999999 -0.8762027 -8.999996
v 0.9999999 0.87620676 -8.999996
v 0.8762046 1.000002 -8.999996
v -0.87620485 -0.999998 -8.999996
v -0.87620485 1.000002 -8.999996
v -1.0000001 -0.8762027 -8.999996
v -1.0000001 0.87620676 -8.999996
v -1.0000001 -0.8762027 4.2915344E-06
v -0.8762035 -1.0000006 -1.4305115E-06
v -0.87620425 -0.99999917 -1.2441597
v -0.962906 -0.9132971 -1.3086413
v -1.0000001 -0.8762027 -1.3546817
vt 0.56165457 0.4591648
vt 0.5765995 0.45250484
vt 0.58400536 0.4521159
vt 0.4960652 0.43431962
vt 0.405665 0.39955646
vt 0.52236044 0.46559566
vt 0.3920375 0.3918445
vt 0.3460553 0.32145327
vt 0.35232455 0.30861372
vt 0.3253633 0.3044912
vt 0.3061927 0.26672423
vt 0.29744902 0.23142613
vt 0.42341045 0.22684892
vt 0.33722252 0.15988389
vt 0.3265164 0.17914155
vt 0.35062307 0.14900248
vt 0.5160204 0.14322913
vt 0.45106107 0.09999708
vt 0.55796987 0.08231248
vt 0.5448555 0.3036699
vt 0.4960652 0.43431962
vt 0.6047532 0.08149533
vt 0.5936201 0.078786865
vt 0.6099415 0.079996265
vt 0.613567 0.08084292
vt 0.63596916 0.08929132
vt 0.6789129 0.14598702
vt 0.64502394 0.094506204
vt 0.6885623 0.16237369
vt 0.5919753 0.21938804
vt 0.69002956 0.1682718
vt 0.68986577 0.19476014
vt 0.6892373 0.29638824
vt 0.6892373 0.29638824
vt 0.6860894 0.30629945
vt 0.63521826 0.40708587
vt 0.6313182 0.4304102
vt 0.4960652 0.43431962
vt 0.52236044 0.46559566
vt 0.54087096 0.46389258
vt 0.56165457 0.4591648
vt 0.58400536 0.4521159
vt 0.5448555 0.3036699
vt 0.4960652 0.43431962
vt 0.6313182 0.4304102
vt 0.6344453 0.4117085
vt 0.63521826 0.40708587
vt 0.46701744 0.49999988
vt 0.532983 0.49999988
vt 0.9998751 0.2665534
vt 0.999876 0.23357058
vt 0.00012397904 0.26655328
vt 0.5329825 0.00012397904
vt 0.00012397904 0.2335705
vt 0.46701494 0.0001241587
vt -1.1282461 0.09705842
vt -1.1282456 0.41409755
vt -0.31412315 0.41409755
vt -0.31412333 0.09705828
vt 0.49999955 0.41409755
vt 0.49999955 0.09705828
vt 1.3141222 0.41409755
vt 1.3141222 0.09705828
vt 2.1282454 0.41409755
vt 2.1282458 0.09705828
vt 1.3141227 0.1730493
vt 2.1282458 0.4900887
vt 2.1282458 0.17304938
vt 1.3141227 0.49008858
vt 0.49999973 0.1730493
vt 0.49999976 0.49008852
vt -0.3141231 0.17304936
vt -0.3141231 0.49008852
vt -1.1282461 0.17304936
vt -1.1282456 0.49008852
vt -1.1282461 0.13285741
vt -1.1282456 0.44989657
vt -0.31412315 0.44989654
vt -0.31412327 0.13285732
vt 0.49999964 0.13285732
vt 0.29204315 0.43091837
vt 0.30206195 0.44989645
vt 0.49999958 0.30029848
vt 0.5242844 0.2850449
vt 0.8408286 0.19149327
vt 0.7828519 0.21698874
vt 0.9811191 0.16080284
vt 1.1146082 0.1438568
vt 1.3141224 0.13285717
vt 1.3141224 0.16492969
vt 2.1282458 0.13285726
vt 1.3876084 0.17269133
vt 1.4301989 0.18522564
vt 1.6121216 0.28547192
vt 1.6754162 0.3933265
vt 1.686277 0.4301928
vt 2.1282458 0.4498966
vt 1.6812499 0.44614306
vt 1.6780674 0.44989657
vt 0.3493654 0.09071807
vt 0.3472368 0.075850524
vt -0.31412324 0.0758506
vt -0.31412295 0.3928897
vt -1.1282461 0.075850606
vt -1.1282456 0.3928898
vt 0.42821392 0.17353216
vt 0.49999985 0.3928898
vt 0.49999976 0.17305669
vt 0.9012891 0.24273169
vt 0.5177434 0.17293912
vt 0.94022775 0.2454052
vt 1.3141227 0.39288992
vt 1.3141227 0.2062977
vt 2.1282458 0.39288992
vt 1.4115748 0.19610474
vt 1.4325778 0.19075274
vt 1.4832715 0.16584577
vt 1.6380765 0.075850576
vt 2.128246 0.075850576
vt -0.39820975 0.85480404
vt -1.2964194 0.8300943
vt -1.2964194 0.85480404
vt -0.39820975 0.8300943
vt 0.4999997 0.8548039
vt 0.49999967 0.83009416
vt 1.3982093 0.8548039
vt 1.3982093 0.83009416
vt 2.2964191 0.85480404
vt 2.2964191 0.8300943
vt -0.39821 0.8551275
vt -1.2964194 0.8304179
vt -1.2964194 0.8551277
vt -0.39821 0.83041775
vt 0.49999952 0.8551275
vt 0.49999952 0.83041775
vt 1.3982089 0.8551275
vt 1.3982089 0.83041775
vt 2.2964191 0.8551275
vt 2.2964191 0.83041775
vt -0.39820993 0.85389984
vt -1.2964194 0.8291902
vt -1.2964194 0.85389996
vt -0.39820993 0.8291901
vt 0.4999996 0.85389984
vt 0.4999996 0.8291901
vt 1.3982091 0.8538997
vt 1.3982091 0.8291899
vt 2.2964191 0.85389984
vt 2.2964191 0.8291901
vt 0.3035602 0.8466914
vt 0.28161794 0.8318661
vt -0.3982098 0.83186615
vt -0.3982098 0.8565759
vt 0.33145854 0.85657585
vt -1.2964189 0.8318662
vt -1.2964189 0.8565759
vt 1.0821519 0.0768599
vt 1.0295746 0.05057127
vt 0.28530827 0.05057127
vt 0.23273095 0.0768599
vt 1.0821517 0.4489931
vt 0.23273122 0.44899288
vt 1.0295744 0.47528172
vt 0.28530845 0.4752815
vt 2.2964191 0.8565761
vt 2.2964191 0.83186626
vt 1.7997441 0.83186615
vt 1.7740022 0.8491719
vt 1.7556224 0.85657597
vn 0.80062884 -0.04278153 0.5976312
vn 0.80062884 -0.04278153 0.5976312
vn 0.80062884 -0.04278153 0.5976312
vn -0.73123115 0.18028153 0.65787506
vn -0.6038724 0.24467653 0.75859845
vn -0.6038724 0.24467653 0.75859845
vn -0.7964628 0.13934699 0.5884126
vn -0.85459405 0.013116748 0.5191309
vn -0.8345456 -0.42283818 0.35318765
vn -0.8395839 -0.20219457 0.5041986
vn -0.8174738 -0.52940094 0.22687285
vn -0.8360655 -0.54737747 0.037044916
vn -0.66106737 -0.7492495 -0.040189054
vn -0.72484255 -0.6060401 -0.32759517
vn -0.84590304 -0.5025115 -0.17869036
vn -0.6466261 -0.6042131 -0.46561915
vn -0.365312 -0.7256788 -0.5830416
vn -0.40879372 -0.5134208 -0.75451094
vn -0.23200399 -0.4897376 -0.8404352
vn -0.4513118 -0.88078356 0.14331125
vn -0.6528499 -0.74833524 -0.117394075
vn 0.07109433 -0.42596716 -0.901941
vn -0.023856524 -0.14106633 -0.9897127
vn 0.31738684 -0.2299265 -0.9199997
vn 0.37441552 -0.28243575 -0.88320047
vn 0.30103144 -0.563341 -0.76943284
vn 0.003761181 -0.70832783 -0.7058736
vn 0.27757698 -0.62644756 -0.7283643
vn -0.06878397 -0.8235998 -0.562985
vn -0.20279224 -0.9646164 -0.16849512
vn -0.037702885 -0.9202351 -0.38954592
vn 0.13565412 -0.96976477 -0.20286508
vn 0.13565412 -0.96976477 -0.20286508
vn -0.28551129 -0.94946533 0.13037987
vn -0.27653497 -0.9345364 0.2239869
vn -0.26299128 -0.90662456 0.3299507
vn 0.23183683 -0.4181244 0.87830734
vn 0.23183683 -0.4181244 0.87830734
vn 0.23183683 -0.4181244 0.87830734
vn 0.23183683 -0.4181244 0.87830734
vn 0.23183683 -0.4181244 0.87830734
vn 0.23183683 -0.4181244 0.87830734
vn 0.24130848 -0.97036326 -0.01285477
vn 0.24130848 -0.97036326 -0.01285477
vn 0.24130848 -0.97036326 -0.01285477
vn 0.24130848 -0.97036326 -0.01285477
vn 0.24130848 -0.97036326 -0.01285477
vn -0 0 1
vn -0 0 1
vn -0 0 1
vn -0 0 1
vn -0 0 1
vn -0 0 1
vn -0 0 1
vn -0 0 1
vn 1 0 0
vn 1 0 0
vn 1 0 0
vn 1 0 0
vn 1 0 0
vn 1 0 0
vn 1 0 0
vn 1 0 0
vn 1 0 0
vn 1 0 0
vn -0 1 0
vn -0 1 0
vn -0 1 0
vn -0 1 0
vn -0 1 0
vn -0 1 0
vn -0 1 0
vn -0 1 0
vn -0 1 0
vn -0 1 0
vn -0 -1 0
vn -0 -1 0
vn -0 -1 0
vn -0 -1 0
vn -0 -1 0
vn -0 -1 0
vn -0 -1 0
vn -0 -1 0
vn -0 -1 0
vn -0 -1 0
vn -0 -1 0
vn -0 -1 0
vn -0 -1 0
vn -0 -1 0
vn -0 -1 0
vn -0 -1 0
vn -0 -1 0
vn -0 -1 0
vn -0 -1 0
vn -0 -1 0
vn -0 -1 0
vn -0 -1 0
vn -0 -1 0
vn -0 -1 0
vn -1 0 0
vn -1 0 0
vn -1 0 0
vn -1 0 0
vn -1 0 0
vn -1 0 0
vn -1 0 0
vn -1 0 0
vn -1 0 0
vn -1 0 0
vn -1 0 0
vn -1 0 0
vn -1 0 0
vn -1 0 0
vn -1 0 0
vn -1 0 0
vn -1 0 0
vn -1 0 0
vn -1 0 0
vn -1 0 0
vn -0.70710677 0.7071067 0
vn -0.70710677 0.70710677 0
vn -0.70710677 0.70710677 0
vn -0.70710677 0.7071067 0
vn -0.7071068 0.7071067 0
vn -0.7071068 0.7071067 0
vn -0.70710677 0.7071067 0
vn -0.70710677 0.70710677 0
vn -0.70710677 0.70710677 0
vn -0.70710677 0.70710677 0
vn 0.7071067 0.70710677 0
vn 0.70710677 0.70710677 0
vn 0.70710677 0.70710677 0
vn 0.7071067 0.70710677 0
vn 0.70710665 0.7071068 0
vn 0.70710665 0.7071068 0
vn 0.70710695 0.70710653 0
vn 0.70710695 0.7071066 0
vn 0.70710725 0.70710623 0
vn 0.70710725 0.70710623 0
vn 0.7071067 -0.70710677 0
vn 0.70710677 -0.70710677 0
vn 0.70710677 -0.70710677 0
vn 0.7071067 -0.70710677 0
vn 0.70710665 -0.7071068 0
vn 0.70710665 -0.7071068 0
vn 0.7071096 -0.7071039 0
vn 0.7071096 -0.70710397 0
vn 0.70711255 -0.707101 0
vn 0.70711255 -0.707101 0
vn -0.70710677 -0.7071067 0
vn -0.70710677 -0.7071067 0
vn -0.70710677 -0.70710677 0
vn -0.70710677 -0.70710677 0
vn -0.70710677 -0.7071067 0
vn -0.70710677 -0.70710677 0
vn -0.70710677 -0.70710677 0
vn -0 0 -1
vn -0 0 -1
vn -0 0 -1
vn -0 0 -1
vn -0 0 -1
vn -0 0 -1
vn -0 0 -1
vn -0 0 -1
vn -0.7071094 -0.70710415 0
vn -0.7071094 -0.70710415 0
vn -0.7071094 -0.70710415 0
vn -0.7071094 -0.70710415 0
vn -0.7071094 -0.70710415 0
g mdlMoon_Pillar_Busted3_0
f 3/3/3 2/2/2 1/1/1
f 6/6/6 5/5/5 4/4/4
f 5/5/5 7/7/7 4/4/4
f 4/4/4 7/7/7 8/8/8
f 9/9/9 4/4/4 8/8/8
f 9/9/9 8/8/8 10/10/10
f 9/9/9 10/10/10 11/11/11
f 11/11/11 12/12/12 9/9/9
f 12/12/12 13/13/13 9/9/9
f 13/13/13 12/12/12 14/14/14
f 12/12/12 15/15/15 14/14/14
f 13/13/13 14/14/14 16/16/16
f 17/17/17 13/13/13 16/16/16
f 17/17/17 16/16/16 18/18/18
f 18/18/18 19/19/19 17/17/17
f 13/13/13 20/20/20 9/9/9
f 9/9/9 20/20/20 21/21/21
f 19/19/19 22/22/22 17/17/17
f 22/22/22 19/19/19 23/23/23
f 22/22/22 23/23/23 24/24/24
f 24/24/24 25/25/25 22/22/22
f 25/25/25 26/26/26 22/22/22
f 22/22/22 26/26/26 27/27/27
f 22/22/22 27/27/27 17/17/17
f 26/26/26 28/28/28 27/27/27
f 27/27/27 29/29/29 17/17/17
f 17/17/17 30/30/30 13/13/13
f 17/17/17 29/29/29 30/30/30
f 13/13/13 30/30/30 20/20/20
f 29/29/29 31/31/31 30/30/30
f 31/31/31 32/32/32 30/30/30
f 32/32/32 33/33/33 30/30/30
f 30/30/30 34/34/34 20/20/20
f 34/34/34 35/35/35 20/20/20
f 35/35/35 36/36/36 20/20/20
f 39/39/39 38/38/38 37/37/37
f 37/37/37 40/40/40 39/39/39
f 37/37/37 41/41/41 40/40/40
f 37/37/37 42/42/42 41/41/41
f 45/45/45 44/44/44 43/43/43
f 43/43/43 46/46/46 45/45/45
f 43/43/43 47/47/47 46/46/46
f 50/50/50 49/49/49 48/48/48
f 48/48/48 51/51/51 50/50/50
f 48/48/48 52/52/52 51/51/51
f 52/52/52 53/53/53 51/51/51
f 52/52/52 54/54/54 53/53/53
f 54/54/54 55/55/55 53/53/53
f 58/58/58 57/57/57 56/56/56
f 59/59/59 58/58/58 56/56/56
f 60/60/60 58/58/58 59/59/59
f 61/61/61 60/60/60 59/59/59
f 62/62/62 60/60/60 61/61/61
f 63/63/63 62/62/62 61/61/61
f 64/64/64 62/62/62 63/63/63
f 65/65/65 64/64/64 63/63/63
f 68/68/68 67/67/67 66/66/66
f 67/67/67 69/69/69 66/66/66
f 66/66/66 69/69/69 70/70/70
f 69/69/69 71/71/71 70/70/70
f 70/70/70 71/71/71 72/72/72
f 71/71/71 73/73/73 72/72/72
f 72/72/72 73/73/73 74/74/74
f 73/73/73 75/75/75 74/74/74
f 78/78/78 77/77/77 76/76/76
f 79/79/79 78/78/78 76/76/76
f 78/78/78 79/79/79 80/80/80
f 80/80/80 81/81/81 78/78/78
f 78/78/78 81/81/81 82/82/82
f 80/80/80 83/83/83 81/81/81
f 84/84/84 83/83/83 80/80/80
f 80/80/80 85/85/85 84/84/84
f 85/85/85 86/86/86 84/84/84
f 80/80/80 87/87/87 85/85/85
f 80/80/80 88/88/88 87/87/87
f 80/80/80 89/89/89 88/88/88
f 89/89/89 90/90/90 88/88/88
f 90/90/90 89/89/89 91/91/91
f 91/91/91 92/92/92 90/90/90
f 91/91/91 93/93/93 92/92/92
f 91/91/91 94/94/94 93/93/93
f 91/91/91 95/95/95 94/94/94
f 91/91/91 96/96/96 95/95/95
f 96/96/96 91/91/91 97/97/97
f 98/98/98 96/96/96 97/97/97
f 97/97/97 99/99/99 98/98/98
f 102/102/102 101/101/101 100/100/100
f 100/100/100 103/103/103 102/102/102
f 102/102/102 103/103/103 104/104/104
f 103/103/103 105/105/105 104/104/104
f 100/100/100 106/106/106 103/103/103
f 106/106/106 107/107/107 103/103/103
f 106/106/106 108/108/108 107/107/107
f 109/109/109 107/107/107 108/108/108
f 108/108/108 110/110/110 109/109/109
f 109/109/109 111/111/111 107/107/107
f 111/111/111 112/112/112 107/107/107
f 111/111/111 113/113/113 112/112/112
f 114/114/114 112/112/112 113/113/113
f 114/114/114 113/113/113 115/115/115
f 114/114/114 115/115/115 116/116/116
f 114/114/114 116/116/116 117/117/117
f 114/114/114 117/117/117 118/118/118
f 118/118/118 119/119/119 114/114/114
f 122/122/122 121/121/121 120/120/120
f 121/121/121 123/123/123 120/120/120
f 120/120/120 123/123/123 124/124/124
f 123/123/123 125/125/125 124/124/124
f 124/124/124 125/125/125 126/126/126
f 125/125/125 127/127/127 126/126/126
f 126/126/126 127/127/127 128/128/128
f 127/127/127 129/129/129 128/128/128
f 132/132/132 131/131/131 130/130/130
f 131/131/131 133/133/133 130/130/130
f 130/130/130 133/133/133 134/134/134
f 133/133/133 135/135/135 134/134/134
f 134/134/134 135/135/135 136/136/136
f 135/135/135 137/137/137 136/136/136
f 136/136/136 137/137/137 138/138/138
f 137/137/137 139/139/139 138/138/138
f 142/142/142 141/141/141 140/140/140
f 141/141/141 143/143/143 140/140/140
f 140/140/140 143/143/143 144/144/144
f 143/143/143 145/145/145 144/144/144
f 144/144/144 145/145/145 146/146/146
f 145/145/145 147/147/147 146/146/146
f 146/146/146 147/147/147 148/148/148
f 147/147/147 149/149/149 148/148/148
f 152/152/152 151/151/151 150/150/150
f 150/150/150 153/153/153 152/152/152
f 150/150/150 154/154/154 153/153/153
f 152/152/152 153/153/153 155/155/155
f 153/153/153 156/156/156 155/155/155
f 159/159/159 158/158/158 157/157/157
f 157/157/157 160/160/160 159/159/159
f 157/157/157 161/161/161 160/160/160
f 161/161/161 162/162/162 160/160/160
f 161/161/161 163/163/163 162/162/162
f 163/163/163 164/164/164 162/162/162
f 167/167/167 166/166/166 165/165/165
f 165/165/165 168/168/168 167/167/167
f 165/165/165 169/169/169 168/168/168
