g mdlPot2Debris2
v 0.3337507 0.05363775 -0.13568155
v 0.3209402 0.08026748 -0.12541242
v 0.31323487 0.07256215 -0.15190248
v 0.22221616 0.17165032 -0.073030286
v 0.25559482 0.14934742 -0.073030286
v 0.23972452 0.10725212 -0.18163677
v 0.20511922 0.13037464 -0.18163677
v 0.20181614 0.122400284 -0.1946209
v 0.0877904 0.13684872 -0.20700528
v 0.0877904 0.15371275 -0.18163677
v 0.0877904 0.19838919 -0.073030286
v 0.22014862 0.16665885 -0.04461595
v 0.22221616 0.17165032 -0.073030286
v 0.25559482 0.14934742 -0.073030286
v 0.0877904 0.17893332 0.029293265
v 0.0877904 0.19838919 -0.073030286
v 0.12794878 0.17094535 0.029293265
v 0.0877904 0.15317994 0.061484985
v 0.0877904 0.17893332 0.029293265
v -0.04663534 0.1716502 -0.073030286
v 0.0877904 0.19838919 -0.073030286
v -0.0391899 0.15367532 0.029293265
v -0.16059607 0.095504075 -0.073030286
v -0.011614188 0.087101646 0.11936684
v 0.0877904 0.15317994 0.061484985
v 0.015584243 0.09251175 0.11936684
v -0.0057455 0.07293338 0.13646515
v -0.095885366 0.03079341 0.11936684
v -0.058315285 -0.0067766747 0.17860608
v -0.07161064 -0.04354986 0.18926388
v -0.09427443 -0.07746867 0.18926388
v -0.14683868 0.081746705 0.029293265
v -0.23674215 -0.018456666 -0.073030286
v -0.21876727 -0.025902089 0.029293265
v -0.23694082 -0.019455386 -0.073030286
v -0.24123053 -0.13883285 0.029293265
v -0.15219356 -0.05347781 0.11936684
v -0.2343912 -0.15288235 0.0413357
v -0.17196631 -0.15288235 0.11936684
v -0.10927512 -0.15288235 0.18926388
v -0.15385804 -0.24391866 0.11936684
v -0.09427436 -0.2282961 0.18926388
v -0.14760092 -0.25038472 0.12490918
v -0.07161067 -0.2622147 0.18926388
v -0.06326064 -0.3039336 0.17080821
v -0.05831521 -0.29898813 0.17860599
v -0.05258692 -0.30767378 0.17401408
v -0.10819973 -0.071700625 0.21859443
v -0.09427443 -0.07746867 0.18926388
v -0.07161064 -0.04354986 0.18926388
v -0.10927512 -0.15288235 0.18926388
v -0.13565968 -0.15288235 0.24060684
v -0.09427436 -0.2282961 0.18926388
v -0.10819958 -0.23406413 0.21859425
v -0.07161067 -0.2622147 0.18926388
v 0.16885631 -0.05106833 -0.0034990306
v 0.13839413 -0.03071415 -0.0034990306
v 0.13839413 -0.03071415 0.020920007
v 0.08779044 -0.020648478 -0.0034990306
v 0.08779044 -0.020648478 0.061484925
v 0.08779044 -0.020648478 0.061484925
v 0.08779044 -0.020648478 -0.0034990306
v 0.037186753 -0.030714195 -0.0034990306
v 0.037186753 -0.030714195 0.10204981
v -0.0057130004 -0.0593789 -0.0034990306
v -0.0057130004 -0.0593789 0.1364391
v -0.033239473 -0.100575164 -0.0034990306
v -0.034377705 -0.10227866 0.15941723
v -0.034377705 -0.10227866 -0.0020388959
v -0.044443365 -0.15288232 0.04133567
v -0.044443365 -0.15288232 0.16748609
v -0.034377646 -0.20348603 0.08471029
v -0.034377646 -0.20348603 0.15941717
v -0.005712926 -0.24638578 0.12148155
v -0.005712926 -0.24638578 0.13643898
v 0.0051704044 -0.2536578 0.12771468
v 0.13839413 -0.03071415 -0.0034990306
v 0.16885631 -0.05106833 -0.0034990306
v 0.1688563 -0.10057518 -0.0034990306
v -0.033239473 -0.100575164 -0.0034990306
v 0.08779044 -0.020648478 -0.0034990306
v 0.037186753 -0.030714195 -0.0034990306
v -0.0057130004 -0.0593789 -0.0034990306
v 0.3209402 0.08026748 -0.12541242
v 0.3337507 0.05363775 -0.13568155
v 0.1688563 -0.10057518 -0.0034990306
v 0.25559482 0.14934742 -0.073030286
v 0.22014862 0.16665885 -0.04461595
v 0.16885631 -0.05106833 -0.0034990306
v 0.12794878 0.17094535 0.029293265
v 0.13839413 -0.03071415 0.020920007
v 0.08779044 -0.020648478 0.061484925
v 0.0877904 0.15317994 0.061484985
v 0.037186753 -0.030714195 0.10204981
v 0.015584243 0.09251175 0.11936684
v -0.0057130004 -0.0593789 0.1364391
v -0.0057455 0.07293338 0.13646515
v -0.058315285 -0.0067766747 0.17860608
v -0.034377705 -0.10227866 0.15941723
v -0.07161064 -0.04354986 0.18926388
v -0.10819973 -0.071700625 0.21859443
v -0.044443365 -0.15288232 0.16748609
v -0.13565968 -0.15288235 0.24060684
v -0.034377646 -0.20348603 0.15941717
v -0.10819958 -0.23406413 0.21859425
v -0.07161067 -0.2622147 0.18926388
v -0.05831521 -0.29898813 0.17860599
v -0.005712926 -0.24638578 0.13643898
v -0.05258692 -0.30767378 0.17401408
v 0.0051704044 -0.2536578 0.12771468
v -0.16059607 0.095504075 -0.073030286
v -0.23674215 -0.018456666 -0.073030286
v -0.23645549 -0.018575398 -0.07378455
v -0.13765405 0.072562076 -0.15190242
v -0.04663534 0.1716502 -0.073030286
v -0.02953842 0.13037455 -0.18163677
v 0.0877904 0.19838919 -0.073030286
v -0.064143576 0.10725212 -0.18163677
v 0.0877904 0.15371275 -0.18163677
v -0.026235353 0.122400254 -0.19462085
v 0.0877904 0.13684872 -0.20700528
v -0.05258692 -0.30767378 0.17401408
v 0.0051704044 -0.2536578 0.12771468
v -0.005712926 -0.24638578 0.12148155
v -0.034377646 -0.20348603 0.08471029
v -0.044443365 -0.15288232 0.04133567
v -0.064143576 0.10725212 -0.18163677
v -0.034377705 -0.10227866 -0.0020388959
v -0.06326064 -0.3039336 0.17080821
v -0.033239473 -0.100575164 -0.0034990306
v -0.14760092 -0.25038472 0.12490918
v -0.026235353 0.122400254 -0.19462085
v -0.13765405 0.072562076 -0.15190242
v 0.0877904 0.13684872 -0.20700528
v -0.23645549 -0.018575398 -0.07378455
v 0.1688563 -0.10057518 -0.0034990306
v -0.15385804 -0.24391866 0.11936684
v -0.2343912 -0.15288235 0.0413357
v -0.24123053 -0.13883285 0.029293265
v -0.23694082 -0.019455386 -0.073030286
v 0.20181614 0.122400284 -0.1946209
v 0.23972452 0.10725212 -0.18163677
v 0.31323487 0.07256215 -0.15190248
v 0.3337507 0.05363775 -0.13568155
vt 0.8603854 0.20227104
vt 0.875 0.21971554
vt 0.875 0.17471606
vt 0.93750006 0.30869865
vt 0.919194 0.30869865
vt 0.91575575 0.12420553
vt 0.93750006 0.12420553
vt 0.9375 0.10214893
vt 1.0000001 0.0811112
vt 1.0000001 0.12420553
vt 1 0.30869877
vt 0.93750006 0.356967
vt 0.93750006 0.30869865
vt 0.919194 0.30869865
vt 1 0.4825189
vt 1 0.30869877
vt 0.9802339 0.4825189
vt 1 0.537204
vt 5.9604645E-08 0.4825189
vt 0.06250006 0.30869877
vt 5.9604645E-08 0.30869877
vt 0.06250006 0.482519
vt 0.12500006 0.30869877
vt 0.06250006 0.63552976
vt 5.9604645E-08 0.537204
vt 0.04539922 0.63552976
vt 0.06250006 0.6645752
vt 0.12500006 0.63552976
vt 0.12500006 0.7361613
vt 0.15434137 0.754266
vt 0.18750006 0.754266
vt 0.12500006 0.482519
vt 0.18750009 0.30869886
vt 0.18750006 0.482519
vt 0.18796444 0.30869886
vt 0.24308482 0.482519
vt 0.18750006 0.63552976
vt 0.25 0.5029758
vt 0.25000006 0.63552976
vt 0.25000006 0.754266
vt 0.30723852 0.63552976
vt 0.31250006 0.754266
vt 0.31250006 0.64494467
vt 0.34565857 0.754266
vt 0.3750001 0.72291476
vt 0.3750001 0.7361611
vt 0.38181043 0.7283607
vt 0.18750006 0.80409074
vt 0.18750006 0.754266
vt 0.15434137 0.754266
vt 0.25000006 0.754266
vt 0.25 0.84148395
vt 0.31250006 0.754266
vt 0.31250006 0.8040905
vt 0.34565857 0.754266
vt 0.89312017 0.42681366
vt 0.93750006 0.42681366
vt 0.93750006 0.46829507
vt 1 0.42681366
vt 1 0.53720397
vt 4.748478E-08 0.53720397
vt 5.9604645E-08 0.42681366
vt 0.06250006 0.42681366
vt 0.062500045 0.60611284
vt 0.12500006 0.42681366
vt 0.12500003 0.66453093
vt 0.18501832 0.42681375
vt 0.18750007 0.70356476
vt 0.18750009 0.4292941
vt 0.25000006 0.5029758
vt 0.25000003 0.71727145
vt 0.31250006 0.5766577
vt 0.31250006 0.70356464
vt 0.3750001 0.6391221
vt 0.3750001 0.6645308
vt 0.39085585 0.6497106
vt 0.93750006 0.42681366
vt 0.89312017 0.42681366
vt 0.82352823 0.42681366
vt 1.1850183 0.42681375
vt 1 0.42681366
vt 1.0625 0.42681366
vt 1.1250001 0.42681366
vt 0.5827435 0.9832419
vt 0.5827435 0.9832419
vt 0.5827435 0.9832419
vt 0.5827435 0.9832419
vt 0.5827435 0.9832419
vt 0.5827435 0.9832419
vt 0.5827435 0.9832419
vt 0.5827435 0.9832419
vt 0.5827435 0.9832419
vt 0.5827435 0.9832419
vt 0.5827435 0.9832419
vt 0.5827435 0.9832419
vt 0.5827435 0.9832419
vt 0.5827435 0.9832419
vt 0.5827435 0.9832419
vt 0.5827435 0.9832419
vt 0.5827435 0.9832419
vt 0.5827435 0.9832419
vt 0.5827435 0.9832419
vt 0.5827435 0.9832419
vt 0.5827435 0.9832419
vt 0.5827435 0.9832419
vt 0.5827435 0.9832419
vt 0.5827435 0.9832419
vt 0.5827435 0.9832419
vt 0.5827435 0.9832419
vt 0.5827435 0.9832419
vt 0.12500006 0.30869877
vt 0.18750009 0.30869886
vt 0.18750007 0.30741754
vt 0.12500006 0.17471619
vt 0.06250006 0.30869877
vt 0.06250006 0.12420553
vt 5.9604645E-08 0.30869877
vt 0.084244266 0.12420553
vt 5.9604645E-08 0.12420553
vt 0.06250006 0.10214904
vt 5.9604645E-08 0.0811112
vt 0.5827435 0.9832419
vt 0.5827435 0.9832419
vt 0.5827435 0.9832419
vt 0.5827435 0.9832419
vt 0.5827435 0.9832419
vt 0.5827435 0.9832419
vt 0.5827435 0.9832419
vt 0.5827435 0.9832419
vt 0.5827435 0.9832419
vt 0.5827435 0.9832419
vt 0.5827435 0.9832419
vt 0.5827435 0.9832419
vt 0.5827435 0.9832419
vt 0.5827435 0.9832419
vt 0.5827435 0.9832419
vt 0.5827435 0.9832419
vt 0.5827435 0.9832419
vt 0.5827435 0.9832419
vt 0.5827435 0.9832419
vt 0.5827435 0.9832419
vt 0.5827435 0.9832419
vt 0.5827435 0.9832419
vt 0.5827435 0.9832419
vn 0.77107567 0.51523054 -0.37413874
vn 0.6158787 0.6901931 -0.37990382
vn 0.6129801 0.69281864 -0.37981272
vn 0.35390198 0.8544188 -0.38042334
vn 0.51523054 0.77107567 -0.37413874
vn 0.5103131 0.7637759 -0.39525542
vn 0.33892223 0.8182661 -0.46429753
vn 0.29408786 0.7792596 -0.55341375
vn -0 0.8327868 -0.553594
vn -0 0.885687 -0.46428296
vn -0 0.9248145 -0.38041824
vn 0.30171078 0.935041 0.18619637
vn 0.37594113 0.907624 0.18678027
vn 0.5461369 0.8173894 0.1833274
vn -0 0.9133844 0.40709817
vn -0 0.98240256 0.1867755
vn 0.18598294 0.935103 0.30165005
vn -0.074864894 0.7786804 0.62293816
vn -0 0.9133844 0.40709817
vn -0.37594113 0.907624 0.18678027
vn -0 0.98240256 0.1867755
vn -0.34953722 0.8438579 0.4070966
vn -0.6946627 0.6946627 0.18678157
vn -0.2925307 0.70622426 0.6447272
vn -0.074864894 0.7786804 0.62293816
vn -0.15186399 0.7635317 0.62765974
vn -0.33989635 0.6635258 0.6664862
vn -0.54052633 0.54052633 0.644719
vn -0.5562418 0.4955698 0.6670874
vn -0.6242977 0.41713437 0.66049325
vn -0.6877762 0.28486437 0.66769475
vn -0.6458588 0.6458588 0.40710285
vn -0.907624 0.37594113 0.18678027
vn -0.8438579 0.34953722 0.4070966
vn -0.9641628 0.1917827 0.18332885
vn -0.8360245 0.16627099 0.522893
vn -0.70622426 0.2925307 0.6447272
vn -0.77811766 0.08404989 0.62246966
vn -0.7644179 0 0.64472103
vn -0.74442816 0 0.6677025
vn -0.7451578 -0.14820144 0.6502124
vn -0.6877762 -0.28486437 0.66769475
vn -0.71143985 -0.2235553 0.6662405
vn -0.6242977 -0.41713437 0.66049325
vn -0.5582912 -0.4933764 0.6670012
vn -0.5562418 -0.4955698 0.6670874
vn -0.41713437 -0.6242977 0.66049325
vn -0.8441618 0.2816009 -0.4561709
vn -0.8217388 0.34035394 -0.4570607
vn -0.7425002 0.49611917 -0.4500658
vn -0.8894346 0 -0.45706248
vn -0.889441 0 -0.4570501
vn -0.8217388 -0.34035394 -0.4570607
vn -0.8441618 -0.2816009 -0.4561709
vn -0.7425002 -0.49611917 -0.4500658
vn -0.55557317 -0.8314676 0
vn -0.38268155 -0.92388034 0
vn -0.31016934 -0.9506814 0
vn -0 -1 0
vn 0.084050685 -0.99646145 0
vn 0.084050685 -0.99646145 0
vn -0 -1 0
vn 0.38268155 -0.92388034 0
vn 0.4564065 -0.8897714 0
vn 0.70710677 -0.70710677 0
vn 0.7530416 -0.6579729 0
vn 0.8314676 -0.55557317 0
vn 0.93832797 -0.34574637 0
vn 0.8878635 -0.46010688 0
vn 0.9961055 -0.08816902 0
vn 1 0 0
vn 0.9518805 0.30646953 0
vn 0.93832797 0.34574637 0
vn 0.75068873 0.6606561 0
vn 0.7530416 0.6579729 0
vn 0.55557317 0.8314676 0
vn -0 0 1
vn -0 0 1
vn -0 0 1
vn -0 0 1
vn -0 0 1
vn -0 0 1
vn -0 0 1
vn 0.62546146 0 0.7802551
vn 0.62546146 0 0.7802551
vn 0.62546146 0 0.7802551
vn 0.62546146 0 0.7802551
vn 0.62546146 0 0.7802551
vn 0.62546146 0 0.7802551
vn 0.62546146 0 0.7802551
vn 0.62546146 0 0.7802551
vn 0.62546146 0 0.7802551
vn 0.62546146 0 0.7802551
vn 0.62546146 0 0.7802551
vn 0.62546146 0 0.7802551
vn 0.62546146 0 0.7802551
vn 0.62546146 0 0.7802551
vn 0.62546146 0 0.7802551
vn 0.62546146 0 0.7802551
vn 0.62546146 0 0.7802551
vn 0.62546146 0 0.7802551
vn 0.62546146 0 0.7802551
vn 0.62546146 0 0.7802551
vn 0.62546146 0 0.7802551
vn 0.62546146 0 0.7802551
vn 0.62546146 0 0.7802551
vn 0.62546146 0 0.7802551
vn 0.62546146 0 0.7802551
vn 0.62546146 0 0.7802551
vn 0.62546146 0 0.7802551
vn -0.6539406 0.6539406 -0.38042518
vn -0.77107567 0.51523054 -0.37413874
vn -0.77107567 0.51523054 -0.37413874
vn -0.6129801 0.69281864 -0.37981272
vn -0.35390198 0.8544188 -0.38042334
vn -0.3389138 0.8182762 -0.46428597
vn -0 0.9248145 -0.38041824
vn -0.5103131 0.7637759 -0.39525542
vn -0 0.885687 -0.46428296
vn -0.29408786 0.7792596 -0.55341375
vn -0 0.8327868 -0.553594
vn -0 -0.6507913 -0.7592566
vn -0 -0.6507913 -0.7592566
vn -0 -0.6507913 -0.7592566
vn -0 -0.6507913 -0.7592566
vn -0 -0.6507913 -0.7592566
vn -0 -0.6507913 -0.7592566
vn -0 -0.6507913 -0.7592566
vn -0 -0.6507913 -0.7592566
vn -0 -0.6507913 -0.7592566
vn -0 -0.6507913 -0.7592566
vn -0 -0.6507913 -0.7592566
vn -0 -0.6507913 -0.7592566
vn -0 -0.6507913 -0.7592566
vn -0 -0.6507913 -0.7592566
vn -0 -0.6507913 -0.7592566
vn -0 -0.6507913 -0.7592566
vn -0 -0.6507913 -0.7592566
vn -0 -0.6507913 -0.7592566
vn -0 -0.6507913 -0.7592566
vn -0 -0.6507913 -0.7592566
vn -0 -0.6507913 -0.7592566
vn -0 -0.6507913 -0.7592566
vn -0 -0.6507913 -0.7592566
g mdlPot2Debris2_0
f 3/3/3 2/2/2 1/1/1
f 4/4/4 2/2/2 3/3/3
f 4/4/4 5/5/5 2/2/2
f 4/4/4 3/3/3 6/6/6
f 6/6/6 7/7/7 4/4/4
f 8/8/8 7/7/7 6/6/6
f 8/8/8 9/9/9 7/7/7
f 9/9/9 10/10/10 7/7/7
f 7/7/7 10/10/10 4/4/4
f 10/10/10 11/11/11 4/4/4
f 14/14/14 13/13/13 12/12/12
f 15/15/15 12/12/12 13/13/13
f 13/13/13 16/16/16 15/15/15
f 15/15/15 17/17/17 12/12/12
f 17/17/17 15/15/15 18/18/18
f 21/21/21 20/20/20 19/19/19
f 20/20/20 22/22/22 19/19/19
f 20/20/20 23/23/23 22/22/22
f 19/19/19 22/22/22 24/24/24
f 24/24/24 25/25/25 19/19/19
f 24/24/24 26/26/26 25/25/25
f 26/26/26 24/24/24 27/27/27
f 24/24/24 28/28/28 27/27/27
f 28/28/28 29/29/29 27/27/27
f 30/30/30 29/29/29 28/28/28
f 28/28/28 31/31/31 30/30/30
f 23/23/23 32/32/32 22/22/22
f 22/22/22 32/32/32 24/24/24
f 32/32/32 28/28/28 24/24/24
f 23/23/23 33/33/33 32/32/32
f 33/33/33 34/34/34 32/32/32
f 32/32/32 34/34/34 28/28/28
f 33/33/33 35/35/35 34/34/34
f 35/35/35 36/36/36 34/34/34
f 34/34/34 37/37/37 28/28/28
f 37/37/37 34/34/34 36/36/36
f 28/28/28 37/37/37 31/31/31
f 37/37/37 36/36/36 38/38/38
f 37/37/37 39/39/39 31/31/31
f 38/38/38 39/39/39 37/37/37
f 39/39/39 40/40/40 31/31/31
f 38/38/38 41/41/41 39/39/39
f 42/42/42 40/40/40 39/39/39
f 42/42/42 39/39/39 41/41/41
f 41/41/41 43/43/43 42/42/42
f 44/44/44 42/42/42 43/43/43
f 44/44/44 43/43/43 45/45/45
f 45/45/45 46/46/46 44/44/44
f 45/45/45 47/47/47 46/46/46
f 50/50/50 49/49/49 48/48/48
f 49/49/49 51/51/51 48/48/48
f 51/51/51 52/52/52 48/48/48
f 51/51/51 53/53/53 52/52/52
f 53/53/53 54/54/54 52/52/52
f 53/53/53 55/55/55 54/54/54
f 58/58/58 57/57/57 56/56/56
f 59/59/59 57/57/57 58/58/58
f 60/60/60 59/59/59 58/58/58
f 63/63/63 62/62/62 61/61/61
f 64/64/64 63/63/63 61/61/61
f 65/65/65 63/63/63 64/64/64
f 66/66/66 65/65/65 64/64/64
f 67/67/67 65/65/65 66/66/66
f 67/67/67 66/66/66 68/68/68
f 68/68/68 69/69/69 67/67/67
f 70/70/70 69/69/69 68/68/68
f 71/71/71 70/70/70 68/68/68
f 72/72/72 70/70/70 71/71/71
f 73/73/73 72/72/72 71/71/71
f 74/74/74 72/72/72 73/73/73
f 75/75/75 74/74/74 73/73/73
f 76/76/76 74/74/74 75/75/75
f 79/79/79 78/78/78 77/77/77
f 77/77/77 80/80/80 79/79/79
f 77/77/77 81/81/81 80/80/80
f 81/81/81 82/82/82 80/80/80
f 82/82/82 83/83/83 80/80/80
f 86/86/86 85/85/85 84/84/84
f 84/84/84 87/87/87 86/86/86
f 87/87/87 88/88/88 86/86/86
f 88/88/88 89/89/89 86/86/86
f 89/89/89 88/88/88 90/90/90
f 90/90/90 91/91/91 89/89/89
f 90/90/90 92/92/92 91/91/91
f 90/90/90 93/93/93 92/92/92
f 93/93/93 94/94/94 92/92/92
f 93/93/93 95/95/95 94/94/94
f 95/95/95 96/96/96 94/94/94
f 95/95/95 97/97/97 96/96/96
f 97/97/97 98/98/98 96/96/96
f 96/96/96 98/98/98 99/99/99
f 98/98/98 100/100/100 99/99/99
f 99/99/99 100/100/100 101/101/101
f 99/99/99 101/101/101 102/102/102
f 101/101/101 103/103/103 102/102/102
f 102/102/102 103/103/103 104/104/104
f 103/103/103 105/105/105 104/104/104
f 106/106/106 104/104/104 105/105/105
f 106/106/106 107/107/107 104/104/104
f 107/107/107 108/108/108 104/104/104
f 108/108/108 107/107/107 109/109/109
f 110/110/110 108/108/108 109/109/109
f 113/113/113 112/112/112 111/111/111
f 114/114/114 113/113/113 111/111/111
f 114/114/114 111/111/111 115/115/115
f 114/114/114 115/115/115 116/116/116
f 116/116/116 115/115/115 117/117/117
f 116/116/116 118/118/118 114/114/114
f 119/119/119 116/116/116 117/117/117
f 120/120/120 118/118/118 116/116/116
f 120/120/120 116/116/116 119/119/119
f 121/121/121 120/120/120 119/119/119
f 124/124/124 123/123/123 122/122/122
f 122/122/122 125/125/125 124/124/124
f 122/122/122 126/126/126 125/125/125
f 126/126/126 122/122/122 127/127/127
f 128/128/128 126/126/126 127/127/127
f 122/122/122 129/129/129 127/127/127
f 130/130/130 128/128/128 127/127/127
f 129/129/129 131/131/131 127/127/127
f 130/130/130 127/127/127 132/132/132
f 131/131/131 133/133/133 127/127/127
f 130/130/130 132/132/132 134/134/134
f 131/131/131 135/135/135 133/133/133
f 136/136/136 130/130/130 134/134/134
f 131/131/131 137/137/137 135/135/135
f 137/137/137 138/138/138 135/135/135
f 138/138/138 139/139/139 135/135/135
f 139/139/139 140/140/140 135/135/135
f 136/136/136 134/134/134 141/141/141
f 136/136/136 141/141/141 142/142/142
f 136/136/136 142/142/142 143/143/143
f 143/143/143 144/144/144 136/136/136
