g mdlPlatform_Column_Low_Straight_Collision
v 86.834335 -17.499784 -147.27211
v 87.22603 -16.799795 32.99907
v 86.834335 -15.749807 -147.2721
v 87.22603 -18.666437 32.99907
v 87.22603 -18.666441 72.99907
v 87.22603 -16.799797 72.99907
v 87.22603 -18.666441 72.99907
v 87.226074 -18.666443 83.821175
v 87.226074 -16.799797 83.821175
v 85.22827 18.282814 -147.2721
v 76.40496 19.501667 32.999077
v 76.68959 18.282814 -147.2721
v 85.51289 19.501667 32.999077
v 76.40496 19.501667 72.99908
v 85.51289 19.501667 72.99908
v 75.08351 -15.749807 -147.27211
v 74.69182 -18.666437 32.99907
v 75.08351 -17.499786 -147.2721
v 74.69182 -16.799795 32.99907
v 74.69182 -18.666441 72.99907
v 74.69182 -16.799797 72.99907
v 74.69182 -18.666441 83.821175
v 74.69182 -16.799797 83.821175
v 85.51289 -19.501675 72.99907
v 87.22603 -18.666441 72.99907
v 87.22603 -18.666437 32.99907
v 85.51289 -19.50167 32.99907
v 86.834335 -17.499784 -147.27211
v 85.22827 -18.282816 -147.2721
v 85.51289 19.501667 32.999077
v 87.22603 18.666435 72.99908
v 85.51289 19.501667 72.99908
v 87.22603 18.666437 32.999077
v 86.834335 17.499786 -147.2721
v 85.22827 18.282814 -147.2721
v 76.68959 18.282814 -147.2721
v 74.69182 18.666437 32.999077
v 75.08351 17.499786 -147.2721
v 76.40496 19.501667 32.999077
v 76.40496 19.501667 72.99908
v 74.69182 18.666435 72.99908
v 74.69182 18.666435 83.82118
v 76.40496 19.501667 83.82118
v 85.51289 -19.501675 72.99907
v 76.405 -19.50167 32.99907
v 76.405 -19.501675 72.99907
v 85.51289 -19.50167 32.99907
v 76.68962 -18.282816 -147.27211
v 85.22827 -18.282816 -147.2721
v 74.69182 16.799791 72.99908
v 74.69182 16.799791 83.82118
v 74.69182 -5.092161E-06 83.821175
v 74.69182 -5.092161E-06 72.99907
v 74.69182 -16.799797 83.821175
v 74.69182 16.799793 32.999077
v 74.69182 -16.799797 72.99907
v 74.69182 -2.4719388E-06 32.99907
v 75.08351 15.749806 -147.2721
v 75.08351 -2.240808E-06 -147.27211
v 74.69182 -16.799795 32.99907
v 75.08351 -2.240808E-06 -147.27211
v 75.08351 -15.749807 -147.27211
v 87.226074 -5.722046E-06 83.821175
v 87.2252 16.798677 84.90844
v 87.226074 16.799791 83.82118
v 87.22518 -5.722046E-06 84.90843
v 87.226074 -16.799797 83.821175
v 86.59839 -5.722046E-06 85.53462
v 86.598404 16.79868 85.53463
v 87.22518 -16.798687 84.90843
v 87.226074 -18.666443 83.821175
v 87.22518 -18.665207 84.90843
v 86.59839 -18.665207 85.53462
v 86.59839 -16.798687 85.53462
v 85.51289 -18.666443 85.534485
v 85.51289 -16.799797 85.534485
v 76.405 -18.666441 85.534485
v 76.405 -16.799797 85.534485
v 85.51289 -5.722046E-06 85.5345
v 76.405 -5.793082E-06 85.5345
v 85.51289 16.799791 85.53451
v 76.405 -5.793082E-06 85.5345
v 85.51289 18.666435 85.53451
v 86.598404 18.665197 85.53463
v 87.2252 18.665197 84.90844
v 87.2252 16.798677 84.90844
v 87.226074 16.799791 83.82118
v 87.226074 18.666435 83.82118
v 76.405 16.799791 85.53451
v 75.3195 -5.1742904E-06 85.53462
v 76.405 -16.799797 85.534485
v 75.3195 -16.798687 85.53462
v 76.405 -18.666441 85.534485
v 75.3195 -18.665207 85.53462
v 74.69271 -16.798687 84.90843
v 74.69271 -18.665207 84.90843
v 74.69182 -18.666441 83.821175
v 74.69182 -16.799797 83.821175
v 74.69271 -4.9177474E-06 84.90843
v 74.69182 -5.092161E-06 83.821175
v 74.692696 16.798677 84.90844
v 74.69182 16.799791 83.82118
v 75.31949 16.79868 85.53463
v 76.405 18.666435 85.53451
v 75.31949 18.665197 85.53463
v 74.692696 18.665197 84.90844
v 74.692696 16.798677 84.90844
v 74.69182 16.799791 83.82118
v 74.69182 18.666435 83.82118
v 85.51289 18.666435 85.53451
v 85.51289 16.799791 85.53451
v 85.51293 19.501667 83.82118
v 76.40496 19.501667 83.82118
v 74.69182 -18.666441 72.99907
v 74.69182 -18.666441 83.821175
v 76.405 -19.501675 83.821175
v 76.405 -19.501675 72.99907
v 76.405 -19.50167 32.99907
v 74.69182 -18.666437 32.99907
v 76.68962 -18.282816 -147.27211
v 75.08351 -17.499786 -147.2721
v 76.405 -18.666441 85.534485
v 76.405 -19.501675 83.821175
v 74.69182 -18.666441 83.821175
v 74.69271 -18.665207 84.90843
v 75.3195 -18.665207 85.53462
v 87.2252 18.665197 84.90844
v 86.598404 18.665197 85.53463
v 85.51289 18.666435 85.53451
v 87.226074 18.666435 83.82118
v 85.51293 19.501667 83.82118
v 85.51289 19.501667 72.99908
v 87.22603 18.666435 72.99908
v 87.22518 -18.665207 84.90843
v 87.226074 -18.666443 83.821175
v 85.51289 -19.501675 83.821175
v 86.59839 -18.665207 85.53462
v 76.405 -19.501675 83.821175
v 76.405 -18.666441 85.534485
v 85.51289 -19.501675 83.821175
v 74.69182 18.666435 72.99908
v 74.69182 18.666435 83.82118
v 74.69182 16.799791 83.82118
v 74.69182 16.799791 72.99908
v 74.69182 18.666437 32.999077
v 74.69182 16.799793 32.999077
v 75.08351 17.499786 -147.2721
v 75.08351 15.749806 -147.2721
v 74.692696 18.665197 84.90844
v 74.69182 18.666435 83.82118
v 76.40496 19.501667 83.82118
v 76.405 18.666435 85.53451
v 75.31949 18.665197 85.53463
v 87.22603 -4.2711004E-06 72.99907
v 87.22603 16.799791 72.99908
v 87.22603 16.799793 32.999077
v 87.22603 -1.6508786E-06 32.999077
v 87.22603 -16.799797 72.99907
v 86.834335 15.749806 -147.2721
v 86.834335 -1.4710641E-06 -147.2721
v 87.22603 -16.799795 32.99907
v 86.834335 -15.749807 -147.2721
v 86.834335 -1.4710641E-06 -147.2721
v 85.51289 -19.501675 83.821175
v 87.226074 -18.666443 83.821175
v 87.22603 -18.666441 72.99907
v 85.51289 -19.501675 72.99907
v 87.22603 -16.799797 72.99907
v 87.226074 -16.799797 83.821175
v 87.226074 -5.722046E-06 83.821175
v 87.22603 -4.2711004E-06 72.99907
v 87.22603 16.799791 72.99908
v 87.226074 16.799791 83.82118
v 87.22603 16.799791 72.99908
v 87.226074 16.799791 83.82118
v 87.226074 18.666435 83.82118
v 87.22603 18.666435 72.99908
v 87.22603 16.799791 72.99908
v 87.22603 18.666437 32.999077
v 87.22603 16.799793 32.999077
v 86.834335 17.499786 -147.2721
v 86.834335 15.749806 -147.2721
v 76.40496 19.501667 83.82118
v 76.40496 19.501667 72.99908
v 85.51289 19.501667 72.99908
v 85.51293 19.501667 83.82118
v 76.405 -19.501675 72.99907
v 76.405 -19.501675 83.821175
v 85.51289 -19.501675 83.821175
v 85.51289 -19.501675 72.99907
vt -2.0676541 0.86253756
vt -1.9999774 0.7441044
vt -2.0676541 0.7441044
vt -1.9999774 0.8704331
vt -0.9171467 0.8704331
vt -0.9171467 0.7441044
vt -0.9211215 0.8912363
vt 0.11258006 0.8834
vt 0.1021388 0.7674506
vt -0.8004466 0.3836457
vt -0.7727676 0.4309141
vt -0.8004466 0.4309141
vt -0.7727676 0.38049448
vt -0.39849144 0.40466464
vt -0.39849153 0.35424492
vt 0.26653105 0.8538526
vt 0.34031034 0.75507545
vt 0.26653105 0.75507545
vt 0.34031034 0.86043775
vt 1.5207787 0.75507545
vt 1.5207787 0.86043775
vt 1.8401575 0.75507545
vt 1.8401577 0.86043775
vt 1.9460459 0.8096759
vt 1.9460459 0.7749212
vt 1.3676274 0.7749212
vt 1.3676274 0.8096759
vt 1.3314762 0.7749212
vt 1.3314762 0.8075037
vt 1.3578565 0.77559966
vt 1.9294286 0.8092374
vt 1.9294286 0.77559966
vt 1.3578565 0.8092374
vt 1.3221333 0.8071351
vt 1.3221333 0.77559966
vt 0.27017987 0.85783064
vt 0.3427868 0.77194756
vt 0.27017987 0.77194774
vt 0.3427868 0.8635561
vt 1.5044808 0.86355275
vt 1.5044805 0.77194524
vt 1.8187805 0.7719443
vt 1.8187809 0.8635518
vt -0.41066417 0.35423884
vt -0.78493726 0.43091094
vt -0.41066244 0.404658
vt -0.7849389 0.38049155
vt -0.8126163 0.42775995
vt -0.8126178 0.38049176
vt 1.352246 0.48389912
vt 1.618895 0.48389906
vt 1.618895 0.24805906
vt 1.352246 0.2480591
vt 1.6188948 0.012219146
vt 0.36667544 0.48389906
vt 1.352246 0.012219191
vt 0.36667544 0.24805912
vt 0.30507728 0.46915907
vt 0.30507728 0.24805912
vt 0.36667553 0.012219235
vt 0.30507728 0.23331913
vt 0.30507737 0.012219233
vt 0.499582 0.73667747
vt 2.7146592 0.66578984
vt 2.7348156 0.7366813
vt 0.4998486 0.66449404
vt -1.7356399 0.732556
vt 0.5001556 0.58133775
vt 2.7149637 0.5841388
vt -1.7149602 0.6617023
vt -1.9752764 0.6914801
vt -1.9122491 0.6465952
vt -1.9120774 0.59482175
vt -1.7146615 0.5800513
vt -1.9747039 0.54989725
vt -1.7347895 0.509268
vt -1.9747039 0.54989725
vt -1.7347895 0.509268
vt 0.5004216 0.5092731
vt 0.5004216 0.5092731
vt 2.7356148 0.513392
vt 0.5004216 0.5092731
vt 2.9752288 0.5544666
vt 2.9122696 0.59927565
vt 2.9120588 0.6510487
vt 2.7146595 0.66578984
vt 2.7348156 0.7366813
vt 2.9747543 0.69604945
vt 2.7356148 0.513392
vt 0.5001556 0.58133775
vt -1.7347895 0.509268
vt -1.7146615 0.5800513
vt -1.9747039 0.54989725
vt -1.9120774 0.59482175
vt -1.7149602 0.6617023
vt -1.9122491 0.6465952
vt -1.9752764 0.6914801
vt -1.7356399 0.732556
vt 0.4998486 0.66449404
vt 0.499582 0.73667747
vt 2.7146592 0.66578984
vt 2.7348156 0.7366813
vt 2.7149637 0.5841388
vt 2.9752288 0.5544666
vt 2.9122696 0.59927565
vt 2.9120588 0.6510487
vt 2.7146595 0.66578984
vt 2.7348156 0.7366813
vt 2.9747543 0.69604945
vt 2.9752288 0.5544666
vt 2.7356148 0.513392
vt 3.1469603 0.6254088
vt 1.8187809 0.8635518
vt 1.5044818 0.86631256
vt 1.8187859 0.866308
vt 1.8187853 0.77469885
vt 1.5044808 0.7747038
vt 0.34278294 0.77472186
vt 0.34278372 0.8663294
vt 0.27017623 0.77472305
vt 0.27017698 0.8606051
vt -1.9747039 0.54989725
vt -2.1469603 0.62052107
vt -1.9752764 0.6914801
vt -1.9122491 0.64659524
vt -1.9120777 0.59482145
vt 2.9120586 0.6510486
vt 2.9122696 0.5992756
vt 2.9752288 0.5544666
vt 2.9747543 0.69604945
vt 3.1469603 0.6254088
vt 1.9294286 0.77559966
vt -0.9171467 0.74407893
vt -1.9122491 0.64659524
vt -1.9752764 0.6914801
vt -2.1469603 0.62052107
vt -1.9120777 0.59482145
vt 1.8187853 0.77469885
vt -1.9747039 0.54989725
vt -2.1469603 0.62052107
vt 1.5207791 0.86493516
vt 1.8401582 0.86493516
vt 1.840158 0.75957286
vt 1.5207789 0.75957286
vt 0.34031025 0.86493516
vt 0.34031025 0.75957286
vt 0.26653096 0.85835004
vt 0.26653096 0.75957286
vt 2.9120586 0.6510486
vt 2.9747543 0.69604945
vt 3.1469603 0.6254088
vt 2.9752288 0.5544666
vt 2.9122696 0.5992756
vt -0.9171467 0.26219243
vt -0.9171467 0.035957888
vt -1.9999771 0.03595826
vt -1.9999774 0.26219258
vt -0.9171467 0.48842716
vt -2.0676541 0.035958268
vt -2.0676541 0.24805294
vt -1.9999774 0.48842725
vt -2.0676541 0.47428757
vt -2.0676541 0.2621926
vt -2.1469603 0.62052107
vt -1.9752764 0.6914801
vt 1.9518616 0.82726294
vt 1.9460459 0.7049923
vt -1.7546154 0.23231786
vt -1.7356399 0.732556
vt -0.89038354 0.71341443
vt -0.9171467 0.26219243
vt 0.18203104 0.2802196
vt 0.15843582 0.7134183
vt -0.9171467 0.8792424
vt -0.24135852 0.8792424
vt -0.24135852 0.74407893
vt -0.9171467 0.74407893
vt -0.9171467 0.8704076
vt -1.9999769 0.74407923
vt -1.9999771 0.8704078
vt -2.0676537 0.74407923
vt -2.0676541 0.8625123
vt -0.082971096 0.41573864
vt -0.39849144 0.40466464
vt -0.3968737 0.3510495
vt -0.08078408 0.3520683
vt -0.41066244 0.404658
vt 1.8187853 0.77469885
vt -2.1469603 0.62052107
vt -0.41066417 0.35423884
vn 0.8467883 -0.53191406 -0.0041491394
vn 1 0 0.00016043008
vn 0.9999962 0.0011487141 -0.002514314
vn 0.8480128 -0.5299756 3.1575804E-05
vn 0.6894846 -0.5951869 0.41275123
vn 0.7071242 0.70708936 0.00020187772
vn 0.6894846 -0.5951869 0.41275123
vn 0.822843 -0.56322575 0.07553959
vn 1 0 0.00040838562
vn 0.22788171 0.9736683 -0.006323703
vn -0.22487733 0.97438705 -0.0002797276
vn -0.22770795 0.973698 -0.007829009
vn 0.22487889 0.9743867 -2.2446973E-05
vn -0.14946367 0.9887672 0
vn 0.2234508 0.9682093 -0.11242979
vn -0.9999976 0.0009413184 -0.001990711
vn -0.8480025 -0.5299922 -2.3097266E-05
vn -0.8466633 -0.53210163 -0.005392002
vn -1 0 1.6566033E-05
vn -0.8480056 -0.52998716 0
vn -1 0 0
vn -0.8228423 -0.5632267 0.07554054
vn -1 0 0.0004105001
vn 0.22345082 -0.9682093 -0.11242968
vn 0.6894846 -0.5951869 0.41275123
vn 0.8480128 -0.5299756 3.1575804E-05
vn 0.2248703 -0.9743638 -0.006968522
vn 0.8467883 -0.53191406 -0.0041491394
vn 0.22577865 -0.9741709 -0.003874552
vn 0.22487889 0.9743867 -2.2446973E-05
vn 0.5445618 0.8270706 -0.13930774
vn 0.2234508 0.9682093 -0.11242979
vn 0.84800476 0.52998865 -2.2995084E-05
vn 0.8466938 0.53206015 -0.004644501
vn 0.22788171 0.9736683 -0.006323703
vn -0.22770795 0.973698 -0.007829009
vn -0.84620297 0.53285736 -0.0018831633
vn -0.8474021 0.53089786 -0.0075601074
vn -0.22487733 0.97438705 -0.0002797276
vn -0.14946367 0.9887672 0
vn -0.8480077 0.52998394 0
vn -0.822843 0.56322587 0.07553773
vn -0.17762633 0.9838606 -0.021614715
vn 0.22345082 -0.9682093 -0.11242968
vn -0.22486858 -0.9743645 -0.0069170683
vn -0.29896075 -0.9542655 0
vn 0.2248703 -0.9743638 -0.006968522
vn -0.2242619 -0.9745215 -0.0037982257
vn 0.22577865 -0.9741709 -0.003874552
vn -1 0 0
vn -1 0 0.00040523813
vn -1 0 0.00040874683
vn -1 0 0
vn -1 0 0.0004105001
vn -0.9999988 -0.0011029188 -0.0010864498
vn -1 0 0
vn -1 0 1.6565318E-05
vn -0.99999917 -0.0002783396 -0.0012553291
vn -0.99999917 -8.938103E-05 -0.0012663654
vn -1 0 1.6566033E-05
vn -0.99999917 -8.938103E-05 -0.0012663654
vn -0.9999976 0.0009413184 -0.001990711
vn 1 0 0.0004066315
vn 0.92363256 0 0.3832793
vn 1 0 0.00040312306
vn 0.92363083 0 0.38328332
vn 1 0 0.00040838562
vn 0.3824085 0 0.9239934
vn 0.38240942 0 0.923993
vn 0.9236306 0 0.38328376
vn 0.822843 -0.56322575 0.07553959
vn 0.760662 -0.51551807 0.39450514
vn 0.39393783 -0.5155457 0.76093733
vn 0.38240424 0 0.92399514
vn 0.045222845 -0.5203232 0.8527711
vn -6.2577295E-05 0 1
vn -0.07963413 -0.48608565 0.8702753
vn 6.2365194E-05 0 1
vn -5.6899724E-05 0 1
vn 5.7178262E-05 0 1
vn -5.6911405E-05 0 1
vn 5.7178262E-05 0 1
vn 0.021382619 0.5870665 0.80925626
vn 0.39394215 0.51554507 0.7609356
vn 0.7606656 0.5155156 0.39450154
vn 0.92363256 0 0.3832793
vn 1 0 0.00040312306
vn 0.8228431 0.563226 0.07553599
vn 5.715428E-05 0 1
vn -0.38240817 0 0.92399347
vn 6.2365194E-05 0 1
vn -0.38240486 0 0.9239949
vn -0.07963413 -0.48608565 0.8702753
vn -0.3939397 -0.5155461 0.76093614
vn -0.9236306 0 0.38328376
vn -0.7606625 -0.5155183 0.3945041
vn -0.8228423 -0.5632267 0.07554054
vn -1 0 0.0004105001
vn -0.92363083 0 0.38328332
vn -1 0 0.00040874683
vn -0.92363274 0 0.3832787
vn -1 0 0.00040523813
vn -0.3824097 0 0.9239929
vn -0.16540979 0.55707896 0.8138198
vn -0.39394286 0.5155452 0.76093507
vn -0.76066613 0.5155155 0.39450076
vn -0.92363274 0 0.3832787
vn -1 0 0.00040523813
vn -0.822843 0.56322587 0.07553773
vn 0.021382619 0.5870665 0.80925626
vn -5.6911405E-05 0 1
vn 0.021942286 0.9811777 0.19185643
vn -0.17762633 0.9838606 -0.021614715
vn -0.8480056 -0.52998716 0
vn -0.8228423 -0.5632267 0.07554054
vn -0.3640245 -0.9136259 0.18103561
vn -0.29896075 -0.9542655 0
vn -0.22486858 -0.9743645 -0.0069170683
vn -0.8480025 -0.5299922 -2.3097266E-05
vn -0.2242619 -0.9745215 -0.0037982257
vn -0.8466633 -0.53210163 -0.005392002
vn -0.07963413 -0.48608565 0.8702753
vn -0.3640245 -0.9136259 0.18103561
vn -0.8228423 -0.5632267 0.07554054
vn -0.7606625 -0.5155183 0.3945041
vn -0.3939397 -0.5155461 0.76093614
vn 0.7606656 0.5155156 0.39450154
vn 0.39394215 0.51554507 0.7609356
vn 0.021382619 0.5870665 0.80925626
vn 0.8228431 0.563226 0.07553599
vn 0.021942286 0.9811777 0.19185643
vn 0.2234508 0.9682093 -0.11242979
vn 0.5445618 0.8270706 -0.13930774
vn 0.760662 -0.51551807 0.39450514
vn 0.822843 -0.56322575 0.07553959
vn 0.16749278 -0.9309722 0.3244025
vn 0.39393783 -0.5155457 0.76093733
vn -0.3640245 -0.9136259 0.18103561
vn -0.07963413 -0.48608565 0.8702753
vn 0.16749278 -0.9309722 0.3244025
vn -0.8480077 0.52998394 0
vn -0.822843 0.56322587 0.07553773
vn -1 0 0.00040523813
vn -1 0 0
vn -0.84620297 0.53285736 -0.0018831633
vn -0.9999988 -0.0011029188 -0.0010864498
vn -0.8474021 0.53089786 -0.0075601074
vn -0.99999917 -0.0002783396 -0.0012553291
vn -0.76066613 0.5155155 0.39450076
vn -0.822843 0.56322587 0.07553773
vn -0.17762633 0.9838606 -0.021614715
vn -0.16540979 0.55707896 0.8138198
vn -0.39394286 0.5155452 0.76093507
vn 0.7071256 -0.00020341956 0.70708793
vn 0.7071256 0.00020328011 0.70708793
vn 1 0 0.00025634022
vn 0.9999994 0 -0.0010863977
vn 0.7071242 0.70708936 0.00020187772
vn 0.99999666 0.0012396718 -0.002302098
vn 0.9999976 0 -0.0021727942
vn 1 0 0.00016043008
vn 0.9999962 0.0011487141 -0.002514314
vn 0.9999976 0 -0.0021727942
vn 0.16749278 -0.9309722 0.3244025
vn 0.822843 -0.56322575 0.07553959
vn 0.6894846 -0.5951869 0.41275123
vn 0.22345082 -0.9682093 -0.11242968
vn 0.7071242 0.70708936 0.00020187772
vn 1 0 0.00040838562
vn 1 0 0.0004066315
vn 0.7071256 -0.00020341956 0.70708793
vn 0.7071256 0.00020328011 0.70708793
vn 1 0 0.00040312306
vn 0.7071256 0.00020328011 0.70708793
vn 1 0 0.00040312306
vn 0.8228431 0.563226 0.07553599
vn 0.5445618 0.8270706 -0.13930774
vn 0.7071256 0.00020328011 0.70708793
vn 0.84800476 0.52998865 -2.2995084E-05
vn 1 0 0.00025634022
vn 0.8466938 0.53206015 -0.004644501
vn 0.99999666 0.0012396718 -0.002302098
vn -0.17762633 0.9838606 -0.021614715
vn -0.14946367 0.9887672 0
vn 0.2234508 0.9682093 -0.11242979
vn 0.021942286 0.9811777 0.19185643
vn -0.29896075 -0.9542655 0
vn -0.3640245 -0.9136259 0.18103561
vn 0.16749278 -0.9309722 0.3244025
vn 0.22345082 -0.9682093 -0.11242968
g mdlPlatform_Column_Low_Straight_Collision_0
f 3/3/3 2/2/2 1/1/1
f 2/2/2 4/4/4 1/1/1
f 5/5/5 4/4/4 2/2/2
f 6/6/6 5/5/5 2/2/2
f 8/8/8 7/7/7 6/6/6
f 9/9/9 8/8/8 6/6/6
f 12/12/12 11/11/11 10/10/10
f 11/11/11 13/13/13 10/10/10
f 11/11/11 14/14/14 13/13/13
f 14/14/14 15/15/15 13/13/13
f 18/18/18 17/17/17 16/16/16
f 17/17/17 19/19/19 16/16/16
f 17/17/17 20/20/20 19/19/19
f 20/20/20 21/21/21 19/19/19
f 20/20/20 22/22/22 21/21/21
f 22/22/22 23/23/23 21/21/21
f 26/26/26 25/25/25 24/24/24
f 27/27/27 26/26/26 24/24/24
f 28/28/28 26/26/26 27/27/27
f 29/29/29 28/28/28 27/27/27
f 32/32/32 31/31/31 30/30/30
f 31/31/31 33/33/33 30/30/30
f 30/30/30 33/33/33 34/34/34
f 35/35/35 30/30/30 34/34/34
f 38/38/38 37/37/37 36/36/36
f 37/37/37 39/39/39 36/36/36
f 40/40/40 39/39/39 37/37/37
f 41/41/41 40/40/40 37/37/37
f 41/41/41 42/42/42 40/40/40
f 42/42/42 43/43/43 40/40/40
f 46/46/46 45/45/45 44/44/44
f 45/45/45 47/47/47 44/44/44
f 45/45/45 48/48/48 47/47/47
f 48/48/48 49/49/49 47/47/47
f 52/52/52 51/51/51 50/50/50
f 53/53/53 52/52/52 50/50/50
f 54/54/54 52/52/52 53/53/53
f 50/50/50 55/55/55 53/53/53
f 56/56/56 54/54/54 53/53/53
f 55/55/55 57/57/57 53/53/53
f 56/56/56 53/53/53 57/57/57
f 55/55/55 58/58/58 57/57/57
f 58/58/58 59/59/59 57/57/57
f 60/60/60 56/56/56 57/57/57
f 60/60/60 57/57/57 61/61/61
f 62/62/62 60/60/60 61/61/61
f 65/65/65 64/64/64 63/63/63
f 64/64/64 66/66/66 63/63/63
f 63/63/63 66/66/66 67/67/67
f 68/68/68 66/66/66 64/64/64
f 69/69/69 68/68/68 64/64/64
f 66/66/66 70/70/70 67/67/67
f 67/67/67 70/70/70 71/71/71
f 70/70/70 72/72/72 71/71/71
f 73/73/73 72/72/72 70/70/70
f 74/74/74 70/70/70 66/66/66
f 74/74/74 73/73/73 70/70/70
f 68/68/68 74/74/74 66/66/66
f 73/73/73 74/74/74 75/75/75
f 74/74/74 68/68/68 76/76/76
f 74/74/74 76/76/76 75/75/75
f 75/75/75 76/76/76 77/77/77
f 76/76/76 78/78/78 77/77/77
f 76/76/76 79/79/79 78/78/78
f 68/68/68 79/79/79 76/76/76
f 79/79/79 80/80/80 78/78/78
f 81/81/81 79/79/79 68/68/68
f 69/69/69 81/81/81 68/68/68
f 82/82/82 79/79/79 81/81/81
f 83/83/83 81/81/81 69/69/69
f 84/84/84 83/83/83 69/69/69
f 84/84/84 69/69/69 85/85/85
f 69/69/69 86/86/86 85/85/85
f 85/85/85 86/86/86 87/87/87
f 88/88/88 85/85/85 87/87/87
f 89/89/89 82/82/82 81/81/81
f 82/82/82 89/89/89 90/90/90
f 82/82/82 90/90/90 91/91/91
f 90/90/90 92/92/92 91/91/91
f 91/91/91 92/92/92 93/93/93
f 92/92/92 94/94/94 93/93/93
f 94/94/94 92/92/92 95/95/95
f 96/96/96 94/94/94 95/95/95
f 96/96/96 95/95/95 97/97/97
f 95/95/95 98/98/98 97/97/97
f 95/95/95 92/92/92 99/99/99
f 95/95/95 99/99/99 98/98/98
f 92/92/92 90/90/90 99/99/99
f 99/99/99 100/100/100 98/98/98
f 99/99/99 101/101/101 100/100/100
f 99/99/99 90/90/90 101/101/101
f 101/101/101 102/102/102 100/100/100
f 90/90/90 103/103/103 101/101/101
f 89/89/89 103/103/103 90/90/90
f 89/89/89 104/104/104 103/103/103
f 104/104/104 105/105/105 103/103/103
f 103/103/103 105/105/105 106/106/106
f 107/107/107 103/103/103 106/106/106
f 107/107/107 106/106/106 108/108/108
f 106/106/106 109/109/109 108/108/108
f 110/110/110 104/104/104 89/89/89
f 111/111/111 110/110/110 89/89/89
f 110/110/110 112/112/112 104/104/104
f 112/112/112 113/113/113 104/104/104
f 116/116/116 115/115/115 114/114/114
f 117/117/117 116/116/116 114/114/114
f 118/118/118 117/117/117 114/114/114
f 119/119/119 118/118/118 114/114/114
f 120/120/120 118/118/118 119/119/119
f 121/121/121 120/120/120 119/119/119
f 124/124/124 123/123/123 122/122/122
f 122/122/122 125/125/125 124/124/124
f 122/122/122 126/126/126 125/125/125
f 129/129/129 128/128/128 127/127/127
f 129/129/129 127/127/127 130/130/130
f 130/130/130 131/131/131 129/129/129
f 131/131/131 130/130/130 132/132/132
f 130/130/130 133/133/133 132/132/132
f 136/136/136 135/135/135 134/134/134
f 134/134/134 75/75/75 136/136/136
f 134/134/134 137/137/137 75/75/75
f 75/75/75 139/139/139 138/138/138
f 140/140/140 75/75/75 138/138/138
f 143/143/143 142/142/142 141/141/141
f 144/144/144 143/143/143 141/141/141
f 141/141/141 145/145/145 144/144/144
f 145/145/145 146/146/146 144/144/144
f 145/145/145 147/147/147 146/146/146
f 147/147/147 148/148/148 146/146/146
f 151/151/151 150/150/150 149/149/149
f 149/149/149 152/152/152 151/151/151
f 149/149/149 153/153/153 152/152/152
f 156/156/156 155/155/155 154/154/154
f 157/157/157 156/156/156 154/154/154
f 154/154/154 158/158/158 157/157/157
f 159/159/159 156/156/156 157/157/157
f 160/160/160 159/159/159 157/157/157
f 158/158/158 161/161/161 157/157/157
f 157/157/157 161/161/161 162/162/162
f 163/163/163 157/157/157 162/162/162
f 166/166/166 165/165/165 164/164/164
f 167/167/167 166/166/166 164/164/164
f 170/170/170 169/169/169 168/168/168
f 171/171/171 170/170/170 168/168/168
f 170/170/170 171/171/171 172/172/172
f 173/173/173 170/170/170 172/172/172
f 176/176/176 175/175/175 174/174/174
f 177/177/177 176/176/176 174/174/174
f 179/179/179 177/177/177 178/178/178
f 180/180/180 179/179/179 178/178/178
f 181/181/181 179/179/179 180/180/180
f 182/182/182 181/181/181 180/180/180
f 185/185/185 184/184/184 183/183/183
f 186/186/186 185/185/185 183/183/183
f 189/189/189 188/188/188 187/187/187
f 190/190/190 189/189/189 187/187/187
