g mdlQuarryDeposit
v 0.046735257 -0.053338364 4.287587E-08
v 0.053338364 -0.04673519 -2.594685E-07
v 0.053338293 0.046735253 7.2106666E-08
v 0.046735257 0.05333828 7.2972554E-08
v -0.046735328 -0.053338364 2.8762202E-08
v -0.046735328 0.053338278 7.991488E-09
v -0.05333829 -0.04673519 -2.7557618E-07
v -0.05333836 0.046735246 5.131546E-09
v 0.030134851 0.034392484 0.29202026
v -0.030134918 0.034392484 0.29202023
v -0.046735328 0.053338278 7.991488E-09
v 0.046735257 0.05333828 7.2972554E-08
v -0.03439255 0.03013485 0.29202023
v -0.03439255 -0.03013492 0.29202023
v -0.05333829 -0.04673519 -2.7557618E-07
v -0.05333836 0.046735246 5.131546E-09
v -0.030134918 -0.034392554 0.29202023
v 0.030134851 -0.034392554 0.29202023
v 0.046735257 -0.053338364 4.287587E-08
v -0.046735328 -0.053338364 2.8762202E-08
v 0.030134851 -0.034392554 0.29202023
v 0.034392484 -0.03013492 0.29202023
v 0.053338364 -0.04673519 -2.594685E-07
v 0.046735257 -0.053338364 4.287587E-08
v 0.046735257 0.05333828 7.2972554E-08
v 0.053338293 0.046735253 7.2106666E-08
v 0.034392484 0.03013485 0.29202026
v 0.030134851 0.034392484 0.29202026
v 0.034392484 -0.03013492 0.29202023
v 0.034392484 0.03013485 0.29202026
v 0.053338293 0.046735253 7.2106666E-08
v 0.053338364 -0.04673519 -2.594685E-07
v -0.05333836 0.046735246 5.131546E-09
v -0.046735328 0.053338278 7.991488E-09
v -0.030134918 0.034392484 0.29202023
v -0.03439255 0.03013485 0.29202023
v -0.046735328 -0.053338364 2.8762202E-08
v -0.05333829 -0.04673519 -2.7557618E-07
v -0.03439255 -0.03013492 0.29202023
v -0.030134918 -0.034392554 0.29202023
v 0.030134851 0.034392484 0.29202026
v 0.034392484 0.03013485 0.29202026
v 0.034392484 -0.03013492 0.29202023
v 0.030134851 -0.034392554 0.29202023
v -0.030134918 0.034392484 0.29202023
v -0.030134918 -0.034392554 0.29202023
v -0.03439255 0.03013485 0.29202023
v -0.03439255 -0.03013492 0.29202023
vt 0.5329825 0.00012397904
vt 0.46701494 0.0001241587
vt 0.00012397904 0.2335705
vt 0.00012397904 0.26655328
vt 0.999876 0.23357058
vt 0.46701744 0.49999988
vt 0.9998751 0.2665534
vt 0.532983 0.49999988
vt -1.1282461 0.17304936
vt -1.1282456 0.49008852
vt 2.1282458 0.4900887
vt 2.1282458 0.17304938
vt -1.1282461 0.09705842
vt -1.1282456 0.41409755
vt 2.1282454 0.41409755
vt 2.1282458 0.09705828
vt -1.1282461 0.13285741
vt -1.1282456 0.44989657
vt 2.1282458 0.4498966
vt 2.1282458 0.13285726
vt -1.2964189 0.8318662
vt -1.2964189 0.8565759
vt 2.2964191 0.8565761
vt 2.2964191 0.83186626
vt 2.2964191 0.85480404
vt 2.2964191 0.8300943
vt -1.2964194 0.8300943
vt -1.2964194 0.85480404
vt -1.1282461 0.075850606
vt -1.1282456 0.3928898
vt 2.1282458 0.39288992
vt 2.128246 0.075850576
vt 2.2964191 0.8551275
vt 2.2964191 0.83041775
vt -1.2964194 0.8304179
vt -1.2964194 0.8551277
vt 2.2964191 0.85389984
vt 2.2964191 0.8291901
vt -1.2964194 0.8291902
vt -1.2964194 0.85389996
vt 0.23273122 0.44899288
vt 0.28530845 0.4752815
vt 1.0295744 0.47528172
vt 1.0821517 0.4489931
vt 0.23273095 0.0768599
vt 1.0821519 0.0768599
vt 0.28530827 0.05057127
vt 1.0295746 0.05057127
vn 3.9125496E-07 2.2032836E-07 -1
vn 3.9125496E-07 2.2032836E-07 -1
vn 3.9125496E-07 2.2032836E-07 -1
vn 3.9125496E-07 2.2032836E-07 -1
vn 3.9125496E-07 2.2032836E-07 -1
vn 3.9125496E-07 2.2032836E-07 -1
vn 3.9125496E-07 2.2032836E-07 -1
vn 3.9125496E-07 2.2032836E-07 -1
vn -0 0.99790204 0.06474227
vn -0 0.99790204 0.06474227
vn -0 0.99790204 0.06474227
vn -0 0.99790204 0.06474227
vn -0.99790204 -6.104919E-07 0.06474214
vn -0.99790204 -6.104919E-07 0.06474214
vn -0.99790204 -6.104919E-07 0.06474214
vn -0.99790204 -6.104919E-07 0.06474214
vn -0 -0.99790204 0.06474232
vn -0 -0.99790204 0.06474232
vn -0 -0.99790204 0.06474232
vn -0 -0.99790204 0.06474232
vn 0.70450526 -0.7044987 0.085755475
vn 0.70450526 -0.7044987 0.085755475
vn 0.70450526 -0.7044987 0.085755475
vn 0.70450526 -0.7044987 0.085755475
vn 0.70450157 0.7045022 0.08575563
vn 0.70450157 0.7045022 0.08575563
vn 0.70450157 0.7045022 0.08575563
vn 0.70450157 0.7045022 0.08575563
vn 0.99790204 2.7132972E-07 0.06474239
vn 0.99790204 2.7132972E-07 0.06474239
vn 0.99790204 2.7132972E-07 0.06474239
vn 0.99790204 2.7132972E-07 0.06474239
vn -0.7045022 0.7045017 0.08575561
vn -0.7045022 0.7045017 0.08575561
vn -0.7045022 0.7045017 0.08575561
vn -0.7045022 0.7045017 0.08575561
vn -0.7045101 -0.70449376 0.08575537
vn -0.7045101 -0.70449376 0.08575537
vn -0.7045101 -0.70449376 0.08575537
vn -0.7045101 -0.70449376 0.08575537
vn -3.2499207E-07 -2.794324E-07 1
vn -3.2499207E-07 -2.794324E-07 1
vn -3.2499207E-07 -2.794324E-07 1
vn -3.2499207E-07 -2.794324E-07 1
vn -3.2499207E-07 -2.794324E-07 1
vn -3.2499207E-07 -2.794324E-07 1
vn -3.2499207E-07 -2.794324E-07 1
vn -3.2499207E-07 -2.794324E-07 1
g mdlQuarryDeposit_0
f 3/3/3 2/2/2 1/1/1
f 1/1/1 4/4/4 3/3/3
f 1/1/1 5/5/5 4/4/4
f 5/5/5 6/6/6 4/4/4
f 5/5/5 7/7/7 6/6/6
f 7/7/7 8/8/8 6/6/6
f 11/11/11 10/10/10 9/9/9
f 12/12/12 11/11/11 9/9/9
f 15/15/15 14/14/14 13/13/13
f 16/16/16 15/15/15 13/13/13
f 19/19/19 18/18/18 17/17/17
f 20/20/20 19/19/19 17/17/17
f 23/23/23 22/22/22 21/21/21
f 24/24/24 23/23/23 21/21/21
f 27/27/27 26/26/26 25/25/25
f 28/28/28 27/27/27 25/25/25
f 31/31/31 30/30/30 29/29/29
f 32/32/32 31/31/31 29/29/29
f 35/35/35 34/34/34 33/33/33
f 36/36/36 35/35/35 33/33/33
f 39/39/39 38/38/38 37/37/37
f 40/40/40 39/39/39 37/37/37
f 43/43/43 42/42/42 41/41/41
f 41/41/41 44/44/44 43/43/43
f 41/41/41 45/45/45 44/44/44
f 45/45/45 46/46/46 44/44/44
f 45/45/45 47/47/47 46/46/46
f 47/47/47 48/48/48 46/46/46
