g mdlSlowAttacksHighDamageGlow
v -0.19504875 0.981881 1.3422651
v 0.04093135 0.9933474 1.5664736
v -0.7695902 0.9980105 1.701717
v -0.83316565 0.988574 1.422718
v -1.0665137 0.7942275 0.39520913
v -0.89483356 0.7842957 0.12687786
v -0.9060681 1.1774862 0.13477324
v -1.0757107 1.1161071 0.4016725
v -0.9860513 0.9508761 1.4403257
v -0.956347 0.9519608 1.7232254
v -1.067878 0.88347507 1.7329186
v -1.0773546 0.8948113 1.4482605
v -0.19344044 0.9924402 1.266277
v 0.11793668 1.0266676 1.1087855
v 0.04093135 0.9933474 1.5664736
v -0.19504875 0.981881 1.3422651
v -0.18763518 0.80737305 1.3436503
v 0.049987383 0.78017795 1.5681659
v 0.13039976 0.80462265 1.1170558
v -0.18323761 0.8106662 1.2730474
v -1.0773546 0.8948113 1.4482605
v -1.067878 0.88347507 1.7329186
v -1.0595629 0.73447645 1.72903
v -1.0705476 0.77283585 1.4450774
v -0.6513258 1.1240122 0.82299083
v -0.3974524 1.1870414 0.63784075
v 0.11793668 1.0266676 1.1087855
v -0.19344044 0.9924402 1.266277
v -0.18763518 0.80737305 1.3436503
v 0.049987383 0.78017795 1.5681659
v -1.0595629 0.73447645 1.72903
v -1.0705476 0.77283585 1.4450774
v -0.9860513 0.9508761 1.4403257
v -0.956347 0.9519608 1.7232254
v -0.7695902 0.9980105 1.701717
v -0.83316565 0.988574 1.422718
v -1.0757107 1.1161071 0.4016725
v -0.9060681 1.1774862 0.13477324
v -0.3974524 1.1870414 0.63784075
v -0.6513258 1.1240122 0.82299083
v -0.18323761 0.8106662 1.2730474
v 0.13039976 0.80462265 1.1170558
v -0.89483356 0.7842957 0.12687786
v -1.0665137 0.7942275 0.39520913
v 1.2361376 1.122902 0.12191491
v 1.4110868 1.2097102 -0.49092108
v 1.6743338 1.238821 -0.38217908
v 1.4192257 1.1291566 0.3912236
v 0.45957848 0.9446 -0.906066
v 0.43079585 1.2645496 -0.8829023
v 0.13604859 1.2801704 -0.75382346
v 0.17120785 0.8893373 -0.7821191
v 1.4558241 1.1914846 -0.6418236
v 1.4838146 1.1471744 -0.73560876
v 1.7631745 1.1624309 -0.681076
v 1.7289828 1.216558 -0.5665136
v 1.1600819 1.1258086 0.11214976
v 1.2361376 1.122902 0.12191491
v 1.4192257 1.1291566 0.3912236
v 0.95436394 1.1090845 0.39557725
v 1.2561754 0.9496379 0.11253564
v 1.1858089 0.9455644 0.105682656
v 0.98579067 0.888908 0.38767746
v 1.4437029 0.9175067 0.37976658
v 1.4838146 1.1471744 -0.73560876
v 1.4934978 1.0254824 -0.74124426
v 1.775003 1.0137784 -0.6879601
v 1.7631745 1.1624309 -0.681076
v 0.7792791 1.2649759 -0.3968639
v 1.1600819 1.1258086 0.11214976
v 0.95436394 1.1090845 0.39557725
v 0.55184966 1.2805803 -0.17161436
v 1.2561754 0.9496379 0.11253564
v 1.4934978 1.0254824 -0.74124426
v 1.775003 1.0137784 -0.6879601
v 1.4437029 0.9175067 0.37976658
v 1.4558241 1.1914846 -0.6418236
v 1.4110868 1.2097102 -0.49092108
v 1.6743338 1.238821 -0.38217908
v 1.7289828 1.216558 -0.5665136
v 0.43079585 1.2645496 -0.8829023
v 0.7792791 1.2649759 -0.3968639
v 0.55184966 1.2805803 -0.17161436
v 0.13604859 1.2801704 -0.75382346
v 1.1858089 0.9455644 0.105682656
v 0.45957848 0.9446 -0.906066
v 0.17120785 0.8893373 -0.7821191
v 0.98579067 0.888908 0.38767746
vt 0.7450383 0.00060003996
vt 0.7450388 1.0006001
vt 0.8873273 1.0006001
vt 0.88732696 0.00059974194
vt 0.35891658 0.000600338
vt 0.3589173 1.0006003
vt 0.43471178 1.0006003
vt 0.43471122 0.0006002188
vt 0.91975117 0.00059974194
vt 0.9197515 1.0005996
vt 0.94794667 1.0005996
vt 0.9479461 0.00059974194
vt 0.7092936 0.00060003996
vt 0.7092943 1.0006
vt 0.7450388 1.0006001
vt 0.7450383 0.00060003996
vt 0.051155746 0.0006006062
vt 0.051156014 1.0006008
vt 0.08557162 1.0006008
vt 0.08557099 0.0006006062
vt 0.9479461 0.00059974194
vt 0.94794667 1.0005996
vt 0.9800174 1.0005996
vt 0.98001707 0.0005995035
vt 0.570454 0.0006002188
vt 0.5704544 1.0006001
vt 0.7092943 1.0006
vt 0.7092936 0.00060003996
vt 0.051155746 0.0006006062
vt 0.051156014 1.0006008
vt 0.01873216 1.0006008
vt 0.018731713 0.000600785
vt 0.91975117 0.00059974194
vt 0.9197515 1.0005996
vt 0.8873273 1.0006001
vt 0.88732696 0.00059974194
vt 0.43471122 0.0006002188
vt 0.43471178 1.0006003
vt 0.5704544 1.0006001
vt 0.570454 0.0006002188
vt 0.08557099 0.0006006062
vt 0.08557162 1.0006008
vt 0.3589173 1.0006003
vt 0.35891658 0.000600338
vt 0.7450383 0.00060003996
vt 0.88732696 0.00059974194
vt 0.8873273 1.0006001
vt 0.7450388 1.0006001
vt 0.35891658 0.000600338
vt 0.43471122 0.0006002188
vt 0.43471178 1.0006003
vt 0.3589173 1.0006003
vt 0.91975117 0.00059974194
vt 0.9479461 0.00059974194
vt 0.94794667 1.0005996
vt 0.9197515 1.0005996
vt 0.7092936 0.00060003996
vt 0.7450383 0.00060003996
vt 0.7450388 1.0006001
vt 0.7092943 1.0006
vt 0.051155746 0.0006006062
vt 0.08557099 0.0006006062
vt 0.08557162 1.0006008
vt 0.051156014 1.0006008
vt 0.9479461 0.00059974194
vt 0.98001707 0.0005995035
vt 0.9800174 1.0005996
vt 0.94794667 1.0005996
vt 0.570454 0.0006002188
vt 0.7092936 0.00060003996
vt 0.7092943 1.0006
vt 0.5704544 1.0006001
vt 0.051155746 0.0006006062
vt 0.018731713 0.000600785
vt 0.01873216 1.0006008
vt 0.051156014 1.0006008
vt 0.91975117 0.00059974194
vt 0.88732696 0.00059974194
vt 0.8873273 1.0006001
vt 0.9197515 1.0005996
vt 0.43471122 0.0006002188
vt 0.570454 0.0006002188
vt 0.5704544 1.0006001
vt 0.43471178 1.0006003
vt 0.08557099 0.0006006062
vt 0.35891658 0.000600338
vt 0.3589173 1.0006003
vt 0.08557162 1.0006008
vn 0.0015180897 0.9990994 -0.04240557
vn 0.0015180896 0.9990994 -0.042405568
vn 0.0015180896 0.9990994 -0.042405568
vn 0.0015180897 0.9990994 -0.04240557
vn -0.84249395 -0.013258377 -0.5385425
vn -0.84249395 -0.013258377 -0.5385425
vn -0.84249395 -0.013258375 -0.5385425
vn -0.84249395 -0.013258377 -0.5385425
vn -0.51934606 0.8530252 0.051260408
vn -0.519346 0.8530252 0.051260404
vn -0.51934606 0.8530252 0.051260404
vn -0.519346 0.8530252 0.051260404
vn -0.09125504 0.9934864 0.06824304
vn -0.09125503 0.9934864 0.068243034
vn -0.09125504 0.9934864 0.06824304
vn -0.09125504 0.9934864 0.068243034
vn -0.052451298 -0.99672675 -0.06151938
vn -0.0524513 -0.99672675 -0.061519377
vn -0.0524513 -0.99672675 -0.061519377
vn -0.052451298 -0.99672675 -0.06151937
vn -0.99792224 -0.056498636 0.030971905
vn -0.99792224 -0.056498636 0.030971903
vn -0.99792224 -0.05649864 0.030971907
vn -0.99792224 -0.05649863 0.030971905
vn 0.012504678 0.9563145 0.2920724
vn 0.012504677 0.9563145 0.29207236
vn 0.012504677 0.9563145 0.29207236
vn 0.012504677 0.9563145 0.2920724
vn -0.021674797 0.9901596 0.13825434
vn -0.021674799 0.9901596 0.13825434
vn -0.021674799 0.9901596 0.13825436
vn -0.021674799 0.9901596 0.13825436
vn 0.23705304 -0.97126615 -0.02116645
vn 0.23705305 -0.97126615 -0.02116645
vn 0.23705307 -0.97126615 -0.021166451
vn 0.23705305 -0.97126615 -0.021166453
vn -0.14813012 0.9802539 0.13099499
vn -0.1481301 0.9802539 0.13099498
vn -0.1481301 0.9802539 0.13099499
vn -0.1481301 0.9802539 0.13099498
vn -0.008293825 -0.99956936 0.028146815
vn -0.008293824 -0.99956936 0.028146809
vn -0.008293825 -0.99956936 0.02814681
vn -0.008293825 -0.99956936 0.028146813
vn -0.155234 0.98365384 0.09125525
vn -0.15523401 0.98365384 0.091255255
vn -0.15523401 0.98365384 0.09125526
vn -0.15523401 0.98365384 0.09125526
vn -0.39961314 0.03038057 -0.9161804
vn -0.3996131 0.030380573 -0.9161804
vn -0.3996131 0.030380573 -0.91618025
vn -0.39961314 0.030380579 -0.9161804
vn 0.0322523 0.9073765 -0.41907948
vn 0.032252297 0.9073765 -0.41907948
vn 0.032252297 0.90737665 -0.41907945
vn 0.0322523 0.9073765 -0.41907948
vn -0.03188935 0.99933594 0.017623141
vn -0.031889345 0.99933594 0.017623141
vn -0.03188935 0.99933594 0.017623141
vn -0.03188935 0.99933594 0.017623141
vn 0.060638513 -0.9855834 -0.15794985
vn 0.06063851 -0.9855834 -0.15794985
vn 0.06063851 -0.9855834 -0.15794984
vn 0.060638513 -0.9855834 -0.15794986
vn 0.188064 0.060362056 -0.9803002
vn 0.18806396 0.060362056 -0.9803002
vn 0.18806396 0.060362052 -0.9803002
vn 0.18806398 0.060362052 -0.9803002
vn 0.17638403 0.97246224 0.1523348
vn 0.17638403 0.97246224 0.15233481
vn 0.17638405 0.97246224 0.1523348
vn 0.17638403 0.97246224 0.1523348
vn 0.026687732 0.9949249 0.0970166
vn 0.026687732 0.9949249 0.09701661
vn 0.026687734 0.9949249 0.09701661
vn 0.026687734 0.9949249 0.09701661
vn 0.053496417 -0.98935246 0.13535027
vn 0.053496417 -0.98935246 0.13535026
vn 0.05349642 -0.98935246 0.13535027
vn 0.053496417 -0.98935246 0.13535026
vn 0.03984873 0.99877626 -0.029291784
vn 0.03984873 0.99877626 -0.02929178
vn 0.039848734 0.99877626 -0.029291783
vn 0.039848734 0.99877626 -0.029291784
vn 0.142314 -0.98472935 -0.100274034
vn 0.142314 -0.98472935 -0.10027403
vn 0.142314 -0.98472935 -0.100274034
vn 0.142314 -0.98472935 -0.100274034
g mdlSlowAttacksHighDamageGlow_0
f 3/3/3 2/2/2 1/1/1
f 4/4/4 3/3/3 1/1/1
f 7/7/7 6/6/6 5/5/5
f 8/8/8 7/7/7 5/5/5
f 11/11/11 10/10/10 9/9/9
f 12/12/12 11/11/11 9/9/9
f 15/15/15 14/14/14 13/13/13
f 16/16/16 15/15/15 13/13/13
f 19/19/19 18/18/18 17/17/17
f 20/20/20 19/19/19 17/17/17
f 23/23/23 22/22/22 21/21/21
f 24/24/24 23/23/23 21/21/21
f 27/27/27 26/26/26 25/25/25
f 28/28/28 27/27/27 25/25/25
f 31/31/31 30/30/30 29/29/29
f 32/32/32 31/31/31 29/29/29
f 35/35/35 34/34/34 33/33/33
f 36/36/36 35/35/35 33/33/33
f 39/39/39 38/38/38 37/37/37
f 40/40/40 39/39/39 37/37/37
f 43/43/43 42/42/42 41/41/41
f 44/44/44 43/43/43 41/41/41
f 47/47/47 46/46/46 45/45/45
f 48/48/48 47/47/47 45/45/45
f 51/51/51 50/50/50 49/49/49
f 52/52/52 51/51/51 49/49/49
f 55/55/55 54/54/54 53/53/53
f 56/56/56 55/55/55 53/53/53
f 59/59/59 58/58/58 57/57/57
f 60/60/60 59/59/59 57/57/57
f 63/63/63 62/62/62 61/61/61
f 64/64/64 63/63/63 61/61/61
f 67/67/67 66/66/66 65/65/65
f 68/68/68 67/67/67 65/65/65
f 71/71/71 70/70/70 69/69/69
f 72/72/72 71/71/71 69/69/69
f 75/75/75 74/74/74 73/73/73
f 76/76/76 75/75/75 73/73/73
f 79/79/79 78/78/78 77/77/77
f 80/80/80 79/79/79 77/77/77
f 83/83/83 82/82/82 81/81/81
f 84/84/84 83/83/83 81/81/81
f 87/87/87 86/86/86 85/85/85
f 88/88/88 87/87/87 85/85/85
