g mdlTallMoonPotLid
v 0.521002 0.11884164 0.061935607
v 0.521002 -0.11896698 0.061935607
v 0.60518026 -0.13881636 0.035305858
v 0.60518026 0.13737565 0.035305858
v 0.4178206 0.33309978 0.061935607
v 0.6063571 -0.13844875 0.18182808
v 0.48534495 0.38621604 0.035305858
v 0.23189428 0.48137102 0.061935607
v 0.6063571 0.1383234 0.18182808
v 0.5099729 -0.11644975 0.2285275
v 0.5099729 0.11632439 0.2285275
v 0.48627013 0.3876865 0.18182808
v 0.4089759 0.32604662 0.2285275
v 0.26940924 0.55841887 0.035305858
v 4.8353817E-05 0.5342882 0.061935607
v 0.26988083 0.560251 0.18182808
v 0.22698566 0.4711789 0.2285275
v 0.00014232969 0.6198773 0.035305858
v -0.23179781 0.48137087 0.061935607
v 4.8368354E-05 0.62183845 0.18182808
v 4.80083E-05 0.5229759 0.2285275
v -0.26912487 0.55841875 0.035305858
v -0.417724 0.33309966 0.061935607
v -0.2697844 0.5602508 0.18182808
v -0.2268899 0.47117874 0.2285275
v -0.4850604 0.38621596 0.035305858
v -0.52090526 0.11884155 0.061935607
v -0.4861735 0.3876863 0.18182808
v -0.40888 0.32604647 0.2285275
v -0.6048956 0.13737556 0.035305858
v -0.52090526 -0.11896695 0.061935607
v -0.6062603 0.13832329 0.18182808
v -0.5098768 0.1163243 0.2285275
v -0.597854 -0.14046556 0.041552946
v -0.417724 -0.33322504 0.061935607
v -0.6062603 -0.1384487 0.18182808
v -0.5098768 -0.11644971 0.2285275
v -0.4850604 -0.3876566 0.035305858
v -0.23179786 -0.4814962 0.061935607
v -0.4861735 -0.38781163 0.18182808
v -0.40888 -0.32617185 0.2285275
v -0.26912493 -0.55985945 0.035305858
v 4.8273127E-05 -0.5344136 0.061935607
v -0.26978445 -0.56037617 0.18182808
v -0.22688994 -0.47130403 0.2285275
v 0.00014223583 -0.6213179 0.035305858
v 0.23189442 -0.48149624 0.061935607
v 4.827445E-05 -0.62196374 0.18182808
v 4.7929323E-05 -0.5231011 0.2285275
v 0.26940942 -0.5598595 0.035305858
v 0.4178206 -0.33322516 0.061935607
v 0.269881 -0.56037617 0.18182808
v 0.22698581 -0.47130403 0.2285275
v 0.48534495 -0.38765678 0.035305858
v 0.521002 -0.11896698 0.061935607
v 0.60518026 -0.13881636 0.035305858
v 0.48627013 -0.3878118 0.18182808
v 0.4089759 -0.326172 0.2285275
v 0.6063571 -0.13844875 0.18182808
v 0.5099729 -0.11644975 0.2285275
v 0.521002 0.11884164 0.061935607
v 0.26050088 -0.05948349 -0.050092325
v 0.521002 -0.11896698 0.061935607
v 0.2605009 0.059420817 -0.05009232
v 0.4178206 0.33309978 0.061935607
v 0.2089102 0.16654989 -0.050092325
v 0.23189428 0.48137102 0.061935607
v 0.115947045 0.24068551 -0.050092325
v 4.8353817E-05 0.5342882 0.061935607
v 2.4075794E-05 0.2671441 -0.050092325
v -0.23179781 0.48137087 0.061935607
v -0.115899004 0.24068543 -0.050092325
v -0.417724 0.33309966 0.061935607
v -0.20886211 0.16654983 -0.050092325
v -0.52090526 0.11884155 0.061935607
v -0.26045275 0.059420776 -0.050092325
v -0.52090526 -0.11896695 0.061935607
v -0.26045272 -0.05948348 -0.05009232
v -0.417724 -0.33322504 0.061935607
v -0.20886211 -0.16661252 -0.050092325
v -0.23179786 -0.4814962 0.061935607
v -0.11589903 -0.2407481 -0.050092325
v 4.8273127E-05 -0.5344136 0.061935607
v 2.403545E-05 -0.2672068 -0.050092325
v 0.23189442 -0.48149624 0.061935607
v 0.11594711 -0.24074812 -0.050092325
v 0.4178206 -0.33322516 0.061935607
v 0.2089102 -0.16661258 -0.050092325
v 0.521002 -0.11896698 0.061935607
v 0.26050088 -0.05948349 -0.050092325
v 2.4075794E-05 0.2671441 -0.050092325
v -2.0223005E-07 -4.257475E-09 -0.05009213
v 0.115947045 0.24068551 -0.050092325
v -0.115899004 0.24068543 -0.050092325
v 0.2089102 0.16654989 -0.050092325
v -0.20886211 0.16654983 -0.050092325
v 0.2605009 0.059420817 -0.05009232
v -0.26045275 0.059420776 -0.050092325
v 0.26050088 -0.05948349 -0.050092325
v -0.26045272 -0.05948348 -0.05009232
v 0.2089102 -0.16661258 -0.050092325
v -0.20886211 -0.16661252 -0.050092325
v 0.11594711 -0.24074812 -0.050092325
v -0.11589903 -0.2407481 -0.050092325
v 2.403545E-05 -0.2672068 -0.050092325
v 0.4089759 0.32604662 0.2285275
v 0.5099729 0.11632439 0.2285275
v 4.8158425E-05 -6.2675885E-05 0.2285275
v 0.22698566 0.4711789 0.2285275
v 0.5099729 -0.11644975 0.2285275
v 4.80083E-05 0.5229759 0.2285275
v 0.4089759 -0.326172 0.2285275
v -0.2268899 0.47117874 0.2285275
v 0.22698581 -0.47130403 0.2285275
v -0.40888 0.32604647 0.2285275
v 4.7929323E-05 -0.5231011 0.2285275
v -0.5098768 0.1163243 0.2285275
v -0.22688994 -0.47130403 0.2285275
v -0.5098768 -0.11644971 0.2285275
v -0.40888 -0.32617185 0.2285275
vt 0.073061675 0.7524462
vt 0.0016487539 0.7524462
vt 0.0016487539 0.7745578
vt 0.073061675 0.7745578
vt 0.14447469 0.7524462
vt 0.0016487539 0.8105714
vt 0.14447469 0.7745578
vt 0.21588755 0.7524462
vt 0.073061675 0.8105714
vt 0.0016487539 0.83752275
vt 0.073061675 0.83752275
vt 0.14447469 0.8105714
vt 0.14447469 0.83752275
vt 0.21588755 0.7745578
vt 0.2873004 0.7524462
vt 0.21588755 0.8105714
vt 0.21588755 0.83752275
vt 0.2873004 0.7745578
vt 0.3587132 0.7524462
vt 0.2873004 0.8105714
vt 0.2873004 0.83752275
vt 0.3587132 0.7745578
vt 0.4301262 0.7524462
vt 0.3587132 0.8105714
vt 0.3587132 0.83752275
vt 0.4301262 0.7745578
vt 0.5015392 0.7524462
vt 0.4301262 0.8105714
vt 0.4301262 0.83752275
vt 0.5015392 0.7745578
vt 0.57306504 0.7524462
vt 0.5015392 0.8105714
vt 0.50153923 0.83752275
vt 0.57306516 0.7745578
vt 0.64420235 0.7524462
vt 0.57306516 0.8105714
vt 0.57306516 0.8375226
vt 0.64420235 0.7745578
vt 0.71561515 0.7524461
vt 0.64420235 0.8105714
vt 0.64420235 0.8375226
vt 0.71561515 0.77455777
vt 0.78702813 0.7524461
vt 0.71561515 0.8105714
vt 0.71561515 0.8375226
vt 0.78702813 0.77455777
vt 0.85844105 0.7524461
vt 0.78702813 0.8105713
vt 0.78702813 0.8375226
vt 0.85844105 0.77455777
vt 0.9298539 0.7524461
vt 0.85844105 0.8105713
vt 0.8584412 0.8375226
vt 0.9298539 0.77455777
vt 1.0012668 0.7524461
vt 1.0012668 0.77455777
vt 0.9298539 0.8105713
vt 0.9298539 0.8375226
vt 1.0012668 0.8105713
vt 1.001267 0.8375226
vt 0.073061675 0.7524462
vt 0.0016487539 0.68103325
vt 0.0016487539 0.7524462
vt 0.073061675 0.68103325
vt 0.14447469 0.7524462
vt 0.14447469 0.68103325
vt 0.21588755 0.7524462
vt 0.21588755 0.68103325
vt 0.2873004 0.7524462
vt 0.2873004 0.68103313
vt 0.3587132 0.7524462
vt 0.3587132 0.68103313
vt 0.4301262 0.7524462
vt 0.43012616 0.68103313
vt 0.5015392 0.7524462
vt 0.5015392 0.68103313
vt 0.57306504 0.7524462
vt 0.57306504 0.68103313
vt 0.64420235 0.7524462
vt 0.64420223 0.68103313
vt 0.71561515 0.7524461
vt 0.71561515 0.68103313
vt 0.78702813 0.7524461
vt 0.787028 0.68103313
vt 0.85844105 0.7524461
vt 0.85844105 0.68103313
vt 0.9298539 0.7524461
vt 0.9298538 0.68103313
vt 1.0012668 0.7524461
vt 1.0012668 0.68103313
vt 0.36126253 0.95171684
vt 0.3912084 0.9206324
vt 0.3372495 0.9421419
vt 0.39120632 0.95513403
vt 0.3239232 0.92830575
vt 0.42115015 0.9517168
vt 0.32392317 0.9129488
vt 0.4451632 0.9421419
vt 0.33724946 0.8991128
vt 0.45848942 0.92830575
vt 0.3612625 0.8895379
vt 0.45848942 0.9129488
vt 0.39120632 0.8861207
vt 0.4451632 0.89911276
vt 0.4211501 0.8895379
vt 0.918919 0.9846658
vt 0.95280385 0.9711547
vt 0.8766655 0.9407955
vt 0.8766653 0.9894879
vt 0.9716085 0.9516306
vt 0.83441174 0.9846658
vt 0.9716085 0.92996037
vt 0.800527 0.9711547
vt 0.95280385 0.91043633
vt 0.7817223 0.95163053
vt 0.9189191 0.8969252
vt 0.78172237 0.92996037
vt 0.8766654 0.8921031
vt 0.80052704 0.9104363
vt 0.83441174 0.89692515
vn -0.28770706 -0.06606095 -0.95543736
vn -0.28698212 0.06513535 -0.95571893
vn 0.63970816 -0.14636377 -0.75455356
vn 0.63883626 0.14543298 -0.7554716
vn -0.2312738 -0.18486199 -0.9551641
vn 0.8441984 -0.19229753 0.5003506
vn 0.51163995 0.40761378 -0.7563568
vn -0.12856126 -0.2674598 -0.9549541
vn 0.84450835 0.19316486 0.4994926
vn 0.4164036 -0.09504147 0.90419865
vn 0.41640353 0.095041454 0.90419865
vn 0.6774703 0.5407086 0.4986664
vn 0.3339296 0.26630035 0.9041985
vn 0.28367347 0.58858335 -0.75703305
vn 5.520745E-05 -0.29708752 -0.95485026
vn 0.376043 0.7813783 0.49803585
vn 0.18531695 0.38481545 0.90419835
vn 5.1726412E-05 0.6529908 -0.7573658
vn 0.12876202 -0.26764843 -0.9548742
vn -5.6964804E-05 0.8673346 0.4977255
vn -0 0.42711338 0.90419805
vn -0.28346047 0.58835644 -0.7572891
vn 0.23167709 -0.18509708 -0.95502084
vn -0.37619507 0.7814574 0.49779668
vn -0.18531807 0.38481638 0.90419775
vn -0.511182 0.40733182 -0.75681823
vn 0.27733755 -0.070034735 -0.95821655
vn -0.6777085 0.5408074 0.49823532
vn -0.33393154 0.2663012 0.9041976
vn -0.6391364 0.13571674 -0.7570242
vn 0.26421624 0.058484696 -0.96268857
vn -0.8487701 0.18994075 0.4934691
vn -0.41640595 0.09504177 0.90419745
vn -0.6387197 -0.1483444 -0.7550039
vn 0.21702395 0.18160188 -0.95912534
vn -0.85009265 -0.19246712 0.49020284
vn -0.416406 -0.0950418 0.90419745
vn -0.5183075 -0.4023624 -0.7546269
vn 0.12745197 0.26416865 -0.95601827
vn -0.6810815 -0.5384688 0.49616483
vn -0.33393154 -0.2663012 0.9041976
vn -0.2850345 -0.59235716 -0.7535704
vn 5.3676664E-05 0.29297966 -0.9561187
vn -0.37563747 -0.779503 0.50127006
vn -0.18531793 -0.38481605 0.904198
vn 5.2574378E-05 -0.65774715 -0.75323886
vn -0.12725495 0.2639836 -0.95609564
vn -5.681818E-05 -0.86511075 0.50158083
vn -0 -0.42711312 0.9041982
vn 0.28524655 -0.59257984 -0.75331503
vn -0.22964467 0.18280166 -0.9559534
vn 0.37548473 -0.77942234 0.5015097
vn 0.18531694 -0.38481545 0.90419835
vn 0.5135999 -0.40990818 -0.75378406
vn -0.28698212 0.06513535 -0.95571893
vn 0.63970816 -0.14636377 -0.75455356
vn 0.6767739 -0.5393565 0.5010705
vn 0.33392963 -0.2663004 0.9041985
vn 0.8441984 -0.19229753 0.5003506
vn 0.4164036 -0.09504147 0.90419865
vn 0.3769735 0.08603591 -0.92221946
vn 0.3769568 -0.086031966 -0.92222667
vn 0.3769546 -0.0860416 -0.92222667
vn 0.37697032 0.0860497 -0.92221946
vn 0.30232877 0.24109128 -0.9222106
vn 0.30231902 0.24110343 -0.9222106
vn 0.16779178 0.34841052 -0.92220175
vn 0.16777924 0.34841657 -0.92220175
vn -0 0.38672596 -0.9221947
vn -0 0.38672593 -0.9221947
vn -0.1677969 0.34843686 -0.9221909
vn -0.16779982 0.34843546 -0.9221909
vn -0.30236235 0.24112402 -0.92219096
vn -0.30236006 0.24112691 -0.92219096
vn -0.37702996 0.08605055 -0.9221951
vn -0.37702778 0.08606019 -0.9221951
vn -0.377011 -0.08605616 -0.9222022
vn -0.37701422 -0.08604239 -0.9222022
vn -0.3023199 -0.24110015 -0.92221117
vn -0.30232963 -0.24108794 -0.92221117
vn -0.16776286 -0.3483761 -0.92222
vn -0.16777539 -0.34837002 -0.92222
vn -0 -0.3866488 -0.92222697
vn -0 -0.3866488 -0.92222697
vn 0.1677578 -0.3483498 -0.92223084
vn 0.16775484 -0.34835118 -0.92223084
vn 0.30228627 -0.24106728 -0.9222307
vn 0.3022886 -0.24106438 -0.9222307
vn 0.3769546 -0.0860416 -0.92222667
vn 0.3769568 -0.086031966 -0.92222667
vn -0 0 -1
vn -0 0 -1
vn -0 0 -1
vn -0 0 -1
vn -0 0 -1
vn -0 0 -1
vn -0 0 -1
vn -0 0 -1
vn -0 0 -1
vn -0 0 -1
vn -0 0 -1
vn -0 0 -1
vn -0 0 -1
vn -0 0 -1
vn -0 0 -1
vn -0 0 1
vn -0 0 1
vn -0 0 1
vn -0 0 1
vn -0 0 1
vn -0 0 1
vn -0 0 1
vn -0 0 1
vn -0 0 1
vn -0 0 1
vn -0 0 1
vn -0 0 1
vn -0 0 1
vn -0 0 1
vn -0 0 1
g mdlTallMoonPotLid_0
f 3/3/3 2/2/2 1/1/1
f 4/4/4 3/3/3 1/1/1
f 4/4/4 1/1/1 5/5/5
f 6/6/6 3/3/3 4/4/4
f 7/7/7 4/4/4 5/5/5
f 7/7/7 5/5/5 8/8/8
f 9/9/9 6/6/6 4/4/4
f 9/9/9 4/4/4 7/7/7
f 10/10/10 6/6/6 9/9/9
f 11/11/11 10/10/10 9/9/9
f 11/11/11 9/9/9 12/12/12
f 12/12/12 9/9/9 7/7/7
f 13/13/13 11/11/11 12/12/12
f 14/14/14 7/7/7 8/8/8
f 12/12/12 7/7/7 14/14/14
f 14/14/14 8/8/8 15/15/15
f 13/13/13 12/12/12 16/16/16
f 16/16/16 12/12/12 14/14/14
f 17/17/17 13/13/13 16/16/16
f 18/18/18 14/14/14 15/15/15
f 16/16/16 14/14/14 18/18/18
f 18/18/18 15/15/15 19/19/19
f 17/17/17 16/16/16 20/20/20
f 20/20/20 16/16/16 18/18/18
f 21/21/21 17/17/17 20/20/20
f 22/22/22 18/18/18 19/19/19
f 20/20/20 18/18/18 22/22/22
f 22/22/22 19/19/19 23/23/23
f 21/21/21 20/20/20 24/24/24
f 24/24/24 20/20/20 22/22/22
f 25/25/25 21/21/21 24/24/24
f 26/26/26 22/22/22 23/23/23
f 24/24/24 22/22/22 26/26/26
f 26/26/26 23/23/23 27/27/27
f 25/25/25 24/24/24 28/28/28
f 28/28/28 24/24/24 26/26/26
f 29/29/29 25/25/25 28/28/28
f 30/30/30 26/26/26 27/27/27
f 28/28/28 26/26/26 30/30/30
f 30/30/30 27/27/27 31/31/31
f 29/29/29 28/28/28 32/32/32
f 32/32/32 28/28/28 30/30/30
f 33/33/33 29/29/29 32/32/32
f 34/34/34 30/30/30 31/31/31
f 32/32/32 30/30/30 34/34/34
f 34/34/34 31/31/31 35/35/35
f 33/33/33 32/32/32 36/36/36
f 36/36/36 32/32/32 34/34/34
f 37/37/37 33/33/33 36/36/36
f 38/38/38 34/34/34 35/35/35
f 36/36/36 34/34/34 38/38/38
f 38/38/38 35/35/35 39/39/39
f 37/37/37 36/36/36 40/40/40
f 40/40/40 36/36/36 38/38/38
f 41/41/41 37/37/37 40/40/40
f 42/42/42 38/38/38 39/39/39
f 40/40/40 38/38/38 42/42/42
f 42/42/42 39/39/39 43/43/43
f 41/41/41 40/40/40 44/44/44
f 44/44/44 40/40/40 42/42/42
f 45/45/45 41/41/41 44/44/44
f 46/46/46 42/42/42 43/43/43
f 44/44/44 42/42/42 46/46/46
f 46/46/46 43/43/43 47/47/47
f 45/45/45 44/44/44 48/48/48
f 48/48/48 44/44/44 46/46/46
f 49/49/49 45/45/45 48/48/48
f 50/50/50 46/46/46 47/47/47
f 48/48/48 46/46/46 50/50/50
f 50/50/50 47/47/47 51/51/51
f 49/49/49 48/48/48 52/52/52
f 52/52/52 48/48/48 50/50/50
f 53/53/53 49/49/49 52/52/52
f 54/54/54 50/50/50 51/51/51
f 52/52/52 50/50/50 54/54/54
f 54/54/54 51/51/51 55/55/55
f 56/56/56 54/54/54 55/55/55
f 53/53/53 52/52/52 57/57/57
f 57/57/57 52/52/52 54/54/54
f 57/57/57 54/54/54 56/56/56
f 58/58/58 53/53/53 57/57/57
f 59/59/59 57/57/57 56/56/56
f 58/58/58 57/57/57 59/59/59
f 60/60/60 58/58/58 59/59/59
f 63/63/63 62/62/62 61/61/61
f 62/62/62 64/64/64 61/61/61
f 61/61/61 64/64/64 65/65/65
f 64/64/64 66/66/66 65/65/65
f 65/65/65 66/66/66 67/67/67
f 66/66/66 68/68/68 67/67/67
f 67/67/67 68/68/68 69/69/69
f 68/68/68 70/70/70 69/69/69
f 69/69/69 70/70/70 71/71/71
f 70/70/70 72/72/72 71/71/71
f 71/71/71 72/72/72 73/73/73
f 72/72/72 74/74/74 73/73/73
f 73/73/73 74/74/74 75/75/75
f 74/74/74 76/76/76 75/75/75
f 75/75/75 76/76/76 77/77/77
f 76/76/76 78/78/78 77/77/77
f 77/77/77 78/78/78 79/79/79
f 78/78/78 80/80/80 79/79/79
f 79/79/79 80/80/80 81/81/81
f 80/80/80 82/82/82 81/81/81
f 81/81/81 82/82/82 83/83/83
f 82/82/82 84/84/84 83/83/83
f 83/83/83 84/84/84 85/85/85
f 84/84/84 86/86/86 85/85/85
f 85/85/85 86/86/86 87/87/87
f 86/86/86 88/88/88 87/87/87
f 87/87/87 88/88/88 89/89/89
f 88/88/88 90/90/90 89/89/89
f 93/93/93 92/92/92 91/91/91
f 91/91/91 92/92/92 94/94/94
f 95/95/95 92/92/92 93/93/93
f 94/94/94 92/92/92 96/96/96
f 97/97/97 92/92/92 95/95/95
f 96/96/96 92/92/92 98/98/98
f 99/99/99 92/92/92 97/97/97
f 98/98/98 92/92/92 100/100/100
f 101/101/101 92/92/92 99/99/99
f 100/100/100 92/92/92 102/102/102
f 103/103/103 92/92/92 101/101/101
f 102/102/102 92/92/92 104/104/104
f 105/105/105 92/92/92 103/103/103
f 104/104/104 92/92/92 105/105/105
f 108/108/108 107/107/107 106/106/106
f 108/108/108 106/106/106 109/109/109
f 108/108/108 110/110/110 107/107/107
f 108/108/108 109/109/109 111/111/111
f 108/108/108 112/112/112 110/110/110
f 108/108/108 111/111/111 113/113/113
f 108/108/108 114/114/114 112/112/112
f 108/108/108 113/113/113 115/115/115
f 108/108/108 116/116/116 114/114/114
f 108/108/108 115/115/115 117/117/117
f 108/108/108 118/118/118 116/116/116
f 108/108/108 117/117/117 119/119/119
f 108/108/108 120/120/120 118/118/118
f 108/108/108 119/119/119 120/120/120
