g mdlUnfinished_Golem_Stone1
v -0.018281937 -0.291646 -0.7369747
v 0.25173855 -0.3671465 -0.64973545
v 0.08415127 -0.25733185 -0.75263786
v 0.082696915 -0.41062093 -0.58873844
v -0.286767 -0.16004372 -0.49836826
v 0.40266228 -0.42145753 -0.5413351
v -0.2718954 -0.25951195 -0.36523438
v -0.46118283 0.033129692 -0.48431873
v 0.16432571 -0.48783422 -0.44290733
v 0.47692776 -0.52587533 -0.26134586
v -0.53400064 -0.028066635 -0.24868774
v -0.5011275 0.08144188 -0.46820164
v -0.2207346 -0.3569622 -0.17449093
v -0.14713383 -0.39481544 0.017971277
v 0.25464344 -0.5612767 -0.24116611
v -0.56671643 0.023202896 -0.22995186
v -0.45727277 0.18876481 -0.46639347
v -0.51739335 -0.18626595 0.0647881
v -0.55527616 -0.13408756 0.09066105
v -0.47536206 0.18437696 -0.20230103
v -0.3658266 0.34824872 -0.4287653
v -0.53586316 -0.14010715 0.19480824
v -0.44164777 0.08576107 0.07585454
v -0.30488873 0.38387322 -0.17352962
v -0.16026497 0.48087788 -0.17812061
v -0.27289867 0.44371605 -0.39509106
v -0.06947327 0.48290157 0.06107068
v -0.24740124 0.34385324 0.08892727
v -0.526665 -0.18626976 0.18338704
v -0.41778398 0.05407238 0.22234845
v -0.21006298 0.27539563 0.2572112
v -0.12776661 0.40991402 0.15800214
v -0.048477173 0.45955753 0.13922024
v -0.036467552 0.3854754 0.19822049
v -0.08708382 0.37418675 0.22015119
v -0.028644562 0.419322 0.23254132
v -0.07791233 0.39662862 0.27160954
v -0.0016965866 0.44401455 0.27684522
v 0.05706978 0.3923447 0.44011426
v -0.51470876 -0.15102196 0.25319242
v -0.030885696 0.3576119 0.4254048
v -0.39539838 0.03271389 0.30966902
v 0.013807297 0.27222753 0.5416961
v 0.07444668 0.3113606 0.4887631
v -0.08574772 0.11851239 0.56751204
v -0.18403149 0.23424459 0.39220572
v -0.20341396 -0.10554123 0.5243888
v -0.3090906 -0.22982597 0.4383347
v -0.51002526 -0.19325447 0.2354157
v -0.30867386 -0.31543732 0.25832486
v -0.3242073 -0.28179932 0.39525175
v -0.2050829 -0.28576088 0.44961095
v -0.20341396 -0.10554123 0.5243888
v -0.24549866 -0.31806374 0.39675283
v -0.18507671 -0.34575844 0.3665557
v -0.17502022 -0.12261963 0.5318198
v 0.005794525 -0.121515274 0.47644544
v -0.08574772 0.11851239 0.56751204
v -0.05047798 0.089440346 0.5719657
v 0.013807297 0.27222753 0.5416961
v 0.034820557 0.22906423 0.5431018
v 0.07444668 0.3113606 0.4887631
v 0.09259796 0.25704503 0.50485563
v 0.1978445 0.097756386 0.44955182
v -0.010091782 -0.42912793 0.23218846
v 0.02107811 -0.41009736 0.26826787
v -0.14449692 -0.32873917 0.4046147
v 0.22218609 -0.23259544 0.3081069
v 0.31181526 -0.105602264 0.3104987
v 0.30037594 -0.5967505 -0.13254547
v 0.59753704 -0.30428696 0.04568982
v 0.5956793 -0.28012848 0.04075551
v 0.62606525 -0.30968475 -0.047089577
v 0.5469723 -0.3695917 0.04902959
v 0.628479 -0.33943844 -0.0015075207
v 0.630949 -0.38115597 -0.05361271
v 0.60674286 -0.3307171 -0.2015791
v 0.60324764 -0.37793922 0.0024158955
v 0.3594427 -0.58687615 -0.016978264
v 0.477849 -0.5592234 -0.06069851
v 0.49574757 -0.55863786 -0.16713428
v 0.49384212 -0.34374428 -0.4939394
v 0.40266228 -0.42145753 -0.5413351
v 0.25173855 -0.3671465 -0.64973545
v 0.38335228 -0.20776367 -0.58208656
v 0.08415127 -0.25733185 -0.75263786
v 0.23153877 -0.051605225 -0.7084379
v 0.38335228 -0.20776367 -0.58208656
v 0.1784811 0.010419846 -0.69233704
v 0.23153877 -0.051605225 -0.7084379
v 0.3235283 -0.086214066 -0.49807262
v 0.45282173 -0.18480682 -0.33186245
v 0.49384212 -0.34374428 -0.4939394
v 0.60674286 -0.3307171 -0.2015791
v 0.10355091 0.15895772 -0.27738762
v 0.03089428 0.20799088 -0.46523762
v -0.1431675 0.3512156 -0.41352844
v -0.022203445 0.3477862 -0.19653416
v -0.27289867 0.44371605 -0.39509106
v 0.5312147 -0.2275238 -0.15209484
v 0.62606525 -0.30968475 -0.047089577
v 0.16448879 0.094361305 -0.120316505
v 0.06336594 0.3203156 0.011628389
v -0.121554375 0.44842243 -0.18799496
v -0.16026497 0.48087788 -0.17812061
v 0.22246552 0.033501625 0.045947313
v 0.5667219 -0.2504053 -0.037680626
v 0.5956793 -0.28012848 0.04075551
v -0.02225399 0.44516182 0.044865847
v -0.06947327 0.48290157 0.06107068
v 0.27740192 -0.031481743 0.20441175
v 0.31181526 -0.105602264 0.3104987
v 0.16803741 0.19614911 0.3388343
v 0.1978445 0.097756386 0.44955182
v -0.0028572083 0.43851948 0.11914563
v -0.048477173 0.45955753 0.13922024
v 0.12194538 0.23282361 0.15384984
v -0.01013279 0.37472367 0.18798375
v -0.036467552 0.3854754 0.19822049
v 0.04735565 0.3593409 0.11847043
v 0.0045366287 0.4153738 0.22004628
v -0.028644562 0.419322 0.23254132
v 0.05126095 0.33144784 0.1806252
v 0.03369999 0.4329996 0.2626183
v -0.0016965866 0.44401455 0.27684522
v 0.07341766 0.35129666 0.2224915
v 0.08198357 0.38954473 0.41335797
v 0.05706978 0.3923447 0.44011426
v 0.112667084 0.32860303 0.38165617
v 0.11749363 0.32520223 0.43496823
v 0.07444668 0.3113606 0.4887631
v 0.09259796 0.25704503 0.50485563
v 0.1434412 0.24054646 0.4426434
v -0.3658266 0.34824872 -0.4287653
v -0.1431675 0.3512156 -0.41352844
v -0.27289867 0.44371605 -0.39509106
v -0.26677895 0.2514727 -0.4604559
v -0.45727277 0.18876481 -0.46639347
v 0.03089428 0.20799088 -0.46523762
v -0.4002211 0.12646794 -0.48833847
v -0.5011275 0.08144188 -0.46820164
v -0.46118283 0.033129692 -0.48431873
v -0.11833191 0.07374954 -0.5061102
v 0.1784811 0.010419846 -0.69233704
v -0.23012447 -0.073843956 -0.50530815
v -0.286767 -0.16004372 -0.49836826
v 0.027611732 -0.15988445 -0.71791077
v 0.23153877 -0.051605225 -0.7084379
v 0.08415127 -0.25733185 -0.75263786
v -0.018281937 -0.291646 -0.7369747
v -0.031297684 -0.21963215 -0.7145672
vt 0.564133 0.19138971
vt 0.5402536 0.20557094
vt 0.56083405 0.20119075
vt 0.5447764 0.18924886
vt 0.5728067 0.15580583
vt 0.52116525 0.2092118
vt 0.55841404 0.15073475
vt 0.59075516 0.13537475
vt 0.528472 0.18618348
vt 0.49352875 0.19426489
vt 0.5735581 0.12049985
vt 0.59511405 0.12662016
vt 0.53933364 0.14395756
vt 0.5219214 0.13600339
vt 0.50954187 0.17944962
vt 0.5758555 0.11502814
vt 0.6034116 0.115836754
vt 0.5450705 0.10791677
vt 0.54692924 0.10344036
vt 0.5848518 0.100653276
vt 0.611353 0.09894969
vt 0.54118174 0.097508684
vt 0.56124717 0.087725654
vt 0.59646547 0.07977921
vt 0.6053322 0.066825055
vt 0.6159923 0.08702815
vt 0.58983755 0.048124034
vt 0.5766556 0.06369839
vt 0.53955084 0.10019152
vt 0.5493993 0.08046889
vt 0.56061316 0.0560139
vt 0.57688737 0.04977257
vt 0.5826834 0.04343016
vt 0.57417715 0.040880572
vt 0.5705818 0.044727053
vt 0.571151 0.037739586
vt 0.56611073 0.040902514
vt 0.5682945 0.03317297
vt 0.55337703 0.025601115
vt 0.5367824 0.0950896
vt 0.5522286 0.033993002
vt 0.54134977 0.0770411
vt 0.5388885 0.030328032
vt 0.5447385 0.024710905
vt 0.5271563 0.043672394
vt 0.5473429 0.051087137
vt 0.5142639 0.06652046
vt 0.5111282 0.08817996
vt 0.5359873 0.09792439
vt 0.5195448 0.108543426
vt 0.5135952 0.09586097
vt 0.50295395 0.09836288
vt 0.49144384 0.08526291
vt 0.50828874 0.10118593
vt 0.5055714 0.10773772
vt 0.48997927 0.0883946
vt 0.47831318 0.10224734
vt 0.46774578 0.07984969
vt 0.46768302 0.08392202
vt 0.45054552 0.0795241
vt 0.452642 0.08328307
vt 0.4430609 0.08285436
vt 0.44682944 0.086762935
vt 0.45185655 0.104298815
vt 0.5005885 0.12881665
vt 0.49713114 0.12711567
vt 0.50124073 0.106721036
vt 0.4731685 0.12908946
vt 0.45919132 0.12938328
vt 0.5017667 0.17456152
vt 0.4603197 0.17002404
vt 0.45829168 0.1698949
vt 0.46081755 0.18025999
vt 0.46729708 0.16847712
vt 0.46284485 0.17611346
vt 0.46753815 0.18015413
vt 0.46941927 0.19420114
vt 0.46635887 0.1748458
vt 0.49306583 0.16922988
vt 0.48636046 0.17715263
vt 0.4889959 0.18616107
vt 0.48289683 0.21964505
vt 0.49420398 0.22237855
vt 0.5009322 0.2386593
vt 0.48126426 0.23740773
vt 0.5045146 0.25876042
vt 0.48128828 0.26023623
vt 0.41251987 0.08638475
vt 0.39468718 0.109036304
vt 0.40168983 0.1064196
vt 0.39810658 0.08566109
vt 0.402323 0.0650864
vt 0.42220652 0.07162843
vt 0.41257453 0.04504762
vt 0.3621533 0.0846946
vt 0.36506748 0.10325161
vt 0.34625864 0.1114187
vt 0.3409412 0.08959357
vt 0.33410168 0.119212545
vt 0.40031427 0.047098555
vt 0.40510643 0.033084847
vt 0.36123598 0.06820438
vt 0.33585227 0.06956426
vt 0.3300599 0.09637544
vt 0.32587504 0.098460294
vt 0.35955393 0.051247157
vt 0.3981902 0.03634364
vt 0.39775473 0.028377838
vt 0.322855 0.07480834
vt 0.31757224 0.07686696
vt 0.35861707 0.034835406
vt 0.35969698 0.022692807
vt 0.33268154 0.035895564
vt 0.33559012 0.02244816
vt 0.32056212 0.06864116
vt 0.31583 0.06947491
vt 0.33676314 0.053340413
vt 0.31940758 0.06047664
vt 0.31672657 0.061285116
vt 0.32727385 0.063481905
vt 0.3161484 0.0571445
vt 0.3134544 0.058876075
vt 0.32576108 0.057325162
vt 0.31452584 0.05308477
vt 0.31116915 0.053985395
vt 0.32345486 0.053083815
vt 0.31275833 0.03880886
vt 0.30986583 0.037226595
vt 0.3195238 0.038593598
vt 0.31759858 0.03427101
vt 0.31393647 0.029156484
vt 0.31789827 0.02537582
vt 0.3239982 0.029760517
vt 0.43222603 0.03445752
vt 0.44601133 0.019840077
vt 0.43172386 0.022084966
vt 0.4451535 0.0347621
vt 0.43661323 0.05081375
vt 0.46656367 0.018327966
vt 0.44448695 0.051393226
vt 0.44028583 0.060649708
vt 0.44610015 0.061329976
vt 0.46668223 0.03703244
vt 0.49626407 0.023196831
vt 0.46820053 0.0539722
vt 0.4694138 0.06333406
vt 0.49767038 0.043794945
vt 0.50377417 0.023818567
vt 0.50794375 0.04675217
vt 0.5029708 0.055366352
vt 0.49738273 0.051253155
vn -0.5078441 -0.6450767 -0.5709382
vn 0.3304812 -0.5059322 -0.7967526
vn 0.23223656 -0.29467127 -0.9269494
vn -0.3750964 -0.84200746 -0.38771906
vn -0.6450935 -0.557156 -0.5229067
vn 0.43122798 -0.69349337 -0.5771563
vn -0.60842836 -0.73766816 -0.2926784
vn -0.60474026 -0.44625 -0.65965915
vn -0.26599666 -0.9266285 -0.2657171
vn 0.5018567 -0.7758914 -0.3822726
vn -0.71746373 -0.63170916 -0.29358023
vn -0.9190294 0.21776955 -0.3285748
vn -0.5252961 -0.8343837 -0.16693643
vn -0.42024815 -0.9073615 -0.009309045
vn -0.24826328 -0.9569135 -0.15060547
vn -0.96480846 0.25645876 0.058082905
vn -0.773508 0.5489453 -0.31677172
vn -0.6273355 -0.7666799 -0.13657305
vn -0.9634904 0.22257257 0.14882097
vn -0.82739764 0.5378502 0.16164842
vn -0.6755679 0.66962355 -0.30856487
vn -0.89896977 0.35952628 0.25018844
vn -0.80273646 0.5280088 0.27716577
vn -0.71389246 0.6735015 0.19171163
vn -0.417871 0.90084857 0.117710754
vn -0.19591402 0.90596694 -0.3752888
vn -0.33201665 0.929239 0.16211073
vn -0.6908458 0.6595447 0.29619724
vn -0.54541034 -0.83813584 -0.0074711293
vn -0.77426827 0.5523923 0.30882278
vn -0.6910908 0.63133293 0.35186958
vn -0.49621215 0.7497846 0.43771738
vn -0.18005046 0.8951911 0.40769452
vn 0.055309698 0.8751251 0.48072544
vn -0.50814354 0.7671268 0.39154404
vn -0.3752035 0.8476482 -0.37511978
vn -0.5989737 0.74866366 0.28413585
vn -0.27266175 0.92872036 0.2512651
vn -0.08305615 0.82890296 0.55319214
vn -0.755582 0.12943038 0.6421399
vn -0.5409865 0.65609616 0.52618575
vn -0.711073 0.34395495 0.6132457
vn -0.43105924 0.51907754 0.73806936
vn 0.25253853 0.5876086 0.7687266
vn -0.58374774 0.3278232 0.7428125
vn -0.66829264 0.47541213 0.572161
vn -0.6151868 0.1645259 0.771023
vn -0.6369356 -0.0075420067 0.77088004
vn -0.60393876 -0.784696 0.13967872
vn -0.4374309 -0.89802474 0.046966106
vn -0.5968288 -0.634071 0.49168006
vn 0.07278013 -0.515025 0.85407984
vn -0.6151868 0.1645259 0.771023
vn -0.33051008 -0.81609213 0.47408515
vn -0.29590976 -0.9368908 0.18620723
vn 0.070559114 -0.3784174 0.9229419
vn 0.38395232 -0.3992683 0.83256555
vn -0.58374774 0.3278232 0.7428125
vn 0.3301056 -0.18294692 0.9260458
vn -0.43105924 0.51907754 0.73806936
vn 0.39994514 -0.10207814 0.91083694
vn 0.25253853 0.5876086 0.7687266
vn 0.61706173 0.23408826 0.7512905
vn 0.708057 -0.04426648 0.7047665
vn -0.31947482 -0.9366683 0.14348686
vn 0.25433096 -0.66041875 0.70651454
vn 0.26757848 -0.58901066 0.76254064
vn 0.39840388 -0.47699517 0.78342193
vn 0.72970784 0.0293886 0.68312716
vn -0.25665018 -0.9662863 0.020527374
vn 0.5565706 -0.2908099 0.77824074
vn 0.6988999 0.67727596 0.22986099
vn 0.8815498 0.46092722 -0.10205974
vn 0.4098495 -0.49790615 0.76427275
vn 0.94916004 -0.052339 0.3104122
vn 0.88168186 -0.466825 -0.06863933
vn 0.94022715 0.00677707 -0.3404804
vn 0.60981375 -0.5984347 0.5196181
vn 0.23873708 -0.74250346 0.62585396
vn 0.48694795 -0.78664744 0.3795622
vn 0.59127 -0.7804905 -0.20306244
vn 0.8778985 -0.071456775 -0.47348523
vn 0.43122798 -0.69349337 -0.5771563
vn 0.3304812 -0.5059322 -0.7967526
vn 0.73093516 0.21403725 -0.6480137
vn 0.23223656 -0.29467127 -0.9269494
vn 0.55628735 0.2455398 -0.7938858
vn 0.73093516 0.21403725 -0.6480137
vn 0.25047743 0.7453039 -0.61788607
vn 0.55628735 0.2455398 -0.7938858
vn 0.72626984 0.6746359 -0.13190311
vn 0.7252433 0.67636937 -0.12863447
vn 0.8778985 -0.071456775 -0.47348523
vn 0.94022715 0.00677707 -0.3404804
vn 0.7222062 0.67843765 -0.13468729
vn 0.41589347 0.7426759 -0.52484787
vn 0.42902288 0.6236272 -0.6534741
vn 0.7179453 0.64953595 -0.25031504
vn -0.19591402 0.90596694 -0.3752888
vn 0.69029295 0.71978736 -0.07349607
vn 0.8815498 0.46092722 -0.10205974
vn 0.7455931 0.661451 -0.08107732
vn 0.8197993 0.54683346 -0.17000663
vn 0.6213194 0.7173662 -0.31519502
vn -0.417871 0.90084857 0.117710754
vn 0.7490047 0.66100305 -0.045462452
vn 0.664309 0.74512595 0.05899872
vn 0.6988999 0.67727596 0.22986099
vn 0.7016883 0.6807104 -0.21039654
vn -0.33201665 0.929239 0.16211073
vn 0.7752147 0.6303096 0.04185712
vn 0.72970784 0.0293886 0.68312716
vn 0.8935082 0.44610265 -0.05133757
vn 0.708057 -0.04426648 0.7047665
vn 0.73823315 0.6646581 0.115071386
vn -0.18005046 0.8951911 0.40769452
vn 0.872885 0.47500977 -0.11152366
vn 0.6293561 0.7408544 0.23461841
vn 0.055309698 0.8751251 0.48072544
vn 0.8207928 0.56821567 0.058567572
vn 0.33392185 0.6947095 -0.6370832
vn -0.3752035 0.8476482 -0.37511978
vn 0.7529919 0.65102 -0.09579148
vn 0.6924764 0.7018014 -0.16718596
vn -0.27266175 0.92872036 0.2512651
vn 0.8477824 0.48189393 -0.22145721
vn 0.72416234 0.6833326 0.0929814
vn -0.08305615 0.82890296 0.55319214
vn 0.8923612 0.43807936 -0.10852553
vn 0.85933733 0.41111878 0.30417213
vn 0.25253853 0.5876086 0.7687266
vn 0.61706173 0.23408826 0.7512905
vn 0.89677745 0.35396186 0.2655207
vn -0.6755679 0.66962355 -0.30856487
vn 0.42902288 0.6236272 -0.6534741
vn -0.19591402 0.90596694 -0.3752888
vn -0.00021439511 0.25160906 -0.9678289
vn -0.773508 0.5489453 -0.31677172
vn 0.41589347 0.7426759 -0.52484787
vn -0.073709354 0.12919894 -0.9888754
vn -0.9190294 0.21776955 -0.3285748
vn -0.60474026 -0.44625 -0.65965915
vn -0.24247207 0.38432533 -0.8907869
vn 0.25047743 0.7453039 -0.61788607
vn -0.31636614 0.21502937 -0.92394525
vn -0.6450935 -0.557156 -0.5229067
vn -0.35904694 0.4211414 -0.8329017
vn 0.55628735 0.2455398 -0.7938858
vn 0.23223656 -0.29467127 -0.9269494
vn -0.5078441 -0.6450767 -0.5709382
vn -0.51410085 0.3144883 -0.7979958
g mdlUnfinished_Golem_Stone1_0
f 3/3/3 2/2/2 1/1/1
f 2/2/2 4/4/4 1/1/1
f 5/5/5 1/1/1 4/4/4
f 2/2/2 6/6/6 4/4/4
f 7/7/7 5/5/5 4/4/4
f 5/5/5 7/7/7 8/8/8
f 6/6/6 9/9/9 4/4/4
f 9/9/9 6/6/6 10/10/10
f 7/7/7 11/11/11 8/8/8
f 8/8/8 11/11/11 12/12/12
f 13/13/13 7/7/7 4/4/4
f 9/9/9 13/13/13 4/4/4
f 7/7/7 13/13/13 11/11/11
f 14/14/14 13/13/13 9/9/9
f 15/15/15 9/9/9 10/10/10
f 15/15/15 14/14/14 9/9/9
f 11/11/11 16/16/16 12/12/12
f 17/17/17 12/12/12 16/16/16
f 13/13/13 18/18/18 11/11/11
f 13/13/13 14/14/14 18/18/18
f 19/19/19 16/16/16 11/11/11
f 18/18/18 19/19/19 11/11/11
f 20/20/20 17/17/17 16/16/16
f 16/16/16 19/19/19 20/20/20
f 17/17/17 20/20/20 21/21/21
f 19/19/19 18/18/18 22/22/22
f 19/19/19 23/23/23 20/20/20
f 19/19/19 22/22/22 23/23/23
f 20/20/20 24/24/24 21/21/21
f 20/20/20 23/23/23 24/24/24
f 21/21/21 24/24/24 25/25/25
f 26/26/26 21/21/21 25/25/25
f 25/25/25 24/24/24 27/27/27
f 23/23/23 28/28/28 24/24/24
f 24/24/24 28/28/28 27/27/27
f 14/14/14 29/29/29 18/18/18
f 18/18/18 29/29/29 22/22/22
f 22/22/22 30/30/30 23/23/23
f 23/23/23 30/30/30 28/28/28
f 30/30/30 31/31/31 28/28/28
f 27/27/27 28/28/28 32/32/32
f 28/28/28 31/31/31 32/32/32
f 33/33/33 27/27/27 32/32/32
f 34/34/34 33/33/33 32/32/32
f 35/35/35 34/34/34 32/32/32
f 31/31/31 35/35/35 32/32/32
f 35/35/35 36/36/36 34/34/34
f 35/35/35 37/37/37 36/36/36
f 31/31/31 37/37/37 35/35/35
f 37/37/37 38/38/38 36/36/36
f 39/39/39 38/38/38 37/37/37
f 22/22/22 40/40/40 30/30/30
f 22/22/22 29/29/29 40/40/40
f 41/41/41 39/39/39 37/37/37
f 41/41/41 37/37/37 31/31/31
f 30/30/30 42/42/42 31/31/31
f 40/40/40 42/42/42 30/30/30
f 39/39/39 41/41/41 43/43/43
f 44/44/44 39/39/39 43/43/43
f 43/43/43 41/41/41 45/45/45
f 46/46/46 41/41/41 31/31/31
f 41/41/41 46/46/46 45/45/45
f 42/42/42 46/46/46 31/31/31
f 47/47/47 45/45/45 46/46/46
f 42/42/42 47/47/47 46/46/46
f 48/48/48 47/47/47 42/42/42
f 40/40/40 48/48/48 42/42/42
f 29/29/29 49/49/49 40/40/40
f 48/48/48 40/40/40 49/49/49
f 49/49/49 29/29/29 50/50/50
f 29/29/29 14/14/14 50/50/50
f 51/51/51 48/48/48 49/49/49
f 51/51/51 49/49/49 50/50/50
f 52/52/52 48/48/48 51/51/51
f 53/53/53 48/48/48 52/52/52
f 54/54/54 51/51/51 50/50/50
f 54/54/54 52/52/52 51/51/51
f 50/50/50 55/55/55 54/54/54
f 50/50/50 14/14/14 55/55/55
f 54/54/54 55/55/55 52/52/52
f 56/56/56 53/53/53 52/52/52
f 56/56/56 52/52/52 57/57/57
f 58/58/58 53/53/53 56/56/56
f 59/59/59 58/58/58 56/56/56
f 59/59/59 56/56/56 57/57/57
f 60/60/60 58/58/58 59/59/59
f 61/61/61 60/60/60 59/59/59
f 61/61/61 59/59/59 57/57/57
f 62/62/62 60/60/60 61/61/61
f 63/63/63 62/62/62 61/61/61
f 63/63/63 61/61/61 64/64/64
f 64/64/64 61/61/61 57/57/57
f 14/14/14 65/65/65 55/55/55
f 65/65/65 66/66/66 55/55/55
f 65/65/65 14/14/14 15/15/15
f 55/55/55 67/67/67 52/52/52
f 52/52/52 67/67/67 57/57/57
f 66/66/66 67/67/67 55/55/55
f 67/67/67 66/66/66 57/57/57
f 64/64/64 57/57/57 68/68/68
f 66/66/66 68/68/68 57/57/57
f 69/69/69 64/64/64 68/68/68
f 70/70/70 65/65/65 15/15/15
f 66/66/66 65/65/65 70/70/70
f 69/69/69 68/68/68 71/71/71
f 71/71/71 72/72/72 69/69/69
f 73/73/73 72/72/72 71/71/71
f 68/68/68 66/66/66 74/74/74
f 68/68/68 74/74/74 71/71/71
f 75/75/75 73/73/73 71/71/71
f 75/75/75 71/71/71 74/74/74
f 73/73/73 75/75/75 76/76/76
f 77/77/77 73/73/73 76/76/76
f 78/78/78 76/76/76 75/75/75
f 78/78/78 75/75/75 74/74/74
f 66/66/66 79/79/79 74/74/74
f 79/79/79 66/66/66 70/70/70
f 79/79/79 80/80/80 74/74/74
f 80/80/80 78/78/78 74/74/74
f 79/79/79 70/70/70 80/80/80
f 70/70/70 15/15/15 81/81/81
f 70/70/70 81/81/81 80/80/80
f 78/78/78 80/80/80 81/81/81
f 76/76/76 78/78/78 81/81/81
f 77/77/77 76/76/76 81/81/81
f 15/15/15 10/10/10 81/81/81
f 10/10/10 77/77/77 81/81/81
f 77/77/77 10/10/10 82/82/82
f 10/10/10 83/83/83 82/82/82
f 82/82/82 83/83/83 84/84/84
f 85/85/85 82/82/82 84/84/84
f 85/85/85 84/84/84 86/86/86
f 87/87/87 85/85/85 86/86/86
f 90/90/90 89/89/89 88/88/88
f 89/89/89 91/91/91 88/88/88
f 88/88/88 91/91/91 92/92/92
f 93/93/93 88/88/88 92/92/92
f 94/94/94 93/93/93 92/92/92
f 95/95/95 91/91/91 89/89/89
f 92/92/92 91/91/91 95/95/95
f 96/96/96 95/95/95 89/89/89
f 95/95/95 96/96/96 97/97/97
f 98/98/98 95/95/95 97/97/97
f 97/97/97 99/99/99 98/98/98
f 100/100/100 94/94/94 92/92/92
f 94/94/94 100/100/100 101/101/101
f 102/102/102 92/92/92 95/95/95
f 102/102/102 95/95/95 98/98/98
f 103/103/103 102/102/102 98/98/98
f 99/99/99 104/104/104 98/98/98
f 98/98/98 104/104/104 103/103/103
f 105/105/105 104/104/104 99/99/99
f 92/92/92 102/102/102 106/106/106
f 100/100/100 92/92/92 106/106/106
f 102/102/102 103/103/103 106/106/106
f 100/100/100 107/107/107 101/101/101
f 107/107/107 100/100/100 106/106/106
f 108/108/108 101/101/101 107/107/107
f 104/104/104 105/105/105 109/109/109
f 104/104/104 109/109/109 103/103/103
f 105/105/105 110/110/110 109/109/109
f 108/108/108 107/107/107 111/111/111
f 111/111/111 107/107/107 106/106/106
f 112/112/112 108/108/108 111/111/111
f 112/112/112 111/111/111 113/113/113
f 114/114/114 112/112/112 113/113/113
f 115/115/115 109/109/109 110/110/110
f 109/109/109 115/115/115 103/103/103
f 116/116/116 115/115/115 110/110/110
f 106/106/106 117/117/117 111/111/111
f 103/103/103 117/117/117 106/106/106
f 117/117/117 113/113/113 111/111/111
f 118/118/118 115/115/115 116/116/116
f 119/119/119 118/118/118 116/116/116
f 115/115/115 120/120/120 103/103/103
f 103/103/103 120/120/120 117/117/117
f 120/120/120 115/115/115 118/118/118
f 121/121/121 118/118/118 119/119/119
f 122/122/122 121/121/121 119/119/119
f 123/123/123 120/120/120 118/118/118
f 120/120/120 123/123/123 117/117/117
f 123/123/123 118/118/118 121/121/121
f 121/121/121 122/122/122 124/124/124
f 123/123/123 121/121/121 124/124/124
f 122/122/122 125/125/125 124/124/124
f 123/123/123 126/126/126 117/117/117
f 117/117/117 126/126/126 113/113/113
f 126/126/126 123/123/123 124/124/124
f 124/124/124 125/125/125 127/127/127
f 125/125/125 128/128/128 127/127/127
f 126/126/126 124/124/124 129/129/129
f 124/124/124 127/127/127 129/129/129
f 126/126/126 129/129/129 113/113/113
f 130/130/130 127/127/127 128/128/128
f 130/130/130 129/129/129 127/127/127
f 113/113/113 129/129/129 130/130/130
f 131/131/131 130/130/130 128/128/128
f 130/130/130 131/131/131 132/132/132
f 133/133/133 113/113/113 130/130/130
f 133/133/133 130/130/130 132/132/132
f 113/113/113 133/133/133 114/114/114
f 132/132/132 114/114/114 133/133/133
f 136/136/136 135/135/135 134/134/134
f 135/135/135 137/137/137 134/134/134
f 134/134/134 137/137/137 138/138/138
f 137/137/137 135/135/135 139/139/139
f 137/137/137 140/140/140 138/138/138
f 141/141/141 138/138/138 140/140/140
f 142/142/142 141/141/141 140/140/140
f 143/143/143 137/137/137 139/139/139
f 137/137/137 143/143/143 140/140/140
f 143/143/143 139/139/139 144/144/144
f 140/140/140 145/145/145 142/142/142
f 143/143/143 145/145/145 140/140/140
f 145/145/145 146/146/146 142/142/142
f 147/147/147 143/143/143 144/144/144
f 145/145/145 143/143/143 147/147/147
f 144/144/144 148/148/148 147/147/147
f 148/148/148 149/149/149 147/147/147
f 147/147/147 149/149/149 150/150/150
f 146/146/146 145/145/145 151/151/151
f 150/150/150 146/146/146 151/151/151
f 151/151/151 147/147/147 150/150/150
f 151/151/151 145/145/145 147/147/147
