g mdlUnfinished_Golem_Stone2
v -0.3545971 0.98295283 -0.12290263
v -0.20623302 0.95840335 -0.27380037
v -0.18528843 1.0596626 -0.24718142
v -0.17265415 0.31746554 -0.43482494
v -0.28340626 1.0687101 -0.14242625
v -0.18149662 1.1559732 -0.15533924
v -0.2364111 1.1785457 0.010640383
v -0.3352995 1.0945318 -0.0027415752
v -0.38176537 1.0831239 0.13783908
v -0.283988 1.1417596 0.24526119
v -0.44010162 0.9542377 0.09873843
v -0.39561462 1.002424 -0.013758421
v -0.43114662 0.4425552 -0.0152843
v -0.28132534 0.3463266 -0.28579378
v -0.2344675 -0.3116606 -0.37921977
v -0.13226414 -0.29345876 -0.53675723
v -0.44373703 0.89194083 0.23082733
v -0.42630005 -0.3356579 -0.04990053
v -0.226264 -0.7750681 -0.38893962
v -0.16402149 -0.76131326 -0.46682453
v -0.21500874 -0.9788154 -0.40177798
v -0.16272259 -0.927996 -0.47154522
v -0.17656994 -1.0193756 -0.4169624
v -0.28716946 -0.99170905 -0.31302142
v -0.21094608 -1.0926025 -0.30373812
v -0.27363682 -0.78338987 -0.3084209
v -0.40174484 -0.89634305 -0.059320927
v -0.3305502 -1.0315692 -0.028109074
v -0.29098797 -0.5131882 -0.2701745
v -0.40311623 -0.7506321 -0.08524561
v -0.49984932 -0.82507974 0.14056873
v -0.45712852 -0.9296048 0.2949381
v -0.56347656 -0.36367875 0.27999806
v -0.554142 -0.7035492 0.23591161
v -0.52023315 -0.84888154 0.32376003
v -0.5630226 0.30264068 0.2754097
v -0.55120087 -0.3597973 0.33923912
v -0.27657413 -0.72360116 0.4408846
v -0.5420437 0.6642747 0.2410717
v -0.54512596 0.29869723 0.33599925
v -0.52541924 0.68874407 0.2936685
v -0.16758251 -0.36521798 0.50267124
v -0.15132809 0.2673254 0.52178144
v -0.1823473 0.6293225 0.45888662
v -0.23882198 0.9095428 0.3272922
v 0.17808199 0.624104 0.46295023
v 0.16391325 -0.36555845 0.50111866
v 0.24491549 0.9095428 0.3272922
v 0.13428164 0.2649231 0.52606153
v 0.29791498 1.1359279 0.23452282
v 0.4288342 0.8909013 0.29034328
v 0.2473054 1.1707332 0.010518312
v -0.2364111 1.1785457 0.010640383
v 0.5084727 0.6510234 0.35115027
v 0.39615345 1.0659378 0.1910789
v 0.18759108 1.1559732 -0.15533924
v -0.18149662 1.1559732 -0.15533924
v 0.33942652 1.1019742 0.015834093
v 0.42702222 0.9742334 0.11891818
v 0.19138288 1.0596626 -0.24718142
v -0.18528843 1.0596626 -0.24718142
v 0.5561745 0.6578269 0.26887703
v 0.40106773 1.0183504 0.009755373
v 0.28178835 1.0972965 -0.14674091
v 0.21438646 0.94886947 -0.2564149
v -0.20623302 0.95840335 -0.27380037
v 0.3509636 1.0068071 -0.124331236
v 0.17844343 0.31681132 -0.43560314
v -0.17265415 0.31746554 -0.43482494
v -0.13226414 -0.29345876 -0.53675723
v 0.28138208 0.28534126 -0.29772425
v 0.13835764 -0.29345876 -0.53675723
v -0.16402149 -0.76131326 -0.46682453
v 0.42328382 0.36596274 -0.054226637
v 0.22068644 -0.31192094 -0.40099025
v 0.39570904 -0.3179558 -0.088270664
v 0.5759671 0.28995323 0.29755855
v 0.17011595 -0.76131326 -0.46682453
v 0.5328438 0.2921791 0.35486007
v 0.16388464 -0.91753036 -0.4766283
v -0.16272259 -0.927996 -0.47154522
v 0.23132753 -0.7493208 -0.39404178
v 0.5779469 -0.3695925 0.30430412
v 0.5339806 -0.37164384 0.3677883
v 0.18055296 -1.0256174 -0.40996432
v -0.17656994 -1.0193756 -0.4169624
v 0.5589955 -0.6849268 0.2394774
v 0.5031884 -0.8188866 0.34772587
v 0.22999907 -0.95737773 -0.38707995
v 0.21004248 -1.0930955 -0.30365992
v -0.21094608 -1.0926025 -0.30373812
v -0.3305502 -1.0315692 -0.028109074
v 0.2826686 -0.72360116 0.4408846
v -0.25131702 -0.9285577 0.31855774
v 0.2626891 -0.915067 0.31947517
v 0.33510256 -1.0273368 -0.038776875
v 0.4581082 -0.9143136 0.27188802
v 0.27036524 -0.968983 -0.3000455
v 0.4990399 -0.8144234 0.15701199
v 0.41220784 -0.87173253 -0.06885004
v 0.27860117 -0.74032956 -0.31229854
v 0.40065098 -0.7086571 -0.09373522
v 0.28262186 -0.49010354 -0.2938485
vt 0.4234988 0.57687354
vt 0.43593222 0.57518387
vt 0.43233782 0.567455
vt 0.45425153 0.61364055
vt 0.4237573 0.56945556
vt 0.4251836 0.56151086
vt 0.4124223 0.56067616
vt 0.4135694 0.5686048
vt 0.40436065 0.5700935
vt 0.3915891 0.5627226
vt 0.41036788 0.5785441
vt 0.41640076 0.57584584
vt 0.4270478 0.6090816
vt 0.44384032 0.61292964
vt 0.44972083 0.6546305
vt 0.46061146 0.65316606
vt 0.40439186 0.5827305
vt 0.42771143 0.6570332
vt 0.44846994 0.68324995
vt 0.4545988 0.68249
vt 0.4482431 0.695946
vt 0.45376432 0.6932293
vt 0.4500652 0.6989594
vt 0.44109553 0.69671524
vt 0.44251546 0.7039185
vt 0.44236547 0.6842956
vt 0.4233172 0.69283473
vt 0.42244887 0.7024457
vt 0.44182542 0.6677895
vt 0.42673475 0.68322897
vt 0.4091731 0.6898373
vt 0.39503196 0.6981512
vt 0.40827307 0.659115
vt 0.405914 0.68033016
vt 0.39884263 0.68948644
vt 0.41111448 0.619509
vt 0.4059303 0.6593146
vt 0.3866568 0.6804731
vt 0.41001633 0.59813285
vt 0.40854353 0.6199627
vt 0.40762097 0.5966203
vt 0.3845053 0.6573829
vt 0.3858071 0.620558
vt 0.388212 0.5994157
vt 0.39160493 0.58043677
vt 0.3697728 0.6004799
vt 0.36828887 0.65401065
vt 0.3644526 0.5847024
vt 0.3719204 0.61964697
vt 0.35838184 0.5746783
vt 0.35437357 0.5868923
vt 0.3491214 0.56780803
vt 0.36499253 0.5460898
vt 0.35174218 0.59853524
vt 0.35389334 0.5776853
vt 0.3393708 0.565172
vt 0.341188 0.54496676
vt 0.34671664 0.57218677
vt 0.34776956 0.5792244
vt 0.3314439 0.5692298
vt 0.3226902 0.5503939
vt 0.3482399 0.5979026
vt 0.34413317 0.5765748
vt 0.3380424 0.5705576
vt 0.32710946 0.5761711
vt 0.30937168 0.56020755
vt 0.33760622 0.57665485
vt 0.3038866 0.61000115
vt 0.28590894 0.6030204
vt 0.2802219 0.64848363
vt 0.3111006 0.61267567
vt 0.29505733 0.64834553
vt 0.28587335 0.68487203
vt 0.32554588 0.6097716
vt 0.30239812 0.64939284
vt 0.32156244 0.6489208
vt 0.34551358 0.61628866
vt 0.3033762 0.6778311
vt 0.348431 0.6164747
vt 0.3078561 0.68811446
vt 0.29564 0.7014147
vt 0.30733982 0.6762487
vt 0.34492946 0.65116996
vt 0.3477037 0.6514528
vt 0.31445822 0.6934576
vt 0.31344393 0.71331066
vt 0.34222338 0.6670976
vt 0.3469186 0.67376465
vt 0.31348014 0.6882739
vt 0.32162073 0.69572014
vt 0.33536187 0.71696347
vt 0.3700652 0.7137672
vt 0.35839757 0.67084414
vt 0.37959802 0.6950142
vt 0.35428455 0.6814268
vt 0.333417 0.68830734
vt 0.34498313 0.67772025
vt 0.3174303 0.6881451
vt 0.33743966 0.67335063
vt 0.3277857 0.67912567
vt 0.31116843 0.67517555
vt 0.32322526 0.67092973
vt 0.30978382 0.6599399
vn -0.70083016 0.32557544 -0.6346949
vn -0.36250317 0.35318792 -0.8624672
vn -0.44108695 0.49909773 -0.7458846
vn -0.39266434 0.30084857 -0.8690827
vn -0.661991 0.53937787 -0.5204225
vn -0.23524779 0.74146324 -0.62840337
vn -0.2536866 0.9155166 -0.31220576
vn -0.7283784 0.638389 -0.24884595
vn -0.85205 0.5151917 0.092673056
vn -0.13552725 0.7414437 0.65718615
vn -0.8570188 0.50846505 -0.083558895
vn -0.7688643 0.5178599 -0.37505856
vn -0.8995887 0.019818874 -0.4362883
vn -0.83506566 0.06407582 -0.5464061
vn -0.8496259 -0.0068532457 -0.52734125
vn -0.2980749 0.028920935 -0.9541043
vn -0.68140584 0.60086715 0.4179052
vn -0.8901875 0.011150764 -0.45545784
vn -0.8252136 -0.007700083 -0.5647684
vn -0.30367845 -0.07445298 -0.9498611
vn -0.6667112 -0.259721 -0.6985995
vn -0.17664751 -0.19108161 -0.9655483
vn -0.0825751 -0.72197235 -0.68697697
vn -0.8305392 -0.2599816 -0.49255878
vn -0.69829535 -0.6984745 -0.15657863
vn -0.8601569 1.4320887E-05 -0.51002944
vn -0.8960823 -0.2978417 -0.32913053
vn -0.71339643 -0.69288427 -0.10477087
vn -0.8648953 -0.010065699 -0.5018514
vn -0.88940525 -0.027154652 -0.45631218
vn -0.903328 -0.33228323 -0.271268
vn -0.49355045 -0.819403 0.2915248
vn -0.9695031 -0.24232338 -0.036649685
vn -0.9955615 -0.06897425 0.06403052
vn -0.6629778 -0.73960215 0.11597062
vn -0.95820075 0.27029335 -0.09376936
vn -0.72804505 0.29418457 0.6191978
vn -0.14973424 -0.31237686 0.93808335
vn -0.9598704 0.108788595 -0.25848365
vn -0.5057132 0.043052606 0.8616267
vn -0.52572924 0.23079456 0.8187445
vn -0.21172936 -0.059794344 0.9754975
vn -0.24006303 0.040914036 0.96989477
vn -0.18806773 0.26753822 0.9450152
vn -0.14317755 0.38617536 0.9112457
vn 0.14332114 0.25850698 0.9553184
vn 0.17601313 -0.08828994 0.9804205
vn 0.14140826 0.43931597 0.88713306
vn 0.18728168 0.08588206 0.9785447
vn 0.34220675 0.62907857 0.69796467
vn 0.5533568 0.5544652 0.6215823
vn 0.15255547 0.9642977 -0.2164644
vn -0.2536866 0.9155166 -0.31220576
vn 0.54124206 0.42812502 0.7237167
vn 0.6485946 0.5944105 0.47539592
vn 0.142048 0.79425144 -0.59075135
vn -0.23524779 0.74146324 -0.62840337
vn 0.72630244 0.6711464 -0.14848344
vn 0.9346737 0.17427449 -0.30986035
vn 0.32816926 0.29445392 -0.89755327
vn -0.44108695 0.49909773 -0.7458846
vn 0.9833692 0.00070211664 0.18161654
vn 0.7645099 0.4907319 -0.4179794
vn 0.62126243 0.58457077 -0.52183324
vn 0.41147855 0.09385165 -0.9065745
vn -0.36250317 0.35318792 -0.8624672
vn 0.83847374 0.11623476 -0.53240144
vn 0.28942153 0.18792689 -0.9385727
vn -0.39266434 0.30084857 -0.8690827
vn -0.2980749 0.028920935 -0.9541043
vn 0.82403296 0.05160952 -0.56418616
vn 0.27166197 0.02893863 -0.9619575
vn -0.30367845 -0.07445298 -0.9498611
vn 0.8984894 0.037814382 -0.4373636
vn 0.8446763 0.009033868 -0.53520113
vn 0.8918853 0.016505817 -0.45196047
vn 0.92318 0.3744002 0.086966984
vn 0.2644221 -0.076974325 -0.96133035
vn 0.6153831 -0.16250944 0.77129394
vn 0.4292634 0.013656393 -0.9030761
vn -0.17664751 -0.19108161 -0.9655483
vn 0.84320134 -0.015475143 -0.5373751
vn 0.9118734 -0.06644755 0.40505755
vn 0.7919316 -0.05302249 0.6083033
vn 0.12333603 -0.7199284 -0.6830017
vn -0.0825751 -0.72197235 -0.68697697
vn 0.9956447 0.092087336 -0.014544823
vn 0.44832835 -0.24656491 0.85919
vn 0.78615147 -0.18731405 -0.5889647
vn 0.56012946 -0.8182796 0.1291263
vn -0.69829535 -0.6984745 -0.15657863
vn -0.71339643 -0.69288427 -0.10477087
vn 0.111977704 -0.29473886 0.9489942
vn 0.0695822 -0.7628023 0.64287716
vn 0.15529718 -0.79196334 0.5904885
vn 0.61877644 -0.7141658 0.3272352
vn 0.4858215 -0.7831132 0.38821557
vn 0.87360805 -0.25713292 -0.41314846
vn 0.94094366 -0.2745265 -0.19814162
vn 0.89735365 -0.2566036 -0.35904184
vn 0.8715398 -0.016689595 -0.49004066
vn 0.89247906 -0.00078455015 -0.45108828
vn 0.87125194 0.01707276 -0.4905391
g mdlUnfinished_Golem_Stone2_0
f 3/3/3 2/2/2 1/1/1
f 2/2/2 4/4/4 1/1/1
f 5/5/5 3/3/3 1/1/1
f 5/5/5 6/6/6 3/3/3
f 7/7/7 6/6/6 5/5/5
f 8/8/8 7/7/7 5/5/5
f 8/8/8 5/5/5 1/1/1
f 8/8/8 9/9/9 7/7/7
f 9/9/9 10/10/10 7/7/7
f 11/11/11 9/9/9 8/8/8
f 12/12/12 8/8/8 1/1/1
f 12/12/12 11/11/11 8/8/8
f 13/13/13 12/12/12 1/1/1
f 12/12/12 13/13/13 11/11/11
f 4/4/4 14/14/14 1/1/1
f 14/14/14 13/13/13 1/1/1
f 15/15/15 14/14/14 4/4/4
f 16/16/16 15/15/15 4/4/4
f 10/10/10 9/9/9 17/17/17
f 17/17/17 9/9/9 11/11/11
f 18/18/18 13/13/13 14/14/14
f 15/15/15 18/18/18 14/14/14
f 15/15/15 16/16/16 19/19/19
f 16/16/16 20/20/20 19/19/19
f 19/19/19 20/20/20 21/21/21
f 20/20/20 22/22/22 21/21/21
f 22/22/22 23/23/23 21/21/21
f 21/21/21 23/23/23 24/24/24
f 19/19/19 21/21/21 24/24/24
f 23/23/23 25/25/25 24/24/24
f 15/15/15 19/19/19 26/26/26
f 26/26/26 19/19/19 24/24/24
f 27/27/27 24/24/24 25/25/25
f 28/28/28 27/27/27 25/25/25
f 29/29/29 15/15/15 26/26/26
f 29/29/29 18/18/18 15/15/15
f 30/30/30 26/26/26 24/24/24
f 29/29/29 26/26/26 30/30/30
f 18/18/18 29/29/29 30/30/30
f 27/27/27 30/30/30 24/24/24
f 27/27/27 28/28/28 31/31/31
f 28/28/28 32/32/32 31/31/31
f 18/18/18 30/30/30 33/33/33
f 18/18/18 33/33/33 13/13/13
f 34/34/34 30/30/30 27/27/27
f 31/31/31 34/34/34 27/27/27
f 30/30/30 34/34/34 33/33/33
f 34/34/34 31/31/31 35/35/35
f 31/31/31 32/32/32 35/35/35
f 34/34/34 35/35/35 33/33/33
f 33/33/33 36/36/36 13/13/13
f 35/35/35 37/37/37 33/33/33
f 36/36/36 33/33/33 37/37/37
f 38/38/38 35/35/35 32/32/32
f 35/35/35 38/38/38 37/37/37
f 13/13/13 36/36/36 39/39/39
f 13/13/13 39/39/39 11/11/11
f 40/40/40 36/36/36 37/37/37
f 36/36/36 40/40/40 39/39/39
f 39/39/39 41/41/41 11/11/11
f 40/40/40 41/41/41 39/39/39
f 41/41/41 17/17/17 11/11/11
f 37/37/37 42/42/42 40/40/40
f 38/38/38 42/42/42 37/37/37
f 40/40/40 43/43/43 41/41/41
f 42/42/42 43/43/43 40/40/40
f 41/41/41 44/44/44 17/17/17
f 43/43/43 44/44/44 41/41/41
f 44/44/44 45/45/45 17/17/17
f 45/45/45 10/10/10 17/17/17
f 44/44/44 46/46/46 45/45/45
f 46/46/46 44/44/44 43/43/43
f 43/43/43 42/42/42 47/47/47
f 42/42/42 38/38/38 47/47/47
f 10/10/10 45/45/45 48/48/48
f 46/46/46 48/48/48 45/45/45
f 49/49/49 43/43/43 47/47/47
f 49/49/49 46/46/46 43/43/43
f 50/50/50 10/10/10 48/48/48
f 48/48/48 46/46/46 51/51/51
f 50/50/50 48/48/48 51/51/51
f 10/10/10 50/50/50 52/52/52
f 53/53/53 10/10/10 52/52/52
f 54/54/54 46/46/46 49/49/49
f 46/46/46 54/54/54 51/51/51
f 55/55/55 50/50/50 51/51/51
f 52/52/52 50/50/50 55/55/55
f 53/53/53 52/52/52 56/56/56
f 57/57/57 53/53/53 56/56/56
f 58/58/58 52/52/52 55/55/55
f 56/56/56 52/52/52 58/58/58
f 55/55/55 51/51/51 59/59/59
f 58/58/58 55/55/55 59/59/59
f 56/56/56 60/60/60 57/57/57
f 60/60/60 61/61/61 57/57/57
f 59/59/59 51/51/51 62/62/62
f 51/51/51 54/54/54 62/62/62
f 63/63/63 58/58/58 59/59/59
f 59/59/59 62/62/62 63/63/63
f 64/64/64 56/56/56 58/58/58
f 56/56/56 64/64/64 60/60/60
f 64/64/64 58/58/58 63/63/63
f 61/61/61 60/60/60 65/65/65
f 66/66/66 61/61/61 65/65/65
f 60/60/60 64/64/64 67/67/67
f 65/65/65 60/60/60 67/67/67
f 67/67/67 64/64/64 63/63/63
f 66/66/66 65/65/65 68/68/68
f 68/68/68 65/65/65 67/67/67
f 69/69/69 66/66/66 68/68/68
f 69/69/69 68/68/68 70/70/70
f 67/67/67 63/63/63 71/71/71
f 71/71/71 68/68/68 67/67/67
f 68/68/68 72/72/72 70/70/70
f 72/72/72 68/68/68 71/71/71
f 73/73/73 70/70/70 72/72/72
f 63/63/63 74/74/74 71/71/71
f 62/62/62 74/74/74 63/63/63
f 75/75/75 72/72/72 71/71/71
f 75/75/75 71/71/71 74/74/74
f 76/76/76 75/75/75 74/74/74
f 62/62/62 77/77/77 74/74/74
f 74/74/74 77/77/77 76/76/76
f 62/62/62 54/54/54 77/77/77
f 78/78/78 73/73/73 72/72/72
f 72/72/72 75/75/75 78/78/78
f 54/54/54 79/79/79 77/77/77
f 79/79/79 54/54/54 49/49/49
f 73/73/73 78/78/78 80/80/80
f 81/81/81 73/73/73 80/80/80
f 75/75/75 82/82/82 78/78/78
f 80/80/80 78/78/78 82/82/82
f 77/77/77 79/79/79 83/83/83
f 77/77/77 83/83/83 76/76/76
f 84/84/84 79/79/79 49/49/49
f 79/79/79 84/84/84 83/83/83
f 47/47/47 84/84/84 49/49/49
f 81/81/81 80/80/80 85/85/85
f 86/86/86 81/81/81 85/85/85
f 83/83/83 84/84/84 87/87/87
f 83/83/83 87/87/87 76/76/76
f 84/84/84 47/47/47 88/88/88
f 84/84/84 88/88/88 87/87/87
f 89/89/89 85/85/85 80/80/80
f 89/89/89 80/80/80 82/82/82
f 85/85/85 90/90/90 86/86/86
f 90/90/90 85/85/85 89/89/89
f 90/90/90 91/91/91 86/86/86
f 92/92/92 91/91/91 90/90/90
f 47/47/47 93/93/93 88/88/88
f 38/38/38 93/93/93 47/47/47
f 93/93/93 38/38/38 94/94/94
f 94/94/94 38/38/38 32/32/32
f 94/94/94 32/32/32 92/92/92
f 95/95/95 93/93/93 94/94/94
f 95/95/95 94/94/94 92/92/92
f 96/96/96 92/92/92 90/90/90
f 96/96/96 95/95/95 92/92/92
f 95/95/95 97/97/97 93/93/93
f 97/97/97 88/88/88 93/93/93
f 95/95/95 96/96/96 97/97/97
f 98/98/98 90/90/90 89/89/89
f 90/90/90 98/98/98 96/96/96
f 88/88/88 97/97/97 99/99/99
f 88/88/88 99/99/99 87/87/87
f 97/97/97 96/96/96 100/100/100
f 98/98/98 100/100/100 96/96/96
f 99/99/99 97/97/97 100/100/100
f 98/98/98 89/89/89 101/101/101
f 98/98/98 101/101/101 100/100/100
f 89/89/89 82/82/82 101/101/101
f 102/102/102 87/87/87 99/99/99
f 100/100/100 102/102/102 99/99/99
f 101/101/101 102/102/102 100/100/100
f 87/87/87 102/102/102 76/76/76
f 76/76/76 102/102/102 101/101/101
f 101/101/101 82/82/82 103/103/103
f 103/103/103 76/76/76 101/101/101
f 82/82/82 75/75/75 103/103/103
f 103/103/103 75/75/75 76/76/76
