g mdlVoidPavementChips4
v -39.664715 172.56596 -17.055134
v -38.639076 172.23543 -16.278772
v -38.653797 171.83763 -16.910692
v -39.557716 172.90088 -16.41054
v -39.97083 176.59053 -17.644026
v -39.813156 176.55663 -16.944561
v -38.7143 178.25789 -17.833158
v -35.777206 173.02028 -16.27783
v -35.535194 172.69124 -16.909424
v -38.680775 178.06487 -17.115826
v -37.62496 178.5757 -17.835545
v -35.482235 175.94257 -16.684914
v -35.1889 175.90643 -17.356462
v -37.701836 178.35326 -17.118355
v -24.575918 177.52046 -17.247505
v -25.902578 180.10298 -16.920301
v -25.713198 180.27283 -17.626915
v -24.865618 177.6131 -16.576963
v -26.906828 174.88184 -16.93173
v -28.125687 180.28201 -16.975101
v -28.182026 180.47414 -17.6881
v -28.396046 178.56158 -16.751692
v -28.472265 178.57799 -17.441769
v -26.9688 175.2048 -16.288406
v -30.332571 174.1458 -16.882542
v -30.31316 175.79672 -16.413448
v -30.562498 175.5202 -17.067265
v -30.10913 174.54662 -16.2455
v -26.812885 183.90631 -17.607487
v -30.654192 184.06026 -17.20843
v -30.805466 184.20357 -17.906567
v -27.04461 183.7895 -16.937979
v -25.782173 182.08784 -17.479425
v -26.101892 182.14467 -16.821386
v -26.250286 180.37672 -17.463512
v -26.515427 180.58803 -16.806017
v -28.7528 180.36111 -17.645079
v -28.798508 180.5665 -16.97145
v -34.792988 182.49576 -18.14674
v -34.283714 182.54854 -17.42829
v -59.791866 174.96828 -17.255148
v -59.810482 173.52328 -16.48406
v -60.038948 173.22633 -17.141687
v -59.57562 175.10269 -16.587254
v -60.88875 175.31354 -17.244112
v -56.073544 174.0147 -16.623363
v -55.934986 173.77756 -17.29537
v -54.1573 177.48714 -16.891195
v -53.821087 177.57967 -17.589092
v -60.56861 175.42294 -16.577736
v -56.7153 178.9674 -17.589052
v -56.794144 178.72664 -16.889643
v -60.26792 178.57242 -17.178528
v -61.339447 178.90997 -16.40309
v -61.2659 179.13812 -17.096691
v -60.430756 178.40186 -16.477703
v -60.87123 176.91684 -17.10034
v -65.64703 175.59073 -15.967055
v -66.02141 175.46748 -16.615227
v -60.97051 176.89542 -16.40739
v -62.601147 172.76965 -16.884775
v -62.557354 173.12117 -16.210083
v -65.6316 169.53618 -17.073751
v -65.66355 169.3168 -16.41605
v -67.039856 167.9209 -16.633379
v -67.13017 168.01012 -17.31117
v -65.169106 166.70558 -17.423155
v -65.252304 166.74783 -16.733397
v -56.3689 166.67622 -17.135862
v -56.310074 168.87416 -16.498098
v -56.20645 168.77966 -17.185032
v -56.467113 166.95639 -16.452707
v -58.01934 166.87897 -17.037508
v -55.62476 169.6621 -16.555157
v -55.45314 169.64119 -17.247663
v -57.967945 167.144 -16.363338
v -60.77359 168.32465 -16.893976
v -60.45925 168.47414 -16.233929
v -60.017113 172.7204 -17.022549
v -59.77599 172.44595 -16.350079
v -55.949905 173.29825 -17.284946
v -56.099644 172.98012 -16.587486
v -49.984985 177.3692 -17.671516
v -49.81348 177.37721 -16.990356
v -49.23683 175.87337 -17.009521
v -49.34187 175.71587 -17.692581
v -50.316334 179.47537 -17.644285
v -46.76256 174.68504 -17.022995
v -46.625504 174.40787 -17.707422
v -45.701363 176.33327 -17.00059
v -45.464066 176.21475 -17.68286
v -47.82448 182.41045 -16.92296
v -47.765247 182.92133 -17.597162
v -50.10891 179.28969 -16.965618
vt 0.9434581 0.79821265
vt 0.90056664 0.8485054
vt 0.90056664 0.8485054
vt 0.9434581 0.79821265
vt 0.88496965 0.6071502
vt 0.88496965 0.6071502
vt 0.7991867 0.54671216
vt 0.6997564 0.8485054
vt 0.6997564 0.8485054
vt 0.7991867 0.54671216
vt 0.7426479 0.54476285
vt 0.64516723 0.6968327
vt 0.64516723 0.6968327
vt 0.7426479 0.54476285
vt 0.101620376 0.58216035
vt 0.19715145 0.47103232
vt 0.19715145 0.47103232
vt 0.101620376 0.58216035
vt 0.17570567 0.74007887
vt 0.31412828 0.49052858
vt 0.31412828 0.49052858
vt 0.30827934 0.5841105
vt 0.30827934 0.5841105
vt 0.17570567 0.74007887
vt 0.360919 0.8141645
vt 0.38821363 0.749827
vt 0.38821363 0.749827
vt 0.360919 0.8141645
vt 0.25542548 0.2864166
vt 0.42699146 0.2922653
vt 0.42699146 0.2922653
vt 0.25542548 0.2864166
vt 0.19693714 0.3644008
vt 0.19693714 0.3644008
vt 0.20278597 0.45018384
vt 0.20278597 0.45018384
vt 0.31976277 0.4696801
vt 0.31976277 0.4696801
vt 0.6024567 0.37414894
vt 0.6024567 0.37414894
vt 0.7123177 0.19291452
vt 0.7708061 0.24360445
vt 0.7708061 0.24360445
vt 0.7123177 0.19291452
vt 0.73376346 0.1435537
vt 0.6265347 0.36253047
vt 0.6265347 0.36253047
vt 0.45106947 0.28064686
vt 0.45106947 0.28064686
vt 0.73376346 0.1435537
vt 0.5134571 0.1435537
vt 0.5134571 0.1435537
vt 0.7289527 0.19180307
vt 0.7503985 0.14244223
vt 0.7503985 0.14244223
vt 0.7289527 0.19180307
vt 0.78744113 0.242493
vt 0.98919296 0.14244223
vt 0.98919296 0.14244223
vt 0.78744113 0.242493
vt 0.9556943 0.35044405
vt 0.9556943 0.35044405
vt 0.005168587 0.13940486
vt 0.005168587 0.13940486
vt 0.209279 0.13940486
vt 0.209279 0.13940486
vt 0.15468988 0.24920374
vt 0.15468988 0.24920374
vt 0.8864155 0.58745843
vt 0.8006325 0.52702034
vt 0.8006325 0.52702034
vt 0.8864155 0.58745843
vt 0.9299474 0.5184899
vt 0.74409366 0.5250711
vt 0.74409366 0.5250711
vt 0.9299474 0.5184899
vt 0.9539292 0.3695804
vt 0.9539292 0.3695804
vt 0.78567606 0.26162934
vt 0.78567606 0.26162934
vt 0.6414046 0.38055536
vt 0.6414046 0.38055536
vt 0.17833722 0.3652406
vt 0.17833722 0.3652406
vt 0.18418604 0.45102364
vt 0.18418604 0.45102364
vt 0.15299225 0.26581085
vt 0.088654965 0.5621517
vt 0.088654965 0.5621517
vt 0.0034709573 0.4997643
vt 0.0034709573 0.4997643
vt 0.0034709573 0.15601194
vt 0.0034709573 0.15601194
vt 0.15299225 0.26581085
vn -0.8135319 -0.44555444 0.3736938
vn -0.15072365 -0.50727075 0.84850377
vn -0.17891523 -0.8299061 0.5284366
vn -0.6335743 -0.18358698 0.7515846
vn -0.9224012 0.3215316 0.21399385
vn -0.67708623 0.27126512 0.684083
vn -0.5189784 0.8190153 0.24469423
vn 0.47494072 -0.2949669 0.82911146
vn 0.6605734 -0.5263464 0.5353525
vn -0.4072411 0.6080883 0.6814568
vn 0.21858338 0.9264846 0.3063456
vn 0.5833374 0.31605422 0.7482159
vn 0.8709444 0.33437812 0.36006552
vn 0.16121346 0.7201212 0.67485964
vn 0.9117962 -0.08609427 0.40151635
vn 0.37402362 0.61515194 0.69404197
vn 0.52836615 0.78319055 0.32778338
vn 0.6455596 -0.025518274 0.76328343
vn 0.45749617 -0.7700885 0.44459078
vn -0.49691853 0.59798527 0.6288765
vn -0.5368018 0.8042643 0.2549562
vn -0.5523861 0.3254864 0.76741654
vn -0.92449564 0.36628813 0.10555014
vn 0.33022824 -0.44557786 0.83211154
vn -0.5007636 -0.6458892 0.5762492
vn -0.65820724 0.29580367 0.6922887
vn -0.9406935 0.17910376 0.28812778
vn -0.36713418 -0.4360742 0.82161534
vn 0.512127 0.8002399 0.31199655
vn -0.13563527 0.6787136 0.72176933
vn -0.2056219 0.95265114 0.22399862
vn 0.29336834 0.6190549 0.7284957
vn 0.8982844 0.110383295 0.42532417
vn 0.58280313 0.12249802 0.8033274
vn 0.5483898 -0.7047835 0.45005432
vn 0.33756962 -0.52834034 0.77904
vn -0.17710026 -0.9397239 0.29249707
vn -0.16584817 -0.60870713 0.7758673
vn -0.8156319 -0.023720514 0.57808465
vn -0.66400754 0.009368046 0.74766725
vn -0.7903809 -0.49932665 0.35492384
vn -0.48155305 -0.42037487 0.7690199
vn -0.61375684 -0.61744213 0.49200386
vn -0.2845424 -0.13228564 0.9494925
vn -0.8804003 -0.16396151 0.4449854
vn 0.39016613 -0.5036622 0.77077544
vn 0.54340047 -0.74613756 0.38470086
vn 0.64370173 0.23056732 0.7297169
vn 0.8416601 0.29872683 0.44985607
vn -0.67129654 -0.096823886 0.7348375
vn -0.06642234 0.9488319 0.3087168
vn -0.1258051 0.71134585 0.6914912
vn 0.8847769 0.3624368 0.29293254
vn -0.04741961 0.7039952 0.70861995
vn 0.019899858 0.95047176 0.31017342
vn 0.7246438 0.2070974 0.65726864
vn 0.9267368 -0.35277134 0.12927267
vn -0.6304325 0.09012395 0.7709945
vn -0.86723304 -0.044541266 0.49590617
vn 0.65896547 -0.22266796 0.7184591
vn 0.2369399 -0.86438894 0.44349888
vn 0.28294563 -0.63604116 0.71790904
vn 0.2710305 0.90790725 0.3197609
vn 0.23854451 0.65438026 0.7175535
vn -0.78809804 -0.16794804 0.5921949
vn -0.98545146 -0.11319916 0.12677334
vn 0.5167782 -0.8509284 0.0941338
vn 0.42044955 -0.7303887 0.53828853
vn 0.5831701 -0.71990424 0.37636477
vn 0.535922 -0.19159551 0.8222401
vn 0.9096678 -0.3680622 0.192444
vn 0.5081638 -0.49902803 0.70195484
vn -0.24972902 -0.892496 0.37561473
vn 0.68985283 -0.19599877 0.69691294
vn 0.93524784 -0.2523799 0.24822545
vn -0.14104351 -0.56989783 0.80952036
vn -0.7941313 -0.39805776 0.45924452
vn -0.5496945 -0.2791871 0.7873313
vn -0.5790721 0.6637583 0.47339264
vn -0.41903868 0.46103945 0.7822079
vn 0.5432682 0.71631134 0.43790156
vn 0.4587705 0.51649433 0.7230237
vn -0.9379893 -0.25171632 0.2383589
vn -0.6186167 -0.1774364 0.76539516
vn -0.5089811 -0.46193883 0.7263269
vn -0.69661266 -0.66672546 0.2649677
vn -0.90708876 0.25384724 0.33578518
vn 0.15592591 -0.66419 0.7311216
vn 0.26769757 -0.8739754 0.40559223
vn 0.656867 -0.060657907 0.7515626
vn 0.92126745 -0.1474223 0.35990712
vn 0.11500952 0.6055476 0.7874547
vn 0.12329773 0.7906207 0.5997638
vn -0.6518443 0.11830916 0.7490673
g mdlVoidPavementChips4_0
f 3/3/3 2/2/2 1/1/1
f 2/2/2 4/4/4 1/1/1
f 1/1/1 4/4/4 5/5/5
f 4/4/4 6/6/6 5/5/5
f 4/4/4 2/2/2 6/6/6
f 5/5/5 6/6/6 7/7/7
f 8/8/8 2/2/2 3/3/3
f 6/6/6 2/2/2 8/8/8
f 9/9/9 8/8/8 3/3/3
f 6/6/6 10/10/10 7/7/7
f 10/10/10 6/6/6 8/8/8
f 7/7/7 10/10/10 11/11/11
f 12/12/12 8/8/8 9/9/9
f 10/10/10 8/8/8 12/12/12
f 13/13/13 12/12/12 9/9/9
f 11/11/11 14/14/14 13/13/13
f 10/10/10 14/14/14 11/11/11
f 14/14/14 10/10/10 12/12/12
f 14/14/14 12/12/12 13/13/13
f 17/17/17 16/16/16 15/15/15
f 16/16/16 18/18/18 15/15/15
f 15/15/15 18/18/18 19/19/19
f 20/20/20 16/16/16 17/17/17
f 21/21/21 20/20/20 17/17/17
f 20/20/20 22/22/22 16/16/16
f 22/22/22 20/20/20 21/21/21
f 22/22/22 18/18/18 16/16/16
f 23/23/23 22/22/22 21/21/21
f 18/18/18 24/24/24 19/19/19
f 24/24/24 18/18/18 22/22/22
f 19/19/19 24/24/24 25/25/25
f 26/26/26 22/22/22 23/23/23
f 24/24/24 22/22/22 26/26/26
f 27/27/27 26/26/26 23/23/23
f 25/25/25 28/28/28 27/27/27
f 24/24/24 28/28/28 25/25/25
f 28/28/28 24/24/24 26/26/26
f 28/28/28 26/26/26 27/27/27
f 31/31/31 30/30/30 29/29/29
f 30/30/30 32/32/32 29/29/29
f 29/29/29 32/32/32 33/33/33
f 32/32/32 34/34/34 33/33/33
f 33/33/33 34/34/34 35/35/35
f 34/34/34 32/32/32 36/36/36
f 34/34/34 36/36/36 35/35/35
f 32/32/32 30/30/30 36/36/36
f 35/35/35 36/36/36 37/37/37
f 36/36/36 38/38/38 37/37/37
f 38/38/38 36/36/36 30/30/30
f 37/37/37 38/38/38 39/39/39
f 40/40/40 30/30/30 31/31/31
f 39/39/39 40/40/40 31/31/31
f 40/40/40 38/38/38 30/30/30
f 38/38/38 40/40/40 39/39/39
f 43/43/43 42/42/42 41/41/41
f 42/42/42 44/44/44 41/41/41
f 41/41/41 44/44/44 45/45/45
f 46/46/46 42/42/42 43/43/43
f 42/42/42 46/46/46 44/44/44
f 47/47/47 46/46/46 43/43/43
f 48/48/48 46/46/46 47/47/47
f 46/46/46 48/48/48 44/44/44
f 49/49/49 48/48/48 47/47/47
f 44/44/44 50/50/50 45/45/45
f 44/44/44 48/48/48 50/50/50
f 45/45/45 50/50/50 51/51/51
f 52/52/52 48/48/48 49/49/49
f 51/51/51 52/52/52 49/49/49
f 48/48/48 52/52/52 50/50/50
f 50/50/50 52/52/52 51/51/51
f 55/55/55 54/54/54 53/53/53
f 54/54/54 56/56/56 53/53/53
f 53/53/53 56/56/56 57/57/57
f 58/58/58 54/54/54 55/55/55
f 54/54/54 58/58/58 56/56/56
f 59/59/59 58/58/58 55/55/55
f 56/56/56 60/60/60 57/57/57
f 58/58/58 60/60/60 56/56/56
f 57/57/57 60/60/60 61/61/61
f 62/62/62 58/58/58 59/59/59
f 61/61/61 62/62/62 59/59/59
f 58/58/58 62/62/62 60/60/60
f 60/60/60 62/62/62 61/61/61
f 65/65/65 64/64/64 63/63/63
f 66/66/66 65/65/65 63/63/63
f 63/63/63 64/64/64 67/67/67
f 64/64/64 65/65/65 68/68/68
f 68/68/68 65/65/65 66/66/66
f 67/67/67 68/68/68 66/66/66
f 64/64/64 68/68/68 67/67/67
g mdlVoidPavementChips4_1
f 71/71/71 70/70/70 69/69/69
f 70/70/70 72/72/72 69/69/69
f 69/69/69 72/72/72 73/73/73
f 74/74/74 70/70/70 71/71/71
f 75/75/75 74/74/74 71/71/71
f 72/72/72 76/76/76 73/73/73
f 73/73/73 76/76/76 77/77/77
f 72/72/72 70/70/70 78/78/78
f 76/76/76 72/72/72 78/78/78
f 76/76/76 78/78/78 77/77/77
f 78/78/78 70/70/70 74/74/74
f 77/77/77 78/78/78 79/79/79
f 78/78/78 80/80/80 79/79/79
f 80/80/80 78/78/78 74/74/74
f 79/79/79 80/80/80 81/81/81
f 82/82/82 74/74/74 75/75/75
f 81/81/81 82/82/82 75/75/75
f 82/82/82 80/80/80 74/74/74
f 80/80/80 82/82/82 81/81/81
f 85/85/85 84/84/84 83/83/83
f 86/86/86 85/85/85 83/83/83
f 83/83/83 84/84/84 87/87/87
f 88/88/88 85/85/85 86/86/86
f 89/89/89 88/88/88 86/86/86
f 88/88/88 90/90/90 85/85/85
f 90/90/90 88/88/88 89/89/89
f 90/90/90 84/84/84 85/85/85
f 91/91/91 90/90/90 89/89/89
f 92/92/92 90/90/90 91/91/91
f 90/90/90 92/92/92 84/84/84
f 93/93/93 92/92/92 91/91/91
f 87/87/87 94/94/94 93/93/93
f 84/84/84 94/94/94 87/87/87
f 92/92/92 94/94/94 84/84/84
f 94/94/94 92/92/92 93/93/93
