g mdlVoidPlatformBridge5
v 3.083908 33.83609 -11.3628845
v 14.734589 -29.801575 2.5085716
v 15.271744 -29.720062 5.33692
v 3.6210785 33.91748 -8.534523
v -4.007126 -34.155212 6.3180676
v -15.6577 29.48236 -7.553402
v -15.120605 29.563843 -4.725048
v -3.469986 -34.0737 9.146437
v 3.6210785 33.91748 -8.534523
v 2.7300415 34.058044 -11.3322525
v 3.083908 33.83609 -11.3628845
v 3.2671661 34.139618 -8.503918
v -15.443558 29.836365 -7.638237
v -14.90654 29.917816 -4.809868
v -15.6577 29.48236 -7.553402
v -15.120605 29.563843 -4.725048
v 14.734589 -29.801575 2.5085716
v 15.057556 -30.073975 5.4217625
v 15.271744 -29.720062 5.33692
v 14.520416 -30.155518 2.5934334
v -3.1160583 -34.295746 9.115807
v -3.6531677 -34.377228 6.2874336
v -3.469986 -34.0737 9.146437
v -4.007126 -34.155212 6.3180676
v 14.383911 -29.877686 2.2155228
v 14.520416 -30.155518 2.5934334
v 14.734589 -29.801575 2.5085716
v 3.083908 33.83609 -11.3628845
v -3.7896729 -34.099396 5.9095306
v -3.6531677 -34.377228 6.2874336
v -4.007126 -34.155212 6.3180676
v 2.7333527 33.75995 -11.655964
v 2.7300415 34.058044 -11.3322525
v -15.443558 29.836365 -7.638237
v -15.440338 29.5383 -7.961933
v -15.6577 29.48236 -7.553402
v 15.054352 -29.77594 5.745455
v 15.271744 -29.720062 5.33692
v 15.057556 -30.073975 5.4217625
v -3.1160583 -34.295746 9.115807
v 3.4036865 33.861694 -8.126011
v 3.6210785 33.91748 -8.534523
v 3.2671661 34.139618 -8.503918
v -3.1193237 -33.99765 9.439478
v -3.469986 -34.0737 9.146437
v -15.120605 29.563843 -4.725048
v -14.769913 29.639984 -4.431984
v -14.90654 29.917816 -4.809868
v 2.5813293 32.619568 -7.3705025
v 13.840103 -28.877869 6.034445
v -13.46611 28.891815 -4.108673
v -2.2073364 -32.60559 9.29628
v 2.434204 32.409424 -6.6552734
v 12.7035675 -27.849945 6.8539524
v 1.8365784 31.507355 -6.0844917
v 13.587189 -28.510315 6.623747
v -1.2176514 -31.083832 9.683632
v -13.039261 28.814972 -3.510109
v -12.084656 28.273438 -3.2548294
v -1.8862762 -32.104675 9.768917
v 13.840103 -28.877869 6.034445
v 2.5813293 32.619568 -7.3705025
v -2.2073364 -32.60559 9.29628
v -13.46611 28.891815 -4.108673
v 1.680191 31.281647 -5.43264
v 1.8365784 31.507355 -6.0844917
v 12.7035675 -27.849945 6.8539524
v 12.441391 -27.497833 7.3798313
v -1.2176514 -31.083832 9.683632
v -11.667084 28.181122 -2.719677
v -12.084656 28.273438 -3.2548294
v -0.90582275 -30.598358 10.092827
vt 0.112864554 -0.02999571
vt 0.11363393 1.0006695
vt 0.15748888 1.0101254
vt 0.15671903 -0.020537734
vt 0.111787856 -0.020456731
vt 0.114744365 1.0102031
vt 0.15856451 1.0005882
vt 0.15560871 -0.030070871
vt 0.1613394 0.864799
vt 0.116537094 0.861781
vt 0.1167742 0.86535335
vt 0.16110396 0.86144185
vt 0.11613494 0.56745577
vt 0.16070199 0.5671146
vt 0.11489618 0.5618342
vt 0.1594609 0.5612793
vt 0.11584699 0.55731314
vt 0.16088772 0.56242305
vt 0.16042107 0.5577921
vt 0.116313756 0.56194323
vt 0.15955973 0.8568011
vt 0.114985466 0.8563208
vt 0.15905172 0.86137253
vt 0.11447728 0.86089295
vt 0.6283536 0.99184704
vt 0.62828743 0.9969442
vt 0.632764 0.99248683
vt 0.6569495 0.0075033903
vt 0.34381926 0.9922415
vt 0.3437538 0.99733806
vt 0.3393364 0.9928931
vt 0.6525414 0.00685519
vt 0.6525413 0.003050387
vt 0.36800742 0.0028799176
vt 0.3680055 0.0066843033
vt 0.36352146 0.0073289275
vt 0.012122581 2.9997375
vt 0.007698426 2.9987674
vt 0.012116978 3.00316
vt 0.99192774 3.0037787
vt 0.010036835 0.00639262
vt 0.005610654 0.005437992
vt 0.009962896 0.0010483484
vt 0.9919342 3.0003552
vt 0.9962939 2.9994044
vt 0.99420583 0.0051654796
vt 0.9898484 0.0061291675
vt 0.9897752 0.00078602834
vt 0.03550394 0.022603355
vt 0.034784928 2.983256
vt 0.96653503 0.022370301
vt 0.96581525 2.9838011
vt 0.040328965 0.026739977
vt 0.06262884 2.9665275
vt 0.06615216 0.038565002
vt 0.038854048 2.9785686
vt 0.9334939 2.9670007
vt 0.9624843 0.026515745
vt 0.93701845 0.038363837
vt 0.961008 2.9790933
vt 0.034784928 2.983256
vt 0.03550394 0.022603355
vt 0.96581525 2.9838011
vt 0.96653503 0.022370301
vt 0.07097704 0.04273226
vt 0.06615216 0.038565002
vt 0.06262884 2.9665275
vt 0.06669632 2.9618678
vt 0.9334939 2.9670007
vt 0.9329677 0.04253813
vt 0.93701845 0.038363837
vt 0.9286863 2.9623222
vn 0.74675083 0.45130223 -0.4885586
vn 0.86725223 -0.22946984 -0.44183403
vn 0.9804791 -0.12829424 0.14900067
vn 0.8335091 0.54101354 0.11210267
vn -0.8334655 -0.5410784 -0.11211327
vn -0.9804921 0.12818722 -0.14900781
vn -0.8672618 0.22936733 0.44186834
vn -0.7467458 -0.451268 0.4885979
vn 0.8335091 0.54101354 0.11210267
vn 0.07782522 0.9239757 -0.37444928
vn 0.74675083 0.45130223 -0.4885586
vn 0.18350689 0.95695823 0.22484681
vn -0.5912103 0.76966125 -0.24102281
vn -0.47283974 0.80673134 0.35441077
vn -0.9804921 0.12818722 -0.14900781
vn -0.8672618 0.22936733 0.44186834
vn 0.86725223 -0.22946984 -0.44183403
vn 0.5911419 -0.7697117 0.24102953
vn 0.9804791 -0.12829424 0.14900067
vn 0.47273898 -0.8068183 -0.3543472
vn -0.0778228 -0.9239773 0.37444565
vn -0.183435 -0.95697516 -0.22483356
vn -0.7467458 -0.451268 0.4885979
vn -0.8334655 -0.5410784 -0.11211327
vn 0.29561633 -0.4268327 -0.854649
vn 0.47273898 -0.8068183 -0.3543472
vn 0.86725223 -0.22946984 -0.44183403
vn 0.74675083 0.45130223 -0.4885586
vn -0.4170425 -0.55439997 -0.7202196
vn -0.183435 -0.95697516 -0.22483356
vn -0.8334655 -0.5410784 -0.11211327
vn 0.14356367 0.30350456 -0.9419524
vn 0.07782522 0.9239757 -0.37444928
vn -0.5912103 0.76966125 -0.24102281
vn -0.57803404 0.16655561 -0.7988341
vn -0.9804921 0.12818722 -0.14900781
vn 0.6150878 -0.20106319 0.7623913
vn 0.9804791 -0.12829424 0.14900067
vn 0.5911419 -0.7697117 0.24102953
vn -0.0778228 -0.9239773 0.37444565
vn 0.43599862 0.584889 0.68396646
vn 0.8335091 0.54101354 0.11210267
vn 0.18350689 0.95695823 0.22484681
vn -0.17215428 -0.34420466 0.92297673
vn -0.7467458 -0.451268 0.4885979
vn -0.8672618 0.22936733 0.44186834
vn -0.34282485 0.44943276 0.8249129
vn -0.47283974 0.80673134 0.35441077
vn 0.23901068 0.38417402 0.8917871
vn 0.311017 0.117002554 0.9431748
vn -0.035552546 0.3435837 0.9384489
vn 0.03739258 0.077985205 0.996253
vn 0.45113978 0.7015179 0.55167514
vn 0.32467982 0.10683602 0.93977076
vn 0.24687013 0.39605993 0.884416
vn 0.6616111 -0.18799038 0.72589976
vn 0.028629513 0.06458763 0.9975013
vn -0.45127857 0.5396297 0.71073735
vn -0.050276596 0.35197455 0.93465835
vn -0.23737021 -0.3441329 0.90842056
vn 0.77667695 -0.3278834 0.537834
vn 0.511891 0.79000145 0.33743936
vn -0.34787196 -0.5157628 0.78292644
vn -0.6219551 0.5865263 0.5188052
vn 0.42062512 0.6563709 0.6263001
vn 0.50060296 0.7738408 0.3880299
vn 0.75747013 -0.3011341 0.5792731
vn 0.6049022 -0.13022801 0.7855788
vn -0.32437998 -0.47913674 0.8156014
vn -0.37679082 0.51158136 0.77221316
vn -0.5905423 0.5801897 0.56092757
vn -0.19080074 -0.27217802 0.94314057
g mdlVoidPlatformBridge5_0
f 3/3/3 2/2/2 1/1/1
f 4/4/4 3/3/3 1/1/1
f 7/7/7 6/6/6 5/5/5
f 8/8/8 7/7/7 5/5/5
f 11/11/11 10/10/10 9/9/9
f 10/10/10 12/12/12 9/9/9
f 12/12/12 10/10/10 13/13/13
f 14/14/14 12/12/12 13/13/13
f 13/13/13 15/15/15 14/14/14
f 15/15/15 16/16/16 14/14/14
f 19/19/19 18/18/18 17/17/17
f 18/18/18 20/20/20 17/17/17
f 18/18/18 21/21/21 20/20/20
f 21/21/21 22/22/22 20/20/20
f 22/22/22 21/21/21 23/23/23
f 24/24/24 22/22/22 23/23/23
f 27/27/27 26/26/26 25/25/25
f 28/28/28 27/27/27 25/25/25
f 25/25/25 26/26/26 29/29/29
f 26/26/26 30/30/30 29/29/29
f 31/31/31 29/29/29 30/30/30
f 32/32/32 28/28/28 25/25/25
f 32/32/32 25/25/25 29/29/29
f 28/28/28 32/32/32 33/33/33
f 34/34/34 33/33/33 32/32/32
f 29/29/29 31/31/31 35/35/35
f 35/35/35 32/32/32 29/29/29
f 35/35/35 34/34/34 32/32/32
f 31/31/31 36/36/36 35/35/35
f 34/34/34 35/35/35 36/36/36
f 39/39/39 38/38/38 37/37/37
f 40/40/40 39/39/39 37/37/37
f 37/37/37 38/38/38 41/41/41
f 38/38/38 42/42/42 41/41/41
f 43/43/43 41/41/41 42/42/42
f 44/44/44 40/40/40 37/37/37
f 40/40/40 44/44/44 45/45/45
f 46/46/46 45/45/45 44/44/44
f 41/41/41 43/43/43 47/47/47
f 47/47/47 46/46/46 44/44/44
f 43/43/43 48/48/48 47/47/47
f 46/46/46 47/47/47 48/48/48
f 41/41/41 49/49/49 37/37/37
f 49/49/49 50/50/50 37/37/37
f 37/37/37 50/50/50 44/44/44
f 51/51/51 49/49/49 41/41/41
f 47/47/47 51/51/51 41/41/41
f 50/50/50 52/52/52 44/44/44
f 52/52/52 51/51/51 47/47/47
f 44/44/44 52/52/52 47/47/47
f 55/55/55 54/54/54 53/53/53
f 54/54/54 56/56/56 53/53/53
f 54/54/54 57/57/57 56/56/56
f 55/55/55 53/53/53 58/58/58
f 59/59/59 55/55/55 58/58/58
f 57/57/57 59/59/59 60/60/60
f 57/57/57 60/60/60 56/56/56
f 59/59/59 58/58/58 60/60/60
f 56/56/56 61/61/61 53/53/53
f 61/61/61 62/62/62 53/53/53
f 53/53/53 62/62/62 58/58/58
f 63/63/63 61/61/61 56/56/56
f 60/60/60 63/63/63 56/56/56
f 62/62/62 64/64/64 58/58/58
f 64/64/64 63/63/63 60/60/60
f 58/58/58 64/64/64 60/60/60
f 67/67/67 66/66/66 65/65/65
f 68/68/68 67/67/67 65/65/65
f 69/69/69 67/67/67 68/68/68
f 65/65/65 66/66/66 70/70/70
f 65/65/65 70/70/70 68/68/68
f 66/66/66 71/71/71 70/70/70
f 71/71/71 69/69/69 72/72/72
f 72/72/72 69/69/69 68/68/68
f 70/70/70 72/72/72 68/68/68
f 70/70/70 71/71/71 72/72/72
