g mdlVoidGravityLandingPadFX
v -2.0680392 1.6255369 0.17293307
v -0.6190018 1.4869787 0.172943
v -1.1450822 1.1365068 0.17291933
v -1.1694131 1.9856462 0.17294489
v -2.9909964 2.1145668 0.17294681
v -3.2037497E-06 1.612361 0.17294636
v -1.7198246 2.4843144 0.17294681
v -4.2170286E-06 2.074639 0.17294659
v 0.6189954 1.4869784 0.172943
v -5.2452087E-06 2.536917 0.17294681
v 1.1694034 1.9856462 0.17294489
v 1.1450759 1.1365067 0.17291933
v 2.0680285 1.6255368 0.17293307
v 1.4943916 0.60856724 0.17273663
v 1.7198116 2.4843142 0.17294681
v 2.9909806 2.1145668 0.17294681
v 2.493448 0.91208124 0.17278627
v 1.619383 -0.012787893 0.17178214
v 3.4925048 1.2155954 0.17283592
v 2.5166793 -0.007074766 0.17192093
v 1.4943916 -0.6343565 0.16959189
v 3.413976 -0.0013616681 0.1720597
v 2.2525396 -0.9376802 0.16982141
v 1.1450759 -1.1627656 0.16677114
v 1.7176156 -1.7289294 0.16670315
v 0.6189955 -1.5137072 0.16424373
v 3.0106878 -1.2410039 0.17005095
v 0.92849505 -2.2545085 0.16329251
v -3.0994415E-06 -1.6393033 0.16313891
v 2.2901554 -2.295093 0.16663514
v -2.7865171E-06 -2.4426267 0.16162935
v -0.61900175 -1.5137073 0.16424373
v 1.2379947 -2.99531 0.16234127
v -0.92850065 -2.2545087 0.1632925
v -1.1450822 -1.1627659 0.16677114
v -2.413988E-06 -3.24595 0.16011979
v -1.7176216 -1.7289299 0.16670316
v -1.494398 -0.6343567 0.1695919
v -1.2379998 -2.9953105 0.16234128
v -2.2525454 -0.9376804 0.16982141
v -1.6193894 -0.012787893 0.17178214
v -2.2901607 -2.2950938 0.16663516
v -2.5166867 -0.0070748627 0.17192093
v -1.494398 0.60856736 0.17273663
v -3.0106933 -1.2410042 0.17005096
v -2.4934576 0.91208136 0.17278627
v -1.1450822 1.1365068 0.17291933
v -2.0680392 1.6255369 0.17293307
v -3.413984 -0.0013618469 0.1720597
v -3.4925175 1.2155956 0.17283593
v -2.9909964 2.1145668 0.17294681
v -3.2726092 2.3262858 0.17326719
v -3.8213503 1.3426733 0.17314583
v -3.554222 2.538005 0.17358755
v -3.413984 -0.0013618469 0.1720597
v -4.1501837 1.4697511 0.17345577
v -3.7354228 0.011135057 0.17229654
v -4.0568614 0.02363193 0.1725334
v -3.2941608 -1.3452241 0.17009865
v -3.5776281 -1.449444 0.17014638
v -2.5057874 -2.4985597 0.16636126
v -2.721414 -2.702026 0.16608736
v -1.3545617 -3.2647045 0.16166307
v -1.4711238 -3.5340986 0.1609849
v -2.6226044E-06 -3.5389426 0.15923244
v -1.4711238 -3.5340986 0.1609849
v -2.861023E-06 -3.8319354 0.15834509
v 1.3545563 -3.264704 0.16166307
v 1.471118 -3.5340984 0.1609849
v 2.505782 -2.4985592 0.16636124
v 2.7214084 -2.7020254 0.16608734
v 3.2941546 -1.3452237 0.17009866
v 3.5776217 -1.4494436 0.17014638
v 3.735414 0.011135176 0.17229654
v 3.4925048 1.2155954 0.17283592
v 4.0568523 0.02363202 0.17253338
v 3.8213363 1.342673 0.17314585
v 2.9909806 2.1145668 0.17294681
v 4.1501684 1.469751 0.17345577
v 3.2725923 2.3262858 0.17326719
v 1.7198116 2.4843142 0.17294681
v 3.5542037 2.5380046 0.17358755
v 1.8817377 2.730846 0.17326716
v 2.0436645 2.9773784 0.17358755
v -5.751848E-06 2.7884018 0.17326719
v -1.7198246 2.4843144 0.17294681
v -6.2584877E-06 3.039887 0.17358755
v -1.8817521 2.7308464 0.17326716
v -2.9909964 2.1145668 0.17294681
v -2.04368 2.9773786 0.17358755
v -3.2726092 2.3262858 0.17326719
v -3.554222 2.538005 0.17358755
vt -0.00079238426 0.3626327
vt 0.07371167 -0.004734031
vt -0.00079238426 -0.00473404
vt 0.07371166 0.36263272
vt -0.00079238426 0.7299994
vt 0.14821568 -0.0047339704
vt 0.07371167 0.7299995
vt 0.14821568 0.3626328
vt 0.22194749 -0.004733831
vt 0.14821568 0.7299996
vt 0.22194748 0.36263284
vt 0.29104674 -0.004733692
vt 0.29104674 0.362633
vt 0.35258183 -0.004733632
vt 0.22194749 0.7299996
vt 0.29104674 0.72999966
vt 0.35258177 0.362633
vt 0.41042468 -0.004733623
vt 0.35258183 0.7299997
vt 0.4104247 0.3626331
vt 0.46905902 -0.0047336225
vt 0.41042465 0.72999984
vt 0.469059 0.36263308
vt 0.52861243 -0.004733623
vt 0.52861243 0.36263314
vt 0.58828723 -0.0047336225
vt 0.469059 0.72999984
vt 0.5882872 0.3626331
vt 0.64794075 -0.004733623
vt 0.52861243 0.7299999
vt 0.64794075 0.36263314
vt 0.7075943 -0.004733616
vt 0.58828723 0.7299999
vt 0.70759416 0.3626332
vt 0.7672691 -0.004733573
vt 0.64794075 0.7299999
vt 0.767269 0.36263326
vt 0.8268224 -0.0047334735
vt 0.7075943 0.73
vt 0.8268224 0.3626333
vt 0.885457 -0.0047333743
vt 0.7672691 0.7300001
vt 0.88545704 0.36263338
vt 0.9425277 -0.0047333306
vt 0.8268224 0.73000014
vt 0.94252765 0.36263338
vt 0.9986583 -0.0047333245
vt 0.9986583 0.3626334
vt 0.885457 0.7300001
vt 0.9425277 0.7300001
vt 0.9986583 0.73000014
vt 0.9986583 0.86507916
vt 0.94252765 0.86507916
vt 0.9986583 1.0001582
vt 0.885457 0.7300001
vt 0.9425277 1.0001581
vt 0.88545704 0.86507916
vt 0.885457 1.0001582
vt 0.8268224 0.8650791
vt 0.8268224 1.0001582
vt 0.7672691 0.86507916
vt 0.7672691 1.0001582
vt 0.7075942 0.8650791
vt 0.7075943 1.0001582
vt 0.64794075 0.86507905
vt 0.7075943 1.0001582
vt 0.64794075 1.0001582
vt 0.5882872 0.865079
vt 0.58828723 1.0001581
vt 0.52861243 0.86507905
vt 0.52861243 1.0001581
vt 0.469059 0.8650789
vt 0.469059 1.0001581
vt 0.41042468 0.8650789
vt 0.35258183 0.7299997
vt 0.41042465 1.0001581
vt 0.35258177 0.8650788
vt 0.29104674 0.72999966
vt 0.35258183 1.000158
vt 0.29104674 0.8650788
vt 0.22194749 0.7299996
vt 0.29104674 1.000158
vt 0.22194746 0.86507875
vt 0.22194749 1.000158
vt 0.14821568 0.86507875
vt 0.07371167 0.7299995
vt 0.14821568 1.000158
vt 0.07371166 0.8650787
vt -0.00079238426 0.7299994
vt 0.07371167 1.0001578
vt -0.00079238426 0.8650787
vt -0.00079238426 1.000158
vn -2.350876E-05 -0.00010363922 1
vn -0 -1.3629481E-05 1
vn -3.1013147E-05 -0.00011241261 1
vn -0 -1.4015026E-05 1
vn -1.7955988E-05 -0.000102608225 1
vn -0 0 1
vn -0 -1.2393712E-05 1
vn -0 0 1
vn -0 -1.3629481E-05 1
vn -0 0 1
vn -0 -1.40150005E-05 1
vn 3.10174E-05 -0.00011241263 1
vn 2.3510856E-05 -0.000103640064 1
vn 7.547452E-05 -0.0006741056 0.99999976
vn -0 -1.23937025E-05 1
vn 1.7960849E-05 -0.0001026106 1
vn 4.7187412E-05 -0.00055789255 0.9999999
vn -0.0002996357 -0.0018843517 0.9999982
vn 2.6355041E-05 -0.00043915125 0.9999999
vn -0.000269148 -0.0015254024 0.9999988
vn -0.0014133311 -0.0028337524 0.999995
vn -0.00021573172 -0.0011840535 0.9999993
vn -0.0012415395 -0.0024094908 0.9999963
vn -0.0024432964 -0.002856088 0.99999297
vn -0.0022545399 -0.0026234079 0.99999404
vn -0.002081485 -0.002257439 0.99999535
vn -0.0010786233 -0.0020436882 0.9999974
vn -0.0020197143 -0.0022150958 0.9999956
vn -0 -0.0018759321 0.9999982
vn -0.0021036728 -0.0024398915 0.9999949
vn -0 -0.0018764512 0.9999982
vn 0.0020814857 -0.002257447 0.99999535
vn -0.0019718523 -0.0021822145 0.9999957
vn 0.0020197215 -0.0022150907 0.9999956
vn 0.0024433 -0.002856092 0.99999297
vn -0 -0.0018768527 0.9999982
vn 0.0022545536 -0.0026234034 0.99999404
vn 0.0014133252 -0.0028337475 0.999995
vn 0.0019718646 -0.0021821994 0.9999957
vn 0.0012415444 -0.0024094826 0.9999963
vn 0.00029962635 -0.0018843473 0.9999982
vn 0.0021036947 -0.0024398807 0.9999949
vn 0.00026915278 -0.0015253994 0.9999988
vn -7.54751E-05 -0.0006741055 0.99999976
vn 0.0010786372 -0.0020436773 0.9999974
vn -4.718013E-05 -0.0005578934 0.9999999
vn -3.1013147E-05 -0.00011241261 1
vn -2.350876E-05 -0.00010363922 1
vn 0.00021574757 -0.0011840521 0.9999993
vn -2.6341857E-05 -0.00043915177 0.9999999
vn -1.7955988E-05 -0.000102608225 1
vn 0.00052674557 -0.00081254164 0.9999995
vn 0.0007249839 -0.00056289916 0.99999964
vn 0.0005717271 -0.00075275614 0.99999964
vn 0.00069595984 -0.001049405 0.9999993
vn 0.0007263029 -0.0005596086 0.99999964
vn 0.0006981524 -0.0009950864 0.9999993
vn 0.0007006966 -0.0009313773 0.9999994
vn 0.00088454026 -0.001948068 0.99999774
vn 0.0008697678 -0.0019077407 0.99999785
vn 0.0014771973 -0.002911661 0.99999475
vn 0.0014672509 -0.0029010666 0.99999475
vn 0.001524522 -0.003177073 0.9999938
vn 0.0015282612 -0.003178646 0.9999938
vn -0 -0.0030285476 0.99999547
vn 0.0015282612 -0.003178646 0.9999938
vn -0 -0.0030285197 0.99999547
vn -0.0015245359 -0.0031770556 0.9999938
vn -0.0015282519 -0.0031786396 0.9999938
vn -0.0014772514 -0.0029116566 0.99999475
vn -0.0014672877 -0.0029010782 0.99999475
vn -0.0008845705 -0.001948071 0.99999774
vn -0.0008697299 -0.0019077583 0.99999785
vn -0.00069812825 -0.0009950896 0.9999993
vn -0.00072407105 -0.0005651862 0.99999964
vn -0.0007006029 -0.00093139044 0.9999994
vn -0.00072497973 -0.0005629066 0.99999964
vn -0.000499648 -0.00084856537 0.9999995
vn -0.0007262746 -0.00055960915 0.99999964
vn -0.0005267496 -0.0008125444 0.9999995
vn -0.00014335178 -0.0012053085 0.9999993
vn -0.0005717215 -0.00075274927 0.99999964
vn -0.00017815671 -0.0011824768 0.9999993
vn -0.00021904151 -0.001155643 0.9999993
vn -0 -0.0012739061 0.99999917
vn 0.00014335115 -0.0012053091 0.9999993
vn -0 -0.0012739339 0.99999917
vn 0.00017815917 -0.0011824764 0.9999993
vn 0.00049962965 -0.00084855466 0.9999995
vn 0.00021905178 -0.0011556415 0.9999993
vn 0.00052674557 -0.00081254164 0.9999995
vn 0.0005717271 -0.00075275614 0.99999964
g mdlVoidGravityLandingPadFX_0
f 3/3/3 2/2/2 1/1/1
f 2/2/2 4/4/4 1/1/1
f 1/1/1 4/4/4 5/5/5
f 2/2/2 6/6/6 4/4/4
f 4/4/4 7/7/7 5/5/5
f 6/6/6 8/8/8 4/4/4
f 4/4/4 8/8/8 7/7/7
f 6/6/6 9/9/9 8/8/8
f 8/8/8 10/10/10 7/7/7
f 9/9/9 11/11/11 8/8/8
f 8/8/8 11/11/11 10/10/10
f 9/9/9 12/12/12 11/11/11
f 12/12/12 13/13/13 11/11/11
f 12/12/12 14/14/14 13/13/13
f 11/11/11 15/15/15 10/10/10
f 11/11/11 13/13/13 15/15/15
f 13/13/13 16/16/16 15/15/15
f 14/14/14 17/17/17 13/13/13
f 13/13/13 17/17/17 16/16/16
f 14/14/14 18/18/18 17/17/17
f 17/17/17 19/19/19 16/16/16
f 18/18/18 20/20/20 17/17/17
f 17/17/17 20/20/20 19/19/19
f 18/18/18 21/21/21 20/20/20
f 20/20/20 22/22/22 19/19/19
f 21/21/21 23/23/23 20/20/20
f 20/20/20 23/23/23 22/22/22
f 21/21/21 24/24/24 23/23/23
f 24/24/24 25/25/25 23/23/23
f 24/24/24 26/26/26 25/25/25
f 23/23/23 27/27/27 22/22/22
f 23/23/23 25/25/25 27/27/27
f 26/26/26 28/28/28 25/25/25
f 26/26/26 29/29/29 28/28/28
f 25/25/25 30/30/30 27/27/27
f 25/25/25 28/28/28 30/30/30
f 29/29/29 31/31/31 28/28/28
f 29/29/29 32/32/32 31/31/31
f 28/28/28 33/33/33 30/30/30
f 28/28/28 31/31/31 33/33/33
f 32/32/32 34/34/34 31/31/31
f 32/32/32 35/35/35 34/34/34
f 31/31/31 36/36/36 33/33/33
f 31/31/31 34/34/34 36/36/36
f 35/35/35 37/37/37 34/34/34
f 35/35/35 38/38/38 37/37/37
f 34/34/34 39/39/39 36/36/36
f 34/34/34 37/37/37 39/39/39
f 38/38/38 40/40/40 37/37/37
f 38/38/38 41/41/41 40/40/40
f 37/37/37 42/42/42 39/39/39
f 37/37/37 40/40/40 42/42/42
f 41/41/41 43/43/43 40/40/40
f 41/41/41 44/44/44 43/43/43
f 40/40/40 45/45/45 42/42/42
f 40/40/40 43/43/43 45/45/45
f 44/44/44 46/46/46 43/43/43
f 44/44/44 47/47/47 46/46/46
f 47/47/47 48/48/48 46/46/46
f 43/43/43 46/46/46 49/49/49
f 43/43/43 49/49/49 45/45/45
f 46/46/46 50/50/50 49/49/49
f 46/46/46 48/48/48 50/50/50
f 48/48/48 51/51/51 50/50/50
f 51/51/51 52/52/52 50/50/50
f 52/52/52 53/53/53 50/50/50
f 52/52/52 54/54/54 53/53/53
f 50/50/50 53/53/53 55/55/55
f 54/54/54 56/56/56 53/53/53
f 53/53/53 57/57/57 55/55/55
f 53/53/53 56/56/56 57/57/57
f 55/55/55 57/57/57 45/45/45
f 56/56/56 58/58/58 57/57/57
f 57/57/57 59/59/59 45/45/45
f 57/57/57 58/58/58 59/59/59
f 45/45/45 59/59/59 42/42/42
f 58/58/58 60/60/60 59/59/59
f 59/59/59 61/61/61 42/42/42
f 59/59/59 60/60/60 61/61/61
f 42/42/42 61/61/61 39/39/39
f 60/60/60 62/62/62 61/61/61
f 61/61/61 63/63/63 39/39/39
f 61/61/61 62/62/62 63/63/63
f 62/62/62 64/64/64 63/63/63
f 39/39/39 63/63/63 36/36/36
f 63/63/63 65/65/65 36/36/36
f 63/63/63 66/66/66 65/65/65
f 36/36/36 65/65/65 33/33/33
f 66/66/66 67/67/67 65/65/65
f 65/65/65 68/68/68 33/33/33
f 65/65/65 67/67/67 68/68/68
f 33/33/33 68/68/68 30/30/30
f 67/67/67 69/69/69 68/68/68
f 68/68/68 70/70/70 30/30/30
f 68/68/68 69/69/69 70/70/70
f 30/30/30 70/70/70 27/27/27
f 69/69/69 71/71/71 70/70/70
f 70/70/70 72/72/72 27/27/27
f 70/70/70 71/71/71 72/72/72
f 27/27/27 72/72/72 22/22/22
f 71/71/71 73/73/73 72/72/72
f 72/72/72 74/74/74 22/22/22
f 72/72/72 73/73/73 74/74/74
f 22/22/22 74/74/74 75/75/75
f 73/73/73 76/76/76 74/74/74
f 74/74/74 77/77/77 75/75/75
f 74/74/74 76/76/76 77/77/77
f 75/75/75 77/77/77 78/78/78
f 76/76/76 79/79/79 77/77/77
f 77/77/77 80/80/80 78/78/78
f 77/77/77 79/79/79 80/80/80
f 78/78/78 80/80/80 81/81/81
f 79/79/79 82/82/82 80/80/80
f 80/80/80 83/83/83 81/81/81
f 80/80/80 82/82/82 83/83/83
f 81/81/81 83/83/83 10/10/10
f 82/82/82 84/84/84 83/83/83
f 83/83/83 85/85/85 10/10/10
f 83/83/83 84/84/84 85/85/85
f 10/10/10 85/85/85 86/86/86
f 84/84/84 87/87/87 85/85/85
f 85/85/85 88/88/88 86/86/86
f 85/85/85 87/87/87 88/88/88
f 86/86/86 88/88/88 89/89/89
f 87/87/87 90/90/90 88/88/88
f 88/88/88 91/91/91 89/89/89
f 88/88/88 90/90/90 91/91/91
f 90/90/90 92/92/92 91/91/91
