g mdlVoidSupportPlatform.004
v 15.314376 15.469391 21.48085
v 13.461346 16.081505 21.480852
v 17.298077 14.888351 21.480854
v 16.214184 -21.241896 21.480848
v 18.168924 -20.555054 21.480852
v 14.3955555 -21.943335 21.480852
v 11.95998 -21.583847 21.480852
v 9.66473 -21.885963 21.48085
v 9.622779 -22.8927 21.480852
v 12.040297 -22.574486 21.480848
v 14.3955555 -21.943335 21.480852
v 14.196101 -20.984625 21.48085
v 18.168924 -20.555054 21.480852
v 15.922749 -20.31867 21.480852
v 17.983433 -19.260092 21.480852
v 19.834482 -19.500443 21.48085
v 20.253265 -17.661333 21.48085
v 21.942215 -16.079643 21.480852
v 21.39046 -18.286095 21.480852
v 23.161182 -16.572477 21.48085
v 23.440897 -14.313094 21.480852
v 24.695463 -14.639446 21.48085
v 24.694288 -12.369043 21.48085
v 25.527384 -10.714059 21.480852
v 25.750042 -12.9739275 21.48085
v 26.637514 -11.210912 21.48085
v 27.34694 -9.371555 21.480852
v 26.342344 -8.548386 21.48085
v 26.950779 -5.839506 21.480852
v 27.98528 -6.9894595 21.480846
v 28.307116 -4.544361 21.480852
v 28.347498 -2.080586 21.48085
v 27.162872 -2.605461 21.480852
v 27.985283 0.85727143 21.480848
v 26.867926 0.1583004 21.480852
v 26.342356 2.4117444 21.48085
v 27.346905 3.239484 21.480852
v 25.52739 4.577444 21.480852
v 26.63747 5.078827 21.480848
v 25.509815 7.2739563 21.480852
v 24.694319 6.232395 21.48085
v 23.440876 8.176535 21.480852
v 24.107454 9.300055 21.48085
v 21.942184 9.943081 21.480852
v 22.481417 11.154285 21.480846
v 20.627169 12.780332 21.480852
v 20.253225 11.524774 21.48085
v 19.01544 13.915529 21.48085
v 18.372383 12.872729 21.48085
v 16.347427 13.997966 21.480852
v 17.298077 14.888351 21.480854
v 13.461346 16.081505 21.480852
v 14.196156 14.84802 21.48085
v 12.410488 15.342219 21.480852
v 11.079946 16.595901 21.48085
v 10.587173 15.658519 21.48085
v 8.277006 15.809993 21.480852
v 8.648105 16.795399 21.48085
v 6.6995 16.747488 21.48085
v 5.5058217 15.605453 21.480852
v 4.2819333 16.429268 21.480848
v 1.9266624 15.798107 21.480852
v 3.2448564 15.117068 21.480852
v 1.4855514 14.5359125 21.480852
v 0.108092666 15.096693 21.48085
v -0.2062087 13.78593 21.48085
v -1.6350409 14.219229 21.480854
v -1.8183441 12.872712 21.480852
v -3.2818246 13.176504 21.48085
v -3.3313103 11.807076 21.48085
v -4.8202877 11.975825 21.480854
v -4.7343054 10.596898 21.480852
v -6.5710382 10.281535 21.48085
v -6.0103025 9.256574 21.480852
v -7.419695 7.419916 21.480852
v -8.087958 8.370384 21.48085
v -9.130695 6.723585 21.48085
v -8.577195 5.4149485 21.480852
v -10.209242 4.5366516 21.480848
v -9.327173 3.723193 21.480852
v -10.99299 2.22762 21.480852
v -9.908335 1.9638851 21.480852
v -10.313871 0.15827489 21.480852
v -11.507381 -0.15376353 21.48085
v -10.540636 -1.6806244 21.480852
v -11.7068815 -2.5856433 21.48085
v -10.5861225 -3.5306513 21.480852
v -11.658972 -4.5341883 21.48085
v -10.4497795 -5.3784585 21.480852
v -11.420129 -6.4710407 21.48085
v -10.133478 -7.201765 21.480852
v -10.866553 -8.84459 21.480854
v -9.639265 -8.987468 21.480852
v -8.973331 -10.714039 21.480852
v -10.008163 -11.1256695 21.48085
v -8.140242 -12.369021 21.48085
v -9.130703 -12.868791 21.480854
v -7.150241 -13.932533 21.480852
v -8.087978 -14.515572 21.48085
v -6.571031 -16.426758 21.480852
v -5.710021 -15.747049 21.480852
v -4.820275 -18.121052 21.48085
v -4.0478106 -17.355654 21.480852
v -1.8305693 -19.028425 21.480852
v -3.281835 -19.321718 21.48085
v -1.6350485 -20.364443 21.480852
v 0.108085096 -21.24191 21.48085
v 0.63127136 -20.318655 21.480852
v 1.9266155 -21.943314 21.480852
v 2.3578544 -20.984596 21.48085
v 3.8075027 -22.46387 21.48085
v 4.143567 -21.478807 21.480852
v 5.7279673 -22.797016 21.480852
v 5.96693 -21.795116 21.48085
v 7.674198 -22.940617 21.48085
v 7.8147573 -21.931454 21.480852
v 9.622779 -22.8927 21.480852
v 9.66473 -21.885963 21.48085
vt -0.7794974 0.541747
vt -0.5059918 0.541747
vt -1.0526705 0.54176366
vt -7.3396654 0.5417303
vt -7.0661607 0.541747
vt -7.6128473 0.541747
vt -7.9545784 0.24040827
vt -8.296306 0.24040827
vt -8.296301 0.541747
vt -7.9545736 0.5417303
vt -7.6128473 0.541747
vt -7.612855 0.24040827
vt -7.0661607 0.541747
vt -7.339673 0.24040827
vt -6.9977045 0.24040827
vt -6.7929873 0.541747
vt -6.5878687 0.24040827
vt -6.2463055 0.24040827
vt -6.5194826 0.541747
vt -6.1780376 0.541747
vt -5.904346 0.24040827
vt -5.8360686 0.541747
vt -5.56291 0.24040827
vt -5.2893996 0.24040827
vt -5.562902 0.541747
vt -5.2893934 0.541747
vt -5.016212 0.541747
vt -4.9478364 0.24040827
vt -4.5379987 0.24040827
vt -4.6744885 0.5417303
vt -4.332759 0.541747
vt -3.9913173 0.541747
vt -4.059591 0.24040827
vt -3.5811338 0.5417303
vt -3.649353 0.24040827
vt -3.3077915 0.24040827
vt -3.2393932 0.541747
vt -2.966224 0.24040827
vt -2.9662132 0.5417303
vt -2.6242564 0.541747
vt -2.6927202 0.24040827
vt -2.351269 0.24040827
vt -2.282818 0.541747
vt -2.009309 0.24040827
vt -1.9410856 0.5417303
vt -1.5993507 0.541747
vt -1.6677439 0.24040827
vt -1.3261756 0.541747
vt -1.3261728 0.24040827
vt -0.9842173 0.24040827
vt -1.0526705 0.54176366
vt -0.5059918 0.541747
vt -0.6427735 0.24040827
vt -0.36927104 0.24040827
vt -0.16455144 0.541747
vt -0.09610015 0.24040827
vt 0.24563837 0.24040827
vt 0.1774055 0.541747
vt 0.45058525 0.541747
vt 0.65582407 0.24040827
vt 0.7923202 0.5417303
vt 1.1340477 0.541747
vt 0.997265 0.24040827
vt 1.27077 0.24040827
vt 1.4072211 0.541747
vt 1.5439413 0.24040827
vt 1.6807282 0.54176366
vt 1.8174475 0.24040827
vt 1.9539019 0.541747
vt 2.0906231 0.24040827
vt 2.227411 0.54176366
vt 2.364128 0.24040827
vt 2.568853 0.541747
vt 2.637304 0.24040827
vt 2.9790387 0.24040827
vt 2.9108083 0.541747
vt 3.1839836 0.541747
vt 3.3207746 0.24040827
vt 3.5257192 0.5417303
vt 3.593945 0.24040827
vt 3.867453 0.541747
vt 3.86745 0.24040827
vt 4.140627 0.24040827
vt 4.208891 0.541747
vt 4.414135 0.24040827
vt 4.5508533 0.541747
vt 4.687312 0.24040827
vt 4.8240256 0.541747
vt 4.9608197 0.24040827
vt 5.0975313 0.541747
vt 5.2339883 0.24040827
vt 5.4391017 0.54176366
vt 5.5074973 0.24040827
vt 5.7806673 0.24040827
vt 5.7806706 0.541747
vt 6.0541763 0.24040827
vt 6.0541763 0.54176366
vt 6.3273525 0.24040827
vt 6.3273497 0.541747
vt 6.6693106 0.541747
vt 6.6693106 0.24040827
vt 7.0107536 0.541747
vt 7.010755 0.24040827
vt 7.4206996 0.24040827
vt 7.2842584 0.541747
vt 7.5574327 0.541747
vt 7.830939 0.541747
vt 7.8309374 0.24040827
vt 8.104107 0.541747
vt 8.10411 0.24040827
vt 8.377624 0.541747
vt 8.377619 0.24040827
vt 8.650798 0.541747
vt 8.650797 0.24040827
vt 8.924304 0.541747
vt 8.924308 0.24040827
vt 9.197483 0.541747
vt 9.197477 0.24040827
vn -2.773002E-05 -7.888861E-05 1
vn -0 0 -1
vn -0 0 -1
vn -6.2523446E-05 0.000117962074 1
vn -0 0 -1
vn -0 0 -1
vn -0 0 -1
vn -0 0 -1
vn -0 0 -1
vn -0 0 -1
vn -0 0 -1
vn -0 0 -1
vn -0 0 -1
vn -0 0 -1
vn -0 0 -1
vn -0 0 -1
vn -0 0 -1
vn -0 0 -1
vn -0 0 -1
vn -0 0 -1
vn -0 0 -1
vn -0 0 -1
vn -0 0 -1
vn -0 0 -1
vn -0 0 -1
vn -0 0 -1
vn -0 0 -1
vn -0 0 -1
vn -0 0 -1
vn -0 0 -1
vn -0 0 -1
vn -0 0 -1
vn -0 0 -1
vn -0 0 -1
vn -0 0 -1
vn -0 0 -1
vn -0 0 -1
vn -0 0 -1
vn -0 0 -1
vn -0 0 -1
vn -0 0 -1
vn -0 0 -1
vn -0 0 -1
vn -0 0 -1
vn -0 0 -1
vn -0 0 -1
vn -0 0 -1
vn -0 0 -1
vn -0 0 -1
vn -0 0 -1
vn -0 0 -1
vn -0 0 -1
vn -0 0 -1
vn -0 0 -1
vn -0 0 -1
vn -0 0 -1
vn -0 0 -1
vn -0 0 -1
vn -0 0 -1
vn -0 0 -1
vn -0 0 -1
vn -0 0 -1
vn -0 0 -1
vn -0 0 -1
vn -0 0 -1
vn -0 0 -1
vn -0 0 -1
vn -0 0 -1
vn -0 0 -1
vn -0 0 -1
vn -0 0 -1
vn -0 0 -1
vn -0 0 -1
vn -0 0 -1
vn -0 0 -1
vn -0 0 -1
vn -0 0 -1
vn -0 0 -1
vn -0 0 -1
vn -0 0 -1
vn -0 0 -1
vn -0 0 -1
vn -0 0 -1
vn -0 0 -1
vn -0 0 -1
vn -0 0 -1
vn -0 0 -1
vn -0 0 -1
vn -0 0 -1
vn -0 0 -1
vn -0 0 -1
vn -0 0 -1
vn -0 0 -1
vn -0 0 -1
vn -0 0 -1
vn -0 0 -1
vn -0 0 -1
vn -0 0 -1
vn -0 0 -1
vn -0 0 -1
vn -0 0 -1
vn -0 0 -1
vn -0 0 -1
vn -0 0 -1
vn -0 0 -1
vn -0 0 -1
vn -0 0 -1
vn -0 0 -1
vn -0 0 -1
vn -0 0 -1
vn -0 0 -1
vn -0 0 -1
vn -0 0 -1
vn -0 0 -1
vn -0 0 -1
vn -0 0 -1
vn -0 0 -1
vn -0 0 -1
g mdlVoidSupportPlatform.004_0
f 3/3/3 2/2/2 1/1/1
f 6/6/6 5/5/5 4/4/4
f 9/9/9 8/8/8 7/7/7
f 10/10/10 9/9/9 7/7/7
f 11/11/11 10/10/10 7/7/7
f 12/12/12 11/11/11 7/7/7
f 13/13/13 11/11/11 12/12/12
f 14/14/14 13/13/13 12/12/12
f 14/14/14 15/15/15 13/13/13
f 16/16/16 13/13/13 15/15/15
f 15/15/15 17/17/17 16/16/16
f 18/18/18 16/16/16 17/17/17
f 19/19/19 16/16/16 18/18/18
f 19/19/19 18/18/18 20/20/20
f 18/18/18 21/21/21 20/20/20
f 22/22/22 20/20/20 21/21/21
f 21/21/21 23/23/23 22/22/22
f 22/22/22 23/23/23 24/24/24
f 22/22/22 24/24/24 25/25/25
f 26/26/26 25/25/25 24/24/24
f 26/26/26 24/24/24 27/27/27
f 24/24/24 28/28/28 27/27/27
f 29/29/29 27/27/27 28/28/28
f 30/30/30 27/27/27 29/29/29
f 30/30/30 29/29/29 31/31/31
f 31/31/31 29/29/29 32/32/32
f 32/32/32 29/29/29 33/33/33
f 32/32/32 33/33/33 34/34/34
f 34/34/34 33/33/33 35/35/35
f 34/34/34 35/35/35 36/36/36
f 34/34/34 36/36/36 37/37/37
f 38/38/38 37/37/37 36/36/36
f 37/37/37 38/38/38 39/39/39
f 39/39/39 38/38/38 40/40/40
f 38/38/38 41/41/41 40/40/40
f 42/42/42 40/40/40 41/41/41
f 40/40/40 42/42/42 43/43/43
f 43/43/43 42/42/42 44/44/44
f 45/45/45 43/43/43 44/44/44
f 45/45/45 44/44/44 46/46/46
f 44/44/44 47/47/47 46/46/46
f 48/48/48 46/46/46 47/47/47
f 48/48/48 47/47/47 49/49/49
f 48/48/48 49/49/49 50/50/50
f 48/48/48 50/50/50 51/51/51
f 52/52/52 51/51/51 50/50/50
f 53/53/53 52/52/52 50/50/50
f 52/52/52 53/53/53 54/54/54
f 52/52/52 54/54/54 55/55/55
f 54/54/54 56/56/56 55/55/55
f 55/55/55 56/56/56 57/57/57
f 58/58/58 55/55/55 57/57/57
f 58/58/58 57/57/57 59/59/59
f 57/57/57 60/60/60 59/59/59
f 61/61/61 59/59/59 60/60/60
f 62/62/62 61/61/61 60/60/60
f 63/63/63 62/62/62 60/60/60
f 62/62/62 63/63/63 64/64/64
f 65/65/65 62/62/62 64/64/64
f 66/66/66 65/65/65 64/64/64
f 65/65/65 66/66/66 67/67/67
f 67/67/67 66/66/66 68/68/68
f 69/69/69 67/67/67 68/68/68
f 70/70/70 69/69/69 68/68/68
f 69/69/69 70/70/70 71/71/71
f 71/71/71 70/70/70 72/72/72
f 73/73/73 71/71/71 72/72/72
f 74/74/74 73/73/73 72/72/72
f 74/74/74 75/75/75 73/73/73
f 75/75/75 76/76/76 73/73/73
f 76/76/76 75/75/75 77/77/77
f 75/75/75 78/78/78 77/77/77
f 79/79/79 77/77/77 78/78/78
f 79/79/79 78/78/78 80/80/80
f 81/81/81 79/79/79 80/80/80
f 82/82/82 81/81/81 80/80/80
f 81/81/81 82/82/82 83/83/83
f 81/81/81 83/83/83 84/84/84
f 83/83/83 85/85/85 84/84/84
f 86/86/86 84/84/84 85/85/85
f 86/86/86 85/85/85 87/87/87
f 86/86/86 87/87/87 88/88/88
f 87/87/87 89/89/89 88/88/88
f 90/90/90 88/88/88 89/89/89
f 90/90/90 89/89/89 91/91/91
f 90/90/90 91/91/91 92/92/92
f 91/91/91 93/93/93 92/92/92
f 92/92/92 93/93/93 94/94/94
f 92/92/92 94/94/94 95/95/95
f 95/95/95 94/94/94 96/96/96
f 95/95/95 96/96/96 97/97/97
f 97/97/97 96/96/96 98/98/98
f 97/97/97 98/98/98 99/99/99
f 100/100/100 99/99/99 98/98/98
f 101/101/101 100/100/100 98/98/98
f 102/102/102 100/100/100 101/101/101
f 103/103/103 102/102/102 101/101/101
f 103/103/103 104/104/104 102/102/102
f 104/104/104 105/105/105 102/102/102
f 105/105/105 104/104/104 106/106/106
f 106/106/106 104/104/104 107/107/107
f 107/107/107 104/104/104 108/108/108
f 109/109/109 107/107/107 108/108/108
f 110/110/110 109/109/109 108/108/108
f 109/109/109 110/110/110 111/111/111
f 111/111/111 110/110/110 112/112/112
f 113/113/113 111/111/111 112/112/112
f 114/114/114 113/113/113 112/112/112
f 113/113/113 114/114/114 115/115/115
f 115/115/115 114/114/114 116/116/116
f 115/115/115 116/116/116 117/117/117
f 116/116/116 118/118/118 117/117/117
