g mdlVoidRepairsPlatformWallsEnergyBottom2
v -23.986362 -39.846893 14.629683
v -22.22328 -38.79075 15.501857
v -24.093767 -39.326363 14.835513
v -22.048695 -39.2676 15.33313
v -23.878962 -40.36743 14.423852
v -20.617495 -38.46911 16.15012
v -22.000233 -39.78216 15.10556
v -19.979105 -38.648872 16.270006
v -20.452192 -39.16092 15.871354
v 21.956467 -22.932043 14.953511
v 22.622398 -22.071735 14.953463
v 21.957195 -22.536678 15.122307
v 22.813995 -22.559761 14.730078
v 22.243557 -23.214 14.810894
v 25.3346 -20.738834 13.100322
v 23.03826 -23.034918 14.509666
v 25.567017 -21.234226 12.870462
v 31.150568 -17.754927 8.776169
v 25.79943 -21.729622 12.640604
v 31.417158 -18.232801 8.550417
v 38.720787 -13.211488 4.4367194
v 31.683752 -18.71068 8.324666
v 39.03567 -13.658748 4.2157426
v 46.30553 -7.3938837 2.533662
v 39.35055 -14.106007 3.994765
v 46.67596 -7.794206 2.315977
v 53.00638 -0.48711252 2.261065
v 47.046402 -8.194529 2.098293
v 53.434364 -0.81742 2.044097
v 58.192215 7.1079464 2.4982936
v 53.862354 -1.1477268 1.8271291
v 58.671 6.8790784 2.2779937
v 61.459957 14.026491 4.1235223
v 59.14979 6.650211 2.0576942
v 61.958508 13.941643 3.8918033
v 62.499336 19.007677 7.824037
v 62.457054 13.856794 3.6600842
v 62.958584 19.108828 7.5710273
v 61.14342 22.170437 11.524771
v 63.417843 19.209982 7.318018
v 61.476887 22.449123 11.250397
v 57.59204 23.824917 13.245137
v 61.81036 22.727806 10.976023
v 57.706577 24.219542 12.960486
v 53.36884 23.666405 14.14486
v 57.82112 24.614174 12.675836
v 53.24716 24.101395 13.86604
v 49.960014 21.547102 15.656126
v 53.12549 24.536385 13.58722
v 49.664665 21.953934 15.399263
v 47.37824 18.561726 17.16071
v 49.36932 22.360771 15.142401
v 46.984974 18.924074 16.928051
v 45.345985 15.952006 17.802685
v 46.59171 19.28642 16.695396
v 44.888535 16.220211 17.591763
v 43.89118 14.290696 17.826834
v 44.53133 16.621479 17.381323
v 43.164158 13.942612 17.679653
v 43.320526 14.767109 17.536764
v -52.137207 -27.220509 18.144243
v -53.686478 -27.638166 18.169373
v -52.50876 -27.563633 18.214388
v -53.630405 -27.115316 18.02758
v -52.49758 -26.825827 18.01108
v -55.848164 -27.508892 18.074999
v -53.657394 -26.58662 17.878641
v -55.818783 -26.961153 17.922512
v -59.18952 -27.237282 18.000818
v -55.7894 -26.413412 17.770025
v -59.13946 -26.69074 17.847458
v -63.68665 -26.665995 17.946758
v -59.08941 -26.1442 17.694098
v -63.62039 -26.119747 17.79452
v -69.07627 -25.699549 17.805902
v -63.55414 -25.573502 17.642279
v -69.0136 -25.15302 17.6578
v -74.34938 -24.71215 17.11508
v -68.95094 -24.606499 17.509699
v -74.33535 -24.172194 16.969353
v -78.55251 -24.20995 15.592058
v -74.32133 -23.632235 16.823627
v -78.64908 -23.700888 15.44302
v -81.700325 -24.757114 14.034632
v -78.745636 -23.19183 15.293986
v -81.94301 -24.354002 13.881901
v -83.86838 -26.677986 13.026237
v -82.185684 -23.95089 13.729171
v -84.25096 -26.4888 12.8751335
v -84.40796 -29.279598 11.212838
v -84.633545 -26.29962 12.724032
v -84.864555 -29.34086 11.066831
v -82.70984 -31.794777 7.51455
v -85.32115 -29.402122 10.920825
v -83.133064 -32.060772 7.372533
v -79.046906 -34.176907 3.8855538
v -83.55631 -32.326767 7.230519
v -79.378685 -34.581024 3.7385707
v -73.83431 -36.51565 2.3512683
v -79.710464 -34.985138 3.5915878
v -74.07609 -36.991802 2.185687
v -67.173904 -38.725468 2.1880028
v -74.31789 -37.46795 2.0201056
v -67.337265 -39.232346 2.001523
v -59.07858 -40.592777 2.4816482
v -67.50062 -39.739216 1.8150433
v -59.172493 -41.115078 2.2837949
v -49.518524 -41.567307 4.3055315
v -59.266422 -41.637383 2.0859416
v -49.548428 -42.096348 4.103626
v -39.02623 -41.282726 8.44635
v -49.57833 -42.62538 3.90172
v -38.996494 -41.811916 8.242821
v -30.426163 -40.445213 12.556852
v -38.966755 -42.341106 8.039293
v -30.351261 -40.971508 12.352515
v -26.06592 -39.818783 14.340242
v -30.276361 -41.497803 12.148178
v -25.968576 -40.34222 14.135222
v -24.093767 -39.326363 14.835513
v -25.871235 -40.865665 13.930203
v -23.986362 -39.846893 14.629683
v -23.878962 -40.36743 14.423852
vt 1.1188062 0.22398655
vt 0.80423295 -0.08267971
vt 1.1188055 -0.08267971
vt 0.80423343 0.22398655
vt 1.118807 0.5306528
vt 0.4896603 -0.08267971
vt 0.8042341 0.5306528
vt 0.48966074 0.22398655
vt 0.4896612 0.5306528
vt -2.3784933 0.22398655
vt -3.1912599 -0.08267971
vt -2.3784933 -0.08267971
vt -3.19126 0.22398655
vt -2.3784933 0.5306528
vt -4.051035 -0.08267971
vt -3.1912599 0.5306528
vt -4.051035 0.22398655
vt -4.9924135 -0.08267971
vt -4.0510354 0.5306528
vt -4.9924145 0.22398654
vt -6.0003476 -0.08267971
vt -4.992416 0.5306528
vt -6.0003495 0.22398657
vt -7.0452275 -0.08267983
vt -6.0003505 0.5306528
vt -7.0452275 0.22398648
vt -8.088851 -0.08268066
vt -7.0452294 0.5306528
vt -8.088852 0.22398609
vt -9.08305 -0.08268256
vt -8.088852 0.5306528
vt -9.083048 0.2239851
vt -9.9483795 -0.08268446
vt -9.08305 0.5306528
vt -9.9483795 0.2239842
vt -10.633995 -0.082685284
vt -9.9483795 0.5306528
vt -10.633995 0.22398373
vt -11.234753 -0.0826854
vt -10.633995 0.5306528
vt -11.234754 0.22398372
vt -11.851372 -0.0826854
vt -11.234753 0.5306528
vt -11.851372 0.22398368
vt -12.462362 -0.0826854
vt -11.851372 0.5306528
vt -12.462362 0.22398372
vt -13.031059 -0.082685284
vt -12.462363 0.5306528
vt -13.031058 0.22398373
vt -13.582333 -0.08268446
vt -13.031061 0.5306528
vt -13.582334 0.22398417
vt -14.147821 -0.08268244
vt -13.582335 0.5306528
vt -14.147821 0.2239852
vt -14.724723 -0.08267971
vt -14.147822 0.5306528
vt -14.724723 0.22398655
vt -14.724723 0.5306528
vt 13.145142 0.22398655
vt 12.755522 -0.08267971
vt 13.145142 -0.08267971
vt 12.755522 0.22398655
vt 13.145142 0.5306528
vt 12.365903 -0.08267971
vt 12.755522 0.5306528
vt 12.365903 0.22398657
vt 11.9656925 -0.08267971
vt 12.365904 0.5306528
vt 11.965692 0.22398654
vt 11.501938 -0.08267971
vt 11.9656925 0.5306528
vt 11.501938 0.22398657
vt 10.941017 -0.08267971
vt 11.501938 0.5306528
vt 10.941017 0.22398654
vt 10.369022 -0.08267971
vt 10.941017 0.5306528
vt 10.369022 0.22398657
vt 9.875479 -0.08267971
vt 10.369023 0.5306528
vt 9.875479 0.22398654
vt 9.443947 -0.08267971
vt 9.875479 0.5306528
vt 9.443947 0.22398657
vt 9.029819 -0.08267971
vt 9.443947 0.5306528
vt 9.029818 0.22398654
vt 8.581765 -0.08267971
vt 9.029819 0.5306528
vt 8.581764 0.22398657
vt 8.058818 -0.08267971
vt 8.581764 0.5306528
vt 8.058817 0.22398654
vt 7.4681635 -0.08267971
vt 8.058817 0.5306528
vt 7.468163 0.22398657
vt 6.8189316 -0.08267971
vt 7.4681625 0.5306528
vt 6.8189306 0.22398654
vt 6.0798626 -0.08267971
vt 6.8189297 0.5306528
vt 6.079862 0.22398657
vt 5.212769 -0.08267971
vt 6.0798616 0.5306528
vt 5.2127695 0.22398654
vt 4.192141 -0.08267971
vt 5.212768 0.5306528
vt 4.1921415 0.22398657
vt 3.0542712 -0.08267971
vt 4.192141 0.5306528
vt 3.0542715 0.22398654
vt 2.0700002 -0.08267971
vt 3.0542722 0.5306528
vt 2.070001 0.22398657
vt 1.4736342 -0.08267971
vt 2.0700018 0.5306528
vt 1.473635 0.22398654
vt 1.1188055 -0.08267971
vt 1.4736359 0.5306528
vt 1.1188062 0.22398657
vt 1.118807 0.5306528
vn 0.16755354 0.39284116 -0.90421325
vn 0.24030688 0.39930707 -0.8847635
vn 0.17310683 0.390716 -0.90408796
vn 0.23899958 0.4065558 -0.88181156
vn 0.16211326 0.39380947 -0.9047836
vn 0.2733845 0.40343562 -0.8732128
vn 0.22507103 0.41028965 -0.88374513
vn 0.26939026 0.41102505 -0.8709117
vn 0.2645758 0.42007717 -0.86806375
vn -0.37483513 0.25371048 -0.8917004
vn -0.4973112 0.20875444 -0.8420826
vn -0.3900834 0.30189872 -0.86988056
vn -0.48526803 0.17850536 -0.8559502
vn -0.35596412 0.19754279 -0.9133818
vn -0.6028213 0.08618776 -0.7932074
vn -0.4973296 0.13887352 -0.8563745
vn -0.60164213 0.07901202 -0.7948484
vn -0.5762458 0.0644251 -0.8147332
vn -0.60101604 0.073796704 -0.7958227
vn -0.5702668 0.06655144 -0.81875926
vn -0.45553473 0.12364885 -0.88158894
vn -0.56408775 0.06868925 -0.82285285
vn -0.4481912 0.12844597 -0.8846617
vn -0.32689834 0.2082718 -0.92182446
vn -0.44025815 0.13354614 -0.8878841
vn -0.32518098 0.20964743 -0.92212003
vn -0.2932718 0.23713386 -0.9261528
vn -0.32340032 0.21106225 -0.9224234
vn -0.29356414 0.23682088 -0.92614037
vn -0.30119708 0.2899413 -0.9084131
vn -0.293853 0.2365186 -0.92612606
vn -0.30203214 0.28883418 -0.9084886
vn -0.34043032 0.47825924 -0.8095525
vn -0.3027816 0.28785586 -0.90854955
vn -0.3418606 0.46885163 -0.8144381
vn -0.52582616 0.5149039 -0.6770383
vn -0.34240618 0.46000695 -0.8192385
vn -0.5102257 0.5108494 -0.6918834
vn -0.60937244 -0.024606166 -0.7925023
vn -0.4885284 0.515342 -0.70410407
vn -0.6207955 0.058387306 -0.7817954
vn -0.31669435 -0.46393183 -0.8273282
vn -0.63102776 0.1546333 -0.7601925
vn -0.3398768 -0.44889814 -0.8264226
vn -0.08576038 -0.552363 -0.82918054
vn -0.3626879 -0.43383157 -0.8247713
vn -0.09072968 -0.5527601 -0.8283866
vn 0.023700112 -0.5177724 -0.85519004
vn -0.09647718 -0.55322367 -0.82742715
vn 0.017069645 -0.52155954 -0.8530441
vn 0.1372099 -0.42975184 -0.8924611
vn 0.010380067 -0.52533877 -0.85082984
vn 0.12370972 -0.43290964 -0.8929083
vn 0.2422892 -0.32436958 -0.9143743
vn 0.1127453 -0.43691793 -0.8924075
vn 0.23197941 -0.30349883 -0.92416126
vn 0.29538694 -0.2645265 -0.9180263
vn 0.20351717 -0.30873588 -0.92911947
vn 0.2722816 -0.24849066 -0.92957795
vn 0.24692258 -0.23082854 -0.94114155
vn 0.055212494 -0.26659957 -0.96222466
vn 0.04014704 -0.26513317 -0.9633757
vn 0.055286963 -0.26303166 -0.96320176
vn 0.041777115 -0.2675632 -0.9626342
vn 0.05512991 -0.27050996 -0.96113735
vn 0.013442723 -0.2680549 -0.9633098
vn 0.039230503 -0.27002224 -0.9620545
vn 0.013414293 -0.26875782 -0.9631144
vn -0.011291001 -0.26812202 -0.96331877
vn 0.0132864425 -0.26941338 -0.962933
vn -0.011396182 -0.2681092 -0.9633211
vn -0.022365334 -0.2648218 -0.96403795
vn -0.0115091 -0.26809573 -0.96332353
vn -0.022611605 -0.26474386 -0.9640536
vn 0.02416891 -0.26414523 -0.96418
vn -0.022875851 -0.2646655 -0.96406883
vn 0.026468303 -0.2641917 -0.96410686
vn 0.17795178 -0.25381032 -0.9507437
vn 0.02860267 -0.26423296 -0.9640346
vn 0.1896877 -0.25226378 -0.9488843
vn 0.3678318 -0.18925384 -0.91042995
vn 0.20011298 -0.25086364 -0.9471127
vn 0.37483513 -0.18244162 -0.9089629
vn 0.4394991 -0.076974906 -0.8949388
vn 0.38159642 -0.17593032 -0.9074319
vn 0.43172187 -0.07638391 -0.8987669
vn 0.40719056 0.19864033 -0.89148074
vn 0.4257411 -0.07468598 -0.9017575
vn 0.3995384 0.21550685 -0.8910251
vn 0.16385597 0.6368722 -0.75335586
vn 0.3929536 0.23626633 -0.88868755
vn 0.14147444 0.6398048 -0.7554038
vn -0.19147137 0.7197425 -0.66731507
vn 0.10932639 0.6552224 -0.7474834
vn -0.18550566 0.71090984 -0.6783767
vn -0.19125001 0.5158179 -0.835078
vn -0.18231948 0.7026162 -0.6878155
vn -0.18952213 0.5158584 -0.8354469
vn -0.0057433345 0.3477761 -0.93755996
vn -0.18798362 0.51587003 -0.8357872
vn -0.008327431 0.34883773 -0.9371462
vn 0.09317246 0.3160599 -0.944153
vn -0.010778004 0.34984657 -0.93674505
vn 0.09187347 0.316188 -0.9442374
vn 0.15995419 0.32548293 -0.9319203
vn 0.090616874 0.316302 -0.94432074
vn 0.15761317 0.32562253 -0.93227035
vn 0.27769166 0.33257946 -0.90126485
vn 0.15520863 0.32574564 -0.93263066
vn 0.27236703 0.3323357 -0.90297794
vn 0.3556351 0.35313705 -0.8653426
vn 0.26667717 0.33203512 -0.9047851
vn 0.35314 0.35185567 -0.8668851
vn 0.3326545 0.37887067 -0.8635959
vn 0.350624 0.35052246 -0.8684451
vn 0.33465552 0.3779878 -0.8632096
vn 0.21038514 0.38842392 -0.8971427
vn 0.33665085 0.37711054 -0.86281735
vn 0.21591975 0.38850805 -0.8957902
vn 0.17310683 0.390716 -0.90408796
vn 0.2215608 0.38858542 -0.89437807
vn 0.16755354 0.39284116 -0.90421325
vn 0.16211326 0.39380947 -0.9047836
g mdlVoidRepairsPlatformWallsEnergyBottom2_0
f 3/3/3 2/2/2 1/1/1
f 2/2/2 4/4/4 1/1/1
f 1/1/1 4/4/4 5/5/5
f 2/2/2 6/6/6 4/4/4
f 4/4/4 7/7/7 5/5/5
f 6/6/6 8/8/8 4/4/4
f 4/4/4 8/8/8 7/7/7
f 8/8/8 9/9/9 7/7/7
f 12/12/12 11/11/11 10/10/10
f 11/11/11 13/13/13 10/10/10
f 10/10/10 13/13/13 14/14/14
f 11/11/11 15/15/15 13/13/13
f 13/13/13 16/16/16 14/14/14
f 15/15/15 17/17/17 13/13/13
f 13/13/13 17/17/17 16/16/16
f 15/15/15 18/18/18 17/17/17
f 17/17/17 19/19/19 16/16/16
f 18/18/18 20/20/20 17/17/17
f 17/17/17 20/20/20 19/19/19
f 18/18/18 21/21/21 20/20/20
f 20/20/20 22/22/22 19/19/19
f 21/21/21 23/23/23 20/20/20
f 20/20/20 23/23/23 22/22/22
f 21/21/21 24/24/24 23/23/23
f 23/23/23 25/25/25 22/22/22
f 24/24/24 26/26/26 23/23/23
f 23/23/23 26/26/26 25/25/25
f 24/24/24 27/27/27 26/26/26
f 26/26/26 28/28/28 25/25/25
f 27/27/27 29/29/29 26/26/26
f 26/26/26 29/29/29 28/28/28
f 27/27/27 30/30/30 29/29/29
f 29/29/29 31/31/31 28/28/28
f 30/30/30 32/32/32 29/29/29
f 29/29/29 32/32/32 31/31/31
f 30/30/30 33/33/33 32/32/32
f 32/32/32 34/34/34 31/31/31
f 33/33/33 35/35/35 32/32/32
f 32/32/32 35/35/35 34/34/34
f 33/33/33 36/36/36 35/35/35
f 35/35/35 37/37/37 34/34/34
f 36/36/36 38/38/38 35/35/35
f 35/35/35 38/38/38 37/37/37
f 36/36/36 39/39/39 38/38/38
f 38/38/38 40/40/40 37/37/37
f 39/39/39 41/41/41 38/38/38
f 38/38/38 41/41/41 40/40/40
f 39/39/39 42/42/42 41/41/41
f 41/41/41 43/43/43 40/40/40
f 42/42/42 44/44/44 41/41/41
f 41/41/41 44/44/44 43/43/43
f 42/42/42 45/45/45 44/44/44
f 44/44/44 46/46/46 43/43/43
f 45/45/45 47/47/47 44/44/44
f 44/44/44 47/47/47 46/46/46
f 45/45/45 48/48/48 47/47/47
f 47/47/47 49/49/49 46/46/46
f 48/48/48 50/50/50 47/47/47
f 47/47/47 50/50/50 49/49/49
f 48/48/48 51/51/51 50/50/50
f 50/50/50 52/52/52 49/49/49
f 51/51/51 53/53/53 50/50/50
f 50/50/50 53/53/53 52/52/52
f 51/51/51 54/54/54 53/53/53
f 53/53/53 55/55/55 52/52/52
f 54/54/54 56/56/56 53/53/53
f 53/53/53 56/56/56 55/55/55
f 54/54/54 57/57/57 56/56/56
f 56/56/56 58/58/58 55/55/55
f 57/57/57 59/59/59 56/56/56
f 56/56/56 59/59/59 58/58/58
f 59/59/59 60/60/60 58/58/58
f 63/63/63 62/62/62 61/61/61
f 62/62/62 64/64/64 61/61/61
f 61/61/61 64/64/64 65/65/65
f 62/62/62 66/66/66 64/64/64
f 64/64/64 67/67/67 65/65/65
f 66/66/66 68/68/68 64/64/64
f 64/64/64 68/68/68 67/67/67
f 66/66/66 69/69/69 68/68/68
f 68/68/68 70/70/70 67/67/67
f 69/69/69 71/71/71 68/68/68
f 68/68/68 71/71/71 70/70/70
f 69/69/69 72/72/72 71/71/71
f 71/71/71 73/73/73 70/70/70
f 72/72/72 74/74/74 71/71/71
f 71/71/71 74/74/74 73/73/73
f 72/72/72 75/75/75 74/74/74
f 74/74/74 76/76/76 73/73/73
f 75/75/75 77/77/77 74/74/74
f 74/74/74 77/77/77 76/76/76
f 75/75/75 78/78/78 77/77/77
f 77/77/77 79/79/79 76/76/76
f 78/78/78 80/80/80 77/77/77
f 77/77/77 80/80/80 79/79/79
f 78/78/78 81/81/81 80/80/80
f 80/80/80 82/82/82 79/79/79
f 81/81/81 83/83/83 80/80/80
f 80/80/80 83/83/83 82/82/82
f 81/81/81 84/84/84 83/83/83
f 83/83/83 85/85/85 82/82/82
f 84/84/84 86/86/86 83/83/83
f 83/83/83 86/86/86 85/85/85
f 84/84/84 87/87/87 86/86/86
f 86/86/86 88/88/88 85/85/85
f 87/87/87 89/89/89 86/86/86
f 86/86/86 89/89/89 88/88/88
f 87/87/87 90/90/90 89/89/89
f 89/89/89 91/91/91 88/88/88
f 90/90/90 92/92/92 89/89/89
f 89/89/89 92/92/92 91/91/91
f 90/90/90 93/93/93 92/92/92
f 92/92/92 94/94/94 91/91/91
f 93/93/93 95/95/95 92/92/92
f 92/92/92 95/95/95 94/94/94
f 93/93/93 96/96/96 95/95/95
f 95/95/95 97/97/97 94/94/94
f 96/96/96 98/98/98 95/95/95
f 95/95/95 98/98/98 97/97/97
f 96/96/96 99/99/99 98/98/98
f 98/98/98 100/100/100 97/97/97
f 99/99/99 101/101/101 98/98/98
f 98/98/98 101/101/101 100/100/100
f 99/99/99 102/102/102 101/101/101
f 101/101/101 103/103/103 100/100/100
f 102/102/102 104/104/104 101/101/101
f 101/101/101 104/104/104 103/103/103
f 102/102/102 105/105/105 104/104/104
f 104/104/104 106/106/106 103/103/103
f 105/105/105 107/107/107 104/104/104
f 104/104/104 107/107/107 106/106/106
f 105/105/105 108/108/108 107/107/107
f 107/107/107 109/109/109 106/106/106
f 108/108/108 110/110/110 107/107/107
f 107/107/107 110/110/110 109/109/109
f 108/108/108 111/111/111 110/110/110
f 110/110/110 112/112/112 109/109/109
f 111/111/111 113/113/113 110/110/110
f 110/110/110 113/113/113 112/112/112
f 111/111/111 114/114/114 113/113/113
f 113/113/113 115/115/115 112/112/112
f 114/114/114 116/116/116 113/113/113
f 113/113/113 116/116/116 115/115/115
f 114/114/114 117/117/117 116/116/116
f 116/116/116 118/118/118 115/115/115
f 117/117/117 119/119/119 116/116/116
f 116/116/116 119/119/119 118/118/118
f 117/117/117 120/120/120 119/119/119
f 119/119/119 121/121/121 118/118/118
f 120/120/120 122/122/122 119/119/119
f 119/119/119 122/122/122 121/121/121
f 122/122/122 123/123/123 121/121/121
