g mdlVoidWhaleEyes
v 0.2763872 -0.8506489 0.33989573
v 0.16245556 -0.49999475 0.64651346
v 0.68818855 -0.4999962 0.3995695
v 0.58778477 -0.8090162 -9.536743E-07
v 0.95105743 -0.3090124 -9.536743E-07
v 0.72360706 -0.5257249 -0.33989716
v 0.26286793 -0.80901146 -0.39957237
v 0.42532253 -0.30901146 -0.64651585
v -0.16245651 -0.49999475 -0.64651585
v -0.27638912 -0.8506489 -0.33989716
v -9.536743E-07 -0.9999995 -9.536743E-07
v -0.5877867 -0.8090167 -9.536743E-07
v -0.26286983 -0.809011 0.39957047
v 0.16245556 -0.49999475 0.64651346
v -0.723609 -0.5257249 0.33989525
v -0.4253235 -0.30901098 0.64651346
v -0.95105934 -0.30901194 -9.536743E-07
v -0.723609 -0.5257249 0.33989525
v -0.5877867 -0.8090167 -9.536743E-07
v -0.68819046 -0.4999962 -0.39957142
v -0.27638912 -0.8506489 -0.33989716
v -0.16245651 -0.49999475 -0.64651585
v 2.470727 -0.5521817 1.0867796
v 2.6132622 -0.4163766 1.2799163
v 2.5503378 -0.22272968 1.0528703
v 2.385613 -0.7297101 1.2799163
v 2.1819992 -0.72970724 1.0528693
v 2.2838035 -0.41637564 0.91255
v 1.9154649 -0.5360584 0.91255
v 1.8440676 -0.75580025 1.0867786
v 2.0172691 -0.8493924 1.2799163
v 1.6489258 -0.7297106 1.2799163
v 2.448532 -0.5360594 1.5069633
v 2.5777726 -0.22272968 1.4730535
v 1.8525395 -0.7297077 1.5069642
v 1.5638113 -0.5521822 1.4730554
v 1.7507348 -0.4163761 1.6472831
v 2.1904707 -0.7557998 1.4730554
v 2.1190739 -0.5360589 1.6472831
v 2.0172691 -0.22273016 1.711781
v 2.1190739 -0.5360589 1.6472831
v 2.346724 -0.22272968 1.6472821
v 2.0172691 -0.22273016 1.711781
v 1.4567661 -0.22272968 1.0867801
v 1.4212761 -0.4163766 1.2799163
v 1.5860062 -0.5360594 1.0528703
v 1.6489258 -0.7297106 1.2799163
v 1.5638113 -0.5521822 1.4730554
v 1.4842005 -0.22272968 1.5069633
v 1.7507348 -0.4163761 1.6472831
v 1.8440676 -0.75580025 1.0867786
v 1.9154649 -0.5360584 0.91255
v 1.6878142 -0.22272968 0.9125509
v 0.27638817 13.38092 0.33989573
v 0.6881895 13.030269 0.3995695
v 0.16245556 13.030266 0.64651346
v 0.5877857 13.339289 -9.536743E-07
v 0.9510584 12.839284 -9.536743E-07
v 0.72360706 13.055996 -0.33989716
v 0.26286888 13.339283 -0.39957237
v 0.42532253 12.839283 -0.64651585
v -0.16245556 13.030266 -0.64651585
v -0.27638817 13.38092 -0.33989716
v -0 13.530272 -9.536743E-07
v -0.5877867 13.339288 -9.536743E-07
v -0.26286793 13.339283 0.39957047
v 0.16245556 13.030266 0.64651346
v -0.723608 13.055996 0.33989525
v -0.42532253 12.839283 0.64651346
v -0.9510584 12.839283 -9.536743E-07
v -0.5877867 13.339288 -9.536743E-07
v -0.723608 13.055996 0.33989525
v -0.68819046 13.030268 -0.39957142
v -0.27638817 13.38092 -0.33989716
v -0.16245556 13.030266 -0.64651585
v 2.4707284 13.082453 1.0867801
v 2.5503402 12.753001 1.0528712
v 2.6132631 12.946648 1.2799172
v 2.385614 13.259981 1.2799172
v 2.1820002 13.259979 1.0528703
v 2.2838044 12.946647 0.9125509
v 1.9154658 13.066328 0.9125509
v 1.844068 13.286071 1.0867796
v 2.01727 13.379663 1.2799172
v 1.6489267 13.259981 1.2799172
v 2.4485326 13.066331 1.5069642
v 2.577774 12.753001 1.4730544
v 1.8525405 13.259978 1.5069652
v 1.5638123 13.082453 1.4730563
v 1.7507367 12.946646 1.647284
v 2.1904726 13.286072 1.4730563
v 2.1190753 13.066328 1.647284
v 2.01727 12.753 1.711782
v 2.1190753 13.066328 1.647284
v 2.3467255 12.753001 1.6472831
v 2.01727 12.753 1.711782
v 1.4567671 12.753002 1.086781
v 1.5860081 13.06633 1.0528712
v 1.421278 12.946648 1.2799172
v 1.6489267 13.259981 1.2799172
v 1.5638123 13.082453 1.4730563
v 1.4842014 12.753002 1.5069642
v 1.7507367 12.946646 1.647284
v 1.844068 13.286071 1.0867796
v 1.9154658 13.066328 0.9125509
v 1.6878152 12.753 0.9125519
vt 0.818181 0.314921
vt 0.7727265 0.3936515
vt 0.72727203 0.314921
vt 0.7727265 0.236191
vt 0.68181753 0.236191
vt 0.727272 0.157461
vt 0.818181 0.157461
vt 0.7727265 0.0787305
vt 0.8636355 0.0787305
vt 0.90909 0.157461
vt 0.8636355 0.236191
vt 0.954545 0.236191
vt 0.9090905 0.314921
vt 0.8636355 0.3936515
vt 1 0.314921
vt 0.954545 0.3936515
vt 0.13636349 0.236191
vt 0.090909 0.314921
vt 0.0454545 0.236191
vt 0.090909 0.157461
vt 0 0.157461
vt 0.0454545 0.0787305
vt 0.727272 0.157461
vt 0.68181753 0.236191
vt 0.636363 0.157461
vt 0.7727265 0.236191
vt 0.818181 0.157461
vt 0.7727265 0.0787305
vt 0.8636355 0.0787305
vt 0.90909 0.157461
vt 0.8636355 0.236191
vt 0.954545 0.236191
vt 0.72727203 0.314921
vt 0.636363 0.314921
vt 0.9090905 0.314921
vt 1 0.314921
vt 0.954545 0.3936515
vt 0.818181 0.314921
vt 0.8636355 0.3936515
vt 0.90909 0.472382
vt 0.7727265 0.3936515
vt 0.68181753 0.3936515
vt 0.727272 0.472382
vt 0.181818 0.157461
vt 0.13636349 0.236191
vt 0.090909 0.157461
vt 0.0454545 0.236191
vt 0.090909 0.314921
vt 0.18181801 0.314921
vt 0.13636349 0.3936515
vt 0 0.157461
vt 0.0454545 0.0787305
vt 0.13636349 0.0787305
vt 0.818181 0.314921
vt 0.72727203 0.314921
vt 0.7727265 0.3936515
vt 0.7727265 0.236191
vt 0.68181753 0.236191
vt 0.727272 0.157461
vt 0.818181 0.157461
vt 0.7727265 0.0787305
vt 0.8636355 0.0787305
vt 0.90909 0.157461
vt 0.8636355 0.236191
vt 0.954545 0.236191
vt 0.9090905 0.314921
vt 0.8636355 0.3936515
vt 1 0.314921
vt 0.954545 0.3936515
vt 0.13636349 0.236191
vt 0.0454545 0.236191
vt 0.090909 0.314921
vt 0.090909 0.157461
vt 0 0.157461
vt 0.0454545 0.0787305
vt 0.727272 0.157461
vt 0.636363 0.157461
vt 0.68181753 0.236191
vt 0.7727265 0.236191
vt 0.818181 0.157461
vt 0.7727265 0.0787305
vt 0.8636355 0.0787305
vt 0.90909 0.157461
vt 0.8636355 0.236191
vt 0.954545 0.236191
vt 0.72727203 0.314921
vt 0.636363 0.314921
vt 0.9090905 0.314921
vt 1 0.314921
vt 0.954545 0.3936515
vt 0.818181 0.314921
vt 0.8636355 0.3936515
vt 0.90909 0.472382
vt 0.7727265 0.3936515
vt 0.68181753 0.3936515
vt 0.727272 0.472382
vt 0.181818 0.157461
vt 0.090909 0.157461
vt 0.13636349 0.236191
vt 0.0454545 0.236191
vt 0.090909 0.314921
vt 0.18181801 0.314921
vt 0.13636349 0.3936515
vt 0 0.157461
vt 0.0454545 0.0787305
vt 0.13636349 0.0787305
vn 0.26288933 -0.8091766 0.5254735
vn 0.08420298 -0.57522935 0.8136468
vn 0.6198697 -0.63448834 0.4617207
vn 0.58776695 -0.80903023 0
vn 0.8079776 -0.5870153 0.050845757
vn 0.62435925 -0.63754344 -0.4513466
vn 0.24641354 -0.7584373 -0.6033683
vn 0.28870708 -0.49772975 -0.8178711
vn -0.08420298 -0.57522935 -0.8136468
vn -0.26288933 -0.8091766 -0.5254735
vn -0 -1 0
vn -0.58776695 -0.80903023 0
vn -0.24641354 -0.7584373 0.6033683
vn 0.08420298 -0.57522935 0.8136468
vn -0.62435925 -0.63754344 0.4513466
vn -0.28870708 -0.49772975 0.8178711
vn -0.8079776 -0.5870153 -0.050845757
vn -0.62435925 -0.63754344 0.4513466
vn -0.58776695 -0.80903023 0
vn -0.6198697 -0.63448834 -0.4617207
vn -0.26288933 -0.8091766 -0.5254735
vn -0.08420298 -0.57522935 -0.8136468
vn 0.68519056 -0.55047804 -0.4769568
vn 0.9016222 -0.43184352 0.024262588
vn 0.85487014 -0.25318632 -0.45287275
vn 0.58776695 -0.80903023 0
vn 0.24003372 -0.73871785 -0.62982523
vn 0.27302387 -0.46569094 -0.8417778
vn -0.15653099 -0.48180047 -0.8621869
vn -0.2575543 -0.7926837 -0.5525561
vn -0 -1 0
vn -0.58776695 -0.80903023 0
vn 0.626968 -0.5039428 0.5940982
vn 0.840445 -0.29762584 0.45284784
vn -0.24003372 -0.73871785 0.62982523
vn -0.67429906 -0.4898999 0.5525566
vn -0.31459117 -0.35368618 0.8808736
vn 0.2575543 -0.7926837 0.5525561
vn 0.12711304 -0.3912579 0.91146004
vn 0.059359625 -0.18271777 0.98137176
vn 0.12711304 -0.3912579 0.91146004
vn 0.28783023 -0.2091202 0.9345707
vn 0.059359625 -0.18271777 0.98137176
vn -0.84043336 -0.29762173 -0.45287207
vn -0.9016222 -0.43184352 -0.024262588
vn -0.626968 -0.5039428 -0.5940982
vn -0.58776695 -0.80903023 0
vn -0.67429906 -0.4898999 0.5525566
vn -0.7345949 -0.24271846 0.63360715
vn -0.31459117 -0.35368618 0.8808736
vn -0.2575543 -0.7926837 -0.5525561
vn -0.15653099 -0.48180047 -0.8621869
vn -0.3768783 -0.27381584 -0.8848659
vn 0.26288933 0.8091766 0.5254735
vn 0.6198697 0.63448834 0.4617207
vn 0.08420298 0.57522935 0.8136468
vn 0.58776695 0.80903023 0
vn 0.8079776 0.5870153 0.050845757
vn 0.62435925 0.63754344 -0.4513466
vn 0.24641354 0.7584373 -0.6033683
vn 0.28870708 0.49772975 -0.8178711
vn -0.08420298 0.57522935 -0.8136468
vn -0.26288933 0.8091766 -0.5254735
vn -0 1 0
vn -0.58776695 0.80903023 0
vn -0.24641354 0.7584373 0.6033683
vn 0.08420298 0.57522935 0.8136468
vn -0.62435925 0.63754344 0.4513466
vn -0.28870708 0.49772975 0.8178711
vn -0.8079776 0.5870153 -0.050845757
vn -0.58776695 0.80903023 0
vn -0.62435925 0.63754344 0.4513466
vn -0.6198697 0.63448834 -0.4617207
vn -0.26288933 0.8091766 -0.5254735
vn -0.08420298 0.57522935 -0.8136468
vn 0.68519056 0.55047804 -0.4769568
vn 0.85488194 0.25318983 -0.45284846
vn 0.9016222 0.43184352 0.024262588
vn 0.587787 0.8090158 0
vn 0.24003372 0.73871785 -0.62982523
vn 0.27302387 0.46569094 -0.8417778
vn -0.15653099 0.48180047 -0.8621869
vn -0.2575543 0.7926837 -0.5525561
vn -0 1 0
vn -0.587787 0.8090158 0
vn 0.626968 0.5039428 0.5940982
vn 0.8404373 0.29765362 0.4528437
vn -0.24003372 0.73871785 0.62982523
vn -0.67429906 0.4898999 0.5525566
vn -0.31459117 0.35368618 0.8808736
vn 0.2575543 0.7926837 0.5525561
vn 0.12711304 0.3912579 0.91146004
vn 0.059359625 0.18271777 0.98137176
vn 0.12711304 0.3912579 0.91146004
vn 0.28783023 0.2091202 0.9345707
vn 0.059359625 0.18271777 0.98137176
vn -0.8404373 0.29765362 -0.4528437
vn -0.626968 0.5039428 -0.5940982
vn -0.9016222 0.43184352 -0.024262588
vn -0.587787 0.8090158 0
vn -0.67429906 0.4898999 0.5525566
vn -0.7345949 0.24271846 0.63360715
vn -0.31459117 0.35368618 0.8808736
vn -0.2575543 0.7926837 -0.5525561
vn -0.15653099 0.48180047 -0.8621869
vn -0.3768783 0.27381584 -0.8848659
g mdlVoidWhaleEyes_0
f 3/3/3 2/2/2 1/1/1
f 3/3/3 1/1/1 4/4/4
f 5/5/5 3/3/3 4/4/4
f 5/5/5 4/4/4 6/6/6
f 6/6/6 4/4/4 7/7/7
f 6/6/6 7/7/7 8/8/8
f 8/8/8 7/7/7 9/9/9
f 7/7/7 10/10/10 9/9/9
f 7/7/7 4/4/4 11/11/11
f 7/7/7 11/11/11 10/10/10
f 4/4/4 1/1/1 11/11/11
f 11/11/11 12/12/12 10/10/10
f 1/1/1 13/13/13 11/11/11
f 11/11/11 13/13/13 12/12/12
f 1/1/1 14/14/14 13/13/13
f 13/13/13 15/15/15 12/12/12
f 13/13/13 14/14/14 16/16/16
f 13/13/13 16/16/16 15/15/15
f 19/19/19 18/18/18 17/17/17
f 20/20/20 19/19/19 17/17/17
f 21/21/21 19/19/19 20/20/20
f 21/21/21 20/20/20 22/22/22
f 25/25/25 24/24/24 23/23/23
f 24/24/24 26/26/26 23/23/23
f 23/23/23 26/26/26 27/27/27
f 23/23/23 27/27/27 28/28/28
f 28/28/28 27/27/27 29/29/29
f 27/27/27 30/30/30 29/29/29
f 27/27/27 31/31/31 30/30/30
f 27/27/27 26/26/26 31/31/31
f 31/31/31 32/32/32 30/30/30
f 24/24/24 33/33/33 26/26/26
f 34/34/34 33/33/33 24/24/24
f 31/31/31 35/35/35 32/32/32
f 35/35/35 36/36/36 32/32/32
f 35/35/35 37/37/37 36/36/36
f 26/26/26 38/38/38 31/31/31
f 33/33/33 38/38/38 26/26/26
f 38/38/38 35/35/35 31/31/31
f 35/35/35 39/39/39 37/37/37
f 38/38/38 39/39/39 35/35/35
f 39/39/39 40/40/40 37/37/37
f 33/33/33 41/41/41 38/38/38
f 33/33/33 42/42/42 41/41/41
f 42/42/42 43/43/43 41/41/41
f 46/46/46 45/45/45 44/44/44
f 46/46/46 47/47/47 45/45/45
f 47/47/47 48/48/48 45/45/45
f 48/48/48 49/49/49 45/45/45
f 48/48/48 50/50/50 49/49/49
f 51/51/51 47/47/47 46/46/46
f 51/51/51 46/46/46 52/52/52
f 52/52/52 46/46/46 53/53/53
f 56/56/56 55/55/55 54/54/54
f 54/54/54 55/55/55 57/57/57
f 55/55/55 58/58/58 57/57/57
f 57/57/57 58/58/58 59/59/59
f 57/57/57 59/59/59 60/60/60
f 60/60/60 59/59/59 61/61/61
f 60/60/60 61/61/61 62/62/62
f 63/63/63 60/60/60 62/62/62
f 57/57/57 60/60/60 64/64/64
f 64/64/64 60/60/60 63/63/63
f 54/54/54 57/57/57 64/64/64
f 65/65/65 64/64/64 63/63/63
f 66/66/66 54/54/54 64/64/64
f 66/66/66 64/64/64 65/65/65
f 67/67/67 54/54/54 66/66/66
f 68/68/68 66/66/66 65/65/65
f 67/67/67 66/66/66 69/69/69
f 69/69/69 66/66/66 68/68/68
f 72/72/72 71/71/71 70/70/70
f 71/71/71 73/73/73 70/70/70
f 71/71/71 74/74/74 73/73/73
f 73/73/73 74/74/74 75/75/75
f 78/78/78 77/77/77 76/76/76
f 79/79/79 78/78/78 76/76/76
f 79/79/79 76/76/76 80/80/80
f 80/80/80 76/76/76 81/81/81
f 80/80/80 81/81/81 82/82/82
f 83/83/83 80/80/80 82/82/82
f 84/84/84 80/80/80 83/83/83
f 79/79/79 80/80/80 84/84/84
f 85/85/85 84/84/84 83/83/83
f 86/86/86 78/78/78 79/79/79
f 86/86/86 87/87/87 78/78/78
f 88/88/88 84/84/84 85/85/85
f 89/89/89 88/88/88 85/85/85
f 90/90/90 88/88/88 89/89/89
f 91/91/91 79/79/79 84/84/84
f 91/91/91 86/86/86 79/79/79
f 88/88/88 91/91/91 84/84/84
f 92/92/92 88/88/88 90/90/90
f 92/92/92 91/91/91 88/88/88
f 93/93/93 92/92/92 90/90/90
f 94/94/94 86/86/86 91/91/91
f 95/95/95 86/86/86 94/94/94
f 96/96/96 95/95/95 94/94/94
f 99/99/99 98/98/98 97/97/97
f 100/100/100 98/98/98 99/99/99
f 101/101/101 100/100/100 99/99/99
f 102/102/102 101/101/101 99/99/99
f 103/103/103 101/101/101 102/102/102
f 100/100/100 104/104/104 98/98/98
f 98/98/98 104/104/104 105/105/105
f 98/98/98 105/105/105 106/106/106
