g mdlVoidSupportPlatform.001
v 15.323199 15.272035 21.460758
v 13.490338 15.877488 21.46076
v 17.085701 14.490691 21.460762
v 16.213213 -21.039675 21.460756
v 17.93736 -20.171766 21.46076
v 14.41438 -21.733479 21.46076
v 3.9415705 -22.248346 0.1021638
v 7.76618 -22.719906 0.1021638
v 5.841132 -22.577868 0.102163814
v 4.2670107 -20.798677 0.1021638
v 2.0811555 -21.733458 0.102163814
v 2.5472517 -20.32272 0.10216381
v 0.28241882 -21.039688 0.10216379
v 0.8844392 -19.681376 0.10216381
v -1.441742 -20.171772 0.102163814
v 6.023028 -21.103304 0.10216381
v 7.802607 -21.234606 0.10216381
v 9.584252 -21.190796 0.10216381
v 9.693552 -22.67251 0.102163814
v -1.486476 -18.438799 0.10216383
v -3.0706048 -19.140394 0.1021638
v -4.592299 -17.9528 0.10216381
v -3.6218235 -16.82781 0.10216381
v -6.324 -16.276947 0.1021638
v -5.222642 -15.278619 0.1021638
v -6.6096683 -13.531121 0.10216381
v -7.8244367 -14.386562 0.10216377
v -8.855813 -12.757706 0.1021638
v -8.001622 -11.251286 0.1021638
v -9.908229 -10.627305 0.10216379
v -10.691621 -8.361979 0.1021638
v -9.266349 -8.000355 0.1021638
v -11.109593 -6.625717 0.10216381
v -11.242904 -5.3086076 0.10216381
v -9.913395 -4.959971 0.1021638
v -11.044505 -4.493664 0.1021638
v -10.528766 -4.2035933 0.10216383
v -10.146197 -4.4368896 0.10216381
v 17.892902 -20.232004 0.1021638
v 15.313637 -21.411837 0.1021638
v 13.490392 -22.013767 0.102163814
v 13.947848 -20.345694 0.1021638
v 11.609316 -22.436258 0.10216379
v 17.099316 -18.967478 0.10216379
v 11.35522 -20.972403 0.10216381
v 9.584252 -21.190796 0.10216381
v 9.693552 -22.67251 0.102163814
v 19.797188 -19.0072 0.1021638
v 19.371075 -17.554657 0.10216379
v 20.351904 -18.369059 0.102163784
v 20.357412 -17.808678 0.10216382
v 19.941639 -17.43747 0.10216381
v 26.980967 -1.4491742 0.10216383
v 26.595596 -1.2301319 0.10216381
v 27.50982 -1.2457172 0.1021638
v 27.481564 1.2122488 0.1021638
v 27.71451 -0.59388566 0.1021638
v 26.367556 -0.7911259 0.1021638
v 25.752687 1.9025459 0.1021638
v 26.399246 4.50143 0.102163784
v 24.495768 5.1177235 0.1021638
v 25.116505 7.0440683 0.1021638
v 22.851585 7.761362 0.102163814
v 23.745043 9.025524 0.10216381
v 21.408247 9.462662 0.10216381
v 22.154833 10.8389 0.10216379
v 19.78167 10.985936 0.1021638
v 20.34144 12.429117 0.10216379
v 17.970293 12.284105 0.10216381
v 18.765224 13.539303 0.10216379
v 17.085701 14.490691 0.1021638
v 16.020128 13.367781 0.1021638
v 15.323199 15.272035 0.10216377
v 13.948313 14.1864395 0.10216381
v 13.490338 15.877488 0.10216379
v 12.228598 14.662386 0.10216381
v 11.134857 16.386284 0.1021638
v 10.472626 14.967005 0.10216381
v 8.7294855 16.58361 0.10216379
v 8.247784 15.112884 0.102163814
v 4.410837 16.221464 0.1021638
v 6.8020906 16.53622 0.102163814
v 5.5789504 14.915896 0.10216381
v 2.543024 14.207968 0.10216376
v 2.0812023 15.597175 0.1021638
v 0.2974603 14.909887 0.1021638
v -0.6505263 12.802172 0.10216379
v -1.4191782 14.05351 0.102163784
v -3.0039418 13.067661 0.10216379
v -4.19314 12.099956 0.1021638
v -3.4342866 10.988069 0.10216379
v -4.714853 11.307569 0.10216382
v -4.624254 10.886614 0.10216381
v -4.258397 10.692398 0.102163814
v 11.794729 -20.899837 21.46076
v 9.584252 -21.190796 21.460758
v 9.693552 -22.67251 21.46076
v 12.084756 -22.35776 21.460756
v 14.41438 -21.733479 21.46076
v 13.94826 -20.322748 21.460758
v 17.93736 -20.171766 21.46076
v 15.611135 -19.68139 21.46076
v 17.595709 -18.661911 21.46076
v 19.566221 -19.140392 21.460758
v 19.781708 -17.1222 21.460758
v 21.408278 -15.5989275 21.46076
v 21.087914 -17.952803 21.46076
v 22.819622 -16.276941 21.460758
v 22.851606 -13.897626 21.46076
v 24.320095 -14.386502 21.460758
v 24.058702 -12.025377 21.460758
v 24.861029 -10.4315195 21.46076
v 25.351439 -12.757681 21.460758
v 26.219357 -11.033511 21.460758
v 26.91315 -9.234682 21.46076
v 25.64589 -8.345834 21.460758
v 26.231852 -5.7370048 21.46076
v 27.537424 -6.9050727 21.460754
v 27.85217 -4.513849 21.46076
v 27.891663 -2.1043596 21.460758
v 26.436111 -2.622407 21.46076
v 27.537428 0.76876587 21.460756
v 26.15206 0.03927667 21.46076
v 25.6459 2.209491 21.460758
v 26.913116 3.09849 21.46076
v 24.861034 4.2952023 21.46076
v 26.219313 4.8973055 21.460756
v 25.116505 7.0440683 21.46076
v 24.058733 5.889029 21.460758
v 22.851585 7.761362 21.46076
v 23.745043 9.025524 21.460758
v 21.408247 9.462662 21.46076
v 22.154833 10.8389 21.460754
v 20.34144 12.429117 21.46076
v 19.78167 10.985936 21.460758
v 18.765224 13.539303 21.460758
v 17.970293 12.284105 21.460758
v 16.020128 13.367781 21.46076
v 17.085701 14.490691 21.460762
v 13.490338 15.877488 21.46076
v 13.948313 14.1864395 21.460758
v 12.228598 14.662386 21.46076
v 11.134857 16.386284 21.460758
v 10.472626 14.967005 21.460758
v 8.247784 15.112884 21.46076
v 8.7294855 16.58361 21.460758
v 6.8020906 16.53622 21.460758
v 5.5789504 14.915896 21.46076
v 4.410837 16.221464 21.460756
v 2.0812023 15.597175 21.46076
v 3.4014924 14.445552 21.46076
v 1.7071668 13.885859 21.46076
v 0.2824259 14.903394 21.460758
v 0.07789021 13.163576 21.460758
v -1.4417349 14.03548 21.460762
v -1.4747013 12.28409 21.46076
v -3.0705943 13.004105 21.460758
v -2.931786 11.2578125 21.460758
v -4.592313 11.816493 21.460762
v -4.282963 10.092331 21.46076
v -6.324007 10.140644 21.460758
v -5.511832 8.801511 21.46076
v -6.8691697 7.0326896 21.46076
v -7.8244166 8.250296 21.460758
v -8.855804 6.621421 21.460758
v -7.983917 5.1017737 21.46076
v -9.922612 4.4582906 21.460756
v -8.706199 3.4725022 21.46076
v -10.697828 2.1743908 21.46076
v -9.265894 1.7781729 21.46076
v -9.656453 0.03925181 21.46076
v -11.206622 -0.18107237 21.460758
v -9.874843 -1.7317287 21.46076
v -11.40395 -2.5864828 21.460758
v -9.918648 -3.513426 21.46076
v -11.356563 -4.513819 21.460758
v -9.78734 -5.2929854 21.46076
v -11.120319 -6.42959 21.460758
v -9.482722 -7.0489497 21.46076
v -10.572768 -8.777306 21.460762
v -9.0067625 -8.768699 21.46076
v -8.365424 -10.4314995 21.46076
v -9.723723 -11.033557 21.460758
v -7.5631027 -12.025356 21.460758
v -8.855813 -12.757705 21.460762
v -6.6096683 -13.531121 21.46076
v -7.8244367 -14.386562 21.460758
v -6.324 -16.276947 21.46076
v -5.222642 -15.278619 21.46076
v -4.592299 -17.9528 21.460758
v -3.6218235 -16.82781 21.46076
v -1.4864758 -18.438799 21.46076
v -3.0706048 -19.140396 21.460758
v -1.441742 -20.171772 21.46076
v 0.28241882 -21.039688 21.460758
v 0.8844392 -19.681376 21.46076
v 2.0811555 -21.733458 21.46076
v 2.5472517 -20.32272 21.460758
v 3.9415705 -22.248346 21.460758
v 4.2670107 -20.798677 21.46076
v 5.841132 -22.577868 21.46076
v 6.023028 -21.103304 21.460758
v 7.76618 -22.719906 21.460758
v 7.802607 -21.234606 21.46076
v 9.693552 -22.67251 21.46076
v 9.584252 -21.190796 21.460758
vt -0.7794974 0.541747
vt -0.5059918 0.541747
vt -1.0526705 0.54176366
vt -7.3396654 0.5417303
vt -7.0661607 0.541747
vt -7.6128473 0.541747
vt 1.1021318 0.23988235
vt 1.1432517 0.23988235
vt 1.1226792 0.23988235
vt 1.1021315 0.5395342
vt 1.0815587 0.23988235
vt 1.0815588 0.5395342
vt 1.0610118 0.23988235
vt 1.0610116 0.5395342
vt 1.0404392 0.23988235
vt 1.1226792 0.5395342
vt 1.1432519 0.5395342
vt 1.163799 0.5395342
vt 1.1637993 0.23988235
vt 1.0301546 0.5395342
vt 1.0198919 0.23988235
vt 0.99931955 0.23988235
vt 0.9993196 0.5395342
vt 0.9736371 0.23988235
vt 0.9736371 0.5395342
vt 0.947916 0.5395342
vt 0.94791573 0.23988235
vt 0.9273684 0.23988235
vt 0.9171237 0.5395342
vt 0.9020446 0.23988235
vt 0.87650394 0.23988235
vt 0.8769114 0.5395342
vt 0.8574879 0.23988235
vt 0.84339225 0.23988235
vt 0.841161 0.5395342
vt 0.8348705 0.23988235
vt 0.832073 0.23988235
vt 0.8349793 0.5395342
vt -0.060235266 0.23988235
vt -0.09045279 0.23988235
vt -0.11091602 0.23988235
vt -0.10071623 0.5395342
vt -0.13146347 0.23988235
vt -0.061067943 0.5395342
vt -0.13146389 0.5395342
vt -0.15203619 0.5395342
vt -0.15203589 0.23988235
vt -0.03613544 0.23988235
vt -0.030318681 0.5395342
vt -0.027291898 0.23988235
vt -0.02342755 0.23988235
vt -0.02439553 0.5395342
vt 0.17956075 0.5395342
vt 0.18241614 0.5395342
vt 0.18126196 0.23988235
vt 0.20736542 0.23988235
vt 0.18798277 0.23988235
vt 0.18768659 0.5395342
vt 0.21944904 0.5395342
vt 0.2442483 0.23988235
vt 0.25924182 0.5395342
vt 0.27460012 0.23988235
vt 0.29513347 0.5395342
vt 0.30028212 0.23988235
vt 0.32085478 0.5395342
vt 0.32598636 0.23988235
vt 0.34654635 0.5395342
vt 0.35169074 0.23988235
vt 0.37223843 0.5395342
vt 0.37223822 0.23988235
vt 0.39281052 0.23988235
vt 0.39795938 0.5395342
vt 0.41335788 0.23988235
vt 0.42364186 0.5395342
vt 0.43393022 0.23988235
vt 0.444214 0.5395342
vt 0.45961246 0.23988235
vt 0.46476117 0.5395342
vt 0.48533353 0.23988235
vt 0.49046582 0.5395342
vt 0.53158575 0.23988235
vt 0.50588137 0.23988235
vt 0.5213189 0.5395342
vt 0.5572583 0.5395342
vt 0.5572896 0.23988235
vt 0.5776625 0.23988235
vt 0.5974829 0.5395342
vt 0.5981057 0.23988235
vt 0.61798704 0.23988235
vt 0.6343257 0.23988235
vt 0.6356823 0.5395342
vt 0.6441301 0.23988235
vt 0.64649755 0.23988235
vt 0.6449518 0.5395342
vt -7.9545784 0.24040827
vt -8.296306 0.24040827
vt -8.296301 0.541747
vt -7.9545736 0.5417303
vt -7.6128473 0.541747
vt -7.612855 0.24040827
vt -7.0661607 0.541747
vt -7.339673 0.24040827
vt -6.9977045 0.24040827
vt -6.7929873 0.541747
vt -6.5878687 0.24040827
vt -6.2463055 0.24040827
vt -6.5194826 0.541747
vt -6.1780376 0.541747
vt -5.904346 0.24040827
vt -5.8360686 0.541747
vt -5.56291 0.24040827
vt -5.2893996 0.24040827
vt -5.562902 0.541747
vt -5.2893934 0.541747
vt -5.016212 0.541747
vt -4.9478364 0.24040827
vt -4.5379987 0.24040827
vt -4.6744885 0.5417303
vt -4.332759 0.541747
vt -3.9913173 0.541747
vt -4.059591 0.24040827
vt -3.5811338 0.5417303
vt -3.649353 0.24040827
vt -3.3077915 0.24040827
vt -3.2393932 0.541747
vt -2.966224 0.24040827
vt -2.9662132 0.5417303
vt -2.6242564 0.541747
vt -2.6927202 0.24040827
vt -2.351269 0.24040827
vt -2.282818 0.541747
vt -2.009309 0.24040827
vt -1.9410856 0.5417303
vt -1.5993507 0.541747
vt -1.6677439 0.24040827
vt -1.3261756 0.541747
vt -1.3261728 0.24040827
vt -0.9842173 0.24040827
vt -1.0526705 0.54176366
vt -0.5059918 0.541747
vt -0.6427735 0.24040827
vt -0.36927104 0.24040827
vt -0.16455144 0.541747
vt -0.09610015 0.24040827
vt 0.24563837 0.24040827
vt 0.1774055 0.541747
vt 0.45058525 0.541747
vt 0.65582407 0.24040827
vt 0.7923202 0.5417303
vt 1.1340477 0.541747
vt 0.997265 0.24040827
vt 1.27077 0.24040827
vt 1.4072211 0.541747
vt 1.5439413 0.24040827
vt 1.6807282 0.54176366
vt 1.8174475 0.24040827
vt 1.9539019 0.541747
vt 2.0906231 0.24040827
vt 2.227411 0.54176366
vt 2.364128 0.24040827
vt 2.568853 0.541747
vt 2.637304 0.24040827
vt 2.9790387 0.24040827
vt 2.9108083 0.541747
vt 3.1839836 0.541747
vt 3.3207746 0.24040827
vt 3.5257192 0.5417303
vt 3.593945 0.24040827
vt 3.867453 0.541747
vt 3.86745 0.24040827
vt 4.140627 0.24040827
vt 4.208891 0.541747
vt 4.414135 0.24040827
vt 4.5508533 0.541747
vt 4.687312 0.24040827
vt 4.8240256 0.541747
vt 4.9608197 0.24040827
vt 5.0975313 0.541747
vt 5.2339883 0.24040827
vt 5.4391017 0.54176366
vt 5.5074973 0.24040827
vt 5.7806673 0.24040827
vt 5.7806706 0.541747
vt 6.0541763 0.24040827
vt 6.0541763 0.54176366
vt 6.3273525 0.24040827
vt 6.3273497 0.541747
vt 6.6693106 0.541747
vt 6.6693106 0.24040827
vt 7.0107536 0.541747
vt 7.010755 0.24040827
vt 7.4206996 0.24040827
vt 7.2842584 0.541747
vt 7.5574327 0.541747
vt 7.830939 0.541747
vt 7.8309374 0.24040827
vt 8.104107 0.541747
vt 8.10411 0.24040827
vt 8.377624 0.541747
vt 8.377619 0.24040827
vt 8.650798 0.541747
vt 8.650797 0.24040827
vt 8.924304 0.541747
vt 8.924308 0.24040827
vt 9.197483 0.541747
vt 9.197477 0.24040827
vn -2.0903448E-05 -2.8367162E-05 -1
vn -0 0 -1
vn -0 0 -1
vn -2.0902136E-05 3.6818903E-05 -1
vn -0 0 -1
vn -0 0 -1
vn -0 0 1
vn -0 0 1
vn -0 0 1
vn -0 0 1
vn -0 0 1
vn -0 0 1
vn -0 0 1
vn -0 0 1
vn -0 0 1
vn -0 0 1
vn -0 0 1
vn -0 0 1
vn -0 0 1
vn -0 0 1
vn -0 0 1
vn -0 0 1
vn -0 0 1
vn -0 0 1
vn -0 0 1
vn -0 0 1
vn -0 0 1
vn -0 0 1
vn -0 0 1
vn -0 0 1
vn -0 0 1
vn -0 0 1
vn -0 0 1
vn -0 0 1
vn -0 0 1
vn -0 0 1
vn -0 0 1
vn -0 0 1
vn -0 0 1
vn -0 0 1
vn -0 0 1
vn -0 0 1
vn -0 0 1
vn -0 0 1
vn -0 0 1
vn -0 0 1
vn -0 0 1
vn -0 0 1
vn -0 0 1
vn -0 0 1
vn -0 0 1
vn -0 0 1
vn -0 0 1
vn -0 0 1
vn -0 0 1
vn -0 0 1
vn -0 0 1
vn -0 0 1
vn -0 0 1
vn -0 0 1
vn -0 0 1
vn -0 0 1
vn -0 0 1
vn -0 0 1
vn -0 0 1
vn -0 0 1
vn -0 0 1
vn -0 0 1
vn -0 0 1
vn -0 0 1
vn -0 0 1
vn -0 0 1
vn -0 0 1
vn -0 0 1
vn -0 0 1
vn -0 0 1
vn -0 0 1
vn -0 0 1
vn -0 0 1
vn -0 0 1
vn -0 0 1
vn -0 0 1
vn -0 0 1
vn -0 0 1
vn -0 0 1
vn -0 0 1
vn -0 0 1
vn -0 0 1
vn -0 0 1
vn -0 0 1
vn -0 0 1
vn -0 0 1
vn -0 0 1
vn -0 0 1
vn -0 0 -1
vn -0 0 -1
vn -0 0 -1
vn -0 0 -1
vn -0 0 -1
vn -0 0 -1
vn -0 0 -1
vn -0 0 -1
vn -0 0 -1
vn -0 0 -1
vn -0 0 -1
vn -0 0 -1
vn -0 0 -1
vn -0 0 -1
vn -0 0 -1
vn -0 0 -1
vn -0 0 -1
vn -0 0 -1
vn -0 0 -1
vn -0 0 -1
vn -0 0 -1
vn -0 0 -1
vn -0 0 -1
vn -0 0 -1
vn -0 0 -1
vn -0 0 -1
vn -0 0 -1
vn -0 0 -1
vn -0 0 -1
vn -0 0 -1
vn -0 0 -1
vn -0 0 -1
vn -0 0 -1
vn -0 0 -1
vn -0 0 -1
vn -0 0 -1
vn -0 0 -1
vn -0 0 -1
vn -0 0 -1
vn -0 0 -1
vn -0 0 -1
vn -0 0 -1
vn -0 0 -1
vn -0 0 -1
vn -0 0 -1
vn -0 0 -1
vn -0 0 -1
vn -0 0 -1
vn -0 0 -1
vn -0 0 -1
vn -0 0 -1
vn -0 0 -1
vn -0 0 -1
vn -0 0 -1
vn -0 0 -1
vn -0 0 -1
vn -0 0 -1
vn -0 0 -1
vn -0 0 -1
vn -0 0 -1
vn -0 0 -1
vn -0 0 -1
vn -0 0 -1
vn -0 0 -1
vn -0 0 -1
vn -0 0 -1
vn -0 0 -1
vn -0 0 -1
vn -0 0 -1
vn -0 0 -1
vn -0 0 -1
vn -0 0 -1
vn -0 0 -1
vn -0 0 -1
vn -0 0 -1
vn -0 0 -1
vn -0 0 -1
vn -0 0 -1
vn -0 0 -1
vn -0 0 -1
vn -0 0 -1
vn -0 0 -1
vn -0 0 -1
vn -0 0 -1
vn -0 0 -1
vn -0 0 -1
vn -0 0 -1
vn -0 0 -1
vn -0 0 -1
vn -0 0 -1
vn -0 0 -1
vn -0 0 -1
vn -0 0 -1
vn -0 0 -1
vn -0 0 -1
vn -0 0 -1
vn -0 0 -1
vn -0 0 -1
vn -0 0 -1
vn -0 0 -1
vn -0 0 -1
vn -0 0 -1
vn -0 0 -1
vn -0 0 -1
vn -0 0 -1
vn -0 0 -1
vn -0 0 -1
vn -0 0 -1
vn -0 0 -1
vn -0 0 -1
vn -0 0 -1
vn -0 0 -1
g mdlVoidSupportPlatform.001_0
f 3/3/3 2/2/2 1/1/1
f 6/6/6 5/5/5 4/4/4
f 9/9/9 8/8/8 7/7/7
f 7/7/7 8/8/8 10/10/10
f 7/7/7 10/10/10 11/11/11
f 10/10/10 12/12/12 11/11/11
f 11/11/11 12/12/12 13/13/13
f 13/13/13 12/12/12 14/14/14
f 13/13/13 14/14/14 15/15/15
f 8/8/8 16/16/16 10/10/10
f 16/16/16 8/8/8 17/17/17
f 8/8/8 18/18/18 17/17/17
f 19/19/19 18/18/18 8/8/8
f 14/14/14 20/20/20 15/15/15
f 21/21/21 15/15/15 20/20/20
f 22/22/22 21/21/21 20/20/20
f 23/23/23 22/22/22 20/20/20
f 22/22/22 23/23/23 24/24/24
f 24/24/24 23/23/23 25/25/25
f 24/24/24 25/25/25 26/26/26
f 27/27/27 24/24/24 26/26/26
f 27/27/27 26/26/26 28/28/28
f 26/26/26 29/29/29 28/28/28
f 28/28/28 29/29/29 30/30/30
f 30/30/30 29/29/29 31/31/31
f 31/31/31 29/29/29 32/32/32
f 33/33/33 31/31/31 32/32/32
f 32/32/32 34/34/34 33/33/33
f 32/32/32 35/35/35 34/34/34
f 34/34/34 35/35/35 36/36/36
f 35/35/35 37/37/37 36/36/36
f 37/37/37 35/35/35 38/38/38
f 41/41/41 40/40/40 39/39/39
f 41/41/41 39/39/39 42/42/42
f 41/41/41 42/42/42 43/43/43
f 42/42/42 39/39/39 44/44/44
f 43/43/43 42/42/42 45/45/45
f 46/46/46 43/43/43 45/45/45
f 46/46/46 47/47/47 43/43/43
f 44/44/44 39/39/39 48/48/48
f 48/48/48 49/49/49 44/44/44
f 50/50/50 49/49/49 48/48/48
f 50/50/50 51/51/51 49/49/49
f 49/49/49 51/51/51 52/52/52
f 55/55/55 54/54/54 53/53/53
f 55/55/55 56/56/56 54/54/54
f 55/55/55 57/57/57 56/56/56
f 54/54/54 56/56/56 58/58/58
f 56/56/56 59/59/59 58/58/58
f 56/56/56 60/60/60 59/59/59
f 60/60/60 61/61/61 59/59/59
f 60/60/60 62/62/62 61/61/61
f 61/61/61 62/62/62 63/63/63
f 64/64/64 63/63/63 62/62/62
f 63/63/63 64/64/64 65/65/65
f 64/64/64 66/66/66 65/65/65
f 66/66/66 67/67/67 65/65/65
f 68/68/68 67/67/67 66/66/66
f 67/67/67 68/68/68 69/69/69
f 68/68/68 70/70/70 69/69/69
f 70/70/70 71/71/71 69/69/69
f 71/71/71 72/72/72 69/69/69
f 71/71/71 73/73/73 72/72/72
f 73/73/73 74/74/74 72/72/72
f 73/73/73 75/75/75 74/74/74
f 74/74/74 75/75/75 76/76/76
f 75/75/75 77/77/77 76/76/76
f 77/77/77 78/78/78 76/76/76
f 78/78/78 77/77/77 79/79/79
f 78/78/78 79/79/79 80/80/80
f 79/79/79 81/81/81 80/80/80
f 82/82/82 81/81/81 79/79/79
f 81/81/81 83/83/83 80/80/80
f 81/81/81 84/84/84 83/83/83
f 81/81/81 85/85/85 84/84/84
f 85/85/85 86/86/86 84/84/84
f 84/84/84 86/86/86 87/87/87
f 86/86/86 88/88/88 87/87/87
f 88/88/88 89/89/89 87/87/87
f 89/89/89 90/90/90 87/87/87
f 90/90/90 91/91/91 87/87/87
f 91/91/91 90/90/90 92/92/92
f 93/93/93 91/91/91 92/92/92
f 93/93/93 94/94/94 91/91/91
f 97/97/97 96/96/96 95/95/95
f 98/98/98 97/97/97 95/95/95
f 99/99/99 98/98/98 95/95/95
f 100/100/100 99/99/99 95/95/95
f 101/101/101 99/99/99 100/100/100
f 102/102/102 101/101/101 100/100/100
f 102/102/102 103/103/103 101/101/101
f 104/104/104 101/101/101 103/103/103
f 103/103/103 105/105/105 104/104/104
f 106/106/106 104/104/104 105/105/105
f 107/107/107 104/104/104 106/106/106
f 107/107/107 106/106/106 108/108/108
f 106/106/106 109/109/109 108/108/108
f 110/110/110 108/108/108 109/109/109
f 109/109/109 111/111/111 110/110/110
f 110/110/110 111/111/111 112/112/112
f 110/110/110 112/112/112 113/113/113
f 114/114/114 113/113/113 112/112/112
f 114/114/114 112/112/112 115/115/115
f 112/112/112 116/116/116 115/115/115
f 117/117/117 115/115/115 116/116/116
f 118/118/118 115/115/115 117/117/117
f 118/118/118 117/117/117 119/119/119
f 119/119/119 117/117/117 120/120/120
f 120/120/120 117/117/117 121/121/121
f 120/120/120 121/121/121 122/122/122
f 122/122/122 121/121/121 123/123/123
f 122/122/122 123/123/123 124/124/124
f 122/122/122 124/124/124 125/125/125
f 126/126/126 125/125/125 124/124/124
f 125/125/125 126/126/126 127/127/127
f 127/127/127 126/126/126 128/128/128
f 126/126/126 129/129/129 128/128/128
f 130/130/130 128/128/128 129/129/129
f 128/128/128 130/130/130 131/131/131
f 131/131/131 130/130/130 132/132/132
f 133/133/133 131/131/131 132/132/132
f 133/133/133 132/132/132 134/134/134
f 132/132/132 135/135/135 134/134/134
f 136/136/136 134/134/134 135/135/135
f 136/136/136 135/135/135 137/137/137
f 136/136/136 137/137/137 138/138/138
f 136/136/136 138/138/138 139/139/139
f 140/140/140 139/139/139 138/138/138
f 141/141/141 140/140/140 138/138/138
f 140/140/140 141/141/141 142/142/142
f 140/140/140 142/142/142 143/143/143
f 142/142/142 144/144/144 143/143/143
f 143/143/143 144/144/144 145/145/145
f 146/146/146 143/143/143 145/145/145
f 146/146/146 145/145/145 147/147/147
f 145/145/145 148/148/148 147/147/147
f 149/149/149 147/147/147 148/148/148
f 150/150/150 149/149/149 148/148/148
f 151/151/151 150/150/150 148/148/148
f 150/150/150 151/151/151 152/152/152
f 153/153/153 150/150/150 152/152/152
f 154/154/154 153/153/153 152/152/152
f 153/153/153 154/154/154 155/155/155
f 155/155/155 154/154/154 156/156/156
f 157/157/157 155/155/155 156/156/156
f 158/158/158 157/157/157 156/156/156
f 157/157/157 158/158/158 159/159/159
f 159/159/159 158/158/158 160/160/160
f 161/161/161 159/159/159 160/160/160
f 162/162/162 161/161/161 160/160/160
f 162/162/162 163/163/163 161/161/161
f 163/163/163 164/164/164 161/161/161
f 164/164/164 163/163/163 165/165/165
f 163/163/163 166/166/166 165/165/165
f 167/167/167 165/165/165 166/166/166
f 167/167/167 166/166/166 168/168/168
f 169/169/169 167/167/167 168/168/168
f 170/170/170 169/169/169 168/168/168
f 169/169/169 170/170/170 171/171/171
f 169/169/169 171/171/171 172/172/172
f 171/171/171 173/173/173 172/172/172
f 174/174/174 172/172/172 173/173/173
f 174/174/174 173/173/173 175/175/175
f 174/174/174 175/175/175 176/176/176
f 175/175/175 177/177/177 176/176/176
f 178/178/178 176/176/176 177/177/177
f 178/178/178 177/177/177 179/179/179
f 178/178/178 179/179/179 180/180/180
f 179/179/179 181/181/181 180/180/180
f 180/180/180 181/181/181 182/182/182
f 180/180/180 182/182/182 183/183/183
f 183/183/183 182/182/182 184/184/184
f 183/183/183 184/184/184 185/185/185
f 185/185/185 184/184/184 186/186/186
f 185/185/185 186/186/186 187/187/187
f 188/188/188 187/187/187 186/186/186
f 189/189/189 188/188/188 186/186/186
f 190/190/190 188/188/188 189/189/189
f 191/191/191 190/190/190 189/189/189
f 191/191/191 192/192/192 190/190/190
f 192/192/192 193/193/193 190/190/190
f 193/193/193 192/192/192 194/194/194
f 194/194/194 192/192/192 195/195/195
f 195/195/195 192/192/192 196/196/196
f 197/197/197 195/195/195 196/196/196
f 198/198/198 197/197/197 196/196/196
f 197/197/197 198/198/198 199/199/199
f 199/199/199 198/198/198 200/200/200
f 201/201/201 199/199/199 200/200/200
f 202/202/202 201/201/201 200/200/200
f 201/201/201 202/202/202 203/203/203
f 203/203/203 202/202/202 204/204/204
f 203/203/203 204/204/204 205/205/205
f 204/204/204 206/206/206 205/205/205
