g mdlVoidPlatformBridge1
v 8.294479 36.125305 6.3219757
v 7.9267883 36.20981 6.048313
v 8.300369 36.391052 5.9713364
v 7.3274384 35.9877 2.8627586
v 6.8974304 -4.3934326 -4.8066216
v 24.707886 29.699493 -1.6233406
v -10.483093 1.894989 -0.32052612
v -8.068283 -35.062225 -8.945305
v -25.448898 -28.773743 -4.4591713
v 7.151932 36.09964 3.2766113
v 7.9267883 36.20981 6.048313
v -9.883606 2.117035 2.8650284
v -10.658569 2.0068054 0.09333801
v -24.849258 -28.551666 -1.2736359
v -25.624252 -28.661957 -4.045334
v -8.074173 -35.328003 -8.59465
v -25.454697 -29.039642 -4.1085434
v -24.679718 -28.929565 -1.3369102
v -7.2992706 -35.217865 -5.8230553
v -7.700577 -35.14685 -8.671646
v -6.9256744 -35.036682 -5.899967
v 7.265152 -4.478119 -4.5329895
v -7.700577 -35.14685 -8.671646
v -6.9256744 -35.036682 -5.899967
v 8.04007 -4.36792 -1.7613144
v 25.075623 29.614685 -1.3497086
v 25.85057 29.724915 1.4219971
v 7.525467 36.280884 3.1996956
v 24.905884 29.992584 -1.2864075
v 25.68097 30.102661 1.4852142
v 8.300369 36.391052 5.9713364
v 7.3274384 35.9877 2.8627586
v 7.525467 36.280884 3.1996956
v 7.151932 36.09964 3.2766113
v -10.483093 1.894989 -0.32052612
v -10.658569 2.0068054 0.09333801
v -25.448898 -28.773743 -4.4591713
v -25.624252 -28.661957 -4.045334
v -25.454697 -29.039642 -4.1085434
v -25.448898 -28.773743 -4.4591713
v -25.624252 -28.661957 -4.045334
v -8.074173 -35.328003 -8.59465
v -8.068283 -35.062225 -8.945305
v -7.2992706 -35.217865 -5.8230553
v -7.1011047 -34.924713 -5.4861183
v -6.9256744 -35.036682 -5.899967
v -24.679718 -28.929565 -1.3369102
v -24.481674 -28.636353 -0.9999962
v -24.849258 -28.551666 -1.2736359
v -9.883606 2.117035 2.8650284
v -9.515945 2.0324402 3.138691
v 7.9267883 36.20981 6.048313
v 8.294479 36.125305 6.3219757
v 8.88826 34.707153 6.298332
v -8.438095 1.6135864 3.1845055
v 25.674988 29.836884 1.8358574
v 24.23526 29.154297 2.3370628
v 25.68097 30.102661 1.4852142
v 8.300369 36.391052 5.9713364
v 25.85057 29.724915 1.4219971
v -7.700577 -35.14685 -8.671646
v -8.068283 -35.062225 -8.945305
v -8.074173 -35.328003 -8.59465
v 6.8974304 -4.3934326 -4.8066216
v 7.265152 -4.478119 -4.5329895
v 24.707886 29.699493 -1.6233406
v 7.525467 36.280884 3.1996956
v 7.3274384 35.9877 2.8627586
v 24.905884 29.992584 -1.2864075
v 25.075623 29.614685 -1.3497086
v 7.265152 -4.478119 -4.5329895
v 6.8974304 -4.3934326 -4.8066216
v -24.849258 -28.551666 -1.2736359
v -24.679718 -28.929565 -1.3369102
v -25.454697 -29.039642 -4.1085434
v -25.624252 -28.661957 -4.045334
v 7.151932 36.09964 3.2766113
v 7.525467 36.280884 3.1996956
v 8.300369 36.391052 5.9713364
v 7.9267883 36.20981 6.048313
v 25.85057 29.724915 1.4219971
v 25.68097 30.102661 1.4852142
v 24.905884 29.992584 -1.2864075
v 25.075623 29.614685 -1.3497086
v 22.602066 28.12442 3.958706
v 22.901459 28.383423 3.3724365
v 6.0592957 -3.710785 0.32804108
v 5.8905945 -3.6998901 0.9330597
v 9.837387 32.742798 7.2533684
v -7.9761047 -32.10016 -3.0479622
v -7.9381104 -32.38086 -3.6717415
v -21.251907 -27.563873 -0.23527145
v -6.874054 0.9184265 4.2277756
v -20.740784 -27.481812 0.24681473
v -7.25441 1.1062622 3.764492
v 9.58783 33.20044 6.8088837
v 9.837387 32.742798 7.2533684
v 9.58783 33.20044 6.8088837
v 22.901459 28.383423 3.3724365
v 22.602066 28.12442 3.958706
v -7.1011047 -34.924713 -5.4861183
v 8.04007 -4.36792 -1.7613144
v -6.9256744 -35.036682 -5.899967
v 7.864563 -4.255951 -1.3474274
v 25.85057 29.724915 1.4219971
v 25.674988 29.836884 1.8358574
v 24.23526 29.154297 2.3370628
v 6.9089813 -3.9391785 -0.77679825
v -7.572525 -33.60858 -4.846016
v -24.481674 -28.636353 -0.9999962
v -22.919739 -28.055908 -0.8847084
v -9.515945 2.0324402 3.138691
v -8.438095 1.6135864 3.1845055
v -8.045151 1.4152832 3.7116776
v 9.58783 33.20044 6.8088837
v -7.25441 1.1062622 3.764492
v -21.251907 -27.563873 -0.23527145
v 9.150543 34.239075 6.806755
v 22.901459 28.383423 3.3724365
v -22.396027 -27.984406 -0.33880234
v -8.438095 1.6135864 3.1845055
v 8.88826 34.707153 6.298332
v -22.919739 -28.055908 -0.8847084
v 24.23526 29.154297 2.3370628
v -7.5979004 -33.33847 -4.15839
v -7.572525 -33.60858 -4.846016
v -7.9381104 -32.38086 -3.6717415
v 6.9089813 -3.9391785 -0.77679825
v 23.948715 28.884735 2.9871216
v 6.7530365 -3.9388733 -0.10794449
v 6.0592957 -3.710785 0.32804108
vt 0.20915267 2.609914
vt 0.9826621 3.0160704
vt 0.15548408 2.1055384
vt 0.7553702 1.0990486
vt 0.37598646 0.4992765
vt 0.32560307 0.9513244
vt 0.6433111 0.49682775
vt 0.3682893 -0.017141553
vt 0.6499225 -0.01897111
vt 0.1272212 1.073981
vt 0.17084663 1.0844333
vt 0.16818978 0.48331523
vt 0.12456292 0.47285536
vt 0.14938827 -0.051751103
vt 0.10576187 -0.06221222
vt 0.110982575 0.5820356
vt 0.102857515 0.86255336
vt 0.15119296 0.86745864
vt 0.14508867 0.5799842
vt 0.1079172 0.5811123
vt 0.16754107 0.57840896
vt 0.12458766 0.50618017
vt 0.10772081 1.0413103
vt 0.15130885 1.030694
vt 0.16817617 0.495566
vt 0.12506889 -0.09493815
vt 0.16865967 -0.10555981
vt 0.1536678 0.57105947
vt 0.14268671 0.83525145
vt 0.18984784 0.85239977
vt 0.19095331 0.5901038
vt 0.7553702 1.0990486
vt 0.69526887 1.0847417
vt 0.69198394 1.0712998
vt 0.6433111 0.49682775
vt 0.6396757 0.496583
vt 0.6499225 -0.01897111
vt 0.63285166 -0.015194908
vt 0.6554811 -0.014176093
vt 0.6499225 -0.01897111
vt 0.63285166 -0.015194908
vt 0.3667217 -0.031705014
vt 0.3682893 -0.017141553
vt 0.97036123 -0.010497315
vt 0.96822995 -0.039838634
vt 0.97064847 -0.04097343
vt -0.0063293837 -0.020362284
vt -0.008069333 -0.034284502
vt -0.011453886 -0.019894922
vt 0.09465334 1.48759
vt 0.039576076 1.4779683
vt 0.9826621 3.0160704
vt 0.20915267 2.609914
vt -0.09604187 3.058969
vt 0.022465667 1.4702882
vt 1.1117647 2.242779
vt 0.94353235 3.1338644
vt 0.9844518 0.37940913
vt 0.15548408 2.1055384
vt 1.6203524 2.7707698
vt 0.3742134 -0.004797085
vt 0.3682893 -0.017141553
vt 0.3667217 -0.031705014
vt 0.37598646 0.4992765
vt 0.38060367 0.50042295
vt 0.32560307 0.9513244
vt 0.69526887 1.0847417
vt 0.7553702 1.0990486
vt 0.3464045 0.9697974
vt 0.31004667 1.0272274
vt 0.38060367 0.50042295
vt 0.37598646 0.4992765
vt 0.1474535 0.86170834
vt 0.15119296 0.86745864
vt 0.102857515 0.86255336
vt 0.104866326 0.8563988
vt 0.14386368 0.5353874
vt 0.1536678 0.57105947
vt 0.19095331 0.5901038
vt 0.20058008 0.6383393
vt 0.1876333 0.8327297
vt 0.18984784 0.85239977
vt 0.14268671 0.83525145
vt 0.14853236 0.81811297
vt 0.9567881 3.0995116
vt 0.95954406 3.089917
vt 0.9123517 1.4709576
vt 0.9031084 1.4708889
vt 0.08115914 3.0401344
vt 0.9146226 -0.015793694
vt 0.93036205 -0.022942934
vt 0.06903139 -0.010617659
vt 0.062225055 1.4727322
vt 0.0767954 -0.014281852
vt 0.059648722 1.4739287
vt 0.07653086 3.0407817
vt 0.08115914 3.0401344
vt 0.07653086 3.0407817
vt 0.95954406 3.089917
vt 0.9567881 3.0995116
vt 0.96822995 -0.039838634
vt 1.0030191 1.467531
vt 0.97064847 -0.04097343
vt 0.9818283 1.4738573
vt 1.6203524 2.7707698
vt 1.1117647 2.242779
vt 0.94353235 3.1338644
vt 0.942899 1.4739299
vt 0.9597819 -0.03539797
vt -0.008069333 -0.034284502
vt 0.03768969 -0.024194116
vt 0.039576076 1.4779683
vt 0.022465667 1.4702882
vt 0.029590402 1.4724423
vt 0.07653086 3.0407817
vt 0.059648722 1.4739287
vt 0.06903139 -0.010617659
vt 0.06340697 3.074143
vt 0.95954406 3.089917
vt 0.034316137 -0.018194558
vt 0.022465667 1.4702882
vt -0.09604187 3.058969
vt 0.03768969 -0.024194116
vt 0.94353235 3.1338644
vt 0.95375735 -0.02175207
vt 0.9597819 -0.03539797
vt 0.93036205 -0.022942934
vt 0.942899 1.4739299
vt 0.93634063 3.0970898
vt 0.9472157 1.4758098
vt 0.9123517 1.4709576
vn -0.033714537 0.46619362 0.8840401
vn -0.60542244 0.63028246 0.48601192
vn 0.040531024 0.9566103 0.28853747
vn -0.18218589 0.18533875 -0.9656385
vn 0.20823 0.008363082 -0.9780441
vn -0.18218589 0.18533875 -0.9656385
vn -0.5273661 0.35490716 -0.7719624
vn -0.17110062 0.21329787 -0.961888
vn -0.17110062 0.21329787 -0.961888
vn -0.71909547 0.68595165 -0.111229576
vn -0.60542244 0.63028246 0.48601192
vn -0.7663986 0.32306653 0.5552129
vn -0.8823861 0.45693877 -0.11225754
vn -0.8517396 -0.027631605 0.52323616
vn -0.9965869 0.042682577 -0.07065981
vn -0.040627185 -0.95660335 -0.2885469
vn -0.6787988 -0.72423714 -0.121295705
vn -0.5162567 -0.7185453 0.46601683
vn 0.108579256 -0.9474215 0.30100352
vn 0.61737263 -0.6120149 -0.49425575
vn 0.7286557 -0.67678106 0.105015166
vn 0.7677077 -0.32520148 -0.5521493
vn 0.61737263 -0.6120149 -0.49425575
vn 0.7286557 -0.67678106 0.105015166
vn 0.87969416 -0.45972088 0.1216339
vn 0.8499941 0.006587934 -0.5267509
vn 0.9963619 -0.052599866 0.06705435
vn -0.1086777 0.94741845 -0.3009774
vn 0.5161802 0.71862894 -0.4659726
vn 0.67878073 0.7242497 0.12132186
vn 0.040531024 0.9566103 0.28853747
vn -0.42389405 0.6923614 -0.5839087
vn -0.1086777 0.94741845 -0.3009774
vn -0.71909547 0.68595165 -0.111229576
vn -0.5273411 0.3549193 -0.77197385
vn -0.8823861 0.45693877 -0.11225754
vn -0.7956735 -0.26294127 -0.5456791
vn -0.9965869 0.042682577 -0.07065981
vn -0.6787988 -0.72423714 -0.121295705
vn -0.7956735 -0.26294127 -0.5456791
vn -0.9965869 0.042682577 -0.07065981
vn -0.040627185 -0.95660335 -0.2885469
vn 0.10682998 -0.6402033 -0.7607412
vn 0.108579256 -0.9474215 0.30100352
vn 0.38210064 -0.60595536 0.69772285
vn 0.7286557 -0.67678106 0.105015166
vn -0.5162567 -0.7185453 0.46601683
vn -0.3266047 -0.30726352 0.8938224
vn -0.8517396 -0.027631605 0.52323616
vn -0.7663986 0.32306653 0.5552129
vn -0.32582426 0.058061115 0.9436459
vn -0.60542244 0.63028246 0.48601192
vn -0.033714537 0.46619362 0.8840401
vn 0.108237095 0.024945658 0.9938121
vn -0.42427713 0.11113052 0.8986873
vn 0.69866383 0.1503915 0.699465
vn 0.36463228 -0.1035778 0.9253728
vn 0.67878073 0.7242497 0.12132186
vn 0.040531024 0.9566103 0.28853747
vn 0.9963619 -0.052599866 0.06705435
vn 0.61737263 -0.6120149 -0.49425575
vn 0.10682998 -0.6402033 -0.7607412
vn -0.040627185 -0.95660335 -0.2885469
vn 0.20822628 0.008361713 -0.97804505
vn 0.7677077 -0.32520148 -0.5521493
vn 0.4489992 0.2947489 -0.843518
vn -0.1086777 0.94741845 -0.3009774
vn -0.42389405 0.6923614 -0.5839087
vn 0.5161802 0.71862894 -0.4659726
vn 0.8499941 0.006587934 -0.5267509
vn 0.7677077 -0.32520148 -0.5521493
vn 0.20822628 0.008361713 -0.97804505
vn -0.8517396 -0.027631605 0.52323616
vn -0.5162567 -0.7185453 0.46601683
vn -0.6787988 -0.72423714 -0.121295705
vn -0.9965869 0.042682577 -0.07065981
vn -0.71909547 0.68595165 -0.111229576
vn -0.1086777 0.94741845 -0.3009774
vn 0.040531024 0.9566103 0.28853747
vn -0.60542244 0.63028246 0.48601192
vn 0.9963619 -0.052599866 0.06705435
vn 0.67878073 0.7242497 0.12132186
vn 0.5161802 0.71862894 -0.4659726
vn 0.8499941 0.006587934 -0.5267509
vn 0.6861774 0.07042964 0.72401667
vn 0.8399052 0.17652524 0.5132233
vn 0.6930281 -0.42009377 0.5858612
vn 0.59313256 -0.38319457 0.7080648
vn -0.047165718 0.39460486 0.9176395
vn 0.35368356 -0.6823408 0.63978046
vn 0.37287065 -0.8385089 0.39732912
vn -0.5835333 -0.4362457 0.684966
vn -0.29814422 0.039023433 0.9537228
vn -0.38112506 -0.37954828 0.8430224
vn -0.41497642 0.10456835 0.90380305
vn -0.17815006 0.63491404 0.75176245
vn -0.047165718 0.39460486 0.9176395
vn -0.17815006 0.63491404 0.75176245
vn 0.8399052 0.17652524 0.5132233
vn 0.6861774 0.07042964 0.72401667
vn 0.38210064 -0.60595536 0.69772285
vn 0.87969416 -0.45972088 0.1216339
vn 0.7286557 -0.67678106 0.105015166
vn 0.61472017 -0.38941914 0.68590957
vn 0.9963619 -0.052599866 0.06705435
vn 0.69866383 0.1503915 0.699465
vn 0.36463228 -0.1035778 0.9253728
vn 0.70022655 -0.42115706 0.576463
vn 0.24009326 -0.3632801 0.90021265
vn -0.3266047 -0.30726352 0.8938224
vn 0.016063852 -0.26356393 0.9645081
vn -0.32582426 0.058061115 0.9436459
vn -0.42427713 0.11113052 0.8986873
vn -0.43405795 0.11563835 0.89343244
vn 0.1017153 0.04108213 0.99396497
vn -0.4149849 0.104558505 0.9038003
vn 0.001101818 -0.27019054 0.9628062
vn -0.08730962 0.48240134 0.8715882
vn 0.3785191 -0.09786149 0.9204056
vn -0.45236626 -0.39071095 0.8016917
vn -0.42425054 0.111133516 0.8986995
vn -0.19634622 0.66987044 0.7160459
vn -0.62182814 -0.44035622 0.64762336
vn 0.86201835 0.19683698 0.4670971
vn 0.37204856 -0.733195 0.56921434
vn 0.37689155 -0.8580441 0.34887406
vn 0.24491964 -0.37845904 0.8926271
vn 0.7002056 -0.4211498 0.5764936
vn 0.74375856 0.11203423 0.6589929
vn 0.6999881 -0.42143312 0.5765508
vn 0.69304013 -0.42012417 0.585825
g mdlVoidPlatformBridge1_0
f 3/3/3 2/2/2 1/1/1
f 6/6/6 5/5/5 4/4/4
f 5/5/5 7/7/7 4/4/4
f 7/7/7 5/5/5 8/8/8
f 9/9/9 7/7/7 8/8/8
f 12/12/12 11/11/11 10/10/10
f 13/13/13 12/12/12 10/10/10
f 14/14/14 12/12/12 13/13/13
f 15/15/15 14/14/14 13/13/13
f 18/18/18 17/17/17 16/16/16
f 19/19/19 18/18/18 16/16/16
f 16/16/16 20/20/20 19/19/19
f 20/20/20 21/21/21 19/19/19
f 24/24/24 23/23/23 22/22/22
f 25/25/25 24/24/24 22/22/22
f 25/25/25 22/22/22 26/26/26
f 27/27/27 25/25/25 26/26/26
f 30/30/30 29/29/29 28/28/28
f 31/31/31 30/30/30 28/28/28
f 34/34/34 33/33/33 32/32/32
f 34/34/34 32/32/32 35/35/35
f 36/36/36 34/34/34 35/35/35
f 36/36/36 35/35/35 37/37/37
f 38/38/38 36/36/36 37/37/37
f 41/41/41 40/40/40 39/39/39
f 42/42/42 39/39/39 40/40/40
f 43/43/43 42/42/42 40/40/40
f 46/46/46 45/45/45 44/44/44
f 47/47/47 44/44/44 45/45/45
f 48/48/48 47/47/47 45/45/45
f 47/47/47 48/48/48 49/49/49
f 50/50/50 49/49/49 48/48/48
f 51/51/51 50/50/50 48/48/48
f 52/52/52 50/50/50 51/51/51
f 53/53/53 52/52/52 51/51/51
f 54/54/54 53/53/53 51/51/51
f 55/55/55 54/54/54 51/51/51
f 53/53/53 54/54/54 56/56/56
f 54/54/54 57/57/57 56/56/56
f 56/56/56 58/58/58 53/53/53
f 58/58/58 59/59/59 53/53/53
f 58/58/58 56/56/56 60/60/60
f 63/63/63 62/62/62 61/61/61
f 61/61/61 62/62/62 64/64/64
f 65/65/65 61/61/61 64/64/64
f 68/68/68 67/67/67 66/66/66
f 67/67/67 69/69/69 66/66/66
f 70/70/70 66/66/66 69/69/69
f 70/70/70 71/71/71 66/66/66
f 71/71/71 72/72/72 66/66/66
f 75/75/75 74/74/74 73/73/73
f 76/76/76 75/75/75 73/73/73
f 79/79/79 78/78/78 77/77/77
f 80/80/80 79/79/79 77/77/77
f 83/83/83 82/82/82 81/81/81
f 84/84/84 83/83/83 81/81/81
f 87/87/87 86/86/86 85/85/85
f 88/88/88 87/87/87 85/85/85
f 88/88/88 85/85/85 89/89/89
f 87/87/87 88/88/88 90/90/90
f 91/91/91 87/87/87 90/90/90
f 92/92/92 91/91/91 90/90/90
f 93/93/93 88/88/88 89/89/89
f 90/90/90 88/88/88 93/93/93
f 94/94/94 92/92/92 90/90/90
f 94/94/94 90/90/90 93/93/93
f 95/95/95 92/92/92 94/94/94
f 93/93/93 95/95/95 94/94/94
f 95/95/95 93/93/93 89/89/89
f 96/96/96 95/95/95 89/89/89
f 99/99/99 98/98/98 97/97/97
f 100/100/100 99/99/99 97/97/97
f 103/103/103 102/102/102 101/101/101
f 102/102/102 104/104/104 101/101/101
f 102/102/102 105/105/105 104/104/104
f 105/105/105 106/106/106 104/104/104
f 106/106/106 107/107/107 104/104/104
f 107/107/107 108/108/108 104/104/104
f 108/108/108 109/109/109 104/104/104
f 109/109/109 101/101/101 104/104/104
f 101/101/101 109/109/109 110/110/110
f 109/109/109 111/111/111 110/110/110
f 110/110/110 111/111/111 112/112/112
f 111/111/111 113/113/113 112/112/112
f 116/116/116 115/115/115 114/114/114
f 117/117/117 116/116/116 114/114/114
f 115/115/115 118/118/118 114/114/114
f 115/115/115 119/119/119 118/118/118
f 120/120/120 117/117/117 114/114/114
f 121/121/121 114/114/114 118/118/118
f 114/114/114 121/121/121 120/120/120
f 122/122/122 121/121/121 118/118/118
f 121/121/121 123/123/123 120/120/120
f 124/124/124 122/122/122 118/118/118
f 117/117/117 120/120/120 125/125/125
f 120/120/120 123/123/123 125/125/125
f 123/123/123 126/126/126 125/125/125
f 127/127/127 117/117/117 125/125/125
f 126/126/126 128/128/128 125/125/125
f 129/129/129 124/124/124 118/118/118
f 119/119/119 129/129/129 118/118/118
f 128/128/128 124/124/124 129/129/129
f 127/127/127 125/125/125 130/130/130
f 128/128/128 130/130/130 125/125/125
f 130/130/130 128/128/128 129/129/129
f 129/129/129 119/119/119 130/130/130
f 131/131/131 127/127/127 130/130/130
f 119/119/119 131/131/131 130/130/130
