g mdlVoidPlatformBridge7
v 21.364967 -28.75735 0.25031853
v -31.4236 11.12501 -0.57262325
v -31.559914 12.011574 2.1642008
v 21.228508 -27.870676 2.987113
v -21.270447 27.265858 -5.166686
v 31.518002 -12.616514 -4.3437366
v 31.381664 -11.729912 -1.6069307
v -21.406815 28.152412 -2.4298544
v 21.228508 -27.870676 2.987113
v 21.771866 -28.666534 0.2099638
v 21.364967 -28.75735 0.25031853
v 21.635574 -27.779943 2.9467773
v 31.61723 -13.014912 -4.2448373
v 31.480915 -12.12826 -1.5080538
v 31.518002 -12.616514 -4.3437366
v 31.381664 -11.729912 -1.6069307
v -31.4236 11.12501 -0.57262325
v -31.659088 12.409958 2.0652952
v -31.559914 12.011574 2.1642008
v -31.522766 11.52339 -0.67149925
v -21.813805 28.061653 -2.389513
v -21.677437 27.174953 -5.126305
v -21.406815 28.152412 -2.4298544
v -21.270447 27.265858 -5.166686
v -31.25283 11.259695 -0.9816923
v -31.522766 11.52339 -0.67149925
v -31.4236 11.12501 -0.57262325
v 21.364967 -28.75735 0.25031853
v -21.407478 26.911266 -5.4365
v -21.677437 27.174953 -5.126305
v -21.270447 27.265858 -5.166686
v 21.53566 -28.622723 -0.15874577
v 21.771866 -28.666534 0.2099638
v 31.61723 -13.014912 -4.2448373
v 31.381123 -12.9710655 -4.613561
v 31.518002 -12.616514 -4.3437366
v -31.423065 12.366119 2.4340296
v -31.559914 12.011574 2.1642008
v -31.659088 12.409958 2.0652952
v -21.813805 28.061653 -2.389513
v 21.365547 -27.516178 3.2569504
v 21.228508 -27.870676 2.987113
v 21.635574 -27.779943 2.9467773
v -21.577614 28.017776 -2.0208035
v -21.406815 28.152412 -2.4298544
v 31.381664 -11.729912 -1.6069307
v 31.210884 -11.864568 -1.1978693
v 31.480915 -12.12826 -1.5080538
v 21.09565 -25.868216 3.2920256
v -29.917572 12.672892 2.4967375
v 29.789173 -12.047742 -0.6416273
v -21.223938 26.493332 -1.4368849
v 21.092651 -25.320183 3.8183575
v -28.339615 13.086645 3.0957956
v 20.898277 -24.113174 3.863388
v -29.441322 12.858879 3.0305395
v -20.797974 25.075928 -0.31663132
v 29.475231 -11.994047 0.025410652
v 28.439949 -12.123812 0.4509344
v -21.05867 26.184933 -0.76236343
v -29.917572 12.672892 2.4967375
v 21.09565 -25.868216 3.2920256
v -21.223938 26.493332 -1.4368849
v 29.789173 -12.047742 -0.6416273
v 20.886581 -23.577936 4.3256636
v 20.898277 -24.113174 3.863388
v -28.339615 13.086645 3.0957956
v -27.871979 13.259747 3.5654984
v -20.797974 25.075928 -0.31663132
v 28.117367 -12.082949 1.053874
v 28.439949 -12.123812 0.4509344
v -20.641304 24.754726 0.29378128
vt 0.112864554 -0.02999571
vt 0.11363393 1.0006695
vt 0.15748888 1.0101254
vt 0.15671903 -0.020537734
vt 0.111787856 -0.020456731
vt 0.114744365 1.0102031
vt 0.15856451 1.0005882
vt 0.15560871 -0.030070871
vt 0.1613394 0.864799
vt 0.116537094 0.861781
vt 0.1167742 0.86535335
vt 0.16110396 0.86144185
vt 0.11613494 0.56745577
vt 0.16070199 0.5671146
vt 0.11489618 0.5618342
vt 0.1594609 0.5612793
vt 0.11584699 0.55731314
vt 0.16088772 0.56242305
vt 0.16042107 0.5577921
vt 0.116313756 0.56194323
vt 0.15955973 0.8568011
vt 0.114985466 0.8563208
vt 0.15905172 0.86137253
vt 0.11447728 0.86089295
vt 0.6283536 0.99184704
vt 0.62828743 0.9969442
vt 0.632764 0.99248683
vt 0.6569495 0.0075033903
vt 0.34381926 0.9922415
vt 0.3437538 0.99733806
vt 0.3393364 0.9928931
vt 0.6525414 0.00685519
vt 0.6525413 0.003050387
vt 0.36800742 0.0028799176
vt 0.3680055 0.0066843033
vt 0.36352146 0.0073289275
vt 0.012122581 2.9997375
vt 0.007698426 2.9987674
vt 0.012116978 3.00316
vt 0.99192774 3.0037787
vt 0.010036835 0.00639262
vt 0.005610654 0.005437992
vt 0.009962896 0.0010483484
vt 0.9919342 3.0003552
vt 0.9962939 2.9994044
vt 0.99420583 0.0051654796
vt 0.9898484 0.0061291675
vt 0.9897752 0.00078602834
vt 0.03550394 0.022603355
vt 0.034784928 2.983256
vt 0.96653503 0.022370301
vt 0.96581525 2.9838011
vt 0.040328965 0.026739977
vt 0.06262884 2.9665275
vt 0.06615216 0.038565002
vt 0.038854048 2.9785686
vt 0.9334939 2.9670007
vt 0.9624843 0.026515745
vt 0.93701845 0.038363837
vt 0.961008 2.9790933
vt 0.034784928 2.983256
vt 0.03550394 0.022603355
vt 0.96581525 2.9838011
vt 0.96653503 0.022370301
vt 0.07097704 0.04273226
vt 0.06615216 0.038565002
vt 0.06262884 2.9665275
vt 0.06669632 2.9618678
vt 0.9334939 2.9670007
vt 0.9329677 0.04253813
vt 0.93701845 0.038363837
vt 0.9286863 2.9623222
vn -0.2269114 -0.973053 -0.040978566
vn -0.7951478 -0.5895937 -0.1418422
vn -0.7640813 -0.45909756 0.45322084
vn -0.18503639 -0.8143254 0.5501232
vn 0.18492027 0.81433773 -0.5501441
vn 0.7640358 0.459124 -0.4532708
vn 0.7951031 0.58965135 0.14185335
vn 0.22692865 0.97304714 0.0410203
vn -0.18503639 -0.8143254 0.5501232
vn 0.58379287 -0.81019354 -0.052652486
vn -0.2269114 -0.973053 -0.040978566
vn 0.5718175 -0.6273742 0.52860796
vn 0.9468768 -0.2358536 -0.21862608
vn 0.92874813 -0.065298945 0.36491516
vn 0.7640358 0.459124 -0.4532708
vn 0.7951031 0.58965135 0.14185335
vn -0.7951478 -0.5895937 -0.1418422
vn -0.9468799 0.23589662 0.21856618
vn -0.7640813 -0.45909756 0.45322084
vn -0.92875 0.06540077 -0.36489195
vn -0.58379805 0.8101905 0.05264116
vn -0.571911 0.6273262 -0.5285637
vn 0.22692865 0.97304714 0.0410203
vn 0.18492027 0.81433773 -0.5501441
vn -0.5651511 -0.2937538 -0.77091694
vn -0.92875 0.06540077 -0.36489195
vn -0.7951478 -0.5895937 -0.1418422
vn -0.2269114 -0.973053 -0.040978566
vn -0.15255025 0.29092324 -0.9445063
vn -0.571911 0.6273262 -0.5285637
vn 0.18492027 0.81433773 -0.5501441
vn 0.057969164 -0.70774263 -0.7040881
vn 0.58379287 -0.81019354 -0.052652486
vn 0.9468768 -0.2358536 -0.21862608
vn 0.47062758 -0.10757866 -0.8757491
vn 0.7640358 0.459124 -0.4532708
vn -0.5234413 0.09033934 0.84725916
vn -0.7640813 -0.45909756 0.45322084
vn -0.9468799 0.23589662 0.21856618
vn -0.58379805 0.8101905 0.05264116
vn 0.15888903 -0.33858532 0.9274234
vn -0.18503639 -0.8143254 0.5501232
vn 0.5718175 -0.6273742 0.52860796
vn -0.068418115 0.74309903 0.6656746
vn 0.22692865 0.97304714 0.0410203
vn 0.7951031 0.58965135 0.14185335
vn 0.6122713 0.29518735 0.73347676
vn 0.92874813 -0.065298945 0.36491516
vn 0.16526237 0.006083996 0.9862309
vn -0.072847255 0.15610969 0.9850498
vn 0.3300279 0.22353284 0.917123
vn 0.09280005 0.37485132 0.92242867
vn 0.22351462 -0.48237523 0.8469683
vn -0.08984666 0.15261818 0.98419267
vn 0.16783448 -0.009753771 0.9857669
vn -0.5487027 0.036691308 0.83521193
vn 0.08937471 0.38945553 0.9166987
vn 0.7450232 0.25317228 0.61712587
vn 0.34603322 0.22557531 0.9107013
vn -0.023996864 0.776966 0.62908506
vn -0.74074477 -0.02947524 0.67113954
vn 0.2311034 -0.67327064 0.70235175
vn -0.07793705 0.8993328 0.430263
vn 0.88512886 0.24265046 0.39707372
vn 0.21711743 -0.40088022 0.8900309
vn 0.23057288 -0.633144 0.7388943
vn -0.7056239 -0.016087897 0.7084038
vn -0.46414784 0.06161913 0.88361174
vn -0.06601993 0.8759355 0.47788963
vn 0.67705786 0.25262052 0.69121313
vn 0.8614332 0.24617921 0.4442169
vn -0.0026327802 0.7174824 0.6965717
g mdlVoidPlatformBridge7_0
f 3/3/3 2/2/2 1/1/1
f 4/4/4 3/3/3 1/1/1
f 7/7/7 6/6/6 5/5/5
f 8/8/8 7/7/7 5/5/5
f 11/11/11 10/10/10 9/9/9
f 10/10/10 12/12/12 9/9/9
f 12/12/12 10/10/10 13/13/13
f 14/14/14 12/12/12 13/13/13
f 13/13/13 15/15/15 14/14/14
f 15/15/15 16/16/16 14/14/14
f 19/19/19 18/18/18 17/17/17
f 18/18/18 20/20/20 17/17/17
f 18/18/18 21/21/21 20/20/20
f 21/21/21 22/22/22 20/20/20
f 22/22/22 21/21/21 23/23/23
f 24/24/24 22/22/22 23/23/23
f 27/27/27 26/26/26 25/25/25
f 28/28/28 27/27/27 25/25/25
f 25/25/25 26/26/26 29/29/29
f 26/26/26 30/30/30 29/29/29
f 31/31/31 29/29/29 30/30/30
f 32/32/32 28/28/28 25/25/25
f 32/32/32 25/25/25 29/29/29
f 28/28/28 32/32/32 33/33/33
f 34/34/34 33/33/33 32/32/32
f 29/29/29 31/31/31 35/35/35
f 35/35/35 32/32/32 29/29/29
f 35/35/35 34/34/34 32/32/32
f 31/31/31 36/36/36 35/35/35
f 34/34/34 35/35/35 36/36/36
f 39/39/39 38/38/38 37/37/37
f 40/40/40 39/39/39 37/37/37
f 37/37/37 38/38/38 41/41/41
f 38/38/38 42/42/42 41/41/41
f 43/43/43 41/41/41 42/42/42
f 44/44/44 40/40/40 37/37/37
f 40/40/40 44/44/44 45/45/45
f 46/46/46 45/45/45 44/44/44
f 41/41/41 43/43/43 47/47/47
f 47/47/47 46/46/46 44/44/44
f 43/43/43 48/48/48 47/47/47
f 46/46/46 47/47/47 48/48/48
f 41/41/41 49/49/49 37/37/37
f 49/49/49 50/50/50 37/37/37
f 37/37/37 50/50/50 44/44/44
f 51/51/51 49/49/49 41/41/41
f 47/47/47 51/51/51 41/41/41
f 50/50/50 52/52/52 44/44/44
f 52/52/52 51/51/51 47/47/47
f 44/44/44 52/52/52 47/47/47
f 55/55/55 54/54/54 53/53/53
f 54/54/54 56/56/56 53/53/53
f 54/54/54 57/57/57 56/56/56
f 55/55/55 53/53/53 58/58/58
f 59/59/59 55/55/55 58/58/58
f 57/57/57 59/59/59 60/60/60
f 57/57/57 60/60/60 56/56/56
f 59/59/59 58/58/58 60/60/60
f 56/56/56 61/61/61 53/53/53
f 61/61/61 62/62/62 53/53/53
f 53/53/53 62/62/62 58/58/58
f 63/63/63 61/61/61 56/56/56
f 60/60/60 63/63/63 56/56/56
f 62/62/62 64/64/64 58/58/58
f 64/64/64 63/63/63 60/60/60
f 58/58/58 64/64/64 60/60/60
f 67/67/67 66/66/66 65/65/65
f 68/68/68 67/67/67 65/65/65
f 69/69/69 67/67/67 68/68/68
f 65/65/65 66/66/66 70/70/70
f 65/65/65 70/70/70 68/68/68
f 66/66/66 71/71/71 70/70/70
f 71/71/71 69/69/69 72/72/72
f 72/72/72 69/69/69 68/68/68
f 70/70/70 72/72/72 68/68/68
f 70/70/70 71/71/71 72/72/72
