g mdlVoidWatcherStabber
v 0.12606303 0.091635436 1.7046138
v 0.047764022 0.14700937 1.7478449
v 0.048612017 0.14964567 1.7099422
v 0.12387264 0.090004615 1.7431718
v 0.15729289 3.3603574E-05 1.6934053
v 0.04163079 0.12812936 1.8437315
v 0.15456828 4.200032E-06 1.7326318
v 0.12603071 -0.09159542 1.680704
v 0.10796779 0.078443475 1.8402873
v 0.032320295 0.09947443 2.0247893
v 0.1238686 -0.08999961 1.7201531
v 0.04856574 -0.14964968 1.6704762
v 0.1347233 -1.0477379E-09 1.8317773
v 0.083821625 0.060900327 2.022627
v 0.022381483 0.06888576 2.2665067
v 0.04775824 -0.14700986 1.7098817
v -0.048171785 -0.14825769 1.6661855
v 0.10796779 -0.078443475 1.82119
v 0.10459355 0 2.0168252
v 0.058046017 0.042173296 2.2653842
v 0.014059385 0.043272845 2.5240877
v -0.047318824 -0.1456287 1.705525
v -0.12724754 -0.0925071 1.6697022
v 0.041630793 -0.12812935 1.8122516
v 0.08382163 -0.060900327 2.0093203
v 0.07243049 0 2.2621293
v 0.036492564 0.026513854 2.5235806
v 0.007942196 0.024445966 2.7232945
v -0.12504864 -0.09085905 1.7088203
v -0.15579696 -9.654672E-06 1.6811588
v -0.04124134 -0.12692384 1.8083751
v 0.032320295 -0.09947443 2.0028708
v 0.05804602 -0.0421733 2.2577832
v 0.045499306 0 2.5220344
v 0.0208334 0.015136842 2.7230325
v -0.1531131 -1.206994E-06 1.7197658
v -0.12723844 0.09248636 1.6953273
v -0.10899452 -0.079187945 1.8109846
v -0.032018267 -0.0985385 2.0000405
v 0.022381483 -0.06888576 2.254002
v 0.012039535 0.008747742 2.8011467
v 0.0038428302 0.011829321 2.8075223
v 0.025703428 0 2.72247
v 0.012437425 -2.910383E-11 2.807248
v 0.012039535 -0.008747741 2.8005228
v 0.03649256 -0.026513854 2.5198917
v 0.020833401 -0.015136843 2.7215226
v 0.014059385 -0.04327285 2.5180275
v 0.007942195 -0.024445968 2.7208292
v 0.0038428293 -0.011829322 2.8067045
v -0.004599742 -0.014154103 2.8000612
v -0.022172783 -0.068237625 2.2523408
v -0.013940042 -0.04290019 2.5171945
v -0.007958732 -0.024491856 2.720408
v -0.084619075 -0.061478302 2.001798
v -0.020795804 -0.01510837 2.720683
v -0.0100634 -0.0073108952 2.806656
v -0.014883316 -3.489378E-10 2.8004286
v -0.058598697 -0.04257355 2.2533247
v -0.036810964 -0.026743969 2.517676
v -0.13345703 0 1.8199975
v -0.10361076 2.3646862E-10 2.0080292
v -0.07175039 3.783498E-10 2.2568507
v -0.04510889 0 2.519363
v -0.025753124 -1.4551915E-11 2.7212949
v -0.12504749 0.09085646 1.7333742
v -0.048140343 0.14823614 1.7061915
v -0.10899452 0.079187945 1.8312967
v -0.04731489 0.14562602 1.7439373
v 0.048612017 0.14964567 1.7099422
v 0.047764022 0.14700937 1.7478449
v -0.04124134 0.12692381 1.8401915
v 0.04163079 0.12812936 1.8437315
v -0.084619075 0.061478306 2.0158916
v -0.032018263 0.0985385 2.0221572
v 0.032320295 0.09947443 2.0247893
v -0.058598697 0.04257355 2.2613199
v -0.02217278 0.068237625 2.264925
v 0.022381483 0.06888576 2.2665067
v -0.036810964 0.026743969 2.5215304
v -0.013940042 0.04290019 2.5232801
v 0.014059385 0.043272845 2.5240877
v -0.020795804 0.015108371 2.7222497
v -0.010063398 0.0073108952 2.8071754
v -0.0045997426 0.014154102 2.8010914
v -0.007958731 0.024491854 2.7228987
v 0.007942196 0.024445966 2.7232945
v 0.0038428302 0.011829321 2.8075223
v -7.346971E-07 0 2.820233
v 0.0038428302 0.011829321 2.8075223
v 0.012039535 0.008747742 2.8011467
v 0.012437425 -2.910383E-11 2.807248
v -7.346971E-07 0 2.820233
v -0.010063398 0.0073108952 2.8071754
v -0.0045997426 0.014154102 2.8010914
v 0.0038428302 0.011829321 2.8075223
v -7.346971E-07 0 2.820233
v -0.0100634 -0.0073108952 2.806656
v -0.014883316 -3.489378E-10 2.8004286
v -0.010063398 0.0073108952 2.8071754
v -7.346971E-07 0 2.820233
v 0.0038428293 -0.011829322 2.8067045
v -0.004599742 -0.014154103 2.8000612
v -0.0100634 -0.0073108952 2.806656
v -7.346971E-07 0 2.820233
v 0.012437425 -2.910383E-11 2.807248
v 0.012039535 -0.008747741 2.8005228
v 0.0038428293 -0.011829322 2.8067045
v 0.093960546 0.06848466 1.6921438
v 0.043400414 0.13366589 1.6960188
v 0.036248233 0.111710824 1.6964965
v 0.11252728 0.08189036 1.6909673
v 0.048612017 0.14964567 1.7099422
v 0.11719764 0.00016250813 1.6835535
v 0.12606303 0.091635436 1.7046138
v 0.14038344 0.00010012044 1.6807584
v 0.093804546 -0.06829086 1.674282
v 0.15729289 3.3603574E-05 1.6934053
v 0.11243102 -0.081771076 1.6695203
v 0.036024846 -0.111729555 1.6668981
v 0.12603071 -0.09159542 1.680704
v 0.043262582 -0.13367774 1.660557
v -0.035981487 -0.110755585 1.6635994
v 0.04856574 -0.14964968 1.6704762
v -0.043038476 -0.1324677 1.6567134
v -0.09478728 -0.06914361 1.6660852
v -0.048171785 -0.14825769 1.6661855
v -0.11355559 -0.082673386 1.6598217
v -0.11601379 -4.6299654E-05 1.6747981
v -0.12724754 -0.0925071 1.6697022
v -0.13901259 -2.8718845E-05 1.6701882
v -0.09474331 0.06904409 1.6856439
v -0.15579696 -9.654672E-06 1.6811588
v -0.11352845 0.08261168 1.6830256
v -0.0358297 0.11065235 1.6938541
v -0.12723844 0.09248636 1.6953273
v -0.042944826 0.1324037 1.6927923
v 0.036248233 0.111710824 1.6964965
v -0.048140343 0.14823614 1.7061915
v 0.043400414 0.13366589 1.6960188
v 0.048612017 0.14964567 1.7099422
v 0.036248233 0.111710824 1.6964965
v 0.030499253 0.09403152 1.7059895
v 0.078703694 0.05741741 1.7024477
v 0.093960546 0.06848466 1.6921438
v -0.0358297 0.11065235 1.6938541
v 0.09858116 0.00017316721 1.6950613
v 0.11719764 0.00016250813 1.6835535
v -0.029999012 0.09273358 1.703942
v -0.09474331 0.06904409 1.6856439
v 0.07853725 -0.05720843 1.6875136
v 0.093804546 -0.06829086 1.674282
v -0.0796804 0.05811445 1.6968552
v -0.11601379 -4.6299654E-05 1.6747981
v 0.03026085 -0.094046 1.681094
v 0.036024846 -0.111729555 1.6668981
v -0.0971498 -4.904403E-05 1.6879096
v -0.09478728 -0.06914361 1.6660852
v -0.030161748 -0.09284152 1.6785597
v -0.035981487 -0.110755585 1.6635994
v -0.07973046 -0.058221146 1.6803561
v 0.052946795 -0.038574003 1.7006589
v 0.023305736 -0.072420284 1.6932675
v -1.4198478E-05 1.0622687E-05 1.7083734
v -0.02034204 -0.06260013 1.694619
v 0.0758967 0.00013035606 1.704237
v -0.06140716 -0.044835344 1.6929089
v 0.053059112 0.038724724 1.7107711
v -0.06550931 -3.4599507E-05 1.7009691
v 0.02348886 0.07243008 1.7125183
v -0.061355148 0.044748288 1.7054894
v -0.02022555 0.062537104 1.7117094
vt 0.66504025 0.26120278
vt 0.7149925 0.27552012
vt 0.7149925 0.26120278
vt 0.66504025 0.27552012
vt 0.61508805 0.26120278
vt 0.7149925 0.3129173
vt 0.61508805 0.27552012
vt 0.56513584 0.26120278
vt 0.66504025 0.3129173
vt 0.7149925 0.38252902
vt 0.56513584 0.27552012
vt 0.51518357 0.26120278
vt 0.61508805 0.3129173
vt 0.66504025 0.38252902
vt 0.7149925 0.47435752
vt 0.51518357 0.27552012
vt 0.46523136 0.26120278
vt 0.56513584 0.3129173
vt 0.61508805 0.38252902
vt 0.66504025 0.47435752
vt 0.7149925 0.5711601
vt 0.46523136 0.27552012
vt 0.41527915 0.26120278
vt 0.51518357 0.3129173
vt 0.56513584 0.38252902
vt 0.61508805 0.47435752
vt 0.66504025 0.5711601
vt 0.7149925 0.6456852
vt 0.41527915 0.27552012
vt 0.3653269 0.26120278
vt 0.46523136 0.3129173
vt 0.51518357 0.38252902
vt 0.56513584 0.47435752
vt 0.61508805 0.5711601
vt 0.66504025 0.6456852
vt 0.3653269 0.27552012
vt 0.31537467 0.26120278
vt 0.41527915 0.3129173
vt 0.46523136 0.38252902
vt 0.51518357 0.47435752
vt 0.66504025 0.67623746
vt 0.7149925 0.67623746
vt 0.61508805 0.6456852
vt 0.61508805 0.67623746
vt 0.56513584 0.67623746
vt 0.56513584 0.5711601
vt 0.56513584 0.6456852
vt 0.51518357 0.5711601
vt 0.51518357 0.6456852
vt 0.51518357 0.67623746
vt 0.46523136 0.67623746
vt 0.46523136 0.47435752
vt 0.46523136 0.5711601
vt 0.46523136 0.6456852
vt 0.41527915 0.38252902
vt 0.41527915 0.6456852
vt 0.41527915 0.67623746
vt 0.3653269 0.67623746
vt 0.41527915 0.47435752
vt 0.41527915 0.5711601
vt 0.3653269 0.3129173
vt 0.3653269 0.38252902
vt 0.3653269 0.47435752
vt 0.3653269 0.5711601
vt 0.3653269 0.6456852
vt 0.31537467 0.27552012
vt 0.26542243 0.26120278
vt 0.31537467 0.3129173
vt 0.26542243 0.27552012
vt 0.21547018 0.26120278
vt 0.21547018 0.27552012
vt 0.26542243 0.3129173
vt 0.21547018 0.3129173
vt 0.31537467 0.38252902
vt 0.26542243 0.38252902
vt 0.21547018 0.38252902
vt 0.31537467 0.47435752
vt 0.26542243 0.47435752
vt 0.21547018 0.47435752
vt 0.31537467 0.5711601
vt 0.26542243 0.5711601
vt 0.21547018 0.5711601
vt 0.31537467 0.6456852
vt 0.31537467 0.67623746
vt 0.26542243 0.67623746
vt 0.26542243 0.6456852
vt 0.21547018 0.6456852
vt 0.21547018 0.67623746
vt 0.5454541 0.47238207
vt 0.52272683 0.4330168
vt 0.5454541 0.41989505
vt 0.56818134 0.4330168
vt 0.36363602 0.47238207
vt 0.3409088 0.4330168
vt 0.36363605 0.41989505
vt 0.38636327 0.4330168
vt 0.18181801 0.47238207
vt 0.15909076 0.4330168
vt 0.18181802 0.41989505
vt 0.20454527 0.4330168
vt 0.9090901 0.47238207
vt 0.88636285 0.4330168
vt 0.9090903 0.41989505
vt 0.93181765 0.4330168
vt 0.72727203 0.47238207
vt 0.70454484 0.4330168
vt 0.7272721 0.41989505
vt 0.74999934 0.4330168
vt 0.31467918 0.8858761
vt 0.33419487 0.8935639
vt 0.33419487 0.8858761
vt 0.31467918 0.8935639
vt 0.33419487 0.90029544
vt 0.29516354 0.8858761
vt 0.31467918 0.90029544
vt 0.29516354 0.8935639
vt 0.27564788 0.8858761
vt 0.29516354 0.90029544
vt 0.27564788 0.8935639
vt 0.25613225 0.8858761
vt 0.27564788 0.90029544
vt 0.25613225 0.8935639
vt 0.2366166 0.8858761
vt 0.25613225 0.90029544
vt 0.2366166 0.8935639
vt 0.21710096 0.8858761
vt 0.2366166 0.90029544
vt 0.21710096 0.8935639
vt 0.1975853 0.8858761
vt 0.21710096 0.90029544
vt 0.1975853 0.8935639
vt 0.17806965 0.8858761
vt 0.1975853 0.90029544
vt 0.17806965 0.8935639
vt 0.15855402 0.8858761
vt 0.17806965 0.90029544
vt 0.15855402 0.8935639
vt 0.13903832 0.8858761
vt 0.15855402 0.90029544
vt 0.13903832 0.8935639
vt 0.13903832 0.90029544
vt 0.8269728 0.9024462
vt 0.83604276 0.9089313
vt 0.87799835 0.90281427
vt 0.8790744 0.89478695
vt 0.7952647 0.924418
vt 0.920076 0.9095373
vt 0.930869 0.90335983
vt 0.81063086 0.9266322
vt 0.7941213 0.95161253
vt 0.94490045 0.92793745
vt 0.9616955 0.9259922
vt 0.8092353 0.94861656
vt 0.8262361 0.9738283
vt 0.9454348 0.9500571
vt 0.9616955 0.9532734
vt 0.83541393 0.9665685
vt 0.87766486 0.9831114
vt 0.9187487 0.9674809
vt 0.9290239 0.9747628
vt 0.87700236 0.97435004
vt 0.9209961 0.931093
vt 0.9280502 0.9467834
vt 0.876578 0.9376558
vt 0.9038826 0.95696443
vt 0.9088663 0.9163642
vt 0.8765986 0.9649844
vt 0.8771574 0.91462284
vt 0.8493081 0.95635957
vt 0.845778 0.9158599
vt 0.82569027 0.94566584
vt 0.83299255 0.9302065
vn 0.7395599 0.5683805 -0.36054802
vn 0.30644348 0.94185364 0.1378553
vn 0.2872739 0.891425 -0.35047847
vn 0.8074857 0.57437754 0.13437748
vn 0.9237252 0.037813313 -0.38118502
vn 0.30379108 0.93490374 0.18348321
vn 0.99115366 -0.014709981 0.13190153
vn 0.7609751 -0.5032068 -0.40951166
vn 0.8030778 0.5679592 0.1802454
vn 0.30519003 0.94071776 0.14801717
vn 0.7939936 -0.594305 0.12796798
vn 0.3037576 -0.8492273 -0.43190774
vn 0.9836315 -0.019654317 0.17911676
vn 0.8054883 0.5743678 0.1459114
vn 0.30634874 0.9445905 0.117894515
vn 0.29811126 -0.9459722 0.1275396
vn -0.27549708 -0.8523715 -0.44448206
vn 0.78486115 -0.59457415 0.17456958
vn 0.9892236 -0.014435651 0.14569937
vn 0.8068559 0.5791552 0.11645973
vn 0.3069667 0.9463535 0.1009285
vn -0.3072374 -0.94322824 0.12619713
vn -0.7437234 -0.5061311 -0.43669984
vn 0.29212582 -0.9403753 0.17423175
vn 0.79191667 -0.5937849 0.14243391
vn 0.99311864 -0.009766079 0.11670464
vn 0.80716723 0.58178425 0.100041375
vn 0.30634826 0.9441618 0.12128193
vn -0.7974207 -0.5897721 0.12762882
vn -0.9098984 0.045076806 -0.41237494
vn -0.30552557 -0.9365361 0.17191344
vn 0.2964987 -0.9443704 0.14231326
vn 0.79756427 -0.59226006 0.11453943
vn 0.9949443 -0.006408954 0.100223824
vn 0.80501705 0.58036184 0.12299424
vn -0.9915019 -0.015320548 0.12918702
vn -0.7241335 0.57468003 -0.38127866
vn -0.78962123 -0.58825606 0.17450835
vn -0.30699304 -0.9413049 0.14035799
vn 0.30039945 -0.94688547 0.1147518
vn 0.7793808 0.5610736 0.2788582
vn 0.26088238 0.80736804 0.52924204
vn 0.9927078 -0.0046388214 0.12045677
vn 0.85196584 -0.015473087 0.5233688
vn 0.77372587 -0.5722068 0.27189663
vn 0.8008066 -0.5907089 0.09885333
vn 0.7988137 -0.58920676 0.12137549
vn 0.30308858 -0.94781184 0.09894404
vn 0.30357796 -0.9453736 0.11878208
vn 0.25477394 -0.82026345 0.5121115
vn -0.29848313 -0.91635543 0.26683417
vn -0.30781254 -0.9446787 0.11328576
vn -0.30812415 -0.94628537 0.09799788
vn -0.30736205 -0.9439686 0.12021637
vn -0.7957262 -0.58871466 0.14224982
vn -0.8017128 -0.58581895 0.11862872
vn -0.6900978 -0.5123546 0.51113385
vn -0.9625974 -0.007751807 0.27082494
vn -0.8002775 -0.58856493 0.11466106
vn -0.80283463 -0.5879499 0.09885126
vn -0.9842853 -0.020722762 0.17536521
vn -0.989689 -0.015137245 0.1424305
vn -0.9933802 -0.010254246 0.1144142
vn -0.9950931 -0.0069582663 0.09869751
vn -0.9926093 -0.0068363203 0.12116157
vn -0.8108746 0.5696479 0.13410302
vn -0.2671396 0.8935884 -0.36074373
vn -0.80785424 0.5611336 0.18027936
vn -0.31541198 0.9391556 0.13602237
vn 0.2872739 0.891425 -0.35047847
vn 0.30644348 0.94185364 0.1378553
vn -0.31614876 0.93126386 0.18110113
vn 0.30379108 0.93490374 0.18348321
vn -0.80928177 0.5690334 0.14582148
vn -0.31486943 0.937833 0.1460357
vn 0.30519003 0.94071776 0.14801717
vn -0.8095527 0.5753483 0.11661394
vn -0.3132438 0.94250864 0.11642879
vn 0.30634874 0.9445905 0.117894515
vn -0.80893624 0.57931143 0.100102276
vn -0.31184027 0.94485956 0.09997933
vn 0.3069667 0.9463535 0.1009285
vn -0.80604976 0.5795037 0.120246716
vn -0.6996319 0.48803937 0.5218551
vn -0.3018376 0.9118608 0.27821553
vn -0.31104702 0.94241875 0.12286846
vn 0.30634826 0.9441618 0.12128193
vn 0.26088238 0.80736804 0.52924204
vn -0.005951131 -0.014191159 0.9998816
vn 0.26088238 0.80736804 0.52924204
vn 0.7793808 0.5610736 0.2788582
vn 0.85196584 -0.015473087 0.5233688
vn -0.005951131 -0.014191159 0.9998816
vn -0.6996319 0.48803937 0.5218551
vn -0.3018376 0.9118608 0.27821553
vn 0.26088238 0.80736804 0.52924204
vn -0.005951131 -0.014191159 0.9998816
vn -0.6900978 -0.5123546 0.51113385
vn -0.9625974 -0.007751807 0.27082494
vn -0.6996319 0.48803937 0.5218551
vn -0.005951131 -0.014191159 0.9998816
vn 0.25477394 -0.82026345 0.5121115
vn -0.29848313 -0.91635543 0.26683417
vn -0.6900978 -0.5123546 0.51113385
vn -0.005951131 -0.014191159 0.9998816
vn 0.85196584 -0.015473087 0.5233688
vn 0.77372587 -0.5722068 0.27189663
vn 0.25477394 -0.82026345 0.5121115
vn -0.24247296 -0.063296266 -0.9680912
vn 0.114506416 0.3795314 -0.91806555
vn -0.0723919 -0.1856492 -0.97994584
vn 0.25419223 0.2831242 -0.9247849
vn 0.2872739 0.891425 -0.35047847
vn -0.28821746 0.12637743 -0.9491888
vn 0.7395599 0.5683805 -0.36054802
vn 0.32396245 0.115546085 -0.9389875
vn -0.2253208 0.30494452 -0.92533207
vn 0.9237252 0.037813313 -0.38118502
vn 0.27338716 -0.060030427 -0.96002907
vn -0.05700965 0.40913883 -0.9106894
vn 0.7609751 -0.5032068 -0.40951166
vn 0.13336751 -0.17679588 -0.97516984
vn 0.13819149 0.40996608 -0.9015714
vn 0.3037576 -0.8492273 -0.43190774
vn -0.05273776 -0.17533475 -0.98309535
vn 0.28523067 0.30085638 -0.9100158
vn -0.27549708 -0.8523715 -0.44448206
vn -0.20969537 -0.059847567 -0.9759335
vn 0.35630992 0.13239165 -0.9249409
vn -0.7437234 -0.5061311 -0.43669984
vn -0.25364748 0.12677795 -0.9589528
vn 0.3035114 -0.054873154 -0.9512465
vn -0.9098984 0.045076806 -0.41237494
vn -0.19050199 0.28895754 -0.93819636
vn 0.14356166 -0.19089673 -0.97105545
vn -0.7241335 0.57468003 -0.38127866
vn -0.0489525 0.37559757 -0.9254892
vn -0.0723919 -0.1856492 -0.97994584
vn -0.2671396 0.8935884 -0.36074373
vn 0.114506416 0.3795314 -0.91806555
vn 0.2872739 0.891425 -0.35047847
vn -0.0723919 -0.1856492 -0.97994584
vn -0.12399817 -0.34535155 -0.93024564
vn -0.37129593 -0.16797736 -0.9131939
vn -0.24247296 -0.063296266 -0.9680912
vn 0.14356166 -0.19089673 -0.97105545
vn -0.44756186 0.11121141 -0.8873108
vn -0.28821746 0.12637743 -0.9491888
vn 0.18595369 -0.3473394 -0.9191173
vn 0.3035114 -0.054873154 -0.9512465
vn -0.3506647 0.3770332 -0.8572516
vn -0.2253208 0.30494452 -0.92533207
vn 0.42137995 -0.1584562 -0.89293367
vn 0.35630992 0.13239165 -0.9249409
vn -0.108037725 0.5331997 -0.8390625
vn -0.05700965 0.40913883 -0.9106894
vn 0.50198025 0.11640033 -0.8570104
vn 0.28523067 0.30085638 -0.9100158
vn 0.17859721 0.53359425 -0.8266682
vn 0.13819149 0.40996608 -0.9015714
vn 0.40331557 0.3729181 -0.8356247
vn -0.15134597 0.25331146 -0.95547247
vn -0.045839943 0.36574292 -0.9295864
vn 0.03775155 0.1328171 -0.9904213
vn 0.11041829 0.33116332 -0.9370906
vn -0.24192229 0.122502334 -0.96253145
vn 0.25611696 0.27567977 -0.92650133
vn -0.1608067 -0.0061343987 -0.9869668
vn 0.26835603 0.13101926 -0.9543684
vn -0.054934125 -0.1294309 -0.9900656
vn 0.2588937 -0.0256971 -0.96556395
vn 0.109442025 -0.088170104 -0.99007493
g mdlVoidWatcherStabber_0
f 3/3/3 2/2/2 1/1/1
f 2/2/2 4/4/4 1/1/1
f 1/1/1 4/4/4 5/5/5
f 2/2/2 6/6/6 4/4/4
f 4/4/4 7/7/7 5/5/5
f 5/5/5 7/7/7 8/8/8
f 6/6/6 9/9/9 4/4/4
f 4/4/4 9/9/9 7/7/7
f 6/6/6 10/10/10 9/9/9
f 7/7/7 11/11/11 8/8/8
f 8/8/8 11/11/11 12/12/12
f 9/9/9 13/13/13 7/7/7
f 7/7/7 13/13/13 11/11/11
f 10/10/10 14/14/14 9/9/9
f 9/9/9 14/14/14 13/13/13
f 10/10/10 15/15/15 14/14/14
f 11/11/11 16/16/16 12/12/12
f 12/12/12 16/16/16 17/17/17
f 13/13/13 18/18/18 11/11/11
f 11/11/11 18/18/18 16/16/16
f 14/14/14 19/19/19 13/13/13
f 13/13/13 19/19/19 18/18/18
f 15/15/15 20/20/20 14/14/14
f 14/14/14 20/20/20 19/19/19
f 15/15/15 21/21/21 20/20/20
f 16/16/16 22/22/22 17/17/17
f 17/17/17 22/22/22 23/23/23
f 18/18/18 24/24/24 16/16/16
f 16/16/16 24/24/24 22/22/22
f 19/19/19 25/25/25 18/18/18
f 18/18/18 25/25/25 24/24/24
f 20/20/20 26/26/26 19/19/19
f 19/19/19 26/26/26 25/25/25
f 21/21/21 27/27/27 20/20/20
f 20/20/20 27/27/27 26/26/26
f 21/21/21 28/28/28 27/27/27
f 22/22/22 29/29/29 23/23/23
f 23/23/23 29/29/29 30/30/30
f 24/24/24 31/31/31 22/22/22
f 22/22/22 31/31/31 29/29/29
f 25/25/25 32/32/32 24/24/24
f 24/24/24 32/32/32 31/31/31
f 26/26/26 33/33/33 25/25/25
f 25/25/25 33/33/33 32/32/32
f 27/27/27 34/34/34 26/26/26
f 26/26/26 34/34/34 33/33/33
f 28/28/28 35/35/35 27/27/27
f 27/27/27 35/35/35 34/34/34
f 29/29/29 36/36/36 30/30/30
f 30/30/30 36/36/36 37/37/37
f 31/31/31 38/38/38 29/29/29
f 29/29/29 38/38/38 36/36/36
f 32/32/32 39/39/39 31/31/31
f 31/31/31 39/39/39 38/38/38
f 33/33/33 40/40/40 32/32/32
f 32/32/32 40/40/40 39/39/39
f 41/41/41 35/35/35 28/28/28
f 42/42/42 41/41/41 28/28/28
f 35/35/35 41/41/41 43/43/43
f 41/41/41 44/44/44 43/43/43
f 35/35/35 43/43/43 34/34/34
f 44/44/44 45/45/45 43/43/43
f 34/34/34 46/46/46 33/33/33
f 34/34/34 43/43/43 46/46/46
f 33/33/33 46/46/46 40/40/40
f 45/45/45 47/47/47 43/43/43
f 43/43/43 47/47/47 46/46/46
f 46/46/46 48/48/48 40/40/40
f 46/46/46 47/47/47 48/48/48
f 47/47/47 45/45/45 49/49/49
f 47/47/47 49/49/49 48/48/48
f 45/45/45 50/50/50 49/49/49
f 50/50/50 51/51/51 49/49/49
f 40/40/40 48/48/48 52/52/52
f 40/40/40 52/52/52 39/39/39
f 48/48/48 49/49/49 53/53/53
f 48/48/48 53/53/53 52/52/52
f 51/51/51 54/54/54 49/49/49
f 49/49/49 54/54/54 53/53/53
f 39/39/39 52/52/52 55/55/55
f 39/39/39 55/55/55 38/38/38
f 54/54/54 51/51/51 56/56/56
f 51/51/51 57/57/57 56/56/56
f 57/57/57 58/58/58 56/56/56
f 52/52/52 53/53/53 59/59/59
f 52/52/52 59/59/59 55/55/55
f 53/53/53 54/54/54 60/60/60
f 54/54/54 56/56/56 60/60/60
f 53/53/53 60/60/60 59/59/59
f 38/38/38 55/55/55 61/61/61
f 38/38/38 61/61/61 36/36/36
f 55/55/55 59/59/59 62/62/62
f 55/55/55 62/62/62 61/61/61
f 59/59/59 60/60/60 63/63/63
f 59/59/59 63/63/63 62/62/62
f 60/60/60 56/56/56 64/64/64
f 60/60/60 64/64/64 63/63/63
f 58/58/58 65/65/65 56/56/56
f 56/56/56 65/65/65 64/64/64
f 36/36/36 61/61/61 66/66/66
f 36/36/36 66/66/66 37/37/37
f 37/37/37 66/66/66 67/67/67
f 61/61/61 62/62/62 68/68/68
f 61/61/61 68/68/68 66/66/66
f 66/66/66 69/69/69 67/67/67
f 66/66/66 68/68/68 69/69/69
f 67/67/67 69/69/69 70/70/70
f 69/69/69 71/71/71 70/70/70
f 69/69/69 72/72/72 71/71/71
f 68/68/68 72/72/72 69/69/69
f 72/72/72 73/73/73 71/71/71
f 62/62/62 74/74/74 68/68/68
f 68/68/68 74/74/74 72/72/72
f 62/62/62 63/63/63 74/74/74
f 72/72/72 75/75/75 73/73/73
f 74/74/74 75/75/75 72/72/72
f 75/75/75 76/76/76 73/73/73
f 63/63/63 77/77/77 74/74/74
f 74/74/74 77/77/77 75/75/75
f 63/63/63 64/64/64 77/77/77
f 75/75/75 78/78/78 76/76/76
f 77/77/77 78/78/78 75/75/75
f 78/78/78 79/79/79 76/76/76
f 64/64/64 80/80/80 77/77/77
f 77/77/77 80/80/80 78/78/78
f 64/64/64 65/65/65 80/80/80
f 78/78/78 81/81/81 79/79/79
f 80/80/80 81/81/81 78/78/78
f 81/81/81 82/82/82 79/79/79
f 65/65/65 83/83/83 80/80/80
f 80/80/80 83/83/83 81/81/81
f 65/65/65 58/58/58 83/83/83
f 58/58/58 84/84/84 83/83/83
f 84/84/84 85/85/85 83/83/83
f 81/81/81 86/86/86 82/82/82
f 83/83/83 86/86/86 81/81/81
f 85/85/85 86/86/86 83/83/83
f 86/86/86 87/87/87 82/82/82
f 86/86/86 85/85/85 87/87/87
f 85/85/85 88/88/88 87/87/87
f 91/91/91 90/90/90 89/89/89
f 92/92/92 91/91/91 89/89/89
f 95/95/95 94/94/94 93/93/93
f 96/96/96 95/95/95 93/93/93
f 99/99/99 98/98/98 97/97/97
f 100/100/100 99/99/99 97/97/97
f 103/103/103 102/102/102 101/101/101
f 104/104/104 103/103/103 101/101/101
f 107/107/107 106/106/106 105/105/105
f 108/108/108 107/107/107 105/105/105
f 111/111/111 110/110/110 109/109/109
f 110/110/110 112/112/112 109/109/109
f 110/110/110 113/113/113 112/112/112
f 109/109/109 112/112/112 114/114/114
f 113/113/113 115/115/115 112/112/112
f 112/112/112 116/116/116 114/114/114
f 112/112/112 115/115/115 116/116/116
f 114/114/114 116/116/116 117/117/117
f 115/115/115 118/118/118 116/116/116
f 116/116/116 119/119/119 117/117/117
f 116/116/116 118/118/118 119/119/119
f 117/117/117 119/119/119 120/120/120
f 118/118/118 121/121/121 119/119/119
f 119/119/119 122/122/122 120/120/120
f 119/119/119 121/121/121 122/122/122
f 120/120/120 122/122/122 123/123/123
f 121/121/121 124/124/124 122/122/122
f 122/122/122 125/125/125 123/123/123
f 122/122/122 124/124/124 125/125/125
f 123/123/123 125/125/125 126/126/126
f 124/124/124 127/127/127 125/125/125
f 125/125/125 128/128/128 126/126/126
f 125/125/125 127/127/127 128/128/128
f 126/126/126 128/128/128 129/129/129
f 127/127/127 130/130/130 128/128/128
f 128/128/128 131/131/131 129/129/129
f 128/128/128 130/130/130 131/131/131
f 129/129/129 131/131/131 132/132/132
f 130/130/130 133/133/133 131/131/131
f 131/131/131 134/134/134 132/132/132
f 131/131/131 133/133/133 134/134/134
f 132/132/132 134/134/134 135/135/135
f 133/133/133 136/136/136 134/134/134
f 134/134/134 137/137/137 135/135/135
f 134/134/134 136/136/136 137/137/137
f 135/135/135 137/137/137 138/138/138
f 136/136/136 139/139/139 137/137/137
f 137/137/137 140/140/140 138/138/138
f 137/137/137 139/139/139 140/140/140
f 139/139/139 141/141/141 140/140/140
f 144/144/144 143/143/143 142/142/142
f 145/145/145 144/144/144 142/142/142
f 142/142/142 143/143/143 146/146/146
f 147/147/147 144/144/144 145/145/145
f 148/148/148 147/147/147 145/145/145
f 143/143/143 149/149/149 146/146/146
f 146/146/146 149/149/149 150/150/150
f 151/151/151 147/147/147 148/148/148
f 152/152/152 151/151/151 148/148/148
f 149/149/149 153/153/153 150/150/150
f 150/150/150 153/153/153 154/154/154
f 155/155/155 151/151/151 152/152/152
f 156/156/156 155/155/155 152/152/152
f 153/153/153 157/157/157 154/154/154
f 154/154/154 157/157/157 158/158/158
f 159/159/159 155/155/155 156/156/156
f 160/160/160 159/159/159 156/156/156
f 158/158/158 161/161/161 160/160/160
f 157/157/157 161/161/161 158/158/158
f 161/161/161 159/159/159 160/160/160
f 151/151/151 162/162/162 147/147/147
f 155/155/155 163/163/163 151/151/151
f 163/163/163 162/162/162 151/151/151
f 164/164/164 162/162/162 163/163/163
f 165/165/165 164/164/164 163/163/163
f 165/165/165 163/163/163 155/155/155
f 159/159/159 165/165/165 155/155/155
f 162/162/162 164/164/164 166/166/166
f 162/162/162 166/166/166 147/147/147
f 147/147/147 166/166/166 144/144/144
f 167/167/167 165/165/165 159/159/159
f 161/161/161 167/167/167 159/159/159
f 164/164/164 165/165/165 167/167/167
f 166/166/166 168/168/168 144/144/144
f 164/164/164 168/168/168 166/166/166
f 144/144/144 168/168/168 143/143/143
f 169/169/169 167/167/167 161/161/161
f 169/169/169 164/164/164 167/167/167
f 157/157/157 169/169/169 161/161/161
f 168/168/168 170/170/170 143/143/143
f 168/168/168 164/164/164 170/170/170
f 143/143/143 170/170/170 149/149/149
f 171/171/171 169/169/169 157/157/157
f 164/164/164 169/169/169 171/171/171
f 153/153/153 171/171/171 157/157/157
f 170/170/170 172/172/172 149/149/149
f 164/164/164 172/172/172 170/170/170
f 172/172/172 164/164/164 171/171/171
f 172/172/172 171/171/171 153/153/153
f 149/149/149 172/172/172 153/153/153
