g mdlVoidRepairsPlatformWallsSidebits.001
v -1.026912 7.0448236 2.8589318
v -1.001241 7.101253 2.9858778
v -1.2587551 7.1113253 2.988312
v -0.8734184 6.954668 2.8699934
v -1.2402283 7.047106 2.870228
v -0.8249909 6.9838514 2.9882138
v -0.79596204 6.858315 2.9238691
v -1.2662269 7.14204 3.1349628
v -0.9895723 7.1269035 3.1347485
v -1.4804354 7.0596766 2.999489
v -1.5086337 7.0877266 3.1364634
v -0.74489546 6.8439393 2.9987724
v -0.80304986 6.9982934 3.1349568
v -1.2592412 7.1120214 3.3090456
v -1.4804049 7.0588574 3.3037534
v -1.0009197 7.1018534 3.3104491
v -1.5923573 7.033096 3.1399217
v -1.5553453 7.004791 3.3016691
v -1.5557678 7.007454 3.0103757
v -1.4415317 6.9783654 3.4287353
v -1.4114815 7.0239263 2.9251437
v -1.4415437 6.9819326 2.9330153
v -1.4147652 7.022956 3.4134526
v -1.251836 7.000549 3.4813046
v -1.2479073 7.052838 3.4435093
v -1.0450164 7.0026717 3.4889874
v -1.0243421 7.04962 3.4498084
v -0.90002847 6.91588 3.4827292
v -0.8244372 6.9838305 3.309166
v -0.86712897 6.9526386 3.4440737
v -0.8107122 6.8153906 3.4307766
v -0.71925384 6.8447533 3.1364157
v -0.7454156 6.8434973 3.304315
v -0.7952634 6.8557954 3.4145446
v -0.74755883 6.773251 3.303084
v -0.72015864 6.7691483 3.1397843
v -0.7458197 6.77443 3.008529
v -0.8086033 6.817393 2.9303741
v -0.9003849 6.917142 2.8963566
v -0.8734184 6.954668 2.8699934
v -1.0449843 7.003046 2.8924124
v -1.026912 7.0448236 2.8589318
v -1.2504663 7.0010605 2.8982532
v -1.0630571 6.9612694 2.9258933
v -0.929156 6.887786 2.927663
v -1.2511789 6.9620223 2.9310646
v -1.4110901 6.9686947 2.9548075
v -1.4769762 6.99252 3.022538
v -1.5557678 7.007454 3.0103757
v -1.2714267 7.0159173 3.025089
v -1.0630571 6.9612694 2.9258933
v -1.5045276 7.0151277 3.1435494
v -1.5923573 7.033096 3.1399217
v -1.0426648 7.0100813 3.024882
v -0.8378641 6.820719 2.9514024
v -0.7458197 6.77443 3.008529
v -1.4768486 6.9890356 3.2951572
v -1.5553453 7.004791 3.3016691
v -1.2801291 7.0409985 3.1454673
v -0.8890699 6.9102573 3.0232224
v -0.7982714 6.8009953 3.0200524
v -0.72015864 6.7691483 3.1397843
v -1.4141808 6.969011 3.4005487
v -1.4415317 6.9783654 3.4287353
v -1.2722931 7.0146317 3.2959526
v -1.0340018 7.0307975 3.1458936
v -1.2568042 6.9860044 3.4244153
v -1.251836 7.000549 3.4813046
v -0.77703995 6.799061 3.1433578
v -0.74755883 6.773251 3.303084
v -0.8711076 6.9207954 3.1453357
v -1.0430181 7.009107 3.296886
v -1.0525472 6.9858346 3.429568
v -1.0450164 7.0026717 3.4889874
v -0.8893194 6.9089866 3.2972922
v -0.8003522 6.7991366 3.2970386
v -0.8107122 6.8153906 3.4307766
v -0.9108561 6.9008417 3.4263122
v -0.90002847 6.91588 3.4827292
v -0.8359177 6.819718 3.4030097
v -6.7546377 2.5780857 2.8694603
v -6.7812304 2.4283016 2.9858778
v -6.750995 2.4213033 2.8589318
v -6.665283 2.2767093 2.9877512
v -6.65517 2.296213 2.868929
v -6.788822 2.6005836 2.9880133
v -6.6707735 2.2680285 3.1348367
v -6.7949734 2.431483 3.1347485
v -6.524262 2.187072 2.995381
v -6.518929 2.1661093 3.1354527
v -6.664341 2.2773066 3.309742
v -6.523953 2.1872606 3.3057818
v -6.4409018 2.1564593 3.1369398
v -6.4511867 2.1817117 3.306635
v -6.4514976 2.1814923 2.999399
v -6.503539 2.2412665 3.438893
v -6.547951 2.2298558 2.9179049
v -6.5041723 2.2414687 2.9168918
v -6.5445037 2.2299 3.4187858
v -6.6108217 2.3235033 3.492771
v -6.6452856 2.2996516 3.4478176
v -6.70277 2.4397633 3.499041
v -6.780485 2.4293709 3.3108895
v -6.745033 2.429858 3.45333
v -6.7049236 2.5846877 3.4903226
v -6.8051734 2.609727 3.1349227
v -6.7883134 2.6013618 3.3095758
v -6.749926 2.586593 3.4468424
v -6.675938 2.7045414 3.4356759
v -6.716108 2.691197 3.4170318
v -6.679455 2.7645886 3.305214
v -6.733113 2.7289286 3.305167
v -6.6919274 2.779344 3.138919
v -6.747369 2.7423267 3.136141
v -6.6805716 2.7650383 3.0045123
v -6.7336135 2.7289455 2.9973238
v -6.677357 2.7051222 2.9230492
v -6.7182393 2.6889951 2.9208648
v -6.7046843 2.5846515 2.8852496
v -6.702532 2.4404397 2.8776412
v -6.750995 2.4213033 2.8589318
v -6.6112475 2.3251128 2.8810673
v -6.6540694 2.4595766 2.896351
v -6.6597676 2.5844274 2.9059803
v -6.574869 2.356299 2.8984523
v -6.502763 2.2726574 2.931329
v -6.4735346 2.2385173 3.0054803
v -6.4514976 2.1814923 2.999399
v -6.5802712 2.3361092 3.0059032
v -6.6540694 2.4595766 2.896351
v -6.4661922 2.2194602 3.138902
v -6.4409018 2.1564593 3.1369398
v -6.679724 2.4609988 3.0083551
v -6.6592507 2.682332 2.9394336
v -6.6805716 2.7650383 3.0045123
v -6.4731407 2.2382042 3.302741
v -6.4511867 2.1817117 3.306635
v -6.5835557 2.3262486 3.14079
v -6.6869993 2.600955 3.0109785
v -6.6642933 2.715403 3.0124266
v -6.6919274 2.779344 3.138919
v -6.5034137 2.2681437 3.413604
v -6.503539 2.2412665 3.438893
v -6.580782 2.3339117 3.3046384
v -6.690729 2.4613433 3.142192
v -6.587452 2.3396978 3.4395077
v -6.6108217 2.3235033 3.492771
v -6.674318 2.7265205 3.1416554
v -6.679455 2.7645886 3.305214
v -6.7001805 2.6074347 3.1426835
v -6.680708 2.459253 3.3047426
v -6.67638 2.452255 3.44308
v -6.70277 2.4397633 3.499041
v -6.6877146 2.6002007 3.3033025
v -6.6630707 2.7147198 3.3009417
v -6.675938 2.7045414 3.4356759
v -6.6806364 2.5875487 3.436525
v -6.7049236 2.5846877 3.4903226
v -6.661455 2.6833165 3.4099867
vt 0 0
vt 0 0
vt 0 0
vt 0 0
vt 0 0
vt 0 0
vt 0 0
vt 0 0
vt 0 0
vt 0 0
vt 0 0
vt 0 0
vt 0 0
vt 0 0
vt 0 0
vt 0 0
vt 0 0
vt 0 0
vt 0 0
vt 0 0
vt 0 0
vt 0 0
vt 0 0
vt 0 0
vt 0 0
vt 0 0
vt 0 0
vt 0 0
vt 0 0
vt 0 0
vt 0 0
vt 0 0
vt 0 0
vt 0 0
vt 0 0
vt 0 0
vt 0 0
vt 0 0
vt 0 0
vt 0 0
vt 0 0
vt 0 0
vt 0 0
vt 0 0
vt 0 0
vt 0 0
vt 0 0
vt 0 0
vt 0 0
vt 0 0
vt 0 0
vt 0 0
vt 0 0
vt 0 0
vt 0 0
vt 0 0
vt 0 0
vt 0 0
vt 0 0
vt 0 0
vt 0 0
vt 0 0
vt 0 0
vt 0 0
vt 0 0
vt 0 0
vt 0 0
vt 0 0
vt 0 0
vt 0 0
vt 0 0
vt 0 0
vt 0 0
vt 0 0
vt 0 0
vt 0 0
vt 0 0
vt 0 0
vt 0 0
vt 0 0
vt 0 0
vt 0 0
vt 0 0
vt 0 0
vt 0 0
vt 0 0
vt 0 0
vt 0 0
vt 0 0
vt 0 0
vt 0 0
vt 0 0
vt 0 0
vt 0 0
vt 0 0
vt 0 0
vt 0 0
vt 0 0
vt 0 0
vt 0 0
vt 0 0
vt 0 0
vt 0 0
vt 0 0
vt 0 0
vt 0 0
vt 0 0
vt 0 0
vt 0 0
vt 0 0
vt 0 0
vt 0 0
vt 0 0
vt 0 0
vt 0 0
vt 0 0
vt 0 0
vt 0 0
vt 0 0
vt 0 0
vt 0 0
vt 0 0
vt 0 0
vt 0 0
vt 0 0
vt 0 0
vt 0 0
vt 0 0
vt 0 0
vt 0 0
vt 0 0
vt 0 0
vt 0 0
vt 0 0
vt 0 0
vt 0 0
vt 0 0
vt 0 0
vt 0 0
vt 0 0
vt 0 0
vt 0 0
vt 0 0
vt 0 0
vt 0 0
vt 0 0
vt 0 0
vt 0 0
vt 0 0
vt 0 0
vt 0 0
vt 0 0
vt 0 0
vt 0 0
vt 0 0
vt 0 0
vt 0 0
vt 0 0
vt 0 0
vn 0.25122747 0.8601216 -0.44393194
vn 0.29241085 0.9039185 -0.31213328
vn -0.10697624 0.929441 -0.3531228
vn 0.62808144 0.6436159 -0.4373469
vn -0.13497989 0.29870993 -0.9447502
vn 0.7069252 0.63639605 -0.30863687
vn 0.61084193 -0.025875328 -0.79132956
vn -0.09366848 0.99544597 -0.017708993
vn 0.3193235 0.94751704 -0.015617481
vn -0.4186737 0.7604002 -0.4964915
vn -0.41546345 0.90930384 -0.023591712
vn 0.9084201 0.1555713 -0.38803408
vn 0.741624 0.67065424 -0.014719977
vn -0.097704954 0.95311725 0.2863934
vn -0.40873873 0.83468086 0.36910748
vn 0.29823557 0.9167106 0.26588938
vn -0.56976545 0.82169163 -0.013790141
vn -0.54996574 0.74348855 0.38047665
vn -0.55725116 0.68535775 -0.4687814
vn -0.43195185 0.59585834 0.6770305
vn -0.33445784 0.35797665 -0.8717744
vn -0.44252795 -0.51260877 -0.7357997
vn -0.3407531 0.7061744 0.6206489
vn -0.14688721 0.5756233 0.80441403
vn -0.120941825 0.7732032 0.6225191
vn 0.15005079 0.57848495 0.80177295
vn 0.2332948 0.7680998 0.596319
vn 0.4720315 0.36813408 0.80103904
vn 0.7108213 0.65657663 0.25227028
vn 0.60143876 0.5254116 0.60184216
vn 0.77914107 0.043270674 0.6253535
vn 0.9725466 0.23213035 -0.016388565
vn 0.9366974 0.20719993 0.2822518
vn 0.8125978 0.20561114 0.5453521
vn 0.95628536 -0.047049828 0.2886255
vn 0.9996766 -0.024004929 -0.008388061
vn 0.92539555 -0.091596864 -0.36776772
vn 0.098494 -0.68660796 -0.72032523
vn -0.20331158 -0.51014 -0.8357162
vn -0.13407448 -0.45403826 -0.8808366
vn -0.14890476 -0.55562484 -0.8179904
vn -0.1503358 -0.5283659 -0.8356008
vn -0.09400912 -0.5490727 -0.8304706
vn -0.14617091 -0.5920957 -0.7925003
vn -0.5313356 -0.80597395 -0.26093784
vn -0.02029845 -0.9837087 -0.17862047
vn -0.07125236 -0.99460655 -0.07537147
vn -0.09896462 -0.9817452 0.16242647
vn -0.21941738 -0.9706358 0.09860098
vn 0.03493748 -0.9425556 0.33221734
vn -0.23591976 -0.8543857 0.46299785
vn -0.065808356 -0.9978136 0.0061027543
vn -0.20349497 -0.9790636 0.004926235
vn -0.27851522 -0.90634245 0.31776184
vn -0.5506212 -0.8166126 -0.17309028
vn -0.42729923 -0.90402275 -0.012577434
vn -0.06909805 -0.9893098 -0.12841979
vn -0.21200588 -0.9731881 -0.089210115
vn 0.043917254 -0.99894816 0.01319181
vn -0.62897843 -0.72960836 0.2684358
vn -0.5736958 -0.8155907 0.07539911
vn -0.4524885 -0.8917701 0.0004509726
vn -0.0057041957 -0.99996734 0.0057244226
vn -0.11945953 -0.9865204 0.111833915
vn 0.05282556 -0.97922415 -0.1957791
vn -0.30694276 -0.95163304 0.0134454835
vn 0.038258072 -0.9985147 0.038791485
vn 0.017064797 -0.96285874 0.26946592
vn -0.61777884 -0.7863489 0.0021891755
vn -0.42762107 -0.90395564 -0.0021037918
vn -0.6786703 -0.73438007 0.00962322
vn -0.2899766 -0.9418825 -0.16962029
vn -0.26682934 -0.96187353 0.060010344
vn -0.25863326 -0.92087543 0.29171455
vn -0.66250974 -0.73440224 -0.14742549
vn -0.59902906 -0.79871833 -0.056685414
vn -0.5184749 -0.82443076 0.22693114
vn -0.61188126 -0.78383696 0.10583501
vn -0.5412137 -0.77536964 0.32540673
vn -0.6159499 -0.7825099 0.09101592
vn -0.5012589 0.21158911 -0.83902895
vn -0.9319493 -0.32979584 -0.15068261
vn -0.9110628 -0.35377702 -0.21167547
vn -0.6598398 -0.7383946 -0.13922942
vn -0.31498513 -0.515392 -0.7969664
vn -0.95712245 0.19579832 -0.21349375
vn -0.6801723 -0.7330434 -0.0036252877
vn -0.9418664 -0.33596388 -0.0040063825
vn -0.25229567 -0.9223961 -0.29245892
vn -0.3216272 -0.9468033 -0.010929431
vn -0.6707393 -0.72870225 0.13820954
vn -0.29344562 -0.93268883 0.20971699
vn -0.098585084 -0.99506676 -0.01109457
vn -0.06848539 -0.9688811 0.23786385
vn -0.038766466 -0.9488005 -0.31348827
vn -0.12980714 -0.84135604 0.5246621
vn -0.10935122 -0.7232542 -0.68186927
vn 0.5558021 -0.24827473 -0.7933749
vn -0.28499782 -0.8535509 0.43615034
vn -0.42270654 -0.60008717 0.6791277
vn -0.5666778 -0.6814346 0.46316665
vn -0.6642747 -0.24990973 0.7044744
vn -0.9294701 -0.33418217 0.1562297
vn -0.82868564 -0.29916912 0.47305185
vn -0.66393775 0.21059945 0.71751976
vn -0.982757 0.18471615 -0.008287907
vn -0.9661884 0.17977722 0.18482491
vn -0.83469605 0.19795026 0.5139048
vn -0.5465639 0.6314057 0.5500861
vn -0.68470037 0.5583244 0.46846485
vn -0.5266635 0.8180403 0.23116188
vn -0.7358042 0.63962483 0.22242375
vn -0.5534478 0.8328541 -0.00704274
vn -0.76494145 0.64399403 -0.011676064
vn -0.48542097 0.8203279 -0.3023716
vn -0.6939989 0.65198034 -0.30542943
vn 0.35738194 0.58899814 -0.7248168
vn -0.44408515 0.5492785 -0.7078711
vn 0.316781 0.18089736 -0.93108857
vn 0.30119368 0.114612624 -0.9466501
vn 0.28097156 0.10242352 -0.9542351
vn 0.3021772 0.046275154 -0.95212793
vn 0.3312793 0.13268922 -0.934156
vn 0.89100575 0.07260103 -0.44814935
vn 0.6931165 0.49918506 -0.5200036
vn 0.789973 0.47511536 -0.38756686
vn 0.8515672 0.5206552 -0.06124884
vn 0.93335944 0.34051475 -0.11353379
vn 0.73360246 0.67165285 0.10348783
vn 0.9101916 0.3599344 0.20493558
vn 0.83308935 0.55312717 0.003533263
vn 0.93010026 0.36730367 -0.0011693776
vn 0.92853713 0.34237835 0.14351249
vn 0.94842803 0.13694939 -0.28588295
vn 0.93802696 0.34336722 -0.046951205
vn 0.83611333 0.54674274 0.044573076
vn 0.9341837 0.34746152 0.08106331
vn 0.7285022 0.68497115 0.009956089
vn 0.9851151 -0.06497075 0.15914436
vn 0.9926611 0.117798366 0.027337244
vn 0.9485458 0.31662944 0.0025648412
vn 0.7864703 0.57338285 0.22955716
vn 0.80878407 0.45609 0.371282
vn 0.724401 0.68896985 -0.023741512
vn 0.93648326 0.35053122 0.011266204
vn 0.727049 0.63104105 0.27053088
vn 0.68706113 0.5462781 0.47909003
vn 0.99751043 0.070402175 0.0040492993
vn 0.9425792 0.3329759 0.02591336
vn 0.9967957 -0.07949321 0.008901522
vn 0.9361214 0.3497481 -0.03678465
vn 0.90926754 0.33529443 0.2465969
vn 0.8312299 0.3113645 0.46055287
vn 0.99412197 -0.08476121 -0.06735741
vn 0.996473 0.08227835 -0.0164863
vn 0.94073874 0.14683577 0.3056957
vn 0.9755164 -0.031137234 0.21771158
vn 0.9017445 0.014289637 0.43203324
vn 0.9863794 0.04108409 0.15927319
g mdlVoidRepairsPlatformWallsSidebits.001_0
f 3/3/3 2/2/2 1/1/1
f 1/1/1 2/2/2 4/4/4
f 5/5/5 3/3/3 1/1/1
f 2/2/2 6/6/6 4/4/4
f 4/4/4 6/6/6 7/7/7
f 3/3/3 8/8/8 2/2/2
f 2/2/2 9/9/9 6/6/6
f 8/8/8 9/9/9 2/2/2
f 10/10/10 3/3/3 5/5/5
f 11/11/11 8/8/8 3/3/3
f 10/10/10 11/11/11 3/3/3
f 6/6/6 12/12/12 7/7/7
f 9/9/9 13/13/13 6/6/6
f 6/6/6 13/13/13 12/12/12
f 8/8/8 14/14/14 9/9/9
f 11/11/11 15/15/15 8/8/8
f 15/15/15 14/14/14 8/8/8
f 9/9/9 16/16/16 13/13/13
f 14/14/14 16/16/16 9/9/9
f 17/17/17 11/11/11 10/10/10
f 17/17/17 18/18/18 11/11/11
f 18/18/18 15/15/15 11/11/11
f 19/19/19 17/17/17 10/10/10
f 18/18/18 20/20/20 15/15/15
f 19/19/19 10/10/10 21/21/21
f 21/21/21 10/10/10 5/5/5
f 22/22/22 19/19/19 21/21/21
f 22/22/22 21/21/21 5/5/5
f 20/20/20 23/23/23 15/15/15
f 15/15/15 23/23/23 14/14/14
f 20/20/20 24/24/24 23/23/23
f 23/23/23 25/25/25 14/14/14
f 24/24/24 25/25/25 23/23/23
f 14/14/14 25/25/25 16/16/16
f 24/24/24 26/26/26 25/25/25
f 26/26/26 27/27/27 25/25/25
f 25/25/25 27/27/27 16/16/16
f 26/26/26 28/28/28 27/27/27
f 16/16/16 27/27/27 29/29/29
f 16/16/16 29/29/29 13/13/13
f 28/28/28 30/30/30 27/27/27
f 27/27/27 30/30/30 29/29/29
f 28/28/28 31/31/31 30/30/30
f 13/13/13 29/29/29 32/32/32
f 13/13/13 32/32/32 12/12/12
f 29/29/29 30/30/30 33/33/33
f 29/29/29 33/33/33 32/32/32
f 31/31/31 34/34/34 30/30/30
f 30/30/30 34/34/34 33/33/33
f 31/31/31 35/35/35 34/34/34
f 35/35/35 33/33/33 34/34/34
f 35/35/35 36/36/36 33/33/33
f 36/36/36 32/32/32 33/33/33
f 36/36/36 37/37/37 32/32/32
f 37/37/37 12/12/12 32/32/32
f 37/37/37 38/38/38 12/12/12
f 38/38/38 7/7/7 12/12/12
f 38/38/38 39/39/39 7/7/7
f 39/39/39 40/40/40 7/7/7
f 39/39/39 41/41/41 40/40/40
f 41/41/41 42/42/42 40/40/40
f 41/41/41 43/43/43 42/42/42
f 43/43/43 5/5/5 42/42/42
f 43/43/43 22/22/22 5/5/5
f 44/44/44 41/41/41 39/39/39
f 45/45/45 44/44/44 39/39/39
f 45/45/45 39/39/39 38/38/38
f 44/44/44 46/46/46 41/41/41
f 46/46/46 43/43/43 41/41/41
f 47/47/47 22/22/22 43/43/43
f 46/46/46 47/47/47 43/43/43
f 47/47/47 48/48/48 22/22/22
f 48/48/48 47/47/47 46/46/46
f 48/48/48 49/49/49 22/22/22
f 50/50/50 48/48/48 46/46/46
f 50/50/50 46/46/46 51/51/51
f 48/48/48 52/52/52 49/49/49
f 52/52/52 48/48/48 50/50/50
f 52/52/52 53/53/53 49/49/49
f 54/54/54 50/50/50 51/51/51
f 54/54/54 51/51/51 45/45/45
f 55/55/55 45/45/45 38/38/38
f 55/55/55 38/38/38 56/56/56
f 52/52/52 57/57/57 53/53/53
f 57/57/57 58/58/58 53/53/53
f 59/59/59 52/52/52 50/50/50
f 59/59/59 50/50/50 54/54/54
f 57/57/57 52/52/52 59/59/59
f 60/60/60 45/45/45 55/55/55
f 60/60/60 54/54/54 45/45/45
f 61/61/61 55/55/55 56/56/56
f 61/61/61 60/60/60 55/55/55
f 61/61/61 56/56/56 62/62/62
f 57/57/57 63/63/63 58/58/58
f 63/63/63 64/64/64 58/58/58
f 65/65/65 57/57/57 59/59/59
f 63/63/63 57/57/57 65/65/65
f 66/66/66 59/59/59 54/54/54
f 66/66/66 54/54/54 60/60/60
f 65/65/65 59/59/59 66/66/66
f 63/63/63 67/67/67 64/64/64
f 67/67/67 63/63/63 65/65/65
f 67/67/67 68/68/68 64/64/64
f 69/69/69 61/61/61 62/62/62
f 69/69/69 62/62/62 70/70/70
f 71/71/71 60/60/60 61/61/61
f 71/71/71 66/66/66 60/60/60
f 69/69/69 71/71/71 61/61/61
f 72/72/72 65/65/65 66/66/66
f 67/67/67 65/65/65 72/72/72
f 72/72/72 66/66/66 71/71/71
f 67/67/67 73/73/73 68/68/68
f 73/73/73 67/67/67 72/72/72
f 73/73/73 74/74/74 68/68/68
f 75/75/75 72/72/72 71/71/71
f 75/75/75 71/71/71 69/69/69
f 73/73/73 72/72/72 75/75/75
f 76/76/76 69/69/69 70/70/70
f 76/76/76 75/75/75 69/69/69
f 76/76/76 70/70/70 77/77/77
f 73/73/73 78/78/78 74/74/74
f 78/78/78 73/73/73 75/75/75
f 78/78/78 75/75/75 76/76/76
f 78/78/78 79/79/79 74/74/74
f 80/80/80 76/76/76 77/77/77
f 80/80/80 77/77/77 79/79/79
f 80/80/80 78/78/78 76/76/76
f 78/78/78 80/80/80 79/79/79
f 83/83/83 82/82/82 81/81/81
f 84/84/84 82/82/82 83/83/83
f 85/85/85 84/84/84 83/83/83
f 82/82/82 86/86/86 81/81/81
f 84/84/84 87/87/87 82/82/82
f 82/82/82 88/88/88 86/86/86
f 87/87/87 88/88/88 82/82/82
f 89/89/89 84/84/84 85/85/85
f 90/90/90 87/87/87 84/84/84
f 89/89/89 90/90/90 84/84/84
f 87/87/87 91/91/91 88/88/88
f 90/90/90 92/92/92 87/87/87
f 92/92/92 91/91/91 87/87/87
f 93/93/93 90/90/90 89/89/89
f 93/93/93 94/94/94 90/90/90
f 94/94/94 92/92/92 90/90/90
f 95/95/95 93/93/93 89/89/89
f 94/94/94 96/96/96 92/92/92
f 95/95/95 89/89/89 97/97/97
f 97/97/97 89/89/89 85/85/85
f 98/98/98 95/95/95 97/97/97
f 98/98/98 97/97/97 85/85/85
f 96/96/96 99/99/99 92/92/92
f 92/92/92 99/99/99 91/91/91
f 96/96/96 100/100/100 99/99/99
f 100/100/100 101/101/101 99/99/99
f 99/99/99 101/101/101 91/91/91
f 100/100/100 102/102/102 101/101/101
f 91/91/91 101/101/101 103/103/103
f 91/91/91 103/103/103 88/88/88
f 102/102/102 104/104/104 101/101/101
f 101/101/101 104/104/104 103/103/103
f 102/102/102 105/105/105 104/104/104
f 88/88/88 103/103/103 106/106/106
f 88/88/88 106/106/106 86/86/86
f 103/103/103 104/104/104 107/107/107
f 103/103/103 107/107/107 106/106/106
f 105/105/105 108/108/108 104/104/104
f 104/104/104 108/108/108 107/107/107
f 105/105/105 109/109/109 108/108/108
f 109/109/109 110/110/110 108/108/108
f 109/109/109 111/111/111 110/110/110
f 108/108/108 110/110/110 112/112/112
f 111/111/111 112/112/112 110/110/110
f 107/107/107 108/108/108 112/112/112
f 111/111/111 113/113/113 112/112/112
f 107/107/107 112/112/112 114/114/114
f 113/113/113 114/114/114 112/112/112
f 106/106/106 107/107/107 114/114/114
f 113/113/113 115/115/115 114/114/114
f 106/106/106 114/114/114 116/116/116
f 115/115/115 116/116/116 114/114/114
f 86/86/86 106/106/106 116/116/116
f 115/115/115 117/117/117 116/116/116
f 86/86/86 116/116/116 118/118/118
f 117/117/117 118/118/118 116/116/116
f 81/81/81 86/86/86 118/118/118
f 119/119/119 81/81/81 118/118/118
f 117/117/117 119/119/119 118/118/118
f 119/119/119 120/120/120 81/81/81
f 120/120/120 121/121/121 81/81/81
f 120/120/120 122/122/122 121/121/121
f 122/122/122 85/85/85 121/121/121
f 122/122/122 98/98/98 85/85/85
f 123/123/123 120/120/120 119/119/119
f 124/124/124 123/123/123 119/119/119
f 124/124/124 119/119/119 117/117/117
f 123/123/123 125/125/125 120/120/120
f 125/125/125 122/122/122 120/120/120
f 126/126/126 98/98/98 122/122/122
f 125/125/125 126/126/126 122/122/122
f 126/126/126 127/127/127 98/98/98
f 127/127/127 126/126/126 125/125/125
f 127/127/127 128/128/128 98/98/98
f 129/129/129 127/127/127 125/125/125
f 129/129/129 125/125/125 130/130/130
f 127/127/127 131/131/131 128/128/128
f 131/131/131 127/127/127 129/129/129
f 131/131/131 132/132/132 128/128/128
f 133/133/133 129/129/129 130/130/130
f 133/133/133 130/130/130 124/124/124
f 134/134/134 124/124/124 117/117/117
f 134/134/134 117/117/117 135/135/135
f 131/131/131 136/136/136 132/132/132
f 136/136/136 137/137/137 132/132/132
f 138/138/138 131/131/131 129/129/129
f 138/138/138 129/129/129 133/133/133
f 136/136/136 131/131/131 138/138/138
f 139/139/139 124/124/124 134/134/134
f 139/139/139 133/133/133 124/124/124
f 140/140/140 134/134/134 135/135/135
f 140/140/140 139/139/139 134/134/134
f 140/140/140 135/135/135 141/141/141
f 136/136/136 142/142/142 137/137/137
f 142/142/142 143/143/143 137/137/137
f 144/144/144 136/136/136 138/138/138
f 142/142/142 136/136/136 144/144/144
f 145/145/145 138/138/138 133/133/133
f 145/145/145 133/133/133 139/139/139
f 144/144/144 138/138/138 145/145/145
f 142/142/142 146/146/146 143/143/143
f 146/146/146 142/142/142 144/144/144
f 146/146/146 147/147/147 143/143/143
f 148/148/148 140/140/140 141/141/141
f 148/148/148 141/141/141 149/149/149
f 150/150/150 139/139/139 140/140/140
f 150/150/150 145/145/145 139/139/139
f 148/148/148 150/150/150 140/140/140
f 151/151/151 144/144/144 145/145/145
f 146/146/146 144/144/144 151/151/151
f 151/151/151 145/145/145 150/150/150
f 146/146/146 152/152/152 147/147/147
f 152/152/152 146/146/146 151/151/151
f 152/152/152 153/153/153 147/147/147
f 154/154/154 151/151/151 150/150/150
f 154/154/154 150/150/150 148/148/148
f 152/152/152 151/151/151 154/154/154
f 155/155/155 148/148/148 149/149/149
f 155/155/155 154/154/154 148/148/148
f 155/155/155 149/149/149 156/156/156
f 152/152/152 157/157/157 153/153/153
f 157/157/157 152/152/152 154/154/154
f 157/157/157 154/154/154 155/155/155
f 157/157/157 158/158/158 153/153/153
f 159/159/159 156/156/156 158/158/158
f 159/159/159 155/155/155 156/156/156
f 159/159/159 157/157/157 155/155/155
f 157/157/157 159/159/159 158/158/158
