g meshSPWaterPPCollision.025
v 4.381773 15.001565 0.5490449
v 4.2666664 16.920506 -0.5490308
v 4.381773 15.001565 -0.5490292
v 4.2666664 16.920506 0.5490433
v -9.807402 7.1824822 0.5490437
v 4.1769047 18.840475 -0.54903245
v 4.1769047 18.840475 0.5490416
v -9.807402 7.1824822 -0.54903036
v 4.2272954 13.063773 0.5490403
v 4.381773 15.001565 -0.5490292
v 4.1446276 11.133113 0.54904044
v 4.2272954 13.063773 -0.54903376
v 3.8144462 5.4019895 0.5490438
v 4.1446276 11.133113 -0.54903364
v 2.8680172 -0.26968893 0.5490378
v 1.0009683 -5.7082157 0.54903805
v -0.5336418 -9.206756 0.54903513
v 3.8144462 5.4019895 -0.5490303
v 2.8680172 -0.269689 -0.54903626
v 1.0009683 -5.7082157 -0.549036
v 3.8144462 5.4019895 -0.5490303
v 4.1446276 11.133113 0.54904044
v 4.2272954 13.063773 0.5490403
v -9.807402 7.1824822 -0.54903036
v 4.2666664 16.920506 -0.5490308
v 4.1769047 18.840475 -0.54903245
v 2.8680172 -0.269689 -0.54903626
v 1.0009683 -5.7082157 -0.549036
v -0.5336418 -9.206756 -0.54903895
v -0.5336418 -9.206756 0.54903513
v 1.0009683 -5.7082157 0.54903805
v -1.4458901 -10.892458 -0.5490389
v -1.4458901 -10.892458 0.5490352
v -2.358132 -12.578085 -0.5490357
v -3.270374 -14.263786 -0.54903567
v -2.358132 -12.578085 0.54903835
v -1.4458901 -10.892458 -0.5490389
v -2.358132 -12.578085 -0.5490357
v -3.270374 -14.263786 0.5490384
v -3.270374 -14.263786 -0.54903567
v -4.4476295 -15.776315 0.549037
v -7.0179095 -18.8484 0.54903555
v -7.0179095 -18.8484 -0.5490385
v -4.4476295 -15.776315 -0.5490371
v -7.0179095 -18.8484 0.54903555
v -4.4476295 -15.776315 0.549037
v -3.270374 -14.263786 0.5490384
vt 0.7625978 0.63002634
vt 0.78362715 0.6564885
vt 0.7625978 0.63002634
vt 0.78362715 0.6564885
vt 0.48510087 0.69434255
vt 0.80499995 0.6826666
vt 0.80499995 0.6826666
vt 0.48510087 0.69434255
vt 0.73781955 0.6064837
vt 0.7625978 0.63002634
vt 0.7140651 0.582191
vt 0.73781955 0.6064837
vt 0.6424402 0.5110738
vt 0.7140651 0.582191
vt 0.5634495 0.4479719
vt 0.47515 0.398732
vt 0.4139834 0.37097383
vt 0.6424402 0.5110738
vt 0.5634495 0.4479719
vt 0.47515 0.398732
vt 0.6424402 0.5110738
vt 0.7140651 0.582191
vt 0.73781955 0.6064837
vt 0.48510087 0.69434255
vt 0.78362715 0.6564885
vt 0.80499995 0.6826666
vt 0.5634495 0.4479719
vt 0.47515 0.398732
vt 0.4139834 0.37097383
vt 0.4139834 0.37097383
vt 0.47515 0.398732
vt 0.3822499 0.35962868
vt 0.3822499 0.35962868
vt 0.35051733 0.34828448
vt 0.31878376 0.33693913
vt 0.35051733 0.34828448
vt 0.3822499 0.35962868
vt 0.35051733 0.34828448
vt 0.31878376 0.33693913
vt 0.31878376 0.33693913
vt 0.2856164 0.33097246
vt 0.21590526 0.32095718
vt 0.21590526 0.32095718
vt 0.2856164 0.33097246
vt 0.21590526 0.32095718
vt 0.2856164 0.33097246
vt 0.31878376 0.33693913
vn 0.72209656 -0.0070904936 0.69175595
vn 0.7046132 0.03760161 -0.70859456
vn 0.72209716 -0.007090173 -0.6917553
vn 0.70461285 0.037602812 0.7085949
vn -0.7311203 0.2958911 0.61474514
vn 0.33621848 0.76398706 -0.5507095
vn 0.33621854 0.7639874 0.5507089
vn -0.7311204 0.29589117 -0.6147449
vn 0.701608 -0.042972974 0.7112661
vn 0.72209716 -0.007090173 -0.6917553
vn 0.70786804 -0.035543624 0.7054498
vn 0.7016069 -0.04297073 -0.7112674
vn 0.71437603 -0.07994654 0.69518006
vn 0.7078678 -0.035543986 -0.70545
vn 0.7025991 -0.17792213 0.68898344
vn 0.6671803 -0.2603357 0.69792247
vn 0.6434034 -0.31454018 0.697923
vn 0.7143765 -0.079946265 -0.6951797
vn 0.70259887 -0.1779215 -0.6889839
vn 0.6671806 -0.26033515 -0.69792235
vn 0.7143765 -0.079946265 -0.6951797
vn 0.70786804 -0.035543624 0.7054498
vn 0.701608 -0.042972974 0.7112661
vn -0.7311204 0.29589117 -0.6147449
vn 0.7046132 0.03760161 -0.70859456
vn 0.33621848 0.76398706 -0.5507095
vn 0.70259887 -0.1779215 -0.6889839
vn 0.6671806 -0.26033515 -0.69792235
vn 0.6434031 -0.31453976 -0.69792354
vn 0.6434034 -0.31454018 0.697923
vn 0.6671803 -0.2603357 0.69792247
vn 0.621881 -0.33654934 -0.70710564
vn 0.6218829 -0.33654857 0.7071043
vn 0.6218788 -0.33654663 -0.707109
vn 0.60676044 -0.39641464 -0.68898267
vn 0.6218793 -0.33654618 0.7071088
vn 0.621881 -0.33654934 -0.70710564
vn 0.6218788 -0.33654663 -0.707109
vn 0.6067599 -0.39641505 0.68898296
vn 0.60676044 -0.39641464 -0.68898267
vn 0.5533097 -0.44656596 0.70315516
vn -0.24329242 -0.800739 0.547381
vn -0.24329232 -0.80073875 -0.5473813
vn 0.55331 -0.44656542 -0.70315534
vn -0.24329242 -0.800739 0.547381
vn 0.5533097 -0.44656596 0.70315516
vn 0.6067599 -0.39641505 0.68898296
g meshSPWaterPPCollision.025_0
f 3/3/3 2/2/2 1/1/1
f 2/2/2 4/4/4 1/1/1
f 4/4/4 5/5/5 1/1/1
f 2/2/2 6/6/6 4/4/4
f 6/6/6 7/7/7 4/4/4
f 7/7/7 5/5/5 4/4/4
f 6/6/6 8/8/8 7/7/7
f 8/8/8 5/5/5 7/7/7
f 1/1/1 5/5/5 9/9/9
f 10/10/10 1/1/1 9/9/9
f 9/9/9 5/5/5 11/11/11
f 12/12/12 10/10/10 9/9/9
f 11/11/11 5/5/5 13/13/13
f 14/14/14 11/11/11 13/13/13
f 13/13/13 5/5/5 15/15/15
f 15/15/15 5/5/5 16/16/16
f 16/16/16 5/5/5 17/17/17
f 18/18/18 13/13/13 15/15/15
f 19/19/19 18/18/18 15/15/15
f 19/19/19 15/15/15 16/16/16
f 20/20/20 19/19/19 16/16/16
f 21/21/21 14/14/14 13/13/13
f 14/14/14 12/12/12 22/22/22
f 12/12/12 23/23/23 22/22/22
f 24/24/24 10/10/10 12/12/12
f 24/24/24 12/12/12 14/14/14
f 24/24/24 14/14/14 21/21/21
f 24/24/24 25/25/25 10/10/10
f 24/24/24 26/26/26 25/25/25
f 24/24/24 21/21/21 27/27/27
f 24/24/24 27/27/27 28/28/28
f 24/24/24 28/28/28 29/29/29
f 29/29/29 28/28/28 30/30/30
f 28/28/28 31/31/31 30/30/30
f 24/24/24 29/29/29 32/32/32
f 32/32/32 29/29/29 33/33/33
f 24/24/24 32/32/32 34/34/34
f 29/29/29 17/17/17 33/33/33
f 17/17/17 5/5/5 33/33/33
f 24/24/24 34/34/34 35/35/35
f 33/33/33 5/5/5 36/36/36
f 37/37/37 33/33/33 36/36/36
f 38/38/38 37/37/37 36/36/36
f 38/38/38 36/36/36 39/39/39
f 36/36/36 5/5/5 39/39/39
f 40/40/40 38/38/38 39/39/39
f 39/39/39 5/5/5 41/41/41
f 41/41/41 5/5/5 42/42/42
f 43/43/43 42/42/42 5/5/5
f 24/24/24 43/43/43 5/5/5
f 24/24/24 44/44/44 43/43/43
f 24/24/24 35/35/35 44/44/44
f 43/43/43 44/44/44 45/45/45
f 44/44/44 46/46/46 45/45/45
f 44/44/44 35/35/35 46/46/46
f 35/35/35 47/47/47 46/46/46
