g meshSPWaterPPCollision.028
v 7.0235834 10.951263 0.5490327
v 2.334704 10.325286 -0.5490414
v 7.0235834 10.951263 -0.5490414
v 2.334704 10.325286 0.5490327
v 0.052796777 -0.16882688 0.54903626
v -2.818941 9.0646715 -0.54904133
v -2.818941 9.0646715 0.54903275
v -7.6334934 8.298591 -0.5490413
v -7.6334934 8.298591 0.5490328
v -10.992023 5.3695545 0.5490329
v 9.420349 10.6855955 0.5490296
v 7.0235834 10.951263 -0.5490414
v -13.102382 0.7265572 0.5490331
v 13.716198 6.860406 0.54903287
v -13.297408 -4.9237304 0.5490241
v -11.878989 -9.2060585 0.5490274
v -11.878989 -9.2060585 -0.5490467
v -13.297408 -4.9237304 -0.54905
v -13.102382 0.7265572 -0.549041
v -13.102382 0.7265572 -0.549041
v -10.992023 5.3695545 -0.54904115
v 0.052796777 -0.16882694 -0.5490378
v -13.297408 -4.9237304 -0.54905
v -11.878989 -9.2060585 -0.5490467
v -6.235638 -12.268594 0.5490306
v 9.420349 10.6855955 -0.5490445
v 2.334704 10.325286 -0.5490414
v -2.818941 9.0646715 -0.54904133
v -7.6334934 8.298591 -0.5490413
v 13.716198 6.860406 -0.5490412
v -7.6334934 8.298591 0.5490328
v -10.992023 5.3695545 0.5490329
v 12.7702465 1.1289729 -0.549041
v 12.7702465 1.1289729 0.5490331
v 13.716198 6.860406 -0.5490412
v 12.7702465 1.1289729 -0.549041
v 10.501845 -4.031881 0.54902714
v 10.501845 -4.031881 -0.54904693
v 7.4509683 -8.185234 0.5490273
v 3.391793 -11.678534 0.5490306
v 7.4509683 -8.185234 -0.54904675
v 7.4509683 -8.185234 0.5490273
v 10.501845 -4.031881 0.54902714
v 3.391793 -11.678534 -0.5490435
v -0.70344853 -12.948012 -0.5490435
v -0.70344853 -12.948012 0.5490306
v 3.391793 -11.678534 -0.5490435
v -0.70344853 -12.948012 -0.5490435
v -6.235638 -12.268594 -0.5490435
v -11.878989 -9.2060585 0.5490274
v -6.235638 -12.268594 0.5490306
vt 0.6571435 0.6968627
vt 0.57418716 0.7028724
vt 0.6571435 0.6968627
vt 0.57418716 0.7028724
vt 0.4973388 0.53039336
vt 0.48095858 0.69962096
vt 0.48095858 0.69962096
vt 0.39533752 0.7036688
vt 0.39533752 0.7036688
vt 0.32703748 0.6652708
vt 0.6974511 0.68370914
vt 0.6571435 0.6968627
vt 0.2740886 0.5928999
vt 0.75770676 0.6024833
vt 0.25050429 0.49633285
vt 0.25959098 0.41753858
vt 0.25959098 0.41753858
vt 0.25050429 0.49633285
vt 0.2740886 0.5928999
vt 0.2740886 0.5928999
vt 0.32703748 0.6652708
vt 0.4973388 0.53039336
vt 0.25050429 0.49633285
vt 0.25959098 0.41753858
vt 0.34577334 0.34461725
vt 0.6974511 0.68370914
vt 0.57418716 0.7028724
vt 0.48095858 0.69962096
vt 0.39533752 0.7036688
vt 0.75770676 0.6024833
vt 0.39533752 0.7036688
vt 0.32703748 0.6652708
vt 0.7209053 0.5072075
vt 0.7209053 0.5072075
vt 0.75770676 0.6024833
vt 0.7209053 0.5072075
vt 0.6633818 0.42648825
vt 0.6633818 0.42648825
vt 0.59599525 0.36591336
vt 0.5136143 0.32031003
vt 0.59599525 0.36591336
vt 0.59599525 0.36591336
vt 0.6633818 0.42648825
vt 0.5136143 0.32031003
vt 0.4385736 0.31311733
vt 0.4385736 0.31311733
vt 0.5136143 0.32031003
vt 0.4385736 0.31311733
vt 0.34577334 0.34461725
vt 0.25959098 0.41753858
vt 0.34577334 0.34461725
vn -0.008175101 0.7324181 0.6808061
vn -0.13313855 0.70633227 -0.69524735
vn -0.008176188 0.7324185 -0.68080556
vn -0.1331386 0.7063325 0.6952472
vn -0 0 1
vn -0.13780747 0.68387985 -0.7164617
vn -0.13780752 0.6838802 0.7164615
vn -0.32198927 0.6884168 -0.6499271
vn -0.32198933 0.688417 0.64992684
vn -0.60085607 0.44746223 0.66238177
vn 0.31096944 0.69831425 0.6447134
vn -0.008176188 0.7324185 -0.68080556
vn -0.72640735 0.17050946 0.66577697
vn 0.7449334 0.26339215 0.6129427
vn -0.735261 -0.10562133 0.66950375
vn -0.5938013 -0.49683288 0.63289577
vn -0.5938007 -0.49683312 -0.63289607
vn -0.7352601 -0.105620824 -0.66950476
vn -0.72640735 0.17051047 -0.6657766
vn -0.72640735 0.17051047 -0.6657766
vn -0.60085595 0.44746217 -0.66238195
vn -0 0 -1
vn -0.7352601 -0.105620824 -0.66950476
vn -0.5938007 -0.49683312 -0.63289607
vn -0.22695056 -0.70921975 0.6674585
vn 0.31096902 0.6983137 -0.644714
vn -0.13313855 0.70633227 -0.69524735
vn -0.13780747 0.68387985 -0.7164617
vn -0.32198927 0.6884168 -0.6499271
vn 0.74493355 0.2633919 -0.6129427
vn -0.32198933 0.688417 0.64992684
vn -0.60085607 0.44746223 0.66238177
vn 0.7028059 -0.20884345 -0.68003553
vn 0.70280576 -0.2088439 0.68003553
vn 0.74493355 0.2633919 -0.6129427
vn 0.7028059 -0.20884345 -0.68003553
vn 0.63225436 -0.36522996 0.6832726
vn 0.632254 -0.36522907 -0.68327355
vn 0.5363276 -0.49650854 0.6825188
vn 0.36214176 -0.65415627 0.6640278
vn 0.5363269 -0.49650842 -0.68251956
vn 0.5363276 -0.49650854 0.6825188
vn 0.63225436 -0.36522996 0.6832726
vn 0.36214146 -0.65415627 -0.664028
vn 0.06670338 -0.7458305 -0.6627877
vn 0.06670338 -0.7458308 0.6627874
vn 0.36214146 -0.65415627 -0.664028
vn 0.06670338 -0.7458305 -0.6627877
vn -0.22695021 -0.70921975 -0.66745853
vn -0.5938013 -0.49683288 0.63289577
vn -0.22695056 -0.70921975 0.6674585
g meshSPWaterPPCollision.028_0
f 3/3/3 2/2/2 1/1/1
f 2/2/2 4/4/4 1/1/1
f 4/4/4 5/5/5 1/1/1
f 2/2/2 6/6/6 4/4/4
f 6/6/6 7/7/7 4/4/4
f 7/7/7 5/5/5 4/4/4
f 6/6/6 8/8/8 7/7/7
f 8/8/8 9/9/9 7/7/7
f 9/9/9 5/5/5 7/7/7
f 10/10/10 5/5/5 9/9/9
f 1/1/1 5/5/5 11/11/11
f 12/12/12 1/1/1 11/11/11
f 13/13/13 5/5/5 10/10/10
f 11/11/11 5/5/5 14/14/14
f 15/15/15 5/5/5 13/13/13
f 16/16/16 5/5/5 15/15/15
f 17/17/17 16/16/16 15/15/15
f 18/18/18 17/17/17 15/15/15
f 18/18/18 15/15/15 13/13/13
f 19/19/19 18/18/18 13/13/13
f 20/20/20 13/13/13 10/10/10
f 21/21/21 20/20/20 10/10/10
f 22/22/22 20/20/20 21/21/21
f 22/22/22 23/23/23 20/20/20
f 22/22/22 24/24/24 23/23/23
f 25/25/25 5/5/5 16/16/16
f 26/26/26 11/11/11 14/14/14
f 26/26/26 12/12/12 11/11/11
f 22/22/22 12/12/12 26/26/26
f 22/22/22 27/27/27 12/12/12
f 22/22/22 28/28/28 27/27/27
f 22/22/22 29/29/29 28/28/28
f 22/22/22 21/21/21 29/29/29
f 22/22/22 26/26/26 30/30/30
f 30/30/30 26/26/26 14/14/14
f 29/29/29 21/21/21 31/31/31
f 21/21/21 32/32/32 31/31/31
f 22/22/22 30/30/30 33/33/33
f 14/14/14 5/5/5 34/34/34
f 35/35/35 14/14/14 34/34/34
f 36/36/36 35/35/35 34/34/34
f 33/33/33 34/34/34 37/37/37
f 34/34/34 5/5/5 37/37/37
f 38/38/38 33/33/33 37/37/37
f 22/22/22 33/33/33 38/38/38
f 37/37/37 5/5/5 39/39/39
f 39/39/39 5/5/5 40/40/40
f 41/41/41 39/39/39 40/40/40
f 22/22/22 38/38/38 41/41/41
f 41/41/41 38/38/38 42/42/42
f 38/38/38 43/43/43 42/42/42
f 44/44/44 41/41/41 40/40/40
f 22/22/22 41/41/41 44/44/44
f 22/22/22 44/44/44 45/45/45
f 40/40/40 5/5/5 46/46/46
f 47/47/47 40/40/40 46/46/46
f 48/48/48 47/47/47 46/46/46
f 46/46/46 5/5/5 25/25/25
f 45/45/45 46/46/46 25/25/25
f 49/49/49 45/45/45 25/25/25
f 22/22/22 45/45/45 49/49/49
f 22/22/22 49/49/49 24/24/24
f 24/24/24 49/49/49 50/50/50
f 49/49/49 51/51/51 50/50/50
