g meshSPDistantMountainClouds
v -7.9563855E-05 0.0027504968 0.020719403
v 0.013613871 0.0036911806 0.025465159
v 0.0049204323 0.002750497 0.020719409
v 0.009240981 0.0036911808 0.02546516
v -0.00507956 0.0027504961 0.0207194
v 0.019752244 0.0045374585 0.030768923
v 0.004868092 0.0036911815 0.025465164
v -0.015079553 0.0027504952 0.02071939
v -0.0038776873 0.0036911822 0.025465168
v 0.015179853 0.004537459 0.030768923
v 0.023757536 0.0052976995 0.036489416
v 0.010607464 0.004537459 0.030768923
v 0.0014626848 0.004537459 0.030768923
v 0.01923538 0.0052976995 0.03648941
v 0.025824351 0.005905444 0.042786855
v 0.014713223 0.0052976995 0.036489405
v 0.0056689093 0.0052976995 0.036489394
v 0.021141615 0.005905444 0.042786855
v 0.02715889 0.0062492075 0.049715523
v 0.016458876 0.005905444 0.04278685
v 0.0070933998 0.005905444 0.042786844
v 0.022253947 0.0062492075 0.04971552
v 0.027784383 0.0062564746 0.056921944
v 0.017349005 0.0062492075 0.04971552
v 0.007539118 0.0062492075 0.04971552
v 0.022784386 0.006256474 0.056921944
v 0.027539112 0.00578538 0.06359711
v 0.017784387 0.006256474 0.056921944
v 0.0077843913 0.0062564737 0.056921944
v 0.022539115 0.005785379 0.063597105
v 0.027093394 0.0051280945 0.06972693
v 0.017539116 0.005785379 0.063597105
v 0.0075391196 0.0057853786 0.0635971
v 0.022093395 0.005128094 0.06972693
v 0.025668904 0.0043620495 0.07542162
v 0.017093396 0.005128094 0.06972693
v 0.0070933998 0.005128093 0.06972693
v 0.020668907 0.0043620495 0.07542162
v 0.021462679 0.0034418467 0.08029905
v 0.015668906 0.00436205 0.07542162
v 0.0056689107 0.0043620504 0.07542162
v 0.016462682 0.003441847 0.08029905
v 0.0161223 0.002310846 0.08336784
v 0.011462684 0.0034418474 0.08029905
v 0.0014626873 0.0034418483 0.08029905
v 0.011122303 0.002310846 0.08336784
v 0.0049204347 0.0010761627 0.08449252
v -7.9562364E-05 0.0010761628 0.08449251
v 0.0061223046 0.002310846 0.08336784
v -0.003877691 0.002310846 0.08336784
v -0.0050795595 0.0010761629 0.08449251
v -0.015079554 0.001076163 0.08449251
v -0.0004558734 -0.0076856427 0.013301191
v -0.0107829785 -0.00645096 0.012176524
v 0.009217012 -0.0064509595 0.012176516
v 0.019544117 -0.0076856427 0.013301191
v 0.0041544265 -0.0088166455 0.016369984
v 0.024154417 -0.008816644 0.016369984
v 0.007910023 -0.009736848 0.021247413
v 0.027910016 -0.009736846 0.021247415
v 0.009731937 -0.010502892 0.026942108
v 0.029731931 -0.010502892 0.026942102
v 0.010581017 -0.011160177 0.03307193
v 0.030581009 -0.011160177 0.033071924
v 0.010787918 -0.011631272 0.039747093
v 0.030787911 -0.011631272 0.039747085
v 0.010581014 -0.011624006 0.046953514
v 0.030581007 -0.011624006 0.04695351
v 0.009731934 -0.011280242 0.053882178
v 0.029090693 -0.011280242 0.053882178
v 0.007910019 -0.010672498 0.060179636
v 0.02710886 -0.010672498 0.060179617
v 0.0041544195 -0.009912258 0.06590011
v 0.02340885 -0.009912256 0.06590011
v -0.0004558758 -0.009065981 0.071203865
v 0.01718947 -0.009065978 0.07120387
v -0.010782983 -0.008125294 0.07594964
v 0.00676216 -0.008125295 0.07594962
vt 0.75 0.125
vt 1 0.1875
vt 1 0.125
vt 0.75 0.1875
vt 0.5 0.125
vt 1 0.25
vt 0.5 0.1875
vt 0 0.125
vt 0 0.1875
vt 0.75 0.25
vt 1 0.3125
vt 0.5 0.25
vt 0 0.25
vt 0.75 0.3125
vt 1 0.375
vt 0.5 0.3125
vt 0 0.3125
vt 0.75 0.375
vt 1 0.4375
vt 0.5 0.375
vt 0 0.375
vt 0.75 0.4375
vt 1 0.5
vt 0.5 0.4375
vt 0 0.4375
vt 0.75 0.5
vt 1 0.5625
vt 0.5 0.5
vt 0 0.5
vt 0.75 0.5625
vt 1 0.625
vt 0.5 0.5625
vt 0 0.5625
vt 0.75 0.625
vt 1 0.6875
vt 0.5 0.625
vt 0 0.625
vt 0.75 0.6875
vt 1 0.75
vt 0.5 0.6875
vt 0 0.6875
vt 0.75 0.75
vt 1 0.8125
vt 0.5 0.75
vt 0 0.75
vt 0.75 0.8125
vt 1 0.875
vt 0.75 0.875
vt 0.5 0.8125
vt 0 0.8125
vt 0.5 0.875
vt 0 0.875
vt 0 0.8125
vt 0 0.875
vt 1 0.875
vt 1 0.8125
vt 0 0.75
vt 1 0.75
vt 0 0.6875
vt 1 0.6875
vt 0 0.625
vt 1 0.625
vt 0 0.5625
vt 1 0.5625
vt 0 0.5
vt 1 0.5
vt 0 0.4375
vt 1 0.4375
vt 0 0.375
vt 1 0.375
vt 0 0.3125
vt 1 0.3125
vt 0 0.25
vt 1 0.25
vt 0 0.1875
vt 1 0.1875
vt 0 0.125
vt 1 0.125
vn -0 -0.9809157 0.19443311
vn -0 -0.98646486 0.16397321
vn -0 -0.9809157 0.19443321
vn -0 -0.9843844 0.17603178
vn -0 -0.98091584 0.19443308
vn -1.0315345E-07 -0.9904101 0.13815856
vn -0 -0.98438454 0.17603171
vn -0 -0.98091584 0.19443306
vn -0 -0.98251075 0.18620554
vn -0 -0.9894805 0.14466648
vn -0 -0.9941354 0.10814245
vn -0 -0.9894805 0.14466655
vn -0 -0.98865545 0.15020156
vn -0 -0.9934902 0.11391829
vn -0 -0.99762183 0.06892537
vn -0 -0.9934901 0.11391834
vn -0 -0.99299026 0.11819609
vn -0 -0.9973447 0.07282678
vn -0 -0.9997336 0.023077704
vn -0 -0.9973447 0.07282677
vn -0 -0.9971955 0.0748405
vn -0 -0.99968016 0.025288513
vn 1.0716802E-07 -0.9993765 -0.035308667
vn -0 -0.99968016 0.025288438
vn -0 -0.99966085 0.026040047
vn -0 -0.99939716 -0.034717567
vn 1.7003491E-07 -0.99613035 -0.087887846
vn -0 -0.99939716 -0.034717612
vn -0 -0.9993962 -0.0347467
vn -0 -0.9960742 -0.08852236
vn 1.2525861E-07 -0.9929468 -0.11856139
vn -0 -0.9960742 -0.08852236
vn -0 -0.99601895 -0.08914259
vn -0 -0.9927765 -0.11997813
vn -0 -0.9886531 -0.15021645
vn -0 -0.99277663 -0.11997808
vn -0 -0.99262226 -0.121248424
vn -0 -0.9872121 -0.15941192
vn -0 -0.9761519 -0.21708864
vn -0 -0.9872121 -0.15941189
vn -0 -0.9860837 -0.16624954
vn -0 -0.96382725 -0.26652756
vn -0 -0.9293531 -0.36919197
vn -0 -0.96382725 -0.2665276
vn -0 -0.95191085 -0.30637506
vn 3.467359E-07 -0.8295218 -0.55847436
vn 6.736872E-07 -0.67340803 -0.7392709
vn 6.736913E-07 -0.6734033 -0.73927534
vn 3.294311E-07 -0.8295199 -0.5584771
vn -0 -0.72525793 -0.68847734
vn -0 -0.6734031 -0.7392756
vn -0 -0.6734031 -0.7392755
vn -0 0.7305992 0.68280655
vn 1.2806014E-07 0.6734046 0.73927414
vn 1.2806014E-07 0.6734046 0.73927414
vn -0 0.9283677 0.371663
vn -0 0.9527715 0.30368805
vn -0 0.97531396 0.22082262
vn -0 0.98603314 0.16654949
vn -0 0.9886059 0.15052678
vn -0 0.9925586 0.12176774
vn -0 0.9930155 0.11798319
vn -0 0.9959906 0.08945803
vn -0 0.99616265 0.087521374
vn -0 0.9993963 0.034742262
vn -0 0.9993981 0.034692083
vn -0 0.99965096 -0.02641806
vn -0 0.99972814 -0.02331629
vn -0 0.9971336 -0.07566095
vn -0 0.99762374 -0.06889694
vn -0 0.99297005 -0.11836633
vn -0 0.994097 -0.108494386
vn -0 0.9887256 -0.14973883
vn -0 0.99040484 -0.13819681
vn -0 0.982635 -0.1855489
vn -0 0.986597 -0.16317575
vn -1.0631924E-07 0.9809157 -0.19443324
vn -1.0631924E-07 0.9809157 -0.19443324
g meshSPDistantMountainClouds_0
f 3/3/3 2/2/2 1/1/1
f 2/2/2 4/4/4 1/1/1
f 1/1/1 4/4/4 5/5/5
f 2/2/2 6/6/6 4/4/4
f 4/4/4 7/7/7 5/5/5
f 5/5/5 7/7/7 8/8/8
f 7/7/7 9/9/9 8/8/8
f 6/6/6 10/10/10 4/4/4
f 4/4/4 10/10/10 7/7/7
f 6/6/6 11/11/11 10/10/10
f 7/7/7 12/12/12 9/9/9
f 10/10/10 12/12/12 7/7/7
f 12/12/12 13/13/13 9/9/9
f 11/11/11 14/14/14 10/10/10
f 10/10/10 14/14/14 12/12/12
f 11/11/11 15/15/15 14/14/14
f 12/12/12 16/16/16 13/13/13
f 14/14/14 16/16/16 12/12/12
f 16/16/16 17/17/17 13/13/13
f 15/15/15 18/18/18 14/14/14
f 14/14/14 18/18/18 16/16/16
f 15/15/15 19/19/19 18/18/18
f 16/16/16 20/20/20 17/17/17
f 18/18/18 20/20/20 16/16/16
f 20/20/20 21/21/21 17/17/17
f 19/19/19 22/22/22 18/18/18
f 18/18/18 22/22/22 20/20/20
f 19/19/19 23/23/23 22/22/22
f 20/20/20 24/24/24 21/21/21
f 22/22/22 24/24/24 20/20/20
f 24/24/24 25/25/25 21/21/21
f 23/23/23 26/26/26 22/22/22
f 22/22/22 26/26/26 24/24/24
f 23/23/23 27/27/27 26/26/26
f 24/24/24 28/28/28 25/25/25
f 26/26/26 28/28/28 24/24/24
f 28/28/28 29/29/29 25/25/25
f 27/27/27 30/30/30 26/26/26
f 26/26/26 30/30/30 28/28/28
f 27/27/27 31/31/31 30/30/30
f 28/28/28 32/32/32 29/29/29
f 30/30/30 32/32/32 28/28/28
f 32/32/32 33/33/33 29/29/29
f 31/31/31 34/34/34 30/30/30
f 30/30/30 34/34/34 32/32/32
f 31/31/31 35/35/35 34/34/34
f 32/32/32 36/36/36 33/33/33
f 34/34/34 36/36/36 32/32/32
f 36/36/36 37/37/37 33/33/33
f 35/35/35 38/38/38 34/34/34
f 34/34/34 38/38/38 36/36/36
f 35/35/35 39/39/39 38/38/38
f 36/36/36 40/40/40 37/37/37
f 38/38/38 40/40/40 36/36/36
f 40/40/40 41/41/41 37/37/37
f 39/39/39 42/42/42 38/38/38
f 38/38/38 42/42/42 40/40/40
f 39/39/39 43/43/43 42/42/42
f 40/40/40 44/44/44 41/41/41
f 42/42/42 44/44/44 40/40/40
f 44/44/44 45/45/45 41/41/41
f 43/43/43 46/46/46 42/42/42
f 42/42/42 46/46/46 44/44/44
f 43/43/43 47/47/47 46/46/46
f 47/47/47 48/48/48 46/46/46
f 44/44/44 49/49/49 45/45/45
f 46/46/46 49/49/49 44/44/44
f 46/46/46 48/48/48 49/49/49
f 49/49/49 50/50/50 45/45/45
f 48/48/48 51/51/51 49/49/49
f 49/49/49 51/51/51 50/50/50
f 51/51/51 52/52/52 50/50/50
f 55/55/55 54/54/54 53/53/53
f 56/56/56 55/55/55 53/53/53
f 56/56/56 53/53/53 57/57/57
f 58/58/58 56/56/56 57/57/57
f 58/58/58 57/57/57 59/59/59
f 60/60/60 58/58/58 59/59/59
f 60/60/60 59/59/59 61/61/61
f 62/62/62 60/60/60 61/61/61
f 62/62/62 61/61/61 63/63/63
f 64/64/64 62/62/62 63/63/63
f 64/64/64 63/63/63 65/65/65
f 66/66/66 64/64/64 65/65/65
f 66/66/66 65/65/65 67/67/67
f 68/68/68 66/66/66 67/67/67
f 68/68/68 67/67/67 69/69/69
f 70/70/70 68/68/68 69/69/69
f 70/70/70 69/69/69 71/71/71
f 72/72/72 70/70/70 71/71/71
f 72/72/72 71/71/71 73/73/73
f 74/74/74 72/72/72 73/73/73
f 74/74/74 73/73/73 75/75/75
f 76/76/76 74/74/74 75/75/75
f 76/76/76 75/75/75 77/77/77
f 78/78/78 76/76/76 77/77/77
