g meshSPWaterPPCollision.027
v 22.562157 -10.077273 -0.54904515
v 22.821428 -7.6759253 -0.549039
v 0.73015076 -18.147507 -0.54903704
v 22.497677 -0.20206676 -0.549044
v 19.232227 6.544219 -0.5490381
v 14.165969 11.560391 -0.54903364
v 7.4168744 11.305941 -0.54903364
v 0.03525986 12.532738 -0.54903525
v -7.607498 14.302746 -0.54903686
v -13.908534 10.996776 -0.54903364
v -15.302309 5.377281 -0.5490396
v -16.226643 -1.3362765 -0.54904395
v -17.97871 -6.9337378 -0.5490406
v -19.335093 -12.777955 -0.549045
v -19.10307 -15.4693 -0.5490418
v 0.73015076 -18.147507 0.54903704
v 22.562157 -10.077273 -0.54904515
v 0.73015076 -18.147507 -0.54903704
v 22.562157 -10.077273 0.54902893
v 22.821428 -7.6759253 -0.549039
v 22.821428 -7.6759253 0.5490351
v 22.497677 -0.20206676 -0.549044
v 22.497677 -0.2020667 0.54903007
v 19.232227 6.544219 -0.5490381
v 19.232227 6.544219 0.54903597
v 14.165969 11.560391 -0.54903364
v 14.165969 11.560391 0.54904044
v 7.4168744 11.305941 -0.54903364
v -19.10307 -15.4693 0.5490323
v 7.4168744 11.305941 0.54904044
v -19.335093 -12.777955 0.54902905
v -19.10307 -15.4693 -0.5490418
v 0.03525986 12.532738 -0.54903525
v -19.335093 -12.777955 -0.549045
v 0.03525986 12.532738 0.5490388
v -7.607498 14.302746 -0.54903686
v -17.97871 -6.9337378 0.54903346
v -17.97871 -6.9337378 -0.5490406
v -7.607498 14.302746 0.5490372
v -13.908534 10.996776 -0.54903364
v -16.226643 -1.3362765 0.5490301
v -16.226643 -1.3362765 -0.54904395
v -13.908534 10.996776 0.54904044
v -15.302309 5.377281 -0.5490396
v -15.302309 5.377281 0.5490345
vt 0.8752929 0.47653687
vt 0.8689724 0.51853096
vt 0.5400897 0.24175519
vt 0.8300744 0.6441798
vt 0.74440217 0.7443126
vt 0.6358363 0.8069781
vt 0.5222029 0.77249646
vt 0.3911945 0.7603777
vt 0.25331962 0.75632983
vt 0.16093886 0.67195785
vt 0.16234499 0.57016927
vt 0.17662269 0.4518733
vt 0.1718377 0.34885857
vt 0.17488378 0.24341552
vt 0.19085404 0.19868499
vt 0.5400897 0.24175519
vt 0.8752929 0.47653687
vt 0.5400897 0.24175519
vt 0.8752929 0.47653687
vt 0.8689724 0.51853096
vt 0.8689724 0.51853096
vt 0.8300744 0.6441798
vt 0.8300744 0.6441798
vt 0.74440217 0.7443126
vt 0.74440217 0.7443126
vt 0.6358363 0.8069781
vt 0.6358363 0.8069781
vt 0.5222029 0.77249646
vt 0.19085404 0.19868499
vt 0.5222029 0.77249646
vt 0.17488378 0.24341552
vt 0.19085404 0.19868499
vt 0.3911945 0.7603777
vt 0.17488378 0.24341552
vt 0.3911945 0.7603777
vt 0.25331962 0.75632983
vt 0.1718377 0.34885857
vt 0.1718377 0.34885857
vt 0.25331962 0.75632983
vt 0.16093886 0.67195785
vt 0.17662269 0.4518733
vt 0.17662269 0.4518733
vt 0.16093886 0.67195785
vt 0.16234499 0.57016927
vt 0.16234499 0.57016927
vn 0.62761426 -0.4892473 -0.60558844
vn 0.7229269 -0.023235861 -0.6905337
vn 0.08274914 -0.7497472 -0.6565301
vn 0.72479624 0.18278986 -0.6642728
vn 0.6032211 0.4311744 -0.6709792
vn 0.28253224 0.7254762 -0.62758255
vn 0.04333393 0.68146574 -0.730566
vn 0.13639493 0.6864695 -0.7142522
vn -0.09830083 0.76495904 -0.6365333
vn -0.61382645 0.48169073 -0.6254529
vn -0.70574844 0.13570823 -0.69534343
vn -0.6707821 0.15006064 -0.72631484
vn -0.69027966 0.18784963 -0.698732
vn -0.73728275 0.05245521 -0.6735447
vn -0.5846132 -0.5570783 -0.58982295
vn 0.08274904 -0.74974716 0.65653014
vn 0.62761426 -0.4892473 -0.60558844
vn 0.08274914 -0.7497472 -0.6565301
vn 0.6276152 -0.48924908 0.6055862
vn 0.7229269 -0.023235861 -0.6905337
vn 0.72292644 -0.023236435 0.6905342
vn 0.72479624 0.18278986 -0.6642728
vn 0.72479683 0.18278973 0.6642722
vn 0.6032211 0.4311744 -0.6709792
vn 0.6032216 0.4311738 0.6709791
vn 0.28253224 0.7254762 -0.62758255
vn 0.2825325 0.7254759 0.6275827
vn 0.04333393 0.68146574 -0.730566
vn -0.5846132 -0.5570776 0.58982366
vn 0.04333377 0.6814656 0.7305661
vn -0.7372834 0.052455418 0.67354405
vn -0.5846132 -0.5570783 -0.58982295
vn 0.13639493 0.6864695 -0.7142522
vn -0.73728275 0.05245521 -0.6735447
vn 0.13639459 0.6864695 0.71425223
vn -0.09830083 0.76495904 -0.6365333
vn -0.6902795 0.1878496 0.69873214
vn -0.69027966 0.18784963 -0.698732
vn -0.09830068 0.76495916 0.63653314
vn -0.61382645 0.48169073 -0.6254529
vn -0.6707828 0.15006037 0.7263141
vn -0.6707821 0.15006064 -0.72631484
vn -0.6138262 0.48169047 0.6254532
vn -0.70574844 0.13570823 -0.69534343
vn -0.70574933 0.13570718 0.6953426
g meshSPWaterPPCollision.027_0
f 3/3/3 2/2/2 1/1/1
f 3/3/3 4/4/4 2/2/2
f 3/3/3 5/5/5 4/4/4
f 3/3/3 6/6/6 5/5/5
f 3/3/3 7/7/7 6/6/6
f 3/3/3 8/8/8 7/7/7
f 3/3/3 9/9/9 8/8/8
f 3/3/3 10/10/10 9/9/9
f 3/3/3 11/11/11 10/10/10
f 3/3/3 12/12/12 11/11/11
f 3/3/3 13/13/13 12/12/12
f 3/3/3 14/14/14 13/13/13
f 3/3/3 15/15/15 14/14/14
f 18/18/18 17/17/17 16/16/16
f 17/17/17 19/19/19 16/16/16
f 17/17/17 20/20/20 19/19/19
f 20/20/20 21/21/21 19/19/19
f 21/21/21 16/16/16 19/19/19
f 20/20/20 22/22/22 21/21/21
f 22/22/22 23/23/23 21/21/21
f 23/23/23 16/16/16 21/21/21
f 22/22/22 24/24/24 23/23/23
f 24/24/24 25/25/25 23/23/23
f 25/25/25 16/16/16 23/23/23
f 24/24/24 26/26/26 25/25/25
f 26/26/26 27/27/27 25/25/25
f 27/27/27 16/16/16 25/25/25
f 26/26/26 28/28/28 27/27/27
f 18/18/18 16/16/16 29/29/29
f 30/30/30 16/16/16 27/27/27
f 28/28/28 30/30/30 27/27/27
f 29/29/29 16/16/16 31/31/31
f 32/32/32 18/18/18 29/29/29
f 32/32/32 29/29/29 31/31/31
f 28/28/28 33/33/33 30/30/30
f 34/34/34 32/32/32 31/31/31
f 33/33/33 35/35/35 30/30/30
f 35/35/35 16/16/16 30/30/30
f 33/33/33 36/36/36 35/35/35
f 34/34/34 31/31/31 37/37/37
f 31/31/31 16/16/16 37/37/37
f 38/38/38 34/34/34 37/37/37
f 36/36/36 39/39/39 35/35/35
f 39/39/39 16/16/16 35/35/35
f 36/36/36 40/40/40 39/39/39
f 38/38/38 37/37/37 41/41/41
f 37/37/37 16/16/16 41/41/41
f 42/42/42 38/38/38 41/41/41
f 40/40/40 43/43/43 39/39/39
f 43/43/43 16/16/16 39/39/39
f 40/40/40 44/44/44 43/43/43
f 41/41/41 16/16/16 45/45/45
f 42/42/42 41/41/41 45/45/45
f 45/45/45 16/16/16 43/43/43
f 44/44/44 45/45/45 43/43/43
f 44/44/44 42/42/42 45/45/45
