g Mesh_HereticTabard
v -0.13104929 1.8523169 0.4479783
v -0.17448369 1.8888578 0.4030683
v -0.001122037 1.8523169 0.42169014
v 0.0004031557 1.8523169 0.4479783
v 0.1662902 1.8621166 0.40626994
v -0.13145244 1.8523169 0.48124722
v 0.13185559 1.8523169 0.4479783
v -0 1.8523169 0.48124722
v -0.13145244 1.8523169 0.5612878
v 0.13145244 1.8523169 0.48124722
v -0 1.8523169 0.5612878
v -0.13145244 1.8523169 0.70135874
v 0.13145244 1.8523169 0.5612878
v -0 1.8523169 0.70135874
v -0.13145244 1.8523169 0.8250578
v 0.13145244 1.8523169 0.70135874
v -0 1.8523169 0.8250578
v -0.13145244 1.8523169 0.9069175
v 0.13145244 1.8523169 0.8250578
v -0 1.8523169 0.9069175
v -0.13145244 1.852317 1.1252099
v 0.13145244 1.8523169 0.9069175
v -0 1.852317 1.1252099
v -0.13145244 1.852317 1.354417
v 0.13145244 1.852317 1.1252099
v -0 1.852317 1.354417
v 0.13145244 1.852317 1.354417
v 0.13145241 2.0552142 -1.3902532
v 0.22174004 2.0552142 -1.3902532
v 0.22174004 2.0552142 -1.1473646
v 0.13145241 2.0552142 -1.1473646
v 0.22174004 2.0552142 -0.9181576
v -4.656613E-10 2.0552142 -1.1473646
v -4.656613E-10 2.0552142 -1.3902532
v 0.13145241 2.0552142 -0.9181576
v 0.20293012 2.0552144 -0.6998651
v -0.13145241 2.0552142 -1.1473646
v -0.13145241 2.0552142 -1.3902532
v -0.21995911 2.0552142 -1.3902532
v -0.21995911 2.0552142 -1.1473646
v -4.656613E-10 2.0552142 -0.9181576
v -0.13145241 2.0552142 -0.9181576
v -0.2055519 2.0552142 -0.9181576
v 0.13145241 2.0552144 -0.6998651
v 0.19020852 2.0552144 -0.6180054
v -0.13145241 2.0552144 -0.6998651
v -0.20072761 2.0552144 -0.6998651
v 0.065726206 2.0552144 -0.6998651
v 0.120726064 2.0552144 -0.6180054
v 0.18117586 2.0552144 -0.49430615
v -0.06572621 2.0552144 -0.6998651
v -0.12460594 2.0552144 -0.6180054
v -0.18750471 2.0552144 -0.6180054
v -4.656613E-10 2.0552144 -0.6998651
v 0.065726206 2.0552144 -0.6180054
v 0.1073081 2.0552144 -0.49430615
v 0.17191735 2.0552144 -0.35423547
v -0.06572621 2.0552144 -0.6180054
v -0.112673506 2.0552144 -0.49430627
v -0.18840918 2.0552144 -0.49430627
v -4.656613E-10 2.0552144 -0.6180054
v 0.10179732 2.0552144 -0.35423547
v 0.18025805 2.0403423 -0.2294987
v 0.0913253 2.0579145 -0.2561539
v -0.06572621 2.0552144 -0.49430627
v -0.102532886 2.0552144 -0.35423535
v -0.1713722 2.0552144 -0.35423535
v 0.065726206 2.0552144 -0.49430627
v -4.656613E-10 2.0552144 -0.49430627
v 0.056702126 2.0552144 -0.35423535
v -4.656613E-10 2.0552144 -0.35423535
v -0.005719037 2.0740113 -0.26748592
v -0.052838717 2.0552144 -0.35423535
v -0.1022944 2.0757468 -0.2539742
v -0.18469386 2.0756333 -0.22784857
vt 0.87790644 0.63458323
vt 0.8614592 0.6533241
vt 0.92230195 0.6452842
vt 0.92316103 0.6362536
vt 0.97979444 0.6530597
vt 0.8781904 0.6231248
vt 0.96841556 0.6379238
vt 0.9234449 0.62479514
vt 0.87920743 0.59556955
vt 0.96869946 0.6264654
vt 0.9244619 0.59723985
vt 0.8809873 0.547348
vt 0.9697165 0.5989101
vt 0.92624176 0.54901826
vt 0.88255894 0.50476265
vt 0.9714963 0.5506885
vt 0.92781365 0.506433
vt 0.8835992 0.47658116
vt 0.9730681 0.5081032
vt 0.9288537 0.47825155
vt 0.886373 0.40143058
vt 0.9741083 0.47992173
vt 0.9316275 0.40310088
vt 0.8892854 0.32252258
vt 0.976882 0.40477133
vt 0.93454 0.32419282
vt 0.97979444 0.32586324
vt 0.96305084 0.30020458
vt 0.9856924 0.30020443
vt 0.98569196 0.2392948
vt 0.9630502 0.23929486
vt 0.9856924 0.18181607
vt 0.9300856 0.23929513
vt 0.93008626 0.30020493
vt 0.9630502 0.18181536
vt 0.9809784 0.12707263
vt 0.89712095 0.23929565
vt 0.8971217 0.30020523
vt 0.8749268 0.3002056
vt 0.87492573 0.23929605
vt 0.9300848 0.18181522
vt 0.8971196 0.18181615
vt 0.87853736 0.18181713
vt 0.9630524 0.12706988
vt 0.97779286 0.106543235
vt 0.8971154 0.12707198
vt 0.87974274 0.12707493
vt 0.9465679 0.12706804
vt 0.9603654 0.106537655
vt 0.97554314 0.07551785
vt 0.91359925 0.12706935
vt 0.89882797 0.10654153
vt 0.88305414 0.10654691
vt 0.9300835 0.12706791
vt 0.9465688 0.106535494
vt 0.95700854 0.07550019
vt 0.9732758 0.040375836
vt 0.9135961 0.10653733
vt 0.9018072 0.07551345
vt 0.88281244 0.07552829
vt 0.93008286 0.106534965
vt 0.9556738 0.040307105
vt 0.97590995 0.008911118
vt 0.9531937 0.01566121
vt 0.9135856 0.07550505
vt 0.90430933 0.040368482
vt 0.8870454 0.04040025
vt 0.9465688 0.07549461
vt 0.9300821 0.07549599
vt 0.9443273 0.04026424
vt 0.93005085 0.040308222
vt 0.9285189 0.018038273
vt 0.91678023 0.04034347
vt 0.9043063 0.014705211
vt 0.8835988 0.008315876
vn 0.04983736 0.9679069 0.24631785
vn 0.08350148 0.9070105 0.41274622
vn 0.031342868 0.9593604 0.28043768
vn 0.013611593 0.9907164 0.13526122
vn -0.025758006 0.99113387 0.13034633
vn -0 1 0
vn -0.015228979 0.996903 0.07715186
vn -0 1 0
vn -0 1 0
vn -0 1 0
vn -0 1 0
vn -0 1 0
vn -0 1 0
vn -0 1 0
vn -0 1 0
vn -0 1 0
vn -0 1 0
vn -0 1 0
vn -0 1 0
vn -0 1 0
vn -0 1 0
vn -0 1 0
vn -0 1 0
vn -0 1 0
vn -0 1 0
vn -0 1 0
vn -0 1 0
vn -0 1 0
vn -0 1 0
vn -0 1 0
vn -0 1 0
vn -0 1 0
vn -0 1 0
vn -0 1 0
vn -0 1 0
vn -0 1 0
vn -0 1 0
vn -0 1 0
vn -0 1 0
vn -0 1 0
vn -0 1 0
vn -0 1 0
vn -0 1 0
vn -0 1 0
vn -0 1 0
vn -0 1 0
vn -0 1 0
vn -0 1 0
vn -0 1 0
vn -0 1 0
vn -0 1 0
vn -0 1 0
vn -0 1 0
vn -0 1 0
vn -0 1 0
vn -0 1 0
vn 0.05032646 0.99835 0.0276504
vn -0 1 0
vn -0 1 0
vn -0 1 0
vn -0 1 0
vn 0.026856326 0.99960464 0.008331402
vn 0.10046993 0.99340713 0.05520947
vn 0.091588795 0.99560475 -0.019563114
vn -0 1 0
vn -0.007965406 0.99540114 -0.09546296
vn -0.015839579 0.99584866 -0.08963569
vn -0 1 0
vn -0 1 0
vn 0.03439476 0.99836355 -0.0456869
vn 0.027711358 0.9960219 -0.08469071
vn 0.04941025 0.9837493 -0.1726156
vn -0.0023805164 0.9946591 -0.1031864
vn -0.020173362 0.98141414 -0.19083834
vn -0.031739384 0.9832494 -0.17948027
g Mesh_HereticTabard_0
f 3/3/3 2/2/2 1/1/1
f 4/4/4 3/3/3 1/1/1
f 5/5/5 3/3/3 4/4/4
f 4/4/4 1/1/1 6/6/6
f 7/7/7 5/5/5 4/4/4
f 8/8/8 4/4/4 6/6/6
f 7/7/7 4/4/4 8/8/8
f 6/6/6 9/9/9 8/8/8
f 10/10/10 7/7/7 8/8/8
f 9/9/9 11/11/11 8/8/8
f 8/8/8 11/11/11 10/10/10
f 9/9/9 12/12/12 11/11/11
f 11/11/11 13/13/13 10/10/10
f 12/12/12 14/14/14 11/11/11
f 11/11/11 14/14/14 13/13/13
f 12/12/12 15/15/15 14/14/14
f 14/14/14 16/16/16 13/13/13
f 15/15/15 17/17/17 14/14/14
f 14/14/14 17/17/17 16/16/16
f 15/15/15 18/18/18 17/17/17
f 17/17/17 19/19/19 16/16/16
f 18/18/18 20/20/20 17/17/17
f 17/17/17 20/20/20 19/19/19
f 18/18/18 21/21/21 20/20/20
f 20/20/20 22/22/22 19/19/19
f 21/21/21 23/23/23 20/20/20
f 20/20/20 23/23/23 22/22/22
f 21/21/21 24/24/24 23/23/23
f 23/23/23 25/25/25 22/22/22
f 24/24/24 26/26/26 23/23/23
f 23/23/23 26/26/26 25/25/25
f 26/26/26 27/27/27 25/25/25
f 30/30/30 29/29/29 28/28/28
f 31/31/31 30/30/30 28/28/28
f 32/32/32 30/30/30 31/31/31
f 31/31/31 28/28/28 33/33/33
f 28/28/28 34/34/34 33/33/33
f 35/35/35 32/32/32 31/31/31
f 31/31/31 33/33/33 35/35/35
f 36/36/36 32/32/32 35/35/35
f 33/33/33 34/34/34 37/37/37
f 34/34/34 38/38/38 37/37/37
f 38/38/38 39/39/39 37/37/37
f 39/39/39 40/40/40 37/37/37
f 33/33/33 37/37/37 41/41/41
f 33/33/33 41/41/41 35/35/35
f 37/37/37 40/40/40 42/42/42
f 37/37/37 42/42/42 41/41/41
f 40/40/40 43/43/43 42/42/42
f 44/44/44 36/36/36 35/35/35
f 45/45/45 36/36/36 44/44/44
f 42/42/42 43/43/43 46/46/46
f 43/43/43 47/47/47 46/46/46
f 35/35/35 48/48/48 44/44/44
f 41/41/41 48/48/48 35/35/35
f 49/49/49 45/45/45 44/44/44
f 44/44/44 48/48/48 49/49/49
f 50/50/50 45/45/45 49/49/49
f 42/42/42 51/51/51 41/41/41
f 46/46/46 51/51/51 42/42/42
f 46/46/46 47/47/47 52/52/52
f 47/47/47 53/53/53 52/52/52
f 41/41/41 54/54/54 48/48/48
f 41/41/41 51/51/51 54/54/54
f 48/48/48 55/55/55 49/49/49
f 48/48/48 54/54/54 55/55/55
f 56/56/56 50/50/50 49/49/49
f 49/49/49 55/55/55 56/56/56
f 57/57/57 50/50/50 56/56/56
f 46/46/46 52/52/52 58/58/58
f 51/51/51 46/46/46 58/58/58
f 52/52/52 53/53/53 59/59/59
f 58/58/58 52/52/52 59/59/59
f 53/53/53 60/60/60 59/59/59
f 54/54/54 51/51/51 61/61/61
f 51/51/51 58/58/58 61/61/61
f 54/54/54 61/61/61 55/55/55
f 62/62/62 57/57/57 56/56/56
f 63/63/63 57/57/57 62/62/62
f 64/64/64 63/63/63 62/62/62
f 58/58/58 65/65/65 61/61/61
f 65/65/65 58/58/58 59/59/59
f 59/59/59 60/60/60 66/66/66
f 60/60/60 67/67/67 66/66/66
f 55/55/55 68/68/68 56/56/56
f 56/56/56 68/68/68 62/62/62
f 61/61/61 69/69/69 55/55/55
f 69/69/69 68/68/68 55/55/55
f 65/65/65 69/69/69 61/61/61
f 68/68/68 70/70/70 62/62/62
f 62/62/62 70/70/70 64/64/64
f 68/68/68 69/69/69 70/70/70
f 70/70/70 71/71/71 64/64/64
f 69/69/69 71/71/71 70/70/70
f 69/69/69 65/65/65 71/71/71
f 71/71/71 72/72/72 64/64/64
f 65/65/65 59/59/59 73/73/73
f 65/65/65 73/73/73 71/71/71
f 71/71/71 73/73/73 72/72/72
f 59/59/59 66/66/66 73/73/73
f 73/73/73 74/74/74 72/72/72
f 73/73/73 66/66/66 74/74/74
f 66/66/66 67/67/67 74/74/74
f 67/67/67 75/75/75 74/74/74
