g meshSPWaterPPCollision.052
v 15.460421 23.610353 -0.5751473
v 6.384531 27.451328 -0.052861538
v 0.1683122 -0.26805422 -0.57515246
v 22.119877 16.7352 -0.5751501
v -2.993011 27.08364 -0.575149
v 26.692007 8.843561 -0.57515126
v -11.854143 24.774563 -0.57515043
v 27.475346 0.44407442 -0.57515246
v -21.019308 20.619116 -0.57515025
v 23.431227 -7.8971915 -0.57515365
v -24.605238 10.481541 -0.57515293
v 17.579287 -14.847596 -0.5751518
v -28.1002 1.9811236 -0.57514787
v 13.109876 -22.189436 -0.5751546
v -27.3565 -6.3343596 -0.57514906
v 8.309471 -28.350325 -0.57515585
v -21.92699 -12.877988 -0.575155
v 0.17396767 -28.13991 -0.57515585
v -15.529027 -17.584309 -0.57515013
v -7.5199594 -23.535326 -0.57515454
v 6.384531 27.451328 1.0452125
v -2.993011 27.08364 0.522925
v -2.993011 27.08364 -0.575149
v 6.384531 27.451328 -0.052861538
v -11.854143 24.774563 -0.57515043
v 15.460421 23.610353 0.52292675
v 15.460421 23.610353 -0.5751473
v 0.1683122 -0.26805416 0.52292156
v -11.854143 24.774563 0.5229236
v 22.119877 16.7352 0.52292395
v -21.019308 20.619116 -0.57515025
v 22.119877 16.7352 -0.5751501
v -21.019308 20.619116 0.52292377
v -24.605238 10.481541 -0.57515293
v 26.692007 8.843561 0.52292275
v 26.692007 8.843561 -0.57515126
v -24.605238 10.481541 0.5229211
v -28.1002 1.9811236 -0.57514787
v 27.475346 0.44407448 0.52292156
v 27.475346 0.44407442 -0.57515246
v -28.1002 1.9811236 0.52292615
v -27.3565 -6.3343596 -0.57514906
v 23.431227 -7.8971915 0.52292037
v -27.3565 -6.3343596 0.52292496
v 17.579287 -14.847596 0.5229222
v 23.431227 -7.8971915 -0.57515365
v -21.92699 -12.877988 -0.575155
v 17.579287 -14.847596 -0.5751518
v -21.92699 -12.877988 0.522919
v -15.529027 -17.584309 -0.57515013
v 13.109876 -22.189436 0.5229194
v 13.109876 -22.189436 -0.5751546
v -15.529027 -17.584309 0.5229239
v -7.5199594 -23.535326 -0.57515454
v 8.309471 -28.350325 0.52291816
v 8.309471 -28.350325 -0.57515585
v -7.5199594 -23.535326 0.5229195
v 0.17396767 -28.13991 -0.57515585
v 0.17396767 -28.13991 0.52291816
vt 0.7759198 0.93964386
vt 0.6206635 0.99880964
vt 0.5071303 0.5271777
vt 0.9028698 0.8313056
vt 0.45394218 1.006846
vt 0.98451257 0.68914187
vt 0.2938806 0.9611936
vt 0.98450947 0.53906643
vt 0.16013828 0.8572934
vt 0.92475474 0.38845304
vt 0.062566146 0.7220955
vt 0.8190917 0.26392138
vt 0.011945441 0.5696192
vt 0.73825216 0.1322591
vt 0.027161494 0.41703826
vt 0.65154415 0.021846637
vt 0.109108314 0.30202878
vt 0.5090451 0.030086279
vt 0.23370509 0.22608386
vt 0.37291306 0.1200017
vt 0.6206635 0.99880964
vt 0.45394218 1.006846
vt 0.45394218 1.006846
vt 0.6206635 0.99880964
vt 0.2938806 0.9611936
vt 0.7759198 0.93964386
vt 0.7759198 0.93964386
vt 0.5071303 0.5271777
vt 0.2938806 0.9611936
vt 0.9028698 0.8313056
vt 0.16013828 0.8572934
vt 0.9028698 0.8313056
vt 0.16013828 0.8572934
vt 0.062566146 0.7220955
vt 0.98451257 0.68914187
vt 0.98451257 0.68914187
vt 0.062566146 0.7220955
vt 0.011945441 0.5696192
vt 0.98450947 0.53906643
vt 0.98450947 0.53906643
vt 0.011945441 0.5696192
vt 0.027161494 0.41703826
vt 0.92475474 0.38845304
vt 0.027161494 0.41703826
vt 0.8190917 0.26392138
vt 0.92475474 0.38845304
vt 0.109108314 0.30202878
vt 0.8190917 0.26392138
vt 0.109108314 0.30202878
vt 0.23370509 0.22608386
vt 0.73825216 0.1322591
vt 0.73825216 0.1322591
vt 0.23370509 0.22608386
vt 0.37291306 0.1200017
vt 0.65154415 0.021846637
vt 0.65154415 0.021846637
vt 0.37291306 0.1200017
vt 0.5090451 0.030086279
vt 0.5090451 0.030086279
vn 0.40592358 0.6203009 -0.6711579
vn 0.13776854 0.7543274 -0.64188004
vn 0.0004471567 0.0019528053 -0.999998
vn 0.58439946 0.44176492 -0.6806769
vn -0.087967545 0.7183824 -0.69006413
vn 0.7140898 0.22799449 -0.6618869
vn -0.24208795 0.6837314 -0.6884074
vn 0.74666524 -0.13527215 -0.65130043
vn -0.5729612 0.52585727 -0.628641
vn 0.61485374 -0.39899755 -0.68026155
vn -0.65516675 0.25038126 -0.71278733
vn 0.559468 -0.40222034 -0.7247167
vn -0.7450468 0.11293979 -0.657381
vn 0.59212834 -0.40891004 -0.6943894
vn -0.70580214 -0.29087102 -0.64593905
vn 0.33581504 -0.71052396 -0.61837196
vn -0.5026457 -0.53288907 -0.68071777
vn -0.21089195 -0.7263488 -0.65417284
vn -0.42004147 -0.5681541 -0.7076483
vn -0.39895892 -0.5969385 -0.6960576
vn 0.1316908 0.7216179 0.6796507
vn -0.12555775 0.7256058 0.67655855
vn -0.087967545 0.7183824 -0.69006413
vn 0.13776854 0.7543274 -0.64188004
vn -0.24208795 0.6837314 -0.6884074
vn 0.4383924 0.6121511 0.6580905
vn 0.40592358 0.6203009 -0.6711579
vn -0.0004471573 -0.001952805 0.999998
vn -0.24208803 0.6837314 0.6884074
vn 0.58439964 0.44176468 0.68067694
vn -0.5729612 0.52585727 -0.628641
vn 0.58439946 0.44176492 -0.6806769
vn -0.5729612 0.5258571 0.6286411
vn -0.65516675 0.25038126 -0.71278733
vn 0.7140899 0.22799435 0.6618869
vn 0.7140898 0.22799449 -0.6618869
vn -0.65516686 0.25038147 0.71278715
vn -0.7450468 0.11293979 -0.657381
vn 0.74666524 -0.1352723 0.65130043
vn 0.74666524 -0.13527215 -0.65130043
vn -0.7450465 0.112940006 0.6573813
vn -0.70580214 -0.29087102 -0.64593905
vn 0.61485386 -0.39899758 0.68026143
vn -0.70580196 -0.29087138 0.64593923
vn 0.5594678 -0.40222037 0.72471696
vn 0.61485374 -0.39899755 -0.68026155
vn -0.5026457 -0.53288907 -0.68071777
vn 0.559468 -0.40222034 -0.7247167
vn -0.5026458 -0.5328894 0.6807173
vn -0.42004147 -0.5681541 -0.7076483
vn 0.5921282 -0.4089103 0.6943894
vn 0.59212834 -0.40891004 -0.6943894
vn -0.42004144 -0.56815374 0.7076485
vn -0.39895892 -0.5969385 -0.6960576
vn 0.33581504 -0.7105241 0.6183719
vn 0.33581504 -0.71052396 -0.61837196
vn -0.39895865 -0.5969387 0.6960576
vn -0.21089195 -0.7263488 -0.65417284
vn -0.21089193 -0.7263489 0.65417266
g meshSPWaterPPCollision.052_0
f 3/3/3 2/2/2 1/1/1
f 3/3/3 1/1/1 4/4/4
f 3/3/3 5/5/5 2/2/2
f 3/3/3 4/4/4 6/6/6
f 3/3/3 7/7/7 5/5/5
f 3/3/3 6/6/6 8/8/8
f 3/3/3 9/9/9 7/7/7
f 3/3/3 8/8/8 10/10/10
f 3/3/3 11/11/11 9/9/9
f 3/3/3 10/10/10 12/12/12
f 3/3/3 13/13/13 11/11/11
f 3/3/3 12/12/12 14/14/14
f 3/3/3 15/15/15 13/13/13
f 3/3/3 14/14/14 16/16/16
f 3/3/3 17/17/17 15/15/15
f 3/3/3 16/16/16 18/18/18
f 3/3/3 19/19/19 17/17/17
f 3/3/3 18/18/18 20/20/20
f 3/3/3 20/20/20 19/19/19
f 23/23/23 22/22/22 21/21/21
f 24/24/24 23/23/23 21/21/21
f 23/23/23 25/25/25 22/22/22
f 24/24/24 21/21/21 26/26/26
f 27/27/27 24/24/24 26/26/26
f 22/22/22 28/28/28 21/21/21
f 21/21/21 28/28/28 26/26/26
f 29/29/29 28/28/28 22/22/22
f 25/25/25 29/29/29 22/22/22
f 26/26/26 28/28/28 30/30/30
f 27/27/27 26/26/26 30/30/30
f 25/25/25 31/31/31 29/29/29
f 32/32/32 27/27/27 30/30/30
f 31/31/31 33/33/33 29/29/29
f 33/33/33 28/28/28 29/29/29
f 31/31/31 34/34/34 33/33/33
f 32/32/32 30/30/30 35/35/35
f 30/30/30 28/28/28 35/35/35
f 36/36/36 32/32/32 35/35/35
f 34/34/34 37/37/37 33/33/33
f 37/37/37 28/28/28 33/33/33
f 34/34/34 38/38/38 37/37/37
f 36/36/36 35/35/35 39/39/39
f 35/35/35 28/28/28 39/39/39
f 40/40/40 36/36/36 39/39/39
f 38/38/38 41/41/41 37/37/37
f 41/41/41 28/28/28 37/37/37
f 38/38/38 42/42/42 41/41/41
f 39/39/39 28/28/28 43/43/43
f 40/40/40 39/39/39 43/43/43
f 44/44/44 28/28/28 41/41/41
f 42/42/42 44/44/44 41/41/41
f 43/43/43 28/28/28 45/45/45
f 46/46/46 40/40/40 43/43/43
f 46/46/46 43/43/43 45/45/45
f 42/42/42 47/47/47 44/44/44
f 48/48/48 46/46/46 45/45/45
f 47/47/47 49/49/49 44/44/44
f 49/49/49 28/28/28 44/44/44
f 47/47/47 50/50/50 49/49/49
f 48/48/48 45/45/45 51/51/51
f 45/45/45 28/28/28 51/51/51
f 52/52/52 48/48/48 51/51/51
f 50/50/50 53/53/53 49/49/49
f 53/53/53 28/28/28 49/49/49
f 50/50/50 54/54/54 53/53/53
f 52/52/52 51/51/51 55/55/55
f 51/51/51 28/28/28 55/55/55
f 56/56/56 52/52/52 55/55/55
f 54/54/54 57/57/57 53/53/53
f 57/57/57 28/28/28 53/53/53
f 54/54/54 58/58/58 57/57/57
f 55/55/55 28/28/28 59/59/59
f 56/56/56 55/55/55 59/59/59
f 59/59/59 28/28/28 57/57/57
f 58/58/58 59/59/59 57/57/57
f 58/58/58 56/56/56 59/59/59
