g meshSPWaterPPCollision.044
v 12.799554 0.3592587 0.5490378
v 12.681644 14.599257 -0.54903305
v 12.799554 0.35925865 -0.54903704
v 12.681644 14.599257 0.5490418
v 10.047796 17.072334 -0.5490347
v 10.047796 17.072334 0.54904014
v 2.7619524 19.95913 0.54903847
v -4.2795897 19.001705 0.5490416
v 2.7619524 19.95913 -0.5490364
v 10.047796 17.072334 -0.5490347
v 12.799554 0.35925865 -0.54903704
v 12.681644 14.599257 -0.54903305
v -8.460333 13.818257 0.54903567
v -4.2795897 19.001705 -0.5490332
v 2.7619524 19.95913 0.54903847
v -4.2795897 19.001705 0.5490416
v -8.460333 13.818257 -0.5490392
v -8.460333 13.818257 0.54903567
v -11.727136 7.948079 -0.5490374
v -16.17928 -0.5497339 -0.5490355
v -16.13798 -4.755158 -0.5490353
v -16.17928 -0.5497339 0.54903936
v -16.13798 -4.755158 0.54903954
v -14.13505 -8.580004 -0.54903823
v -9.74059 -14.183518 -0.549038
v -14.13505 -8.580004 0.5490366
v -3.0977955 -16.700289 -0.549041
v -9.74059 -14.183518 0.54903686
v -3.0977955 -16.700289 0.5490339
v 3.599495 -16.341341 0.5490339
v -14.13505 -8.580004 0.5490366
v -16.13798 -4.755158 0.54903954
v -9.74059 -14.183518 -0.549038
v -14.13505 -8.580004 -0.54903823
v -16.17928 -0.5497339 0.54903936
v 3.599495 -16.341341 -0.549041
v -3.0977955 -16.700289 0.5490339
v 3.599495 -16.341341 0.5490339
v 10.22278 -13.916794 -0.549038
v 10.22278 -13.916794 0.54903686
v 14.254535 -10.847573 -0.54903656
v 17.389984 -6.8835487 -0.54903984
v 14.254535 -10.847573 0.5490383
v 14.254535 -10.847573 -0.54903656
v 10.22278 -13.916794 -0.549038
v 17.389984 -6.8835487 0.549035
v -11.727136 7.948079 0.54903746
v -16.17928 -0.5497339 -0.5490355
v -11.727136 7.948079 -0.5490374
v -8.460333 13.818257 -0.5490392
vt 0.7016632 0.5548003
vt 0.63036466 0.7948175
vt 0.7016632 0.5548003
vt 0.63036466 0.7948175
vt 0.5738282 0.823782
vt 0.5738282 0.823782
vt 0.43668056 0.83709496
vt 0.3223698 0.78664726
vt 0.43668056 0.83709496
vt 0.5738282 0.823782
vt 0.7016632 0.5548003
vt 0.63036466 0.7948175
vt 0.2769629 0.678723
vt 0.3223698 0.78664726
vt 0.43668056 0.83709496
vt 0.3223698 0.78664726
vt 0.2769629 0.678723
vt 0.2769629 0.678723
vt 0.2503393 0.5636441
vt 0.21647753 0.3984009
vt 0.2376434 0.3275496
vt 0.21647753 0.3984009
vt 0.2376434 0.3275496
vt 0.29009974 0.27267578
vt 0.39161903 0.1993894
vt 0.29009974 0.27267578
vt 0.51610035 0.18919863
vt 0.39161903 0.1993894
vt 0.51610035 0.18919863
vt 0.62750745 0.22785951
vt 0.29009974 0.27267578
vt 0.2376434 0.3275496
vt 0.39161903 0.1993894
vt 0.29009974 0.27267578
vt 0.21647753 0.3984009
vt 0.62750745 0.22785951
vt 0.51610035 0.18919863
vt 0.62750745 0.22785951
vt 0.7276101 0.30105895
vt 0.7276101 0.30105895
vt 0.78079057 0.37253758
vt 0.81447184 0.4547717
vt 0.78079057 0.37253758
vt 0.78079057 0.37253758
vt 0.7276101 0.30105895
vt 0.81447184 0.4547717
vt 0.2503393 0.5636441
vt 0.21647753 0.3984009
vt 0.2503393 0.5636441
vt 0.2769629 0.678723
vn 0.6067968 0.17882346 0.7744804
vn 0.7126498 0.3119235 -0.6283582
vn 0.6067968 0.17882363 -0.77448034
vn 0.7126492 0.31192333 0.62835896
vn 0.3991435 0.62881213 -0.6672929
vn 0.39914316 0.62881213 0.6672931
vn 0.09132353 0.7507261 0.6542708
vn -0.38050553 0.6745342 0.6326288
vn 0.091323264 0.7507259 -0.654271
vn 0.3991435 0.62881213 -0.6672929
vn 0.6067968 0.17882363 -0.77448034
vn 0.7126498 0.3119235 -0.6283582
vn -0.60138816 0.40552238 0.68839216
vn -0.38050544 0.6745346 -0.6326283
vn 0.09132353 0.7507261 0.6542708
vn -0.38050553 0.6745342 0.6326288
vn -0.60138774 0.40552258 -0.6883926
vn -0.60138816 0.40552238 0.68839216
vn -0.6246394 0.3373683 -0.7042785
vn -0.7336512 0.17673089 -0.65614164
vn -0.73031414 -0.18345585 -0.6580162
vn -0.7336512 0.17673098 0.65614164
vn -0.73031384 -0.18345614 0.6580164
vn -0.610194 -0.39432973 -0.6871443
vn -0.44943506 -0.6113215 -0.65137863
vn -0.61019397 -0.39433023 0.68714404
vn -0.11499565 -0.73930836 -0.66347504
vn -0.4494349 -0.61132157 0.65137863
vn -0.11499539 -0.73930866 0.6634747
vn 0.1481501 -0.7225716 0.67523456
vn -0.61019397 -0.39433023 0.68714404
vn -0.73031384 -0.18345614 0.6580164
vn -0.44943506 -0.6113215 -0.65137863
vn -0.610194 -0.39432973 -0.6871443
vn -0.7336512 0.17673098 0.65614164
vn 0.14815022 -0.7225714 -0.6752348
vn -0.11499539 -0.73930866 0.6634747
vn 0.1481501 -0.7225716 0.67523456
vn 0.35424477 -0.647222 -0.6749921
vn 0.35424435 -0.64722204 0.67499226
vn 0.51363105 -0.52324563 -0.6799979
vn 0.8010372 -0.04181924 -0.5971521
vn 0.5136309 -0.5232454 0.67999816
vn 0.51363105 -0.52324563 -0.6799979
vn 0.35424477 -0.647222 -0.6749921
vn 0.80103767 -0.041819174 0.5971514
vn -0.6246392 0.33736864 0.7042785
vn -0.7336512 0.17673089 -0.65614164
vn -0.6246394 0.3373683 -0.7042785
vn -0.60138774 0.40552258 -0.6883926
g meshSPWaterPPCollision.044_0
f 3/3/3 2/2/2 1/1/1
f 2/2/2 4/4/4 1/1/1
f 2/2/2 5/5/5 4/4/4
f 5/5/5 6/6/6 4/4/4
f 4/4/4 6/6/6 1/1/1
f 6/6/6 7/7/7 1/1/1
f 7/7/7 8/8/8 1/1/1
f 9/9/9 7/7/7 6/6/6
f 10/10/10 9/9/9 6/6/6
f 9/9/9 10/10/10 11/11/11
f 10/10/10 12/12/12 11/11/11
f 8/8/8 13/13/13 1/1/1
f 14/14/14 9/9/9 11/11/11
f 9/9/9 14/14/14 15/15/15
f 14/14/14 16/16/16 15/15/15
f 14/14/14 17/17/17 16/16/16
f 17/17/17 14/14/14 11/11/11
f 17/17/17 18/18/18 16/16/16
f 11/11/11 19/19/19 17/17/17
f 20/20/20 19/19/19 11/11/11
f 21/21/21 20/20/20 11/11/11
f 20/20/20 21/21/21 22/22/22
f 21/21/21 23/23/23 22/22/22
f 11/11/11 24/24/24 21/21/21
f 21/21/21 24/24/24 23/23/23
f 25/25/25 24/24/24 11/11/11
f 24/24/24 26/26/26 23/23/23
f 27/27/27 25/25/25 11/11/11
f 25/25/25 27/27/27 28/28/28
f 27/27/27 29/29/29 28/28/28
f 28/28/28 29/29/29 1/1/1
f 29/29/29 30/30/30 1/1/1
f 31/31/31 28/28/28 1/1/1
f 31/31/31 1/1/1 32/32/32
f 33/33/33 28/28/28 31/31/31
f 34/34/34 33/33/33 31/31/31
f 35/35/35 32/32/32 1/1/1
f 36/36/36 27/27/27 11/11/11
f 27/27/27 36/36/36 37/37/37
f 36/36/36 38/38/38 37/37/37
f 36/36/36 39/39/39 30/30/30
f 39/39/39 36/36/36 11/11/11
f 39/39/39 40/40/40 30/30/30
f 30/30/30 40/40/40 1/1/1
f 11/11/11 41/41/41 39/39/39
f 42/42/42 41/41/41 11/11/11
f 41/41/41 42/42/42 43/43/43
f 43/43/43 1/1/1 40/40/40
f 44/44/44 43/43/43 40/40/40
f 45/45/45 44/44/44 40/40/40
f 42/42/42 11/11/11 46/46/46
f 42/42/42 46/46/46 43/43/43
f 11/11/11 1/1/1 46/46/46
f 43/43/43 46/46/46 1/1/1
f 47/47/47 35/35/35 1/1/1
f 48/48/48 35/35/35 47/47/47
f 47/47/47 1/1/1 13/13/13
f 49/49/49 48/48/48 47/47/47
f 49/49/49 47/47/47 13/13/13
f 50/50/50 49/49/49 13/13/13
