g meshSPCaveCollison
v 0.08500566 -0.7944862 -0.15977886
v 0.09035336 -0.5553596 -0.15977886
v 0.15134706 -0.64443135 -0.14221862
v 0.14584018 -0.8357779 -0.1422186
v 0.08500566 -0.7944862 -0.3256704
v 0.21880142 -0.8357779 -0.27215484
v 0.2243083 -0.64443135 -0.27215484
v 0.09035336 -0.5553596 -0.3256704
v 0.08500566 -0.7944862 -0.15977886
v 0.14584018 -0.8357779 -0.1422186
v 0.21880142 -0.8357779 -0.27215484
v 0.08500566 -0.7944862 -0.3256704
v 0.14584018 -0.8357779 -0.1422186
v 0.15134706 -0.64443135 -0.14221862
v 0.2243083 -0.64443135 -0.27215484
v 0.21880142 -0.8357779 -0.27215484
v 0.15134706 -0.64443135 -0.14221862
v 0.09035336 -0.5553596 -0.15977886
v 0.09035336 -0.5553596 -0.3256704
v 0.2243083 -0.64443135 -0.27215484
v 0.08500566 -0.7944862 -0.15977886
v -0.0027813208 -0.7946472 -0.20575076
v 0.025737146 -0.50434643 -0.20575076
v 0.09035336 -0.5553596 -0.15977886
v 0.09035336 -0.5553596 -0.15977886
v 0.025737146 -0.50434643 -0.20575076
v 0.053536486 -0.48973665 -0.3648162
v 0.09035336 -0.5553596 -0.3256704
v 0.09035336 -0.5553596 -0.3256704
v 0.053536486 -0.48973665 -0.3648162
v 0.02225881 -0.8081238 -0.36481616
v 0.08500566 -0.7944862 -0.3256704
v 0.08500566 -0.7944862 -0.3256704
v 0.02225881 -0.8081238 -0.36481616
v -0.0027813208 -0.7946472 -0.20575076
v 0.08500566 -0.7944862 -0.15977886
v -0.2872317 -1.065659 -0.20575076
v -0.03578089 -1.0052606 -0.20575076
v -0.013933473 -1.0391139 -0.36481613
v -0.28971192 -1.1053559 -0.36481613
v -0.5051968 -0.9763473 -0.20575076
v -0.41441473 -0.33809176 -0.20575078
v -0.41441453 -0.33809176 -0.20575078
v -0.2872317 -1.065659 -0.20575076
v -0.21079843 -0.339003 -0.20575078
v -0.03578089 -1.0052606 -0.20575076
v -0.042200666 -0.37841478 -0.20575078
v -0.0027813208 -0.7946472 -0.20575076
v 0.025737146 -0.50434643 -0.20575076
v -0.042200666 -0.37841478 -0.20575078
v -0.02097441 -0.3516212 -0.3648162
v 0.053536486 -0.48973665 -0.3648162
v 0.025737146 -0.50434643 -0.20575076
v -0.02097441 -0.3516212 -0.3648162
v 0.02225881 -0.8081238 -0.36481616
v 0.053536486 -0.48973665 -0.3648162
v -0.013933473 -1.0391139 -0.36481613
v -0.22939187 -0.28169912 -0.3648162
v -0.28971192 -1.1053559 -0.36481613
v -0.52876526 -1.0074033 -0.36481613
v -0.42919967 -0.30739686 -0.3648162
v -0.5051968 -0.9763473 -0.20575076
v -0.2872317 -1.065659 -0.20575076
v -0.28971192 -1.1053559 -0.36481613
v -0.52876526 -1.0074033 -0.36481613
v 0.02225881 -0.8081238 -0.36481616
v -0.013933473 -1.0391139 -0.36481613
v -0.03578089 -1.0052606 -0.20575076
v -0.0027813208 -0.7946472 -0.20575076
v -0.21079843 -0.339003 -0.20575078
v -0.15074156 -0.25591305 -0.10754899
v 0.022108015 -0.35314268 -0.11894608
v -0.042200666 -0.37841478 -0.20575078
v -0.042200666 -0.37841478 -0.20575078
v 0.022108015 -0.35314268 -0.11894608
v -0.008700281 -0.3375072 -0.36108145
v -0.02097441 -0.3516212 -0.3648162
v -0.22939187 -0.28169912 -0.3648162
v -0.02097441 -0.3516212 -0.3648162
v -0.008700281 -0.3375072 -0.36108145
v -0.20612276 -0.22132063 -0.36108145
v 0.0051861703 -0.3215391 -0.35685614
v -0.21227308 -0.16005121 -0.35685614
v 0.2321357 0.4444739 -0.24238314
v 0.53444475 0.08462022 -0.24238311
v -0.21079843 -0.339003 -0.20575078
v -0.22939187 -0.28169912 -0.3648162
v -0.20612276 -0.22132063 -0.36108145
v -0.15074156 -0.25591305 -0.10754899
v 0.03599462 -0.33748588 -0.11133825
v -0.1580123 -0.16524157 -0.099568404
v 0.27694193 0.40360743 -0.004772949
v 0.5792515 0.043754138 0.054194238
v 0.53444475 0.08462022 -0.24238311
v 0.0051861703 -0.3215391 -0.35685614
v 0.03599462 -0.33748588 -0.11133825
v 0.5792515 0.043754138 0.054194238
v -0.1580123 -0.16524157 -0.099568404
v -0.21227308 -0.16005121 -0.35685614
v 0.2321357 0.4444739 -0.24238314
v 0.27694193 0.40360743 -0.004772949
v 0.03599462 -0.33748588 -0.11133825
v 0.022108015 -0.35314268 -0.11894608
v -0.15074156 -0.25591305 -0.10754899
v -0.1580123 -0.16524157 -0.099568404
v 0.0051861703 -0.3215391 -0.35685614
v -0.008700281 -0.3375072 -0.36108145
v 0.022108015 -0.35314268 -0.11894608
v 0.03599462 -0.33748588 -0.11133825
v -0.1580123 -0.16524157 -0.099568404
v -0.15074156 -0.25591305 -0.10754899
v -0.20612276 -0.22132063 -0.36108145
v -0.21227308 -0.16005121 -0.35685614
v -0.5051968 -0.9763473 -0.20575076
v -0.52876526 -1.0074033 -0.36481613
v -0.42919967 -0.30739686 -0.3648162
v -0.41441473 -0.33809176 -0.20575078
v 0.53444475 0.08462022 -0.24238311
v 0.5792515 0.043754138 0.054194238
v 0.27694193 0.40360743 -0.004772949
v 0.2321357 0.4444739 -0.24238314
v -0.22939187 -0.28169912 -0.3648162
v -0.21079843 -0.339003 -0.20575078
v -0.41441453 -0.33809176 -0.20575078
v -0.42919967 -0.30739686 -0.3648162
vt 1 0
vt 1 1
vt 0 1
vt 0 0
vt 0 0
vt 1 0
vt 1 1
vt 0 1
vt 0 0
vt 1 0
vt 1 1
vt 0 1
vt 0 0
vt 1 0
vt 1 1
vt 0 1
vt 0 0
vt 1 0
vt 1 1
vt 0 1
vt 1 0
vt 1 0
vt 0 0
vt 0 0
vt 0 0
vt 0 0
vt 0 1
vt 0 1
vt 0 1
vt 0 1
vt 1 1
vt 1 1
vt 1 1
vt 1 1
vt 1 0
vt 1 0
vt 1 0
vt 1 0
vt 1 1
vt 1 1
vt 1 0
vt 5.9604645E-08 0
vt 0 0
vt 1 0
vt 0 0
vt 1 0
vt 0 0
vt 1 0
vt 0 0
vt 0 0
vt 0 1
vt 0 1
vt 0 0
vt 0 1
vt 1 1
vt 0 1
vt 1 1
vt 0 1
vt 1 1
vt 1 1
vt 0 1
vt 1 0
vt 1 0
vt 1 1
vt 1 1
vt 1 1
vt 1 1
vt 1 0
vt 1 0
vt 0 0
vt 0 0
vt 0 0
vt 0 0
vt 0 0
vt 0 0
vt 0 1
vt 0 1
vt 0 1
vt 0 1
vt 0 1
vt 0 1
vt 0 1
vt 0 1
vt 0 1
vt 0 1
vt 0 0
vt 0 1
vt 0 1
vt 0 0
vt 0 0
vt 0 0
vt 0 0
vt 0 0
vt 0 1
vt 0 1
vt 0 0
vt 0 0
vt 0 0
vt 0 1
vt 0 1
vt 0 0
vt 0 0
vt 0 0
vt 0 0
vt 0 0
vt 0 1
vt 0 1
vt 0 0
vt 0 0
vt 0 0
vt 0 0
vt 0 1
vt 0 1
vt 1 0
vt 1 1
vt 0 1
vt 5.9604645E-08 0
vt 0 1
vt 0 0
vt 0 0
vt 0 1
vt 0 1
vt 0 0
vt 0 0
vt 0 1
vn -0.27025273 0.0068146293 0.96276534
vn -0.27025273 0.0068146293 0.96276534
vn -0.27025273 0.0068146293 0.96276534
vn -0.27025273 0.0068146293 0.96276534
vn 0.36727706 -0.009261076 -0.9300655
vn 0.36727706 -0.009261076 -0.9300655
vn 0.36727706 -0.009261076 -0.9300655
vn 0.36727706 -0.009261076 -0.9300655
vn -0.36129567 -0.92818373 -0.08910837
vn -0.36129567 -0.92818373 -0.08910837
vn -0.36129567 -0.92818373 -0.08910837
vn -0.36129567 -0.92818373 -0.08910837
vn 0.87166756 -0.02508624 0.4894551
vn 0.87166756 -0.02508624 0.4894551
vn 0.87166756 -0.02508624 0.4894551
vn 0.87166756 -0.02508624 0.4894551
vn 0.6345595 0.75686246 0.15650389
vn 0.6345595 0.75686246 0.15650389
vn 0.6345595 0.75686246 0.15650389
vn 0.6345595 0.75686246 0.15650389
vn -0.5083177 0.03251585 0.8605556
vn -0.5083177 0.03251585 0.8605556
vn -0.5083177 0.03251585 0.8605556
vn -0.5083177 0.03251585 0.8605556
vn 0.71697336 0.6909497 0.09239985
vn 0.71697336 0.6909497 0.09239985
vn 0.71697336 0.6909497 0.09239985
vn 0.71697336 0.6909497 0.09239985
vn 0.6047408 -0.03972796 -0.79543084
vn 0.6047408 -0.03972796 -0.79543084
vn 0.6047408 -0.03972796 -0.79543084
vn 0.6047408 -0.03972796 -0.79543084
vn 0.06515713 -0.9967975 0.04636002
vn 0.06515713 -0.9967975 0.04636002
vn 0.06515713 -0.9967975 0.04636002
vn 0.06515713 -0.9967975 0.04636002
vn 0.22715797 -0.94570416 0.23247129
vn 0.22715797 -0.94570416 0.23247129
vn 0.22715797 -0.94570416 0.23247129
vn 0.22715797 -0.94570416 0.23247129
vn -0 0 1
vn -0 0 1
vn -0 0 1
vn -0 0 1
vn -0 0 1
vn -0 0 1
vn -0 0 1
vn -5.383296E-07 0 1
vn -5.383296E-07 0 1
vn 0.86343074 0.46580553 0.19368167
vn 0.86343074 0.46580553 0.19368167
vn 0.86343074 0.46580553 0.19368167
vn 0.86343074 0.46580553 0.19368167
vn -0 -1.0094765E-07 -1
vn -6.7131157E-07 -1.07645086E-07 -1
vn -6.7131157E-07 -1.07645086E-07 -1
vn -0 -1.0094765E-07 -1
vn -0 -1.0094765E-07 -1
vn -0 -1.0094765E-07 -1
vn -0 0 -1
vn -0 0 -1
vn -0.3689502 -0.9004229 0.23046549
vn -0.3689502 -0.9004229 0.23046549
vn -0.3689502 -0.9004229 0.23046549
vn -0.3689502 -0.9004229 0.23046549
vn 0.97419137 -0.15263946 0.16628978
vn 0.97419137 -0.15263946 0.16628978
vn 0.97419137 -0.15263946 0.16628978
vn 0.97419137 -0.15263946 0.16628978
vn -0.27463862 -0.73772204 0.61671686
vn -0.27463862 -0.73772204 0.61671686
vn -0.27463862 -0.73772204 0.61671686
vn -0.27463862 -0.73772204 0.61671686
vn 0.54681087 -0.831147 -0.10095782
vn 0.54681087 -0.831147 -0.10095782
vn 0.54681087 -0.831147 -0.10095782
vn 0.54681087 -0.831147 -0.10095782
vn 0.03757375 0.081935555 -0.99592906
vn 0.03757375 0.081935555 -0.99592906
vn 0.03757375 0.081935555 -0.99592906
vn 0.03757375 0.081935555 -0.99592906
vn 0.11404512 0.113700934 -0.9869478
vn 0.11404512 0.113700934 -0.9869478
vn 0.11404512 0.113700934 -0.9869478
vn 0.11404512 0.113700934 -0.9869478
vn -0.90378404 0.35379517 0.24083881
vn -0.90378404 0.35379517 0.24083881
vn -0.90378404 0.35379517 0.24083881
vn -0.90378404 0.35379517 0.24083881
vn -0.1811402 -0.08203015 0.98003024
vn -0.1811402 -0.08203015 0.98003024
vn -0.1811402 -0.08203015 0.98003024
vn -0.1811402 -0.08203015 0.98003024
vn 0.6114043 -0.77363336 -0.16636153
vn 0.6114043 -0.77363336 -0.16636153
vn 0.6114043 -0.77363336 -0.16636153
vn 0.6114043 -0.77363336 -0.16636153
vn -0.7997671 0.5614982 0.21234958
vn -0.7997671 0.5614982 0.21234958
vn -0.7997671 0.5614982 0.21234958
vn -0.7997671 0.5614982 0.21234958
vn -0.042120874 -0.14236093 0.9889181
vn -0.042120874 -0.14236093 0.9889181
vn -0.042120874 -0.14236093 0.9889181
vn -0.042120874 -0.14236093 0.9889181
vn 0.76919574 -0.6240215 -0.13760462
vn 0.76919574 -0.6240215 -0.13760462
vn 0.76919574 -0.6240215 -0.13760462
vn 0.76919574 -0.6240215 -0.13760462
vn -0.97421443 -0.102211565 0.20114423
vn -0.97421443 -0.102211565 0.20114423
vn -0.97421443 -0.102211565 0.20114423
vn -0.97421443 -0.102211565 0.20114423
vn -0.98307645 0.13982801 0.11835943
vn -0.98307645 0.13982801 0.11835943
vn -0.98307645 0.13982801 0.11835943
vn -0.98307645 0.13982801 0.11835943
vn 0.76654303 0.6414709 -0.030444704
vn 0.76654303 0.6414709 -0.030444704
vn 0.76654303 0.6414709 -0.030444704
vn 0.76654303 0.6414709 -0.030444704
vn -0.059014663 0.9605191 0.2718829
vn -0.059014663 0.9605191 0.2718829
vn -0.059014663 0.9605191 0.2718829
vn -0.059014663 0.9605191 0.2718829
g meshSPCaveCollison_0
f 3/3/3 2/2/2 1/1/1
f 4/4/4 3/3/3 1/1/1
f 7/7/7 6/6/6 5/5/5
f 8/8/8 7/7/7 5/5/5
f 11/11/11 10/10/10 9/9/9
f 12/12/12 11/11/11 9/9/9
f 15/15/15 14/14/14 13/13/13
f 16/16/16 15/15/15 13/13/13
f 19/19/19 18/18/18 17/17/17
f 20/20/20 19/19/19 17/17/17
f 23/23/23 22/22/22 21/21/21
f 24/24/24 23/23/23 21/21/21
f 27/27/27 26/26/26 25/25/25
f 28/28/28 27/27/27 25/25/25
f 31/31/31 30/30/30 29/29/29
f 32/32/32 31/31/31 29/29/29
f 35/35/35 34/34/34 33/33/33
f 36/36/36 35/35/35 33/33/33
f 39/39/39 38/38/38 37/37/37
f 40/40/40 39/39/39 37/37/37
f 43/43/43 42/42/42 41/41/41
f 43/43/43 41/41/41 44/44/44
f 44/44/44 45/45/45 43/43/43
f 44/44/44 46/46/46 45/45/45
f 46/46/46 47/47/47 45/45/45
f 47/47/47 46/46/46 48/48/48
f 49/49/49 47/47/47 48/48/48
f 52/52/52 51/51/51 50/50/50
f 53/53/53 52/52/52 50/50/50
f 56/56/56 55/55/55 54/54/54
f 55/55/55 57/57/57 54/54/54
f 58/58/58 54/54/54 57/57/57
f 59/59/59 58/58/58 57/57/57
f 59/59/59 60/60/60 58/58/58
f 60/60/60 61/61/61 58/58/58
f 64/64/64 63/63/63 62/62/62
f 65/65/65 64/64/64 62/62/62
f 68/68/68 67/67/67 66/66/66
f 69/69/69 68/68/68 66/66/66
f 72/72/72 71/71/71 70/70/70
f 73/73/73 72/72/72 70/70/70
f 76/76/76 75/75/75 74/74/74
f 77/77/77 76/76/76 74/74/74
f 80/80/80 79/79/79 78/78/78
f 81/81/81 80/80/80 78/78/78
f 82/82/82 80/80/80 81/81/81
f 83/83/83 82/82/82 81/81/81
f 82/82/82 83/83/83 84/84/84
f 85/85/85 82/82/82 84/84/84
f 88/88/88 87/87/87 86/86/86
f 89/89/89 88/88/88 86/86/86
f 92/92/92 91/91/91 90/90/90
f 93/93/93 92/92/92 90/90/90
f 96/96/96 95/95/95 94/94/94
f 97/97/97 96/96/96 94/94/94
f 100/100/100 99/99/99 98/98/98
f 101/101/101 100/100/100 98/98/98
f 104/104/104 103/103/103 102/102/102
f 105/105/105 104/104/104 102/102/102
f 108/108/108 107/107/107 106/106/106
f 109/109/109 108/108/108 106/106/106
f 112/112/112 111/111/111 110/110/110
f 113/113/113 112/112/112 110/110/110
f 116/116/116 115/115/115 114/114/114
f 114/114/114 117/117/117 116/116/116
f 120/120/120 119/119/119 118/118/118
f 121/121/121 120/120/120 118/118/118
f 124/124/124 123/123/123 122/122/122
f 125/125/125 124/124/124 122/122/122
