g meshSPMossBall
v -0.0017561719 0.44318622 -1.0135651
v -0.123619124 0.21360028 -1.2023782
v 0.0044053127 0.24789777 -1.2047862
v -0.22821055 0.37589777 -1.0076199
v 0.0028791975 0.5196659 -0.7481353
v -0.21942227 0.11989778 -1.2038634
v -0.26241297 0.43526015 -0.73131174
v 0.0025533114 0.43468228 -0.4058357
v -0.39219683 0.21360026 -1.0102326
v -0.2577703 -0.008102219 -1.2099401
v -0.459425 -0.008102193 -1.012045
v -0.22557382 -0.13610221 -1.2127255
v -0.44973847 0.24755594 -0.73576146
v -0.22414914 0.3687351 -0.391548
v -0.40547356 -0.22980465 -1.0122124
v -0.12961566 -0.22983508 -1.2101727
v -0.15525487 0.23365226 -0.1787982
v -0.00019364734 0.2700899 -0.1787982
v -0.24365331 0.14354593 -0.1787982
v -0.3804283 0.20945337 -0.40357304
v -0.27402422 -0.008197384 -0.1787982
v -0.515677 -0.008097428 -0.7217282
v -0.4251599 -0.008054549 -0.40607056
v -0.23658378 -0.15913932 -0.1787982
v -0.23764254 -0.39210215 -1.0107447
v 0.0023638867 -0.26853427 -1.205252
v -0.44560146 -0.2636647 -0.7000774
v -0.3576141 -0.2255485 -0.38143155
v -0.14766462 -0.25198367 -0.1787982
v -0.008178106 -0.4549918 -1.0109544
v 0.13236526 -0.2426132 -1.2056136
v -0.26000842 -0.45069888 -0.7176903
v -0.20767999 -0.3847652 -0.39864057
v -0.0010930848 -0.28436178 -0.1787982
v 0.21518935 -0.41210067 -1.0122107
v 0.22609349 -0.15300813 -1.2087556
v -0.0069235894 -0.5191697 -0.7409639
v -0.003726032 -0.44304258 -0.42275947
v 0.14918111 -0.25192726 -0.1787982
v 0.37748516 -0.2613169 -1.014853
v 0.26038843 -0.020553963 -1.2086557
v 0.24874729 -0.45997536 -0.7402248
v 0.2108375 -0.3847654 -0.4063093
v 0.2442649 -0.16061926 -0.1787982
v 0.43688995 -0.02810078 -1.0122076
v 0.22609349 0.11553716 -1.2070259
v 0.4360274 -0.28081578 -0.7422119
v 0.3746662 -0.22591443 -0.4041131
v 0.28614834 -0.008073784 -0.1787982
v 0.38321257 0.21854185 -1.0148456
v 0.13253765 0.21375166 -1.2058663
v 0.51584005 -0.015985414 -0.73827875
v 0.4542001 -0.008047352 -0.41029647
v 0.2622224 0.14667197 -0.1787982
v 0.22483712 0.3918899 -1.0212365
v 0.0044053127 0.24789777 -1.2047862
v -0.0017561719 0.44318622 -1.0135651
v 0.4675241 0.26414087 -0.7441538
v 0.41500074 0.2163954 -0.39816308
v 0.1646392 0.24118268 -0.1787982
v 0.27934158 0.46676773 -0.76052004
v 0.0028791975 0.5196659 -0.7481353
v 0.24577114 0.38376328 -0.40177217
v -0.00019364734 0.2700899 -0.1787982
v 0.0025533114 0.43468228 -0.4058357
v -0.0025279275 0.10020463 0.0072522704
v -0.109747164 -0.0065571005 1.9378662E-07
v -0.10350592 0.092903584 -0.011756453
v -0.002842444 -0.0063287327 0.053526383
v 0.10543557 0.092572 -0.008775627
v -0.09978257 -0.10868362 -0.01689238
v 0.107898235 -0.009189129 0.0079063
v -0.0023342946 -0.11608103 -0.0005100464
v 0.09805481 -0.10815087 -0.012366881
v -0.09978257 -0.10868362 -0.01689238
v -0.14766462 -0.25198367 -0.1787982
v -0.23658378 -0.15913932 -0.1787982
v -0.27402422 -0.008197384 -0.1787982
v -0.0010930848 -0.28436178 -0.1787982
v -0.109747164 -0.0065571005 1.9378662E-07
v -0.0023342946 -0.11608103 -0.0005100464
v -0.24365331 0.14354593 -0.1787982
v 0.09805481 -0.10815087 -0.012366881
v 0.14918111 -0.25192726 -0.1787982
v 0.2442649 -0.16061926 -0.1787982
v 0.107898235 -0.009189129 0.0079063
v 0.28614834 -0.008073784 -0.1787982
v -0.10350592 0.092903584 -0.011756453
v -0.15525487 0.23365226 -0.1787982
v 0.10543557 0.092572 -0.008775627
v -0.00019364734 0.2700899 -0.1787982
v -0.0025279275 0.10020463 0.0072522704
v 0.2622224 0.14667197 -0.1787982
v 0.1646392 0.24118268 -0.1787982
v 0.013738077 -0.008868013 -1.2612013
v 0.0044053127 0.24789777 -1.2047862
v -0.123619124 0.21360028 -1.2023782
v -0.21942227 0.11989778 -1.2038634
v 0.13253765 0.21375166 -1.2058663
v -0.2577703 -0.008102219 -1.2099401
v 0.22609349 0.11553716 -1.2070259
v -0.22557382 -0.13610221 -1.2127255
v 0.26038843 -0.020553963 -1.2086557
v -0.12961566 -0.22983508 -1.2101727
v 0.22609349 -0.15300813 -1.2087556
v 0.0023638867 -0.26853427 -1.205252
v 0.13236526 -0.2426132 -1.2056136
vt 0.6985551 0.9175256
vt 0.70756274 0.89951026
vt 0.6985551 0.89951026
vt 0.70756274 0.9175256
vt 0.6985551 0.93554085
vt 0.7165703 0.89951026
vt 0.70756274 0.93554085
vt 0.6985551 0.9535562
vt 0.7165703 0.9175256
vt 0.725578 0.89951026
vt 0.725578 0.9175256
vt 0.73458564 0.89951026
vt 0.7165703 0.93554085
vt 0.70756274 0.9535562
vt 0.73458564 0.9175256
vt 0.74359334 0.89951026
vt 0.70756274 0.9694457
vt 0.6985551 0.9694457
vt 0.7165703 0.9694457
vt 0.7165703 0.9535562
vt 0.725578 0.9694457
vt 0.725578 0.93554085
vt 0.725578 0.9535562
vt 0.73458564 0.9694457
vt 0.74359334 0.9175256
vt 0.7526009 0.89951026
vt 0.73458564 0.93554085
vt 0.73458564 0.9535562
vt 0.74359334 0.9694457
vt 0.7526009 0.9175256
vt 0.7616086 0.89951026
vt 0.74359334 0.93554085
vt 0.74359334 0.9535562
vt 0.7526009 0.9694457
vt 0.7616086 0.9175256
vt 0.77061623 0.89951026
vt 0.7526009 0.93554085
vt 0.7526009 0.9535562
vt 0.7616086 0.9694457
vt 0.77061623 0.9175256
vt 0.77962387 0.89951026
vt 0.7616086 0.93554085
vt 0.7616086 0.9535562
vt 0.77061623 0.9694457
vt 0.77962387 0.9175256
vt 0.7886315 0.89951026
vt 0.77061623 0.93554085
vt 0.77061623 0.9535562
vt 0.77962387 0.9694457
vt 0.7886315 0.9175256
vt 0.79763913 0.89951026
vt 0.77962387 0.93554085
vt 0.77962387 0.9535562
vt 0.7886315 0.9694457
vt 0.79763913 0.9175256
vt 0.8066468 0.89951026
vt 0.8066468 0.9175256
vt 0.7886315 0.93554085
vt 0.7886315 0.9535562
vt 0.79763913 0.9694457
vt 0.79763913 0.93554085
vt 0.8066468 0.93554085
vt 0.79763913 0.9535562
vt 0.8066468 0.9694457
vt 0.8066468 0.9535562
vt 0.5544739 0.9692704
vt 0.5542511 0.96678805
vt 0.5529186 0.96814865
vt 0.5559432 0.96787506
vt 0.5562071 0.97052056
vt 0.5557192 0.9652889
vt 0.55757856 0.9690654
vt 0.5572401 0.9663824
vt 0.5589493 0.96761113
vt 0.5557192 0.9652889
vt 0.5591122 0.95228744
vt 0.5510736 0.9531704
vt 0.54415625 0.95776486
vt 0.5662778 0.955485
vt 0.5542511 0.96678805
vt 0.5572401 0.9663824
vt 0.54036397 0.9649876
vt 0.5589493 0.96761113
vt 0.57088137 0.96211225
vt 0.5718413 0.97051054
vt 0.55757856 0.9690654
vt 0.5688825 0.97842026
vt 0.5529186 0.96814865
vt 0.5409604 0.97309315
vt 0.5562071 0.97052056
vt 0.5459325 0.9800287
vt 0.5544739 0.9692704
vt 0.56240827 0.9834076
vt 0.5539126 0.9839429
vt 0.58556825 0.26864606
vt 0.5922699 0.28105727
vt 0.59772253 0.27626166
vt 0.60014844 0.2693305
vt 0.58514786 0.28249547
vt 0.5989191 0.26210976
vt 0.5781657 0.27994707
vt 0.59422576 0.2566061
vt 0.57317257 0.27409777
vt 0.5872346 0.25433818
vt 0.5716359 0.26676008
vt 0.5798129 0.25564963
vt 0.5740596 0.26008308
vn -0.04938294 0.8668189 -0.49617162
vn -0.26184833 0.4465075 -0.8556088
vn -0.024312662 0.50682133 -0.8617082
vn -0.45493415 0.7537552 -0.47422367
vn -0.04705264 0.9986708 -0.021038512
vn -0.42763585 0.28194413 -0.85885686
vn -0.5158201 0.8566899 -0.0034754327
vn -0.031410903 0.91462946 0.40307122
vn -0.75821406 0.45229918 -0.46961367
vn -0.49779174 0.033279497 -0.8666579
vn -0.88982075 0.01367301 -0.4561052
vn -0.4297763 -0.24948078 -0.86778545
vn -0.869335 0.49421972 0.0018514065
vn -0.46455082 0.7877218 0.4045824
vn -0.7773789 -0.44320878 -0.44637197
vn -0.23795451 -0.44983968 -0.86082625
vn -0.39045516 0.6837461 0.6164707
vn -0.019860389 0.778457 0.62738377
vn -0.70539445 0.36125666 0.6098462
vn -0.8104154 0.43325862 0.3943525
vn -0.7908666 -0.018992228 0.6116939
vn -0.9993487 -0.0039344626 0.035870973
vn -0.9148798 -0.012988216 0.4035174
vn -0.6959565 -0.3835128 0.6070936
vn -0.4507377 -0.7699501 -0.45167732
vn -0.012715763 -0.5215994 -0.8530957
vn -0.86480665 -0.49850816 0.059993334
vn -0.78649217 -0.45147946 0.42142203
vn -0.3798766 -0.6953325 0.6100872
vn -0.032519028 -0.888642 -0.4574471
vn 0.2305818 -0.46802816 -0.8531012
vn -0.49899128 -0.86618084 0.027173521
vn -0.43787396 -0.8041303 0.40204576
vn -0.00091100903 -0.7906007 0.61233133
vn 0.40470442 -0.79357123 -0.45437762
vn 0.44837832 -0.26648375 -0.85319585
vn -0.01936631 -0.9998085 0.0028307221
vn -0.0017710708 -0.9253974 0.37899414
vn 0.37190068 -0.7055097 0.6032794
vn 0.75776136 -0.46459183 -0.45820525
vn 0.5315587 -0.0013926262 -0.8470202
vn 0.47353187 -0.8806571 0.014519671
vn 0.43743092 -0.80998766 0.39060748
vn 0.6783941 -0.4131446 0.6075303
vn 0.8805155 -0.031288832 -0.47298342
vn 0.4622065 0.24090277 -0.853423
vn 0.8519984 -0.523534 -0.0033277373
vn 0.78514934 -0.4840637 0.38629368
vn 0.7714297 -0.056422625 0.633808
vn 0.7690816 0.38877696 -0.5073126
vn 0.25243914 0.4343173 -0.8646635
vn 0.9976767 -0.05550495 -0.039502494
vn 0.9227069 -0.068294056 0.3794047
vn 0.6806061 0.3484148 0.64450175
vn 0.41733617 0.7421514 -0.5244444
vn -0.024312662 0.50682133 -0.8617082
vn -0.04938294 0.8668189 -0.49617162
vn 0.88930136 0.45375782 -0.056983013
vn 0.81869894 0.40985927 0.4021784
vn 0.35057056 0.6893803 0.6339205
vn 0.48595005 0.8723896 -0.05280989
vn -0.04705264 0.9986708 -0.021038512
vn 0.43256184 0.80294245 0.41008988
vn -0.019860389 0.778457 0.62738377
vn -0.031410903 0.91462946 0.40307122
vn -0.028818209 0.28657353 0.95762473
vn -0.33612818 -0.02512035 0.94148123
vn -0.32615364 0.26593128 0.90714085
vn -0.029088343 -0.023265116 0.9993061
vn 0.2728431 0.28091916 0.920131
vn -0.3170675 -0.31512332 0.8945197
vn 0.27742332 -0.027478246 0.9603547
vn -0.033940993 -0.33890715 0.94020736
vn 0.25501904 -0.33442414 0.9072628
vn -0.49246702 -0.4936159 0.71681213
vn -0.3798766 -0.6953325 0.6100872
vn -0.6959565 -0.3835128 0.6070936
vn -0.7908666 -0.018992228 0.6116939
vn -0.00091100903 -0.7906007 0.61233133
vn -0.7379071 -0.01996308 0.674607
vn -0.0057148878 -0.72802305 0.6855288
vn -0.70539445 0.36125666 0.6098462
vn 0.4766568 -0.50408995 0.72020245
vn 0.37190068 -0.7055097 0.6032794
vn 0.6783941 -0.4131446 0.6075303
vn 0.7198595 -0.043102246 0.6927803
vn 0.7714297 -0.056422625 0.633808
vn -0.5018864 0.48768646 0.7143332
vn -0.39045516 0.6837461 0.6164707
vn 0.47855663 0.47600734 0.7378351
vn -0.019860389 0.778457 0.62738377
vn -0.018076494 0.73577183 0.67698824
vn 0.6806061 0.3484148 0.64450175
vn 0.35057056 0.6893803 0.6339205
vn 0.009382084 0.010009299 -0.99990594
vn -0.024312662 0.50682133 -0.8617082
vn -0.26184833 0.4465075 -0.8556088
vn -0.42763585 0.28194413 -0.85885686
vn 0.25243914 0.4343173 -0.8646635
vn -0.49779174 0.033279497 -0.8666579
vn 0.4622065 0.24090277 -0.853423
vn -0.4297763 -0.24948078 -0.86778545
vn 0.5315587 -0.0013926262 -0.8470202
vn -0.23795451 -0.44983968 -0.86082625
vn 0.44837832 -0.26648375 -0.85319585
vn -0.012715763 -0.5215994 -0.8530957
vn 0.2305818 -0.46802816 -0.8531012
g meshSPMossBall_0
f 3/3/3 2/2/2 1/1/1
f 2/2/2 4/4/4 1/1/1
f 1/1/1 4/4/4 5/5/5
f 2/2/2 6/6/6 4/4/4
f 4/4/4 7/7/7 5/5/5
f 5/5/5 7/7/7 8/8/8
f 6/6/6 9/9/9 4/4/4
f 4/4/4 9/9/9 7/7/7
f 6/6/6 10/10/10 9/9/9
f 10/10/10 11/11/11 9/9/9
f 10/10/10 12/12/12 11/11/11
f 9/9/9 13/13/13 7/7/7
f 9/9/9 11/11/11 13/13/13
f 7/7/7 14/14/14 8/8/8
f 7/7/7 13/13/13 14/14/14
f 12/12/12 15/15/15 11/11/11
f 12/12/12 16/16/16 15/15/15
f 14/14/14 17/17/17 8/8/8
f 17/17/17 18/18/18 8/8/8
f 19/19/19 17/17/17 14/14/14
f 20/20/20 19/19/19 14/14/14
f 13/13/13 20/20/20 14/14/14
f 21/21/21 19/19/19 20/20/20
f 11/11/11 22/22/22 13/13/13
f 13/13/13 22/22/22 20/20/20
f 11/11/11 15/15/15 22/22/22
f 23/23/23 21/21/21 20/20/20
f 22/22/22 23/23/23 20/20/20
f 24/24/24 21/21/21 23/23/23
f 16/16/16 25/25/25 15/15/15
f 16/16/16 26/26/26 25/25/25
f 15/15/15 27/27/27 22/22/22
f 22/22/22 27/27/27 23/23/23
f 15/15/15 25/25/25 27/27/27
f 28/28/28 24/24/24 23/23/23
f 27/27/27 28/28/28 23/23/23
f 29/29/29 24/24/24 28/28/28
f 26/26/26 30/30/30 25/25/25
f 26/26/26 31/31/31 30/30/30
f 25/25/25 32/32/32 27/27/27
f 27/27/27 32/32/32 28/28/28
f 25/25/25 30/30/30 32/32/32
f 33/33/33 29/29/29 28/28/28
f 32/32/32 33/33/33 28/28/28
f 34/34/34 29/29/29 33/33/33
f 31/31/31 35/35/35 30/30/30
f 31/31/31 36/36/36 35/35/35
f 30/30/30 37/37/37 32/32/32
f 32/32/32 37/37/37 33/33/33
f 30/30/30 35/35/35 37/37/37
f 38/38/38 34/34/34 33/33/33
f 37/37/37 38/38/38 33/33/33
f 39/39/39 34/34/34 38/38/38
f 36/36/36 40/40/40 35/35/35
f 36/36/36 41/41/41 40/40/40
f 35/35/35 42/42/42 37/37/37
f 37/37/37 42/42/42 38/38/38
f 35/35/35 40/40/40 42/42/42
f 43/43/43 39/39/39 38/38/38
f 42/42/42 43/43/43 38/38/38
f 44/44/44 39/39/39 43/43/43
f 41/41/41 45/45/45 40/40/40
f 41/41/41 46/46/46 45/45/45
f 40/40/40 47/47/47 42/42/42
f 42/42/42 47/47/47 43/43/43
f 40/40/40 45/45/45 47/47/47
f 48/48/48 44/44/44 43/43/43
f 47/47/47 48/48/48 43/43/43
f 49/49/49 44/44/44 48/48/48
f 46/46/46 50/50/50 45/45/45
f 46/46/46 51/51/51 50/50/50
f 45/45/45 52/52/52 47/47/47
f 47/47/47 52/52/52 48/48/48
f 45/45/45 50/50/50 52/52/52
f 53/53/53 49/49/49 48/48/48
f 52/52/52 53/53/53 48/48/48
f 54/54/54 49/49/49 53/53/53
f 51/51/51 55/55/55 50/50/50
f 51/51/51 56/56/56 55/55/55
f 56/56/56 57/57/57 55/55/55
f 50/50/50 58/58/58 52/52/52
f 52/52/52 58/58/58 53/53/53
f 50/50/50 55/55/55 58/58/58
f 59/59/59 54/54/54 53/53/53
f 58/58/58 59/59/59 53/53/53
f 60/60/60 54/54/54 59/59/59
f 55/55/55 57/57/57 61/61/61
f 55/55/55 61/61/61 58/58/58
f 58/58/58 61/61/61 59/59/59
f 57/57/57 62/62/62 61/61/61
f 63/63/63 60/60/60 59/59/59
f 61/61/61 63/63/63 59/59/59
f 61/61/61 62/62/62 63/63/63
f 64/64/64 60/60/60 63/63/63
f 62/62/62 65/65/65 63/63/63
f 65/65/65 64/64/64 63/63/63
f 68/68/68 67/67/67 66/66/66
f 67/67/67 69/69/69 66/66/66
f 70/70/70 66/66/66 69/69/69
f 67/67/67 71/71/71 69/69/69
f 72/72/72 70/70/70 69/69/69
f 71/71/71 73/73/73 69/69/69
f 69/69/69 73/73/73 72/72/72
f 73/73/73 74/74/74 72/72/72
f 77/77/77 76/76/76 75/75/75
f 77/77/77 75/75/75 78/78/78
f 76/76/76 79/79/79 75/75/75
f 75/75/75 80/80/80 78/78/78
f 79/79/79 81/81/81 75/75/75
f 78/78/78 80/80/80 82/82/82
f 83/83/83 81/81/81 79/79/79
f 84/84/84 83/83/83 79/79/79
f 84/84/84 85/85/85 83/83/83
f 86/86/86 83/83/83 85/85/85
f 87/87/87 86/86/86 85/85/85
f 80/80/80 88/88/88 82/82/82
f 89/89/89 82/82/82 88/88/88
f 90/90/90 86/86/86 87/87/87
f 89/89/89 88/88/88 91/91/91
f 88/88/88 92/92/92 91/91/91
f 91/91/91 92/92/92 90/90/90
f 93/93/93 90/90/90 87/87/87
f 94/94/94 91/91/91 90/90/90
f 93/93/93 94/94/94 90/90/90
f 97/97/97 96/96/96 95/95/95
f 98/98/98 97/97/97 95/95/95
f 96/96/96 99/99/99 95/95/95
f 100/100/100 98/98/98 95/95/95
f 99/99/99 101/101/101 95/95/95
f 102/102/102 100/100/100 95/95/95
f 101/101/101 103/103/103 95/95/95
f 104/104/104 102/102/102 95/95/95
f 103/103/103 105/105/105 95/95/95
f 106/106/106 104/104/104 95/95/95
f 105/105/105 107/107/107 95/95/95
f 107/107/107 106/106/106 95/95/95
