g meshVoidScrollSphere
v 1.5258789E-07 0 0.41327217
v -0.10331802 0.17895202 0.35790417
v 1.5258789E-07 0.20663604 0.35790417
v -0.17895217 0.30995423 0.20663604
v 1.5258789E-07 0.35790434 0.20663604
v -0.20663619 0.35790434 0
v 1.5258789E-07 0.41327208 0
v -0.17895217 0.30995423 -0.20663619
v 1.5258789E-07 0.35790434 -0.20663619
v -0.10331802 0.17895232 -0.3579042
v 1.5258789E-07 0.20663604 -0.3579042
v 1.5258789E-07 0 -0.41327217
v -0.17895217 0.10331818 -0.3579042
v 1.5258789E-07 0 -0.41327217
v -0.30995408 0.17895232 -0.20663619
v -0.3579042 0.20663604 0
v -0.30995408 0.17895232 0.20663604
v -0.20663619 0 -0.3579042
v 1.5258789E-07 0 -0.41327217
v -0.3579042 0 -0.20663619
v -0.17895217 0.10331818 0.35790417
v 1.5258789E-07 0 0.41327217
v -0.41327223 0 0
v -0.17895217 -0.10331787 -0.3579042
v 1.5258789E-07 0 -0.41327217
v -0.3579042 0 0.20663604
v -0.30995438 -0.17895202 -0.20663619
v -0.20663619 0 0.35790417
v 1.5258789E-07 0 0.41327217
v -0.3579042 -0.20663604 0
v -0.10331802 -0.17895202 -0.3579042
v 1.5258789E-07 0 -0.41327217
v -0.30995438 -0.17895202 0.20663604
v -0.17895217 -0.3099539 -0.20663619
v -0.17895217 -0.10331787 0.35790417
v 1.5258789E-07 0 0.41327217
v -0.20663619 -0.35790405 0
v 1.5258789E-07 -0.20663604 -0.3579042
v 1.5258789E-07 0 -0.41327217
v -0.17895217 -0.30995423 0.20663601
v 1.5258789E-07 -0.35790405 -0.20663619
v -0.10331802 -0.17895202 0.35790417
v 1.5258789E-07 0 0.41327217
v 1.5258789E-07 -0.41327208 0
v 0.103318326 -0.17895202 -0.3579042
v 1.5258789E-07 0 -0.41327217
v 1.5258789E-07 -0.3579042 0.20663601
v 0.17895187 -0.30995423 -0.20663619
v 1.5258789E-07 -0.20663604 0.35790417
v 1.5258789E-07 0 0.41327217
v 0.20663589 -0.35790434 0
v 0.17895249 -0.10331818 -0.3579042
v 1.5258789E-07 0 -0.41327217
v 0.17895187 -0.30995423 0.20663601
v 0.30995408 -0.17895232 -0.20663619
v 0.103318326 -0.17895202 0.35790417
v 1.5258789E-07 0 0.41327217
v 0.3579042 -0.20663635 0
v 0.2066365 0 -0.3579042
v 1.5258789E-07 0 -0.41327217
v 0.30995408 -0.17895232 0.20663604
v 0.3579042 -3.0517577E-07 -0.20663619
v 0.17895187 -0.10331818 0.35790417
v 1.5258789E-07 0 0.41327217
v 0.41327223 -3.0517577E-07 0
v 0.17895249 0.10331787 -0.3579042
v 1.5258789E-07 0 -0.41327217
v 0.3579042 -3.0517577E-07 0.20663604
v 0.30995467 0.17895171 -0.20663619
v 0.2066365 0 0.35790417
v 1.5258789E-07 0 0.41327217
v 0.3579045 0.20663574 0
v 0.103318326 0.17895202 -0.3579042
v 1.5258789E-07 0 -0.41327217
v 0.30995467 0.17895171 0.20663604
v 0.17895249 0.3099539 -0.20663619
v 1.5258789E-07 0.20663604 -0.3579042
v 1.5258789E-07 0 -0.41327217
v 1.5258789E-07 0.35790434 -0.20663619
v 0.2066365 0.35790405 0
v 1.5258789E-07 0.41327208 0
v 0.17895249 0.3099539 0.20663604
v 1.5258789E-07 0.35790434 0.20663604
v 0.17895249 0.10331787 0.35790417
v 1.5258789E-07 0 0.41327217
v 0.103318326 0.17895202 0.35790417
v 1.5258789E-07 0 0.41327217
v 1.5258789E-07 0.20663604 0.35790417
v 1.5258789E-07 0 0.41327217
vt 0.81882054 0.7680761
vt 0.833757 0.7382025
vt 0.81882054 0.7382025
vt 0.833757 0.70832896
vt 0.81882054 0.70832896
vt 0.833757 0.67845565
vt 0.81882054 0.67845565
vt 0.833757 0.6485819
vt 0.81882054 0.6485819
vt 0.833757 0.6187083
vt 0.81882054 0.6187083
vt 0.81882054 0.58883506
vt 0.84869415 0.6187083
vt 0.833757 0.58883506
vt 0.84869415 0.6485819
vt 0.84869415 0.67845565
vt 0.84869415 0.70832896
vt 0.86363083 0.6187083
vt 0.84869415 0.58883506
vt 0.86363083 0.6485819
vt 0.84869415 0.7382025
vt 0.833757 0.7680761
vt 0.86363083 0.67845565
vt 0.87856734 0.6187083
vt 0.86363083 0.58883506
vt 0.86363083 0.70832896
vt 0.87856734 0.6485819
vt 0.86363083 0.7382025
vt 0.84869415 0.7680761
vt 0.87856734 0.67845565
vt 0.8935042 0.6187083
vt 0.87856734 0.58883506
vt 0.87856734 0.70832896
vt 0.8935042 0.6485819
vt 0.87856734 0.7382025
vt 0.86363083 0.7680761
vt 0.8935042 0.67845565
vt 0.9084411 0.6187083
vt 0.8935042 0.58883506
vt 0.8935042 0.70832896
vt 0.9084411 0.6485819
vt 0.8935042 0.7382025
vt 0.87856734 0.7680761
vt 0.9084411 0.67845565
vt 0.9233779 0.6187083
vt 0.9084411 0.58883506
vt 0.9084411 0.70832896
vt 0.9233779 0.6485819
vt 0.9084411 0.7382025
vt 0.8935042 0.7680761
vt 0.9233779 0.67845565
vt 0.938315 0.6187083
vt 0.9233779 0.58883506
vt 0.9233779 0.70832896
vt 0.938315 0.6485819
vt 0.9233779 0.7382025
vt 0.9084411 0.7680761
vt 0.938315 0.67845565
vt 0.9532514 0.6187083
vt 0.938315 0.58883506
vt 0.938315 0.70832896
vt 0.9532514 0.6485819
vt 0.938315 0.7382025
vt 0.9233779 0.7680761
vt 0.9532514 0.67845565
vt 0.96818835 0.6187083
vt 0.9532514 0.58883506
vt 0.9532514 0.70832896
vt 0.96818835 0.6485819
vt 0.9532514 0.7382025
vt 0.938315 0.7680761
vt 0.96818835 0.67845565
vt 0.98312515 0.6187083
vt 0.96818835 0.58883506
vt 0.96818835 0.70832896
vt 0.98312515 0.6485819
vt 0.9980617 0.6187083
vt 0.98312515 0.58883506
vt 0.9980617 0.6485819
vt 0.98312515 0.67845565
vt 0.9980617 0.67845565
vt 0.98312515 0.70832896
vt 0.9980617 0.70832896
vt 0.96818835 0.7382025
vt 0.9532514 0.7680761
vt 0.98312515 0.7382025
vt 0.96818835 0.7680761
vt 0.9980617 0.7382025
vt 0.98312515 0.7680761
vn -0 0 1
vn -0.26544955 0.45977265 0.8474347
vn 2.4349265E-07 0.5308997 0.84743464
vn -0.43799138 0.7586237 0.48234168
vn 5.6502773E-07 0.87598324 0.4823416
vn -0.4999999 0.86602545 0
vn 6.8879655E-07 1 0
vn -0.4379915 0.75862384 -0.48234168
vn 7.062846E-07 0.87598324 -0.48234153
vn -0.26544946 0.45977286 -0.84743464
vn 6.0873157E-07 0.53089947 -0.8474348
vn -0 0 -1
vn -0.45977265 0.2654498 -0.8474347
vn -0 0 -1
vn -0.75862366 0.43799162 -0.48234156
vn -0.8660256 0.4999997 0
vn -0.75862366 0.43799165 0.48234162
vn -0.5308997 0 -0.84743464
vn -0 0 -1
vn -0.87598324 2.1450117E-07 -0.48234168
vn -0.4597727 0.26545015 0.8474345
vn -0 0 1
vn -1 2.54325E-07 1.05968745E-07
vn -0.45977244 -0.26544982 -0.8474348
vn -0 0 -1
vn -0.87598324 2.3019635E-07 0.48234153
vn -0.75862366 -0.43799156 -0.48234156
vn -0.5308999 0 0.8474345
vn -0 0 1
vn -0.8660253 -0.50000006 0
vn -0.26544967 -0.45977277 -0.84743464
vn -0 0 -1
vn -0.75862384 -0.43799144 0.48234153
vn -0.43799135 -0.75862384 -0.48234177
vn -0.4597726 -0.26544973 0.8474347
vn -0 0 1
vn -0.49999985 -0.8660255 -2.5962336E-07
vn -1.0652805E-07 -0.5308998 -0.84743464
vn -0 0 -1
vn -0.43799144 -0.7586239 0.48234144
vn -2.6158673E-07 -0.8759831 -0.48234177
vn -0.2654497 -0.4597727 0.84743464
vn -0 0 1
vn -1.6425152E-07 -1 -2.2783276E-07
vn 0.2654496 -0.45977286 -0.84743464
vn -0 0 -1
vn -0 -0.87598324 0.48234153
vn 0.4379908 -0.75862414 -0.48234168
vn 1.268191E-07 -0.5308999 0.8474345
vn -0 0 1
vn 0.49999934 -0.8660258 0
vn 0.45977277 -0.2654504 -0.8474344
vn -0 0 -1
vn 0.43799114 -0.75862396 0.4823417
vn 0.7586234 -0.43799224 -0.48234147
vn 0.2654503 -0.45977283 0.84743446
vn -0 0 1
vn 0.8660251 -0.5000007 0
vn 0.53090006 -2.5237006E-07 -0.8474344
vn -0 0 -1
vn 0.75862324 -0.43799227 0.48234165
vn 0.8759834 -9.626391E-07 -0.48234132
vn 0.4597723 -0.26545057 0.84743464
vn -0 0 1
vn 1 -1.0649856E-06 0
vn 0.45977274 0.26544964 -0.8474347
vn -0 0 -1
vn 0.87598324 -1.2713114E-06 0.48234153
vn 0.7586244 0.4379908 -0.48234144
vn 0.53090036 -1.0246989E-06 0.8474343
vn -0 0 1
vn 0.86602587 0.49999914 0
vn 0.26545 0.45977256 -0.84743464
vn -0 0 -1
vn 0.7586244 0.4379908 0.48234144
vn 0.43799216 0.7586234 -0.48234168
vn 6.0873157E-07 0.53089947 -0.8474348
vn -0 0 -1
vn 7.062846E-07 0.87598324 -0.48234153
vn 0.50000054 0.8660251 0
vn 6.8879655E-07 1 0
vn 0.43799216 0.7586234 0.4823416
vn 5.6502773E-07 0.87598324 0.4823416
vn 0.45977288 0.26544976 0.8474345
vn -0 0 1
vn 0.26545012 0.45977274 0.8474345
vn -0 0 1
vn 2.4349265E-07 0.5308997 0.84743464
vn -0 0 1
g meshVoidScrollSphere_0
f 3/3/3 2/2/2 1/1/1
f 4/4/4 2/2/2 3/3/3
f 5/5/5 4/4/4 3/3/3
f 6/6/6 4/4/4 5/5/5
f 7/7/7 6/6/6 5/5/5
f 8/8/8 6/6/6 7/7/7
f 9/9/9 8/8/8 7/7/7
f 10/10/10 8/8/8 9/9/9
f 11/11/11 10/10/10 9/9/9
f 10/10/10 11/11/11 12/12/12
f 10/10/10 13/13/13 8/8/8
f 13/13/13 10/10/10 14/14/14
f 8/8/8 15/15/15 6/6/6
f 13/13/13 15/15/15 8/8/8
f 6/6/6 16/16/16 4/4/4
f 15/15/15 16/16/16 6/6/6
f 4/4/4 17/17/17 2/2/2
f 16/16/16 17/17/17 4/4/4
f 13/13/13 18/18/18 15/15/15
f 18/18/18 13/13/13 19/19/19
f 15/15/15 20/20/20 16/16/16
f 18/18/18 20/20/20 15/15/15
f 17/17/17 21/21/21 2/2/2
f 2/2/2 21/21/21 22/22/22
f 16/16/16 23/23/23 17/17/17
f 20/20/20 23/23/23 16/16/16
f 18/18/18 24/24/24 20/20/20
f 24/24/24 18/18/18 25/25/25
f 17/17/17 26/26/26 21/21/21
f 23/23/23 26/26/26 17/17/17
f 20/20/20 27/27/27 23/23/23
f 24/24/24 27/27/27 20/20/20
f 26/26/26 28/28/28 21/21/21
f 21/21/21 28/28/28 29/29/29
f 23/23/23 30/30/30 26/26/26
f 27/27/27 30/30/30 23/23/23
f 24/24/24 31/31/31 27/27/27
f 31/31/31 24/24/24 32/32/32
f 26/26/26 33/33/33 28/28/28
f 30/30/30 33/33/33 26/26/26
f 27/27/27 34/34/34 30/30/30
f 31/31/31 34/34/34 27/27/27
f 33/33/33 35/35/35 28/28/28
f 28/28/28 35/35/35 36/36/36
f 30/30/30 37/37/37 33/33/33
f 34/34/34 37/37/37 30/30/30
f 31/31/31 38/38/38 34/34/34
f 38/38/38 31/31/31 39/39/39
f 33/33/33 40/40/40 35/35/35
f 37/37/37 40/40/40 33/33/33
f 34/34/34 41/41/41 37/37/37
f 38/38/38 41/41/41 34/34/34
f 40/40/40 42/42/42 35/35/35
f 35/35/35 42/42/42 43/43/43
f 37/37/37 44/44/44 40/40/40
f 41/41/41 44/44/44 37/37/37
f 38/38/38 45/45/45 41/41/41
f 45/45/45 38/38/38 46/46/46
f 40/40/40 47/47/47 42/42/42
f 44/44/44 47/47/47 40/40/40
f 41/41/41 48/48/48 44/44/44
f 45/45/45 48/48/48 41/41/41
f 47/47/47 49/49/49 42/42/42
f 42/42/42 49/49/49 50/50/50
f 44/44/44 51/51/51 47/47/47
f 48/48/48 51/51/51 44/44/44
f 45/45/45 52/52/52 48/48/48
f 52/52/52 45/45/45 53/53/53
f 47/47/47 54/54/54 49/49/49
f 51/51/51 54/54/54 47/47/47
f 48/48/48 55/55/55 51/51/51
f 52/52/52 55/55/55 48/48/48
f 54/54/54 56/56/56 49/49/49
f 49/49/49 56/56/56 57/57/57
f 51/51/51 58/58/58 54/54/54
f 55/55/55 58/58/58 51/51/51
f 52/52/52 59/59/59 55/55/55
f 59/59/59 52/52/52 60/60/60
f 54/54/54 61/61/61 56/56/56
f 58/58/58 61/61/61 54/54/54
f 55/55/55 62/62/62 58/58/58
f 59/59/59 62/62/62 55/55/55
f 61/61/61 63/63/63 56/56/56
f 56/56/56 63/63/63 64/64/64
f 58/58/58 65/65/65 61/61/61
f 62/62/62 65/65/65 58/58/58
f 59/59/59 66/66/66 62/62/62
f 66/66/66 59/59/59 67/67/67
f 61/61/61 68/68/68 63/63/63
f 65/65/65 68/68/68 61/61/61
f 62/62/62 69/69/69 65/65/65
f 66/66/66 69/69/69 62/62/62
f 68/68/68 70/70/70 63/63/63
f 63/63/63 70/70/70 71/71/71
f 65/65/65 72/72/72 68/68/68
f 69/69/69 72/72/72 65/65/65
f 66/66/66 73/73/73 69/69/69
f 73/73/73 66/66/66 74/74/74
f 68/68/68 75/75/75 70/70/70
f 72/72/72 75/75/75 68/68/68
f 69/69/69 76/76/76 72/72/72
f 73/73/73 76/76/76 69/69/69
f 73/73/73 77/77/77 76/76/76
f 77/77/77 73/73/73 78/78/78
f 77/77/77 79/79/79 76/76/76
f 76/76/76 80/80/80 72/72/72
f 76/76/76 79/79/79 80/80/80
f 72/72/72 80/80/80 75/75/75
f 79/79/79 81/81/81 80/80/80
f 80/80/80 81/81/81 82/82/82
f 80/80/80 82/82/82 75/75/75
f 81/81/81 83/83/83 82/82/82
f 75/75/75 84/84/84 70/70/70
f 75/75/75 82/82/82 84/84/84
f 70/70/70 84/84/84 85/85/85
f 82/82/82 83/83/83 86/86/86
f 82/82/82 86/86/86 84/84/84
f 84/84/84 86/86/86 87/87/87
f 83/83/83 88/88/88 86/86/86
f 86/86/86 88/88/88 89/89/89
