g meshVoidCrystalMD1
v 0.66239166 -1.8488659 3.045647
v -0.03347103 0.0021947015 4.4474716
v 1.4288883 -3.799362E-07 3.045647
v -0.03347103 0.0021947015 4.4474716
v 0.66239166 -1.8488659 3.045647
v -0.6677755 -1.7611271 3.0456488
v -0.5506822 -1.1034838 3.5623486
v -0.033471413 0.0021937515 4.4474716
v -0.6677755 -1.7611271 3.0456488
v -0.033471413 0.0021937515 4.4474716
v -0.03347103 0.0021947015 4.4474716
v -0.03347103 0.0021947015 4.4474716
v 0.66239166 1.8488652 3.045647
v 1.4288883 -3.799362E-07 3.045647
v -0.3954839 0.0016990746 4.1310153
v -0.3779251 0.7584122 3.8810973
v -0.03347103 0.0021947015 4.4474716
v 0.66239166 -1.8488659 3.045647
v -0.8649107 -1.817257 1.6528448
v -0.6677755 -1.7611271 3.0456488
v 0.04074417 -0.34939066 -4.447472
v -0.17396954 0.34939048 -4.447472
v -0.1689482 -0.34939066 -4.447472
v 0.18559334 -1.899681E-07 -4.447472
v 0.04074417 0.34939048 -4.447472
v 0.08680641 0.46049675 -4.345102
v 1.1651467 0.6361718 -3.0658982
v 0.66239196 1.8488655 -3.0658977
v 0.04074417 0.34939048 -4.447472
v 1.0266932 -1.899681E-07 -3.512826
v 0.18559334 -1.899681E-07 -4.447472
v 0.04074417 -0.34939066 -4.447472
v 1.0266932 -1.899681E-07 -3.512826
v 0.18559334 -1.899681E-07 -4.447472
v 1.0409864 -0.9356579 -3.0658982
v 0.66239166 -1.8488659 -3.0658977
v 0.66239196 1.8488655 -3.0658977
v -0.87060195 1.8488659 -1.0287151
v -0.87060195 1.8488655 -3.0658975
v 0.66239196 1.8488655 -1.0287164
v -0.87060195 1.8488659 -0.212052
v 0.66239166 1.8488652 1.0084655
v -0.70124704 1.8488655 1.0084661
v 0.66239166 1.8488655 1.0084667
v -0.5214207 1.8488655 2.3044493
v 0.66239166 1.8488652 3.045647
v -0.41857436 1.8488659 3.04565
v -0.87060195 1.8488655 -3.0658975
v -1.0065571 1.5209285 -1.0287158
v -1.3457004 0.70288163 -3.0658975
v -0.87060195 1.8488659 -1.0287151
v -0.87060195 1.8488659 -0.212052
v -0.8706018 -1.8488659 -3.0658975
v 0.66239166 -1.8488659 -1.0287158
v 0.66239166 -1.8488659 -3.0658977
v -0.8706018 -1.8488659 -1.0287158
v 0.66239166 -1.8488659 1.0084655
v -0.8706018 -1.8488659 1.0084661
v -0.8649107 -1.817257 1.6528448
v 0.66239166 -1.8488659 3.045647
v 0.66239166 -1.8488659 -3.0658977
v 1.4288886 -1.899681E-07 -1.4748584
v 1.0409864 -0.9356579 -3.0658982
v 0.66239166 -1.8488659 -1.0287158
v 1.4288886 -3.799362E-07 -1.0287164
v 1.4288883 -3.799362E-07 1.0084655
v 0.66239166 -1.8488659 1.0084655
v 1.4288883 -3.799362E-07 3.045647
v 0.66239166 -1.8488659 3.045647
v 0.66239166 1.8488652 3.045647
v 0.66239166 1.8488655 1.0084667
v 0.66239166 1.8488652 1.0084655
v 1.4288883 -3.799362E-07 3.045647
v 1.4288883 -3.799362E-07 1.0084655
v 1.4288886 -3.799362E-07 -1.0287164
v 0.66239196 1.8488655 -1.0287164
v 1.4288886 -1.899681E-07 -1.4748584
v 0.66239196 1.8488655 -3.0658977
v 1.1651467 0.6361718 -3.0658982
v 0.66239166 1.8488652 3.045647
v -0.03347103 0.0021947015 4.4474716
v -0.3779251 0.7584122 3.8810973
v -0.41857436 1.8488659 3.04565
v 1.1651467 0.6361718 -3.0658982
v 1.0266932 -1.899681E-07 -3.512826
v 1.0409864 -0.9356579 -3.0658982
v 1.4288886 -1.899681E-07 -1.4748584
v 0.08680641 0.46049675 -4.345102
v -0.17396954 0.34939048 -4.447472
v 0.04074417 0.34939048 -4.447472
v -0.20574883 0.36368728 -4.434299
v 0.66239196 1.8488655 -3.0658977
v -0.87060195 1.8488655 -3.0658975
v -0.2661463 0.39085954 -4.4092636
v -0.5267748 -1.899681E-07 -4.2997117
v -0.2661463 0.39085954 -4.4092636
v -0.87060195 1.8488655 -3.0658975
v -1.3457004 0.70288163 -3.0658975
v -1.4266671 -1.899681E-07 -3.2997332
v -0.8706018 -1.8488659 -3.0658975
v -0.26744437 -0.393991 -4.4063783
v -0.5267748 -1.899681E-07 -4.2997117
v -1.4288898 -0.5022209 -3.0658975
v -1.4266671 -1.899681E-07 -3.2997332
v -0.1689482 -0.34939066 -4.447472
v -0.26744437 -0.393991 -4.4063783
v -0.8706018 -1.8488659 -3.0658975
v 0.66239166 -1.8488659 -3.0658977
v 0.04074417 -0.34939066 -4.447472
v -0.26744437 -0.393991 -4.4063783
v -0.1689482 -0.34939066 -4.447472
v -0.17396954 0.34939048 -4.447472
v -0.20574883 0.36368728 -4.434299
v -0.2661463 0.39085954 -4.4092636
v -0.5267748 -1.899681E-07 -4.2997117
v -0.8706018 -1.8488659 -3.0658975
v -1.4288898 -0.5022209 -3.0658975
v -1.1865661 -1.0867293 -1.0287158
v -0.8706018 -1.8488659 -1.0287158
v -0.94424266 -1.6712371 1.0084667
v -0.8706018 -1.8488659 1.0084661
v -0.8649107 -1.817257 1.6528448
v -0.033471413 0.0021937515 4.4474716
v -0.5506822 -1.1034838 3.5623486
v -0.3954839 0.0016990746 4.1310153
v -0.03347103 0.0021947015 4.4474716
v -0.5506822 -1.1034838 3.5623486
v -0.3779251 0.7584122 3.8810973
v -0.3954839 0.0016990746 4.1310153
v -0.41857436 1.8488659 3.04565
v -0.5214207 1.8488655 2.3044493
v -0.6677755 -1.7611271 3.0456488
v -0.8649107 -1.817257 1.6528448
v -0.70124704 1.8488655 1.0084661
v -0.94424266 -1.6712371 1.0084667
v -0.87060195 1.8488659 -0.212052
v -1.0065571 1.5209285 -1.0287158
v -1.1865661 -1.0867293 -1.0287158
v -1.3457004 0.70288163 -3.0658975
v -1.4288898 -0.5022209 -3.0658975
v -1.4266671 -1.899681E-07 -3.2997332
vt 0.5833333 0.8000001
vt 0.54250425 0.9991643
vt 0.75 0.8000001
vt 0.54250425 0.9991643
vt 0.5833333 0.8000001
vt 0.43700048 0.8000001
vt 0.4630494 0.87341034
vt 0.5425042 0.99916416
vt 0.43700048 0.8000001
vt 0.5425042 0.99916416
vt 0.54250425 0.9991643
vt 0.54250425 0.9991643
vt 0.9166667 0.8000001
vt 0.75 0.8000001
vt 0.47647253 0.9542037
vt 0.34390682 0.9186907
vt 0.54250425 0.9991643
vt 0.5833333 0.8000001
vt 0.4166667 0.6632618
vt 0.43700048 0.8000001
vt 0.33333337 0
vt 0.73137593 0
vt 0.15237582 0
vt 0.75 0
vt 0.9166667 0
vt 0.9166667 0.014819369
vt 0.807348 0.20000002
vt 0.9166667 0.20000002
vt 0.9166667 0
vt 0.75 0.1353017
vt 0.75 0
vt 0.5833333 0
vt 0.75 0.1353017
vt 0.75 0
vt 0.6656548 0.20000002
vt 0.5833333 0.20000002
vt -0.08333331 0.20000002
vt 0.08333335 0.40000004
vt 0.08333335 0.20000002
vt -0.08333331 0.40000004
vt 0.08333334 0.48017576
vt -0.08333331 0.6
vt 0.06492111 0.6
vt -0.08333331 0.60000014
vt 0.045370445 0.727233
vt -0.08333331 0.8000001
vt 0.034189023 0.8000001
vt 0.08333335 0.20000002
vt 0.112895384 0.40000004
vt 0.1866385 0.20000002
vt 0.08333335 0.40000004
vt 0.08333334 0.48017576
vt 0.4166667 0.20000002
vt 0.5833333 0.40000004
vt 0.5833333 0.20000002
vt 0.4166667 0.40000004
vt 0.5833333 0.6
vt 0.4166667 0.6
vt 0.4166667 0.6632618
vt 0.5833333 0.8000001
vt 0.5833333 0.20000002
vt 0.75 0.35620013
vt 0.6656548 0.20000002
vt 0.5833333 0.40000004
vt 0.75 0.40000004
vt 0.75 0.6
vt 0.5833333 0.6
vt 0.75 0.8000001
vt 0.5833333 0.8000001
vt 0.9166667 0.8000001
vt 0.9166667 0.60000014
vt 0.9166667 0.6
vt 0.75 0.8000001
vt 0.75 0.6
vt 0.75 0.40000004
vt 0.9166667 0.40000004
vt 0.75 0.35620013
vt 0.9166667 0.20000002
vt 0.807348 0.20000002
vt -0.08333331 0.8000001
vt 1.8626451E-08 1
vt 0.03604278 0.9191649
vt 0.034189023 0.8000001
vt 0.807348 0.20000002
vt 0.75 0.1353017
vt 0.6656548 0.20000002
vt 0.75 0.35620013
vt -0.08333331 0.014819369
vt 0.040193863 0
vt -0.08333331 0
vt 0.06188686 0.0019069412
vt -0.08333331 0.20000002
vt 0.08333335 0.20000002
vt 0.08333336 0.0055311373
vt 0.25000003 0.021390166
vt 0.08333336 0.0055311373
vt 0.08333335 0.20000002
vt 0.1866385 0.20000002
vt 0.25000003 0.1661494
vt 0.4166667 0.20000002
vt 0.4166667 0.005948809
vt 0.25000003 0.021390166
vt 0.2952729 0.20000002
vt 0.25000003 0.1661494
vt 0.46269494 0
vt 0.4166667 0.005948809
vt 0.4166667 0.20000002
vt 0.5833333 0.20000002
vt 0.5833333 0
vt 0.4166667 0.005948809
vt 0.15237582 0
vt 0.040193863 0
vt 0.06188686 0.0019069412
vt 0.08333336 0.0055311373
vt 0.25000003 0.021390166
vt 0.4166667 0.20000002
vt 0.2952729 0.20000002
vt 0.3479636 0.40000004
vt 0.4166667 0.40000004
vt 0.4006543 0.6
vt 0.4166667 0.6
vt 0.4166667 0.6632618
vt 0.5425042 0.99916416
vt 0.4630494 0.87341034
vt 0.47647253 0.9542037
vt 0.54250425 0.9991643
vt 0.4630494 0.87341034
vt 0.34390682 0.9186907
vt 0.47647253 0.9542037
vt 0.034189023 0.8000001
vt 0.045370445 0.727233
vt 0.43700048 0.8000001
vt 0.4166667 0.6632618
vt 0.06492111 0.6
vt 0.4006543 0.6
vt 0.08333334 0.48017576
vt 0.112895384 0.40000004
vt 0.3479636 0.40000004
vt 0.1866385 0.20000002
vt 0.2952729 0.20000002
vt 0.25000003 0.1661494
vn 0.6649755 -0.2756834 0.6941226
vn 0.6649755 -0.2756834 0.6941226
vn 0.6649755 -0.2756834 0.6941226
vn -0.040422346 -0.61284214 0.78917074
vn -0.04042235 -0.6128421 0.7891708
vn -0.04042235 -0.61284214 0.7891708
vn -0.04042235 -0.61284214 0.78917074
vn -0.04042235 -0.6128421 0.7891708
vn -0.04042235 -0.61284214 0.7891708
vn -0.04042235 -0.6128421 0.7891708
vn -0.040422346 -0.61284214 0.78917074
vn 0.66537416 0.27584866 0.69367486
vn 0.66537416 0.2758487 0.6936748
vn 0.66537416 0.2758487 0.69367486
vn -0.6365614 0.25513998 0.7278003
vn -0.63656133 0.25513998 0.72780025
vn -0.6365614 0.25513998 0.7278003
vn -0.06573707 -0.9966101 0.04946764
vn -0.06573707 -0.9966101 0.04946765
vn -0.06573707 -0.9966101 0.049467646
vn -0 0 -1
vn -0 0 -1
vn -0 0 -1
vn -0 0 -1
vn -0 0 -1
vn 0.71036124 0.29449958 -0.63926286
vn 0.71036124 0.29449958 -0.63926286
vn 0.71036124 0.29449958 -0.63926286
vn 0.71036136 0.29449937 -0.63926286
vn 0.71036136 0.29449937 -0.63926286
vn 0.71036136 0.2944993 -0.63926286
vn 0.7103613 -0.29449964 -0.6392628
vn 0.7103613 -0.29449967 -0.6392628
vn 0.7103613 -0.2944996 -0.6392628
vn 0.7103613 -0.29449964 -0.6392628
vn 0.7103613 -0.29449952 -0.6392628
vn 1.4930376E-07 1 -1.123522E-07
vn 1.4930376E-07 1 -1.123522E-07
vn 1.4930376E-07 1 -1.123522E-07
vn 1.4930376E-07 1 -1.1235219E-07
vn 2.9860763E-07 1 0
vn -0 1 -2.3547798E-07
vn -0 1 -2.3547797E-07
vn -0 1 -2.3547798E-07
vn -0 1 -2.3547797E-07
vn 2.991088E-07 1 0
vn 2.9910876E-07 1 0
vn -0.9237609 0.38296986 0
vn -0.9237609 0.3829699 0
vn -0.9237609 0.3829699 0
vn -0.9237609 0.38296986 0
vn -0.9237609 0.38296968 0
vn -0 -1 0
vn -0 -1 0
vn -0 -1 0
vn -0 -1 0
vn -0 -1 0
vn -0 -1 0
vn -0.015705569 -0.9998068 0.011818553
vn -0.015705569 -0.9998068 0.011818554
vn 0.9237609 -0.3829698 0
vn 0.9237609 -0.3829698 0
vn 0.9237609 -0.3829698 0
vn 0.9237609 -0.38296986 0
vn 0.9237609 -0.3829699 0
vn 0.9237609 -0.3829699 0
vn 0.9237609 -0.3829699 0
vn 0.9237609 -0.38296977 0
vn 0.9237609 -0.38296977 0
vn 0.9237609 0.38296983 0
vn 0.9237609 0.3829698 0
vn 0.9237609 0.38296968 1.317307E-07
vn 0.9237609 0.38296977 0
vn 0.9237609 0.38296968 1.317307E-07
vn 0.9237609 0.3829697 1.317307E-07
vn 0.9237609 0.3829697 1.317307E-07
vn 0.9237609 0.38296968 1.0936571E-07
vn 0.9237609 0.3829698 0
vn 0.9237609 0.3829698 0
vn 0.0048219585 0.60526323 0.79601073
vn 0.004821959 0.60526323 0.7960108
vn 0.004821959 0.60526323 0.79601073
vn 0.004821959 0.60526323 0.7960108
vn 0.97814447 -0.07726455 -0.19303799
vn 0.97814447 -0.07726455 -0.19303797
vn 0.97814447 -0.07726454 -0.19303797
vn 0.97814447 -0.077264555 -0.19303799
vn -6.0296367E-07 0.67760396 -0.73542696
vn -6.0296367E-07 0.67760396 -0.73542696
vn -6.0296367E-07 0.67760396 -0.73542696
vn -6.029637E-07 0.67760396 -0.73542696
vn -4.0986524E-07 0.6776029 -0.735428
vn -1.529105E-07 0.67760277 -0.73542804
vn -1.5291052E-07 0.67760277 -0.73542804
vn -0.7103614 0.2944994 -0.63926274
vn -0.71036136 0.2944994 -0.63926274
vn -0.71036136 0.2944994 -0.63926274
vn -0.71036136 0.29449943 -0.63926274
vn -0.7103615 0.2944993 -0.6392627
vn -0.71036136 -0.29449946 -0.63926274
vn -0.71036136 -0.29449946 -0.63926274
vn -0.7103613 -0.2944995 -0.6392628
vn -0.71036136 -0.29449946 -0.63926274
vn -0.71036154 -0.29449925 -0.6392627
vn -2.6763962E-07 -0.67760277 -0.73542804
vn -2.6763962E-07 -0.67760277 -0.73542804
vn -2.6763962E-07 -0.67760277 -0.73542804
vn -2.6763962E-07 -0.67760277 -0.73542804
vn -0 -0.6776028 -0.735428
vn -0.38397813 -0.002759217 -0.923338
vn -0.3839782 -0.0027592173 -0.923338
vn -0.38397816 -0.0027592175 -0.923338
vn -0.3839782 -0.002759217 -0.923338
vn -0.38397816 -0.002759217 -0.923338
vn -0.38397634 -0.0027591593 -0.92333883
vn -0.9237608 -0.3829699 0
vn -0.9237608 -0.38296995 0
vn -0.9237608 -0.38296995 0
vn -0.9237608 -0.3829699 0
vn -0.9237608 -0.38297006 0
vn -0.9237608 -0.3829701 0
vn -0.92342544 -0.38283154 0.026934717
vn -0.63101333 -0.28304142 0.72229475
vn -0.63101333 -0.28304142 0.72229475
vn -0.63101333 -0.28304142 0.72229475
vn -0.6310132 -0.2830414 0.72229475
vn -0.98820275 0.068216585 0.13712011
vn -0.98820275 0.068216585 0.13712013
vn -0.98820275 0.06821658 0.1371201
vn -0.98820275 0.06821658 0.13712013
vn -0.98820275 0.06821647 0.13711958
vn -0.98820275 0.06821648 0.13711958
vn -0.98820275 0.06821649 0.13711958
vn -0.98820275 0.06821649 0.13711958
vn -0.98820275 0.068216495 0.13711973
vn -0.98820275 0.068216495 0.13711973
vn -0.98820275 0.0682165 0.13711959
vn -0.98820275 0.06821651 0.13711959
vn -0.98820287 0.068216585 0.13711938
vn -0.98820287 0.06821659 0.13711938
vn -0.98820287 0.068216585 0.13711938
g meshVoidCrystalMD1_0
f 3/3/3 2/2/2 1/1/1
f 6/6/6 5/5/5 4/4/4
f 8/8/8 7/7/7 6/6/6
f 11/11/11 10/10/10 9/9/9
f 14/14/14 13/13/13 12/12/12
f 17/17/17 16/16/16 15/15/15
f 20/20/20 19/19/19 18/18/18
f 23/23/23 22/22/22 21/21/21
f 24/24/24 21/21/21 22/22/22
f 25/25/25 24/24/24 22/22/22
f 28/28/28 27/27/27 26/26/26
f 29/29/29 26/26/26 27/27/27
f 29/29/29 27/27/27 30/30/30
f 30/30/30 31/31/31 29/29/29
f 34/34/34 33/33/33 32/32/32
f 33/33/33 35/35/35 32/32/32
f 36/36/36 32/32/32 35/35/35
f 39/39/39 38/38/38 37/37/37
f 38/38/38 40/40/40 37/37/37
f 38/38/38 41/41/41 40/40/40
f 42/42/42 40/40/40 41/41/41
f 43/43/43 42/42/42 41/41/41
f 44/44/44 42/42/42 43/43/43
f 45/45/45 44/44/44 43/43/43
f 44/44/44 45/45/45 46/46/46
f 45/45/45 47/47/47 46/46/46
f 50/50/50 49/49/49 48/48/48
f 49/49/49 51/51/51 48/48/48
f 49/49/49 52/52/52 51/51/51
f 55/55/55 54/54/54 53/53/53
f 54/54/54 56/56/56 53/53/53
f 54/54/54 57/57/57 56/56/56
f 57/57/57 58/58/58 56/56/56
f 59/59/59 58/58/58 57/57/57
f 60/60/60 59/59/59 57/57/57
f 63/63/63 62/62/62 61/61/61
f 62/62/62 64/64/64 61/61/61
f 65/65/65 64/64/64 62/62/62
f 65/65/65 66/66/66 64/64/64
f 66/66/66 67/67/67 64/64/64
f 66/66/66 68/68/68 67/67/67
f 68/68/68 69/69/69 67/67/67
f 72/72/72 71/71/71 70/70/70
f 72/72/72 70/70/70 73/73/73
f 73/73/73 74/74/74 72/72/72
f 72/72/72 74/74/74 75/75/75
f 76/76/76 72/72/72 75/75/75
f 75/75/75 77/77/77 76/76/76
f 78/78/78 76/76/76 77/77/77
f 79/79/79 78/78/78 77/77/77
f 82/82/82 81/81/81 80/80/80
f 83/83/83 82/82/82 80/80/80
f 86/86/86 85/85/85 84/84/84
f 87/87/87 86/86/86 84/84/84
f 90/90/90 89/89/89 88/88/88
f 89/89/89 91/91/91 88/88/88
f 88/88/88 91/91/91 92/92/92
f 93/93/93 92/92/92 91/91/91
f 94/94/94 93/93/93 91/91/91
f 97/97/97 96/96/96 95/95/95
f 98/98/98 97/97/97 95/95/95
f 99/99/99 98/98/98 95/95/95
f 102/102/102 101/101/101 100/100/100
f 103/103/103 102/102/102 100/100/100
f 104/104/104 102/102/102 103/103/103
f 107/107/107 106/106/106 105/105/105
f 108/108/108 107/107/107 105/105/105
f 109/109/109 108/108/108 105/105/105
f 112/112/112 111/111/111 110/110/110
f 110/110/110 113/113/113 112/112/112
f 110/110/110 114/114/114 113/113/113
f 115/115/115 114/114/114 110/110/110
f 118/118/118 117/117/117 116/116/116
f 119/119/119 118/118/118 116/116/116
f 120/120/120 118/118/118 119/119/119
f 121/121/121 120/120/120 119/119/119
f 121/121/121 122/122/122 120/120/120
f 125/125/125 124/124/124 123/123/123
f 126/126/126 125/125/125 123/123/123
f 129/129/129 128/128/128 127/127/127
f 128/128/128 130/130/130 127/127/127
f 130/130/130 131/131/131 127/127/127
f 131/131/131 132/132/132 127/127/127
f 133/133/133 132/132/132 131/131/131
f 134/134/134 133/133/133 131/131/131
f 133/133/133 134/134/134 135/135/135
f 134/134/134 136/136/136 135/135/135
f 136/136/136 137/137/137 135/135/135
f 137/137/137 138/138/138 135/135/135
f 137/137/137 139/139/139 138/138/138
f 139/139/139 140/140/140 138/138/138
f 141/141/141 140/140/140 139/139/139
