g meshVoidFountainBottom
v 1.6888793 1.5418848 0.50539654
v 1.5893148 1.7429415 0.55692303
v 1.7562796 1.5670723 0.5328494
v 1.3942305 1.3438308 0.7449158
v 1.4941261 1.2832991 0.7114918
v 1.5369055 1.2610453 0.76696867
v 1.5369055 1.2610453 0.76696867
v 1.4941261 1.2832991 0.7114918
v 1.6484905 1.2058003 0.72522503
v 1.7093533 1.2777113 0.61754566
v 1.6484905 1.2058003 0.72522503
v 1.5318424 1.330791 0.6135075
v 1.3942305 1.3438308 0.7449158
v 1.3893552 1.3921989 0.6631854
v 1.2109896 1.5317737 0.6368672
v 1.1922497 1.4482919 0.7581918
v 1.0974687 1.6638621 0.69295025
v 1.2903218 1.6222062 0.5575263
v 1.2923273 1.739367 0.5562327
v 1.7093533 1.2777113 0.61754566
v 1.5995544 1.420033 0.53517216
v 1.2903218 1.6222062 0.5575263
v 1.2109896 1.5317737 0.6368672
v 1.5893148 1.7429415 0.55692303
v 1.6888793 1.5418848 0.50539654
v 1.2923273 1.739367 0.5562327
v 0.84575635 -1.6503092 0.49312648
v 0.89491224 -1.286135 0.50436395
v 0.90487415 -1.3942305 0.50436395
v -1.8005916 -1.8005916 -7.6293944E-08
v 1.8005916 -1.8005916 -7.6293944E-08
v 1.8005916 1.8005916 -7.6293944E-08
v -1.8005916 1.8005916 -7.6293944E-08
v -1.8005916 -1.8005916 -7.6293944E-08
v -1.9152892 -1.9152892 0.1742507
v 1.9152892 -1.9152892 0.1742507
v 1.8005916 -1.8005916 -7.6293944E-08
v 1.8005916 -1.8005916 -7.6293944E-08
v 1.9152892 -1.9152892 0.1742507
v 1.9152892 1.9152892 0.1742507
v 1.8005916 1.8005916 -7.6293944E-08
v 1.8005916 1.8005916 -7.6293944E-08
v 1.9152892 1.9152892 0.1742507
v -1.9152892 1.9152892 0.1742507
v -1.8005916 1.8005916 -7.6293944E-08
v -1.8005916 1.8005916 -7.6293944E-08
v -1.9152892 1.9152892 0.1742507
v -1.9152892 -1.9152892 0.1742507
v -1.8005916 -1.8005916 -7.6293944E-08
v -1.9152892 -1.9152892 0.1742507
v -1.8984326 -1.8984326 0.2762808
v 0.7882607 -1.8984326 0.2762808
v 1.9152892 -1.9152892 0.1742507
v 1.8984326 -1.8984326 0.2762808
v 1.8984326 -1.8984326 0.2762808
v 1.8984326 1.8984326 0.2762808
v 1.9152892 1.9152892 0.1742507
v 1.2923273 1.739367 0.5562327
v 1.5893148 1.7429415 0.55692303
v -1.8984326 1.8984326 0.2762808
v 1.8984326 1.8984326 0.2762808
v -1.9152892 1.9152892 0.1742507
v -1.8984326 -1.8984326 0.2762808
v -1.8984326 1.8984326 0.2762808
v -1.6503092 1.6503092 0.7241128
v 1.0974687 1.6638621 0.69295025
v -1.6503092 -1.6503092 0.7241128
v -1.6503092 1.6503092 0.7241128
v -1.5802252 -1.5802252 0.76696867
v -1.5802252 1.5802252 0.76696867
v -1.6503092 -1.6503092 0.7241128
v 0.5890739 -1.7878358 0.47589433
v 0.43246445 -1.6503092 0.7241128
v 0.7882607 -1.8984326 0.2762808
v 0.43246445 -1.6503092 0.7241128
v 0.7882607 -1.7571424 0.2762808
v 0.89491224 -1.286135 0.50436395
v 0.84575635 -1.6503092 0.49312648
v 0.9115608 -1.6503092 0.7241128
v 1.6503092 -1.6503092 0.7241128
v 1.0974687 1.6638621 0.69295025
v -1.5802252 1.5802252 0.76696867
v 1.0949496 1.5870636 0.762787
v 0.27501425 -1.5802252 0.76696867
v 0.43246445 -1.6503092 0.7241128
v -1.5802252 -1.5802252 0.76696867
v 1.7562796 1.5670723 0.5328494
v 1.8984326 1.8984326 0.2762808
v 1.5893148 1.7429415 0.55692303
v 1.7093533 1.2777113 0.61754566
v 1.6503092 -1.6503092 0.7241128
v 1.6484905 1.2058003 0.72522503
v 1.0239099 -1.5802252 0.76696867
v 1.5802252 -1.5802252 0.76696867
v 0.9115608 -1.6503092 0.7241128
v 1.5802252 -1.5802252 0.76696867
v 1.6484905 1.2058003 0.72522503
v 1.5369055 1.2610453 0.76696867
v 0.13385724 -1.3942305 0.50436395
v 0.14189437 -1.3942305 0.76696867
v -1.3942305 -1.3942305 0.76696867
v -1.3942305 -1.3942305 0.50436395
v -1.3942305 1.3942305 0.50436395
v -1.3942305 1.3942305 0.76696867
v 1.1922497 1.4482919 0.7581918
v 1.3942305 1.3942305 0.50436395
v 1.3893552 1.3921989 0.6631854
v 0.44091517 -1.1878508 0.50436395
v -0.85990226 -0.9062419 0.50436395
v 0.85990226 -0.9062419 0.50436395
v -0.9062419 -0.85990226 0.50436395
v -0.9062419 0.85990226 0.50436395
v -0.85990226 0.9062419 0.50436395
v 0.89491224 -1.286135 0.50436395
v 0.85990226 0.9062419 0.50436395
v 0.9062419 -0.85990226 0.50436395
v 1.3942305 -1.3942305 0.50436395
v 0.90487415 -1.3942305 0.50436395
v 1.1257395 -1.3942305 0.76696867
v 0.9062419 0.85990226 0.50436395
v 1.3942305 -1.3942305 0.76696867
v 1.3942305 1.3438308 0.7449158
v 1.3893552 1.3921989 0.6631854
v 1.5369055 1.2610453 0.76696867
v 1.3942305 1.3438308 0.7449158
v 1.5802252 -1.5802252 0.76696867
v 1.0239099 -1.5802252 0.76696867
v 1.1257395 -1.3942305 0.76696867
v 0.9062419 -0.85990226 0.91197324
v 0.9062419 0.85990226 0.91197324
v 0.9062419 0.85990226 0.50436395
v 0.9062419 -0.85990226 0.50436395
v 0.85990226 -0.9062419 0.91197324
v 0.9062419 -0.85990226 0.50436395
v 0.85990226 -0.9062419 0.50436395
v 0.9062419 -0.85990226 0.91197324
v 0.85990226 -0.85990226 0.958313
v -0.85990226 -0.85990226 0.958313
v -0.85990226 -0.9062419 0.91197324
v 0.85990226 -0.9062419 0.50436395
v -0.85990226 -0.9062419 0.50436395
v 0.85990226 0.85990226 0.958313
v 0.85990226 -0.85990226 0.958313
v -0.85990226 0.85990226 0.958313
v -0.85990226 0.9062419 0.91197324
v 0.85990226 0.85990226 0.958313
v 0.85990226 0.9062419 0.91197324
v 0.9062419 0.85990226 0.91197324
v 0.85990226 0.9062419 0.50436395
v 0.9062419 0.85990226 0.50436395
v 0.85990226 -0.85990226 0.958313
v 0.9062419 -0.85990226 0.91197324
v -0.85990226 -0.9062419 0.91197324
v -0.85990226 -0.9062419 0.50436395
v -0.9062419 -0.85990226 0.50436395
v -0.9062419 -0.85990226 0.91197324
v -0.85990226 -0.85990226 0.958313
v -0.85990226 0.85990226 0.958313
v -0.9062419 0.85990226 0.91197324
v -0.9062419 -0.85990226 0.50436395
v -0.9062419 0.85990226 0.50436395
v -0.9062419 0.85990226 0.91197324
v -0.85990226 0.9062419 0.91197324
v -0.9062419 0.85990226 0.50436395
v -0.85990226 0.9062419 0.50436395
v 0.85990226 0.9062419 0.91197324
v -0.85990226 0.9062419 0.91197324
v -0.85990226 0.9062419 0.50436395
v 0.85990226 0.9062419 0.50436395
v 1.7562796 1.5670723 0.5328494
v 1.7093533 1.2777113 0.61754566
v 1.5995544 1.420033 0.53517216
v 1.6888793 1.5418848 0.50539654
v 1.5995544 1.420033 0.53517216
v 1.2923273 1.739367 0.5562327
v 1.2903218 1.6222062 0.5575263
v 1.0949496 1.5870636 0.762787
v 1.0974687 1.6638621 0.69295025
v 1.2109896 1.5317737 0.6368672
v 1.1922497 1.4482919 0.7581918
v 0.27501425 -1.5802252 0.76696867
v -1.5802252 -1.5802252 0.76696867
v -1.3942305 -1.3942305 0.76696867
v 0.14189437 -1.3942305 0.76696867
v -1.3942305 1.3942305 0.76696867
v 1.0949496 1.5870636 0.762787
v 1.1922497 1.4482919 0.7581918
v -1.5802252 1.5802252 0.76696867
v -1.5802252 -1.5802252 0.76696867
v -1.3942305 -1.3942305 0.76696867
v 0.13385724 -1.3942305 0.50436395
v 0.43246445 -1.6503092 0.7241128
v 0.27501425 -1.5802252 0.76696867
v 0.14189437 -1.3942305 0.76696867
v 1.1257395 -1.3942305 0.76696867
v 1.0239099 -1.5802252 0.76696867
v 0.9115608 -1.6503092 0.7241128
v 0.90487415 -1.3942305 0.50436395
v 0.84575635 -1.6503092 0.49312648
v 0.44091517 -1.1878508 0.50436395
v 0.43246445 -1.6503092 0.7241128
v 0.13385724 -1.3942305 0.50436395
v 0.89491224 -1.286135 0.50436395
vt 0.67489654 0.5325366
vt 0.6580442 0.5690397
vt 0.65422744 0.53398275
vt 0.46831647 0.5610609
vt 0.46410617 0.542253
vt 0.47292608 0.5426607
vt 0.47310334 0.5348935
vt 0.46410614 0.542253
vt 0.46709096 0.5149849
vt 0.4541321 0.511436
vt 0.46687573 0.5147257
vt 0.44589764 0.5403995
vt 0.46480805 0.56093884
vt 0.4533368 0.56519526
vt 0.4466258 0.601163
vt 0.4659052 0.59014964
vt 0.44190496 0.6302739
vt 0.4239459 0.5991035
vt 0.42471308 0.6234263
vt 0.44172183 0.5105369
vt 0.42425668 0.5373419
vt 0.4239459 0.5991035
vt 0.44662583 0.601163
vt 0.6580442 0.5690397
vt 0.67489654 0.5325366
vt 0.6739561 0.59070116
vt 0.674733 0
vt 0.8209341 0.038765267
vt 0 0.97443295
vt 1 0
vt 0 0
vt 0 1
vt 1 1
vt 0 0
vt 0 1
vt 1 1
vt 0.94011474 -5.9604645E-08
vt 0 0
vt 0 1
vt 1 1
vt 0.94011474 -5.9604645E-08
vt 0 0
vt 0 1
vt 1 1
vt 0.94011474 -5.9604645E-08
vt 0 0
vt 0 1
vt 1 1
vt 0.94011474 -5.9604645E-08
vt 0 0
vt 0.008800983 0
vt 0.7101816 0
vt 1 0
vt 1 0
vt 1 0.008800983
vt 1 1
vt 1 1
vt 0.88101465 1
vt 0.9595386 1
vt 0 1
vt 0.991199 1
vt 0 1
vt 0 0
vt 0 0.991199
vt 0.13069898 1
vt 0.84904015 1
vt 0 0.13069898
vt 0 1
vt 0 0
vt 0 0.9575329
vt 0 0
vt 0.626019 0
vt 0.5485509 0
vt 0.7076083 0
vt 0.97443306 0.97443295
vt 0.7076083 0
vt 0.8209341 0.038765267
vt 0.674733 0
vt 0.674733 0
vt 0.869301 0
vt 0.8245112 1
vt 0 1
vt 0.81257904 1
vt 0.60455567 0
vt 0.63102525 0
vt 0.042467177 0
vt 1 0.87528837
vt 1 1
vt 0.99999994 0.91084576
vt 1 0.7867186
vt 1 0
vt 1 0.7522341
vt 0.83145124 0
vt 1 0
vt 0.7761788 0
vt 1 0.042467177
vt 1 0.86587656
vt 1 0.89663994
vt 0.548004 0
vt 0.5508863 0
vt 0 0
vt 0 0
vt 0 1
vt 0 1
vt 0.9703218 1
vt 1 1
vt 0.99737734 1
vt 0.65812135 0.07401197
vt 0.19162118 0.17500275
vt 0.8083787 0.17500275
vt 0.17500281 0.19162124
vt 0.17500287 0.8083788
vt 0.19162123 0.8249972
vt 0.8209341 0.038765267
vt 0.8083788 0.8249972
vt 0.8249971 0.19162118
vt 1 0
vt 0.82450664 0
vt 0.9037135 0
vt 0.8249972 0.8083788
vt 1 0
vt 1 0.9819256
vt 1 0.9989071
vt 1 0.88530135
vt 0.99999994 0.8662749
vt 1 0
vt 1 -0.17602402
vt 1 -0.08495342
vt 1 0.025567014
vt 1 0.97443306
vt 1 0.97443306
vt 0.99999994 0.025566954
vt 0.97443306 0
vt 1 0.025566943
vt 0.974433 -7.264316E-08
vt 1 0.025567014
vt 0.97443295 0.025567006
vt 0.025566928 0.025567021
vt 0.025567014 0
vt 0.97443306 0
vt 0.025566954 0
vt 0.97443306 0.97443295
vt 0.97443295 0.025567006
vt 0.025567017 0.97443295
vt 0.025566876 1
vt 0.97443306 0.97443295
vt 0.97443295 1
vt 1 0.97443306
vt 0.97443306 1
vt 1 0.974433
vt 0.97443306 0.025566876
vt 1 0.025567014
vt 0.025567014 0
vt 0.025566943 0
vt -7.264316E-08 0.025566932
vt 0 0.025566932
vt 0.025566928 0.025567021
vt 0.025567017 0.97443295
vt 0 0.97443295
vt 0 0.02556693
vt 0 0.97443295
vt 0 0.97443295
vt 0.025566932 1
vt 0 0.97443306
vt 0.025566932 1
vt 0.97443295 1
vt 0.025566932 1
vt 0.02556693 1
vt 0.97443295 0.99999994
vt 0.6766896 0.516435
vt 0.69562703 0.50614274
vt 0.69937515 0.53289557
vt 0.6748966 0.5325366
vt 0.6993751 0.5328956
vt 0.67674005 0.5907921
vt 0.69869804 0.59374166
vt 0.4648378 0.62492484
vt 0.45164427 0.63094354
vt 0.4466258 0.60116297
vt 0.46642312 0.60393924
vt 1 -0.41298258
vt 1 -1
vt 0.9999998 -0.88229865
vt 0.9999999 -0.39625242
vt 1 0
vt 0.9999999 0.84763134
vt 0.99999994 0.84535605
vt 0.99999905 0
vt 1 -1
vt 0.9999998 -0.88229865
vt 0.025566928 0.025567021
vt 0.97443306 0.97443295
vt 1 0.97443306
vt 0.97443306 0.97443295
vt 0.97443295 0.025567006
vt 0.025566876 1
vt 0.97443306 0.97443295
vt 0 0.97443295
vt 0.97443306 0.97443295
vt 0.65812135 0.07401197
vt 0.97443306 0.97443295
vt 0.548004 0
vt 0.8209341 0.038765267
vn -0.16446042 0.0369695 0.98569065
vn 0.39725816 0.25653297 0.8811224
vn -0.23815858 -0.35010698 0.905928
vn -0.43698072 0.5697769 0.69599
vn 0.46714818 0.8363396 0.28689483
vn 0.5065822 0.86100304 -0.045257706
vn 0.32027406 0.46376324 0.8260437
vn 0.46714818 0.8363396 0.28689483
vn 0.6247255 0.31064165 0.71639365
vn 0.27199477 0.76986957 0.57733846
vn 0.6247255 0.31064165 0.71639365
vn 0.33325312 0.6457157 0.6870179
vn -0.43698072 0.5697769 0.69599
vn -0.27284116 0.42114323 0.8649833
vn 0.57177556 0.43775055 0.693864
vn 0.48258883 0.4811159 0.73187125
vn 0.3779348 0.6628188 0.6464028
vn 0.37682518 0.18827619 0.9069481
vn 0.1600842 0.7561829 0.63447654
vn 0.71044505 0.15219158 0.6870995
vn 0.054795846 0.36070347 0.93106943
vn 0.37682518 0.18827619 0.9069481
vn 0.57177556 0.43775055 0.693864
vn -0.00014603724 0.44534147 0.8953608
vn -0.16446042 0.0369695 0.98569065
vn 0.10208887 -0.023748353 0.9944918
vn -0.73080903 -0.16629203 0.662016
vn 0.06842461 -0.00078368274 0.997656
vn -0.3106387 0.25215024 0.91647357
vn -0.37949768 -0.37949768 -0.8437789
vn 0.37949768 -0.37949768 -0.8437789
vn 0.37949768 0.37949768 -0.8437789
vn -0.37949768 0.37949768 -0.8437789
vn -0.37949768 -0.37949768 -0.8437789
vn -0.6903695 -0.6903695 -0.21628654
vn 0.69036955 -0.6903695 -0.21628655
vn 0.37949768 -0.37949768 -0.8437789
vn 0.37949768 -0.37949768 -0.8437789
vn 0.69036955 -0.6903695 -0.21628655
vn 0.6903695 0.6903695 -0.21628654
vn 0.37949768 0.37949768 -0.8437789
vn 0.37949768 0.37949768 -0.8437789
vn 0.6903695 0.6903695 -0.21628654
vn -0.6903695 0.6903695 -0.21628654
vn -0.37949768 0.37949768 -0.8437789
vn -0.37949768 0.37949768 -0.8437789
vn -0.6903695 0.6903695 -0.21628654
vn -0.6903695 -0.6903695 -0.21628654
vn -0.37949768 -0.37949768 -0.8437789
vn -0.6903695 -0.6903695 -0.21628654
vn -0.6486652 -0.64866513 0.39807907
vn -0.03257887 -0.8914898 0.45186767
vn 0.69036955 -0.6903695 -0.21628655
vn 0.64847255 -0.6486472 0.39842227
vn 0.64847255 -0.6486472 0.39842227
vn 0.6408887 0.63928825 0.42493808
vn 0.6903695 0.6903695 -0.21628654
vn 0.1600842 0.7561829 0.63447654
vn -0.00014603724 0.44534147 0.8953608
vn -0.6485105 0.6487142 0.39825132
vn 0.6408887 0.63928825 0.42493808
vn -0.6903695 0.6903695 -0.21628654
vn -0.6486652 -0.64866513 0.39807907
vn -0.6485105 0.6487142 0.39825132
vn -0.47646987 0.49294582 0.72799784
vn 0.3779348 0.6628188 0.6464028
vn -0.47701782 -0.47701782 0.7381789
vn -0.47646987 0.49294582 0.72799784
vn -0.20808305 -0.2080831 0.95572114
vn -0.20987709 0.24501628 0.9465298
vn -0.47701782 -0.47701782 0.7381789
vn 0.380295 -0.6471768 0.6607102
vn 0.23485722 -0.3103487 0.92115456
vn -0.03257887 -0.8914898 0.45186767
vn 0.23485722 -0.3103487 0.92115456
vn -0.117589936 -0.3139037 0.94214493
vn 0.06842461 -0.00078368274 0.997656
vn -0.73080903 -0.16629203 0.662016
vn -0.6135427 -0.3054028 0.72821325
vn 0.45915115 -0.47700155 0.7494329
vn 0.0028747772 0.60954183 0.7927487
vn -0.20987709 0.24501628 0.9465298
vn 0.31610376 0.37712035 0.87055075
vn 0.4227974 0.118957065 0.8983828
vn 0.23485722 -0.3103487 0.92115456
vn -0.20808305 -0.2080831 0.95572114
vn 0.6043314 0.20767808 0.7691901
vn 0.6408887 0.63928825 0.42493808
vn 0.39725816 0.25653297 0.8811224
vn 0.71044505 0.15219158 0.6870995
vn 0.45915115 -0.47700155 0.7494329
vn 0.6247255 0.31064165 0.71639365
vn -0.32977578 -0.034765866 0.943419
vn 0.15975833 -0.20422925 0.9657989
vn -0.6135427 -0.3054028 0.72821325
vn 0.15975833 -0.20422925 0.9657989
vn 0.6247255 0.31064165 0.71639365
vn 0.32027406 0.46376324 0.8260437
vn 0.06543904 0.6002729 0.79711366
vn 0.27903137 0.71178067 0.6446004
vn 0.30151132 0.30151132 0.90453404
vn 0.57735 0.57735014 0.57735074
vn 0.5615168 -0.5525781 0.61591905
vn 0.29743385 -0.29614034 0.9076531
vn -0.039115496 -0.99543035 0.08711166
vn -0.60640424 -0.54832834 0.57585573
vn -0.27284116 0.42114323 0.8649833
vn -0.025678843 0.16537714 0.98589605
vn -0.22745827 -0.5491329 0.8041864
vn 0.22745827 -0.5491329 0.80418646
vn -0.5491329 -0.2274583 0.8041864
vn -0.5491329 0.2274583 0.8041864
vn -0.2274583 0.5491329 0.8041864
vn 0.06842461 -0.00078368274 0.997656
vn 0.2274583 0.5491329 0.8041864
vn 0.5491329 -0.2274583 0.8041864
vn -0.57735026 0.57735026 0.5773502
vn -0.3106387 0.25215024 0.91647357
vn -0.20089036 0.69132054 0.6940597
vn 0.5491329 0.2274583 0.8041864
vn -0.3262836 0.30059183 0.8962051
vn -0.43698072 0.5697769 0.69599
vn -0.27284116 0.42114323 0.8649833
vn 0.32027406 0.46376324 0.8260437
vn -0.43698072 0.5697769 0.69599
vn 0.15975833 -0.20422925 0.9657989
vn -0.32977578 -0.034765866 0.943419
vn -0.20089036 0.69132054 0.6940597
vn 0.8755787 -0.34158596 0.34158596
vn 0.87557864 0.341586 0.341586
vn 0.5491329 0.2274583 0.8041864
vn 0.5491329 -0.2274583 0.8041864
vn 0.341586 -0.87557864 0.341586
vn 0.5491329 -0.2274583 0.8041864
vn 0.22745827 -0.5491329 0.80418646
vn 0.8755787 -0.34158596 0.34158596
vn 0.34158596 -0.34158596 0.8755787
vn -0.34158596 -0.34158596 0.8755787
vn -0.34158596 -0.8755787 0.34158596
vn 0.22745827 -0.5491329 0.80418646
vn -0.22745827 -0.5491329 0.8041864
vn 0.34158596 0.34158596 0.8755787
vn 0.34158596 -0.34158596 0.8755787
vn -0.34158596 0.34158596 0.8755787
vn -0.341586 0.87557864 0.341586
vn 0.34158596 0.34158596 0.8755787
vn 0.34158596 0.8755787 0.34158596
vn 0.87557864 0.341586 0.341586
vn 0.2274583 0.5491329 0.8041864
vn 0.5491329 0.2274583 0.8041864
vn 0.34158596 -0.34158596 0.8755787
vn 0.8755787 -0.34158596 0.34158596
vn -0.34158596 -0.8755787 0.34158596
vn -0.22745827 -0.5491329 0.8041864
vn -0.5491329 -0.2274583 0.8041864
vn -0.87557864 -0.341586 0.341586
vn -0.34158596 -0.34158596 0.8755787
vn -0.34158596 0.34158596 0.8755787
vn -0.8755787 0.34158596 0.34158596
vn -0.5491329 -0.2274583 0.8041864
vn -0.5491329 0.2274583 0.8041864
vn -0.8755787 0.34158596 0.34158596
vn -0.341586 0.87557864 0.341586
vn -0.5491329 0.2274583 0.8041864
vn -0.2274583 0.5491329 0.8041864
vn 0.34158596 0.8755787 0.34158596
vn -0.341586 0.87557864 0.341586
vn -0.2274583 0.5491329 0.8041864
vn 0.2274583 0.5491329 0.8041864
vn 0.6043314 0.20767808 0.7691901
vn 0.71044505 0.15219158 0.6870995
vn 0.054795846 0.36070347 0.93106943
vn -0.16446042 0.0369695 0.98569065
vn 0.054795846 0.36070347 0.93106943
vn 0.10208887 -0.023748353 0.9944918
vn 0.37682518 0.18827619 0.9069481
vn 0.31610376 0.37712035 0.87055075
vn 0.3779348 0.6628188 0.6464028
vn 0.57177556 0.43775055 0.693864
vn 0.48258883 0.4811159 0.73187125
vn 0.4227974 0.118957065 0.8983828
vn -0.20808305 -0.2080831 0.95572114
vn 0.30151132 0.30151132 0.90453404
vn 0.27903137 0.71178067 0.6446004
vn 0.29743385 -0.29614034 0.9076531
vn 0.31610376 0.37712035 0.87055075
vn 0.48258883 0.4811159 0.73187125
vn -0.20987709 0.24501628 0.9465298
vn -0.20808305 -0.2080831 0.95572114
vn 0.30151132 0.30151132 0.90453404
vn 0.06543904 0.6002729 0.79711366
vn 0.23485722 -0.3103487 0.92115456
vn 0.4227974 0.118957065 0.8983828
vn 0.27903137 0.71178067 0.6446004
vn -0.20089036 0.69132054 0.6940597
vn -0.32977578 -0.034765866 0.943419
vn -0.6135427 -0.3054028 0.72821325
vn -0.3106387 0.25215024 0.91647357
vn -0.73080903 -0.16629203 0.662016
vn -0.025678843 0.16537714 0.98589605
vn 0.23485722 -0.3103487 0.92115456
vn 0.06543904 0.6002729 0.79711366
vn 0.06842461 -0.00078368274 0.997656
g meshVoidFountainBottom_0
f 3/3/3 2/2/2 1/1/1
f 6/6/6 5/5/5 4/4/4
f 9/9/9 8/8/8 7/7/7
f 8/8/8 11/11/11 10/10/10
f 12/12/12 8/8/8 10/10/10
f 8/8/8 12/12/12 13/13/13
f 12/12/12 14/14/14 13/13/13
f 12/12/12 15/15/15 14/14/14
f 16/16/16 14/14/14 15/15/15
f 15/15/15 18/18/18 17/17/17
f 18/18/18 19/19/19 17/17/17
f 21/21/21 12/12/12 20/20/20
f 21/21/21 22/22/22 12/12/12
f 22/22/22 23/23/23 12/12/12
f 26/26/26 25/25/25 24/24/24
f 29/29/29 28/28/28 27/27/27
f 32/32/32 31/31/31 30/30/30
f 33/33/33 32/32/32 30/30/30
f 36/36/36 35/35/35 34/34/34
f 37/37/37 36/36/36 34/34/34
f 40/40/40 39/39/39 38/38/38
f 41/41/41 40/40/40 38/38/38
f 44/44/44 43/43/43 42/42/42
f 45/45/45 44/44/44 42/42/42
f 48/48/48 47/47/47 46/46/46
f 49/49/49 48/48/48 46/46/46
f 52/52/52 51/51/51 50/50/50
f 53/53/53 52/52/52 50/50/50
f 54/54/54 52/52/52 53/53/53
f 56/56/56 55/55/55 53/53/53
f 57/57/57 56/56/56 53/53/53
f 59/59/59 56/56/56 58/58/58
f 56/56/56 60/60/60 58/58/58
f 60/60/60 61/61/61 57/57/57
f 62/62/62 60/60/60 57/57/57
f 50/50/50 63/63/63 62/62/62
f 63/63/63 64/64/64 62/62/62
f 60/60/60 65/65/65 58/58/58
f 65/65/65 66/66/66 58/58/58
f 60/60/60 63/63/63 67/67/67
f 68/68/68 60/60/60 67/67/67
f 70/70/70 68/68/68 69/69/69
f 68/68/68 71/71/71 69/69/69
f 71/71/71 63/63/63 72/72/72
f 73/73/73 71/71/71 72/72/72
f 74/74/74 72/72/72 63/63/63
f 72/72/72 74/74/74 75/75/75
f 74/74/74 76/76/76 75/75/75
f 77/77/77 75/75/75 76/76/76
f 78/78/78 77/77/77 76/76/76
f 78/78/78 76/76/76 74/74/74
f 79/79/79 78/78/78 74/74/74
f 79/79/79 74/74/74 80/80/80
f 74/74/74 54/54/54 80/80/80
f 68/68/68 82/82/82 81/81/81
f 82/82/82 83/83/83 81/81/81
f 71/71/71 85/85/85 84/84/84
f 86/86/86 71/71/71 84/84/84
f 54/54/54 88/88/88 87/87/87
f 88/88/88 89/89/89 87/87/87
f 90/90/90 54/54/54 87/87/87
f 91/91/91 54/54/54 90/90/90
f 92/92/92 91/91/91 90/90/90
f 91/91/91 94/94/94 93/93/93
f 95/95/95 91/91/91 93/93/93
f 91/91/91 97/97/97 96/96/96
f 97/97/97 98/98/98 96/96/96
f 101/101/101 100/100/100 99/99/99
f 102/102/102 101/101/101 99/99/99
f 102/102/102 103/103/103 101/101/101
f 103/103/103 104/104/104 101/101/101
f 104/104/104 103/103/103 105/105/105
f 103/103/103 106/106/106 105/105/105
f 107/107/107 105/105/105 106/106/106
f 102/102/102 99/99/99 108/108/108
f 109/109/109 102/102/102 108/108/108
f 109/109/109 108/108/108 110/110/110
f 111/111/111 102/102/102 109/109/109
f 103/103/103 102/102/102 111/111/111
f 112/112/112 103/103/103 111/111/111
f 113/113/113 103/103/103 112/112/112
f 106/106/106 103/103/103 113/113/113
f 110/110/110 108/108/108 114/114/114
f 115/115/115 106/106/106 113/113/113
f 110/110/110 114/114/114 116/116/116
f 114/114/114 117/117/117 116/116/116
f 117/117/117 114/114/114 118/118/118
f 117/117/117 118/118/118 119/119/119
f 120/120/120 106/106/106 115/115/115
f 116/116/116 117/117/117 120/120/120
f 117/117/117 106/106/106 120/120/120
f 121/121/121 117/117/117 119/119/119
f 122/122/122 106/106/106 117/117/117
f 121/121/121 122/122/122 117/117/117
f 123/123/123 106/106/106 122/122/122
f 125/125/125 121/121/121 124/124/124
f 121/121/121 126/126/126 124/124/124
f 126/126/126 121/121/121 127/127/127
f 121/121/121 128/128/128 127/127/127
f 131/131/131 130/130/130 129/129/129
f 132/132/132 131/131/131 129/129/129
f 135/135/135 134/134/134 133/133/133
f 134/134/134 136/136/136 133/133/133
f 137/137/137 133/133/133 136/136/136
f 133/133/133 137/137/137 138/138/138
f 139/139/139 133/133/133 138/138/138
f 140/140/140 133/133/133 139/139/139
f 141/141/141 140/140/140 139/139/139
f 138/138/138 143/143/143 142/142/142
f 144/144/144 138/138/138 142/142/142
f 144/144/144 146/146/146 145/145/145
f 146/146/146 147/147/147 145/145/145
f 146/146/146 148/148/148 147/147/147
f 149/149/149 147/147/147 148/148/148
f 150/150/150 149/149/149 148/148/148
f 148/148/148 146/146/146 151/151/151
f 152/152/152 148/148/148 151/151/151
f 155/155/155 154/154/154 153/153/153
f 156/156/156 155/155/155 153/153/153
f 156/156/156 153/153/153 157/157/157
f 156/156/156 157/157/157 158/158/158
f 159/159/159 156/156/156 158/158/158
f 160/160/160 156/156/156 159/159/159
f 161/161/161 160/160/160 159/159/159
f 158/158/158 163/163/163 162/162/162
f 164/164/164 162/162/162 163/163/163
f 165/165/165 164/164/164 163/163/163
f 168/168/168 167/167/167 166/166/166
f 169/169/169 168/168/168 166/166/166
f 172/172/172 171/171/171 170/170/170
f 173/173/173 172/172/172 170/170/170
f 173/173/173 175/175/175 174/174/174
f 175/175/175 176/176/176 174/174/174
f 179/179/179 178/178/178 177/177/177
f 180/180/180 179/179/179 177/177/177
f 183/183/183 182/182/182 181/181/181
f 184/184/184 183/183/183 181/181/181
f 187/187/187 186/186/186 185/185/185
f 186/186/186 188/188/188 185/185/185
f 185/185/185 188/188/188 189/189/189
f 190/190/190 185/185/185 189/189/189
f 193/193/193 192/192/192 191/191/191
f 194/194/194 193/193/193 191/191/191
f 197/197/197 196/196/196 195/195/195
f 198/198/198 197/197/197 195/195/195
f 198/198/198 199/199/199 197/197/197
f 202/202/202 201/201/201 200/200/200
f 200/200/200 201/201/201 203/203/203
