g meshSnowyForestFirepitRingGoo
v -1.1985945 0.025627341 0.025695303
v -2.9527576 -0.05435495 0.030593012
v -2.9527578 0.025627648 0.025695303
v -1.1985943 -0.054355256 0.030593012
v -2.9527578 -0.13433762 0.025695294
v -1.1985945 -0.13433793 0.025695294
v 0.023492157 -0.13414396 0.094268054
v 0.0397352 -0.049374975 0.1039454
v 0.045741983 0.030434612 0.11031918
v 1.1985945 0.02562692 0.025695303
v 1.1985943 -0.054355677 0.030593012
v 1.1985945 -0.13433835 0.025695294
v 2.9527578 -0.13433865 0.025695294
v 2.9527576 -0.054355983 0.030593012
v 2.9527578 0.025626613 0.025695303
v -0.096407935 0.2579227 0.15448917
v -0.24735598 0.5140567 0.09364992
v -0.0075016594 0.5553725 0.09358757
v 0.033728838 0.2829791 0.14936109
v 0.23250884 0.51007324 0.09361323
v -0.21521671 0.18688893 0.1655364
v -0.45152336 0.3798485 0.093690336
v 0.15818745 0.25844315 0.14871658
v 0.42766562 0.37788454 0.093662195
v -0.3045545 0.08069591 0.18077707
v -0.60346013 0.19701816 0.09658556
v 0.26300684 0.18840507 0.1487166
v 0.5852901 0.19726112 0.09388939
v -0.34749636 -0.044252876 0.19526598
v -0.6629116 -0.04922892 0.10497216
v 0.32975745 0.090389095 0.16012487
v 0.63412136 -0.04823013 0.09388939
v -0.3311897 -0.16848558 0.20181024
v -0.6204437 -0.29517305 0.10999707
v 0.34623614 -0.016458778 0.18828773
v 0.58529 -0.29372138 0.09388939
v -0.25286442 -0.27271494 0.19526598
v -0.47656536 -0.5029472 0.106191784
v 0.33300084 -0.1546162 0.16677484
v 0.44623047 -0.50183874 0.09388939
v -0.12969737 -0.34144688 0.18077707
v -0.25769615 -0.64124143 0.09770118
v 0.27781823 -0.27443978 0.17310357
v 0.23811302 -0.6408983 0.09388939
v 0.02346452 -0.37344867 0.17763466
v -0.007378043 -0.6897294 0.09388939
v 0.19133595 -0.36654854 0.18956922
v -0.21371287 -0.10698149 0.20920838
v -0.14943631 -0.15667701 0.2092763
v 0.019553334 -0.037322953 0.2222987
v -0.19980153 -0.042762708 0.20884354
v -0.018274004 -0.22905959 0.20185357
v -0.13455121 0.023908611 0.20739773
v 0.09872941 -0.2794694 0.20432228
v -0.06440828 0.07942354 0.20311365
v 0.17012182 -0.23398013 0.21419245
v -0.0064411466 0.11476988 0.19715701
v 0.19909616 -0.14464603 0.22361934
v 0.056096274 0.12701027 0.19386718
v 0.21424754 -0.084782936 0.22618808
v 0.11517743 0.11438433 0.19264221
v 0.21086606 -0.028389033 0.20666744
v 0.16443488 0.07900687 0.19173837
v 0.1965446 0.027508685 0.193042
vt 0.30607593 0.4842141
vt 0.042038202 0.47217506
vt 0.042038083 0.4842141
vt 0.30607596 0.47217506
vt 0.042038083 0.46013603
vt 0.30607593 0.46013603
vt 0.49003482 0.4606438
vt 0.49247316 0.47313914
vt 0.49341115 0.48577622
vt 0.66690254 0.4842141
vt 0.66690236 0.47217506
vt 0.66690254 0.46013603
vt 0.9309404 0.46013603
vt 0.9309403 0.47217506
vt 0.9309404 0.4842141
vt 0.43759117 0.68052
vt 0.3546859 0.82119656
vt 0.486421 0.8438885
vt 0.5090661 0.6942816
vt 0.6182422 0.8190085
vt 0.3723378 0.6415059
vt 0.24255086 0.7474855
vt 0.5774224 0.68080604
vt 0.7254279 0.74640673
vt 0.32327068 0.58318174
vt 0.15910265 0.64706933
vt 0.63499236 0.6423388
vt 0.8120003 0.6472031
vt 0.29968578 0.51455593
vt 0.12645021 0.51182294
vt 0.67165416 0.5885054
vt 0.8388198 0.5123718
vt 0.30864185 0.44632387
vt 0.14977497 0.37674314
vt 0.6807047 0.52982163
vt 0.8120003 0.3775404
vt 0.35166043 0.3890777
vt 0.22879738 0.26262724
vt 0.67343533 0.45394135
vt 0.7356247 0.26323614
vt 0.4193076 0.35132802
vt 0.3490067 0.18667194
vt 0.6431277 0.38813043
vt 0.6213202 0.18686047
vt 0.50342864 0.33375195
vt 0.48648918 0.16004097
vt 0.5997806 0.33295548
vt 0.37316373 0.48010352
vt 0.40846634 0.45280924
vt 0.5012805 0.51836216
vt 0.3808042 0.51537454
vt 0.48050463 0.41305476
vt 0.41664153 0.5519923
vt 0.55275786 0.38156825
vt 0.45516643 0.58248293
vt 0.58812934 0.40576595
vt 0.48700348 0.60189635
vt 0.60270405 0.45613617
vt 0.52135104 0.6086189
vt 0.60821235 0.49229583
vt 0.55380005 0.6016845
vt 0.6063551 0.5232689
vt 0.58085376 0.58225423
vt 0.59848964 0.55396974
vn -0.031768758 0.027176443 0.9991258
vn -0 0 1
vn -0 0.06112016 0.9981304
vn -0.030264812 -0.022421636 0.99929035
vn -0 -0.061120223 0.9981304
vn -0.028590292 -0.07177117 0.9970113
vn -0.0054951482 -0.08758369 0.99614197
vn 0.003871061 -0.04887608 0.9987973
vn 0.0054694014 -0.009442661 0.9999405
vn 0.034100905 0.02470643 0.9991129
vn 0.03219207 -0.02655463 0.9991289
vn 0.030092625 -0.07751253 0.9965371
vn -0 -0.061120212 0.9981304
vn -0 0 1
vn -0 0.06112016 0.9981304
vn -0.04859129 0.23145124 0.9716322
vn -0.06412809 0.20588495 0.9764727
vn 0.0051155062 0.20607506 0.97852284
vn 0.016733214 0.23722982 0.9713094
vn 0.07768619 0.19264434 0.97818863
vn -0.10531631 0.21286628 0.97138894
vn -0.13519654 0.20183776 0.970043
vn 0.096189454 0.22076872 0.9705714
vn 0.14042197 0.17442134 0.974607
vn -0.1571229 0.1673563 0.9732955
vn -0.21081008 0.16168544 0.96406275
vn 0.15345554 0.19265322 0.9691936
vn 0.21566887 0.14704826 0.96533096
vn -0.19318761 0.070276946 0.97864175
vn -0.26860398 0.05441683 0.96171236
vn 0.18430585 0.18224186 0.96582574
vn 0.26748008 0.006014122 0.9635446
vn -0.17047194 -0.06718807 0.9830692
vn -0.24885641 -0.1007488 0.96328616
vn 0.23450133 0.07317403 0.9693579
vn 0.25234234 -0.11137046 0.9612076
vn -0.092337355 -0.1738902 0.98042643
vn -0.15062605 -0.21873291 0.96408904
vn 0.29410645 -0.09923553 0.95060706
vn 0.23655847 -0.1823309 0.95435613
vn -0.041758217 -0.21270579 0.9762235
vn -0.061780106 -0.25355524 0.96534604
vn 0.2792078 -0.15801504 0.94714004
vn 0.10605048 -0.26629677 0.9580393
vn -0.02864934 -0.23432428 0.9717362
vn -0.012704993 -0.27057078 0.96261626
vn 0.12018404 -0.2323829 0.96517044
vn -0.059618536 -0.01575655 0.9980969
vn -0.0209219 -0.09562836 0.99519724
vn -0.004354617 0.05389818 0.99853694
vn -0.08197842 0.07534132 0.99378234
vn -0.033918258 -0.13511413 0.99024934
vn -0.07561132 0.1432142 0.9867992
vn -0.054086108 -0.16519734 0.9847764
vn -0.047112465 0.19245629 0.98017395
vn 0.09494142 -0.1435537 0.98507786
vn -0.013086333 0.22118314 0.97514457
vn 0.16303143 -0.10356468 0.98117024
vn 0.034392856 0.22720376 0.9732397
vn 0.18303666 0.025869835 0.9827656
vn 0.10437926 0.20556575 0.97306097
vn 0.13640177 0.20601794 0.968995
vn 0.14651942 0.17046335 0.97440964
vn 0.119812116 0.20925902 0.9704925
g meshSnowyForestFirepitRingGoo_0
f 3/3/3 2/2/2 1/1/1
f 2/2/2 4/4/4 1/1/1
f 2/2/2 5/5/5 4/4/4
f 5/5/5 6/6/6 4/4/4
f 4/4/4 6/6/6 7/7/7
f 1/1/1 4/4/4 8/8/8
f 8/8/8 4/4/4 7/7/7
f 9/9/9 1/1/1 8/8/8
f 10/10/10 9/9/9 8/8/8
f 11/11/11 8/8/8 7/7/7
f 11/11/11 10/10/10 8/8/8
f 12/12/12 11/11/11 7/7/7
f 12/12/12 13/13/13 11/11/11
f 13/13/13 14/14/14 11/11/11
f 11/11/11 14/14/14 10/10/10
f 14/14/14 15/15/15 10/10/10
f 18/18/18 17/17/17 16/16/16
f 19/19/19 18/18/18 16/16/16
f 20/20/20 18/18/18 19/19/19
f 16/16/16 17/17/17 21/21/21
f 17/17/17 22/22/22 21/21/21
f 23/23/23 20/20/20 19/19/19
f 24/24/24 20/20/20 23/23/23
f 21/21/21 22/22/22 25/25/25
f 22/22/22 26/26/26 25/25/25
f 27/27/27 24/24/24 23/23/23
f 28/28/28 24/24/24 27/27/27
f 25/25/25 26/26/26 29/29/29
f 26/26/26 30/30/30 29/29/29
f 31/31/31 28/28/28 27/27/27
f 32/32/32 28/28/28 31/31/31
f 29/29/29 30/30/30 33/33/33
f 30/30/30 34/34/34 33/33/33
f 35/35/35 32/32/32 31/31/31
f 36/36/36 32/32/32 35/35/35
f 33/33/33 34/34/34 37/37/37
f 34/34/34 38/38/38 37/37/37
f 39/39/39 36/36/36 35/35/35
f 40/40/40 36/36/36 39/39/39
f 37/37/37 38/38/38 41/41/41
f 38/38/38 42/42/42 41/41/41
f 43/43/43 40/40/40 39/39/39
f 44/44/44 40/40/40 43/43/43
f 41/41/41 42/42/42 45/45/45
f 42/42/42 46/46/46 45/45/45
f 46/46/46 44/44/44 47/47/47
f 47/47/47 44/44/44 43/43/43
f 45/45/45 46/46/46 47/47/47
f 33/33/33 37/37/37 48/48/48
f 37/37/37 41/41/41 49/49/49
f 37/37/37 49/49/49 48/48/48
f 48/48/48 49/49/49 50/50/50
f 33/33/33 48/48/48 51/51/51
f 51/51/51 48/48/48 50/50/50
f 29/29/29 33/33/33 51/51/51
f 41/41/41 52/52/52 49/49/49
f 41/41/41 45/45/45 52/52/52
f 49/49/49 52/52/52 50/50/50
f 29/29/29 51/51/51 53/53/53
f 53/53/53 51/51/51 50/50/50
f 25/25/25 29/29/29 53/53/53
f 45/45/45 54/54/54 52/52/52
f 45/45/45 47/47/47 54/54/54
f 52/52/52 54/54/54 50/50/50
f 25/25/25 53/53/53 55/55/55
f 55/55/55 53/53/53 50/50/50
f 21/21/21 25/25/25 55/55/55
f 47/47/47 56/56/56 54/54/54
f 54/54/54 56/56/56 50/50/50
f 57/57/57 55/55/55 50/50/50
f 21/21/21 55/55/55 57/57/57
f 56/56/56 58/58/58 50/50/50
f 47/47/47 43/43/43 56/56/56
f 43/43/43 58/58/58 56/56/56
f 16/16/16 21/21/21 57/57/57
f 43/43/43 39/39/39 58/58/58
f 16/16/16 57/57/57 59/59/59
f 59/59/59 57/57/57 50/50/50
f 19/19/19 16/16/16 59/59/59
f 39/39/39 60/60/60 58/58/58
f 58/58/58 60/60/60 50/50/50
f 39/39/39 35/35/35 60/60/60
f 19/19/19 59/59/59 61/61/61
f 61/61/61 59/59/59 50/50/50
f 23/23/23 19/19/19 61/61/61
f 35/35/35 62/62/62 60/60/60
f 60/60/60 62/62/62 50/50/50
f 35/35/35 31/31/31 62/62/62
f 23/23/23 61/61/61 63/63/63
f 63/63/63 61/61/61 50/50/50
f 27/27/27 23/23/23 63/63/63
f 31/31/31 64/64/64 62/62/62
f 62/62/62 64/64/64 50/50/50
f 64/64/64 63/63/63 50/50/50
f 27/27/27 63/63/63 64/64/64
f 31/31/31 27/27/27 64/64/64
