g meshRaidALFLStone4
v -1.767461 -0.46017578 -8.135071
v -0.3351172 -0.97750974 -12.745166
v -0.6397949 -0.31142578 -13.270698
v -0.3351172 -0.97750974 -12.745166
v -1.767461 -0.46017578 -8.135071
v -0.6544824 -1.9517578 -9.1686325
v -0.29438475 0.6819824 -13.247067
v -1.583164 0.5636621 -9.8395605
v -0.7608594 0.15021484 -13.157072
v -0.29438475 0.6819824 -13.247067
v -0.6397949 -0.31142578 -13.270698
v 0.010292969 -0.35161132 -13.425466
v -0.6397949 -0.31142578 -13.270698
v -0.29438475 0.6819824 -13.247067
v -0.7608594 0.15021484 -13.157072
v 2.4999902 -2.5000196 2.3350048
v 0.90100586 -0.010175781 -3.5372925
v 1.2732421 -1.0876855 -1.2514404
v -1.767461 -0.46017578 -8.135071
v -0.7608594 0.15021484 -13.157072
v -1.583164 0.5636621 -9.8395605
v -0.7608594 0.15021484 -13.157072
v -1.767461 -0.46017578 -8.135071
v -0.6397949 -0.31142578 -13.270698
v 0.010292969 -0.35161132 -13.425466
v 0.8637793 -0.21004882 -12.967834
v 0.66038084 0.34327146 -12.963447
v -0 -2.5000196 2.3350048
v -1.358916 -1.3790917 -1.5480419
v -2.5000098 -2.5000196 2.3350048
v -1.358916 -1.3790917 -1.5480419
v -0 -2.5000196 2.3350048
v 0.010859375 -1.8676758 -0.7474121
v -0.3351172 -0.97750974 -12.745166
v 1.2603027 -2.2081933 -9.858333
v 0.31498045 -0.65015626 -12.98708
v -0.3351172 -0.97750974 -12.745166
v 0.010292969 -0.35161132 -13.425466
v -0.6397949 -0.31142578 -13.270698
v -0.55557615 1.5982128 -6.070012
v -1.5030175 0.7746484 -2.5605054
v -0.97503906 0.70762694 -5.216941
v 0.48511717 0.20708984 -5.3192844
v 1.1222363 1.0486621 -2.5153637
v 1.1037891 0.77060544 -4.5759177
v -0.97503906 0.70762694 -5.216941
v -1.7566601 -0.20292968 -3.5920238
v -0.5106348 -0.41557616 -6.089614
v 0.010859375 1.1968945 -2.516787
v 1.1037891 0.77060544 -4.5759177
v 1.1222363 1.0486621 -2.5153637
v 1.8061523 0.9937207 -9.7972145
v 1.1037891 0.77060544 -4.5759177
v 0.93929684 2.4251268 -9.812361
v 1.1037891 0.77060544 -4.5759177
v 1.8061523 0.9937207 -9.7972145
v 0.48511717 0.20708984 -5.3192844
v -1.583164 0.5636621 -9.8395605
v -0.5106348 -0.41557616 -6.089614
v -1.767461 -0.46017578 -8.135071
v -0.5106348 -0.41557616 -6.089614
v -1.583164 0.5636621 -9.8395605
v -0.97503906 0.70762694 -5.216941
v 1.3798242 -0.9447363 -6.25281
v -0.5106348 -0.41557616 -6.089614
v 0.48511717 0.20708984 -5.3192844
v -0.5106348 -0.41557616 -6.089614
v 1.3798242 -0.9447363 -6.25281
v -0.052617185 -1.560293 -6.326399
v 0.90100586 -0.010175781 -3.5372925
v -0.5106348 -0.41557616 -6.089614
v -1.7566601 -0.20292968 -3.5920238
v -0.5106348 -0.41557616 -6.089614
v 0.90100586 -0.010175781 -3.5372925
v 0.48511717 0.20708984 -5.3192844
v 1.3798242 -0.9447363 -6.25281
v 0.83511716 -1.8008202 -6.7469068
v -0.052617185 -1.560293 -6.326399
v 2.4999902 -2.5 13.425468
v -2.5000098 2.5000098 13.425468
v 2.4999902 2.5000098 13.425468
v -2.5000098 -2.5 13.425468
v 2.4999902 2.5000098 2.3350048
v 2.4999902 -2.5 8.286884
v 2.4999902 2.5000098 6.091743
v 2.4999902 -2.5 2.3350048
v 2.4999902 2.5000098 6.091743
v -2.5000098 2.5000098 2.3350048
v 2.4999902 2.5000098 2.3350048
v -2.5000098 2.5000098 8.286884
v -2.5000098 2.5000098 13.425468
v 2.4999902 2.5000098 13.425468
v -2.5000098 -2.5 2.3350048
v -2.5000098 2.5000098 8.286884
v -2.5000098 -2.5 6.930166
v -2.5000098 2.5000098 2.3350048
v -2.5000098 -2.5 6.930166
v 2.4999902 -2.5 2.3350048
v -2.5000098 -2.5 2.3350048
v 2.4999902 -2.5 8.286884
v 2.4999902 -2.5 13.425468
v -2.5000098 -2.5 13.425468
v -1.358916 -1.3790917 -1.5480419
v -2.5000098 -2.9296874E-05 2.3350048
v -2.5000098 -2.5000196 2.3350048
v -1.7566601 -0.20292968 -3.5920238
v -2.5000098 2.4999902 2.3350048
v -1.5030175 0.7746484 -2.5605054
v -0 2.4999902 2.3350048
v -2.5000098 2.4999902 2.3350048
v 0.010859375 1.1968945 -2.516787
v 2.4999902 2.4999902 2.3350048
v 1.1222363 1.0486621 -2.5153637
v -0.55557615 1.5982128 -6.070012
v 1.1037891 0.77060544 -4.5759177
v 1.1222363 1.0486621 -2.5153637
v 2.4999902 -2.9296874E-05 2.3350048
v 2.4999902 2.4999902 2.3350048
v 0.90100586 -0.010175781 -3.5372925
v 2.4999902 -2.5000196 2.3350048
v 0.48511717 0.20708984 -5.3192844
v -0 -2.5000196 2.3350048
v 1.2732421 -1.0876855 -1.2514404
v 0.010859375 -1.8676758 -0.7474121
v 2.4999902 -2.5000196 2.3350048
v -1.583164 0.5636621 -9.8395605
v -0.29438475 0.6819824 -13.247067
v -1.1228321 2.3877928 -9.8014765
v -0.97503906 0.70762694 -5.216941
v -0.55557615 1.5982128 -6.070012
v 0.3557129 0.79461914 -12.878076
v 1.8061523 0.9937207 -9.7972145
v 0.93929684 2.4251268 -9.812361
v 0.66038084 0.34327146 -12.963447
v 2.079248 -0.8465332 -9.949158
v 0.8637793 -0.21004882 -12.967834
v 1.2603027 -2.2081933 -9.858333
v 0.8637793 -0.21004882 -12.967834
v 0.31498045 -0.65015626 -12.98708
v 2.079248 -0.8465332 -9.949158
v -2.5000098 2.4999902 2.3350048
v -1.7566601 -0.20292968 -3.5920238
v -1.5030175 0.7746484 -2.5605054
v -0.97503906 0.70762694 -5.216941
v 0.8637793 -0.21004882 -12.967834
v 0.010292969 -0.35161132 -13.425466
v 0.31498045 -0.65015626 -12.98708
v -0.3351172 -0.97750974 -12.745166
v -1.1228321 2.3877928 -9.8014765
v 0.3557129 0.79461914 -12.878076
v 0.93929684 2.4251268 -9.812361
v -0.29438475 0.6819824 -13.247067
v 1.2603027 -2.2081933 -9.858333
v -0.3351172 -0.97750974 -12.745166
v -0.6544824 -1.9517578 -9.1686325
v 0.83511716 -1.8008202 -6.7469068
v -0.052617185 -1.560293 -6.326399
v 0.3557129 0.79461914 -12.878076
v 0.010292969 -0.35161132 -13.425466
v 0.66038084 0.34327146 -12.963447
v -0.29438475 0.6819824 -13.247067
v -0.5106348 -0.41557616 -6.089614
v -0.6544824 -1.9517578 -9.1686325
v -1.767461 -0.46017578 -8.135071
v -0.052617185 -1.560293 -6.326399
v 1.2603027 -2.2081933 -9.858333
v 1.3798242 -0.9447363 -6.25281
v 2.079248 -0.8465332 -9.949158
v 0.83511716 -1.8008202 -6.7469068
v 1.3798242 -0.9447363 -6.25281
v 1.8061523 0.9937207 -9.7972145
v 2.079248 -0.8465332 -9.949158
v 0.48511717 0.20708984 -5.3192844
v 0.93929684 2.4251268 -9.812361
v -0.55557615 1.5982128 -6.070012
v -1.1228321 2.3877928 -9.8014765
v 1.1037891 0.77060544 -4.5759177
v -1.358916 -1.3790917 -1.5480419
v 0.90100586 -0.010175781 -3.5372925
v -1.7566601 -0.20292968 -3.5920238
v 1.2732421 -1.0876855 -1.2514404
v 0.010859375 -1.8676758 -0.7474121
v 2.4999902 2.5000098 13.425468
v 2.4999902 -2.5 8.286884
v 2.4999902 -2.5 13.425468
v 2.4999902 2.5000098 6.091743
v -2.5000098 -2.5 13.425468
v -2.5000098 2.5000098 8.286884
v -2.5000098 2.5000098 13.425468
v -2.5000098 -2.5 6.930166
vt 4.4186063 -0.6181366
vt 1.0201313 0.3469612
vt 6.0543027 -4.4577293
vt 1.0201313 0.3469612
vt 4.4186063 -0.6181366
vt 2.0412157 -0.14855607
vt 1.0771838 -0.40181643
vt 1.3025844 -0.20932245
vt 1.4760742 0.05579034
vt 0.07586235 1.1544068
vt -1.6167608 1.3777807
vt 0.81815565 1.2522686
vt -1.6167608 1.3777807
vt 0.07586235 1.1544068
vt 5.5417585 1.4918264
vt -1.2148278 -0.43185192
vt -0.5384663 -1.1235813
vt 0.71116364 -1.1384588
vt -0.42858177 0.5711039
vt -0.8756887 0.92636883
vt 0.54543495 0.50159705
vt -0.8756887 0.92636883
vt -0.42858177 0.5711039
vt -1.398284 1.815985
vt 0.81815565 1.2522686
vt 1.4969267 1.4044482
vt -0.0060403347 1.7569165
vt 0.8339792 0.516333
vt 0.8541215 0.42125338
vt 0.8939446 0.5415077
vt 0.8541215 0.42125338
vt 0.8339792 0.516333
vt 0.8426621 0.6016264
vt 1.0201313 0.3469612
vt 0.21159595 0.039797015
vt 0.75227463 1.3424261
vt -1.9670799 1.0448668
vt 0.81815565 1.2522686
vt -1.6167608 1.3777807
vt 0.89767903 0.20963067
vt 0.8810505 0.12401493
vt 0.98875225 0.092599556
vt 0.8112478 -0.46827856
vt 0.4104828 0.095393226
vt 0.016055673 -0.09657762
vt 1.2052083 0.6700883
vt 0.37369967 -0.031372525
vt 1.0237236 0.30319837
vt 0.797983 0.14209634
vt 0.72634995 0.26461455
vt 0.8937047 0.16452302
vt 0.58964175 0.3287789
vt 0.016055673 -0.09657762
vt -0.4290483 -0.3804402
vt 0.016055673 -0.09657762
vt 0.58964175 0.3287789
vt 0.8112478 -0.46827856
vt 0.54543495 0.50159705
vt 1.0237236 0.30319837
vt -0.42858177 0.5711039
vt 1.0237236 0.30319837
vt 0.54543495 0.50159705
vt 1.2052083 0.6700883
vt 0.22466412 -1.236327
vt 3.1343312 -0.5381392
vt 0.12867671 -1.8164711
vt 3.1343312 -0.5381392
vt 0.22466412 -1.236327
vt 1.6164374 -0.98505723
vt 0.7372318 -0.37622434
vt 0.17826056 -0.16160631
vt 0.9275703 0.13185714
vt 0.17826056 -0.16160631
vt 0.7372318 -0.37622434
vt 0.6603779 0.18305774
vt 0.22466412 -1.236327
vt 0.70441604 -0.92918974
vt 1.6164374 -0.98505723
vt 1.4822658 0.36080083
vt 1.3901987 0.2687356
vt 1.3901734 0.36075607
vt 1.4822676 0.26870942
vt 0.7174958 0.44179478
vt 0.59900016 0.51986694
vt 0.78322536 0.41384906
vt 0.50078803 0.26196
vt 0.78322536 0.41384906
vt 0.77340704 0.34336966
vt 0.7174958 0.44179478
vt 1.0406674 0.5109316
vt 0.7827039 0.4548406
vt 0.6182894 0.4000626
vt 1.1120641 0.09461494
vt 1.0406674 0.5109316
vt 1.1158772 0.43922752
vt 0.77340704 0.34336966
vt 1.1158772 0.43922752
vt 1.001329 0.33364436
vt 1.1120641 0.09461494
vt 1.0077648 0.4110584
vt 1.0098132 0.4784772
vt 1.0799805 0.46122772
vt 0.84236336 0.2365486
vt 0.66854465 0.10256453
vt 0.91745186 0.1924807
vt 0.37369967 -0.031372525
vt -0.3884643 -0.530851
vt 0.8810505 0.12401493
vt 0.69641495 0.08493029
vt 0.74460506 -0.006310761
vt 0.797983 0.14209634
vt 0.772944 0.19508657
vt 0.8937047 0.16452302
vt 0.89767903 0.20963067
vt 0.72634995 0.26461455
vt 0.4104828 0.095393226
vt -0.41163012 0.23268795
vt -0.8732414 0.44791055
vt -0.5384663 -1.1235813
vt -1.2148278 -0.43185192
vt 0.8112478 -0.46827856
vt 0.8339792 0.516333
vt 0.72795904 0.50561297
vt 0.8426621 0.6016264
vt 1.0507396 0.35898402
vt 1.3025844 -0.20932245
vt 1.0771838 -0.40181643
vt 0.8008978 -0.019598395
vt 0.98875225 0.092599556
vt 0.89767903 0.20963067
vt 1.2561893 0.14321035
vt 0.58964175 0.3287789
vt -0.4290483 -0.3804402
vt 2.4863362 0.6494879
vt 1.5039672 0.8330622
vt 3.5532944 0.6296989
vt 0.21159595 0.039797015
vt 1.1490164 1.0670524
vt 0.75227463 1.3424261
vt -2.223052 -2.9678617
vt -0.3884643 -0.530851
vt 0.37369967 -0.031372525
vt 0.31948364 -0.3352244
vt 1.2052083 0.6700883
vt 1.4969267 1.4044482
vt 0.81815565 1.2522686
vt -0.43892252 2.0077715
vt -1.9670799 1.0448668
vt 0.8008978 -0.019598395
vt 0.6764909 -0.07912392
vt 0.68672717 0.1516929
vt 1.0771838 -0.40181643
vt 0.21159595 0.039797015
vt 1.0201313 0.3469612
vt 2.0412157 -0.14855607
vt 0.70441604 -0.92918974
vt 1.6164374 -0.98505723
vt 1.8324229 0.9284519
vt 0.81815565 1.2522686
vt -0.0060403347 1.7569165
vt 0.07586235 1.1544068
vt 3.1343312 -0.5381392
vt 2.0412157 -0.14855607
vt 4.4186063 -0.6181366
vt 1.6164374 -0.98505723
vt 0.21159595 0.039797015
vt 0.22466412 -1.236327
vt -2.223052 -2.9678617
vt 0.70441604 -0.92918974
vt 1.1640282 0.58517504
vt 0.58964175 0.3287789
vt 1.5039672 0.8330622
vt 0.8112478 -0.46827856
vt 0.68672717 0.1516929
vt 0.89767903 0.20963067
vt 0.8008978 -0.019598395
vt 0.72634995 0.26461455
vt 0.8541215 0.42125338
vt 0.7372318 -0.37622434
vt 0.9275703 0.13185714
vt 0.72795904 0.50561297
vt 0.8426621 0.6016264
vt 0.6182894 0.4000626
vt 0.59900016 0.51986694
vt 0.4717288 0.5194098
vt 0.78322536 0.41384906
vt 1.0799805 0.46122772
vt 1.0406674 0.5109316
vt 0.7827039 0.4548406
vt 1.1158772 0.43922752
vn -0.89499986 -0.39240423 -0.21211869
vn -0.82827175 -0.52397203 -0.19854279
vn -0.91287994 -0.34972516 -0.21057707
vn -0.82827175 -0.52397203 -0.19854279
vn -0.89499986 -0.39240423 -0.21211869
vn -0.84760064 -0.48791552 -0.20859443
vn -0.8101758 0.5101594 -0.2887083
vn -0.9553019 0.2699792 -0.12045563
vn -0.7471189 0.61115336 -0.2613522
vn -0.2701911 0.116679676 -0.9557106
vn -0.26183668 0.11383819 -0.95837486
vn -0.22449338 0.101111725 -0.96921575
vn -0.26183668 0.11383819 -0.95837486
vn -0.2701911 0.116679676 -0.9557106
vn -0.33911195 0.14003831 -0.9302647
vn 0.018056415 -0.92818063 -0.37169164
vn 0.12738138 -0.8722129 -0.47224846
vn 0.27525753 -0.85661423 -0.4364005
vn -0.89499986 -0.39240423 -0.21211869
vn -0.95659506 -0.19609746 -0.21557263
vn -0.9590441 -0.18477972 -0.21468788
vn -0.95659506 -0.19609746 -0.21557263
vn -0.89499986 -0.39240423 -0.21211869
vn -0.91287994 -0.34972516 -0.21057707
vn 0.39759588 0.2582654 -0.8804638
vn 0.44361117 0.1700467 -0.8799394
vn 0.33657593 0.28239888 -0.8983137
vn -0.048197735 -0.9640213 -0.2614188
vn -0.12043598 -0.96421355 -0.23619372
vn -0 -0.9607697 -0.2773475
vn -0.12043598 -0.96421355 -0.23619372
vn -0.048197735 -0.9640213 -0.2614188
vn -0.22547719 -0.95421654 -0.19654752
vn 0.113971375 -0.7992955 -0.5900314
vn 0.6841821 -0.5767895 -0.44632795
vn 0.3677701 -0.7133279 -0.5965806
vn 0.113971375 -0.7992955 -0.5900314
vn 0.103053935 -0.6930904 -0.7134464
vn -0.21188346 -0.66324246 -0.7177847
vn -0.9460221 0.25920314 -0.19456582
vn -0.79939014 0.51694226 -0.30617988
vn -0.9366806 0.29184672 -0.19353275
vn 0.6298849 -0.7741591 0.06263216
vn 0.60036194 -0.7932398 0.10166707
vn 0.61123824 -0.7865869 0.08757192
vn -0.8953903 -0.024785912 -0.44459188
vn -0.8953903 -0.024785912 -0.44459188
vn -0.8953903 -0.024785912 -0.44459188
vn -0.036150817 0.9907901 -0.13049144
vn 0.32381666 0.9432628 0.073471986
vn 0.1288808 0.9640568 -0.23234516
vn 0.8468017 0.5142585 0.13588604
vn 0.8468017 0.51425856 0.13588606
vn 0.8468017 0.5142585 0.13588607
vn 0.61123824 -0.7865869 0.08757192
vn 0.6370081 -0.7690449 0.052827
vn 0.6298849 -0.7741591 0.06263216
vn -0.6091959 0.7071571 0.35889995
vn -0.6091959 0.7071571 0.35889995
vn -0.6091959 0.7071571 0.35889995
vn -0.8766601 -0.46328208 0.12975655
vn -0.87666017 -0.463282 0.12975655
vn -0.8766601 -0.46328208 0.12975655
vn -0.129108 -0.6829726 0.71894336
vn -0.129108 -0.68297267 0.71894336
vn -0.129108 -0.6829726 0.71894336
vn 0.031409968 -0.19039465 0.981205
vn 0.12602063 -0.4016962 0.9070606
vn 0.09594186 -0.33530536 0.9372115
vn 0.069387 -0.9904732 0.1189461
vn 0.069387 -0.9904732 0.11894609
vn 0.069387 -0.9904732 0.1189461
vn 0.6408206 -0.7296953 -0.23852395
vn 0.6408207 -0.72969526 -0.23852393
vn 0.6408206 -0.7296953 -0.23852395
vn 0.12602063 -0.4016962 0.9070606
vn 0.21167718 -0.586087 0.78210926
vn 0.09594186 -0.33530536 0.9372115
vn -0 0 1
vn -0 0 1
vn -0 0 1
vn -0 0 1
vn 1 0 0
vn 1 0 0
vn 1 0 0
vn 1 0 0
vn -0 1 0
vn -0 1 0
vn -0 1 0
vn -0 1 0
vn -0 1 0
vn -0 1 0
vn -1 0 0
vn -1 0 0
vn -1 0 0
vn -1 0 0
vn -0 -1 0
vn -0 -1 0
vn -0 -1 0
vn -0 -1 0
vn -0 -1 0
vn -0 -1 0
vn -0.9182626 -0.37113246 -0.13803819
vn -0.98142576 -0.049270153 -0.18540765
vn -0.95943093 0 -0.2819437
vn -0.9499135 -0.29284704 -0.10911018
vn -0.99222684 0 -0.124442
vn -0.22611228 0.9698495 -0.09091273
vn -0.02370023 0.9568813 -0.2895109
vn -0 0.94314057 -0.33239436
vn -0.036150817 0.9907901 -0.13049144
vn 0.018899726 0.96312946 -0.2683738
vn 0.1288808 0.9640568 -0.23234516
vn 0.16338985 0.9622934 0.21747445
vn 0.32381666 0.9432628 0.073471986
vn 0.96533513 0.037845783 -0.25825524
vn 0.96360564 0.0034256103 -0.26730612
vn 0.96194535 0 -0.2732419
vn 0.97091496 0.021356884 -0.2384703
vn 0.96487015 0 -0.26272723
vn 0.9741141 0.014216557 -0.2256095
vn 0.10598934 -0.93746704 -0.33154455
vn 0.27525753 -0.85661423 -0.4364005
vn 0.32968307 -0.8273913 -0.45467868
vn 0.018056415 -0.92818063 -0.37169164
vn -0.9553019 0.2699792 -0.12045563
vn -0.8101758 0.5101594 -0.2887083
vn -0.95871615 0.27311432 -0.079195626
vn -0.8660328 0.4597878 0.1964241
vn -0.7674765 0.5935383 0.24226451
vn 0.7453493 0.54353994 -0.38602954
vn 0.8563904 0.33955148 -0.38897318
vn 0.7856945 0.4715777 -0.40037307
vn 0.8365561 0.4197507 -0.3521125
vn 0.9152723 0.18528862 -0.3576938
vn 0.8971621 0.33210257 -0.29121846
vn 0.6841821 -0.5767895 -0.44632795
vn 0.57486254 -0.6106976 -0.5445929
vn 0.3677701 -0.7133279 -0.5965806
vn 0.768215 -0.48954594 -0.41254154
vn -0.7472186 0.56429416 -0.35105053
vn -0.8621164 0.45626003 -0.22041327
vn -0.79939014 0.51694226 -0.30617988
vn -0.9366806 0.29184672 -0.19353275
vn 0.57486254 -0.6106976 -0.5445929
vn 0.103053935 -0.6930904 -0.7134464
vn 0.3677701 -0.7133279 -0.5965806
vn 0.113971375 -0.7992955 -0.5900314
vn -0.0038496214 0.8872388 -0.46129423
vn 0.05934172 0.8977969 -0.4363933
vn -0.0184715 0.8841981 -0.46674663
vn 0.08540819 0.90092546 -0.42548642
vn -0.1690325 -0.98001206 -0.10490209
vn -0.22417541 -0.9350267 -0.27471906
vn -0.15944603 -0.98650485 -0.03721541
vn -0.15237997 -0.97616017 0.15456922
vn -0.18103793 -0.96837 0.17171118
vn 0.35745442 0.3125651 -0.8800735
vn 0.39759588 0.2582654 -0.8804638
vn 0.33657593 0.28239888 -0.8983137
vn 0.43765154 0.27667162 -0.85551965
vn -0.7853371 -0.53851444 0.3053651
vn -0.702873 -0.6228336 0.34358096
vn -0.59485734 -0.70783305 0.38094246
vn -0.88242155 -0.40320876 0.24239416
vn 0.84040284 -0.51956064 0.15420686
vn 0.804065 -0.56890535 0.17270297
vn 0.851859 -0.5024736 0.14783944
vn 0.7773026 -0.60132664 0.18495128
vn 0.8889469 0.3483065 0.29741535
vn 0.95515513 0.19590917 0.22203197
vn 0.9737225 0.1290058 0.18767539
vn 0.8561798 0.40297282 0.3233714
vn 0.040819615 0.9720743 0.23109603
vn 0.16338985 0.9622934 0.21747445
vn -0.016595433 0.97768867 0.2094023
vn 0.32381666 0.9432628 0.073471986
vn 0.12147548 -0.8365955 -0.5341832
vn 0.12738138 -0.8722129 -0.47224846
vn 0.0727103 -0.8582704 -0.5080207
vn 0.27525753 -0.85661423 -0.4364005
vn 0.32968307 -0.8273913 -0.45467868
vn 1 0 0
vn 1 0 0
vn 1 0 0
vn 1 0 0
vn -1 0 0
vn -1 0 0
vn -1 0 0
vn -1 0 0
g meshRaidALFLStone4_0
f 3/3/3 2/2/2 1/1/1
f 6/6/6 5/5/5 4/4/4
f 9/9/9 8/8/8 7/7/7
f 12/12/12 11/11/11 10/10/10
f 15/15/15 14/14/14 13/13/13
f 18/18/18 17/17/17 16/16/16
f 21/21/21 20/20/20 19/19/19
f 24/24/24 23/23/23 22/22/22
f 27/27/27 26/26/26 25/25/25
f 30/30/30 29/29/29 28/28/28
f 33/33/33 32/32/32 31/31/31
f 36/36/36 35/35/35 34/34/34
f 39/39/39 38/38/38 37/37/37
f 42/42/42 41/41/41 40/40/40
f 45/45/45 44/44/44 43/43/43
f 48/48/48 47/47/47 46/46/46
f 51/51/51 50/50/50 49/49/49
f 54/54/54 53/53/53 52/52/52
f 57/57/57 56/56/56 55/55/55
f 60/60/60 59/59/59 58/58/58
f 63/63/63 62/62/62 61/61/61
f 66/66/66 65/65/65 64/64/64
f 69/69/69 68/68/68 67/67/67
f 72/72/72 71/71/71 70/70/70
f 75/75/75 74/74/74 73/73/73
f 78/78/78 77/77/77 76/76/76
f 81/81/81 80/80/80 79/79/79
f 82/82/82 79/79/79 80/80/80
f 85/85/85 84/84/84 83/83/83
f 86/86/86 83/83/83 84/84/84
f 89/89/89 88/88/88 87/87/87
f 90/90/90 87/87/87 88/88/88
f 90/90/90 91/91/91 87/87/87
f 92/92/92 87/87/87 91/91/91
f 95/95/95 94/94/94 93/93/93
f 96/96/96 93/93/93 94/94/94
f 99/99/99 98/98/98 97/97/97
f 100/100/100 97/97/97 98/98/98
f 100/100/100 101/101/101 97/97/97
f 102/102/102 97/97/97 101/101/101
f 105/105/105 104/104/104 103/103/103
f 106/106/106 103/103/103 104/104/104
f 104/104/104 107/107/107 106/106/106
f 110/110/110 109/109/109 108/108/108
f 111/111/111 108/108/108 109/109/109
f 109/109/109 112/112/112 111/111/111
f 113/113/113 111/111/111 112/112/112
f 111/111/111 114/114/114 108/108/108
f 114/114/114 111/111/111 115/115/115
f 118/118/118 117/117/117 116/116/116
f 119/119/119 116/116/116 117/117/117
f 117/117/117 120/120/120 119/119/119
f 119/119/119 121/121/121 116/116/116
f 124/124/124 123/123/123 122/122/122
f 125/125/125 122/122/122 123/123/123
f 128/128/128 127/127/127 126/126/126
f 126/126/126 129/129/129 128/128/128
f 130/130/130 128/128/128 129/129/129
f 133/133/133 132/132/132 131/131/131
f 134/134/134 131/131/131 132/132/132
f 132/132/132 135/135/135 134/134/134
f 136/136/136 134/134/134 135/135/135
f 139/139/139 138/138/138 137/137/137
f 140/140/140 137/137/137 138/138/138
f 143/143/143 142/142/142 141/141/141
f 143/143/143 144/144/144 142/142/142
f 147/147/147 146/146/146 145/145/145
f 147/147/147 148/148/148 146/146/146
f 151/151/151 150/150/150 149/149/149
f 152/152/152 149/149/149 150/150/150
f 155/155/155 154/154/154 153/153/153
f 153/153/153 156/156/156 155/155/155
f 157/157/157 155/155/155 156/156/156
f 160/160/160 159/159/159 158/158/158
f 161/161/161 158/158/158 159/159/159
f 164/164/164 163/163/163 162/162/162
f 165/165/165 162/162/162 163/163/163
f 168/168/168 167/167/167 166/166/166
f 169/169/169 166/166/166 167/167/167
f 172/172/172 171/171/171 170/170/170
f 173/173/173 170/170/170 171/171/171
f 176/176/176 175/175/175 174/174/174
f 177/177/177 174/174/174 175/175/175
f 180/180/180 179/179/179 178/178/178
f 181/181/181 178/178/178 179/179/179
f 178/178/178 181/181/181 182/182/182
f 185/185/185 184/184/184 183/183/183
f 186/186/186 183/183/183 184/184/184
f 189/189/189 188/188/188 187/187/187
f 190/190/190 187/187/187 188/188/188
