g Moon_Pillar_Round_Cap
v -0.7640828 0.76408327 0
v -0.4135181 0.9983229 0
v -0.4135181 0.9983229 2
v -0.7640828 0.76408327 2
v -0.9983226 0.41351894 0
v -0.45212373 0.4521241 1.69712
v -0.2446873 0.5907286 1.69712
v -0.59072834 0.24468781 1.69712
v -0.9983226 0.41351894 2
v -1.0805764 1.46292365E-08 0
v -0.6393997 1.6261216E-08 1.69712
v -1.0805764 1.46292365E-08 2
v -0.9983226 -0.41351885 0
v -0.59072834 -0.24468777 1.69712
v -0.9983226 -0.41351885 2
v -0.7640829 -0.76408315 0
v -0.4521238 -0.45212397 1.69712
v -0.7640829 -0.76408315 2
v -0.41351837 -0.9983225 0
v -0.24468745 -0.59072834 1.69712
v -0.41351837 -0.9983225 2
v 2.2822405E-07 -1.0805764 0
v 1.6774555E-07 -0.6393997 1.69712
v 2.2822405E-07 -1.0805764 2
v 0.4135189 -0.9983225 0
v 0.24468781 -0.59072834 1.69712
v 0.4135189 -0.9983225 2
v 0.76408285 -0.7640829 0
v 0.45212388 -0.45212382 1.69712
v 0.76408285 -0.7640829 2
v 0.99832237 -0.41351882 0
v 0.5907283 -0.24468775 1.69712
v 0.99832237 -0.41351882 2
v 1.0805765 -4.549002E-08 0
v 0.63939977 -1.9312605E-08 1.69712
v 1.0805765 -4.549002E-08 2
v 0.99832237 0.41351876 0
v 0.5907283 0.2446877 1.69712
v 0.99832237 0.41351876 2
v 0.76408285 0.764083 0
v 0.45212388 0.45212397 1.69712
v 0.76408285 0.764083 2
v 0.41351888 0.9983226 0
v 0.2446878 0.5907284 1.69712
v 0.41351888 0.9983226 2
v 6.506153E-08 1.0805764 0
v 7.119887E-08 0.6393997 1.69712
v 6.506153E-08 1.0805764 2
v -0.4135181 0.9983229 0
v -0.2446873 0.5907286 1.69712
v -0.4135181 0.9983229 2
v 0.5907283 0.2446877 1.69712
v 0.63939977 -1.9312605E-08 1.69712
v 0.5907283 -0.24468775 1.69712
v 0.45212388 0.45212397 1.69712
v 0.45212388 -0.45212382 1.69712
v 0.2446878 0.5907284 1.69712
v 0.24468781 -0.59072834 1.69712
v 1.6774555E-07 -0.6393997 1.69712
v 7.119887E-08 0.6393997 1.69712
v -0.24468745 -0.59072834 1.69712
v -0.2446873 0.5907286 1.69712
v -0.45212373 0.4521241 1.69712
v -0.4521238 -0.45212397 1.69712
v -0.59072834 0.24468781 1.69712
v -0.59072834 -0.24468777 1.69712
v -0.6393997 1.6261216E-08 1.69712
v 0.99832237 -0.41351882 0
v 1.0805765 -4.549002E-08 0
v 0.99832237 0.41351876 0
v 0.76408285 -0.7640829 0
v 0.76408285 0.764083 0
v 0.4135189 -0.9983225 0
v 0.41351888 0.9983226 0
v 2.2822405E-07 -1.0805764 0
v 6.506153E-08 1.0805764 0
v -0.41351837 -0.9983225 0
v -0.4135181 0.9983229 0
v -0.7640828 0.76408327 0
v -0.7640829 -0.76408315 0
v -0.9983226 0.41351894 0
v -0.9983226 -0.41351885 0
v -1.0805764 1.46292365E-08 0
vt -0.84368277 0.3666458
vt -0.9686765 0.3666458
vt -0.9686765 0.7416272
vt -0.84368277 0.7416272
vt -0.71868896 0.36664617
vt -0.84368277 0.7416272
vt -0.9686765 0.7416272
vt -0.71868896 0.7416272
vt -0.71868896 0.7416272
vt -0.59369516 0.36664653
vt -0.59369516 0.7416272
vt -0.59369516 0.7416272
vt -0.46870142 0.36664617
vt -0.46870142 0.7416272
vt -0.46870142 0.7416272
vt -0.34370768 0.36664617
vt -0.34370768 0.7416272
vt -0.34370768 0.7416272
vt -0.21871382 0.36664653
vt -0.21871388 0.74162793
vt -0.21871388 0.74162793
vt -0.09372014 0.36664653
vt -0.093720146 0.74162793
vt -0.093720146 0.74162793
vt 0.0312736 0.36664653
vt 0.031273592 0.74162793
vt 0.031273592 0.74162793
vt 0.1562674 0.36664653
vt 0.1562674 0.74162793
vt 0.1562674 0.74162793
vt 0.28126097 0.36664653
vt 0.28126097 0.74162793
vt 0.28126097 0.74162793
vt 0.40625477 0.3666469
vt 0.40625477 0.74162793
vt 0.40625477 0.74162793
vt 0.5312487 0.3666469
vt 0.5312487 0.74162793
vt 0.5312487 0.74162793
vt 0.6562425 0.3666469
vt 0.6562425 0.74162865
vt 0.6562425 0.74162865
vt 0.78123593 0.3666469
vt 0.78123593 0.74162865
vt 0.78123593 0.74162865
vt 0.90622973 0.36664724
vt 0.90622973 0.74162865
vt 0.90622973 0.74162865
vt 1.0312234 0.36664724
vt 1.0312234 0.74162865
vt 1.0312234 0.74162865
vt 0.9782126 0.9273443
vt 0.9617584 0.9074824
vt 0.93135494 0.89228064
vt 0.97821265 0.9488427
vt 0.891631 0.8840535
vt 0.96175843 0.96870476
vt 0.8486341 0.8840535
vt 0.8089102 0.8922807
vt 0.931355 0.9839065
vt 0.7785068 0.9074824
vt 0.89163107 0.9921336
vt 0.84863406 0.9921336
vt 0.7620526 0.9273444
vt 0.8089101 0.9839065
vt 0.7620526 0.94884276
vt 0.77850676 0.96870476
vt 0.99992925 0.200314
vt 0.9238195 0.1084415
vt 0.78318715 0.03812546
vt 0.99992937 0.29975617
vt 0.599442 7.070069E-05
vt 0.92381984 0.39162868
vt 0.4005579 7.070069E-05
vt 0.78318703 0.46194518
vt 0.21681282 0.038125683
vt 0.599442 0.50000006
vt 0.07618064 0.10844177
vt 7.0813156E-05 0.20031436
vt 0.40055808 0.5000001
vt 7.070069E-05 0.29975653
vt 0.2168127 0.46194527
vt 0.076180525 0.39162907
vn -0.52764684 0.52764684 -0.6657159
vn -0.2855407 0.6894056 -0.6657224
vn -0.20808144 0.50234973 0.8392537
vn -0.38448334 0.38448334 0.8392528
vn -0.6894056 0.2855407 -0.6657224
vn 0.23285846 -0.23285846 0.94422126
vn 0.1260124 -0.30424258 0.94422317
vn 0.30424258 -0.1260124 0.94422317
vn -0.50234973 0.20808144 0.8392537
vn -0.7462008 0 -0.665721
vn 0.32929942 0 0.9442256
vn -0.5437358 0 0.8392564
vn -0.6894056 -0.2855407 -0.6657224
vn 0.30424258 0.1260124 0.94422317
vn -0.50234973 -0.20808144 0.8392537
vn -0.52764684 -0.52764684 -0.6657159
vn 0.23285846 0.23285846 0.94422126
vn -0.38448334 -0.38448334 0.8392528
vn -0.2855407 -0.6894056 -0.6657224
vn 0.1260124 0.30424258 0.94422317
vn -0.20808144 -0.50234973 0.8392537
vn -0 -0.7462008 -0.665721
vn -0 0.32929942 0.9442256
vn -0 -0.5437358 0.8392564
vn 0.2855407 -0.6894056 -0.6657224
vn -0.1260124 0.30424258 0.94422317
vn 0.20808144 -0.50234973 0.8392537
vn 0.52764684 -0.52764684 -0.6657159
vn -0.23285846 0.23285846 0.94422126
vn 0.38448334 -0.38448334 0.8392528
vn 0.6894056 -0.2855407 -0.6657224
vn -0.30424258 0.1260124 0.94422317
vn 0.50234973 -0.20808144 0.8392537
vn 0.7462008 0 -0.665721
vn -0.32929942 0 0.9442256
vn 0.5437358 0 0.8392564
vn 0.6894056 0.2855407 -0.6657224
vn -0.30424258 -0.1260124 0.94422317
vn 0.50234973 0.20808144 0.8392537
vn 0.52764684 0.52764684 -0.6657159
vn -0.23285846 -0.23285846 0.94422126
vn 0.38448334 0.38448334 0.8392528
vn 0.2855407 0.6894056 -0.6657224
vn -0.1260124 -0.30424258 0.94422317
vn 0.20808144 0.50234973 0.8392537
vn -0 0.7462008 -0.665721
vn -0 -0.32929942 0.9442256
vn -0 0.5437358 0.8392564
vn -0.2855407 0.6894056 -0.6657224
vn 0.1260124 -0.30424258 0.94422317
vn -0.20808144 0.50234973 0.8392537
vn -0.30424258 -0.1260124 0.94422317
vn -0.32929942 0 0.9442256
vn -0.30424258 0.1260124 0.94422317
vn -0.23285846 -0.23285846 0.94422126
vn -0.23285846 0.23285846 0.94422126
vn -0.1260124 -0.30424258 0.94422317
vn -0.1260124 0.30424258 0.94422317
vn -0 0.32929942 0.9442256
vn -0 -0.32929942 0.9442256
vn 0.1260124 0.30424258 0.94422317
vn 0.1260124 -0.30424258 0.94422317
vn 0.23285846 -0.23285846 0.94422126
vn 0.23285846 0.23285846 0.94422126
vn 0.30424258 -0.1260124 0.94422317
vn 0.30424258 0.1260124 0.94422317
vn 0.32929942 0 0.9442256
vn 0.6894056 -0.2855407 -0.6657224
vn 0.7462008 0 -0.665721
vn 0.6894056 0.2855407 -0.6657224
vn 0.52764684 -0.52764684 -0.6657159
vn 0.52764684 0.52764684 -0.6657159
vn 0.2855407 -0.6894056 -0.6657224
vn 0.2855407 0.6894056 -0.6657224
vn -0 -0.7462008 -0.665721
vn -0 0.7462008 -0.665721
vn -0.2855407 -0.6894056 -0.6657224
vn -0.2855407 0.6894056 -0.6657224
vn -0.52764684 0.52764684 -0.6657159
vn -0.52764684 -0.52764684 -0.6657159
vn -0.6894056 0.2855407 -0.6657224
vn -0.6894056 -0.2855407 -0.6657224
vn -0.7462008 0 -0.665721
g Moon_Pillar_Round_Cap_0
f 3/3/3 2/2/2 1/1/1
f 4/4/4 3/3/3 1/1/1
f 4/4/4 1/1/1 5/5/5
f 4/4/4 6/6/6 3/3/3
f 6/6/6 7/7/7 3/3/3
f 8/8/8 6/6/6 4/4/4
f 9/9/9 4/4/4 5/5/5
f 9/9/9 8/8/8 4/4/4
f 9/9/9 5/5/5 10/10/10
f 11/11/11 8/8/8 9/9/9
f 12/12/12 9/9/9 10/10/10
f 12/12/12 11/11/11 9/9/9
f 12/12/12 10/10/10 13/13/13
f 14/14/14 11/11/11 12/12/12
f 15/15/15 12/12/12 13/13/13
f 15/15/15 14/14/14 12/12/12
f 15/15/15 13/13/13 16/16/16
f 17/17/17 14/14/14 15/15/15
f 18/18/18 15/15/15 16/16/16
f 18/18/18 17/17/17 15/15/15
f 18/18/18 16/16/16 19/19/19
f 20/20/20 17/17/17 18/18/18
f 21/21/21 18/18/18 19/19/19
f 21/21/21 20/20/20 18/18/18
f 21/21/21 19/19/19 22/22/22
f 23/23/23 20/20/20 21/21/21
f 24/24/24 21/21/21 22/22/22
f 24/24/24 23/23/23 21/21/21
f 24/24/24 22/22/22 25/25/25
f 26/26/26 23/23/23 24/24/24
f 27/27/27 24/24/24 25/25/25
f 27/27/27 26/26/26 24/24/24
f 27/27/27 25/25/25 28/28/28
f 29/29/29 26/26/26 27/27/27
f 30/30/30 27/27/27 28/28/28
f 30/30/30 29/29/29 27/27/27
f 30/30/30 28/28/28 31/31/31
f 32/32/32 29/29/29 30/30/30
f 33/33/33 30/30/30 31/31/31
f 33/33/33 32/32/32 30/30/30
f 33/33/33 31/31/31 34/34/34
f 35/35/35 32/32/32 33/33/33
f 36/36/36 33/33/33 34/34/34
f 36/36/36 35/35/35 33/33/33
f 36/36/36 34/34/34 37/37/37
f 38/38/38 35/35/35 36/36/36
f 39/39/39 36/36/36 37/37/37
f 39/39/39 38/38/38 36/36/36
f 39/39/39 37/37/37 40/40/40
f 41/41/41 38/38/38 39/39/39
f 42/42/42 39/39/39 40/40/40
f 42/42/42 41/41/41 39/39/39
f 42/42/42 40/40/40 43/43/43
f 44/44/44 41/41/41 42/42/42
f 45/45/45 42/42/42 43/43/43
f 45/45/45 44/44/44 42/42/42
f 45/45/45 43/43/43 46/46/46
f 47/47/47 44/44/44 45/45/45
f 48/48/48 45/45/45 46/46/46
f 48/48/48 47/47/47 45/45/45
f 48/48/48 46/46/46 49/49/49
f 50/50/50 47/47/47 48/48/48
f 51/51/51 48/48/48 49/49/49
f 51/51/51 50/50/50 48/48/48
f 54/54/54 53/53/53 52/52/52
f 52/52/52 55/55/55 54/54/54
f 55/55/55 56/56/56 54/54/54
f 55/55/55 57/57/57 56/56/56
f 57/57/57 58/58/58 56/56/56
f 57/57/57 59/59/59 58/58/58
f 57/57/57 60/60/60 59/59/59
f 60/60/60 61/61/61 59/59/59
f 60/60/60 62/62/62 61/61/61
f 62/62/62 63/63/63 61/61/61
f 63/63/63 64/64/64 61/61/61
f 63/63/63 65/65/65 64/64/64
f 65/65/65 66/66/66 64/64/64
f 65/65/65 67/67/67 66/66/66
f 70/70/70 69/69/69 68/68/68
f 68/68/68 71/71/71 70/70/70
f 71/71/71 72/72/72 70/70/70
f 71/71/71 73/73/73 72/72/72
f 73/73/73 74/74/74 72/72/72
f 73/73/73 75/75/75 74/74/74
f 75/75/75 76/76/76 74/74/74
f 75/75/75 77/77/77 76/76/76
f 77/77/77 78/78/78 76/76/76
f 77/77/77 79/79/79 78/78/78
f 77/77/77 80/80/80 79/79/79
f 80/80/80 81/81/81 79/79/79
f 80/80/80 82/82/82 81/81/81
f 82/82/82 83/83/83 81/81/81
