g pb_Mesh401374
v -44 18 -80
v -53 18 -80
v -44 22 -80
v -53 22 -80
v -53 18 -80
v -53 18 -81
v -53 22 -80
v -53 22 -81
v -53 18 -81
v -44 18 -81
v -53 22 -81
v -44 22 -81
v -44 18 -81
v -44 18 -80
v -44 22 -81
v -44 22 -80
v -44 22 -80
v -53 22 -80
v -44 22 -81
v -53 22 -81
v -44 18 -81
v -53 18 -81
v -44 18 -80
v -53 18 -80
vt -44 18
vt -53 18
vt -44 22
vt -53 22
vt -80 18
vt -81 18
vt -80 22
vt -81 22
vt 53 18
vt 44 18
vt 53 22
vt 44 22
vt 81 18
vt 80 18
vt 81 22
vt 80 22
vt 44 -80
vt 53 -80
vt 44 -81
vt 53 -81
vt -44 -81
vt -53 -81
vt -44 -80
vt -53 -80
vn -0 0 1
vn -0 0 1
vn -0 0 1
vn -0 0 1
vn -1 0 0
vn -1 0 0
vn -1 0 0
vn -1 0 0
vn -0 0 -1
vn -0 0 -1
vn -0 0 -1
vn -0 0 -1
vn 1 0 0
vn 1 0 0
vn 1 0 0
vn 1 0 0
vn -0 1 0
vn -0 1 0
vn -0 1 0
vn -0 1 0
vn -0 -1 0
vn -0 -1 0
vn -0 -1 0
vn -0 -1 0
g pb_Mesh401374_0
f 3/3/3 2/2/2 1/1/1
f 3/3/3 4/4/4 2/2/2
f 7/7/7 6/6/6 5/5/5
f 7/7/7 8/8/8 6/6/6
f 11/11/11 10/10/10 9/9/9
f 11/11/11 12/12/12 10/10/10
f 15/15/15 14/14/14 13/13/13
f 15/15/15 16/16/16 14/14/14
f 19/19/19 18/18/18 17/17/17
f 19/19/19 20/20/20 18/18/18
f 23/23/23 22/22/22 21/21/21
f 23/23/23 24/24/24 22/22/22
