g pb_Mesh402708
v -16 -160 20
v -30 -160 20
v -16 60 20
v -30 61 20
v -30 -160 20
v -30 -160 10
v -30 61 20
v -30 60 10
v -30 -160 10
v -17 -160 10
v -30 60 10
v -17 60 10
v -17 -160 10
v -16 -160 20
v -17 60 10
v -16 60 20
v -16 60 20
v -30 61 20
v -17 60 10
v -30 60 10
v -17 -160 10
v -30 -160 10
v -16 -160 20
v -30 -160 20
vt -16 -160
vt -30 -160
vt -16 60
vt -30 61
vt 20 -160
vt 10 -160
vt 20 61
vt 10 60
vt 30 -160
vt 17 -160
vt 30 60
vt 17 60
vt -8.258809 -160
vt -18.308685 -160
vt -8.258809 60
vt -18.308685 60
vt 20.234161 20.417757
vt 34.269833 20.417757
vt 21.23162 10.417502
vt 34.198586 10.410904
vt -17 10
vt -30 10
vt -16 20
vt -30 20
vn -0 0 1
vn -0 0 1
vn -0 0 1
vn -0 0 1
vn -1 0 0
vn -1 0 0
vn -1 0 0
vn -1 0 0
vn -0 0 -1
vn -0 0 -1
vn -0 0 -1
vn -0 0 -1
vn 0.99503714 0 -0.09950372
vn 0.99503714 0 -0.09950372
vn 0.99503714 0 -0.09950372
vn 0.99503714 0 -0.09950372
vn 0.071245246 0.9974334 -0.0071245246
vn 0.036962073 0.99797595 -0.0517469
vn 0.036962073 0.99797595 -0.0517469
vn -0 0.99503726 -0.099503726
vn -0 -1 0
vn -0 -1 0
vn -0 -1 0
vn -0 -1 0
g pb_Mesh402708_0
f 3/3/3 2/2/2 1/1/1
f 3/3/3 4/4/4 2/2/2
f 7/7/7 6/6/6 5/5/5
f 7/7/7 8/8/8 6/6/6
f 11/11/11 10/10/10 9/9/9
f 11/11/11 12/12/12 10/10/10
f 15/15/15 14/14/14 13/13/13
f 15/15/15 16/16/16 14/14/14
f 19/19/19 18/18/18 17/17/17
f 19/19/19 20/20/20 18/18/18
f 23/23/23 22/22/22 21/21/21
f 23/23/23 24/24/24 22/22/22
