g pb_Mesh397832
v 20 -160 -90
v -60 -160 -90
v 20 58 -90
v -60 58 -90
v -60 -160 -90
v -60 -160 -100
v -60 58 -90
v -60 58 -100
v -60 -160 -100
v 16 -160 -100
v -60 58 -100
v 16 58 -100
v 16 -160 -100
v 20 -160 -90
v 16 58 -100
v 20 58 -90
v 20 58 -90
v -60 58 -90
v 16 58 -100
v -60 58 -100
v 16 -160 -100
v -60 -160 -100
v 20 -160 -90
v -60 -160 -90
vt 20 -160
vt -60 -160
vt 20 58
vt -60 58
vt -90 -160
vt -100 -160
vt -90 58
vt -100 58
vt 60 -160
vt -16 -160
vt 60 58
vt -16 58
vt 86.90542 -160
vt 76.135086 -160
vt 86.90542 58
vt 76.135086 58
vt -20 -90
vt 60 -90
vt -16 -100
vt 60 -100
vt 16 -100
vt -60 -100
vt 20 -90
vt -60 -90
vn -0 0 1
vn -0 0 1
vn -0 0 1
vn -0 0 1
vn -1 0 0
vn -1 0 0
vn -1 0 0
vn -1 0 0
vn -0 0 -1
vn -0 0 -1
vn -0 0 -1
vn -0 0 -1
vn 0.9284767 0 -0.37139067
vn 0.9284767 0 -0.37139067
vn 0.9284767 0 -0.37139067
vn 0.9284767 0 -0.37139067
vn -0 1 0
vn -0 1 0
vn -0 1 0
vn -0 1 0
vn -0 -1 0
vn -0 -1 0
vn -0 -1 0
vn -0 -1 0
g pb_Mesh397832_0
f 3/3/3 2/2/2 1/1/1
f 3/3/3 4/4/4 2/2/2
f 7/7/7 6/6/6 5/5/5
f 7/7/7 8/8/8 6/6/6
f 11/11/11 10/10/10 9/9/9
f 11/11/11 12/12/12 10/10/10
f 15/15/15 14/14/14 13/13/13
f 15/15/15 16/16/16 14/14/14
f 19/19/19 18/18/18 17/17/17
f 19/19/19 20/20/20 18/18/18
f 23/23/23 22/22/22 21/21/21
f 23/23/23 24/24/24 22/22/22
