g pb_Mesh390646
v 10 -150 3
v 5 -150 3
v 10 56 3
v 5 56 3
v 5 -150 3
v 6 -150 -2
v 5 56 3
v 6 56 -2
v 6 -150 -2
v 10 -150 -6
v 6 56 -2
v 10 55 -6
v 10 -150 -6
v 10 -150 3
v 10 55 -6
v 10 56 3
v 10 56 3
v 5 56 3
v 10 55 -6
v 6 56 -2
v 10 -150 -6
v 6 -150 -2
v 10 -150 3
v 5 -150 3
vt 10 -150
vt 5 -150
vt 10 56
vt 5 56
vt 1.9611614 -150
vt -3.1378582 -150
vt 1.9611614 56
vt -3.1378582 56
vt -5.6568546 -150
vt -11.313709 -150
vt -5.6568546 56
vt -11.313709 55
vt 6 -150
vt -3 -150
vt 6 55
vt -3 56
vt -10 9.165817
vt -5 9.165817
vt -10 0.110431395
vt -6 4.1963983
vt 10 -6
vt 6 -2
vt 10 3
vt 5 3
vn -0 0 1
vn -0 0 1
vn -0 0 1
vn -0 0 1
vn -0.9805806 0 -0.19611613
vn -0.9805806 0 -0.19611613
vn -0.9805806 0 -0.19611613
vn -0.9805806 0 -0.19611613
vn -0.7071067 0 -0.7071067
vn -0.7071068 0 -0.7071068
vn -0.7071068 0 -0.7071068
vn -0.70710677 0 -0.70710677
vn 1 0 0
vn 0.99999994 0 0
vn 0.99999994 0 0
vn 0.99999994 0 0
vn -0 0.9938837 -0.11043153
vn 0.081519336 0.9945359 -0.06521547
vn 0.081519336 0.9945359 -0.06521547
vn 0.29774565 0.9527861 0.05954913
vn -0 -1 0
vn -0 -0.99999994 0
vn -0 -0.99999994 0
vn -0 -1 0
g pb_Mesh390646_0
f 3/3/3 2/2/2 1/1/1
f 3/3/3 4/4/4 2/2/2
f 7/7/7 6/6/6 5/5/5
f 7/7/7 8/8/8 6/6/6
f 11/11/11 10/10/10 9/9/9
f 11/11/11 12/12/12 10/10/10
f 15/15/15 14/14/14 13/13/13
f 15/15/15 16/16/16 14/14/14
f 19/19/19 18/18/18 17/17/17
f 19/19/19 20/20/20 18/18/18
f 23/23/23 22/22/22 21/21/21
f 23/23/23 24/24/24 22/22/22
