g pb_Mesh399512
v -20 56 -10
v -40 56 -10
v -20 60 -10
v -40 60 -10
v -40 56 -10
v -40 56 -20
v -40 60 -10
v -40 60 -20
v -40 56 -20
v -20 56 -20
v -40 60 -20
v -20 60 -20
v -20 56 -20
v -20 56 -10
v -20 60 -20
v -20 60 -10
v -20 60 -10
v -40 60 -10
v -20 60 -20
v -40 60 -20
v -20 56 -20
v -40 56 -20
v -20 56 -10
v -40 56 -10
vt -20 56
vt -40 56
vt -20 60
vt -40 60
vt -10 56
vt -20 56
vt -10 60
vt -20 60
vt 40 56
vt 20 56
vt 40 60
vt 20 60
vt 20 56
vt 10 56
vt 20 60
vt 10 60
vt 20 -10
vt 40 -10
vt 20 -20
vt 40 -20
vt -20 -20
vt -40 -20
vt -20 -10
vt -40 -10
vn -0 0 1
vn -0 0 1
vn -0 0 1
vn -0 0 1
vn -1 0 0
vn -1 0 0
vn -1 0 0
vn -1 0 0
vn -0 0 -1
vn -0 0 -1
vn -0 0 -1
vn -0 0 -1
vn 1 0 0
vn 1 0 0
vn 1 0 0
vn 1 0 0
vn -0 1 0
vn -0 1 0
vn -0 1 0
vn -0 1 0
vn -0 -1 0
vn -0 -1 0
vn -0 -1 0
vn -0 -1 0
g pb_Mesh399512_0
f 3/3/3 2/2/2 1/1/1
f 3/3/3 4/4/4 2/2/2
f 7/7/7 6/6/6 5/5/5
f 7/7/7 8/8/8 6/6/6
f 11/11/11 10/10/10 9/9/9
f 11/11/11 12/12/12 10/10/10
f 15/15/15 14/14/14 13/13/13
f 15/15/15 16/16/16 14/14/14
f 19/19/19 18/18/18 17/17/17
f 19/19/19 20/20/20 18/18/18
f 23/23/23 22/22/22 21/21/21
f 23/23/23 24/24/24 22/22/22
