g pb_Mesh395140
v -120 -160 -5
v -129 -160 -5
v -120 58 0
v -129 63 -5
v -129 -160 -5
v -129 -160 -105
v -129 63 -5
v -129 63 -105
v -129 -160 -105
v -120 -160 -110
v -129 63 -105
v -120 58 -110
v -120 -160 -110
v -120 -160 -5
v -120 58 -110
v -120 58 0
v -120 58 0
v -129 63 -5
v -120 58 -110
v -129 63 -105
v -120 -160 -110
v -129 -160 -105
v -120 -160 -5
v -129 -160 -5
vt -120 -160.07259
vt -129 -160.07259
vt -120 57.984753
vt -129 62.868786
vt -5 -160
vt -105 -160
vt -5 63
vt -105 63
vt 61.77378 -160
vt 51.47815 -160
vt 61.77378 63
vt 51.47815 58
vt 110 -160
vt 5 -160
vt 110 58
vt 0 58
vt 133.06616 0
vt 143.3618 -5
vt 133.06616 -110
vt 143.3618 -105
vt -120 -110
vt -129 -105
vt -120 -5
vt -129 -5
vn -0 -0.022929749 0.9997371
vn -0.27044144 -0.010914677 0.96267456
vn -0.27044144 -0.010914677 0.96267456
vn -0.4856429 0 0.87415725
vn -1 0 0
vn -1 0 0
vn -1 0 0
vn -1 0 0
vn -0.4856429 0 -0.87415725
vn -0.4856429 0 -0.87415725
vn -0.4856429 0 -0.87415725
vn -0.48564294 0 -0.8741573
vn 1 0 0
vn 1 0 0
vn 1 0 0
vn 0.99999994 0 0
vn 0.48564294 0.8741573 0
vn 0.48564294 0.8741573 0
vn 0.48564294 0.8741573 0
vn 0.48564294 0.87415725 0
vn -0 -1 0
vn -0 -1 0
vn -0 -1 0
vn -0 -1 0
g pb_Mesh395140_0
f 3/3/3 2/2/2 1/1/1
f 3/3/3 4/4/4 2/2/2
f 7/7/7 6/6/6 5/5/5
f 7/7/7 8/8/8 6/6/6
f 11/11/11 10/10/10 9/9/9
f 11/11/11 12/12/12 10/10/10
f 15/15/15 14/14/14 13/13/13
f 15/15/15 16/16/16 14/14/14
f 19/19/19 18/18/18 17/17/17
f 19/19/19 20/20/20 18/18/18
f 23/23/23 22/22/22 21/21/21
f 23/23/23 24/24/24 22/22/22
