g pb_Mesh395792
v 10 -150 3
v 5 -150 3
v 10 52 3
v 5 55 3
v 5 -150 3
v 5 -150 -7
v 5 55 3
v 5 54 -7
v 5 -150 -7
v 10 -150 -7
v 5 54 -7
v 10 52 -7
v 10 -150 -7
v 10 -150 3
v 10 52 -7
v 10 52 3
v 10 52 3
v 5 55 3
v 10 52 -7
v 5 54 -7
v 10 -150 -7
v 5 -150 -7
v 10 -150 3
v 5 -150 3
vt 10 -150
vt 5 -150
vt 10 52
vt 5 55
vt 3 -150
vt -7 -150
vt 3 55
vt -7 54
vt -5 -150
vt -10 -150
vt -5 54
vt -10 52
vt 7 -150
vt -3 -150
vt 7 52
vt -3 52
vt 18.178848 3
vt 24.0098 3
vt 18.178848 -7
vt 23.495304 -7
vt 10 -7
vt 5 -7
vt 10 3
vt 5 3
vn -0 0 1
vn -0 0 1
vn -0 0 1
vn -0 0 1
vn -1 0 0
vn -1 0 0
vn -1 0 0
vn -1 0 0
vn -0 0 -1
vn -0 0 -1
vn -0 0 -1
vn -0 0 -1
vn 1 0 0
vn 1 0 0
vn 1 0 0
vn 1 0 0
vn 0.51449573 0.8574929 0
vn 0.44676703 0.89353406 -0.044676702
vn 0.44676703 0.89353406 -0.044676702
vn 0.3698001 0.9245003 -0.09245002
vn -0 -1 0
vn -0 -1 0
vn -0 -1 0
vn -0 -1 0
g pb_Mesh395792_0
f 3/3/3 2/2/2 1/1/1
f 3/3/3 4/4/4 2/2/2
f 7/7/7 6/6/6 5/5/5
f 7/7/7 8/8/8 6/6/6
f 11/11/11 10/10/10 9/9/9
f 11/11/11 12/12/12 10/10/10
f 15/15/15 14/14/14 13/13/13
f 15/15/15 16/16/16 14/14/14
f 19/19/19 18/18/18 17/17/17
f 19/19/19 20/20/20 18/18/18
f 23/23/23 22/22/22 21/21/21
f 23/23/23 24/24/24 22/22/22
