g pb_Mesh396344
v -82 -160 -55
v -115 -160 -55
v -82 77 -55
v -115 77 -55
v -115 -160 -55
v -115 -160 -65
v -115 77 -55
v -115 77 -65
v -115 -160 -65
v -80 -160 -65
v -115 77 -65
v -80 77 -65
v -80 -160 -65
v -82 -160 -55
v -80 77 -65
v -82 77 -55
v -82 77 -55
v -115 77 -55
v -80 77 -65
v -115 77 -65
v -80 -160 -65
v -115 -160 -65
v -82 -160 -55
v -115 -160 -55
vt -82 -160
vt -115 -160
vt -82 77
vt -115 77
vt -55 -160
vt -65 -160
vt -55 77
vt -65 77
vt 115 -160
vt 80 -160
vt 115 77
vt 80 77
vt 48.048454 -160
vt 37.850414 -160
vt 48.048454 77
vt 37.850414 77
vt 82 -55
vt 115 -55
vt 80 -65
vt 115 -65
vt -80 -65
vt -115 -65
vt -82 -55
vt -115 -55
vn -0 0 0.99999994
vn -0 0 0.99999994
vn -0 0 0.99999994
vn -0 0 0.99999994
vn -1 0 0
vn -1 0 0
vn -1 0 0
vn -1 0 0
vn -0 0 -1
vn -0 0 -1
vn -0 0 -1
vn -0 0 -1
vn 0.9805806 0 0.19611612
vn 0.9805806 0 0.19611612
vn 0.9805806 0 0.19611612
vn 0.9805806 0 0.19611612
vn -0 0.99999994 0
vn -0 1 0
vn -0 1 0
vn -0 1 0
vn -0 -1 0
vn -0 -1 0
vn -0 -1 0
vn -0 -0.99999994 0
g pb_Mesh396344_0
f 3/3/3 2/2/2 1/1/1
f 3/3/3 4/4/4 2/2/2
f 7/7/7 6/6/6 5/5/5
f 7/7/7 8/8/8 6/6/6
f 11/11/11 10/10/10 9/9/9
f 11/11/11 12/12/12 10/10/10
f 15/15/15 14/14/14 13/13/13
f 15/15/15 16/16/16 14/14/14
f 19/19/19 18/18/18 17/17/17
f 19/19/19 20/20/20 18/18/18
f 23/23/23 22/22/22 21/21/21
f 23/23/23 24/24/24 22/22/22
