g pb_Mesh394632
v 10 -150 3
v 5 -150 3
v 10 58 3
v 5 58 3
v 5 -150 3
v 5 -150 -7
v 5 58 3
v 5 56 -7
v 5 -150 -7
v 10 -150 -7
v 5 56 -7
v 10 55 -7
v 10 -150 -7
v 10 -150 3
v 10 55 -7
v 10 58 3
v 10 58 3
v 5 58 3
v 10 55 -7
v 5 56 -7
v 10 -150 -7
v 5 -150 -7
v 10 -150 3
v 5 -150 3
vt 10 -150
vt 5 -150
vt 10 58
vt 5 58
vt 3 -150
vt -7 -150
vt 3 58
vt -7 56
vt -5 -150
vt -10 -150
vt -5 56
vt -10 55
vt 7 -150
vt -3 -150
vt 7 55
vt -3 58
vt -10 19.539658
vt -5 19.539658
vt -10 9.099351
vt -5 9.386699
vt 10 -7
vt 5 -7
vt 10 3
vt 5 3
vn -0 0 1
vn -0 0 1
vn -0 0 1
vn -0 0 1
vn -1 0 0
vn -1 0 0
vn -1 0 0
vn -1 0 0
vn -0 0 -1
vn -0 0 -1
vn -0 0 -1
vn -0 0 -1
vn 1 0 0
vn 1 0 0
vn 1 0 0
vn 1 0 0
vn -0 0.95782626 -0.28734788
vn 0.09656091 0.96560913 -0.24140228
vn 0.09656091 0.96560913 -0.24140228
vn 0.19245008 0.9622504 -0.19245008
vn -0 -1 0
vn -0 -1 0
vn -0 -1 0
vn -0 -1 0
g pb_Mesh394632_0
f 3/3/3 2/2/2 1/1/1
f 3/3/3 4/4/4 2/2/2
f 7/7/7 6/6/6 5/5/5
f 7/7/7 8/8/8 6/6/6
f 11/11/11 10/10/10 9/9/9
f 11/11/11 12/12/12 10/10/10
f 15/15/15 14/14/14 13/13/13
f 15/15/15 16/16/16 14/14/14
f 19/19/19 18/18/18 17/17/17
f 19/19/19 20/20/20 18/18/18
f 23/23/23 22/22/22 21/21/21
f 23/23/23 24/24/24 22/22/22
