g pb_Mesh391166
v -8 20 -45
v -47 20 -45
v -8 27 -45
v -47 27 -45
v -47 20 -45
v -47 20 -51
v -47 27 -45
v -47 31 -51
v -47 20 -51
v -8 20 -51
v -47 31 -51
v -8 31 -51
v -8 20 -51
v -8 20 -45
v -8 31 -51
v -8 27 -45
v -8 27 -45
v -47 27 -45
v -8 31 -51
v -47 31 -51
v -8 20 -51
v -47 20 -51
v -8 20 -45
v -47 20 -45
vt -8 20
vt -47 20
vt -8 27
vt -47 27
vt -45 20
vt -51 20
vt -45 27
vt -51 31
vt 47 20
vt 8 20
vt 47 31
vt 8 31
vt 51 20
vt 45 20
vt 51 31
vt 45 27
vt 8 -52.41917
vt 47 -52.41917
vt 8 -59.630276
vt 47 -59.630276
vt -8 -51
vt -47 -51
vt -8 -45
vt -47 -45
vn -0 0 1
vn -0 0 1
vn -0 0 1
vn -0 0 1
vn -1 0 0
vn -1 0 0
vn -1 0 0
vn -1 0 0
vn -0 0 -1
vn -0 0 -1
vn -0 0 -1
vn -0 0 -1
vn 1 0 0
vn 1 0 0
vn 1 0 0
vn 1 0 0
vn -0 0.8320503 0.5547002
vn -0 0.8320503 0.5547002
vn -0 0.8320503 0.5547002
vn -0 0.8320503 0.5547002
vn -0 -1 0
vn -0 -1 0
vn -0 -1 0
vn -0 -1 0
g pb_Mesh391166_0
f 3/3/3 2/2/2 1/1/1
f 3/3/3 4/4/4 2/2/2
f 7/7/7 6/6/6 5/5/5
f 7/7/7 8/8/8 6/6/6
f 11/11/11 10/10/10 9/9/9
f 11/11/11 12/12/12 10/10/10
f 15/15/15 14/14/14 13/13/13
f 15/15/15 16/16/16 14/14/14
f 19/19/19 18/18/18 17/17/17
f 19/19/19 20/20/20 18/18/18
f 23/23/23 22/22/22 21/21/21
f 23/23/23 24/24/24 22/22/22
