g pb_Mesh395742
v 10 -150 3
v 5 -150 3
v 10 55 3
v 5 56 3
v 5 -150 3
v 5 -150 -6
v 5 56 3
v 5 55 -6
v 5 -150 -6
v 10 -150 -7
v 5 55 -6
v 10 54 -7
v 10 -150 -7
v 10 -150 3
v 10 54 -7
v 10 55 3
v 10 55 3
v 5 56 3
v 10 54 -7
v 5 55 -6
v 10 -150 -7
v 5 -150 -6
v 10 -150 3
v 5 -150 3
vt 10 -150
vt 5 -150
vt 10 55
vt 5 56
vt 3 -150
vt -6 -150
vt 3 56
vt -6 55
vt -6.079601 -150
vt -11.17862 -150
vt -6.079601 55
vt -11.17862 54
vt 7 -150
vt -3 -150
vt 7 54
vt -3 55
vt 0.98057973 8.440289
vt 6.0795994 8.440289
vt 0.7844636 -1.6076741
vt 5.883483 -0.6124473
vt 10 -7
vt 5 -6
vt 10 3
vt 5 3
vn -0 0 1
vn -0 0 1
vn -0 0 1
vn -0 0 1
vn -0.99999994 0 0
vn -0.99999994 0 0
vn -0.99999994 0 0
vn -1 0 0
vn -0.19611613 0 -0.9805807
vn -0.19611613 0 -0.9805807
vn -0.19611613 0 -0.9805807
vn -0.19611615 0 -0.98058075
vn 1 0 0
vn 1 0 0
vn 1 0 0
vn 1 0 0
vn 0.19518001 0.97590005 -0.09759001
vn 0.18517382 0.9773063 -0.102874346
vn 0.18517382 0.9773063 -0.102874346
vn 0.17399529 0.97872347 -0.10874705
vn -0 -1 0
vn -0 -1 0
vn -0 -1 0
vn -0 -1 0
g pb_Mesh395742_0
f 3/3/3 2/2/2 1/1/1
f 3/3/3 4/4/4 2/2/2
f 7/7/7 6/6/6 5/5/5
f 7/7/7 8/8/8 6/6/6
f 11/11/11 10/10/10 9/9/9
f 11/11/11 12/12/12 10/10/10
f 15/15/15 14/14/14 13/13/13
f 15/15/15 16/16/16 14/14/14
f 19/19/19 18/18/18 17/17/17
f 19/19/19 20/20/20 18/18/18
f 23/23/23 22/22/22 21/21/21
f 23/23/23 24/24/24 22/22/22
