g pb_Mesh397116
v -10 18 -79
v -11 18 -79
v -10 22 -79
v -11 22 -79
v -11 18 -79
v -11 18 -140
v -11 22 -79
v -11 22 -140
v -11 18 -140
v -10 18 -140
v -11 22 -140
v -10 22 -140
v -10 18 -140
v -10 18 -79
v -10 22 -140
v -10 22 -79
v -10 22 -79
v -11 22 -79
v -10 22 -140
v -11 22 -140
v -10 18 -140
v -11 18 -140
v -10 18 -79
v -11 18 -79
vt -10 18
vt -11 18
vt -10 22
vt -11 22
vt -79 18
vt -140 18
vt -79 22
vt -140 22
vt 11 18
vt 10 18
vt 11 22
vt 10 22
vt 140 18
vt 79 18
vt 140 22
vt 79 22
vt 10 -79
vt 11 -79
vt 10 -140
vt 11 -140
vt -10 -140
vt -11 -140
vt -10 -79
vt -11 -79
vn -0 0 1
vn -0 0 1
vn -0 0 1
vn -0 0 1
vn -0.99999994 0 0
vn -0.99999994 0 0
vn -0.99999994 0 0
vn -0.99999994 0 0
vn -0 0 -1
vn -0 0 -1
vn -0 0 -1
vn -0 0 -1
vn 0.99999994 0 0
vn 0.99999994 0 0
vn 0.99999994 0 0
vn 0.99999994 0 0
vn -0 0.99999994 0
vn -0 0.99999994 0
vn -0 0.99999994 0
vn -0 0.99999994 0
vn -0 -0.99999994 0
vn -0 -0.99999994 0
vn -0 -0.99999994 0
vn -0 -0.99999994 0
g pb_Mesh397116_0
f 3/3/3 2/2/2 1/1/1
f 3/3/3 4/4/4 2/2/2
f 7/7/7 6/6/6 5/5/5
f 7/7/7 8/8/8 6/6/6
f 11/11/11 10/10/10 9/9/9
f 11/11/11 12/12/12 10/10/10
f 15/15/15 14/14/14 13/13/13
f 15/15/15 16/16/16 14/14/14
f 19/19/19 18/18/18 17/17/17
f 19/19/19 20/20/20 18/18/18
f 23/23/23 22/22/22 21/21/21
f 23/23/23 24/24/24 22/22/22
