g pb_Mesh390836
v -17 -160 20
v -30 -160 20
v -17 60 20
v -30 60 20
v -30 -160 20
v -29 -160 10
v -30 60 20
v -29 60 10
v -29 -160 10
v -16 -160 10
v -29 60 10
v -16 60 10
v -16 -160 10
v -17 -160 20
v -16 60 10
v -17 60 20
v -17 60 20
v -30 60 20
v -16 60 10
v -29 60 10
v -16 -160 10
v -29 -160 10
v -17 -160 20
v -30 -160 20
vt -17 -160
vt -30 -160
vt -17 60
vt -30 60
vt 22.885855 -160
vt 12.835979 -160
vt 22.885855 60
vt 12.835979 60
vt 29 -160
vt 16 -160
vt 29 60
vt 16 60
vt -11.542432 -160
vt -21.592308 -160
vt -11.542432 60
vt -21.592308 60
vt 17 20
vt 30 20
vt 16 10
vt 29 10
vt -16 10
vt -29 10
vt -17 20
vt -30 20
vn -0 0 1
vn -0 0 1
vn -0 0 1
vn -0 0 1
vn -0.99503714 0 -0.09950372
vn -0.99503714 0 -0.09950372
vn -0.99503714 0 -0.09950372
vn -0.99503714 0 -0.09950372
vn -0 0 -1
vn -0 0 -1
vn -0 0 -1
vn -0 0 -1
vn 0.99503714 0 0.09950372
vn 0.99503714 0 0.09950372
vn 0.99503714 0 0.09950372
vn 0.99503714 0 0.09950372
vn -0 1 0
vn -0 1 0
vn -0 1 0
vn -0 1 0
vn -0 -1 0
vn -0 -1 0
vn -0 -1 0
vn -0 -1 0
g pb_Mesh390836_0
f 3/3/3 2/2/2 1/1/1
f 3/3/3 4/4/4 2/2/2
f 7/7/7 6/6/6 5/5/5
f 7/7/7 8/8/8 6/6/6
f 11/11/11 10/10/10 9/9/9
f 11/11/11 12/12/12 10/10/10
f 15/15/15 14/14/14 13/13/13
f 15/15/15 16/16/16 14/14/14
f 19/19/19 18/18/18 17/17/17
f 19/19/19 20/20/20 18/18/18
f 23/23/23 22/22/22 21/21/21
f 23/23/23 24/24/24 22/22/22
