g pb_Mesh389790
v -9.536743E-07 8.000001 0
v -1.6076965 8.000001 -6
v -0 29.5 0
v -1.6076956 29.5 -6
v 0.39230347 8.000001 -6
v 1.73205 8.000001 -1
v 0.39230442 29.5 -6
v 1.7320509 29.5 -1
v 4.392305 8.000001 4.3923054
v -9.536743E-07 8.000001 0
v 4.392305 29.5 4.3923054
v -0 29.5 0
v 1.73205 8.000001 -1
v 5.392305 8.000001 2.6602545
v 1.7320509 29.5 -1
v 5.392305 29.5 2.6602545
v 10.392305 8.000001 6
v 4.392305 8.000001 4.3923054
v 10.392305 29.5 6
v 4.392305 29.5 4.3923054
v 5.392305 8.000001 2.6602545
v 10.392304 8.000001 4
v 5.392305 29.5 2.6602545
v 10.392304 29.5 4
v 16.392305 8.000001 4.3923044
v 10.392305 8.000001 6
v 16.392305 29.5 4.3923044
v 10.392305 29.5 6
v 10.392304 8.000001 4
v 15.392305 8.000001 2.6602535
v 10.392304 29.5 4
v 15.392305 29.5 2.6602535
v 20.784609 8.000001 9.536743E-07
v 16.392305 8.000001 4.3923044
v 20.784609 29.5 9.536743E-07
v 16.392305 29.5 4.3923044
v 15.392305 8.000001 2.6602535
v 19.052559 8.000001 -0.9999995
v 15.392305 29.5 2.6602535
v 19.052559 29.5 -0.9999995
v 22.392303 8.000001 -6.000001
v 20.784609 8.000001 9.536743E-07
v 22.392303 29.5 -6.000001
v 20.784609 29.5 9.536743E-07
v 19.052559 8.000001 -0.9999995
v 20.392303 8.000001 -6.000001
v 19.052559 29.5 -0.9999995
v 20.392303 29.5 -6.000001
v 20.784609 8.000001 -12
v 22.392303 8.000001 -6.000001
v 20.784609 29.5 -12
v 22.392303 29.5 -6.000001
v 20.392303 8.000001 -6.000001
v 19.052559 8.000001 -11
v 20.392303 29.5 -6.000001
v 19.052559 29.5 -11
v 16.392303 8.000001 -16.392305
v 20.784609 8.000001 -12
v 16.392303 29.5 -16.392305
v 20.784609 29.5 -12
v 19.052559 8.000001 -11
v 15.392303 8.000001 -14.6602545
v 19.052559 29.5 -11
v 15.392303 29.5 -14.6602545
v 10.392304 8.000001 -18
v 16.392303 8.000001 -16.392305
v 10.392304 29.5 -18
v 16.392303 29.5 -16.392305
v 15.392303 8.000001 -14.6602545
v 10.392304 8.000001 -16
v 15.392303 29.5 -14.6602545
v 10.392304 29.5 -16
v 4.3923054 8.000001 -16.392305
v 10.392304 8.000001 -18
v 4.3923054 29.5 -16.392305
v 10.392304 29.5 -18
v 10.392304 8.000001 -16
v 5.3923054 8.000001 -14.6602545
v 10.392304 29.5 -16
v 5.3923054 29.5 -14.6602545
v -0 8.000001 -12.000002
v 4.3923054 8.000001 -16.392305
v 9.536743E-07 29.5 -12.000002
v 4.3923054 29.5 -16.392305
v 5.3923054 8.000001 -14.6602545
v 1.73205 8.000001 -11.000002
v 5.3923054 29.5 -14.6602545
v 1.7320509 29.5 -11.000002
v -1.6076965 8.000001 -6
v -0 8.000001 -12.000002
v -1.6076956 29.5 -6
v 9.536743E-07 29.5 -12.000002
v 1.73205 8.000001 -11.000002
v 0.39230347 8.000001 -6
v 1.7320509 29.5 -11.000002
v 0.39230442 29.5 -6
v 9.536743E-07 51 0
v -1.6076946 51 -6
v 0.39230537 51 -6
v 1.7320518 51 -1
v 4.392305 51 4.3923054
v 9.536743E-07 51 0
v 1.7320518 51 -1
v 5.392305 51 2.6602545
v 10.392305 51 6
v 4.392305 51 4.3923054
v 5.392305 51 2.6602545
v 10.392304 51 4
v 16.392305 51 4.3923044
v 10.392305 51 6
v 10.392304 51 4
v 15.392305 51 2.6602535
v 20.784609 51 9.536743E-07
v 16.392305 51 4.3923044
v 15.392305 51 2.6602535
v 19.052559 51 -0.9999995
v 22.392303 51 -6.000001
v 20.784609 51 9.536743E-07
v 19.052559 51 -0.9999995
v 20.392303 51 -6.000001
v 20.784609 51 -12
v 22.392303 51 -6.000001
v 20.392303 51 -6.000001
v 19.052559 51 -11
v 16.392303 51 -16.392305
v 20.784609 51 -12
v 19.052559 51 -11
v 15.392303 51 -14.6602545
v 10.392304 29.5 -18
v 16.392303 29.5 -16.392305
v 10.392304 51 -18
v 16.392303 51 -16.392305
v 15.392303 51 -14.6602545
v 10.392304 51 -16
v 4.3923054 51 -16.392305
v 10.392304 51 -18
v 10.392304 29.5 -16
v 5.3923054 29.5 -14.6602545
v 10.392304 51 -16
v 5.3923054 51 -14.6602545
v 1.9073486E-06 51 -12.000002
v 4.3923054 29.5 -16.392305
v 4.3923054 51 -16.392305
v 1.9073486E-06 51 -12.000002
v 5.3923054 51 -14.6602545
v 1.7320518 51 -11.000002
v -1.6076946 51 -6
v 1.9073486E-06 51 -12.000002
v 1.7320509 29.5 -11.000002
v 0.39230442 29.5 -6
v 1.7320518 51 -11.000002
v 0.39230537 51 -6
v -1.6076965 8.000001 -6
v -9.536743E-07 8.000001 0
v 0.39230347 8.000001 -6
v 1.73205 8.000001 -1
v 9.536743E-07 51 0
v -1.6076946 51 -6
v 1.7320518 51 -1
v 0.39230537 51 -6
v 4.392305 8.000001 4.3923054
v 5.392305 8.000001 2.6602545
v 4.392305 51 4.3923054
v 5.392305 51 2.6602545
v 10.392305 8.000001 6
v 10.392304 8.000001 4
v 10.392305 51 6
v 10.392304 51 4
v 16.392305 8.000001 4.3923044
v 15.392305 8.000001 2.6602535
v 16.392305 51 4.3923044
v 15.392305 51 2.6602535
v 20.784609 8.000001 9.536743E-07
v 19.052559 8.000001 -0.9999995
v 20.784609 51 9.536743E-07
v 19.052559 51 -0.9999995
v 20.784609 8.000001 9.536743E-07
v 22.392303 8.000001 -6.000001
v 20.392303 8.000001 -6.000001
v 22.392303 51 -6.000001
v 20.392303 51 -6.000001
v 22.392303 8.000001 -6.000001
v 20.784609 8.000001 -12
v 19.052559 8.000001 -11
v 20.784609 51 -12
v 19.052559 51 -11
v 20.784609 8.000001 -12
v 16.392303 8.000001 -16.392305
v 15.392303 8.000001 -14.6602545
v 16.392303 51 -16.392305
v 15.392303 51 -14.6602545
v 16.392303 8.000001 -16.392305
v 10.392304 8.000001 -18
v 10.392304 8.000001 -16
v 10.392304 51 -18
v 10.392304 51 -16
v 10.392304 8.000001 -18
v 4.3923054 8.000001 -16.392305
v 5.3923054 8.000001 -14.6602545
v 4.3923054 51 -16.392305
v 10.392304 51 -18
v 5.3923054 51 -14.6602545
v -0 8.000001 -12.000002
v 1.73205 8.000001 -11.000002
v 1.9073486E-06 51 -12.000002
v 4.3923054 51 -16.392305
v 1.7320518 51 -11.000002
vt -2.4682916E-07 8.000001
vt -6.2116575 8.000001
vt 0 29.5
vt -6.211657 29.5
vt 5.6940193 8.000001
vt 0.5176381 8.000001
vt 5.694019 29.5
vt 0.51763785 29.5
vt 6.211658 8.000001
vt -6.743497E-07 8.000001
vt 6.211658 29.5
vt 0 29.5
vt -0.51763755 8.000001
vt -5.69402 8.000001
vt -0.51763827 29.5
vt -5.69402 29.5
vt 11.59111 8.000001
vt 5.3794527 8.000001
vt 11.59111 29.5
vt 5.3794527 29.5
vt -5.8970914 8.000001
vt -11.073472 8.000001
vt -5.8970914 29.5
vt -11.073472 29.5
vt 14.6969385 8.000001
vt 8.485281 8.000001
vt 14.6969385 29.5
vt 8.485281 29.5
vt -9.002918 8.000001
vt -14.1793 8.000001
vt -9.002918 29.5
vt -14.1793 29.5
vt 14.6969385 8.000001
vt 8.485283 8.000001
vt 14.6969385 29.5
vt 8.485283 29.5
vt -9.002921 8.000001
vt -14.179301 8.000001
vt -9.002921 29.5
vt -14.179301 29.5
vt 11.591107 8.000001
vt 5.3794484 8.000001
vt 11.591107 29.5
vt 5.3794484 29.5
vt -5.8970847 8.000001
vt -11.073467 8.000001
vt -5.8970847 29.5
vt -11.073467 29.5
vt 6.2116585 8.000001
vt 2.2543861E-06 8.000001
vt 6.2116585 29.5
vt 2.2543861E-06 29.5
vt -0.5176439 8.000001
vt -5.6940236 8.000001
vt -0.5176439 29.5
vt -5.6940236 29.5
vt 1.3486992E-06 8.000001
vt -6.211657 8.000001
vt 1.3486992E-06 29.5
vt -6.211657 29.5
vt 5.694023 8.000001
vt 0.5176404 8.000001
vt 5.694023 29.5
vt 0.5176404 29.5
vt -5.3794537 8.000001
vt -11.591109 8.000001
vt -5.3794537 29.5
vt -11.591109 29.5
vt 11.073471 8.000001
vt 5.897091 8.000001
vt 11.073471 29.5
vt 5.897091 29.5
vt -8.485282 8.000001
vt -14.696938 8.000001
vt -8.485282 29.5
vt -14.696938 29.5
vt 14.1793 8.000001
vt 9.00292 8.000001
vt 14.1793 29.5
vt 9.00292 29.5
vt -8.485281 8.000001
vt -14.696938 8.000001
vt -8.485282 29.5
vt -14.696938 29.5
vt 14.179299 8.000001
vt 9.002918 8.000001
vt 14.179299 29.5
vt 9.002918 29.5
vt -5.379452 8.000001
vt -11.591111 8.000001
vt -5.379452 29.5
vt -11.591112 29.5
vt 11.073473 8.000001
vt 5.8970904 8.000001
vt 11.073474 29.5
vt 5.897091 29.5
vt 2.4682916E-07 51
vt -6.211657 51
vt 5.694019 51
vt 0.5176376 51
vt 6.2116575 51
vt 6.7434956E-07 51
vt -0.5176386 51
vt -5.6940193 51
vt 11.59111 51
vt 5.3794527 51
vt -5.8970914 51
vt -11.073472 51
vt 14.6969385 51
vt 8.485281 51
vt -9.002918 51
vt -14.1793 51
vt 14.6969385 51
vt 8.485283 51
vt -9.002921 51
vt -14.179301 51
vt 11.591107 51
vt 5.3794484 51
vt -5.8970847 51
vt -11.073467 51
vt 6.2116585 51
vt 2.2543861E-06 51
vt -0.5176439 51
vt -5.6940236 51
vt 1.3486992E-06 51
vt -6.211657 51
vt 5.694023 51
vt 0.5176404 51
vt -5.3794537 29.5
vt -11.591109 29.5
vt -5.3794537 51
vt -11.591109 51
vt 11.073471 51
vt 5.897091 51
vt -8.485282 51
vt -14.696938 51
vt 14.1793 29.5
vt 9.00292 29.5
vt 14.1793 51
vt 9.00292 51
vt -8.485283 51
vt -14.6969385 29.5
vt -14.6969385 51
vt -8.485283 51
vt 14.179299 51
vt 9.00292 51
vt -5.3794527 51
vt -11.591112 51
vt 11.073474 29.5
vt 5.897091 29.5
vt 11.073474 51
vt 5.897091 51
vt -1.6076965 -6
vt -9.536743E-07 0
vt 0.39230347 -6
vt 1.73205 -1
vt -9.536743E-07 0
vt 1.6076946 -6
vt -1.7320518 -1
vt -0.39230537 -6
vt 4.392305 4.3923054
vt 5.392305 2.6602545
vt -4.392305 4.3923054
vt -5.392305 2.6602545
vt 10.392305 6
vt 10.392304 4
vt -10.392305 6
vt -10.392304 4
vt 16.392305 4.3923044
vt 15.392305 2.6602535
vt -16.392305 4.3923044
vt -15.392305 2.6602535
vt 20.784609 9.536743E-07
vt 19.052559 -0.9999995
vt -20.784609 9.536743E-07
vt -19.052559 -0.9999995
vt 20.784609 9.536743E-07
vt 22.392303 -6.000001
vt 20.392303 -6.000001
vt -22.392303 -6.000001
vt -20.392303 -6.000001
vt 22.392303 -6.000001
vt 20.784609 -12
vt 19.052559 -11
vt -20.784609 -12
vt -19.052559 -11
vt 20.784609 -12
vt 16.392303 -16.392305
vt 15.392303 -14.6602545
vt -16.392303 -16.392305
vt -15.392303 -14.6602545
vt 16.392303 -16.392305
vt 10.392304 -18
vt 10.392304 -16
vt -10.392304 -18
vt -10.392304 -16
vt 10.392304 -18
vt 4.3923054 -16.392305
vt 5.3923054 -14.6602545
vt -4.3923054 -16.392305
vt -10.392304 -18
vt -5.3923054 -14.6602545
vt 0 -12.000002
vt 1.73205 -11.000002
vt -1.9073486E-06 -12.000002
vt -4.3923054 -16.392305
vt -1.7320518 -11.000002
vn -0.9659258 4.284552E-08 0.25881913
vn -0.9659258 4.284552E-08 0.25881913
vn -0.9659258 4.284552E-08 0.25881913
vn -0.9659258 4.284552E-08 0.25881913
vn 0.9659258 -4.2845517E-08 -0.25881916
vn 0.9659258 -4.2845517E-08 -0.25881916
vn 0.9659258 -4.2845517E-08 -0.25881916
vn 0.9659258 -4.2845517E-08 -0.25881916
vn -0.70710665 0 0.70710677
vn -0.70710677 1.5682549E-08 0.7071068
vn -0.70710677 1.5682549E-08 0.7071068
vn -0.7071068 3.13651E-08 0.70710677
vn 0.7071067 -3.1365094E-08 -0.70710677
vn 0.70710677 -1.5682549E-08 -0.7071067
vn 0.70710677 -1.5682549E-08 -0.7071067
vn 0.70710677 0 -0.70710665
vn -0.25881892 0 0.9659258
vn -0.25881892 0 0.9659258
vn -0.25881892 0 0.9659258
vn -0.25881892 0 0.9659258
vn 0.25881898 0 -0.9659259
vn 0.25881898 0 -0.9659259
vn 0.25881898 0 -0.9659259
vn 0.25881898 0 -0.9659259
vn 0.25881913 0 0.9659258
vn 0.25881913 0 0.9659258
vn 0.25881913 0 0.9659258
vn 0.25881913 0 0.9659258
vn -0.2588191 0 -0.9659258
vn -0.2588191 0 -0.9659258
vn -0.2588191 0 -0.9659258
vn -0.2588191 0 -0.9659258
vn 0.70710677 0 0.70710677
vn 0.70710677 0 0.70710677
vn 0.70710677 0 0.70710677
vn 0.70710677 0 0.70710677
vn -0.70710677 0 -0.7071068
vn -0.70710677 0 -0.7071068
vn -0.70710677 0 -0.7071068
vn -0.70710677 0 -0.7071068
vn 0.9659258 0 0.25881886
vn 0.9659258 0 0.25881886
vn 0.9659258 0 0.25881886
vn 0.9659258 0 0.25881886
vn -0.9659259 0 -0.25881872
vn -0.9659259 0 -0.25881872
vn -0.9659259 0 -0.25881872
vn -0.9659259 0 -0.25881872
vn 0.9659258 0 -0.25881898
vn 0.9659258 0 -0.25881898
vn 0.9659258 0 -0.25881898
vn 0.9659258 0 -0.25881898
vn -0.96592593 0 0.25881886
vn -0.96592593 0 0.25881886
vn -0.96592593 0 0.25881886
vn -0.96592593 0 0.25881886
vn 0.70710677 0 -0.70710677
vn 0.70710677 0 -0.70710677
vn 0.70710677 0 -0.70710677
vn 0.70710677 0 -0.70710677
vn -0.70710665 0 0.7071068
vn -0.70710665 0 0.7071068
vn -0.70710665 0 0.7071068
vn -0.70710665 0 0.7071068
vn 0.25881898 0 -0.9659258
vn 0.25881898 0 -0.9659258
vn 0.25881898 0 -0.9659258
vn 0.25881898 0 -0.9659258
vn -0.258819 0 0.9659258
vn -0.258819 0 0.9659258
vn -0.258819 0 0.9659258
vn -0.258819 0 0.9659258
vn -0.25881898 0 -0.9659258
vn -0.25881898 0 -0.9659258
vn -0.25881898 0 -0.9659258
vn -0.25881898 0 -0.9659258
vn 0.258819 0 0.9659258
vn 0.258819 0 0.9659258
vn 0.258819 0 0.9659258
vn 0.258819 0 0.9659258
vn -0.70710665 3.136509E-08 -0.70710695
vn -0.70710665 1.5682545E-08 -0.7071069
vn -0.70710665 1.5682545E-08 -0.7071069
vn -0.7071067 0 -0.7071069
vn 0.7071065 0 0.70710707
vn 0.70710653 -1.5682543E-08 0.707107
vn 0.70710653 -1.5682543E-08 0.707107
vn 0.7071066 -3.136509E-08 0.707107
vn -0.9659258 4.2845517E-08 -0.25881916
vn -0.9659258 4.2845517E-08 -0.25881916
vn -0.9659258 4.2845517E-08 -0.25881916
vn -0.9659258 4.2845517E-08 -0.25881916
vn 0.9659259 -4.284552E-08 0.25881907
vn 0.9659259 -4.284552E-08 0.25881907
vn 0.9659259 -4.284552E-08 0.25881907
vn 0.9659259 -4.284552E-08 0.25881904
vn -0.9659258 4.284552E-08 0.25881913
vn -0.9659258 4.284552E-08 0.25881913
vn 0.9659258 -4.2845517E-08 -0.25881916
vn 0.9659258 -4.2845517E-08 -0.25881916
vn -0.7071068 1.568255E-08 0.7071067
vn -0.70710695 3.1365104E-08 0.7071067
vn 0.7071069 -1.568255E-08 -0.70710665
vn 0.70710695 0 -0.70710665
vn -0.25881892 0 0.9659258
vn -0.25881892 0 0.9659258
vn 0.25881898 0 -0.9659259
vn 0.25881898 0 -0.9659259
vn 0.25881913 0 0.9659258
vn 0.25881913 0 0.9659258
vn -0.2588191 0 -0.9659258
vn -0.2588191 0 -0.9659258
vn 0.70710677 0 0.70710677
vn 0.70710677 0 0.70710677
vn -0.70710677 0 -0.7071068
vn -0.70710677 0 -0.7071068
vn 0.9659258 0 0.25881886
vn 0.9659258 0 0.25881886
vn -0.9659259 0 -0.25881872
vn -0.9659259 0 -0.25881872
vn 0.9659258 0 -0.25881898
vn 0.9659258 0 -0.25881898
vn -0.96592593 0 0.25881886
vn -0.96592593 0 0.25881886
vn 0.70710677 0 -0.70710677
vn 0.70710677 0 -0.70710677
vn -0.70710665 0 0.7071068
vn -0.70710665 0 0.7071068
vn 0.25881898 0 -0.9659258
vn 0.25881898 0 -0.9659258
vn 0.25881898 0 -0.9659258
vn 0.25881898 0 -0.9659258
vn -0.258819 0 0.9659258
vn -0.258819 0 0.9659258
vn -0.25881898 0 -0.9659258
vn -0.25881898 0 -0.9659258
vn 0.258819 0 0.9659258
vn 0.258819 0 0.9659258
vn 0.258819 0 0.9659258
vn 0.258819 0 0.9659258
vn -0.7071067 1.5682547E-08 -0.7071068
vn -0.7071067 1.5682547E-08 -0.7071068
vn -0.70710677 0 -0.70710677
vn -0.7071067 1.5682547E-08 -0.7071068
vn 0.7071066 -1.5682545E-08 0.70710695
vn 0.7071067 -3.1365094E-08 0.7071069
vn -0.9659258 4.2845517E-08 -0.25881916
vn -0.9659258 4.2845517E-08 -0.25881916
vn 0.9659259 -4.284552E-08 0.25881907
vn 0.9659259 -4.284552E-08 0.25881907
vn 0.9659259 -4.284552E-08 0.25881907
vn 0.9659259 -4.284552E-08 0.25881904
vn -0 -1 0
vn -0 -1 0
vn -0 -1 0
vn -0 -1 0
vn -0 1 0
vn -0 1 0
vn -0 1 0
vn -0 1 0
vn -0 -1 0
vn -0 -1 0
vn -0 1 0
vn -0 1 0
vn -0 -1 0
vn -0 -1 0
vn -0 1 0
vn -0 1 0
vn -0 -1 0
vn -0 -1 0
vn -0 1 0
vn -0 1 0
vn -0 -1 0
vn -0 -1 0
vn -0 1 0
vn -0 1 0
vn -0 -0.99999994 0
vn -0 -1 0
vn -0 -1 0
vn -0 1 0
vn -0 1 0
vn -0 -0.99999994 0
vn -0 -1 0
vn -0 -1 0
vn -0 1 0
vn -0 1 0
vn -0 -0.99999994 0
vn -0 -1 0
vn -0 -1 0
vn -0 1 0
vn -0 1 0
vn -0 -0.99999994 0
vn -0 -1 0
vn -0 -1 0
vn -0 0.99999994 0
vn -0 1 0
vn -0 -0.99999994 0
vn -0 -1 0
vn -0 -1 0
vn -0 0.99999994 0
vn -0 1 0
vn -0 1 0
vn -0 -1 0
vn -0 -1 0
vn -0 1 0
vn -0 1 0
vn -0 1 0
g pb_Mesh389790_0
f 3/3/3 2/2/2 1/1/1
f 3/3/3 4/4/4 2/2/2
f 7/7/7 6/6/6 5/5/5
f 7/7/7 8/8/8 6/6/6
f 11/11/11 10/10/10 9/9/9
f 11/11/11 12/12/12 10/10/10
f 15/15/15 14/14/14 13/13/13
f 15/15/15 16/16/16 14/14/14
f 19/19/19 18/18/18 17/17/17
f 19/19/19 20/20/20 18/18/18
f 23/23/23 22/22/22 21/21/21
f 23/23/23 24/24/24 22/22/22
f 27/27/27 26/26/26 25/25/25
f 27/27/27 28/28/28 26/26/26
f 31/31/31 30/30/30 29/29/29
f 31/31/31 32/32/32 30/30/30
f 35/35/35 34/34/34 33/33/33
f 35/35/35 36/36/36 34/34/34
f 39/39/39 38/38/38 37/37/37
f 39/39/39 40/40/40 38/38/38
f 43/43/43 42/42/42 41/41/41
f 43/43/43 44/44/44 42/42/42
f 47/47/47 46/46/46 45/45/45
f 47/47/47 48/48/48 46/46/46
f 51/51/51 50/50/50 49/49/49
f 51/51/51 52/52/52 50/50/50
f 55/55/55 54/54/54 53/53/53
f 55/55/55 56/56/56 54/54/54
f 59/59/59 58/58/58 57/57/57
f 59/59/59 60/60/60 58/58/58
f 63/63/63 62/62/62 61/61/61
f 63/63/63 64/64/64 62/62/62
f 67/67/67 66/66/66 65/65/65
f 67/67/67 68/68/68 66/66/66
f 71/71/71 70/70/70 69/69/69
f 71/71/71 72/72/72 70/70/70
f 75/75/75 74/74/74 73/73/73
f 75/75/75 76/76/76 74/74/74
f 79/79/79 78/78/78 77/77/77
f 79/79/79 80/80/80 78/78/78
f 83/83/83 82/82/82 81/81/81
f 83/83/83 84/84/84 82/82/82
f 87/87/87 86/86/86 85/85/85
f 87/87/87 88/88/88 86/86/86
f 91/91/91 90/90/90 89/89/89
f 91/91/91 92/92/92 90/90/90
f 95/95/95 94/94/94 93/93/93
f 95/95/95 96/96/96 94/94/94
f 97/97/97 4/4/4 3/3/3
f 97/97/97 98/98/98 4/4/4
f 99/99/99 8/8/8 7/7/7
f 99/99/99 100/100/100 8/8/8
f 101/101/101 12/12/12 11/11/11
f 101/101/101 102/102/102 12/12/12
f 103/103/103 16/16/16 15/15/15
f 103/103/103 104/104/104 16/16/16
f 105/105/105 20/20/20 19/19/19
f 105/105/105 106/106/106 20/20/20
f 107/107/107 24/24/24 23/23/23
f 107/107/107 108/108/108 24/24/24
f 109/109/109 28/28/28 27/27/27
f 109/109/109 110/110/110 28/28/28
f 111/111/111 32/32/32 31/31/31
f 111/111/111 112/112/112 32/32/32
f 113/113/113 36/36/36 35/35/35
f 113/113/113 114/114/114 36/36/36
f 115/115/115 40/40/40 39/39/39
f 115/115/115 116/116/116 40/40/40
f 117/117/117 44/44/44 43/43/43
f 117/117/117 118/118/118 44/44/44
f 119/119/119 48/48/48 47/47/47
f 119/119/119 120/120/120 48/48/48
f 121/121/121 52/52/52 51/51/51
f 121/121/121 122/122/122 52/52/52
f 123/123/123 56/56/56 55/55/55
f 123/123/123 124/124/124 56/56/56
f 125/125/125 60/60/60 59/59/59
f 125/125/125 126/126/126 60/60/60
f 127/127/127 64/64/64 63/63/63
f 127/127/127 128/128/128 64/64/64
f 131/131/131 130/130/130 129/129/129
f 131/131/131 132/132/132 130/130/130
f 133/133/133 72/72/72 71/71/71
f 133/133/133 134/134/134 72/72/72
f 135/135/135 76/76/76 75/75/75
f 135/135/135 136/136/136 76/76/76
f 139/139/139 138/138/138 137/137/137
f 139/139/139 140/140/140 138/138/138
f 141/141/141 84/84/84 83/83/83
f 144/144/144 143/143/143 142/142/142
f 145/145/145 88/88/88 87/87/87
f 145/145/145 146/146/146 88/88/88
f 147/147/147 92/92/92 91/91/91
f 147/147/147 148/148/148 92/92/92
f 151/151/151 150/150/150 149/149/149
f 151/151/151 152/152/152 150/150/150
f 155/155/155 154/154/154 153/153/153
f 155/155/155 156/156/156 154/154/154
f 159/159/159 158/158/158 157/157/157
f 159/159/159 160/160/160 158/158/158
f 156/156/156 161/161/161 154/154/154
f 156/156/156 162/162/162 161/161/161
f 164/164/164 157/157/157 163/163/163
f 164/164/164 159/159/159 157/157/157
f 162/162/162 165/165/165 161/161/161
f 162/162/162 166/166/166 165/165/165
f 168/168/168 163/163/163 167/167/167
f 168/168/168 164/164/164 163/163/163
f 166/166/166 169/169/169 165/165/165
f 166/166/166 170/170/170 169/169/169
f 172/172/172 167/167/167 171/171/171
f 172/172/172 168/168/168 167/167/167
f 170/170/170 173/173/173 169/169/169
f 170/170/170 174/174/174 173/173/173
f 176/176/176 171/171/171 175/175/175
f 176/176/176 172/172/172 171/171/171
f 174/174/174 178/178/178 177/177/177
f 174/174/174 179/179/179 178/178/178
f 181/181/181 175/175/175 180/180/180
f 181/181/181 176/176/176 175/175/175
f 179/179/179 183/183/183 182/182/182
f 179/179/179 184/184/184 183/183/183
f 186/186/186 180/180/180 185/185/185
f 186/186/186 181/181/181 180/180/180
f 184/184/184 188/188/188 187/187/187
f 184/184/184 189/189/189 188/188/188
f 191/191/191 185/185/185 190/190/190
f 191/191/191 186/186/186 185/185/185
f 189/189/189 193/193/193 192/192/192
f 189/189/189 194/194/194 193/193/193
f 196/196/196 190/190/190 195/195/195
f 196/196/196 191/191/191 190/190/190
f 194/194/194 198/198/198 197/197/197
f 194/194/194 199/199/199 198/198/198
f 202/202/202 201/201/201 200/200/200
f 202/202/202 196/196/196 201/201/201
f 199/199/199 203/203/203 198/198/198
f 199/199/199 204/204/204 203/203/203
f 207/207/207 206/206/206 205/205/205
f 207/207/207 202/202/202 206/206/206
f 204/204/204 153/153/153 203/203/203
f 204/204/204 155/155/155 153/153/153
f 160/160/160 205/205/205 158/158/158
f 160/160/160 207/207/207 205/205/205
