g pb_Mesh402426
v 25 -160 -90
v 3 -160 -90
v 25 54 -90
v 3 58 -90
v 3 -160 -90
v 3 -160 -100
v 3 58 -90
v 3 58 -100
v 3 -160 -100
v 19 -160 -100
v 3 58 -100
v 19 54 -100
v 19 -160 -100
v 25 -160 -90
v 19 54 -100
v 25 54 -90
v 25 54 -90
v 3 58 -90
v 19 54 -100
v 3 58 -100
v 19 -160 -100
v 3 -160 -100
v 25 -160 -90
v 3 -160 -90
vt 25 -160
vt 3 -160
vt 25 54
vt 3 58
vt -90 -160
vt -100 -160
vt -90 58
vt -100 58
vt -3 -160
vt -19 -160
vt -3 58
vt -19 54
vt 75.97388 -160
vt 64.31197 -160
vt 75.97388 54
vt 64.31197 54
vt -14.936935 -83.33894
vt 7.423746 -83.33894
vt -9.033715 -93.39638
vt 7.423746 -93.28184
vt 19 -100
vt 3 -100
vt 25 -90
vt 3 -90
vn -0 0 0.99999994
vn -0 0 1
vn -0 0 1
vn -0 0 1
vn -1 0 0
vn -1 0 0
vn -1 0 0
vn -1 0 0
vn -0 0 -0.99999994
vn -0 0 -1
vn -0 0 -1
vn -0 0 -0.99999994
vn 0.85749286 0 -0.51449573
vn 0.85749286 0 -0.51449573
vn 0.85749286 0 -0.51449573
vn 0.85749286 0 -0.51449573
vn 0.17786387 0.9782513 -0.106718324
vn 0.20561816 0.97668624 -0.06168545
vn 0.20561816 0.97668624 -0.06168545
vn 0.24253562 0.9701425 0
vn -0 -1 0
vn -0 -1 0
vn -0 -1 0
vn -0 -0.99999994 0
g pb_Mesh402426_0
f 3/3/3 2/2/2 1/1/1
f 3/3/3 4/4/4 2/2/2
f 7/7/7 6/6/6 5/5/5
f 7/7/7 8/8/8 6/6/6
f 11/11/11 10/10/10 9/9/9
f 11/11/11 12/12/12 10/10/10
f 15/15/15 14/14/14 13/13/13
f 15/15/15 16/16/16 14/14/14
f 19/19/19 18/18/18 17/17/17
f 19/19/19 20/20/20 18/18/18
f 23/23/23 22/22/22 21/21/21
f 23/23/23 24/24/24 22/22/22
