g pb_Mesh395986
v -13 -160 20
v -25 -160 20
v -13 60 20
v -25 60 20
v -25 -160 20
v -25 -160 10
v -25 60 20
v -25 61.639343 10
v -25 -160 10
v -14 -160 10
v -25 61.639343 10
v -14 60 10
v -14 -160 10
v -13 -160 20
v -14 60 10
v -13 60 20
v -13 60 20
v -25 60 20
v -14 60 10
v -25 61.639343 10
v -14 -160 10
v -25 -160 10
v -13 -160 20
v -25 -160 20
vt -13 -160
vt -25 -160
vt -13 60
vt -25 60
vt 20 -160
vt 10 -160
vt 20 60
vt 10 61.639343
vt 25 -160
vt 14 -160
vt 25 61.639343
vt 14 60
vt -8.55732 -160
vt -18.607195 -160
vt -8.55732 60
vt -18.607195 60
vt 13 20
vt 25 20
vt 14 10
vt 25 10
vt -14 10
vt -25 10
vt -13 20
vt -25 20
vn -0 0 0.99999994
vn -0 0 0.99999994
vn -0 0 0.99999994
vn -0 0 0.99999994
vn -1 0 0
vn -1 0 0
vn -1 0 0
vn -1 0 0
vn -0 0 -1
vn -0 0 -1
vn -0 0 -1
vn -0 0 -1
vn 0.99503714 0 -0.09950372
vn 0.99503714 0 -0.09950372
vn 0.99503714 0 -0.09950372
vn 0.99503714 0 -0.09950372
vn -0 1 0
vn 0.07087902 0.9944332 0.07796692
vn 0.07087902 0.9944332 0.07796692
vn 0.145503 0.97632575 0.1600533
vn -0 -0.99999994 0
vn -0 -0.99999994 0
vn -0 -0.99999994 0
vn -0 -1 0
g pb_Mesh395986_0
f 3/3/3 2/2/2 1/1/1
f 3/3/3 4/4/4 2/2/2
f 7/7/7 6/6/6 5/5/5
f 7/7/7 8/8/8 6/6/6
f 11/11/11 10/10/10 9/9/9
f 11/11/11 12/12/12 10/10/10
f 15/15/15 14/14/14 13/13/13
f 15/15/15 16/16/16 14/14/14
f 19/19/19 18/18/18 17/17/17
f 19/19/19 20/20/20 18/18/18
f 23/23/23 22/22/22 21/21/21
f 23/23/23 24/24/24 22/22/22
