g pb_Mesh398468
v -14 -160 20
v -25 -160 20
v -14 60 20
v -25 61.639343 20
v -25 -160 20
v -30 -160 10
v -25 61.639343 20
v -30 60 10
v -30 -160 10
v -14 -160 10
v -30 60 10
v -14 61 10
v -14 -160 10
v -14 -160 20
v -14 61 10
v -14 60 20
v -14 60 20
v -25 61.639343 20
v -14 61 10
v -30 60 10
v -14 -160 10
v -30 -160 10
v -14 -160 20
v -25 -160 20
vt -14 -160
vt -25 -160
vt -14 60
vt -25 61.639343
vt 6.708204 -160
vt -4.472136 -160
vt 6.708204 61.639343
vt -4.472136 60
vt 30 -160
vt 14 -160
vt 30 60
vt 14 61
vt -10 -160
vt -20 -160
vt -10 61
vt -20 60
vt 22.691267 14.264873
vt 33.81275 14.264873
vt 22.838669 4.2160773
vt 38.51649 4.545566
vt -14 10
vt -30 10
vt -14 20
vt -25 20
vn -0 0 1
vn -0 0 1
vn -0 0 1
vn -0 0 1
vn -0.8944271 0 0.44721356
vn -0.8944271 0 0.44721356
vn -0.8944271 0 0.44721356
vn -0.8944272 0 0.4472136
vn -0 0 -0.99999994
vn -0 0 -1
vn -0 0 -1
vn -0 0 -1
vn 1 0 0
vn 1 0 0
vn 1 0 0
vn 1 0 0
vn 0.14668751 0.9842738 0.09842738
vn 0.023655782 0.9990034 -0.03784925
vn 0.023655782 0.9990034 -0.03784925
vn -0.061838422 0.98941475 -0.13127983
vn -0 -1 0
vn -0 -1 0
vn -0 -1 0
vn -0 -0.99999994 0
g pb_Mesh398468_0
f 3/3/3 2/2/2 1/1/1
f 3/3/3 4/4/4 2/2/2
f 7/7/7 6/6/6 5/5/5
f 7/7/7 8/8/8 6/6/6
f 11/11/11 10/10/10 9/9/9
f 11/11/11 12/12/12 10/10/10
f 15/15/15 14/14/14 13/13/13
f 15/15/15 16/16/16 14/14/14
f 19/19/19 18/18/18 17/17/17
f 19/19/19 20/20/20 18/18/18
f 23/23/23 22/22/22 21/21/21
f 23/23/23 24/24/24 22/22/22
