g PotProjectileShatteredMesh_cell.004
v 0.6940805 -0.16762845 -0.23749636
v 0.67927873 -0.45534104 0.027336732
v 0.6787069 -0.44869494 0.037568122
v 0.6763296 -0.42100364 0.08010237
v 0.6763296 -0.042188093 0.08010237
v 0.5635701 -0.18521564 0.4106924
v 0.6940805 -0.03642045 -0.23749639
v 0.56357014 -0.07882582 0.4106924
v 0.47402674 -0.107920215 0.5012936
v 0.32810175 0.24526848 0.4106924
v 0.18429166 0.047330856 0.64613086
v 0.39779103 0.34118742 0.08010237
v 0.40876165 0.35628718 -0.23749639
v -0.05289402 0.5062881 -0.23749639
v -0.052893948 0.36906147 0.4106924
v -0.052893948 0.1084263 0.66149944
v -0.05289395 0.48762387 0.08010237
v 0.5662051 0.1106371 -0.5419304
v 0.68718874 -0.038659737 -0.36080384
v 0.43417764 0.2915703 -0.55020803
v 0.39788446 0.341316 -0.55239075
v -0.052893963 0.49075943 -0.501739
v -0.2435266 0.43127477 -0.45995212
v -0.5088845 0.34848988 -0.4014998
v -0.43388966 0.24526848 0.4106924
v -0.33654147 0.11128022 0.5700658
v -0.568711 0.059702814 0.4106924
v -0.5035789 0.34118748 0.08010237
v -0.51454955 0.35628712 -0.23749639
v -0.79986835 -0.03642051 -0.23749639
v -0.7970301 -0.037342712 -0.288279
v -0.78211755 -0.042188093 0.08010237
v -0.7502542 -0.052541062 0.17351963
v -0.78211755 -0.10533197 0.08010237
v -0.7993104 -0.2981603 -0.22751872
v -0.79986835 -0.30440038 -0.23749636
v 0.6787069 -0.44869494 0.037568122
v 0.6763296 -0.42100364 0.08010237
v 0.6940805 -0.16762845 -0.23749636
v 0.6940805 -0.03642045 -0.23749639
v 0.68718874 -0.038659737 -0.36080384
v -0.33654147 0.11128022 0.5700658
v -0.052893933 -0.011651948 0.47373515
v -0.24972148 -0.00821729 0.41245037
v -0.33654147 0.11128022 0.5700658
v 0.18429166 0.047330856 0.64613086
v 0.47402674 -0.107920215 0.5012936
v -0.33654147 0.11128022 0.5700658
v -0.052893948 0.1084263 0.66149944
v 0.18429166 0.047330856 0.64613086
v 0.47402674 -0.107920215 0.5012936
v -0.052893933 -0.011651948 0.47373515
v 0.11094716 -0.05361913 0.46348763
v 0.5635701 -0.18521564 0.4106924
v 0.3141372 -0.1598715 0.366018
v 0.44936234 -0.2717939 0.23671086
v 0.6763296 -0.42100364 0.08010237
v 0.6787069 -0.44869494 0.037568122
v 0.44936234 -0.42533642 -0.00356552
v -0.79959387 -0.30759084 -0.2424079
v -0.55515015 -0.37891346 -0.2713918
v -0.5551503 -0.11593424 -0.31566268
v -0.5551503 -0.11593424 -0.31566268
v -0.7970301 -0.037342712 -0.288279
v -0.79959387 -0.30759084 -0.2424079
v -0.7970301 -0.037342712 -0.288279
v -0.79986835 -0.03642051 -0.23749639
v -0.79986835 -0.30440038 -0.23749636
v -0.79959387 -0.30759084 -0.2424079
v -0.55515033 -0.3230278 -0.18372788
v -0.55515015 -0.37891346 -0.2713918
v -0.79959387 -0.30759084 -0.2424079
v -0.79986835 -0.30440038 -0.23749636
v -0.7993104 -0.2981603 -0.22751872
v 0.67927873 -0.45534104 0.027336732
v 0.4398644 -0.4553929 -0.053933993
v 0.44936234 -0.4423201 -0.030206725
v 0.44936234 -0.42533642 -0.00356552
v 0.6787069 -0.44869494 0.037568122
v -0.55515033 -0.3230278 -0.18372788
v -0.7993104 -0.2981603 -0.22751872
v -0.78211755 -0.10533197 0.08010237
v -0.5551503 -0.11593424 0.14039552
v -0.7502542 -0.052541062 0.17351963
v -0.5165151 -0.06275745 0.23671086
v -0.568711 0.059702814 0.4106924
v -0.24972148 -0.00821729 0.41245037
v -0.33654147 0.11128022 0.5700658
v 0.37591007 -0.014835939 -0.4888782
v 0.5662051 0.1106371 -0.5419304
v 0.43417764 0.2915703 -0.55020803
v 0.25751743 0.14811759 -0.49644345
v -0.2435266 0.43127477 -0.45995212
v -0.052893925 0.2489763 -0.46130115
v -0.3633054 0.14811759 -0.392249
v -0.5088845 0.34848988 -0.4014998
v -0.5551503 -0.11593424 -0.31566268
v -0.7970301 -0.037342712 -0.288279
v 0.67927873 -0.45534104 0.027336732
v 0.6940805 -0.16762845 -0.23749636
v 0.68718874 -0.038659737 -0.36080384
v 0.5662051 0.1106371 -0.5419304
v 0.44936234 -0.44232017 -0.06296952
v 0.4398644 -0.4553929 -0.053933993
v 0.44936234 -0.11593418 -0.36910403
v 0.37591007 -0.014835939 -0.4888782
v 0.44936234 -0.44232017 -0.06296952
v 0.44936234 -0.4423201 -0.030206725
v 0.4398644 -0.4553929 -0.053933993
v 0.44936234 -0.11593418 -0.36910403
v 0.44936234 -0.42533642 -0.00356552
v 0.44936234 -0.2717939 0.23671086
v 0.44936234 -0.11593418 0.23671086
v 0.25751743 0.14811759 0.23671086
v 0.3141372 -0.1598715 0.366018
v 0.37591007 -0.014835939 -0.4888782
v 0.25751743 0.14811759 -0.49644345
v 0.11094716 -0.05361913 0.46348763
v -0.052893925 0.2489763 -0.46130115
v -0.052893925 0.2489763 0.23671086
v -0.052893933 -0.011651948 0.47373515
v -0.3633054 0.14811759 -0.392249
v -0.3633054 0.14811759 0.23671086
v -0.24972148 -0.00821729 0.41245037
v -0.5165151 -0.06275745 0.23671086
v -0.5551503 -0.11593424 0.14039552
v -0.5551503 -0.11593424 -0.31566268
v -0.55515015 -0.37891346 -0.2713918
v -0.55515033 -0.3230278 -0.18372788
v -0.2435266 0.43127477 -0.45995212
v 0.43417764 0.2915703 -0.55020803
v 0.39788446 0.341316 -0.55239075
v -0.052893963 0.49075943 -0.501739
vt 0.8085381 0.40253547
vt 0.8018744 0.52176034
vt 0.8016169 0.52636635
vt 0.8005467 0.5455148
vt 0.8005467 0.5455148
vt 0.7497836 0.6943426
vt 0.8085381 0.4025354
vt 0.7497836 0.6943426
vt 0.7094722 0.7351303
vt 0.6437785 0.6943426
vt 0.5790367 0.80033445
vt 0.6751517 0.5455148
vt 0.68009055 0.4025354
vt 0.47225836 0.4025354
vt 0.47225836 0.6943426
vt 0.47225836 0.80725324
vt 0.47225836 0.5455148
vt 0.7509699 0.26548234
vt 0.8054355 0.34702367
vt 0.69153255 0.26175588
vt 0.6751937 0.2607732
vt 0.47225833 0.2835761
vt 0.38643765 0.30238813
vt 0.2669766 0.32870278
vt 0.3007384 0.6943426
vt 0.34456342 0.7660908
vt 0.2400433 0.6943426
vt 0.26936513 0.5455148
vt 0.26442617 0.4025354
vt 0.13597894 0.4025354
vt 0.13725667 0.3796736
vt 0.14397001 0.5455148
vt 0.15831451 0.5875702
vt 0.14397001 0.5455148
vt 0.13622998 0.4070273
vt 0.13597894 0.4025355
vt 0.8016169 0.52636635
vt 0.8005467 0.5455148
vt 0.8085381 0.40253547
vt 0.8085381 0.4025354
vt 0.8054355 0.34702367
vt 0.34980395 0.3221714
vt 0.97783726 0.4779803
vt 0.5073856 0.376599
vt 0.34980395 0.3221714
vt 0.6170386 0.2659967
vt 0.61337626 0.44411296
vt 0.34980395 0.3221714
vt 0.7469418 0.24708845
vt 0.6170386 0.2659967
vt 0.61337626 0.44411296
vt 0.97783726 0.4779803
vt 0.8876505 0.49058813
vt 0.66861296 0.5555279
vt 0.8800352 0.61045355
vt 0.9542095 0.7694662
vt 0.96091074 0.9576534
vt 1 0.9591286
vt 1 0.8151787
vt 0.9105678 0
vt 0.47164005 0
vt 0.2799971 0.18470927
vt 0.2799971 0.18470927
vt 0.3138272 0.03292847
vt 0.9105678 0
vt 0.13725667 0.3796736
vt 0.13597894 0.4025354
vt 0.13597894 0.4025355
vt 0.13610253 0.4003244
vt 0.184688 0.184688
vt 0.52835995 0
vt 0.08943218 0
vt 0.069811784 0.010278753
vt 0.031438924 0.031438924
vt 1 0.93771625
vt 1 0.70669115
vt 0.91962206 0.7590525
vt 0.8151787 0.8151787
vt 0.9591286 0.9591286
vt 1 0.184688
vt 1 0.031438924
vt 0.7229038 0.042346254
vt 0.70508254 0.18481156
vt 0.643104 0.062379114
vt 0.62375087 0.20909485
vt 0.45692915 0.17640436
vt 0.5073856 0.376599
vt 0.34980395 0.3221714
vt 0.64498734 0.64498734
vt 0.82861716 0.82861716
vt 1 0.8056958
vt 0.7881975 0.6947927
vt 1 0.38041276
vt 0.83161116 0.5000065
vt 0.6374967 0.30517262
vt 0.83810425 0.21385808
vt 0.2799971 0.18470927
vt 0.3138272 0.03292847
vt 0.93771625 0.93771625
vt 0.9520056 0.53080463
vt 0.9453582 0.33534712
vt 0.82861716 0
vt 0.71585655 0.6967214
vt 0.70669115 0.70669115
vt 0.71586365 0.21890566
vt 0.64498734 0
vt 0.52753276 0.31157595
vt 0.52753276 0.31157595
vt 0.5264874 0.31157592
vt 0.52753276 0.31157595
vt 0.5275328 0.31157595
vt 0.52753276 0.31157595
vt 0.52753276 0.31157595
vt 0.5064198 0.31157595
vt 0.52753276 0.31157595
vt 0.5194491 0.31157595
vt 0.5064198 0.31157595
vt 0.5064198 0.31157595
vt 0.4722584 0.31157595
vt 0.47225836 0.31157595
vt 0.47225836 0.31157595
vt 0.43809694 0.31157595
vt 0.43809694 0.31157595
vt 0.43809694 0.31157595
vt 0.42123586 0.31157595
vt 0.41698396 0.31157595
vt 0.41698396 0.31157595
vt 0.41698396 0.31157598
vt 0.41698396 0.31157598
vt 0.61958724 0
vt 0.19430426 0
vt 0.34590924 0.12882435
vt 0.8010679 0.3010965
vn 0.999584 0 0.028840315
vn 0.9984426 0 0.055789486
vn 0.9984426 0 0.055789486
vn 0.99009234 0 0.1404172
vn 0.93282616 0.30308837 0.19486651
vn 0.8904743 0 0.4550337
vn 0.9510608 0.30900395 0
vn 0.8101675 0.26322967 0.5237736
vn 0.6195464 0.32222518 0.7157745
vn 0.5007062 0.68916535 0.5237791
vn 0.3661381 0.58996546 0.71964127
vn 0.576515 0.7935093 0.19486758
vn 0.58776695 0.80903023 0
vn -0 1 0
vn -0 0.8518573 0.52377385
vn 0.026337994 0.69315004 0.72031206
vn -0 0.98082995 0.19486587
vn 0.8077628 0.5868617 -0.05578986
vn 0.8906355 0.4510095 -0.057955552
vn 0.8077628 0.5868617 -0.05578986
vn 0.59289473 0.8031408 -0.05865772
vn 0.032960802 0.9977356 -0.058627494
vn -0.3085205 0.94958025 -0.05578944
vn -0.549712 0.83329654 -0.05859688
vn -0.5007062 0.68916535 0.5237791
vn -0.32789764 0.6148691 0.71723026
vn -0.72616535 0.52757925 0.44084466
vn -0.576515 0.7935093 0.19486758
vn -0.58776695 0.80903023 0
vn -0.9510608 0.30900395 0
vn -0.93631595 0.34623548 -0.058596045
vn -0.93282616 0.30308837 0.19486651
vn -0.82132494 0.46419266 0.331588
vn -0.98916197 0 0.14682849
vn -0.9984426 0 0.055789486
vn -0.99979895 0 -0.020050911
vn 0.9984426 0 0.055789486
vn 0.99009234 0 0.1404172
vn 0.999584 0 0.028840315
vn 0.9510608 0.30900395 0
vn 0.8906355 0.4510095 -0.057955552
vn -0.17930742 -0.8289207 0.5298483
vn -0.17930742 -0.8289207 0.5298483
vn -0.17930742 -0.8289207 0.5298483
vn -0.17930742 -0.8289207 0.5298483
vn -0.17930742 -0.8289207 0.5298483
vn -0.17930742 -0.8289207 0.5298483
vn -0.17930742 -0.8289207 0.5298483
vn -0.17930742 -0.8289207 0.5298483
vn -0.17930742 -0.8289207 0.5298483
vn -0.17930742 -0.8289207 0.5298483
vn -0.17930742 -0.8289207 0.5298483
vn -0.17930742 -0.8289207 0.5298483
vn -0.17930742 -0.8289207 0.5298483
vn -0.17930742 -0.8289207 0.5298483
vn -0.17930742 -0.8289207 0.5298483
vn -0.17930742 -0.8289207 0.5298483
vn -0.17930742 -0.8289207 0.5298483
vn -0.17930742 -0.8289207 0.5298483
vn -0.16327067 -0.16359702 -0.97292274
vn -0.16327067 -0.16359702 -0.97292274
vn -0.16327067 -0.16359702 -0.97292274
vn -0.16327067 -0.16359702 -0.97292274
vn -0.16327067 -0.16359702 -0.97292274
vn -0.16327067 -0.16359702 -0.97292274
vn -0.93631595 0.34623548 -0.058596045
vn -0.9510608 0.30900395 0
vn -0.99979895 0 -0.020050911
vn -0.9984426 0 -0.055789486
vn -0.17933907 -0.82955664 0.5288415
vn -0.17933907 -0.82955664 0.5288415
vn -0.17933907 -0.82955664 0.5288415
vn -0.17933907 -0.82955664 0.5288415
vn -0.17933907 -0.82955664 0.5288415
vn -0.17933878 -0.82955724 0.52884054
vn -0.17933878 -0.82955724 0.52884054
vn -0.17933878 -0.82955724 0.52884054
vn -0.17933878 -0.82955724 0.52884054
vn -0.17933878 -0.82955724 0.52884054
vn -0.17930742 -0.8289207 0.5298483
vn -0.17930742 -0.8289207 0.5298483
vn -0.17930742 -0.8289207 0.5298483
vn -0.17930742 -0.8289207 0.5298483
vn -0.17930742 -0.8289207 0.5298483
vn -0.17930742 -0.8289207 0.5298483
vn -0.17930742 -0.8289207 0.5298483
vn -0.17930742 -0.8289207 0.5298483
vn -0.17930742 -0.8289207 0.5298483
vn -0.16327067 -0.16359702 -0.97292274
vn -0.16327067 -0.16359702 -0.97292274
vn -0.16327067 -0.16359702 -0.97292274
vn -0.16327067 -0.16359702 -0.97292274
vn -0.16327067 -0.16359702 -0.97292274
vn -0.16327067 -0.16359702 -0.97292274
vn -0.16327067 -0.16359702 -0.97292274
vn -0.16327067 -0.16359702 -0.97292274
vn -0.16327067 -0.16359702 -0.97292274
vn -0.16327067 -0.16359702 -0.97292274
vn 0.24046892 -0.6640425 -0.7079705
vn 0.24046892 -0.6640425 -0.7079705
vn 0.24046892 -0.6640425 -0.7079705
vn 0.24046892 -0.6640425 -0.7079705
vn 0.24046892 -0.6640425 -0.7079705
vn 0.24046892 -0.6640425 -0.7079705
vn 0.24046892 -0.6640425 -0.7079705
vn 0.24046892 -0.6640425 -0.7079705
vn -0.9813421 0.19227043 0
vn -0.993461 0.114172325 0
vn -0.8090158 0.587787 0
vn -0.89188594 -0.45226035 0
vn -1 0 0
vn -0.9674892 0 -0.2529126
vn -0.8806357 -0.28611884 -0.3776464
vn -0.5442587 -0.7491073 -0.3776514
vn -0.6013185 -0.31294316 -0.7351754
vn -0.80903023 -0.58776695 0
vn -0.5938786 -0.8045546 0
vn -0.35558304 -0.5723023 -0.73893887
vn -0.033723325 -0.9994312 0
vn -0 -0.92595094 -0.37764394
vn -0.025392255 -0.67258954 -0.73958
vn 0.55022 -0.8350197 0
vn 0.5442587 -0.7491073 -0.3776514
vn 0.31835213 -0.5967234 -0.73659563
vn 0.7878498 -0.57238513 -0.22730604
vn 0.8690702 -0.4946888 0
vn 0.937853 -0.34703305 0
vn 1 0 0
vn 1 0 0
vn -0.16293369 -0.16157845 -0.9733165
vn -0.16293369 -0.16157845 -0.9733165
vn -0.16293369 -0.16157845 -0.9733165
vn -0.16293369 -0.16157845 -0.9733165
g PotProjectileShatteredMesh_cell.004_0
f 3/3/3 2/2/2 1/1/1
f 1/1/1 5/5/5 4/4/4
f 6/6/6 4/4/4 5/5/5
f 1/1/1 7/7/7 5/5/5
f 8/8/8 6/6/6 5/5/5
f 9/9/9 6/6/6 8/8/8
f 9/9/9 8/8/8 10/10/10
f 11/11/11 9/9/9 10/10/10
f 8/8/8 5/5/5 12/12/12
f 10/10/10 8/8/8 12/12/12
f 5/5/5 7/7/7 13/13/13
f 12/12/12 5/5/5 13/13/13
f 12/12/12 13/13/13 14/14/14
f 11/11/11 10/10/10 15/15/15
f 16/16/16 11/11/11 15/15/15
f 10/10/10 12/12/12 17/17/17
f 17/17/17 12/12/12 14/14/14
f 15/15/15 10/10/10 17/17/17
f 18/18/18 13/13/13 7/7/7
f 7/7/7 19/19/19 18/18/18
f 18/18/18 20/20/20 13/13/13
f 20/20/20 21/21/21 13/13/13
f 14/14/14 13/13/13 21/21/21
f 22/22/22 14/14/14 21/21/21
f 14/14/14 22/22/22 23/23/23
f 23/23/23 24/24/24 14/14/14
f 16/16/16 15/15/15 25/25/25
f 26/26/26 16/16/16 25/25/25
f 26/26/26 25/25/25 27/27/27
f 25/25/25 15/15/15 28/28/28
f 27/27/27 25/25/25 28/28/28
f 15/15/15 17/17/17 28/28/28
f 17/17/17 14/14/14 29/29/29
f 24/24/24 29/29/29 14/14/14
f 28/28/28 17/17/17 29/29/29
f 30/30/30 29/29/29 24/24/24
f 28/28/28 29/29/29 30/30/30
f 31/31/31 30/30/30 24/24/24
f 27/27/27 28/28/28 32/32/32
f 32/32/32 28/28/28 30/30/30
f 32/32/32 33/33/33 27/27/27
f 33/33/33 32/32/32 34/34/34
f 34/34/34 32/32/32 30/30/30
f 35/35/35 34/34/34 30/30/30
f 30/30/30 36/36/36 35/35/35
f 39/39/39 38/38/38 37/37/37
f 41/41/41 40/40/40 39/39/39
f 44/44/44 43/43/43 42/42/42
f 47/47/47 46/46/46 45/45/45
f 50/50/50 49/49/49 48/48/48
f 52/52/52 51/51/51 48/48/48
f 51/51/51 52/52/52 53/53/53
f 54/54/54 51/51/51 53/53/53
f 54/54/54 53/53/53 55/55/55
f 54/54/54 55/55/55 56/56/56
f 57/57/57 54/54/54 56/56/56
f 58/58/58 57/57/57 56/56/56
f 56/56/56 59/59/59 58/58/58
f 62/62/62 61/61/61 60/60/60
f 65/65/65 64/64/64 63/63/63
f 68/68/68 67/67/67 66/66/66
f 69/69/69 68/68/68 66/66/66
f 72/72/72 71/71/71 70/70/70
f 70/70/70 73/73/73 72/72/72
f 70/70/70 74/74/74 73/73/73
f 77/77/77 76/76/76 75/75/75
f 75/75/75 78/78/78 77/77/77
f 75/75/75 79/79/79 78/78/78
f 82/82/82 81/81/81 80/80/80
f 80/80/80 83/83/83 82/82/82
f 83/83/83 84/84/84 82/82/82
f 83/83/83 85/85/85 84/84/84
f 85/85/85 86/86/86 84/84/84
f 85/85/85 87/87/87 86/86/86
f 87/87/87 88/88/88 86/86/86
f 91/91/91 90/90/90 89/89/89
f 89/89/89 92/92/92 91/91/91
f 92/92/92 93/93/93 91/91/91
f 92/92/92 94/94/94 93/93/93
f 94/94/94 95/95/95 93/93/93
f 95/95/95 96/96/96 93/93/93
f 95/95/95 97/97/97 96/96/96
f 97/97/97 98/98/98 96/96/96
f 101/101/101 100/100/100 99/99/99
f 99/99/99 102/102/102 101/101/101
f 99/99/99 103/103/103 102/102/102
f 99/99/99 104/104/104 103/103/103
f 102/102/102 103/103/103 105/105/105
f 105/105/105 106/106/106 102/102/102
f 109/109/109 108/108/108 107/107/107
f 110/110/110 107/107/107 108/108/108
f 108/108/108 111/111/111 110/110/110
f 111/111/111 112/112/112 110/110/110
f 112/112/112 113/113/113 110/110/110
f 110/110/110 113/113/113 114/114/114
f 115/115/115 113/113/113 112/112/112
f 114/114/114 113/113/113 115/115/115
f 114/114/114 116/116/116 110/110/110
f 114/114/114 117/117/117 116/116/116
f 118/118/118 114/114/114 115/115/115
f 119/119/119 117/117/117 114/114/114
f 120/120/120 114/114/114 118/118/118
f 120/120/120 119/119/119 114/114/114
f 121/121/121 120/120/120 118/118/118
f 122/122/122 119/119/119 120/120/120
f 123/123/123 120/120/120 121/121/121
f 123/123/123 122/122/122 120/120/120
f 124/124/124 123/123/123 121/121/121
f 125/125/125 123/123/123 124/124/124
f 122/122/122 123/123/123 125/125/125
f 122/122/122 125/125/125 126/126/126
f 126/126/126 127/127/127 122/122/122
f 128/128/128 127/127/127 126/126/126
f 129/129/129 128/128/128 126/126/126
f 132/132/132 131/131/131 130/130/130
f 133/133/133 132/132/132 130/130/130
