g PotProjectileShatteredMesh_cell.002
v -0.6295373 -0.39618388 0.40651536
v -0.64004135 -0.38248825 0.3985018
v -0.76231456 -0.20475106 0.29919738
v 0.57881594 0.34718677 0.3985018
v 0.57176 0.47926375 0.2722572
v 0.5610651 0.47578868 0.08090305
v 0.452811 0.6247877 0.08090305
v 0.45196468 0.6271119 0.09309667
v 0.39943188 0.5064198 -0.2496869
v 0.4483056 0.43915096 -0.2496869
v 0.2739081 0.38248578 -0.3851993
v 0.36394188 0.4714577 -0.28796524
v 0.19010611 0.122442454 -0.45031613
v 0.1901061 0.30582628 -0.45031613
v 0.011123121 0.18059757 -0.4305662
v -0.078967825 0.116089284 -0.42670763
v 0.05326122 -0.0659084 -0.45031613
v -0.16815849 0.050365 -0.43056375
v -0.16815846 -0.13785201 -0.45031613
v -0.34263057 -0.0811626 -0.45031613
v -0.5981338 -0.21813141 -0.2496869
v -0.67178965 -0.2260007 -0.061422795
v -0.7273848 -0.23207073 0.08090305
v -0.5491542 -0.28554603 -0.2496869
v -0.44127613 -0.13706462 -0.3853181
v -0.34263057 -0.0811626 -0.45031613
v -0.61884344 -0.38146505 0.08090305
v -0.76231456 -0.20475106 0.29919738
v -0.64004135 -0.38248825 0.3985018
v -0.16815849 -0.40933904 -0.2496869
v -0.16815846 -0.13785201 -0.45031613
v 0.05326122 -0.0659084 -0.45031613
v -0.6298141 -0.39656487 0.3985018
v -0.6295373 -0.39618388 0.40651536
v 0.21283723 -0.28554603 -0.2496869
v 0.19010611 0.122442454 -0.45031613
v -0.16815849 -0.5279014 0.08090305
v -0.16815852 -0.5465658 0.3985018
v -0.16815849 -0.53425765 0.6079409
v 0.4483056 0.03854832 -0.2496869
v 0.4483056 0.43915096 -0.2496869
v 0.2825265 -0.381465 0.08090305
v 0.2934971 -0.3965648 0.3985018
v 0.28268954 -0.38168943 0.7113797
v 0.5610651 0.0019105375 0.08090305
v 0.5610651 0.47578868 0.08090305
v 0.57881594 0.34718677 0.3985018
v 0.57881594 -0.003857106 0.3985018
v 0.56301916 0.001275599 0.681138
v 0.57881594 0.34718677 0.3985018
v 0.5640863 0.060845733 0.66204387
v 0.26159185 0.50183845 0.14619511
v 0.45196468 0.6271119 0.09309667
v 0.3340978 0.4020426 0.26430112
v 0.3340978 0.07565668 0.5703775
v 0.5640863 0.060845733 0.66204387
v 0.32335836 0.060875177 0.5806074
v 0.57176 0.47926375 0.2722572
v 0.57881594 0.34718677 0.3985018
v 0.32335836 0.060875177 0.5806074
v 0.5640863 0.060845733 0.66204387
v 0.56301916 0.001275599 0.681138
v 0.28268954 -0.38168943 0.7113797
v 0.14225297 -0.18839511 0.6007573
v 0.038553134 -0.22208925 0.5766848
v -0.5710264 -0.061139524 0.31750125
v -0.54868716 -0.09188679 0.122941494
v -0.5039234 -0.15349887 -0.2653777
v -0.4785698 -0.18839514 0.39024895
v -0.4785698 -0.18839514 -0.2653777
v -0.40660983 -0.089350626 -0.29236594
v -0.19191213 0.05515948 -0.33960074
v -0.16815843 -0.28925386 -0.2653777
v -0.16815843 -0.28925386 0.5283532
v -0.16815846 0.047441453 -0.33960074
v -0.05565159 0.08399716 -0.33960074
v 0.14225297 -0.18839511 -0.2653777
v 0.013881519 0.17970124 -0.33960074
v 0.013881519 0.20465136 -0.33960074
v 0.217836 0.36426684 -0.29232606
v 0.14225297 -0.18839511 0.6007573
v 0.038553134 -0.22208925 0.5766848
v 0.32335836 0.060875177 0.5806074
v 0.3340978 0.07565668 -0.2653777
v 0.3340978 0.07565668 0.5703775
v 0.3340978 0.4020426 -0.2653777
v 0.3340978 0.4020426 0.26430112
v 0.30879295 0.43687174 -0.2653777
v 0.26159185 0.50183845 0.14619511
v 0.3060285 0.4406766 -0.24139708
v -0.7273848 -0.23207073 0.08090305
v -0.67178965 -0.2260007 -0.061422795
v -0.54868716 -0.09188679 0.122941494
v -0.76231456 -0.20475106 0.29919738
v -0.5710264 -0.061139524 0.31750125
v 0.3060285 0.4406766 -0.24139708
v 0.36394188 0.4714577 -0.28796524
v 0.39943188 0.5064198 -0.2496869
v 0.452811 0.6247877 0.08090305
v 0.26159185 0.50183845 0.14619511
v 0.45196468 0.6271119 0.09309667
v -0.44127613 -0.13706462 -0.3853181
v -0.34263057 -0.0811626 -0.45031613
v -0.16815849 0.050365 -0.43056375
v -0.078967825 0.116089284 -0.42670763
v 0.2739081 0.38248578 -0.3851993
v 0.011123121 0.18059757 -0.4305662
v 0.1901061 0.30582628 -0.45031613
v -0.19191213 0.05515948 -0.33960074
v 0.013881519 0.20465136 -0.33960074
v -0.40660983 -0.089350626 -0.29236594
v 0.36394188 0.4714577 -0.28796524
v 0.217836 0.36426684 -0.29232606
v 0.30879295 0.43687174 -0.2653777
v 0.3060285 0.4406766 -0.24139708
v -0.5981338 -0.21813141 -0.2496869
v -0.5039234 -0.15349887 -0.2653777
v -0.54868716 -0.09188679 0.122941494
v -0.67178965 -0.2260007 -0.061422795
v 0.038553134 -0.22208925 0.5766848
v 0.28268954 -0.38168943 0.7113797
v -0.16815849 -0.53425765 0.6079409
v -0.16815843 -0.28925386 0.5283532
v -0.4785698 -0.18839514 0.39024895
v -0.6295373 -0.39618388 0.40651536
v -0.5710264 -0.061139524 0.31750125
v -0.76231456 -0.20475106 0.29919738
vt 0.4088413 0.3050497
vt 0.4158132 0.32588303
vt 0.36420462 0.36420462
vt 0.8085381 0.40253544
vt 0.8053615 0.34570137
vt 0.8005467 0.2595557
vt 0.7518119 0.2595557
vt 0.751431 0.26504517
vt 0.72778124 0.11072776
vt 0.7497836 0.11072776
vt 0.6712718 0.0497217
vt 0.711804 0.09349529
vt 0.6335451 0.020406872
vt 0.6335451 0.020406872
vt 0.552969 0.02929822
vt 0.512411 0.03103533
vt 0.57193905 0.020406872
vt 0.47225833 0.029299313
vt 0.47225836 0.020406872
vt 0.39371294 0.020406872
vt 0.27868834 0.110728055
vt 0.2455293 0.1954824
vt 0.22050098 0.25955588
vt 0.3007384 0.110728055
vt 0.34930384 0.04966831
vt 0.39371294 0.020406872
vt 0.26936513 0.25955588
vt 0.20477596 0.3578297
vt 0.25982195 0.40253556
vt 0.47225836 0.110728055
vt 0.47225836 0.020406872
vt 0.57193905 0.020406872
vt 0.26442617 0.40253556
vt 0.2645508 0.40614316
vt 0.6437785 0.110728055
vt 0.6335451 0.020406872
vt 0.47225836 0.25955588
vt 0.47225836 0.40253556
vt 0.47225833 0.4968226
vt 0.7497836 0.110728055
vt 0.7497836 0.11072776
vt 0.6751517 0.25955588
vt 0.68009055 0.40253556
vt 0.6752251 0.54338956
vt 0.8005467 0.25955588
vt 0.8005467 0.2595557
vt 0.8085381 0.40253544
vt 0.8085381 0.40253556
vt 0.8014264 0.5297751
vt 0.8085381 0.40253544
vt 0.8019069 0.52117914
vt 0.6457761 0.6457761
vt 0.82927215 0.82927215
vt 0.71574366 0.4996388
vt 0.7159226 0.021649327
vt 0.9376942 0
vt 0.7055752 0
vt 0.9448643 0.612771
vt 0.95174026 0.4193467
vt 1 0.29442477
vt 1 0.062305823
vt 0.90932864 0.06337795
vt 0.331554 0.331554
vt 0.6205545 0.46923402
vt 0.56924975 0.56924975
vt 0.42792186 0.31157595
vt 0.43038034 0.31157595
vt 0.4353067 0.31157595
vt 0.43809694 0.31157595
vt 0.43809694 0.31157595
vt 0.43809694 0.31157595
vt 0.4650458 0.31157595
vt 0.47225836 0.31157595
vt 0.4722584 0.31157595
vt 0.47225836 0.31157595
vt 0.5064198 0.31157595
vt 0.5064198 0.31157595
vt 0.52753276 0.31157595
vt 0.52753276 0.31157595
vt 0.52753276 0.31157595
vt 0.5064198 0.31157595
vt 0.4950074 0.31157595
vt 0.5263508 0.31157592
vt 0.52753276 0.31157595
vt 0.52753276 0.31157595
vt 0.52753276 0.31157595
vt 0.52753276 0.31157595
vt 0.52474785 0.31157595
vt 0.5195533 0.31157595
vt 0.5244436 0.31157595
vt 0.7109448 0.2840438
vt 1 0.47326255
vt 1 0.2520822
vt 0.36420462 0
vt 0.70783335 0
vt 0.68890315 0.68890315
vt 0.7447485 0.7447485
vt 0.77891856 0.65629005
vt 0.8300973 0.021955393
vt 0.6457761 0
vt 0.82927215 0
vt 0.41859543 0.28032145
vt 0.42977563 0.36944404
vt 0.55470526 0.47063679
vt 0.6136977 0.52498144
vt 0.86758864 0.72899425
vt 0.6672332 0.583123
vt 0.76415914 0.70369494
vt 0.6108004 0.41762525
vt 0.73997116 0.5467449
vt 0.51291186 0.2631307
vt 1 0.7447485
vt 0.9048896 0.6549053
vt 0.98301613 0.700684
vt 1 0.68890315
vt 0.42601228 0.12508433
vt 0.47289753 0.19076763
vt 0.7479178 0
vt 0.5267374 0
vt 1 0.56924975
vt 1 0.331554
vt 0.5614055 0.094739445
vt 0.8039277 0.4672831
vt 0.70916724 0.6208875
vt 0.4088413 0.3050497
vt 0.70783335 0.70783335
vt 0.36420462 0.36420462
vn -0.3071966 0.29403853 0.905081
vn -0.3071966 0.29403853 0.905081
vn -0.3071966 0.29403853 0.905081
vn 0.9995734 0 -0.029206231
vn 0.98608357 0.15583234 -0.05792592
vn 0.93282616 0.30308837 -0.19486651
vn 0.7965289 0.57871103 -0.17502943
vn 0.8077628 0.5868617 -0.05578986
vn 0.67161417 0.48794726 -0.5575319
vn 0.78102106 0.25376853 -0.57062054
vn 0.6042698 0.042939782 -0.79562193
vn 0.49638832 0.3606407 -0.7896435
vn 0.31138068 -0.10116896 -0.9448846
vn 0.41896528 0 -0.90800226
vn -0.0949154 0.04550446 -0.9944448
vn -0.061342422 0.084414504 -0.99454075
vn 0.19242051 -0.26487195 -0.94489
vn -0.013916841 0.10434578 -0.9944437
vn -0 -0.327403 -0.94488484
vn -0.12946402 -0.398494 -0.9079877
vn -0.6717311 -0.4880351 -0.557314
vn -0.76570934 -0.5563135 -0.3228071
vn -0.7965289 -0.57871103 -0.17502943
vn -0.48269495 -0.664377 -0.5706214
vn -0.22758166 -0.56140065 -0.7956355
vn -0.12946402 -0.398494 -0.9079877
vn -0.576515 -0.7935093 -0.19486758
vn -0.8077628 -0.5868617 -0.05578986
vn -0.8083563 -0.5873073 -0.040376615
vn -0 -0.8212142 -0.57062
vn -0 -0.327403 -0.94488484
vn 0.19242051 -0.26487195 -0.94489
vn -0.58776695 -0.80903023 0
vn -0.5153073 -0.8550104 0.058443204
vn 0.48269495 -0.664377 -0.5706214
vn 0.31138068 -0.10116896 -0.9448846
vn -0 -0.98082995 -0.19486587
vn -0 -1 0
vn 0.06601199 -0.9961004 0.0585349
vn 0.78102106 -0.25376853 -0.57062054
vn 0.78102106 0.25376853 -0.57062054
vn 0.576515 -0.7935093 -0.19486758
vn 0.58776695 -0.80903023 0
vn 0.60030895 -0.79761434 0.058657542
vn 0.93282616 -0.30308837 -0.19486651
vn 0.93282616 0.30308837 -0.19486651
vn 0.9995734 0 -0.029206231
vn 0.9510608 -0.30900395 0
vn 0.9358156 -0.34758517 0.0585972
vn 0.9995734 0 -0.029206231
vn 0.9984426 0 0.055789486
vn -0.23950039 0.6641394 0.7082079
vn -0.23950039 0.6641394 0.7082079
vn -0.23950039 0.6641394 0.7082079
vn -0.23950039 0.6641394 0.7082079
vn -0.23950039 0.6641394 0.7082079
vn -0.23950039 0.6641394 0.7082079
vn -0.23950039 0.6641394 0.7082079
vn -0.23950039 0.6641394 0.7082079
vn -0.30609882 0.2955342 0.90496576
vn -0.30609882 0.2955342 0.90496576
vn -0.30609882 0.2955342 0.90496576
vn -0.30609882 0.2955342 0.90496576
vn -0.30609882 0.2955342 0.90496576
vn -0.30609882 0.2955342 0.90496576
vn 0.80903023 0.58776695 0
vn 0.80903023 0.58776695 0
vn 0.6612033 0.4803757 0.5762372
vn 0.51534826 0.85698086 0
vn 0.4820563 0.6635255 0.57215
vn 0.08243228 0.20579074 0.9751179
vn 0.049258295 0.15162031 0.98721063
vn -0 0.8201499 0.5721486
vn -0.06778293 0.99770004 0
vn -0 0.12955444 0.99157226
vn -0.07614577 0.10480343 0.9915735
vn -0.4820563 0.6635255 0.57215
vn -0.12320667 0.040010884 0.9915741
vn -0.15940323 0 0.98721355
vn -0.22120242 -0.014801762 0.97511566
vn -0.60165894 0.7987531 0
vn -0.30900395 0.9510608 0
vn -0.80903023 0.58776695 0
vn -0.7800133 0.25343263 0.5721461
vn -0.89831746 0.43934697 0
vn -0.7800133 -0.25343263 0.5721461
vn -0.98754174 -0.15735722 0
vn -0.6611745 -0.480377 0.57626927
vn -0.80903023 -0.58776695 0
vn -0.80903023 -0.58776695 0
vn -0.57745373 0.7935939 -0.1917184
vn -0.57745373 0.7935939 -0.1917184
vn -0.57745373 0.7935939 -0.1917184
vn -0.57745373 0.7935939 -0.1917184
vn -0.57745373 0.7935939 -0.1917184
vn -0.57623976 0.7945422 -0.19144306
vn -0.57623976 0.7945422 -0.19144306
vn -0.57623976 0.7945422 -0.19144306
vn -0.57623976 0.7945422 -0.19144306
vn -0.57623976 0.7945422 -0.19144306
vn -0.57623976 0.7945422 -0.19144306
vn -0.5767319 0.79394096 -0.19245277
vn -0.5767319 0.79394096 -0.19245277
vn -0.5767319 0.79394096 -0.19245277
vn -0.5767319 0.79394096 -0.19245277
vn -0.5767319 0.79394096 -0.19245277
vn -0.5767319 0.79394096 -0.19245277
vn -0.5767319 0.79394096 -0.19245277
vn -0.5767319 0.79394096 -0.19245277
vn -0.5767319 0.79394096 -0.19245277
vn -0.5767319 0.79394096 -0.19245277
vn -0.5767319 0.79394096 -0.19245277
vn -0.5767319 0.79394096 -0.19245277
vn -0.5767319 0.79394096 -0.19245277
vn -0.5767319 0.79394096 -0.19245277
vn -0.5767319 0.79394096 -0.19245277
vn -0.5767319 0.79394096 -0.19245277
vn -0.5767319 0.79394096 -0.19245277
vn -0.5767319 0.79394096 -0.19245277
vn -0.3071966 0.29403853 0.905081
vn -0.3071966 0.29403853 0.905081
vn -0.3071966 0.29403853 0.905081
vn -0.3071966 0.29403853 0.905081
vn -0.3071966 0.29403853 0.905081
vn -0.3071966 0.29403853 0.905081
vn -0.3071966 0.29403853 0.905081
vn -0.3071966 0.29403853 0.905081
g PotProjectileShatteredMesh_cell.002_0
f 3/3/3 2/2/2 1/1/1
f 6/6/6 5/5/5 4/4/4
f 5/5/5 6/6/6 7/7/7
f 8/8/8 5/5/5 7/7/7
f 7/7/7 6/6/6 9/9/9
f 6/6/6 10/10/10 9/9/9
f 9/9/9 10/10/10 11/11/11
f 12/12/12 9/9/9 11/11/11
f 13/13/13 11/11/11 10/10/10
f 13/13/13 14/14/14 11/11/11
f 14/14/14 13/13/13 15/15/15
f 15/15/15 13/13/13 16/16/16
f 13/13/13 17/17/17 16/16/16
f 16/16/16 17/17/17 18/18/18
f 17/17/17 19/19/19 18/18/18
f 18/18/18 19/19/19 20/20/20
f 23/23/23 22/22/22 21/21/21
f 23/23/23 21/21/21 24/24/24
f 25/25/25 24/24/24 21/21/21
f 24/24/24 25/25/25 26/26/26
f 24/24/24 27/27/27 23/23/23
f 28/28/28 23/23/23 27/27/27
f 29/29/29 28/28/28 27/27/27
f 30/30/30 24/24/24 26/26/26
f 27/27/27 24/24/24 30/30/30
f 26/26/26 31/31/31 30/30/30
f 30/30/30 31/31/31 32/32/32
f 27/27/27 33/33/33 29/29/29
f 34/34/34 29/29/29 33/33/33
f 35/35/35 30/30/30 32/32/32
f 35/35/35 32/32/32 36/36/36
f 37/37/37 27/27/27 30/30/30
f 33/33/33 27/27/27 37/37/37
f 37/37/37 30/30/30 35/35/35
f 34/34/34 33/33/33 38/38/38
f 38/38/38 33/33/33 37/37/37
f 39/39/39 34/34/34 38/38/38
f 40/40/40 35/35/35 36/36/36
f 41/41/41 40/40/40 36/36/36
f 42/42/42 37/37/37 35/35/35
f 38/38/38 37/37/37 42/42/42
f 42/42/42 35/35/35 40/40/40
f 39/39/39 38/38/38 43/43/43
f 43/43/43 38/38/38 42/42/42
f 44/44/44 39/39/39 43/43/43
f 45/45/45 40/40/40 41/41/41
f 45/45/45 42/42/42 40/40/40
f 43/43/43 42/42/42 45/45/45
f 46/46/46 45/45/45 41/41/41
f 45/45/45 46/46/46 47/47/47
f 47/47/47 48/48/48 45/45/45
f 48/48/48 43/43/43 45/45/45
f 44/44/44 43/43/43 48/48/48
f 49/49/49 44/44/44 48/48/48
f 49/49/49 48/48/48 50/50/50
f 51/51/51 49/49/49 50/50/50
f 54/54/54 53/53/53 52/52/52
f 53/53/53 54/54/54 55/55/55
f 53/53/53 55/55/55 56/56/56
f 55/55/55 57/57/57 56/56/56
f 58/58/58 53/53/53 56/56/56
f 56/56/56 59/59/59 58/58/58
f 62/62/62 61/61/61 60/60/60
f 60/60/60 63/63/63 62/62/62
f 60/60/60 64/64/64 63/63/63
f 64/64/64 65/65/65 63/63/63
f 68/68/68 67/67/67 66/66/66
f 68/68/68 66/66/66 69/69/69
f 69/69/69 70/70/70 68/68/68
f 68/68/68 70/70/70 71/71/71
f 72/72/72 71/71/71 70/70/70
f 73/73/73 70/70/70 69/69/69
f 74/74/74 73/73/73 69/69/69
f 75/75/75 72/72/72 70/70/70
f 70/70/70 73/73/73 75/75/75
f 72/72/72 75/75/75 76/76/76
f 76/76/76 75/75/75 73/73/73
f 77/77/77 73/73/73 74/74/74
f 77/77/77 76/76/76 73/73/73
f 72/72/72 76/76/76 78/78/78
f 78/78/78 76/76/76 77/77/77
f 78/78/78 79/79/79 72/72/72
f 80/80/80 79/79/79 78/78/78
f 74/74/74 81/81/81 77/77/77
f 74/74/74 82/82/82 81/81/81
f 77/77/77 81/81/81 83/83/83
f 84/84/84 78/78/78 77/77/77
f 83/83/83 84/84/84 77/77/77
f 80/80/80 78/78/78 84/84/84
f 83/83/83 85/85/85 84/84/84
f 84/84/84 86/86/86 80/80/80
f 86/86/86 84/84/84 85/85/85
f 87/87/87 86/86/86 85/85/85
f 88/88/88 80/80/80 86/86/86
f 86/86/86 87/87/87 89/89/89
f 89/89/89 88/88/88 86/86/86
f 89/89/89 90/90/90 88/88/88
f 93/93/93 92/92/92 91/91/91
f 91/91/91 94/94/94 93/93/93
f 94/94/94 95/95/95 93/93/93
f 98/98/98 97/97/97 96/96/96
f 96/96/96 99/99/99 98/98/98
f 96/96/96 100/100/100 99/99/99
f 100/100/100 101/101/101 99/99/99
f 104/104/104 103/103/103 102/102/102
f 102/102/102 105/105/105 104/104/104
f 105/105/105 102/102/102 106/106/106
f 107/107/107 105/105/105 106/106/106
f 106/106/106 108/108/108 107/107/107
f 102/102/102 109/109/109 106/106/106
f 106/106/106 109/109/109 110/110/110
f 102/102/102 111/111/111 109/109/109
f 110/110/110 112/112/112 106/106/106
f 110/110/110 113/113/113 112/112/112
f 113/113/113 114/114/114 112/112/112
f 114/114/114 115/115/115 112/112/112
f 102/102/102 116/116/116 111/111/111
f 116/116/116 117/117/117 111/111/111
f 116/116/116 118/118/118 117/117/117
f 116/116/116 119/119/119 118/118/118
f 122/122/122 121/121/121 120/120/120
f 120/120/120 123/123/123 122/122/122
f 123/123/123 124/124/124 122/122/122
f 124/124/124 125/125/125 122/122/122
f 124/124/124 126/126/126 125/125/125
f 126/126/126 127/127/127 125/125/125
