g Q4_Ruins_007
v 1 0.01137745 0.6946049
v 1 0.043086737 1
v 0.9314127 0.062312655 0.99999994
v 0.15540111 0.9998563 0.67183733
v 0.19221659 0.9998564 1
v 0.19242013 1 1
v 0.15583204 1 0.6738644
v 0.15550151 1 0.668623
v 0.15541446 1 0.6653932
v 0.2003969 1 -1
v 0.23170768 0.97199994 -1
v 0.23828673 0.9628929 -0.8665387
v 0.24369958 0.957904 -0.9999999
v 0.26826045 0.9166436 -1
v 0.15540111 0.9998563 0.67183733
v 0.5761517 0.44101614 -1.0000001
v 0.20866105 0.88733214 1
v 0.19221659 0.9998564 1
v 0.30579954 0.72245747 1
v 0.50662357 0.49479884 1
v 0.5726156 0.44579095 0.7061604
v 0.779466 0.4101836 -1
v 0.7668908 0.41243035 -0.8632433
v 0.7270018 0.42067057 0.018731207
v 0.5726156 0.44579095 0.7061604
v 0.5870993 0.4722406 1
v 0.50662357 0.49479884 1
v 0.71002895 0.4344627 1
v 0.7614774 0.4288814 1
v 0.70366037 0.42887688 0.48462954
v 0.7270018 0.42067057 0.018731207
v -1 -1 1
v -1 -1 -1
v -1 1 -1
v -1 1 1
v -1 -1 -1
v 1 -1 -1
v 1 0.081465304 -1
v 0.80855495 0.37720767 -1.0000001
v 0.779466 0.4101836 -1
v 0.5761517 0.44101614 -1.0000001
v 0.26826045 0.9166436 -1
v 0.24369958 0.957904 -0.9999999
v 0.23170768 0.97199994 -1
v 0.2003969 1 -1
v -1 1 -1
v 1 0.081465304 -1
v 1 -1 -1
v 1 -1 1
v 1 0.01137745 0.6946049
v 1 0.043086737 1
v 1 0.08110221 -0.09943339
v -1 1 1
v 0.19242013 1 1
v 0.19221659 0.9998564 1
v -1 -1 1
v 0.20866105 0.88733214 1
v 0.30579954 0.72245747 1
v 0.50662357 0.49479884 1
v 0.5870993 0.4722406 1
v 0.71002895 0.4344627 1
v 0.7614774 0.4288814 1
v 0.78730357 0.25216082 1
v 0.8342845 0.17241941 1
v 0.9314127 0.062312655 0.99999994
v 1 -1 1
v 1 0.043086737 1
v -1 -1 -1
v -1 -1 1
v 1 -1 1
v 1 -1 -1
v -1 1 1
v -1 1 -1
v 0.2003969 1 -1
v 0.15541446 1 0.6653932
v 0.15550151 1 0.668623
v 0.15583204 1 0.6738644
v 0.19242013 1 1
v 1 0.08110221 -0.09943339
v 1 0.01137745 0.6946049
v 0.9314127 0.062312655 0.99999994
v 0.8342845 0.17241941 1
v 0.80855495 0.37720767 -1.0000001
v 1 0.081465304 -1
v 0.7668908 0.41243035 -0.8632433
v 0.779466 0.4101836 -1
v 0.78730357 0.25216082 1
v 0.7270018 0.42067057 0.018731207
v 0.70366037 0.42887688 0.48462954
v 0.7614774 0.4288814 1
vt 0.51649463 0.10730125
vt 0.5143083 0.11922226
vt 0.52954125 0.12989888
vt 0.5909085 0.236191
vt 0.5790866 0.236191
vt 0.57906485 0.23635516
vt 0.59081376 0.2363552
vt 0.5910033 0.2363552
vt 0.5910981 0.236191
vt 0.64019734 0.19516417
vt 0.6402731 0.16423346
vt 0.636363 0.157461
vt 0.64099365 0.157461
vt 0.6403616 0.15053521
vt 0.5909085 0.236191
vt 0.64110684 0.0787305
vt 0.57732743 0.21266769
vt 0.5790866 0.236191
vt 0.5720079 0.157461
vt 0.5783556 0.10047307
vt 0.5909085 0.0787305
vt 0.6415989 0.0313144
vt 0.6375456 0.03418103
vt 0.6115041 0.043057475
vt 0.49999952 0.0787305
vt 0.4946791 0.08794586
vt 0.51255244 0.10047307
vt 0.47310424 0.0787305
vt 0.46407473 0.074873656
vt 0.47909513 0.061140418
vt 0.4794039 0.043057475
vt 0.9429597 0.23022412
vt 0.9429597 0.22441313
vt 0.9369755 0.22441313
vt 0.9369755 0.23022412
vt 0.92500705 0.29414493
vt 0.92500705 0.28833395
vt 0.92177117 0.28833395
vt 0.9208863 0.28889018
vt 0.9207875 0.2889747
vt 0.92069525 0.28956538
vt 0.9192722 0.29046
vt 0.91914874 0.29053134
vt 0.91910654 0.29056624
vt 0.9190228 0.2906572
vt 0.9190228 0.29414493
vt 0.8972926 0.8557769
vt 0.9005285 0.8557769
vt 0.9005285 0.84996593
vt 0.8975023 0.85085326
vt 0.8974074 0.84996593
vt 0.89729375 0.8531604
vt 0.9429597 0.25927904
vt 0.93939185 0.25927904
vt 0.93939245 0.25927943
vt 0.9429597 0.26509002
vt 0.9393433 0.2596064
vt 0.9390525 0.26008543
vt 0.9384517 0.2607469
vt 0.93821096 0.26081243
vt 0.93784314 0.2609222
vt 0.9376892 0.2609384
vt 0.93761194 0.261452
vt 0.9374711 0.2616835
vt 0.9371807 0.26200345
vt 0.9369755 0.26509002
vt 0.9369755 0.26205933
vt 0.96656364 0.8430755
vt 0.96656364 0.83726454
vt 0.9605794 0.83726454
vt 0.9605794 0.8430755
vt 0.95492816 0.28252298
vt 0.9609124 0.28252298
vt 0.96091235 0.27903524
vt 0.9559293 0.27916592
vt 0.95591974 0.2791657
vt 0.95590395 0.2791647
vt 0.95492816 0.2790584
vt 0.6026983 0.09915125
vt 0.5744134 0.10730125
vt 0.56136686 0.12989888
vt 0.5582968 0.157461
vt 0.6287267 0.1442343
vt 0.6291901 0.09958653
vt 0.62253827 0.157461
vt 0.62780726 0.15248889
vt 0.5608695 0.18416163
vt 0.59606063 0.19826145
vt 0.58219826 0.22110435
vt 0.5636323 0.22110526
vn 0.9991528 0.041017305 0.0033653586
vn 0.26857054 0.95810926 -0.09948083
vn 0.7141646 0.6986014 0.043874893
vn 0.5475282 -0.8367872 0
vn 0.5754345 -0.81529605 -0.064555965
vn 0.5754345 -0.81529605 -0.064555965
vn 0.5753547 -0.815354 -0.06453489
vn -0 1 0
vn -0 1 0
vn 0.020970961 0.99978 0.0005664277
vn 0.66975075 0.7423764 0.017642014
vn 0.8305272 0.55694693 0.0058831857
vn 0.8356655 0.549076 0.01336748
vn 0.8395325 0.5433093 0.00027149846
vn 0.86260134 0.5048009 0.033089995
vn 0.72157896 0.692332 -0.00044201396
vn 0.86876696 0.4943987 0.02852646
vn 0.98344857 0.14372262 -0.11032989
vn 0.7923226 0.6080772 0.049670227
vn 0.741618 0.66855973 0.05505102
vn 0.72358507 0.6888565 0.04360481
vn 0.16208783 0.98677546 -0.0013071818
vn 0.72538966 0.686309 0.052817013
vn 0.6522659 0.7576613 0.022329517
vn 0.72358507 0.6888565 0.04360481
vn 0.28311902 0.9538764 -0.0998174
vn 0.741618 0.66855973 0.05505102
vn 0.21723495 0.97401637 -0.064038604
vn 0.107842 0.99409443 -0.012107134
vn 0.64248157 0.76625913 0.008021655
vn 0.6522659 0.7576613 0.022329517
vn -1 0 0
vn -1 0 0
vn -1 0 0
vn -1 0 0
vn -0 0 -1
vn -0 0 -1
vn -0 0 -1
vn -0 0 -1
vn -0 0 -1
vn -0 0 -1
vn -0 0 -1
vn -0 0 -1
vn -0 0 -1
vn -0 0 -1
vn -0 0 -1
vn 0.9970444 0.07682756 3.097617E-05
vn 1 0 0
vn 1 0 0
vn 0.9991528 0.041017305 0.0033653586
vn 1 0 0
vn 0.8017524 0.59564143 0.049032666
vn -0 0 1
vn -0 0 1
vn -0 0 1
vn -0 0 1
vn -0 0 1
vn -0 0 1
vn -0 0 1
vn -0 0 1
vn -0 0 1
vn -0 0 1
vn -0 0 1
vn -0 0 1
vn -0 0 1
vn -0 0 1
vn -0 0 1
vn -0 -1 0
vn -0 -1 0
vn -0 -1 0
vn -0 -1 0
vn -0 1 0
vn -0 1 0
vn 0.020970961 0.99978 0.0005664277
vn 0.00077706255 0.99999976 2.098839E-05
vn -0 1 0
vn -0 1 0
vn -0 1 0
vn 0.8017524 0.59564143 0.049032666
vn 0.9991528 0.041017305 0.0033653586
vn 0.7141646 0.6986014 0.043874893
vn 0.79767036 0.60113376 0.048582375
vn 0.80832225 0.58834356 0.021611307
vn 0.9970444 0.07682756 3.097617E-05
vn 0.72538966 0.686309 0.052817013
vn 0.16208783 0.98677546 -0.0013071818
vn 0.90786713 0.4192426 -0.0035897878
vn 0.6522659 0.7576613 0.022329517
vn 0.64248157 0.76625913 0.008021655
vn 0.9834487 0.14372236 -0.11032985
g Q4_Ruins_007_0
f 3/3/3 2/2/2 1/1/1
f 6/6/6 5/5/5 4/4/4
f 7/7/7 6/6/6 4/4/4
f 8/8/8 7/7/7 4/4/4
f 4/4/4 9/9/9 8/8/8
f 11/11/11 10/10/10 9/9/9
f 9/9/9 12/12/12 11/11/11
f 12/12/12 13/13/13 11/11/11
f 12/12/12 14/14/14 13/13/13
f 9/9/9 15/15/15 12/12/12
f 16/16/16 14/14/14 12/12/12
f 15/15/15 17/17/17 12/12/12
f 15/15/15 18/18/18 17/17/17
f 17/17/17 19/19/19 12/12/12
f 19/19/19 20/20/20 12/12/12
f 20/20/20 21/21/21 12/12/12
f 21/21/21 16/16/16 12/12/12
f 22/22/22 16/16/16 21/21/21
f 21/21/21 23/23/23 22/22/22
f 21/21/21 24/24/24 23/23/23
f 27/27/27 26/26/26 25/25/25
f 26/26/26 28/28/28 25/25/25
f 25/25/25 28/28/28 29/29/29
f 25/25/25 29/29/29 30/30/30
f 30/30/30 31/31/31 25/25/25
f 34/34/34 33/33/33 32/32/32
f 35/35/35 34/34/34 32/32/32
f 38/38/38 37/37/37 36/36/36
f 36/36/36 39/39/39 38/38/38
f 36/36/36 40/40/40 39/39/39
f 36/36/36 41/41/41 40/40/40
f 36/36/36 42/42/42 41/41/41
f 36/36/36 43/43/43 42/42/42
f 36/36/36 44/44/44 43/43/43
f 36/36/36 45/45/45 44/44/44
f 36/36/36 46/46/46 45/45/45
f 49/49/49 48/48/48 47/47/47
f 47/47/47 50/50/50 49/49/49
f 49/49/49 50/50/50 51/51/51
f 47/47/47 52/52/52 50/50/50
f 55/55/55 54/54/54 53/53/53
f 55/55/55 53/53/53 56/56/56
f 57/57/57 55/55/55 56/56/56
f 58/58/58 57/57/57 56/56/56
f 59/59/59 58/58/58 56/56/56
f 60/60/60 59/59/59 56/56/56
f 61/61/61 60/60/60 56/56/56
f 62/62/62 61/61/61 56/56/56
f 63/63/63 62/62/62 56/56/56
f 64/64/64 63/63/63 56/56/56
f 65/65/65 64/64/64 56/56/56
f 65/65/65 56/56/56 66/66/66
f 66/66/66 67/67/67 65/65/65
f 70/70/70 69/69/69 68/68/68
f 71/71/71 70/70/70 68/68/68
f 74/74/74 73/73/73 72/72/72
f 72/72/72 75/75/75 74/74/74
f 72/72/72 76/76/76 75/75/75
f 72/72/72 77/77/77 76/76/76
f 72/72/72 78/78/78 77/77/77
f 81/81/81 80/80/80 79/79/79
f 79/79/79 82/82/82 81/81/81
f 79/79/79 83/83/83 82/82/82
f 79/79/79 84/84/84 83/83/83
f 83/83/83 85/85/85 82/82/82
f 83/83/83 86/86/86 85/85/85
f 87/87/87 82/82/82 85/85/85
f 85/85/85 88/88/88 87/87/87
f 88/88/88 89/89/89 87/87/87
f 89/89/89 90/90/90 87/87/87
