g RandomShipDebris1CollisionOnly
v -3.0693686 10.324015 -16.373487
v -2.4695046 9.431634 -15.357436
v -1.6673002 7.215162 -9.225969
v -3.49811 6.66933 -9.270132
v -0.94104034 0.916875 -2.7350943
v -1.2390853 2.1332502 -4.401189
v -3.49811 6.66933 -9.270132
v -4.653696 8.450607 -15.318243
v -4.922508 9.526365 -16.414352
v -1.3790393 -13.968194 8.095901
v -0.9054998 -13.170519 11.697965
v -0.82069606 -13.569678 10.971847
v 0.20149612 -13.800683 10.264996
v -0.9054998 -13.170519 11.697965
v 0.98123896 -13.122627 11.5620165
v 0.9626432 -13.85638 10.754018
v 1.2509108 -14.369844 8.215737
v 1.0495836 -13.83928 8.10145
v 0.98123896 -13.122627 11.5620165
v 1.4803451 -13.445305 8.234478
v 0.8387881 -13.701891 5.518279
v 0.9668736 -13.139271 4.594918
v 0.015136149 -13.782054 4.9205856
v -1.0103973 -13.68904 5.4102373
v -0.89818054 -13.567327 4.5918436
v 0.17468299 -14.337664 4.1432652
v 1.8113309 -14.105628 1.244587
v -0.8243115 -15.32957 4.022643
v -1.6464664 -14.190953 0.8661706
v 0.63619363 -15.43301 3.7716067
v 0.7620426 -15.508003 2.516924
v -0.77822906 -15.805377 1.5093633
v 0.43533373 -14.580067 -1.2671165
v 0.9581669 -13.147344 -2.5011826
v -0.2238676 -15.58954 -0.41649973
v 0.028123504 -14.616258 -1.8665514
v -1.137988 -14.539826 -1.483914
v -1.0094227 -13.173372 -2.4688969
v -1.137988 -14.539826 -1.483914
v -1.0094227 -13.173372 -2.4688969
v -0.0068191155 -13.284105 -2.829185
v 0.43533373 -14.580067 -1.2671165
v 0.9581669 -13.147344 -2.5011826
v 1.8113309 -14.105628 1.244587
v 1.747149 -13.15263 1.1319895
v 0.9581669 -13.147344 -2.5011826
v 0.9668736 -13.139271 4.594918
v -4.922508 9.526365 -16.414352
v -4.9095106 8.950643 -8.522712
v -3.49811 6.66933 -9.270132
v -4.28533 4.7546787 -0.9038453
v -4.933573 9.570828 1.604193
v -3.4441714 5.029405 4.257923
v -4.7356343 9.059562 3.8272557
v -4.140102 7.7630367 6.5621743
v -0.94104034 0.916875 -2.7350943
v -3.3402555 6.0021057 8.6549425
v -1.451933 0.8022058 1.015352
v -0.6649591 -5.9236007 -2.5580177
v -1.8656394 1.1352353 7.830873
v -1.9323018 2.921815 10.7695
v -1.0214833 1.0471039 11.711778
v -1.0832592 1.0518225 4.46706
v -1.6698319 -5.983474 1.0225112
v -1.0094227 -13.173372 -2.4688969
v -1.6464664 -14.190953 0.8661706
v -0.89818054 -13.567327 4.5918436
v -1.4362471 -5.679176 4.6176114
v -1.3790393 -13.968194 8.095901
v -2.3193579 -5.7838826 8.254843
v -1.6468322 -5.990218 12.459674
v -0.9054998 -13.170519 11.697965
v -1.6673002 7.215162 -9.225969
v -2.5490775 9.918049 -7.975934
v -3.0693686 10.324015 -16.373487
v 0.53150535 6.491759 -1.031369
v 0.98208857 0.78547645 -2.7648566
v -3.0805693 10.315058 2.0542812
v 1.4338554 1.0651879 1.0137622
v 1.333365 -5.9880223 -2.979471
v -0.02325215 5.886429 4.4150267
v -2.6609535 9.376418 5.020907
v -1.946952 7.757349 7.5045576
v 1.4652661 1.7976472 7.970874
v -1.1717666 5.9138565 9.190492
v 0.080105074 3.657567 10.65136
v 0.94532216 1.095291 11.716528
v 2.3595004 -5.8238196 0.7894478
v 0.9581669 -13.147344 -2.5011826
v 1.747149 -13.15263 1.1319895
v 0.9668736 -13.139271 4.594918
v 2.0082424 -5.6498704 4.5920515
v 1.4803451 -13.445305 8.234478
v 0.95875645 1.0813357 4.465471
v 2.637512 -5.696264 8.468459
v 1.7778165 -6.0836916 12.68753
v 0.98123896 -13.122627 11.5620165
v -3.778201 8.066049 -13.4496975
v -4.653696 8.450607 -15.318243
v -3.49811 6.66933 -9.270132
v -2.917456 6.8557196 -9.138842
v -3.4354994 8.12602 -11.775283
v -1.3855997 3.0823393 -5.548965
v -1.2390853 2.1332502 -4.401189
v -0.45946556 3.2555678 -5.761889
v 0.98208857 0.78547645 -2.7648566
v -1.6673002 7.215162 -9.225969
v -1.8856713 4.56383 -6.3965244
v -1.2126937 4.569942 -6.2648087
v -2.865141 7.007379 -8.808491
v -2.15704 7.1539526 -9.148068
v -2.8309417 8.493763 -13.603765
v -2.4695046 9.431634 -15.357436
v -2.7402344 8.385996 -12.056202
v -2.8309417 8.493763 -13.603765
v -3.778201 8.066049 -13.4496975
v -4.653696 8.450607 -15.318243
v -3.4570098 8.695835 -15.757372
v -2.4695046 9.431634 -15.357436
v -3.4570098 8.695835 -15.757372
v -4.922508 9.526365 -16.414352
v -4.653696 8.450607 -15.318243
v -4.088102 10.117254 -16.827414
v -3.0693686 10.324015 -16.373487
v -2.4695046 9.431634 -15.357436
v -0.94104034 0.916875 -2.7350943
v 2.719527E-06 0.8310879 -3.1731954
v -1.2390853 2.1332502 -4.401189
v 0.98208857 0.78547645 -2.7648566
v -0.6649591 -5.9236007 -2.5580177
v 1.333365 -5.9880223 -2.979471
v -0.10693008 -6.2282133 -2.9403648
v -1.0094227 -13.173372 -2.4688969
v 0.9581669 -13.147344 -2.5011826
v -0.0068191155 -13.284105 -2.829185
v 0.007110033 -6.117703 13.530279
v -0.9054998 -13.170519 11.697965
v -1.6468322 -5.990218 12.459674
v 0.98123896 -13.122627 11.5620165
v 1.7778165 -6.0836916 12.68753
v 0.94532216 1.095291 11.716528
v -1.0214833 1.0471039 11.711778
v -0 1.091716 12.10995
v 0.080105074 3.657567 10.65136
v -1.3515904 4.2184777 10.739189
v -1.9323018 2.921815 10.7695
v -1.1717666 5.9138565 9.190492
v -3.3402555 6.0021057 8.6549425
v -2.8725626 7.5026827 8.0257015
v -1.946952 7.757349 7.5045576
v -4.140102 7.7630367 6.5621743
v -3.6841908 9.24661 5.396563
v -2.6609535 9.376418 5.020907
v -4.7356343 9.059562 3.8272557
v -4.1618586 10.294454 2.2109067
v -3.0805693 10.315058 2.0542812
v -4.3622303 10.779558 -8.503363
v -4.933573 9.570828 1.604193
v -2.5490775 9.918049 -7.975934
v -4.9095106 8.950643 -8.522712
v -3.0693686 10.324015 -16.373487
v -4.922508 9.526365 -16.414352
v -4.088102 10.117254 -16.827414
vt -0.36713958 0.74901444
vt -0.36713958 0.7184794
vt 0.25756747 0.7345152
vt 0.35530466 0.5192453
vt -0.36713958 0.5315795
vt -0.3671397 0.50104445
vt 0.35530466 0.5192453
vt 0.98001194 0.50104445
vt 0.98001194 0.53157943
vt 0.6718737 0.7416047
vt 1.1029751 0.7434212
vt 1.0033157 0.7182486
vt 0.9108409 0.6475834
vt 1.1158998 0.73075604
vt 1.1035742 0.60971963
vt 0.9587025 0.60608935
vt 0.6873572 0.6109556
vt 0.67534345 0.5742329
vt 1.0688126 0.57757515
vt 0.6853931 0.54093754
vt 0.38658106 0.5980566
vt 0.27193734 0.5782094
vt 0.29829258 0.65082747
vt 0.36338505 0.71836287
vt 0.2655894 0.7125579
vt 0.16488972 0.64351094
vt -0.057450917 0.5746723
vt 0.09879561 0.68579316
vt -0.030697208 0.7880145
vt 0.07857467 0.64892834
vt -0.039639417 0.64974093
vt -0.046814095 0.6988201
vt -0.29512125 0.61217856
vt -0.43048054 0.5433387
vt -0.22195771 0.6917389
vt -0.35253555 0.6790628
vt -0.31403118 0.76388675
vt -0.41105133 0.8418283
vt -0.33648652 0.7390296
vt -0.5099047 0.72934455
vt -0.51224154 0.6760025
vt -0.31120452 0.6377591
vt -0.50114197 0.62341493
vt 0.24652605 0.46904686
vt 0.24652605 0.5495556
vt 0.32545912 0.46795627
vt 0.16672789 0.46911362
vt 0.06994273 0.39154494
vt 0.21197979 0.380031
vt 0.19229628 0.35793823
vt 0.3316994 0.34537497
vt 0.37786525 0.38479972
vt 0.4224547 0.33988142
vt 0.4197184 0.37829167
vt 0.4661711 0.36515298
vt 0.2986811 0.30280882
vt 0.502733 0.3473183
vt 0.36278918 0.30079535
vt 0.30045572 0.24165297
vt 0.4907334 0.30322602
vt 0.53590786 0.32010356
vt 0.55626416 0.30025902
vt 0.42611983 0.30124795
vt 0.36131945 0.23829323
vt 0.29944712 0.18131803
vt 0.3612659 0.17727701
vt 0.4247495 0.17619818
vt 0.42641124 0.24046238
vt 0.48490232 0.17666739
vt 0.49340197 0.23901403
vt 0.56241953 0.23867339
vt 0.5472925 0.17861116
vt 0.189047 0.35953215
vt 0.20763464 0.3838699
vt 0.06377137 0.39235717
vt 0.32787624 0.34825045
vt 0.29980573 0.30059767
vt 0.38619694 0.39064047
vt 0.3634015 0.2996476
vt 0.29379597 0.23882581
vt 0.4232095 0.343221
vt 0.4481302 0.3777309
vt 0.4884134 0.36067417
vt 0.48608908 0.3052569
vt 0.5087485 0.34867063
vt 0.53387094 0.3259002
vt 0.55310297 0.301403
vt 0.3602915 0.23684576
vt 0.30135852 0.17682503
vt 0.36492145 0.16987853
vt 0.43075728 0.17620137
vt 0.42949334 0.23865767
vt 0.49342632 0.17428392
vt 0.4262713 0.30064192
vt 0.50075126 0.23868343
vt 0.56983674 0.23959959
vt 0.55534863 0.17772883
vt -0.28840417 0.82551205
vt -0.5448044 0.8629719
vt 0.27174735 0.83729494
vt 0.2950801 0.81526166
vt -0.11427739 0.7896503
vt 0.94605124 0.8226249
vt 1.24661 0.8761753
vt 0.974209 0.75843287
vt 1.3381901 0.75777155
vt 0.2975153 0.7013557
vt 0.7324825 0.8117514
vt 0.76796013 0.78206134
vt 0.30829173 0.79323673
vt 0.31840768 0.74191713
vt -0.26582885 0.70584
vt -0.5376718 0.65641814
vt -0.1127486 0.73653865
vt -0.32353488 0.73895586
vt -0.32662183 0.8070426
vt -0.6228706 0.84342766
vt -0.66143876 0.75163096
vt -0.5980398 0.6630055
vt 0.8764227 0.97034043
vt 0.7904182 0.8983146
vt 0.76407945 0.9719062
vt 0.8786106 0.88862705
vt 0.9663788 0.89923424
vt 0.9884815 0.9719062
vt -0.36358678 0.7475315
vt -0.36358678 0.6227892
vt -0.48832908 0.75928104
vt -0.35770214 0.50346863
vt 0.30464584 0.7475315
vt 0.30464584 0.50346863
vt 0.30464584 0.6227892
vt 0.9778007 0.7475315
vt 0.9778007 0.50346863
vt 0.9778007 0.6227892
vt 2.2684546 0.6233519
vt 3.1771755 0.49816632
vt 2.2684546 0.4957296
vt 3.1771755 0.74542737
vt 2.2684546 0.74542737
vt 1.3663784 0.7454273
vt 1.3663784 0.4957296
vt 1.3663784 0.6233519
vt 1.0123374 0.7454273
vt 0.9137908 0.6233518
vt 1.0123374 0.49572954
vt 0.65829617 0.7454273
vt 0.5244769 0.4957295
vt 0.35731435 0.6233518
vt 0.3029758 0.7454273
vt 0.15280025 0.49572954
vt -0.04173325 0.6233518
vt -0.091687605 0.7454273
vt -0.23442793 0.49572954
vt -0.45674863 0.6233518
vt -0.4619966 0.7454273
vt -1.7809271 0.6233518
vt -0.55501604 0.49572954
vt -1.7809271 0.74542713
vt -1.7809271 0.49572954
vt -2.8221102 0.74542713
vt -2.8221102 0.49572954
vt -2.8221102 0.6233517
vn 0.70921236 0.47813356 -0.5180791
vn 0.9545188 -0.03685359 -0.29586452
vn 0.8819887 -0.20379944 -0.42492548
vn -0.4363275 -0.8184733 -0.37379107
vn -0.76134324 -0.45166358 -0.46514124
vn -0.26130792 -0.7765407 -0.57332605
vn -0.4363275 -0.8184733 -0.37379107
vn -0.60231644 -0.7507863 -0.27117312
vn -0.8323644 -0.20585014 -0.51458263
vn -0.72240955 -0.6914654 5.384212E-05
vn -0.47328612 -0.5470292 0.6904776
vn -0.35374492 -0.86300457 0.36067674
vn -0.1373847 -0.9470734 0.29013357
vn -0.47328612 -0.5470292 0.6904776
vn 0.60857785 -0.47574642 0.6350577
vn 0.5093278 -0.7002239 0.5002714
vn 0.7126795 -0.70130444 0.016121548
vn 0.97896475 -0.20335324 -0.016598066
vn 0.60857785 -0.47574642 0.6350577
vn 0.8976303 -0.44010153 0.023885733
vn 0.58208543 -0.7712581 -0.25756082
vn 0.90305746 -0.4249827 0.062265884
vn 0.0953034 -0.98865265 0.116117895
vn -0.7420035 -0.64635414 -0.17792426
vn -0.8598631 -0.47490242 0.1873581
vn 0.47721872 -0.48844454 0.730537
vn 0.949332 -0.31367558 -0.019402634
vn -0.4569992 -0.660409 0.5958286
vn -0.967623 -0.24763785 -0.048797075
vn 0.5534523 -0.6193639 0.55684733
vn 0.62664765 -0.7591342 0.17614779
vn -0.47920477 -0.87739986 0.023069708
vn 0.6657189 -0.64243144 -0.37960532
vn 0.6794974 -0.29790327 -0.6704752
vn 0.0063742017 -0.9462238 -0.32344997
vn 0.15001304 -0.7104233 -0.68760073
vn -0.72064435 -0.50744224 -0.472413
vn -0.72591406 -0.18878074 -0.66137016
vn -0.72064435 -0.50744224 -0.472413
vn -0.72591406 -0.18878074 -0.66137016
vn -0.032942463 -0.34029585 -0.9397412
vn 0.6657189 -0.64243144 -0.37960532
vn 0.6794974 -0.29790327 -0.6704752
vn 0.949332 -0.31367558 -0.019402634
vn 0.99960583 -0.014753719 -0.023887843
vn 0.6794974 -0.29790327 -0.6704752
vn 0.90305746 -0.4249827 0.062265884
vn -0.8323644 -0.20585014 -0.51458263
vn -0.9983088 0.0010263853 -0.05812521
vn -0.4363275 -0.8184733 -0.37379107
vn -0.9124944 -0.40899572 -0.008733278
vn -0.978157 0.19279288 0.07771652
vn -0.9248603 -0.37107188 0.08330154
vn -0.944445 0.24403445 0.22016074
vn -0.9004603 0.18727735 0.3925536
vn -0.76134324 -0.45166358 -0.46514124
vn -0.8376847 0.101835474 0.53657615
vn -0.9595936 -0.2812039 -0.010216859
vn -0.79195076 -0.008467312 -0.6105262
vn -0.9856247 -0.16858089 0.011163266
vn -0.79143536 -0.04196034 0.60981095
vn -0.7389196 0.0918465 0.66750425
vn -0.96929955 -0.23985477 -0.054111484
vn -0.99865985 0.0042144028 -0.05158228
vn -0.72591406 -0.18878074 -0.66137016
vn -0.967623 -0.24763785 -0.048797075
vn -0.8598631 -0.47490242 0.1873581
vn -0.9984798 -0.006809666 -0.054697458
vn -0.72240955 -0.6914654 5.384212E-05
vn -0.99976736 -0.015038005 -0.015466377
vn -0.8196264 -0.0024628318 0.5728932
vn -0.47328612 -0.5470292 0.6904776
vn 0.8819887 -0.20379944 -0.42492548
vn 0.6510097 0.756565 -0.061611004
vn 0.70921236 0.47813356 -0.5180791
vn 0.9149903 0.40218565 -0.032241974
vn 0.80875194 -0.029850315 -0.5873919
vn 0.46656346 0.8755264 0.12558593
vn 0.98919696 0.1464858 -0.005595785
vn 0.6808647 -0.006616845 -0.7323793
vn 0.89125985 0.43708304 0.12088979
vn 0.44377387 0.84598655 0.2955868
vn 0.49833438 0.74043757 0.45101556
vn 0.9576054 0.2856551 0.037322894
vn 0.55177736 0.66814506 0.49912316
vn 0.64740103 0.55087507 0.52669585
vn 0.7272649 0.31268412 0.6109945
vn 0.998862 0.012896602 -0.045915134
vn 0.6794974 -0.29790327 -0.6704752
vn 0.99960583 -0.014753719 -0.023887843
vn 0.90305746 -0.4249827 0.062265884
vn 0.9997923 0.013216761 -0.015515206
vn 0.8976303 -0.44010153 0.023885733
vn 0.98490125 0.17132229 -0.024861267
vn 0.9998355 0.007180081 0.01665382
vn 0.7543944 -0.018393267 0.65616363
vn 0.60857785 -0.47574642 0.6350577
vn 0.35967126 -0.9033593 -0.23362061
vn -0.60231644 -0.7507863 -0.27117312
vn -0.4363275 -0.8184733 -0.37379107
vn 0.8032205 -0.38800305 -0.45198488
vn 0.70933485 -0.6437074 -0.28720164
vn 0.071808286 -0.6455765 -0.7603122
vn -0.26130792 -0.7765407 -0.57332605
vn 0.1737168 -0.6019578 -0.77940315
vn 0.80875194 -0.029850315 -0.5873919
vn 0.8819887 -0.20379944 -0.42492548
vn 0.7045373 -0.2698369 -0.65636516
vn -0.3623612 -0.64259905 -0.6751006
vn 0.6531506 -0.526433 -0.54430014
vn 0.15871437 -0.82945997 -0.5355426
vn 0.30865124 -0.919649 -0.24285826
vn 0.9545188 -0.03685359 -0.29586452
vn -0.41772813 -0.8993646 -0.12902145
vn 0.30865124 -0.919649 -0.24285826
vn 0.35967126 -0.9033593 -0.23362061
vn -0.60231644 -0.7507863 -0.27117312
vn 0.34287193 -0.744931 -0.5722908
vn 0.9545188 -0.03685359 -0.29586452
vn 0.34287193 -0.744931 -0.5722908
vn -0.8323644 -0.20585014 -0.51458263
vn -0.60231644 -0.7507863 -0.27117312
vn -0.1191743 0.24712414 -0.96162736
vn 0.70921236 0.47813356 -0.5180791
vn 0.9545188 -0.03685359 -0.29586452
vn -0.76134324 -0.45166358 -0.46514124
vn -0.028030152 -0.36358207 -0.93114036
vn -0.26130792 -0.7765407 -0.57332605
vn 0.80875194 -0.029850315 -0.5873919
vn -0.79195076 -0.008467312 -0.6105262
vn 0.6808647 -0.006616845 -0.7323793
vn -0.16793557 -0.020164846 -0.98559165
vn -0.72591406 -0.18878074 -0.66137016
vn 0.6794974 -0.29790327 -0.6704752
vn -0.032942463 -0.34029585 -0.9397412
vn -0.079819724 -0.018406183 0.9966394
vn -0.47328612 -0.5470292 0.6904776
vn -0.8196264 -0.0024628318 0.5728932
vn 0.60857785 -0.47574642 0.6350577
vn 0.7543944 -0.018393267 0.65616363
vn 0.7272649 0.31268412 0.6109945
vn -0.7389196 0.0918465 0.66750425
vn -0.0063129477 0.28915626 0.9572611
vn 0.64740103 0.55087507 0.52669585
vn -0.12982464 0.4815873 0.866729
vn -0.79143536 -0.04196034 0.60981095
vn 0.55177736 0.66814506 0.49912316
vn -0.8376847 0.101835474 0.53657615
vn -0.24507472 0.67006314 0.700681
vn 0.49833438 0.74043757 0.45101556
vn -0.9004603 0.18727735 0.3925536
vn -0.34042382 0.8134101 0.47167337
vn 0.44377387 0.84598655 0.2955868
vn -0.944445 0.24403445 0.22016074
vn -0.37767392 0.9062523 0.18991825
vn 0.46656346 0.8755264 0.12558593
vn -0.3986936 0.91704756 -0.008205727
vn -0.978157 0.19279288 0.07771652
vn 0.6510097 0.756565 -0.061611004
vn -0.9983088 0.0010263853 -0.05812521
vn 0.70921236 0.47813356 -0.5180791
vn -0.8323644 -0.20585014 -0.51458263
vn -0.1191743 0.24712414 -0.96162736
g RandomShipDebris1CollisionOnly_0
f 3/3/3 2/2/2 1/1/1
f 6/6/6 5/5/5 4/4/4
f 9/9/9 8/8/8 7/7/7
f 12/12/12 11/11/11 10/10/10
f 13/13/13 12/12/12 10/10/10
f 12/12/12 13/13/13 14/14/14
f 14/14/14 13/13/13 15/15/15
f 16/16/16 15/15/15 13/13/13
f 16/16/16 13/13/13 17/17/17
f 17/17/17 13/13/13 10/10/10
f 17/17/17 18/18/18 16/16/16
f 18/18/18 19/19/19 16/16/16
f 19/19/19 18/18/18 20/20/20
f 20/20/20 18/18/18 21/21/21
f 17/17/17 21/21/21 18/18/18
f 22/22/22 20/20/20 21/21/21
f 17/17/17 23/23/23 21/21/21
f 23/23/23 17/17/17 10/10/10
f 22/22/22 21/21/21 23/23/23
f 24/24/24 23/23/23 10/10/10
f 25/25/25 24/24/24 10/10/10
f 23/23/23 24/24/24 25/25/25
f 26/26/26 22/22/22 23/23/23
f 25/25/25 26/26/26 23/23/23
f 26/26/26 27/27/27 22/22/22
f 26/26/26 25/25/25 28/28/28
f 25/25/25 29/29/29 28/28/28
f 27/27/27 26/26/26 30/30/30
f 30/30/30 26/26/26 28/28/28
f 31/31/31 27/27/27 30/30/30
f 31/31/31 30/30/30 28/28/28
f 29/29/29 32/32/32 28/28/28
f 32/32/32 31/31/31 28/28/28
f 31/31/31 33/33/33 27/27/27
f 33/33/33 34/34/34 27/27/27
f 31/31/31 32/32/32 35/35/35
f 31/31/31 35/35/35 33/33/33
f 32/32/32 29/29/29 35/35/35
f 33/33/33 35/35/35 36/36/36
f 29/29/29 37/37/37 35/35/35
f 38/38/38 37/37/37 29/29/29
f 35/35/35 39/39/39 36/36/36
f 39/39/39 40/40/40 36/36/36
f 40/40/40 41/41/41 36/36/36
f 36/36/36 41/41/41 42/42/42
f 41/41/41 43/43/43 42/42/42
f 46/46/46 45/45/45 44/44/44
f 44/44/44 45/45/45 47/47/47
f 50/50/50 49/49/49 48/48/48
f 50/50/50 51/51/51 49/49/49
f 51/51/51 52/52/52 49/49/49
f 53/53/53 52/52/52 51/51/51
f 53/53/53 54/54/54 52/52/52
f 54/54/54 53/53/53 55/55/55
f 56/56/56 51/51/51 50/50/50
f 55/55/55 53/53/53 57/57/57
f 58/58/58 51/51/51 56/56/56
f 58/58/58 53/53/53 51/51/51
f 56/56/56 59/59/59 58/58/58
f 57/57/57 53/53/53 60/60/60
f 61/61/61 57/57/57 60/60/60
f 62/62/62 61/61/61 60/60/60
f 63/63/63 53/53/53 58/58/58
f 53/53/53 63/63/63 60/60/60
f 59/59/59 64/64/64 58/58/58
f 59/59/59 65/65/65 64/64/64
f 65/65/65 66/66/66 64/64/64
f 66/66/66 67/67/67 64/64/64
f 68/68/68 63/63/63 58/58/58
f 64/64/64 68/68/68 58/58/58
f 67/67/67 68/68/68 64/64/64
f 63/63/63 68/68/68 60/60/60
f 67/67/67 69/69/69 68/68/68
f 60/60/60 70/70/70 62/62/62
f 68/68/68 70/70/70 60/60/60
f 69/69/69 70/70/70 68/68/68
f 70/70/70 71/71/71 62/62/62
f 69/69/69 72/72/72 70/70/70
f 72/72/72 71/71/71 70/70/70
f 75/75/75 74/74/74 73/73/73
f 73/73/73 74/74/74 76/76/76
f 73/73/73 76/76/76 77/77/77
f 74/74/74 78/78/78 76/76/76
f 77/77/77 76/76/76 79/79/79
f 77/77/77 79/79/79 80/80/80
f 76/76/76 78/78/78 81/81/81
f 79/79/79 76/76/76 81/81/81
f 78/78/78 82/82/82 81/81/81
f 83/83/83 81/81/81 82/82/82
f 83/83/83 84/84/84 81/81/81
f 85/85/85 84/84/84 83/83/83
f 86/86/86 84/84/84 85/85/85
f 87/87/87 84/84/84 86/86/86
f 79/79/79 88/88/88 80/80/80
f 80/80/80 88/88/88 89/89/89
f 88/88/88 90/90/90 89/89/89
f 90/90/90 88/88/88 91/91/91
f 88/88/88 92/92/92 91/91/91
f 88/88/88 79/79/79 92/92/92
f 91/91/91 92/92/92 93/93/93
f 79/79/79 81/81/81 94/94/94
f 84/84/84 94/94/94 81/81/81
f 79/79/79 94/94/94 92/92/92
f 94/94/94 84/84/84 92/92/92
f 84/84/84 87/87/87 95/95/95
f 84/84/84 95/95/95 92/92/92
f 92/92/92 95/95/95 93/93/93
f 87/87/87 96/96/96 95/95/95
f 93/93/93 95/95/95 97/97/97
f 95/95/95 96/96/96 97/97/97
f 100/100/100 99/99/99 98/98/98
f 101/101/101 100/100/100 98/98/98
f 98/98/98 102/102/102 101/101/101
f 100/100/100 101/101/101 103/103/103
f 104/104/104 100/100/100 103/103/103
f 104/104/104 103/103/103 105/105/105
f 106/106/106 104/104/104 105/105/105
f 107/107/107 106/106/106 105/105/105
f 103/103/103 101/101/101 108/108/108
f 109/109/109 105/105/105 103/103/103
f 108/108/108 109/109/109 103/103/103
f 101/101/101 110/110/110 108/108/108
f 110/110/110 109/109/109 108/108/108
f 102/102/102 110/110/110 101/101/101
f 105/105/105 109/109/109 111/111/111
f 110/110/110 111/111/111 109/109/109
f 111/111/111 107/107/107 105/105/105
f 111/111/111 110/110/110 102/102/102
f 107/107/107 111/111/111 112/112/112
f 113/113/113 107/107/107 112/112/112
f 114/114/114 112/112/112 111/111/111
f 114/114/114 111/111/111 102/102/102
f 114/114/114 102/102/102 115/115/115
f 115/115/115 102/102/102 116/116/116
f 116/116/116 117/117/117 115/115/115
f 117/117/117 118/118/118 115/115/115
f 119/119/119 115/115/115 118/118/118
f 122/122/122 121/121/121 120/120/120
f 121/121/121 123/123/123 120/120/120
f 123/123/123 124/124/124 120/120/120
f 124/124/124 125/125/125 120/120/120
f 128/128/128 127/127/127 126/126/126
f 128/128/128 129/129/129 127/127/127
f 126/126/126 127/127/127 130/130/130
f 127/127/127 129/129/129 131/131/131
f 127/127/127 132/132/132 130/130/130
f 132/132/132 127/127/127 131/131/131
f 130/130/130 132/132/132 133/133/133
f 132/132/132 131/131/131 134/134/134
f 132/132/132 135/135/135 133/133/133
f 135/135/135 132/132/132 134/134/134
f 138/138/138 137/137/137 136/136/136
f 136/136/136 137/137/137 139/139/139
f 140/140/140 136/136/136 139/139/139
f 140/140/140 141/141/141 136/136/136
f 142/142/142 138/138/138 136/136/136
f 141/141/141 143/143/143 136/136/136
f 143/143/143 142/142/142 136/136/136
f 143/143/143 141/141/141 144/144/144
f 142/142/142 143/143/143 145/145/145
f 145/145/145 143/143/143 144/144/144
f 146/146/146 142/142/142 145/145/145
f 144/144/144 147/147/147 145/145/145
f 145/145/145 148/148/148 146/146/146
f 145/145/145 147/147/147 149/149/149
f 145/145/145 149/149/149 148/148/148
f 147/147/147 150/150/150 149/149/149
f 151/151/151 148/148/148 149/149/149
f 149/149/149 150/150/150 152/152/152
f 149/149/149 152/152/152 151/151/151
f 150/150/150 153/153/153 152/152/152
f 154/154/154 151/151/151 152/152/152
f 155/155/155 152/152/152 153/153/153
f 154/154/154 152/152/152 155/155/155
f 156/156/156 155/155/155 153/153/153
f 157/157/157 155/155/155 156/156/156
f 154/154/154 155/155/155 158/158/158
f 158/158/158 155/155/155 157/157/157
f 159/159/159 157/157/157 156/156/156
f 160/160/160 158/158/158 157/157/157
f 157/157/157 159/159/159 161/161/161
f 162/162/162 160/160/160 157/157/157
f 163/163/163 157/157/157 161/161/161
f 163/163/163 162/162/162 157/157/157
