g RandomShipDebris1Detail
v -0.3884093 -12.879641 7.94546
v -0.426968 -12.714746 5.824046
v -0.426968 -15.738447 5.824046
v -0.3884093 -15.90334 7.94546
v -0.28370205 -12.635471 9.5145445
v -0.28370205 -15.659172 9.5145445
v 1.0700738 -13.17259 7.891749
v 0.78214264 -15.774841 9.743107
v 0.78214264 -12.751141 9.743107
v 1.0700738 -16.196291 7.891749
v 0.7155608 -12.700844 6.01902
v 0.7155608 -15.724545 6.01902
v 0.60584503 -13.328763 2.928717
v 0.60584503 -15.476194 2.928717
v 0.6676936 -15.549662 4.461502
v 0.6676936 -13.40223 4.461502
v 0.4109369 -13.328763 2.928717
v 0.47278544 -13.40223 4.461502
v 0.47278544 -15.549662 4.461502
v 0.4109369 -15.476194 2.928717
v 0.84251523 -13.17259 7.891749
v 0.554584 -12.751141 9.743107
v 0.554584 -15.774841 9.743107
v 0.84251523 -16.196291 7.891749
v 0.4880022 -12.700844 6.01902
v 0.4880022 -15.724545 6.01902
v -0.49885485 -12.879641 7.94546
v -0.5374135 -15.738447 5.824046
v -0.5374135 -12.714746 5.824046
v -0.49885485 -15.90334 7.94546
v -0.3941476 -12.635471 9.5145445
v -0.3941476 -15.659172 9.5145445
v -3.4408083 9.108741 -12.3810005
v -3.218725 6.993478 -12.677315
v -4.052104 6.656944 -11.4319725
v -4.2741876 8.772206 -11.135658
v -3.598127 9.108343 -12.496065
v -4.4315066 8.771809 -11.250723
v -4.2094235 6.6565456 -11.547038
v -3.3760436 6.9930797 -12.79238
v -2.359359 8.382408 -9.749013
v -2.05865 6.4544144 -10.645604
v -2.0494132 5.741461 -9.28536
v -2.3501225 7.6694536 -8.388769
v -2.5521846 8.361052 -9.767759
v -2.5429482 7.648097 -8.407516
v -2.2422397 5.7201033 -9.304107
v -2.251476 6.4330587 -10.664351
vt 0.726534 0.1905489
vt 0.7649299 0.4375785
vt 0.060851935 0.4375785
vt 0.022456024 0.1905489
vt 0.7833895 0.0074594617
vt 0.07931149 0.007459432
vt 0.7042256 0.22205524
vt 0.09828321 0.44019377
vt 0.8023615 0.44019377
vt 0.00014744763 0.22205515
vt 0.8140734 0.00014748916
vt 0.1099949 0.00014744763
vt 0.84611416 0.03619322
vt 0.10516378 0.03619322
vt 0.079814136 0.30084488
vt 0.820765 0.30084488
vt 0.5172909 0.05953169
vt 0.5001838 0.2381339
vt 0.00014744763 0.2381339
vt 0.017254852 0.05953169
vt 0.7042256 0.22205524
vt 0.8023615 0.44019377
vt 0.09828321 0.44019377
vt 0.00014744763 0.22205515
vt 0.8140734 0.00014748916
vt 0.1099949 0.00014744763
vt 0.726534 0.1905489
vt 0.060851935 0.4375785
vt 0.7649299 0.4375785
vt 0.022456024 0.1905489
vt 0.7833895 0.0074594617
vt 0.07931149 0.007459432
vt 0.84611416 0.03619322
vt 0.10516378 0.03619322
vt 0.079814136 0.30084488
vt 0.820765 0.30084488
vt 0.5172909 0.05953169
vt 0.5001838 0.2381339
vt 0.00014744763 0.2381339
vt 0.017254852 0.05953169
vt 0.84611416 0.03619322
vt 0.10516378 0.03619322
vt 0.079814136 0.30084488
vt 0.820765 0.30084488
vt 0.5172909 0.05953169
vt 0.5001838 0.2381339
vt 0.00014744763 0.2381339
vt 0.017254852 0.05953169
vn 0.9990777 0 -0.042939506
vn 0.9998349 0 -0.018172953
vn 0.9998349 0 -0.018172953
vn 0.9991279 0 -0.04175424
vn 0.99778086 0 -0.0665833
vn 0.99778086 0 -0.0665833
vn 0.99984825 0 -0.017421339
vn 0.98812115 0 0.1536769
vn 0.98812115 0 0.1536769
vn 0.9998871 0 -0.015023919
vn 0.9825498 0 -0.18599951
vn 0.9825498 0 -0.18599951
vn 0.99918693 0 -0.04031765
vn 0.99918693 0 -0.04031765
vn 0.99918693 0 -0.04031765
vn 0.99918693 0 -0.04031765
vn -0.99918693 0 0.040317617
vn -0.99918693 0 0.040317617
vn -0.99918693 0 0.040317617
vn -0.99918693 0 0.040317617
vn -0.99984825 0 0.017421339
vn -0.98812115 0 -0.15367687
vn -0.98812115 0 -0.15367687
vn -0.9998871 0 0.015023917
vn -0.9825498 0 0.18599951
vn -0.9825498 0 0.18599951
vn -0.9990777 0 0.04293949
vn -0.9998349 0 0.018172912
vn -0.9998349 0 0.018172912
vn -0.9991279 0 0.04175422
vn -0.99778086 0 0.0665833
vn -0.99778086 0 0.0665833
vn 0.82992005 0.0089937 0.5578099
vn 0.82992005 0.0089937 0.5578099
vn 0.82992005 0.0089937 0.5578099
vn 0.82992005 0.0089937 0.5578099
vn -0.8299194 -0.008993453 -0.55781084
vn -0.8299194 -0.008993453 -0.55781084
vn -0.8299194 -0.008993453 -0.55781084
vn -0.8299194 -0.008993453 -0.55781084
vn 0.9901467 0.12668195 0.05967511
vn 0.9901467 0.12668195 0.05967511
vn 0.9901467 0.12668195 0.05967511
vn 0.9901467 0.12668195 0.05967511
vn -0.9901468 -0.12668158 -0.059675306
vn -0.9901468 -0.12668158 -0.059675306
vn -0.9901468 -0.12668158 -0.059675306
vn -0.9901468 -0.12668158 -0.059675306
g RandomShipDebris1Detail_0
f 3/3/3 2/2/2 1/1/1
f 4/4/4 3/3/3 1/1/1
f 4/4/4 1/1/1 5/5/5
f 6/6/6 4/4/4 5/5/5
f 9/9/9 8/8/8 7/7/7
f 8/8/8 10/10/10 7/7/7
f 7/7/7 10/10/10 11/11/11
f 10/10/10 12/12/12 11/11/11
f 15/15/15 14/14/14 13/13/13
f 16/16/16 15/15/15 13/13/13
f 19/19/19 18/18/18 17/17/17
f 20/20/20 19/19/19 17/17/17
f 23/23/23 22/22/22 21/21/21
f 24/24/24 23/23/23 21/21/21
f 24/24/24 21/21/21 25/25/25
f 26/26/26 24/24/24 25/25/25
f 29/29/29 28/28/28 27/27/27
f 28/28/28 30/30/30 27/27/27
f 27/27/27 30/30/30 31/31/31
f 30/30/30 32/32/32 31/31/31
f 35/35/35 34/34/34 33/33/33
f 36/36/36 35/35/35 33/33/33
f 39/39/39 38/38/38 37/37/37
f 40/40/40 39/39/39 37/37/37
f 43/43/43 42/42/42 41/41/41
f 44/44/44 43/43/43 41/41/41
f 47/47/47 46/46/46 45/45/45
f 48/48/48 47/47/47 45/45/45
