g Rubble_One
v 1.3984836 -1.4014429 0.16019131
v 1.2863164 -0.7078846 2.4223328E-07
v 0.7748141 -1.4014428 0
v -0.14292908 -1.4014428 0.4613744
v -0.21547379 -0.88458097 0.33805797
v -0.16698515 -1.4014428 0.46495348
v -0.43111506 -0.5584066 1.9378662E-07
v -0.4729984 -0.55840623 1.4533997E-07
v -0.21547379 -0.88458097 0.33805797
v -1.2333906 -0.98455036 3.391266E-07
v -1.852146 -0.15762006 4.8446657E-07
v -1.5524374 -0.5584064 3.8757324E-07
v 0.43631828 0.36501107 1.8657962
v 1.1589177 -0.51712 1.359826
v 0.4363182 -0.51712 1.8657957
v 1.1589178 0.36501107 1.3598262
v -0.14667344 -1.4014434 2.5749676
v -0.92127067 -1.4014428 2.4223328E-07
v -1.5497655 -1.4014428 0.5711445
v -0.16698515 -1.4014428 0.46495348
v -0.6143334 -1.4014428 1.9378662E-07
v -0.14292908 -1.4014428 0.4613744
v 2.0247164 -1.4014431 1.0545437
v 0.25715983 -1.4014428 -9.689331E-08
v -0.28378317 -1.4014428 4.8446655E-08
v 0.7748141 -1.4014428 0
v 1.3984836 -1.4014429 0.16019131
v 0.54390097 0.40629852 2.0914223
v 0.4363182 -0.51712 1.8657957
v 0.54390085 -0.5584076 2.0914223
v 0.43631828 0.36501107 1.8657962
v 0.54390085 -0.5584076 2.0914223
v 1.1589177 -0.51712 1.359826
v 1.3341417 -0.5584074 1.5380894
v 0.4363182 -0.51712 1.8657957
v 1.3341417 -0.5584074 1.5380894
v 1.1589178 0.36501107 1.3598262
v 1.3341419 0.40629843 1.5380896
v 1.1589177 -0.51712 1.359826
v 0.54390097 0.40629852 2.0914223
v 1.1589178 0.36501107 1.3598262
v 0.43631828 0.36501107 1.8657962
v 1.3341419 0.40629843 1.5380896
v 1.2863166 1.2493345 6.298065E-07
v 1.2863165 0.58196497 5.329132E-07
v 2.0247166 1.2493342 1.0545443
v 1.2863165 -0.15810154 3.391266E-07
v 2.0247164 -1.4014431 1.0545437
v 1.2863164 -0.7078846 2.4223328E-07
v 1.3984836 -1.4014429 0.16019131
v -1.5497655 -1.4014428 0.5711445
v -1.734858 -0.7654027 0.3068048
v -0.14667344 -1.4014434 2.5749676
v -1.9496849 -0.027186228 5.8135987E-07
v -0.14667325 1.249334 2.574968
v -1.9496846 1.2493348 8.2359315E-07
v 0.31440958 1.2493346 5.8135987E-07
v 2.0247166 1.2493342 1.0545443
v 0.88217133 1.2493345 5.8135987E-07
v 1.2863166 1.2493345 6.298065E-07
v -0.16698515 -1.4014428 0.46495348
v -0.4729984 -0.55840623 1.4533997E-07
v -0.6143334 -1.4014428 1.9378662E-07
v -0.21547379 -0.88458097 0.33805797
v -0.28378317 -1.4014428 4.8446655E-08
v -0.21547379 -0.88458097 0.33805797
v -0.14292908 -1.4014428 0.4613744
v -0.43111506 -0.5584066 1.9378662E-07
v -1.2333906 -0.98455036 3.391266E-07
v -1.5497655 -1.4014428 0.5711445
v -0.92127067 -1.4014428 2.4223328E-07
v -1.734858 -0.7654027 0.3068048
v -1.5524374 -0.5584064 3.8757324E-07
v -1.852146 -0.15762006 4.8446657E-07
v -1.9496849 -0.027186228 5.8135987E-07
v 0.88217133 1.2493345 5.8135987E-07
v 1.2863165 0.58196497 5.329132E-07
v 1.2863166 1.2493345 6.298065E-07
v 0.31440958 1.2493346 5.8135987E-07
v 0.7748141 -1.4014428 0
v 1.2863165 -0.15810154 3.391266E-07
v 1.2863164 -0.7078846 2.4223328E-07
v -0.43111506 -0.5584066 1.9378662E-07
v 0.25715983 -1.4014428 -9.689331E-08
v -0.28378317 -1.4014428 4.8446655E-08
v -0.4729984 -0.55840623 1.4533997E-07
v -1.2333906 -0.98455036 3.391266E-07
v -0.92127067 -1.4014428 2.4223328E-07
v -0.6143334 -1.4014428 1.9378662E-07
v -1.852146 -0.15762006 4.8446657E-07
v -1.9496849 -0.027186228 5.8135987E-07
v -1.9496846 1.2493348 8.2359315E-07
v 1.5915246 -1.4403601 9.689331E-08
v 1.3258759 -1.2174548 2.9067994E-07
v 1.4429154 -1.4825921 9.689331E-08
v 1.4902697 -1.021538 2.9067994E-07
v 1.7559184 -1.2444434 9.689331E-08
v 1.2246213 -0.7986326 4.8446657E-07
v -1.8977091 -0.14110039 7.266998E-07
v -1.5605251 -0.60966307 4.8446657E-07
v -1.7608826 -0.2863834 6.298065E-07
v -1.2289028 -1.3400248 2.9067994E-07
v -1.308889 -1.0156807 3.391266E-07
v -2.0186374 -0.95358557 4.360199E-07
v -1.9852968 -0.57250035 5.329132E-07
v -1.9587506 -0.26907232 6.782532E-07
v -2.0553749 -1.3734995 3.391266E-07
v -1.5434943 -1.4182833 2.9067994E-07
v 1.3341417 -0.5584074 1.5380894
v 2.0247166 1.2493342 1.0545443
v 2.0247164 -1.4014431 1.0545437
v -0.14667344 -1.4014434 2.5749676
v 1.3341419 0.40629843 1.5380896
v 0.54390085 -0.5584076 2.0914223
v 0.54390097 0.40629852 2.0914223
v -0.14667325 1.249334 2.574968
v -1.9151337 -0.3617634 0.0735928
v -1.9852968 -0.57250035 5.329132E-07
v -1.9587506 -0.26907232 6.782532E-07
v -1.8977091 -0.14110039 7.266998E-07
v -1.8998137 -0.62918967 0.12867528
v -1.8055247 -0.599338 0.18003187
v -2.0186374 -0.95358557 4.360199E-07
v -1.8805379 -0.96566796 0.19798063
v -2.0553749 -1.3734995 3.391266E-07
v -1.8511319 -0.36203024 0.07580058
v -1.7832217 -0.37330416 0.0735928
v -1.7608826 -0.2863834 6.298065E-07
v -1.5605251 -0.60966307 4.8446657E-07
v -1.6691676 -0.6493687 0.12867528
v -1.308889 -1.0156807 3.391266E-07
v -1.5256635 -0.9967154 0.19798057
v -1.2289028 -1.3400248 2.9067994E-07
v -1.4949179 -1.2702073 0.21977068
v -1.7227696 -0.979471 0.29697073
v -1.6525939 -1.2206817 0.28006157
v -1.8561763 -1.3909273 0.28557244
v -1.5813222 -1.4149741 0.19038172
v -1.4949179 -1.2702073 0.21977068
v -1.5434943 -1.4182833 2.9067994E-07
v -1.2289028 -1.3400248 2.9067994E-07
v 1.7559184 -1.2444434 9.689331E-08
v 1.6703558 -1.3464129 0.053397126
v 1.7919681 -1.201481 0.08009566
v 1.5915246 -1.4403601 9.689331E-08
v 1.7279584 -1.14057 0.12014351
v 1.4429154 -1.4825921 9.689331E-08
v 1.584552 -1.2796285 0.082144134
v 1.4932566 -1.1978095 0.06361315
v 1.3258759 -1.2174548 2.9067994E-07
v 1.2246213 -0.7986326 4.8446657E-07
v 1.5263194 -0.97857565 0.08009586
v 1.6028526 -1.0671983 0.05339725
v 1.7919681 -1.201481 0.08009566
v 1.4902697 -1.021538 2.9067994E-07
v 1.7559184 -1.2444434 9.689331E-08
vt 0.3652997 0.7395874
vt 0.38063556 0.7231513
vt 0.3537518 0.7231513
vt 0.5793091 0.8033995
vt 0.58590615 0.78750014
vt 0.5786952 0.80307186
vt 0.33287328 0.7434951
vt 0.331981 0.74383193
vt 0.3459253 0.7547016
vt 0.33714554 0.86748636
vt 0.3321276 0.87297404
vt 0.33455813 0.87031424
vt 0.48294324 0.77701867
vt 0.45542467 0.74950004
vt 0.45542467 0.77701867
vt 0.48294324 0.74950004
vt 0.5105617 0.7215085
vt 0.59014153 0.74752206
vt 0.58705306 0.721194
vt 0.5647559 0.7586244
vt 0.58467376 0.7554102
vt 0.5644194 0.75930625
vt 0.5105615 0.8045083
vt 0.5691494 0.7778071
vt 0.5787854 0.76390517
vt 0.55992806 0.7911106
vt 0.54470146 0.80428505
vt 0.36824378 0.75364995
vt 0.35004485 0.7303903
vt 0.34432232 0.73591775
vt 0.37185284 0.7466384
vt 0.34432232 0.73591775
vt 0.33407584 0.70714295
vt 0.3267525 0.71059656
vt 0.35004485 0.7303903
vt 0.42656755 0.76240265
vt 0.39822894 0.75515395
vt 0.3970716 0.76291883
vt 0.42518538 0.7547819
vt 0.36824378 0.75364995
vt 0.39822894 0.75515395
vt 0.37185284 0.7466384
vt 0.3970716 0.76291883
vt 0.42786887 0.84468067
vt 0.44868794 0.84468067
vt 0.42786887 0.8045329
vt 0.47177488 0.84468067
vt 0.5105615 0.8045083
vt 0.4889257 0.84468067
vt 0.5105615 0.83858013
vt 0.5105617 0.64514816
vt 0.49071994 0.63547426
vt 0.5105617 0.7215085
vt 0.46769077 0.6237903
vt 0.42786896 0.7218524
vt 0.42786896 0.6237903
vt 0.3700124 0.664302
vt 0.34517622 0.7218524
vt 0.3555038 0.674461
vt 0.34517622 0.68169236
vt 0.5786952 0.80307186
vt 0.58315194 0.77133673
vt 0.5645212 0.79106545
vt 0.58590615 0.78750014
vt 0.35787305 0.7478801
vt 0.3459253 0.7547016
vt 0.3608738 0.76146746
vt 0.33287328 0.7434951
vt 0.5324308 0.70451295
vt 0.5161278 0.7193301
vt 0.54087615 0.71913743
vt 0.5147004 0.69693184
vt 0.5237982 0.6895639
vt 0.51568437 0.67550933
vt 0.51304364 0.6709354
vt 0.35430217 0.88231075
vt 0.3575797 0.877882
vt 0.3575797 0.88231075
vt 0.34969777 0.88231075
vt 0.35343152 0.8647196
vt 0.3575797 0.8729708
vt 0.3575797 0.8693223
vt 0.34365177 0.87031424
vt 0.34923354 0.8647196
vt 0.34484664 0.8647196
vt 0.34331208 0.87031424
vt 0.33714554 0.86748636
vt 0.33967674 0.8647196
vt 0.34216592 0.8647196
vt 0.3321276 0.87297404
vt 0.33133662 0.8738395
vt 0.33133662 0.88231075
vt 0.32928902 0.8768778
vt 0.3299977 0.8793167
vt 0.3303656 0.8772261
vt 0.32819897 0.8798392
vt 0.32749033 0.8774004
vt 0.32890758 0.8822782
vt 0.329116 0.87671053
vt 0.3276818 0.87273324
vt 0.3284439 0.8754126
vt 0.32681242 0.86692333
vt 0.3267246 0.8693683
vt 0.33159894 0.8712307
vt 0.33059904 0.87384784
vt 0.3298028 0.8759316
vt 0.33270073 0.8683468
vt 0.3291853 0.8670037
vt 0.48426256 0.7782461
vt 0.42786887 0.8045329
vt 0.5105615 0.8045083
vt 0.5105617 0.7215085
vt 0.45416796 0.7782461
vt 0.48426256 0.7481515
vt 0.45416802 0.7481515
vt 0.42786896 0.7218524
vt 0.5517365 0.81103134
vt 0.5529976 0.81843865
vt 0.55509657 0.808692
vt 0.555078 0.8040138
vt 0.547488 0.8186128
vt 0.5446648 0.81657076
vt 0.5491102 0.83066714
vt 0.5419379 0.82796174
vt 0.54339606 0.843199
vt 0.54993814 0.80998063
vt 0.54780334 0.80924004
vt 0.54862875 0.80551434
vt 0.5368918 0.8101193
vt 0.53994113 0.81499726
vt 0.5225939 0.81757486
vt 0.53069365 0.8228773
vt 0.51442003 0.8255279
vt 0.5254118 0.8303884
vt 0.53665185 0.82586825
vt 0.5313448 0.8318627
vt 0.53592646 0.83734274
vt 0.5298644 0.83845
vt 0.52591956 0.8351644
vt 0.5277103 0.8440088
vt 0.5169214 0.84278494
vt 0.559524 0.8046745
vt 0.55903304 0.8090196
vt 0.5627195 0.804412
vt 0.555884 0.81166863
vt 0.56533 0.80614746
vt 0.5552845 0.81662273
vt 0.56152564 0.81128585
vt 0.56433207 0.8138797
vt 0.5642402 0.8196001
vt 0.57794356 0.82054734
vt 0.5707239 0.81214845
vt 0.5696759 0.80869186
vt 0.5648624 0.80311036
vt 0.5733377 0.81068337
vt 0.56748974 0.8014365
vn 0.2446931 -0.18046193 -0.95265883
vn 0.2446931 -0.18046194 -0.9526588
vn 0.2446931 -0.18046194 -0.9526588
vn -0.14254192 -0.248588 -0.95806354
vn -0.05764658 -0.5573968 -0.8282425
vn -0.14254192 -0.248588 -0.95806354
vn -5.503842E-06 -0.7196439 -0.6943433
vn -5.5038417E-06 -0.71964383 -0.6943434
vn -0.05764658 -0.5573968 -0.8282425
vn 0.0001452734 0.00010887744 -1
vn 0.0001452734 0.00010887744 -1
vn 0.0001452734 0.00010887744 -1
vn 0.5735766 -3.3292875E-07 0.81915194
vn 0.57357657 -3.329287E-07 0.819152
vn 0.57357657 -4.229044E-07 0.819152
vn 0.5735767 0 0.8191518
vn -0 -1 -2.5571913E-07
vn -0 -1 0
vn -0 -1 0
vn -0 -1 -2.5923737E-07
vn -0 -1 0
vn -0 -1 0
vn -0 -1 0
vn -0 -1 0
vn -0 -1 0
vn -0 -1 -3.1020954E-07
vn -3.1099896E-07 -1 0
vn 0.90264046 0 -0.43039536
vn 0.90264064 0 -0.4303949
vn 0.90264076 0 -0.4303949
vn 0.9026404 0 -0.4303955
vn 0.09474051 0.9862643 0.1353035
vn 0.09474017 0.9862643 0.1353032
vn 0.09474009 0.9862644 0.13530315
vn 0.094740614 0.9862643 0.13530359
vn -0.71316046 0 0.7010008
vn -0.71316046 0 0.70100087
vn -0.71316046 0 0.7010009
vn -0.7131605 0 0.70100087
vn 0.094740264 -0.9862644 0.13530308
vn 0.09473998 -0.9862644 0.13530287
vn 0.09474032 -0.9862643 0.13530312
vn 0.09473993 -0.9862644 0.1353028
vn 0.4786343 0.8115344 -0.3351433
vn 0.81915176 0 -0.5735768
vn 0.57922786 0.7071067 -0.4055799
vn 0.8191518 0 -0.57357675
vn 0.8191518 0 -0.5735767
vn 0.8191518 0 -0.57357675
vn 0.8191518 0 -0.5735767
vn -0.81915206 0 0.5735764
vn -0.819152 0 0.57357645
vn -0.819152 0 0.57357645
vn -0.819152 0 0.57357645
vn -0.57922786 0.70710665 0.40557998
vn -0.6989675 0.52145004 0.48942244
vn -0 1 0
vn 0.57922786 0.7071067 -0.4055799
vn -0 1 0
vn 0.4786343 0.8115344 -0.3351433
vn 0.7237514 -0.112754874 -0.68078655
vn 0.7262402 -0.11058394 -0.6784884
vn 0.715416 -0.119939454 -0.6883274
vn -0.48546356 -0.5535795 -0.67666453
vn -0.93382645 -0.10103233 0.34316263
vn -0.48546356 -0.5535795 -0.67666453
vn -0.954434 -0.06444086 0.29138142
vn -0.8941591 -0.15626639 0.41959542
vn -0.60077906 -0.44969472 -0.6609381
vn -0.6007803 -0.4496254 -0.6609841
vn -0.6006863 -0.44972304 -0.66100323
vn -0.60093606 -0.44964123 -0.66083175
vn -0.6010094 -0.4496774 -0.6607404
vn -0.6011391 -0.449533 -0.66072065
vn -0.601139 -0.44953305 -0.6607207
vn -0 0 -1
vn -0 0 -1
vn -0 0 -1
vn -0 0 -1
vn -0 0 -1
vn -0 0 -1
vn -0 0 -1
vn -2.6867892E-07 0 -1
vn -2.6867892E-07 0 -1
vn -2.6867892E-07 0 -1
vn 1.1567021E-06 -2.6263533E-07 -1
vn -2.7128007E-07 0 -1
vn -0 0 -1
vn -0 0 -1
vn -0 0 -1
vn -2.946141E-07 5.225408E-07 -1
vn -0 0 -1
vn -3.3481234E-07 4.703528E-07 -1
vn -3.9052358E-07 4.0395875E-07 -1
vn -0 6.494235E-07 -1
vn -4.2807943E-07 3.5920147E-07 -1
vn -4.280793E-07 3.5920138E-07 -1
vn -4.2807957E-07 3.592016E-07 -1
vn -0 2.9092317E-07 -1
vn -9.2569144E-07 0 -1
vn -6.7493687E-07 0 -1
vn -0 0 -1
vn -5.590053E-07 0 -1
vn -0 3.0732133E-07 -1
vn 1.6172476E-06 0 -1
vn -2.5781776E-07 5.015492E-07 -1
vn -0 0 -1
vn -0 2.8146926E-07 -1
vn 0.57357645 0 0.819152
vn 0.5735764 -3.486036E-07 0.81915206
vn 0.5735764 0 0.81915206
vn 0.5735765 0 0.819152
vn 0.57357633 -3.773774E-07 0.81915206
vn 0.57357657 0 0.819152
vn 0.57357657 -2.7846272E-07 0.819152
vn 0.57357657 -2.7468045E-07 0.819152
vn -0.4875882 0.23898073 0.83972967
vn -0.81603634 0.07139304 0.57357454
vn -0.67699605 0.23514245 0.69741267
vn -0.0637358 0.40635815 0.9114883
vn -0.67727053 0.11100783 0.7273114
vn -0.041397437 0.29183882 0.95557123
vn -0.8160354 0.07139322 0.57357585
vn -0.68046016 0.11092293 0.72434115
vn -0.7417553 -0.45854726 0.48942164
vn 0.031005027 0.36745107 0.9295259
vn 0.3947295 0.41379732 0.8203416
vn 0.5525097 0.45130253 0.700756
vn 0.63803077 0.39542964 0.66072094
vn 0.54347396 0.37443528 0.75128835
vn 0.66415554 0.25494057 0.7027821
vn 0.5635854 0.25642437 0.78525025
vn 0.64762723 -0.28151414 0.70804566
vn 0.49147534 -0.15131801 0.8576449
vn 0.0006752918 0.19695947 0.9804114
vn 0.24473698 -0.11210078 0.9630873
vn -0.3546618 -0.58851844 0.72654045
vn 0.21624206 -0.8231979 0.5249616
vn 0.49147534 -0.15131801 0.8576449
vn 0.098306015 -0.9944748 0.03681931
vn 0.64762723 -0.28151414 0.70804566
vn 0.9293317 -0.15498865 -0.33514354
vn 0.49828702 -0.6265022 0.59933716
vn 0.9606285 0.09229695 0.26205748
vn 0.27104935 -0.6373981 0.72128767
vn 0.49970713 0.47106624 0.7269039
vn -0.16676323 -0.29551074 0.9406718
vn -0.13093366 -0.21914509 0.966867
vn -0.2915066 -0.0854765 0.95274216
vn -0.34154907 -0.11172315 0.93319994
vn -0.16644205 0.19766909 0.9660352
vn 0.36519572 0.76956445 0.5238346
vn 0.5671168 0.6517372 -0.50360423
vn 0.9606285 0.09229695 0.26205748
vn 0.52653956 0.62750643 -0.57357806
vn 0.9293317 -0.15498865 -0.33514354
g Rubble_One_0
f 3/3/3 2/2/2 1/1/1
f 6/6/6 5/5/5 4/4/4
f 9/9/9 8/8/8 7/7/7
f 12/12/12 11/11/11 10/10/10
f 15/15/15 14/14/14 13/13/13
f 16/16/16 13/13/13 14/14/14
f 19/19/19 18/18/18 17/17/17
f 18/18/18 20/20/20 17/17/17
f 18/18/18 21/21/21 20/20/20
f 20/20/20 22/22/22 17/17/17
f 23/23/23 17/17/17 22/22/22
f 22/22/22 24/24/24 23/23/23
f 22/22/22 25/25/25 24/24/24
f 24/24/24 26/26/26 23/23/23
f 27/27/27 23/23/23 26/26/26
f 30/30/30 29/29/29 28/28/28
f 31/31/31 28/28/28 29/29/29
f 34/34/34 33/33/33 32/32/32
f 35/35/35 32/32/32 33/33/33
f 38/38/38 37/37/37 36/36/36
f 39/39/39 36/36/36 37/37/37
f 42/42/42 41/41/41 40/40/40
f 43/43/43 40/40/40 41/41/41
f 46/46/46 45/45/45 44/44/44
f 45/45/45 46/46/46 47/47/47
f 48/48/48 47/47/47 46/46/46
f 47/47/47 48/48/48 49/49/49
f 49/49/49 48/48/48 50/50/50
f 53/53/53 52/52/52 51/51/51
f 54/54/54 52/52/52 53/53/53
f 53/53/53 55/55/55 54/54/54
f 56/56/56 54/54/54 55/55/55
f 56/56/56 55/55/55 57/57/57
f 58/58/58 57/57/57 55/55/55
f 59/59/59 57/57/57 58/58/58
f 60/60/60 59/59/59 58/58/58
f 63/63/63 62/62/62 61/61/61
f 64/64/64 61/61/61 62/62/62
f 67/67/67 66/66/66 65/65/65
f 68/68/68 65/65/65 66/66/66
f 71/71/71 70/70/70 69/69/69
f 72/72/72 69/69/69 70/70/70
f 69/69/69 72/72/72 73/73/73
f 74/74/74 73/73/73 72/72/72
f 75/75/75 74/74/74 72/72/72
f 78/78/78 77/77/77 76/76/76
f 76/76/76 77/77/77 79/79/79
f 77/77/77 80/80/80 79/79/79
f 81/81/81 80/80/80 77/77/77
f 82/82/82 80/80/80 81/81/81
f 80/80/80 83/83/83 79/79/79
f 84/84/84 83/83/83 80/80/80
f 85/85/85 83/83/83 84/84/84
f 83/83/83 86/86/86 79/79/79
f 86/86/86 87/87/87 79/79/79
f 88/88/88 87/87/87 86/86/86
f 89/89/89 88/88/88 86/86/86
f 87/87/87 90/90/90 79/79/79
f 90/90/90 91/91/91 79/79/79
f 91/91/91 92/92/92 79/79/79
f 95/95/95 94/94/94 93/93/93
f 94/94/94 96/96/96 93/93/93
f 96/96/96 97/97/97 93/93/93
f 98/98/98 96/96/96 94/94/94
f 101/101/101 100/100/100 99/99/99
f 100/100/100 102/102/102 99/99/99
f 103/103/103 102/102/102 100/100/100
f 102/102/102 104/104/104 99/99/99
f 104/104/104 105/105/105 99/99/99
f 99/99/99 105/105/105 106/106/106
f 107/107/107 104/104/104 102/102/102
f 108/108/108 107/107/107 102/102/102
f 111/111/111 110/110/110 109/109/109
f 111/111/111 109/109/109 112/112/112
f 113/113/113 109/109/109 110/110/110
f 114/114/114 112/112/112 109/109/109
f 113/113/113 110/110/110 115/115/115
f 114/114/114 115/115/115 112/112/112
f 116/116/116 115/115/115 110/110/110
f 116/116/116 112/112/112 115/115/115
f 119/119/119 118/118/118 117/117/117
f 119/119/119 117/117/117 120/120/120
f 121/121/121 117/117/117 118/118/118
f 121/121/121 122/122/122 117/117/117
f 118/118/118 123/123/123 121/121/121
f 124/124/124 121/121/121 123/123/123
f 121/121/121 124/124/124 122/122/122
f 123/123/123 125/125/125 124/124/124
f 126/126/126 120/120/120 117/117/117
f 126/126/126 117/117/117 122/122/122
f 126/126/126 127/127/127 120/120/120
f 126/126/126 122/122/122 127/127/127
f 128/128/128 120/120/120 127/127/127
f 128/128/128 127/127/127 129/129/129
f 130/130/130 129/129/129 127/127/127
f 130/130/130 127/127/127 122/122/122
f 129/129/129 130/130/130 131/131/131
f 132/132/132 131/131/131 130/130/130
f 130/130/130 122/122/122 132/132/132
f 131/131/131 132/132/132 133/133/133
f 134/134/134 133/133/133 132/132/132
f 135/135/135 132/132/132 122/122/122
f 132/132/132 135/135/135 134/134/134
f 135/135/135 122/122/122 124/124/124
f 136/136/136 134/134/134 135/135/135
f 124/124/124 137/137/137 135/135/135
f 136/136/136 135/135/135 137/137/137
f 137/137/137 124/124/124 125/125/125
f 137/137/137 138/138/138 136/136/136
f 137/137/137 125/125/125 138/138/138
f 139/139/139 136/136/136 138/138/138
f 140/140/140 138/138/138 125/125/125
f 139/139/139 138/138/138 141/141/141
f 140/140/140 141/141/141 138/138/138
f 144/144/144 143/143/143 142/142/142
f 145/145/145 142/142/142 143/143/143
f 144/144/144 146/146/146 143/143/143
f 145/145/145 143/143/143 147/147/147
f 148/148/148 147/147/147 143/143/143
f 148/148/148 143/143/143 146/146/146
f 148/148/148 149/149/149 147/147/147
f 148/148/148 146/146/146 149/149/149
f 150/150/150 147/147/147 149/149/149
f 150/150/150 149/149/149 151/151/151
f 152/152/152 149/149/149 146/146/146
f 152/152/152 151/151/151 149/149/149
f 152/152/152 146/146/146 153/153/153
f 152/152/152 153/153/153 151/151/151
f 154/154/154 153/153/153 146/146/146
f 155/155/155 151/151/151 153/153/153
f 154/154/154 156/156/156 153/153/153
f 155/155/155 153/153/153 156/156/156
