g SandstonePillarMesh
v -0.8180009 -0.8180009 0.47652966
v -0.7 -0.7 0.47652966
v 0.7 -0.7 0.47652966
v 0.8180009 -0.8180009 0.47652966
v 0.8180009 0.8180009 0.47652966
v 0.7 0.7 0.47652966
v -0.7 0.7 0.47652966
v -0.8180009 0.8180009 0.47652966
v -1 -1 -0.47652966
v -1 1 -0.47652966
v -1 1 0.2945306
v -1 -1 0.2945306
v -1 1 -0.47652966
v -1 -1 -0.47652966
v 1 -1 -0.47652966
v 1 1 -0.47652966
v 0.8180009 -0.8180009 0.47652966
v 0.7 -0.7 0.47652966
v 0.7 0.7 0.47652966
v 0.8180009 0.8180009 0.47652966
v 0.7 -0.7 0.47652966
v 0.7 -0.7 1.0765297
v 0.7 0.7 1.0765297
v 0.7 0.7 0.47652966
v 1 1 -0.47652966
v 1 -1 -0.47652966
v 1 -1 0.2945306
v 1 1 0.2945306
v -1 1 -0.47652966
v 1 1 -0.47652966
v 1 1 0.2945306
v -1 1 0.2945306
v -0.8180009 0.8180009 0.47652966
v -0.7 0.7 0.47652966
v -0.7 -0.7 0.47652966
v -0.8180009 -0.8180009 0.47652966
v -0.7 -0.7 1.0765297
v -0.42000002 -0.42000002 1.0765297
v 0.42000002 -0.42000002 1.0765297
v 0.7 -0.7 1.0765297
v -0.7 0.7 0.47652966
v -0.7 0.7 1.0765297
v -0.7 -0.7 1.0765297
v -0.7 -0.7 0.47652966
v -0.7 -0.7 0.47652966
v -0.7 -0.7 1.0765297
v 0.7 -0.7 1.0765297
v 0.7 -0.7 0.47652966
v 0.7 0.7 0.47652966
v 0.7 0.7 1.0765297
v -0.7 0.7 1.0765297
v -0.7 0.7 0.47652966
v 0.42000002 -0.42000002 1.0765297
v 0.42000002 -0.42000002 6.97653
v 0.42000002 0.42000002 6.97653
v 0.42000002 0.42000002 1.0765297
v 0.7 0.7 1.0765297
v 0.42000002 0.42000002 1.0765297
v -0.42000002 0.42000002 1.0765297
v -0.7 0.7 1.0765297
v 0.7 -0.7 1.0765297
v 0.42000002 -0.42000002 1.0765297
v 0.42000002 0.42000002 1.0765297
v 0.7 0.7 1.0765297
v -0.7 0.7 1.0765297
v -0.42000002 0.42000002 1.0765297
v -0.42000002 -0.42000002 1.0765297
v -0.7 -0.7 1.0765297
v 0.42000002 -0.42000002 6.97653
v 0.966 0.966 6.97653
v 0.42000002 0.42000002 6.97653
v 0.966 -0.966 6.97653
v -0.42000002 -0.42000002 6.97653
v -0.966 -0.966 6.97653
v -0.42000002 0.42000002 6.97653
v -0.966 0.966 6.97653
v 0.42000002 0.42000002 6.97653
v 0.966 0.966 6.97653
v -0.42000002 0.42000002 1.0765297
v -0.42000002 0.42000002 6.97653
v -0.42000002 -0.42000002 6.97653
v -0.42000002 -0.42000002 1.0765297
v -0.42000002 -0.42000002 1.0765297
v -0.42000002 -0.42000002 6.97653
v 0.42000002 -0.42000002 6.97653
v 0.42000002 -0.42000002 1.0765297
v 0.42000002 0.42000002 1.0765297
v 0.42000002 0.42000002 6.97653
v -0.42000002 0.42000002 6.97653
v -0.42000002 0.42000002 1.0765297
v -0.966 -0.966 8.376531
v -0.67620003 -0.966 8.166531
v -0.67620003 -0.966 7.18653
v -0.966 -0.966 6.97653
v 0.966 0.966 8.376531
v 0.966 -0.966 8.376531
v -0.966 -0.966 8.376531
v -0.966 0.966 8.376531
v 0.966 0.966 8.376531
v 0.67620003 0.966 8.166531
v 0.67620003 0.966 7.18653
v 0.966 0.966 6.97653
v -0.966 -0.966 6.97653
v -0.966 -0.67620003 7.18653
v -0.966 -0.67620003 8.166531
v -0.966 -0.966 8.376531
v -0.966 0.67620003 8.166531
v -0.966 0.966 8.376531
v -0.8180009 -0.8180009 0.47652966
v -1 -1 0.2945306
v -1 1 0.2945306
v -0.8180009 0.8180009 0.47652966
v -0.8180009 0.8180009 0.47652966
v -1 1 0.2945306
v 1 1 0.2945306
v 0.8180009 0.8180009 0.47652966
v 0.8180009 0.8180009 0.47652966
v 1 1 0.2945306
v 1 -1 0.2945306
v 0.8180009 -0.8180009 0.47652966
v 0.8180009 -0.8180009 0.47652966
v 1 -1 0.2945306
v -1 -1 0.2945306
v -0.8180009 -0.8180009 0.47652966
v 1 -1 -0.47652966
v -1 -1 -0.47652966
v -1 -1 0.2945306
v 1 -1 0.2945306
v 0.67620003 0.966 7.18653
v 0.40572003 1.7332253 7.38253
v -0.40572003 1.7332253 7.38253
v -0.67620003 0.966 7.18653
v 0.966 -0.966 8.376531
v 0.67620003 -0.966 8.166531
v -0.67620003 -0.966 8.166531
v -0.966 -0.966 8.376531
v -0.966 -0.966 6.97653
v -0.67620003 -0.966 7.18653
v 0.67620003 -0.966 7.18653
v 0.966 -0.966 6.97653
v 0.966 -0.966 6.97653
v 0.67620003 -0.966 7.18653
v 0.67620003 -0.966 8.166531
v 0.966 -0.966 8.376531
v 0.67620003 -0.966 8.166531
v 0.40572003 -1.7332253 7.9705305
v -0.40572003 -1.7332253 7.9705305
v -0.67620003 -0.966 8.166531
v 0.966 -0.966 8.376531
v 0.966 -0.67620003 8.166531
v 0.966 -0.67620003 7.18653
v 0.966 -0.966 6.97653
v 0.966 0.67620003 7.18653
v 0.966 0.966 6.97653
v 0.966 0.67620003 8.166531
v 0.966 0.966 8.376531
v 0.966 -0.67620003 8.166531
v 0.966 -0.966 8.376531
v 0.966 -0.67620003 7.18653
v 1.7332253 -0.40572003 7.38253
v 1.7332253 0.40572003 7.38253
v 0.966 0.67620003 7.18653
v -0.966 0.966 8.376531
v -0.67620003 0.966 8.166531
v 0.67620003 0.966 8.166531
v 0.966 0.966 8.376531
v -0.966 0.966 6.97653
v -0.67620003 0.966 7.18653
v -0.67620003 0.966 8.166531
v -0.966 0.966 8.376531
v 0.966 0.966 6.97653
v 0.67620003 0.966 7.18653
v -0.67620003 0.966 7.18653
v -0.966 0.966 6.97653
v -0.67620003 -0.966 7.18653
v -0.40572003 -1.7332253 7.38253
v 0.40572003 -1.7332253 7.38253
v 0.67620003 -0.966 7.18653
v -0.966 0.966 6.97653
v -0.966 -0.67620003 7.18653
v -0.966 -0.966 6.97653
v -0.966 0.67620003 7.18653
v -0.966 0.966 8.376531
v -0.966 0.67620003 8.166531
v -0.40572003 -1.7332253 7.38253
v -0.40572003 -1.7332253 7.9705305
v 0.40572003 -1.7332253 7.9705305
v 0.40572003 -1.7332253 7.38253
v 1.7332253 -0.40572003 7.38253
v 1.7332253 -0.40572003 7.9705305
v 1.7332253 0.40572003 7.9705305
v 1.7332253 0.40572003 7.38253
v 0.40572003 1.7332253 7.38253
v 0.40572003 1.7332253 7.9705305
v -0.40572003 1.7332253 7.9705305
v -0.40572003 1.7332253 7.38253
v -1.7332253 0.40572003 7.38253
v -1.7332253 0.40572003 7.9705305
v -1.7332253 -0.40572003 7.9705305
v -1.7332253 -0.40572003 7.38253
v 0.966 0.67620003 8.166531
v 1.7332253 0.40572003 7.9705305
v 1.7332253 -0.40572003 7.9705305
v 0.966 -0.67620003 8.166531
v -0.966 0.67620003 7.18653
v -1.7332253 0.40572003 7.38253
v -1.7332253 -0.40572003 7.38253
v -0.966 -0.67620003 7.18653
v 0.67620003 -0.966 7.18653
v 0.40572003 -1.7332253 7.38253
v 0.40572003 -1.7332253 7.9705305
v 0.67620003 -0.966 8.166531
v -0.67620003 0.966 8.166531
v -0.40572003 1.7332253 7.9705305
v 0.40572003 1.7332253 7.9705305
v 0.67620003 0.966 8.166531
v 0.966 -0.67620003 8.166531
v 1.7332253 -0.40572003 7.9705305
v 1.7332253 -0.40572003 7.38253
v 0.966 -0.67620003 7.18653
v -0.966 -0.67620003 8.166531
v -1.7332253 -0.40572003 7.9705305
v -1.7332253 0.40572003 7.9705305
v -0.966 0.67620003 8.166531
v -0.67620003 -0.966 8.166531
v -0.40572003 -1.7332253 7.9705305
v -0.40572003 -1.7332253 7.38253
v -0.67620003 -0.966 7.18653
v -0.67620003 0.966 7.18653
v -0.40572003 1.7332253 7.38253
v -0.40572003 1.7332253 7.9705305
v -0.67620003 0.966 8.166531
v 0.966 0.67620003 7.18653
v 1.7332253 0.40572003 7.38253
v 1.7332253 0.40572003 7.9705305
v 0.966 0.67620003 8.166531
v -0.966 -0.67620003 7.18653
v -1.7332253 -0.40572003 7.38253
v -1.7332253 -0.40572003 7.9705305
v -0.966 -0.67620003 8.166531
v 0.67620003 0.966 8.166531
v 0.40572003 1.7332253 7.9705305
v 0.40572003 1.7332253 7.38253
v 0.67620003 0.966 7.18653
v -0.966 0.67620003 8.166531
v -1.7332253 0.40572003 7.9705305
v -1.7332253 0.40572003 7.38253
v -0.966 0.67620003 7.18653
vt 0.5890459 0.83143467
vt 0.5890459 0.87869203
vt 1.4624534 0.87869203
vt 1.4624534 0.83143467
vt -1.157769 0.831435
vt -1.157769 0.8786923
vt -0.28436214 0.8786923
vt -0.28436214 0.831435
vt 0.5890459 0.52381426
vt -0.28436214 0.52381426
vt -0.28436214 0.7421663
vt 0.5890459 0.7421663
vt 7.0730486E-05 7.076029E-05
vt 7.070069E-05 0.50000006
vt 0.9999293 0.50000006
vt 0.9999293 7.070069E-05
vt 1.4624534 0.83143467
vt 1.4624534 0.87869203
vt 2.3358607 0.87869203
vt 2.3358607 0.83143467
vt 0.86865735 0.77028155
vt 0.86865735 0.85805964
vt 1.2254717 0.85805964
vt 1.2254717 0.77028155
vt 2.3358607 0.52381426
vt 1.4624534 0.52381426
vt 1.4624534 0.7421659
vt 2.3358607 0.7421659
vt -0.28436214 0.52381426
vt -1.157769 0.52381426
vt -1.157769 0.7421663
vt -0.28436214 0.7421663
vt -0.28436214 0.831435
vt -0.28436214 0.8786923
vt 0.5890459 0.87869203
vt 0.5890459 0.83143467
vt 0.5118428 0.85805964
vt 0.5118428 0.9022982
vt 0.86865735 0.9022982
vt 0.86865735 0.85805964
vt 0.15502831 0.77028155
vt 0.15502831 0.85805964
vt 0.5118428 0.85805964
vt 0.5118428 0.77028155
vt 0.5118428 0.77028155
vt 0.5118428 0.85805964
vt 0.86865735 0.85805964
vt 0.86865735 0.77028155
vt -0.20178622 0.77028155
vt -0.20178622 0.85805964
vt 0.15502831 0.85805964
vt 0.15502831 0.77028155
vt 0.6618109 0.43720493
vt 0.6618109 0.9891885
vt 0.8618109 0.9891885
vt 0.8618109 0.43720493
vt -0.20178622 0.85805964
vt -0.20178622 0.9022982
vt 0.15502831 0.9022982
vt 0.15502831 0.85805964
vt 0.86865735 0.85805964
vt 0.86865735 0.9022982
vt 1.2254717 0.9022982
vt 1.2254717 0.85805964
vt 0.15502831 0.85805964
vt 0.15502831 0.9022982
vt 0.5118428 0.9022982
vt 0.5118428 0.85805964
vt 0.67542124 0.5864139
vt 0.85033894 0.76133156
vt 0.85033894 0.5864139
vt 0.67542124 0.76133156
vt 0.50050366 0.5864139
vt 0.50050366 0.76133156
vt 0.32558593 0.5864139
vt 0.32558593 0.76133156
vt 0.15066835 0.5864139
vt 0.15066835 0.76133156
vt 0.2618109 0.43720493
vt 0.2618109 0.9891885
vt 0.4618109 0.9891885
vt 0.4618109 0.43720493
vt 0.4618109 0.43720493
vt 0.4618109 0.9891885
vt 0.6618109 0.9891885
vt 0.6618109 0.43720493
vt 0.06181085 0.43720493
vt 0.06181085 0.9891885
vt 0.2618109 0.9891885
vt 0.2618109 0.43720493
vt 0.38782358 0.76133156
vt 0.38782358 0.842404
vt 0.50050366 0.842404
vt 0.50050366 0.76133156
vt 0 0
vt 0 1
vt 1 1
vt 1 0
vt 0.037988394 0.76133156
vt 0.037988394 0.842404
vt 0.15066835 0.842404
vt 0.15066835 0.76133156
vt 0.50050366 0.76133156
vt 0.50050366 0.68025905
vt 0.38782358 0.68025905
vt 0.38782358 0.76133156
vt 0.212906 0.68025905
vt 0.212906 0.76133156
vt 0.5890459 0.83143467
vt 0.5890459 0.7421663
vt -0.28436214 0.7421663
vt -0.28436214 0.831435
vt -0.28436214 0.831435
vt -0.28436214 0.7421663
vt -1.157769 0.7421663
vt -1.157769 0.831435
vt 2.3358607 0.83143467
vt 2.3358607 0.7421659
vt 1.4624534 0.7421659
vt 1.4624534 0.83143467
vt 1.4624534 0.83143467
vt 1.4624534 0.7421659
vt 0.5890459 0.7421663
vt 0.5890459 0.83143467
vt 1.4624534 0.52381426
vt 0.5890459 0.52381426
vt 0.5890459 0.7421663
vt 1.4624534 0.7421659
vt 0.7292971 0.5099786
vt 0.46931326 0.42223078
vt 0.33012408 0.40272474
vt 0.119265616 0.5099786
vt 0.5627413 0.76133156
vt 0.5627413 0.68025905
vt 0.38782358 0.68025905
vt 0.38782358 0.76133156
vt 0.50050366 0.76133156
vt 0.50050366 0.842404
vt 0.67542124 0.842404
vt 0.67542124 0.76133156
vt 0.67542124 0.76133156
vt 0.67542124 0.68025905
vt 0.5627413 0.68025905
vt 0.5627413 0.76133156
vt 0.63628536 0.4998409
vt 0.3763015 0.41209292
vt 0.23711236 0.39258698
vt 0.026253946 0.4998409
vt 0.5627413 0.76133156
vt 0.5627413 0.842404
vt 0.67542124 0.842404
vt 0.67542124 0.76133156
vt 0.85033894 0.842404
vt 0.85033894 0.76133156
vt 0.96301883 0.842404
vt 0.96301883 0.76133156
vt 1.1379365 0.842404
vt 1.1379365 0.76133156
vt 0.121074714 0.032713532
vt 0.38105825 0.12046157
vt 0.5202474 0.13996772
vt 0.73110616 0.032713965
vt 0.212906 0.76133156
vt 0.212906 0.68025905
vt 0.037988394 0.68025905
vt 0.037988394 0.76133156
vt 0.32558593 0.76133156
vt 0.32558593 0.68025905
vt 0.212906 0.68025905
vt 0.212906 0.76133156
vt 0.15066835 0.76133156
vt 0.15066835 0.842404
vt 0.32558593 0.842404
vt 0.32558593 0.76133156
vt 0.00015941325 0.2501598
vt 0.26014313 0.3379076
vt 0.3993323 0.35741368
vt 0.6101907 0.2501598
vt 0.32558593 0.76133156
vt 0.50050366 0.842404
vt 0.50050366 0.76133156
vt 0.32558593 0.842404
vt 0.212906 0.76133156
vt 0.212906 0.842404
vt 0.14272964 0.74507695
vt 0.14272964 0.8749597
vt 0.7721025 0.8749597
vt 0.7721025 0.74507695
vt 0.14468277 0.745735
vt 0.14468277 0.87561774
vt 0.7740556 0.87561774
vt 0.7740556 0.745735
vt 0.7721025 0.87654495
vt 0.7721025 0.7466622
vt 0.14272964 0.7466622
vt 0.14272964 0.87654495
vt 0.14443815 0.74511206
vt 0.14443806 0.87499475
vt 0.77381116 0.87499475
vt 0.77381086 0.745112
vt 0.75719994 0.28239512
vt 0.4972164 0.19464697
vt 0.3580273 0.17514081
vt 0.14716858 0.28239447
vt 0.9029191 0.34058887
vt 0.6429353 0.25284106
vt 0.5037461 0.23333502
vt 0.2928876 0.34058887
vt 0.6101907 0.2501598
vt 0.3993323 0.35741368
vt 0.3763015 0.41209292
vt 0.63628536 0.4998409
vt 0.09317119 0.26029754
vt 0.35315487 0.34804547
vt 0.49234405 0.3675514
vt 0.70320255 0.26029754
vt 0.14716858 0.28239447
vt 0.3580273 0.17514081
vt 0.38105825 0.12046157
vt 0.121074714 0.032713532
vt 0.26679316 0.09090787
vt 0.5267769 0.1786558
vt 0.6659661 0.19816178
vt 0.8768245 0.09090799
vt 0.026253946 0.4998409
vt 0.23711236 0.39258698
vt 0.26014313 0.3379076
vt 0.00015941325 0.2501598
vt 0.119265616 0.5099786
vt 0.33012408 0.40272474
vt 0.35315487 0.34804547
vt 0.09317119 0.26029754
vt 0.73110616 0.032713965
vt 0.5202474 0.13996772
vt 0.4972164 0.19464697
vt 0.75719994 0.28239512
vt 0.2928876 0.34058887
vt 0.5037461 0.23333502
vt 0.5267769 0.1786558
vt 0.26679316 0.09090787
vt 0.70320255 0.26029754
vt 0.49234405 0.3675514
vt 0.46931326 0.42223078
vt 0.7292971 0.5099786
vt 0.8768245 0.09090799
vt 0.6659661 0.19816178
vt 0.6429353 0.25284106
vt 0.9029191 0.34058887
vn -0 0 1
vn -0 0 1
vn -0 0 1
vn -0 0 1
vn -0 0 1
vn -0 0 1
vn -0 0 1
vn -0 0 1
vn -1 0 0
vn -1 0 0
vn -1 0 0
vn -1 0 0
vn -0 0 -1
vn -0 0 -1
vn -0 0 -1
vn -0 0 -1
vn -0 0 1
vn -0 0 1
vn -0 0 1
vn -0 0 1
vn 1 0 0
vn 1 0 0
vn 1 0 0
vn 1 0 0
vn 1 0 0
vn 1 0 0
vn 1 0 0
vn 1 0 0
vn -0 1 0
vn -0 1 0
vn -0 1 0
vn -0 1 0
vn -0 0 1
vn -0 0 1
vn -0 0 1
vn -0 0 1
vn -0 0 1
vn -0 0 1
vn -0 0 1
vn -0 0 1
vn -1 0 0
vn -1 0 0
vn -1 0 0
vn -1 0 0
vn -0 -1 0
vn -0 -1 0
vn -0 -1 0
vn -0 -1 0
vn -0 1 0
vn -0 1 0
vn -0 1 0
vn -0 1 0
vn 1 0 0
vn 1 0 0
vn 1 0 0
vn 1 0 0
vn -0 0 1
vn -0 0 1
vn -0 0 1
vn -0 0 1
vn -0 0 1
vn -0 0 1
vn -0 0 1
vn -0 0 1
vn -0 0 1
vn -0 0 1
vn -0 0 1
vn -0 0 1
vn -0 0 -1
vn -0 0 -1
vn -0 0 -1
vn -0 0 -1
vn -0 0 -1
vn -0 0 -1
vn -0 0 -1
vn -0 0 -1
vn -0 0 -1
vn -0 0 -1
vn -1 0 0
vn -1 0 0
vn -1 0 0
vn -1 0 0
vn -0 -1 0
vn -0 -1 0
vn -0 -1 0
vn -0 -1 0
vn -0 1 0
vn -0 1 0
vn -0 1 0
vn -0 1 0
vn -0 -1 0
vn -0 -1 0
vn -0 -1 0
vn -0 -1 0
vn -0 0 1
vn -0 0 1
vn -0 0 1
vn -0 0 1
vn -0 1 0
vn -0 1 0
vn -0 1 0
vn -0 1 0
vn -1 0 0
vn -1 0 0
vn -1 0 0
vn -1 0 0
vn -1 0 0
vn -1 0 0
vn -0.7071066 0 0.7071069
vn -0.7071066 0 0.7071069
vn -0.7071066 0 0.7071069
vn -0.7071066 0 0.7071069
vn -0 0.70710665 0.7071069
vn -0 0.70710665 0.7071069
vn -0 0.70710665 0.7071069
vn -0 0.70710665 0.7071069
vn 0.7071066 0 0.7071069
vn 0.7071066 0 0.7071069
vn 0.7071066 0 0.7071069
vn 0.7071066 0 0.7071069
vn -0 -0.70710665 0.7071069
vn -0 -0.70710665 0.7071069
vn -0 -0.70710665 0.7071069
vn -0 -0.70710665 0.7071069
vn -0 -1 0
vn -0 -1 0
vn -0 -1 0
vn -0 -1 0
vn -0 0.24751696 -0.96888363
vn -0 0.24751696 -0.96888363
vn -0 0.24751696 -0.96888363
vn -0 0.24751696 -0.96888363
vn -0 -1 0
vn -0 -1 0
vn -0 -1 0
vn -0 -1 0
vn -0 -1 0
vn -0 -1 0
vn -0 -1 0
vn -0 -1 0
vn -0 -1 0
vn -0 -1 0
vn -0 -1 0
vn -0 -1 0
vn -0 -0.24751696 0.96888363
vn -0 -0.24751696 0.96888363
vn -0 -0.24751696 0.96888363
vn -0 -0.24751696 0.96888363
vn 1 0 0
vn 1 0 0
vn 1 0 0
vn 1 0 0
vn 1 0 0
vn 1 0 0
vn 1 0 0
vn 1 0 0
vn 1 0 0
vn 1 0 0
vn 0.24751718 0 -0.9688835
vn 0.24751718 0 -0.9688835
vn 0.24751718 0 -0.9688835
vn 0.24751718 0 -0.9688835
vn -0 1 0
vn -0 1 0
vn -0 1 0
vn -0 1 0
vn -0 1 0
vn -0 1 0
vn -0 1 0
vn -0 1 0
vn -0 1 0
vn -0 1 0
vn -0 1 0
vn -0 1 0
vn -0 -0.24751696 -0.96888363
vn -0 -0.24751696 -0.96888363
vn -0 -0.24751696 -0.96888363
vn -0 -0.24751696 -0.96888363
vn -1 0 0
vn -1 0 0
vn -1 0 0
vn -1 0 0
vn -1 0 0
vn -1 0 0
vn -0 -1 0
vn -0 -1 0
vn -0 -1 0
vn -0 -1 0
vn 1 0 0
vn 1 0 0
vn 1 0 0
vn 1 0 0
vn -0 1 0
vn -0 1 0
vn -0 1 0
vn -0 1 0
vn -1 0 0
vn -1 0 0
vn -1 0 0
vn -1 0 0
vn 0.24751616 0 0.9688839
vn 0.24751616 0 0.9688839
vn 0.24751616 0 0.9688839
vn 0.24751616 0 0.9688839
vn -0.24751718 0 -0.9688835
vn -0.24751718 0 -0.9688835
vn -0.24751718 0 -0.9688835
vn -0.24751718 0 -0.9688835
vn 0.9431081 -0.33248618 0
vn 0.9431081 -0.33248618 0
vn 0.9431081 -0.33248618 0
vn 0.9431081 -0.33248618 0
vn -0 0.24751696 0.96888363
vn -0 0.24751696 0.96888363
vn -0 0.24751696 0.96888363
vn -0 0.24751696 0.96888363
vn 0.33248654 -0.943108 0
vn 0.33248654 -0.943108 0
vn 0.33248654 -0.943108 0
vn 0.33248654 -0.943108 0
vn -0.24751616 0 0.9688839
vn -0.24751616 0 0.9688839
vn -0.24751616 0 0.9688839
vn -0.24751616 0 0.9688839
vn -0.9431081 -0.33248618 0
vn -0.9431081 -0.33248618 0
vn -0.9431081 -0.33248618 0
vn -0.9431081 -0.33248618 0
vn -0.9431081 0.33248618 0
vn -0.9431081 0.33248618 0
vn -0.9431081 0.33248618 0
vn -0.9431081 0.33248618 0
vn 0.33248654 0.943108 0
vn 0.33248654 0.943108 0
vn 0.33248654 0.943108 0
vn 0.33248654 0.943108 0
vn -0.33248654 -0.943108 0
vn -0.33248654 -0.943108 0
vn -0.33248654 -0.943108 0
vn -0.33248654 -0.943108 0
vn 0.9431081 0.33248618 0
vn 0.9431081 0.33248618 0
vn 0.9431081 0.33248618 0
vn 0.9431081 0.33248618 0
vn -0.33248654 0.943108 0
vn -0.33248654 0.943108 0
vn -0.33248654 0.943108 0
vn -0.33248654 0.943108 0
g SandstonePillarMesh_0
f 3/3/3 2/2/2 1/1/1
f 4/4/4 3/3/3 1/1/1
f 7/7/7 6/6/6 5/5/5
f 8/8/8 7/7/7 5/5/5
f 11/11/11 10/10/10 9/9/9
f 12/12/12 11/11/11 9/9/9
f 15/15/15 14/14/14 13/13/13
f 16/16/16 15/15/15 13/13/13
f 19/19/19 18/18/18 17/17/17
f 20/20/20 19/19/19 17/17/17
f 23/23/23 22/22/22 21/21/21
f 24/24/24 23/23/23 21/21/21
f 27/27/27 26/26/26 25/25/25
f 28/28/28 27/27/27 25/25/25
f 31/31/31 30/30/30 29/29/29
f 32/32/32 31/31/31 29/29/29
f 35/35/35 34/34/34 33/33/33
f 36/36/36 35/35/35 33/33/33
f 39/39/39 38/38/38 37/37/37
f 40/40/40 39/39/39 37/37/37
f 43/43/43 42/42/42 41/41/41
f 44/44/44 43/43/43 41/41/41
f 47/47/47 46/46/46 45/45/45
f 48/48/48 47/47/47 45/45/45
f 51/51/51 50/50/50 49/49/49
f 52/52/52 51/51/51 49/49/49
f 55/55/55 54/54/54 53/53/53
f 56/56/56 55/55/55 53/53/53
f 59/59/59 58/58/58 57/57/57
f 60/60/60 59/59/59 57/57/57
f 63/63/63 62/62/62 61/61/61
f 64/64/64 63/63/63 61/61/61
f 67/67/67 66/66/66 65/65/65
f 68/68/68 67/67/67 65/65/65
f 71/71/71 70/70/70 69/69/69
f 70/70/70 72/72/72 69/69/69
f 69/69/69 72/72/72 73/73/73
f 72/72/72 74/74/74 73/73/73
f 73/73/73 74/74/74 75/75/75
f 74/74/74 76/76/76 75/75/75
f 75/75/75 76/76/76 77/77/77
f 76/76/76 78/78/78 77/77/77
f 81/81/81 80/80/80 79/79/79
f 82/82/82 81/81/81 79/79/79
f 85/85/85 84/84/84 83/83/83
f 86/86/86 85/85/85 83/83/83
f 89/89/89 88/88/88 87/87/87
f 90/90/90 89/89/89 87/87/87
f 93/93/93 92/92/92 91/91/91
f 94/94/94 93/93/93 91/91/91
f 97/97/97 96/96/96 95/95/95
f 98/98/98 97/97/97 95/95/95
f 101/101/101 100/100/100 99/99/99
f 102/102/102 101/101/101 99/99/99
f 105/105/105 104/104/104 103/103/103
f 106/106/106 105/105/105 103/103/103
f 107/107/107 105/105/105 106/106/106
f 108/108/108 107/107/107 106/106/106
f 111/111/111 110/110/110 109/109/109
f 112/112/112 111/111/111 109/109/109
f 115/115/115 114/114/114 113/113/113
f 116/116/116 115/115/115 113/113/113
f 119/119/119 118/118/118 117/117/117
f 120/120/120 119/119/119 117/117/117
f 123/123/123 122/122/122 121/121/121
f 124/124/124 123/123/123 121/121/121
f 127/127/127 126/126/126 125/125/125
f 128/128/128 127/127/127 125/125/125
f 131/131/131 130/130/130 129/129/129
f 132/132/132 131/131/131 129/129/129
f 135/135/135 134/134/134 133/133/133
f 136/136/136 135/135/135 133/133/133
f 139/139/139 138/138/138 137/137/137
f 140/140/140 139/139/139 137/137/137
f 143/143/143 142/142/142 141/141/141
f 144/144/144 143/143/143 141/141/141
f 147/147/147 146/146/146 145/145/145
f 148/148/148 147/147/147 145/145/145
f 151/151/151 150/150/150 149/149/149
f 152/152/152 151/151/151 149/149/149
f 153/153/153 151/151/151 152/152/152
f 154/154/154 153/153/153 152/152/152
f 155/155/155 153/153/153 154/154/154
f 156/156/156 155/155/155 154/154/154
f 157/157/157 155/155/155 156/156/156
f 158/158/158 157/157/157 156/156/156
f 161/161/161 160/160/160 159/159/159
f 162/162/162 161/161/161 159/159/159
f 165/165/165 164/164/164 163/163/163
f 166/166/166 165/165/165 163/163/163
f 169/169/169 168/168/168 167/167/167
f 170/170/170 169/169/169 167/167/167
f 173/173/173 172/172/172 171/171/171
f 174/174/174 173/173/173 171/171/171
f 177/177/177 176/176/176 175/175/175
f 178/178/178 177/177/177 175/175/175
f 181/181/181 180/180/180 179/179/179
f 180/180/180 182/182/182 179/179/179
f 179/179/179 182/182/182 183/183/183
f 182/182/182 184/184/184 183/183/183
f 187/187/187 186/186/186 185/185/185
f 188/188/188 187/187/187 185/185/185
f 191/191/191 190/190/190 189/189/189
f 192/192/192 191/191/191 189/189/189
f 195/195/195 194/194/194 193/193/193
f 196/196/196 195/195/195 193/193/193
f 199/199/199 198/198/198 197/197/197
f 200/200/200 199/199/199 197/197/197
f 203/203/203 202/202/202 201/201/201
f 204/204/204 203/203/203 201/201/201
f 207/207/207 206/206/206 205/205/205
f 208/208/208 207/207/207 205/205/205
f 211/211/211 210/210/210 209/209/209
f 212/212/212 211/211/211 209/209/209
f 215/215/215 214/214/214 213/213/213
f 216/216/216 215/215/215 213/213/213
f 219/219/219 218/218/218 217/217/217
f 220/220/220 219/219/219 217/217/217
f 223/223/223 222/222/222 221/221/221
f 224/224/224 223/223/223 221/221/221
f 227/227/227 226/226/226 225/225/225
f 228/228/228 227/227/227 225/225/225
f 231/231/231 230/230/230 229/229/229
f 232/232/232 231/231/231 229/229/229
f 235/235/235 234/234/234 233/233/233
f 236/236/236 235/235/235 233/233/233
f 239/239/239 238/238/238 237/237/237
f 240/240/240 239/239/239 237/237/237
f 243/243/243 242/242/242 241/241/241
f 244/244/244 243/243/243 241/241/241
f 247/247/247 246/246/246 245/245/245
f 248/248/248 247/247/247 245/245/245
