g SGRockSmall
v -0.21152094 -0.4511677 0.47225136
v -0.41956806 -0.5785159 0.30337328
v -0.45242003 -0.45368907 0.3895436
v -0.23912996 -0.60209954 0.3299041
v 0.06979131 -0.42954856 0.463314
v -0.30267805 -0.7284957 0.13561942
v -0.51551557 -0.6416929 0.13540952
v -0.40195432 -0.88199586 -0.11120128
v -0.6646891 -0.750536 -0.11804347
v -0.44259286 -0.9385097 -0.48978996
v -0.7276545 -0.7982418 -0.4797993
v 0.012774144 -0.92638415 -0.46783525
v -0.003434416 -0.9040595 -0.09104883
v 0.364429 -0.751055 -0.42011756
v 0.0022663323 -0.7393576 0.14054783
v 0.031278193 -0.6000507 0.33782873
v 0.33928624 -0.76409584 -0.114320345
v 0.24634735 -0.63286066 0.07917004
v 0.27458775 -0.3923639 0.3394056
v 0.26851022 -0.55040336 0.28097737
v 0.27282003 -0.19873843 0.3315653
v 0.093994714 -0.20484072 0.4852372
v 0.67373914 -0.61776024 -0.4237973
v 0.64250493 -0.58661044 -0.6426599
v 0.39088383 -0.64251804 -0.6859087
v 0.6009636 -0.5926079 -0.13453324
v 0.84759575 -0.41326496 -0.4671841
v 0.4360393 -0.5126715 0.026986463
v 0.81850564 -0.40896606 -0.12611577
v 0.9215705 -0.113624714 -0.47177225
v 0.8628559 -0.13956134 -0.10289522
v 0.75911534 0.16032602 -0.4076131
v 0.7565791 0.12660857 -0.0876775
v 0.53966004 -0.35823342 0.005118346
v 0.3729901 -0.47580835 0.16958664
v 0.39533368 -0.3519149 0.16876428
v 0.56037784 -0.16557653 -0.0006967165
v 0.39984643 -0.18244255 0.1607273
v 0.53677243 0.02894225 0.03144134
v 0.39438137 -0.018139996 0.16754462
v 0.2827895 -0.0072878613 0.33454219
v 0.2827895 -0.0072878613 0.33454219
v 0.27282003 -0.19873843 0.3315653
v 0.093994714 -0.20484072 0.4852372
v 0.0929835 0.031317256 0.44232133
v 0.24064764 0.139055 0.21931708
v 0.36318952 0.095379904 0.15190254
v 0.39438137 -0.018139996 0.16754462
v 0.42733786 0.17182525 0.052442994
v 0.53677243 0.02894225 0.03144134
v 0.26362208 0.27348578 0.101726405
v 0.5096675 0.26080802 -0.104100816
v 0.25477472 0.3298138 -0.11268797
v 0.7565791 0.12660857 -0.0876775
v 0.56037784 -0.16557653 -0.0006967165
v 0.8628559 -0.13956134 -0.10289522
v 0.53966004 -0.35823342 0.005118346
v 0.81850564 -0.40896606 -0.12611577
v 0.5197824 0.32171264 -0.34184805
v 0.75911534 0.16032602 -0.4076131
v 0.4967375 0.3185976 -0.54211146
v 0.674325 0.20500943 -0.6953572
v 0.27003065 0.38183677 -0.5767163
v 0.25585654 0.4100572 -0.34294662
v -0.06408393 0.45469713 -0.6224356
v -0.043597035 0.49691737 -0.3627452
v -0.3786115 0.45645 -0.635539
v -0.0073959427 0.43438753 -0.1039685
v -0.35472402 0.52625334 -0.40606278
v -0.5676374 0.41943845 -0.60840434
v 0.039941233 0.3650389 0.13835591
v -0.568817 0.4256315 -0.41784477
v -0.6584502 0.25279576 -0.69135445
v -0.7045984 0.20650303 -0.4277042
v -0.2796564 0.46983382 -0.11610746
v 0.065802485 0.21600278 0.3008335
v -0.5107185 0.3761992 -0.13606457
v -0.20184071 0.36000708 0.12588657
v -0.6314883 0.12531751 -0.12061984
v -0.7738451 -0.14560327 -0.42313024
v -0.39554676 0.25766343 0.106188394
v -0.15239733 0.21609981 0.2961117
v -0.15257396 0.015746273 0.4051005
v -0.73070455 -0.18697044 -0.08912678
v -0.8564734 -0.52525955 -0.4493802
v -0.50997907 0.05377513 0.13543852
v -0.3102397 0.17332207 0.2499815
v -0.35747293 0.01131343 0.30971488
v -0.17244045 -0.22194587 0.4718194
v -0.75499016 -0.49940503 -0.09871731
v -0.7276545 -0.7982418 -0.4797993
v -0.6646891 -0.750536 -0.11804347
v -0.59504145 -0.21208705 0.18247716
v -0.41425198 -0.22364168 0.3794404
v -0.5961828 -0.45952737 0.16656005
v -0.51551557 -0.6416929 0.13540952
v -0.45242003 -0.45368907 0.3895436
v -0.41956806 -0.5785159 0.30337328
v -0.21152094 -0.4511677 0.47225136
v 0.06979131 -0.42954856 0.463314
v 0.674325 0.20500943 -0.6953572
v 0.9215705 -0.113624714 -0.47177225
v 0.75911534 0.16032602 -0.4076131
v 0.6962557 -0.0812318 -0.71480376
v 0.84759575 -0.41326496 -0.4671841
v 0.6589849 -0.36753592 -0.6732141
v 0.67373914 -0.61776024 -0.4237973
v 0.64250493 -0.58661044 -0.6426599
v 0.4038979 -0.3744515 -0.81941396
v 0.39088383 -0.64251804 -0.6859087
v 0.41493136 -0.05002094 -0.88658136
v 0.36546817 0.24996899 -0.7889445
v 0.27003065 0.38183677 -0.5767163
v 0.4967375 0.3185976 -0.54211146
v -0.06408393 0.45469713 -0.6224356
v -0.045877807 0.28631458 -0.83264697
v -0.3786115 0.45645 -0.635539
v -0.008871956 -0.039736878 -0.9646194
v -0.43927577 0.29499725 -0.82610154
v -0.5676374 0.41943845 -0.60840434
v -0.6584502 0.25279576 -0.69135445
v 0.01587386 -0.4086399 -0.86238253
v -0.46689337 -0.048738122 -0.941074
v -0.70057774 -0.1025347 -0.73385537
v -0.7045984 0.20650303 -0.4277042
v -0.7738451 -0.14560327 -0.42313024
v -0.40496102 -0.44784662 -0.8642618
v -0.73929286 -0.4977036 -0.7680979
v -0.8564734 -0.52525955 -0.4493802
v 0.022805613 -0.6990149 -0.7010735
v -0.63649446 -0.71491295 -0.69927377
v -0.7276545 -0.7982418 -0.4797993
v -0.37543222 -0.7382478 -0.73295254
v -0.44259286 -0.9385097 -0.48978996
v 0.012774144 -0.92638415 -0.46783525
v 0.364429 -0.751055 -0.42011756
vt 0.053177785 0.5882464
vt 0.13053508 0.5338794
vt 0.07959432 0.5347708
vt 0.12663046 0.57363313
vt 0.051025767 0.6624272
vt 0.21126771 0.5578366
vt 0.19472267 0.51610035
vt 0.3174405 0.5340652
vt 0.2942503 0.48636723
vt 0.44480985 0.5494828
vt 0.41477165 0.495891
vt 0.4346553 0.66331726
vt 0.3146995 0.6292426
vt 0.3846969 0.7706972
vt 0.2112037 0.63238853
vt 0.12318333 0.64099056
vt 0.293504 0.73587614
vt 0.20851211 0.71316516
vt 0.08125494 0.72957563
vt 0.13031226 0.7120615
vt 0.04553945 0.7556789
vt 0 0.69658506
vt 0.3588795 0.8663501
vt 0.41996318 0.8818463
vt 0.44480988 0.8150979
vt 0.26534665 0.82613856
vt 0.33153152 0.9410379
vt 0.20042698 0.7813328
vt 0.22611235 0.90445477
vt 0.27377245 1
vt 0.1658421 0.9495183
vt 0.20051567 0.9902503
vt 0.10900523 0.9570961
vt 0.17649248 0.82984626
vt 0.14956217 0.7579659
vt 0.12536922 0.78018504
vt 0.14029543 0.8612788
vt 0.094455615 0.80465394
vt 0.092188306 0.87852705
vt 0.06002528 0.82463074
vt 0.00690695 0.78348637
vt 0.8530896 0.36372805
vt 0.91522956 0.3513929
vt 0.9304244 0.29955235
vt 0.84624046 0.31060472
vt 0.7857429 0.3579101
vt 0.79666305 0.39129928
vt 0.83800614 0.3949572
vt 0.76023334 0.41329
vt 0.80997473 0.43823048
vt 0.7253853 0.3705777
vt 0.71224743 0.44090232
vt 0.6748952 0.36953965
vt 0.7718183 0.50677043
vt 0.8706054 0.43541998
vt 0.8628763 0.52476704
vt 0.9338702 0.41992527
vt 0.9459377 0.4984157
vt 0.6578183 0.44551447
vt 0.7138928 0.50736344
vt 0.62825257 0.43747792
vt 0.6525034 0.48308355
vt 0.59045935 0.3739458
vt 0.6147181 0.37249592
vt 0.5422392 0.2793454
vt 0.56750256 0.2888869
vt 0.5232666 0.18717928
vt 0.6279787 0.2978874
vt 0.53518367 0.19890076
vt 0.52954704 0.13011828
vt 0.6888713 0.30972403
vt 0.5554058 0.13115169
vt 0.5675421 0.09485682
vt 0.61906916 0.08054774
vt 0.6002564 0.21976763
vt 0.7631866 0.31090507
vt 0.6160874 0.14734228
vt 0.6760376 0.23854798
vt 0.69471526 0.09972203
vt 0.7321622 0.042997792
vt 0.69673336 0.17664452
vt 0.7510344 0.24693564
vt 0.8330507 0.23766527
vt 0.7970652 0.055495158
vt 0.84911144 0
vt 0.7622306 0.13326599
vt 0.75009793 0.19831711
vt 0.80978453 0.17686002
vt 0.9201396 0.22055331
vt 0.8973594 0.03298908
vt 0.9413647 0.02418288
vt 0.98202133 0.047018696
vt 0.8523017 0.09555347
vt 0.8944794 0.14908144
vt 0.9314586 0.08298456
vt 0.9911511 0.09750897
vt 0.96978277 0.12666164
vt 0.99999994 0.1296767
vt 0.993704 0.19785202
vt 0.99999994 0.2813065
vt 0.017372597 0.09962331
vt 0.12486523 0
vt 0.049578667 0.061042417
vt 0.11253504 0.076539464
vt 0.23477899 0.0027723184
vt 0.21782728 0.0680865
vt 0.32360652 0.03861085
vt 0.2972685 0.05820037
vt 0.22964185 0.1469537
vt 0.33425778 0.12898332
vt 0.111301795 0.16631627
vt 0.020255478 0.19507271
vt 0.0005994177 0.22222826
vt 0.0060610375 0.15166633
vt 0 0.3247649
vt 0.03895442 0.31754273
vt 0.024964772 0.41600809
vt 0.1371747 0.2921407
vt 0.0698552 0.4311537
vt 0.056005403 0.4671228
vt 0.11421375 0.48636723
vt 0.27073216 0.25835416
vt 0.18106516 0.42261198
vt 0.2366929 0.47842044
vt 0.1560645 0.4863672
vt 0.28365692 0.48456353
vt 0.31975958 0.37726998
vt 0.37330043 0.46672213
vt 0.4193074 0.48615
vt 0.38366374 0.23216759
vt 0.44517937 0.42106774
vt 0.49992505 0.43351912
vt 0.42828298 0.34576163
vt 0.52326655 0.343195
vt 0.48231867 0.21187481
vt 0.396068 0.1194112
vn -0.14789188 -0.32380927 0.9344922
vn -0.4329979 -0.6559505 0.61825716
vn -0.5679589 -0.25093836 0.7838703
vn -0.117221326 -0.7369055 0.6657548
vn 0.2645879 -0.3193269 0.909958
vn -0.17356981 -0.8087145 0.5620092
vn -0.55034363 -0.6108641 0.56918097
vn -0.22974302 -0.9054933 0.3567912
vn -0.66058314 -0.64100057 0.39083004
vn -0.19134693 -0.94845563 -0.25262284
vn -0.6953165 -0.70317733 -0.14858219
vn 0.2033626 -0.93968844 -0.27500802
vn 0.18137638 -0.92319846 0.33883208
vn 0.39429867 -0.9037101 -0.16684313
vn 0.16678447 -0.81969935 0.54797435
vn 0.19869836 -0.7287576 0.6553101
vn 0.46059415 -0.8103819 0.3621247
vn 0.46982965 -0.7227906 0.5067877
vn 0.66942406 -0.1916499 0.7177337
vn 0.5719766 -0.5923845 0.5673828
vn 0.70840704 0.001296403 0.7058029
vn 0.28223893 0.053162288 0.95787
vn 0.61419773 -0.78036946 -0.1174083
vn 0.53400147 -0.6052168 -0.5903855
vn 0.2930545 -0.6702367 -0.6818371
vn 0.5598659 -0.6846318 0.46672198
vn 0.8781306 -0.40648082 -0.25230908
vn 0.59326196 -0.49439278 0.63530797
vn 0.7500398 -0.39430034 0.5310061
vn 0.96229386 0.08793957 -0.25740474
vn 0.8160207 0.05488611 0.5754109
vn 0.76388913 0.6420385 -0.06526801
vn 0.6666658 0.5070665 0.546297
vn 0.5710426 -0.20652853 0.7945164
vn 0.7589346 -0.4323541 0.48691714
vn 0.78584075 -0.12108088 0.6064599
vn 0.5428973 -0.031475507 0.8392091
vn 0.7653267 -0.013856653 0.6434929
vn 0.53217274 0.21402101 0.8191381
vn 0.7289042 0.17724963 0.6612724
vn 0.67476785 0.27297547 0.6856915
vn 0.67476785 0.27297547 0.6856915
vn 0.70840704 0.001296403 0.7058029
vn 0.28223893 0.053162288 0.95787
vn 0.24564193 0.38731498 0.8886209
vn 0.54111874 0.55592126 0.630985
vn 0.61157656 0.4335207 0.66184133
vn 0.7289042 0.17724963 0.6612724
vn 0.49029452 0.57691944 0.6532803
vn 0.53217274 0.21402101 0.8191381
vn 0.45105192 0.74167347 0.49646017
vn 0.41802743 0.80303377 0.4247232
vn 0.33643654 0.8988087 0.2809862
vn 0.6666658 0.5070665 0.546297
vn 0.5428973 -0.031475507 0.8392091
vn 0.8160207 0.05488611 0.5754109
vn 0.5710426 -0.20652853 0.7945164
vn 0.7500398 -0.39430034 0.5310061
vn 0.41606137 0.90494514 0.0892592
vn 0.76388913 0.6420385 -0.06526801
vn 0.3755603 0.90806377 -0.185404
vn 0.6004222 0.5869799 -0.54309094
vn 0.25293255 0.91976196 -0.30010518
vn 0.28985816 0.9535422 0.08209452
vn 0.12931183 0.90727866 -0.40015477
vn 0.18053423 0.98330796 0.022644999
vn -0.15111509 0.88740677 -0.43551517
vn 0.20060712 0.9458808 0.25508094
vn -0.15863071 0.9872509 0.013104946
vn -0.57208264 0.7602278 -0.30785602
vn 0.21606347 0.8503266 0.47985533
vn -0.6534293 0.75176275 0.08878552
vn -0.7861024 0.41831866 -0.45503017
vn -0.9340698 0.35093647 0.06600916
vn -0.17193195 0.92432886 0.34066916
vn 0.21288812 0.6523583 0.7273977
vn -0.6260302 0.6716166 0.39625418
vn -0.19115767 0.8161002 0.54537994
vn -0.8521974 0.3677154 0.37221622
vn -0.9823622 0.18698455 -0.0011452867
vn -0.55891 0.58847314 0.58422506
vn -0.21272606 0.61391646 0.7601672
vn -0.23621385 0.38067654 0.8940293
vn -0.9182887 0.18524304 0.34990108
vn -0.9881293 -0.14459012 -0.051906098
vn -0.72795063 0.38395503 0.56803745
vn -0.476289 0.51706237 0.71119285
vn -0.52295154 0.38127255 0.7623339
vn -0.20218329 0.13899297 0.9694343
vn -0.9113026 -0.15436354 0.38170615
vn -0.6953165 -0.70317733 -0.14858219
vn -0.66058314 -0.64100057 0.39083004
vn -0.8058906 0.18550685 0.5622522
vn -0.56015694 0.19928525 0.80405825
vn -0.8112253 -0.18569234 0.5544654
vn -0.55034363 -0.6108641 0.56918097
vn -0.5679589 -0.25093836 0.7838703
vn -0.4329979 -0.6559505 0.61825716
vn -0.14789188 -0.32380927 0.9344922
vn 0.2645879 -0.3193269 0.909958
vn 0.6004222 0.5869799 -0.54309094
vn 0.96229386 0.08793957 -0.25740474
vn 0.76388913 0.6420385 -0.06526801
vn 0.6583137 0.053426724 -0.7508454
vn 0.8781306 -0.40648082 -0.25230908
vn 0.5983782 -0.28043666 -0.7505323
vn 0.61419773 -0.78036946 -0.1174083
vn 0.53400147 -0.6052168 -0.5903855
vn 0.28812099 -0.3021777 -0.90866655
vn 0.2930545 -0.6702367 -0.6818371
vn 0.31854784 0.043808084 -0.94689393
vn 0.27455902 0.61820173 -0.73650795
vn 0.25293255 0.91976196 -0.30010518
vn 0.3755603 0.90806377 -0.185404
vn 0.12931183 0.90727866 -0.40015477
vn 0.08207034 0.60134757 -0.7947613
vn -0.15111509 0.88740677 -0.43551517
vn 0.068398975 0.067053355 -0.9954021
vn -0.27476588 0.53593504 -0.7982966
vn -0.57208264 0.7602278 -0.30785602
vn -0.7861024 0.41831866 -0.45503017
vn 0.08585263 -0.3439083 -0.9350703
vn -0.305407 0.08427075 -0.9484856
vn -0.8103875 0.12714481 -0.5719321
vn -0.9340698 0.35093647 0.06600916
vn -0.9823622 0.18698455 -0.0011452867
vn -0.1486311 -0.28831315 -0.94593036
vn -0.7040733 -0.18778302 -0.6848491
vn -0.9881293 -0.14459012 -0.051906098
vn 0.15590124 -0.6377233 -0.7543234
vn -0.45439732 -0.5765318 -0.6790685
vn -0.6953165 -0.70317733 -0.14858219
vn -0.057934184 -0.6155692 -0.78595054
vn -0.19134693 -0.94845563 -0.25262284
vn 0.2033626 -0.93968844 -0.27500802
vn 0.39429867 -0.9037101 -0.16684313
g SGRockSmall_0
f 3/3/3 2/2/2 1/1/1
f 2/2/2 4/4/4 1/1/1
f 1/1/1 4/4/4 5/5/5
f 4/4/4 2/2/2 6/6/6
f 2/2/2 7/7/7 6/6/6
f 6/6/6 7/7/7 8/8/8
f 7/7/7 9/9/9 8/8/8
f 8/8/8 9/9/9 10/10/10
f 9/9/9 11/11/11 10/10/10
f 8/8/8 10/10/10 12/12/12
f 13/13/13 8/8/8 12/12/12
f 6/6/6 8/8/8 13/13/13
f 13/13/13 12/12/12 14/14/14
f 4/4/4 6/6/6 15/15/15
f 15/15/15 6/6/6 13/13/13
f 4/4/4 16/16/16 5/5/5
f 16/16/16 4/4/4 15/15/15
f 15/15/15 13/13/13 17/17/17
f 17/17/17 13/13/13 14/14/14
f 16/16/16 15/15/15 18/18/18
f 18/18/18 15/15/15 17/17/17
f 5/5/5 16/16/16 19/19/19
f 20/20/20 16/16/16 18/18/18
f 16/16/16 20/20/20 19/19/19
f 5/5/5 19/19/19 21/21/21
f 22/22/22 5/5/5 21/21/21
f 17/17/17 14/14/14 23/23/23
f 23/23/23 14/14/14 24/24/24
f 14/14/14 25/25/25 24/24/24
f 26/26/26 17/17/17 23/23/23
f 18/18/18 17/17/17 26/26/26
f 26/26/26 23/23/23 27/27/27
f 28/28/28 18/18/18 26/26/26
f 20/20/20 18/18/18 28/28/28
f 29/29/29 26/26/26 27/27/27
f 28/28/28 26/26/26 29/29/29
f 29/29/29 27/27/27 30/30/30
f 31/31/31 29/29/29 30/30/30
f 31/31/31 30/30/30 32/32/32
f 33/33/33 31/31/31 32/32/32
f 34/34/34 28/28/28 29/29/29
f 35/35/35 20/20/20 28/28/28
f 35/35/35 28/28/28 34/34/34
f 20/20/20 35/35/35 36/36/36
f 36/36/36 35/35/35 34/34/34
f 19/19/19 20/20/20 36/36/36
f 36/36/36 34/34/34 37/37/37
f 19/19/19 36/36/36 38/38/38
f 38/38/38 36/36/36 37/37/37
f 38/38/38 37/37/37 39/39/39
f 21/21/21 19/19/19 38/38/38
f 40/40/40 38/38/38 39/39/39
f 21/21/21 38/38/38 40/40/40
f 41/41/41 21/21/21 40/40/40
f 44/44/44 43/43/43 42/42/42
f 45/45/45 44/44/44 42/42/42
f 45/45/45 42/42/42 46/46/46
f 46/46/46 42/42/42 47/47/47
f 42/42/42 48/48/48 47/47/47
f 47/47/47 48/48/48 49/49/49
f 48/48/48 50/50/50 49/49/49
f 46/46/46 47/47/47 51/51/51
f 47/47/47 49/49/49 51/51/51
f 49/49/49 50/50/50 52/52/52
f 51/51/51 49/49/49 53/53/53
f 49/49/49 52/52/52 53/53/53
f 50/50/50 54/54/54 52/52/52
f 50/50/50 55/55/55 54/54/54
f 55/55/55 56/56/56 54/54/54
f 55/55/55 57/57/57 56/56/56
f 57/57/57 58/58/58 56/56/56
f 52/52/52 54/54/54 59/59/59
f 54/54/54 60/60/60 59/59/59
f 59/59/59 60/60/60 61/61/61
f 60/60/60 62/62/62 61/61/61
f 59/59/59 61/61/61 63/63/63
f 52/52/52 59/59/59 64/64/64
f 64/64/64 59/59/59 63/63/63
f 53/53/53 52/52/52 64/64/64
f 64/64/64 63/63/63 65/65/65
f 66/66/66 64/64/64 65/65/65
f 53/53/53 64/64/64 66/66/66
f 66/66/66 65/65/65 67/67/67
f 68/68/68 53/53/53 66/66/66
f 51/51/51 53/53/53 68/68/68
f 69/69/69 66/66/66 67/67/67
f 68/68/68 66/66/66 69/69/69
f 69/69/69 67/67/67 70/70/70
f 71/71/71 51/51/51 68/68/68
f 46/46/46 51/51/51 71/71/71
f 72/72/72 69/69/69 70/70/70
f 72/72/72 70/70/70 73/73/73
f 74/74/74 72/72/72 73/73/73
f 75/75/75 68/68/68 69/69/69
f 75/75/75 69/69/69 72/72/72
f 71/71/71 68/68/68 75/75/75
f 76/76/76 46/46/46 71/71/71
f 76/76/76 45/45/45 46/46/46
f 77/77/77 72/72/72 74/74/74
f 77/77/77 75/75/75 72/72/72
f 78/78/78 71/71/71 75/75/75
f 76/76/76 71/71/71 78/78/78
f 78/78/78 75/75/75 77/77/77
f 79/79/79 77/77/77 74/74/74
f 79/79/79 74/74/74 80/80/80
f 81/81/81 78/78/78 77/77/77
f 81/81/81 77/77/77 79/79/79
f 82/82/82 76/76/76 78/78/78
f 82/82/82 78/78/78 81/81/81
f 83/83/83 45/45/45 76/76/76
f 82/82/82 83/83/83 76/76/76
f 84/84/84 79/79/79 80/80/80
f 84/84/84 80/80/80 85/85/85
f 86/86/86 81/81/81 79/79/79
f 86/86/86 79/79/79 84/84/84
f 87/87/87 82/82/82 81/81/81
f 87/87/87 81/81/81 86/86/86
f 87/87/87 88/88/88 82/82/82
f 88/88/88 87/87/87 86/86/86
f 88/88/88 83/83/83 82/82/82
f 83/83/83 89/89/89 45/45/45
f 89/89/89 44/44/44 45/45/45
f 90/90/90 84/84/84 85/85/85
f 90/90/90 85/85/85 91/91/91
f 92/92/92 90/90/90 91/91/91
f 93/93/93 86/86/86 84/84/84
f 88/88/88 86/86/86 93/93/93
f 93/93/93 84/84/84 90/90/90
f 88/88/88 94/94/94 83/83/83
f 94/94/94 88/88/88 93/93/93
f 94/94/94 89/89/89 83/83/83
f 95/95/95 90/90/90 92/92/92
f 95/95/95 93/93/93 90/90/90
f 94/94/94 93/93/93 95/95/95
f 96/96/96 95/95/95 92/92/92
f 97/97/97 94/94/94 95/95/95
f 97/97/97 95/95/95 96/96/96
f 94/94/94 97/97/97 89/89/89
f 98/98/98 97/97/97 96/96/96
f 97/97/97 99/99/99 89/89/89
f 89/89/89 99/99/99 44/44/44
f 99/99/99 100/100/100 44/44/44
f 103/103/103 102/102/102 101/101/101
f 102/102/102 104/104/104 101/101/101
f 102/102/102 105/105/105 104/104/104
f 105/105/105 106/106/106 104/104/104
f 105/105/105 107/107/107 106/106/106
f 107/107/107 108/108/108 106/106/106
f 106/106/106 108/108/108 109/109/109
f 108/108/108 110/110/110 109/109/109
f 104/104/104 106/106/106 111/111/111
f 106/106/106 109/109/109 111/111/111
f 101/101/101 104/104/104 112/112/112
f 104/104/104 111/111/111 112/112/112
f 101/101/101 112/112/112 113/113/113
f 114/114/114 101/101/101 113/113/113
f 113/113/113 112/112/112 115/115/115
f 112/112/112 116/116/116 115/115/115
f 112/112/112 111/111/111 116/116/116
f 115/115/115 116/116/116 117/117/117
f 111/111/111 109/109/109 118/118/118
f 111/111/111 118/118/118 116/116/116
f 116/116/116 119/119/119 117/117/117
f 116/116/116 118/118/118 119/119/119
f 117/117/117 119/119/119 120/120/120
f 119/119/119 121/121/121 120/120/120
f 109/109/109 122/122/122 118/118/118
f 109/109/109 110/110/110 122/122/122
f 118/118/118 123/123/123 119/119/119
f 119/119/119 123/123/123 121/121/121
f 118/118/118 122/122/122 123/123/123
f 123/123/123 124/124/124 121/121/121
f 125/125/125 121/121/121 124/124/124
f 126/126/126 125/125/125 124/124/124
f 122/122/122 127/127/127 123/123/123
f 123/123/123 127/127/127 124/124/124
f 126/126/126 124/124/124 128/128/128
f 127/127/127 128/128/128 124/124/124
f 129/129/129 126/126/126 128/128/128
f 110/110/110 130/130/130 122/122/122
f 122/122/122 130/130/130 127/127/127
f 129/129/129 128/128/128 131/131/131
f 132/132/132 129/129/129 131/131/131
f 127/127/127 133/133/133 128/128/128
f 133/133/133 131/131/131 128/128/128
f 132/132/132 131/131/131 133/133/133
f 130/130/130 133/133/133 127/127/127
f 134/134/134 132/132/132 133/133/133
f 134/134/134 133/133/133 130/130/130
f 135/135/135 134/134/134 130/130/130
f 135/135/135 130/130/130 110/110/110
f 136/136/136 135/135/135 110/110/110
