g Ship Round Plate
v -0 0.01 -0.01
v 0.0019509032 0.009807852 -0.01
v 0.0019509059 0.009807853 -0.011740795
v 1.15484E-09 0.010000001 -0.004335438
v 0.0019509032 0.009807852 -0.01
v 0.0038268345 0.009238794 -0.01
v 0.003826836 0.009238794 0.0025946426
v 0.0019509059 0.009807853 -0.011740795
v 0.0038268345 0.009238794 -0.01
v 0.0055557024 0.008314696 -0.01
v 0.0055557024 0.008314695 0.0070277927
v 0.003826836 0.009238794 0.0025946426
v 0.0055557024 0.008314696 -0.01
v 0.0070710676 0.0070710676 -0.01
v 0.007071067 0.007071068 0.003767988
v 0.0055557024 0.008314695 0.0070277927
v 0.0070710676 0.0070710676 -0.01
v 0.008314696 0.005555702 -0.01
v 0.008314696 0.0055557024 0.003767988
v 0.007071067 0.007071068 0.003767988
v 0.008314696 0.005555702 -0.01
v 0.009238794 0.0038268343 -0.01
v 0.009238794 0.0038268357 0.0025689148
v 0.008314696 0.0055557024 0.003767988
v 0.009238794 0.0038268343 -0.01
v 0.009807852 0.0019509034 -0.01
v 0.009807852 0.0019509061 8.997023E-06
v 0.009238794 0.0038268357 0.0025689148
v 0.009807852 0.0019509034 -0.01
v 0.01 7.5497897E-10 -0.01
v 0.009999999 3.514022E-09 -0.0009203303
v 0.009807852 0.0019509061 8.997023E-06
v 0.01 7.5497897E-10 -0.01
v 0.009807853 -0.001950902 -0.01
v 0.009807852 -0.0019508994 -0.0009203303
v 0.009999999 3.514022E-09 -0.0009203303
v 0.009807853 -0.001950902 -0.01
v 0.009238795 -0.0038268326 -0.01
v 0.009238795 -0.0038268326 0.01
v 0.009807852 -0.0019508994 -0.0009203303
v 0.009238795 -0.0038268326 -0.01
v 0.008314696 -0.005555702 -0.01
v 0.008314696 -0.005555702 0.01
v 0.009238795 -0.0038268326 0.01
v 0.008314696 -0.005555702 -0.01
v 0.0070710676 -0.0070710676 -0.01
v 0.0070710676 -0.0070710676 0.01
v 0.008314696 -0.005555702 0.01
v 0.0070710676 -0.0070710676 -0.01
v 0.005555702 -0.008314696 -0.01
v 0.005555702 -0.008314696 0.01
v 0.0070710676 -0.0070710676 0.01
v 0.005555702 -0.008314696 -0.01
v 0.0038268326 -0.009238796 -0.01
v 0.0038268326 -0.009238796 0.01
v 0.005555702 -0.008314696 0.01
v 0.0038268326 -0.009238796 -0.01
v 0.0019509008 -0.009807853 -0.01
v 0.0019509008 -0.009807853 0.01
v 0.0038268326 -0.009238796 0.01
v 0.0019509008 -0.009807853 -0.01
v -3.2584135E-09 -0.01 -0.01
v -3.2584135E-09 -0.01 0.01
v 0.0019509008 -0.009807853 0.01
v -3.2584135E-09 -0.01 -0.01
v -0.0019509072 -0.009807852 -0.01
v -0.0019509072 -0.009807852 0.01
v -3.2584135E-09 -0.01 0.01
v -0.0019509072 -0.009807852 -0.01
v -0.0038268387 -0.009238793 -0.01
v -0.0038268387 -0.009238793 0.01
v -0.0019509072 -0.009807852 0.01
v -0.0038268387 -0.009238793 -0.01
v -0.005555707 -0.008314692 -0.01
v -0.005555707 -0.008314692 0.01
v -0.0038268387 -0.009238793 0.01
v -0.005555707 -0.008314692 -0.01
v -0.0070710722 -0.0070710634 -0.01
v -0.0070710722 -0.0070710634 0.01
v -0.005555707 -0.008314692 0.01
v -0.0070710722 -0.0070710634 -0.01
v -0.0083147 -0.0055556963 -0.01
v -0.0083147 -0.0055556963 0.01
v -0.0070710722 -0.0070710634 0.01
v -0.0083147 -0.0055556963 -0.01
v -0.009238798 -0.0038268268 -0.01
v -0.009238798 -0.0038268268 0.01
v -0.0083147 -0.0055556963 0.01
v -0.009238798 -0.0038268268 -0.01
v -0.009807854 -0.0019508946 -0.01
v -0.009807854 -0.0019508946 0.01
v -0.009238798 -0.0038268268 0.01
v -0.009807854 -0.0019508946 -0.01
v -0.01 9.655992E-09 -0.01
v -0.01 9.655992E-09 0.01
v -0.009807854 -0.0019508946 0.01
v -0.01 9.655992E-09 -0.01
v -0.00980785 0.0019509135 -0.01
v -0.00980785 0.0019509135 0.01
v -0.01 9.655992E-09 0.01
v -0.00980785 0.0019509135 -0.01
v -0.009238791 0.0038268445 -0.01
v -0.009238791 0.0038268445 0.01
v -0.00980785 0.0019509135 0.01
v -0.009238791 0.0038268445 -0.01
v -0.00831469 0.0055557126 -0.01
v -0.00831469 0.0055557126 0.01
v -0.009238791 0.0038268445 0.01
v -0.00831469 0.0055557126 -0.01
v -0.0070710587 0.0070710764 -0.01
v -0.0070710587 0.0070710764 0.01
v -0.00831469 0.0055557126 0.01
v -0.0070710587 0.0070710764 -0.01
v -0.005555691 0.008314704 -0.01
v -0.005555691 0.008314704 0.01
v -0.0070710587 0.0070710764 0.01
v -0.005555691 0.008314704 -0.01
v -0.0038268208 0.009238801 -0.01
v -0.0038268208 0.009238801 0.01
v -0.005555691 0.008314704 0.01
v -0.0038268208 0.009238801 -0.01
v -0.0019508882 0.009807855 -0.01
v -0.0019508882 0.009807855 0.01
v -0.0038268208 0.009238801 0.01
v -0.0019508882 0.009807855 -0.01
v -0 0.01 -0.01
v 1.15484E-09 0.010000001 -0.004335438
v -0.0019508882 0.009807855 0.01
v 0.009807853 -0.001950902 -0.01
v 0.01 7.5497897E-10 -0.01
v 0.009807852 0.0019509034 -0.01
v 0.009238795 -0.0038268326 -0.01
v 0.009238794 0.0038268343 -0.01
v 0.008314696 -0.005555702 -0.01
v 0.008314696 0.005555702 -0.01
v 0.0070710676 -0.0070710676 -0.01
v 0.0070710676 0.0070710676 -0.01
v 0.005555702 -0.008314696 -0.01
v 0.0055557024 0.008314696 -0.01
v 0.0038268345 0.009238794 -0.01
v 0.0038268326 -0.009238796 -0.01
v 0.0019509032 0.009807852 -0.01
v 0.0019509008 -0.009807853 -0.01
v -0 0.01 -0.01
v -3.2584135E-09 -0.01 -0.01
v -0.0019508882 0.009807855 -0.01
v -0.0019509072 -0.009807852 -0.01
v -0.0038268208 0.009238801 -0.01
v -0.0038268387 -0.009238793 -0.01
v -0.005555691 0.008314704 -0.01
v -0.005555707 -0.008314692 -0.01
v -0.0070710587 0.0070710764 -0.01
v -0.0070710722 -0.0070710634 -0.01
v -0.00831469 0.0055557126 -0.01
v -0.0083147 -0.0055556963 -0.01
v -0.009238791 0.0038268445 -0.01
v -0.009238798 -0.0038268268 -0.01
v -0.00980785 0.0019509135 -0.01
v -0.009807854 -0.0019508946 -0.01
v -0.01 9.655992E-09 -0.01
v -0.005555707 -0.008314692 0.01
v -0.0070710722 -0.0070710634 0.01
v -0.0035842704 -0.00919155 0.010081436
v -0.0038268387 -0.009238793 0.01
v -0.0038268387 -0.009238793 0.01
v -0.0035842704 -0.00919155 0.010081436
v -3.2584135E-09 -0.01 0.01
v -0.0019509072 -0.009807852 0.01
v -0.0070710722 -0.0070710634 0.01
v -0.0032361795 -0.0088137025 0.010183046
v -0.0035842704 -0.00919155 0.010081436
v -0.0083147 -0.0055556963 0.01
v -0.0027959424 -0.008119772 0.010300931
v -0.009238798 -0.0038268268 0.01
v -0.0022804749 -0.0071364236 0.010430558
v -0.009807854 -0.0019508946 0.01
v -0.0017095887 -0.0059014484 0.010566943
v -0.01 9.655992E-09 0.01
v -0.0011022855 -0.004441015 0.010698054
v -0.00980785 0.0019509135 0.01
v -0.0035842704 -0.00919155 0.010081436
v 0.0019509008 -0.009807853 0.01
v -3.2584135E-09 -0.01 0.01
v -0.0032361795 -0.0088137025 0.010183046
v 0.0038268326 -0.009238796 0.01
v -0.0027959424 -0.008119772 0.010300931
v 0.005555702 -0.008314696 0.01
v -0.0022804749 -0.0071364236 0.010430558
v 0.0070710676 -0.0070710676 0.01
v -0.0017095887 -0.0059014484 0.010566943
v 0.008314696 -0.005555702 0.01
v -0.0011022855 -0.004441015 0.010698054
v -0.00980785 0.0019509135 0.01
v -0.009238791 0.0038268445 0.01
v -0.00021203156 -0.0013261554 0.009541103
v -0.0011022855 -0.004441015 0.010698054
v -0.0011022855 -0.004441015 0.010698054
v -0.00021203156 -0.0013261554 0.009541103
v 0.009238795 -0.0038268326 0.01
v 0.008314696 -0.005555702 0.01
v -0.009238791 0.0038268445 0.01
v -0.00831469 0.0055557126 0.01
v 0.0006084027 0.0010865219 0.0060421084
v -0.00021203156 -0.0013261554 0.009541103
v -0.00021203156 -0.0013261554 0.009541103
v 0.0006084027 0.0010865219 0.0060421084
v 0.009807852 -0.0019508994 -0.0009203303
v 0.009238795 -0.0038268326 0.01
v -0.00831469 0.0055557126 0.01
v -0.0070710587 0.0070710764 0.01
v 0.0013348574 0.0030355784 0.0051960167
v 0.0006084027 0.0010865219 0.0060421084
v 0.0006084027 0.0010865219 0.0060421084
v 0.0013348574 0.0030355784 0.0051960167
v 0.009999999 3.514022E-09 -0.0009203303
v 0.009807852 -0.0019508994 -0.0009203303
v -0.0070710587 0.0070710764 0.01
v -0.005555691 0.008314704 0.01
v 0.0019461301 0.00460683 0.0054415166
v 0.0013348574 0.0030355784 0.0051960167
v 0.0013348574 0.0030355784 0.0051960167
v 0.0019461301 0.00460683 0.0054415166
v 0.009807852 0.0019509061 8.997023E-06
v 0.009999999 3.514022E-09 -0.0009203303
v -0.005555691 0.008314704 0.01
v -0.0038268208 0.009238801 0.01
v 0.0025784832 0.0061852634 0.0059679407
v 0.0019461301 0.00460683 0.0054415166
v 0.0019461301 0.00460683 0.0054415166
v 0.0025784832 0.0061852634 0.0059679407
v 0.009238794 0.0038268357 0.0025689148
v 0.009807852 0.0019509061 8.997023E-06
v -0.0038268208 0.009238801 0.01
v -0.0019508882 0.009807855 0.01
v 0.0030920298 0.0074400334 0.0054719513
v 0.0025784832 0.0061852634 0.0059679407
v 0.0025784832 0.0061852634 0.0059679407
v 0.0030920298 0.0074400334 0.0054719513
v 0.008314696 0.0055557024 0.003767988
v 0.009238794 0.0038268357 0.0025689148
v -0.0019508882 0.009807855 0.01
v 1.15484E-09 0.010000001 -0.004335438
v 0.0034269386 0.008214346 0.0021486904
v 0.0030920298 0.0074400334 0.0054719513
v 0.0030920298 0.0074400334 0.0054719513
v 0.0034269386 0.008214346 0.0021486904
v 0.007071067 0.007071068 0.003767988
v 0.008314696 0.0055557024 0.003767988
v 1.15484E-09 0.010000001 -0.004335438
v 0.0019509059 0.009807853 -0.011740795
v 0.003826836 0.009238794 0.0025946426
v 0.0034269386 0.008214346 0.0021486904
v 0.0034269386 0.008214346 0.0021486904
v 0.003826836 0.009238794 0.0025946426
v 0.0055557024 0.008314695 0.0070277927
v 0.007071067 0.007071068 0.003767988
vn 0.09801593 0.99518484 -9.0890177E-07
vn 0.09801593 0.99518484 -9.0890177E-07
vn 0.09801593 0.99518484 -9.0890177E-07
vn 0.09801593 0.99518484 -9.0890177E-07
vn 0.29028577 0.95694 -2.4668617E-07
vn 0.29028577 0.95694 -2.4668617E-07
vn 0.29028577 0.95694 -2.4668617E-07
vn 0.29028577 0.95694 -2.4668617E-07
vn 0.47139698 0.8819211 0
vn 0.47139698 0.8819211 0
vn 0.47139698 0.8819211 0
vn 0.47139698 0.8819211 0
vn 0.6343933 0.7730105 0
vn 0.6343933 0.7730105 0
vn 0.6343933 0.7730105 0
vn 0.6343933 0.7730105 0
vn 0.7730102 0.6343935 0
vn 0.7730102 0.6343935 0
vn 0.7730102 0.6343935 0
vn 0.7730102 0.6343935 0
vn 0.8819214 0.47139663 0
vn 0.8819214 0.47139663 0
vn 0.8819214 0.47139663 0
vn 0.8819214 0.47139663 0
vn 0.95694023 0.29028478 0
vn 0.95694023 0.29028478 0
vn 0.95694023 0.29028478 0
vn 0.95694023 0.29028478 0
vn 0.9951847 0.098017424 0
vn 0.9951847 0.098017424 0
vn 0.9951847 0.098017424 0
vn 0.9951847 0.098017424 0
vn 0.9951847 -0.09801721 0
vn 0.9951847 -0.09801721 0
vn 0.9951847 -0.09801721 0
vn 0.9951847 -0.09801721 0
vn 0.9569405 -0.29028425 0
vn 0.9569405 -0.29028425 0
vn 0.9569405 -0.29028425 0
vn 0.9569405 -0.29028425 0
vn 0.8819214 -0.47139645 0
vn 0.8819214 -0.47139645 0
vn 0.8819214 -0.47139645 0
vn 0.8819214 -0.47139645 0
vn 0.77301043 -0.6343934 0
vn 0.77301043 -0.6343934 0
vn 0.77301043 -0.6343934 0
vn 0.77301043 -0.6343934 0
vn 0.6343934 -0.77301043 0
vn 0.6343934 -0.77301043 0
vn 0.6343934 -0.77301043 0
vn 0.6343934 -0.77301043 0
vn 0.4713967 -0.8819213 0
vn 0.4713967 -0.8819213 0
vn 0.4713967 -0.8819213 0
vn 0.4713967 -0.8819213 0
vn 0.29028428 -0.9569405 0
vn 0.29028428 -0.9569405 0
vn 0.29028428 -0.9569405 0
vn 0.29028428 -0.9569405 0
vn 0.09801695 -0.9951847 0
vn 0.09801695 -0.9951847 0
vn 0.09801695 -0.9951847 0
vn 0.09801695 -0.9951847 0
vn -0.09801756 -0.9951847 0
vn -0.09801756 -0.9951847 0
vn -0.09801756 -0.9951847 0
vn -0.09801756 -0.9951847 0
vn -0.29028517 -0.9569401 0
vn -0.29028517 -0.9569401 0
vn -0.29028517 -0.9569401 0
vn -0.29028517 -0.9569401 0
vn -0.47139704 -0.88192105 0
vn -0.47139704 -0.88192105 0
vn -0.47139704 -0.88192105 0
vn -0.47139704 -0.88192105 0
vn -0.6343937 -0.77301013 0
vn -0.6343937 -0.77301013 0
vn -0.6343937 -0.77301013 0
vn -0.6343937 -0.77301013 0
vn -0.77301085 -0.6343927 0
vn -0.77301085 -0.6343927 0
vn -0.77301085 -0.6343927 0
vn -0.77301085 -0.6343927 0
vn -0.8819216 -0.4713961 0
vn -0.8819216 -0.4713961 0
vn -0.8819216 -0.4713961 0
vn -0.8819216 -0.4713961 0
vn -0.95694065 -0.2902837 0
vn -0.95694065 -0.2902837 0
vn -0.95694065 -0.2902837 0
vn -0.95694065 -0.2902837 0
vn -0.99518484 -0.098016344 0
vn -0.99518484 -0.098016344 0
vn -0.99518484 -0.098016344 0
vn -0.99518484 -0.098016344 0
vn -0.9951846 0.09801815 0
vn -0.9951846 0.09801815 0
vn -0.9951846 0.09801815 0
vn -0.9951846 0.09801815 0
vn -0.95694 0.29028577 0
vn -0.95694 0.29028577 0
vn -0.95694 0.29028577 0
vn -0.95694 0.29028577 0
vn -0.88192075 0.47139764 0
vn -0.88192075 0.47139764 0
vn -0.88192075 0.47139764 0
vn -0.88192075 0.47139764 0
vn -0.7730096 0.63439435 0
vn -0.7730096 0.63439435 0
vn -0.7730096 0.63439435 0
vn -0.7730096 0.63439435 0
vn -0.6343924 0.77301115 0
vn -0.6343924 0.77301115 0
vn -0.6343924 0.77301115 0
vn -0.6343924 0.77301115 0
vn -0.4713955 0.88192195 0
vn -0.4713955 0.88192195 0
vn -0.4713955 0.88192195 0
vn -0.4713955 0.88192195 0
vn -0.29028302 0.9569409 0
vn -0.29028302 0.9569409 0
vn -0.29028302 0.9569409 0
vn -0.29028302 0.9569409 0
vn -0.098016955 0.9951847 0
vn -0.098016955 0.9951847 0
vn -0.098016955 0.9951847 0
vn -0.098016955 0.9951847 0
vn -0 0 -1
vn -0 0 -1
vn -0 0 -1
vn -0 0 -1
vn -0 0 -1
vn -0 0 -1
vn -0 0 -1
vn -0 0 -1
vn -0 0 -1
vn -0 0 -1
vn -0 0 -1
vn -0 0 -1
vn -0 0 -1
vn -0 0 -1
vn -0 0 -1
vn -0 0 -1
vn -0 0 -1
vn -0 0 -1
vn -0 0 -1
vn -0 0 -1
vn -0 0 -1
vn -0 0 -1
vn -0 0 -1
vn -0 0 -1
vn -0 0 -1
vn -0 0 -1
vn -0 0 -1
vn -0 0 -1
vn -0 0 -1
vn -0 0 -1
vn -0 0 -1
vn -0 0 -1
vn -0.12060262 -0.18049641 0.9761537
vn -0.12060262 -0.18049641 0.9761537
vn -0.12060262 -0.18049641 0.9761537
vn -0.12060262 -0.18049641 0.9761537
vn -0.05345856 -0.26876175 0.961722
vn -0.05345856 -0.26876175 0.961722
vn -0.05345856 -0.26876175 0.961722
vn -0.05345856 -0.26876175 0.961722
vn -0.09105744 -0.096270025 0.9911815
vn -0.09105744 -0.096270025 0.9911815
vn -0.09105744 -0.096270025 0.9911815
vn -0.09105744 -0.096270025 0.9911815
vn -0.08453909 -0.06526132 0.9942807
vn -0.08453909 -0.06526132 0.9942807
vn -0.0838017 -0.046697024 0.99538773
vn -0.0838017 -0.046697024 0.99538773
vn -0.0855491 -0.032459825 0.995805
vn -0.0855491 -0.032459825 0.995805
vn -0.08706517 -0.017877517 0.99604225
vn -0.08706517 -0.017877517 0.99604225
vn -0.0034977533 -0.16180757 0.9868161
vn -0.0034977533 -0.16180757 0.9868161
vn -0.0034977533 -0.16180757 0.9868161
vn -0.0034977533 -0.16180757 0.9868161
vn 0.018132292 -0.12583327 0.99188566
vn 0.018132292 -0.12583327 0.99188566
vn 0.033315517 -0.106731795 0.9937296
vn 0.033315517 -0.106731795 0.9937296
vn 0.04644404 -0.09381529 0.9945057
vn 0.04644404 -0.09381529 0.9945057
vn 0.059053034 -0.08056906 0.9949981
vn 0.059053034 -0.08056906 0.9949981
vn 0.11254076 0.19304815 0.9747138
vn 0.11254076 0.19304815 0.9747138
vn 0.11254076 0.19304815 0.9747138
vn 0.11254076 0.19304815 0.9747138
vn 0.053198494 0.21309604 0.9755819
vn 0.053198494 0.21309604 0.9755819
vn 0.053198494 0.21309604 0.9755819
vn 0.053198494 0.21309604 0.9755819
vn 0.43851846 0.4650257 0.76905966
vn 0.43851846 0.4650257 0.76905966
vn 0.43851846 0.4650257 0.76905966
vn 0.43851846 0.4650257 0.76905966
vn 0.3656352 0.8819203 0.2975355
vn 0.3656352 0.8819203 0.2975355
vn 0.3656352 0.8819203 0.2975355
vn 0.3656352 0.8819203 0.2975355
vn 0.43909034 -0.030399282 0.8979284
vn 0.43909034 -0.030399282 0.8979284
vn 0.43909034 -0.030399282 0.8979284
vn 0.43909034 -0.030399282 0.8979284
vn 0.59767944 0.03300976 0.8010553
vn 0.59767944 0.03300976 0.8010553
vn 0.59767944 0.03300976 0.8010553
vn 0.59767944 0.03300976 0.8010553
vn 0.3487557 -0.33966687 0.8734964
vn 0.3487557 -0.33966687 0.8734964
vn 0.3487557 -0.33966687 0.8734964
vn 0.3487557 -0.33966687 0.8734964
vn 0.46188545 -0.32961652 0.8234165
vn 0.46188545 -0.32961652 0.8234165
vn 0.46188545 -0.32961652 0.8234165
vn 0.46188545 -0.32961652 0.8234165
vn 0.29646716 -0.45622212 0.83902836
vn 0.29646716 -0.45622212 0.83902836
vn 0.29646716 -0.45622212 0.83902836
vn 0.29646716 -0.45622212 0.83902836
vn 0.21620362 -0.6527083 0.7261046
vn 0.21620362 -0.6527083 0.7261046
vn 0.21620362 -0.6527083 0.7261046
vn 0.21620362 -0.6527083 0.7261046
vn 0.4441297 -0.35858345 0.82107663
vn 0.4441297 -0.35858345 0.82107663
vn 0.4441297 -0.35858345 0.82107663
vn 0.4441297 -0.35858345 0.82107663
vn 0.33624956 -0.17192778 0.92594653
vn 0.33624956 -0.17192778 0.92594653
vn 0.33624956 -0.17192778 0.92594653
vn 0.33624956 -0.17192778 0.92594653
vn 0.4185434 0.9022733 0.10355882
vn 0.4185434 0.9022733 0.10355882
vn 0.4185434 0.9022733 0.10355882
vn 0.4185434 0.9022733 0.10355882
vn 0.2859741 0.82383066 0.48940966
vn 0.2859741 0.82383066 0.48940966
vn 0.2859741 0.82383066 0.48940966
vn 0.2859741 0.82383066 0.48940966
vn -0.010884848 0.99329257 0.11511492
vn -0.010884848 0.99329257 0.11511492
vn -0.010884848 0.99329257 0.11511492
vn -0.010884848 0.99329257 0.11511492
vn -0.60113305 -0.7493521 0.27768776
vn -0.60113305 -0.7493521 0.27768776
vn -0.60113305 -0.7493521 0.27768776
vn -0.60113305 -0.7493521 0.27768776
g Ship Round Plate_0
f 3/3/3 2/2/2 1/1/1
f 4/4/4 3/3/3 1/1/1
f 7/7/7 6/6/6 5/5/5
f 8/8/8 7/7/7 5/5/5
f 11/11/11 10/10/10 9/9/9
f 12/12/12 11/11/11 9/9/9
f 15/15/15 14/14/14 13/13/13
f 16/16/16 15/15/15 13/13/13
f 19/19/19 18/18/18 17/17/17
f 20/20/20 19/19/19 17/17/17
f 23/23/23 22/22/22 21/21/21
f 24/24/24 23/23/23 21/21/21
f 27/27/27 26/26/26 25/25/25
f 28/28/28 27/27/27 25/25/25
f 31/31/31 30/30/30 29/29/29
f 32/32/32 31/31/31 29/29/29
f 35/35/35 34/34/34 33/33/33
f 36/36/36 35/35/35 33/33/33
f 39/39/39 38/38/38 37/37/37
f 40/40/40 39/39/39 37/37/37
f 43/43/43 42/42/42 41/41/41
f 44/44/44 43/43/43 41/41/41
f 47/47/47 46/46/46 45/45/45
f 48/48/48 47/47/47 45/45/45
f 51/51/51 50/50/50 49/49/49
f 52/52/52 51/51/51 49/49/49
f 55/55/55 54/54/54 53/53/53
f 56/56/56 55/55/55 53/53/53
f 59/59/59 58/58/58 57/57/57
f 60/60/60 59/59/59 57/57/57
f 63/63/63 62/62/62 61/61/61
f 64/64/64 63/63/63 61/61/61
f 67/67/67 66/66/66 65/65/65
f 68/68/68 67/67/67 65/65/65
f 71/71/71 70/70/70 69/69/69
f 72/72/72 71/71/71 69/69/69
f 75/75/75 74/74/74 73/73/73
f 76/76/76 75/75/75 73/73/73
f 79/79/79 78/78/78 77/77/77
f 80/80/80 79/79/79 77/77/77
f 83/83/83 82/82/82 81/81/81
f 84/84/84 83/83/83 81/81/81
f 87/87/87 86/86/86 85/85/85
f 88/88/88 87/87/87 85/85/85
f 91/91/91 90/90/90 89/89/89
f 92/92/92 91/91/91 89/89/89
f 95/95/95 94/94/94 93/93/93
f 96/96/96 95/95/95 93/93/93
f 99/99/99 98/98/98 97/97/97
f 100/100/100 99/99/99 97/97/97
f 103/103/103 102/102/102 101/101/101
f 104/104/104 103/103/103 101/101/101
f 107/107/107 106/106/106 105/105/105
f 108/108/108 107/107/107 105/105/105
f 111/111/111 110/110/110 109/109/109
f 112/112/112 111/111/111 109/109/109
f 115/115/115 114/114/114 113/113/113
f 116/116/116 115/115/115 113/113/113
f 119/119/119 118/118/118 117/117/117
f 120/120/120 119/119/119 117/117/117
f 123/123/123 122/122/122 121/121/121
f 124/124/124 123/123/123 121/121/121
f 127/127/127 126/126/126 125/125/125
f 128/128/128 127/127/127 125/125/125
f 131/131/131 130/130/130 129/129/129
f 129/129/129 132/132/132 131/131/131
f 132/132/132 133/133/133 131/131/131
f 132/132/132 134/134/134 133/133/133
f 134/134/134 135/135/135 133/133/133
f 134/134/134 136/136/136 135/135/135
f 136/136/136 137/137/137 135/135/135
f 136/136/136 138/138/138 137/137/137
f 138/138/138 139/139/139 137/137/137
f 138/138/138 140/140/140 139/139/139
f 138/138/138 141/141/141 140/140/140
f 141/141/141 142/142/142 140/140/140
f 141/141/141 143/143/143 142/142/142
f 143/143/143 144/144/144 142/142/142
f 143/143/143 145/145/145 144/144/144
f 145/145/145 146/146/146 144/144/144
f 145/145/145 147/147/147 146/146/146
f 147/147/147 148/148/148 146/146/146
f 147/147/147 149/149/149 148/148/148
f 149/149/149 150/150/150 148/148/148
f 149/149/149 151/151/151 150/150/150
f 151/151/151 152/152/152 150/150/150
f 151/151/151 153/153/153 152/152/152
f 153/153/153 154/154/154 152/152/152
f 153/153/153 155/155/155 154/154/154
f 155/155/155 156/156/156 154/154/154
f 155/155/155 157/157/157 156/156/156
f 157/157/157 158/158/158 156/156/156
f 157/157/157 159/159/159 158/158/158
f 159/159/159 160/160/160 158/158/158
f 163/163/163 162/162/162 161/161/161
f 164/164/164 163/163/163 161/161/161
f 167/167/167 166/166/166 165/165/165
f 168/168/168 167/167/167 165/165/165
f 171/171/171 170/170/170 169/169/169
f 170/170/170 172/172/172 169/169/169
f 170/170/170 173/173/173 172/172/172
f 173/173/173 174/174/174 172/172/172
f 173/173/173 175/175/175 174/174/174
f 175/175/175 176/176/176 174/174/174
f 175/175/175 177/177/177 176/176/176
f 177/177/177 178/178/178 176/176/176
f 177/177/177 179/179/179 178/178/178
f 179/179/179 180/180/180 178/178/178
f 183/183/183 182/182/182 181/181/181
f 182/182/182 184/184/184 181/181/181
f 182/182/182 185/185/185 184/184/184
f 185/185/185 186/186/186 184/184/184
f 185/185/185 187/187/187 186/186/186
f 187/187/187 188/188/188 186/186/186
f 187/187/187 189/189/189 188/188/188
f 189/189/189 190/190/190 188/188/188
f 189/189/189 191/191/191 190/190/190
f 191/191/191 192/192/192 190/190/190
f 195/195/195 194/194/194 193/193/193
f 196/196/196 195/195/195 193/193/193
f 199/199/199 198/198/198 197/197/197
f 200/200/200 199/199/199 197/197/197
f 203/203/203 202/202/202 201/201/201
f 204/204/204 203/203/203 201/201/201
f 207/207/207 206/206/206 205/205/205
f 208/208/208 207/207/207 205/205/205
f 211/211/211 210/210/210 209/209/209
f 212/212/212 211/211/211 209/209/209
f 215/215/215 214/214/214 213/213/213
f 216/216/216 215/215/215 213/213/213
f 219/219/219 218/218/218 217/217/217
f 220/220/220 219/219/219 217/217/217
f 223/223/223 222/222/222 221/221/221
f 224/224/224 223/223/223 221/221/221
f 227/227/227 226/226/226 225/225/225
f 228/228/228 227/227/227 225/225/225
f 231/231/231 230/230/230 229/229/229
f 232/232/232 231/231/231 229/229/229
f 235/235/235 234/234/234 233/233/233
f 236/236/236 235/235/235 233/233/233
f 239/239/239 238/238/238 237/237/237
f 240/240/240 239/239/239 237/237/237
f 243/243/243 242/242/242 241/241/241
f 244/244/244 243/243/243 241/241/241
f 247/247/247 246/246/246 245/245/245
f 248/248/248 247/247/247 245/245/245
f 251/251/251 250/250/250 249/249/249
f 252/252/252 251/251/251 249/249/249
f 255/255/255 254/254/254 253/253/253
f 256/256/256 255/255/255 253/253/253
