g Sphere_cell.021_cell
v -0.1810943 -0.0008590071 0.032238405
v -0.18993592 0.018020405 0.02812853
v -0.008635855 0.12530994 0.05110001
v -0.12749936 -0.10242745 0.05531583
v 0.07956459 -0.05637286 0.09085546
v 0.19991958 -0.029425364 0.111490875
v -0.13328947 -0.10142705 0.054042198
v -0.14800824 -0.07084558 0.047375776
v -0.15872641 -0.04831884 0.042489808
v -0.008635855 0.12530994 0.05110001
v -0.18993592 0.018020405 0.02812853
v -0.122326516 0.015448345 -0.012214182
v -0.015305495 0.01161076 -0.075805694
v 0.008790514 0.010779395 -0.0900858
v 0.04674234 0.024811517 -0.09495641
v 0.1555288 0.06498719 -0.10863749
v 0.08889212 0.04035498 -0.10028328
v 0.29822338 0.11759949 -0.12635718
v 0.20716047 -0.019245846 0.09530297
v 0.19991958 -0.029425364 0.111490875
v -0.008635855 0.12530994 0.05110001
v 0.29822338 0.11759949 -0.12635718
v -0.18993592 0.018020405 0.02812853
v -0.1810943 -0.0008590071 0.032238405
v -0.15872641 -0.04831884 0.042489808
v -0.122326516 0.015448345 -0.012214182
v -0.015305495 0.01161076 -0.075805694
v -0.14800824 -0.07084558 0.047375776
v -0.13328947 -0.10142705 0.054042198
v 0.008790514 0.010779395 -0.0900858
v -0.13328947 -0.10142705 0.054042198
v -0.12749936 -0.10242745 0.05531583
v 0.07956459 -0.05637286 0.09085546
v 0.008790514 0.010779395 -0.0900858
v 0.04674234 0.024811517 -0.09495641
v 0.08889212 0.04035498 -0.10028328
v 0.20716047 -0.019245846 0.09530297
v 0.19991958 -0.029425364 0.111490875
v 0.1555288 0.06498719 -0.10863749
v 0.29822338 0.11759949 -0.12635718
vn -0.19475618 0.12069121 0.97339803
vn -0.19475618 0.12069121 0.97339803
vn -0.19475618 0.12069121 0.97339803
vn -0.19362997 0.11908885 0.97381985
vn -0.19362997 0.11908885 0.97381985
vn -0.19362997 0.11908885 0.97381985
vn -0.19362997 0.11908885 0.97381985
vn -0.19362997 0.11908885 0.97381985
vn -0.19362997 0.11908885 0.97381985
vn -0.3413191 0.7089152 -0.61720383
vn -0.3413191 0.7089152 -0.61720383
vn -0.3413191 0.7089152 -0.61720383
vn -0.3413191 0.7089152 -0.61720383
vn -0.3413191 0.7089152 -0.61720383
vn -0.3413191 0.7089152 -0.61720383
vn -0.33972076 0.7097251 -0.6171548
vn -0.33972076 0.7097251 -0.6171548
vn -0.33864236 0.710838 -0.6164663
vn 0.3532174 0.71263564 0.6061254
vn 0.3532174 0.71263564 0.6061254
vn 0.3532174 0.71263564 0.6061254
vn 0.36088613 0.71999675 0.59276116
vn -0.48159987 -0.39583868 -0.7819036
vn -0.48159987 -0.39583868 -0.7819036
vn -0.48159987 -0.39583868 -0.7819036
vn -0.48159987 -0.39583868 -0.7819036
vn -0.47738448 -0.40028042 -0.7822274
vn -0.47738448 -0.40028042 -0.7822274
vn -0.47738448 -0.40028042 -0.7822274
vn -0.47738448 -0.40028042 -0.7822274
vn 0.2599488 -0.8647759 -0.42963865
vn 0.2599488 -0.8647759 -0.42963865
vn 0.2599488 -0.8647759 -0.42963865
vn 0.2599488 -0.8647759 -0.42963865
vn 0.2599488 -0.8647759 -0.42963865
vn 0.2599488 -0.8647759 -0.42963865
vn 0.26642877 -0.8651937 -0.42480057
vn 0.26642877 -0.8651937 -0.42480057
vn 0.26642877 -0.8651937 -0.42480057
vn 0.26642877 -0.8651937 -0.42480057
g Sphere_cell.021_cell_0
f 3/3/3 2/2/2 1/1/1
f 3/3/3 1/1/1 4/4/4
f 3/3/3 4/4/4 5/5/5
f 5/5/5 6/6/6 3/3/3
f 1/1/1 7/7/7 4/4/4
f 1/1/1 8/8/8 7/7/7
f 1/1/1 9/9/9 8/8/8
f 12/12/12 11/11/11 10/10/10
f 13/13/13 12/12/12 10/10/10
f 14/14/14 13/13/13 10/10/10
f 10/10/10 15/15/15 14/14/14
f 10/10/10 16/16/16 15/15/15
f 16/16/16 17/17/17 15/15/15
f 18/18/18 16/16/16 10/10/10
f 21/21/21 20/20/20 19/19/19
f 19/19/19 22/22/22 21/21/21
f 25/25/25 24/24/24 23/23/23
f 26/26/26 25/25/25 23/23/23
f 26/26/26 27/27/27 25/25/25
f 27/27/27 28/28/28 25/25/25
f 28/28/28 27/27/27 29/29/29
f 27/27/27 30/30/30 29/29/29
f 33/33/33 32/32/32 31/31/31
f 33/33/33 31/31/31 34/34/34
f 33/33/33 34/34/34 35/35/35
f 35/35/35 36/36/36 33/33/33
f 37/37/37 33/33/33 36/36/36
f 37/37/37 38/38/38 33/33/33
f 37/37/37 36/36/36 39/39/39
f 39/39/39 40/40/40 37/37/37
