g Sphere_cell.071_cell.005_cell.004
v -0.0621013 0.040801805 -0.06462801
v -0.028749704 -0.0089954855 -0.08516086
v -0.028852224 0.012230203 -0.08789594
v -0.062121864 0.045926135 -0.06379665
v -0.0621013 0.040801805 -0.06462801
v -0.028852224 0.012230203 -0.08789594
v -0.016247751 -0.03348751 -0.06633598
v -0.028852224 0.012230203 -0.08789594
v -0.028749704 -0.0089954855 -0.08516086
v -0.0621013 0.040801805 -0.06462801
v -0.016247751 -0.03348751 -0.06633598
v -0.028749704 -0.0089954855 -0.08516086
v -0.028723717 -0.035956096 0.04174159
v -0.028852224 0.012230203 -0.08789594
v -0.01300049 0.050673284 -0.06843711
v -0.03518659 0.050656833 -0.06520105
v -0.062121864 0.045926135 -0.06379665
v -0.047595736 0.04851369 -0.06459982
v 0.049881388 0.021119878 0.023004575
v -0.01300049 0.050673284 -0.06843711
v -0.028852224 0.012230203 -0.08789594
v 0.046484463 0.005532311 0.019409997
v 0.044312946 -0.0027408132 0.016979737
v 0.04003983 -0.01895113 0.012237711
v 0.032496028 -0.027598808 0.0022495238
v -0.016247751 -0.03348751 -0.06633598
v 0.025798015 -0.0352406 -0.0064828536
v 0.025798015 -0.0352406 -0.0064828536
v -0.016247751 -0.03348751 -0.06633598
v -0.028723717 -0.035956096 0.04174159
v 0.014377886 -0.035896014 0.024902564
v -0.0100904135 -0.03624649 0.047788836
v -0.024482965 -0.036349725 0.0569096
v 0.016306574 0.0068133334 0.051120915
v -7.892027E-05 0.00014715081 0.0604463
v -0.022134425 -0.007675362 0.07041363
v -0.062121864 0.045926135 -0.06379665
v -0.047595736 0.04851369 -0.06459982
v 0.040833525 0.018552586 0.033027094
v -0.03518659 0.050656833 -0.06520105
v 0.022150988 0.009175823 0.047788836
v -0.0100904135 -0.03624649 0.047788836
v -0.024482965 -0.036349725 0.0569096
v -0.022134425 -0.007675362 0.07041363
v -7.892027E-05 0.00014715081 0.0604463
v 0.012744958 -0.008421612 0.047788836
v 0.016306574 0.0068133334 0.051120915
v 0.014377886 -0.035896014 0.024902564
v 0.033939533 -0.022583436 0.016728504
v 0.04003983 -0.01895113 0.012237711
v 0.044312946 -0.0027408132 0.016979737
v 0.022150988 0.009175823 0.047788836
v 0.046484463 0.005532311 0.019409997
v 0.040833525 0.018552586 0.033027094
v 0.049881388 0.021119878 0.023004575
v -0.03518659 0.050656833 -0.06520105
v -0.01300049 0.050673284 -0.06843711
v 0.049881388 0.021119878 0.023004575
v 0.040833525 0.018552586 0.033027094
v -0.022134425 -0.007675362 0.07041363
v -0.024482965 -0.036349725 0.0569096
v -0.028723717 -0.035956096 0.04174159
v -0.0621013 0.040801805 -0.06462801
v -0.062121864 0.045926135 -0.06379665
v 0.032496028 -0.027598808 0.0022495238
v 0.025798015 -0.0352406 -0.0064828536
v 0.014377886 -0.035896014 0.024902564
v 0.04003983 -0.01895113 0.012237711
v 0.033939533 -0.022583436 0.016728504
vn -0.6279315 -0.10244554 -0.7714965
vn -0.6279315 -0.10244554 -0.7714965
vn -0.6279315 -0.10244554 -0.7714965
vn -0.48545417 0.13810897 -0.8632846
vn -0.48545417 0.13810897 -0.8632846
vn -0.48545417 0.13810897 -0.8632846
vn 0.7822926 -0.07589001 -0.61827093
vn 0.7822926 -0.07589001 -0.61827093
vn 0.7822926 -0.07589001 -0.61827093
vn -0.84656173 -0.5198974 -0.11419277
vn -0.84656173 -0.5198974 -0.11419277
vn -0.84656173 -0.5198974 -0.11419277
vn -0.8469505 -0.5202418 -0.10965076
vn -0.12864958 0.48787993 -0.8633785
vn -0.12864958 0.48787993 -0.8633785
vn -0.12864958 0.48787993 -0.8633785
vn -0.12864958 0.48787993 -0.8633785
vn -0.12864958 0.48787993 -0.8633785
vn 0.81627625 -0.04508132 -0.5759
vn 0.81627625 -0.04508132 -0.5759
vn 0.8161127 -0.04663417 -0.576008
vn 0.81627625 -0.04508132 -0.5759
vn 0.8161127 -0.04663417 -0.576008
vn 0.8161127 -0.04663417 -0.576008
vn 0.8161127 -0.04663417 -0.576008
vn 0.8161127 -0.04663417 -0.576008
vn 0.81608415 -0.058246028 -0.5749905
vn -0.007881752 -0.9996871 -0.023742707
vn -0.007881752 -0.9996871 -0.023742707
vn -0.007881752 -0.9996871 -0.023742707
vn -0.007881752 -0.9996871 -0.023742707
vn -0.007881752 -0.9996871 -0.023742707
vn -0.007881752 -0.9996871 -0.023742707
vn -0.13888684 0.9047271 0.40271503
vn -0.13888684 0.9047271 0.40271503
vn -0.13888684 0.9047271 0.40271503
vn -0.13888684 0.9047271 0.40271503
vn -0.13888684 0.9047271 0.40271503
vn -0.13689545 0.905409 0.40186337
vn -0.13689545 0.905409 0.40186337
vn -0.13689545 0.905409 0.40186337
vn 0.52990764 -0.43487033 0.72806984
vn 0.4918183 -0.40361756 0.771497
vn 0.4918183 -0.40361756 0.771497
vn 0.51079434 -0.37690803 0.77267677
vn 0.59046465 -0.3945282 0.70405895
vn 0.56110114 -0.2999152 0.7715027
vn 0.5986993 -0.49133193 0.63257575
vn 0.65763247 -0.40664074 0.634163
vn 0.6830491 -0.36510056 0.63257045
vn 0.6830491 -0.36510056 0.63257045
vn 0.6533271 -0.34920207 0.6717303
vn 0.69862276 -0.34963182 0.62424666
vn 0.70433164 -0.34383395 0.6210436
vn 0.74507004 -0.29976153 0.5958302
vn 0.040416487 0.95856005 0.28200912
vn 0.040416487 0.95856005 0.28200912
vn 0.040416487 0.95856005 0.28200912
vn 0.040416487 0.95856005 0.28200912
vn -0.9623067 -0.047312032 0.26781982
vn -0.9623067 -0.047312032 0.26781982
vn -0.9623067 -0.047312032 0.26781982
vn -0.9623067 -0.047312032 0.26781982
vn -0.9623067 -0.047312032 0.26781982
vn 0.6077932 -0.76714194 0.20513584
vn 0.6077932 -0.76714194 0.20513584
vn 0.6077932 -0.76714194 0.20513584
vn 0.6077932 -0.76714194 0.20513584
vn 0.6077932 -0.76714194 0.20513584
g Sphere_cell.071_cell.005_cell.004_0
f 3/3/3 2/2/2 1/1/1
f 6/6/6 5/5/5 4/4/4
f 9/9/9 8/8/8 7/7/7
f 12/12/12 11/11/11 10/10/10
f 13/13/13 10/10/10 11/11/11
f 16/16/16 15/15/15 14/14/14
f 14/14/14 17/17/17 16/16/16
f 17/17/17 18/18/18 16/16/16
f 21/21/21 20/20/20 19/19/19
f 21/21/21 19/19/19 22/22/22
f 22/22/22 23/23/23 21/21/21
f 21/21/21 23/23/23 24/24/24
f 21/21/21 24/24/24 25/25/25
f 25/25/25 26/26/26 21/21/21
f 26/26/26 25/25/25 27/27/27
f 30/30/30 29/29/29 28/28/28
f 28/28/28 31/31/31 30/30/30
f 31/31/31 32/32/32 30/30/30
f 32/32/32 33/33/33 30/30/30
f 36/36/36 35/35/35 34/34/34
f 37/37/37 36/36/36 34/34/34
f 34/34/34 38/38/38 37/37/37
f 38/38/38 34/34/34 39/39/39
f 39/39/39 40/40/40 38/38/38
f 34/34/34 41/41/41 39/39/39
f 44/44/44 43/43/43 42/42/42
f 45/45/45 44/44/44 42/42/42
f 42/42/42 46/46/46 45/45/45
f 47/47/47 45/45/45 46/46/46
f 46/46/46 42/42/42 48/48/48
f 49/49/49 46/46/46 48/48/48
f 46/46/46 49/49/49 50/50/50
f 50/50/50 51/51/51 46/46/46
f 52/52/52 47/47/47 46/46/46
f 51/51/51 52/52/52 46/46/46
f 51/51/51 53/53/53 52/52/52
f 53/53/53 54/54/54 52/52/52
f 54/54/54 53/53/53 55/55/55
f 58/58/58 57/57/57 56/56/56
f 59/59/59 58/58/58 56/56/56
f 62/62/62 61/61/61 60/60/60
f 60/60/60 63/63/63 62/62/62
f 60/60/60 64/64/64 63/63/63
f 67/67/67 66/66/66 65/65/65
f 65/65/65 68/68/68 67/67/67
f 68/68/68 69/69/69 67/67/67
