g Sphere_cell.071_cell.001_cell.006
v 0.098183855 0.015398672 -0.006368405
v 0.10212354 0.022042444 -0.007357425
v 0.05536907 0.07676117 -0.0901953
v 0.074081235 -0.020124262 -0.003945477
v -0.012840688 -0.028399054 -0.08005941
v 0.03353816 0.05831854 -0.09772425
v -0.018565178 0.013946941 -0.11544239
v 0.10212354 0.022042444 -0.007357425
v 0.05902254 0.08223836 -0.073709846
v 0.05536907 0.07676117 -0.0901953
v 0.09788476 0.03899877 -0.0025351716
v 0.07926499 0.11272637 0.018529763
v -0.039286193 -0.06980115 -0.030050043
v -0.04979109 -0.085546315 -0.010816163
v -0.014387488 -0.0810433 0.018137982
v 0.017938491 -0.06000358 0.011885693
v 0.074081235 -0.020124262 -0.003945477
v -0.012840688 -0.028399054 -0.08005941
v 0.02365678 -0.0562225 0.010799936
v -0.031934734 -0.063898146 0.031265188
v -0.014387488 -0.0810433 0.018137982
v -0.04979109 -0.085546315 -0.010816163
v -0.12092601 -0.050636113 -0.008034832
v -0.07780933 -0.018783873 0.06568329
v -0.08760106 -0.011766022 0.069347546
v -0.12092601 -0.050636113 -0.008034832
v -0.018565178 0.013946941 -0.11544239
v 0.03353816 0.05831854 -0.09772425
v -0.005320908 0.051055357 0.051687166
v 0.05536907 0.07676117 -0.0901953
v 0.05902254 0.08223836 -0.073709846
v 0.07926499 0.11272637 0.018529763
v 0.0008994321 0.05569522 0.049915537
v -0.08760106 -0.011766022 0.069347546
v -0.05475556 0.013849428 0.06568329
v -0.06702637 0.0043699066 0.067619845
v -0.039286193 -0.06980115 -0.030050043
v -0.012840688 -0.028399054 -0.08005941
v -0.018565178 0.013946941 -0.11544239
v -0.12092601 -0.050636113 -0.008034832
v -0.04979109 -0.085546315 -0.010816163
v -0.07780933 -0.018783873 0.06568329
v -0.08760106 -0.011766022 0.069347546
v -0.06702637 0.0043699066 0.067619845
v -0.061718218 0.0008231922 0.06568329
v -0.031934734 -0.063898146 0.031265188
v -0.05475556 0.013849428 0.06568329
v -0.014387488 -0.0810433 0.018137982
v -0.005320908 0.051055357 0.051687166
v 0.017938491 -0.06000358 0.011885693
v 0.02365678 -0.0562225 0.010799936
v 0.0008994321 0.05569522 0.049915537
v 0.074081235 -0.020124262 -0.003945477
v 0.098183855 0.015398672 -0.006368405
v 0.09788476 0.03899877 -0.0025351716
v 0.10212354 0.022042444 -0.007357425
v 0.07926499 0.11272637 0.018529763
vn 0.6099219 -0.4579488 -0.64674443
vn 0.6099219 -0.4579488 -0.64674443
vn 0.6099219 -0.4579488 -0.64674443
vn 0.6099219 -0.4579488 -0.64674443
vn 0.6099219 -0.4579488 -0.64674443
vn 0.6099219 -0.4579488 -0.64674443
vn 0.6099219 -0.4579488 -0.64674443
vn 0.9008096 0.31116006 -0.3028557
vn 0.9008096 0.31116006 -0.3028557
vn 0.9008096 0.31116006 -0.3028557
vn 0.9008096 0.31116006 -0.3028557
vn 0.90053713 0.3134997 -0.30124864
vn 0.4393068 -0.7977226 -0.41309607
vn 0.4393068 -0.7977226 -0.41309607
vn 0.4393068 -0.7977226 -0.41309607
vn 0.4393068 -0.7977226 -0.41309607
vn 0.4436274 -0.7914138 -0.42054608
vn 0.4436274 -0.7914138 -0.42054608
vn 0.4436274 -0.7914138 -0.42054608
vn -0.3510644 -0.76366335 0.54182297
vn -0.3510644 -0.76366335 0.54182297
vn -0.3510644 -0.76366335 0.54182297
vn -0.3510644 -0.76366335 0.54182297
vn -0.35115576 -0.76712734 0.5368476
vn -0.35115576 -0.76712734 0.5368476
vn -0.61879593 0.77582717 -0.1232226
vn -0.61879593 0.77582717 -0.1232226
vn -0.61879593 0.77582717 -0.1232226
vn -0.61879593 0.77582717 -0.1232226
vn -0.61555797 0.77855235 -0.12224794
vn -0.61555797 0.77855235 -0.12224794
vn -0.61555797 0.77855235 -0.12224794
vn -0.61555797 0.77855235 -0.12224794
vn -0.61879593 0.77582717 -0.1232226
vn -0.61879593 0.77582717 -0.1232226
vn -0.61879593 0.77582717 -0.1232226
vn -0.33661562 -0.63015884 -0.69970685
vn -0.33661562 -0.63015884 -0.69970685
vn -0.33661562 -0.63015884 -0.69970685
vn -0.33661562 -0.63015884 -0.69970685
vn -0.33661562 -0.63015884 -0.69970685
vn 0.29737714 -0.24402995 0.92304724
vn 0.22538243 -0.18494481 0.95655537
vn 0.23795773 -0.16632932 0.95692766
vn 0.32249758 -0.21549688 0.9217138
vn 0.3657486 -0.30016166 0.880983
vn 0.3954947 -0.21140456 0.89380765
vn 0.3657486 -0.30016166 0.880983
vn 0.41729367 -0.22303681 0.88097703
vn 0.3657486 -0.30016166 0.880983
vn 0.39888605 -0.25144774 0.8818525
vn 0.4285487 -0.19697002 0.88178724
vn 0.41729367 -0.22303681 0.88097703
vn 0.437735 -0.17499633 0.88190955
vn 0.4527881 -0.137338 0.88097745
vn 0.4527881 -0.137338 0.88097745
vn 0.4527881 -0.137338 0.88097745
g Sphere_cell.071_cell.001_cell.006_0
f 3/3/3 2/2/2 1/1/1
f 1/1/1 4/4/4 3/3/3
f 4/4/4 5/5/5 3/3/3
f 5/5/5 6/6/6 3/3/3
f 5/5/5 7/7/7 6/6/6
f 10/10/10 9/9/9 8/8/8
f 9/9/9 11/11/11 8/8/8
f 9/9/9 12/12/12 11/11/11
f 15/15/15 14/14/14 13/13/13
f 16/16/16 15/15/15 13/13/13
f 17/17/17 16/16/16 13/13/13
f 13/13/13 18/18/18 17/17/17
f 17/17/17 19/19/19 16/16/16
f 22/22/22 21/21/21 20/20/20
f 23/23/23 22/22/22 20/20/20
f 20/20/20 24/24/24 23/23/23
f 24/24/24 25/25/25 23/23/23
f 28/28/28 27/27/27 26/26/26
f 26/26/26 29/29/29 28/28/28
f 30/30/30 28/28/28 29/29/29
f 29/29/29 31/31/31 30/30/30
f 29/29/29 32/32/32 31/31/31
f 29/29/29 33/33/33 32/32/32
f 26/26/26 34/34/34 29/29/29
f 34/34/34 35/35/35 29/29/29
f 34/34/34 36/36/36 35/35/35
f 39/39/39 38/38/38 37/37/37
f 37/37/37 40/40/40 39/39/39
f 37/37/37 41/41/41 40/40/40
f 44/44/44 43/43/43 42/42/42
f 45/45/45 44/44/44 42/42/42
f 45/45/45 42/42/42 46/46/46
f 45/45/45 47/47/47 44/44/44
f 45/45/45 46/46/46 48/48/48
f 49/49/49 47/47/47 45/45/45
f 45/45/45 48/48/48 50/50/50
f 50/50/50 51/51/51 45/45/45
f 52/52/52 49/49/49 45/45/45
f 52/52/52 45/45/45 51/51/51
f 52/52/52 51/51/51 53/53/53
f 53/53/53 54/54/54 52/52/52
f 55/55/55 52/52/52 54/54/54
f 54/54/54 56/56/56 55/55/55
f 55/55/55 57/57/57 52/52/52
