g Sphere_cell.033_cell
v 0.12888213 0.14825542 0.026013028
v 0.061936848 0.20841676 -0.012512399
v 0.06564733 0.21152359 -0.027890172
v -0.18412344 0.12137516 -0.054325737
v -0.015895514 -0.14850868 -0.011973975
v -0.010512679 -0.14948072 -0.016460238
v 0.061936848 0.20841676 -0.012512399
v -0.22538564 0.096275166 0.016564531
v -0.18412344 0.12137516 -0.054325737
v -0.15373002 0.13538344 -0.073314786
v -0.13883 0.14212663 -0.08170203
v -0.042497788 0.18547757 -0.13583153
v 0.06564733 0.21152359 -0.027890172
v -0.037619863 0.18752843 -0.13851577
v -0.022058515 -0.10545577 0.14453001
v -0.17867362 -0.06918421 0.108909115
v -0.22538564 0.096275166 0.016564531
v 0.060669474 -0.11020602 0.15573119
v 0.061936848 0.20841676 -0.012512399
v 0.07853555 -0.11125268 0.15808146
v 0.12888213 0.14825542 0.026013028
v 0.12888213 0.14825542 0.026013028
v 0.13388567 0.13478 0.027591463
v 0.1270427 -0.1247002 0.12949993
v 0.07853555 -0.11125268 0.15808146
v -0.037619863 0.18752843 -0.13851577
v 0.029413756 0.041001167 -0.10674808
v 0.06564733 0.21152359 -0.027890172
v 0.040918376 0.015754549 -0.1012571
v 0.11200078 0.11216314 -0.0051850076
v 0.06564733 0.21152359 -0.027890172
v 0.11200078 0.11216314 -0.0051850076
v 0.12382449 0.12432845 0.0125059765
v 0.13388567 0.13478 0.027591463
v 0.12888213 0.14825542 0.026013028
v -0.15373002 0.13538344 -0.073314786
v -0.18412344 0.12137516 -0.054325737
v -0.010512679 -0.14948072 -0.016460238
v -0.002420604 -0.15054931 -0.0192174
v -0.037619863 0.18752843 -0.13851577
v -0.042497788 0.18547757 -0.13583153
v -0.13883 0.14212663 -0.08170203
v 0.029413756 0.041001167 -0.10674808
v 0.03732675 -0.15576948 -0.032471355
v 0.040918376 0.015754549 -0.1012571
v 0.040918376 0.015754549 -0.1012571
v 0.03732675 -0.15576948 -0.032471355
v 0.053297244 -0.15433611 -0.0019483266
v 0.12382449 0.12432845 0.0125059765
v 0.11200078 0.11216314 -0.0051850076
v 0.060858034 -0.15365042 0.012574224
v 0.1270427 -0.1247002 0.12949993
v 0.13388567 0.13478 0.027591463
v 0.053297244 -0.15433611 -0.0019483266
v 0.03732675 -0.15576948 -0.032471355
v -0.002420604 -0.15054931 -0.0192174
v -0.010512679 -0.14948072 -0.016460238
v -0.015895514 -0.14850868 -0.011973975
v -0.030067015 -0.14571632 0.002204567
v 0.060858034 -0.15365042 0.012574224
v -0.029867757 -0.14471473 0.012574224
v -0.042557333 -0.14086546 0.012574224
v -0.17867362 -0.06918421 0.108909115
v 0.1270427 -0.1247002 0.12949993
v -0.022058515 -0.10545577 0.14453001
v 0.07853555 -0.11125268 0.15808146
v 0.060669474 -0.11020602 0.15573119
v -0.015895514 -0.14850868 -0.011973975
v -0.18412344 0.12137516 -0.054325737
v -0.22538564 0.096275166 0.016564531
v -0.17867362 -0.06918421 0.108909115
v -0.030067015 -0.14571632 0.002204567
v -0.042557333 -0.14086546 0.012574224
vn 0.54189795 0.788784 0.29011425
vn 0.54189795 0.788784 0.29011425
vn 0.54189795 0.788784 0.29011425
vn -0.6112396 -0.47978204 -0.62944037
vn -0.6112396 -0.47978204 -0.62944037
vn -0.6112396 -0.47978204 -0.62944037
vn -0.34970707 0.928457 0.12519005
vn -0.34970707 0.928457 0.12519005
vn -0.34970707 0.928457 0.12519005
vn -0.34970707 0.928457 0.12519005
vn -0.34970707 0.928457 0.12519005
vn -0.3490679 0.92901623 0.12280221
vn -0.33390683 0.9363289 0.1086018
vn -0.33390683 0.9363289 0.1086018
vn -0.0924845 0.46522212 0.8803494
vn -0.0924845 0.46522212 0.8803494
vn -0.0924845 0.46522212 0.8803494
vn -0.0924845 0.46522212 0.8803494
vn -0.0924845 0.46522212 0.8803494
vn -0.088587984 0.46537536 0.880669
vn -0.088587984 0.46537536 0.880669
vn 0.54441214 0.29415962 0.7855479
vn 0.54441214 0.29415962 0.7855479
vn 0.54441214 0.29415962 0.7855479
vn 0.54441214 0.29415962 0.7855479
vn 0.7014807 0.17091009 -0.691892
vn 0.7014807 0.17091009 -0.691892
vn 0.7014807 0.17091009 -0.691892
vn 0.70286196 0.17006436 -0.6906977
vn 0.70286196 0.17006436 -0.6906977
vn 0.74447507 0.20188653 -0.63639516
vn 0.74447507 0.20188653 -0.63639516
vn 0.74447507 0.20188653 -0.63639516
vn 0.74447507 0.20188653 -0.63639516
vn 0.74447507 0.20188653 -0.63639516
vn -0.36624128 -0.35574022 -0.8598349
vn -0.36624128 -0.35574022 -0.8598349
vn -0.36624128 -0.35574022 -0.8598349
vn -0.36624128 -0.35574022 -0.8598349
vn -0.33737418 -0.34429532 -0.8761503
vn -0.33737418 -0.34429532 -0.8761503
vn -0.33737418 -0.34429532 -0.8761503
vn -0.33737418 -0.34429532 -0.8761503
vn -0.33737418 -0.34429532 -0.8761503
vn -0.33737418 -0.34429532 -0.8761503
vn 0.87235576 -0.19759041 -0.4471615
vn 0.87235576 -0.19759041 -0.4471615
vn 0.87235576 -0.19759041 -0.4471615
vn 0.87235576 -0.19759041 -0.4471615
vn 0.87235576 -0.19759041 -0.4471615
vn 0.8732412 -0.19791165 -0.44528738
vn 0.8732412 -0.19791165 -0.44528738
vn 0.8732412 -0.19791165 -0.44528738
vn -0.09753945 -0.99044037 0.09753945
vn -0.09753945 -0.99044037 0.09753945
vn -0.09753945 -0.99044037 0.09753945
vn -0.09753945 -0.99044037 0.09753945
vn -0.09753945 -0.99044037 0.09753945
vn -0.15119362 -0.9836436 0.09790657
vn -0.09552427 -0.9701054 0.22309342
vn -0.19138387 -0.9621686 0.19391693
vn -0.2810213 -0.926473 0.25034946
vn -0.27787533 -0.91611874 0.2889842
vn -0.09381668 -0.95272464 0.28898835
vn -0.17573105 -0.94067085 0.29027057
vn -0.09381668 -0.95272464 0.28898835
vn -0.09381668 -0.95272464 0.28898835
vn -0.6600804 -0.49949476 -0.5610694
vn -0.6600804 -0.49949476 -0.5610694
vn -0.6600804 -0.49949476 -0.5610694
vn -0.6600804 -0.49949476 -0.5610694
vn -0.66014993 -0.49866152 -0.5617285
vn -0.66014993 -0.49866152 -0.5617285
g Sphere_cell.033_cell_0
f 3/3/3 2/2/2 1/1/1
f 6/6/6 5/5/5 4/4/4
f 9/9/9 8/8/8 7/7/7
f 10/10/10 9/9/9 7/7/7
f 7/7/7 11/11/11 10/10/10
f 7/7/7 12/12/12 11/11/11
f 7/7/7 13/13/13 12/12/12
f 13/13/13 14/14/14 12/12/12
f 17/17/17 16/16/16 15/15/15
f 17/17/17 15/15/15 18/18/18
f 18/18/18 19/19/19 17/17/17
f 19/19/19 18/18/18 20/20/20
f 21/21/21 19/19/19 20/20/20
f 24/24/24 23/23/23 22/22/22
f 25/25/25 24/24/24 22/22/22
f 28/28/28 27/27/27 26/26/26
f 29/29/29 27/27/27 28/28/28
f 30/30/30 29/29/29 28/28/28
f 33/33/33 32/32/32 31/31/31
f 31/31/31 34/34/34 33/33/33
f 31/31/31 35/35/35 34/34/34
f 38/38/38 37/37/37 36/36/36
f 39/39/39 38/38/38 36/36/36
f 39/39/39 36/36/36 40/40/40
f 36/36/36 41/41/41 40/40/40
f 36/36/36 42/42/42 41/41/41
f 39/39/39 40/40/40 43/43/43
f 44/44/44 39/39/39 43/43/43
f 43/43/43 45/45/45 44/44/44
f 48/48/48 47/47/47 46/46/46
f 46/46/46 49/49/49 48/48/48
f 46/46/46 50/50/50 49/49/49
f 51/51/51 48/48/48 49/49/49
f 49/49/49 52/52/52 51/51/51
f 49/49/49 53/53/53 52/52/52
f 56/56/56 55/55/55 54/54/54
f 54/54/54 57/57/57 56/56/56
f 54/54/54 58/58/58 57/57/57
f 54/54/54 59/59/59 58/58/58
f 54/54/54 60/60/60 59/59/59
f 60/60/60 61/61/61 59/59/59
f 61/61/61 62/62/62 59/59/59
f 62/62/62 61/61/61 63/63/63
f 61/61/61 60/60/60 64/64/64
f 61/61/61 65/65/65 63/63/63
f 64/64/64 65/65/65 61/61/61
f 64/64/64 66/66/66 65/65/65
f 66/66/66 67/67/67 65/65/65
f 70/70/70 69/69/69 68/68/68
f 71/71/71 70/70/70 68/68/68
f 71/71/71 68/68/68 72/72/72
f 73/73/73 71/71/71 72/72/72
