g Sphere_cell.001
v -0.07325432 -0.02147019 0.75938773
v 0.059806764 0.047101803 0.82697415
v 0.0765526 0.034443207 0.80954003
v -0.07325433 -0.043895982 0.73206174
v -0.119009376 -0.0393895 0.73206174
v -0.24444176 -0.073044226 0.6459856
v -0.25349414 -0.11855402 0.559175
v -0.35514057 -0.087719925 0.559175
v -0.4351173 -0.08604129 0.48759243
v -0.4485845 -0.11855372 0.37158194
v -0.54942083 -0.06465556 0.37158194
v -0.62178624 -0.03539916 0.28679177
v -0.6278753 -0.04440351 0.17649168
v 0.08895731 -0.027919613 0.73206174
v 0.14428544 -0.011136048 0.73206174
v 0.26834738 -0.06960553 0.559175
v 0.10698578 -0.11855402 0.559175
v 0.28322023 -0.073031984 0.5340122
v -0.07325418 -0.13630614 0.559175
v 0.11808735 -0.1743662 0.37158194
v -0.07325433 -0.19321164 0.37158194
v -0.264596 -0.17436609 0.37158194
v 0.30207592 -0.1185539 0.37158194
v 0.37085903 -0.081788585 0.37158194
v 0.45495898 -0.058518946 0.17649165
v 0.30942917 -0.13630626 0.17649168
v 0.47839212 -0.03802388 0.1047833
v 0.12183601 -0.193212 0.17649168
v -0.07325435 -0.21242663 0.17649168
v -0.2683447 -0.19321188 0.17649168
v 0.30207592 -0.1185539 -0.018598616
v 0.11808735 -0.1743662 -0.018598616
v -0.4559378 -0.13630608 0.17649168
v -0.07325433 -0.19321164 -0.018598616
v -0.264596 -0.17436609 -0.018598616
v -0.4485845 -0.11855372 -0.018598616
v -0.6172998 -0.028373495 -0.018598616
v -0.42680758 -0.06597998 -0.20619169
v -0.58578587 0.018995725 -0.20619169
v -0.56883216 0.044434942 -0.26339245
v -0.44601884 0.048566945 -0.3790786
v -0.25349414 -0.11855402 -0.20619169
v -0.23546597 -0.027919494 -0.3790786
v -0.3914439 0.019395985 -0.3790786
v -0.37416685 0.06110642 -0.43409058
v -0.22777727 0.099081 -0.5306152
v -0.07325418 -0.13630614 -0.20619169
v -0.21120396 0.094053544 -0.5306152
v -0.07325427 0.080466665 -0.5306152
v -0.20882863 0.105995156 -0.5406074
v -0.07325426 0.16508418 -0.60005903
v -0.048213363 0.17795137 -0.6085949
v 0.045006335 0.19303721 -0.6134405
v -0.07325433 -0.043895982 -0.3790786
v 0.10698578 -0.11855402 -0.20619169
v 0.06469542 0.094053484 -0.5306152
v 0.08895731 -0.027919613 -0.3790786
v 0.19734377 0.13429192 -0.5306152
v 0.16139919 0.22106993 -0.60769975
v 0.28029925 -0.06597998 -0.20619169
v 0.24493533 0.019395687 -0.3790786
v 0.38868546 0.09623168 -0.3790786
v 0.31959325 0.19963554 -0.5306152
v 0.16139919 0.22106993 -0.60769975
v 0.31421357 0.20768681 -0.53856194
v 0.3287694 0.2071662 -0.5306152
v 0.4960484 0.21827066 -0.41119114
v 0.44002587 0.019395627 -0.20619169
v 0.51468354 0.19963554 -0.3790786
v 0.5344218 0.22368664 -0.3790786
v 0.5494954 0.16482383 -0.28697336
v 0.5486556 0.22794348 -0.36347076
v 0.5455036 0.105958976 -0.20619169
v 0.47164077 -0.027919672 -0.018598616
v 0.5131392 0.006137222 -0.018598616
v 0.45495898 -0.058518946 0.17649165
v 0.37085903 -0.081788585 0.37158194
v 0.28322023 -0.073031984 0.5340122
v 0.26834738 -0.06960553 0.559175
v 0.14428544 -0.011136048 0.73206174
v 0.47839212 -0.03802388 0.1047833
v 0.5131392 0.006137222 -0.018598616
v 0.0765526 0.034443207 0.80954003
v 0.5455036 0.105958976 -0.20619169
v 0.059806764 0.047101803 0.82697415
v -0.07364665 0.78532887 0.17671925
v 0.5494954 0.16482383 -0.28697336
v 0.5486556 0.22794348 -0.36347076
v -0.07364665 0.78532887 0.17671925
v 0.059806764 0.047101803 0.82697415
v -0.07325432 -0.02147019 0.75938773
v -0.119009376 -0.0393895 0.73206174
v -0.62178624 -0.03539916 0.28679177
v -0.24444176 -0.073044226 0.6459856
v -0.35514057 -0.087719925 0.559175
v -0.4351173 -0.08604129 0.48759243
v -0.54942083 -0.06465556 0.37158194
v -0.62178624 -0.03539916 0.28679177
v -0.6278753 -0.04440351 0.17649168
v -0.6172998 -0.028373495 -0.018598616
v -0.07364665 0.78532887 0.17671925
v -0.58578587 0.018995725 -0.20619169
v -0.56883216 0.044434942 -0.26339245
v -0.07325426 0.16508418 -0.60005903
v -0.048213363 0.17795137 -0.6085949
v -0.07364665 0.78532887 0.17671925
v -0.20882863 0.105995156 -0.5406074
v -0.22777727 0.099081 -0.5306152
v -0.37416685 0.06110642 -0.43409058
v -0.44601884 0.048566945 -0.3790786
v -0.56883216 0.044434942 -0.26339245
v -0.07364665 0.78532887 0.17671925
v 0.16139919 0.22106993 -0.60769975
v 0.31421357 0.20768681 -0.53856194
v 0.3287694 0.2071662 -0.5306152
v 0.4960484 0.21827066 -0.41119114
v 0.5344218 0.22368664 -0.3790786
v 0.5486556 0.22794348 -0.36347076
v 0.16139919 0.22106993 -0.60769975
v -0.07364665 0.78532887 0.17671925
v -0.048213363 0.17795137 -0.6085949
v 0.045006335 0.19303721 -0.6134405
vt 0.5 0.69877034
vt 0.5283076 0.72664577
vt 0.53125 0.71945524
vt 0.5 0.6875
vt 0.4911853 0.6875
vt 0.46875 0.65638274
vt 0.46875003 0.625
vt 0.45042223 0.625
vt 0.43750003 0.601151
vt 0.4375 0.56250006
vt 0.41891634 0.56250006
vt 0.40643314 0.5353363
vt 0.4064216 0.5000001
vt 0.53125 0.6875
vt 0.5423349 0.6875
vt 0.56034493 0.625
vt 0.53125 0.625
vt 0.5625 0.61661655
vt 0.5 0.625
vt 0.53125 0.5625
vt 0.5 0.56250006
vt 0.46875 0.56250006
vt 0.56249994 0.5625
vt 0.57517636 0.5625
vt 0.5888051 0.5
vt 0.56249994 0.5
vt 0.59374994 0.4770272
vt 0.53124994 0.5000001
vt 0.49999997 0.5000001
vt 0.46875 0.5000001
vt 0.56249994 0.43750006
vt 0.53125 0.43750012
vt 0.4375 0.5000001
vt 0.49999997 0.43750012
vt 0.46875 0.43750012
vt 0.4375 0.43750012
vt 0.40640658 0.4375001
vt 0.43750003 0.37500012
vt 0.40639645 0.37500012
vt 0.40639606 0.35432157
vt 0.4256359 0.31250006
vt 0.46875003 0.37500012
vt 0.46875 0.31250006
vt 0.4375 0.31250006
vt 0.4375 0.28981084
vt 0.46484557 0.25000012
vt 0.5 0.37500012
vt 0.46875 0.25000012
vt 0.49999997 0.25000012
vt 0.46875 0.2449784
vt 0.49999994 0.21510029
vt 0.5065098 0.21081051
vt 0.53124994 0.20837525
vt 0.49999997 0.31250012
vt 0.53125 0.37500012
vt 0.53124994 0.25000012
vt 0.53124994 0.31250012
vt 0.56249994 0.25000012
vt 0.56249994 0.21126032
vt 0.5625 0.37500012
vt 0.56249994 0.31250012
vt 0.59374994 0.31250006
vt 0.59374994 0.25000012
vt 0.5628503 0.21136075
vt 0.59374994 0.24600635
vt 0.59642607 0.25000012
vt 0.62499994 0.29925555
vt 0.59374994 0.37500012
vt 0.62499994 0.31250006
vt 0.6309651 0.31250006
vt 0.62499994 0.34579685
vt 0.6333686 0.3181424
vt 0.61729383 0.37500006
vt 0.59374994 0.43750006
vt 0.6024754 0.43750006
vt 0.84899825 0.427047
vt 0.8610421 0.3267673
vt 0.84276766 0.2290435
vt 0.8378541 0.21285753
vt 0.7689548 0.08397744
vt 0.83255666 0.45786473
vt 0.795316 0.50638866
vt 0.7185837 0.016417684
vt 0.7058172 0.5636334
vt 0.70483214 0
vt 0 0
vt 0.6513009 0.5802505
vt 0.5922544 0.5922544
vt 0 0
vt 0.70483214 0.70483214
vt 0.7702116 0.60665643
vt 0.7872897 0.56864417
vt 0.783167 0
vt 0.81934 0.45281482
vt 0.8332811 0.33930096
vt 0.83162886 0.24806236
vt 0.8111417 0.103397
vt 0.783167 0.783167
vt 0.79178095 0.645628
vt 0.7765224 0.3774826
vt 0 0
vt 0.73135644 0.09476555
vt 0.70709205 0
vt 0.7539408 0.03437265
vt 0.74807936 0
vt 0 0
vt 0.7728236 0.21987495
vt 0.7738288 0.24572617
vt 0.7628288 0.44457328
vt 0.75001705 0.5418297
vt 0.70709205 0.70709205
vt 1 0
vt 0.2532866 0
vt 0.511788 0.22206926
vt 0.5383289 0.24391711
vt 0.8795764 0.50591236
vt 0.9639403 0.56784564
vt 1 0.5922544
vt 0.99519354 0.74209934
vt 1 0
vt 0.25192064 0
vt 0.57687527 0.32942808
vn 0.029939765 -0.77266574 0.6341066
vn 0.07590013 -0.7707816 0.63256216
vn 0.10159648 -0.7669635 0.6335971
vn -0 -0.8333439 0.5527549
vn -0.08450679 -0.8581299 0.5064303
vn -0.13275835 -0.872085 0.47100222
vn -0.18039839 -0.906997 0.38054264
vn -0.27357614 -0.9018491 0.33440137
vn -0.32143125 -0.90145415 0.28993514
vn -0.37541118 -0.90634596 0.19391616
vn -0.46615207 -0.8721201 0.14869013
vn -0.46913624 -0.877723 0.097538345
vn -0.47140226 -0.8819184 -3.051937E-05
vn 0.16257459 -0.8173287 0.5527597
vn 0.2463805 -0.81229573 0.5286515
vn 0.27153352 -0.89514196 0.35353985
vn 0.18039839 -0.906997 0.38054264
vn 0.3025949 -0.9080593 0.28959385
vn -0 -0.9247627 0.38054413
vn 0.19138385 -0.9621686 0.19391693
vn -0 -0.9810172 0.19392058
vn -0.19138385 -0.9621686 0.19391693
vn 0.37541118 -0.90634596 0.19391616
vn 0.46459526 -0.86922014 0.16913795
vn 0.47124723 -0.88163906 -0.02526991
vn 0.38268155 -0.92388034 0
vn 0.49123654 -0.8655236 -0.09775289
vn 0.19507721 -0.9807879 0
vn -0 -1 0
vn -0.19507721 -0.9807879 0
vn 0.37541118 -0.90634596 -0.19391616
vn 0.19138385 -0.9621686 -0.19391693
vn -0.38268155 -0.92388034 0
vn -0 -0.9810172 -0.19392058
vn -0.19138385 -0.9621686 -0.19391693
vn -0.37541118 -0.90634596 -0.19391616
vn -0.46251547 -0.86533576 -0.1930632
vn -0.35386813 -0.85438013 -0.38054174
vn -0.43621022 -0.81614316 -0.3789868
vn -0.41616648 -0.77861834 -0.46963698
vn -0.4032828 -0.754469 -0.5178219
vn -0.18039839 -0.906997 -0.38054264
vn -0.16257459 -0.8173287 -0.5527597
vn -0.31889513 -0.76990783 -0.55276376
vn -0.25849771 -0.7289513 -0.633884
vn -0.21574089 -0.7112216 -0.66904396
vn -0 -0.9247627 -0.38054413
vn -0.13852684 -0.69651014 -0.70404834
vn -0 -0.71015215 -0.7040482
vn -0.09647091 -0.6273813 -0.77271336
vn 0.021851433 -0.6342409 -0.7728266
vn 0.06235158 -0.63316 -0.7715054
vn 0.12384531 -0.62218696 -0.77301085
vn -0 -0.8333439 -0.5527549
vn 0.18039839 -0.906997 -0.38054264
vn 0.13852684 -0.69651014 -0.70404834
vn 0.16257459 -0.8173287 -0.5527597
vn 0.27174887 -0.6560855 -0.7040627
vn 0.22589865 -0.5929764 -0.7728835
vn 0.35386813 -0.85438013 -0.38054174
vn 0.31889513 -0.76990783 -0.55276376
vn 0.46297252 -0.6929023 -0.5527593
vn 0.39452815 -0.59046465 -0.70405895
vn 0.22589865 -0.5929764 -0.7728835
vn 0.32658705 -0.5443728 -0.7726572
vn 0.46936193 -0.5719385 -0.6727449
vn 0.51503533 -0.5771105 -0.63378394
vn 0.51375544 -0.7689242 -0.3805404
vn 0.5892607 -0.5892607 -0.55275995
vn 0.65940094 -0.54113847 -0.52188075
vn 0.57916564 -0.6657185 -0.47051677
vn 0.68246466 -0.56008375 -0.46962556
vn 0.5799567 -0.7066725 -0.4052952
vn 0.54501534 -0.8156919 -0.19392022
vn 0.6188761 -0.75410837 -0.21980202
vn 0.7789589 0.4878515 0.39398462
vn 0.7789589 0.4878515 0.39398462
vn 0.7789589 0.4878515 0.39398462
vn 0.7789589 0.4878515 0.39398462
vn 0.7789589 0.4878515 0.39398462
vn 0.7789589 0.4878515 0.39398462
vn 0.7789589 0.4878515 0.39398462
vn 0.7789589 0.4878515 0.39398462
vn 0.7789589 0.4878515 0.39398462
vn 0.7789589 0.4878515 0.39398462
vn 0.7789589 0.4878515 0.39398462
vn 0.7789589 0.4878515 0.39398462
vn 0.7789589 0.4878515 0.39398462
vn -0.58079535 0.47642207 0.6600747
vn -0.58079535 0.47642207 0.6600747
vn -0.58079535 0.47642207 0.6600747
vn -0.58079535 0.47642207 0.6600747
vn -0.58079535 0.47642207 0.6600747
vn -0.58079535 0.47642207 0.6600747
vn -0.58079535 0.47642207 0.6600747
vn -0.58079535 0.47642207 0.6600747
vn -0.58079535 0.47642207 0.6600747
vn -0.8315533 0.55544484 0.00056218146
vn -0.8315533 0.55544484 0.00056218146
vn -0.8315533 0.55544484 0.00056218146
vn -0.8315533 0.55544484 0.00056218146
vn -0.8315533 0.55544484 0.00056218146
vn -0.8315533 0.55544484 0.00056218146
vn -0.5233815 0.66574043 -0.5318472
vn -0.5233815 0.66574043 -0.5318472
vn -0.5233815 0.66574043 -0.5318472
vn -0.5233815 0.66574043 -0.5318472
vn -0.5233815 0.66574043 -0.5318472
vn -0.5233815 0.66574043 -0.5318472
vn -0.5233815 0.66574043 -0.5318472
vn -0.5233815 0.66574043 -0.5318472
vn 0.29858983 0.8151409 -0.4963762
vn 0.29858983 0.8151409 -0.4963762
vn 0.29858983 0.8151409 -0.4963762
vn 0.29858983 0.8151409 -0.4963762
vn 0.29858983 0.8151409 -0.4963762
vn 0.29858983 0.8151409 -0.4963762
vn 0.29858983 0.8151409 -0.4963762
vn -0.15758155 0.7786606 -0.6073349
vn -0.15758155 0.7786606 -0.6073349
vn -0.15758155 0.7786606 -0.6073349
vn -0.15758155 0.7786606 -0.6073349
g Sphere_cell.001_0
f 3/3/3 2/2/2 1/1/1
f 3/3/3 1/1/1 4/4/4
f 1/1/1 5/5/5 4/4/4
f 4/4/4 5/5/5 6/6/6
f 4/4/4 6/6/6 7/7/7
f 6/6/6 8/8/8 7/7/7
f 7/7/7 8/8/8 9/9/9
f 7/7/7 9/9/9 10/10/10
f 9/9/9 11/11/11 10/10/10
f 10/10/10 11/11/11 12/12/12
f 10/10/10 12/12/12 13/13/13
f 4/4/4 14/14/14 3/3/3
f 3/3/3 14/14/14 15/15/15
f 15/15/15 14/14/14 16/16/16
f 14/14/14 17/17/17 16/16/16
f 14/14/14 4/4/4 17/17/17
f 18/18/18 16/16/16 17/17/17
f 4/4/4 19/19/19 17/17/17
f 7/7/7 19/19/19 4/4/4
f 18/18/18 17/17/17 20/20/20
f 17/17/17 19/19/19 20/20/20
f 19/19/19 7/7/7 21/21/21
f 19/19/19 21/21/21 20/20/20
f 10/10/10 22/22/22 7/7/7
f 7/7/7 22/22/22 21/21/21
f 20/20/20 23/23/23 18/18/18
f 18/18/18 23/23/23 24/24/24
f 24/24/24 23/23/23 25/25/25
f 23/23/23 26/26/26 25/25/25
f 23/23/23 20/20/20 26/26/26
f 27/27/27 25/25/25 26/26/26
f 20/20/20 21/21/21 28/28/28
f 20/20/20 28/28/28 26/26/26
f 21/21/21 22/22/22 29/29/29
f 21/21/21 29/29/29 28/28/28
f 22/22/22 10/10/10 30/30/30
f 22/22/22 30/30/30 29/29/29
f 27/27/27 26/26/26 31/31/31
f 26/26/26 28/28/28 31/31/31
f 28/28/28 29/29/29 32/32/32
f 28/28/28 32/32/32 31/31/31
f 10/10/10 33/33/33 30/30/30
f 13/13/13 33/33/33 10/10/10
f 29/29/29 30/30/30 34/34/34
f 29/29/29 34/34/34 32/32/32
f 30/30/30 33/33/33 35/35/35
f 30/30/30 35/35/35 34/34/34
f 33/33/33 13/13/13 36/36/36
f 33/33/33 36/36/36 35/35/35
f 13/13/13 37/37/37 36/36/36
f 36/36/36 37/37/37 38/38/38
f 37/37/37 39/39/39 38/38/38
f 38/38/38 39/39/39 40/40/40
f 38/38/38 40/40/40 41/41/41
f 35/35/35 36/36/36 42/42/42
f 36/36/36 38/38/38 42/42/42
f 42/42/42 38/38/38 43/43/43
f 41/41/41 44/44/44 38/38/38
f 38/38/38 44/44/44 43/43/43
f 45/45/45 44/44/44 41/41/41
f 43/43/43 44/44/44 45/45/45
f 43/43/43 45/45/45 46/46/46
f 34/34/34 35/35/35 47/47/47
f 35/35/35 42/42/42 47/47/47
f 46/46/46 48/48/48 43/43/43
f 43/43/43 48/48/48 49/49/49
f 50/50/50 48/48/48 46/46/46
f 49/49/49 48/48/48 50/50/50
f 51/51/51 49/49/49 50/50/50
f 49/49/49 51/51/51 52/52/52
f 49/49/49 52/52/52 53/53/53
f 42/42/42 43/43/43 54/54/54
f 54/54/54 43/43/43 49/49/49
f 47/47/47 42/42/42 54/54/54
f 34/34/34 47/47/47 55/55/55
f 32/32/32 34/34/34 55/55/55
f 53/53/53 56/56/56 49/49/49
f 54/54/54 49/49/49 56/56/56
f 47/47/47 54/54/54 57/57/57
f 57/57/57 54/54/54 56/56/56
f 55/55/55 47/47/47 57/57/57
f 58/58/58 56/56/56 53/53/53
f 57/57/57 56/56/56 58/58/58
f 59/59/59 58/58/58 53/53/53
f 32/32/32 55/55/55 60/60/60
f 31/31/31 32/32/32 60/60/60
f 55/55/55 57/57/57 61/61/61
f 61/61/61 57/57/57 58/58/58
f 60/60/60 55/55/55 61/61/61
f 60/60/60 61/61/61 62/62/62
f 61/61/61 58/58/58 63/63/63
f 62/62/62 61/61/61 63/63/63
f 63/63/63 58/58/58 64/64/64
f 65/65/65 63/63/63 64/64/64
f 66/66/66 63/63/63 65/65/65
f 62/62/62 63/63/63 66/66/66
f 62/62/62 66/66/66 67/67/67
f 31/31/31 60/60/60 68/68/68
f 68/68/68 60/60/60 62/62/62
f 67/67/67 69/69/69 62/62/62
f 70/70/70 69/69/69 67/67/67
f 62/62/62 69/69/69 71/71/71
f 71/71/71 69/69/69 70/70/70
f 71/71/71 68/68/68 62/62/62
f 72/72/72 71/71/71 70/70/70
f 71/71/71 73/73/73 68/68/68
f 74/74/74 31/31/31 68/68/68
f 74/74/74 68/68/68 73/73/73
f 31/31/31 74/74/74 27/27/27
f 75/75/75 74/74/74 73/73/73
f 27/27/27 74/74/74 75/75/75
f 78/78/78 77/77/77 76/76/76
f 76/76/76 79/79/79 78/78/78
f 76/76/76 80/80/80 79/79/79
f 76/76/76 81/81/81 80/80/80
f 81/81/81 82/82/82 80/80/80
f 82/82/82 83/83/83 80/80/80
f 82/82/82 84/84/84 83/83/83
f 84/84/84 85/85/85 83/83/83
f 84/84/84 86/86/86 85/85/85
f 84/84/84 87/87/87 86/86/86
f 87/87/87 88/88/88 86/86/86
f 91/91/91 90/90/90 89/89/89
f 89/89/89 92/92/92 91/91/91
f 89/89/89 93/93/93 92/92/92
f 93/93/93 94/94/94 92/92/92
f 93/93/93 95/95/95 94/94/94
f 93/93/93 96/96/96 95/95/95
f 93/93/93 97/97/97 96/96/96
f 100/100/100 99/99/99 98/98/98
f 98/98/98 101/101/101 100/100/100
f 101/101/101 102/102/102 100/100/100
f 101/101/101 103/103/103 102/102/102
f 106/106/106 105/105/105 104/104/104
f 104/104/104 107/107/107 106/106/106
f 107/107/107 108/108/108 106/106/106
f 108/108/108 109/109/109 106/106/106
f 109/109/109 110/110/110 106/106/106
f 110/110/110 111/111/111 106/106/106
f 114/114/114 113/113/113 112/112/112
f 112/112/112 115/115/115 114/114/114
f 112/112/112 116/116/116 115/115/115
f 112/112/112 117/117/117 116/116/116
f 112/112/112 118/118/118 117/117/117
f 121/121/121 120/120/120 119/119/119
f 122/122/122 121/121/121 119/119/119
