g Sphere_cell.087_cell.003
v 0.0779386 0.16937532 0.065449305
v 0.06778152 0.16224016 0.08736277
v 0.05747722 0.1579317 0.086658664
v 0.052067623 0.16245188 0.033197172
v 0.03436132 0.15770234 0.011208783
v -0.0030757557 0.14762773 -0.03502451
v -0.22815919 0.0461389 -0.0043216827
v -0.035461474 0.1388432 -0.07506285
v -0.16725881 0.068231 0.028490432
v -0.14630719 0.07644929 0.035016365
v -0.031125132 0.12200511 0.06802351
v 0.03275128 0.1475643 0.08407272
v 0.03914826 0.15016092 0.08539618
v 0.06778152 0.16224016 0.08736277
v 0.0779386 0.16937532 0.065449305
v 0.11532501 0.13595165 0.08496899
v 0.10907874 0.13674463 0.08539618
v 0.07457651 0.15838064 0.08719242
v 0.10942883 -0.17947944 -0.05092339
v 0.10091058 -0.186009 -0.04418443
v 0.10907871 -0.176179 -0.038500234
v 0.1380028 -0.15752871 -0.073599555
v 0.17211701 -0.102441154 -0.0024052744
v 0.03520303 -0.120401464 -0.1614379
v 0.1380028 -0.15752871 -0.073599555
v 0.17211701 -0.102441154 -0.0024052744
v 0.052067623 0.16245188 0.033197172
v 0.16759758 -0.04508457 0.028490432
v 0.11532501 0.13595165 0.08496899
v 0.0779386 0.16937532 0.065449305
v -0.0031429897 -0.08305797 -0.17933449
v 0.03436132 0.15770234 0.011208783
v -0.035461474 0.1388432 -0.07506285
v -0.0030757557 0.14762773 -0.03502451
v -0.2280994 -0.10342177 -0.062558986
v -0.19817421 -0.12101086 -0.059665125
v -0.0031429897 -0.08305797 -0.17933449
v -0.056218594 -0.18851143 -0.06017546
v -0.09907325 -0.17068823 -0.057696264
v 0.03520303 -0.120401464 -0.1614379
v -0.023735587 -0.2017141 -0.061896723
v -0.2280994 -0.10342177 -0.062558986
v -0.0031429897 -0.08305797 -0.17933449
v -0.035461474 0.1388432 -0.07506285
v -0.22815919 0.0461389 -0.0043216827
v -0.23086956 -0.008113003 -0.023932382
v -0.19817421 -0.12101086 -0.059665125
v -0.2280994 -0.10342177 -0.062558986
v -0.23086956 -0.008113003 -0.023932382
v -0.16151921 0.06123723 0.028490432
v -0.16725881 0.068231 0.028490432
v -0.22815919 0.0461389 -0.0043216827
v -0.14630719 0.07644929 0.035016365
v -0.10352873 0.01364555 0.028490432
v -0.037367824 -0.02171812 0.028490432
v -0.09907325 -0.17068823 -0.057696264
v -0.031125132 0.12200511 0.06802351
v -0.056218594 -0.18851143 -0.06017546
v -0.023735587 -0.2017141 -0.061896723
v 0.03275128 0.1475643 0.08407272
v 0.034420926 -0.043494795 0.028490432
v 0.03914826 0.15016092 0.08539618
v 0.003411017 -0.19939238 -0.056470852
v 0.04234283 -0.19408041 -0.05158208
v 0.10091058 -0.186009 -0.04418443
v 0.10907871 -0.176179 -0.038500234
v 0.10907871 -0.050848097 0.028490432
v 0.17211701 -0.102441154 -0.0024052744
v 0.16759758 -0.04508457 0.028490432
v 0.0710185 0.14049329 0.08539618
v 0.10907874 0.13674463 0.08539618
v 0.11532501 0.13595165 0.08496899
v 0.07457651 0.15838064 0.08719242
v 0.06778152 0.16224016 0.08736277
v 0.05747722 0.1579317 0.086658664
v -0.023735587 -0.2017141 -0.061896723
v 0.003411017 -0.19939238 -0.056470852
v 0.04234283 -0.19408041 -0.05158208
v 0.03520303 -0.120401464 -0.1614379
v 0.1380028 -0.15752871 -0.073599555
v 0.10942883 -0.17947944 -0.05092339
v 0.10091058 -0.186009 -0.04418443
vn -0.38991144 0.91342974 0.116683826
vn -0.38991144 0.91342974 0.116683826
vn -0.38991144 0.91342974 0.116683826
vn -0.38991144 0.91342974 0.116683826
vn -0.38991144 0.91342974 0.116683826
vn -0.38991144 0.91342974 0.116683826
vn -0.39453712 0.91112447 0.11913284
vn -0.39453712 0.91112447 0.11913284
vn -0.39453712 0.91112447 0.11913284
vn -0.39453712 0.91112447 0.11913284
vn -0.39453712 0.91112447 0.11913284
vn -0.39453712 0.91112447 0.11913284
vn -0.39453712 0.91112447 0.11913284
vn 0.43455335 0.7383619 0.5157373
vn 0.43455335 0.7383619 0.5157373
vn 0.43455335 0.7383619 0.5157373
vn 0.43455335 0.7383619 0.5157373
vn 0.43455335 0.7383619 0.5157373
vn 0.6928113 -0.69185793 0.20333467
vn 0.6928113 -0.69185793 0.20333467
vn 0.6928113 -0.69185793 0.20333467
vn 0.6928113 -0.69185793 0.20333467
vn 0.6928113 -0.69185793 0.20333467
vn 0.67550933 0.39022687 -0.6256277
vn 0.67550933 0.39022687 -0.6256277
vn 0.67550933 0.39022687 -0.6256277
vn 0.67550933 0.39022687 -0.6256277
vn 0.67550933 0.39022687 -0.6256277
vn 0.67550933 0.39022687 -0.6256277
vn 0.67550933 0.39022687 -0.6256277
vn 0.67078704 0.39319074 -0.62884474
vn 0.67078704 0.39319074 -0.62884474
vn 0.67078704 0.39319074 -0.62884474
vn 0.67078704 0.39319074 -0.62884474
vn -0.30778536 -0.6395503 -0.70444554
vn -0.30778536 -0.6395503 -0.70444554
vn -0.30778536 -0.6395503 -0.70444554
vn -0.29923385 -0.64448005 -0.7036366
vn -0.307149 -0.64062226 -0.7037489
vn -0.29923385 -0.64448005 -0.7036366
vn -0.29923385 -0.64448005 -0.7036366
vn -0.45896718 0.32221642 -0.8279648
vn -0.45896718 0.32221642 -0.8279648
vn -0.45896718 0.32221642 -0.8279648
vn -0.45896718 0.32221642 -0.8279648
vn -0.45896718 0.32221642 -0.8279648
vn -0.2659154 -0.38979357 0.88167447
vn -0.30016166 -0.3657486 0.880983
vn -0.31492588 -0.3514877 0.8816338
vn -0.27427542 -0.27427542 0.9217083
vn -0.31047595 -0.2547777 0.9158019
vn -0.3657486 -0.30016166 0.880983
vn -0.19007483 -0.22035009 0.9567222
vn -0.21580152 -0.32264933 0.9215894
vn -0.14899637 -0.35832983 0.9216289
vn -0.18028034 -0.43591404 0.881747
vn -0.14628083 -0.25129902 0.95679194
vn -0.137338 -0.4527881 0.88097745
vn -0.137338 -0.4527881 0.88097745
vn -0.097631074 -0.27372712 0.9568394
vn -0.0756573 -0.38042286 0.9217128
vn -0.07239023 -0.23871687 0.96838725
vn -0.10196415 -0.46031886 0.88187855
vn -0.0463591 -0.47088516 0.88097554
vn -0.0463591 -0.47088516 0.88097554
vn -0.02722287 -0.471212 0.8815998
vn -0 -0.38787007 0.92171407
vn 0.0463591 -0.47088516 0.88097554
vn 0.038118627 -0.38722914 0.9211952
vn -0.0391865 -0.19709224 0.9796015
vn -0.0031434319 -0.26578784 0.96402645
vn 0.02856577 -0.29014397 0.95655656
vn -0.02121048 -0.09570657 0.9951835
vn -0.028565964 -0.094243266 0.99513924
vn -0.028565964 -0.094243266 0.99513924
vn 0.1805143 -0.8113945 -0.5559257
vn 0.1805143 -0.8113945 -0.5559257
vn 0.1805143 -0.8113945 -0.5559257
vn 0.1805143 -0.8113945 -0.5559257
vn 0.18199608 -0.8111223 -0.55584
vn 0.18199608 -0.8111223 -0.55584
vn 0.18199608 -0.8111223 -0.55584
g Sphere_cell.087_cell.003_0
f 3/3/3 2/2/2 1/1/1
f 3/3/3 1/1/1 4/4/4
f 3/3/3 4/4/4 5/5/5
f 5/5/5 6/6/6 3/3/3
f 7/7/7 3/3/3 6/6/6
f 6/6/6 8/8/8 7/7/7
f 7/7/7 9/9/9 3/3/3
f 9/9/9 10/10/10 3/3/3
f 10/10/10 11/11/11 3/3/3
f 11/11/11 12/12/12 3/3/3
f 12/12/12 13/13/13 3/3/3
f 16/16/16 15/15/15 14/14/14
f 14/14/14 17/17/17 16/16/16
f 14/14/14 18/18/18 17/17/17
f 21/21/21 20/20/20 19/19/19
f 19/19/19 22/22/22 21/21/21
f 22/22/22 23/23/23 21/21/21
f 26/26/26 25/25/25 24/24/24
f 24/24/24 27/27/27 26/26/26
f 27/27/27 28/28/28 26/26/26
f 27/27/27 29/29/29 28/28/28
f 27/27/27 30/30/30 29/29/29
f 24/24/24 31/31/31 27/27/27
f 31/31/31 32/32/32 27/27/27
f 31/31/31 33/33/33 32/32/32
f 33/33/33 34/34/34 32/32/32
f 37/37/37 36/36/36 35/35/35
f 37/37/37 38/38/38 36/36/36
f 38/38/38 39/39/39 36/36/36
f 37/37/37 40/40/40 38/38/38
f 40/40/40 41/41/41 38/38/38
f 44/44/44 43/43/43 42/42/42
f 42/42/42 45/45/45 44/44/44
f 42/42/42 46/46/46 45/45/45
f 49/49/49 48/48/48 47/47/47
f 50/50/50 49/49/49 47/47/47
f 50/50/50 51/51/51 49/49/49
f 51/51/51 52/52/52 49/49/49
f 53/53/53 51/51/51 50/50/50
f 50/50/50 54/54/54 53/53/53
f 47/47/47 54/54/54 50/50/50
f 55/55/55 54/54/54 47/47/47
f 56/56/56 55/55/55 47/47/47
f 54/54/54 57/57/57 53/53/53
f 54/54/54 55/55/55 57/57/57
f 55/55/55 56/56/56 58/58/58
f 55/55/55 58/58/58 59/59/59
f 55/55/55 60/60/60 57/57/57
f 60/60/60 55/55/55 61/61/61
f 62/62/62 60/60/60 61/61/61
f 55/55/55 59/59/59 63/63/63
f 63/63/63 61/61/61 55/55/55
f 61/61/61 63/63/63 64/64/64
f 61/61/61 64/64/64 65/65/65
f 61/61/61 65/65/65 66/66/66
f 66/66/66 67/67/67 61/61/61
f 67/67/67 66/66/66 68/68/68
f 69/69/69 67/67/67 68/68/68
f 61/61/61 70/70/70 62/62/62
f 70/70/70 61/61/61 67/67/67
f 67/67/67 69/69/69 71/71/71
f 71/71/71 70/70/70 67/67/67
f 69/69/69 72/72/72 71/71/71
f 70/70/70 71/71/71 73/73/73
f 70/70/70 73/73/73 74/74/74
f 74/74/74 62/62/62 70/70/70
f 74/74/74 75/75/75 62/62/62
f 78/78/78 77/77/77 76/76/76
f 79/79/79 78/78/78 76/76/76
f 78/78/78 79/79/79 80/80/80
f 80/80/80 81/81/81 78/78/78
f 81/81/81 82/82/82 78/78/78
