g Sphere_cell.003_cell.004
v 0.052603833 0.05594288 -0.18402894
v 0.02974027 0.13371383 -0.13375105
v -0.0010918378 0.13084684 -0.13969804
v 0.052603833 0.05594288 -0.18402894
v -0.0010918378 0.13084684 -0.13969804
v -0.02545252 0.12181769 -0.095877476
v 0.07559865 -0.068925254 -0.15181722
v 0.08734476 -0.13382493 -0.13474782
v 0.07473301 -0.15483843 -0.10304058
v -0.07928508 0.0015810688 0.05747536
v -0.0087492755 -0.16876851 0.038807724
v -0.08185878 0.007863875 0.058119148
v -0.08375051 0.012628192 0.058511168
v -0.08551671 0.018177861 0.05826518
v -0.09019061 0.034634702 0.056630284
v -0.0979483 0.062158454 0.053800732
v -0.062478177 0.108013496 -0.028693635
v -0.07114338 0.10606538 -0.013683697
v 0.087251954 -0.1452261 -0.114193864
v 0.08734476 -0.13382493 -0.13474782
v 0.07473301 -0.15483843 -0.10304058
v 0.087203555 -0.14934264 -0.10665143
v 0.072124 -0.13711296 -0.005120657
v 0.087203555 -0.14934264 -0.10665143
v 0.07473301 -0.15483843 -0.10304058
v -0.0087492755 -0.16876851 0.038807724
v 0.025339242 -0.15186726 0.038608287
v 0.06522744 -0.13256584 0.03564057
v -0.027669813 0.103608 0.048470825
v -0.0979483 0.062158454 0.053800732
v -0.07114338 0.10606538 -0.013683697
v -0.050671063 0.089813344 0.0507479
v -0.06905263 0.07890021 0.052309543
v -0.08185869 0.0713936 0.053173095
v -0.09200596 0.06553375 0.05365184
v -0.07114338 0.10606538 -0.013683697
v -0.062478177 0.108013496 -0.028693635
v 0.013754873 0.10678564 0.045667086
v -0.027669813 0.103608 0.048470825
v -0.021792172 0.10441576 0.04812613
v -0.02545252 0.12181769 -0.095877476
v -0.0010918378 0.13084684 -0.13969804
v 0.02974027 0.13371383 -0.13375105
v 0.013754873 0.10678564 0.045667086
v -0.062478177 0.108013496 -0.028693635
v -0.050671063 0.089813344 0.0507479
v -0.027669813 0.103608 0.048470825
v -0.021792172 0.10441576 0.04812613
v -0.08375051 0.012628192 0.058511168
v -0.06905263 0.07890021 0.052309543
v 0.013754873 0.10678564 0.045667086
v -0.08185869 0.0713936 0.053173095
v 0.018976806 0.08189594 0.04683027
v 0.024003353 0.058194507 0.047494143
v 0.028609123 0.036493175 0.04768142
v 0.0333268 0.0145200435 0.04742989
v 0.038525756 -0.0094260005 0.04668555
v 0.044780012 -0.037935376 0.045274172
v -0.09200596 0.06553375 0.05365184
v 0.053136848 -0.07568108 0.04278383
v -0.09019061 0.034634702 0.056630284
v -0.0979483 0.062158454 0.053800732
v -0.08551671 0.018177861 0.05826518
v 0.0560913 -0.12342964 0.039559934
v 0.062144212 -0.11605416 0.039559934
v 0.06522744 -0.13256584 0.03564057
v 0.025339242 -0.15186726 0.038608287
v -0.0087492755 -0.16876851 0.038807724
v -0.07928508 0.0015810688 0.05747536
v -0.08185878 0.007863875 0.058119148
v 0.087251954 -0.1452261 -0.114193864
v 0.087203555 -0.14934264 -0.10665143
v 0.072124 -0.13711296 -0.005120657
v 0.08734476 -0.13382493 -0.13474782
v 0.06522744 -0.13256584 0.03564057
v 0.07559865 -0.068925254 -0.15181722
v 0.062144212 -0.11605416 0.039559934
v 0.053136848 -0.07568108 0.04278383
v 0.044780012 -0.037935376 0.045274172
v 0.024003353 0.058194507 0.047494143
v 0.038525756 -0.0094260005 0.04668555
v 0.052603833 0.05594288 -0.18402894
v 0.0333268 0.0145200435 0.04742989
v 0.028609123 0.036493175 0.04768142
v 0.02974027 0.13371383 -0.13375105
v 0.018976806 0.08189594 0.04683027
v 0.013754873 0.10678564 0.045667086
vn 0.106044166 0.56165045 -0.8205506
vn 0.106044166 0.56165045 -0.8205506
vn 0.106044166 0.56165045 -0.8205506
vn -0.81304246 -0.28120944 -0.5097873
vn -0.81304246 -0.28120944 -0.5097873
vn -0.81304246 -0.28120944 -0.5097873
vn -0.81304246 -0.28120944 -0.5097873
vn -0.81304246 -0.28120944 -0.5097873
vn -0.81304246 -0.28120944 -0.5097873
vn -0.81459683 -0.28179792 -0.50697345
vn -0.81459683 -0.28179792 -0.50697345
vn -0.81459683 -0.28179792 -0.50697345
vn -0.81459683 -0.28179792 -0.50697345
vn -0.81459683 -0.28179792 -0.50697345
vn -0.81459683 -0.28179792 -0.50697345
vn -0.81459683 -0.28179792 -0.50697345
vn -0.81459683 -0.28179792 -0.50697345
vn -0.81459683 -0.28179792 -0.50697345
vn 0.23372479 -0.8507028 -0.47082624
vn 0.23372479 -0.8507028 -0.47082624
vn 0.23372479 -0.8507028 -0.47082624
vn 0.24141353 -0.85246193 -0.46371132
vn 0.4384357 -0.88226944 0.17139074
vn 0.4384357 -0.88226944 0.17139074
vn 0.4384357 -0.88226944 0.17139074
vn 0.4384357 -0.88226944 0.17139074
vn 0.4384357 -0.88226944 0.17139074
vn 0.43941045 -0.8815318 0.17268497
vn -0.45576972 0.8179163 0.3511226
vn -0.45576972 0.8179163 0.3511226
vn -0.45576972 0.8179163 0.3511226
vn -0.4557553 0.8178994 0.35118023
vn -0.4557553 0.8178994 0.35118023
vn -0.45580786 0.81798595 0.3509103
vn -0.45597208 0.8181384 0.3503413
vn -0.07047891 0.9938752 0.085115805
vn -0.07047891 0.9938752 0.085115805
vn -0.07047891 0.9938752 0.085115805
vn -0.07047891 0.9938752 0.085115805
vn -0.07047891 0.9938752 0.085115805
vn -0.11789966 0.98351467 0.13710739
vn -0.11789966 0.98351467 0.13710739
vn -0.11789966 0.98351467 0.13710739
vn -0.11789966 0.98351467 0.13710739
vn -0.11789966 0.98351467 0.13710739
vn 0.047212288 0.08008082 0.9956696
vn 0.050600182 0.07867748 0.9956151
vn 0.060518555 0.07181047 0.9955806
vn 0.079318285 0.024018275 0.9965599
vn 0.028657533 0.08682713 0.9958111
vn 0.06863803 0.064701036 0.9955414
vn 0.00802647 0.09018334 0.99589276
vn 0.07577797 0.055452507 0.99558157
vn 0.08585049 0.037630163 0.9955972
vn 0.09207531 0.018219741 0.9955853
vn 0.09424144 -0.0020142277 0.9955473
vn 0.09225775 -0.022248063 0.99548656
vn 0.0861558 -0.041536678 0.99541545
vn -0.0011292072 0.09277811 0.9956862
vn 0.076510355 -0.05874848 0.9953366
vn 0.009674547 0.0974169 0.99519664
vn 0.005615462 0.096256346 0.9953407
vn 0.81459373 0.28172472 0.50701904
vn 0.136542 -0.14417174 0.98008716
vn 0.117771804 -0.09796514 0.9881967
vn 0.1958408 -0.21461004 0.95686406
vn 0.06259437 -0.10141448 0.9928731
vn 0.04986813 -0.08743708 0.994921
vn 0.8145881 0.28169227 0.5070461
vn 0.8143504 0.28160292 0.50747734
vn 0.9711331 0.20635916 0.11965067
vn 0.9711331 0.20635916 0.11965067
vn 0.9711331 0.20635916 0.11965067
vn 0.9711331 0.20635916 0.11965067
vn 0.9711331 0.20635916 0.11965067
vn 0.9711331 0.20635916 0.11965067
vn 0.9711331 0.20635916 0.11965067
vn 0.9711331 0.20635916 0.11965067
vn 0.9711331 0.20635916 0.11965067
vn 0.9711331 0.20635916 0.11965067
vn 0.9711331 0.20635916 0.11965067
vn 0.97074664 0.20917554 0.117883846
vn 0.9711331 0.20635916 0.11965067
vn 0.9711331 0.20635916 0.11965067
vn 0.97074664 0.20917554 0.117883846
vn 0.97074664 0.20917554 0.117883846
vn 0.97074664 0.20917554 0.117883846
g Sphere_cell.003_cell.004_0
f 3/3/3 2/2/2 1/1/1
f 6/6/6 5/5/5 4/4/4
f 6/6/6 4/4/4 7/7/7
f 6/6/6 7/7/7 8/8/8
f 8/8/8 9/9/9 6/6/6
f 10/10/10 6/6/6 9/9/9
f 9/9/9 11/11/11 10/10/10
f 10/10/10 12/12/12 6/6/6
f 12/12/12 13/13/13 6/6/6
f 13/13/13 14/14/14 6/6/6
f 14/14/14 15/15/15 6/6/6
f 15/15/15 16/16/16 6/6/6
f 16/16/16 17/17/17 6/6/6
f 16/16/16 18/18/18 17/17/17
f 21/21/21 20/20/20 19/19/19
f 21/21/21 19/19/19 22/22/22
f 25/25/25 24/24/24 23/23/23
f 23/23/23 26/26/26 25/25/25
f 23/23/23 27/27/27 26/26/26
f 23/23/23 28/28/28 27/27/27
f 31/31/31 30/30/30 29/29/29
f 32/32/32 29/29/29 30/30/30
f 33/33/33 32/32/32 30/30/30
f 34/34/34 33/33/33 30/30/30
f 35/35/35 34/34/34 30/30/30
f 38/38/38 37/37/37 36/36/36
f 36/36/36 39/39/39 38/38/38
f 39/39/39 40/40/40 38/38/38
f 43/43/43 42/42/42 41/41/41
f 41/41/41 44/44/44 43/43/43
f 41/41/41 45/45/45 44/44/44
f 48/48/48 47/47/47 46/46/46
f 49/49/49 48/48/48 46/46/46
f 49/49/49 46/46/46 50/50/50
f 49/49/49 51/51/51 48/48/48
f 49/49/49 50/50/50 52/52/52
f 49/49/49 53/53/53 51/51/51
f 49/49/49 54/54/54 53/53/53
f 49/49/49 55/55/55 54/54/54
f 49/49/49 56/56/56 55/55/55
f 49/49/49 57/57/57 56/56/56
f 49/49/49 58/58/58 57/57/57
f 49/49/49 52/52/52 59/59/59
f 49/49/49 60/60/60 58/58/58
f 49/49/49 59/59/59 61/61/61
f 59/59/59 62/62/62 61/61/61
f 49/49/49 61/61/61 63/63/63
f 49/49/49 64/64/64 60/60/60
f 64/64/64 65/65/65 60/60/60
f 65/65/65 64/64/64 66/66/66
f 64/64/64 67/67/67 66/66/66
f 49/49/49 67/67/67 64/64/64
f 49/49/49 68/68/68 67/67/67
f 49/49/49 69/69/69 68/68/68
f 49/49/49 70/70/70 69/69/69
f 73/73/73 72/72/72 71/71/71
f 71/71/71 74/74/74 73/73/73
f 74/74/74 75/75/75 73/73/73
f 74/74/74 76/76/76 75/75/75
f 76/76/76 77/77/77 75/75/75
f 76/76/76 78/78/78 77/77/77
f 76/76/76 79/79/79 78/78/78
f 76/76/76 80/80/80 79/79/79
f 80/80/80 81/81/81 79/79/79
f 80/80/80 76/76/76 82/82/82
f 80/80/80 83/83/83 81/81/81
f 80/80/80 84/84/84 83/83/83
f 82/82/82 85/85/85 80/80/80
f 85/85/85 86/86/86 80/80/80
f 85/85/85 87/87/87 86/86/86
