g Sphere_cell.020_cell.002
v -0.18066007 -0.19410457 -0.076556206
v -0.109820426 -0.21317472 0.047517583
v -0.13004333 -0.20338692 -0.027295355
v -0.103033066 -0.21209587 0.061883435
v -0.109820426 -0.21317472 0.047517583
v -0.18066007 -0.19410457 -0.076556206
v -0.05381352 0.019345356 0.20453879
v -0.03165234 -0.022890253 0.18976548
v -0.09331638 -0.17650548 0.088105544
v -0.18432826 0.10984379 -0.0149203
v -0.074469514 0.15890151 0.19806728
v -0.061406318 0.084912844 0.20547023
v -0.05708683 0.047298975 0.20496562
v -0.18770038 -0.020196123 -0.050330043
v -0.09331638 -0.17650548 0.088105544
v -0.05381352 0.019345356 0.20453879
v -0.19187348 -0.18698588 -0.095600985
v -0.18066007 -0.19410457 -0.076556206
v -0.103033066 -0.21209587 0.061883435
v 0.06194685 0.009982421 -0.22583017
v 0.048959 0.0043957974 -0.23865071
v -0.13004333 -0.20338692 -0.027295355
v 0.06592295 0.011688783 -0.22189361
v -0.109820426 -0.21317472 0.047517583
v 0.20045133 0.07173497 -0.08775136
v 0.17559358 0.034940314 -0.03446615
v 0.120890826 -0.032022636 0.040225852
v 0.09547147 -0.060774483 0.06774883
v 0.08967326 -0.06706826 0.0740587
v -0.103033066 -0.21209587 0.061883435
v 0.048959 0.0043957974 -0.23865071
v 0.026005253 0.005869939 -0.25666085
v -0.09152318 -0.09811893 -0.16993015
v -0.13004333 -0.20338692 -0.027295355
v -0.17822409 -0.17496696 -0.10573145
v -0.18066007 -0.19410457 -0.076556206
v -0.19187348 -0.18698588 -0.095600985
v -0.18432826 0.10984379 -0.0149203
v 0.015293824 0.18030864 -0.1938979
v 0.14940962 0.23589401 -0.06192237
v 0.13548693 0.23147802 -0.03446615
v 0.01823114 0.19166498 0.117070414
v -0.074469514 0.15890151 0.19806728
v -0.03165234 -0.022890253 0.18976548
v -0.103033066 -0.21209587 0.061883435
v -0.09331638 -0.17650548 0.088105544
v 0.013916003 -0.032022636 0.15310667
v 0.056815486 -0.042285364 0.117070414
v 0.08967326 -0.06706826 0.0740587
v -0.18770038 -0.020196123 -0.050330043
v -0.19187348 -0.18698588 -0.095600985
v -0.17822409 -0.17496696 -0.10573145
v -0.09152318 -0.09811893 -0.16993015
v 0.026005253 0.005869939 -0.25666085
v -0.18432826 0.10984379 -0.0149203
v 0.015293824 0.18030864 -0.1938979
v 0.026005253 0.005869939 -0.25666085
v 0.048959 0.0043957974 -0.23865071
v 0.06194685 0.009982421 -0.22583017
v 0.015293824 0.18030864 -0.1938979
v 0.06592295 0.011688783 -0.22189361
v 0.14940962 0.23589401 -0.06192237
v 0.1866053 0.13424546 -0.07336575
v 0.20045133 0.07173497 -0.08775136
v -0.061406318 0.084912844 0.20547023
v -0.074469514 0.15890151 0.19806728
v 0.01823114 0.19166498 0.117070414
v 0.044239387 0.10592705 0.117070414
v 0.16621241 0.130189 -0.03446615
v 0.13548693 0.23147802 -0.03446615
v 0.1866053 0.13424546 -0.07336575
v 0.14940962 0.23589401 -0.06192237
v 0.20045133 0.07173497 -0.08775136
v 0.17559358 0.034940314 -0.03446615
v 0.057826262 -0.032022636 0.117070414
v 0.120890826 -0.032022636 0.040225852
v 0.013916003 -0.032022636 0.15310667
v -0.03165234 -0.022890253 0.18976548
v -0.05381352 0.019345356 0.20453879
v -0.05708683 0.047298975 0.20496562
v 0.056815486 -0.042285364 0.117070414
v 0.09547147 -0.060774483 0.06774883
v 0.08967326 -0.06706826 0.0740587
vn -0.07539802 -0.99114615 -0.10929092
vn -0.07539802 -0.99114615 -0.10929092
vn -0.07539802 -0.99114615 -0.10929092
vn -0.83330923 -0.35868075 0.42064688
vn -0.83330923 -0.35868075 0.42064688
vn -0.83330923 -0.35868075 0.42064688
vn -0.2856682 -0.44649345 0.8479607
vn -0.2856682 -0.44649345 0.8479607
vn -0.2856682 -0.44649345 0.8479607
vn -0.8734817 -0.10674836 0.47500995
vn -0.8734817 -0.10674836 0.47500995
vn -0.8734817 -0.10674836 0.47500995
vn -0.8734817 -0.10674836 0.47500995
vn -0.8734817 -0.10674836 0.47500995
vn -0.8734817 -0.10674836 0.47500995
vn -0.8708277 -0.10929015 0.47928587
vn -0.8734817 -0.10674836 0.47500995
vn -0.8734817 -0.10674836 0.47500995
vn -0.8729022 -0.1116203 0.47495544
vn 0.5858411 -0.76798075 -0.25883523
vn 0.5858411 -0.76798075 -0.25883523
vn 0.5858411 -0.76798075 -0.25883523
vn 0.5858411 -0.76798075 -0.25883523
vn 0.5858411 -0.76798075 -0.25883523
vn 0.59269595 -0.7650345 -0.25186056
vn 0.59269595 -0.7650345 -0.25186056
vn 0.59269595 -0.7650345 -0.25186056
vn 0.59511507 -0.77202475 -0.2231946
vn 0.59511507 -0.77202475 -0.2231946
vn 0.59511507 -0.77202475 -0.2231946
vn 0.33916453 -0.7983465 -0.49760434
vn 0.33916453 -0.7983465 -0.49760434
vn 0.33916453 -0.7983465 -0.49760434
vn 0.33916453 -0.7983465 -0.49760434
vn 0.33916453 -0.7983465 -0.49760434
vn 0.33649468 -0.8000409 -0.49669492
vn 0.33649468 -0.8000409 -0.49669492
vn -0.35695153 0.9336162 -0.030763613
vn -0.35695153 0.9336162 -0.030763613
vn -0.35695153 0.9336162 -0.030763613
vn -0.35695153 0.9336162 -0.030763613
vn -0.35695153 0.9336162 -0.030763613
vn -0.35695153 0.9336162 -0.030763613
vn 0.3988298 -0.6120311 0.6829002
vn 0.3988298 -0.6120311 0.6829002
vn 0.3988298 -0.6120311 0.6829002
vn 0.41788507 -0.6116852 0.67172396
vn 0.41788507 -0.6116852 0.67172396
vn 0.41788507 -0.6116852 0.67172396
vn -0.6932419 0.20489116 -0.69096696
vn -0.6932419 0.20489116 -0.69096696
vn -0.6932419 0.20489116 -0.69096696
vn -0.6932419 0.20489116 -0.69096696
vn -0.69255924 0.20619006 -0.69126505
vn -0.69255924 0.20619006 -0.69126505
vn -0.69255924 0.20619006 -0.69126505
vn 0.6002167 0.30316427 -0.74015623
vn 0.6002167 0.30316427 -0.74015623
vn 0.6002167 0.30316427 -0.74015623
vn 0.6002167 0.30316427 -0.74015623
vn 0.6015272 0.30331212 -0.7390309
vn 0.6015272 0.30331212 -0.7390309
vn 0.6015272 0.30331212 -0.7390309
vn 0.6015272 0.30331212 -0.7390309
vn 0.6227118 0.121130325 0.7730184
vn 0.6088339 0.18467359 0.771503
vn 0.67944074 0.20609365 0.7041915
vn 0.69651014 0.13852684 0.70404834
vn 0.8173287 0.16257457 0.5527597
vn 0.797285 0.24183458 0.55303943
vn 0.8669053 0.16211936 0.47137305
vn 0.8448548 0.25626722 0.46962485
vn 0.8786145 0.086521655 0.46962798
vn 0.8098842 0.07974628 0.58114386
vn 0.71015215 0 0.7040482
vn 0.77225065 0.0445271 0.63375574
vn 0.63342625 0.05520926 0.771831
vn 0.63315994 0.06235158 0.7715054
vn 0.63315994 0.06235158 0.7715054
vn 0.63315994 0.06235158 0.7715054
vn 0.71493 -0.070406534 0.69564223
vn 0.7707816 -0.07590013 0.6325621
vn 0.7707816 -0.07590013 0.6325621
g Sphere_cell.020_cell.002_0
f 3/3/3 2/2/2 1/1/1
f 6/6/6 5/5/5 4/4/4
f 9/9/9 8/8/8 7/7/7
f 12/12/12 11/11/11 10/10/10
f 13/13/13 12/12/12 10/10/10
f 13/13/13 10/10/10 14/14/14
f 15/15/15 13/13/13 14/14/14
f 15/15/15 16/16/16 13/13/13
f 15/15/15 14/14/14 17/17/17
f 17/17/17 18/18/18 15/15/15
f 15/15/15 18/18/18 19/19/19
f 22/22/22 21/21/21 20/20/20
f 20/20/20 23/23/23 22/22/22
f 23/23/23 24/24/24 22/22/22
f 24/24/24 23/23/23 25/25/25
f 25/25/25 26/26/26 24/24/24
f 26/26/26 27/27/27 24/24/24
f 27/27/27 28/28/28 24/24/24
f 24/24/24 28/28/28 29/29/29
f 30/30/30 24/24/24 29/29/29
f 33/33/33 32/32/32 31/31/31
f 31/31/31 34/34/34 33/33/33
f 34/34/34 35/35/35 33/33/33
f 34/34/34 36/36/36 35/35/35
f 36/36/36 37/37/37 35/35/35
f 40/40/40 39/39/39 38/38/38
f 38/38/38 41/41/41 40/40/40
f 38/38/38 42/42/42 41/41/41
f 38/38/38 43/43/43 42/42/42
f 46/46/46 45/45/45 44/44/44
f 47/47/47 44/44/44 45/45/45
f 48/48/48 47/47/47 45/45/45
f 45/45/45 49/49/49 48/48/48
f 52/52/52 51/51/51 50/50/50
f 53/53/53 52/52/52 50/50/50
f 54/54/54 53/53/53 50/50/50
f 50/50/50 55/55/55 54/54/54
f 55/55/55 56/56/56 54/54/54
f 59/59/59 58/58/58 57/57/57
f 60/60/60 59/59/59 57/57/57
f 61/61/61 59/59/59 60/60/60
f 61/61/61 60/60/60 62/62/62
f 61/61/61 62/62/62 63/63/63
f 63/63/63 64/64/64 61/61/61
f 67/67/67 66/66/66 65/65/65
f 68/68/68 67/67/67 65/65/65
f 68/68/68 69/69/69 67/67/67
f 69/69/69 70/70/70 67/67/67
f 69/69/69 71/71/71 70/70/70
f 71/71/71 72/72/72 70/70/70
f 71/71/71 69/69/69 73/73/73
f 69/69/69 74/74/74 73/73/73
f 74/74/74 69/69/69 68/68/68
f 74/74/74 68/68/68 75/75/75
f 75/75/75 76/76/76 74/74/74
f 77/77/77 75/75/75 68/68/68
f 68/68/68 65/65/65 77/77/77
f 65/65/65 78/78/78 77/77/77
f 65/65/65 79/79/79 78/78/78
f 65/65/65 80/80/80 79/79/79
f 75/75/75 77/77/77 81/81/81
f 76/76/76 75/75/75 81/81/81
f 82/82/82 76/76/76 81/81/81
f 81/81/81 83/83/83 82/82/82
