g Sphere_cell.071_cell.001_cell.005
v 0.036592077 0.05230511 0.018674081
v 0.017405046 0.043634545 0.025567297
v -0.05294899 0.045588624 -0.052076206
v -0.066690184 0.024377 -0.02636223
v -0.05294899 0.045588624 -0.052076206
v 0.017405046 0.043634545 0.025567297
v -0.07191185 -0.007172211 0.027876262
v -0.08841274 -0.00926648 0.014387494
v -0.015650554 0.020152463 0.035279635
v -0.05384282 -0.0049153413 0.042594973
v -0.05294899 0.045588624 -0.052076206
v 0.10779065 -0.035422664 -0.056445763
v 0.06418986 0.024525058 -0.0014318748
v 0.036592077 0.05230511 0.018674081
v -0.08841274 -0.00926648 0.014387494
v -0.07191185 -0.007172211 0.027876262
v -0.05384282 -0.0049153413 0.042594973
v -0.011334165 -0.04645 0.01079405
v -0.015650554 0.020152463 0.035279635
v 0.017405046 0.043634545 0.025567297
v 0.036592077 0.05230511 0.018674081
v 0.04145683 -0.018005474 -0.0014318748
v 0.06418986 0.024525058 -0.0014318748
v 0.07647324 -0.04140268 -0.035993982
v 0.10779065 -0.035422664 -0.056445763
v 0.016883625 -0.04794798 -0.0014318748
v -0.011334165 -0.04645 0.01079405
v -0.05384282 -0.0049153413 0.042594973
v 0.07647324 -0.04140268 -0.035993982
v 0.10779065 -0.035422664 -0.056445763
v -0.05294899 0.045588624 -0.052076206
v 0.016883625 -0.04794798 -0.0014318748
v -0.011334165 -0.04645 0.01079405
v -0.08841274 -0.00926648 0.014387494
v -0.066690184 0.024377 -0.02636223
vn -0.30258313 0.9056782 0.29696873
vn -0.30258313 0.9056782 0.29696873
vn -0.30258313 0.9056782 0.29696873
vn -0.440669 0.7937387 0.41927284
vn -0.440669 0.7937387 0.41927284
vn -0.440669 0.7937387 0.41927284
vn -0.440669 0.7937387 0.41927284
vn -0.4428107 0.792909 0.41858575
vn -0.440669 0.7937387 0.41927284
vn -0.440669 0.7937387 0.41927284
vn 0.36858284 0.7588728 -0.53689736
vn 0.36858284 0.7588728 -0.53689736
vn 0.36858284 0.7588728 -0.53689736
vn 0.36858284 0.7588728 -0.53689736
vn -0.3448407 -0.76710826 0.5409526
vn -0.3448407 -0.76710826 0.5409526
vn -0.3448407 -0.76710826 0.5409526
vn -0.3448407 -0.76710826 0.5409526
vn 0.3848801 -0.27238557 0.8818579
vn 0.41729367 -0.22303681 0.88097703
vn 0.41729367 -0.22303681 0.88097703
vn 0.46541741 -0.31099033 0.82865655
vn 0.47674528 -0.2548074 0.84130085
vn 0.5485228 -0.32008606 0.77244264
vn 0.56110114 -0.2999152 0.7715027
vn 0.4047104 -0.3321366 0.85199463
vn 0.3657486 -0.30016166 0.880983
vn 0.3657486 -0.30016166 0.880983
vn -0.3366155 -0.6301587 -0.6997071
vn -0.3366155 -0.6301587 -0.6997071
vn -0.3366155 -0.6301587 -0.6997071
vn -0.3366155 -0.6301587 -0.6997071
vn -0.3366155 -0.6301587 -0.6997071
vn -0.3366155 -0.6301587 -0.6997071
vn -0.3366155 -0.6301587 -0.6997071
g Sphere_cell.071_cell.001_cell.005_0
f 3/3/3 2/2/2 1/1/1
f 6/6/6 5/5/5 4/4/4
f 4/4/4 7/7/7 6/6/6
f 4/4/4 8/8/8 7/7/7
f 7/7/7 9/9/9 6/6/6
f 7/7/7 10/10/10 9/9/9
f 13/13/13 12/12/12 11/11/11
f 14/14/14 13/13/13 11/11/11
f 17/17/17 16/16/16 15/15/15
f 18/18/18 17/17/17 15/15/15
f 21/21/21 20/20/20 19/19/19
f 21/21/21 19/19/19 22/22/22
f 22/22/22 23/23/23 21/21/21
f 22/22/22 24/24/24 23/23/23
f 24/24/24 25/25/25 23/23/23
f 22/22/22 26/26/26 24/24/24
f 26/26/26 22/22/22 19/19/19
f 19/19/19 27/27/27 26/26/26
f 19/19/19 28/28/28 27/27/27
f 31/31/31 30/30/30 29/29/29
f 29/29/29 32/32/32 31/31/31
f 32/32/32 33/33/33 31/31/31
f 33/33/33 34/34/34 31/31/31
f 34/34/34 35/35/35 31/31/31
