g Sphere_cell.054
v 0.22872198 -0.21397904 -0.20384106
v 0.025624689 -0.36729506 -0.10927304
v 0.20997497 -0.23964599 -0.19006732
v 0.25290796 -0.10212807 -0.25022757
v 0.06404572 0.21309963 -0.26684237
v 0.22961381 -0.063511424 -0.26096568
v 0.20997497 -0.23964599 -0.19006732
v 0.025624689 -0.36729506 -0.10927304
v 0.1506948 -0.31404546 -0.05443585
v 0.03229108 -0.3775375 -0.061925143
v 0.07046338 -0.38223267 0.025953043
v 0.08657383 -0.38073015 0.051156655
v 0.20997497 -0.23964599 -0.19006732
v 0.1506948 -0.31404546 -0.05443585
v 0.22872198 -0.21397904 -0.20384106
v 0.19382939 -0.2526863 -0.08592698
v 0.025624689 -0.36729506 -0.10927304
v 0.012413887 -0.3621855 -0.08056152
v 0.03229108 -0.3775375 -0.061925143
v 0.0043274756 -0.35528687 -0.09341279
v -0.0072443476 -0.3453546 -0.11170944
v 0.11322273 -0.27886203 0.20381522
v 0.11485438 -0.27442864 0.20813596
v 0.19382939 -0.2526863 -0.08592698
v 0.1506948 -0.31404546 -0.05443585
v 0.10690795 -0.2990463 0.17812242
v 0.08657383 -0.38073015 0.051156655
v 0.111313656 -0.28391078 0.19883978
v -0.18058501 0.23374787 -0.3000177
v -0.18158035 0.21793881 -0.294314
v 0.22961381 -0.063511424 -0.26096568
v 0.22872198 -0.21397904 -0.20384106
v 0.25290796 -0.10212807 -0.25022757
v -0.18269418 0.19942084 -0.2871049
v 0.025624689 -0.36729506 -0.10927304
v -0.0072443476 -0.3453546 -0.11170944
v -0.09520827 -0.2048507 -0.14928772
v -0.11127417 -0.16473441 -0.16164003
v -0.15885113 -0.023165284 -0.20686632
v -0.18451802 0.16904514 -0.27524728
v 0.11485438 -0.27442864 0.20813596
v 0.11162697 -0.17024784 0.26478195
v 0.19382939 -0.2526863 -0.08592698
v 0.22872198 -0.21397904 -0.20384106
v 0.25290796 -0.10212807 -0.25022757
v 0.11088826 -0.14734678 0.27720237
v 0.10997008 -0.11986308 0.29207385
v 0.11017476 -0.10191731 0.29869205
v 0.15327917 0.03435796 0.18918204
v -0.17969988 0.24208441 -0.2993668
v -0.18058501 0.23374787 -0.3000177
v 0.22961381 -0.063511424 -0.26096568
v 0.06404572 0.21309963 -0.26684237
v -0.17007689 0.2959291 -0.25550827
v -0.17969988 0.24208441 -0.2993668
v 0.06404572 0.21309963 -0.26684237
v -0.092256 0.46174133 -0.10958179
v -0.10472147 0.46806133 -0.10743832
v -0.13995503 0.40827978 -0.16164003
v -0.15841006 0.36116806 -0.20229173
v 0.25290796 -0.10212807 -0.25022757
v 0.15327917 0.03435796 0.18918204
v 0.06404572 0.21309963 -0.26684237
v -0.092256 0.46174133 -0.10958179
v 0.100652054 0.11824553 0.2333548
v 0.11017476 -0.10191731 0.29869205
v 0.07979613 0.0090011945 0.30252123
v 0.15327917 0.03435796 0.18918204
v 0.07577398 0.02350467 0.30296338
v 0.06693726 0.07176965 0.2979884
v 0.100652054 0.11824553 0.2333548
v 0.06125515 0.1027004 0.29477698
v -0.10157393 0.44560516 -0.0758678
v -0.10472147 0.46806133 -0.10743832
v -0.092256 0.46174133 -0.10958179
v 0.100652054 0.11824553 0.2333548
v -0.09146886 0.37302676 0.025953043
v -0.08172702 0.34591475 0.058273718
v -0.019430099 0.21557704 0.19883978
v 0.0108513525 0.16904514 0.24132222
v 0.03793102 0.13346355 0.2700485
v 0.06125515 0.1027004 0.29477698
v -0.13995503 0.40827978 -0.16164003
v -0.10472147 0.46806133 -0.10743832
v -0.10157393 0.44560516 -0.0758678
v -0.09146886 0.37302676 0.025953043
v -0.15448312 0.360387 -0.16164003
v -0.15841006 0.36116806 -0.20229173
v -0.17007689 0.2959291 -0.25550827
v -0.17969988 0.24208441 -0.2993668
v -0.18058501 0.23374787 -0.3000177
v -0.18158035 0.21793881 -0.294314
v -0.18269418 0.19942084 -0.2871049
v -0.18451802 0.16904514 -0.27524728
v -0.098670825 0.34928504 0.025953043
v -0.08172702 0.34591475 0.058273718
v -0.019430099 0.21557704 0.19883978
v -0.17332868 0.16904514 -0.16164003
v -0.15885113 -0.023165284 -0.20686632
v -0.11642294 0.16904514 0.025953043
v -0.024013098 0.16904514 0.19883978
v 0.0108513525 0.16904514 0.24132222
v 0.03793102 0.13346355 0.2700485
v 0.06125515 0.1027004 0.29477698
v 0.06693726 0.07176965 0.2979884
v 0.07577398 0.02350467 0.30296338
v -0.008035838 0.006833731 0.19883978
v 0.07979613 0.0090011945 0.30252123
v 0.11017476 -0.10191731 0.29869205
v 0.10997008 -0.11986308 0.29207385
v 0.039279457 -0.14914398 0.19883978
v -0.04609638 -0.18450813 0.025953043
v 0.11088826 -0.14734678 0.27720237
v 0.11162697 -0.17024784 0.26478195
v 0.11485438 -0.27442864 0.20813596
v 0.11322273 -0.27886203 0.20381522
v 0.111313656 -0.28391078 0.19883978
v 0.10690795 -0.2990463 0.17812242
v -0.09867041 -0.011194765 0.025953043
v -0.15448229 -0.022296248 -0.16164003
v -0.11127417 -0.16473441 -0.16164003
v -0.09520827 -0.2048507 -0.14928772
v 0.03927922 -0.34423473 0.025953043
v -0.0072443476 -0.3453546 -0.11170944
v 0.0043274756 -0.35528687 -0.09341279
v 0.012413887 -0.3621855 -0.08056152
v 0.07046338 -0.38223267 0.025953043
v 0.08657383 -0.38073015 0.051156655
v 0.03229108 -0.3775375 -0.061925143
vn -0.12265056 -0.3982415 -0.9090437
vn -0.12265056 -0.3982415 -0.9090437
vn -0.12265056 -0.3982415 -0.9090437
vn 0.85807914 0.51328194 -0.015555719
vn 0.85807914 0.51328194 -0.015555719
vn 0.85807914 0.51328194 -0.015555719
vn 0.47167906 -0.843609 -0.25659856
vn 0.47167906 -0.843609 -0.25659856
vn 0.47167906 -0.843609 -0.25659856
vn 0.46980393 -0.84680974 -0.24939448
vn 0.46980393 -0.84680974 -0.24939448
vn 0.46980393 -0.84680974 -0.24939448
vn 0.8174647 -0.5744316 0.04218799
vn 0.8174647 -0.5744316 0.04218799
vn 0.8174647 -0.5744316 0.04218799
vn 0.8317729 -0.55127746 0.06516828
vn -0.5456694 -0.83163714 -0.103075534
vn -0.5456694 -0.83163714 -0.103075534
vn -0.5456694 -0.83163714 -0.103075534
vn -0.5456694 -0.83163714 -0.103075534
vn -0.546703 -0.83069515 -0.10517362
vn 0.84643316 -0.49723083 0.19055822
vn 0.84643316 -0.49723083 0.19055822
vn 0.84643316 -0.49723083 0.19055822
vn 0.84643316 -0.49723083 0.19055822
vn 0.84098655 -0.50622445 0.1909933
vn 0.84098655 -0.50622445 0.1909933
vn 0.84098655 -0.50622445 0.1909933
vn -0.14837132 -0.32734045 -0.933185
vn -0.16424006 -0.34925884 -0.9225201
vn -0.16424006 -0.34925884 -0.9225201
vn -0.16424006 -0.34925884 -0.9225201
vn -0.15408769 -0.34989214 -0.92403054
vn -0.16424006 -0.34925884 -0.9225201
vn -0.16515332 -0.3500467 -0.9220584
vn -0.16515332 -0.3500467 -0.9220584
vn -0.16515332 -0.3500467 -0.9220584
vn -0.16515332 -0.3500467 -0.9220584
vn -0.16515332 -0.3500467 -0.9220584
vn -0.16515332 -0.3500467 -0.9220584
vn 0.9622352 -0.10642411 0.2505538
vn 0.9625141 -0.10459093 0.2502545
vn 0.9625141 -0.10459093 0.2502545
vn 0.9625141 -0.10459093 0.2502545
vn 0.9625141 -0.10459093 0.2502545
vn 0.9625141 -0.10459093 0.2502545
vn 0.96262866 -0.10330504 0.25034788
vn 0.96262866 -0.10330504 0.25034788
vn 0.96262866 -0.10330504 0.25034788
vn 0.13929005 0.062376983 -0.98828506
vn 0.13929005 0.062376983 -0.98828506
vn 0.13929005 0.062376983 -0.98828506
vn 0.13929005 0.062376983 -0.98828506
vn 0.17553855 0.602688 -0.77843004
vn 0.17553855 0.602688 -0.77843004
vn 0.17553855 0.602688 -0.77843004
vn 0.17553855 0.602688 -0.77843004
vn 0.17238624 0.6039355 -0.7781676
vn 0.17238624 0.6039355 -0.7781676
vn 0.17238624 0.6039355 -0.7781676
vn 0.8565222 0.5149727 0.03424522
vn 0.8565222 0.5149727 0.03424522
vn 0.8565222 0.5149727 0.03424522
vn 0.8558703 0.5160196 0.034783162
vn 0.855151 0.5170661 0.03687129
vn 0.80111367 0.19993593 0.56412977
vn 0.80111367 0.19993593 0.56412977
vn 0.80111367 0.19993593 0.56412977
vn 0.7997999 0.20460111 0.5643213
vn 0.7997999 0.20460111 0.5643213
vn 0.7997999 0.20460111 0.5643213
vn 0.7993157 0.20546798 0.56469214
vn 0.46054167 0.7443651 0.48355138
vn 0.46054167 0.7443651 0.48355138
vn 0.46054167 0.7443651 0.48355138
vn 0.46309713 0.7428026 0.4835136
vn 0.46309713 0.7428026 0.4835136
vn 0.46309713 0.7428026 0.4835136
vn 0.46309713 0.7428026 0.4835136
vn 0.46309713 0.7428026 0.4835136
vn 0.46309713 0.7428026 0.4835136
vn 0.46366587 0.7414444 0.48505056
vn -0.9270244 0.28120503 0.24809158
vn -0.91611874 0.27787533 0.2889842
vn -0.91611874 0.27787533 0.2889842
vn -0.8969625 0.27207965 0.34846947
vn -0.9621686 0.19138387 0.19391693
vn -0.98350763 0.15207653 0.09790518
vn -0.99044037 0.09753945 0.09753945
vn -0.99044037 0.09753945 0.09753945
vn -0.99044037 0.09753945 0.09753945
vn -0.99044037 0.09753945 0.09753945
vn -0.99044037 0.09753945 0.09753945
vn -0.9949431 0.02215664 0.097965315
vn -0.906997 0.18039837 0.38054264
vn -0.8741067 0.11978872 0.47073153
vn -0.85090935 0.08380606 0.51858443
vn -0.9810172 0 0.19392058
vn -0.9797131 -0.17481142 0.09799572
vn -0.9247627 0 0.38054413
vn -0.8333439 0 0.5527549
vn -0.7723695 -0.040589985 0.63387525
vn -0.7707816 -0.07590013 0.6325621
vn -0.7707816 -0.07590013 0.6325621
vn -0.7707816 -0.07590013 0.6325621
vn -0.75770307 -0.15302384 0.634405
vn -0.8173287 -0.16257457 0.5527597
vn -0.7411587 -0.22480443 0.63257146
vn -0.7411587 -0.22480443 0.63257146
vn -0.7245595 -0.269913 0.63416123
vn -0.76990795 -0.31889516 0.5527638
vn -0.85438013 -0.3538681 0.38054174
vn -0.6830491 -0.36510056 0.63257045
vn -0.6830491 -0.36510056 0.63257045
vn -0.6830491 -0.36510056 0.63257045
vn -0.6830491 -0.36510056 0.63257045
vn -0.74884725 -0.4002581 0.52822465
vn -0.76807564 -0.43450126 0.47039178
vn -0.906997 -0.18039837 0.38054264
vn -0.9621686 -0.19138387 0.19391693
vn -0.9210158 -0.279375 0.27143994
vn -0.89000463 -0.35164368 0.29023877
vn -0.7689242 -0.51375544 0.3805404
vn -0.84428847 -0.45129025 0.2889881
vn -0.84428847 -0.45129025 0.2889881
vn -0.8199677 -0.49353096 0.28996587
vn -0.7090249 -0.58188146 0.39836875
vn -0.68246466 -0.56008375 0.46962556
vn -0.74002624 -0.60732937 0.288985
g Sphere_cell.054_0
f 3/3/3 2/2/2 1/1/1
f 6/6/6 5/5/5 4/4/4
f 9/9/9 8/8/8 7/7/7
f 10/10/10 8/8/8 9/9/9
f 9/9/9 11/11/11 10/10/10
f 9/9/9 12/12/12 11/11/11
f 15/15/15 14/14/14 13/13/13
f 16/16/16 14/14/14 15/15/15
f 19/19/19 18/18/18 17/17/17
f 18/18/18 20/20/20 17/17/17
f 17/17/17 20/20/20 21/21/21
f 24/24/24 23/23/23 22/22/22
f 25/25/25 24/24/24 22/22/22
f 25/25/25 22/22/22 26/26/26
f 26/26/26 27/27/27 25/25/25
f 22/22/22 28/28/28 26/26/26
f 31/31/31 30/30/30 29/29/29
f 31/31/31 32/32/32 30/30/30
f 31/31/31 33/33/33 32/32/32
f 32/32/32 34/34/34 30/30/30
f 34/34/34 32/32/32 35/35/35
f 35/35/35 36/36/36 34/34/34
f 36/36/36 37/37/37 34/34/34
f 37/37/37 38/38/38 34/34/34
f 38/38/38 39/39/39 34/34/34
f 39/39/39 40/40/40 34/34/34
f 43/43/43 42/42/42 41/41/41
f 42/42/42 43/43/43 44/44/44
f 44/44/44 45/45/45 42/42/42
f 45/45/45 46/46/46 42/42/42
f 47/47/47 46/46/46 45/45/45
f 45/45/45 48/48/48 47/47/47
f 45/45/45 49/49/49 48/48/48
f 52/52/52 51/51/51 50/50/50
f 53/53/53 52/52/52 50/50/50
f 56/56/56 55/55/55 54/54/54
f 57/57/57 56/56/56 54/54/54
f 58/58/58 57/57/57 54/54/54
f 54/54/54 59/59/59 58/58/58
f 54/54/54 60/60/60 59/59/59
f 63/63/63 62/62/62 61/61/61
f 64/64/64 62/62/62 63/63/63
f 65/65/65 62/62/62 64/64/64
f 68/68/68 67/67/67 66/66/66
f 69/69/69 67/67/67 68/68/68
f 68/68/68 70/70/70 69/69/69
f 68/68/68 71/71/71 70/70/70
f 71/71/71 72/72/72 70/70/70
f 75/75/75 74/74/74 73/73/73
f 76/76/76 75/75/75 73/73/73
f 73/73/73 77/77/77 76/76/76
f 77/77/77 78/78/78 76/76/76
f 78/78/78 79/79/79 76/76/76
f 79/79/79 80/80/80 76/76/76
f 80/80/80 81/81/81 76/76/76
f 76/76/76 81/81/81 82/82/82
f 85/85/85 84/84/84 83/83/83
f 86/86/86 85/85/85 83/83/83
f 86/86/86 83/83/83 87/87/87
f 87/87/87 83/83/83 88/88/88
f 87/87/87 88/88/88 89/89/89
f 87/87/87 89/89/89 90/90/90
f 87/87/87 90/90/90 91/91/91
f 87/87/87 91/91/91 92/92/92
f 87/87/87 92/92/92 93/93/93
f 87/87/87 93/93/93 94/94/94
f 87/87/87 95/95/95 86/86/86
f 95/95/95 96/96/96 86/86/86
f 97/97/97 96/96/96 95/95/95
f 94/94/94 98/98/98 87/87/87
f 95/95/95 87/87/87 98/98/98
f 98/98/98 94/94/94 99/99/99
f 97/97/97 95/95/95 100/100/100
f 100/100/100 95/95/95 98/98/98
f 100/100/100 101/101/101 97/97/97
f 101/101/101 102/102/102 97/97/97
f 103/103/103 102/102/102 101/101/101
f 104/104/104 103/103/103 101/101/101
f 105/105/105 104/104/104 101/101/101
f 106/106/106 105/105/105 101/101/101
f 101/101/101 107/107/107 106/106/106
f 108/108/108 106/106/106 107/107/107
f 109/109/109 108/108/108 107/107/107
f 110/110/110 109/109/109 107/107/107
f 107/107/107 111/111/111 110/110/110
f 111/111/111 107/107/107 112/112/112
f 113/113/113 110/110/110 111/111/111
f 114/114/114 113/113/113 111/111/111
f 115/115/115 114/114/114 111/111/111
f 116/116/116 115/115/115 111/111/111
f 111/111/111 117/117/117 116/116/116
f 117/117/117 111/111/111 112/112/112
f 118/118/118 117/117/117 112/112/112
f 107/107/107 101/101/101 119/119/119
f 107/107/107 119/119/119 112/112/112
f 101/101/101 100/100/100 119/119/119
f 119/119/119 100/100/100 120/120/120
f 100/100/100 98/98/98 120/120/120
f 120/120/120 98/98/98 99/99/99
f 120/120/120 99/99/99 121/121/121
f 119/119/119 120/120/120 121/121/121
f 112/112/112 119/119/119 121/121/121
f 121/121/121 122/122/122 112/112/112
f 123/123/123 112/112/112 122/122/122
f 112/112/112 123/123/123 118/118/118
f 123/123/123 122/122/122 124/124/124
f 123/123/123 124/124/124 125/125/125
f 125/125/125 126/126/126 123/123/123
f 123/123/123 127/127/127 118/118/118
f 123/123/123 126/126/126 127/127/127
f 127/127/127 128/128/128 118/118/118
f 126/126/126 129/129/129 127/127/127
