g Sphere_cell.020_cell.009
v -0.23735605 0.05277184 0.061248288
v -0.23448567 0.057267223 0.059701458
v -0.22718494 0.05207232 0.07302879
v -0.23448567 0.057267223 0.059701458
v -0.13325155 0.14705685 -0.015240854
v -0.0496319 0.22109272 -0.07693377
v -0.22718494 0.05207232 0.07302879
v -0.1724891 0.0413597 0.12624775
v 0.0059283217 0.2486055 -0.08367413
v -0.01663561 0.25028205 -0.10128527
v -0.23470907 0.04761604 0.057063714
v -0.23735605 0.05277184 0.061248288
v -0.22718494 0.05207232 0.07302879
v -0.1724891 0.0413597 0.12624775
v -0.22498672 0.029155292 0.041835237
v -0.18637598 -0.04362507 -0.018483972
v 0.010992809 -0.0763597 0.18116717
v -0.07231546 -0.13552064 -0.01379252
v -0.11375749 -0.1095404 -0.02673382
v -0.13719016 -0.09480876 -0.03398839
v -0.16991627 -0.07419748 -0.044063482
v 0.010992809 -0.0763597 0.18116717
v -0.1724891 0.0413597 0.12624775
v 0.0059283217 0.2486055 -0.08367413
v 0.025829475 0.2318051 -0.074417084
v 0.07698337 0.18852498 -0.050543815
v 0.03536574 -0.07945246 0.17807768
v 0.09921625 -0.028209165 0.121478416
v 0.15855888 0.119131595 -0.012626594
v 0.16204372 0.044087447 0.04790707
v 0.19122805 0.08792595 0.0013847871
v 0.010992809 -0.0763597 0.18116717
v 0.03536574 -0.07945246 0.17807768
v 0.07676629 -0.10221666 0.121478416
v 0.081861295 -0.106580675 0.10993127
v 0.13941792 -0.16011328 -0.032933805
v 0.13261059 -0.15998691 -0.034233633
v -0.07231546 -0.13552064 -0.01379252
v 0.12549415 -0.15984386 -0.035602245
v 0.13315883 -0.10151094 -0.08614689
v 0.12549415 -0.15984386 -0.035602245
v 0.13261059 -0.15998691 -0.034233633
v 0.13941792 -0.16011328 -0.032933805
v 0.14493623 -0.15441841 -0.037036125
v 0.1598343 -0.13887781 -0.047964483
v -0.11375749 -0.1095404 -0.02673382
v -0.07231546 -0.13552064 -0.01379252
v 0.12549415 -0.15984386 -0.035602245
v 0.13315883 -0.10151094 -0.08614689
v -0.13719016 -0.09480876 -0.03398839
v 0.10168496 -0.045136645 -0.12633733
v -0.16991627 -0.07419748 -0.044063482
v -0.0038598324 0.04222373 -0.17614447
v 0.13315883 -0.10151094 -0.08614689
v 0.1598343 -0.13887781 -0.047964483
v 0.16299501 -0.12925762 -0.04840046
v 0.10168496 -0.045136645 -0.12633733
v 0.19122805 0.08792595 0.0013847871
v 0.1892382 0.038678207 -0.0039669345
v 0.16204372 0.044087447 0.04790707
v 0.09921625 -0.028209165 0.121478416
v 0.07676629 -0.10221666 0.121478416
v 0.03536574 -0.07945246 0.17807768
v 0.081861295 -0.106580675 0.10993127
v 0.16299501 -0.12925762 -0.04840046
v 0.1598343 -0.13887781 -0.047964483
v 0.14493623 -0.15441841 -0.037036125
v 0.13941792 -0.16011328 -0.032933805
v -0.18637598 -0.04362507 -0.018483972
v -0.16991627 -0.07419748 -0.044063482
v -0.0038598324 0.04222373 -0.17614447
v -0.22498672 0.029155292 0.041835237
v -0.23470907 0.04761604 0.057063714
v -0.13325155 0.14705685 -0.015240854
v -0.01663561 0.25028205 -0.10128527
v -0.0496319 0.22109272 -0.07693377
v -0.23735605 0.05277184 0.061248288
v -0.23448567 0.057267223 0.059701458
v 0.0059283217 0.2486055 -0.08367413
v -0.01663561 0.25028205 -0.10128527
v -0.0038598324 0.04222373 -0.17614447
v 0.025829475 0.2318051 -0.074417084
v 0.10168496 -0.045136645 -0.12633733
v 0.15855888 0.119131595 -0.012626594
v 0.07698337 0.18852498 -0.050543815
v 0.19122805 0.08792595 0.0013847871
v 0.16299501 -0.12925762 -0.04840046
v 0.1892382 0.038678207 -0.0039669345
v 0.19122805 0.08792595 0.0013847871
v 0.10168496 -0.045136645 -0.12633733
vn -0.6020567 0.5750329 0.55395395
vn -0.6020567 0.5750329 0.55395395
vn -0.6020567 0.5750329 0.55395395
vn -0.33984306 0.79823875 0.49731442
vn -0.33984306 0.79823875 0.49731442
vn -0.33984306 0.79823875 0.49731442
vn -0.33984306 0.79823875 0.49731442
vn -0.3336395 0.7970745 0.5033458
vn -0.3336395 0.7970745 0.5033458
vn -0.3336395 0.7970745 0.5033458
vn -0.57996404 -0.6717666 0.46083775
vn -0.57996404 -0.6717666 0.46083775
vn -0.57996404 -0.6717666 0.46083775
vn -0.57996404 -0.6717666 0.46083775
vn -0.5752738 -0.6790905 0.45595622
vn -0.57333577 -0.68131834 0.4550731
vn -0.57333577 -0.68131834 0.4550731
vn -0.5708563 -0.68547267 0.45194072
vn -0.5708563 -0.68547267 0.45194072
vn -0.5708563 -0.68547267 0.45194072
vn -0.5708563 -0.68547267 0.45194072
vn 0.17214039 0.6239317 0.76228404
vn 0.17214039 0.6239317 0.76228404
vn 0.17214039 0.6239317 0.76228404
vn 0.17214039 0.6239317 0.76228404
vn 0.17214039 0.6239317 0.76228404
vn 0.18051778 0.6225923 0.7614409
vn 0.18051778 0.6225923 0.7614409
vn 0.18051778 0.6225923 0.7614409
vn 0.18051778 0.6225923 0.7614409
vn 0.18051778 0.6225923 0.7614409
vn -0.0789454 -0.9435301 0.32174295
vn -0.0789454 -0.9435301 0.32174295
vn -0.0789454 -0.9435301 0.32174295
vn -0.0789454 -0.9435301 0.32174295
vn -0.0789454 -0.9435301 0.32174295
vn -0.0789454 -0.9435301 0.32174295
vn -0.080665454 -0.9436939 0.32083485
vn -0.080665454 -0.9436939 0.32083485
vn 0.12925418 -0.6590047 -0.74094945
vn 0.12925418 -0.6590047 -0.74094945
vn 0.12925418 -0.6590047 -0.74094945
vn 0.12925418 -0.6590047 -0.74094945
vn 0.12925418 -0.6590047 -0.74094945
vn 0.14116673 -0.65644515 -0.7410477
vn -0.16134909 -0.6340778 -0.75624853
vn -0.16134909 -0.6340778 -0.75624853
vn -0.16134909 -0.6340778 -0.75624853
vn -0.16134909 -0.6340778 -0.75624853
vn -0.16198868 -0.6311996 -0.7585162
vn -0.16198868 -0.6311996 -0.7585162
vn -0.16272879 -0.62968504 -0.7596157
vn -0.16272879 -0.62968504 -0.7596157
vn 0.75291765 -0.07917553 -0.6533347
vn 0.75291765 -0.07917553 -0.6533347
vn 0.75291765 -0.07917553 -0.6533347
vn 0.75291765 -0.07917553 -0.6533347
vn 0.8786145 -0.086521655 0.46962798
vn 0.86274856 -0.18296286 0.4713697
vn 0.8554677 -0.21540049 0.47093296
vn 0.82118374 -0.24909882 0.5134268
vn 0.8022286 -0.24336036 0.54516506
vn 0.7411587 -0.22480443 0.63257146
vn 0.84192485 -0.26508713 0.469991
vn 0.8448548 -0.25626722 0.46962485
vn 0.8222501 -0.31901792 0.47130907
vn 0.77861834 -0.41616648 0.46963698
vn 0.77861834 -0.41616648 0.46963698
vn -0.69324195 0.20489095 -0.690967
vn -0.69324195 0.20489095 -0.690967
vn -0.69324195 0.20489095 -0.690967
vn -0.69324195 0.20489095 -0.690967
vn -0.69324195 0.20489095 -0.690967
vn -0.69324195 0.20489095 -0.690967
vn -0.6925595 0.20618996 -0.6912648
vn -0.6925595 0.20618996 -0.6912648
vn -0.69324195 0.20489095 -0.690967
vn -0.69324195 0.20489095 -0.690967
vn 0.60021573 0.3031641 -0.7401571
vn 0.60021573 0.3031641 -0.7401571
vn 0.60021573 0.3031641 -0.7401571
vn 0.60021573 0.3031641 -0.7401571
vn 0.60021573 0.3031641 -0.7401571
vn 0.6015272 0.30331227 -0.73903096
vn 0.6015272 0.30331227 -0.73903096
vn 0.6042362 0.30138835 -0.7376067
vn 0.8022249 0.03236854 -0.59614384
vn 0.8022249 0.03236854 -0.59614384
vn 0.8022249 0.03236854 -0.59614384
vn 0.8022249 0.03236854 -0.59614384
g Sphere_cell.020_cell.009_0
f 3/3/3 2/2/2 1/1/1
f 6/6/6 5/5/5 4/4/4
f 7/7/7 6/6/6 4/4/4
f 6/6/6 7/7/7 8/8/8
f 6/6/6 8/8/8 9/9/9
f 9/9/9 10/10/10 6/6/6
f 13/13/13 12/12/12 11/11/11
f 14/14/14 13/13/13 11/11/11
f 14/14/14 11/11/11 15/15/15
f 14/14/14 15/15/15 16/16/16
f 17/17/17 14/14/14 16/16/16
f 18/18/18 17/17/17 16/16/16
f 19/19/19 18/18/18 16/16/16
f 20/20/20 19/19/19 16/16/16
f 16/16/16 21/21/21 20/20/20
f 24/24/24 23/23/23 22/22/22
f 25/25/25 24/24/24 22/22/22
f 22/22/22 26/26/26 25/25/25
f 26/26/26 22/22/22 27/27/27
f 26/26/26 27/27/27 28/28/28
f 29/29/29 26/26/26 28/28/28
f 29/29/29 28/28/28 30/30/30
f 30/30/30 31/31/31 29/29/29
f 34/34/34 33/33/33 32/32/32
f 35/35/35 34/34/34 32/32/32
f 36/36/36 35/35/35 32/32/32
f 32/32/32 37/37/37 36/36/36
f 32/32/32 38/38/38 37/37/37
f 38/38/38 39/39/39 37/37/37
f 42/42/42 41/41/41 40/40/40
f 43/43/43 42/42/42 40/40/40
f 40/40/40 44/44/44 43/43/43
f 45/45/45 44/44/44 40/40/40
f 48/48/48 47/47/47 46/46/46
f 49/49/49 48/48/48 46/46/46
f 49/49/49 46/46/46 50/50/50
f 51/51/51 49/49/49 50/50/50
f 51/51/51 50/50/50 52/52/52
f 53/53/53 51/51/51 52/52/52
f 56/56/56 55/55/55 54/54/54
f 57/57/57 56/56/56 54/54/54
f 60/60/60 59/59/59 58/58/58
f 59/59/59 60/60/60 61/61/61
f 59/59/59 61/61/61 62/62/62
f 61/61/61 63/63/63 62/62/62
f 59/59/59 62/62/62 64/64/64
f 65/65/65 59/59/59 64/64/64
f 64/64/64 66/66/66 65/65/65
f 66/66/66 64/64/64 67/67/67
f 64/64/64 68/68/68 67/67/67
f 71/71/71 70/70/70 69/69/69
f 69/69/69 72/72/72 71/71/71
f 72/72/72 73/73/73 71/71/71
f 73/73/73 74/74/74 71/71/71
f 71/71/71 74/74/74 75/75/75
f 74/74/74 76/76/76 75/75/75
f 73/73/73 77/77/77 74/74/74
f 77/77/77 78/78/78 74/74/74
f 81/81/81 80/80/80 79/79/79
f 81/81/81 79/79/79 82/82/82
f 82/82/82 83/83/83 81/81/81
f 83/83/83 82/82/82 84/84/84
f 82/82/82 85/85/85 84/84/84
f 83/83/83 84/84/84 86/86/86
f 89/89/89 88/88/88 87/87/87
f 90/90/90 89/89/89 87/87/87
