g Sphere_cell.034_cell.001
v -0.04232874 0.038719468 -0.025238816
v 0.054435275 0.050912905 -0.021894043
v 0.009484497 0.050447512 -0.00048399664
v -0.0021213011 0.05018692 0.004423313
v 0.036356296 -0.036830366 -0.038025025
v 0.051088594 -0.06612866 0.00547456
v 0.05899843 -0.02327484 -0.005272216
v 0.052902304 0.0021136364 -0.030993465
v 0.06748047 0.03596621 -0.024530832
v 0.052902304 0.0021136364 -0.030993465
v 0.06748047 0.03596621 -0.024530832
v 0.054435275 0.050912905 -0.021894043
v -0.04232874 0.038719468 -0.025238816
v -0.07356056 0.018065745 -0.029430453
v 0.036356296 -0.036830366 -0.038025025
v -0.079881094 -0.01630515 0.047825143
v -0.01025644 -0.046815336 0.033492435
v -0.0035289242 -0.049174484 0.03090303
v 0.03068533 -0.05982464 0.0149783995
v -0.07697763 0.015287215 -0.01998276
v -0.07356056 0.018065745 -0.029430453
v 0.051088594 -0.06612866 0.00547456
v 0.036356296 -0.036830366 -0.038025025
v -0.07697763 0.015287215 -0.01998276
v -0.07356056 0.018065745 -0.029430453
v -0.04232874 0.038719468 -0.025238816
v -0.0021213011 0.05018692 0.004423313
v -0.079881094 -0.01630515 0.047825143
v -0.030565707 0.023686938 0.025262285
v -0.042210784 0.012966925 0.033492435
v -0.079881094 -0.01630515 0.047825143
v -0.042210784 0.012966925 0.033492435
v -0.01025644 -0.046815336 0.033492435
v -0.030565707 0.023686938 0.025262285
v -0.0035289242 -0.049174484 0.03090303
v 0.009484497 0.050447512 -0.00048399664
v -0.0021213011 0.05018692 0.004423313
v 0.054435275 0.050912905 -0.021894043
v 0.05899843 -0.02327484 -0.005272216
v 0.06748047 0.03596621 -0.024530832
v 0.03068533 -0.05982464 0.0149783995
v 0.051088594 -0.06612866 0.00547456
vn -0.114510484 0.9689012 -0.21935777
vn -0.114510484 0.9689012 -0.21935777
vn -0.114510484 0.9689012 -0.21935777
vn -0.114510484 0.9689012 -0.21935777
vn 0.8405108 -0.27256295 -0.4682426
vn 0.8405108 -0.27256295 -0.4682426
vn 0.8405108 -0.27256295 -0.4682426
vn 0.8405108 -0.27256295 -0.4682426
vn 0.8405108 -0.27256295 -0.4682426
vn 0.0109276585 0.1829699 -0.9830578
vn 0.0109276585 0.1829699 -0.9830578
vn 0.0109276585 0.1829699 -0.9830578
vn 0.0109276585 0.1829699 -0.9830578
vn 0.0109276585 0.1829699 -0.9830578
vn 0.009735441 0.17366704 -0.9847563
vn -0.43572378 -0.80858755 -0.39538702
vn -0.43572378 -0.80858755 -0.39538702
vn -0.43572378 -0.80858755 -0.39538702
vn -0.43572378 -0.80858755 -0.39538702
vn -0.43572378 -0.80858755 -0.39538702
vn -0.43572378 -0.80858755 -0.39538702
vn -0.4347249 -0.8082582 -0.39715594
vn -0.4347249 -0.8082582 -0.39715594
vn -0.49109867 0.8022409 0.3394578
vn -0.49109867 0.8022409 0.3394578
vn -0.49109867 0.8022409 0.3394578
vn -0.49109867 0.8022409 0.3394578
vn -0.49109867 0.8022409 0.3394578
vn -0.49109867 0.8022409 0.3394578
vn -0.49109867 0.8022409 0.3394578
vn 0.25712264 0.13742708 0.9565572
vn 0.34904405 0.18628706 0.91840374
vn 0.38279688 0.20423159 0.900975
vn 0.4158608 0.22651686 0.88076663
vn 0.42544016 0.20579217 0.88127756
vn 0.40975046 0.23585217 0.8811801
vn 0.3657486 0.30016166 0.880983
vn 0.41814792 0.22300611 0.88057965
vn 0.42907462 0.19712591 0.88149667
vn 0.41814792 0.22300611 0.88057965
vn 0.4527881 0.137338 0.88097745
vn 0.4527881 0.137338 0.88097745
g Sphere_cell.034_cell.001_0
f 3/3/3 2/2/2 1/1/1
f 4/4/4 3/3/3 1/1/1
f 7/7/7 6/6/6 5/5/5
f 5/5/5 8/8/8 7/7/7
f 8/8/8 9/9/9 7/7/7
f 12/12/12 11/11/11 10/10/10
f 10/10/10 13/13/13 12/12/12
f 10/10/10 14/14/14 13/13/13
f 14/14/14 10/10/10 15/15/15
f 18/18/18 17/17/17 16/16/16
f 19/19/19 18/18/18 16/16/16
f 19/19/19 16/16/16 20/20/20
f 20/20/20 21/21/21 19/19/19
f 19/19/19 21/21/21 22/22/22
f 21/21/21 23/23/23 22/22/22
f 26/26/26 25/25/25 24/24/24
f 24/24/24 27/27/27 26/26/26
f 24/24/24 28/28/28 27/27/27
f 28/28/28 29/29/29 27/27/27
f 28/28/28 30/30/30 29/29/29
f 33/33/33 32/32/32 31/31/31
f 34/34/34 32/32/32 33/33/33
f 34/34/34 33/33/33 35/35/35
f 36/36/36 34/34/34 35/35/35
f 36/36/36 37/37/37 34/34/34
f 38/38/38 36/36/36 35/35/35
f 38/38/38 35/35/35 39/39/39
f 39/39/39 40/40/40 38/38/38
f 39/39/39 35/35/35 41/41/41
f 42/42/42 39/39/39 41/41/41
