g Sphere_cell.020_cell.007
v 0.028946506 0.12711145 0.01933944
v -0.020830281 -0.107262336 -0.1184542
v -0.007691332 -0.065407485 -0.09707008
v 0.050832313 0.08689739 0.0046287174
v 0.028946506 0.12711145 0.01933944
v -0.007691332 -0.065407485 -0.09707008
v -0.033137508 -0.11301323 -0.11217682
v -0.0046013086 -0.1292152 -0.08436542
v -0.020830281 -0.107262336 -0.1184542
v -0.007691332 -0.065407485 -0.09707008
v -0.020830281 -0.107262336 -0.1184542
v -0.0046013086 -0.1292152 -0.08436542
v 0.020767618 -0.119223796 -0.035695847
v 0.03028779 -0.115252934 -0.017212925
v 0.03362058 -0.11387964 -0.010740935
v 0.043291017 -0.041818593 0.0016926525
v 0.050832313 0.08689739 0.0046287174
v 0.050797325 0.07898523 0.005296945
v -0.020830281 -0.107262336 -0.1184542
v 0.028946506 0.12711145 0.01933944
v -0.012960978 0.12467242 0.053929202
v -0.052154902 0.10872484 0.075718336
v -0.033137508 -0.11301323 -0.11217682
v -0.049175505 0.07194258 0.044700917
v -0.028086727 0.0579796 0.06331336
v -0.013687737 0.02591898 0.053929202
v 0.00966381 -0.03512976 0.029830452
v 0.03362058 -0.11387964 -0.010740935
v 0.03028779 -0.115252934 -0.017212925
v -0.033137508 -0.11301323 -0.11217682
v 0.020767618 -0.119223796 -0.035695847
v -0.0046013086 -0.1292152 -0.08436542
v -0.049175505 0.07194258 0.044700917
v -0.037419505 0.07898523 0.069407694
v -0.052154902 0.10872484 0.075718336
v 0.043291017 -0.041818593 0.0016926525
v 0.03362058 -0.11387964 -0.010740935
v 0.00966381 -0.03512976 0.029830452
v -0.008461186 0.07898523 0.053929202
v -0.013687737 0.02591898 0.053929202
v -0.028086727 0.0579796 0.06331336
v -0.037419505 0.07898523 0.069407694
v -0.052154902 0.10872484 0.075718336
v -0.012960978 0.12467242 0.053929202
v 0.050797325 0.07898523 0.005296945
v 0.028946506 0.12711145 0.01933944
v 0.050832313 0.08689739 0.0046287174
vn -0.51892996 0.5124556 -0.684179
vn -0.51892996 0.5124556 -0.684179
vn -0.51892996 0.5124556 -0.684179
vn 0.27478942 0.45867676 -0.8450481
vn 0.27478942 0.45867676 -0.8450481
vn 0.27478942 0.45867676 -0.8450481
vn 0.09123666 -0.8169031 -0.5695131
vn 0.09123666 -0.8169031 -0.5695131
vn 0.09123666 -0.8169031 -0.5695131
vn 0.88971883 -0.047318783 -0.45404992
vn 0.88971883 -0.047318783 -0.45404992
vn 0.88971883 -0.047318783 -0.45404992
vn 0.88971883 -0.047318783 -0.45404992
vn 0.89185935 -0.041979615 -0.45036042
vn 0.89185935 -0.041979615 -0.45036042
vn 0.89185935 -0.041979615 -0.45036042
vn 0.89185935 -0.041979615 -0.45036042
vn 0.89185935 -0.041979615 -0.45036042
vn -0.56723213 0.50357515 -0.65165913
vn -0.56723213 0.50357515 -0.65165913
vn -0.56723213 0.50357515 -0.65165913
vn -0.56723213 0.50357515 -0.65165913
vn -0.56723213 0.50357515 -0.65165913
vn -0.56723213 0.50357515 -0.65165913
vn -0.7387168 -0.47239614 0.48076954
vn -0.7387168 -0.47239614 0.48076954
vn -0.7387168 -0.47239614 0.48076954
vn -0.7387168 -0.47239614 0.48076954
vn -0.7387168 -0.47239614 0.48076954
vn -0.73796654 -0.47260493 0.4817157
vn -0.73796654 -0.47260493 0.4817157
vn -0.73796654 -0.47260493 0.4817157
vn -0.73833436 -0.46873093 0.48492637
vn -0.73833436 -0.46873093 0.48492637
vn -0.73833436 -0.46873093 0.48492637
vn 0.61782545 -0.1449955 0.7728312
vn 0.6015967 -0.21354364 0.76972765
vn 0.6254863 -0.10678589 0.7728931
vn 0.55977476 0 0.8286449
vn 0.60513234 -0.059573244 0.79389286
vn 0.47088516 -0.0463591 0.88097554
vn 0.47134393 0.014405226 0.8818318
vn 0.47088516 0.0463591 0.88097554
vn 0.5610933 0.055239536 0.82590735
vn 0.6343928 0.0016785301 0.77300894
vn 0.63315994 0.06235158 0.7715054
vn 0.63315994 0.06235158 0.7715054
g Sphere_cell.020_cell.007_0
f 3/3/3 2/2/2 1/1/1
f 6/6/6 5/5/5 4/4/4
f 9/9/9 8/8/8 7/7/7
f 12/12/12 11/11/11 10/10/10
f 13/13/13 12/12/12 10/10/10
f 14/14/14 13/13/13 10/10/10
f 10/10/10 15/15/15 14/14/14
f 10/10/10 16/16/16 15/15/15
f 10/10/10 17/17/17 16/16/16
f 17/17/17 18/18/18 16/16/16
f 21/21/21 20/20/20 19/19/19
f 19/19/19 22/22/22 21/21/21
f 19/19/19 23/23/23 22/22/22
f 23/23/23 24/24/24 22/22/22
f 27/27/27 26/26/26 25/25/25
f 28/28/28 27/27/27 25/25/25
f 25/25/25 29/29/29 28/28/28
f 29/29/29 25/25/25 30/30/30
f 31/31/31 29/29/29 30/30/30
f 30/30/30 32/32/32 31/31/31
f 25/25/25 33/33/33 30/30/30
f 25/25/25 34/34/34 33/33/33
f 34/34/34 35/35/35 33/33/33
f 38/38/38 37/37/37 36/36/36
f 39/39/39 38/38/38 36/36/36
f 39/39/39 40/40/40 38/38/38
f 41/41/41 40/40/40 39/39/39
f 42/42/42 41/41/41 39/39/39
f 42/42/42 39/39/39 43/43/43
f 39/39/39 44/44/44 43/43/43
f 36/36/36 45/45/45 39/39/39
f 46/46/46 44/44/44 39/39/39
f 46/46/46 39/39/39 45/45/45
f 45/45/45 47/47/47 46/46/46
