g Sphere_cell.092
v -0.15139358 0.11912077 -0.009868926
v -0.10980098 0.15578358 -0.012579506
v -0.0684958 0.19042888 -0.012403553
v -0.024809876 0.2252995 -0.009306676
v -0.19612803 0.07775611 -0.0037869285
v -0.0049982495 0.24036112 -0.006666369
v 0.17697906 0.32947865 0.09848199
v -0.24792017 0.027650777 0.0068868315
v -0.29655972 -0.021395257 0.020176103
v -0.3116436 -0.038460303 0.027340222
v -0.3234182 -0.052686736 0.03438287
v -0.26735938 -0.08677368 0.16772638
v 0.2509097 0.24813166 0.33376786
v -0.1589564 -0.07356052 0.29488298
v 0.16953087 -0.15520816 0.048074648
v -0.08719013 -0.14390473 -0.034619574
v -0.14790517 -0.13470201 -0.019620305
v -0.20460333 -0.12577896 -0.0038716267
v -0.26735938 -0.08677368 0.16772638
v 0.21785595 -0.11252097 0.29834452
v -0.1589564 -0.07356052 0.29488298
v 0.2509097 0.24813166 0.33376786
v 0.17697906 0.32947865 0.09848199
v 0.2767918 0.064123094 0.31627432
v 0.18295243 0.060048997 -0.04222316
v 0.18861134 0.031142656 -0.043605093
v 0.19244497 0.0062756008 -0.044430617
v 0.19601275 -0.016267827 -0.044740383
v 0.1975541 -0.026173163 -0.044684652
v 0.15922299 0.07345575 -0.04268736
v 0.18295243 0.060048997 -0.04222316
v 0.17697906 0.32947865 0.09848199
v -0.0049982495 0.24036112 -0.006666369
v 0.1365726 0.087391555 -0.04252768
v 0.112650394 0.10334771 -0.041703824
v 0.08444304 0.123573475 -0.039985362
v 0.046110015 0.15279882 -0.036729578
v 0.10046801 -0.077148005 -0.05181992
v 0.092553414 -0.07923369 -0.051849842
v 0.08444307 -0.081544444 -0.05170083
v 0.10892299 -0.07509713 -0.05160451
v 0.075318344 -0.084333465 -0.05133772
v 0.118863136 -0.07288031 -0.051149964
v 0.06390736 -0.088037774 -0.05065906
v 0.13193214 -0.07019143 -0.050318956
v 0.047600873 -0.09359865 -0.049412966
v 0.1518439 -0.06637864 -0.048758984
v 0.0192786 -0.10362486 -0.046867732
v 0.18167299 -0.06098871 -0.04608882
v -0.051603086 -0.12936334 -0.03982902
v 0.16953087 -0.15520816 0.048074648
v 0.18668798 -0.05993943 -0.04564399
v -0.08127538 -0.14028578 -0.036729578
v -0.08719013 -0.14390473 -0.034619574
v -0.1589564 -0.07356052 0.29488298
v 0.2509097 0.24813166 0.33376786
v 0.21785595 -0.11252097 0.29834452
v 0.2767918 0.064123094 0.31627432
v 0.21785595 -0.11252097 0.29834452
v 0.2767918 0.064123094 0.31627432
v 0.16953087 -0.15520816 0.048074648
v 0.18668798 -0.05993943 -0.04564399
v 0.1935774 -0.038460303 -0.045195524
v 0.1975541 -0.026173163 -0.044684652
v -0.24125893 -0.10324625 0.004826657
v -0.20460333 -0.12577896 -0.0038716267
v -0.14790517 -0.13470201 -0.019620305
v -0.10689856 -0.07652049 -0.036729578
v -0.11064732 -0.038460303 -0.036729578
v -0.29824048 -0.038460303 0.020176103
v -0.2951231 -0.07011013 0.020176103
v -0.3116436 -0.038460303 0.027340222
v -0.3234182 -0.052686736 0.03438287
v -0.29655972 -0.021395257 0.020176103
v -0.24792017 0.027650777 0.0068868315
v -0.10689871 -0.00040011847 -0.036729578
v -0.19612803 0.07775611 -0.0037869285
v 0.08444307 -0.038460303 -0.055944324
v -0.09579681 -0.11311797 -0.036729578
v -0.09579694 0.036197606 -0.036729578
v -0.15139358 0.11912077 -0.009868926
v -0.08127538 -0.14028578 -0.036729578
v -0.08719013 -0.14390473 -0.034619574
v -0.051603086 -0.12936334 -0.03982902
v 0.0192786 -0.10362486 -0.046867732
v 0.047600873 -0.09359865 -0.049412966
v 0.06390736 -0.088037774 -0.05065906
v 0.075318344 -0.084333465 -0.05133772
v 0.08444307 -0.081544444 -0.05170083
v 0.092553414 -0.07923369 -0.051849842
v 0.10046801 -0.077148005 -0.05181992
v 0.10892299 -0.07509713 -0.05160451
v 0.118863136 -0.07288031 -0.051149964
v 0.13193214 -0.07019143 -0.050318956
v 0.1518439 -0.06637864 -0.048758984
v 0.18167299 -0.06098871 -0.04608882
v 0.18668798 -0.05993943 -0.04564399
v 0.1935774 -0.038460303 -0.045195524
v 0.1975541 -0.026173163 -0.044684652
v 0.19601275 -0.016267827 -0.044740383
v 0.19244497 0.0062756008 -0.044430617
v 0.18861134 0.031142656 -0.043605093
v 0.18295243 0.060048997 -0.04222316
v 0.15922299 0.07345575 -0.04268736
v 0.1365726 0.087391555 -0.04252768
v 0.112650394 0.10334771 -0.041703824
v 0.08444304 0.123573475 -0.039985362
v 0.046110015 0.15279882 -0.036729578
v 0.009785191 0.14177959 -0.036729578
v -0.0049982495 0.24036112 -0.006666369
v -0.024809876 0.2252995 -0.009306676
v -0.023943344 0.123751335 -0.036729578
v -0.0684958 0.19042888 -0.012403553
v -0.05350668 0.09948938 -0.036729578
v -0.10980098 0.15578358 -0.012579506
v -0.077768676 0.0699262 -0.036729578
v -0.26735938 -0.08677368 0.16772638
v -0.20460333 -0.12577896 -0.0038716267
v -0.24125893 -0.10324625 0.004826657
v -0.2951231 -0.07011013 0.020176103
v -0.3234182 -0.052686736 0.03438287
vn -0.5835688 0.6932947 0.42283556
vn -0.5835688 0.6932947 0.42283556
vn -0.5835688 0.6932947 0.42283556
vn -0.5835688 0.6932947 0.42283556
vn -0.5835688 0.6932947 0.42283556
vn -0.5835688 0.6932947 0.42283556
vn -0.5835688 0.6932947 0.42283556
vn -0.5835688 0.6932947 0.42283556
vn -0.5835688 0.6932947 0.42283556
vn -0.5835688 0.6932947 0.42283556
vn -0.5835688 0.6932947 0.42283556
vn -0.5835688 0.6932947 0.42283556
vn -0.5835688 0.6932947 0.42283556
vn -0.58337975 0.6918541 0.42544803
vn -0.102526635 -0.97743577 0.18468262
vn -0.102526635 -0.97743577 0.18468262
vn -0.102526635 -0.97743577 0.18468262
vn -0.102526635 -0.97743577 0.18468262
vn -0.102526635 -0.97743577 0.18468262
vn -0.1020222 -0.9771682 0.18637003
vn -0.10271024 -0.97658294 0.18904115
vn 0.956346 0.15789537 -0.2459092
vn 0.956346 0.15789537 -0.2459092
vn 0.956346 0.15789537 -0.2459092
vn 0.95511293 0.15686946 -0.25129896
vn 0.95511293 0.15686946 -0.25129896
vn 0.95511293 0.15686946 -0.25129896
vn 0.95511293 0.15686946 -0.25129896
vn 0.9576626 0.14763491 -0.24715644
vn 0.27105066 0.45029622 -0.85074365
vn 0.27105066 0.45029622 -0.85074365
vn 0.27105066 0.45029622 -0.85074365
vn 0.27105066 0.45029622 -0.85074365
vn 0.27105066 0.45029622 -0.85074365
vn 0.27105066 0.45029622 -0.85074365
vn 0.27105066 0.45029622 -0.85074365
vn 0.27105066 0.45029622 -0.85074365
vn 0.18869819 -0.70625633 -0.6823452
vn 0.18869819 -0.70625633 -0.6823452
vn 0.18869819 -0.70625633 -0.6823452
vn 0.18869819 -0.70625633 -0.6823452
vn 0.18869819 -0.70625633 -0.6823452
vn 0.18869819 -0.70625633 -0.6823452
vn 0.18869819 -0.70625633 -0.6823452
vn 0.18869819 -0.70625633 -0.6823452
vn 0.18869819 -0.70625633 -0.6823452
vn 0.18869819 -0.70625633 -0.6823452
vn 0.18869819 -0.70625633 -0.6823452
vn 0.18869819 -0.70625633 -0.6823452
vn 0.18869819 -0.70625633 -0.6823452
vn 0.18869819 -0.70625633 -0.6823452
vn 0.20762737 -0.7047498 -0.67839414
vn 0.18869819 -0.70625633 -0.6823452
vn 0.18869819 -0.70625633 -0.6823452
vn -0.019068247 -0.09600091 0.99519867
vn -0.019068247 -0.09600091 0.99519867
vn -0.019068247 -0.09600091 0.99519867
vn -0.013499711 -0.096515454 0.99523985
vn 0.94434905 -0.30179062 -0.13087139
vn 0.94434905 -0.30179062 -0.13087139
vn 0.94434905 -0.30179062 -0.13087139
vn 0.9446507 -0.3002354 -0.1322638
vn 0.9446507 -0.3002354 -0.1322638
vn 0.9446507 -0.3002354 -0.1322638
vn -0.2876427 -0.04156703 -0.9568353
vn -0.2790037 -0.08462889 -0.95655364
vn -0.27540407 -0.0934799 -0.9567728
vn -0.19709224 -0.0391865 -0.9796015
vn -0.20096742 0 -0.97959787
vn -0.38787007 0 -0.92171407
vn -0.347337 -0.034181304 -0.93711716
vn -0.4712736 -0.022797653 -0.88169235
vn -0.47088516 -0.0463591 -0.88097554
vn -0.3310081 0.032594196 -0.94306487
vn -0.28687543 0.045594882 -0.9568822
vn -0.19709224 0.0391865 -0.9796015
vn -0.2712199 0.103702635 -0.9569146
vn -0 0 -1
vn -0.18564765 -0.07690812 -0.979602
vn -0.18564765 0.07690812 -0.979602
vn -0.24397084 0.15735722 -0.95693094
vn -0.17072164 -0.091250926 -0.9810848
vn -0.25712264 -0.13742708 -0.9565572
vn -0.08603212 -0.04763964 -0.9951527
vn -0.07419162 -0.06439503 -0.9951627
vn -0.059146225 -0.0783428 -0.9951704
vn -0.041536897 -0.088872485 -0.99517655
vn -0.022125987 -0.09552324 -0.99518126
vn -0.0017395676 -0.09799564 -0.9951853
vn 0.018677497 -0.09619522 -0.99518716
vn 0.038331497 -0.090213306 -0.9951846
vn 0.05627645 -0.080264136 -0.99518377
vn 0.07177972 -0.0668052 -0.9951807
vn 0.08417223 -0.050448403 -0.9951734
vn 0.09286975 -0.03186199 -0.9951683
vn 0.094243266 -0.028565964 -0.99513924
vn 0.09726345 -0.0141912475 -0.9951574
vn 0.09799569 0.0014954186 -0.9951858
vn 0.097997196 0.009644071 -0.99513996
vn 0.09607306 0.019348893 -0.99518627
vn 0.08996932 0.03885039 -0.9951865
vn 0.08005035 0.056612052 -0.99518186
vn 0.06833149 0.07025417 -0.99518603
vn 0.054720137 0.08130198 -0.99518627
vn 0.036500454 0.090945944 -0.99518675
vn 0.016663214 0.096591726 -0.9951846
vn -0.0039675306 0.097998 -0.9951787
vn -0.04629723 0.16605355 -0.9850293
vn -0.07690812 0.18564765 -0.979602
vn -0.08462889 0.2790037 -0.95655364
vn -0.106329545 0.2701271 -0.95693535
vn -0.11163869 0.16709179 -0.9796005
vn -0.15973441 0.24237882 -0.95694166
vn -0.14209668 0.14209668 -0.9796005
vn -0.20627563 0.20423087 -0.9569431
vn -0.16709179 0.11163869 -0.9796005
vn -0.5234328 -0.8520639 0.0022959174
vn -0.5234328 -0.8520639 0.0022959174
vn -0.5234328 -0.8520639 0.0022959174
vn -0.5234328 -0.8520639 0.0022959174
vn -0.5234328 -0.8520639 0.0022959174
g Sphere_cell.092_0
f 3/3/3 2/2/2 1/1/1
f 1/1/1 4/4/4 3/3/3
f 1/1/1 5/5/5 4/4/4
f 5/5/5 6/6/6 4/4/4
f 5/5/5 7/7/7 6/6/6
f 5/5/5 8/8/8 7/7/7
f 8/8/8 9/9/9 7/7/7
f 9/9/9 10/10/10 7/7/7
f 10/10/10 11/11/11 7/7/7
f 11/11/11 12/12/12 7/7/7
f 12/12/12 13/13/13 7/7/7
f 14/14/14 13/13/13 12/12/12
f 17/17/17 16/16/16 15/15/15
f 15/15/15 18/18/18 17/17/17
f 15/15/15 19/19/19 18/18/18
f 20/20/20 19/19/19 15/15/15
f 21/21/21 19/19/19 20/20/20
f 24/24/24 23/23/23 22/22/22
f 25/25/25 23/23/23 24/24/24
f 26/26/26 25/25/25 24/24/24
f 27/27/27 26/26/26 24/24/24
f 24/24/24 28/28/28 27/27/27
f 24/24/24 29/29/29 28/28/28
f 32/32/32 31/31/31 30/30/30
f 30/30/30 33/33/33 32/32/32
f 30/30/30 34/34/34 33/33/33
f 34/34/34 35/35/35 33/33/33
f 35/35/35 36/36/36 33/33/33
f 36/36/36 37/37/37 33/33/33
f 40/40/40 39/39/39 38/38/38
f 38/38/38 41/41/41 40/40/40
f 41/41/41 42/42/42 40/40/40
f 41/41/41 43/43/43 42/42/42
f 43/43/43 44/44/44 42/42/42
f 43/43/43 45/45/45 44/44/44
f 45/45/45 46/46/46 44/44/44
f 45/45/45 47/47/47 46/46/46
f 47/47/47 48/48/48 46/46/46
f 47/47/47 49/49/49 48/48/48
f 49/49/49 50/50/50 48/48/48
f 49/49/49 51/51/51 50/50/50
f 51/51/51 49/49/49 52/52/52
f 51/51/51 53/53/53 50/50/50
f 51/51/51 54/54/54 53/53/53
f 57/57/57 56/56/56 55/55/55
f 58/58/58 56/56/56 57/57/57
f 61/61/61 60/60/60 59/59/59
f 60/60/60 61/61/61 62/62/62
f 62/62/62 63/63/63 60/60/60
f 63/63/63 64/64/64 60/60/60
f 67/67/67 66/66/66 65/65/65
f 67/67/67 65/65/65 68/68/68
f 69/69/69 68/68/68 65/65/65
f 65/65/65 70/70/70 69/69/69
f 65/65/65 71/71/71 70/70/70
f 70/70/70 71/71/71 72/72/72
f 71/71/71 73/73/73 72/72/72
f 70/70/70 72/72/72 74/74/74
f 70/70/70 74/74/74 75/75/75
f 69/69/69 70/70/70 75/75/75
f 75/75/75 76/76/76 69/69/69
f 76/76/76 75/75/75 77/77/77
f 68/68/68 69/69/69 78/78/78
f 69/69/69 76/76/76 78/78/78
f 79/79/79 68/68/68 78/78/78
f 68/68/68 79/79/79 67/67/67
f 76/76/76 80/80/80 78/78/78
f 80/80/80 76/76/76 77/77/77
f 80/80/80 77/77/77 81/81/81
f 79/79/79 82/82/82 67/67/67
f 79/79/79 78/78/78 82/82/82
f 82/82/82 83/83/83 67/67/67
f 78/78/78 84/84/84 82/82/82
f 78/78/78 85/85/85 84/84/84
f 78/78/78 86/86/86 85/85/85
f 78/78/78 87/87/87 86/86/86
f 78/78/78 88/88/88 87/87/87
f 78/78/78 89/89/89 88/88/88
f 78/78/78 90/90/90 89/89/89
f 78/78/78 91/91/91 90/90/90
f 78/78/78 92/92/92 91/91/91
f 78/78/78 93/93/93 92/92/92
f 78/78/78 94/94/94 93/93/93
f 78/78/78 95/95/95 94/94/94
f 96/96/96 95/95/95 78/78/78
f 97/97/97 96/96/96 78/78/78
f 78/78/78 98/98/98 97/97/97
f 99/99/99 98/98/98 78/78/78
f 100/100/100 99/99/99 78/78/78
f 101/101/101 100/100/100 78/78/78
f 78/78/78 102/102/102 101/101/101
f 103/103/103 102/102/102 78/78/78
f 78/78/78 104/104/104 103/103/103
f 78/78/78 105/105/105 104/104/104
f 78/78/78 106/106/106 105/105/105
f 78/78/78 107/107/107 106/106/106
f 78/78/78 108/108/108 107/107/107
f 78/78/78 109/109/109 108/108/108
f 110/110/110 108/108/108 109/109/109
f 111/111/111 110/110/110 109/109/109
f 109/109/109 112/112/112 111/111/111
f 112/112/112 109/109/109 78/78/78
f 112/112/112 113/113/113 111/111/111
f 112/112/112 114/114/114 113/113/113
f 114/114/114 112/112/112 78/78/78
f 114/114/114 115/115/115 113/113/113
f 116/116/116 114/114/114 78/78/78
f 115/115/115 114/114/114 116/116/116
f 80/80/80 116/116/116 78/78/78
f 81/81/81 115/115/115 116/116/116
f 116/116/116 80/80/80 81/81/81
f 119/119/119 118/118/118 117/117/117
f 117/117/117 120/120/120 119/119/119
f 117/117/117 121/121/121 120/120/120
