g Sphere_cell.004_cell.006
v -0.09812784 0.041219164 -0.20339456
v -0.08255867 0.08309309 -0.22794354
v -0.10806733 0.07880585 -0.17858537
v -0.10083413 0.033629585 -0.19891974
v -0.11353415 0.07787053 -0.16770442
v -0.11353415 0.07787053 -0.16770442
v -0.09596622 0.016744785 -0.18657334
v -0.10083413 0.033629585 -0.19891974
v -0.11304131 0.07624905 -0.13704918
v -0.09211657 0.004465991 -0.17752688
v -0.11284089 0.075929806 -0.13088964
v -0.11090067 0.07325499 -0.07898673
v -0.05089704 -0.11408334 0.0602478
v -0.04096074 -0.15530257 -0.059582256
v 0.035398643 -0.16910796 -0.033593025
v -0.04096074 -0.15530257 -0.059582256
v -0.05089704 -0.11408334 0.0602478
v 0.06406126 -0.12292343 0.13670333
v 0.045757156 -0.10072785 0.1895001
v 0.060392745 -0.11846524 0.14731492
v 0.113913506 -0.1830769 -0.007021277
v 0.07594157 -0.13728361 0.10237391
v -0.11090067 0.07325499 -0.07898673
v -0.10486519 0.07318084 -0.070478074
v -0.05089704 -0.11408334 0.0602478
v 0.045757156 -0.10072785 0.1895001
v 0.053430744 -0.063400805 0.18885571
v 0.06376929 -0.013197485 0.18794745
v 0.069120355 0.012839489 0.18746151
v 0.06270219 0.03341501 0.17241086
v 0.051852234 0.06466286 0.14803447
v 0.048771717 0.071078226 0.14185484
v 0.027632948 0.07165782 0.11255999
v -0.018192021 0.072249815 0.04925462
v 0.14664751 0.08316104 0.039418843
v 0.23975895 0.10044686 -0.16875337
v 0.083751686 0.033614326 0.16306289
v 0.113913506 -0.1830769 -0.007021277
v 0.07594157 -0.13728361 0.10237391
v 0.060392745 -0.11846524 0.14731492
v 0.06406126 -0.12292343 0.13670333
v 0.045757156 -0.10072785 0.1895001
v 0.053430744 -0.063400805 0.18885571
v 0.06376929 -0.013197485 0.18794745
v 0.069120355 0.012839489 0.18746151
v 0.051852234 0.06466286 0.14803447
v 0.048771717 0.071078226 0.14185484
v 0.14664751 0.08316104 0.039418843
v 0.083751686 0.033614326 0.16306289
v 0.048771717 0.071078226 0.14185484
v 0.027632948 0.07165782 0.11255999
v 0.14664751 0.08316104 0.039418843
v 0.23975895 0.10044686 -0.16875337
v -0.018192021 0.072249815 0.04925462
v -0.11353415 0.07787053 -0.16770442
v -0.10806733 0.07880585 -0.17858537
v -0.08255867 0.08309309 -0.22794354
v -0.11304131 0.07624905 -0.13704918
v -0.11284089 0.075929806 -0.13088964
v -0.11090067 0.07325499 -0.07898673
v -0.10486519 0.07318084 -0.070478074
v 0.06270219 0.03341501 0.17241086
v 0.051852234 0.06466286 0.14803447
v 0.083751686 0.033614326 0.16306289
v 0.069120355 0.012839489 0.18746151
v 0.113913506 -0.1830769 -0.007021277
v 0.23975895 0.10044686 -0.16875337
v -0.08255867 0.08309309 -0.22794354
v 0.035398643 -0.16910796 -0.033593025
v -0.04096074 -0.15530257 -0.059582256
v -0.09211657 0.004465991 -0.17752688
v -0.09812784 0.041219164 -0.20339456
v -0.09596622 0.016744785 -0.18657334
v -0.10083413 0.033629585 -0.19891974
vn -0.88879997 0.06445649 -0.45373982
vn -0.88879997 0.06445649 -0.45373982
vn -0.88879997 0.06445649 -0.45373982
vn -0.8940673 0.05684025 -0.44431177
vn -0.8940673 0.05684025 -0.44431177
vn -0.9610252 -0.2764597 0.00082714617
vn -0.9610252 -0.2764597 0.00082714617
vn -0.9610252 -0.2764597 0.00082714617
vn -0.9610252 -0.2764597 0.00082714617
vn -0.9574236 -0.28823107 0.01621113
vn -0.9574236 -0.28823107 0.01621113
vn -0.95651686 -0.29093695 0.020762473
vn -0.95651686 -0.29093695 0.020762473
vn -0.95651686 -0.29093695 0.020762473
vn -0.26597652 -0.918128 0.29376414
vn -0.26597652 -0.918128 0.29376414
vn -0.26597652 -0.918128 0.29376414
vn -0.26597652 -0.918128 0.29376414
vn -0.26597652 -0.918128 0.29376414
vn -0.26597652 -0.918128 0.29376414
vn -0.26285326 -0.91910994 0.29350466
vn -0.26285326 -0.91910994 0.29350466
vn -0.80345273 0.16731718 0.5713744
vn -0.80345273 0.16731718 0.5713744
vn -0.80345273 0.16731718 0.5713744
vn -0.79705375 0.174137 0.5782574
vn -0.79705375 0.174137 0.5782574
vn -0.79705375 0.174137 0.5782574
vn -0.79705375 0.174137 0.5782574
vn -0.79705375 0.174137 0.5782574
vn -0.79705375 0.174137 0.5782574
vn -0.79705375 0.174137 0.5782574
vn -0.79705375 0.174137 0.5782574
vn -0.79705375 0.174137 0.5782574
vn 0.9041281 -0.17475522 0.38988838
vn 0.9041281 -0.17475522 0.38988838
vn 0.9041281 -0.17475522 0.38988838
vn 0.9037106 -0.17935744 0.38876486
vn 0.9037106 -0.17935744 0.38876486
vn 0.90418726 -0.17903751 0.3878028
vn 0.90418726 -0.17903751 0.3878028
vn 0.9037366 -0.17907518 0.38883454
vn 0.9037366 -0.17907518 0.38883454
vn 0.9037366 -0.17907518 0.38883454
vn 0.90342635 -0.17839375 0.38986728
vn 0.4564086 0.7211707 0.5211564
vn 0.4564086 0.7211707 0.5211564
vn 0.4564086 0.7211707 0.5211564
vn 0.4564086 0.7211707 0.5211564
vn -0.058324825 0.99638295 0.0617997
vn -0.06269932 0.9965321 0.054704335
vn -0.06269932 0.9965321 0.054704335
vn -0.06269932 0.9965321 0.054704335
vn -0.06269932 0.9965321 0.054704335
vn -0.06352129 0.9965329 0.053731702
vn -0.06352129 0.9965329 0.053731702
vn -0.06352129 0.9965329 0.053731702
vn -0.06352129 0.9965329 0.053731702
vn -0.06352129 0.9965329 0.053731702
vn -0.06352129 0.9965329 0.053731702
vn -0.06352129 0.9965329 0.053731702
vn 0.303518 0.6493484 0.69729733
vn 0.303518 0.6493484 0.69729733
vn 0.303518 0.6493484 0.69729733
vn 0.31274667 0.62239724 0.71750337
vn 0.17964262 -0.546379 -0.8180455
vn 0.17964262 -0.546379 -0.8180455
vn 0.17964262 -0.546379 -0.8180455
vn 0.17964262 -0.546379 -0.8180455
vn 0.17964262 -0.546379 -0.8180455
vn 0.17964262 -0.546379 -0.8180455
vn 0.17964262 -0.546379 -0.8180455
vn 0.17964262 -0.546379 -0.8180455
vn 0.17964262 -0.546379 -0.8180455
g Sphere_cell.004_cell.006_0
f 3/3/3 2/2/2 1/1/1
f 3/3/3 1/1/1 4/4/4
f 5/5/5 3/3/3 4/4/4
f 8/8/8 7/7/7 6/6/6
f 7/7/7 9/9/9 6/6/6
f 7/7/7 10/10/10 9/9/9
f 10/10/10 11/11/11 9/9/9
f 12/12/12 11/11/11 10/10/10
f 13/13/13 12/12/12 10/10/10
f 10/10/10 14/14/14 13/13/13
f 17/17/17 16/16/16 15/15/15
f 15/15/15 18/18/18 17/17/17
f 18/18/18 19/19/19 17/17/17
f 18/18/18 20/20/20 19/19/19
f 15/15/15 21/21/21 18/18/18
f 21/21/21 22/22/22 18/18/18
f 25/25/25 24/24/24 23/23/23
f 24/24/24 25/25/25 26/26/26
f 26/26/26 27/27/27 24/24/24
f 27/27/27 28/28/28 24/24/24
f 28/28/28 29/29/29 24/24/24
f 29/29/29 30/30/30 24/24/24
f 30/30/30 31/31/31 24/24/24
f 31/31/31 32/32/32 24/24/24
f 32/32/32 33/33/33 24/24/24
f 33/33/33 34/34/34 24/24/24
f 37/37/37 36/36/36 35/35/35
f 36/36/36 37/37/37 38/38/38
f 37/37/37 39/39/39 38/38/38
f 37/37/37 40/40/40 39/39/39
f 40/40/40 41/41/41 39/39/39
f 42/42/42 40/40/40 37/37/37
f 37/37/37 43/43/43 42/42/42
f 37/37/37 44/44/44 43/43/43
f 37/37/37 45/45/45 44/44/44
f 48/48/48 47/47/47 46/46/46
f 49/49/49 48/48/48 46/46/46
f 52/52/52 51/51/51 50/50/50
f 52/52/52 53/53/53 51/51/51
f 53/53/53 54/54/54 51/51/51
f 55/55/55 54/54/54 53/53/53
f 56/56/56 55/55/55 53/53/53
f 53/53/53 57/57/57 56/56/56
f 55/55/55 58/58/58 54/54/54
f 58/58/58 59/59/59 54/54/54
f 59/59/59 60/60/60 54/54/54
f 60/60/60 61/61/61 54/54/54
f 64/64/64 63/63/63 62/62/62
f 64/64/64 62/62/62 65/65/65
f 68/68/68 67/67/67 66/66/66
f 66/66/66 69/69/69 68/68/68
f 69/69/69 70/70/70 68/68/68
f 70/70/70 71/71/71 68/68/68
f 71/71/71 72/72/72 68/68/68
f 71/71/71 73/73/73 72/72/72
f 73/73/73 74/74/74 72/72/72
