g Sphere_cell.045_cell.007
v 0.035150345 0.04526953 -0.026962008
v 0.03939223 0.04279427 -0.019345192
v 0.022697924 0.044092935 -0.013716428
v 0.023736294 0.0007193535 -0.01407495
v -0.024062421 -0.07606978 0.07662519
v 0.036504503 0.01473145 0.028840031
v 0.04664689 0.03220157 -0.002173036
v 0.03958791 0.019362016 0.026398685
v -0.0009614526 0.013349099 -0.053637765
v 0.023736294 0.0007193535 -0.01407495
v 0.04664689 0.03220157 -0.002173036
v 0.035150345 0.04526953 -0.026962008
v 0.03939223 0.04279427 -0.019345192
v -0.15104459 -0.06433577 -0.03897735
v -0.0009614526 0.013349099 -0.053637765
v 0.035150345 0.04526953 -0.026962008
v 0.022697924 0.044092935 -0.013716428
v -0.067647986 -0.072114654 0.037022855
v -0.15104459 -0.06433577 -0.03897735
v 0.022697924 0.044092935 -0.013716428
v 0.03958791 0.019362016 0.026398685
v 0.036504503 0.01473145 0.028840031
v -0.024062421 -0.07606978 0.07662519
v 0.03939223 0.04279427 -0.019345192
v 0.04664689 0.03220157 -0.002173036
v 0.03958791 0.019362016 0.026398685
v 0.022697924 0.044092935 -0.013716428
v 0.023736294 0.0007193535 -0.01407495
v -0.0009614526 0.013349099 -0.053637765
v -0.15104459 -0.06433577 -0.03897735
v -0.067647986 -0.072114654 0.037022855
v -0.024062421 -0.07606978 0.07662519
vn 0.15170904 0.9617559 0.2280568
vn 0.15170904 0.9617559 0.2280568
vn 0.15170904 0.9617559 0.2280568
vn 0.8169526 -0.5740142 -0.055642534
vn 0.8169526 -0.5740142 -0.055642534
vn 0.8169526 -0.5740142 -0.055642534
vn 0.8169526 -0.5740142 -0.055642534
vn 0.8169526 -0.5740142 -0.055642534
vn 0.7478553 -0.35405117 -0.5615694
vn 0.7478553 -0.35405117 -0.5615694
vn 0.7478553 -0.35405117 -0.5615694
vn 0.7478553 -0.35405117 -0.5615694
vn 0.7478553 -0.35405117 -0.5615694
vn -0.4566663 0.814901 -0.35692045
vn -0.4566663 0.814901 -0.35692045
vn -0.4566663 0.814901 -0.35692045
vn -0.4566663 0.814901 -0.35692045
vn -0.48519346 0.6382016 0.59773403
vn -0.48519346 0.6382016 0.59773403
vn -0.48519346 0.6382016 0.59773403
vn -0.48519346 0.6382016 0.59773403
vn -0.48519346 0.6382016 0.59773403
vn -0.48519346 0.6382016 0.59773403
vn 0.21740125 0.8691137 0.44427258
vn 0.21740125 0.8691137 0.44427258
vn 0.21740125 0.8691137 0.44427258
vn 0.21740125 0.8691137 0.44427258
vn 0.36519593 -0.7964017 -0.4820542
vn 0.36519593 -0.7964017 -0.4820542
vn 0.36519593 -0.7964017 -0.4820542
vn 0.36519593 -0.7964017 -0.4820542
vn 0.36519593 -0.7964017 -0.4820542
g Sphere_cell.045_cell.007_0
f 3/3/3 2/2/2 1/1/1
f 6/6/6 5/5/5 4/4/4
f 4/4/4 7/7/7 6/6/6
f 7/7/7 8/8/8 6/6/6
f 11/11/11 10/10/10 9/9/9
f 9/9/9 12/12/12 11/11/11
f 12/12/12 13/13/13 11/11/11
f 16/16/16 15/15/15 14/14/14
f 17/17/17 16/16/16 14/14/14
f 20/20/20 19/19/19 18/18/18
f 18/18/18 21/21/21 20/20/20
f 18/18/18 22/22/22 21/21/21
f 18/18/18 23/23/23 22/22/22
f 26/26/26 25/25/25 24/24/24
f 27/27/27 26/26/26 24/24/24
f 30/30/30 29/29/29 28/28/28
f 28/28/28 31/31/31 30/30/30
f 28/28/28 32/32/32 31/31/31
