g Sphere_cell.085_cell.002
v -0.011551126 -0.10190863 0.1818213
v -0.10669288 -0.12827988 -0.13882948
v -0.21907897 0.009819065 -0.10622881
v -0.21015914 0.14191248 0.2395562
v -0.25151685 0.06253913 -0.06550025
v -0.053003527 -0.12817712 -0.14678474
v 0.0059741875 -0.078252986 -0.14899723
v -0.043934446 -0.077058986 -0.16740666
v -0.11202642 -0.09356423 -0.18403111
v -0.07582442 -0.13831015 -0.15020855
v -0.09369288 -0.13485284 -0.1582068
v -0.10669288 -0.12827988 -0.13882948
v -0.09369288 -0.13485284 -0.1582068
v -0.11202642 -0.09356423 -0.18403111
v -0.21907897 0.009819065 -0.10622881
v -0.120129794 -0.085702136 -0.17820238
v -0.12962565 -0.07651825 -0.17132355
v -0.07582442 -0.13831015 -0.15020855
v -0.09369288 -0.13485284 -0.1582068
v -0.10669288 -0.12827988 -0.13882948
v -0.04418282 -0.14137836 -0.1170813
v -0.011551126 -0.10190863 0.1818213
v -0.017847164 -0.14294381 -0.083398245
v 0.07743812 -0.13800617 0.10419479
v 0.09499109 -0.13199802 0.17041747
v -0.25151685 0.06253913 -0.06550025
v 0.10304451 0.42131707 0.23769349
v 0.15897393 0.477941 0.28563958
v -0.21015914 0.14191248 0.2395562
v 0.26903328 0.45797226 0.27602366
v 0.15897393 0.477941 0.28563958
v 0.1458435 0.104851745 -0.013092039
v 0.10304451 0.42131707 0.23769349
v -0.120129794 -0.085702136 -0.17820238
v -0.043934446 -0.077058986 -0.16740666
v -0.11202642 -0.09356423 -0.18403111
v -0.12962565 -0.07651825 -0.17132355
v -0.21907897 0.009819065 -0.10622881
v -0.25151685 0.06253913 -0.06550025
v 0.10796118 -0.11295671 0.10419479
v 0.116334796 -0.11476535 0.17265438
v 0.20897768 0.23235989 0.23529953
v 0.10008037 -0.04616328 -0.083398245
v 0.100613356 -0.03787585 -0.094806
v 0.1458435 0.104851745 -0.013092039
v 0.26903328 0.45797226 0.27602366
v 0.0059741875 -0.078252986 -0.14899723
v 0.100613356 -0.03787585 -0.094806
v 0.1458435 0.104851745 -0.013092039
v -0.043934446 -0.077058986 -0.16740666
v 0.15897393 0.477941 0.28563958
v 0.26903328 0.45797226 0.27602366
v 0.20897768 0.23235989 0.23529953
v 0.116334796 -0.11476535 0.17265438
v -0.21015914 0.14191248 0.2395562
v 0.09499109 -0.13199802 0.17041747
v -0.011551126 -0.10190863 0.1818213
v -0.07582442 -0.13831015 -0.15020855
v -0.04418282 -0.14137836 -0.1170813
v -0.053003527 -0.12817712 -0.14678474
v 0.100613356 -0.03787585 -0.094806
v 0.0059741875 -0.078252986 -0.14899723
v -0.017847164 -0.14294381 -0.083398245
v 0.10008037 -0.04616328 -0.083398245
v 0.10796118 -0.11295671 0.10419479
v 0.07743812 -0.13800617 0.10419479
v 0.116334796 -0.11476535 0.17265438
v 0.09499109 -0.13199802 0.17041747
vn -0.71598756 -0.645732 0.26531473
vn -0.71598756 -0.645732 0.26531473
vn -0.71598756 -0.645732 0.26531473
vn -0.71598756 -0.645732 0.26531473
vn -0.71598756 -0.645732 0.26531473
vn 0.3081167 -0.40242612 -0.8620425
vn 0.3081167 -0.40242612 -0.8620425
vn 0.3081167 -0.40242612 -0.8620425
vn 0.3081167 -0.40242612 -0.8620425
vn 0.3081167 -0.40242612 -0.8620425
vn 0.3081167 -0.40242612 -0.8620425
vn -0.7688088 -0.5477657 -0.32997847
vn -0.7688088 -0.5477657 -0.32997847
vn -0.7688088 -0.5477657 -0.32997847
vn -0.7688088 -0.5477657 -0.32997847
vn -0.7688088 -0.5477657 -0.32997847
vn -0.7688088 -0.5477657 -0.32997847
vn -0.25341353 -0.9550553 0.15378836
vn -0.25341353 -0.9550553 0.15378836
vn -0.25341353 -0.9550553 0.15378836
vn -0.25341353 -0.9550553 0.15378836
vn -0.25341353 -0.9550553 0.15378836
vn -0.25341353 -0.9550553 0.15378836
vn -0.25341353 -0.9550553 0.15378836
vn -0.25341353 -0.9550553 0.15378836
vn -0.66247904 0.74192965 -0.10325635
vn -0.66247904 0.74192965 -0.10325635
vn -0.66247904 0.74192965 -0.10325635
vn -0.66247904 0.74192965 -0.10325635
vn 0.044913094 0.62343246 -0.7805861
vn 0.044913094 0.62343246 -0.7805861
vn 0.044913094 0.62343246 -0.7805861
vn 0.037742365 0.623772 -0.78069454
vn 0.037742365 0.623772 -0.78069454
vn 0.040337104 0.6215636 -0.78232455
vn 0.040337104 0.6215636 -0.78232455
vn 0.037742365 0.623772 -0.78069454
vn 0.035158303 0.62454915 -0.7801937
vn 0.035158303 0.62454915 -0.7801937
vn 0.96406287 -0.23489161 -0.12413207
vn 0.96406287 -0.23489161 -0.12413207
vn 0.96406287 -0.23489161 -0.12413207
vn 0.96406287 -0.23489161 -0.12413207
vn 0.96416247 -0.23407067 -0.1249067
vn 0.96416247 -0.23407067 -0.1249067
vn 0.96416247 -0.23407067 -0.1249067
vn 0.32694265 0.38938504 -0.8610968
vn 0.32694265 0.38938504 -0.8610968
vn 0.32694265 0.38938504 -0.8610968
vn 0.32694265 0.38938504 -0.8610968
vn 0.051081523 -0.1905489 0.9803477
vn 0.051081523 -0.1905489 0.9803477
vn 0.051081523 -0.1905489 0.9803477
vn 0.051081523 -0.1905489 0.9803477
vn 0.051081523 -0.1905489 0.9803477
vn 0.051081523 -0.1905489 0.9803477
vn 0.051081523 -0.1905489 0.9803477
vn 0.41619173 -0.7786085 -0.46963105
vn 0.53567404 -0.70108837 -0.470668
vn 0.4873955 -0.73499966 -0.4714033
vn 0.56008375 -0.68246466 -0.46962556
vn 0.56008375 -0.68246466 -0.46962556
vn 0.5801358 -0.7069118 -0.40462103
vn 0.5822167 -0.7094516 -0.39711717
vn 0.6219323 -0.75783706 -0.1971884
vn 0.6198746 -0.7553187 -0.21271855
vn 0.631356 -0.7693345 -0.097540185
vn 0.631356 -0.7693345 -0.097540185
g Sphere_cell.085_cell.002_0
f 3/3/3 2/2/2 1/1/1
f 1/1/1 4/4/4 3/3/3
f 4/4/4 5/5/5 3/3/3
f 8/8/8 7/7/7 6/6/6
f 6/6/6 9/9/9 8/8/8
f 6/6/6 10/10/10 9/9/9
f 10/10/10 11/11/11 9/9/9
f 14/14/14 13/13/13 12/12/12
f 12/12/12 15/15/15 14/14/14
f 15/15/15 16/16/16 14/14/14
f 15/15/15 17/17/17 16/16/16
f 20/20/20 19/19/19 18/18/18
f 18/18/18 21/21/21 20/20/20
f 21/21/21 22/22/22 20/20/20
f 21/21/21 23/23/23 22/22/22
f 23/23/23 24/24/24 22/22/22
f 24/24/24 25/25/25 22/22/22
f 28/28/28 27/27/27 26/26/26
f 29/29/29 28/28/28 26/26/26
f 32/32/32 31/31/31 30/30/30
f 33/33/33 31/31/31 32/32/32
f 32/32/32 34/34/34 33/33/33
f 32/32/32 35/35/35 34/34/34
f 35/35/35 36/36/36 34/34/34
f 34/34/34 37/37/37 33/33/33
f 37/37/37 38/38/38 33/33/33
f 38/38/38 39/39/39 33/33/33
f 42/42/42 41/41/41 40/40/40
f 43/43/43 42/42/42 40/40/40
f 42/42/42 43/43/43 44/44/44
f 44/44/44 45/45/45 42/42/42
f 45/45/45 46/46/46 42/42/42
f 49/49/49 48/48/48 47/47/47
f 50/50/50 49/49/49 47/47/47
f 53/53/53 52/52/52 51/51/51
f 51/51/51 54/54/54 53/53/53
f 51/51/51 55/55/55 54/54/54
f 55/55/55 56/56/56 54/54/54
f 55/55/55 57/57/57 56/56/56
f 60/60/60 59/59/59 58/58/58
f 61/61/61 59/59/59 60/60/60
f 60/60/60 62/62/62 61/61/61
f 61/61/61 63/63/63 59/59/59
f 61/61/61 64/64/64 63/63/63
f 64/64/64 65/65/65 63/63/63
f 65/65/65 66/66/66 63/63/63
f 65/65/65 67/67/67 66/66/66
f 67/67/67 68/68/68 66/66/66
