g Sphere_cell.071_cell_cell.002
v 0.054337595 -0.028806048 0.0027761313
v 0.05938909 -0.011440356 0.008264943
v 0.053488765 0.0042399555 -0.022472097
v 0.05067471 -0.010620912 -0.022021366
v 0.046868958 -0.05428107 -0.0052557727
v 0.043186106 -0.049772337 -0.020822598
v 0.053488765 0.0042399555 -0.022472097
v 0.05938909 -0.011440356 0.008264943
v 0.04627136 0.00359098 0.018832786
v 0.024895944 0.036722574 -0.015552355
v 0.033234455 0.028201496 -0.021825029
v 0.02531425 0.022634663 0.03402255
v 0.0118109975 0.04999867 -0.005841448
v 0.046868958 -0.05428107 -0.0052557727
v 0.043186106 -0.049772337 -0.020822598
v -0.061127316 -0.035167534 -0.01529081
v -0.06450803 -0.046747047 0.032465022
v -0.024007335 -0.049976423 0.020681186
v -0.08190317 0.04956761 0.0067662443
v -0.010535079 0.05603972 -0.012277855
v 0.0118109975 0.04999867 -0.005841448
v 0.02531425 0.022634663 0.03402255
v -0.013667839 -0.008737882 0.034279685
v -0.038245693 -0.028667288 0.03437982
v -0.06450803 -0.046747047 0.032465022
v -0.08190317 0.04956761 0.0067662443
v 0.02531425 0.022634663 0.03402255
v -0.013854818 0.0522708 -0.01969315
v 0.033234455 0.028201496 -0.021825029
v 0.024895944 0.036722574 -0.015552355
v -0.010535079 0.05603972 -0.012277855
v 0.0118109975 0.04999867 -0.005841448
v -0.07749284 0.041944895 -0.015961958
v -0.013854818 0.0522708 -0.01969315
v -0.010535079 0.05603972 -0.012277855
v -0.08190317 0.04956761 0.0067662443
v -0.06413037 -0.020994503 -0.015453948
v -0.061127316 -0.035167534 -0.01529081
v 0.043186106 -0.049772337 -0.020822598
v 0.033234455 0.028201496 -0.021825029
v 0.05067471 -0.010620912 -0.022021366
v 0.053488765 0.0042399555 -0.022472097
v -0.013854818 0.0522708 -0.01969315
v -0.07749284 0.041944895 -0.015961958
v 0.02531425 0.022634663 0.03402255
v 0.04627136 0.00359098 0.018832786
v 0.05938909 -0.011440356 0.008264943
v 0.054337595 -0.028806048 0.0027761313
v 0.046868958 -0.05428107 -0.0052557727
v -0.024007335 -0.049976423 0.020681186
v -0.013667839 -0.008737882 0.034279685
v -0.038245693 -0.028667288 0.03437982
v -0.06450803 -0.046747047 0.032465022
v -0.08190317 0.04956761 0.0067662443
v -0.06450803 -0.046747047 0.032465022
v -0.061127316 -0.035167534 -0.01529081
v -0.06413037 -0.020994503 -0.015453948
v -0.07749284 0.041944895 -0.015961958
vn 0.94272155 -0.18689424 -0.27630895
vn 0.94272155 -0.18689424 -0.27630895
vn 0.94272155 -0.18689424 -0.27630895
vn 0.94272155 -0.18689424 -0.27630895
vn 0.94201225 -0.1886785 -0.2775129
vn 0.94201225 -0.1886785 -0.2775129
vn 0.7685743 0.6233226 0.14409176
vn 0.7685743 0.6233226 0.14409176
vn 0.7685743 0.6233226 0.14409176
vn 0.7685743 0.6233226 0.14409176
vn 0.7685743 0.6233226 0.14409176
vn 0.74270713 0.64573526 0.17723447
vn 0.74270713 0.64573526 0.17723447
vn -0.14712611 -0.95882756 -0.2429065
vn -0.14712611 -0.95882756 -0.2429065
vn -0.14712611 -0.95882756 -0.2429065
vn -0.14712611 -0.95882756 -0.2429065
vn -0.14712611 -0.95882756 -0.2429065
vn 0.06982805 0.8338555 0.5475482
vn 0.06982805 0.8338555 0.5475482
vn 0.06982805 0.8338555 0.5475482
vn 0.06982805 0.8338555 0.5475482
vn -0.20155467 0.22407201 0.9535027
vn -0.20155467 0.22407201 0.9535027
vn -0.20155467 0.22407201 0.9535027
vn -0.20155467 0.22407201 0.9535027
vn -0.18340284 0.23571004 0.95436054
vn 0.36157605 0.7557475 -0.54599315
vn 0.36157605 0.7557475 -0.54599315
vn 0.36157605 0.7557475 -0.54599315
vn 0.36157605 0.7557475 -0.54599315
vn 0.36157605 0.7557475 -0.54599315
vn -0.17400865 0.9190609 -0.35362118
vn -0.17400865 0.9190609 -0.35362118
vn -0.17400865 0.9190609 -0.35362118
vn -0.17400865 0.9190609 -0.35362118
vn -0.056208085 -0.023398755 -0.99814487
vn -0.056208085 -0.023398755 -0.99814487
vn -0.056208085 -0.023398755 -0.99814487
vn -0.055312786 -0.01984701 -0.9982718
vn -0.055312786 -0.01984701 -0.9982718
vn -0.055312786 -0.01984701 -0.9982718
vn -0.055312786 -0.01984701 -0.9982718
vn -0.055312786 -0.01984701 -0.9982718
vn 0.30180714 -0.36418897 0.8810669
vn 0.36577505 -0.3001583 0.8809731
vn 0.30198556 -0.3640002 0.8810837
vn 0.30016166 -0.3657486 0.880983
vn 0.30016166 -0.3657486 0.880983
vn 0.2794656 -0.38005736 0.88173425
vn 0.30016166 -0.3657486 0.880983
vn 0.26335135 -0.39098322 0.8819173
vn 0.22303681 -0.41729367 0.88097703
vn -0.9710552 -0.20712182 -0.11896408
vn -0.9710552 -0.20712182 -0.11896408
vn -0.9710552 -0.20712182 -0.11896408
vn -0.9710552 -0.20712182 -0.11896408
vn -0.9710552 -0.20712182 -0.11896408
g Sphere_cell.071_cell_cell.002_0
f 3/3/3 2/2/2 1/1/1
f 4/4/4 3/3/3 1/1/1
f 4/4/4 1/1/1 5/5/5
f 6/6/6 4/4/4 5/5/5
f 9/9/9 8/8/8 7/7/7
f 7/7/7 10/10/10 9/9/9
f 7/7/7 11/11/11 10/10/10
f 9/9/9 10/10/10 12/12/12
f 10/10/10 13/13/13 12/12/12
f 16/16/16 15/15/15 14/14/14
f 14/14/14 17/17/17 16/16/16
f 14/14/14 18/18/18 17/17/17
f 21/21/21 20/20/20 19/19/19
f 22/22/22 21/21/21 19/19/19
f 25/25/25 24/24/24 23/23/23
f 26/26/26 25/25/25 23/23/23
f 26/26/26 23/23/23 27/27/27
f 30/30/30 29/29/29 28/28/28
f 28/28/28 31/31/31 30/30/30
f 31/31/31 32/32/32 30/30/30
f 35/35/35 34/34/34 33/33/33
f 36/36/36 35/35/35 33/33/33
f 39/39/39 38/38/38 37/37/37
f 39/39/39 37/37/37 40/40/40
f 41/41/41 39/39/39 40/40/40
f 40/40/40 42/42/42 41/41/41
f 37/37/37 43/43/43 40/40/40
f 37/37/37 44/44/44 43/43/43
f 47/47/47 46/46/46 45/45/45
f 48/48/48 47/47/47 45/45/45
f 45/45/45 49/49/49 48/48/48
f 45/45/45 50/50/50 49/49/49
f 45/45/45 51/51/51 50/50/50
f 51/51/51 52/52/52 50/50/50
f 52/52/52 53/53/53 50/50/50
f 56/56/56 55/55/55 54/54/54
f 54/54/54 57/57/57 56/56/56
f 54/54/54 58/58/58 57/57/57
