g Sphere_cell.028_cell.002
v 0.03615681 -0.08531936 -0.033141866
v 0.034677543 -0.08812865 -0.045351878
v -0.009792167 -0.074458204 -0.039551694
v -0.023655608 -0.07017454 -0.037659913
v -0.059847187 -0.058968153 -0.03263368
v 0.028586544 -0.05506095 0.07397738
v -0.073961206 -0.05456766 -0.030649684
v -0.047095012 -0.02242765 0.11879216
v 0.026935495 -0.048418608 0.09738219
v -0.046089962 -0.021193357 0.12392482
v -0.046089962 -0.021193357 0.12392482
v -0.026428178 0.007910158 0.15309082
v 0.026907124 0.0020436307 0.14813176
v 0.026935495 -0.048418608 0.09738219
v 0.03718642 0.07531776 0.07667147
v 0.037292637 0.05513372 0.09577713
v 0.026907124 0.0020436307 0.14813176
v 0.01021866 0.07061901 0.08644501
v -0.026428178 0.007910158 0.15309082
v 0.03705076 0.102943316 0.05042466
v 0.027472533 0.10018124 0.054935608
v 0.03698925 0.1164905 0.0375025
v 0.033855118 -0.07145604 -0.070373625
v 0.049573574 0.05090322 -0.033141866
v 0.04181627 0.12842287 -0.023438497
v -0.012301521 0.04676857 -0.08243158
v 0.025285162 -0.06461676 -0.07569065
v -0.0071775494 -0.023818582 -0.09279804
v -0.016567664 -0.01172504 -0.09768696
v -0.021723108 0.03234782 -0.092746004
v -0.025256947 0.026818655 -0.0966393
v -0.029412583 0.020506525 -0.10117891
v -0.029412583 0.020506525 -0.10117891
v -0.025256947 0.026818655 -0.0966393
v -0.06843204 -0.044493288 -0.049566787
v -0.021723108 0.03234782 -0.092746004
v -0.012301521 0.04676857 -0.08243158
v -0.047095012 -0.02242765 0.11879216
v -0.073961206 -0.05456766 -0.030649684
v -0.046089962 -0.021193357 0.12392482
v -0.026428178 0.007910158 0.15309082
v 0.01021866 0.07061901 0.08644501
v 0.04181627 0.12842287 -0.023438497
v 0.027472533 0.10018124 0.054935608
v 0.03698925 0.1164905 0.0375025
v -0.016567664 -0.01172504 -0.09768696
v -0.029412583 0.020506525 -0.10117891
v -0.06843204 -0.044493288 -0.049566787
v -0.022263246 -0.04158005 -0.08237449
v 0.03705076 0.102943316 0.05042466
v 0.03698925 0.1164905 0.0375025
v 0.04181627 0.12842287 -0.023438497
v 0.03718642 0.07531776 0.07667147
v 0.037292637 0.05513372 0.09577713
v 0.049573574 0.05090322 -0.033141866
v 0.026907124 0.0020436307 0.14813176
v 0.026935495 -0.048418608 0.09738219
v 0.028586544 -0.05506095 0.07397738
v 0.03615681 -0.08531936 -0.033141866
v 0.034677543 -0.08812865 -0.045351878
v 0.033855118 -0.07145604 -0.070373625
v -0.0071775494 -0.023818582 -0.09279804
v -0.016567664 -0.01172504 -0.09768696
v -0.022263246 -0.04158005 -0.08237449
v 0.025285162 -0.06461676 -0.07569065
v -0.009792167 -0.074458204 -0.039551694
v 0.034677543 -0.08812865 -0.045351878
v 0.033855118 -0.07145604 -0.070373625
v 0.025285162 -0.06461676 -0.07569065
v -0.022263246 -0.04158005 -0.08237449
v -0.023655608 -0.07017454 -0.037659913
v -0.06843204 -0.044493288 -0.049566787
v -0.059847187 -0.058968153 -0.03263368
v -0.073961206 -0.05456766 -0.030649684
vn -0.25534004 -0.93501335 0.24607201
vn -0.25534004 -0.93501335 0.24607201
vn -0.25534004 -0.93501335 0.24607201
vn -0.25534004 -0.93501335 0.24607201
vn -0.256594 -0.93440187 0.24708842
vn -0.256594 -0.93440187 0.24708842
vn -0.256594 -0.93440187 0.24708842
vn -0.256594 -0.93440187 0.24708842
vn -0.256594 -0.93440187 0.24708842
vn -0.24774963 -0.9298243 0.27211556
vn -0.009116796 -0.7075058 0.7066487
vn -0.009116796 -0.7075058 0.7066487
vn -0.009116796 -0.7075058 0.7066487
vn -0.009116796 -0.7075058 0.7066487
vn 0.14172341 0.6808713 0.71856016
vn 0.14172341 0.6808713 0.71856016
vn 0.14172341 0.6808713 0.71856016
vn 0.14172341 0.6808713 0.71856016
vn 0.14172341 0.6808713 0.71856016
vn 0.14110965 0.68225724 0.7173655
vn 0.14110965 0.68225724 0.7173655
vn 0.14010301 0.6837431 0.71614695
vn 0.6087197 0.15832208 -0.7774281
vn 0.6087197 0.15832208 -0.7774281
vn 0.6087197 0.15832208 -0.7774281
vn 0.6087197 0.15832208 -0.7774281
vn 0.6087197 0.15832208 -0.7774281
vn 0.6087197 0.15832208 -0.7774281
vn 0.6087197 0.15832208 -0.7774281
vn 0.6087197 0.15832208 -0.7774281
vn 0.6087197 0.15832208 -0.7774281
vn 0.6087197 0.15832208 -0.7774281
vn -0.8453551 0.5332195 0.03243258
vn -0.8490536 0.5278906 0.02096598
vn -0.84651935 0.53150415 0.030138822
vn -0.84651935 0.53150415 0.030138822
vn -0.84651935 0.53150415 0.030138822
vn -0.845097 0.53330886 0.03731765
vn -0.845097 0.53330886 0.03731765
vn -0.845097 0.53330886 0.03731765
vn -0.845097 0.53330886 0.03731765
vn -0.845097 0.53330886 0.03731765
vn -0.845097 0.53330886 0.03731765
vn -0.845097 0.53330886 0.03731765
vn -0.845097 0.53330886 0.03731765
vn -0.539843 -0.30033305 -0.7863648
vn -0.539843 -0.30033305 -0.7863648
vn -0.539843 -0.30033305 -0.7863648
vn -0.539843 -0.30033305 -0.7863648
vn 0.9915855 0.0900609 0.0929907
vn 0.9915855 0.0900609 0.0929907
vn 0.9915855 0.0900609 0.0929907
vn 0.9915855 0.0900609 0.0929907
vn 0.9941889 -0.0473961 0.09665387
vn 0.9967499 -0.017578933 0.078616895
vn 0.99044037 -0.09753945 0.09753945
vn 0.99044037 -0.09753945 0.09753945
vn 0.99044037 -0.09753945 0.09753945
vn 0.9950618 -0.09799551 -0.015778162
vn 0.99044037 -0.09753945 -0.09753945
vn 0.99044037 -0.09753945 -0.09753945
vn -0.10029172 -0.43885314 -0.8929443
vn -0.10029172 -0.43885314 -0.8929443
vn -0.10029172 -0.43885314 -0.8929443
vn -0.090708315 -0.44562474 -0.8906125
vn -0.3162569 -0.79472566 -0.51806635
vn -0.3122547 -0.7952731 -0.51965135
vn -0.3122547 -0.7952731 -0.51965135
vn -0.3122547 -0.7952731 -0.51965135
vn -0.3162569 -0.79472566 -0.51806635
vn -0.3162569 -0.79472566 -0.51806635
vn -0.31805143 -0.79424757 -0.5177008
vn -0.31805143 -0.79424757 -0.5177008
vn -0.31805143 -0.79424757 -0.5177008
g Sphere_cell.028_cell.002_0
f 3/3/3 2/2/2 1/1/1
f 1/1/1 4/4/4 3/3/3
f 1/1/1 5/5/5 4/4/4
f 1/1/1 6/6/6 5/5/5
f 7/7/7 5/5/5 6/6/6
f 6/6/6 8/8/8 7/7/7
f 6/6/6 9/9/9 8/8/8
f 10/10/10 8/8/8 9/9/9
f 13/13/13 12/12/12 11/11/11
f 14/14/14 13/13/13 11/11/11
f 17/17/17 16/16/16 15/15/15
f 15/15/15 18/18/18 17/17/17
f 18/18/18 19/19/19 17/17/17
f 18/18/18 15/15/15 20/20/20
f 21/21/21 18/18/18 20/20/20
f 20/20/20 22/22/22 21/21/21
f 25/25/25 24/24/24 23/23/23
f 23/23/23 26/26/26 25/25/25
f 23/23/23 27/27/27 26/26/26
f 27/27/27 28/28/28 26/26/26
f 28/28/28 29/29/29 26/26/26
f 29/29/29 30/30/30 26/26/26
f 29/29/29 31/31/31 30/30/30
f 29/29/29 32/32/32 31/31/31
f 35/35/35 34/34/34 33/33/33
f 35/35/35 36/36/36 34/34/34
f 35/35/35 37/37/37 36/36/36
f 38/38/38 37/37/37 35/35/35
f 35/35/35 39/39/39 38/38/38
f 38/38/38 40/40/40 37/37/37
f 40/40/40 41/41/41 37/37/37
f 41/41/41 42/42/42 37/37/37
f 42/42/42 43/43/43 37/37/37
f 42/42/42 44/44/44 43/43/43
f 44/44/44 45/45/45 43/43/43
f 48/48/48 47/47/47 46/46/46
f 49/49/49 48/48/48 46/46/46
f 52/52/52 51/51/51 50/50/50
f 52/52/52 50/50/50 53/53/53
f 52/52/52 53/53/53 54/54/54
f 54/54/54 55/55/55 52/52/52
f 55/55/55 54/54/54 56/56/56
f 55/55/55 56/56/56 57/57/57
f 55/55/55 57/57/57 58/58/58
f 58/58/58 59/59/59 55/55/55
f 59/59/59 60/60/60 55/55/55
f 60/60/60 61/61/61 55/55/55
f 64/64/64 63/63/63 62/62/62
f 64/64/64 62/62/62 65/65/65
f 68/68/68 67/67/67 66/66/66
f 69/69/69 68/68/68 66/66/66
f 66/66/66 70/70/70 69/69/69
f 70/70/70 66/66/66 71/71/71
f 72/72/72 70/70/70 71/71/71
f 71/71/71 73/73/73 72/72/72
f 73/73/73 74/74/74 72/72/72
