g Sphere_cell.071_cell.004
v -0.05255062 0.20428003 -0.15248768
v -0.053144462 0.21275963 -0.13472264
v -0.07742358 0.20079793 -0.15753798
v 0.21342774 -0.08605321 -0.19093725
v 0.16096571 -0.1076668 -0.23206255
v 0.17176482 -0.12045009 -0.20015863
v 0.19227399 -0.08438547 -0.22164187
v 0.16926053 -0.08250244 -0.2549785
v 0.25661686 -0.033691484 -0.07355867
v 0.21342774 -0.08605321 -0.19093725
v 0.17176482 -0.12045009 -0.20015863
v -0.011513843 -0.23545484 -0.009163731
v 0.275117 -0.011236986 -0.023254804
v 0.19978769 -0.06490524 0.014184121
v 0.023020072 -0.19603829 0.068507135
v 0.11172864 -0.128964 0.049456418
v 0.06030772 -0.16727954 0.064112365
v 0.043874126 -0.17984873 0.066724
v 0.17176482 -0.12045009 -0.20015863
v 0.16096571 -0.1076668 -0.23206255
v -0.011513843 -0.23545484 -0.009163731
v -0.07355643 -0.20720772 -0.08716278
v -0.07533998 -0.24581484 -0.0053874785
v -0.072712846 -0.1863783 -0.13031314
v 0.09024701 -0.039344627 -0.28127536
v 0.12909529 -0.046191055 -0.28077385
v 0.08148614 0.12949958 -0.18126242
v -0.04837037 -0.014594634 -0.282949
v -0.05255062 0.20428003 -0.15248768
v -0.07742358 0.20079793 -0.15753798
v -0.091970034 -0.007153591 -0.28317693
v -0.14109945 0.16715041 -0.1844322
v -0.07533998 -0.24581484 -0.0053874785
v -0.088867374 -0.2204142 0.06080675
v -0.011513843 -0.23545484 -0.009163731
v 0.023020072 -0.19603829 0.068507135
v -0.095075846 -0.20873408 0.09114772
v -0.03730155 -0.20187955 0.08159083
v 0.16926053 -0.08250244 -0.2549785
v 0.12909529 -0.046191055 -0.28077385
v 0.09024701 -0.039344627 -0.28127536
v 0.16096571 -0.1076668 -0.23206255
v -0.072712846 -0.1863783 -0.13031314
v -0.04837037 -0.014594634 -0.282949
v -0.091970034 -0.007153591 -0.28317693
v -0.079461046 -0.12437088 -0.18318819
v -0.053144462 0.21275963 -0.13472264
v -0.14109945 0.16715041 -0.1844322
v -0.07742358 0.20079793 -0.15753798
v -0.17021227 0.12331643 0.12683032
v -0.14780492 0.1362988 0.12430101
v -0.049940355 0.19407238 0.09689807
v -0.11865932 0.15307298 0.121018104
v -0.010191335 0.2175373 0.0829947
v 0.01960097 0.24155678 -0.00017332424
v 0.25747994 0.027975714 -0.011763267
v 0.275117 -0.011236986 -0.023254804
v 0.19978769 -0.06490524 0.014184121
v 0.11552653 0.027975714 0.064112365
v 0.20985462 0.12285938 0.008697812
v 0.10817334 -0.046682198 0.064112365
v 0.08639643 -0.118470974 0.064112365
v -0.08691687 -0.046682198 0.121018104
v 0.11172864 -0.128964 0.049456418
v 0.06030772 -0.16727954 0.064112365
v 0.043874126 -0.17984873 0.066724
v -0.07581509 -0.010084471 0.121018104
v -0.10494518 -0.08041079 0.121018104
v 0.023020072 -0.19603829 0.068507135
v -0.03730155 -0.20187955 0.08159083
v -0.11639398 -0.122787304 0.115521245
v -0.095075846 -0.20873408 0.09114772
v -0.12174088 -0.1008764 0.121018104
v -0.13004804 -0.06363757 0.12399166
v -0.13853487 -0.025301533 0.12652092
v -0.14488667 0.0036546371 0.12795435
v -0.07206649 0.027975714 0.121018104
v -0.15016687 0.027975714 0.12871031
v 0.10817334 0.10263362 0.064112365
v -0.07581509 0.0660359 0.121018104
v -0.15495843 0.050293356 0.12896572
v 0.08639649 0.17442241 0.064112365
v 0.20121874 0.13834992 0.010721271
v -0.08691681 0.10263362 0.121018104
v 0.0055123414 0.21016754 0.08071965
v -0.1596711 0.072497755 0.12877415
v -0.10494512 0.13636222 0.121018104
v -0.010191335 0.2175373 0.0829947
v -0.049940355 0.19407238 0.09689807
v -0.11865932 0.15307298 0.121018104
v -0.16467392 0.096452616 0.12809323
v -0.161104 0.07932678 0.12858061
v -0.14780492 0.1362988 0.12430101
v -0.17021227 0.12331643 0.12683032
v -0.088867374 -0.2204142 0.06080675
v -0.07533998 -0.24581484 -0.0053874785
v -0.07355643 -0.20720772 -0.08716278
v -0.095075846 -0.20873408 0.09114772
v -0.11639398 -0.122787304 0.115521245
v -0.072712846 -0.1863783 -0.13031314
v -0.079461046 -0.12437088 -0.18318819
v -0.161104 0.07932678 0.12858061
v -0.091970034 -0.007153591 -0.28317693
v -0.12174088 -0.1008764 0.121018104
v -0.13004804 -0.06363757 0.12399166
v -0.13853487 -0.025301533 0.12652092
v -0.14488667 0.0036546371 0.12795435
v -0.15016687 0.027975714 0.12871031
v -0.15495843 0.050293356 0.12896572
v -0.1596711 0.072497755 0.12877415
v -0.14109945 0.16715041 -0.1844322
v -0.16467392 0.096452616 0.12809323
v -0.17021227 0.12331643 0.12683032
v -0.053144462 0.21275963 -0.13472264
v -0.05255062 0.20428003 -0.15248768
v 0.08148614 0.12949958 -0.18126242
v 0.01960097 0.24155678 -0.00017332424
v 0.1674895 0.1675593 -0.012166791
v 0.01960097 0.24155678 -0.00017332424
v 0.1674895 0.1675593 -0.012166791
v 0.20121874 0.13834992 0.010721271
v -0.010191335 0.2175373 0.0829947
v 0.08639649 0.17442241 0.064112365
v 0.0055123414 0.21016754 0.08071965
v 0.20121874 0.13834992 0.010721271
v 0.1674895 0.1675593 -0.012166791
v 0.08148614 0.12949958 -0.18126242
v 0.20985462 0.12285938 0.008697812
v 0.25747994 0.027975714 -0.011763267
v 0.275117 -0.011236986 -0.023254804
v 0.25661686 -0.033691484 -0.07355867
v 0.12909529 -0.046191055 -0.28077385
v 0.16926053 -0.08250244 -0.2549785
v 0.19227399 -0.08438547 -0.22164187
v 0.21342774 -0.08605321 -0.19093725
vn -0.03856457 0.90129167 -0.43149304
vn -0.03856457 0.90129167 -0.43149304
vn -0.03856457 0.90129167 -0.43149304
vn 0.6229169 -0.6302741 -0.46338874
vn 0.6229169 -0.6302741 -0.46338874
vn 0.6229169 -0.6302741 -0.46338874
vn 0.6229169 -0.6302741 -0.46338874
vn 0.622669 -0.62904865 -0.4653827
vn 0.61599964 -0.77845854 0.120609105
vn 0.61599964 -0.77845854 0.120609105
vn 0.61599964 -0.77845854 0.120609105
vn 0.6152587 -0.77891356 0.12145079
vn 0.6152587 -0.77891356 0.12145079
vn 0.6152587 -0.77891356 0.12145079
vn 0.6152587 -0.77891356 0.12145079
vn 0.6152587 -0.77891356 0.12145079
vn 0.6152587 -0.77891356 0.12145079
vn 0.6152587 -0.77891356 0.12145079
vn 0.13996238 -0.9018579 -0.4087333
vn 0.13996238 -0.9018579 -0.4087333
vn 0.13996238 -0.9018579 -0.4087333
vn 0.12092328 -0.8986665 -0.42163503
vn 0.12092328 -0.8986665 -0.42163503
vn 0.114392035 -0.89552814 -0.43005106
vn 0.10158513 0.5108362 -0.853655
vn 0.10158513 0.5108362 -0.853655
vn 0.10158513 0.5108362 -0.853655
vn 0.10158513 0.5108362 -0.853655
vn 0.10158513 0.5108362 -0.853655
vn 0.10158513 0.5108362 -0.853655
vn 0.09155289 0.51024914 -0.8551397
vn 0.09155289 0.51024914 -0.8551397
vn 0.17003587 -0.90790576 0.3831382
vn 0.17003587 -0.90790576 0.3831382
vn 0.17003587 -0.90790576 0.3831382
vn 0.17119858 -0.90720737 0.38427317
vn 0.17119858 -0.90720737 0.38427317
vn 0.17119858 -0.90720737 0.38427317
vn -0.10492294 -0.6504591 -0.75225925
vn -0.10492294 -0.6504591 -0.75225925
vn -0.10492294 -0.6504591 -0.75225925
vn -0.10492294 -0.6504591 -0.75225925
vn -0.10732128 -0.65183806 -0.75072575
vn -0.10732128 -0.65183806 -0.75072575
vn -0.10732128 -0.65183806 -0.75072575
vn -0.10732128 -0.65183806 -0.75072575
vn -0.4861228 0.87181205 0.06023506
vn -0.4861228 0.87181205 0.06023506
vn -0.4861228 0.87181205 0.06023506
vn -0.49269047 0.8668859 0.0759267
vn -0.49269047 0.8668859 0.0759267
vn -0.49082923 0.8678635 0.07680921
vn -0.49082923 0.8678635 0.07680921
vn -0.48675796 0.87014216 0.076937094
vn -0.48675796 0.87014216 0.076937094
vn 0.47134247 -0.014618818 0.8818291
vn 0.47088516 -0.0463591 0.88097554
vn 0.46685156 -0.06863759 0.881668
vn 0.38787007 0 0.92171407
vn 0.46419784 0.08246302 0.8818844
vn 0.38042286 -0.0756573 0.9217128
vn 0.35835707 -0.14841513 0.92171204
vn 0.18564765 -0.07690812 0.979602
vn 0.4421304 -0.16422334 0.88178873
vn 0.2824857 -0.15097846 0.9473159
vn 0.2447339 -0.15616702 0.9569312
vn 0.19709224 -0.0391865 0.9796015
vn 0.16709179 -0.11163869 0.9796005
vn 0.22538243 -0.18494481 0.95655537
vn 0.21415275 -0.19632958 0.9568663
vn 0.21869959 -0.19172074 0.9567725
vn 0.18494481 -0.22538243 0.95655537
vn 0.18238415 -0.1496673 0.9717694
vn 0.08426379 -0.050295807 0.9951734
vn 0.09198566 -0.034029204 0.9951787
vn 0.09662205 -0.016602146 0.9951827
vn 0.20096742 0 0.97959787
vn 0.09799571 0.0013123063 0.99518603
vn 0.38042286 0.0756573 0.9217128
vn 0.19709224 0.0391865 0.9796015
vn 0.09610358 0.019196298 0.99518627
vn 0.3295146 0.114263475 0.93721074
vn 0.4527881 0.137338 0.88097745
vn 0.18564765 0.07690812 0.979602
vn 0.24708219 0.15265626 0.95689416
vn 0.09097641 0.036439393 0.99518615
vn 0.16709179 0.11163869 0.9796005
vn 0.22538243 0.18494481 0.95655537
vn 0.22538243 0.18494481 0.95655537
vn 0.14420392 0.11832352 0.9824484
vn 0.08279725 0.052461665 0.9951846
vn 0.086857565 0.046419658 0.99513865
vn 0.07611493 0.06247284 0.9951401
vn 0.07611493 0.06247284 0.9951401
vn -0.971055 -0.2071223 -0.11896477
vn -0.971055 -0.2071223 -0.11896477
vn -0.971055 -0.2071223 -0.11896477
vn -0.971055 -0.2071223 -0.11896477
vn -0.971055 -0.2071223 -0.11896477
vn -0.971055 -0.2071223 -0.11896477
vn -0.971055 -0.2071223 -0.11896477
vn -0.971055 -0.2071223 -0.11896477
vn -0.97121644 -0.20586263 -0.11983019
vn -0.971055 -0.2071223 -0.11896477
vn -0.971055 -0.2071223 -0.11896477
vn -0.971055 -0.2071223 -0.11896477
vn -0.971055 -0.2071223 -0.11896477
vn -0.971055 -0.2071223 -0.11896477
vn -0.971055 -0.2071223 -0.11896477
vn -0.971055 -0.2071223 -0.11896477
vn -0.97121644 -0.20586263 -0.11983019
vn -0.97121644 -0.20586263 -0.11983019
vn -0.97121644 -0.20586263 -0.11983019
vn 0.38441965 0.83803344 -0.38719696
vn 0.38441965 0.83803344 -0.38719696
vn 0.38441965 0.83803344 -0.38719696
vn 0.38441965 0.83803344 -0.38719696
vn 0.38766208 0.8372672 -0.38561848
vn 0.4371302 0.8098952 0.39113533
vn 0.4371302 0.8098952 0.39113533
vn 0.4371302 0.8098952 0.39113533
vn 0.4371302 0.8098952 0.39113533
vn 0.4371302 0.8098952 0.39113533
vn 0.4371302 0.8098952 0.39113533
vn 0.73720795 0.47389066 -0.4816141
vn 0.73720795 0.47389066 -0.4816141
vn 0.73720795 0.47389066 -0.4816141
vn 0.73720795 0.47389066 -0.4816141
vn 0.73720795 0.47389066 -0.4816141
vn 0.7373444 0.47298184 -0.482298
vn 0.7373444 0.47298184 -0.482298
vn 0.7373444 0.47298184 -0.482298
vn 0.7373444 0.47298184 -0.482298
vn 0.7373444 0.47298184 -0.482298
vn 0.7373444 0.47298184 -0.482298
g Sphere_cell.071_cell.004_0
f 3/3/3 2/2/2 1/1/1
f 6/6/6 5/5/5 4/4/4
f 5/5/5 7/7/7 4/4/4
f 8/8/8 7/7/7 5/5/5
f 11/11/11 10/10/10 9/9/9
f 12/12/12 11/11/11 9/9/9
f 9/9/9 13/13/13 12/12/12
f 13/13/13 14/14/14 12/12/12
f 14/14/14 15/15/15 12/12/12
f 14/14/14 16/16/16 15/15/15
f 16/16/16 17/17/17 15/15/15
f 17/17/17 18/18/18 15/15/15
f 21/21/21 20/20/20 19/19/19
f 20/20/20 21/21/21 22/22/22
f 21/21/21 23/23/23 22/22/22
f 20/20/20 22/22/22 24/24/24
f 27/27/27 26/26/26 25/25/25
f 25/25/25 28/28/28 27/27/27
f 28/28/28 29/29/29 27/27/27
f 28/28/28 30/30/30 29/29/29
f 30/30/30 28/28/28 31/31/31
f 32/32/32 30/30/30 31/31/31
f 35/35/35 34/34/34 33/33/33
f 34/34/34 35/35/35 36/36/36
f 36/36/36 37/37/37 34/34/34
f 36/36/36 38/38/38 37/37/37
f 41/41/41 40/40/40 39/39/39
f 42/42/42 41/41/41 39/39/39
f 41/41/41 42/42/42 43/43/43
f 43/43/43 44/44/44 41/41/41
f 43/43/43 45/45/45 44/44/44
f 43/43/43 46/46/46 45/45/45
f 49/49/49 48/48/48 47/47/47
f 48/48/48 50/50/50 47/47/47
f 50/50/50 51/51/51 47/47/47
f 47/47/47 51/51/51 52/52/52
f 51/51/51 53/53/53 52/52/52
f 47/47/47 52/52/52 54/54/54
f 55/55/55 47/47/47 54/54/54
f 58/58/58 57/57/57 56/56/56
f 56/56/56 59/59/59 58/58/58
f 59/59/59 56/56/56 60/60/60
f 59/59/59 61/61/61 58/58/58
f 61/61/61 62/62/62 58/58/58
f 63/63/63 62/62/62 61/61/61
f 62/62/62 64/64/64 58/58/58
f 62/62/62 65/65/65 64/64/64
f 65/65/65 62/62/62 63/63/63
f 63/63/63 66/66/66 65/65/65
f 67/67/67 61/61/61 59/59/59
f 67/67/67 63/63/63 61/61/61
f 63/63/63 68/68/68 66/66/66
f 69/69/69 66/66/66 68/68/68
f 68/68/68 70/70/70 69/69/69
f 68/68/68 71/71/71 70/70/70
f 71/71/71 72/72/72 70/70/70
f 68/68/68 73/73/73 71/71/71
f 68/68/68 74/74/74 73/73/73
f 68/68/68 63/63/63 74/74/74
f 63/63/63 75/75/75 74/74/74
f 63/63/63 67/67/67 75/75/75
f 67/67/67 76/76/76 75/75/75
f 67/67/67 77/77/77 76/76/76
f 77/77/77 67/67/67 59/59/59
f 77/77/77 78/78/78 76/76/76
f 77/77/77 59/59/59 79/79/79
f 79/79/79 59/59/59 60/60/60
f 77/77/77 80/80/80 78/78/78
f 80/80/80 77/77/77 79/79/79
f 80/80/80 81/81/81 78/78/78
f 79/79/79 60/60/60 82/82/82
f 80/80/80 79/79/79 82/82/82
f 60/60/60 83/83/83 82/82/82
f 80/80/80 84/84/84 81/81/81
f 84/84/84 80/80/80 82/82/82
f 84/84/84 82/82/82 85/85/85
f 84/84/84 86/86/86 81/81/81
f 87/87/87 84/84/84 85/85/85
f 86/86/86 84/84/84 87/87/87
f 87/87/87 85/85/85 88/88/88
f 88/88/88 89/89/89 87/87/87
f 89/89/89 90/90/90 87/87/87
f 87/87/87 91/91/91 86/86/86
f 91/91/91 87/87/87 90/90/90
f 91/91/91 92/92/92 86/86/86
f 90/90/90 93/93/93 91/91/91
f 93/93/93 94/94/94 91/91/91
f 97/97/97 96/96/96 95/95/95
f 95/95/95 98/98/98 97/97/97
f 98/98/98 99/99/99 97/97/97
f 99/99/99 100/100/100 97/97/97
f 99/99/99 101/101/101 100/100/100
f 99/99/99 102/102/102 101/101/101
f 103/103/103 101/101/101 102/102/102
f 99/99/99 104/104/104 102/102/102
f 104/104/104 105/105/105 102/102/102
f 105/105/105 106/106/106 102/102/102
f 106/106/106 107/107/107 102/102/102
f 107/107/107 108/108/108 102/102/102
f 108/108/108 109/109/109 102/102/102
f 109/109/109 110/110/110 102/102/102
f 102/102/102 111/111/111 103/103/103
f 102/102/102 112/112/112 111/111/111
f 112/112/112 113/113/113 111/111/111
f 116/116/116 115/115/115 114/114/114
f 117/117/117 116/116/116 114/114/114
f 116/116/116 117/117/117 118/118/118
f 121/121/121 120/120/120 119/119/119
f 119/119/119 122/122/122 121/121/121
f 122/122/122 123/123/123 121/121/121
f 122/122/122 124/124/124 123/123/123
f 127/127/127 126/126/126 125/125/125
f 127/127/127 125/125/125 128/128/128
f 128/128/128 129/129/129 127/127/127
f 127/127/127 129/129/129 130/130/130
f 127/127/127 130/130/130 131/131/131
f 132/132/132 127/127/127 131/131/131
f 133/133/133 132/132/132 131/131/131
f 134/134/134 133/133/133 131/131/131
f 131/131/131 135/135/135 134/134/134
