g Sphere_cell.018_cell.007
v -0.13350615 -0.06606423 0.079523556
v -0.118159324 -0.067816846 0.0592105
v -0.05251769 -0.06412231 -0.03249627
v -0.06205205 0.028239843 -0.059218906
v -0.033281963 -0.057111375 -0.061925523
v 0.11311185 0.088997 0.09547429
v 0.037544798 0.03379285 0.112917885
v -0.12126592 -0.060316674 0.0859726
v -0.13350615 -0.06606423 0.079523556
v -0.06205205 0.028239843 -0.059218906
v 0.00015534459 0.08241951 -0.09936927
v 0.13485992 0.10486446 0.090402804
v -0.033281963 -0.057111375 -0.061925523
v 0.0061202785 -0.038643714 -0.08525889
v -0.06205205 0.028239843 -0.059218906
v 0.06551344 -0.01078546 -0.12024011
v 0.00015534459 0.08241951 -0.09936927
v 0.13485992 0.10486446 0.090402804
v 0.00015534459 0.08241951 -0.09936927
v 0.06551344 -0.01078546 -0.12024011
v 0.10142666 0.029430743 -0.032496255
v 0.037544798 0.03379285 0.112917885
v 0.11311185 0.088997 0.09547429
v 0.13485992 0.10486446 0.090402804
v 0.10142666 0.029430743 -0.032496255
v 0.062051244 -0.0028837917 -0.03249627
v 0.06551344 -0.01078546 -0.12024011
v 0.0061202785 -0.038643714 -0.08525889
v -0.033281963 -0.057111375 -0.061925523
v -0.05251769 -0.06412231 -0.03249627
v -0.118159324 -0.067816846 0.0592105
v -0.12126592 -0.060316674 0.0859726
v -0.13350615 -0.06606423 0.079523556
vn -0.7834557 -0.2459889 -0.57068956
vn -0.7834557 -0.2459889 -0.57068956
vn -0.7834557 -0.2459889 -0.57068956
vn -0.7834557 -0.2459889 -0.57068956
vn -0.7834557 -0.2459889 -0.57068956
vn -0.5241939 0.80517995 0.27731943
vn -0.5241939 0.80517995 0.27731943
vn -0.5241939 0.80517995 0.27731943
vn -0.5241939 0.80517995 0.27731943
vn -0.5241939 0.80517995 0.27731943
vn -0.5235734 0.8059253 0.27632457
vn -0.5235734 0.8059253 0.27632457
vn -0.46051437 -0.1273722 -0.8784662
vn -0.46051437 -0.1273722 -0.8784662
vn -0.46051437 -0.1273722 -0.8784662
vn -0.45902407 -0.1251336 -0.87956715
vn -0.45902407 -0.1251336 -0.87956715
vn 0.6397004 0.56519043 -0.52090627
vn 0.6397004 0.56519043 -0.52090627
vn 0.6397004 0.56519043 -0.52090627
vn 0.6397004 0.56519043 -0.52090627
vn 0.5305149 -0.7964285 0.29026788
vn 0.60732937 -0.74002624 0.288985
vn 0.60732937 -0.74002624 0.288985
vn 0.61801344 -0.7530304 0.22584197
vn 0.5455561 -0.81552655 0.19309318
vn 0.5237375 -0.8463544 0.09686749
vn 0.46913624 -0.877723 0.097538345
vn 0.46913624 -0.877723 0.097538345
vn 0.4587587 -0.8582804 0.22998974
vn 0.421192 -0.8594441 0.28974688
vn 0.38478264 -0.8761984 0.29020447
vn 0.27790347 -0.91611093 0.28898174
g Sphere_cell.018_cell.007_0
f 3/3/3 2/2/2 1/1/1
f 1/1/1 4/4/4 3/3/3
f 4/4/4 5/5/5 3/3/3
f 8/8/8 7/7/7 6/6/6
f 9/9/9 8/8/8 6/6/6
f 6/6/6 10/10/10 9/9/9
f 10/10/10 6/6/6 11/11/11
f 6/6/6 12/12/12 11/11/11
f 15/15/15 14/14/14 13/13/13
f 16/16/16 14/14/14 15/15/15
f 17/17/17 16/16/16 15/15/15
f 20/20/20 19/19/19 18/18/18
f 21/21/21 20/20/20 18/18/18
f 24/24/24 23/23/23 22/22/22
f 25/25/25 24/24/24 22/22/22
f 22/22/22 26/26/26 25/25/25
f 26/26/26 27/27/27 25/25/25
f 28/28/28 27/27/27 26/26/26
f 26/26/26 29/29/29 28/28/28
f 26/26/26 30/30/30 29/29/29
f 30/30/30 26/26/26 22/22/22
f 22/22/22 31/31/31 30/30/30
f 22/22/22 32/32/32 31/31/31
f 32/32/32 33/33/33 31/31/31
