g Sphere_cell.062
v -0.086801216 -0.14897938 0.2447172
v -0.17905341 -0.014865359 0.22710915
v -0.020378938 0.14559628 0.34065095
v -0.21336037 0.018539226 0.18808223
v -0.15424834 0.19487691 0.20616968
v -0.17905341 -0.014865359 0.22710915
v 0.04343051 0.28537107 0.3712018
v 0.027869824 0.286999 0.35617223
v -0.020378938 0.14559628 0.34065095
v -0.21336037 0.018539226 0.18808223
v -0.23333609 0.10523822 -0.15542859
v -0.15424834 0.19487691 0.20616968
v -0.2374773 0.09255937 -0.1559456
v -0.26151967 -0.023811776 -0.06263382
v -0.24428022 0.071332246 -0.15638667
v -0.21336037 0.018539226 0.18808223
v -0.17905341 -0.014865359 0.22710915
v -0.086801216 -0.14897938 0.2447172
v -0.26151967 -0.023811776 -0.06263382
v -0.23613012 -0.06219907 -0.061795536
v -0.040556896 -0.24706477 0.18072078
v -0.23333609 0.10523822 -0.15542859
v 0.027869824 0.286999 0.35617223
v -0.15424834 0.19487691 0.20616968
v -0.2252796 0.108340524 -0.15460503
v -0.17406069 0.12797119 -0.14936996
v -0.15715401 0.13133408 -0.14767218
v 0.014972633 0.2070353 -0.0907665
v 0.032514516 0.2151885 -0.08047933
v -0.2330719 0.052112848 -0.154773
v -0.24428022 0.071332246 -0.15638667
v -0.26151967 -0.023811776 -0.06263382
v -0.22317204 0.035627875 -0.15325904
v -0.22769752 0.04323772 -0.15400904
v -0.23613012 -0.06219907 -0.061795536
v -0.19006589 -0.019720515 -0.14767218
v -0.19705209 -0.007917366 -0.14894772
v -0.15597342 -0.09924836 -0.124260664
v -0.14863585 -0.11711878 -0.118631065
v -0.020378938 0.14559628 0.34065095
v 0.04343051 0.28537107 0.3712018
v -0.086801216 -0.14897938 0.2447172
v 0.26152584 0.20697594 0.23670776
v -0.040556896 -0.24706477 0.18072078
v 0.05664414 -0.30718583 0.10924509
v 0.26719138 0.09643652 0.18608072
v 0.04343051 0.28537107 0.3712018
v 0.027869824 0.286999 0.35617223
v 0.26152584 0.20697594 0.23670776
v 0.26218566 0.17765523 0.05369262
v 0.32335564 0.16957809 0.1032407
v 0.1979613 0.18580104 0.0016434675
v 0.15447555 0.19332099 -0.021204242
v 0.032514516 0.2151885 -0.08047933
v -0.23613012 -0.06219907 -0.061795536
v -0.040556896 -0.24706477 0.18072078
v 0.05664414 -0.30718583 0.10924509
v 0.036673848 -0.27209085 -0.010908435
v -0.07621376 -0.17527194 -0.0907665
v -0.09528015 -0.15994163 -0.09822345
v -0.14863585 -0.11711878 -0.118631065
v 0.091358304 -0.32133526 0.042993173
v 0.0544585 -0.28725833 0.0016434675
v 0.09824049 -0.32764214 0.050679784
v 0.32335564 0.16957809 0.1032407
v 0.31574485 0.09327391 0.090827025
v 0.31051323 0.060212165 0.0892059
v 0.26152584 0.20697594 0.23670776
v 0.26719138 0.09643652 0.18608072
v 0.30290458 0.012495792 0.08681861
v 0.30290458 0.012495792 0.08681861
v 0.2965922 -0.0021752936 0.08282403
v 0.26719138 0.09643652 0.18608072
v 0.2833629 -0.03241058 0.07441095
v 0.22410288 -0.14390416 0.054336112
v 0.15931736 -0.246036 0.046921533
v 0.11619239 -0.30368322 0.049589317
v 0.05664414 -0.30718583 0.10924509
v 0.09824049 -0.32764214 0.050679784
v 0.15447555 0.19332099 -0.021204242
v 0.032514516 0.2151885 -0.08047933
v 0.014972633 0.2070353 -0.0907665
v 0.026834492 0.16793181 -0.0907665
v 0.03418768 0.09327391 -0.0907665
v -0.15715401 0.13133408 -0.14767218
v 0.1979613 0.18580104 0.0016434675
v 0.20707437 0.09327391 0.0016434675
v 0.26218566 0.17765523 0.05369262
v 0.31574485 0.09327391 0.090827025
v 0.32335564 0.16957809 0.1032407
v 0.31051323 0.060212165 0.0892059
v 0.30290458 0.012495792 0.08681861
v 0.2965922 -0.0021752936 0.08282403
v 0.2833629 -0.03241058 0.07441095
v 0.19639924 -0.015112361 0.0016434675
v 0.22410288 -0.14390416 0.054336112
v 0.16478412 -0.11933345 0.0016434675
v 0.15931736 -0.246036 0.046921533
v 0.026834492 0.018615996 -0.0907665
v 0.1134439 -0.21538419 0.0016434675
v 0.11619239 -0.30368322 0.049589317
v 0.09824049 -0.32764214 0.050679784
v -0.15340541 0.09327391 -0.14767218
v 0.0050575803 -0.053172782 -0.0907665
v 0.0544585 -0.28725833 0.0016434675
v 0.091358304 -0.32133526 0.042993173
v -0.030306209 -0.11933345 -0.0907665
v 0.036673848 -0.27209085 -0.010908435
v -0.07621376 -0.17527194 -0.0907665
v -0.18628411 -0.015112361 -0.14767218
v -0.09528015 -0.15994163 -0.09822345
v -0.2374773 0.09255937 -0.1559456
v -0.17406069 0.12797119 -0.14936996
v -0.2252796 0.108340524 -0.15460503
v -0.23333609 0.10523822 -0.15542859
v -0.15715407 0.05521372 -0.14767218
v -0.24428022 0.071332246 -0.15638667
v -0.16825579 0.018615996 -0.14767218
v -0.22769752 0.04323772 -0.15400904
v -0.2330719 0.052112848 -0.154773
v -0.19705209 -0.007917366 -0.14894772
v -0.22317204 0.035627875 -0.15325904
v -0.19006589 -0.019720515 -0.14767218
v -0.15597342 -0.09924836 -0.124260664
v -0.14863585 -0.11711878 -0.118631065
vn -0.43954402 -0.18700147 0.87853944
vn -0.43954402 -0.18700147 0.87853944
vn -0.43954402 -0.18700147 0.87853944
vn -0.6742495 0.15189147 0.7227148
vn -0.6742495 0.15189147 0.7227148
vn -0.6742495 0.15189147 0.7227148
vn -0.67348266 0.15187256 0.7234333
vn -0.67583513 0.16722842 0.7178311
vn -0.6692282 0.14628004 0.7285161
vn -0.9439124 0.30294606 0.13135086
vn -0.9439124 0.30294606 0.13135086
vn -0.9439124 0.30294606 0.13135086
vn -0.9439124 0.30294606 0.13135086
vn -0.944895 0.30010423 0.13080838
vn -0.944895 0.30010423 0.13080838
vn -0.8103382 -0.5226076 0.26501554
vn -0.8103382 -0.5226076 0.26501554
vn -0.8103382 -0.5226076 0.26501554
vn -0.81158876 -0.5301672 0.24545155
vn -0.811144 -0.53114855 0.2447991
vn -0.80764997 -0.53810734 0.24112648
vn -0.34112328 0.927115 -0.15521811
vn -0.34112328 0.927115 -0.15521811
vn -0.34112328 0.927115 -0.15521811
vn -0.34112328 0.927115 -0.15521811
vn -0.33800727 0.9273088 -0.16077776
vn -0.33800727 0.9273088 -0.16077776
vn -0.33800727 0.9273088 -0.16077776
vn -0.33800727 0.9273088 -0.16077776
vn -0.6824304 -0.44656503 -0.578678
vn -0.6824304 -0.44656503 -0.578678
vn -0.6824304 -0.44656503 -0.578678
vn -0.67133945 -0.4567716 -0.5836634
vn -0.67133945 -0.4567716 -0.5836634
vn -0.67133945 -0.4567716 -0.5836634
vn -0.66833794 -0.45885772 -0.5854692
vn -0.66833794 -0.45885772 -0.5854692
vn -0.66833794 -0.45885772 -0.5854692
vn -0.66833794 -0.45885772 -0.5854692
vn 0.39178196 -0.3635852 0.84517014
vn 0.39178196 -0.3635852 0.84517014
vn 0.39178196 -0.3635852 0.84517014
vn 0.39085373 -0.3634492 0.84565836
vn 0.39281574 -0.3654088 0.84390295
vn 0.3937773 -0.36594883 0.8432206
vn 0.3937773 -0.36594883 0.8432206
vn 0.2487672 0.95624495 -0.15398222
vn 0.2487672 0.95624495 -0.15398222
vn 0.2487672 0.95624495 -0.15398222
vn 0.24671674 0.9566593 -0.15470557
vn 0.24963973 0.956286 -0.1523057
vn 0.24671674 0.9566593 -0.15470557
vn 0.24671674 0.9566593 -0.15470557
vn 0.24671674 0.9566593 -0.15470557
vn -0.58973116 -0.7967742 -0.13178726
vn -0.58973116 -0.7967742 -0.13178726
vn -0.58973116 -0.7967742 -0.13178726
vn -0.5882418 -0.7973176 -0.13511506
vn -0.5882418 -0.7973176 -0.13511506
vn -0.5882418 -0.7973176 -0.13511506
vn -0.5882418 -0.7973176 -0.13511506
vn -0.58550096 -0.79916376 -0.13610992
vn -0.58550096 -0.79916376 -0.13610992
vn -0.5834916 -0.8008722 -0.1346895
vn 0.87754875 -0.16100627 0.45164698
vn 0.87754875 -0.16100627 0.45164698
vn 0.87754875 -0.16100627 0.45164698
vn 0.87754875 -0.16100627 0.45164698
vn 0.87669146 -0.16244689 0.4527948
vn 0.87669146 -0.16244689 0.4527948
vn 0.651681 -0.44719705 0.6126391
vn 0.651681 -0.44719705 0.6126391
vn 0.651681 -0.44719705 0.6126391
vn 0.6440303 -0.45326847 0.6162571
vn 0.6440303 -0.45326847 0.6162571
vn 0.6440303 -0.45326847 0.6162571
vn 0.6440303 -0.45326847 0.6162571
vn 0.6440303 -0.45326847 0.6162571
vn 0.64369607 -0.45427737 0.6158632
vn 0.4691438 0.05609461 -0.8813385
vn 0.4527881 0.137338 -0.88097745
vn 0.37428734 0.113531396 -0.9203367
vn 0.38042286 0.0756573 -0.9217128
vn 0.38787007 0 -0.92171407
vn 0.20585257 0.023713483 -0.9782956
vn 0.5441601 0.053591985 -0.837268
vn 0.55977476 0 -0.8286449
vn 0.63315994 0.06235158 -0.7715054
vn 0.6343771 0.006500641 -0.7729964
vn 0.63315994 0.06235158 -0.7715054
vn 0.63315994 -0.06235158 -0.7715054
vn 0.63315994 -0.06235158 -0.7715054
vn 0.63315994 -0.06235158 -0.7715054
vn 0.62466174 -0.11108897 -0.7729534
vn 0.5490075 -0.10919721 -0.82865363
vn 0.5887196 -0.23640342 -0.7729959
vn 0.5171472 -0.214214 -0.82865626
vn 0.5278877 -0.35182342 -0.7730167
vn 0.38042286 -0.0756573 -0.9217128
vn 0.46541741 -0.31099033 -0.82865655
vn 0.4918183 -0.40361756 -0.771497
vn 0.4918183 -0.40361756 -0.771497
vn 0.20090885 -9.155804E-05 -0.97960997
vn 0.35835707 -0.14841513 -0.92171204
vn 0.43209544 -0.35460636 -0.82918507
vn 0.4918183 -0.40361756 -0.771497
vn 0.32249758 -0.21549688 -0.9217138
vn 0.3657486 -0.30016166 -0.880983
vn 0.29723012 -0.24391246 -0.9231256
vn 0.16709179 -0.11163869 -0.9796005
vn 0.22404353 -0.18632145 -0.9566027
vn 0.09787464 -0.0022889297 -0.99519616
vn 0.09796722 0.009369451 -0.9951455
vn 0.09796722 0.009369451 -0.9951455
vn 0.09796722 0.009369451 -0.9951455
vn 0.19706243 -0.03924768 -0.9796051
vn 0.09650061 -0.016907444 -0.9951893
vn 0.18564765 -0.07690812 -0.979602
vn 0.092747726 -0.032197718 -0.99516886
vn 0.094243266 -0.028565964 -0.99513924
vn 0.08533106 -0.04867777 -0.99516284
vn 0.086857565 -0.046419658 -0.99513865
vn 0.17005065 -0.13956241 -0.97550243
vn 0.22056226 -0.18985997 -0.95671594
vn 0.18494481 -0.22538243 -0.95655537
g Sphere_cell.062_0
f 3/3/3 2/2/2 1/1/1
f 6/6/6 5/5/5 4/4/4
f 6/6/6 7/7/7 5/5/5
f 7/7/7 8/8/8 5/5/5
f 9/9/9 7/7/7 6/6/6
f 12/12/12 11/11/11 10/10/10
f 11/11/11 13/13/13 10/10/10
f 10/10/10 13/13/13 14/14/14
f 13/13/13 15/15/15 14/14/14
f 18/18/18 17/17/17 16/16/16
f 19/19/19 18/18/18 16/16/16
f 20/20/20 18/18/18 19/19/19
f 21/21/21 18/18/18 20/20/20
f 24/24/24 23/23/23 22/22/22
f 23/23/23 25/25/25 22/22/22
f 26/26/26 25/25/25 23/23/23
f 23/23/23 27/27/27 26/26/26
f 23/23/23 28/28/28 27/27/27
f 23/23/23 29/29/29 28/28/28
f 32/32/32 31/31/31 30/30/30
f 32/32/32 30/30/30 33/33/33
f 30/30/30 34/34/34 33/33/33
f 33/33/33 35/35/35 32/32/32
f 35/35/35 33/33/33 36/36/36
f 33/33/33 37/37/37 36/36/36
f 35/35/35 36/36/36 38/38/38
f 38/38/38 39/39/39 35/35/35
f 42/42/42 41/41/41 40/40/40
f 43/43/43 41/41/41 42/42/42
f 44/44/44 43/43/43 42/42/42
f 43/43/43 44/44/44 45/45/45
f 46/46/46 43/43/43 45/45/45
f 49/49/49 48/48/48 47/47/47
f 48/48/48 49/49/49 50/50/50
f 49/49/49 51/51/51 50/50/50
f 48/48/48 50/50/50 52/52/52
f 48/48/48 52/52/52 53/53/53
f 53/53/53 54/54/54 48/48/48
f 57/57/57 56/56/56 55/55/55
f 58/58/58 57/57/57 55/55/55
f 59/59/59 58/58/58 55/55/55
f 60/60/60 59/59/59 55/55/55
f 55/55/55 61/61/61 60/60/60
f 57/57/57 58/58/58 62/62/62
f 58/58/58 63/63/63 62/62/62
f 57/57/57 62/62/62 64/64/64
f 67/67/67 66/66/66 65/65/65
f 68/68/68 67/67/67 65/65/65
f 68/68/68 69/69/69 67/67/67
f 69/69/69 70/70/70 67/67/67
f 73/73/73 72/72/72 71/71/71
f 74/74/74 72/72/72 73/73/73
f 75/75/75 74/74/74 73/73/73
f 76/76/76 75/75/75 73/73/73
f 77/77/77 76/76/76 73/73/73
f 73/73/73 78/78/78 77/77/77
f 78/78/78 79/79/79 77/77/77
f 82/82/82 81/81/81 80/80/80
f 83/83/83 82/82/82 80/80/80
f 84/84/84 83/83/83 80/80/80
f 83/83/83 85/85/85 82/82/82
f 83/83/83 84/84/84 85/85/85
f 84/84/84 80/80/80 86/86/86
f 86/86/86 87/87/87 84/84/84
f 87/87/87 86/86/86 88/88/88
f 89/89/89 87/87/87 88/88/88
f 88/88/88 90/90/90 89/89/89
f 87/87/87 89/89/89 91/91/91
f 91/91/91 92/92/92 87/87/87
f 92/92/92 93/93/93 87/87/87
f 93/93/93 94/94/94 87/87/87
f 94/94/94 95/95/95 87/87/87
f 87/87/87 95/95/95 84/84/84
f 95/95/95 94/94/94 96/96/96
f 97/97/97 95/95/95 96/96/96
f 97/97/97 96/96/96 98/98/98
f 95/95/95 99/99/99 84/84/84
f 95/95/95 97/97/97 99/99/99
f 100/100/100 97/97/97 98/98/98
f 100/100/100 98/98/98 101/101/101
f 101/101/101 102/102/102 100/100/100
f 84/84/84 99/99/99 103/103/103
f 84/84/84 103/103/103 85/85/85
f 97/97/97 104/104/104 99/99/99
f 97/97/97 100/100/100 104/104/104
f 102/102/102 105/105/105 100/100/100
f 102/102/102 106/106/106 105/105/105
f 107/107/107 100/100/100 105/105/105
f 100/100/100 107/107/107 104/104/104
f 105/105/105 108/108/108 107/107/107
f 108/108/108 109/109/109 107/107/107
f 110/110/110 107/107/107 109/109/109
f 109/109/109 111/111/111 110/110/110
f 85/85/85 103/103/103 112/112/112
f 112/112/112 113/113/113 85/85/85
f 112/112/112 114/114/114 113/113/113
f 112/112/112 115/115/115 114/114/114
f 103/103/103 116/116/116 112/112/112
f 99/99/99 116/116/116 103/103/103
f 99/99/99 104/104/104 116/116/116
f 116/116/116 117/117/117 112/112/112
f 104/104/104 107/107/107 118/118/118
f 104/104/104 118/118/118 116/116/116
f 117/117/117 116/116/116 118/118/118
f 107/107/107 110/110/110 118/118/118
f 118/118/118 119/119/119 117/117/117
f 119/119/119 118/118/118 110/110/110
f 119/119/119 120/120/120 117/117/117
f 110/110/110 121/121/121 119/119/119
f 121/121/121 122/122/122 119/119/119
f 110/110/110 123/123/123 121/121/121
f 124/124/124 123/123/123 110/110/110
f 111/111/111 124/124/124 110/110/110
f 111/111/111 125/125/125 124/124/124
