g Sphere_cell.010_cell.001
v -0.011550647 -0.0132614 -0.062040225
v -0.024818936 -0.018222414 -0.041154403
v -0.0074367346 -0.019615494 -0.055502966
v 0.027719392 0.019232664 -0.054364696
v 0.082150705 0.030631455 -0.023594458
v 0.053177364 0.060506016 0.024934683
v -0.0074367346 -0.019615494 -0.055502966
v 0.0029775663 -0.0010453108 -0.059325412
v -0.011550647 -0.0132614 -0.062040225
v 0.017871454 0.011157428 -0.056353822
v 0.027719392 0.019232664 -0.054364696
v 0.028980805 -0.037327606 -0.019838354
v 0.06784154 0.00902835 -0.020611783
v 0.082150705 0.030631455 -0.023594458
v -0.024818936 -0.018222414 -0.041154403
v -0.035408836 -0.020622097 -0.018600604
v -0.0074367346 -0.019615494 -0.055502966
v -0.035464685 -0.03493603 0.043015454
v 0.028980805 -0.037327606 -0.019838354
v -0.08638505 -0.032114822 0.09018263
v -0.07682518 -0.033159573 0.08354202
v 0.027719392 0.019232664 -0.054364696
v 0.053177364 0.060506016 0.024934683
v 0.038231146 0.05220142 0.036280844
v 0.017871454 0.011157428 -0.056353822
v 0.0029775663 -0.0010453108 -0.059325412
v -0.024818936 -0.018222414 -0.041154403
v -0.011550647 -0.0132614 -0.062040225
v -0.035408836 -0.020622097 -0.018600604
v -0.08638505 -0.032114822 0.09018263
v 0.01973404 0.041172896 0.049889177
v -0.060793974 -0.013625465 0.08354202
v 0.01973404 0.041172896 0.049889177
v 0.038231146 0.05220142 0.036280844
v 0.053177364 0.060506016 0.024934683
v 0.082150705 0.030631455 -0.023594458
v 0.06784154 0.00902835 -0.020611783
v 0.028980805 -0.037327606 -0.019838354
v -0.035464685 -0.03493603 0.043015454
v -0.060793974 -0.013625465 0.08354202
v -0.07682518 -0.033159573 0.08354202
v -0.08638505 -0.032114822 0.09018263
vn -0.4447706 -0.7658072 -0.46445483
vn -0.4447706 -0.7658072 -0.46445483
vn -0.4447706 -0.7658072 -0.46445483
vn 0.09027544 0.8712589 -0.48245022
vn 0.09027544 0.8712589 -0.48245022
vn 0.09027544 0.8712589 -0.48245022
vn 0.50635415 -0.43698788 -0.7434024
vn 0.50635415 -0.43698788 -0.7434024
vn 0.50635415 -0.43698788 -0.7434024
vn 0.50635415 -0.43698788 -0.7434024
vn 0.5099913 -0.43986386 -0.7392081
vn 0.5099913 -0.43986386 -0.7392081
vn 0.5099913 -0.43986386 -0.7392081
vn 0.5099913 -0.43986386 -0.7392081
vn -0.257962 -0.9404947 -0.22119066
vn -0.257962 -0.9404947 -0.22119066
vn -0.257962 -0.9404947 -0.22119066
vn -0.2550535 -0.94179535 -0.21901894
vn -0.24676038 -0.9444515 -0.21707302
vn -0.2550535 -0.94179535 -0.21901894
vn -0.2550535 -0.94179535 -0.21901894
vn -0.5933134 0.77614546 -0.21348867
vn -0.5933134 0.77614546 -0.21348867
vn -0.5933134 0.77614546 -0.21348867
vn -0.5933134 0.77614546 -0.21348867
vn -0.5933134 0.77614546 -0.21348867
vn -0.60753125 0.7677643 -0.20357731
vn -0.60753125 0.7677643 -0.20357731
vn -0.60753125 0.7677643 -0.20357731
vn -0.60753125 0.7677643 -0.20357731
vn -0.60753125 0.7677643 -0.20357731
vn -0.60753125 0.7677643 -0.20357731
vn 0.62521327 -0.45500854 0.6340943
vn 0.6830491 -0.36510056 0.63257045
vn 0.6830491 -0.36510056 0.63257045
vn 0.6830491 -0.36510056 0.63257045
vn 0.64494467 -0.42614818 0.6343849
vn 0.5986993 -0.49133193 0.63257575
vn 0.5986993 -0.49133193 0.63257575
vn 0.58820045 -0.48272538 0.64884245
vn 0.5322232 -0.4367899 0.7252262
vn 0.4918183 -0.40361756 0.771497
g Sphere_cell.010_cell.001_0
f 3/3/3 2/2/2 1/1/1
f 6/6/6 5/5/5 4/4/4
f 9/9/9 8/8/8 7/7/7
f 8/8/8 10/10/10 7/7/7
f 7/7/7 10/10/10 11/11/11
f 12/12/12 7/7/7 11/11/11
f 13/13/13 12/12/12 11/11/11
f 11/11/11 14/14/14 13/13/13
f 17/17/17 16/16/16 15/15/15
f 16/16/16 17/17/17 18/18/18
f 17/17/17 19/19/19 18/18/18
f 18/18/18 20/20/20 16/16/16
f 18/18/18 21/21/21 20/20/20
f 24/24/24 23/23/23 22/22/22
f 24/24/24 22/22/22 25/25/25
f 25/25/25 26/26/26 24/24/24
f 27/27/27 24/24/24 26/26/26
f 26/26/26 28/28/28 27/27/27
f 27/27/27 29/29/29 24/24/24
f 29/29/29 30/30/30 24/24/24
f 30/30/30 31/31/31 24/24/24
f 30/30/30 32/32/32 31/31/31
f 35/35/35 34/34/34 33/33/33
f 36/36/36 35/35/35 33/33/33
f 33/33/33 37/37/37 36/36/36
f 38/38/38 37/37/37 33/33/33
f 33/33/33 39/39/39 38/38/38
f 33/33/33 40/40/40 39/39/39
f 40/40/40 41/41/41 39/39/39
f 40/40/40 42/42/42 41/41/41
