g Sphere_cell.011
v -0.07305179 -0.5919937 -0.21211678
v -0.06087526 -0.5924138 -0.22926691
v -0.09414774 -0.5559646 -0.22242194
v 0.37297913 -0.11410132 0.3073521
v -0.17358544 -0.45563328 0.22668543
v -0.22577356 -0.3712558 0.27184275
v -0.026561657 -0.028278034 0.3983934
v 0.29496926 -0.052183546 0.34509525
v 0.4570059 -0.099085 0.23524931
v -0.17358544 -0.45563328 0.22668543
v 0.37297913 -0.11410132 0.3073521
v 0.46440014 -0.10679284 0.20846298
v -0.07305179 -0.5919937 -0.21211678
v 0.39108482 -0.2914571 -0.11974243
v -0.013167288 -0.5815269 -0.2658503
v -0.06087526 -0.5924138 -0.22926691
v -0.17358544 -0.45563328 0.22668543
v -0.41791302 -0.02847306 -0.07038054
v -0.22577356 -0.3712558 0.27184275
v -0.26213473 -0.27745977 -0.22830838
v -0.07305179 -0.5919937 -0.21211678
v -0.09414774 -0.5559646 -0.22242194
v -0.026561657 -0.028278034 0.3983934
v -0.22577356 -0.3712558 0.27184275
v -0.090126045 0.27770868 0.22325972
v -0.3330961 0.17108661 -0.03294717
v -0.38437742 0.099900305 -0.07160136
v -0.41791302 -0.02847306 -0.07038054
v -0.30894303 0.20476894 -0.014982482
v -0.2410113 0.2569113 0.049390227
v -0.22471185 0.2694799 0.06471458
v -0.1378752 0.29526904 0.16014914
v -0.10889883 0.29511622 0.19492868
v 0.37633228 0.09033949 0.22709528
v 0.46440014 -0.10679284 0.20846298
v 0.4570059 -0.099085 0.23524931
v 0.37194973 0.1556707 0.04427171
v 0.43992153 0.027731728 -0.054277703
v 0.37633228 0.09033949 0.22709528
v 0.4570059 -0.099085 0.23524931
v 0.35688046 0.093177386 0.24157354
v 0.37297913 -0.11410132 0.3073521
v 0.29496926 -0.052183546 0.34509525
v -0.026561657 -0.028278034 0.3983934
v -0.090126045 0.27770868 0.22325972
v 0.29496926 -0.052183546 0.34509525
v 0.35688046 0.093177386 0.24157354
v -0.3393245 0.19424908 -0.08731122
v -0.38437742 0.099900305 -0.07160136
v -0.41791302 -0.02847306 -0.07038054
v -0.26213473 -0.27745977 -0.22830838
v -0.32921785 0.21540253 -0.09081724
v -0.016123008 -0.2529427 -0.40210006
v 0.09067104 0.10748249 -0.41361895
v -0.31738442 0.2331032 -0.096140064
v 0.37633228 0.09033949 0.22709528
v 0.35688046 0.093177386 0.24157354
v 0.37194973 0.1556707 0.04427171
v -0.117633894 0.30964556 0.16339712
v -0.11992256 0.31337407 0.15524937
v 0.26403776 0.22894959 -0.044142295
v -0.10889883 0.29511622 0.19492868
v -0.090126045 0.27770868 0.22325972
v 0.39108482 -0.2914571 -0.11974243
v 0.46440014 -0.10679284 0.20846298
v 0.43992153 0.027731728 -0.054277703
v 0.39958477 -0.07036964 -0.23642036
v 0.40313646 -0.031779688 -0.24119711
v -0.06087526 -0.5924138 -0.22926691
v -0.26213473 -0.27745977 -0.22830838
v -0.09414774 -0.5559646 -0.22242194
v -0.013167288 -0.5815269 -0.2658503
v -0.016123008 -0.2529427 -0.40210006
v 0.008318239 -0.3632585 -0.37120458
v -0.31738442 0.2331032 -0.096140064
v 0.09067104 0.10748249 -0.41361895
v 0.20988104 0.12203795 -0.35956278
v -0.12477183 0.31217292 0.1512117
v -0.21177281 0.28524616 0.06471458
v -0.14875111 0.30614498 0.1313736
v -0.11992256 0.31337407 0.15524937
v 0.26403776 0.22894959 -0.044142295
v 0.008318239 -0.3632585 -0.37120458
v -0.013167288 -0.5815269 -0.2658503
v 0.39108482 -0.2914571 -0.11974243
v 0.39958477 -0.07036964 -0.23642036
v 0.43992153 0.027731728 -0.054277703
v 0.20988104 0.12203795 -0.35956278
v 0.40313646 -0.031779688 -0.24119711
v 0.26403776 0.22894959 -0.044142295
v 0.37194973 0.1556707 0.04427171
v 0.39958477 -0.07036964 -0.23642036
v -0.016123008 -0.2529427 -0.40210006
v 0.008318239 -0.3632585 -0.37120458
v 0.09067104 0.10748249 -0.41361895
v 0.20988104 0.12203795 -0.35956278
v 0.40313646 -0.031779688 -0.24119711
v -0.3330961 0.17108661 -0.03294717
v -0.38437742 0.099900305 -0.07160136
v -0.3393245 0.19424908 -0.08731122
v -0.30894303 0.20476894 -0.014982482
v -0.32921785 0.21540253 -0.09081724
v -0.2410113 0.2569113 0.049390227
v -0.31738442 0.2331032 -0.096140064
v -0.21177281 0.28524616 0.06471458
v -0.22471185 0.2694799 0.06471458
v -0.1378752 0.29526904 0.16014914
v -0.14875111 0.30614498 0.1313736
v -0.12477183 0.31217292 0.1512117
v -0.11992256 0.31337407 0.15524937
v -0.117633894 0.30964556 0.16339712
v -0.10889883 0.29511622 0.19492868
vn -0.6916336 -0.5416279 -0.4777889
vn -0.6916336 -0.5416279 -0.4777889
vn -0.6916336 -0.5416279 -0.4777889
vn 0.12188234 -0.40868667 0.9044998
vn 0.12188234 -0.40868667 0.9044998
vn 0.12188234 -0.40868667 0.9044998
vn 0.11980887 -0.40417653 0.90680045
vn 0.120653205 -0.40142366 0.9079107
vn 0.45526788 -0.8138588 0.361061
vn 0.45526788 -0.8138588 0.361061
vn 0.45526788 -0.8138588 0.361061
vn 0.4554766 -0.8142027 0.36002076
vn 0.45585212 -0.8150109 0.35770938
vn 0.45677605 -0.815011 0.35652867
vn 0.4584038 -0.81610435 0.35190842
vn 0.44844642 -0.82716495 0.338665
vn -0.8576945 -0.5131361 -0.032426972
vn -0.8576945 -0.5131361 -0.032426972
vn -0.8576945 -0.5131361 -0.032426972
vn -0.8569612 -0.5142191 -0.034587067
vn -0.85570186 -0.5162414 -0.035624135
vn -0.85437 -0.51653826 -0.056922235
vn -0.7504597 0.20392583 0.62866884
vn -0.7504597 0.20392583 0.62866884
vn -0.7504597 0.20392583 0.62866884
vn -0.7531297 0.20269535 0.6258676
vn -0.7531297 0.20269535 0.6258676
vn -0.7531297 0.20269535 0.6258676
vn -0.7513253 0.20402694 0.62760115
vn -0.7513253 0.20402694 0.62760115
vn -0.750732 0.20984958 0.62639004
vn -0.750732 0.20984958 0.62639004
vn -0.750732 0.20984958 0.62639004
vn 0.9091019 0.39310935 0.13783586
vn 0.9091019 0.39310935 0.13783586
vn 0.9091019 0.39310935 0.13783586
vn 0.91064435 0.39553002 0.11951124
vn 0.91154546 0.39422652 0.1169206
vn 0.5985418 0.2871044 0.7478761
vn 0.5944131 0.2848185 0.75203156
vn 0.5944131 0.2848185 0.75203156
vn 0.5944131 0.2848185 0.75203156
vn 0.59136456 0.28528738 0.75425404
vn 0.17727149 0.5163596 0.8378231
vn 0.17727149 0.5163596 0.8378231
vn 0.17727149 0.5163596 0.8378231
vn 0.17986578 0.5186585 0.8358478
vn -0.5813036 0.14424136 -0.8007999
vn -0.5813036 0.14424136 -0.8007999
vn -0.5813036 0.14424136 -0.8007999
vn -0.5813036 0.14424136 -0.8007999
vn -0.5804953 0.14453293 -0.80133355
vn -0.5804953 0.14453293 -0.80133355
vn -0.5791079 0.14595594 -0.8020792
vn -0.5791079 0.14595594 -0.8020792
vn 0.3570225 0.8823 0.30672717
vn 0.3570225 0.8823 0.30672717
vn 0.3570225 0.8823 0.30672717
vn 0.3526854 0.88399184 0.30687362
vn 0.3526854 0.88399184 0.30687362
vn 0.35233706 0.885239 0.30366176
vn 0.35197845 0.8833476 0.30952904
vn 0.35197845 0.8833476 0.30952904
vn 0.98116046 -0.1188874 -0.15228216
vn 0.98116046 -0.1188874 -0.15228216
vn 0.98116046 -0.1188874 -0.15228216
vn 0.981023 -0.11864676 -0.15335146
vn 0.981285 -0.109889224 -0.1581273
vn -0.52708906 -0.33443886 -0.7812348
vn -0.522333 -0.33063325 -0.7860343
vn -0.52708906 -0.33443886 -0.7812348
vn -0.522333 -0.33063325 -0.7860343
vn -0.522333 -0.33063325 -0.7860343
vn -0.50411934 -0.33466592 -0.7961548
vn 0.034507405 0.94375277 -0.3288463
vn 0.034507405 0.94375277 -0.3288463
vn 0.034507405 0.94375277 -0.3288463
vn 0.034507405 0.94375277 -0.3288463
vn 0.034507405 0.94375277 -0.3288463
vn 0.034507405 0.94375277 -0.3288463
vn 0.038030688 0.9443871 -0.3266292
vn 0.038030688 0.9443871 -0.3266292
vn 0.55383974 -0.4053436 -0.727295
vn 0.55383974 -0.4053436 -0.727295
vn 0.55383974 -0.4053436 -0.727295
vn 0.55383974 -0.4053436 -0.727295
vn 0.7040387 0.6248439 -0.33749017
vn 0.7040387 0.6248439 -0.33749017
vn 0.7040387 0.6248439 -0.33749017
vn 0.7013037 0.629826 -0.33390447
vn 0.7013037 0.629826 -0.33390447
vn 0.42345718 -0.15395014 -0.89273924
vn 0.42345718 -0.15395014 -0.89273924
vn 0.42402834 -0.15590674 -0.89212835
vn 0.42345718 -0.15395014 -0.89273924
vn 0.42345718 -0.15395014 -0.89273924
vn 0.42704406 -0.14968659 -0.89175516
vn -0.84428847 0.45129025 0.2889881
vn -0.84428847 0.45129025 0.2889881
vn -0.84428847 0.45129025 0.2889881
vn -0.77860075 0.5566055 0.2897779
vn -0.79063374 0.53927654 0.2899641
vn -0.7417315 0.6054646 0.28852573
vn -0.7417315 0.6054646 0.28852573
vn -0.7038643 0.57662976 0.41481698
vn -0.72790986 0.59502995 0.3407147
vn -0.5854853 0.6600138 0.47073212
vn -0.6559828 0.5898779 0.47088295
vn -0.56008375 0.68246466 0.46962556
vn -0.56008375 0.68246466 0.46962556
vn -0.56008375 0.68246466 0.46962556
vn -0.56008375 0.68246466 0.46962556
g Sphere_cell.011_0
f 3/3/3 2/2/2 1/1/1
f 6/6/6 5/5/5 4/4/4
f 7/7/7 6/6/6 4/4/4
f 7/7/7 4/4/4 8/8/8
f 11/11/11 10/10/10 9/9/9
f 9/9/9 10/10/10 12/12/12
f 12/12/12 10/10/10 13/13/13
f 12/12/12 13/13/13 14/14/14
f 13/13/13 15/15/15 14/14/14
f 16/16/16 15/15/15 13/13/13
f 19/19/19 18/18/18 17/17/17
f 17/17/17 18/18/18 20/20/20
f 17/17/17 20/20/20 21/21/21
f 21/21/21 20/20/20 22/22/22
f 25/25/25 24/24/24 23/23/23
f 26/26/26 24/24/24 25/25/25
f 24/24/24 26/26/26 27/27/27
f 28/28/28 24/24/24 27/27/27
f 25/25/25 29/29/29 26/26/26
f 25/25/25 30/30/30 29/29/29
f 31/31/31 30/30/30 25/25/25
f 25/25/25 32/32/32 31/31/31
f 25/25/25 33/33/33 32/32/32
f 36/36/36 35/35/35 34/34/34
f 34/34/34 35/35/35 37/37/37
f 37/37/37 35/35/35 38/38/38
f 41/41/41 40/40/40 39/39/39
f 42/42/42 40/40/40 41/41/41
f 43/43/43 42/42/42 41/41/41
f 46/46/46 45/45/45 44/44/44
f 47/47/47 45/45/45 46/46/46
f 50/50/50 49/49/49 48/48/48
f 51/51/51 50/50/50 48/48/48
f 51/51/51 48/48/48 52/52/52
f 53/53/53 51/51/51 52/52/52
f 53/53/53 52/52/52 54/54/54
f 52/52/52 55/55/55 54/54/54
f 58/58/58 57/57/57 56/56/56
f 57/57/57 58/58/58 59/59/59
f 58/58/58 60/60/60 59/59/59
f 58/58/58 61/61/61 60/60/60
f 57/57/57 59/59/59 62/62/62
f 63/63/63 57/57/57 62/62/62
f 66/66/66 65/65/65 64/64/64
f 67/67/67 66/66/66 64/64/64
f 68/68/68 66/66/66 67/67/67
f 71/71/71 70/70/70 69/69/69
f 69/69/69 70/70/70 72/72/72
f 72/72/72 70/70/70 73/73/73
f 72/72/72 73/73/73 74/74/74
f 77/77/77 76/76/76 75/75/75
f 75/75/75 78/78/78 77/77/77
f 75/75/75 79/79/79 78/78/78
f 79/79/79 80/80/80 78/78/78
f 77/77/77 78/78/78 81/81/81
f 82/82/82 77/77/77 81/81/81
f 85/85/85 84/84/84 83/83/83
f 86/86/86 85/85/85 83/83/83
f 89/89/89 88/88/88 87/87/87
f 87/87/87 88/88/88 90/90/90
f 91/91/91 87/87/87 90/90/90
f 94/94/94 93/93/93 92/92/92
f 92/92/92 93/93/93 95/95/95
f 96/96/96 92/92/92 95/95/95
f 92/92/92 96/96/96 97/97/97
f 100/100/100 99/99/99 98/98/98
f 98/98/98 101/101/101 100/100/100
f 101/101/101 102/102/102 100/100/100
f 102/102/102 101/101/101 103/103/103
f 103/103/103 104/104/104 102/102/102
f 103/103/103 105/105/105 104/104/104
f 103/103/103 106/106/106 105/105/105
f 105/105/105 106/106/106 107/107/107
f 108/108/108 105/105/105 107/107/107
f 109/109/109 108/108/108 107/107/107
f 107/107/107 110/110/110 109/109/109
f 107/107/107 111/111/111 110/110/110
f 107/107/107 112/112/112 111/111/111
