g Sphere_cell.025
v 0.072381556 0.15677272 -0.2628996
v 0.064862825 0.15178011 -0.2716615
v 0.073542066 0.12372254 -0.29455468
v 0.17397802 0.08740782 -0.27804193
v 0.21463074 0.2130979 -0.13427952
v 0.24565057 0.22539124 -0.106127515
v 0.25418755 0.22733149 -0.099787116
v 0.2705768 0.15070044 -0.16598263
v 0.2545934 0.1024556 -0.2208171
v -0.12853682 -0.09566997 0.361051
v -0.04464527 -0.01381552 0.34215006
v 0.10039165 0.08915018 0.2999688
v 0.16846523 0.12281464 0.2765558
v 0.266804 0.1639037 0.24086827
v 0.29571864 0.17035936 0.22897506
v 0.30472472 0.13133751 0.2151789
v -0.15000224 -0.116602644 0.3658705
v 0.23309164 -0.20019469 0.16621934
v 0.073542066 0.12372254 -0.29455468
v -0.12098058 -0.04263973 -0.2964503
v 0.17397802 0.08740782 -0.27804193
v 0.060872298 -0.2915679 -0.24152194
v 0.13200624 -0.26079533 -0.23677568
v -0.09814579 -0.11205672 -0.28453043
v -0.18579325 -0.002915263 -0.23545723
v -0.194925 -0.010387062 -0.23527996
v -0.12098058 -0.04263973 -0.2964503
v -0.09927226 0.06793963 -0.23664807
v 0.064862825 0.15178011 -0.2716615
v 0.073542066 0.12372254 -0.29455468
v -0.194925 -0.010387062 -0.23527996
v -0.09814579 -0.11205672 -0.28453043
v -0.12098058 -0.04263973 -0.2964503
v -0.23323108 -0.035085198 -0.1821351
v -0.28762135 -0.08297824 -0.09907152
v -0.2838252 -0.077262394 -0.106127515
v -0.2547581 -0.04892718 -0.15197143
v 0.26876482 0.21595535 0.030292954
v 0.25418755 0.22733149 -0.099787116
v 0.2705768 0.15070044 -0.16598263
v 0.29571864 0.17035936 0.22897506
v 0.30472472 0.13133751 0.2151789
v 0.2745944 0.21075103 0.08896274
v 0.18258268 -0.26689526 -0.1990077
v 0.2705768 0.15070044 -0.16598263
v 0.2545934 0.1024556 -0.2208171
v 0.17948093 -0.30764005 -0.1495985
v 0.23309164 -0.20019469 0.16621934
v 0.30472472 0.13133751 0.2151789
v 0.2545934 0.1024556 -0.2208171
v 0.17397802 0.08740782 -0.27804193
v 0.18258268 -0.26689526 -0.1990077
v 0.13200624 -0.26079533 -0.23677568
v 0.13200624 -0.26079533 -0.23677568
v 0.060872298 -0.2915679 -0.24152194
v 0.18258268 -0.26689526 -0.1990077
v 0.06102119 -0.3220496 -0.20324926
v 0.17948093 -0.30764005 -0.1495985
v 0.060872298 -0.2915679 -0.24152194
v -0.09814579 -0.11205672 -0.28453043
v 0.06102119 -0.3220496 -0.20324926
v -0.28762135 -0.08297824 -0.09907152
v -0.32507142 -0.14830433 0.028386269
v -0.34274116 -0.17919432 0.08896274
v -0.34632286 -0.1956329 0.11433603
v -0.24046756 -0.14384268 0.2765558
v -0.1797095 -0.12397586 0.34115607
v -0.1578702 -0.118572935 0.35935035
v -0.34632286 -0.1956329 0.11433603
v 0.06102119 -0.3220496 -0.20324926
v 0.23309164 -0.20019469 0.16621934
v -0.15000224 -0.116602644 0.3658705
v 0.17948093 -0.30764005 -0.1495985
v -0.24046756 -0.14384268 0.2765558
v -0.34632286 -0.1956329 0.11433603
v -0.34274116 -0.17919432 0.08896274
v -0.24436395 -0.059321396 0.08896274
v -0.32507142 -0.14830433 0.028386269
v -0.28762135 -0.08297824 -0.09907152
v -0.2838252 -0.077262394 -0.106127515
v -0.20412557 -0.09955977 0.2765558
v -0.1797095 -0.12397586 0.34115607
v -0.06412405 0.015336512 0.2765558
v -0.2579508 -0.0457344 -0.106127515
v -0.2547581 -0.04892718 -0.15197143
v -0.10641425 0.078628294 -0.106127515
v -0.23323108 -0.035085198 -0.1821351
v -0.194925 -0.010387062 -0.23527996
v -0.18579325 -0.002915263 -0.23545723
v -0.09927226 0.06793963 -0.23664807
v -0.09573906 0.062651865 0.08896274
v -0.04464527 -0.01381552 0.34215006
v -0.1578702 -0.118572935 0.35935035
v -0.12853682 -0.09566997 0.361051
v -0.15000224 -0.116602644 0.3658705
v 0.10039165 0.08915018 0.2999688
v 0.09560255 0.100712046 0.2765558
v 0.16846523 0.12281464 0.2765558
v 0.266804 0.1639037 0.24086827
v 0.07382582 0.15328597 0.08896274
v 0.25781438 0.20909831 0.08896274
v 0.29571864 0.17035936 0.22897506
v 0.2745944 0.21075103 0.08896274
v 0.25418755 0.22733149 -0.099787116
v 0.26876482 0.21595535 0.030292954
v 0.24565057 0.22539124 -0.106127515
v 0.066472575 0.17103826 -0.106127515
v 0.072381556 0.15677272 -0.2628996
v 0.21463074 0.2130979 -0.13427952
v 0.064862825 0.15178011 -0.2716615
vn 0.3472622 0.6551036 -0.6710053
vn 0.3472622 0.6551036 -0.6710053
vn 0.3472622 0.6551036 -0.6710053
vn 0.3472622 0.6551036 -0.6710053
vn 0.3472622 0.6551036 -0.6710053
vn 0.34949833 0.6541648 -0.6707603
vn 0.34949833 0.6541648 -0.6707603
vn 0.34949833 0.6541648 -0.6707603
vn 0.35728645 0.64711356 -0.67349124
vn 0.41213012 -0.21807483 0.88464236
vn 0.41213012 -0.21807483 0.88464236
vn 0.41213012 -0.21807483 0.88464236
vn 0.41213012 -0.21807483 0.88464236
vn 0.41213012 -0.21807483 0.88464236
vn 0.41213012 -0.21807483 0.88464236
vn 0.41213012 -0.21807483 0.88464236
vn 0.41273385 -0.21971749 0.8839541
vn 0.41273385 -0.21971749 0.8839541
vn 0.116703786 -0.12523206 -0.9852396
vn 0.116703786 -0.12523206 -0.9852396
vn 0.116703786 -0.12523206 -0.9852396
vn 0.11889742 -0.13033852 -0.9843146
vn 0.12245882 -0.13134639 -0.98374385
vn 0.1199637 -0.12955372 -0.9842889
vn -0.4174079 0.49201632 -0.7639965
vn -0.4174079 0.49201632 -0.7639965
vn -0.4174079 0.49201632 -0.7639965
vn -0.41543785 0.49445856 -0.7634933
vn -0.41543785 0.49445856 -0.7634933
vn -0.41543785 0.49445856 -0.7634933
vn -0.6830347 -0.33604017 -0.648491
vn -0.6830347 -0.33604017 -0.648491
vn -0.6830347 -0.33604017 -0.648491
vn -0.6830347 -0.33604017 -0.648491
vn -0.6836014 -0.34195694 -0.64479035
vn -0.6836014 -0.34195694 -0.64479035
vn -0.6836014 -0.34195694 -0.64479035
vn 0.9574 0.27654803 -0.08310438
vn 0.9574 0.27654803 -0.08310438
vn 0.9574 0.27654803 -0.08310438
vn 0.9656849 0.24899125 -0.073866114
vn 0.9656849 0.24899125 -0.073866114
vn 0.9656849 0.24899125 -0.073866114
vn 0.9741925 -0.19649334 -0.11108214
vn 0.9741925 -0.19649334 -0.11108214
vn 0.9741925 -0.19649334 -0.11108214
vn 0.9750403 -0.19742218 -0.10159225
vn 0.9756699 -0.19642782 -0.09738789
vn 0.9756699 -0.19642782 -0.09738789
vn 0.59112114 -0.16190591 -0.7901659
vn 0.59112114 -0.16190591 -0.7901659
vn 0.59112114 -0.16190591 -0.7901659
vn 0.57738864 -0.16437753 -0.79975146
vn 0.3533266 -0.72569597 -0.59036064
vn 0.3533266 -0.72569597 -0.59036064
vn 0.3533266 -0.72569597 -0.59036064
vn 0.35223386 -0.7314277 -0.5839047
vn 0.35273218 -0.7326691 -0.5820446
vn -0.5824462 -0.6369512 -0.5050243
vn -0.5824462 -0.6369512 -0.5050243
vn -0.5824462 -0.6369512 -0.5050243
vn -0.58651763 -0.6377903 -0.49921995
vn -0.58651763 -0.6377903 -0.49921995
vn -0.58615947 -0.63970506 -0.49718654
vn -0.58615947 -0.63970506 -0.49718654
vn -0.038452923 -0.94438165 0.32659552
vn -0.038452923 -0.94438165 0.32659552
vn -0.038452923 -0.94438165 0.32659552
vn -0.038452923 -0.94438165 0.32659552
vn -0.038452923 -0.94438165 0.32659552
vn -0.035189852 -0.94410384 0.32776466
vn -0.035189852 -0.94410384 0.32776466
vn -0.033192642 -0.9444581 0.32695127
vn -0.72541744 0.5953435 0.34544998
vn -0.74002624 0.60732937 0.288985
vn -0.75302905 0.6179818 0.22593312
vn -0.6936837 0.6936837 0.1939226
vn -0.7693196 0.63137424 0.09753829
vn -0.7693196 0.63137424 0.09753829
vn -0.7722037 0.6337368 0.045596093
vn -0.6539058 0.6539058 0.38054478
vn -0.58855724 0.6571943 0.47084588
vn -0.51375544 0.7689242 0.3805404
vn -0.70710677 0.70710677 0
vn -0.6652029 0.7402198 -0.09787602
vn -0.55557317 0.8314676 0
vn -0.63137424 0.7693196 -0.09753829
vn -0.63137424 0.7693196 -0.09753829
vn -0.63137424 0.7693196 -0.09753829
vn -0.5480092 0.83071184 -0.0979983
vn -0.54501534 0.8156919 0.19392024
vn -0.5001435 0.72641057 0.47136426
vn -0.56008375 0.68246466 0.46962556
vn -0.56008375 0.68246466 0.46962556
vn -0.56008375 0.68246466 0.46962556
vn -0.3527968 0.8083198 0.4713317
vn -0.3538681 0.85438013 0.38054174
vn -0.27604705 0.91008544 0.3090994
vn -0.20838319 0.934001 0.29020438
vn -0.3754112 0.90634596 0.19391617
vn -0.19138387 0.9621686 0.19391693
vn -0.09381668 0.95272464 0.28898835
vn -0.09601314 0.9749942 0.20041904
vn -0.28135285 0.95462817 0.09759914
vn -0.09753945 0.99044037 0.09753945
vn -0.28984088 0.95549524 0.054965086
vn -0.38268155 0.92388034 0
vn -0.42180592 0.90138465 -0.097905606
vn -0.28889388 0.95237935 -0.097539075
vn -0.46913624 0.877723 -0.097538345
g Sphere_cell.025_0
f 3/3/3 2/2/2 1/1/1
f 4/4/4 3/3/3 1/1/1
f 1/1/1 5/5/5 4/4/4
f 4/4/4 5/5/5 6/6/6
f 4/4/4 6/6/6 7/7/7
f 7/7/7 8/8/8 4/4/4
f 9/9/9 4/4/4 8/8/8
f 12/12/12 11/11/11 10/10/10
f 13/13/13 12/12/12 10/10/10
f 14/14/14 13/13/13 10/10/10
f 15/15/15 14/14/14 10/10/10
f 10/10/10 16/16/16 15/15/15
f 16/16/16 10/10/10 17/17/17
f 18/18/18 16/16/16 17/17/17
f 21/21/21 20/20/20 19/19/19
f 22/22/22 20/20/20 21/21/21
f 22/22/22 21/21/21 23/23/23
f 24/24/24 20/20/20 22/22/22
f 27/27/27 26/26/26 25/25/25
f 27/27/27 25/25/25 28/28/28
f 27/27/27 28/28/28 29/29/29
f 29/29/29 30/30/30 27/27/27
f 33/33/33 32/32/32 31/31/31
f 32/32/32 34/34/34 31/31/31
f 34/34/34 32/32/32 35/35/35
f 35/35/35 36/36/36 34/34/34
f 36/36/36 37/37/37 34/34/34
f 40/40/40 39/39/39 38/38/38
f 40/40/40 38/38/38 41/41/41
f 41/41/41 42/42/42 40/40/40
f 38/38/38 43/43/43 41/41/41
f 46/46/46 45/45/45 44/44/44
f 44/44/44 45/45/45 47/47/47
f 47/47/47 45/45/45 48/48/48
f 48/48/48 45/45/45 49/49/49
f 52/52/52 51/51/51 50/50/50
f 53/53/53 51/51/51 52/52/52
f 56/56/56 55/55/55 54/54/54
f 57/57/57 55/55/55 56/56/56
f 58/58/58 57/57/57 56/56/56
f 61/61/61 60/60/60 59/59/59
f 60/60/60 61/61/61 62/62/62
f 61/61/61 63/63/63 62/62/62
f 64/64/64 63/63/63 61/61/61
f 65/65/65 64/64/64 61/61/61
f 68/68/68 67/67/67 66/66/66
f 68/68/68 66/66/66 69/69/69
f 69/69/69 70/70/70 68/68/68
f 70/70/70 71/71/71 68/68/68
f 71/71/71 72/72/72 68/68/68
f 71/71/71 70/70/70 73/73/73
f 76/76/76 75/75/75 74/74/74
f 74/74/74 77/77/77 76/76/76
f 78/78/78 76/76/76 77/77/77
f 77/77/77 79/79/79 78/78/78
f 77/77/77 80/80/80 79/79/79
f 74/74/74 81/81/81 77/77/77
f 81/81/81 74/74/74 82/82/82
f 83/83/83 81/81/81 82/82/82
f 81/81/81 83/83/83 77/77/77
f 77/77/77 84/84/84 80/80/80
f 84/84/84 85/85/85 80/80/80
f 85/85/85 84/84/84 86/86/86
f 87/87/87 85/85/85 86/86/86
f 88/88/88 87/87/87 86/86/86
f 89/89/89 88/88/88 86/86/86
f 86/86/86 90/90/90 89/89/89
f 77/77/77 91/91/91 84/84/84
f 83/83/83 91/91/91 77/77/77
f 91/91/91 86/86/86 84/84/84
f 82/82/82 92/92/92 83/83/83
f 82/82/82 93/93/93 92/92/92
f 93/93/93 94/94/94 92/92/92
f 93/93/93 95/95/95 94/94/94
f 83/83/83 92/92/92 96/96/96
f 97/97/97 83/83/83 96/96/96
f 83/83/83 97/97/97 91/91/91
f 97/97/97 96/96/96 98/98/98
f 97/97/97 98/98/98 99/99/99
f 91/91/91 100/100/100 86/86/86
f 97/97/97 100/100/100 91/91/91
f 97/97/97 99/99/99 101/101/101
f 101/101/101 100/100/100 97/97/97
f 99/99/99 102/102/102 101/101/101
f 102/102/102 103/103/103 101/101/101
f 101/101/101 103/103/103 104/104/104
f 100/100/100 101/101/101 104/104/104
f 103/103/103 105/105/105 104/104/104
f 100/100/100 104/104/104 106/106/106
f 100/100/100 107/107/107 86/86/86
f 106/106/106 107/107/107 100/100/100
f 90/90/90 86/86/86 107/107/107
f 107/107/107 106/106/106 108/108/108
f 90/90/90 107/107/107 108/108/108
f 106/106/106 109/109/109 108/108/108
f 108/108/108 110/110/110 90/90/90
