g Sphere_cell.085_cell.005_cell.011
v 0.18275663 -0.023274867 0.04838767
v 0.1830881 -0.043104377 0.046755012
v 0.1586605 -0.047322236 0.06276835
v 0.15554276 0.017042188 0.034662437
v 0.1597428 0.011829166 0.036874633
v -0.14169675 0.16562416 0.019116608
v 0.09061859 -0.20736212 -0.0138702225
v 0.053861298 -0.12842126 0.02632029
v 0.11476061 -0.06916734 0.07915539
v 0.050349213 -0.1209044 0.03013238
v 0.0057446207 -0.02577969 0.07817926
v 0.1586605 -0.047322236 0.06276835
v 0.11476061 -0.06916734 0.07915539
v 0.0057446207 -0.02577969 0.07817926
v -0.03236104 0.00934556 0.06931966
v -0.06417758 0.038578536 0.061810292
v 0.16927585 -0.0026938615 0.041645374
v 0.18275663 -0.023274867 0.04838767
v 0.1597428 0.011829166 0.036874633
v -0.14169675 0.16562416 0.019116608
v -0.15721095 0.12399866 0.03979061
v -0.16979909 0.1355746 0.03680339
v 0.1830881 -0.043104377 0.046755012
v 0.1519678 -0.10543604 0.020967362
v 0.1586605 -0.047322236 0.06276835
v 0.11476061 -0.06916734 0.07915539
v 0.09272257 -0.22282642 -0.02800737
v 0.09061859 -0.20736212 -0.0138702225
v -0.10592508 0.15951468 -0.016894756
v -0.023639988 0.13511325 -0.06934065
v 0.035513204 0.09615113 -0.035061475
v 0.15554276 0.017042188 0.034662437
v -0.13232708 0.16728236 0.00014099477
v -0.14169675 0.16562416 0.019116608
v -0.10592508 0.15951468 -0.016894756
v -0.13232708 0.16728236 0.00014099477
v -0.16545779 0.09398271 -0.038253214
v -0.16507226 -0.0036849673 -0.108043686
v -0.17978376 0.062415145 -0.054654952
v -0.10315722 -0.0020627675 -0.13326071
v -0.023639988 0.13511325 -0.06934065
v -0.16979909 0.1355746 0.03680339
v -0.17978376 0.062415145 -0.054654952
v -0.16545779 0.09398271 -0.038253214
v -0.13232708 0.16728236 0.00014099477
v -0.14169675 0.16562416 0.019116608
v -0.17978376 0.062415145 -0.054654952
v -0.16979909 0.1355746 0.03680339
v -0.15721095 0.12399866 0.03979061
v -0.16507226 -0.0036849673 -0.108043686
v -0.10024494 -0.08449312 -0.11559005
v 0.0057446207 -0.02577969 0.07817926
v -0.03236104 0.00934556 0.06931966
v -0.06417758 0.038578536 0.061810292
v 0.050349213 -0.1209044 0.03013238
v 0.053861298 -0.12842126 0.02632029
v -0.06375141 -0.12991877 -0.11985274
v 0.09061859 -0.20736212 -0.0138702225
v 0.09272257 -0.22282642 -0.02800737
v 0.035513204 0.09615113 -0.035061475
v -0.023639988 0.13511325 -0.06934065
v -0.10315722 -0.0020627675 -0.13326071
v -0.06375141 -0.12991877 -0.11985274
v 0.09272257 -0.22282642 -0.02800737
v 0.1519678 -0.10543604 0.020967362
v 0.15554276 0.017042188 0.034662437
v 0.1597428 0.011829166 0.036874633
v 0.16927585 -0.0026938615 0.041645374
v 0.18275663 -0.023274867 0.04838767
v 0.1830881 -0.043104377 0.046755012
v -0.16507226 -0.0036849673 -0.108043686
v -0.10024494 -0.08449312 -0.11559005
v -0.06375141 -0.12991877 -0.11985274
v -0.10315722 -0.0020627675 -0.13326071
vn 0.55440074 -0.0590836 0.83014995
vn 0.55440074 -0.0590836 0.83014995
vn 0.55440074 -0.0590836 0.83014995
vn 0.2198774 0.52583694 0.8216747
vn 0.2198774 0.52583694 0.8216747
vn 0.2198774 0.52583694 0.8216747
vn -0.21196395 -0.5199765 0.8274634
vn -0.21196395 -0.5199765 0.8274634
vn -0.21196395 -0.5199765 0.8274634
vn -0.21289524 -0.5192267 0.8276952
vn -0.21374604 -0.51843137 0.8279743
vn 0.14639649 0.38830474 0.9098283
vn 0.14639649 0.38830474 0.9098283
vn 0.14639649 0.38830474 0.9098283
vn 0.14639649 0.38830474 0.9098283
vn 0.14802466 0.39411205 0.90706366
vn 0.14802466 0.39411205 0.90706366
vn 0.14802466 0.39411205 0.90706366
vn 0.14815623 0.3950716 0.9066247
vn 0.14815623 0.3950716 0.9066247
vn 0.14815623 0.3950716 0.9066247
vn 0.14815623 0.3950716 0.9066247
vn 0.52566457 -0.5358094 0.66074574
vn 0.52566457 -0.5358094 0.66074574
vn 0.52566457 -0.5358094 0.66074574
vn 0.5164628 -0.5384343 0.66584885
vn 0.5164628 -0.5384343 0.66584885
vn 0.5164628 -0.5384343 0.66584885
vn 0.42140427 0.8678822 0.2630571
vn 0.42140427 0.8678822 0.2630571
vn 0.42140427 0.8678822 0.2630571
vn 0.42140427 0.8678822 0.2630571
vn 0.42140427 0.8678822 0.2630571
vn 0.42140427 0.8678822 0.2630571
vn -0.3318959 0.5510493 -0.7656304
vn -0.3318959 0.5510493 -0.7656304
vn -0.3318959 0.5510493 -0.7656304
vn -0.3276968 0.54843265 -0.7693091
vn -0.3276968 0.54843265 -0.7693091
vn -0.3276968 0.54843265 -0.7693091
vn -0.3276968 0.54843265 -0.7693091
vn -0.7783941 0.5289353 -0.3381273
vn -0.7783941 0.5289353 -0.3381273
vn -0.7783941 0.5289353 -0.3381273
vn -0.7783941 0.5289353 -0.3381273
vn -0.7783941 0.5289353 -0.3381273
vn -0.6415676 -0.5633112 0.52064514
vn -0.6415676 -0.5633112 0.52064514
vn -0.6415676 -0.5633112 0.52064514
vn -0.6415676 -0.5633112 0.52064514
vn -0.6415676 -0.5633112 0.52064514
vn -0.6407534 -0.5636547 0.52127576
vn -0.6407534 -0.5636547 0.52127576
vn -0.6407534 -0.5636547 0.52127576
vn -0.6407534 -0.5636547 0.52127576
vn -0.6407534 -0.5636547 0.52127576
vn -0.6407534 -0.5636547 0.52127576
vn -0.6407534 -0.5636547 0.52127576
vn -0.6407534 -0.5636547 0.52127576
vn 0.5382565 0.07897079 -0.839073
vn 0.5382565 0.07897079 -0.839073
vn 0.5382565 0.07897079 -0.839073
vn 0.53873503 0.07807241 -0.83884996
vn 0.53873503 0.07807241 -0.83884996
vn 0.53873503 0.07807241 -0.83884996
vn 0.53873503 0.07807241 -0.83884996
vn 0.53873503 0.07807241 -0.83884996
vn 0.53873503 0.07807241 -0.83884996
vn 0.53873503 0.07807241 -0.83884996
vn 0.53873503 0.07807241 -0.83884996
vn -0.3643219 -0.20749113 -0.907864
vn -0.3643219 -0.20749113 -0.907864
vn -0.3643219 -0.20749113 -0.907864
vn -0.3643219 -0.20749113 -0.907864
g Sphere_cell.085_cell.005_cell.011_0
f 3/3/3 2/2/2 1/1/1
f 6/6/6 5/5/5 4/4/4
f 9/9/9 8/8/8 7/7/7
f 9/9/9 10/10/10 8/8/8
f 9/9/9 11/11/11 10/10/10
f 14/14/14 13/13/13 12/12/12
f 15/15/15 14/14/14 12/12/12
f 16/16/16 15/15/15 12/12/12
f 17/17/17 16/16/16 12/12/12
f 12/12/12 18/18/18 17/17/17
f 16/16/16 17/17/17 19/19/19
f 19/19/19 20/20/20 16/16/16
f 20/20/20 21/21/21 16/16/16
f 20/20/20 22/22/22 21/21/21
f 25/25/25 24/24/24 23/23/23
f 24/24/24 25/25/25 26/26/26
f 26/26/26 27/27/27 24/24/24
f 26/26/26 28/28/28 27/27/27
f 31/31/31 30/30/30 29/29/29
f 29/29/29 32/32/32 31/31/31
f 29/29/29 33/33/33 32/32/32
f 33/33/33 34/34/34 32/32/32
f 37/37/37 36/36/36 35/35/35
f 38/38/38 37/37/37 35/35/35
f 38/38/38 39/39/39 37/37/37
f 40/40/40 38/38/38 35/35/35
f 35/35/35 41/41/41 40/40/40
f 44/44/44 43/43/43 42/42/42
f 42/42/42 45/45/45 44/44/44
f 42/42/42 46/46/46 45/45/45
f 49/49/49 48/48/48 47/47/47
f 49/49/49 47/47/47 50/50/50
f 50/50/50 51/51/51 49/49/49
f 52/52/52 49/49/49 51/51/51
f 52/52/52 53/53/53 49/49/49
f 53/53/53 54/54/54 49/49/49
f 55/55/55 52/52/52 51/51/51
f 56/56/56 55/55/55 51/51/51
f 56/56/56 51/51/51 57/57/57
f 58/58/58 56/56/56 57/57/57
f 57/57/57 59/59/59 58/58/58
f 62/62/62 61/61/61 60/60/60
f 63/63/63 62/62/62 60/60/60
f 64/64/64 63/63/63 60/60/60
f 65/65/65 64/64/64 60/60/60
f 65/65/65 60/60/60 66/66/66
f 65/65/65 66/66/66 67/67/67
f 65/65/65 67/67/67 68/68/68
f 65/65/65 68/68/68 69/69/69
f 69/69/69 70/70/70 65/65/65
f 73/73/73 72/72/72 71/71/71
f 74/74/74 73/73/73 71/71/71
