g Sphere_cell.015
v 0.13481914 -0.006887867 -0.28782344
v 0.15507631 0.029853385 -0.18268411
v 0.11560731 0.022286816 -0.29897636
v 0.16895841 0.029389065 -0.14610557
v 0.18801615 0.024558824 -0.099994466
v 0.16581397 -0.009599998 -0.20606259
v 0.17913936 0.029137772 -0.118407875
v -0.14592914 -0.030309152 -0.2474561
v 0.13481914 -0.006887867 -0.28782344
v 0.11560731 0.022286816 -0.29897636
v -0.04118398 0.038185637 -0.28953433
v -0.06923943 0.035835188 -0.28534406
v 0.16581397 -0.009599998 -0.20606259
v 0.19173393 -0.029635739 0.18753327
v 0.19529942 0.0042527164 0.07668238
v 0.18801615 0.024558824 -0.099994466
v -0.14592914 -0.030309152 -0.2474561
v -0.21561304 -0.040073823 -0.17741436
v 0.13481914 -0.006887867 -0.28782344
v 0.16581397 -0.009599998 -0.20606259
v 0.009476568 -0.050941773 0.3116939
v -0.028638303 -0.05447907 0.32533497
v -0.18128693 -0.058795042 0.20326273
v 0.060279716 -0.0460443 0.29317012
v 0.13784872 -0.03823967 0.26427546
v 0.19173393 -0.029635739 0.18753327
v -0.23044664 0.03572325 -0.111539945
v -0.21561304 -0.040073823 -0.17741436
v -0.14592914 -0.030309152 -0.2474561
v -0.19453844 0.036803167 -0.15021874
v -0.06923943 0.035835188 -0.28534406
v -0.22336537 0.03709702 -0.118407875
v -0.03877908 -0.050407715 0.31958652
v -0.028638303 -0.05447907 0.32533497
v -0.18128693 -0.058795042 0.20326273
v -0.12392287 -0.029229235 0.26427546
v -0.1901182 -0.021301461 0.21664836
v -0.04118398 0.038185637 -0.28953433
v 0.11560731 0.022286816 -0.29897636
v 0.15507631 0.029853385 -0.18268411
v -0.03877899 0.055277266 -0.118407875
v -0.06923943 0.035835188 -0.28534406
v -0.19453844 0.036803167 -0.15021874
v -0.22336537 0.03709702 -0.118407875
v -0.23044664 0.03572325 -0.111539945
v -0.03877899 0.03606228 0.07668238
v 0.15256272 0.017216725 0.07668238
v -0.21154407 0.019046469 0.07668238
v -0.1901182 -0.021301461 0.21664836
v 0.15631138 0.03606252 -0.118407875
v 0.17913936 0.029137772 -0.118407875
v 0.16895841 0.029389065 -0.14610557
v 0.18801615 0.024558824 -0.099994466
v 0.19529942 0.0042527164 0.07668238
v 0.19173393 -0.029635739 0.18753327
v 0.13784872 -0.03823967 0.26427546
v -0.03877911 -0.02084334 0.26427546
v -0.12392287 -0.029229235 0.26427546
v -0.03877908 -0.050407715 0.31958652
v 0.060279716 -0.0460443 0.29317012
v 0.009476568 -0.050941773 0.3116939
v -0.028638303 -0.05447907 0.32533497
v -0.1901182 -0.021301461 0.21664836
v -0.18128693 -0.058795042 0.20326273
v -0.21561304 -0.040073823 -0.17741436
v -0.23044664 0.03572325 -0.111539945
v -0.21154407 0.019046469 0.07668238
vn 0.8435619 0.4352224 -0.31461868
vn 0.8435619 0.4352224 -0.31461868
vn 0.8435619 0.4352224 -0.31461868
vn 0.8435619 0.4352224 -0.31461868
vn 0.8573791 0.40976968 -0.3114319
vn 0.8573791 0.40976968 -0.3114319
vn 0.8573791 0.40976968 -0.3114319
vn -0.09619897 -0.41006455 -0.90696913
vn -0.09619897 -0.41006455 -0.90696913
vn -0.09619897 -0.41006455 -0.90696913
vn -0.09619897 -0.41006455 -0.90696913
vn -0.102130525 -0.40263954 -0.90964323
vn 0.9303727 -0.3578942 -0.0794874
vn 0.9303727 -0.3578942 -0.0794874
vn 0.9303727 -0.3578942 -0.0794874
vn 0.9303727 -0.3578942 -0.0794874
vn 0.07359913 -0.99513394 -0.06551065
vn 0.074906096 -0.99529785 -0.06141173
vn 0.074906096 -0.99529785 -0.06141173
vn 0.074906096 -0.99529785 -0.06141173
vn 0.07527501 -0.99554586 -0.05676285
vn 0.072550505 -0.99581856 -0.05551501
vn 0.072550505 -0.99581856 -0.05551501
vn 0.079322666 -0.99528104 -0.055887982
vn 0.079322666 -0.99528104 -0.055887982
vn 0.079322666 -0.99528104 -0.055887982
vn -0.6761678 0.40343934 -0.6164688
vn -0.6761678 0.40343934 -0.6164688
vn -0.6761678 0.40343934 -0.6164688
vn -0.6761678 0.40343934 -0.6164688
vn -0.6652352 0.4162441 -0.61984104
vn -0.6761678 0.40343934 -0.6164688
vn -0.56774014 -0.3921349 0.7238104
vn -0.56774014 -0.3921349 0.7238104
vn -0.56774014 -0.3921349 0.7238104
vn -0.56774014 -0.3921349 0.7238104
vn -0.56774014 -0.3921349 0.7238104
vn 0.0050356914 0.9951137 -0.098608
vn 0.096225776 0.9904571 -0.09866728
vn 0.1181684 0.9880734 -0.09872799
vn 9.155833E-05 1 -0.00027467497
vn -0.09753945 0.99044037 -0.09753945
vn -0.09753945 0.99044037 -0.09753945
vn -0.09790511 0.9940969 0.046755176
vn -0.09753945 0.99044037 0.09753945
vn -0 0.9810172 0.19392058
vn 0.19059335 0.96221405 0.19446929
vn -0.0962565 0.97748864 0.18775205
vn -0.09381668 0.95272464 0.28898835
vn 0.19477195 0.98084855 -0.00027467054
vn 0.2901769 0.95665604 0.024629027
vn 0.28889388 0.95237935 -0.097539075
vn 0.28889388 0.95237935 0.097539075
vn 0.28181884 0.93854153 0.19929358
vn 0.27265847 0.9169797 0.29121414
vn 0.13208714 0.93834364 0.31947508
vn -0 0.9247627 0.38054413
vn -0.09259508 0.94035584 0.32734832
vn 0.033266336 0.88143593 0.4711307
vn 0.086521655 0.8786145 0.46962798
vn 0.086521655 0.8786145 0.46962798
vn 0.086521655 0.8786145 0.46962798
vn -0.96442795 -0.25364268 0.07445839
vn -0.96442795 -0.25364268 0.07445839
vn -0.96442795 -0.25364268 0.07445839
vn -0.96442795 -0.25364268 0.07445839
vn -0.96442795 -0.25364268 0.07445839
g Sphere_cell.015_0
f 3/3/3 2/2/2 1/1/1
f 2/2/2 4/4/4 1/1/1
f 1/1/1 4/4/4 5/5/5
f 5/5/5 6/6/6 1/1/1
f 4/4/4 7/7/7 5/5/5
f 10/10/10 9/9/9 8/8/8
f 11/11/11 10/10/10 8/8/8
f 8/8/8 12/12/12 11/11/11
f 15/15/15 14/14/14 13/13/13
f 16/16/16 15/15/15 13/13/13
f 19/19/19 18/18/18 17/17/17
f 20/20/20 18/18/18 19/19/19
f 18/18/18 20/20/20 21/21/21
f 18/18/18 21/21/21 22/22/22
f 23/23/23 18/18/18 22/22/22
f 20/20/20 24/24/24 21/21/21
f 25/25/25 24/24/24 20/20/20
f 26/26/26 25/25/25 20/20/20
f 29/29/29 28/28/28 27/27/27
f 27/27/27 30/30/30 29/29/29
f 29/29/29 30/30/30 31/31/31
f 27/27/27 32/32/32 30/30/30
f 35/35/35 34/34/34 33/33/33
f 33/33/33 36/36/36 35/35/35
f 36/36/36 37/37/37 35/35/35
f 40/40/40 39/39/39 38/38/38
f 38/38/38 41/41/41 40/40/40
f 41/41/41 38/38/38 42/42/42
f 42/42/42 43/43/43 41/41/41
f 43/43/43 44/44/44 41/41/41
f 41/41/41 44/44/44 45/45/45
f 45/45/45 46/46/46 41/41/41
f 46/46/46 47/47/47 41/41/41
f 45/45/45 48/48/48 46/46/46
f 46/46/46 48/48/48 49/49/49
f 41/41/41 50/50/50 40/40/40
f 47/47/47 50/50/50 41/41/41
f 50/50/50 51/51/51 40/40/40
f 51/51/51 50/50/50 47/47/47
f 51/51/51 52/52/52 40/40/40
f 47/47/47 53/53/53 51/51/51
f 47/47/47 54/54/54 53/53/53
f 55/55/55 54/54/54 47/47/47
f 56/56/56 55/55/55 47/47/47
f 47/47/47 46/46/46 56/56/56
f 49/49/49 57/57/57 46/46/46
f 46/46/46 57/57/57 56/56/56
f 49/49/49 58/58/58 57/57/57
f 57/57/57 58/58/58 59/59/59
f 56/56/56 57/57/57 59/59/59
f 59/59/59 60/60/60 56/56/56
f 59/59/59 61/61/61 60/60/60
f 59/59/59 62/62/62 61/61/61
f 65/65/65 64/64/64 63/63/63
f 63/63/63 66/66/66 65/65/65
f 63/63/63 67/67/67 66/66/66
