g Spikes In Play.019
v -0 0.006411817 -0.0028236334
v 0.004533839 0.004533839 -0.0028236334
v -0 0 0.01
v 0.004533839 0.004533839 -0.0028236334
v 0.006411817 -2.802694E-10 -0.0028236334
v -0 0 0.01
v 0.006411817 -2.802694E-10 -0.0028236334
v 0.004533839 -0.004533839 -0.0028236334
v -0 0 0.01
v 0.004533839 -0.004533839 -0.0028236334
v -5.605388E-10 -0.006411817 -0.0028236334
v -0 0 0.01
v -5.605388E-10 -0.006411817 -0.0028236334
v -0.0045338394 -0.004533838 -0.0028236334
v -0 0 0.01
v -0.0045338394 -0.004533838 -0.0028236334
v -0.006411817 7.6460144E-11 -0.0028236334
v -0 0 0.01
v -0.006411817 7.6460144E-11 -0.0028236334
v -0.00453384 0.004533839 -0.002823634
v -0 0 0.01
v -0.00453384 0.004533839 -0.002823634
v -0 0.006411817 -0.0028236334
v -0 0 0.01
v 0.004533839 -0.004533839 -0.0028236334
v 0.006411817 -2.802694E-10 -0.0028236334
v 0.004533839 0.004533839 -0.0028236334
v -5.605388E-10 -0.006411817 -0.0028236334
v -0 0.006411817 -0.0028236334
v -0.00453384 0.004533839 -0.002823634
v -0.0045338394 -0.004533838 -0.0028236334
v -0.006411817 7.6460144E-11 -0.0028236334
vn 0.34740806 0.83871686 0.4193585
vn 0.34740806 0.83871686 0.4193585
vn 0.34740806 0.83871686 0.4193585
vn 0.83871686 0.34740806 0.4193585
vn 0.83871686 0.34740806 0.4193585
vn 0.83871686 0.34740806 0.4193585
vn 0.83871686 -0.34740812 0.4193585
vn 0.83871686 -0.34740812 0.4193585
vn 0.83871686 -0.34740812 0.4193585
vn 0.34740803 -0.838717 0.41935858
vn 0.34740803 -0.838717 0.41935858
vn 0.34740803 -0.838717 0.41935858
vn -0.34740812 -0.838717 0.41935843
vn -0.34740812 -0.838717 0.41935843
vn -0.34740812 -0.838717 0.41935843
vn -0.838717 -0.34740797 0.41935855
vn -0.838717 -0.34740797 0.41935855
vn -0.838717 -0.34740797 0.41935855
vn -0.838717 0.347408 0.4193585
vn -0.838717 0.347408 0.4193585
vn -0.838717 0.347408 0.4193585
vn -0.3474081 0.838717 0.41935855
vn -0.3474081 0.838717 0.41935855
vn -0.3474081 0.838717 0.41935855
vn -0 0 -1
vn -0 0 -1
vn -0 0 -1
vn -0 0 -1
vn -0 0 -1
vn -0 0 -1
vn -0 0 -1
vn -0 0 -1
g Spikes In Play.019_0
f 3/3/3 2/2/2 1/1/1
f 6/6/6 5/5/5 4/4/4
f 9/9/9 8/8/8 7/7/7
f 12/12/12 11/11/11 10/10/10
f 15/15/15 14/14/14 13/13/13
f 18/18/18 17/17/17 16/16/16
f 21/21/21 20/20/20 19/19/19
f 24/24/24 23/23/23 22/22/22
f 27/27/27 26/26/26 25/25/25
f 25/25/25 28/28/28 27/27/27
f 28/28/28 29/29/29 27/27/27
f 28/28/28 30/30/30 29/29/29
f 28/28/28 31/31/31 30/30/30
f 31/31/31 32/32/32 30/30/30
