g spmDanglingMossSpread_LOD1
v 2.145906 0.096753865 -0.89748627
v 1.5433781 0.096753865 -1.4334424
v 2.1459074 1.6192461 -0.89748627
v 1.6403698 1.4862107 -1.2590449
v 2.2833757 0.096753865 -0.10288472
v 2.1863842 1.4640379 -0.27728224
v 2.2833757 -5.9932156 -0.10288472
v 2.145906 -5.9932156 -0.89748627
v 2.2833757 -4.470723 -0.10288472
v 2.145906 -4.470723 -0.89748627
v 1.5433768 -5.9932156 -1.4334424
v 1.5433781 -4.470723 -1.4334424
v 2.2833757 -2.9482307 -0.10288472
v 2.145906 -2.9482307 -0.89748627
v 2.2833757 -1.4257385 -0.10288472
v 2.145906 -1.4257385 -0.89748627
v 1.5433781 -2.9482307 -1.4334424
v 1.5433781 -1.4257385 -1.4334424
v 2.145906 -9.038201 -0.89748627
v 1.5433768 -9.038201 -1.4334424
v 2.145906 -7.515708 -0.89748627
v 1.5433768 -7.515708 -1.4334424
v 2.2833745 -9.038201 -0.1028834
v 2.2833757 -7.515708 -0.1028834
v 2.1540518 -9.806821 -0.33541304
v 2.145906 -10.560693 -0.89748627
v 1.7050304 -9.71813 -1.1427807
v 0.46963543 0.3652766 -0.9196733
v -0.03071899 0.3652766 -1.0682672
v 0.46963543 1.3507222 -0.9196733
v 0.0740337 1.264614 -0.9927021
v 0.768482 0.3652766 -0.49174193
v 0.66372925 1.250262 -0.56730825
v 0.768482 -3.5765052 -0.49174193
v 0.46963543 -3.5765052 -0.9196733
v 0.768482 -2.5910587 -0.49174193
v 0.46963543 -2.5910587 -0.9196733
v -0.03071899 -3.5765052 -1.0682672
v -0.03071899 -2.5910587 -1.0682672
v 0.768482 -1.605613 -0.49174193
v 0.46963543 -1.605613 -0.9196733
v 0.768482 -0.62016886 -0.49174193
v 0.46963543 -0.62016886 -0.9196733
v -0.03071899 -1.605613 -1.0682672
v -0.03071899 -0.62016886 -1.0682672
v 0.46963543 -5.547395 -0.9196733
v -0.03071899 -5.547395 -1.0682672
v 0.46963543 -4.5619493 -0.9196733
v -0.03071899 -4.5619493 -1.0682672
v 0.768482 -5.547395 -0.49174193
v 0.768482 -4.5619493 -0.49174193
v 0.6288126 -6.044891 -0.5924958
v 0.46963543 -6.532842 -0.9196733
v 0.14386839 -5.9874854 -0.9423245
v 2.0838492 0.16804715 -4.3154497
v 1.3607515 0.16804715 -4.2090645
v 2.0838492 1.5479516 -4.3154497
v 1.5383562 1.4273752 -4.1748757
v 2.7157776 0.16804715 -3.948222
v 2.5381732 1.4072785 -3.9824107
v 2.7157776 -5.351571 -3.948222
v 2.0838492 -5.351571 -4.3154488
v 2.7157776 -3.971665 -3.948222
v 2.0838492 -3.971665 -4.3154488
v 1.3607515 -5.351571 -4.2090645
v 1.3607515 -3.971665 -4.2090645
v 2.7157776 -2.5917618 -3.948222
v 2.0838492 -2.5917618 -4.3154497
v 2.7157776 -1.2118573 -3.948222
v 2.0838492 -1.2118573 -4.3154497
v 1.3607515 -2.5917618 -4.2090645
v 1.3607515 -1.2118573 -4.2090645
v 2.0838492 -8.111381 -4.3154488
v 1.3607515 -8.111381 -4.2090645
v 2.0838492 -6.7314754 -4.3154488
v 1.3607515 -6.7314754 -4.2090645
v 2.7157776 -8.111381 -3.948222
v 2.7157776 -6.7314754 -3.948222
v 2.4789712 -8.808015 -3.9938064
v 2.0838492 -9.491284 -4.3154488
v 1.6567588 -8.727631 -4.152083
v -3.4989147 0.3644901 -0.59382963
v -3.362425 0.3644901 -0.08917481
v -3.4989147 1.3515099 -0.59382963
v -3.3531053 1.2652639 -0.21820892
v -3.291315 0.3644901 -1.0736297
v -3.300636 1.2508886 -0.94459695
v -3.291315 -3.5835888 -1.0736297
v -3.4989147 -3.5835888 -0.59382963
v -3.291315 -2.596569 -1.0736297
v -3.4989147 -2.596569 -0.59382963
v -3.362425 -3.5835888 -0.08917481
v -3.362425 -2.596569 -0.08917481
v -3.291315 -1.6095495 -1.0736297
v -3.4989147 -1.6095495 -0.59382963
v -3.291315 -0.6225297 -1.0736297
v -3.4989147 -0.6225297 -0.59382963
v -3.362425 -1.6095495 -0.08917481
v -3.362425 -0.6225297 -0.08917481
v -3.4989147 -5.5576286 -0.59382963
v -3.362425 -5.5576286 -0.08917481
v -3.4989147 -4.570608 -0.59382963
v -3.362425 -4.570608 -0.08917481
v -3.291315 -5.5576286 -1.0736297
v -3.291315 -4.570608 -1.0736297
v -3.3037417 -6.0559187 -0.9015851
v -3.4989147 -6.5446486 -0.59382963
v -3.3468914 -5.9984207 -0.3042312
v 3.9094665 0.10049272 -3.2611773
v 3.1616805 0.10049272 -3.5522654
v 3.9094677 1.615506 -3.2611773
v 3.3125987 1.4831246 -3.4232094
v 4.3131056 0.10049272 -2.5676405
v 4.1621876 1.4610609 -2.6966965
v 4.3131046 -5.95956 -2.5676405
v 3.9094665 -5.95956 -3.2611773
v 4.3131046 -4.4445477 -2.5676405
v 3.9094665 -4.4445477 -3.2611773
v 3.1616805 -5.95956 -3.5522654
v 3.1616805 -4.4445477 -3.5522654
v 4.3131046 -2.9295328 -2.5676405
v 3.9094665 -2.9295328 -3.2611773
v 4.3131046 -1.4145209 -2.5676405
v 3.9094665 -1.4145209 -3.2611773
v 3.1616805 -2.9295328 -3.5522654
v 3.1616805 -1.4145209 -3.5522654
v 3.9094665 -8.989589 -3.261176
v 3.1616805 -8.989589 -3.5522642
v 3.9094665 -7.474575 -3.2611773
v 3.1616805 -7.474575 -3.5522642
v 4.3131046 -8.989589 -2.5676405
v 4.3131046 -7.474575 -2.5676405
v 4.1118803 -9.754432 -2.7397134
v 3.9094665 -10.504601 -3.261176
v 3.4132109 -9.666177 -3.3371713
v -3.268291 0.10451487 2.0987005
v -2.5417912 0.10451487 2.4293034
v -3.268291 1.6114851 2.0987005
v -2.6845105 1.4798055 2.2927551
v -3.6306622 0.10451487 1.3875133
v -3.4879432 1.457859 1.5240613
v -3.6306608 -5.9233723 1.3875133
v -3.2682896 -5.9233723 2.0987005
v -3.6306622 -4.4164 1.3875133
v -3.2682896 -4.4164 2.0987005
v -2.5417912 -5.9233723 2.429302
v -2.5417912 -4.4164 2.429302
v -3.6306622 -2.9094286 1.3875133
v -3.268291 -2.9094286 2.0987005
v -3.6306622 -1.402457 1.3875133
v -3.268291 -1.402457 2.0987005
v -2.5417912 -2.9094286 2.429302
v -2.5417912 -1.402457 2.4293034
v -3.2682896 -8.937316 2.0987005
v -2.5417912 -8.937316 2.429302
v -3.2682896 -7.4303436 2.0987005
v -2.5417912 -7.4303436 2.429302
v -3.6306608 -8.937316 1.3875133
v -3.6306608 -7.4303436 1.3875133
v -3.4403694 -9.698099 1.569577
v -3.2682896 -10.444287 2.0987005
v -2.7796562 -9.610312 2.2017214
v -3.8811955 0.27030247 -2.5606568
v -3.9917786 0.27030247 -1.9479954
v -3.8811955 1.4456989 -2.5606568
v -3.9159224 1.3429911 -2.0820863
v -3.4130366 0.27030247 -2.971037
v -3.488893 1.325874 -2.8369458
v -3.4130366 -4.4312835 -2.9710355
v -3.8811955 -4.4312835 -2.5606568
v -3.4130366 -3.2558875 -2.9710355
v -3.8811955 -3.2558875 -2.5606568
v -3.9917786 -4.4312835 -1.947994
v -3.9917786 -3.2558875 -1.9479954
v -3.4130366 -2.080491 -2.9710355
v -3.8811955 -2.080491 -2.5606568
v -3.4130366 -0.90509367 -2.971037
v -3.8811955 -0.90509367 -2.5606568
v -3.9917786 -2.080491 -1.9479954
v -3.9917786 -0.90509367 -1.9479954
v -3.8811955 -6.7820764 -2.5606568
v -3.9917786 -6.7820764 -1.947994
v -3.8811955 -5.60668 -2.5606568
v -3.9917786 -5.60668 -1.947994
v -3.4130354 -6.7820764 -2.9710355
v -3.4130354 -5.60668 -2.9710355
v -3.5141783 -7.375467 -2.7922478
v -3.8811955 -7.9574723 -2.5606568
v -3.8653512 -7.306996 -2.1714797
vt 0.25 0.875
vt 0.5 0.875
vt 0.25 1
vt 0.5 1
vt 0 0.875
vt 0 1
vt 0 0.375
vt 0.25 0.375
vt 0 0.5
vt 0.25 0.5
vt 0.5 0.375
vt 0.5 0.5
vt 0 0.625
vt 0.25 0.625
vt 0 0.75
vt 0.25 0.75
vt 0.5 0.625
vt 0.5 0.75
vt 0.25 0.125
vt 0.5 0.125
vt 0.25 0.25
vt 0.5 0.25
vt 0 0.125
vt 0 0.25
vt 0 0
vt 0.25 0
vt 0.5 0
vt 0.25 0.875
vt 0.5 0.875
vt 0.25 1
vt 0.5 1
vt 0 0.875
vt 0 1
vt 0 0.375
vt 0.25 0.375
vt 0 0.5
vt 0.25 0.5
vt 0.5 0.375
vt 0.5 0.5
vt 0 0.625
vt 0.25 0.625
vt 0 0.75
vt 0.25 0.75
vt 0.5 0.625
vt 0.5 0.75
vt 0.25 0.125
vt 0.5 0.125
vt 0.25 0.25
vt 0.5 0.25
vt 0 0.125
vt 0 0.25
vt 0 0
vt 0.25 0
vt 0.5 0
vt 0.25 0.875
vt 0.5 0.875
vt 0.25 1
vt 0.5 1
vt 0 0.875
vt 0 1
vt 0 0.375
vt 0.25 0.375
vt 0 0.5
vt 0.25 0.5
vt 0.5 0.375
vt 0.5 0.5
vt 0 0.625
vt 0.25 0.625
vt 0 0.75
vt 0.25 0.75
vt 0.5 0.625
vt 0.5 0.75
vt 0.25 0.125
vt 0.5 0.125
vt 0.25 0.25
vt 0.5 0.25
vt 0 0.125
vt 0 0.25
vt 0 0
vt 0.25 0
vt 0.5 0
vt 0.25 0.875
vt 0.5 0.875
vt 0.25 1
vt 0.5 1
vt 0 0.875
vt 0 1
vt 0 0.375
vt 0.25 0.375
vt 0 0.5
vt 0.25 0.5
vt 0.5 0.375
vt 0.5 0.5
vt 0 0.625
vt 0.25 0.625
vt 0 0.75
vt 0.25 0.75
vt 0.5 0.625
vt 0.5 0.75
vt 0.25 0.125
vt 0.5 0.125
vt 0.25 0.25
vt 0.5 0.25
vt 0 0.125
vt 0 0.25
vt 0 0
vt 0.25 0
vt 0.5 0
vt 0.25 0.875
vt 0.5 0.875
vt 0.25 1
vt 0.5 1
vt 0 0.875
vt 0 1
vt 0 0.375
vt 0.25 0.375
vt 0 0.5
vt 0.25 0.5
vt 0.5 0.375
vt 0.5 0.5
vt 0 0.625
vt 0.25 0.625
vt 0 0.75
vt 0.25 0.75
vt 0.5 0.625
vt 0.5 0.75
vt 0.25 0.125
vt 0.5 0.125
vt 0.25 0.25
vt 0.5 0.25
vt 0 0.125
vt 0 0.25
vt 0 0
vt 0.25 0
vt 0.5 0
vt 0.25 0.875
vt 0.5 0.875
vt 0.25 1
vt 0.5 1
vt 0 0.875
vt 0 1
vt 0 0.375
vt 0.25 0.375
vt 0 0.5
vt 0.25 0.5
vt 0.5 0.375
vt 0.5 0.5
vt 0 0.625
vt 0.25 0.625
vt 0 0.75
vt 0.25 0.75
vt 0.5 0.625
vt 0.5 0.75
vt 0.25 0.125
vt 0.5 0.125
vt 0.25 0.25
vt 0.5 0.25
vt 0 0.125
vt 0 0.25
vt 0 0
vt 0.25 0
vt 0.5 0
vt 0.25 0.875
vt 0.5 0.875
vt 0.25 1
vt 0.5 1
vt 0 0.875
vt 0 1
vt 0 0.375
vt 0.25 0.375
vt 0 0.5
vt 0.25 0.5
vt 0.5 0.375
vt 0.5 0.5
vt 0 0.625
vt 0.25 0.625
vt 0 0.75
vt 0.25 0.75
vt 0.5 0.625
vt 0.5 0.75
vt 0.25 0.125
vt 0.5 0.125
vt 0.25 0.25
vt 0.5 0.25
vt 0 0.125
vt 0 0.25
vt 0 0
vt 0.25 0
vt 0.5 0
vn 0.725815 0.556818 -0.403914
vn 0.470297 0.54840404 -0.6914291
vn 0.71774 0.5671561 -0.403959
vn 0.47637 0.566009 -0.672834
vn 0.83531505 0.548649 -0.035112
vn 0.8227769 0.56619203 -0.049641
vn 0.87340206 -0.480348 0.08021501
vn 0.74273497 -0.52624196 -0.41402102
vn 0.94185007 -0.031858 0.33452
vn 0.866941 -0.10114501 -0.48803902
vn 0.391922 -0.479559 -0.785124
vn 0.21292701 -0.031645 -0.97655606
vn 0.87632 0.473025 0.091161005
vn 0.743988 0.523874 -0.414775
vn 0.84857905 0.528901 -0.013297001
vn 0.73345107 0.54336005 -0.408424
vn 0.38415304 0.47217998 -0.793393
vn 0.458463 0.52855206 -0.714454
vn 0.71679497 -0.56605697 -0.407167
vn 0.44864 -0.555996 -0.69970804
vn 0.7331241 -0.543949 -0.408227
vn 0.461074 -0.530013 -0.71168596
vn 0.832781 -0.55311507 -0.023225
vn 0.84761107 -0.530347 -0.016959002
vn 0.816369 -0.57728 -0.017013002
vn 0.7172 -0.585113 -0.378507
vn 0.420006 -0.587967 -0.69129604
vn 0.48577902 0.556818 -0.673774
vn 0.13239102 0.54840404 -0.82566696
vn 0.478449 0.5671561 -0.670389
vn 0.145782 0.566009 -0.81140697
vn 0.741451 0.548649 -0.386308
vn 0.72393197 0.56619203 -0.39414302
vn 0.824884 -0.480348 -0.298047
vn 0.49681106 -0.52624196 -0.69010705
vn 0.9947911 -0.031857003 -0.096831
vn 0.5778621 -0.10114401 -0.809843
vn 0.021660002 -0.479559 -0.877242
vn -0.22166 -0.031645 -0.97461104
vn 0.83217204 0.473025 -0.289375
vn 0.49762502 0.523874 -0.6913221
vn 0.76272 0.528901 -0.372185
vn 0.490779 0.54336005 -0.681099
vn 0.011116 0.47217998 -0.881432
vn 0.111904 0.52855206 -0.841493
vn 0.47623104 -0.56605697 -0.67289203
vn 0.10926801 -0.555996 -0.823972
vn 0.490567 -0.543949 -0.680781
vn 0.115443006 -0.530013 -0.84009504
vn 0.744202 -0.55311507 -0.37447003
vn 0.76028895 -0.530347 -0.37509
vn 0.73197794 -0.57728 -0.36187902
vn 0.488762 -0.585113 -0.6471131
vn 0.086911 -0.587968 -0.804202
vn 0.156802 0.556818 -0.8157
vn -0.227687 0.54840404 -0.804619
vn 0.15157901 0.5671561 -0.80954206
vn -0.209536 0.566009 -0.7973261
vn 0.509767 0.548649 -0.662662
vn 0.490578 0.56619203 -0.662389
vn 0.62261295 -0.480348 -0.617753
vn 0.15992801 -0.5262429 -0.8351601
vn 0.861464 -0.031858 -0.506819
vn 0.18300702 -0.10114401 -0.9778951
vn -0.34984002 -0.479559 -0.804758
vn -0.611535 -0.031645 -0.790584
vn 0.632875 0.473025 -0.61295694
vn 0.16015501 0.523874 -0.836604
vn 0.53500605 0.528901 -0.6588111
vn 0.158252 0.54336005 -0.824449
vn -0.36116797 0.472181 -0.804117
vn -0.252934 0.52855206 -0.810344
vn 0.14851399 -0.56605697 -0.810878
vn -0.24794501 -0.555996 -0.79334205
vn 0.158193 -0.543949 -0.824072
vn -0.24913502 -0.530013 -0.81056607
vn 0.517248 -0.55311507 -0.65308404
vn 0.531578 -0.530347 -0.6604221
vn 0.511464 -0.57728 -0.6365161
vn 0.170737 -0.585113 -0.792775
vn -0.259896 -0.587968 -0.76599497
vn -0.82849103 0.556818 -0.059627004
vn -0.77219796 0.54840404 0.32088003
vn -0.821761 0.5671561 -0.055166006
vn -0.767093 0.566009 0.301996
vn -0.718096 0.548649 -0.42816198
vn -0.715564 0.56619203 -0.409138
vn -0.686792 -0.480348 -0.5455121
vn -0.84818405 -0.52624196 -0.060439
vn -0.60476404 -0.031858 -0.795767
vn -0.992644 -0.10114501 -0.066545
vn -0.75794697 -0.479559 0.442199
vn -0.713046 -0.031645 0.700403
vn -0.68323696 0.473025 -0.556268
vn -0.849645 0.523874 -0.060494002
vn -0.71724397 0.528901 -0.45367903
vn -0.8373501 0.54336005 -0.060036004
vn -0.75597596 0.472181 0.453372
vn -0.77490896 0.52855206 0.346626
vn -0.82272696 -0.56605697 -0.051964004
vn -0.758613 -0.555996 0.33966902
vn -0.836969 -0.543949 -0.060022004
vn -0.77557695 -0.530013 0.34287903
vn -0.709465 -0.55311507 -0.43671903
vn -0.71844 -0.530347 -0.450084
vn -0.692331 -0.57728 -0.432927
vn -0.807367 -0.585113 -0.076165006
vn -0.730049 -0.587968 0.348315
vn 0.539674 0.556818 -0.63143104
vn 0.200012 0.54840404 -0.81194097
vn 0.53209 0.5671561 -0.62866104
vn 0.21218202 0.566009 -0.79662603
vn 0.770776 0.548649 -0.323864
vn 0.753963 0.56619203 -0.333117
vn 0.846648 -0.480348 -0.229026
vn 0.552015 -0.5262429 -0.646799
vn 0.999387 -0.031859003 -0.014487
vn 0.64266104 -0.10114701 -0.759445
vn 0.09391 -0.479559 -0.87246996
vn -0.14055398 -0.031646002 -0.98956704
vn 0.8531961 0.473025 -0.21978101
vn 0.552926 0.523874 -0.64794207
vn 0.790808 0.528901 -0.308036
vn 0.545261 0.54336005 -0.63831806
vn 0.08374701 0.47217998 -0.8775151
vn 0.18089901 0.52855206 -0.829402
vn 0.53008604 -0.56605697 -0.631339
vn 0.176828 -0.555996 -0.812158
vn 0.545023 -0.543949 -0.6380191
vn 0.184311 -0.530013 -0.827717
vn 0.772541 -0.55311507 -0.31184
vn 0.788625 -0.530347 -0.311131
vn 0.75932103 -0.57728 -0.30029902
vn 0.540449 -0.585113 -0.604614
vn 0.15291701 -0.587968 -0.794299
vn -0.574072 0.556818 0.60032904
vn -0.245013 0.54840404 0.79951406
vn -0.566345 0.5671561 0.597987
vn -0.256309 0.566009 0.783543
vn -0.787649 0.548649 0.280345
vn -0.7713779 0.56619203 0.29052103
vn -0.8581101 -0.480348 0.18141901
vn -0.587251 -0.52624196 0.614984
vn -0.99863803 -0.031858 -0.041309003
vn -0.684043 -0.10114401 0.72239596
vn -0.142454 -0.479559 0.86586905
vn 0.08511001 -0.031645 0.9958691
vn -0.86413205 0.473025 0.171824
vn -0.588225 0.523874 0.616075
vn -0.806767 0.528901 0.26342303
vn -0.58003396 0.54336005 0.606894
vn -0.13258901 0.47217998 0.87147295
vn -0.22690399 0.52855206 0.818014
vn -0.564493 -0.56605697 0.600772
vn -0.22187701 -0.555996 0.801024
vn -0.57978 -0.543949 0.606609
vn -0.23021701 -0.530013 0.816141
vn -0.78874 -0.55311507 0.26824
vn -0.804759 -0.530347 0.26663506
vn -0.774897 -0.57728 0.25745502
vn -0.573349 -0.585113 0.57351106
vn -0.19700602 -0.587968 0.784527
vn -0.72307396 0.556818 -0.4088
vn -0.83521503 0.54840404 -0.040861
vn -0.71890295 0.5671561 -0.401886
vn -0.822513 0.566009 -0.055738002
vn -0.46544302 0.548649 -0.6945121
vn -0.47130498 0.56619203 -0.67623794
vn -0.38688505 -0.480348 -0.787138
vn -0.74052006 -0.52624196 -0.41797
vn -0.20555699 -0.031858 -0.9781261
vn -0.868437 -0.101146005 -0.48537302
vn -0.87431 -0.479559 0.07486701
vn -0.9443521 -0.031646002 0.32741204
vn -0.379065 0.473025 -0.795334
vn -0.741817 0.523874 -0.41864598
vn -0.453742 0.528901 -0.717204
vn -0.730904 0.54336005 -0.412965
vn -0.87731606 0.47217998 0.08580701
vn -0.848694 0.52855206 -0.018759003
vn -0.72114795 -0.56605697 -0.39940703
vn -0.830989 -0.555996 -0.018064
vn -0.7305651 -0.543949 -0.412789
vn -0.847693 -0.530013 -0.022431001
vn -0.45397902 -0.55311507 -0.69854707
vn -0.45636302 -0.530347 -0.714468
vn -0.440121 -0.57728 -0.68778
vn -0.69690204 -0.585113 -0.414694
vn -0.80888206 -0.587968 0.001985
g spmDanglingMossSpread_LOD1_0
f 2/2/2 3/3/3 1/1/1
f 4/4/4 3/3/3 2/2/2
f 1/1/1 6/6/6 5/5/5
f 3/3/3 6/6/6 1/1/1
f 8/8/8 9/9/9 7/7/7
f 10/10/10 9/9/9 8/8/8
f 11/11/11 10/10/10 8/8/8
f 12/12/12 10/10/10 11/11/11
f 14/14/14 15/15/15 13/13/13
f 16/16/16 15/15/15 14/14/14
f 17/17/17 16/16/16 14/14/14
f 18/18/18 16/16/16 17/17/17
f 20/20/20 21/21/21 19/19/19
f 22/22/22 21/21/21 20/20/20
f 19/19/19 24/24/24 23/23/23
f 21/21/21 24/24/24 19/19/19
f 12/12/12 14/14/14 10/10/10
f 17/17/17 14/14/14 12/12/12
f 10/10/10 13/13/13 9/9/9
f 14/14/14 13/13/13 10/10/10
f 26/26/26 23/23/23 25/25/25
f 19/19/19 23/23/23 26/26/26
f 27/27/27 19/19/19 26/26/26
f 20/20/20 19/19/19 27/27/27
f 16/16/16 5/5/5 15/15/15
f 1/1/1 5/5/5 16/16/16
f 18/18/18 1/1/1 16/16/16
f 2/2/2 1/1/1 18/18/18
f 22/22/22 8/8/8 21/21/21
f 11/11/11 8/8/8 22/22/22
f 21/21/21 7/7/7 24/24/24
f 8/8/8 7/7/7 21/21/21
f 29/29/29 30/30/30 28/28/28
f 31/31/31 30/30/30 29/29/29
f 28/28/28 33/33/33 32/32/32
f 30/30/30 33/33/33 28/28/28
f 35/35/35 36/36/36 34/34/34
f 37/37/37 36/36/36 35/35/35
f 38/38/38 37/37/37 35/35/35
f 39/39/39 37/37/37 38/38/38
f 41/41/41 42/42/42 40/40/40
f 43/43/43 42/42/42 41/41/41
f 44/44/44 43/43/43 41/41/41
f 45/45/45 43/43/43 44/44/44
f 47/47/47 48/48/48 46/46/46
f 49/49/49 48/48/48 47/47/47
f 46/46/46 51/51/51 50/50/50
f 48/48/48 51/51/51 46/46/46
f 39/39/39 41/41/41 37/37/37
f 44/44/44 41/41/41 39/39/39
f 37/37/37 40/40/40 36/36/36
f 41/41/41 40/40/40 37/37/37
f 53/53/53 50/50/50 52/52/52
f 46/46/46 50/50/50 53/53/53
f 54/54/54 46/46/46 53/53/53
f 47/47/47 46/46/46 54/54/54
f 43/43/43 32/32/32 42/42/42
f 28/28/28 32/32/32 43/43/43
f 45/45/45 28/28/28 43/43/43
f 29/29/29 28/28/28 45/45/45
f 49/49/49 35/35/35 48/48/48
f 38/38/38 35/35/35 49/49/49
f 48/48/48 34/34/34 51/51/51
f 35/35/35 34/34/34 48/48/48
f 56/56/56 57/57/57 55/55/55
f 58/58/58 57/57/57 56/56/56
f 55/55/55 60/60/60 59/59/59
f 57/57/57 60/60/60 55/55/55
f 62/62/62 63/63/63 61/61/61
f 64/64/64 63/63/63 62/62/62
f 65/65/65 64/64/64 62/62/62
f 66/66/66 64/64/64 65/65/65
f 68/68/68 69/69/69 67/67/67
f 70/70/70 69/69/69 68/68/68
f 71/71/71 70/70/70 68/68/68
f 72/72/72 70/70/70 71/71/71
f 74/74/74 75/75/75 73/73/73
f 76/76/76 75/75/75 74/74/74
f 73/73/73 78/78/78 77/77/77
f 75/75/75 78/78/78 73/73/73
f 66/66/66 68/68/68 64/64/64
f 71/71/71 68/68/68 66/66/66
f 64/64/64 67/67/67 63/63/63
f 68/68/68 67/67/67 64/64/64
f 80/80/80 77/77/77 79/79/79
f 73/73/73 77/77/77 80/80/80
f 81/81/81 73/73/73 80/80/80
f 74/74/74 73/73/73 81/81/81
f 70/70/70 59/59/59 69/69/69
f 55/55/55 59/59/59 70/70/70
f 72/72/72 55/55/55 70/70/70
f 56/56/56 55/55/55 72/72/72
f 76/76/76 62/62/62 75/75/75
f 65/65/65 62/62/62 76/76/76
f 75/75/75 61/61/61 78/78/78
f 62/62/62 61/61/61 75/75/75
f 83/83/83 84/84/84 82/82/82
f 85/85/85 84/84/84 83/83/83
f 82/82/82 87/87/87 86/86/86
f 84/84/84 87/87/87 82/82/82
f 89/89/89 90/90/90 88/88/88
f 91/91/91 90/90/90 89/89/89
f 92/92/92 91/91/91 89/89/89
f 93/93/93 91/91/91 92/92/92
f 95/95/95 96/96/96 94/94/94
f 97/97/97 96/96/96 95/95/95
f 98/98/98 97/97/97 95/95/95
f 99/99/99 97/97/97 98/98/98
f 101/101/101 102/102/102 100/100/100
f 103/103/103 102/102/102 101/101/101
f 100/100/100 105/105/105 104/104/104
f 102/102/102 105/105/105 100/100/100
f 93/93/93 95/95/95 91/91/91
f 98/98/98 95/95/95 93/93/93
f 91/91/91 94/94/94 90/90/90
f 95/95/95 94/94/94 91/91/91
f 107/107/107 104/104/104 106/106/106
f 100/100/100 104/104/104 107/107/107
f 108/108/108 100/100/100 107/107/107
f 101/101/101 100/100/100 108/108/108
f 97/97/97 86/86/86 96/96/96
f 82/82/82 86/86/86 97/97/97
f 99/99/99 82/82/82 97/97/97
f 83/83/83 82/82/82 99/99/99
f 103/103/103 89/89/89 102/102/102
f 92/92/92 89/89/89 103/103/103
f 102/102/102 88/88/88 105/105/105
f 89/89/89 88/88/88 102/102/102
f 110/110/110 111/111/111 109/109/109
f 112/112/112 111/111/111 110/110/110
f 109/109/109 114/114/114 113/113/113
f 111/111/111 114/114/114 109/109/109
f 116/116/116 117/117/117 115/115/115
f 118/118/118 117/117/117 116/116/116
f 119/119/119 118/118/118 116/116/116
f 120/120/120 118/118/118 119/119/119
f 122/122/122 123/123/123 121/121/121
f 124/124/124 123/123/123 122/122/122
f 125/125/125 124/124/124 122/122/122
f 126/126/126 124/124/124 125/125/125
f 128/128/128 129/129/129 127/127/127
f 130/130/130 129/129/129 128/128/128
f 127/127/127 132/132/132 131/131/131
f 129/129/129 132/132/132 127/127/127
f 120/120/120 122/122/122 118/118/118
f 125/125/125 122/122/122 120/120/120
f 118/118/118 121/121/121 117/117/117
f 122/122/122 121/121/121 118/118/118
f 134/134/134 131/131/131 133/133/133
f 127/127/127 131/131/131 134/134/134
f 135/135/135 127/127/127 134/134/134
f 128/128/128 127/127/127 135/135/135
f 124/124/124 113/113/113 123/123/123
f 109/109/109 113/113/113 124/124/124
f 126/126/126 109/109/109 124/124/124
f 110/110/110 109/109/109 126/126/126
f 130/130/130 116/116/116 129/129/129
f 119/119/119 116/116/116 130/130/130
f 129/129/129 115/115/115 132/132/132
f 116/116/116 115/115/115 129/129/129
f 137/137/137 138/138/138 136/136/136
f 139/139/139 138/138/138 137/137/137
f 136/136/136 141/141/141 140/140/140
f 138/138/138 141/141/141 136/136/136
f 143/143/143 144/144/144 142/142/142
f 145/145/145 144/144/144 143/143/143
f 146/146/146 145/145/145 143/143/143
f 147/147/147 145/145/145 146/146/146
f 149/149/149 150/150/150 148/148/148
f 151/151/151 150/150/150 149/149/149
f 152/152/152 151/151/151 149/149/149
f 153/153/153 151/151/151 152/152/152
f 155/155/155 156/156/156 154/154/154
f 157/157/157 156/156/156 155/155/155
f 154/154/154 159/159/159 158/158/158
f 156/156/156 159/159/159 154/154/154
f 147/147/147 149/149/149 145/145/145
f 152/152/152 149/149/149 147/147/147
f 145/145/145 148/148/148 144/144/144
f 149/149/149 148/148/148 145/145/145
f 161/161/161 158/158/158 160/160/160
f 154/154/154 158/158/158 161/161/161
f 162/162/162 154/154/154 161/161/161
f 155/155/155 154/154/154 162/162/162
f 151/151/151 140/140/140 150/150/150
f 136/136/136 140/140/140 151/151/151
f 153/153/153 136/136/136 151/151/151
f 137/137/137 136/136/136 153/153/153
f 157/157/157 143/143/143 156/156/156
f 146/146/146 143/143/143 157/157/157
f 156/156/156 142/142/142 159/159/159
f 143/143/143 142/142/142 156/156/156
f 164/164/164 165/165/165 163/163/163
f 166/166/166 165/165/165 164/164/164
f 163/163/163 168/168/168 167/167/167
f 165/165/165 168/168/168 163/163/163
f 170/170/170 171/171/171 169/169/169
f 172/172/172 171/171/171 170/170/170
f 173/173/173 172/172/172 170/170/170
f 174/174/174 172/172/172 173/173/173
f 176/176/176 177/177/177 175/175/175
f 178/178/178 177/177/177 176/176/176
f 179/179/179 178/178/178 176/176/176
f 180/180/180 178/178/178 179/179/179
f 182/182/182 183/183/183 181/181/181
f 184/184/184 183/183/183 182/182/182
f 181/181/181 186/186/186 185/185/185
f 183/183/183 186/186/186 181/181/181
f 174/174/174 176/176/176 172/172/172
f 179/179/179 176/176/176 174/174/174
f 172/172/172 175/175/175 171/171/171
f 176/176/176 175/175/175 172/172/172
f 188/188/188 185/185/185 187/187/187
f 181/181/181 185/185/185 188/188/188
f 189/189/189 181/181/181 188/188/188
f 182/182/182 181/181/181 189/189/189
f 178/178/178 167/167/167 177/177/177
f 163/163/163 167/167/167 178/178/178
f 180/180/180 163/163/163 178/178/178
f 164/164/164 163/163/163 180/180/180
f 184/184/184 170/170/170 183/183/183
f 173/173/173 170/170/170 184/184/184
f 183/183/183 169/169/169 186/186/186
f 170/170/170 169/169/169 183/183/183
