g terrainMesh.060
v -14.999998 6.2160873 20.652895
v -15.309641 8.201964 20.31953
v -14.999998 7.7543664 20.251354
v -14.999998 8.383763 20.233606
v -15.430635 9.965926 20.671776
v -14.999998 8.383763 20.233606
v -14.999998 9.72 20.46566
v -15.890691 9.999999 21.529902
v -15.446354 9.999999 20.703468
v -15.432786 9.999999 20.667025
v -15.414639 9.999999 20.658945
v -14.999998 9.72 20.46566
v -14.999998 9.999999 20.432125
v -16.71661 8.340163 24.032331
v -16.789244 9.999999 23.917433
v -15.153593 4.6800227 25.407736
v -17.545355 8.90805 26.171064
v -17.389374 9.999999 25.543402
v -17.689154 9.999999 26.338858
v -18.127327 9.999999 27.511229
v -18.108252 8.476302 27.762922
v -16.630922 6.5781546 26.58533
v -17.54417 1.6298673 30.482344
v -21.779634 8.845519 33.533306
v -23.206873 5.351211 37.26591
v -20.917892 9.999999 31.949158
v -18.127327 9.999999 27.511229
v -21.709372 9.999999 33.798477
v -22.009666 9.999999 35.285233
v -22.69065 9.999999 38.182755
v -24.999996 6.044855 38.868202
v -24.999996 9.999999 39.992405
v -24.999996 2.9912355 39.34796
v -24.999996 0 39.064342
v -24.110363 0 37.920345
v -19.375612 0 32.47236
v -17.54417 1.6298673 30.482344
v -17.990013 0 30.619951
v -17.110178 1.19209275E-07 29.585297
v -14.999998 0.46025142 24.116196
v -14.999998 0 24.176983
v -14.999998 4.041055 24.899134
v -15.153593 4.6800227 25.407736
v -14.999998 4.498042 24.005798
v -14.999998 4.041055 24.899134
v -14.999998 6.2160873 20.652895
v -15.309641 8.201964 20.31953
vt 0.16107005 0.30222896
vt 0.16105811 0.2943588
vt 0.15994929 0.29613516
vt 0.15987083 0.29360768
vt 0.16225417 0.28719714
vt 0.15987083 0.29360768
vt 0.16040397 0.2881789
vt 0.16589728 0.2869194
vt 0.1623831 0.28705475
vt 0.16224673 0.28706148
vt 0.1621698 0.28706104
vt 0.16040397 0.2881789
vt 0.16030256 0.28706047
vt 0.17502125 0.29311895
vt 0.17486176 0.28647876
vt 0.17395654 0.3073192
vt 0.18309581 0.29044315
vt 0.18093038 0.2861772
vt 0.18391834 0.28603047
vt 0.18831082 0.2858137
vt 0.18898332 0.29188132
vt 0.18146996 0.29960027
vt 0.19465002 0.3187132
vt 0.21525596 0.2895245
vt 0.22952001 0.3028936
vt 0.20842946 0.285139
vt 0.18831082 0.2858137
vt 0.21566764 0.28481
vt 0.22045034 0.28450224
vt 0.23006663 0.28391474
vt 0.23917106 0.29996118
vt 0.24188349 0.28379053
vt 0.24057278 0.31213188
vt 0.23999113 0.32422957
vt 0.23427978 0.32438153
vt 0.20554465 0.32504117
vt 0.19465002 0.3187132
vt 0.19646603 0.32529432
vt 0.19106852 0.3254221
vt 0.17034997 0.32457346
vt 0.17053135 0.32641053
vt 0.17219645 0.30998805
vt 0.9737176 0.7941467
vt 0.9777014 0.7938268
vt 0.97543 0.7917031
vt 0.98622394 0.8018087
vt 0.986224 0.8099755
vn 0.9735074 0.17624946 0.14566903
vn 0.69540733 0.0928695 0.71258956
vn 0.45415926 0.18131576 0.8722751
vn 0.31856325 -0.09693016 0.94293267
vn 0.7198117 0.015656041 0.69399285
vn 0.31856325 -0.09693016 0.94293267
vn 0.3990076 -0.0676915 0.9144457
vn 0.92067 0.035859954 0.3886914
vn 0.89610535 0.0005188267 0.443841
vn 0.71231526 0.14078449 0.6875948
vn 0.45269287 0.1201545 0.88353384
vn 0.3990076 -0.0676915 0.9144457
vn 0.47728857 0.10449748 0.87251127
vn 0.9074222 0.27323684 0.31925952
vn 0.93501616 0.06503637 0.34859008
vn 0.92002434 0.20182182 0.33589157
vn 0.9165772 0.20908569 0.34083623
vn 0.9352974 0.06619657 0.3476159
vn 0.9340599 0.06915571 0.3503564
vn 0.8972232 0.08285863 0.43373367
vn 0.8536328 0.21467477 0.47457954
vn 0.82941985 0.36015686 0.4270244
vn 0.83851594 0.046297673 0.54290664
vn 0.9123153 0.034364805 0.4080439
vn 0.7871384 -0.021057904 0.61641675
vn 0.8601584 0.053897236 0.5071712
vn 0.8972232 0.08285863 0.43373367
vn 0.95131433 -0.122809306 0.28269944
vn 0.9648197 -0.1427667 0.22077264
vn 0.8149568 -0.19791764 0.5446779
vn 0.64553636 -0.08453743 0.75903636
vn 0.6019225 -0.21833158 0.768128
vn 0.7659154 -0.014862957 0.6427695
vn 0.7880595 -0.058108017 0.61285037
vn 0.7734559 -0.0533481 0.63160115
vn 0.761262 -0.068057016 0.64486307
vn 0.83851594 0.046297673 0.54290664
vn 0.77437246 -0.16013606 0.6121305
vn 0.88664496 -0.018219985 0.46209183
vn 0.9280408 -0.008209509 0.3723882
vn 0.9305325 0.047945775 0.36305723
vn 0.9629298 0.017151577 0.26920652
vn 0.92002434 0.20182182 0.33589157
vn 0.9821156 0.16758224 0.085820675
vn 0.9629298 0.017151577 0.26920652
vn 0.9735074 0.17624946 0.14566903
vn 0.69540733 0.0928695 0.71258956
g terrainMesh.060_0
f 3/3/3 2/2/2 1/1/1
f 2/2/2 3/3/3 4/4/4
f 2/2/2 6/6/6 5/5/5
f 6/6/6 7/7/7 5/5/5
f 8/8/8 2/2/2 5/5/5
f 9/9/9 8/8/8 5/5/5
f 5/5/5 10/10/10 9/9/9
f 11/11/11 10/10/10 5/5/5
f 5/5/5 12/12/12 11/11/11
f 12/12/12 13/13/13 11/11/11
f 2/2/2 8/8/8 14/14/14
f 8/8/8 15/15/15 14/14/14
f 16/16/16 2/2/2 14/14/14
f 14/14/14 15/15/15 17/17/17
f 15/15/15 18/18/18 17/17/17
f 19/19/19 17/17/17 18/18/18
f 17/17/17 19/19/19 20/20/20
f 21/21/21 17/17/17 20/20/20
f 17/17/17 22/22/22 14/14/14
f 22/22/22 16/16/16 14/14/14
f 21/21/21 22/22/22 17/17/17
f 16/16/16 22/22/22 23/23/23
f 21/21/21 23/23/23 22/22/22
f 23/23/23 21/21/21 24/24/24
f 25/25/25 23/23/23 24/24/24
f 24/24/24 21/21/21 26/26/26
f 21/21/21 27/27/27 26/26/26
f 26/26/26 28/28/28 24/24/24
f 24/24/24 28/28/28 29/29/29
f 24/24/24 29/29/29 30/30/30
f 25/25/25 24/24/24 30/30/30
f 31/31/31 25/25/25 30/30/30
f 32/32/32 31/31/31 30/30/30
f 31/31/31 33/33/33 25/25/25
f 33/33/33 34/34/34 25/25/25
f 34/34/34 35/35/35 25/25/25
f 35/35/35 36/36/36 25/25/25
f 36/36/36 37/37/37 25/25/25
f 37/37/37 36/36/36 38/38/38
f 39/39/39 37/37/37 38/38/38
f 37/37/37 39/39/39 40/40/40
f 39/39/39 41/41/41 40/40/40
f 37/37/37 40/40/40 16/16/16
f 40/40/40 42/42/42 16/16/16
f 45/45/45 44/44/44 43/43/43
f 44/44/44 46/46/46 43/43/43
f 46/46/46 47/47/47 43/43/43
