g terrainMesh.035
v -22.572636 -9.999999 20.243353
v -20.759768 -9.999999 20.269989
v -20.465496 -12.68112 20.717865
v -24.560287 -18.616331 19.196724
v -24.999996 -18.542604 19.158634
v -24.999996 -18.215906 19.25863
v -24.999996 -10.769657 33.669388
v -24.999996 -9.999999 34.320713
v -24.025217 -9.999999 33.201942
v -20.465496 -12.68112 20.717865
v -20.759768 -9.999999 20.269989
v -19.449915 -9.999999 20.466381
v -17.938202 -9.999999 23.18109
v -17.394897 -9.999999 22.04952
v -17.830446 -10.2430105 22.377632
v -18.963531 -9.999999 25.314793
v -19.726162 -11.293181 23.819527
v -21.507196 -10.966002 26.285975
v -19.963842 -9.999999 26.372953
v -21.126402 -9.999999 27.389038
v -22.534868 -9.999999 27.936182
v -24.999996 -18.658665 18.70331
v -24.999996 -18.542604 19.158634
v -24.560287 -18.616331 19.196724
v -24.999996 -18.982866 15.896938
v -22.723392 -19.137236 15.21801
v -24.999996 -18.865852 13.568577
v -20.044254 -18.384382 19.149048
v -24.999996 -18.842777 12.142055
v -18.81809 -19.137632 15.410805
v -17.890333 -18.247282 18.250465
v -15.664126 -17.873182 15.498245
v -22.701675 -19.07501 11.226697
v -24.999996 -18.500647 10.534943
v -16.547838 -19.171019 13.624971
v -15.408757 -18.890944 13.66732
v -14.999998 -18.792896 13.300014
v -14.999998 -18.795473 12.89906
v -16.527283 -19.022322 8.964803
v -14.999998 -18.740963 11.135111
v -14.999998 -18.607616 9.815356
v -14.999998 -18.384674 8.892929
v -14.999998 -18.028927 7.460197
v -14.999998 -17.592493 6.2935266
v -17.335447 -17.769514 5.0067916
v -14.999998 -17.057415 4.2430916
v -14.999998 -15.401922 2.5128186
v -19.909414 -19.24455 11.625142
v -20.620651 -18.753614 8.245624
v -18.501293 -15.17285 1.8705671
v -14.999998 -15.077225 2.1363347
v -19.967484 -16.722898 3.4214911
v -22.033197 -17.33293 5.433038
v -23.998665 -18.332182 8.869527
v -24.999996 -16.982714 6.9736857
v -24.999996 -17.981577 9.069745
v -24.999996 -16.995958 6.9996743
v -23.986485 -13.381193 19.952423
v -20.465496 -12.68112 20.717865
v -19.959303 -15.185911 19.903786
v -23.927223 -9.999999 19.947447
v -22.572636 -9.999999 20.243353
v -20.465496 -12.68112 20.717865
v -21.640892 -13.918516 23.485062
v -18.726519 -11.943114 21.689758
v -17.083231 -11.538268 20.469234
v -14.999998 -12.952523 0.6639736
v -18.501293 -15.17285 1.8705671
v -14.999998 -15.077225 2.1363347
v -15.746624 -9.999999 -1.5840869
v -14.999998 -9.999999 -1.4951463
v -16.875847 -9.999999 -1.5014486
v -19.913292 -12.100477 0.041769024
v -19.027037 -9.999999 -1.346277
v -20.60656 -9.999999 -0.96986383
v -21.91619 -14.736158 2.4254606
v -19.967484 -16.722898 3.4214911
v -22.578623 -11.363799 0.5151481
v -24.79073 -12.22418 2.363363
v -21.972368 -9.999999 -0.50287586
v -23.777061 -9.999999 0.3471695
v -24.738838 -9.999999 0.9117093
v -24.999996 -9.999999 1.1037765
v -24.999996 -12.007868 2.379798
v -24.999996 -12.127449 2.4962428
v -24.682407 -15.183332 4.6715827
v -24.999996 -14.840035 4.7126894
v -24.999996 -15.185149 5.021455
v -24.999996 -16.921822 6.902838
v -22.033197 -17.33293 5.433038
v -19.967484 -16.722898 3.4214911
v -24.999996 -16.982714 6.9736857
v -17.083231 -11.538268 20.469234
v -19.959303 -15.185911 19.903786
v -20.465496 -12.68112 20.717865
v -16.324678 -14.674589 19.386295
v -15.218852 -13.5154705 19.298271
v -15.426655 -15.772596 17.006264
v -17.323368 -16.247862 19.668728
v -16.69199 -16.76515 18.012878
v -20.044254 -18.384382 19.149048
v -17.890333 -18.247282 18.250465
v -22.437508 -16.840864 19.861374
v -24.560287 -18.616331 19.196724
v -23.986485 -13.381193 19.952423
v -15.845455 -17.054869 16.527893
v -15.664126 -17.873182 15.498245
v -24.999996 -15.920352 19.855034
v -24.999996 -18.215906 19.25863
v -24.999996 -13.585554 19.931337
v -24.999996 -13.2426 19.93057
v -24.999996 -12.50802 19.92827
v -23.927223 -9.999999 19.947447
v -24.999996 -9.999999 19.923603
v -14.999998 -16.427616 16.03145
v -14.999998 -15.868666 16.448141
v -14.999998 -15.424601 16.858694
v -14.999998 -13.503029 19.034538
v -14.999998 -16.870993 15.601879
v -14.999998 -17.427881 15.1189375
v -14.999998 -18.16248 14.235666
v -14.999998 -18.792896 13.300014
v -15.408757 -18.890944 13.66732
v -14.999998 -13.194426 19.391466
v -14.999998 -11.344029 19.856785
v -15.757881 -10.926116 19.918728
v -14.999998 -10.428677 19.97092
v -14.999998 -9.999999 20.21138
v -15.850946 -9.999999 20.466074
v -16.331526 -9.999999 20.782206
v -17.394897 -9.999999 22.04952
v -17.830446 -10.2430105 22.377632
v -18.726519 -11.943114 21.689758
v -19.726162 -11.293181 23.819527
v -21.640892 -13.918516 23.485062
v -22.911428 -14.298674 25.38555
v -21.507196 -10.966002 26.285975
v -23.864122 -11.682815 28.058233
v -24.999996 -15.154211 27.172117
v -24.999996 -14.278292 27.713427
v -24.999996 -13.968639 29.972168
v -24.999996 -11.020171 32.968166
v -23.66403 -9.999999 29.020922
v -22.534868 -9.999999 27.936182
v -24.999996 -10.704822 33.288433
v -24.384378 -9.999999 31.707916
v -24.597818 -15.641935 24.335115
v -22.911428 -14.298674 25.38555
v -21.640892 -13.918516 23.485062
v -24.999996 -15.609595 26.010838
v -24.999996 -15.842498 24.738817
v -24.999996 -15.154211 27.172117
v -24.025217 -9.999999 33.201942
v -24.384378 -9.999999 31.707916
v -24.999996 -10.704822 33.288433
v -24.999996 -10.769657 33.669388
vt 0.18419927 0.3685255
vt 0.17867689 0.36828578
vt 0.17906907 0.3789277
vt 0.50833833 0.97373205
vt 0.50751746 0.9746504
vt 0.50833833 0.97575617
vt 0.22655167 0.3688053
vt 0.22820154 0.36555776
vt 0.22229299 0.36569288
vt 0.17906907 0.3789277
vt 0.17867689 0.36828578
vt 0.1751463 0.36807126
vt 0.33014482 0.58469796
vt 0.32977822 0.5897446
vt 0.33093575 0.5878737
vt 0.33083928 0.57518065
vt 0.33595315 0.57967865
vt 0.33897853 0.5677931
vt 0.33302802 0.56973433
vt 0.33588737 0.56420624
vt 0.34036124 0.56007373
vt 0.088396065 0.8992974
vt 0.08704923 0.8980466
vt 0.08573153 0.8992383
vt 0.09668258 0.90700865
vt 0.09243483 0.9155876
vt 0.103543155 0.91340804
vt 0.07345493 0.91268814
vt 0.10774827 0.9173286
vt 0.08113602 0.9265746
vt 0.070180975 0.92151016
vt 0.07216479 0.93564063
vt 0.10414087 0.9266211
vt 0.11247386 0.92174685
vt 0.0801648 0.93817735
vt 0.07689964 0.94142133
vt 0.07685581 0.94363666
vt 0.07803808 0.9447385
vt 0.09384285 0.95104593
vt 0.083236896 0.9495865
vt 0.08712307 0.9532141
vt 0.0898344 0.9557501
vt 0.09404535 0.95968914
vt 0.0974688 0.9628973
vt 0.10768625 0.95954555
vt 0.10349426 0.96853465
vt 0.10853368 0.97329676
vt 0.09530031 0.9337598
vt 0.10720033 0.9409522
vt 0.12003902 0.9647375
vt 0.10963152 0.9743328
vt 0.11955299 0.9561448
vt 0.119320855 0.9445222
vt 0.11462657 0.9292775
vt 0.12291696 0.9315405
vt 0.1167744 0.92577577
vt 0.12284083 0.93146896
vt 0.3153415 0.97337854
vt 0.32500854 0.9693294
vt 0.31859303 0.96079755
vt 0.32179207 0.98510754
vt 0.32500854 0.98260677
vt 0.99047923 0.8246301
vt 0.99749637 0.83449316
vt 0.99749637 0.8206721
vt 0.9967541 0.8124507
vt 0.35305604 0.52016366
vt 0.3478 0.5041006
vt 0.34530318 0.5149401
vt 0.36438504 0.5254519
vt 0.3637853 0.52767307
vt 0.36537713 0.5216116
vt 0.36032847 0.5064158
vt 0.36726618 0.51430064
vt 0.368756 0.508351
vt 0.35263154 0.49221456
vt 0.3435768 0.49448496
vt 0.36566707 0.497415
vt 0.3648979 0.48536175
vt 0.37009966 0.50289303
vt 0.3719663 0.495165
vt 0.3730048 0.49079943
vt 0.37330192 0.48952806
vt 0.3659302 0.48484734
vt 0.365507 0.48447892
vt 0.354109 0.4778668
vt 0.35574082 0.47706416
vt 0.3545088 0.4760615
vt 0.34843722 0.4702901
vt 0.3437286 0.4827752
vt 0.3435768 0.49448496
vt 0.34822625 0.47007692
vt 0.1679333 0.37395304
vt 0.17552514 0.38912717
vt 0.17906907 0.3789277
vt 0.16294612 0.38672283
vt 0.15924737 0.3819386
vt 0.15405926 0.39157826
vt 0.16684002 0.39311382
vt 0.16062416 0.39549902
vt 0.17399414 0.40217912
vt 0.16501284 0.40155956
vt 0.18314394 0.39611298
vt 0.18805869 0.40368274
vt 0.1879795 0.38237554
vt 0.15417615 0.39690134
vt 0.1509882 0.4004094
vt 0.19098365 0.392742
vt 0.18955487 0.40211433
vt 0.19106135 0.38333303
vt 0.19104171 0.38195375
vt 0.1909979 0.3789996
vt 0.18760972 0.36876896
vt 0.19085664 0.36891273
vt 0.15024847 0.39438513
vt 0.15130055 0.39203978
vt 0.1523426 0.39015794
vt 0.15788761 0.38192183
vt 0.14915703 0.3962686
vt 0.14793299 0.3986211
vt 0.1456797 0.4017817
vt 0.14328516 0.40453544
vt 0.14550371 0.4048969
vt 0.15879756 0.38059735
vt 0.15990928 0.3730461
vt 0.16238599 0.37144834
vt 0.16015819 0.36933774
vt 0.16075985 0.36755744
vt 0.1640451 0.3676077
vt 0.16634738 0.36759594
vt 0.17291448 0.3674376
vt 0.17512147 0.3683947
vt 0.1761885 0.37550873
vt 0.1847627 0.372527
vt 0.18993597 0.38341144
vt 0.198804 0.38466132
vt 0.19663692 0.37086567
vt 0.20854042 0.37363952
vt 0.2099241 0.38795528
vt 0.21128312 0.38430595
vt 0.21712613 0.38253406
vt 0.22474566 0.36997634
vt 0.21033373 0.36662066
vt 0.20403734 0.36672798
vt 0.22556016 0.36863327
vt 0.21952537 0.36608726
vt 0.73911375 0.98508286
vt 0.7467919 0.98263973
vt 0.74428856 0.9737728
vt 0.7432096 0.99069387
vt 0.7392956 0.9873733
vt 0.74679196 0.99372387
vt 0.33817488 0.53812206
vt 0.34172773 0.5431953
vt 0.34172773 0.5363667
vt 0.34116757 0.53493863
vn -0.15714307 0.05102801 0.98625666
vn -0.07562675 0.15619762 0.9848263
vn 0.123997994 -0.48387596 0.86630744
vn -0.065432414 -0.75808823 0.6488612
vn -0.17728467 -0.7000745 0.6917123
vn -0.102575615 -0.2610322 0.9598648
vn 0.67362386 -0.6858316 0.27543744
vn 0.6589822 -0.4858743 0.5741679
vn 0.6402899 -0.7642889 0.076755434
vn 0.123997994 -0.48387596 0.86630744
vn -0.07562675 0.15619762 0.9848263
vn -0.14664356 0.14728448 0.97816306
vn 0.6271638 -0.7182323 0.30134383
vn 0.68093866 -0.5073469 0.5281303
vn 0.6483898 -0.6258968 0.43340948
vn 0.52443945 -0.7579103 0.3879888
vn 0.6419481 -0.6257422 0.44311327
vn 0.5502585 -0.6040636 0.57647437
vn 0.45382538 -0.76607066 0.45516825
vn 0.32518175 -0.76420003 0.55700535
vn 0.54486185 -0.5301515 0.6496653
vn -0.068026885 -0.987046 0.14530104
vn -0.17728467 -0.7000745 0.6917123
vn -0.065432414 -0.75808823 0.6488612
vn -0.05340891 -0.9974342 0.047671262
vn -0.032106396 -0.9975262 0.06253423
vn -0.099523835 -0.994689 -0.026246702
vn 0.1158494 -0.7337027 0.6695217
vn -0.13529037 -0.9867682 -0.089359395
vn 0.12479195 -0.9786204 0.16348998
vn 0.4370038 -0.77561384 0.45546785
vn 0.5546626 -0.68971163 0.4654539
vn -0.110386446 -0.9870996 -0.11597139
vn -0.2146722 -0.95036846 -0.22520131
vn 0.17539616 -0.96817344 0.1785397
vn 0.36266318 -0.87935835 0.30855215
vn 0.36437124 -0.9172915 0.16065419
vn 0.22824956 -0.97345585 -0.016907375
vn 0.15805729 -0.9690355 -0.18970536
vn 0.24048862 -0.9696758 -0.04351989
vn 0.33149472 -0.9329584 -0.14035577
vn 0.36678264 -0.9035281 -0.22160167
vn 0.28281966 -0.9070859 -0.31178215
vn 0.23878379 -0.92138076 -0.30665895
vn 0.05841347 -0.8882876 -0.4555579
vn 0.077396944 -0.83619833 -0.54293835
vn 0.05569773 -0.74964565 -0.65949166
vn -0.01666361 -0.9985347 -0.05148628
vn -0.096012 -0.95758694 -0.27167794
vn -0.0341812 -0.6411721 -0.7666355
vn 0.074406475 -0.66874266 -0.7397615
vn -0.15164982 -0.76990736 -0.619875
vn -0.27308524 -0.82352835 -0.4972177
vn -0.26420233 -0.909525 -0.32087594
vn -0.35328498 -0.7902524 -0.50069046
vn -0.37129503 -0.8585016 -0.35371605
vn -0.3299164 -0.84267545 -0.42550367
vn -0.07083432 -0.045015343 0.9964719
vn 0.123997994 -0.48387596 0.86630744
vn 0.05426316 -0.2022203 0.9778356
vn -0.11938997 0.0035401934 0.9928411
vn -0.15714307 0.05102801 0.98625666
vn 0.123997994 -0.48387596 0.86630744
vn 0.6689585 -0.6858969 0.2864262
vn 0.5531316 -0.77082574 0.31602725
vn 0.4570636 -0.41662496 0.7858222
vn 0.09027656 -0.5816704 -0.8083995
vn -0.0341812 -0.6411721 -0.7666355
vn 0.074406475 -0.66874266 -0.7397615
vn 0.03796585 -0.56887734 -0.8215456
vn 0.0957084 -0.5875873 -0.80348057
vn -0.06161816 -0.5315215 -0.8448006
vn -0.17877983 -0.52352154 -0.8330444
vn -0.113011025 -0.5141498 -0.8502226
vn -0.24698955 -0.4854338 -0.8386597
vn -0.34267333 -0.596016 -0.7261818
vn -0.15164982 -0.76990736 -0.619875
vn -0.3639757 -0.4883122 -0.7931411
vn -0.5199224 -0.5075927 -0.6870446
vn -0.31508243 -0.4737834 -0.8223456
vn -0.42473444 -0.4686514 -0.774575
vn -0.47713608 -0.4724972 -0.7410044
vn -0.5273724 -0.45571327 -0.71708
vn -0.5582875 -0.4891921 -0.6700793
vn -0.6158479 -0.52358824 -0.58871627
vn -0.5127212 -0.6005857 -0.6135258
vn -0.62247115 -0.5041479 -0.59863555
vn -0.60888493 -0.5661583 -0.5556292
vn -0.4029183 -0.69328064 -0.5975105
vn -0.27308524 -0.82352835 -0.4972177
vn -0.15164982 -0.76990736 -0.619875
vn -0.35328498 -0.7902524 -0.50069046
vn 0.4570636 -0.41662496 0.7858222
vn 0.05426316 -0.2022203 0.9778356
vn 0.123997994 -0.48387596 0.86630744
vn 0.49111372 -0.3654054 0.79075044
vn 0.49239847 -0.44332343 0.7490047
vn 0.6850256 -0.49498484 0.53453726
vn 0.44174188 -0.3105683 0.8416718
vn 0.7388942 -0.475119 0.47780463
vn 0.1158494 -0.7337027 0.6695217
vn 0.4370038 -0.77561384 0.45546785
vn 0.0172738 -0.2085369 0.97786194
vn -0.065432414 -0.75808823 0.6488612
vn -0.07083432 -0.045015343 0.9964719
vn 0.7066472 -0.47396696 0.5253617
vn 0.5546626 -0.68971163 0.4654539
vn -0.045168594 -0.11890327 0.9918779
vn -0.102575615 -0.2610322 0.9598648
vn -0.017273549 -0.017426142 0.999699
vn -0.021180186 0.002716191 0.999772
vn -0.021912323 0.0021973364 0.99975747
vn -0.11938997 0.0035401934 0.9928411
vn -0.022218056 0.0018311584 0.9997515
vn 0.6798057 -0.47209492 0.56124026
vn 0.6620657 -0.46664754 0.58643764
vn 0.6375097 -0.5550476 0.5343253
vn 0.64205074 -0.5763136 0.505602
vn 0.6771102 -0.5041245 0.5360786
vn 0.65998155 -0.5353709 0.5270696
vn 0.59264684 -0.6592392 0.4627889
vn 0.36437124 -0.9172915 0.16065419
vn 0.36266318 -0.87935835 0.30855215
vn 0.11795889 -0.35015327 0.92923534
vn -0.03216715 -0.20340994 0.97856504
vn 0.28657556 -0.29002422 0.91310483
vn 0.17990915 -0.3697675 0.9115398
vn 0.25257662 -0.47335228 0.8438855
vn 0.40413368 -0.43495795 0.8046661
vn 0.5875309 -0.42696783 0.6873907
vn 0.68093866 -0.5073469 0.5281303
vn 0.6483898 -0.6258968 0.43340948
vn 0.5531316 -0.77082574 0.31602725
vn 0.6419481 -0.6257422 0.44311327
vn 0.6689585 -0.6858969 0.2864262
vn 0.6461945 -0.6412198 0.41384774
vn 0.5502585 -0.6040636 0.57647437
vn 0.7939591 -0.38677087 0.46908134
vn 0.6610054 -0.5518399 0.50847274
vn 0.7967788 -0.40792683 0.4458018
vn 0.93192965 -0.31959546 0.17136444
vn 0.93413186 -0.25434706 0.25041008
vn 0.8417898 -0.33995706 0.41930786
vn 0.54486185 -0.5301515 0.6496653
vn 0.73189014 -0.6811666 -0.018677985
vn 0.904181 -0.38771105 0.17926753
vn 0.55147874 -0.8184592 0.161232
vn 0.6461945 -0.6412198 0.41384774
vn 0.6689585 -0.6858969 0.2864262
vn 0.56584984 -0.7917198 0.23020361
vn 0.55737025 -0.81669104 0.14951305
vn 0.6610054 -0.5518399 0.50847274
vn 0.6402899 -0.7642889 0.076755434
vn 0.904181 -0.38771105 0.17926753
vn 0.73189014 -0.6811666 -0.018677985
vn 0.67362386 -0.6858316 0.27543744
g terrainMesh.035_0
f 3/3/3 2/2/2 1/1/1
f 6/6/6 5/5/5 4/4/4
f 9/9/9 8/8/8 7/7/7
f 12/12/12 11/11/11 10/10/10
f 15/15/15 14/14/14 13/13/13
f 15/15/15 13/13/13 16/16/16
f 17/17/17 15/15/15 16/16/16
f 17/17/17 16/16/16 18/18/18
f 16/16/16 19/19/19 18/18/18
f 19/19/19 20/20/20 18/18/18
f 21/21/21 18/18/18 20/20/20
f 24/24/24 23/23/23 22/22/22
f 22/22/22 25/25/25 24/24/24
f 25/25/25 26/26/26 24/24/24
f 25/25/25 27/27/27 26/26/26
f 26/26/26 28/28/28 24/24/24
f 26/26/26 27/27/27 29/29/29
f 28/28/28 26/26/26 30/30/30
f 31/31/31 28/28/28 30/30/30
f 30/30/30 32/32/32 31/31/31
f 33/33/33 26/26/26 29/29/29
f 29/29/29 34/34/34 33/33/33
f 32/32/32 30/30/30 35/35/35
f 35/35/35 36/36/36 32/32/32
f 36/36/36 35/35/35 37/37/37
f 35/35/35 38/38/38 37/37/37
f 35/35/35 39/39/39 38/38/38
f 39/39/39 40/40/40 38/38/38
f 39/39/39 41/41/41 40/40/40
f 41/41/41 39/39/39 42/42/42
f 39/39/39 43/43/43 42/42/42
f 44/44/44 43/43/43 39/39/39
f 45/45/45 44/44/44 39/39/39
f 46/46/46 44/44/44 45/45/45
f 47/47/47 46/46/46 45/45/45
f 30/30/30 48/48/48 35/35/35
f 39/39/39 35/35/35 48/48/48
f 48/48/48 30/30/30 26/26/26
f 48/48/48 26/26/26 33/33/33
f 49/49/49 39/39/39 48/48/48
f 33/33/33 49/49/49 48/48/48
f 39/39/39 49/49/49 45/45/45
f 47/47/47 45/45/45 50/50/50
f 51/51/51 47/47/47 50/50/50
f 45/45/45 52/52/52 50/50/50
f 45/45/45 53/53/53 52/52/52
f 53/53/53 45/45/45 49/49/49
f 54/54/54 49/49/49 33/33/33
f 54/54/54 53/53/53 49/49/49
f 34/34/34 54/54/54 33/33/33
f 55/55/55 53/53/53 54/54/54
f 54/54/54 34/34/34 56/56/56
f 57/57/57 55/55/55 54/54/54
f 56/56/56 57/57/57 54/54/54
f 60/60/60 59/59/59 58/58/58
f 61/61/61 58/58/58 59/59/59
f 62/62/62 61/61/61 59/59/59
f 65/65/65 64/64/64 63/63/63
f 63/63/63 66/66/66 65/65/65
f 69/69/69 68/68/68 67/67/67
f 68/68/68 70/70/70 67/67/67
f 70/70/70 71/71/71 67/67/67
f 72/72/72 70/70/70 68/68/68
f 73/73/73 72/72/72 68/68/68
f 74/74/74 72/72/72 73/73/73
f 75/75/75 74/74/74 73/73/73
f 76/76/76 73/73/73 68/68/68
f 77/77/77 76/76/76 68/68/68
f 75/75/75 73/73/73 78/78/78
f 73/73/73 76/76/76 78/78/78
f 78/78/78 76/76/76 79/79/79
f 80/80/80 75/75/75 78/78/78
f 78/78/78 81/81/81 80/80/80
f 81/81/81 78/78/78 79/79/79
f 82/82/82 81/81/81 79/79/79
f 82/82/82 79/79/79 83/83/83
f 79/79/79 84/84/84 83/83/83
f 84/84/84 79/79/79 85/85/85
f 79/79/79 86/86/86 85/85/85
f 76/76/76 86/86/86 79/79/79
f 86/86/86 87/87/87 85/85/85
f 88/88/88 87/87/87 86/86/86
f 89/89/89 88/88/88 86/86/86
f 76/76/76 90/90/90 86/86/86
f 89/89/89 86/86/86 90/90/90
f 90/90/90 76/76/76 91/91/91
f 92/92/92 89/89/89 90/90/90
f 95/95/95 94/94/94 93/93/93
f 94/94/94 96/96/96 93/93/93
f 96/96/96 97/97/97 93/93/93
f 96/96/96 98/98/98 97/97/97
f 99/99/99 96/96/96 94/94/94
f 96/96/96 100/100/100 98/98/98
f 99/99/99 100/100/100 96/96/96
f 99/99/99 94/94/94 101/101/101
f 99/99/99 102/102/102 100/100/100
f 102/102/102 99/99/99 101/101/101
f 101/101/101 94/94/94 103/103/103
f 101/101/101 103/103/103 104/104/104
f 94/94/94 105/105/105 103/103/103
f 102/102/102 106/106/106 100/100/100
f 98/98/98 100/100/100 106/106/106
f 107/107/107 106/106/106 102/102/102
f 103/103/103 108/108/108 104/104/104
f 103/103/103 105/105/105 108/108/108
f 108/108/108 109/109/109 104/104/104
f 105/105/105 110/110/110 108/108/108
f 110/110/110 105/105/105 111/111/111
f 111/111/111 105/105/105 112/112/112
f 105/105/105 113/113/113 112/112/112
f 113/113/113 114/114/114 112/112/112
f 106/106/106 115/115/115 98/98/98
f 115/115/115 106/106/106 107/107/107
f 115/115/115 116/116/116 98/98/98
f 98/98/98 116/116/116 117/117/117
f 117/117/117 118/118/118 98/98/98
f 119/119/119 115/115/115 107/107/107
f 118/118/118 97/97/97 98/98/98
f 107/107/107 120/120/120 119/119/119
f 107/107/107 121/121/121 120/120/120
f 122/122/122 121/121/121 107/107/107
f 123/123/123 122/122/122 107/107/107
f 118/118/118 124/124/124 97/97/97
f 124/124/124 125/125/125 97/97/97
f 125/125/125 126/126/126 97/97/97
f 127/127/127 126/126/126 125/125/125
f 126/126/126 127/127/127 128/128/128
f 129/129/129 126/126/126 128/128/128
f 126/126/126 129/129/129 130/130/130
f 93/93/93 97/97/97 126/126/126
f 93/93/93 126/126/126 130/130/130
f 130/130/130 131/131/131 93/93/93
f 131/131/131 132/132/132 93/93/93
f 133/133/133 93/93/93 132/132/132
f 132/132/132 134/134/134 133/133/133
f 134/134/134 135/135/135 133/133/133
f 136/136/136 135/135/135 134/134/134
f 137/137/137 136/136/136 134/134/134
f 138/138/138 136/136/136 137/137/137
f 136/136/136 138/138/138 139/139/139
f 138/138/138 140/140/140 139/139/139
f 140/140/140 138/138/138 141/141/141
f 141/141/141 138/138/138 142/142/142
f 143/143/143 138/138/138 137/137/137
f 142/142/142 138/138/138 143/143/143
f 144/144/144 143/143/143 137/137/137
f 143/143/143 145/145/145 142/142/142
f 143/143/143 146/146/146 145/145/145
f 149/149/149 148/148/148 147/147/147
f 148/148/148 150/150/150 147/147/147
f 150/150/150 151/151/151 147/147/147
f 152/152/152 150/150/150 148/148/148
f 155/155/155 154/154/154 153/153/153
f 156/156/156 155/155/155 153/153/153
