g terrainMesh.039
v -0.0036087031 0.31402585 5.167707
v 0.05967521 0.35957333 5.065784
v 0.19328496 0.28266904 5.2237563
v 0.5802688 0.12438963 5.355314
v 0.4504642 0.21426389 5.2919517
v 0.76948154 0.16671751 5.261976
v 0.30055615 0.187088 5.3296065
v 0.37039563 0.30227658 5.1861663
v 0.19328496 0.28266904 5.2237563
v 0.16024588 0.15089415 5.341867
v -0.0036087031 0.31402585 5.167707
v -0.086114876 0.18322752 5.269132
v 0.0241699 0 5.417883
v -0.029515091 0 5.4068847
v -0.3627733 0 5.399609
v -0.54582536 0 5.3709884
v -0.6076736 0.07690429 5.2883983
v -0.20051572 0.2938232 5.117109
v -0.537466 0.19772336 5.088426
v -0.898672 0.079620354 5.2498813
v -1.0065005 0 5.390244
v -0.89504236 0 5.403002
v -0.7173529 0 5.399829
v -0.54582536 0 5.3709884
v -1.1211939 0 5.3780537
v -1.1565226 0.03219604 5.312906
v -1.1971003 0 5.3652487
v -1.2642945 0 5.3425765
v -1.1359996 0.07388305 4.933822
v -1.3146255 0 5.1985145
v -1.486945 0 5.070184
v -0.8342627 0.11250304 5.0872493
v -0.5738334 0.14871214 3.4303126
v -0.37373158 0.23614499 4.6007266
v -1.3638052 0 4.5213885
v -1.3000544 0 4.1518555
v -1.4895945 0 4.8774676
v -1.1237323 0 3.4252856
v -1.4937762 0.008926391 5.0170455
v -1.5195332 0 5.030337
v -0.1563587 0.33535764 4.7763324
v -0.20051572 0.2938232 5.117109
v -1.099655 0.002441406 3.3633533
v -1.1189171 0 3.3732567
v -1.1084714 0 3.3555512
v -1.103432 0 3.3496335
v -1.0945377 0 3.3450189
v -0.8055797 0 2.9869494
v -0.35989758 0.15145873 3.113977
v -0.7336685 0 2.8756387
v -0.57944256 0 2.7918136
v -0.33697924 0 2.7406962
v -0.26367703 0 2.7136405
v -0.046438213 0.36911008 4.972852
v 0.11947058 0.3882293 4.7074637
v -0.0036087031 0.31402585 5.167707
v 0.05967521 0.35957333 5.065784
v -0.32074735 0.24896237 3.5670962
v 0.09168815 0.3606567 4.109464
v -0.0021266935 0.2946777 3.545629
v 0.08824348 0.14929198 2.9433496
v 0.20695508 0 2.653301
v 0.37536758 0 2.7582738
v 0.48072046 0.19598386 3.10321
v 0.4650494 0 2.777237
v 0.71283346 0 2.9150355
v 0.2438545 0.25608823 3.2695174
v 0.32959363 0.31509396 3.8517623
v 0.66053766 0.3001251 4.2802176
v 0.7645358 0.15196227 3.4067264
v 0.7766849 0 3.0103345
v 0.9923083 0 3.1895723
v 1.0137277 0 3.2445648
v 0.96258533 0.13052367 3.8020644
v 1.3072871 0.1629486 4.427194
v 1.1783503 0.0033111568 3.5600162
v 1.1554022 2.3283062E-10 3.5018437
v 1.1805685 0 3.553101
v 1.2204103 9.3132246E-10 3.6047025
v 1.3524946 0 3.789494
v 1.3864992 0 3.8373945
v 0.36858365 0.37022397 4.58287
v 0.50848573 0.3370361 4.7756095
v 1.2342719 0.19277951 4.8062167
v 1.6946962 0.0060577383 4.0736938
v 1.6017377 0 3.9856913
v 1.6945964 0 4.055297
v 1.7078779 0 4.0601935
v 1.7572426 0 4.077724
v 1.8921564 0.064239495 4.428594
v 2.0937147 0 4.2436485
v 2.310901 -3.7252899E-09 4.3305864
v 2.3754976 0.043014523 4.534307
v 2.481399 0 4.3235073
v 2.7414455 2.3283062E-10 4.451081
v 2.5296881 0 4.883282
v 1.5426824 0.1529846 4.8092437
v 2.27091 0.06645202 4.806707
v 2.5291858 0 4.8945765
v 2.519405 0 4.900647
v 2.237127 0.028900143 4.9679217
v 2.2458498 7.4505797E-09 5.0086775
v 1.9933902 0 5.0907373
v 1.9548109 0.014251707 5.081781
v 2.0860898 0.07437133 4.893026
v 1.8497655 0.11221312 4.9081073
v 1.583658 0.08773803 5.1115584
v 1.0820388 0.18974301 5.0868773
v 0.8064841 0.25001523 5.0167155
v 0.551712 0.29035947 5.088247
v 0.30450055 0.34913632 4.9821944
v 0.19328496 0.28266904 5.2237563
v 0.37039563 0.30227658 5.1861663
v 1.2619799 0.08050536 5.241613
v 0.76948154 0.16671751 5.261976
v 1.469181 0.021362303 5.248819
v 1.653917 0 5.201079
v 1.565225 0 5.23787
v 1.8498715 -1.8626449E-09 5.1353498
v 1.9548109 0.014251707 5.081781
v 1.9586023 0 5.0945716
v 1.9933902 0 5.0907373
v 0.551712 0.29035947 5.088247
v 0.4504642 0.21426389 5.2919517
v 0.76948154 0.16671751 5.261976
v 0.8064841 0.25001523 5.0167155
v 1.469181 0.021362303 5.248819
v 1.565225 0 5.23787
v 1.451474 0 5.2628284
v 1.2619799 0.08050536 5.241613
v 1.3017443 0 5.281283
v 1.0057389 0 5.3488765
v 0.9867152 0.0061187735 5.3495154
v 0.9913657 0 5.351021
v 0.76948154 0.16671751 5.261976
v 0.979254 0 5.352082
v 0.6999931 0.04154968 5.3808
v 0.5802688 0.12438963 5.355314
v 0.41116136 0.023330687 5.405803
v 0.4504642 0.21426389 5.2919517
v 0.71208197 0 5.3894496
v 0.30055615 0.187088 5.3296065
v 0.45222232 0 5.408189
v 0.39704794 0 5.4134226
v 0.16024588 0.15089415 5.341867
v 0.2639571 0 5.4176693
v 0.0241699 0 5.417883
vt 0.99370223 0.4364921
vt 0.9933192 0.43678215
vt 0.9939798 0.43726283
vt 0.99459493 0.43876
vt 0.9943176 0.4382679
vt 0.99428284 0.43955317
vt 0.9944202 0.43765107
vt 0.99388415 0.43798804
vt 0.9939798 0.43726283
vt 0.9944221 0.43707937
vt 0.99370223 0.4364921
vt 0.99406314 0.43611494
vt 0.9946618 0.43649217
vt 0.99460185 0.43627974
vt 0.9944748 0.43494278
vt 0.9943061 0.43421578
vt 0.99396926 0.43400094
vt 0.99343777 0.43571362
vt 0.9932073 0.43435696
vt 0.9937296 0.43284345
vt 0.99424815 0.43235892
vt 0.9943321 0.43280298
vt 0.99437153 0.43351793
vt 0.9943061 0.43421578
vt 0.99416554 0.4319017
vt 0.9938989 0.43178296
vt 0.99409175 0.43160048
vt 0.993981 0.4313373
vt 0.9923896 0.43198356
vt 0.9933877 0.43117806
vt 0.99282163 0.43052396
vt 0.99310094 0.4331547
vt 0.9865292 0.43470046
vt 0.99130327 0.4351651
vt 0.9906538 0.43118274
vt 0.98918843 0.4315493
vt 0.9920469 0.4305709
vt 0.9863223 0.4324749
vt 0.9926078 0.43051344
vt 0.9926521 0.43040493
vt 0.99208915 0.43599772
vt 0.99343777 0.43571362
vt 0.986081 0.43259043
vt 0.9861147 0.43250975
vt 0.9860467 0.43255705
vt 0.9860244 0.43257907
vt 0.98600847 0.4326162
vt 0.98465526 0.43388426
vt 0.985322 0.43565494
vt 0.9842293 0.4342065
vt 0.98393804 0.43485126
vt 0.98380387 0.4358408
vt 0.9837168 0.43614343
vt 0.9929164 0.43638465
vt 0.9919026 0.43713284
vt 0.99370223 0.4364921
vt 0.9933192 0.43678215
vt 0.9871698 0.43568832
vt 0.9894881 0.43719664
vt 0.98718494 0.4369804
vt 0.984768 0.43750644
vt 0.98361266 0.43805262
vt 0.98408365 0.438698
vt 0.9855332 0.43904123
vt 0.9841861 0.4390527
vt 0.9848124 0.4400072
vt 0.98614174 0.43804678
vt 0.98851526 0.43822426
vt 0.99033064 0.43942434
vt 0.98682797 0.44008583
vt 0.9852139 0.4402353
vt 0.98599696 0.44104818
vt 0.9862241 0.4411178
vt 0.98847026 0.44076103
vt 0.99108756 0.44196317
vt 0.9875399 0.44168547
vt 0.98729897 0.44161025
vt 0.98751223 0.44169608
vt 0.9877311 0.44184074
vt 0.9885121 0.4423163
vt 0.98871446 0.4424386
vt 0.9914723 0.43816897
vt 0.9922818 0.43866965
vt 0.99259335 0.44156003
vt 0.989755 0.44360715
vt 0.9893732 0.4432592
vt 0.98968005 0.44361153
vt 0.9897036 0.44366345
vt 0.9897885 0.44385657
vt 0.99124813 0.44430137
vt 0.9905537 0.44515902
vt 0.99096656 0.44600576
vt 0.99181104 0.44620952
vt 0.99098825 0.446693
vt 0.99157697 0.4476998
vt 0.9932506 0.4467198
vt 0.9926893 0.44279376
vt 0.9928783 0.4457106
vt 0.9932957 0.44671437
vt 0.99331725 0.44667327
vt 0.9935095 0.4455223
vt 0.9936708 0.4455418
vt 0.9939263 0.44450283
vt 0.99388134 0.44435215
vt 0.99317205 0.4449431
vt 0.9931696 0.4439934
vt 0.9939044 0.44286045
vt 0.9936753 0.44086412
vt 0.99332285 0.43978488
vt 0.99354213 0.4387445
vt 0.9930536 0.43778968
vt 0.9939798 0.43726283
vt 0.99388415 0.43798804
vt 0.994331 0.44152814
vt 0.99428284 0.43955317
vt 0.99441075 0.44235167
vt 0.99426967 0.44310573
vt 0.9943914 0.44273835
vt 0.9940632 0.4439128
vt 0.99388134 0.44435215
vt 0.9939314 0.44436187
vt 0.9939263 0.44450283
vt 0.99354213 0.4387445
vt 0.9943176 0.4382679
vt 0.99428284 0.43955317
vt 0.99332285 0.43978488
vt 0.9115309 0.4012515
vt 0.91166115 0.40094566
vt 0.911408 0.40127543
vt 0.9113343 0.40187317
vt 0.9110942 0.4016774
vt 0.9104319 0.40254143
vt 0.91041434 0.402603
vt 0.9104012 0.40258086
vt 0.9106385 0.40330714
vt 0.9103764 0.4026124
vt 0.90993476 0.4034466
vt 0.91000915 0.40387213
vt 0.9092841 0.40415576
vt 0.9101381 0.40425402
vt 0.9098105 0.40333956
vt 0.90970916 0.40463564
vt 0.9092838 0.40400752
vt 0.90917027 0.40415215
vt 0.9093034 0.4049164
vt 0.9089077 0.40448236
vt 0.9084447 0.40506074
vn -0.13388667 0.83039033 0.540857
vn -0.0017090695 0.96519697 0.26151815
vn -0.012329638 0.8291071 0.55895376
vn 0.10293984 0.56038576 0.82180965
vn 0.11871882 0.73080736 0.6721804
vn 0.1837235 0.7967253 0.5757382
vn 0.0092474455 0.5999548 0.79998046
vn 0.10565728 0.90681535 0.4080715
vn -0.012329638 0.8291071 0.55895376
vn -0.08142542 0.5635384 0.82206714
vn -0.13388667 0.83039033 0.540857
vn -0.13513742 0.65917635 0.73974615
vn -0.11783256 0.5294988 0.84008723
vn -0.10632798 0.5763196 0.81027776
vn -0.09122162 0.6653777 0.7409124
vn -0.03540254 0.7180307 0.69511056
vn -0.06427345 0.8126959 0.5791324
vn -0.24437007 0.89144564 0.381586
vn -0.26866195 0.9422243 0.20008497
vn -0.123540565 0.9445299 0.3043041
vn -0.05050824 0.8848555 0.46311936
vn -0.043856196 0.8770019 0.4784812
vn 0.034425724 0.8063799 0.59039503
vn -0.03540254 0.7180307 0.69511056
vn -0.059054222 0.8818458 0.46782538
vn -0.15412119 0.9471282 0.28141615
vn -0.121498734 0.88473415 0.44998175
vn -0.23218961 0.95366204 0.191355
vn -0.17771026 0.98361707 0.03027453
vn -0.21030904 0.96914285 0.12857813
vn -0.15436508 0.97093135 0.18293086
vn -0.2243744 0.9729706 0.054628696
vn -0.27506718 0.9544493 -0.11560574
vn -0.31590274 0.94767773 -0.045961693
vn -0.22785625 0.9724939 -0.048342396
vn -0.2434492 0.96885276 -0.045351073
vn -0.20340754 0.97669184 -0.06854513
vn -0.24921888 0.9666617 -0.05877977
vn -0.2417102 0.96912974 0.04861671
vn -0.28663227 0.9542303 0.085361
vn -0.2990588 0.95372874 -0.03106867
vn -0.24437007 0.89144564 0.381586
vn -0.20096703 0.9734311 -0.109746
vn -0.1417896 0.9893839 -0.03186146
vn -0.16550657 0.97897 -0.119269714
vn -0.106358096 0.98359114 -0.14572737
vn -0.20301354 0.96159804 -0.18470201
vn -0.26011342 0.94825584 -0.18207635
vn -0.17896181 0.9485221 -0.26130137
vn -0.23230815 0.9437289 -0.23539053
vn -0.13443485 0.92889756 -0.34507486
vn -0.11585078 0.9178947 -0.37953648
vn -0.119573735 0.9061418 -0.40572053
vn -0.19123442 0.97500247 0.113135315
vn -0.032624707 0.9994636 0.002868777
vn -0.13388667 0.83039033 0.540857
vn -0.0017090695 0.96519697 0.26151815
vn -0.2382656 0.9679254 -0.07968636
vn -0.09027611 0.9935866 -0.068088576
vn -0.085208826 0.9883858 -0.12582952
vn -0.019074418 0.9209129 -0.38930127
vn 0.10358281 0.9009629 -0.4213507
vn 0.15079623 0.87059575 -0.46831983
vn 0.23261777 0.9150893 -0.32939428
vn 0.17505525 0.84005773 -0.5134771
vn 0.37981707 0.83404106 -0.40014315
vn 0.029329136 0.9784823 -0.20423579
vn 0.123939216 0.98644745 -0.107519776
vn 0.21162175 0.97350883 -0.08658363
vn 0.3584201 0.9142399 -0.18894577
vn 0.4082942 0.8564778 -0.3158191
vn 0.35069972 0.8992574 -0.26143014
vn 0.41323185 0.89433867 -0.17145763
vn 0.32091334 0.9315491 -0.17097066
vn 0.19986904 0.9710235 -0.13101813
vn 0.36354852 0.901272 -0.23567174
vn 0.34154287 0.9210457 -0.1871451
vn 0.45973927 0.84937626 -0.25922897
vn 0.30650273 0.9261308 -0.21985917
vn 0.30366436 0.92796165 -0.21604422
vn 0.26007998 0.9391201 -0.22452576
vn 0.12680586 0.9918629 -0.0113224955
vn 0.1762162 0.98246485 0.06091575
vn 0.16047034 0.98665756 0.027497865
vn 0.15088819 0.95205444 -0.26612964
vn 0.16907476 0.9548452 -0.24430387
vn 0.18809037 0.9325778 -0.30809218
vn 0.11273831 0.943016 -0.31306702
vn 0.108404905 0.96752596 -0.22834615
vn 0.11295169 0.9756999 -0.18775432
vn 0.09906398 0.9685136 -0.22840258
vn 0.05606281 0.97314906 -0.22324413
vn 0.106724255 0.99039614 -0.08789414
vn 0.043672305 0.9829473 -0.17862613
vn 0.109075315 0.9934582 -0.03381518
vn 0.2176041 0.97573924 0.024110412
vn 0.13333657 0.990243 0.040498428
vn 0.12290117 0.99007624 0.068149574
vn 0.21152921 0.9708797 0.11246359
vn 0.16199857 0.94846076 0.2723578
vn 0.16925637 0.8969734 0.40840045
vn 0.19279198 0.8194193 0.53979915
vn 0.16206004 0.80096114 0.576366
vn 0.18097892 0.81666356 0.54800296
vn 0.13669655 0.9685648 0.20783736
vn 0.15045817 0.9689446 0.19623655
vn 0.18482403 0.89289916 0.41057432
vn 0.16751938 0.94661117 0.27543494
vn 0.1839984 0.9597887 0.21201476
vn 0.2026782 0.9432884 0.26292318
vn 0.11139573 0.98223567 0.15100989
vn -0.012329638 0.8291071 0.55895376
vn 0.10565728 0.90681535 0.4080715
vn 0.1699298 0.72861063 0.6635136
vn 0.1837235 0.7967253 0.5757382
vn 0.19468465 0.6294977 0.7522171
vn 0.21759942 0.77697945 0.5907228
vn 0.23786832 0.758438 0.606787
vn 0.20441577 0.76941264 0.60515976
vn 0.18097892 0.81666356 0.54800296
vn 0.16733548 0.6828008 0.7111834
vn 0.16206004 0.80096114 0.576366
vn 0.2026782 0.9432884 0.26292318
vn 0.11871882 0.73080736 0.6721804
vn 0.1837235 0.7967253 0.5757382
vn 0.1839984 0.9597887 0.21201476
vn 0.19468465 0.6294977 0.7522171
vn 0.23786832 0.758438 0.606787
vn 0.13153747 0.46508107 0.8754413
vn 0.1699298 0.72861063 0.6635136
vn 0.14072552 0.49267665 0.8587584
vn 0.18644242 0.490903 0.85103077
vn 0.13538386 0.46020135 0.87743145
vn 0.12195485 0.32356486 0.9383138
vn 0.1837235 0.7967253 0.5757382
vn 0.123265006 0.252237 0.9597824
vn 0.14054304 0.41229016 0.90014696
vn 0.10293984 0.56038576 0.82180965
vn 0.04446586 0.36509618 0.92990726
vn 0.11871882 0.73080736 0.6721804
vn 0.10757888 0.23252298 0.96662295
vn 0.0092474455 0.5999548 0.79998046
vn 0.07370407 0.22898619 0.9706353
vn 0.05035606 0.28236014 0.9579859
vn -0.08142542 0.5635384 0.82206714
vn 0.0023499748 0.44149008 0.8972631
vn -0.11783256 0.5294988 0.84008723
g terrainMesh.039_0
f 3/3/3 2/2/2 1/1/1
f 6/6/6 5/5/5 4/4/4
f 5/5/5 8/8/8 7/7/7
f 8/8/8 9/9/9 7/7/7
f 7/7/7 9/9/9 10/10/10
f 11/11/11 10/10/10 9/9/9
f 12/12/12 10/10/10 11/11/11
f 10/10/10 12/12/12 13/13/13
f 12/12/12 14/14/14 13/13/13
f 12/12/12 15/15/15 14/14/14
f 16/16/16 15/15/15 12/12/12
f 17/17/17 16/16/16 12/12/12
f 18/18/18 12/12/12 11/11/11
f 18/18/18 17/17/17 12/12/12
f 18/18/18 19/19/19 17/17/17
f 19/19/19 20/20/20 17/17/17
f 20/20/20 21/21/21 17/17/17
f 21/21/21 22/22/22 17/17/17
f 23/23/23 17/17/17 22/22/22
f 24/24/24 17/17/17 23/23/23
f 25/25/25 21/21/21 20/20/20
f 26/26/26 25/25/25 20/20/20
f 25/25/25 26/26/26 27/27/27
f 26/26/26 28/28/28 27/27/27
f 26/26/26 20/20/20 29/29/29
f 29/29/29 30/30/30 26/26/26
f 30/30/30 28/28/28 26/26/26
f 31/31/31 30/30/30 29/29/29
f 32/32/32 20/20/20 19/19/19
f 20/20/20 32/32/32 29/29/29
f 32/32/32 33/33/33 29/29/29
f 32/32/32 34/34/34 33/33/33
f 32/32/32 19/19/19 34/34/34
f 29/29/29 33/33/33 35/35/35
f 33/33/33 36/36/36 35/35/35
f 29/29/29 35/35/35 37/37/37
f 38/38/38 36/36/36 33/33/33
f 39/39/39 31/31/31 29/29/29
f 39/39/39 29/29/29 37/37/37
f 31/31/31 39/39/39 40/40/40
f 39/39/39 37/37/37 40/40/40
f 41/41/41 34/34/34 19/19/19
f 19/19/19 42/42/42 41/41/41
f 43/43/43 38/38/38 33/33/33
f 44/44/44 38/38/38 43/43/43
f 45/45/45 44/44/44 43/43/43
f 46/46/46 45/45/45 43/43/43
f 46/46/46 43/43/43 47/47/47
f 48/48/48 47/47/47 43/43/43
f 33/33/33 48/48/48 43/43/43
f 48/48/48 33/33/33 49/49/49
f 50/50/50 48/48/48 49/49/49
f 50/50/50 49/49/49 51/51/51
f 52/52/52 51/51/51 49/49/49
f 53/53/53 52/52/52 49/49/49
f 54/54/54 41/41/41 42/42/42
f 41/41/41 54/54/54 55/55/55
f 54/54/54 42/42/42 56/56/56
f 57/57/57 54/54/54 56/56/56
f 54/54/54 57/57/57 55/55/55
f 58/58/58 49/49/49 33/33/33
f 58/58/58 33/33/33 34/34/34
f 41/41/41 59/59/59 34/34/34
f 59/59/59 41/41/41 55/55/55
f 58/58/58 34/34/34 60/60/60
f 60/60/60 34/34/34 59/59/59
f 58/58/58 60/60/60 49/49/49
f 61/61/61 53/53/53 49/49/49
f 61/61/61 62/62/62 53/53/53
f 62/62/62 61/61/61 63/63/63
f 63/63/63 61/61/61 64/64/64
f 65/65/65 63/63/63 64/64/64
f 65/65/65 64/64/64 66/66/66
f 61/61/61 49/49/49 67/67/67
f 60/60/60 67/67/67 49/49/49
f 64/64/64 61/61/61 67/67/67
f 59/59/59 68/68/68 60/60/60
f 68/68/68 67/67/67 60/60/60
f 55/55/55 68/68/68 59/59/59
f 67/67/67 68/68/68 64/64/64
f 64/64/64 68/68/68 69/69/69
f 66/66/66 64/64/64 70/70/70
f 70/70/70 64/64/64 69/69/69
f 71/71/71 66/66/66 70/70/70
f 70/70/70 72/72/72 71/71/71
f 73/73/73 72/72/72 70/70/70
f 74/74/74 73/73/73 70/70/70
f 74/74/74 70/70/70 69/69/69
f 75/75/75 74/74/74 69/69/69
f 73/73/73 74/74/74 76/76/76
f 77/77/77 73/73/73 76/76/76
f 76/76/76 78/78/78 77/77/77
f 79/79/79 78/78/78 76/76/76
f 80/80/80 79/79/79 76/76/76
f 74/74/74 80/80/80 76/76/76
f 80/80/80 74/74/74 75/75/75
f 81/81/81 80/80/80 75/75/75
f 68/68/68 82/82/82 69/69/69
f 82/82/82 68/68/68 55/55/55
f 83/83/83 69/69/69 82/82/82
f 82/82/82 55/55/55 83/83/83
f 75/75/75 69/69/69 84/84/84
f 84/84/84 69/69/69 83/83/83
f 81/81/81 75/75/75 85/85/85
f 86/86/86 81/81/81 85/85/85
f 85/85/85 87/87/87 86/86/86
f 87/87/87 85/85/85 88/88/88
f 88/88/88 85/85/85 89/89/89
f 85/85/85 90/90/90 89/89/89
f 90/90/90 85/85/85 75/75/75
f 90/90/90 91/91/91 89/89/89
f 92/92/92 91/91/91 90/90/90
f 93/93/93 92/92/92 90/90/90
f 92/92/92 93/93/93 94/94/94
f 94/94/94 93/93/93 95/95/95
f 93/93/93 96/96/96 95/95/95
f 90/90/90 75/75/75 97/97/97
f 97/97/97 75/75/75 84/84/84
f 93/93/93 90/90/90 97/97/97
f 96/96/96 93/93/93 98/98/98
f 99/99/99 96/96/96 98/98/98
f 100/100/100 99/99/99 98/98/98
f 101/101/101 100/100/100 98/98/98
f 102/102/102 100/100/100 101/101/101
f 103/103/103 102/102/102 101/101/101
f 104/104/104 103/103/103 101/101/101
f 105/105/105 101/101/101 98/98/98
f 98/98/98 93/93/93 105/105/105
f 104/104/104 101/101/101 105/105/105
f 105/105/105 93/93/93 106/106/106
f 104/104/104 105/105/105 106/106/106
f 97/97/97 106/106/106 93/93/93
f 107/107/107 104/104/104 106/106/106
f 106/106/106 97/97/97 107/107/107
f 97/97/97 84/84/84 108/108/108
f 97/97/97 108/108/108 107/107/107
f 108/108/108 84/84/84 109/109/109
f 83/83/83 109/109/109 84/84/84
f 109/109/109 83/83/83 110/110/110
f 111/111/111 110/110/110 83/83/83
f 55/55/55 111/111/111 83/83/83
f 111/111/111 55/55/55 57/57/57
f 112/112/112 111/111/111 57/57/57
f 113/113/113 111/111/111 112/112/112
f 113/113/113 110/110/110 111/111/111
f 114/114/114 107/107/107 108/108/108
f 115/115/115 114/114/114 108/108/108
f 116/116/116 107/107/107 114/114/114
f 107/107/107 116/116/116 117/117/117
f 116/116/116 118/118/118 117/117/117
f 107/107/107 117/117/117 119/119/119
f 120/120/120 107/107/107 119/119/119
f 119/119/119 121/121/121 120/120/120
f 122/122/122 120/120/120 121/121/121
f 113/113/113 124/124/124 123/123/123
f 125/125/125 110/110/110 124/124/124
f 126/126/126 125/125/125 108/108/108
f 110/110/110 125/125/125 126/126/126
f 129/129/129 128/128/128 127/127/127
f 127/127/127 130/130/130 129/129/129
f 130/130/130 131/131/131 129/129/129
f 132/132/132 131/131/131 130/130/130
f 133/133/133 132/132/132 130/130/130
f 132/132/132 133/133/133 134/134/134
f 133/133/133 130/130/130 135/135/135
f 133/133/133 136/136/136 134/134/134
f 137/137/137 133/133/133 135/135/135
f 133/133/133 137/137/137 136/136/136
f 138/138/138 137/137/137 135/135/135
f 139/139/139 137/137/137 138/138/138
f 138/138/138 140/140/140 139/139/139
f 137/137/137 141/141/141 136/136/136
f 137/137/137 139/139/139 141/141/141
f 139/139/139 140/140/140 142/142/142
f 139/139/139 143/143/143 141/141/141
f 144/144/144 143/143/143 139/139/139
f 139/139/139 142/142/142 145/145/145
f 144/144/144 139/139/139 146/146/146
f 146/146/146 139/139/139 145/145/145
f 147/147/147 146/146/146 145/145/145
