g terrainMesh.062
v -5.5755553 19.999998 14.826372
v -4.9999995 22.011112 14.6923065
v -4.9999995 19.999998 14.276274
v -5.955931 21.387556 15.476963
v -6.1011596 19.999998 15.415999
v -6.699064 19.999998 15.873189
v -4.9999995 22.626316 14.851302
v -7.8220644 19.999998 16.504084
v -5.347011 23.028852 15.298672
v -4.9999995 23.149416 15.163075
v -4.9999995 23.535023 15.414016
v -4.9999995 24.473888 15.904972
v -9.118905 20.832304 17.394196
v -8.945335 19.999998 17.204308
v -9.412112 19.999998 17.511673
v -11.773907 19.999998 19.14731
v -6.7506437 23.050673 16.247284
v -5.765655 24.481213 16.23832
v -4.9999995 25.258533 16.58515
v -9.215069 22.268003 17.801338
v -12.065156 19.999998 19.361029
v -9.769178 23.545729 18.64032
v -12.153179 19.999998 19.431034
v -12.558862 19.999998 19.719858
v -6.1775217 25.421566 17.026009
v -4.9999995 25.590624 16.82331
v -5.786821 26.85455 17.706688
v -4.9999995 26.039818 17.067316
v -4.9999995 26.823 17.517754
v -7.1461983 24.349545 16.996334
v -8.52927 24.24104 17.953735
v -8.844993 26.43629 19.061127
v -7.3197317 25.56303 17.734573
v -13.437909 20.435057 20.456928
v -13.257282 22.42256 21.365265
v -13.444191 19.999998 20.339159
v -13.925407 19.999998 20.593916
v -14.5989685 20.826384 21.709255
v -14.757522 19.999998 21.309496
v -14.999998 19.999998 21.724512
v -14.999998 20.103767 21.808786
v -13.780275 23.645872 22.754036
v -14.999998 20.77543 22.43233
v -14.037064 26.095272 24.86115
v -14.999998 22.480852 23.646925
v -14.999998 23.273312 24.251192
v -14.999998 24.583055 25.409521
v -14.999998 24.726696 25.572865
v -12.3406315 29.999996 25.30586
v -14.999998 26.264294 26.77207
v -12.187109 29.999996 24.944263
v -10.276771 29.999996 22.118353
v -10.133173 29.999996 21.90821
v -10.076266 29.999996 21.83614
v -9.903173 29.999996 21.661781
v -14.494936 29.495892 28.46066
v -14.067566 29.999996 28.149979
v -14.211281 29.999996 28.37541
v -14.318699 29.999996 28.716091
v -14.999998 29.304806 29.292454
v -14.600035 29.999996 29.56728
v -14.999998 29.999996 30.485725
v -9.735636 26.590939 19.83958
v -9.098926 29.851025 20.862343
v -9.335399 29.999996 21.148949
v -8.928784 29.999996 20.803347
v -8.102041 29.999996 20.175714
v -7.228166 29.999996 19.653618
v -6.7914124 29.999996 19.385088
v -6.386964 29.999996 19.236017
v -5.646658 29.999996 18.903902
v -5.012256 29.999996 18.761503
v -4.9999995 29.973421 18.748371
v -4.9999995 29.999996 18.758175
vt 0.11617871 0.24692991
vt 0.1139522 0.23879777
vt 0.112976596 0.24698399
vt 0.11896803 0.24124616
vt 0.11932927 0.24686024
vt 0.12235932 0.24683072
vt 0.11433292 0.2362862
vt 0.12745951 0.24682838
vt 0.11654293 0.23460755
vt 0.115114704 0.23410949
vt 0.11574576 0.2325
vt 0.11697092 0.2286092
vt 0.1337254 0.24344026
vt 0.13274036 0.24680991
vt 0.13497733 0.24679843
vt 0.14650458 0.2467215
vt 0.12333169 0.23447953
vt 0.120196745 0.2286007
vt 0.11869483 0.22529465
vt 0.13500416 0.23758298
vt 0.14795727 0.24670923
vt 0.13882367 0.23231949
vt 0.14841034 0.24670427
vt 0.15041079 0.2466892
vt 0.12346185 0.22468783
vt 0.1192955 0.22390339
vt 0.123948626 0.21871504
vt 0.11990529 0.22203974
vt 0.121033356 0.2187846
vt 0.1264278 0.22913152
vt 0.13318264 0.22952302
vt 0.13691586 0.22047573
vt 0.12881547 0.22410086
vt 0.15501155 0.24488077
vt 0.15670823 0.23665154
vt 0.15474784 0.24665894
vt 0.15689288 0.24666157
vt 0.1618209 0.24316448
vt 0.16131555 0.24660203
vt 0.16313994 0.24653652
vt 0.1633532 0.2460995
vt 0.16186067 0.23147479
vt 0.16493604 0.24325258
vt 0.16799223 0.22116467
vt 0.16799876 0.23610988
vt 0.16952538 0.23278157
vt 0.17246252 0.22724348
vt 0.17287885 0.22662766
vt 0.16371235 0.20513661
vt 0.1759103 0.22016357
vt 0.16230088 0.20520112
vt 0.14907861 0.20561352
vt 0.14809063 0.205644
vt 0.14772816 0.20565347
vt 0.146742 0.20567179
vt 0.17856617 0.20670663
vt 0.17641617 0.20469633
vt 0.17744419 0.20466231
vt 0.1786592 0.20459676
vt 0.18229139 0.20734647
vt 0.18173485 0.20443465
vt 0.18535084 0.20427215
vt 0.14167419 0.21978702
vt 0.14219545 0.2063537
vt 0.14366056 0.20571817
vt 0.14150998 0.20574632
vt 0.13733199 0.20578608
vt 0.13328241 0.20579517
vt 0.13123877 0.20580147
vt 0.12960464 0.20578411
vt 0.1264598 0.20576614
vt 0.12413374 0.2057176
vt 0.12406324 0.20582597
vt 0.1240873 0.20571679
vn 0.7043591 -0.13376689 0.697126
vn 0.6885173 -0.16764297 0.7055776
vn 0.68332726 -0.14789656 0.7149758
vn 0.61612093 -0.12430457 0.777781
vn 0.674349 -0.10269662 0.7312365
vn 0.52896106 -0.041231614 0.8476439
vn 0.6517415 -0.23835643 0.7200134
vn 0.5205626 -0.07022421 0.85093075
vn 0.5285261 -0.32359174 0.7848238
vn 0.45818883 -0.47076288 0.7539531
vn 0.37883827 -0.44466877 0.811635
vn 0.3375405 -0.5169009 0.78668916
vn 0.5573169 -0.13172224 0.8197848
vn 0.53588355 -0.07999037 0.84049404
vn 0.56003076 -0.08090689 0.82451177
vn 0.5804129 -0.17746876 0.79474884
vn 0.53748226 -0.2329873 0.8104504
vn 0.39164704 -0.46608225 0.7933347
vn 0.24042809 -0.5830641 0.77603525
vn 0.5813652 -0.22224273 0.78270215
vn 0.6002715 -0.22690624 0.766934
vn 0.60672665 -0.27498025 0.74583423
vn 0.5797165 -0.21446 0.7860888
vn 0.5667194 -0.20631287 0.79766166
vn 0.3525234 -0.4808247 0.80282927
vn 0.21677907 -0.5174864 0.82777685
vn 0.27443 -0.4068535 0.871297
vn 0.2083859 -0.47127926 0.8570129
vn 0.19446647 -0.42995033 0.88166064
vn 0.51226586 -0.35222286 0.783277
vn 0.5613332 -0.29865748 0.77182174
vn 0.54721427 -0.33144155 0.7685721
vn 0.46352476 -0.3860672 0.7975568
vn 0.57913655 -0.3128241 0.75282264
vn 0.6640331 -0.36906666 0.65026903
vn 0.5114937 -0.23139289 0.8275455
vn 0.55828273 -0.3960136 0.72903603
vn 0.7270261 -0.40517166 0.55431855
vn 0.6843973 -0.41970268 0.59619623
vn 0.7989898 -0.37910813 0.46678945
vn 0.8041802 -0.3837786 0.45388114
vn 0.74414366 -0.37425393 0.5533392
vn 0.80368036 -0.391708 0.447954
vn 0.80802286 -0.38945383 0.4420687
vn 0.75892216 -0.3798731 0.52889854
vn 0.7942619 -0.37443987 0.47847983
vn 0.8325705 -0.3861015 0.39718008
vn 0.8291749 -0.39827493 0.39223215
vn 0.8225323 -0.39403784 0.41009116
vn 0.795763 -0.37346596 0.47674367
vn 0.80356914 -0.39024836 0.44942498
vn 0.76718706 -0.37150797 0.5228823
vn 0.74837476 -0.35494468 0.5603121
vn 0.70069504 -0.33333296 0.6308056
vn 0.65576863 -0.33055472 0.6787497
vn 0.817857 -0.4076467 0.40612072
vn 0.79105073 -0.37068292 0.48665488
vn 0.8215378 -0.39228973 0.4137445
vn 0.85451376 -0.43923575 0.2772691
vn 0.7881918 -0.49572518 0.36470574
vn 0.77247417 -0.54702806 0.32255852
vn 0.7562902 -0.56530255 0.32933
vn 0.6277771 -0.32041964 0.70938504
vn 0.5966569 -0.3637013 0.7153474
vn 0.6252214 -0.3497834 0.6976746
vn 0.57302785 -0.36357483 0.73447424
vn 0.5239017 -0.35183144 0.77572006
vn 0.4857785 -0.353324 0.79948825
vn 0.41038564 -0.36045694 0.83764815
vn 0.3470064 -0.35570446 0.86779076
vn 0.29991686 -0.35097626 0.8870544
vn 0.21928157 -0.3491109 0.9110638
vn 0.21012673 -0.3535073 0.9115258
vn 0.24705221 -0.33540502 0.9091033
g terrainMesh.062_0
f 3/3/3 2/2/2 1/1/1
f 2/2/2 4/4/4 1/1/1
f 5/5/5 1/1/1 4/4/4
f 4/4/4 6/6/6 5/5/5
f 4/4/4 2/2/2 7/7/7
f 6/6/6 4/4/4 8/8/8
f 9/9/9 4/4/4 7/7/7
f 7/7/7 10/10/10 9/9/9
f 10/10/10 11/11/11 9/9/9
f 11/11/11 12/12/12 9/9/9
f 4/4/4 13/13/13 8/8/8
f 13/13/13 14/14/14 8/8/8
f 15/15/15 14/14/14 13/13/13
f 16/16/16 15/15/15 13/13/13
f 9/9/9 17/17/17 4/4/4
f 13/13/13 4/4/4 17/17/17
f 12/12/12 18/18/18 9/9/9
f 9/9/9 18/18/18 17/17/17
f 18/18/18 12/12/12 19/19/19
f 13/13/13 20/20/20 16/16/16
f 20/20/20 13/13/13 17/17/17
f 20/20/20 21/21/21 16/16/16
f 21/21/21 20/20/20 22/22/22
f 23/23/23 21/21/21 22/22/22
f 24/24/24 23/23/23 22/22/22
f 18/18/18 19/19/19 25/25/25
f 19/19/19 26/26/26 25/25/25
f 25/25/25 26/26/26 27/27/27
f 26/26/26 28/28/28 27/27/27
f 29/29/29 27/27/27 28/28/28
f 18/18/18 30/30/30 17/17/17
f 25/25/25 30/30/30 18/18/18
f 17/17/17 31/31/31 20/20/20
f 30/30/30 31/31/31 17/17/17
f 20/20/20 31/31/31 22/22/22
f 32/32/32 22/22/22 31/31/31
f 30/30/30 25/25/25 33/33/33
f 31/31/31 30/30/30 33/33/33
f 27/27/27 33/33/33 25/25/25
f 31/31/31 33/33/33 32/32/32
f 34/34/34 24/24/24 22/22/22
f 22/22/22 35/35/35 34/34/34
f 36/36/36 24/24/24 34/34/34
f 34/34/34 37/37/37 36/36/36
f 34/34/34 38/38/38 37/37/37
f 38/38/38 34/34/34 35/35/35
f 38/38/38 39/39/39 37/37/37
f 39/39/39 38/38/38 40/40/40
f 38/38/38 41/41/41 40/40/40
f 38/38/38 42/42/42 41/41/41
f 35/35/35 42/42/42 38/38/38
f 42/42/42 43/43/43 41/41/41
f 43/43/43 42/42/42 44/44/44
f 45/45/45 43/43/43 44/44/44
f 45/45/45 44/44/44 46/46/46
f 47/47/47 46/46/46 44/44/44
f 48/48/48 47/47/47 44/44/44
f 44/44/44 49/49/49 48/48/48
f 50/50/50 48/48/48 49/49/49
f 44/44/44 51/51/51 49/49/49
f 51/51/51 44/44/44 52/52/52
f 52/52/52 44/44/44 42/42/42
f 53/53/53 52/52/52 42/42/42
f 53/53/53 42/42/42 35/35/35
f 54/54/54 53/53/53 35/35/35
f 55/55/55 54/54/54 35/35/35
f 49/49/49 56/56/56 50/50/50
f 49/49/49 57/57/57 56/56/56
f 57/57/57 58/58/58 56/56/56
f 58/58/58 59/59/59 56/56/56
f 60/60/60 50/50/50 56/56/56
f 61/61/61 56/56/56 59/59/59
f 56/56/56 61/61/61 60/60/60
f 61/61/61 62/62/62 60/60/60
f 63/63/63 55/55/55 35/35/35
f 22/22/22 63/63/63 35/35/35
f 63/63/63 22/22/22 32/32/32
f 55/55/55 63/63/63 64/64/64
f 32/32/32 64/64/64 63/63/63
f 65/65/65 55/55/55 64/64/64
f 65/65/65 64/64/64 66/66/66
f 64/64/64 32/32/32 66/66/66
f 32/32/32 67/67/67 66/66/66
f 67/67/67 32/32/32 68/68/68
f 68/68/68 32/32/32 33/33/33
f 69/69/69 68/68/68 33/33/33
f 69/69/69 33/33/33 27/27/27
f 70/70/70 69/69/69 27/27/27
f 71/71/71 70/70/70 27/27/27
f 72/72/72 71/71/71 27/27/27
f 72/72/72 27/27/27 29/29/29
f 29/29/29 73/73/73 72/72/72
f 74/74/74 72/72/72 73/73/73
