g terrainMesh.038
v -31.638391 78.44564 49.606865
v -34.097286 71.88326 48.944122
v -37.747528 75.406334 48.063156
v -24.999996 74.3538 45.789593
v -24.999996 76.84012 50.25658
v -31.638391 78.44564 49.606865
v -24.999996 61.501694 37.346397
v -24.999996 64.806244 39.576546
v -29.14328 62.6697 39.271275
v -24.999996 69.34831 42.105316
v -28.230991 69.754875 43.021214
v -24.999996 72.3813 44.40497
v -31.638391 78.44564 49.606865
v -24.999996 74.3538 45.789593
v -37.747528 75.406334 48.063156
v -35.243008 68.26403 42.319927
v -42.394688 64.04485 45.326153
v -46.4661 73.743004 48.154854
v -46.66869 64.84658 48.61612
v -24.999996 59.909267 49.761143
v -24.999996 58.6802 49.185856
v -26.360691 58.204796 49.41188
v -24.999996 57.118828 49.000725
v -25.850399 51.098015 49.17888
v -24.999996 51.29195 48.932182
v -24.999996 49.189274 48.724255
v -29.612465 46.42944 49.89341
v -24.999996 41.133797 47.312313
v -39.249268 58.89608 49.397713
v -33.54847 61.879875 48.09939
v -30.520084 29.999996 47.338947
v -29.378721 29.999996 46.68374
v -24.999996 32.243988 44.803402
v -24.999996 29.999996 44.512062
v -30.849813 29.999996 47.457108
v -33.505363 39.053585 50.23243
v -31.115837 29.999996 47.571312
v -35.02662 29.999996 48.70684
v -39.502453 30.852352 50.19165
v -39.29188 29.999996 50.02591
v -46.44334 33.441555 49.062424
v -44.65881 41.29806 50.516846
v -38.06358 44.85217 51.598053
v -42.283306 51.594658 51.253998
v -48.292957 49.055046 52.089043
v -47.57802 59.113487 49.41294
v -46.66869 64.84658 48.61612
v -39.59708 68.85854 48.762962
v -46.4661 73.743004 48.154854
v -37.747528 75.406334 48.063156
v -34.097286 71.88326 48.944122
v -24.999996 76.37125 50.228928
v -24.999996 75.65795 50.1649
v -24.999996 76.84012 50.25658
v -31.638391 78.44564 49.606865
v -40.504654 29.999996 49.715862
v -46.13926 29.999996 48.263073
v -46.44334 33.441555 49.062424
v -39.502453 30.852352 50.19165
v -39.29188 29.999996 50.02591
v -24.999996 67.64861 49.895046
v -33.54847 61.879875 48.09939
v -24.999996 75.65795 50.1649
v -24.999996 62.939972 49.888416
v -26.360691 58.204796 49.41188
v -25.850399 51.098015 49.17888
v -24.999996 59.909267 49.761143
vt 0.31145942 0.96079755
vt 0.2955688 0.981428
vt 0.31485787 0.981428
vt 0.8549111 0.24835081
vt 0.84975255 0.266007
vt 0.8759604 0.27076143
vt 0.42843342 0.34541023
vt 0.43337 0.3584665
vt 0.44659615 0.35032323
vt 0.43894994 0.37647355
vt 0.4518102 0.37834042
vt 0.44404858 0.388428
vt 0.47781366 0.41294736
vt 0.4471153 0.39621526
vt 0.49485627 0.4015123
vt 0.4737322 0.37313974
vt 0.50451005 0.35653982
vt 0.524274 0.3957027
vt 0.52618474 0.35983488
vt 0.2646527 0.08076527
vt 0.26322377 0.085842974
vt 0.26803136 0.087877795
vt 0.26282394 0.09216638
vt 0.26621902 0.11645178
vt 0.2629462 0.11561965
vt 0.26251513 0.12412566
vt 0.2799163 0.13554825
vt 0.25926748 0.15685603
vt 0.30771154 0.08676092
vt 0.28660706 0.07432743
vt 0.2769357 0.20234418
vt 0.27171576 0.20234984
vt 0.25321737 0.19319797
vt 0.25257722 0.20229182
vt 0.27825916 0.20235913
vt 0.29318246 0.16563848
vt 0.2793759 0.20236678
vt 0.29438347 0.20260598
vt 0.31199595 0.19940816
vt 0.3109605 0.20284808
vt 0.3303415 0.19015096
vt 0.32820553 0.1579811
vt 0.31048518 0.14258394
vt 0.32226056 0.11608754
vt 0.34309313 0.12688217
vt 0.33342844 0.086955875
vt 0.3282617 0.06396433
vt 0.30662483 0.04688185
vt 0.32598224 0.02826182
vt 0.2987678 0.020469658
vt 0.28997582 0.03396488
vt 0.26501837 0.014441585
vt 0.26488903 0.017325565
vt 0.26506597 0.012549198
vt 0.28377298 0.0070979777
vt 0.9562279 0.8229376
vt 0.9735489 0.8264202
vt 0.9765619 0.8124507
vt 0.9536618 0.8188119
vt 0.9525078 0.82219213
vt 0.95370936 0.7405882
vt 0.93408865 0.7162546
vt 0.9465567 0.7716882
vt 0.9583931 0.7224902
vt 0.9584831 0.7037201
vt 0.96602774 0.67613125
vt 0.96102047 0.7106914
vn -0.23358999 0.9179715 0.32056823
vn -0.108738095 -0.024018213 0.9937802
vn -0.30055106 0.93009686 0.21116093
vn -0.010956374 0.6725199 -0.7399978
vn 0.123144746 0.765054 0.63208205
vn -0.23358999 0.9179715 0.32056823
vn -0.22172208 0.5454699 -0.8082709
vn -0.19736668 0.503015 -0.8414407
vn -0.1934608 0.42781726 -0.8829186
vn -0.16898663 0.5295749 -0.8312605
vn -0.104437225 0.5434275 -0.83293414
vn -0.12439816 0.5779814 -0.80651265
vn -0.23358999 0.9179715 0.32056823
vn -0.010956374 0.6725199 -0.7399978
vn -0.30055106 0.93009686 0.21116093
vn -0.23338383 0.35027412 -0.9071053
vn -0.48466745 0.042634618 -0.8736588
vn -0.76373833 0.63003457 0.14057058
vn -0.4593083 0.09582911 0.8830927
vn -0.09558599 -0.12598304 0.9874166
vn 0.25459155 -0.29011592 0.9225052
vn -0.02655189 -0.090154335 0.99557376
vn 0.2588338 -0.041048393 0.96504927
vn 0.18955305 -0.009521904 0.98182434
vn 0.28825346 -0.047426775 0.95637894
vn 0.3096803 -0.117865905 0.94350713
vn 0.23643209 -0.0329302 0.97108984
vn 0.35893282 -0.17575835 0.91666573
vn 0.0852398 0.20246361 0.975573
vn -0.023683095 0.04403957 0.998749
vn 0.39018518 -0.19129297 0.9006456
vn 0.47814083 -0.22068274 0.8501062
vn 0.46835423 -0.19105288 0.86263734
vn 0.44133648 -0.115514725 0.8898755
vn 0.36143565 -0.16333729 0.9179788
vn 0.21293393 -0.14420421 0.9663666
vn 0.3437947 -0.18012218 0.9216079
vn 0.2742161 -0.19901651 0.94084966
vn -0.017823229 -0.11801785 0.9928515
vn 0.0676296 -0.17429271 0.98236877
vn -0.13886045 -0.13507612 0.98105675
vn -0.008728466 -0.1502761 0.98860556
vn 0.0478544 -0.04168948 0.99798393
vn 0.07812958 0.13230146 0.98812556
vn 0.119971655 0.04220829 0.99187964
vn 0.01083425 0.19599311 0.9805454
vn -0.4593083 0.09582911 0.8830927
vn -0.0158089 0.008758985 0.9998367
vn -0.76373833 0.63003457 0.14057058
vn -0.30055106 0.93009686 0.21116093
vn -0.108738095 -0.024018213 0.9937802
vn -0.1059013 -0.06924786 0.9919625
vn -0.111850806 -0.07907379 0.99057394
vn 0.123144746 0.765054 0.63208205
vn -0.23358999 0.9179715 0.32056823
vn -0.2419236 -0.24027559 0.9400748
vn -0.2423847 -0.23976006 0.9400877
vn -0.13886045 -0.13507612 0.98105675
vn -0.017823229 -0.11801785 0.9928515
vn 0.0676296 -0.17429271 0.98236877
vn -0.19050245 -0.023133747 0.98141414
vn -0.023683095 0.04403957 0.998749
vn -0.111850806 -0.07907379 0.99057394
vn -0.20246556 -0.019654479 0.9790922
vn -0.02655189 -0.090154335 0.99557376
vn 0.18955305 -0.009521904 0.98182434
vn -0.09558599 -0.12598304 0.9874166
g terrainMesh.038_0
f 3/3/3 2/2/2 1/1/1
f 6/6/6 5/5/5 4/4/4
f 9/9/9 8/8/8 7/7/7
f 10/10/10 8/8/8 9/9/9
f 11/11/11 10/10/10 9/9/9
f 10/10/10 11/11/11 12/12/12
f 12/12/12 11/11/11 13/13/13
f 14/14/14 12/12/12 13/13/13
f 13/13/13 11/11/11 15/15/15
f 16/16/16 11/11/11 9/9/9
f 16/16/16 15/15/15 11/11/11
f 9/9/9 17/17/17 16/16/16
f 18/18/18 15/15/15 16/16/16
f 18/18/18 16/16/16 17/17/17
f 18/18/18 17/17/17 19/19/19
f 22/22/22 21/21/21 20/20/20
f 23/23/23 21/21/21 22/22/22
f 22/22/22 24/24/24 23/23/23
f 24/24/24 25/25/25 23/23/23
f 26/26/26 25/25/25 24/24/24
f 27/27/27 26/26/26 24/24/24
f 28/28/28 26/26/26 27/27/27
f 29/29/29 27/27/27 24/24/24
f 30/30/30 29/29/29 24/24/24
f 27/27/27 31/31/31 28/28/28
f 31/31/31 32/32/32 28/28/28
f 32/32/32 33/33/33 28/28/28
f 34/34/34 33/33/33 32/32/32
f 27/27/27 35/35/35 31/31/31
f 27/27/27 36/36/36 35/35/35
f 36/36/36 37/37/37 35/35/35
f 38/38/38 37/37/37 36/36/36
f 39/39/39 38/38/38 36/36/36
f 40/40/40 38/38/38 39/39/39
f 39/39/39 36/36/36 41/41/41
f 42/42/42 41/41/41 36/36/36
f 43/43/43 36/36/36 27/27/27
f 43/43/43 42/42/42 36/36/36
f 27/27/27 44/44/44 43/43/43
f 43/43/43 44/44/44 42/42/42
f 45/45/45 42/42/42 44/44/44
f 45/45/45 44/44/44 46/46/46
f 44/44/44 27/27/27 29/29/29
f 44/44/44 29/29/29 46/46/46
f 29/29/29 47/47/47 46/46/46
f 29/29/29 30/30/30 47/47/47
f 47/47/47 30/30/30 48/48/48
f 49/49/49 47/47/47 48/48/48
f 50/50/50 49/49/49 48/48/48
f 50/50/50 48/48/48 51/51/51
f 30/30/30 51/51/51 48/48/48
f 51/51/51 30/30/30 52/52/52
f 30/30/30 53/53/53 52/52/52
f 51/51/51 52/52/52 54/54/54
f 55/55/55 51/51/51 54/54/54
f 58/58/58 57/57/57 56/56/56
f 59/59/59 58/58/58 56/56/56
f 60/60/60 59/59/59 56/56/56
f 63/63/63 62/62/62 61/61/61
f 61/61/61 62/62/62 64/64/64
f 64/64/64 62/62/62 65/65/65
f 66/66/66 65/65/65 62/62/62
f 67/67/67 64/64/64 65/65/65
