g TeruteruMesh
v -0.16755147 0.29020742 0.04738923
v -1.4719575E-07 0.33510262 0.04738923
v -1.9380506E-07 -5.0875364E-08 0.11634381
v -0.2902076 0.50265396 -0.20672932
v -1.3221069E-07 0.5804149 -0.20672932
v -0.33510283 0.5804149 -0.5538617
v -1.4559052E-07 0.6702053 -0.5538617
v -0.2902076 0.50265396 -0.90099406
v -1.5094244E-07 0.58041483 -0.90099406
v -0.22912969 0.39686397 -1.0513544
v -1.6904518E-07 0.45825902 -1.0513544
v -1.7594249E-07 0.3016515 -1.1082819
v -0.15082593 0.26123786 -1.1082819
v -0.39686415 0.22912952 -1.0513544
v -0.26123804 0.15082575 -1.1082819
v -0.50265414 0.29020745 -0.90099406
v -0.4582592 -6.790017E-10 -1.0513544
v -0.3016517 9.852071E-10 -1.1082819
v -0.58041507 0.33510265 -0.5538617
v -0.58041507 -7.8715956E-10 -0.90099406
v -0.39686412 -0.2291295 -1.0513544
v -0.261238 -0.15082572 -1.1082819
v -0.50265414 0.29020745 -0.20672932
v -0.67020553 7.240737E-09 -0.5538617
v -0.22912966 -0.39686394 -1.0513544
v -0.1508259 -0.26123783 -1.1082819
v -0.50265414 -0.29020742 -0.90099406
v -0.29020756 0.1675513 0.04738923
v -1.9380506E-07 -5.0875364E-08 0.11634381
v -0.3351028 -4.8011084E-09 0.04738935
v -0.58041507 1.8888062E-09 -0.20672932
v -1.6904518E-07 -0.458259 -1.0513544
v -1.7594249E-07 -0.30165148 -1.1082819
v -0.29020762 -0.50265396 -0.90099406
v -0.580415 -0.33510262 -0.5538617
v -0.50265414 -0.2902074 -0.20672932
v 0.22912933 -0.39686394 -1.0513544
v 0.15082557 -0.26123783 -1.1082819
v -1.9108192E-07 -0.5804149 -0.90099406
v -0.3351029 -0.58041483 -0.5538617
v -0.29020756 -0.16755128 0.04738935
v -1.9380506E-07 -5.0875364E-08 0.11634381
v 0.39686376 -0.2291295 -1.0513544
v 0.26123765 -0.15082572 -1.1082819
v 0.29020724 -0.50265396 -0.90099406
v -2.0178578E-07 -0.67020535 -0.5538617
v -0.29020762 -0.50265396 -0.20672932
v 0.45825884 1.2068911E-08 -1.0513544
v 0.30165133 9.37659E-09 -1.1082819
v 0.50265384 -0.29020745 -0.90099406
v -0.16755152 -0.29020733 0.04738923
v 0.33510247 -0.5804149 -0.5538617
v -1.9375788E-07 -0.5804149 -0.20672932
v 0.3968638 0.22912952 -1.0513544
v 0.26123768 0.15082575 -1.1082819
v -2.1409488E-07 -0.33510262 0.04738923
v 0.5804147 -3.0579105E-08 -0.90099406
v 0.5804147 -0.3351027 -0.5538617
v 0.29020727 -0.502654 -0.20672932
v 0.22912934 0.39686397 -1.0513544
v 0.15082557 0.26123786 -1.1082819
v 0.50265384 0.29020742 -0.90099406
v 0.1675511 -0.29020742 0.04738923
v -1.9380506E-07 -5.0875364E-08 0.11634381
v 0.6702052 -3.3255066E-08 -0.5538617
v 0.50265384 -0.29020745 -0.20672932
v -1.6904518E-07 0.45825902 -1.0513544
v -1.7594249E-07 0.3016515 -1.1082819
v 0.29020727 0.50265396 -0.90099406
v -1.5094244E-07 0.58041483 -0.90099406
v 0.29020718 -0.16755135 0.04738923
v 0.33510244 -4.6334616E-08 0.04738923
v 0.5804147 -2.2551207E-08 -0.20672932
v 0.5804147 0.33510265 -0.5538617
v 0.33510253 0.58041483 -0.5538617
v -1.4559052E-07 0.6702053 -0.5538617
v 0.50265384 0.29020742 -0.20672932
v 0.2902073 0.50265396 -0.20672932
v -1.3221069E-07 0.5804149 -0.20672932
v 0.29020724 0.16755128 0.04738923
v -1.9380506E-07 -5.0875364E-08 0.11634381
v 0.16755117 0.29020736 0.04738935
v -1.4719575E-07 0.33510262 0.04738923
v -1.7594249E-07 -0.30165148 -1.1082819
v 0.28615612 -0.5819934 -3.0407534
v -0.09469561 -0.6596547 -3.6115975
v -0.1508259 -0.26123783 -1.1082819
v -0.3734985 -0.5394196 -3.9287333
v -0.261238 -0.15082572 -1.1082819
v -0.4755475 -2.781348E-08 -4.457293
v -0.3016517 9.852071E-10 -1.1082819
v -0.3734986 0.52884847 -3.971018
v -0.26123804 0.15082575 -1.1082819
v -0.09469569 0.65965456 -3.6115975
v -0.15082593 0.26123786 -1.1082819
v 0.28615612 0.63484925 -3.0618956
v -1.7594249E-07 0.3016515 -1.1082819
v -0.1508259 -0.26123783 -1.1082819
v -0.051228516 -0.7976766 -2.9406638
v -0.32687733 -0.65413636 -2.4689946
v -1.7594249E-07 -0.30165148 -1.1082819
v 0.15082557 -0.26123783 -1.1082819
v 0.38494968 -0.80729216 -3.5390494
v 0.57055265 -0.42021596 -3.1628304
v 0.26123765 -0.15082572 -1.1082819
v 0.30165133 9.37659E-09 -1.1082819
v 0.54538345 -0.12373065 -2.3934138
v -0.15082593 0.26123786 -1.1082819
v -0.26123804 0.15082575 -1.1082819
v -0.3857164 0.1110519 -3.4186363
v -0.21567617 0.2210665 -3.79402
v -1.7594249E-07 0.3016515 -1.1082819
v -0.030268895 0.3580874 -3.9658787
v 0.15082557 0.26123786 -1.1082819
v 0.25392577 0.31181392 -4.21126
v 0.26123768 0.15082575 -1.1082819
v 0.4272463 0.16216168 -3.8001962
v 0.4592108 -0.10853088 -3.396941
v 0.30165133 9.37659E-09 -1.1082819
v 0.4210671 -0.35922867 -3.181236
v 0.26123765 -0.15082572 -1.1082819
vt 0.21048425 0.5491729
vt 0.21048425 0.58726484
vt 0.41859567 0.45726132
vt 0.1402581 0.54917294
vt 0.1402581 0.5872649
vt 0.08955543 0.54917294
vt 0.08955543 0.58726484
vt 0.044759054 0.54917276
vt 0.04475895 0.58726484
vt 0.021298947 0.54917276
vt 0.021298895 0.58726484
vt 0.00015710616 0.58726484
vt 0.00015713225 0.5491728
vt 0.021298947 0.51108086
vt 0.00015713225 0.51108086
vt 0.044759054 0.51108086
vt 0.021298947 0.4729888
vt 0.00015713225 0.4729889
vt 0.08955543 0.51108086
vt 0.044759054 0.4729888
vt 0.021298947 0.4348969
vt 0.00015713225 0.4348968
vt 0.1402581 0.51108086
vt 0.08955543 0.4729888
vt 0.021298947 0.3968048
vt 0.00015713225 0.39680493
vt 0.044759054 0.4348969
vt 0.21048425 0.51108086
vt 0.41859567 0.45726132
vt 0.2104843 0.47298884
vt 0.14025815 0.4729888
vt 0.021298947 0.3587128
vt 0.00015713225 0.35871282
vt 0.044759054 0.3968048
vt 0.08955543 0.4348969
vt 0.14025815 0.4348969
vt 0.021298947 0.32062075
vt 0.00015713225 0.32062083
vt 0.044759054 0.3587128
vt 0.08955543 0.3968048
vt 0.2104843 0.4348969
vt 0.41859567 0.45726132
vt 0.02129879 0.28252876
vt 0.00015705395 0.28252882
vt 0.044759028 0.32062075
vt 0.08955548 0.3587128
vt 0.14025815 0.3968048
vt 0.02129879 0.24443686
vt 0.00015705395 0.24443676
vt 0.044759028 0.28252876
vt 0.21048425 0.39680487
vt 0.08955548 0.32062075
vt 0.14025821 0.3587128
vt 0.021298816 0.20634465
vt 0.00015708005 0.2063447
vt 0.2104843 0.35871282
vt 0.044759028 0.24443686
vt 0.08955548 0.28252876
vt 0.14025815 0.32062075
vt 0.021298816 0.16825269
vt 0.00015708005 0.16825269
vt 0.044759054 0.20634465
vt 0.2104843 0.3206208
vt 0.41859567 0.45726132
vt 0.08955548 0.24443686
vt 0.14025815 0.28252876
vt 0.021298947 0.13016064
vt 0.00015715836 0.13016064
vt 0.044759054 0.16825269
vt 0.044759 0.13016064
vt 0.2104843 0.28252876
vt 0.2104843 0.24443676
vt 0.14025815 0.24443686
vt 0.08955548 0.20634465
vt 0.08955548 0.16825269
vt 0.08955548 0.13016064
vt 0.14025815 0.20634465
vt 0.14025815 0.16825269
vt 0.14025815 0.13016069
vt 0.2104843 0.2063447
vt 0.41859567 0.00015705395
vt 0.21048436 0.16825269
vt 0.2104843 0.13016064
vt 0.6155032 0.00015705395
vt 0.4189098 0.26640078
vt 0.42948174 0.38173097
vt 0.6389866 0.011741609
vt 0.45391026 0.45118725
vt 0.6632243 0.021651594
vt 0.51284343 0.5645862
vt 0.68798316 0.030176306
vt 0.6236394 0.51426387
vt 0.71298355 0.03796435
vt 0.6870104 0.46647197
vt 0.73836654 0.04439683
vt 0.76411885 0.38493273
vt 0.7641189 0.049139176
vt 0.7790829 0.9392214
vt 0.8155385 0.6205766
vt 0.7644331 0.70033216
vt 0.80526567 0.9388722
vt 0.8312434 0.9421645
vt 0.89821553 0.52791023
vt 0.9482941 0.609488
vt 0.8566111 0.9486564
vt 0.8811868 0.9576955
vt 0.948294 0.7478291
vt 0.9736905 0.5153714
vt 0.99984294 0.51405716
vt 0.99984294 0.12599747
vt 0.96259147 0.064935945
vt 0.9475407 0.5167279
vt 0.92256176 0.038047973
vt 0.9214148 0.5184934
vt 0.8716774 0.00015705395
vt 0.8953225 0.5207026
vt 0.83892006 0.071944945
vt 0.8015759 0.14452542
vt 0.8693052 0.5236638
vt 0.7644331 0.1862063
vt 0.84341687 0.5275962
vn -0.25898424 0.4485988 0.8553866
vn -0 0.5179966 0.8553827
vn -0 0 1
vn -0.4409397 0.76374 0.4714588
vn -0 0.8818862 0.47146243
vn -0.49998927 0.8660316 0
vn -0 1 0
vn -0.4496706 0.77885133 -0.4372493
vn -0 0.89934057 -0.437249
vn -0.3039079 0.5263912 -0.79407316
vn -0 0.6078182 -0.79407626
vn -0.106421255 0.8798446 -0.4631934
vn -0.44839215 0.8147175 -0.36766812
vn -0.5263912 0.3039079 -0.79407316
vn -0.70991296 0.5180067 -0.4771717
vn -0.77885133 0.4496706 -0.4372493
vn -0.6078182 0 -0.79407626
vn -0.8038532 0.0017396117 -0.59482515
vn -0.8660316 0.49998927 0
vn -0.89934057 0 -0.437249
vn -0.5263912 -0.3039079 -0.79407316
vn -0.6925415 -0.4029754 -0.5983287
vn -0.76374 0.4409397 0.4714588
vn -1 0 0
vn -0.3039079 -0.5263912 -0.79407316
vn -0.30180207 -0.8655485 -0.39967644
vn -0.77885133 -0.4496706 -0.4372493
vn -0.4485988 0.25898424 0.8553866
vn -0 0 1
vn -0.5179966 0 0.8553827
vn -0.8818862 0 0.47146243
vn -0 -0.6078182 -0.79407626
vn 0.024690142 -0.9338306 -0.35686255
vn -0.4496706 -0.77885133 -0.4372493
vn -0.8660316 -0.49998927 0
vn -0.76374 -0.4409397 0.4714588
vn 0.3039079 -0.5263912 -0.79407316
vn 0.46716085 -0.70707405 -0.5308549
vn -0 -0.89934057 -0.437249
vn -0.49998927 -0.8660316 0
vn -0.4485988 -0.25898424 0.8553866
vn -0 0 1
vn 0.5263912 -0.3039079 -0.79407316
vn 0.8345847 -0.37474823 -0.40377223
vn 0.4496706 -0.77885133 -0.4372493
vn -0 -1 0
vn -0.4409397 -0.76374 0.4714588
vn 0.6078182 0 -0.79407626
vn 0.89180046 -0.06534153 -0.44768557
vn 0.77885133 -0.4496706 -0.4372493
vn -0.25898424 -0.4485988 0.8553866
vn 0.49998927 -0.8660316 0
vn -0 -0.8818862 0.47146243
vn 0.5263912 0.3039079 -0.79407316
vn 0.6790177 0.4113354 -0.60806096
vn -0 -0.5179966 0.8553827
vn 0.89934057 0 -0.437249
vn 0.8660316 -0.49998927 0
vn 0.4409397 -0.76374 0.4714588
vn 0.3039079 0.5263912 -0.79407316
vn 0.36018506 0.70550734 -0.6103491
vn 0.77885133 0.4496706 -0.4372493
vn 0.25898424 -0.4485988 0.8553866
vn -0 0 1
vn 1 0 0
vn 0.76374 -0.4409397 0.4714588
vn -0 0.6078182 -0.79407626
vn -0.106421255 0.8798446 -0.4631934
vn 0.4496706 0.77885133 -0.4372493
vn -0 0.89934057 -0.437249
vn 0.4485988 -0.25898424 0.8553866
vn 0.5179966 0 0.8553827
vn 0.8818862 0 0.47146243
vn 0.8660316 0.49998927 0
vn 0.49998927 0.8660316 0
vn -0 1 0
vn 0.76374 0.4409397 0.4714588
vn 0.4409397 0.76374 0.4714588
vn -0 0.8818862 0.47146243
vn 0.4485988 0.25898424 0.8553866
vn -0 0 1
vn 0.25898424 0.4485988 0.8553866
vn -0 0.5179966 0.8553827
vn 0.024690142 -0.9338306 -0.35686255
vn -0.085788704 -0.9858225 0.14420193
vn -0.48709595 -0.863283 0.13221176
vn -0.30180207 -0.8655485 -0.39967644
vn -0.93291944 -0.35137075 0.07874025
vn -0.6925415 -0.4029754 -0.5983287
vn -0.9983885 0.006286851 0.05639855
vn -0.8038532 0.0017396117 -0.59482515
vn -0.936506 0.34233162 0.075931266
vn -0.70991296 0.5180067 -0.4771717
vn -0.5201433 0.8443821 0.12833436
vn -0.44839215 0.8147175 -0.36766812
vn -0.1794224 0.97289115 0.1459123
vn -0.106421255 0.8798446 -0.4631934
vn -0.30180207 -0.8655485 -0.39967644
vn 0.22245356 -0.94282585 0.24818112
vn -0.10935003 -0.9555539 0.27378708
vn 0.024690142 -0.9338306 -0.35686255
vn 0.46716085 -0.70707405 -0.5308549
vn 0.5792467 -0.7824104 0.22870785
vn 0.7836633 -0.5869387 0.20340821
vn 0.8345847 -0.37474823 -0.40377223
vn 0.89180046 -0.06534153 -0.44768557
vn 0.9109252 -0.36427242 0.19370286
vn -0.44839215 0.8147175 -0.36766812
vn -0.70991296 0.5180067 -0.4771717
vn -0.60926336 0.7929 0.010376674
vn -0.4920008 0.8705311 0.01052914
vn -0.106421255 0.8798446 -0.4631934
vn 0.012482087 0.99975723 0.018158538
vn 0.36018506 0.70550734 -0.6103491
vn 0.3863101 0.92194986 0.027802853
vn 0.6790177 0.4113354 -0.60806096
vn 0.7290935 0.6830407 0.04333666
vn 0.9898353 0.12595353 0.06604395
vn 0.89180046 -0.06534153 -0.44768557
vn 0.98546916 -0.14847654 0.082493745
vn 0.8345847 -0.37474823 -0.40377223
g TeruteruMesh_0
f 3/3/3 2/2/2 1/1/1
f 1/1/1 2/2/2 4/4/4
f 2/2/2 5/5/5 4/4/4
f 4/4/4 5/5/5 6/6/6
f 5/5/5 7/7/7 6/6/6
f 6/6/6 7/7/7 8/8/8
f 7/7/7 9/9/9 8/8/8
f 8/8/8 9/9/9 10/10/10
f 9/9/9 11/11/11 10/10/10
f 11/11/11 12/12/12 10/10/10
f 12/12/12 13/13/13 10/10/10
f 10/10/10 13/13/13 14/14/14
f 8/8/8 10/10/10 14/14/14
f 13/13/13 15/15/15 14/14/14
f 6/6/6 8/8/8 16/16/16
f 16/16/16 8/8/8 14/14/14
f 14/14/14 15/15/15 17/17/17
f 16/16/16 14/14/14 17/17/17
f 15/15/15 18/18/18 17/17/17
f 4/4/4 6/6/6 19/19/19
f 19/19/19 6/6/6 16/16/16
f 20/20/20 16/16/16 17/17/17
f 19/19/19 16/16/16 20/20/20
f 17/17/17 18/18/18 21/21/21
f 20/20/20 17/17/17 21/21/21
f 18/18/18 22/22/22 21/21/21
f 23/23/23 4/4/4 19/19/19
f 1/1/1 4/4/4 23/23/23
f 24/24/24 19/19/19 20/20/20
f 23/23/23 19/19/19 24/24/24
f 21/21/21 22/22/22 25/25/25
f 22/22/22 26/26/26 25/25/25
f 27/27/27 20/20/20 21/21/21
f 24/24/24 20/20/20 27/27/27
f 27/27/27 21/21/21 25/25/25
f 28/28/28 1/1/1 23/23/23
f 29/29/29 1/1/1 28/28/28
f 29/29/29 28/28/28 30/30/30
f 28/28/28 23/23/23 31/31/31
f 31/31/31 23/23/23 24/24/24
f 30/30/30 28/28/28 31/31/31
f 25/25/25 26/26/26 32/32/32
f 26/26/26 33/33/33 32/32/32
f 34/34/34 27/27/27 25/25/25
f 34/34/34 25/25/25 32/32/32
f 35/35/35 24/24/24 27/27/27
f 31/31/31 24/24/24 35/35/35
f 35/35/35 27/27/27 34/34/34
f 30/30/30 31/31/31 36/36/36
f 36/36/36 31/31/31 35/35/35
f 32/32/32 33/33/33 37/37/37
f 33/33/33 38/38/38 37/37/37
f 39/39/39 34/34/34 32/32/32
f 39/39/39 32/32/32 37/37/37
f 40/40/40 35/35/35 34/34/34
f 36/36/36 35/35/35 40/40/40
f 40/40/40 34/34/34 39/39/39
f 41/41/41 30/30/30 36/36/36
f 42/42/42 30/30/30 41/41/41
f 37/37/37 38/38/38 43/43/43
f 38/38/38 44/44/44 43/43/43
f 45/45/45 39/39/39 37/37/37
f 45/45/45 37/37/37 43/43/43
f 46/46/46 40/40/40 39/39/39
f 46/46/46 39/39/39 45/45/45
f 47/47/47 36/36/36 40/40/40
f 41/41/41 36/36/36 47/47/47
f 47/47/47 40/40/40 46/46/46
f 43/43/43 44/44/44 48/48/48
f 44/44/44 49/49/49 48/48/48
f 50/50/50 45/45/45 43/43/43
f 50/50/50 43/43/43 48/48/48
f 51/51/51 41/41/41 47/47/47
f 42/42/42 41/41/41 51/51/51
f 52/52/52 46/46/46 45/45/45
f 52/52/52 45/45/45 50/50/50
f 53/53/53 47/47/47 46/46/46
f 51/51/51 47/47/47 53/53/53
f 53/53/53 46/46/46 52/52/52
f 48/48/48 49/49/49 54/54/54
f 49/49/49 55/55/55 54/54/54
f 42/42/42 51/51/51 56/56/56
f 56/56/56 51/51/51 53/53/53
f 57/57/57 50/50/50 48/48/48
f 57/57/57 48/48/48 54/54/54
f 58/58/58 52/52/52 50/50/50
f 58/58/58 50/50/50 57/57/57
f 59/59/59 53/53/53 52/52/52
f 56/56/56 53/53/53 59/59/59
f 59/59/59 52/52/52 58/58/58
f 54/54/54 55/55/55 60/60/60
f 55/55/55 61/61/61 60/60/60
f 62/62/62 57/57/57 54/54/54
f 62/62/62 54/54/54 60/60/60
f 63/63/63 56/56/56 59/59/59
f 64/64/64 56/56/56 63/63/63
f 65/65/65 58/58/58 57/57/57
f 65/65/65 57/57/57 62/62/62
f 66/66/66 59/59/59 58/58/58
f 63/63/63 59/59/59 66/66/66
f 66/66/66 58/58/58 65/65/65
f 60/60/60 61/61/61 67/67/67
f 61/61/61 68/68/68 67/67/67
f 69/69/69 60/60/60 67/67/67
f 69/69/69 62/62/62 60/60/60
f 70/70/70 69/69/69 67/67/67
f 71/71/71 63/63/63 66/66/66
f 42/42/42 63/63/63 71/71/71
f 42/42/42 71/71/71 72/72/72
f 71/71/71 66/66/66 73/73/73
f 73/73/73 66/66/66 65/65/65
f 72/72/72 71/71/71 73/73/73
f 74/74/74 65/65/65 62/62/62
f 74/74/74 62/62/62 69/69/69
f 73/73/73 65/65/65 74/74/74
f 75/75/75 69/69/69 70/70/70
f 75/75/75 74/74/74 69/69/69
f 76/76/76 75/75/75 70/70/70
f 77/77/77 73/73/73 74/74/74
f 72/72/72 73/73/73 77/77/77
f 77/77/77 74/74/74 75/75/75
f 78/78/78 75/75/75 76/76/76
f 78/78/78 77/77/77 75/75/75
f 79/79/79 78/78/78 76/76/76
f 80/80/80 72/72/72 77/77/77
f 80/80/80 77/77/77 78/78/78
f 81/81/81 72/72/72 80/80/80
f 82/82/82 78/78/78 79/79/79
f 82/82/82 80/80/80 78/78/78
f 81/81/81 80/80/80 82/82/82
f 83/83/83 82/82/82 79/79/79
f 81/81/81 82/82/82 83/83/83
f 86/86/86 85/85/85 84/84/84
f 87/87/87 86/86/86 84/84/84
f 88/88/88 86/86/86 87/87/87
f 89/89/89 88/88/88 87/87/87
f 90/90/90 88/88/88 89/89/89
f 91/91/91 90/90/90 89/89/89
f 92/92/92 90/90/90 91/91/91
f 93/93/93 92/92/92 91/91/91
f 94/94/94 92/92/92 93/93/93
f 95/95/95 94/94/94 93/93/93
f 96/96/96 94/94/94 95/95/95
f 97/97/97 96/96/96 95/95/95
f 100/100/100 99/99/99 98/98/98
f 99/99/99 101/101/101 98/98/98
f 101/101/101 99/99/99 102/102/102
f 99/99/99 103/103/103 102/102/102
f 103/103/103 104/104/104 102/102/102
f 104/104/104 105/105/105 102/102/102
f 105/105/105 104/104/104 106/106/106
f 104/104/104 107/107/107 106/106/106
f 110/110/110 109/109/109 108/108/108
f 111/111/111 110/110/110 108/108/108
f 111/111/111 108/108/108 112/112/112
f 113/113/113 111/111/111 112/112/112
f 113/113/113 112/112/112 114/114/114
f 115/115/115 113/113/113 114/114/114
f 115/115/115 114/114/114 116/116/116
f 117/117/117 115/115/115 116/116/116
f 118/118/118 117/117/117 116/116/116
f 119/119/119 118/118/118 116/116/116
f 118/118/118 119/119/119 120/120/120
f 119/119/119 121/121/121 120/120/120
