g Tile_Mid_03
v 3.741288 -3.801109 -0.09211117
v 3.5819254 -3.694866 0.13855901
v 3.5819223 -0.067357905 0.13855906
v 3.741288 0.0388922 -0.09211111
v -2.0187094 -3.8011105 -0.092111185
v -1.8593392 -0.067357905 0.13855901
v -2.0187078 0.038888324 -0.092111096
v -1.8593392 -3.694866 0.13855895
v 3.7444816 -1.1392452 -0.1385641
v 3.7607455 -1.1229857 0.039669726
v 4.0482273 -1.1229857 0.039669726
v 4.0644836 -1.1392452 -0.1385641
v 3.744483 -0.819243 -0.1385641
v 4.0482273 -0.83550406 0.039669726
v 4.0644836 -0.81924456 -0.1385641
v 3.760744 -0.83550406 0.039669726
v 1.6955181 0.17454748 0.003589031
v 1.722081 0.2011102 0.12893222
v 2.6289558 0.2011102 0.12893218
v 2.6555185 0.17454748 0.0035890553
v 1.6955181 1.1345494 0.0035890553
v 2.628959 1.1079881 0.12893222
v 2.6555169 1.1345494 0.0035890553
v 1.722081 1.1079881 0.12893212
v -2.0315425 -4.974546 -0.07219379
v -2.0152817 -4.9582863 0.10604004
v -1.7277983 -4.9582863 0.10604004
v -1.711542 -4.9745426 -0.07219379
v -2.0315425 -4.654544 -0.072193764
v -1.7277983 -4.670803 0.10604004
v -1.711542 -4.654544 -0.072193764
v -2.0152817 -4.670803 0.10604004
v -4.064482 -0.78545594 -0.047433265
v -3.905112 -0.6260835 0.07139109
v 1.5361496 -0.6260835 0.07139109
v 1.6955181 -0.78545594 -0.047433242
v -4.064482 4.974546 -0.047433168
v 1.5361496 4.815175 0.07139114
v 1.6955181 4.974547 -0.047433168
v -3.905112 4.815176 0.07139124
v -4.0644803 -0.7854544 -0.07219372
v -4.008231 -0.90135735 0.08999076
v -4.008231 -4.8586397 0.089990705
v -4.0644803 -4.974546 -0.072193794
v -2.031538 -0.78545517 -0.07219372
v -2.0877872 -4.8586397 0.08999068
v -2.031541 -4.974546 -0.072193794
v -2.0877888 -0.9013581 0.08999078
vt 0.8679717 0.82845956
vt 0.8621344 0.83262205
vt 0.86252147 0.90691876
vt 0.8679717 0.9116118
vt 0.7442784 0.82845956
vt 0.74986523 0.90744805
vt 0.7442784 0.9116118
vt 0.7494944 0.8331571
vt 0.60702413 0.6578062
vt 0.609788 0.65503097
vt 0.6097789 0.6506874
vt 0.60700357 0.64792365
vt 0.6169068 0.6577856
vt 0.6141224 0.6506783
vt 0.6168862 0.6479031
vt 0.61413145 0.6550219
vt 0.62446165 0.6653588
vt 0.6265954 0.6674506
vt 0.6444207 0.6673335
vt 0.6466129 0.6652025
vt 0.62446165 0.68740594
vt 0.6445339 0.6851635
vt 0.6466129 0.68740594
vt 0.62670416 0.68527627
vt 0.59905726 0.64992607
vt 0.6019991 0.6471966
vt 0.60199016 0.64292467
vt 0.59905726 0.6400507
vt 0.6090005 0.6499057
vt 0.606262 0.64291567
vt 0.6089801 0.6400507
vt 0.60627097 0.64718765
vt 0.60737777 0.7879763
vt 0.61115295 0.7919108
vt 0.72526217 0.7914399
vt 0.7290767 0.78754705
vt 0.60737777 0.90997225
vt 0.72560596 0.90560895
vt 0.7290767 0.90954304
vt 0.61154604 0.90608335
vt 0.8283574 0.7336944
vt 0.83122057 0.7299376
vt 0.83103716 0.6489315
vt 0.82803786 0.6446174
vt 0.8738074 0.7335343
vt 0.87053806 0.6486847
vt 0.8738074 0.6446174
vt 0.87094617 0.72972137
vn 0.4890212 -0.61325073 0.6203078
vn 0.049582083 -0.08199789 0.99539846
vn 0.049582366 0.08199775 0.99539846
vn 0.48901427 0.61325 0.62031406
vn -0.48902303 -0.6132408 0.6203161
vn -0.04958204 0.081998155 0.99539834
vn -0.48901725 0.61323917 0.62032235
vn -0.04958193 -0.08199852 0.99539834
vn -0.70129955 -0.70128745 0.12796393
vn -0.46407035 -0.4640777 0.7545002
vn 0.46407908 -0.4640754 0.7544963
vn 0.7012907 -0.7013007 0.12793994
vn -0.7012927 0.7012939 0.1279671
vn 0.46407932 0.46407437 0.75449675
vn 0.7012914 0.70129955 0.12794279
vn -0.46407354 0.46407458 0.75450015
vn -0.6773421 -0.67734057 0.28708428
vn -0.14722075 -0.14722036 0.97808594
vn 0.14722078 -0.14722061 0.97808594
vn 0.67734426 -0.6773433 0.28707266
vn -0.6773466 0.6773394 0.2870767
vn 0.14722106 0.14721863 0.9780862
vn 0.6773404 0.67735034 0.28706527
vn -0.1472201 0.14722085 0.97808594
vn -0.7012959 -0.70129323 0.12795228
vn -0.46407247 -0.4640761 0.7544999
vn 0.46407685 -0.46407568 0.7544974
vn 0.701297 -0.7012957 0.12793362
vn -0.70129704 0.70129114 0.12795794
vn 0.46407723 0.46407357 0.7544986
vn 0.7012907 0.70130074 0.12793994
vn -0.4640729 0.46407422 0.75450075
vn -0.32976636 -0.32977068 0.88459337
vn -0.029569317 -0.02956919 0.9991253
vn 0.029569373 -0.029569136 0.9991253
vn 0.329766 -0.32977334 0.88459253
vn -0.3297697 0.32976973 0.8845925
vn 0.029569348 0.02956913 0.9991253
vn 0.329768 0.32977387 0.8845915
vn -0.029569237 0.02956923 0.9991253
vn -0.6958391 0.44790164 0.56141984
vn -0.11043068 0.045697447 0.9928328
vn -0.110431165 -0.045697328 0.99283266
vn -0.69583195 -0.44790325 0.5614271
vn 0.69584215 0.44790047 0.5614168
vn 0.110431395 -0.04569704 0.99283266
vn 0.6958295 -0.44790816 0.56142634
vn 0.11043056 0.045697577 0.9928328
g Tile_Mid_03_0
f 3/3/3 2/2/2 1/1/1
f 4/4/4 3/3/3 1/1/1
f 1/1/1 2/2/2 5/5/5
f 6/6/6 3/3/3 4/4/4
f 3/3/3 6/6/6 2/2/2
f 7/7/7 6/6/6 4/4/4
f 5/5/5 8/8/8 7/7/7
f 2/2/2 8/8/8 5/5/5
f 6/6/6 8/8/8 2/2/2
f 8/8/8 6/6/6 7/7/7
f 11/11/11 10/10/10 9/9/9
f 12/12/12 11/11/11 9/9/9
f 9/9/9 10/10/10 13/13/13
f 14/14/14 11/11/11 12/12/12
f 11/11/11 14/14/14 10/10/10
f 15/15/15 14/14/14 12/12/12
f 13/13/13 16/16/16 15/15/15
f 10/10/10 16/16/16 13/13/13
f 14/14/14 16/16/16 10/10/10
f 16/16/16 14/14/14 15/15/15
f 19/19/19 18/18/18 17/17/17
f 20/20/20 19/19/19 17/17/17
f 17/17/17 18/18/18 21/21/21
f 22/22/22 19/19/19 20/20/20
f 19/19/19 22/22/22 18/18/18
f 23/23/23 22/22/22 20/20/20
f 21/21/21 24/24/24 23/23/23
f 18/18/18 24/24/24 21/21/21
f 22/22/22 24/24/24 18/18/18
f 24/24/24 22/22/22 23/23/23
f 27/27/27 26/26/26 25/25/25
f 28/28/28 27/27/27 25/25/25
f 25/25/25 26/26/26 29/29/29
f 30/30/30 27/27/27 28/28/28
f 27/27/27 30/30/30 26/26/26
f 31/31/31 30/30/30 28/28/28
f 29/29/29 32/32/32 31/31/31
f 26/26/26 32/32/32 29/29/29
f 30/30/30 32/32/32 26/26/26
f 32/32/32 30/30/30 31/31/31
f 35/35/35 34/34/34 33/33/33
f 36/36/36 35/35/35 33/33/33
f 33/33/33 34/34/34 37/37/37
f 38/38/38 35/35/35 36/36/36
f 35/35/35 38/38/38 34/34/34
f 39/39/39 38/38/38 36/36/36
f 37/37/37 40/40/40 39/39/39
f 34/34/34 40/40/40 37/37/37
f 38/38/38 40/40/40 34/34/34
f 40/40/40 38/38/38 39/39/39
f 43/43/43 42/42/42 41/41/41
f 44/44/44 43/43/43 41/41/41
f 41/41/41 42/42/42 45/45/45
f 46/46/46 43/43/43 44/44/44
f 43/43/43 46/46/46 42/42/42
f 47/47/47 46/46/46 44/44/44
f 45/45/45 48/48/48 47/47/47
f 42/42/42 48/48/48 45/45/45
f 46/46/46 48/48/48 42/42/42
f 48/48/48 46/46/46 47/47/47
