g Tile_Mid_04
v -2.2129014 -0.8536843 -0.01844814
v -2.156653 -0.8150448 0.100885026
v -0.23620962 -0.8150479 0.10088498
v -0.17995994 -0.8536812 -0.018448116
v -2.2129014 0.5426831 -0.018448092
v -0.23620962 0.50404674 0.10088498
v -0.17996033 0.5426831 -0.018448116
v -2.1566513 0.50404364 0.100884885
v 1.8740767 0.95443475 -0.16071539
v 1.9303248 1.0123847 0.0258933
v 3.8507733 1.0123847 0.025893351
v 3.9070177 0.95443165 -0.16071539
v 1.8740767 3.0489798 -0.16071533
v 3.8507733 2.9910297 0.0258934
v 3.9070184 3.0489798 -0.16071533
v 1.9303248 2.9910266 0.025893351
v -1.874079 -4.6936793 -0.051620703
v -1.7709582 -4.5874314 0.12661292
v 1.7498566 -4.5874333 0.12661286
v 1.8529775 -4.6936793 -0.05162073
v -1.874079 -0.8536812 -0.051620703
v 1.7498558 -0.959929 0.12661296
v 1.8529775 -0.8536812 -0.05162068
v -1.7709582 -0.95993054 0.12661292
v -0.17267086 4.053672 -0.1585531
v -0.15640828 4.0699344 0.01968066
v 0.13107495 4.0699344 0.019680733
v 0.14733131 4.053678 -0.1585531
v -0.17267086 4.3736763 -0.1585531
v 0.13107495 4.357417 0.019680733
v 0.14733131 4.3736763 -0.1585531
v -0.15640828 4.357417 0.019680684
v -3.9070184 0.5426862 -0.068380706
v -3.8038976 0.6489309 0.10985293
v -0.28308272 0.6489309 0.109852836
v -0.17996226 0.5426862 -0.068380706
v -3.9070184 4.3826838 -0.06838063
v -0.28308272 4.276436 0.10985293
v -0.17996226 4.3826838 -0.068380654
v -3.8038976 4.276436 0.10985293
v -2.8340793 -1.8136784 -0.018448213
v -2.8075151 -1.7871172 0.10689498
v -1.9006394 -1.7871172 0.10689502
v -1.874079 -1.8136784 -0.018448165
v -2.8340793 -0.8536843 -0.018448165
v -1.9006394 -0.88024086 0.10689498
v -1.874079 -0.8536781 -0.018448165
v -2.8075151 -0.88024086 0.10689498
v -0.17996033 3.3354118 -0.09286133
v -0.12371066 3.219509 0.069323145
v -0.12371066 -0.737772 0.0693231
v -0.17996033 -0.8536781 -0.09286138
v 1.8529822 3.3354118 -0.09286131
v 1.7967322 -0.73777354 0.06932308
v 1.8529787 -0.8536781 -0.09286138
v 1.7967322 3.2195058 0.069323145
v -3.1540768 -1.1736803 -0.1681657
v -3.1378157 -1.1574177 0.010068141
v -2.8503342 -1.1574177 0.0100680925
v -2.8340762 -1.1736772 -0.1681657
v -3.1540768 -0.8536781 -0.1681657
v -2.8503342 -0.8699376 0.0100680925
v -2.8340762 -0.8536781 -0.1681657
v -3.1378157 -0.8699376 0.010068141
v -0.4926699 4.3736763 -0.12131207
v -0.47641084 4.3899326 0.05692175
v -0.18892722 4.3899326 0.05692175
v -0.17267086 4.3736763 -0.121312045
v -0.4926699 4.6936784 -0.121312045
v -0.18892722 4.677419 0.05692175
v -0.17267086 4.6936755 -0.12131207
v -0.47641084 4.677416 0.056921724
vt 0.8289145 0.7393583
vt 0.83122575 0.74149954
vt 0.87026525 0.74127203
vt 0.8732783 0.7392047
vt 0.8290224 0.7699869
vt 0.8704134 0.7676973
vt 0.8732783 0.7698334
vt 0.831365 0.7679077
vt 0.828742 0.7740882
vt 0.8320538 0.7774704
vt 0.8707519 0.7772813
vt 0.873571 0.7739282
vt 0.8289065 0.82082987
vt 0.8709602 0.8172408
vt 0.873571 0.82082987
vt 0.83227026 0.81743586
vt 0.7414834 0.73587674
vt 0.7451259 0.73955053
vt 0.81758404 0.73939437
vt 0.8213299 0.73559517
vt 0.7414834 0.81798726
vt 0.81796485 0.8142555
vt 0.8216199 0.81798726
vt 0.7452385 0.81436926
vt 0.6148692 0.6577728
vt 0.6176234 0.65500706
vt 0.61761445 0.6506785
vt 0.61484873 0.6479243
vt 0.6247178 0.6577523
vt 0.62194294 0.65066946
vt 0.6246972 0.6479038
vt 0.621952 0.65499806
vt 0.7407893 0.645064
vt 0.74424565 0.64871395
vt 0.8180056 0.64839005
vt 0.8216929 0.645064
vt 0.7407893 0.7263519
vt 0.81816584 0.72217864
vt 0.8219876 0.72606564
vt 0.7443434 0.72255975
vt 0.6244863 0.6417755
vt 0.6265133 0.6438997
vt 0.6443009 0.643785
vt 0.6465882 0.6417755
vt 0.6244863 0.6638638
vt 0.6444103 0.66157067
vt 0.6465882 0.6637079
vt 0.62662363 0.66168594
vt 0.8284351 0.7335406
vt 0.8312886 0.72979695
vt 0.83110577 0.6490703
vt 0.82811683 0.64477116
vt 0.8737284 0.7333811
vt 0.87047035 0.64882433
vt 0.8737284 0.64477116
vt 0.87087697 0.7295814
vt 0.61487687 0.64993024
vt 0.61761767 0.64717805
vt 0.61760867 0.64287066
vt 0.61485654 0.6400137
vt 0.62467724 0.6499098
vt 0.6219162 0.64286166
vt 0.62465674 0.6400137
vt 0.62192506 0.6471691
vt 0.6148991 0.66563165
vt 0.6176458 0.6628243
vt 0.61763686 0.6585075
vt 0.61487865 0.6557609
vt 0.6247208 0.66563165
vt 0.6219536 0.6584985
vt 0.6247003 0.6557404
vt 0.6219626 0.6628153
vn -0.53529483 -0.6965185 0.4778299
vn -0.069770694 -0.109056756 0.99158394
vn 0.0697692 -0.10905775 0.99158394
vn 0.5353094 -0.6965051 0.47783318
vn -0.53529626 0.69651234 0.47783735
vn 0.06976983 0.10905723 0.99158394
vn 0.53530025 0.6965079 0.47783923
vn -0.06977049 0.10905704 0.99158394
vn -0.6564195 -0.6414479 0.39706185
vn -0.10926083 -0.10555003 0.98839325
vn 0.10926197 -0.10554915 0.98839325
vn 0.6564139 -0.64145976 0.39705187
vn -0.6564156 0.6414518 0.39706188
vn 0.10926124 0.10554953 0.98839325
vn 0.65641874 0.6414548 0.39705172
vn -0.10926156 0.10554979 0.98839325
vn -0.54834014 -0.53956866 0.63889647
vn -0.06273698 -0.060441855 0.99619824
vn 0.062736824 -0.060441945 0.99619824
vn 0.54834163 -0.53956586 0.6388976
vn -0.5483366 0.53956884 0.63889927
vn 0.06273692 0.060441922 0.99619824
vn 0.548339 0.53956527 0.6389004
vn -0.06273713 0.06044174 0.99619824
vn -0.70129114 -0.7012957 0.12796459
vn -0.46407202 -0.46407557 0.7545005
vn 0.4640766 -0.46407545 0.75449777
vn 0.70129627 -0.7012952 0.12793931
vn -0.7012984 0.70128864 0.12796396
vn 0.46407652 0.46407527 0.7544979
vn 0.7012889 0.70130247 0.12793994
vn -0.46407208 0.4640758 0.7545003
vn -0.5483463 -0.5395673 0.6388923
vn -0.06273664 -0.060441952 0.99619824
vn 0.06273667 -0.060441922 0.99619824
vn 0.5483462 -0.53956825 0.6388917
vn -0.54833937 0.5395678 0.638898
vn 0.06273695 0.06044174 0.99619824
vn 0.5483392 0.53956866 0.6388973
vn -0.06273692 0.060441777 0.99619824
vn -0.6773463 -0.67733645 0.2870843
vn -0.1472194 -0.14722185 0.97808594
vn 0.14722067 -0.14722015 0.97808594
vn 0.677344 -0.6773469 0.2870651
vn -0.6773579 0.6773281 0.28707618
vn 0.14722139 0.14722036 0.9780858
vn 0.6773419 0.677352 0.28705785
vn -0.14721742 0.14722231 0.9780862
vn -0.6958369 0.44789985 0.56142384
vn -0.110430636 0.04569754 0.9928328
vn -0.110431105 -0.045697343 0.99283266
vn -0.69583267 -0.4479029 0.5614266
vn 0.695836 0.4479046 0.56142116
vn 0.11043111 -0.045697182 0.99283266
vn 0.6958329 -0.44790652 0.5614234
vn 0.11043114 0.045697372 0.99283266
vn -0.7012899 -0.7012971 0.12796424
vn -0.4640756 -0.4640755 0.75449836
vn 0.46407807 -0.4640756 0.7544968
vn 0.7012924 -0.7012969 0.12795162
vn -0.70129615 0.701292 0.12795791
vn 0.4640776 0.46407747 0.75449586
vn 0.7012913 0.70129895 0.12794593
vn -0.46407527 0.46407765 0.75449723
vn -0.70130104 -0.7012907 0.12793845
vn -0.46407333 -0.4640754 0.75449985
vn 0.46407685 -0.46407473 0.75449806
vn 0.7012984 -0.70129526 0.12792796
vn -0.70129186 0.70129764 0.12795042
vn 0.46407554 0.46407375 0.75449944
vn 0.7012971 0.70129436 0.12793995
vn -0.4640762 0.4640684 0.75450236
g Tile_Mid_04_0
f 3/3/3 2/2/2 1/1/1
f 4/4/4 3/3/3 1/1/1
f 1/1/1 2/2/2 5/5/5
f 6/6/6 3/3/3 4/4/4
f 3/3/3 6/6/6 2/2/2
f 7/7/7 6/6/6 4/4/4
f 5/5/5 8/8/8 7/7/7
f 2/2/2 8/8/8 5/5/5
f 6/6/6 8/8/8 2/2/2
f 8/8/8 6/6/6 7/7/7
f 11/11/11 10/10/10 9/9/9
f 12/12/12 11/11/11 9/9/9
f 9/9/9 10/10/10 13/13/13
f 14/14/14 11/11/11 12/12/12
f 11/11/11 14/14/14 10/10/10
f 15/15/15 14/14/14 12/12/12
f 13/13/13 16/16/16 15/15/15
f 10/10/10 16/16/16 13/13/13
f 14/14/14 16/16/16 10/10/10
f 16/16/16 14/14/14 15/15/15
f 19/19/19 18/18/18 17/17/17
f 20/20/20 19/19/19 17/17/17
f 17/17/17 18/18/18 21/21/21
f 22/22/22 19/19/19 20/20/20
f 19/19/19 22/22/22 18/18/18
f 23/23/23 22/22/22 20/20/20
f 21/21/21 24/24/24 23/23/23
f 18/18/18 24/24/24 21/21/21
f 22/22/22 24/24/24 18/18/18
f 24/24/24 22/22/22 23/23/23
f 27/27/27 26/26/26 25/25/25
f 28/28/28 27/27/27 25/25/25
f 25/25/25 26/26/26 29/29/29
f 30/30/30 27/27/27 28/28/28
f 27/27/27 30/30/30 26/26/26
f 31/31/31 30/30/30 28/28/28
f 29/29/29 32/32/32 31/31/31
f 26/26/26 32/32/32 29/29/29
f 30/30/30 32/32/32 26/26/26
f 32/32/32 30/30/30 31/31/31
f 35/35/35 34/34/34 33/33/33
f 36/36/36 35/35/35 33/33/33
f 33/33/33 34/34/34 37/37/37
f 38/38/38 35/35/35 36/36/36
f 35/35/35 38/38/38 34/34/34
f 39/39/39 38/38/38 36/36/36
f 37/37/37 40/40/40 39/39/39
f 34/34/34 40/40/40 37/37/37
f 38/38/38 40/40/40 34/34/34
f 40/40/40 38/38/38 39/39/39
f 43/43/43 42/42/42 41/41/41
f 44/44/44 43/43/43 41/41/41
f 41/41/41 42/42/42 45/45/45
f 46/46/46 43/43/43 44/44/44
f 43/43/43 46/46/46 42/42/42
f 47/47/47 46/46/46 44/44/44
f 45/45/45 48/48/48 47/47/47
f 42/42/42 48/48/48 45/45/45
f 46/46/46 48/48/48 42/42/42
f 48/48/48 46/46/46 47/47/47
f 51/51/51 50/50/50 49/49/49
f 52/52/52 51/51/51 49/49/49
f 49/49/49 50/50/50 53/53/53
f 54/54/54 51/51/51 52/52/52
f 51/51/51 54/54/54 50/50/50
f 55/55/55 54/54/54 52/52/52
f 53/53/53 56/56/56 55/55/55
f 50/50/50 56/56/56 53/53/53
f 54/54/54 56/56/56 50/50/50
f 56/56/56 54/54/54 55/55/55
f 59/59/59 58/58/58 57/57/57
f 60/60/60 59/59/59 57/57/57
f 57/57/57 58/58/58 61/61/61
f 62/62/62 59/59/59 60/60/60
f 59/59/59 62/62/62 58/58/58
f 63/63/63 62/62/62 60/60/60
f 61/61/61 64/64/64 63/63/63
f 58/58/58 64/64/64 61/61/61
f 62/62/62 64/64/64 58/58/58
f 64/64/64 62/62/62 63/63/63
f 67/67/67 66/66/66 65/65/65
f 68/68/68 67/67/67 65/65/65
f 65/65/65 66/66/66 69/69/69
f 70/70/70 67/67/67 68/68/68
f 67/67/67 70/70/70 66/66/66
f 71/71/71 70/70/70 68/68/68
f 69/69/69 72/72/72 71/71/71
f 66/66/66 72/72/72 69/69/69
f 70/70/70 72/72/72 66/66/66
f 72/72/72 70/70/70 71/71/71
