g ToothMeshSmall1
v -0.012119724 -0.00096588966 -0.005167078
v -0.01428193 -0.005341321 0.00048081038
v -0.0046463627 -0.01399496 -0.0049497797
v -0.002193708 0.0007864982 -0.008922872
v -0.011821939 0.0026185387 -0.0009362301
v -0.012119724 -0.00096588966 -0.005167078
v 0.013690391 -0.0030028143 -0.0011745464
v 0.012942839 0.00305664 -0.00089321315
v 0.01150687 0.001046997 -0.0061490843
v 0.01150687 0.001046997 -0.0061490843
v 0.012942839 0.00305664 -0.00089321315
v 0.0033715433 0.0012578449 -0.008838528
v 0.0060102204 -0.011106825 -0.0049548913
v 0.013690391 -0.0030028143 -0.0011745464
v 0.01150687 0.001046997 -0.0061490843
v 0.00042724973 -0.0062088743 -0.008772414
v 0.0033715433 0.0012578449 -0.008838528
v -0.002193708 0.0007864982 -0.008922872
v -0.0046463627 -0.01399496 -0.0049497797
v -0.0015242256 -0.019497138 -9.761586E-05
v -0.0046463627 -0.01399496 -0.0049497797
v -0.012119724 -0.00096588966 -0.005167078
v 0.0060102204 -0.011106825 -0.0049548913
v -0.0015242256 -0.019497138 -9.761586E-05
v 0.013690391 -0.0030028143 -0.0011745464
v 0.009059496 -0.009533999 0.0034379356
v -0.0046463627 -0.01399496 -0.0049497797
v -0.009083025 -0.009881178 0.0041261213
v -0.0015242256 -0.019497138 -9.761586E-05
v -0.01428193 -0.005341321 0.00048081038
v -0.012119724 -0.00096588966 -0.005167078
v -0.011821939 0.0026185387 -0.0009362301
v -0.01428193 -0.005341321 0.00048081038
v -0.011859066 -0.0008501848 0.004210171
v -0.002193708 0.0007864982 -0.008922872
v 0.0013943545 0.00017622067 0.006782398
v -0.011821939 0.0026185387 -0.0009362301
v 0.0033715433 0.0012578449 -0.008838528
v 0.012942839 0.00305664 -0.00089321315
v -0.011821939 0.0026185387 -0.0009362301
v 0.0013943545 0.00017622067 0.006782398
v -0.011859066 -0.0008501848 0.004210171
v -4.9463844E-05 -0.0027244575 0.008190853
v 0.011075608 -0.0011245584 0.0047642165
v 0.012942839 0.00305664 -0.00089321315
v 0.002367214 -0.011805059 0.0059138173
v 0.009059496 -0.009533999 0.0034379356
v -0.0035145122 -0.013241292 0.0047665522
v -0.009083025 -0.009881178 0.0041261213
v -0.011859066 -0.0008501848 0.004210171
v -0.01428193 -0.005341321 0.00048081038
v -0.0015242256 -0.019497138 -9.761586E-05
v -0.009083025 -0.009881178 0.0041261213
v 0.009059496 -0.009533999 0.0034379356
v 0.013690391 -0.0030028143 -0.0011745464
v 0.009059496 -0.009533999 0.0034379356
v 0.011075608 -0.0011245584 0.0047642165
v 0.012942839 0.00305664 -0.00089321315
vn -0.6988583 -0.41060477 -0.5856627
vn -0.6988583 -0.41060477 -0.5856627
vn -0.6988583 -0.41060477 -0.5856627
vn -0.35167962 0.7263102 -0.5905886
vn -0.35167962 0.7263102 -0.5905886
vn -0.35167962 0.7263102 -0.5905886
vn 0.9425757 0.13055977 -0.3074167
vn 0.9425757 0.13055977 -0.3074167
vn 0.9425757 0.13055977 -0.3074167
vn 0.15213615 0.90860516 -0.38896185
vn 0.15214036 0.90859985 -0.38897267
vn 0.15214036 0.90859985 -0.38897267
vn 0.32298088 -0.4306513 -0.84274715
vn 0.6968093 -0.3752003 -0.6112951
vn 0.52655685 -0.28929648 -0.7994032
vn -0.0048525245 -0.25428447 -0.9671173
vn 0.20292078 -0.08865768 -0.97517335
vn -0.1958997 -0.1173445 -0.9735778
vn 0.15299365 -0.56601244 -0.8100759
vn 0.1620577 -0.5993389 -0.7839198
vn -0.3507607 -0.18836641 -0.9173249
vn -0.3163632 -0.19694112 -0.9279702
vn 0.73346364 -0.67883456 -0.034852725
vn 0.72508854 -0.6770505 -0.12589402
vn 0.7219454 -0.67567736 -0.1491807
vn 0.7067052 -0.6672437 -0.23527338
vn -0.7719176 -0.62899697 -0.09222848
vn -0.7093078 -0.7043636 -0.027467709
vn -0.806795 -0.5755541 -0.13348922
vn -0.66351336 -0.7480204 0.014679633
vn -0.9509812 0.26573148 -0.1581815
vn -0.9551108 0.29619268 0.0057682036
vn -0.95250297 0.3017124 0.04132294
vn -0.9227279 0.32268316 0.21082902
vn 0.03759979 0.998836 0.030214118
vn -0.03256386 0.99913377 0.0259107
vn 0.18384497 0.982948 -0.0037843254
vn -0.13971764 0.9888883 0.050784215
vn -0.21662672 0.97543055 0.04010249
vn -0.1700512 0.8177229 0.5499198
vn 0.06961438 0.5055207 0.8600016
vn -0.17618833 0.78419524 0.59497523
vn -0.02987822 0.10883118 0.99361104
vn 0.30992833 0.41787678 0.8540043
vn 0.23060793 0.7445926 0.6264198
vn 0.21848676 -0.46291482 0.85905373
vn 0.40676105 -0.23667707 0.8823431
vn -0.24470381 -0.50015044 0.8306441
vn -0.38771474 -0.1830231 0.9034267
vn -0.5033513 -0.16260567 0.84864414
vn -0.6797329 -0.21546851 0.7010966
vn 0.010498499 -0.68630874 0.7272346
vn -0.4538259 -0.6324569 0.6277264
vn 0.44603488 -0.68023753 0.5816612
vn 0.9018078 -0.0845378 0.42378768
vn 0.8448724 -0.27492005 0.45892233
vn 0.89351743 -0.122260846 0.43206358
vn 0.9218397 0.09628883 0.37541962
g ToothMeshSmall1_0
f 3/3/3 2/2/2 1/1/1
f 6/6/6 5/5/5 4/4/4
f 9/9/9 8/8/8 7/7/7
f 12/12/12 11/11/11 10/10/10
f 15/15/15 14/14/14 13/13/13
f 16/16/16 15/15/15 13/13/13
f 16/16/16 17/17/17 15/15/15
f 16/16/16 18/18/18 17/17/17
f 13/13/13 19/19/19 16/16/16
f 13/13/13 20/20/20 19/19/19
f 16/16/16 21/21/21 18/18/18
f 21/21/21 22/22/22 18/18/18
f 25/25/25 24/24/24 23/23/23
f 25/25/25 26/26/26 24/24/24
f 29/29/29 28/28/28 27/27/27
f 27/27/27 28/28/28 30/30/30
f 33/33/33 32/32/32 31/31/31
f 33/33/33 34/34/34 32/32/32
f 37/37/37 36/36/36 35/35/35
f 35/35/35 36/36/36 38/38/38
f 38/38/38 36/36/36 39/39/39
f 42/42/42 41/41/41 40/40/40
f 42/42/42 43/43/43 41/41/41
f 41/41/41 43/43/43 44/44/44
f 41/41/41 44/44/44 45/45/45
f 44/44/44 43/43/43 46/46/46
f 47/47/47 44/44/44 46/46/46
f 48/48/48 46/46/46 43/43/43
f 48/48/48 43/43/43 49/49/49
f 49/49/49 43/43/43 50/50/50
f 49/49/49 50/50/50 51/51/51
f 46/46/46 48/48/48 52/52/52
f 52/52/52 48/48/48 53/53/53
f 54/54/54 46/46/46 52/52/52
f 57/57/57 56/56/56 55/55/55
f 58/58/58 57/57/57 55/55/55
