g VoidRaidCrabFrontFootTargets.r
v -0.5902443 -0.01604557 0.8527591
v -0.42702198 0.3838911 0.8395412
v -0.028290272 0.33279133 0.967365
v -0.5902443 -0.01604557 0.8527591
v -0.81720066 0.32767105 0.51804423
v -0.41274834 0.7285261 0.57592607
v -0.028290272 0.33279133 0.967365
v -0.72953033 0.7044449 0.2021153
v -0.9994173 0.2059946 -0.042477608
v 0.008386135 0.9303684 0.46827412
v -0.68758774 0.69400215 -0.31149197
v -0.68657494 0.3773489 -0.6832943
v -0.93593884 -0.32065535 -0.26621628
v -0.6234436 -0.3435645 -0.7549398
v -0.25450563 0.92185116 -0.3783741
v 0.15420151 0.41358852 -0.93882036
v -0.31166935 0.19993114 -0.9565582
v -0.040382385 -0.22600365 -0.9949584
v 0.32604122 -0.2108016 -0.9347508
v 0.6391306 -0.10771465 -0.7913847
v 0.20584536 0.97298336 -0.28026175
v 0.5493469 0.5996895 -0.6219318
v 0.5603156 0.8674269 0.022072315
v 0.9162364 0.1394229 -0.46084094
v 0.554173 -0.64481544 -0.59541154
v 0.32604122 -0.2108016 -0.9347508
v -0.040382385 -0.22600365 -0.9949584
v 0.56343555 0.54278564 0.6815858
v 0.9955449 0.27096367 0.14442873
v 0.9488206 -0.34403515 -0.12325215
v 0.8757086 -0.22370815 0.49742508
v 0.5366721 0.103689194 0.8587544
v 0.03203392 -0.17385387 1.0048687
v -0.5902443 -0.01604557 0.8527591
v 0.49511337 -0.3878293 0.81677556
v 0.6680474 -0.7792001 0.038057566
v -0.1233325 -0.70431995 -0.73356724
v -0.6234436 -0.3435645 -0.7549398
v -0.20373249 -0.6052923 0.82125163
v 0.4015684 -0.8072233 0.48601055
v 0.24371958 -0.9275112 -0.34555316
v -0.4040556 -0.9066014 -0.29587007
v -0.93593884 -0.32065535 -0.26621628
v -0.101697445 -0.97812796 0.32625842
v -0.720417 -0.49759245 0.53466964
v -0.6751938 -0.7580261 0.1558497
v -0.972085 -0.1909976 0.22006941
v -0.81720066 0.32767105 0.51804423
v -0.9994173 0.2059946 -0.042477608
v -1.3859606 1.970931 6.946966
v -1.7470264 1.6274633 6.851405
v -1.4291468 1.4316626 6.8545227
v -0.9951229 1.807682 7.080927
v -1.1177654 2.2461596 7.319439
v -1.7305222 2.1723108 7.064575
v -1.7470264 1.6274633 6.851405
v -2.2220087 1.6896973 7.104271
v -2.1591854 2.2109013 7.4407578
v -2.4259214 1.87356 7.594779
v -1.6455564 2.4529724 7.4765415
v -2.2284756 2.1337347 8.058813
v -2.4147987 1.4568882 8.055809
v -2.215742 1.775672 8.362195
v -1.603899 2.0966682 8.503548
v -1.8142118 2.430255 7.9865704
v -1.4914026 2.4034252 8.12509
v -1.2016258 2.4010878 7.813363
v -0.91160774 2.1643906 8.023777
v -1.8494997 1.5321484 8.608727
v -2.0309181 1.2208004 8.445133
v -1.390193 1.6747332 8.624148
v -1.4552975 1.2778921 8.587789
v -0.99806786 1.8165789 8.402854
v -0.7127733 1.7452307 7.450657
v -0.9482641 1.3199158 8.360177
v -1.4552975 1.2778921 8.587789
v -0.69405556 1.7546911 7.9346094
v -0.9939194 1.1835966 7.1486645
v -0.73738575 1.2282877 7.757697
v -0.9894953 0.9034605 7.955145
v -1.5554495 0.84860706 8.310694
v -2.0309181 1.2208004 8.445133
v -1.8494997 1.5321484 8.608727
v -1.6265554 0.874753 7.1576405
v -1.3905468 0.7194567 7.4541054
v -2.089097 1.1867323 7.0967274
v -1.7470264 1.6274633 6.851405
v -2.2220087 1.6896973 7.104271
v -1.4168034 0.7111168 7.947282
v -1.9358845 0.75425243 7.616851
v -2.3715668 1.2019444 7.5373497
v -2.4259214 1.87356 7.594779
v -2.4147987 1.4568882 8.055809
v -2.2369003 1.0038261 8.0060215
v -2.215742 1.775672 8.362195
v -1.0829058 0.74336624 9.843927
v -0.8811226 0.90207195 9.505542
v -0.83999825 1.0459652 9.924531
v -0.60681343 1.0845451 9.506743
v -0.5819187 0.7542515 9.23123
v -0.3728695 1.1691046 9.858082
v -0.13634348 0.98807716 9.525564
v -0.5602865 1.0378714 10.218727
v -0.098367214 1.0176554 10.0024395
v -0.96848965 0.67726326 10.218299
v -1.0829058 0.74336624 9.843927
v -0.7068558 0.68994236 10.399102
v -0.74209404 0.2621193 10.349536
v -0.25727654 0.74118805 10.407657
v -0.28888988 0.29400253 10.403298
v -0.47882748 -0.06503248 10.0846615
v -0.103189945 0.030612946 9.964916
v 0.031928062 0.31569386 10.150226
v 0.13185883 0.63790894 10.037805
v 0.08682537 0.7564411 9.624231
v 0.08685112 0.25449085 9.72753
v -0.103189945 0.030612946 9.964916
v -0.12969398 0.6209202 9.302636
v 0.09187174 0.43004513 9.5462675
v -0.3715191 0.39324188 9.214906
v -0.22436237 0.024256706 9.5121565
v -0.103189945 0.030612946 9.964916
v -0.47882748 -0.06503248 10.0846615
v -0.86924076 0.47054386 9.330312
v -0.6612215 0.16216755 9.342633
v -0.5611372 -0.050525665 9.593558
v -0.8125572 -0.01058054 9.936533
v -0.74209404 0.2621193 10.349536
v -1.0684805 0.56242275 9.609371
v -1.0829058 0.74336624 9.843927
v -0.9837208 0.20470333 9.633501
v -1.0637169 0.34544373 9.962653
v -0.96848965 0.67726326 10.218299
vt 0.982775 0.9375
vt 0.88118863 0.89477324
vt 0.9218755 1
vt 1.0000001 0.8125
vt 0.9555359 0.7532746
vt 0.81618464 0.7823199
vt 0.5771253 0.9232919
vt 0.8770282 0.655727
vt 0.97064006 0.5640536
vt 0.7163056 0.70925325
vt 0.87366855 0.50531507
vt 0.9101963 0.36387998
vt 1 0.47528458
vt 0.99647933 0.28968573
vt 0.79693735 0.46758088
vt 0.74309206 0.21010116
vt 0.8894375 0.21936399
vt 0.9139831 0.092495635
vt 0.687434 0.031266194
vt 0.5256099 0.15625301
vt 0.7214025 0.47481167
vt 0.6672492 0.31325394
vt 0.6485541 0.5337898
vt 0.5477853 0.31172484
vt 0.35559693 0.20962004
vt 0.50275236 0.049454086
vt 0.055110235 0.091679476
vt 0.5816088 0.71437657
vt 0.54033256 0.49943185
vt 0.45220143 0.37575138
vt 0.4510638 0.56570697
vt 0.4814785 0.7539782
vt 0.330414 0.84557444
vt 0.0924194 0.85167545
vt 0.38354626 0.6938443
vt 0.36224842 0.41564474
vt 0.17600468 0.20278907
vt 0.037002698 0.2813502
vt 0.2350068 0.7232053
vt 0.32621956 0.55986017
vt 0.27665576 0.30531263
vt 0.16485307 0.37560576
vt 0.041325253 0.46153998
vt 0.2376361 0.527218
vt 0.12647401 0.6639067
vt 0.14029032 0.5332649
vt 0.043688096 0.6147672
vt 0 0.7184553
vt 3.9074393E-08 0.60347253
vt 0.6200457 0.15564352
vt 0.73357093 0.04817555
vt 0.37710965 0.1374637
vt 0.53482974 0.27772498
vt 0.6396092 0.34513626
vt 0.78129685 0.19705343
vt 0.94400907 0.046240967
vt 0.9741922 0.20813239
vt 0.8642256 0.33493444
vt 0.9480931 0.39807832
vt 0.7540021 0.36277705
vt 0.89005935 0.54776156
vt 0.9919521 0.5321914
vt 0.942533 0.6791814
vt 0.7846277 0.7619282
vt 0.8033311 0.5329968
vt 0.7411295 0.60031426
vt 0.6826397 0.50645936
vt 0.6237626 0.60619426
vt 0.9487667 0.8445312
vt 1 0.75000006
vt 0.7107403 0.91088885
vt 0.9934739 0.9636057
vt 0.59354794 0.7809756
vt 0.5217345 0.42651474
vt 0.44997677 0.7864535
vt 0.21578988 0.92189795
vt 0.5329105 0.6025655
vt 0.40365514 0.3376469
vt 0.438358 0.56091726
vt 0.36226955 0.6359472
vt 0.23154455 0.7481491
vt 0.080520764 0.75027657
vt 0.037010502 0.843052
vt 0.25589448 0.32374233
vt 0.29005665 0.46220875
vt 0.13941875 0.2525264
vt 0.16322201 0.049475096
vt 0.025289936 0.19945134
vt 0.27112243 0.6123493
vt 0.18539572 0.4772064
vt 0.07865676 0.40689772
vt 2.5328275E-08 0.41094142
vt 0.023949245 0.5660401
vt 0.10871796 0.57449985
vt 2.5188132E-08 0.66108835
vt 0.64062476 0
vt 0.42898905 0.12928808
vt 0.7533441 0.1483753
vt 0.54613495 0.2558183
vt 0.40719372 0.34796217
vt 0.6525074 0.3558314
vt 0.5476333 0.48185152
vt 0.7745161 0.35437956
vt 0.67253435 0.5283836
vt 0.93191504 0.28543872
vt 0.9425083 0.10270747
vt 0.88322425 0.40772715
vt 0.9735125 0.5147555
vt 0.7997056 0.5753021
vt 0.90623677 0.7023628
vt 0.9967816 0.70660114
vt 0.9871723 0.90329397
vt 0.80633736 0.86615944
vt 0.672701 0.73744774
vt 0.5550487 0.6497869
vt 0.4588451 0.8836982
vt 0.60937464 1
vt 0.45247778 0.5669119
vt 0.48021638 0.75140655
vt 0.36930943 0.5283997
vt 0.2863239 0.73050785
vt 0.121650815 0.88880044
vt 0.07070765 0.6998478
vt 0.28399146 0.3178047
vt 0.26931432 0.48722863
vt 0.20529386 0.61423963
vt 0.101625085 0.5274121
vt 0.011511996 0.49218
vt 0.1917931 0.18897866
vt 0.12904847 0.10669921
vt 0.17475381 0.37609428
vt 0.074077815 0.3192802
vt 2.6802876E-08 0.34060484
vn -0.5729961 -0.04355076 0.8184002
vn -0.4019725 0.40331537 0.82204306
vn -0.0043947026 0.34974504 0.9368346
vn -0.5729961 -0.04355076 0.8184002
vn -0.81723624 0.2931955 0.49614647
vn -0.38863274 0.7283736 0.56430185
vn -0.0043947026 0.34974504 0.9368346
vn -0.6754478 0.715855 0.17698002
vn -0.9754199 0.20734654 -0.074588604
vn 0.004150524 0.9025253 0.43061686
vn -0.67097485 0.68037486 -0.29475895
vn -0.65912247 0.36070606 -0.65988547
vn -0.90472096 -0.31606027 -0.28563225
vn -0.61808294 -0.33034414 -0.7133346
vn -0.24357842 0.89410764 -0.37582064
vn 0.13559702 0.43532658 -0.89000237
vn -0.3071447 0.23377669 -0.92250234
vn -0.035036493 -0.24336323 -0.96930224
vn 0.29643682 -0.23643528 -0.9253235
vn 0.64863193 -0.088506676 -0.75593865
vn 0.17225179 0.9425933 -0.28608933
vn 0.55722785 0.58799165 -0.58631307
vn 0.5832214 0.81159633 0.034120433
vn 0.88588583 0.15393971 -0.43761727
vn 0.54559684 -0.6024851 -0.58252543
vn 0.29643682 -0.23643528 -0.9253235
vn -0.035036493 -0.24336323 -0.96930224
vn 0.54978323 0.5363851 0.64033544
vn 0.94637483 0.29332155 0.13541439
vn 0.93087286 -0.3392844 -0.13550623
vn 0.85770625 -0.21729535 0.46596423
vn 0.53564256 0.113775596 0.836745
vn 0.026764993 -0.1593692 0.98685616
vn -0.5729961 -0.04355076 0.8184002
vn 0.46789482 -0.3997142 0.7882278
vn 0.6414871 -0.7653959 0.051608298
vn -0.10077304 -0.6789209 -0.7272627
vn -0.61808294 -0.33034414 -0.7133346
vn -0.19529408 -0.5934206 0.7808407
vn 0.39778477 -0.792243 0.46272922
vn 0.21583241 -0.9317539 -0.29197803
vn -0.39662006 -0.8718256 -0.28742442
vn -0.90472096 -0.31606027 -0.28563225
vn -0.08939076 -0.95198566 0.2928013
vn -0.6967818 -0.48342273 0.5299033
vn -0.6592403 -0.7380708 0.14371382
vn -0.9516396 -0.18817939 0.24283868
vn -0.81723624 0.2931955 0.49614647
vn -0.9754199 0.20734654 -0.074588604
vn 0.21537489 0.4305056 -0.87651503
vn -0.22489472 0.045656465 -0.9733128
vn 0.17112245 -0.20631135 -0.96340686
vn 0.6355253 0.2231236 -0.73913693
vn 0.5135846 0.7350046 -0.44271797
vn -0.19370584 0.64340734 -0.74061126
vn -0.22489472 0.045656465 -0.9733128
vn -0.7129693 0.13254678 -0.68855363
vn -0.6298593 0.70203775 -0.33229524
vn -0.9495122 0.27992177 -0.14166996
vn -0.07266604 0.9556453 -0.28541484
vn -0.71329665 0.60519737 0.35347432
vn -0.94037914 -0.10800642 0.32252383
vn -0.6948878 0.235729 0.6793842
vn -0.03869895 0.5719692 0.8193617
vn -0.29781178 0.91894984 0.25853285
vn 0.13349043 0.8873116 0.44142792
vn 0.4062019 0.9128403 0.041505225
vn 0.7027381 0.6442325 0.3018667
vn -0.3023227 -0.020234196 0.9529909
vn -0.5044514 -0.42284313 0.7528164
vn 0.22110914 0.11771124 0.96811926
vn 0.14905564 -0.36470413 0.9191155
vn 0.61593944 0.28941402 0.73270607
vn 0.92918265 0.18415187 -0.32048044
vn 0.6807634 -0.3035144 0.66666347
vn 0.14905564 -0.36470413 0.9191155
vn 0.96150136 0.16428383 0.22028619
vn 0.6385222 -0.451226 -0.6234457
vn 0.9157684 -0.4014536 -0.0142526105
vn 0.64285076 -0.7359335 0.21247278
vn 0.00091557164 -0.79029095 0.6127311
vn -0.5044514 -0.42284313 0.7528164
vn -0.3023227 -0.020234196 0.9529909
vn -0.06940079 -0.72895247 -0.68103725
vn 0.25324625 -0.9192003 -0.30155775
vn -0.5476072 -0.44741243 -0.70707035
vn -0.22489472 0.045656465 -0.9733128
vn -0.7129693 0.13254678 -0.68855363
vn 0.13293962 -0.9677797 0.2138448
vn -0.41328493 -0.9034161 -0.114170656
vn -0.88587415 -0.39924917 -0.23627786
vn -0.9495122 0.27992177 -0.14166996
vn -0.94037914 -0.10800642 0.32252383
vn -0.69285303 -0.65949523 0.29158303
vn -0.6948878 0.235729 0.6793842
vn -0.940094 0.33901128 0.035982564
vn -0.6601372 0.55817145 -0.50265646
vn -0.5653451 0.8092272 0.15980063
vn -0.1740229 0.85396963 -0.4903588
vn -0.14002365 0.34343642 -0.9286791
vn 0.14215654 0.98874795 0.046571687
vn 0.50106406 0.7132945 -0.49004665
vn -0.13187382 0.78202605 0.6091343
vn 0.6043674 0.74005485 0.29505754
vn -0.76713496 0.22456154 0.60089594
vn -0.940094 0.33901128 0.035982564
vn -0.32859963 0.23518053 0.9147198
vn -0.4207997 -0.41725942 0.805495
vn 0.34962708 0.3182534 0.8811786
vn 0.27690592 -0.367336 0.8879118
vn 0.025453012 -0.91969603 0.39180544
vn 0.5522726 -0.8067404 0.21015413
vn 0.78423506 -0.33184105 0.5242679
vn 0.926695 0.17646392 0.33180836
vn 0.88622844 0.36229828 -0.288685
vn 0.8845103 -0.44716874 -0.13297257
vn 0.5522726 -0.8067404 0.21015413
vn 0.5303632 0.12634963 -0.83830225
vn 0.8652759 -0.17575917 -0.46947446
vn 0.1772237 -0.24531153 -0.9531076
vn 0.40083942 -0.77119017 -0.49456394
vn 0.5522726 -0.8067404 0.21015413
vn 0.025453012 -0.91969603 0.39180544
vn -0.60373974 -0.08872062 -0.7922291
vn -0.2983239 -0.58889604 -0.7511354
vn -0.17694806 -0.92459786 -0.33735493
vn -0.53983116 -0.82833326 0.14982086
vn -0.4207997 -0.41725942 0.805495
vn -0.93212205 0.035158295 -0.36043355
vn -0.940094 0.33901128 0.035982564
vn -0.7687105 -0.55346054 -0.32057068
vn -0.91995937 -0.30439475 0.24701935
vn -0.76713496 0.22456154 0.60089594
g VoidRaidCrabFrontFootTargets.r_0
f 3/3/3 2/2/2 1/1/1
f 5/5/5 4/4/4 2/2/2
f 2/2/2 6/6/6 5/5/5
f 2/2/2 7/7/7 6/6/6
f 6/6/6 8/8/8 5/5/5
f 8/8/8 9/9/9 5/5/5
f 10/10/10 6/6/6 7/7/7
f 10/10/10 8/8/8 6/6/6
f 8/8/8 11/11/11 9/9/9
f 9/9/9 11/11/11 12/12/12
f 9/9/9 12/12/12 13/13/13
f 12/12/12 14/14/14 13/13/13
f 8/8/8 15/15/15 11/11/11
f 8/8/8 10/10/10 15/15/15
f 15/15/15 12/12/12 11/11/11
f 15/15/15 16/16/16 12/12/12
f 14/14/14 12/12/12 17/17/17
f 16/16/16 17/17/17 12/12/12
f 17/17/17 18/18/18 14/14/14
f 16/16/16 18/18/18 17/17/17
f 19/19/19 18/18/18 16/16/16
f 20/20/20 19/19/19 16/16/16
f 15/15/15 21/21/21 16/16/16
f 10/10/10 21/21/21 15/15/15
f 22/22/22 16/16/16 21/21/21
f 20/20/20 16/16/16 22/22/22
f 23/23/23 21/21/21 10/10/10
f 23/23/23 22/22/22 21/21/21
f 24/24/24 20/20/20 22/22/22
f 22/22/22 23/23/23 24/24/24
f 24/24/24 25/25/25 20/20/20
f 20/20/20 25/25/25 26/26/26
f 25/25/25 27/27/27 26/26/26
f 28/28/28 23/23/23 10/10/10
f 28/28/28 10/10/10 7/7/7
f 23/23/23 29/29/29 24/24/24
f 28/28/28 29/29/29 23/23/23
f 30/30/30 24/24/24 29/29/29
f 25/25/25 24/24/24 30/30/30
f 28/28/28 31/31/31 29/29/29
f 31/31/31 30/30/30 29/29/29
f 32/32/32 28/28/28 7/7/7
f 32/32/32 31/31/31 28/28/28
f 7/7/7 33/33/33 32/32/32
f 34/34/34 33/33/33 7/7/7
f 33/33/33 35/35/35 32/32/32
f 35/35/35 31/31/31 32/32/32
f 31/31/31 36/36/36 30/30/30
f 36/36/36 25/25/25 30/30/30
f 37/37/37 27/27/27 25/25/25
f 37/37/37 38/38/38 27/27/27
f 39/39/39 35/35/35 33/33/33
f 33/33/33 34/34/34 39/39/39
f 35/35/35 40/40/40 31/31/31
f 40/40/40 36/36/36 31/31/31
f 39/39/39 40/40/40 35/35/35
f 36/36/36 41/41/41 25/25/25
f 37/37/37 25/25/25 41/41/41
f 38/38/38 37/37/37 42/42/42
f 42/42/42 37/37/37 41/41/41
f 38/38/38 42/42/42 43/43/43
f 44/44/44 36/36/36 40/40/40
f 44/44/44 41/41/41 36/36/36
f 39/39/39 44/44/44 40/40/40
f 42/42/42 41/41/41 44/44/44
f 39/39/39 34/34/34 45/45/45
f 45/45/45 44/44/44 39/39/39
f 46/46/46 42/42/42 44/44/44
f 43/43/43 42/42/42 46/46/46
f 44/44/44 45/45/45 46/46/46
f 47/47/47 45/45/45 34/34/34
f 45/45/45 47/47/47 46/46/46
f 47/47/47 43/43/43 46/46/46
f 48/48/48 47/47/47 34/34/34
f 49/49/49 43/43/43 47/47/47
f 48/48/48 49/49/49 47/47/47
f 52/52/52 51/51/51 50/50/50
f 52/52/52 50/50/50 53/53/53
f 53/53/53 50/50/50 54/54/54
f 54/54/54 50/50/50 55/55/55
f 50/50/50 56/56/56 55/55/55
f 55/55/55 56/56/56 57/57/57
f 58/58/58 55/55/55 57/57/57
f 59/59/59 58/58/58 57/57/57
f 54/54/54 55/55/55 60/60/60
f 60/60/60 55/55/55 58/58/58
f 61/61/61 58/58/58 59/59/59
f 61/61/61 59/59/59 62/62/62
f 61/61/61 62/62/62 63/63/63
f 63/63/63 64/64/64 61/61/61
f 65/65/65 58/58/58 61/61/61
f 65/65/65 60/60/60 58/58/58
f 65/65/65 61/61/61 64/64/64
f 66/66/66 60/60/60 65/65/65
f 64/64/64 66/66/66 65/65/65
f 67/67/67 60/60/60 66/66/66
f 54/54/54 60/60/60 67/67/67
f 68/68/68 67/67/67 66/66/66
f 68/68/68 54/54/54 67/67/67
f 64/64/64 68/68/68 66/66/66
f 69/69/69 64/64/64 63/63/63
f 63/63/63 70/70/70 69/69/69
f 71/71/71 64/64/64 69/69/69
f 71/71/71 69/69/69 72/72/72
f 73/73/73 64/64/64 71/71/71
f 64/64/64 73/73/73 68/68/68
f 74/74/74 54/54/54 68/68/68
f 54/54/54 74/74/74 53/53/53
f 71/71/71 75/75/75 73/73/73
f 76/76/76 75/75/75 71/71/71
f 77/77/77 68/68/68 73/73/73
f 77/77/77 74/74/74 68/68/68
f 75/75/75 77/77/77 73/73/73
f 74/74/74 78/78/78 53/53/53
f 78/78/78 52/52/52 53/53/53
f 77/77/77 79/79/79 74/74/74
f 75/75/75 79/79/79 77/77/77
f 79/79/79 78/78/78 74/74/74
f 80/80/80 79/79/79 75/75/75
f 80/80/80 78/78/78 79/79/79
f 81/81/81 75/75/75 76/76/76
f 81/81/81 80/80/80 75/75/75
f 76/76/76 82/82/82 81/81/81
f 76/76/76 83/83/83 82/82/82
f 78/78/78 84/84/84 52/52/52
f 85/85/85 78/78/78 80/80/80
f 84/84/84 78/78/78 85/85/85
f 86/86/86 52/52/52 84/84/84
f 52/52/52 86/86/86 87/87/87
f 88/88/88 87/87/87 86/86/86
f 89/89/89 85/85/85 80/80/80
f 89/89/89 80/80/80 81/81/81
f 85/85/85 90/90/90 84/84/84
f 90/90/90 85/85/85 89/89/89
f 90/90/90 86/86/86 84/84/84
f 89/89/89 81/81/81 90/90/90
f 91/91/91 88/88/88 86/86/86
f 90/90/90 91/91/91 86/86/86
f 91/91/91 92/92/92 88/88/88
f 93/93/93 92/92/92 91/91/91
f 81/81/81 94/94/94 90/90/90
f 94/94/94 91/91/91 90/90/90
f 93/93/93 91/91/91 94/94/94
f 82/82/82 94/94/94 81/81/81
f 82/82/82 93/93/93 94/94/94
f 95/95/95 93/93/93 82/82/82
f 98/98/98 97/97/97 96/96/96
f 98/98/98 99/99/99 97/97/97
f 99/99/99 100/100/100 97/97/97
f 99/99/99 98/98/98 101/101/101
f 102/102/102 100/100/100 99/99/99
f 101/101/101 102/102/102 99/99/99
f 101/101/101 98/98/98 103/103/103
f 102/102/102 101/101/101 104/104/104
f 101/101/101 103/103/103 104/104/104
f 105/105/105 103/103/103 98/98/98
f 105/105/105 98/98/98 106/106/106
f 103/103/103 105/105/105 107/107/107
f 107/107/107 105/105/105 108/108/108
f 103/103/103 107/107/107 109/109/109
f 109/109/109 104/104/104 103/103/103
f 110/110/110 107/107/107 108/108/108
f 109/109/109 107/107/107 110/110/110
f 111/111/111 110/110/110 108/108/108
f 112/112/112 110/110/110 111/111/111
f 113/113/113 110/110/110 112/112/112
f 110/110/110 113/113/113 109/109/109
f 114/114/114 104/104/104 109/109/109
f 113/113/113 114/114/114 109/109/109
f 102/102/102 104/104/104 115/115/115
f 115/115/115 104/104/104 114/114/114
f 113/113/113 116/116/116 114/114/114
f 117/117/117 116/116/116 113/113/113
f 118/118/118 102/102/102 115/115/115
f 118/118/118 100/100/100 102/102/102
f 119/119/119 115/115/115 114/114/114
f 119/119/119 114/114/114 116/116/116
f 119/119/119 118/118/118 115/115/115
f 120/120/120 100/100/100 118/118/118
f 118/118/118 119/119/119 120/120/120
f 116/116/116 121/121/121 119/119/119
f 119/119/119 121/121/121 120/120/120
f 122/122/122 121/121/121 116/116/116
f 122/122/122 123/123/123 121/121/121
f 124/124/124 100/100/100 120/120/120
f 100/100/100 124/124/124 97/97/97
f 121/121/121 125/125/125 120/120/120
f 125/125/125 124/124/124 120/120/120
f 121/121/121 123/123/123 126/126/126
f 126/126/126 125/125/125 121/121/121
f 123/123/123 127/127/127 126/126/126
f 126/126/126 127/127/127 125/125/125
f 128/128/128 127/127/127 123/123/123
f 129/129/129 97/97/97 124/124/124
f 129/129/129 130/130/130 97/97/97
f 131/131/131 124/124/124 125/125/125
f 127/127/127 131/131/131 125/125/125
f 129/129/129 124/124/124 131/131/131
f 127/127/127 128/128/128 132/132/132
f 127/127/127 132/132/132 131/131/131
f 131/131/131 132/132/132 129/129/129
f 132/132/132 130/130/130 129/129/129
f 128/128/128 133/133/133 132/132/132
f 132/132/132 133/133/133 130/130/130
