g VoidFractureChunkMesh
v -0 1 -0.3576568
v 0.8660254 -0.50000006 -0.3576568
v -0 0 0.8423432
v 0.8660254 -0.50000006 -0.3576568
v -0.86602545 -0.4999999 -0.3576568
v -0 0 0.8423432
v -0.86602545 -0.4999999 -0.3576568
v -0 1 -0.3576568
v -0 0 0.8423432
v -0 1 -0.3576568
v -0.86602545 -0.4999999 -0.3576568
v 0.8660254 -0.50000006 -0.3576568
vt 0.47830114 0.49644923
vt 0.51621807 0.4307752
vt 0.47830114 0.45266655
vt 0.51621807 0.4307752
vt 0.44038427 0.4307752
vt 0.47830114 0.45266655
vt 0.44038427 0.4307752
vt 0.47830114 0.49644923
vt 0.47830114 0.45266655
vt 0.47830114 0.49644923
vt 0.44038427 0.4307752
vt 0.51621807 0.4307752
vn 0.7994081 0.46153846 0.3846154
vn 0.7994081 0.46153846 0.3846154
vn 0.7994081 0.46153846 0.3846154
vn -0 -0.92307687 0.38461542
vn -0 -0.92307687 0.38461542
vn -0 -0.92307687 0.38461542
vn -0.799408 0.46153846 0.3846154
vn -0.799408 0.46153846 0.3846154
vn -0.799408 0.46153846 0.3846154
vn -0 0 -1
vn -0 0 -1
vn -0 0 -1
g VoidFractureChunkMesh_0
f 3/3/3 2/2/2 1/1/1
f 6/6/6 5/5/5 4/4/4
f 9/9/9 8/8/8 7/7/7
f 12/12/12 11/11/11 10/10/10
