g VoidRaidCrabBackFootTargets.l
v -0.5902443 -0.016047955 0.85275936
v -0.46211433 0.5595665 0.7421355
v -0.028291225 0.33278942 0.9673662
v 0.5030446 -0.15799141 -0.8887911
v -0.04038191 -0.22600555 -0.994957
v 0.5541725 -0.64481926 -0.5954101
v -0.1233325 -0.70432234 -0.7335658
v -0.6234436 -0.3435669 -0.7549386
v -0.4040556 -0.9066043 -0.29586864
v -0.93593884 -0.32065725 -0.26621485
v 0.24371815 -0.9275131 -0.34555173
v -0.6751938 -0.7580285 0.15585065
v -1.0441751 0.037436962 0.048018217
v -0.101697445 -0.9781313 0.32625914
v -0.720418 -0.4975953 0.5346706
v -0.5902443 -0.016047955 0.85275936
v -0.8172016 0.3276682 0.51804495
v -0.20373249 -0.6052947 0.82125187
v 0.66804695 -0.779202 0.038058996
v 0.03203392 -0.17385721 1.0048695
v -0.028291225 0.33278942 0.9673662
v 0.40156794 -0.80722666 0.48601127
v 0.49511385 -0.3878312 0.81677675
v 0.8757086 -0.22371149 0.49742627
v 0.5366721 0.10368633 0.8587556
v 0.9488201 -0.344038 -0.12325072
v 0.56343603 0.54278183 0.68158674
v 0.91623545 0.13942003 -0.46083927
v 0.5030446 -0.15799141 -0.8887911
v 0.9955454 0.2709608 0.14442968
v 0.008385658 0.93036556 0.46827483
v -0.46211433 0.5595665 0.7421355
v 0.5603161 0.86742496 0.022073269
v 0.5493469 0.59968567 -0.62193084
v 0.15420103 0.41358566 -0.93881893
v -0.04038191 -0.22600555 -0.994957
v 0.2058444 0.97298145 -0.28026056
v -0.2545061 0.9218483 -0.37837267
v -0.7295313 0.704442 0.20211625
v -0.3116703 0.19992828 -0.95655704
v -0.6234436 -0.3435669 -0.7549386
v -0.686573 0.37734604 -0.6832931
v -0.93593884 -0.32065725 -0.26621485
v -1.0441751 0.037436962 0.048018217
v -0.68758774 0.69400024 -0.31149054
v -0.8172016 0.3276682 0.51804495
v -0.5902443 -0.016047955 0.85275936
v -1.6240215 1.5846004 8.649686
v -1.2112608 1.4829302 8.551503
v -1.532032 1.2676344 8.592912
v -1.3542528 1.9473639 8.543704
v -2.1289492 1.9106894 8.418268
v -2.184846 1.3938484 8.427905
v -2.4995956 1.5184393 7.7873945
v -2.2727356 2.157506 7.8858128
v -1.6711798 2.3787546 8.177407
v -2.344965 1.9792223 7.4732304
v -2.334116 1.3863668 7.243601
v -2.123293 2.160139 7.2838163
v -1.9657516 1.5967607 6.9098415
v -1.4499531 1.9900694 6.9345026
v -1.6631508 2.4737053 7.634447
v -1.019144 2.1412792 8.193293
v -0.8198776 1.3547611 8.229071
v -1.6424437 2.2644186 7.168977
v -1.081605 2.2946358 7.456216
v -0.7044382 1.823556 7.7523975
v -0.8448267 1.5605917 7.1933928
v -1.1358948 1.1184492 8.389789
v -1.532032 1.2676344 8.592912
v -0.8288126 1.0678835 7.5567913
v -1.379159 1.6714926 6.8696384
v -1.9657516 1.5967607 6.9098415
v -1.2366247 0.74046993 7.946723
v -1.5755262 0.92806625 8.37733
v -1.1897259 1.1106901 7.0513477
v -2.0019789 1.099205 8.399012
v -1.6240215 1.5846004 8.649686
v -2.184846 1.3938484 8.427905
v -1.9009285 0.75180244 7.9865437
v -1.5495863 0.67008686 7.587675
v -2.3024988 1.0163956 7.8708725
v -2.4995956 1.5184393 7.7873945
v -2.334116 1.3863668 7.243601
v -2.0540943 0.85488987 7.4385576
v -1.7542944 0.8896942 7.153754
v -1.9657516 1.5967607 6.9098415
v -1.6615267 1.2578459 6.897917
v -1.0244751 0.7990017 9.65893
v -0.83742046 1.0200491 9.595165
v -1.0293436 0.816 9.959735
v -0.7597666 0.9652405 10.21086
v -0.96106434 0.4429226 10.271164
v -0.583251 0.6308956 10.461002
v -0.5072851 0.07516384 10.295629
v -0.3447714 1.0206251 10.210696
v -0.22297668 0.5285044 10.424089
v -0.55780125 1.1606607 9.9090395
v -0.04153204 0.9591799 10.068318
v -0.02068901 0.22802639 10.152949
v -0.28618526 -0.08595133 9.905006
v 0.14096451 0.5400696 9.996807
v 0.048360348 0.16866875 9.838414
v -0.44600773 1.1294193 9.586213
v 0.019198895 0.8727875 9.574293
v 0.07005501 0.46897793 9.50707
v -0.12925673 0.10485411 9.478332
v -0.5613222 0.8255482 9.255158
v -0.20019436 0.5633459 9.258128
v -0.96248436 0.58536434 9.415989
v -1.0244751 0.7990017 9.65893
v -0.5908375 0.3440752 9.22339
v -0.6067352 -0.0126338005 9.508359
v -0.92418003 0.18030453 9.528626
v -0.28618526 -0.08595133 9.905006
v 0.048360348 0.16866875 9.838414
v -0.02068901 0.22802639 10.152949
v -0.78345394 -0.04093504 9.920195
v -0.5072851 0.07516384 10.295629
v -0.96106434 0.4429226 10.271164
v -1.111784 0.3997507 9.834276
v -1.0244751 0.7990017 9.65893
v -1.0293436 0.816 9.959735
vt 0.982775 0.9375
vt 0.85162294 0.8436262
vt 0.9218755 1
vt 0.51468503 0.10520793
vt 0.055110235 0.091679476
vt 0.35559693 0.20962004
vt 0.17600468 0.20278907
vt 0.037002698 0.2813502
vt 0.16485307 0.37560576
vt 0.041325253 0.46153998
vt 0.27665576 0.30531263
vt 0.14029032 0.5332649
vt 0.017194355 0.6079177
vt 0.2376361 0.527218
vt 0.12647401 0.6639067
vt 0.0924194 0.85167545
vt 0 0.7184553
vt 0.2350068 0.7232053
vt 0.36224842 0.41564474
vt 0.330414 0.84557444
vt 0.5771253 0.9232919
vt 0.32621956 0.55986017
vt 0.38354626 0.6938443
vt 0.4510638 0.56570697
vt 0.4814785 0.7539782
vt 0.45220143 0.37575138
vt 0.5816088 0.71437657
vt 0.5477853 0.31172484
vt 0.60295457 0.09651493
vt 0.54033256 0.49943185
vt 0.7163056 0.70925325
vt 0.85162294 0.8436262
vt 0.6485541 0.5337898
vt 0.6672492 0.31325394
vt 0.74309206 0.21010116
vt 0.9139831 0.092495635
vt 0.7214025 0.47481167
vt 0.79693735 0.46758088
vt 0.8770282 0.655727
vt 0.8894375 0.21936399
vt 0.99647933 0.28968573
vt 0.9101963 0.36387998
vt 1 0.47528458
vt 0.97064006 0.5640536
vt 0.87366855 0.50531507
vt 0.9555359 0.7532746
vt 1.0000001 0.8125
vt 0.87381834 0.9082521
vt 0.5060623 0.9087354
vt 0.60937464 1
vt 0.70765007 0.81226873
vt 0.89947027 0.68545794
vt 0.9882504 0.7182391
vt 0.99125755 0.46255448
vt 0.88678664 0.48707432
vt 0.7735127 0.61085385
vt 0.92221725 0.34501845
vt 0.9892374 0.27273822
vt 0.8617226 0.2677687
vt 0.93256104 0.10559285
vt 0.67142516 0.15953189
vt 0.75971174 0.428926
vt 0.6410687 0.6563436
vt 0.47445166 0.7078569
vt 0.7421875 0.2409783
vt 0.64544046 0.4026693
vt 0.54655474 0.53608453
vt 0.48537663 0.34663004
vt 0.3719014 0.8092259
vt 0.2523979 0.9222808
vt 0.405768 0.5012594
vt 0.49606878 0.11811733
vt 0.60937464 0
vt 0.3103515 0.61494696
vt 0.2232255 0.78229326
vt 0.3671501 0.29113942
vt 0.10505976 0.75289273
vt 0.038637817 0.90622026
vt 0.025898218 0.719949
vt 0.1823279 0.6046213
vt 0.25566527 0.48477176
vt 0.0972792 0.5312556
vt 0.015139268 0.45535964
vt 0.05983284 0.29361963
vt 0.16217259 0.40552616
vt 0.23053658 0.311204
vt 0.1032237 0.10872149
vt 0.2667566 0.15394813
vt 0.7968751 0
vt 0.5520596 0.13554072
vt 0.9277129 0.13232622
vt 0.8139723 0.27762726
vt 0.9687568 0.37019813
vt 0.8702254 0.47715986
vt 0.97455496 0.64668775
vt 0.74376434 0.4472755
vt 0.8361534 0.6500075
vt 0.6829268 0.27570516
vt 0.68047017 0.57348156
vt 0.85645294 0.87660795
vt 1.0000001 0.8374436
vt 0.6656105 0.780965
vt 0.6135938 0.9535943
vt 0.57839507 0.31404316
vt 0.5560678 0.5757928
vt 0.47973433 0.72589505
vt 0.33046532 0.7485017
vt 0.43459004 0.34601024
vt 0.42662734 0.5575198
vt 0.27965736 0.23093021
vt 0.2789334 0.06990778
vt 0.32659745 0.463595
vt 0.22623554 0.58133495
vt 0.20228422 0.3988586
vt 0.12200213 0.7865209
vt 0.3919574 0.9157443
vt 0.018239614 0.9375
vt 0.112696454 0.5482638
vt 0.018193701 0.6621176
vt 0.011805253 0.38273942
vt 0.10570181 0.2739812
vt 0.10982218 0.05599699
vt 0.007838645 0.10226901
vn -0.581238 -0.036623023 0.81290907
vn -0.41738668 0.56497973 0.7117487
vn -0.008545508 0.34298003 0.9393039
vn 0.4995359 -0.14835313 -0.85349584
vn -0.021272067 -0.24266027 -0.96987814
vn 0.5477102 -0.59593165 -0.587264
vn -0.10077304 -0.6789209 -0.7272627
vn -0.61808294 -0.33034414 -0.7133346
vn -0.39662006 -0.8718256 -0.28742442
vn -0.9070485 -0.32417044 -0.2686568
vn 0.21583241 -0.9317539 -0.29197803
vn -0.6755161 -0.72224134 0.14847682
vn -0.99821764 0.035981983 0.047609746
vn -0.08939076 -0.95198566 0.2928013
vn -0.72850126 -0.46267614 0.50518984
vn -0.581238 -0.036623023 0.81290907
vn -0.83130854 0.26157883 0.4904107
vn -0.19529408 -0.5934206 0.7808407
vn 0.6414871 -0.7653959 0.051608298
vn 0.026764993 -0.1593692 0.98685616
vn -0.008545508 0.34298003 0.9393039
vn 0.39778477 -0.792243 0.46272922
vn 0.46789482 -0.3997142 0.7882278
vn 0.85770625 -0.21729535 0.46596423
vn 0.53564256 0.113775596 0.836745
vn 0.93087286 -0.3392844 -0.13550623
vn 0.54978323 0.5363851 0.64033544
vn 0.8779696 0.14841373 -0.45512933
vn 0.4995359 -0.14835313 -0.85349584
vn 0.94637483 0.29332155 0.13541439
vn -0.006164815 0.9026571 0.4303163
vn -0.41738668 0.56497973 0.7117487
vn 0.5832214 0.81159633 0.034120433
vn 0.55950814 0.58303845 -0.5890813
vn 0.13568744 0.4357502 -0.8897813
vn -0.021272067 -0.24266027 -0.96987814
vn 0.17225179 0.9425933 -0.28608933
vn -0.24357842 0.89410764 -0.37582064
vn -0.679292 0.7133817 0.17218822
vn -0.3071447 0.23377669 -0.92250234
vn -0.61808294 -0.33034414 -0.7133346
vn -0.6677307 0.3625992 -0.6501211
vn -0.9070485 -0.32417044 -0.2686568
vn -0.99821764 0.035981983 0.047609746
vn -0.69063246 0.66319513 -0.28844258
vn -0.83130854 0.26157883 0.4904107
vn -0.581238 -0.036623023 0.81290907
vn -0.08890132 0.04672431 0.9949439
vn 0.46963045 -0.03119069 0.88231194
vn 0.029939106 -0.34773308 0.9371154
vn 0.25648767 0.42678764 0.8672176
vn -0.5828505 0.3878346 0.7140515
vn -0.672182 -0.17188327 0.720158
vn -0.9962191 -0.040467683 0.07687639
vn -0.7395633 0.64904433 0.17829111
vn -0.074923396 0.8830584 0.46324328
vn -0.8655404 0.39190423 -0.3118509
vn -0.80567306 -0.20780441 -0.55471474
vn -0.5646148 0.6346575 -0.52765536
vn -0.43932292 0.047945563 -0.8970489
vn 0.16291061 0.47112235 -0.8668932
vn -0.07004208 0.99404824 -0.08344011
vn 0.62036955 0.62952536 0.46780264
vn 0.84853196 -0.20020752 0.48980647
vn -0.07889253 0.76237345 -0.6423103
vn 0.5565884 0.77739865 -0.29301995
vn 0.96390814 0.26609406 0.00866736
vn 0.80370915 0.03903338 -0.59374076
vn 0.49102315 -0.5356727 0.68698686
vn 0.029939106 -0.34773308 0.9371154
vn 0.81380934 -0.55269206 -0.17957152
vn 0.26478225 0.077060305 -0.96122426
vn -0.43932292 0.047945563 -0.8970489
vn 0.4050822 -0.8892703 0.21238357
vn 0.0125739025 -0.7364583 0.67636603
vn 0.4328296 -0.52841717 -0.73036563
vn -0.4436886 -0.5407703 0.71463835
vn -0.08890132 0.04672431 0.9949439
vn -0.672182 -0.17188327 0.720158
vn -0.33208278 -0.903469 0.27104375
vn 0.078984156 -0.97689486 -0.19858962
vn -0.7993224 -0.5857201 0.13422245
vn -0.9962191 -0.040467683 0.07687639
vn -0.80567306 -0.20780441 -0.55471474
vn -0.54819244 -0.7652781 -0.3373938
vn -0.18430702 -0.7262412 -0.66227233
vn -0.43932292 0.047945563 -0.8970489
vn -0.11774251 -0.34800875 -0.93006814
vn -0.8815366 0.3902749 -0.26566648
vn -0.5543276 0.7573745 -0.34511566
vn -0.85149693 0.468598 0.23530614
vn -0.45507023 0.6714201 0.5848984
vn -0.722416 -0.15906519 0.67291415
vn -0.16285214 0.14914887 0.9753121
vn -0.050692286 -0.67401516 0.73697615
vn 0.20343979 0.75113416 0.6280204
vn 0.42034078 0.00067142217 0.90736604
vn -0.11667589 0.9830928 0.14112198
vn 0.66913986 0.6534223 0.35396504
vn 0.68238366 -0.474638 0.55594176
vn 0.28504872 -0.951434 0.1162779
vn 0.9633795 0.044923324 0.26435181
vn 0.83232117 -0.5542908 -0.0017701169
vn 0.13092746 0.91319615 -0.38591555
vn 0.7351712 0.55303407 -0.39201605
vn 0.871312 -0.09381482 -0.48167837
vn 0.5006387 -0.65338796 -0.5678423
vn -0.10346025 0.45324135 -0.88536334
vn 0.4225411 0.06320568 -0.90413725
vn -0.7397196 0.07706048 -0.66848826
vn -0.8815366 0.3902749 -0.26566648
vn -0.16028617 -0.29514998 -0.9419102
vn -0.15979877 -0.8466649 -0.5075656
vn -0.7031927 -0.5323158 -0.47133842
vn 0.28504872 -0.951434 0.1162779
vn 0.83232117 -0.5542908 -0.0017701169
vn 0.68238366 -0.474638 0.55594176
vn -0.48763976 -0.85707766 0.16620891
vn -0.050692286 -0.67401516 0.73697615
vn -0.722416 -0.15906519 0.67291415
vn -0.9748896 -0.2219015 0.018707966
vn -0.8815366 0.3902749 -0.26566648
vn -0.85149693 0.468598 0.23530614
g VoidRaidCrabBackFootTargets.l_0
f 3/3/3 2/2/2 1/1/1
f 6/6/6 5/5/5 4/4/4
f 7/7/7 5/5/5 6/6/6
f 7/7/7 8/8/8 5/5/5
f 8/8/8 7/7/7 9/9/9
f 8/8/8 9/9/9 10/10/10
f 7/7/7 6/6/6 11/11/11
f 9/9/9 7/7/7 11/11/11
f 10/10/10 9/9/9 12/12/12
f 13/13/13 10/10/10 12/12/12
f 9/9/9 11/11/11 14/14/14
f 12/12/12 9/9/9 14/14/14
f 15/15/15 13/13/13 12/12/12
f 14/14/14 15/15/15 12/12/12
f 13/13/13 15/15/15 16/16/16
f 17/17/17 13/13/13 16/16/16
f 18/18/18 16/16/16 15/15/15
f 15/15/15 14/14/14 18/18/18
f 14/14/14 11/11/11 19/19/19
f 19/19/19 11/11/11 6/6/6
f 20/20/20 16/16/16 18/18/18
f 16/16/16 20/20/20 21/21/21
f 18/18/18 14/14/14 22/22/22
f 14/14/14 19/19/19 22/22/22
f 18/18/18 23/23/23 20/20/20
f 18/18/18 22/22/22 23/23/23
f 22/22/22 19/19/19 24/24/24
f 23/23/23 22/22/22 24/24/24
f 20/20/20 23/23/23 25/25/25
f 21/21/21 20/20/20 25/25/25
f 23/23/23 24/24/24 25/25/25
f 19/19/19 6/6/6 26/26/26
f 24/24/24 19/19/19 26/26/26
f 25/25/25 27/27/27 21/21/21
f 25/25/25 24/24/24 27/27/27
f 6/6/6 28/28/28 26/26/26
f 28/28/28 6/6/6 29/29/29
f 24/24/24 26/26/26 30/30/30
f 27/27/27 24/24/24 30/30/30
f 26/26/26 28/28/28 30/30/30
f 27/27/27 31/31/31 21/21/21
f 31/31/31 32/32/32 21/21/21
f 27/27/27 30/30/30 33/33/33
f 33/33/33 30/30/30 28/28/28
f 27/27/27 33/33/33 31/31/31
f 28/28/28 29/29/29 34/34/34
f 34/34/34 33/33/33 28/28/28
f 29/29/29 35/35/35 34/34/34
f 29/29/29 36/36/36 35/35/35
f 33/33/33 34/34/34 37/37/37
f 33/33/33 37/37/37 31/31/31
f 34/34/34 35/35/35 37/37/37
f 31/31/31 37/37/37 38/38/38
f 38/38/38 37/37/37 35/35/35
f 31/31/31 39/39/39 32/32/32
f 39/39/39 31/31/31 38/38/38
f 35/35/35 36/36/36 40/40/40
f 40/40/40 36/36/36 41/41/41
f 35/35/35 40/40/40 42/42/42
f 41/41/41 42/42/42 40/40/40
f 38/38/38 35/35/35 42/42/42
f 42/42/42 41/41/41 43/43/43
f 44/44/44 42/42/42 43/43/43
f 38/38/38 42/42/42 45/45/45
f 44/44/44 45/45/45 42/42/42
f 39/39/39 38/38/38 45/45/45
f 39/39/39 45/45/45 44/44/44
f 39/39/39 44/44/44 46/46/46
f 32/32/32 39/39/39 46/46/46
f 46/46/46 47/47/47 32/32/32
f 50/50/50 49/49/49 48/48/48
f 48/48/48 49/49/49 51/51/51
f 51/51/51 52/52/52 48/48/48
f 52/52/52 53/53/53 48/48/48
f 53/53/53 52/52/52 54/54/54
f 52/52/52 55/55/55 54/54/54
f 52/52/52 51/51/51 56/56/56
f 56/56/56 55/55/55 52/52/52
f 54/54/54 55/55/55 57/57/57
f 54/54/54 57/57/57 58/58/58
f 59/59/59 58/58/58 57/57/57
f 59/59/59 57/57/57 55/55/55
f 59/59/59 60/60/60 58/58/58
f 60/60/60 59/59/59 61/61/61
f 56/56/56 62/62/62 55/55/55
f 62/62/62 59/59/59 55/55/55
f 51/51/51 63/63/63 56/56/56
f 62/62/62 56/56/56 63/63/63
f 49/49/49 64/64/64 51/51/51
f 64/64/64 63/63/63 51/51/51
f 62/62/62 65/65/65 59/59/59
f 59/59/59 65/65/65 61/61/61
f 66/66/66 65/65/65 62/62/62
f 66/66/66 62/62/62 63/63/63
f 66/66/66 61/61/61 65/65/65
f 63/63/63 67/67/67 66/66/66
f 63/63/63 64/64/64 67/67/67
f 68/68/68 61/61/61 66/66/66
f 68/68/68 66/66/66 67/67/67
f 49/49/49 69/69/69 64/64/64
f 49/49/49 70/70/70 69/69/69
f 64/64/64 71/71/71 67/67/67
f 67/67/67 71/71/71 68/68/68
f 68/68/68 72/72/72 61/61/61
f 61/61/61 72/72/72 73/73/73
f 69/69/69 74/74/74 64/64/64
f 64/64/64 74/74/74 71/71/71
f 70/70/70 75/75/75 69/69/69
f 75/75/75 74/74/74 69/69/69
f 71/71/71 76/76/76 68/68/68
f 68/68/68 76/76/76 72/72/72
f 77/77/77 75/75/75 70/70/70
f 78/78/78 77/77/77 70/70/70
f 79/79/79 77/77/77 78/78/78
f 75/75/75 80/80/80 74/74/74
f 77/77/77 80/80/80 75/75/75
f 74/74/74 81/81/81 71/71/71
f 81/81/81 76/76/76 71/71/71
f 80/80/80 81/81/81 74/74/74
f 79/79/79 82/82/82 77/77/77
f 82/82/82 80/80/80 77/77/77
f 79/79/79 83/83/83 82/82/82
f 83/83/83 84/84/84 82/82/82
f 80/80/80 82/82/82 85/85/85
f 80/80/80 85/85/85 81/81/81
f 84/84/84 85/85/85 82/82/82
f 81/81/81 85/85/85 86/86/86
f 84/84/84 86/86/86 85/85/85
f 86/86/86 76/76/76 81/81/81
f 86/86/86 84/84/84 87/87/87
f 86/86/86 88/88/88 76/76/76
f 86/86/86 87/87/87 88/88/88
f 76/76/76 88/88/88 72/72/72
f 87/87/87 72/72/72 88/88/88
f 91/91/91 90/90/90 89/89/89
f 92/92/92 90/90/90 91/91/91
f 93/93/93 92/92/92 91/91/91
f 92/92/92 93/93/93 94/94/94
f 95/95/95 94/94/94 93/93/93
f 96/96/96 92/92/92 94/94/94
f 97/97/97 94/94/94 95/95/95
f 97/97/97 96/96/96 94/94/94
f 96/96/96 98/98/98 92/92/92
f 92/92/92 98/98/98 90/90/90
f 96/96/96 99/99/99 98/98/98
f 97/97/97 99/99/99 96/96/96
f 97/97/97 95/95/95 100/100/100
f 101/101/101 100/100/100 95/95/95
f 102/102/102 97/97/97 100/100/100
f 102/102/102 99/99/99 97/97/97
f 100/100/100 103/103/103 102/102/102
f 99/99/99 104/104/104 98/98/98
f 104/104/104 90/90/90 98/98/98
f 105/105/105 99/99/99 102/102/102
f 105/105/105 104/104/104 99/99/99
f 106/106/106 102/102/102 103/103/103
f 102/102/102 106/106/106 105/105/105
f 107/107/107 106/106/106 103/103/103
f 90/90/90 104/104/104 108/108/108
f 105/105/105 108/108/108 104/104/104
f 106/106/106 109/109/109 105/105/105
f 106/106/106 107/107/107 109/109/109
f 109/109/109 108/108/108 105/105/105
f 110/110/110 90/90/90 108/108/108
f 90/90/90 110/110/110 111/111/111
f 112/112/112 108/108/108 109/109/109
f 112/112/112 109/109/109 107/107/107
f 112/112/112 110/110/110 108/108/108
f 113/113/113 112/112/112 107/107/107
f 114/114/114 110/110/110 112/112/112
f 113/113/113 114/114/114 112/112/112
f 115/115/115 113/113/113 107/107/107
f 115/115/115 107/107/107 116/116/116
f 116/116/116 117/117/117 115/115/115
f 115/115/115 118/118/118 113/113/113
f 118/118/118 114/114/114 113/113/113
f 115/115/115 119/119/119 118/118/118
f 120/120/120 118/118/118 119/119/119
f 114/114/114 121/121/121 110/110/110
f 118/118/118 121/121/121 114/114/114
f 118/118/118 120/120/120 121/121/121
f 110/110/110 121/121/121 122/122/122
f 120/120/120 123/123/123 121/121/121
f 121/121/121 123/123/123 122/122/122
