g VultureEggMesh
v -1.1453449E-08 0.026677622 0.18475278
v -1.3411045E-08 -5.960464E-08 0.19270514
v -0.013338868 0.02310348 0.18475278
v 0.023103531 -0.0133388955 0.18475278
v -1.3411045E-08 -5.960464E-08 0.19270514
v 0.026677664 -5.537733E-08 0.18475278
v 0.0532289 -0.03073178 0.15174499
v 0.03073172 -0.053228952 0.15174499
v 0.013338828 -0.023103599 0.18475278
v -1.3411045E-08 -5.960464E-08 0.19270514
v 0.061463434 -5.082018E-08 0.15174499
v 0.023103531 0.013338783 0.18475278
v -1.3411045E-08 -5.960464E-08 0.19270514
v 0.03988751 -0.06908723 0.09092356
v 0.06908718 -0.03988756 0.09092356
v -4.753727E-10 -0.06146351 0.15174499
v 2.6740687E-09 -0.07977507 0.09092356
v -7.4252307E-09 -0.026677735 0.18475278
v -1.3411045E-08 -5.960464E-08 0.19270514
v 0.0532289 0.030731672 0.15174499
v 0.079775 -4.8380688E-08 0.09092356
v 0.013338826 0.023103494 0.18475278
v -1.3411045E-08 -5.960464E-08 0.19270514
v 0.07416837 -0.042821184 0.032472167
v 0.042821135 -0.07416842 0.032472167
v 0.08564225 -4.7628255E-08 0.032472167
v -0.039887503 -0.06908725 0.09092356
v 3.7181433E-09 -0.08564232 0.032472167
v -0.030731725 -0.05322897 0.15174499
v -0.013338845 -0.023103606 0.18475278
v -1.3411045E-08 -5.960464E-08 0.19270514
v 0.078504965 -0.045324918 -0.09064974
v 0.09064972 -4.6986088E-08 -0.09064974
v 0.04532487 -0.07850501 -0.09064974
v 0.07416837 0.042821087 0.032472167
v 0.078504965 0.045324825 -0.09064974
v 0.06908718 0.03988746 0.09092356
v 0.030731715 0.053228863 0.15174499
v -1.1453449E-08 0.026677622 0.18475278
v -1.3411045E-08 -5.960464E-08 0.19270514
v -9.756097E-09 0.0614634 0.15174499
v 0.0398875 0.06908715 0.09092356
v -9.371626E-09 0.07977497 0.09092356
v -9.213482E-09 0.08564222 0.032472167
v 0.04282112 0.07416834 0.032472167
v -9.219355E-09 0.090649694 -0.09064974
v 0.04532486 0.07850494 -0.09064974
v 0.035751175 0.061922826 -0.13118772
v -9.554969E-09 0.07150232 -0.13118772
v 0.061922856 0.035751138 -0.13118772
v 0.014463701 0.025051834 -0.15625678
v -1.0224354E-08 0.028927373 -0.15625678
v -1.0430812E-08 -5.960464E-08 -0.1608957
v 0.025051873 0.014463659 -0.15625678
v -1.0430812E-08 -5.960464E-08 -0.1608957
v 0.07150235 -4.949197E-08 -0.13118772
v 0.028927414 -5.5217644E-08 -0.15625678
v -1.0430812E-08 -5.960464E-08 -0.1608957
v 0.061922856 -0.035751235 -0.13118772
v 0.025051873 -0.014463769 -0.15625678
v -1.0430812E-08 -5.960464E-08 -0.1608957
v 0.035751186 -0.061922904 -0.13118772
v 0.014463707 -0.025051938 -0.15625678
v -1.0430812E-08 -5.960464E-08 -0.1608957
v -5.8564336E-09 -0.028927485 -0.15625678
v -1.0430812E-08 -5.960464E-08 -0.1608957
v 1.2415894E-09 -0.07150242 -0.13118772
v 4.4683754E-09 -0.09064979 -0.09064974
v -0.014463716 -0.025051944 -0.15625678
v -1.0430812E-08 -5.960464E-08 -0.1608957
v -0.03575118 -0.061922926 -0.13118772
v -0.042821128 -0.074168436 0.032472167
v -0.02505189 -0.014463779 -0.15625678
v -1.0430812E-08 -5.960464E-08 -0.1608957
v -0.04532486 -0.07850503 -0.09064974
v -0.069087185 -0.03988758 0.09092356
v -0.061922856 -0.035751257 -0.13118772
v -0.07416838 -0.042821206 0.032472167
v -0.053228907 -0.030731792 0.15174499
v -0.028927438 -6.7401906E-08 -0.15625678
v -1.0430812E-08 -5.960464E-08 -0.1608957
v -0.078504965 -0.045324944 -0.09064974
v -0.07977503 -8.1982E-08 0.09092356
v -0.023103554 -0.013338902 0.18475278
v -1.3411045E-08 -5.960464E-08 0.19270514
v -0.07150237 -7.960883E-08 -0.13118772
v -0.08564227 -8.370086E-08 0.032472167
v -0.06146346 -7.6708645E-08 0.15174499
v -0.025051905 0.014463642 -0.15625678
v -1.0430812E-08 -5.960464E-08 -0.1608957
v -0.09064974 -8.516784E-08 -0.09064974
v -0.06908722 0.03988742 0.09092356
v -0.026677687 -6.661399E-08 0.18475278
v -1.3411045E-08 -5.960464E-08 0.19270514
v -0.061922897 0.0357511 -0.13118772
v -0.07416841 0.042821046 0.032472167
v -0.053228937 0.03073164 0.15174499
v -0.014463737 0.02505182 -0.15625678
v -1.0430812E-08 -5.960464E-08 -0.1608957
v -0.07850501 0.045324776 -0.09064974
v -0.039887566 0.06908711 0.09092356
v -0.023103567 0.013338768 0.18475278
v -1.3411045E-08 -5.960464E-08 0.19270514
v -0.035751235 0.061922785 -0.13118772
v -0.042821195 0.0741683 0.032472167
v -0.030731771 0.053228833 0.15174499
v -1.0224354E-08 0.028927373 -0.15625678
v -1.0430812E-08 -5.960464E-08 -0.1608957
v -9.554969E-09 0.07150232 -0.13118772
v -0.04532493 0.07850489 -0.09064974
v -9.219355E-09 0.090649694 -0.09064974
v -9.213482E-09 0.08564222 0.032472167
v -9.371626E-09 0.07977497 0.09092356
v -9.756097E-09 0.0614634 0.15174499
v -0.013338868 0.02310348 0.18475278
v -1.3411045E-08 -5.960464E-08 0.19270514
v -1.1453449E-08 0.026677622 0.18475278
vt 1 0.98794067
vt 0.51294875 1.0105469
vt 0.08333355 0.98794067
vt 0.66666645 0.98794067
vt 0.51294875 1.0105469
vt 0.74999976 0.98794067
vt 0.66666657 0.89410853
vt 0.5833333 0.89410853
vt 0.58333325 0.98794067
vt 0.51294875 1.0105469
vt 0.7499999 0.89410853
vt 0.83333313 0.98794067
vt 0.51294875 1.0105469
vt 0.5833333 0.7212101
vt 0.66666657 0.7212101
vt 0.50000006 0.89410853
vt 0.5 0.7212101
vt 0.50000006 0.98794067
vt 0.51294875 1.0105469
vt 0.83333325 0.89410853
vt 0.7499999 0.7212101
vt 0.9166665 0.98794067
vt 0.51294875 1.0105469
vt 0.66666657 0.55504906
vt 0.5833333 0.55504906
vt 0.7499999 0.55504906
vt 0.41666675 0.7212101
vt 0.5 0.55504906
vt 0.41666678 0.89410883
vt 0.41666687 0.98794067
vt 0.51294875 1.0105469
vt 0.66666657 0.20504785
vt 0.7499999 0.20504785
vt 0.58333325 0.20504785
vt 0.83333325 0.55504906
vt 0.83333325 0.20504785
vt 0.83333325 0.7212101
vt 0.9166666 0.89410853
vt 1 0.98794067
vt 0.51294875 1.0105469
vt 1 0.89410853
vt 0.9166666 0.7212101
vt 1 0.7212101
vt 1 0.55504906
vt 0.9166666 0.55504906
vt 1 0.20504785
vt 0.9166666 0.20504785
vt 0.9166666 0.08980957
vt 1.0000001 0.08980957
vt 0.83333325 0.08980957
vt 0.9166666 0.01854521
vt 1.0000001 0.01854521
vt 0.44924217 0.0053581
vt 0.8333331 0.01854521
vt 0.44924217 0.0053581
vt 0.7499999 0.08980957
vt 0.74999964 0.01854521
vt 0.44924217 0.0053581
vt 0.6666665 0.08980957
vt 0.66666627 0.01854521
vt 0.44924217 0.0053581
vt 0.58333325 0.08980957
vt 0.583333 0.01854521
vt 0.44924217 0.0053581
vt 0.49999988 0.01854521
vt 0.44924217 0.0053581
vt 0.49999997 0.08980957
vt 0.5 0.20504785
vt 0.4166668 0.01854521
vt 0.44924217 0.0053581
vt 0.41666675 0.08980957
vt 0.41666675 0.55504906
vt 0.33333367 0.01854521
vt 0.44924217 0.0053581
vt 0.41666675 0.20504785
vt 0.33333346 0.7212101
vt 0.3333335 0.08980957
vt 0.33333346 0.55504906
vt 0.3333335 0.89410853
vt 0.25000048 0.01854521
vt 0.44924217 0.0053581
vt 0.33333346 0.20504785
vt 0.25000015 0.7212101
vt 0.3333336 0.98794067
vt 0.51294875 1.0105469
vt 0.2500002 0.08980957
vt 0.25000015 0.55504906
vt 0.25000018 0.89410853
vt 0.16666716 0.01854521
vt 0.44924217 0.0053581
vt 0.25000018 0.20504785
vt 0.1666668 0.7212101
vt 0.2500003 0.98794067
vt 0.51294875 1.0105469
vt 0.1666669 0.08980957
vt 0.1666668 0.55504906
vt 0.16666687 0.89410853
vt 0.08333373 0.01854521
vt 0.44924217 0.0053581
vt 0.16666687 0.20504785
vt 0.08333349 0.7212101
vt 0.16666698 0.98794067
vt 0.51294875 1.0105469
vt 0.08333355 0.08980957
vt 0.08333349 0.55504906
vt 0.08333349 0.89410853
vt 1.4901161E-07 0.01854521
vt 0.44924217 0.0053581
vt 8.940697E-08 0.08980957
vt 0.08333355 0.20504785
vt 5.9604645E-08 0.20504785
vt 5.9604645E-08 0.55504906
vt 0 0.7212101
vt 0 0.89410853
vt 0.08333355 0.98794067
vt 0.51294875 1.0105469
vt 0 0.98794067
vn -0 0.52858543 0.8488801
vn -0 0 1
vn -0.26429477 0.4577549 0.8488867
vn 0.4577549 -0.26429477 0.8488867
vn -0 0 1
vn 0.52858543 0 0.8488801
vn 0.74681115 -0.43117896 0.5063178
vn 0.43117896 -0.74681115 0.5063178
vn 0.26429477 -0.4577549 0.8488867
vn -0 0 1
vn 0.86234975 0 0.5063131
vn 0.4577549 0.26429477 0.8488867
vn -0 0 1
vn 0.49069345 -0.84990865 0.19202906
vn 0.84990865 -0.49069345 0.19202906
vn -0 -0.86234975 0.5063131
vn -0 -0.9813903 0.19202375
vn -0 -0.52858543 0.8488801
vn -0 0 1
vn 0.74681115 0.43117896 0.5063178
vn 0.9813903 0 0.19202375
vn 0.26429477 0.4577549 0.8488867
vn -0 0 1
vn 0.8639067 -0.4987751 0.06991946
vn 0.4987751 -0.8639067 0.06991946
vn 0.9975527 0 0.06991963
vn -0.49069345 -0.84990865 0.19202906
vn -0 -0.9975527 0.06991963
vn -0.43117896 -0.74681115 0.5063178
vn -0.26429477 -0.4577549 0.8488867
vn -0 0 1
vn 0.84996766 -0.4907228 -0.19169289
vn 0.98145574 0 -0.19168893
vn 0.4907228 -0.84996766 -0.19169289
vn 0.8639067 0.4987751 0.06991946
vn 0.84996766 0.4907228 -0.19169289
vn 0.84990865 0.49069345 0.19202906
vn 0.43117896 0.74681115 0.5063178
vn -0 0.52858543 0.8488801
vn -0 0 1
vn -0 0.86234975 0.5063131
vn 0.49069345 0.84990865 0.19202906
vn -0 0.9813903 0.19202375
vn -0 0.9975527 0.06991963
vn 0.4987751 0.8639067 0.06991946
vn -0 0.98145574 -0.19168893
vn 0.4907228 0.84996766 -0.19169289
vn 0.37956858 0.65744686 -0.6509157
vn -0 0.75915754 -0.650907
vn 0.65744686 0.37956858 -0.6509157
vn 0.1827511 0.3165183 -0.93081594
vn -0 0.36550033 -0.93081117
vn -0 0 -1
vn 0.3165183 0.1827511 -0.93081594
vn -0 0 -1
vn 0.75915754 0 -0.650907
vn 0.36550033 0 -0.93081117
vn -0 0 -1
vn 0.65744686 -0.37956858 -0.6509157
vn 0.3165183 -0.1827511 -0.93081594
vn -0 0 -1
vn 0.37956858 -0.65744686 -0.6509157
vn 0.1827511 -0.3165183 -0.93081594
vn -0 0 -1
vn -0 -0.36550033 -0.93081117
vn -0 0 -1
vn -0 -0.75915754 -0.650907
vn -0 -0.98145574 -0.19168893
vn -0.1827511 -0.3165183 -0.93081594
vn -0 0 -1
vn -0.37956858 -0.65744686 -0.6509157
vn -0.4987751 -0.8639067 0.06991946
vn -0.3165183 -0.1827511 -0.93081594
vn -0 0 -1
vn -0.4907228 -0.84996766 -0.19169289
vn -0.84990865 -0.49069345 0.19202906
vn -0.65744686 -0.37956858 -0.6509157
vn -0.8639067 -0.4987751 0.06991946
vn -0.74681115 -0.43117896 0.5063178
vn -0.36550033 0 -0.93081117
vn -0 0 -1
vn -0.84996766 -0.4907228 -0.19169289
vn -0.9813903 0 0.19202375
vn -0.4577549 -0.26429477 0.8488867
vn -0 0 1
vn -0.75915754 0 -0.650907
vn -0.9975527 0 0.06991963
vn -0.86234975 0 0.5063131
vn -0.3165183 0.1827511 -0.93081594
vn -0 0 -1
vn -0.98145574 0 -0.19168893
vn -0.84990865 0.49069345 0.19202906
vn -0.52858543 0 0.8488801
vn -0 0 1
vn -0.65744686 0.37956858 -0.6509157
vn -0.8639067 0.4987751 0.06991946
vn -0.74681115 0.43117896 0.5063178
vn -0.1827511 0.3165183 -0.93081594
vn -0 0 -1
vn -0.84996766 0.4907228 -0.19169289
vn -0.49069345 0.84990865 0.19202906
vn -0.4577549 0.26429477 0.8488867
vn -0 0 1
vn -0.37956858 0.65744686 -0.6509157
vn -0.4987751 0.8639067 0.06991946
vn -0.43117896 0.74681115 0.5063178
vn -0 0.36550033 -0.93081117
vn -0 0 -1
vn -0 0.75915754 -0.650907
vn -0.4907228 0.84996766 -0.19169289
vn -0 0.98145574 -0.19168893
vn -0 0.9975527 0.06991963
vn -0 0.9813903 0.19202375
vn -0 0.86234975 0.5063131
vn -0.26429477 0.4577549 0.8488867
vn -0 0 1
vn -0 0.52858543 0.8488801
g VultureEggMesh_0
f 3/3/3 2/2/2 1/1/1
f 6/6/6 5/5/5 4/4/4
f 6/6/6 4/4/4 7/7/7
f 7/7/7 4/4/4 8/8/8
f 4/4/4 9/9/9 8/8/8
f 4/4/4 10/10/10 9/9/9
f 11/11/11 6/6/6 7/7/7
f 12/12/12 6/6/6 11/11/11
f 12/12/12 13/13/13 6/6/6
f 7/7/7 8/8/8 14/14/14
f 11/11/11 7/7/7 15/15/15
f 15/15/15 7/7/7 14/14/14
f 8/8/8 9/9/9 16/16/16
f 14/14/14 8/8/8 17/17/17
f 8/8/8 16/16/16 17/17/17
f 9/9/9 18/18/18 16/16/16
f 9/9/9 19/19/19 18/18/18
f 20/20/20 12/12/12 11/11/11
f 21/21/21 11/11/11 15/15/15
f 20/20/20 11/11/11 21/21/21
f 22/22/22 12/12/12 20/20/20
f 22/22/22 23/23/23 12/12/12
f 15/15/15 14/14/14 24/24/24
f 14/14/14 17/17/17 25/25/25
f 14/14/14 25/25/25 24/24/24
f 21/21/21 15/15/15 26/26/26
f 15/15/15 24/24/24 26/26/26
f 17/17/17 16/16/16 27/27/27
f 17/17/17 28/28/28 25/25/25
f 17/17/17 27/27/27 28/28/28
f 16/16/16 29/29/29 27/27/27
f 16/16/16 18/18/18 29/29/29
f 18/18/18 30/30/30 29/29/29
f 18/18/18 31/31/31 30/30/30
f 24/24/24 25/25/25 32/32/32
f 26/26/26 24/24/24 33/33/33
f 24/24/24 32/32/32 33/33/33
f 25/25/25 28/28/28 34/34/34
f 25/25/25 34/34/34 32/32/32
f 21/21/21 26/26/26 35/35/35
f 26/26/26 33/33/33 36/36/36
f 35/35/35 26/26/26 36/36/36
f 37/37/37 21/21/21 35/35/35
f 37/37/37 20/20/20 21/21/21
f 38/38/38 20/20/20 37/37/37
f 38/38/38 22/22/22 20/20/20
f 39/39/39 22/22/22 38/38/38
f 39/39/39 40/40/40 22/22/22
f 41/41/41 39/39/39 38/38/38
f 41/41/41 38/38/38 42/42/42
f 42/42/42 38/38/38 37/37/37
f 43/43/43 41/41/41 42/42/42
f 43/43/43 42/42/42 44/44/44
f 42/42/42 37/37/37 45/45/45
f 42/42/42 45/45/45 44/44/44
f 37/37/37 35/35/35 45/45/45
f 44/44/44 45/45/45 46/46/46
f 45/45/45 35/35/35 47/47/47
f 45/45/45 47/47/47 46/46/46
f 35/35/35 36/36/36 47/47/47
f 47/47/47 48/48/48 46/46/46
f 48/48/48 49/49/49 46/46/46
f 36/36/36 50/50/50 47/47/47
f 50/50/50 48/48/48 47/47/47
f 48/48/48 51/51/51 49/49/49
f 51/51/51 52/52/52 49/49/49
f 51/51/51 53/53/53 52/52/52
f 54/54/54 51/51/51 48/48/48
f 50/50/50 54/54/54 48/48/48
f 54/54/54 55/55/55 51/51/51
f 56/56/56 50/50/50 36/36/36
f 33/33/33 56/56/56 36/36/36
f 57/57/57 54/54/54 50/50/50
f 56/56/56 57/57/57 50/50/50
f 57/57/57 58/58/58 54/54/54
f 59/59/59 56/56/56 33/33/33
f 32/32/32 59/59/59 33/33/33
f 60/60/60 57/57/57 56/56/56
f 59/59/59 60/60/60 56/56/56
f 60/60/60 61/61/61 57/57/57
f 62/62/62 59/59/59 32/32/32
f 34/34/34 62/62/62 32/32/32
f 63/63/63 60/60/60 59/59/59
f 62/62/62 63/63/63 59/59/59
f 63/63/63 64/64/64 60/60/60
f 65/65/65 63/63/63 62/62/62
f 65/65/65 66/66/66 63/63/63
f 67/67/67 62/62/62 34/34/34
f 67/67/67 65/65/65 62/62/62
f 68/68/68 67/67/67 34/34/34
f 28/28/28 68/68/68 34/34/34
f 69/69/69 65/65/65 67/67/67
f 69/69/69 70/70/70 65/65/65
f 71/71/71 69/69/69 67/67/67
f 71/71/71 67/67/67 68/68/68
f 28/28/28 72/72/72 68/68/68
f 27/27/27 72/72/72 28/28/28
f 73/73/73 69/69/69 71/71/71
f 73/73/73 74/74/74 69/69/69
f 75/75/75 71/71/71 68/68/68
f 72/72/72 75/75/75 68/68/68
f 27/27/27 76/76/76 72/72/72
f 27/27/27 29/29/29 76/76/76
f 77/77/77 73/73/73 71/71/71
f 77/77/77 71/71/71 75/75/75
f 72/72/72 78/78/78 75/75/75
f 76/76/76 78/78/78 72/72/72
f 29/29/29 79/79/79 76/76/76
f 29/29/29 30/30/30 79/79/79
f 80/80/80 73/73/73 77/77/77
f 80/80/80 81/81/81 73/73/73
f 82/82/82 77/77/77 75/75/75
f 78/78/78 82/82/82 75/75/75
f 76/76/76 83/83/83 78/78/78
f 76/76/76 79/79/79 83/83/83
f 30/30/30 84/84/84 79/79/79
f 30/30/30 85/85/85 84/84/84
f 86/86/86 80/80/80 77/77/77
f 86/86/86 77/77/77 82/82/82
f 78/78/78 87/87/87 82/82/82
f 83/83/83 87/87/87 78/78/78
f 79/79/79 88/88/88 83/83/83
f 79/79/79 84/84/84 88/88/88
f 89/89/89 80/80/80 86/86/86
f 89/89/89 90/90/90 80/80/80
f 91/91/91 86/86/86 82/82/82
f 87/87/87 91/91/91 82/82/82
f 83/83/83 92/92/92 87/87/87
f 83/83/83 88/88/88 92/92/92
f 84/84/84 93/93/93 88/88/88
f 84/84/84 94/94/94 93/93/93
f 95/95/95 89/89/89 86/86/86
f 95/95/95 86/86/86 91/91/91
f 87/87/87 96/96/96 91/91/91
f 92/92/92 96/96/96 87/87/87
f 88/88/88 97/97/97 92/92/92
f 88/88/88 93/93/93 97/97/97
f 98/98/98 89/89/89 95/95/95
f 98/98/98 99/99/99 89/89/89
f 100/100/100 95/95/95 91/91/91
f 96/96/96 100/100/100 91/91/91
f 92/92/92 101/101/101 96/96/96
f 92/92/92 97/97/97 101/101/101
f 93/93/93 102/102/102 97/97/97
f 93/93/93 103/103/103 102/102/102
f 104/104/104 98/98/98 95/95/95
f 104/104/104 95/95/95 100/100/100
f 96/96/96 105/105/105 100/100/100
f 101/101/101 105/105/105 96/96/96
f 97/97/97 102/102/102 106/106/106
f 97/97/97 106/106/106 101/101/101
f 107/107/107 98/98/98 104/104/104
f 107/107/107 108/108/108 98/98/98
f 109/109/109 107/107/107 104/104/104
f 110/110/110 104/104/104 100/100/100
f 109/109/109 104/104/104 110/110/110
f 105/105/105 110/110/110 100/100/100
f 111/111/111 109/109/109 110/110/110
f 112/112/112 111/111/111 110/110/110
f 105/105/105 112/112/112 110/110/110
f 113/113/113 112/112/112 105/105/105
f 101/101/101 113/113/113 105/105/105
f 101/101/101 106/106/106 113/113/113
f 106/106/106 114/114/114 113/113/113
f 102/102/102 115/115/115 106/106/106
f 106/106/106 115/115/115 114/114/114
f 102/102/102 116/116/116 115/115/115
f 115/115/115 117/117/117 114/114/114
