g water
v 48.745346 -466.06882 -19.91911
v 48.745346 -483.63196 -19.91911
v 24.783628 -483.63196 -19.91911
v 24.783628 -466.06882 -19.91911
v 48.745346 -392.69016 -19.91911
v 23.782114 -392.69016 -19.91911
v 13.794252 -393.7542 -19.91911
v -6.181309 -393.7542 -19.919098
v -17.170624 -466.06882 -19.919098
v -16.16906 -392.69016 -19.919098
v -41.132446 -392.69016 -19.919098
v -41.132446 -466.06882 -19.919098
v -41.132446 -483.63196 -19.919098
v -17.170624 -483.63196 -19.919098
v 13.794252 -393.7542 -19.91911
v -6.181309 -393.7542 -19.919098
v -5.8468122 -393.0226 -20.037813
v 13.459743 -393.0226 -20.037827
v 13.272148 -392.55298 -20.106754
v -5.6592264 -392.55298 -20.10674
v 13.138153 -392.0819 -20.161364
v -5.525232 -392.0819 -20.161352
v 13.0577545 -391.60938 -20.201654
v -5.4448395 -391.60938 -20.201643
v 13.030956 -391.13544 -20.227627
v -5.4180384 -391.13544 -20.227615
v -5.418026 -379.80408 -20.67671
v 13.030969 -379.80408 -20.676722
v 13.030969 -379.33286 -20.719635
v -5.418026 -379.33286 -20.719624
v 13.030969 -378.86163 -20.76255
v -5.418026 -378.86163 -20.762537
v 13.030969 -378.3973 -20.853662
v -5.418026 -378.3973 -20.853651
v 13.030969 -377.93298 -20.944778
v -5.418026 -377.93298 -20.944767
v -5.418026 -339.8253 -30.471684
v 13.030969 -339.8253 -30.471697
v 13.030969 -339.36087 -30.55811
v -5.418026 -339.36087 -30.558098
v 13.030969 -338.89648 -30.644524
v -5.418026 -338.89648 -30.64451
v 13.030969 -338.425 -30.673325
v -5.418026 -338.425 -30.673311
v 13.030969 -337.95346 -30.70213
v -5.418026 -337.95346 -30.702116
v -5.418026 -328.9158 -30.702116
v 13.030969 -328.9158 -30.70213
v -5.418026 -308.9402 -30.702116
v 13.030969 -308.9402 -30.70213
v -5.41802 -298.86 -30.702116
v 13.030969 -298.86 -30.70213
v 13.030969 -298.77835 -30.71379
v -5.41802 -298.77835 -30.713778
v 13.030969 -298.72003 -30.748777
v -5.41802 -298.72003 -30.748764
v 13.030969 -298.68506 -30.807087
v -5.41802 -298.68506 -30.807074
v 13.030969 -298.6734 -30.888725
v -5.41802 -298.6734 -30.888712
v 13.794252 -393.7542 -19.83938
v -6.181309 -393.7542 -19.839367
v -5.8468122 -393.0226 -19.939932
v 13.459743 -393.0226 -19.939945
v 13.272148 -392.55298 -20.008873
v -5.6592264 -392.55298 -20.008862
v 13.138153 -392.0819 -20.063484
v -5.525232 -392.0819 -20.06347
v 13.0577545 -391.60938 -20.103775
v -5.4448395 -391.60938 -20.103762
v 13.030956 -391.13544 -20.129745
v -5.4180384 -391.13544 -20.129734
v -5.418026 -379.80408 -20.578829
v 13.030969 -379.80408 -20.578842
v 13.030969 -379.33286 -20.621756
v -5.418026 -379.33286 -20.621742
v 13.030969 -378.86163 -20.664669
v -5.418026 -378.86163 -20.664656
v 13.030969 -378.3973 -20.755783
v -5.418026 -378.3973 -20.75577
v 13.030969 -377.93298 -20.846897
v -5.418026 -377.93298 -20.846886
v -5.418026 -339.8253 -30.373804
v 13.030969 -339.8253 -30.373817
v 13.030969 -339.36087 -30.46023
v -5.418026 -339.36087 -30.460218
v 13.030969 -338.89648 -30.546644
v -5.418026 -338.89648 -30.54663
v 13.030969 -338.425 -30.575441
v -5.418026 -338.425 -30.57543
v 13.030969 -337.95346 -30.604246
v -5.418026 -337.95346 -30.604235
v -5.418026 -328.9158 -30.604235
v 13.030969 -328.9158 -30.604246
v -5.418026 -308.9402 -30.604235
v 13.030969 -308.9402 -30.604246
v -5.41802 -298.86 -30.604235
v 13.030969 -298.86 -30.604246
v 13.030969 -298.77835 -30.615911
v -5.41802 -298.77835 -30.615898
v 13.030969 -298.72003 -30.650898
v -5.41802 -298.72003 -30.650885
v 13.030969 -298.68506 -30.709208
v -5.41802 -298.68506 -30.709194
v 13.030969 -298.6734 -30.790846
v -5.41802 -298.6734 -30.790833
vt 0.45861185 -1.840466
vt 0.45861065 -1.5705523
vt 0.8280246 -1.5705509
vt 0.8280256 -1.8404646
vt 0.45861697 -2.9681609
vt 0.8434708 -2.9681597
vt 0.997452 -2.9518058
vt 1.3054118 -2.9518046
vt 1.4748273 -1.8404617
vt 1.4593914 -2.9681568
vt 1.8442478 -2.968155
vt 1.8442428 -1.8404601
vt 1.8442416 -1.5705462
vt 1.4748261 -1.5705478
vt 0.997452 -2.9518058
vt 1.3054118 -2.9518046
vt 1.3000242 -2.9612617
vt 1.0026103 -2.9610608
vt 1.0059164 -2.9669924
vt 1.296571 -2.967323
vt 1.0092225 -2.9729242
vt 1.293118 -2.9733844
vt 1.0092225 -2.9804168
vt 1.293137 -2.9808605
vt 1.0092224 -2.9879093
vt 1.2931559 -2.9883366
vt 1.2936077 -3.166804
vt 1.0092205 -3.1667721
vt 1.0092204 -3.1742647
vt 1.2936267 -3.1742802
vt 1.0092204 -3.1817572
vt 1.2936456 -3.181756
vt 1.0092204 -3.1889808
vt 1.2936456 -3.1889796
vt 1.0092205 -3.1962044
vt 1.2936457 -3.1962032
vt 1.2936482 -3.7935104
vt 1.0092231 -3.7935116
vt 1.0092232 -3.8007352
vt 1.2936482 -3.800734
vt 1.0092232 -3.8079588
vt 1.2936482 -3.8079576
vt 1.0092232 -3.8152595
vt 1.2936482 -3.8152583
vt 1.0092233 -3.82256
vt 1.2936484 -3.8225589
vt 1.293649 -3.961451
vt 1.0092239 -3.9614522
vt 1.2936504 -4.26844
vt 1.0092251 -4.2684407
vt 1.2967896 -4.401556
vt 1.0060873 -4.401557
vt 1.0029485 -4.4024734
vt 1.2999284 -4.4024734
vt 1.0029485 -4.4034767
vt 1.2999284 -4.4034767
vt 1.0029485 -4.404568
vt 1.2999284 -4.4045677
vt 1.0029485 -4.4057465
vt 1.2999284 -4.4057465
vt 0.0043405187 0.0063491287
vt 0.0043397024 1.000954
vt 0.010807216 1.000954
vt 0.010669764 0.0063491287
vt 0.014726268 0.0063491287
vt 0.014952416 1.000954
vt 0.018782934 0.0063491287
vt 0.019097617 1.000954
vt 0.02390692 0.0063491287
vt 0.024210356 1.000954
vt 0.029030904 0.0063491287
vt 0.029323088 1.000954
vt 0.15137313 1.000954
vt 0.15135129 0.0063491287
vt 0.15647526 0.0063491287
vt 0.15648587 1.000954
vt 0.16159926 0.0063491287
vt 0.16159844 1.000954
vt 0.16653931 0.0063491287
vt 0.1665385 1.000954
vt 0.17147939 0.0063491287
vt 0.17147855 1.000954
vt 0.5799639 1.000954
vt 0.5799648 0.0063491287
vt 0.58490485 0.0063491287
vt 0.584904 1.000954
vt 0.5898449 0.0063491287
vt 0.5898441 1.000954
vt 0.59483767 0.0063491287
vt 0.59483683 1.000954
vt 0.5998304 0.0063491287
vt 0.59982955 1.000954
vt 0.6948149 1.000954
vt 0.6948158 0.0063491287
vt 0.9047577 1.000954
vt 0.90475833 0.0063491287
vt 0.9957931 1.000954
vt 0.9957937 0.0063491287
vt 0.9964205 0.0063491287
vt 0.9964205 1.000954
vt 0.9971066 0.0063491287
vt 0.9971066 1.000954
vt 0.997853 0.0063491287
vt 0.9978527 1.000954
vt 0.9986588 0.0063491287
vt 0.9986588 1.000954
vn -0 0 1
vn -0 0 1
vn -0 0 1
vn -0 0 1
vn -0 0 1
vn -0 0 1
vn -0 0 1
vn -0 0 1
vn -0 0 1
vn -0 0 1
vn -0 0 1
vn -0 0 1
vn -0 0 1
vn -0 0 1
vn -0 0.1601752 0.9870886
vn -0 0.1601752 0.9870886
vn -0 0.15457232 0.9879815
vn -0 0.1545724 0.9879815
vn -0 0.13321698 0.9910869
vn -0 0.13321692 0.9910869
vn -0 0.10213105 0.99477094
vn -0 0.10213097 0.99477094
vn -0 0.07088813 0.9974842
vn -0 0.0708881 0.9974842
vn -0 0.047295216 0.9988809
vn -0 0.04729524 0.9988809
vn -0 0.06516992 0.99787426
vn -0 0.06516994 0.99787426
vn -0 0.09069377 0.9958788
vn -0 0.090693764 0.9958788
vn -0 0.14181054 0.98989385
vn -0 0.14181052 0.98989385
vn -0 0.19256137 0.981285
vn -0 0.19256137 0.981285
vn -0 0.21762379 0.97603273
vn -0 0.2176238 0.97603273
vn -0 0.21283276 0.97708863
vn -0 0.21283276 0.97708863
vn -0 0.18293709 0.9831246
vn -0 0.18293709 0.9831246
vn -0 0.12218688 0.99250716
vn -0 0.12218689 0.99250716
vn -0 0.060972176 0.9981395
vn -0 0.060972176 0.9981395
vn -0 0.030501436 0.9995347
vn -0 0.030501435 0.9995347
vn -0 0 1
vn -0 0 1
vn -0 0 1
vn -0 0 1
vn -0 0.0708957 0.99748373
vn -0 0.070895724 0.99748373
vn -0 0.33450866 0.94239265
vn -0 0.3345086 0.9423927
vn -0 0.7071538 0.70705974
vn -0 0.7071537 0.7070598
vn -0 0.942452 0.3343416
vn -0 0.9424519 0.3343418
vn -0 0.9899789 0.14121537
vn -0 0.9899789 0.14121537
vn -0 0.13617927 0.9906843
vn -0 0.13617927 0.9906843
vn -0 0.13956006 0.9902137
vn -0 0.13956 0.9902137
vn -0 0.13321815 0.9910868
vn -0 0.13321808 0.9910868
vn -0 0.10213105 0.99477094
vn -0 0.10213097 0.99477094
vn -0 0.0708872 0.9974843
vn -0 0.07088718 0.9974843
vn -0 0.047294233 0.99888104
vn -0 0.047294255 0.99888104
vn -0 0.06516997 0.99787426
vn -0 0.06516998 0.99787426
vn -0 0.09069277 0.99587893
vn -0 0.090692766 0.99587893
vn -0 0.1418105 0.98989385
vn -0 0.14181052 0.98989385
vn -0 0.19256137 0.981285
vn -0 0.19256137 0.981285
vn -0 0.21762285 0.976033
vn -0 0.21762285 0.976033
vn -0 0.21283278 0.97708863
vn -0 0.21283278 0.97708863
vn -0 0.18293709 0.9831246
vn -0 0.18293709 0.9831246
vn -0 0.12218387 0.9925075
vn -0 0.122183874 0.9925075
vn -0 0.06096915 0.9981396
vn -0 0.06096915 0.9981396
vn -0 0.030501436 0.9995347
vn -0 0.030501435 0.9995347
vn -0 0 1
vn -0 0 1
vn -0 0 1
vn -0 0 1
vn -0 0.070912845 0.9974826
vn -0 0.07091287 0.9974826
vn -0 0.33452487 0.9423869
vn -0 0.33452478 0.9423869
vn -0 0.7071538 0.70705974
vn -0 0.7071537 0.7070598
vn -0 0.942452 0.3343416
vn -0 0.9424519 0.3343418
vn -0 0.9899789 0.14121537
vn -0 0.9899789 0.14121537
g water_0
f 3/3/3 2/2/2 1/1/1
f 4/4/4 3/3/3 1/1/1
f 4/4/4 1/1/1 5/5/5
f 6/6/6 4/4/4 5/5/5
f 6/6/6 7/7/7 4/4/4
f 7/7/7 8/8/8 4/4/4
f 8/8/8 9/9/9 4/4/4
f 10/10/10 9/9/9 8/8/8
f 9/9/9 10/10/10 11/11/11
f 12/12/12 9/9/9 11/11/11
f 12/12/12 13/13/13 9/9/9
f 13/13/13 14/14/14 9/9/9
f 17/17/17 16/16/16 15/15/15
f 18/18/18 17/17/17 15/15/15
f 18/18/18 19/19/19 17/17/17
f 19/19/19 20/20/20 17/17/17
f 19/19/19 21/21/21 20/20/20
f 21/21/21 22/22/22 20/20/20
f 22/22/22 21/21/21 23/23/23
f 24/24/24 22/22/22 23/23/23
f 24/24/24 23/23/23 25/25/25
f 26/26/26 24/24/24 25/25/25
f 26/26/26 25/25/25 27/27/27
f 25/25/25 28/28/28 27/27/27
f 28/28/28 29/29/29 27/27/27
f 29/29/29 30/30/30 27/27/27
f 29/29/29 31/31/31 30/30/30
f 31/31/31 32/32/32 30/30/30
f 32/32/32 31/31/31 33/33/33
f 34/34/34 32/32/32 33/33/33
f 34/34/34 33/33/33 35/35/35
f 36/36/36 34/34/34 35/35/35
f 37/37/37 36/36/36 35/35/35
f 38/38/38 37/37/37 35/35/35
f 38/38/38 39/39/39 37/37/37
f 39/39/39 40/40/40 37/37/37
f 39/39/39 41/41/41 40/40/40
f 41/41/41 42/42/42 40/40/40
f 42/42/42 41/41/41 43/43/43
f 44/44/44 42/42/42 43/43/43
f 44/44/44 43/43/43 45/45/45
f 46/46/46 44/44/44 45/45/45
f 47/47/47 46/46/46 45/45/45
f 48/48/48 47/47/47 45/45/45
f 49/49/49 47/47/47 48/48/48
f 50/50/50 49/49/49 48/48/48
f 51/51/51 49/49/49 50/50/50
f 52/52/52 51/51/51 50/50/50
f 52/52/52 53/53/53 51/51/51
f 53/53/53 54/54/54 51/51/51
f 53/53/53 55/55/55 54/54/54
f 55/55/55 56/56/56 54/54/54
f 56/56/56 55/55/55 57/57/57
f 58/58/58 56/56/56 57/57/57
f 58/58/58 57/57/57 59/59/59
f 60/60/60 58/58/58 59/59/59
g water_1
f 63/63/63 62/62/62 61/61/61
f 64/64/64 63/63/63 61/61/61
f 64/64/64 65/65/65 63/63/63
f 65/65/65 66/66/66 63/63/63
f 65/65/65 67/67/67 66/66/66
f 67/67/67 68/68/68 66/66/66
f 68/68/68 67/67/67 69/69/69
f 70/70/70 68/68/68 69/69/69
f 70/70/70 69/69/69 71/71/71
f 72/72/72 70/70/70 71/71/71
f 72/72/72 71/71/71 73/73/73
f 71/71/71 74/74/74 73/73/73
f 74/74/74 75/75/75 73/73/73
f 75/75/75 76/76/76 73/73/73
f 75/75/75 77/77/77 76/76/76
f 77/77/77 78/78/78 76/76/76
f 78/78/78 77/77/77 79/79/79
f 80/80/80 78/78/78 79/79/79
f 80/80/80 79/79/79 81/81/81
f 82/82/82 80/80/80 81/81/81
f 83/83/83 82/82/82 81/81/81
f 84/84/84 83/83/83 81/81/81
f 84/84/84 85/85/85 83/83/83
f 85/85/85 86/86/86 83/83/83
f 85/85/85 87/87/87 86/86/86
f 87/87/87 88/88/88 86/86/86
f 88/88/88 87/87/87 89/89/89
f 90/90/90 88/88/88 89/89/89
f 90/90/90 89/89/89 91/91/91
f 92/92/92 90/90/90 91/91/91
f 93/93/93 92/92/92 91/91/91
f 94/94/94 93/93/93 91/91/91
f 95/95/95 93/93/93 94/94/94
f 96/96/96 95/95/95 94/94/94
f 97/97/97 95/95/95 96/96/96
f 98/98/98 97/97/97 96/96/96
f 98/98/98 99/99/99 97/97/97
f 99/99/99 100/100/100 97/97/97
f 99/99/99 101/101/101 100/100/100
f 101/101/101 102/102/102 100/100/100
f 102/102/102 101/101/101 103/103/103
f 104/104/104 102/102/102 103/103/103
f 104/104/104 103/103/103 105/105/105
f 106/106/106 104/104/104 105/105/105
