g WoodspriteBranchMesh
v 0.47100943 2.1795216 1.6530012
v 0.27287573 2.1327887 -0.71416336
v 1.1594679 -0.07128014 -0.74485904
v 1.3576014 -0.024547473 1.6223058
v -0.16271313 -1.3010104 0.9158374
v -0.77767766 -1.7841241 -0.3075178
v -2.083588 -1.3988333 0.19679162
v -1.4686233 -0.9157195 1.4201467
v -1.8048329 -0.54163504 1.1368463
v -2.4084342 0.7221886 -2.3649504
v -0.26516563 3.7408206 -1.6449375
v 0.33843577 2.4769976 1.8568592
v -0.57525265 1.2126949 -0.5765228
v -1.3511231 1.268095 -2.7978418
v -0.66883826 1.0367357 -3.041923
v 0.10703212 0.9813356 -0.82060385
v 0.53372437 1.1528715 -2.140511
v 0.4193493 1.4297998 -4.8139052
v -0.50044334 0.066552594 -4.915768
v -0.3860684 -0.21037571 -2.242374
v 0.42450666 0.62889224 0.16955078
v 1.7218106 0.22198421 -3.348344
v 1.1034439 -1.4311335 -3.3851678
v -0.19386011 -1.0242255 0.13272679
v -0.1833741 0.63454115 1.7382749
v -0.38150805 0.5878085 -0.6288901
v 1.8138516 1.4737004 -0.83013254
v 2.011985 1.5204328 1.5370322
v -0.73725384 -0.45141554 0.869139
v -1.3522184 -0.9345292 -0.354216
v -1.5090472 -2.248428 0.24348995
v -0.89408255 -1.7653146 1.4668452
v 0.7888255 0.030295253 0.8961936
v 0.18522382 1.2941188 -2.6056032
v -2.8588238 3.1688905 -1.4042848
v -2.2552223 1.9050672 2.0975118
v -0.3461622 0.73481107 -0.6684588
v -1.1220326 0.790211 -2.8897781
v -0.8979286 1.5146196 -2.9499872
v -0.12205821 1.4592195 -0.72866774
v -0.6087977 0.9261176 -2.1151195
v -0.7231727 1.2030458 -4.7885137
v 0.6420786 0.29330665 -4.9411597
v 0.7564537 0.016378239 -2.2677655
v -0.6536709 0.09706038 -0.16653562
v 0.64363325 -0.30984777 -3.6844308
v 2.1816213 -0.8993016 -3.0490816
v 0.8843174 -0.49239355 0.46881366
vt 0 0
vt 0 1
vt 1 1
vt 1 0
vt 0 0
vt 0 1
vt 1 1
vt 1 0
vt 0 0
vt 0 1
vt 1 1
vt 1 0
vt 0 0
vt 0 1
vt 1 1
vt 1 0
vt 0 0
vt 0 1
vt 1 1
vt 1 0
vt 0 0
vt 0 1
vt 1 1
vt 1 0
vt 0 0
vt 0 1
vt 1 1
vt 1 0
vt 0 0
vt 0 1
vt 1 1
vt 1 0
vt 0 0
vt 0 1
vt 1 1
vt 1 0
vt 0 0
vt 0 1
vt 1 1
vt 1 0
vt 0 0
vt 0 1
vt 1 1
vt 1 0
vt 0 0
vt 0 1
vt 1 1
vt 1 0
vn 0.9240113 0.37286544 -0.08470162
vn 0.9240113 0.37286544 -0.08470162
vn 0.9240113 0.37286544 -0.08470162
vn 0.9240113 0.37286544 -0.08470162
vn -0.108012095 -0.90491605 0.4116556
vn -0.108012095 -0.90491605 0.4116556
vn -0.108012095 -0.90491605 0.4116556
vn -0.108012095 -0.90491605 0.4116556
vn -0.80712 0.49709016 0.31852585
vn -0.80712 0.49709016 0.31852585
vn -0.80712 0.49709016 0.31852585
vn -0.80712 0.49709016 0.31852585
vn 0.29461485 0.9523323 -0.07915288
vn 0.29461485 0.9523323 -0.07915288
vn 0.29461485 0.9523323 -0.07915288
vn 0.29461485 0.9523323 -0.07915288
vn 0.8285919 -0.5521346 -0.09264324
vn 0.8285919 -0.5521346 -0.09264324
vn 0.8285919 -0.5521346 -0.09264324
vn 0.8285919 -0.5521346 -0.09264324
vn 0.87119865 -0.33389822 0.35989574
vn 0.87119865 -0.33389822 0.35989574
vn 0.87119865 -0.33389822 0.35989574
vn 0.87119865 -0.33389822 0.35989574
vn -0.37316048 0.92767686 0.012919624
vn -0.37316048 0.92767686 0.012919624
vn -0.37316048 0.92767686 0.012919624
vn -0.37316048 0.92767686 0.012919624
vn 0.899414 -0.26535955 -0.3473308
vn 0.899414 -0.26535955 -0.3473308
vn 0.899414 -0.26535955 -0.3473308
vn 0.899414 -0.26535955 -0.3473308
vn -0.5682811 -0.80038124 -0.19090919
vn -0.5682811 -0.80038124 -0.19090919
vn -0.5682811 -0.80038124 -0.19090919
vn -0.5682811 -0.80038124 -0.19090919
vn -0.89695525 0.30415288 0.32087737
vn -0.89695525 0.30415288 0.32087737
vn -0.89695525 0.30415288 0.32087737
vn -0.89695525 0.30415288 0.32087737
vn 0.55823636 0.82737553 0.06182233
vn 0.55823636 0.82737553 0.06182233
vn 0.55823636 0.82737553 0.06182233
vn 0.55823636 0.82737553 0.06182233
vn 0.35027593 0.9364142 0.020859007
vn 0.35027593 0.9364142 0.020859007
vn 0.35027593 0.9364142 0.020859007
vn 0.35027593 0.9364142 0.020859007
g WoodspriteBranchMesh_0
f 3/3/3 2/2/2 1/1/1
f 4/4/4 3/3/3 1/1/1
f 7/7/7 6/6/6 5/5/5
f 8/8/8 7/7/7 5/5/5
f 11/11/11 10/10/10 9/9/9
f 12/12/12 11/11/11 9/9/9
f 15/15/15 14/14/14 13/13/13
f 16/16/16 15/15/15 13/13/13
f 19/19/19 18/18/18 17/17/17
f 20/20/20 19/19/19 17/17/17
f 23/23/23 22/22/22 21/21/21
f 24/24/24 23/23/23 21/21/21
f 27/27/27 26/26/26 25/25/25
f 28/28/28 27/27/27 25/25/25
f 31/31/31 30/30/30 29/29/29
f 32/32/32 31/31/31 29/29/29
f 35/35/35 34/34/34 33/33/33
f 36/36/36 35/35/35 33/33/33
f 39/39/39 38/38/38 37/37/37
f 40/40/40 39/39/39 37/37/37
f 43/43/43 42/42/42 41/41/41
f 44/44/44 43/43/43 41/41/41
f 47/47/47 46/46/46 45/45/45
f 48/48/48 47/47/47 45/45/45
