g WPPlatform2ElevatedSectionRadialCollisionMesh
v -6.116749 0.4679736 3.014384
v -4.8527484 0.43349484 2.7989933
v -4.8527484 0.43349484 2.9363472
v -6.116749 0.4679736 3.8129964
v -9.805633 0.75019836 3.0143838
v -4.868995 -0.10624175 2.9363472
v -9.805633 0.75019836 3.8129961
v -9.831946 -0.21452633 3.0143838
v -6.1331644 -0.13382615 3.8129964
v -4.835136 -0.5829757 2.9363472
v -9.831946 -0.21452633 3.8129961
v -9.763575 -1.1771991 3.0143838
v -6.090514 -0.7343369 3.8129964
v -4.754712 -1.054095 2.9363472
v -9.763575 -1.1771991 3.8129961
v -9.601175 -2.1285274 3.0143838
v -5.989209 -1.3277756 3.8129964
v -4.628498 -1.5150613 2.9363472
v -9.601175 -2.1285274 3.8129961
v -9.34631 -3.059359 3.0143838
v -5.830225 -1.9084274 3.8129964
v -4.457708 -1.961438 2.9363472
v -9.34631 -3.059359 3.8129961
v -9.001434 -3.9607284 3.0143838
v -5.6150913 -2.4706995 3.8129964
v -4.2439885 -2.3889253 2.9363472
v -9.001434 -3.9607284 3.8129961
v -8.569871 -4.8239512 3.0143838
v -5.345883 -3.0091777 3.8129964
v -3.9893963 -2.7934053 2.9363472
v -8.569871 -4.8239512 3.8129961
v -8.055777 -5.640714 3.0143838
v -5.0251894 -3.518676 3.8129964
v -3.696385 -3.170984 2.9363472
v -8.055777 -5.640714 3.8129961
v -7.4641013 -6.403155 3.0143838
v -4.6561017 -3.994287 3.8129964
v -3.3677747 -3.5180242 2.9363472
v -7.4641013 -6.403155 3.8129961
v -6.80054 -7.103932 3.0143838
v -4.2421727 -4.4314313 3.8129964
v -3.0067317 -3.831184 2.9363472
v -6.80054 -7.103932 3.8129961
v -6.0714808 -7.736298 3.0143838
v -3.7873893 -4.825899 3.8129964
v -2.6167321 -4.107446 2.9363472
v -6.0714808 -7.736298 3.8129961
v -5.2839665 -8.294149 3.0143838
v -3.2961311 -5.1738896 3.8129964
v -2.2015316 -4.3441525 2.9363472
v -5.2839665 -8.294149 3.8129961
v -4.4455466 -8.772132 3.0143838
v -2.7731297 -5.472053 3.8129964
v -1.7651289 -4.539022 2.9363472
v -4.4455466 -8.772132 3.8129961
v -3.5643148 -9.165634 3.0143838
v -2.2234213 -5.717518 3.8129964
v -1.3117278 -4.6901784 2.9363472
v -3.5643148 -9.165634 3.8129961
v -2.6487708 -9.470861 3.0143838
v -1.6523001 -5.9079204 3.8129964
v -0.78485703 -4.808439 2.9363472
v -2.6487708 -9.470861 3.8129961
v -1.7077075 -9.68488 3.0143838
v -1.0652663 -6.0414257 3.8129964
v -0.78485703 -4.808439 2.7989933
v -1.0652663 -6.0414257 3.014384
v -1.7077075 -9.68488 3.8129961
vt 0.49999905 0.3354434
vt 0.49999905 0.3354434
vt 0.49999905 0.3354434
vt 0.49999905 0.3354434
vt 0.49999905 0.3354434
vt 0.49999905 0.3354434
vt 0.49999905 0.3354434
vt 0.49999905 0.3354434
vt 0.49999905 0.3354434
vt 0.49999905 0.3354434
vt 0.49999905 0.3354434
vt 0.49999905 0.3354434
vt 0.49999905 0.3354434
vt 0.49999905 0.3354434
vt 0.49999905 0.3354434
vt 0.49999905 0.3354434
vt 0.49999905 0.3354434
vt 0.49999905 0.3354434
vt 0.49999905 0.3354434
vt 0.49999905 0.3354434
vt 0.49999905 0.3354434
vt 0.49999905 0.3354434
vt 0.49999905 0.3354434
vt 0.49999905 0.3354434
vt 0.49999905 0.3354434
vt 0.49999905 0.3354434
vt 0.49999905 0.3354434
vt 0.49999905 0.3354434
vt 0.49999905 0.3354434
vt 0.49999905 0.3354434
vt 0.49999905 0.3354434
vt 0.49999905 0.3354434
vt 0.49999905 0.3354434
vt 0.49999905 0.3354434
vt 0.49999905 0.3354434
vt 0.49999905 0.3354434
vt 0.49999905 0.3354434
vt 0.49999905 0.3354434
vt 0.49999905 0.3354434
vt 0.49999905 0.3354434
vt 0.49999905 0.3354434
vt 0.49999905 0.3354434
vt 0.49999905 0.3354434
vt 0.49999905 0.3354434
vt 0.49999905 0.3354434
vt 0.49999905 0.3354434
vt 0.49999905 0.3354434
vt 0.49999905 0.3354434
vt 0.49999905 0.3354434
vt 0.49999905 0.3354434
vt 0.49999905 0.3354434
vt 0.49999905 0.3354434
vt 0.49999905 0.3354434
vt 0.49999905 0.3354434
vt 0.49999905 0.3354434
vt 0.49999905 0.3354434
vt 0.49999905 0.3354434
vt 0.49999905 0.3354434
vt 0.49999905 0.3354434
vt 0.49999905 0.3354434
vt 0.49999905 0.3354434
vt 0.49999905 0.3354434
vt 0.49999905 0.3354434
vt 0.49999905 0.3354434
vt 0.49999905 0.3354434
vt 0.49999905 0.3354434
vt 0.49999905 0.3354434
vt 0.49999905 0.3354434
vn 0.050538845 0.998722 0
vn 0.027253717 0.99962854 0
vn 0.35530975 0.8018122 0.4804708
vn 0.26167133 0.6295799 0.7315445
vn -0.6695345 0.742781 0
vn 0.56950843 0.012024346 0.82189757
vn -0.54788744 0.60779744 0.5748058
vn -0.9997626 -0.021790363 0
vn 0.2898055 0.006103738 0.9570661
vn 0.5656664 0.06817905 0.82181084
vn -0.71765107 -0.015656177 0.69622684
vn -0.99281067 -0.119695164 0
vn 0.28785515 0.034700092 0.9570451
vn 0.5562435 0.12329768 0.82182175
vn -0.7126543 -0.0859116 0.6962349
vn -0.9762962 -0.21643928 0
vn 0.283064 0.06274713 0.9570463
vn 0.54147434 0.17722587 0.8218251
vn -0.7008082 -0.1553418 0.69623035
vn -0.95038456 -0.31107768 0
vn 0.27555606 0.090183645 0.9570454
vn 0.52150977 0.22944233 0.8218174
vn -0.68219554 -0.22330895 0.6962344
vn -0.91532046 -0.40272632 0
vn 0.2653644 0.11676643 0.9570514
vn 0.49648905 0.27946585 0.82182556
vn -0.65702385 -0.28908074 0.6962414
vn -0.8714402 -0.49050173 0
vn 0.2526665 0.14221837 0.9570442
vn 0.46670046 0.3268002 0.8218225
vn -0.62552345 -0.3521011 0.6962366
vn -0.81915593 -0.57357097 0
vn 0.23749925 0.16629831 0.957047
vn 0.43242776 0.37096193 0.82182336
vn -0.58801264 -0.4117035 0.6962336
vn -0.7589894 -0.6511029 0
vn 0.22004369 0.18876149 0.9570527
vn 0.39400235 0.41155085 0.82181996
vn -0.5448243 -0.4673672 0.69622874
vn -0.6915108 -0.72236603 0
vn 0.20048082 0.20942295 0.95705247
vn 0.35176155 0.4482015 0.82181466
vn -0.4963682 -0.5185253 0.69624
vn -0.6173767 -0.7866677 0
vn 0.17899485 0.22806965 0.9570502
vn 0.3061082 0.48052582 0.82182276
vn -0.443164 -0.56468993 0.6962261
vn -0.5372901 -0.8433975 0
vn 0.15576984 0.24451958 0.9570506
vn 0.2575521 0.5082068 0.8218228
vn -0.38567013 -0.6054078 0.6962327
vn -0.45204118 -0.89199704 0
vn 0.13104905 0.25861895 0.9570488
vn 0.20649353 0.53100514 0.8218235
vn -0.32447937 -0.64029133 0.69623286
vn -0.3624389 -0.9320075 0
vn 0.10507727 0.27021617 0.95704854
vn 0.15302329 0.5486743 0.8219127
vn -0.26014638 -0.66901326 0.6962364
vn -0.2693277 -0.96304864 0
vn 0.07788426 0.27918696 0.957073
vn 0.8649222 0.14512016 0.48046824
vn -0.19333866 -0.6912887 0.6962328
vn 0.5533049 -0.8329788 0
vn 0.6748369 0.09717261 0.7315413
vn 0.97510374 -0.22174904 0
vn 0.9800024 -0.19898526 0
vn 0.45275727 -0.6816232 0.57480484
g WPPlatform2ElevatedSectionRadialCollisionMesh_0
f 3/3/3 2/2/2 1/1/1
f 4/4/4 3/3/3 1/1/1
f 4/4/4 1/1/1 5/5/5
f 6/6/6 3/3/3 4/4/4
f 7/7/7 4/4/4 5/5/5
f 7/7/7 5/5/5 8/8/8
f 9/9/9 6/6/6 4/4/4
f 9/9/9 4/4/4 7/7/7
f 10/10/10 6/6/6 9/9/9
f 11/11/11 7/7/7 8/8/8
f 11/11/11 9/9/9 7/7/7
f 11/11/11 8/8/8 12/12/12
f 13/13/13 10/10/10 9/9/9
f 13/13/13 9/9/9 11/11/11
f 14/14/14 10/10/10 13/13/13
f 15/15/15 11/11/11 12/12/12
f 15/15/15 13/13/13 11/11/11
f 15/15/15 12/12/12 16/16/16
f 17/17/17 14/14/14 13/13/13
f 17/17/17 13/13/13 15/15/15
f 18/18/18 14/14/14 17/17/17
f 19/19/19 15/15/15 16/16/16
f 19/19/19 17/17/17 15/15/15
f 19/19/19 16/16/16 20/20/20
f 21/21/21 18/18/18 17/17/17
f 21/21/21 17/17/17 19/19/19
f 22/22/22 18/18/18 21/21/21
f 23/23/23 19/19/19 20/20/20
f 23/23/23 21/21/21 19/19/19
f 23/23/23 20/20/20 24/24/24
f 25/25/25 22/22/22 21/21/21
f 25/25/25 21/21/21 23/23/23
f 26/26/26 22/22/22 25/25/25
f 27/27/27 23/23/23 24/24/24
f 27/27/27 25/25/25 23/23/23
f 27/27/27 24/24/24 28/28/28
f 29/29/29 26/26/26 25/25/25
f 29/29/29 25/25/25 27/27/27
f 30/30/30 26/26/26 29/29/29
f 31/31/31 27/27/27 28/28/28
f 31/31/31 29/29/29 27/27/27
f 31/31/31 28/28/28 32/32/32
f 33/33/33 30/30/30 29/29/29
f 33/33/33 29/29/29 31/31/31
f 34/34/34 30/30/30 33/33/33
f 35/35/35 31/31/31 32/32/32
f 35/35/35 33/33/33 31/31/31
f 35/35/35 32/32/32 36/36/36
f 37/37/37 34/34/34 33/33/33
f 37/37/37 33/33/33 35/35/35
f 38/38/38 34/34/34 37/37/37
f 39/39/39 35/35/35 36/36/36
f 39/39/39 37/37/37 35/35/35
f 39/39/39 36/36/36 40/40/40
f 41/41/41 38/38/38 37/37/37
f 41/41/41 37/37/37 39/39/39
f 42/42/42 38/38/38 41/41/41
f 43/43/43 39/39/39 40/40/40
f 43/43/43 41/41/41 39/39/39
f 43/43/43 40/40/40 44/44/44
f 45/45/45 42/42/42 41/41/41
f 45/45/45 41/41/41 43/43/43
f 46/46/46 42/42/42 45/45/45
f 47/47/47 43/43/43 44/44/44
f 47/47/47 45/45/45 43/43/43
f 47/47/47 44/44/44 48/48/48
f 49/49/49 46/46/46 45/45/45
f 49/49/49 45/45/45 47/47/47
f 50/50/50 46/46/46 49/49/49
f 51/51/51 47/47/47 48/48/48
f 51/51/51 49/49/49 47/47/47
f 51/51/51 48/48/48 52/52/52
f 53/53/53 50/50/50 49/49/49
f 53/53/53 49/49/49 51/51/51
f 54/54/54 50/50/50 53/53/53
f 55/55/55 51/51/51 52/52/52
f 55/55/55 53/53/53 51/51/51
f 55/55/55 52/52/52 56/56/56
f 57/57/57 54/54/54 53/53/53
f 57/57/57 53/53/53 55/55/55
f 58/58/58 54/54/54 57/57/57
f 59/59/59 55/55/55 56/56/56
f 59/59/59 57/57/57 55/55/55
f 59/59/59 56/56/56 60/60/60
f 61/61/61 58/58/58 57/57/57
f 61/61/61 57/57/57 59/59/59
f 62/62/62 58/58/58 61/61/61
f 63/63/63 59/59/59 60/60/60
f 63/63/63 61/61/61 59/59/59
f 63/63/63 60/60/60 64/64/64
f 65/65/65 62/62/62 61/61/61
f 65/65/65 61/61/61 63/63/63
f 66/66/66 62/62/62 65/65/65
f 67/67/67 66/66/66 65/65/65
f 68/68/68 64/64/64 67/67/67
f 68/68/68 63/63/63 64/64/64
f 65/65/65 68/68/68 67/67/67
f 68/68/68 65/65/65 63/63/63
