g rockMesh.007
v 0.3387327 -3.8807425 2.7392795
v 0.5990462 -2.2858312 2.6875699
v 0.7126364 -3.6720405 2.4970863
v -1.30502 0.38752803 -1.3161815
v -0.69980294 -0.15283968 -2.0389776
v -1.5835551 0.39866036 -2.6253266
v -1.3801779 2.7203019 -1.263317
v -0.91018665 2.3459127 -0.16738509
v -1.0659243 1.8475873 0.41604036
v -1.6576045 2.4338143 -2.008693
v -0.98316246 3.0874755 -2.5373056
v -1.4823792 2.475644 -2.733823
v -1.2443329 2.9323683 -5.395989
v -1.4139708 2.2893903 -6.8271093
v -0.47530037 3.0502572 -6.223586
v -0.14826964 2.5271995 -7.7794256
v 1.317458 1.8571527 0.19773099
v 0.042586084 2.9546187 -0.9063691
v 1.6921556 2.226671 -0.59486
v 1.317458 1.8571527 0.19773099
v -0.91018665 2.3459127 -0.16738509
v 0.042586084 2.9546187 -0.9063691
v 0.8313712 2.1172683 -8.055144
v 1.7989385 2.3872182 -7.537652
v -0.14826964 2.5271995 -7.7794256
v -1.4301475 0.50877947 -5.1744304
v -1.1267966 0.6164833 -7.5018673
v -1.6149209 0.8213575 -6.532299
v -0.12657987 -3.63613 2.7021732
v 0.052133553 -4.305623 2.668946
v -0.009035825 -2.836557 2.2303863
v 0.5864977 -0.60004705 -0.18445633
v 1.3197409 -0.52123207 0.05470275
v 1.2397164 -0.108951434 -1.506325
v -0.043971654 -0.10734658 -1.6119
v -0.7643286 -0.11444764 -0.7928026
v 1.6540046 -0.035400014 -2.4409287
v -0.69980294 -0.15283968 -2.0389776
v 0.40762317 -0.041307565 -2.7714837
v 1.9347949 0.2584075 -2.9369965
v -0.6281775 0.104891345 -4.1921196
v -1.5835551 0.39866036 -2.6253266
v 2.0379992 0.23277733 -4.3794723
v -1.4301475 0.50877947 -5.1744304
v 1.6548507 0.54979175 -7.0183306
v -1.1267966 0.6164833 -7.5018673
v 0.48450273 0.45592254 -7.703481
v -0.7208329 -0.57427305 -0.151803
v 0.5864977 -0.60004705 -0.18445633
v -0.7643286 -0.11444764 -0.7928026
v -0.27145478 -1.4609822 0.41147703
v -1.014345 -1.0189713 0.5699243
v 0.9995769 -1.1364349 0.5887975
v 1.3197409 -0.52123207 0.05470275
v 0.30958483 -1.7822783 0.65502924
v 0.9959878 -1.6823132 1.2649964
v 1.2598127 -0.92072 0.8539895
v 0.9995769 -1.1364349 0.5887975
v 0.9959878 -1.6823132 1.2649964
v 1.3197409 -0.52123207 0.05470275
v 1.7289622 0.7021579 -0.5250911
v 1.6465871 0.12150739 -1.3375672
v 2.340898 1.7630291 -1.5776715
v 1.2397164 -0.108951434 -1.506325
v 1.6540046 -0.035400014 -2.4409287
v 2.2385132 0.74828744 -2.1859622
v 1.9347949 0.2584075 -2.9369965
v 2.3797603 0.59701306 -5.14052
v 2.0379992 0.23277733 -4.3794723
v 1.6548507 0.54979175 -7.0183306
v 2.0719326 0.9074787 -7.1904936
v -0.009035825 -2.836557 2.2303863
v -0.010030269 -1.9244831 2.4033482
v -0.12657987 -3.63613 2.7021732
v -0.3672857 -1.8381975 2.1756752
v -0.175822 -2.001645 1.476128
v -0.88984096 -0.99410045 1.79267
v -1.014345 -1.0189713 0.5699243
v -1.3548942 0.24290982 -0.08322584
v -0.7208329 -0.57427305 -0.151803
v -1.1108392 0.51352304 1.1904658
v -0.7643286 -0.11444764 -0.7928026
v -1.0659243 1.8475873 0.41604036
v -1.30502 0.38752803 -1.3161815
v -0.69980294 -0.15283968 -2.0389776
v -1.2650958 1.387122 -0.71035856
v -1.3879269 2.233052 -0.7644824
v -1.3801779 2.7203019 -1.263317
v -1.6576045 2.4338143 -2.008693
v -1.5835551 0.39866036 -2.6253266
v -1.4823792 2.475644 -2.733823
v -1.5348467 0.6183134 -3.3208146
v -1.4301475 0.50877947 -5.1744304
v -1.6149209 0.8213575 -6.532299
v -1.7686836 2.0284874 -5.7235904
v -1.2443329 2.9323683 -5.395989
v -1.4139708 2.2893903 -6.8271093
v -1.1267966 0.6164833 -7.5018673
v 0.7126364 -3.6720405 2.4970863
v 0.3712413 -4.3988414 2.5134916
v 0.3387327 -3.8807425 2.7392795
v 0.73026544 -3.101575 2.1478972
v 0.98062515 -2.4001112 2.354987
v 0.5990462 -2.2858312 2.6875699
v 0.58254206 -2.0676806 1.442692
v 0.5976884 -1.4930323 2.2382581
v 0.87849057 -1.5888994 1.9597368
v 0.9959878 -1.6823132 1.2649964
v 1.2598127 -0.92072 0.8539895
v 0.6998653 0.621025 1.24868
v 1.2327584 0.8507594 0.7434272
v 1.317458 1.8571527 0.19773099
v 1.7289622 0.7021579 -0.5250911
v 1.6921556 2.226671 -0.59486
v 2.340898 1.7630291 -1.5776715
v 1.8194902 2.4446805 -1.4935912
v 1.883208 2.616833 -2.4110906
v 2.126315 2.0639374 -2.4483502
v 2.2385132 0.74828744 -2.1859622
v 2.3797603 0.59701306 -5.14052
v 2.4783895 2.6439834 -5.1013246
v 2.5748668 1.2337996 -5.459804
v 2.0719326 0.9074787 -7.1904936
v 1.7989385 2.3872182 -7.537652
v 1.8142622 2.7294385 -6.6689672
v 0.052133553 -4.305623 2.668946
v 0.3387327 -3.8807425 2.7392795
v 0.3712413 -4.3988414 2.5134916
v -0.12657987 -3.63613 2.7021732
v -0.010030269 -1.9244831 2.4033482
v 0.5990462 -2.2858312 2.6875699
v 0.5976884 -1.4930323 2.2382581
v -0.08996492 -0.5938758 2.1083267
v -0.3672857 -1.8381975 2.1756752
v -0.88984096 -0.99410045 1.79267
v 0.6998653 0.621025 1.24868
v -1.1108392 0.51352304 1.1904658
v -0.29766652 1.2542075 0.8719443
v -1.0659243 1.8475873 0.41604036
v 1.317458 1.8571527 0.19773099
v -0.91018665 2.3459127 -0.16738509
v 0.3712413 -4.3988414 2.5134916
v -0.009035825 -2.836557 2.2303863
v 0.052133553 -4.305623 2.668946
v 0.73026544 -3.101575 2.1478972
v -0.175822 -2.001645 1.476128
v 0.58254206 -2.0676806 1.442692
v -1.3801779 2.7203019 -1.263317
v 0.042586084 2.9546187 -0.9063691
v -0.91018665 2.3459127 -0.16738509
v -0.6744023 2.976989 -1.8930662
v -0.98316246 3.0874755 -2.5373056
v 0.6211001 2.842128 -1.6518095
v 1.6921556 2.226671 -0.59486
v 1.8194902 2.4446805 -1.4935912
v 1.883208 2.616833 -2.4110906
v 0.5063819 3.14642 -2.609699
v 2.4783895 2.6439834 -5.1013246
v 0.7764402 3.438919 -3.7733064
v -1.2443329 2.9323683 -5.395989
v -0.47530037 3.0502572 -6.223586
v 1.8142622 2.7294385 -6.6689672
v -0.14826964 2.5271995 -7.7794256
v 1.7989385 2.3872182 -7.537652
v 0.89641845 0.8055562 -7.991865
v 0.48450273 0.45592254 -7.703481
v 1.6548507 0.54979175 -7.0183306
v 2.0719326 0.9074787 -7.1904936
v 0.89641845 0.8055562 -7.991865
v 2.0719326 0.9074787 -7.1904936
v 1.7989385 2.3872182 -7.537652
v 0.8313712 2.1172683 -8.055144
v -0.14826964 2.5271995 -7.7794256
v 0.89641845 0.8055562 -7.991865
v 0.8313712 2.1172683 -8.055144
v -1.1267966 0.6164833 -7.5018673
v -1.4139708 2.2893903 -6.8271093
v 0.48450273 0.45592254 -7.703481
v -0.175822 -2.001645 1.476128
v -0.27145478 -1.4609822 0.41147703
v -1.014345 -1.0189713 0.5699243
v 0.30958483 -1.7822783 0.65502924
v 0.58254206 -2.0676806 1.442692
v 0.9959878 -1.6823132 1.2649964
vt 0.9042808 0.851158
vt 0.9077184 0.7724247
vt 0.89004844 0.8243236
vt 0.14376312 0.41177732
vt 0.19106019 0.37936738
vt 0.16527721 0.35166374
vt 0.028861552 0.35717627
vt 0.018455423 0.40561652
vt 0.044711955 0.45756546
vt 0.05346135 0.32857627
vt 0.026318435 0.28372362
vt 0.06614417 0.29470867
vt 0.10792138 0.14652506
vt 0.19052148 0.0628069
vt 0.12763116 0.064459816
vt 0.18085667 0.0076317214
vt 0.34311956 0.2932247
vt 0.30902106 0.36096483
vt 0.33649245 0.34802556
vt 0.34311956 0.2932247
vt 0.30944037 0.34511343
vt 0.30902106 0.36096483
vt 0.10325417 0.90879124
vt 0.11583725 0.9932282
vt 0.12313977 0.8306769
vt 0.23184457 0.21129972
vt 0.2832769 0.04634239
vt 0.24588054 0.12725137
vt 0.25755998 0.71100736
vt 0.29784864 0.7330828
vt 0.23583074 0.6754195
vt 0.71390206 0.008118674
vt 0.666621 0.00038729896
vt 0.6675216 0.070451625
vt 0.7677777 0.0760368
vt 0.8387085 0.02423568
vt 0.6484631 0.11615497
vt 0.8302198 0.10520124
vt 0.7331397 0.14013961
vt 0.6373816 0.183736
vt 0.79131246 0.20556346
vt 0.8561944 0.14100449
vt 0.6348438 0.24770014
vt 0.8611969 0.28310925
vt 0.624076 0.43222713
vt 0.8657299 0.42283845
vt 0.748371 0.41918856
vt 0.21692848 0.76713604
vt 0.23462681 0.85295045
vt 0.24536565 0.7593839
vt 0.17384867 0.8119383
vt 0.17705902 0.7685741
vt 0.19280593 0.9124134
vt 0.23659986 0.92682827
vt 0.16962229 0.86303955
vt 0.16336444 0.9152764
vt 0.45889032 0.1946768
vt 0.50073975 0.19555734
vt 0.50202143 0.15094371
vt 0.46762997 0.2465045
vt 0.41894156 0.30182213
vt 0.4633694 0.32312557
vt 0.38536608 0.38313797
vt 0.48934785 0.3342803
vt 0.4971451 0.37441498
vt 0.45104027 0.38591713
vt 0.4940526 0.40808988
vt 0.5183798 0.54553086
vt 0.5250475 0.50693417
vt 0.59847367 0.68251055
vt 0.57380974 0.67905945
vt 0.23583074 0.6754195
vt 0.20335335 0.6852733
vt 0.25755998 0.71100736
vt 0.17386842 0.6479944
vt 0.19264801 0.61563146
vt 0.12473323 0.5987855
vt 0.17457762 0.5507383
vt 0.12475434 0.48084652
vt 0.17316273 0.5049987
vt 0.082654 0.54310226
vt 0.1665793 0.4547128
vt 0.044711955 0.45756546
vt 0.14376312 0.41177732
vt 0.19106019 0.37936738
vt 0.09416813 0.4211734
vt 0.05244004 0.39558053
vt 0.028861552 0.35717627
vt 0.05346135 0.32857627
vt 0.16527721 0.35166374
vt 0.06614417 0.29470867
vt 0.16920473 0.3046313
vt 0.23184457 0.21129972
vt 0.24588054 0.12725137
vt 0.16344218 0.15888166
vt 0.10792138 0.14652506
vt 0.19052148 0.0628069
vt 0.2832769 0.04634239
vt 0.5712007 0.03033516
vt 0.6070698 0.0042327647
vt 0.5737687 0.015482286
vt 0.55289567 0.06240018
vt 0.51625067 0.069059566
vt 0.51350415 0.047846776
vt 0.52525544 0.11851023
vt 0.45400935 0.10421954
vt 0.47708172 0.117858484
vt 0.50202143 0.15094371
vt 0.45889032 0.1946768
vt 0.37686732 0.2043162
vt 0.39691392 0.22586653
vt 0.34311956 0.2932247
vt 0.41894156 0.30182213
vt 0.33649245 0.34802556
vt 0.38536608 0.38313797
vt 0.33601177 0.39727843
vt 0.35350806 0.44721746
vt 0.39433622 0.4351206
vt 0.45104027 0.38591713
vt 0.5183798 0.54553086
vt 0.42129046 0.58237314
vt 0.49149317 0.58026177
vt 0.57380974 0.67905945
vt 0.502846 0.72275716
vt 0.44351757 0.6908707
vt 0.91735774 0.88438123
vt 0.9042808 0.851158
vt 0.90334153 0.8865591
vt 0.936329 0.8254277
vt 0.94529116 0.7372347
vt 0.9077184 0.7724247
vt 0.89115894 0.7104551
vt 0.9339422 0.6564778
vt 0.9681744 0.7068091
vt 0.9813922 0.66526324
vt 0.8796832 0.5835226
vt 0.9919184 0.6077907
vt 0.94695556 0.5497734
vt 0.9993225 0.52996075
vt 0.867784 0.51333666
vt 0.9538902 0.46249926
vt 0.37501395 0.88704586
vt 0.3241496 0.79436505
vt 0.36169153 0.8879734
vt 0.37317985 0.80981505
vt 0.32174054 0.7494784
vt 0.3708973 0.749521
vt 0.84765357 0.83564085
vt 0.75172335 0.85072887
vt 0.8401255 0.8491025
vt 0.80159175 0.7964101
vt 0.84016746 0.75937575
vt 0.7151916 0.81017923
vt 0.66064847 0.8434069
vt 0.6371414 0.8169928
vt 0.6237837 0.78171575
vt 0.72254044 0.7607247
vt 0.6183126 0.65771693
vt 0.70524 0.69105947
vt 0.8624939 0.60536826
vt 0.82182026 0.52605075
vt 0.61575884 0.52149194
vt 0.73976827 0.44964558
vt 0.6765231 0.44892544
vt 0.03389112 0.9129255
vt 0.013645597 0.8874519
vt 0.011198344 0.9900496
vt 0.03094241 0.99995875
vt 0.03389112 0.9129255
vt 0.03094241 0.99995875
vt 0.11583725 0.9932282
vt 0.10325417 0.90879124
vt 0.12313977 0.8306769
vt 0.03389112 0.9129255
vt 0.10325417 0.90879124
vt 0.030780219 0.76337373
vt 0.09366049 0.74378526
vt 0.013645597 0.8874519
vt 0.25234708 0.7969239
vt 0.2903569 0.78093064
vt 0.28683743 0.7495725
vt 0.2878859 0.83384395
vt 0.24892187 0.847426
vt 0.2768236 0.8771889
vn 0.25410333 -0.13553603 0.95763326
vn 0.27321002 0.22614904 0.93499357
vn 0.93033546 -0.31245157 0.19196334
vn -0.8900563 -0.45070472 0.068301536
vn -0.27717388 -0.95204127 -0.12958382
vn -0.83508086 -0.54982334 -0.018280651
vn -0.6379679 0.72180337 0.2683225
vn -0.30927896 0.75711393 0.5754346
vn -0.55810165 0.5495868 0.62167275
vn -0.95023465 0.31150582 0.004272638
vn -0.4139364 0.9073762 0.0729722
vn -0.92536503 0.37315518 -0.06674493
vn -0.5901524 0.8022008 -0.090520345
vn -0.75779 0.4578785 -0.46486738
vn -0.1711222 0.95211333 -0.25337195
vn -0.2506849 0.5994891 -0.76011175
vn 0.5027413 0.553342 0.66412634
vn 0.07074273 0.9426972 0.32606354
vn 0.66306853 0.59641373 0.45236132
vn 0.5027413 0.553342 0.66412634
vn -0.30927896 0.75711393 0.5754346
vn 0.07074273 0.9426972 0.32606354
vn 0.14249207 0.2890126 -0.9466613
vn 0.6021079 0.51009333 -0.61422384
vn -0.2506849 0.5994891 -0.76011175
vn -0.57320243 -0.81637555 -0.07049823
vn -0.5672654 -0.5264304 -0.63330954
vn -0.8884722 -0.40071586 -0.22370504
vn -0.899979 -0.085117884 0.42754266
vn -0.5838079 -0.7679932 0.26335293
vn -0.79281175 -0.33080363 -0.51187736
vn 0.1081917 -0.8455433 -0.5228299
vn 0.7071704 -0.6509533 -0.27598906
vn 0.2501997 -0.9593838 -0.13031872
vn -0.010437518 -0.9957759 -0.09122147
vn -0.45665747 -0.8577091 -0.23621793
vn 0.42672303 -0.89660054 -0.118384965
vn -0.27717388 -0.95204127 -0.12958382
vn 0.019165974 -0.9841484 -0.17630865
vn 0.5591459 -0.8280219 -0.04165898
vn -0.1582428 -0.9852561 -0.06503673
vn -0.83508086 -0.54982334 -0.018280651
vn 0.44713134 -0.8943237 -0.016083421
vn -0.57320243 -0.81637555 -0.07049823
vn 0.34834802 -0.89641476 -0.27403337
vn -0.5672654 -0.5264304 -0.63330954
vn 0.005829164 -0.85554427 -0.5176969
vn -0.41842154 -0.65442836 -0.6297992
vn 0.1081917 -0.8455433 -0.5228299
vn -0.45665747 -0.8577091 -0.23621793
vn -0.23152229 -0.72899306 -0.64417887
vn -0.8129582 -0.53294873 -0.23465858
vn 0.56374925 -0.63000625 -0.53411514
vn 0.7071704 -0.6509533 -0.27598906
vn 0.13660659 -0.7423023 -0.6559924
vn 0.8085873 -0.57602763 -0.11991166
vn 0.96621644 -0.22425719 0.1270221
vn 0.56374925 -0.63000625 -0.53411514
vn 0.8085873 -0.57602763 -0.11991166
vn 0.7071704 -0.6509533 -0.27598906
vn 0.9521484 -0.14112231 0.27110502
vn 0.78483224 -0.6155726 0.071476005
vn 0.97180116 0.15137659 0.18079737
vn 0.2501997 -0.9593838 -0.13031872
vn 0.42672303 -0.89660054 -0.118384965
vn 0.94277805 -0.3093457 0.1243975
vn 0.5591459 -0.8280219 -0.04165898
vn 0.8293838 -0.55636096 -0.050844617
vn 0.44713134 -0.8943237 -0.016083421
vn 0.34834802 -0.89641476 -0.27403337
vn 0.76935583 -0.38237372 -0.51174414
vn -0.79281175 -0.33080363 -0.51187736
vn -0.35631004 0.15439594 0.92152315
vn -0.899979 -0.085117884 0.42754266
vn -0.8269756 -0.21903546 0.51781726
vn -0.581146 -0.7326126 -0.35432753
vn -0.82798743 -0.15021577 0.5402519
vn -0.8129582 -0.53294873 -0.23465858
vn -0.9745962 -0.2174179 -0.05377461
vn -0.41842154 -0.65442836 -0.6297992
vn -0.7014731 0.30878854 0.64232785
vn -0.45665747 -0.8577091 -0.23621793
vn -0.55810165 0.5495868 0.62167275
vn -0.8900563 -0.45070472 0.068301536
vn -0.27717388 -0.95204127 -0.12958382
vn -0.9881357 -0.024872772 0.15155604
vn -0.915709 0.2307279 0.3290009
vn -0.6379679 0.72180337 0.2683225
vn -0.95023465 0.31150582 0.004272638
vn -0.83508086 -0.54982334 -0.018280651
vn -0.92536503 0.37315518 -0.06674493
vn -0.99982494 0.0037232882 -0.01834177
vn -0.57320243 -0.81637555 -0.07049823
vn -0.8884722 -0.40071586 -0.22370504
vn -0.97412145 0.21140859 -0.07996109
vn -0.5901524 0.8022008 -0.090520345
vn -0.75779 0.4578785 -0.46486738
vn -0.5672654 -0.5264304 -0.63330954
vn 0.93033546 -0.31245157 0.19196334
vn 0.26645985 -0.94883025 -0.16947103
vn 0.25410333 -0.13553603 0.95763326
vn 0.5229151 -0.3834426 -0.7612697
vn 0.97388375 0.018067097 0.22632703
vn 0.27321002 0.22614904 0.93499357
vn 0.46301144 -0.725113 -0.50973684
vn 0.45457888 0.3754434 0.80771303
vn 0.93104815 0.14484395 0.3349173
vn 0.8085873 -0.57602763 -0.11991166
vn 0.96621644 -0.22425719 0.1270221
vn 0.37501958 0.41188672 0.83048767
vn 0.77335805 0.1736851 0.60971373
vn 0.5027413 0.553342 0.66412634
vn 0.9521484 -0.14112231 0.27110502
vn 0.66306853 0.59641373 0.45236132
vn 0.97180116 0.15137659 0.18079737
vn 0.56390816 0.7929873 0.23060508
vn 0.6519572 0.738602 0.17151949
vn 0.97164774 0.236129 0.011994145
vn 0.94277805 -0.3093457 0.1243975
vn 0.8293838 -0.55636096 -0.050844617
vn 0.79983693 0.5968868 -0.06314342
vn 0.9905048 -0.109167635 -0.08356192
vn 0.76935583 -0.38237372 -0.51174414
vn 0.6021079 0.51009333 -0.61422384
vn 0.40421864 0.8739606 -0.26981476
vn -0.5838079 -0.7679932 0.26335293
vn 0.25410333 -0.13553603 0.95763326
vn 0.26645985 -0.94883025 -0.16947103
vn -0.899979 -0.085117884 0.42754266
vn -0.35631004 0.15439594 0.92152315
vn 0.27321002 0.22614904 0.93499357
vn 0.45457888 0.3754434 0.80771303
vn -0.08377427 0.36354065 0.9278039
vn -0.8269756 -0.21903546 0.51781726
vn -0.82798743 -0.15021577 0.5402519
vn 0.37501958 0.41188672 0.83048767
vn -0.7014731 0.30878854 0.64232785
vn -0.007996002 0.5750712 0.8180643
vn -0.55810165 0.5495868 0.62167275
vn 0.5027413 0.553342 0.66412634
vn -0.30927896 0.75711393 0.5754346
vn 0.26645985 -0.94883025 -0.16947103
vn -0.79281175 -0.33080363 -0.51187736
vn -0.5838079 -0.7679932 0.26335293
vn 0.5229151 -0.3834426 -0.7612697
vn -0.581146 -0.7326126 -0.35432753
vn 0.46301144 -0.725113 -0.50973684
vn -0.6379679 0.72180337 0.2683225
vn 0.07074273 0.9426972 0.32606354
vn -0.30927896 0.75711393 0.5754346
vn -0.07754962 0.98046404 0.18076599
vn -0.4139364 0.9073762 0.0729722
vn 0.23795855 0.9540621 0.18204731
vn 0.66306853 0.59641373 0.45236132
vn 0.56390816 0.7929873 0.23060508
vn 0.6519572 0.738602 0.17151949
vn 0.17392884 0.9561051 0.23582175
vn 0.79983693 0.5968868 -0.06314342
vn 0.15384525 0.9869473 0.04760932
vn -0.5901524 0.8022008 -0.090520345
vn -0.1711222 0.95211333 -0.25337195
vn 0.40421864 0.8739606 -0.26981476
vn -0.2506849 0.5994891 -0.76011175
vn 0.6021079 0.51009333 -0.61422384
vn 0.21598254 -0.39598322 -0.8924959
vn 0.005829164 -0.85554427 -0.5176969
vn 0.34834802 -0.89641476 -0.27403337
vn 0.76935583 -0.38237372 -0.51174414
vn 0.21598254 -0.39598322 -0.8924959
vn 0.76935583 -0.38237372 -0.51174414
vn 0.6021079 0.51009333 -0.61422384
vn 0.14249207 0.2890126 -0.9466613
vn -0.2506849 0.5994891 -0.76011175
vn 0.21598254 -0.39598322 -0.8924959
vn 0.14249207 0.2890126 -0.9466613
vn -0.5672654 -0.5264304 -0.63330954
vn -0.75779 0.4578785 -0.46486738
vn 0.005829164 -0.85554427 -0.5176969
vn -0.581146 -0.7326126 -0.35432753
vn -0.23152229 -0.72899306 -0.64417887
vn -0.8129582 -0.53294873 -0.23465858
vn 0.13660659 -0.7423023 -0.6559924
vn 0.46301144 -0.725113 -0.50973684
vn 0.8085873 -0.57602763 -0.11991166
g rockMesh.007_0
f 3/3/3 2/2/2 1/1/1
f 6/6/6 5/5/5 4/4/4
f 9/9/9 8/8/8 7/7/7
f 7/7/7 11/11/11 10/10/10
f 10/10/10 11/11/11 12/12/12
f 13/13/13 12/12/12 11/11/11
f 13/13/13 15/15/15 14/14/14
f 15/15/15 16/16/16 14/14/14
f 19/19/19 18/18/18 17/17/17
f 22/22/22 21/21/21 20/20/20
f 25/25/25 24/24/24 23/23/23
f 28/28/28 27/27/27 26/26/26
f 31/31/31 30/30/30 29/29/29
f 34/34/34 33/33/33 32/32/32
f 35/35/35 34/34/34 32/32/32
f 32/32/32 36/36/36 35/35/35
f 37/37/37 34/34/34 35/35/35
f 35/35/35 36/36/36 38/38/38
f 35/35/35 38/38/38 37/37/37
f 37/37/37 38/38/38 39/39/39
f 40/40/40 37/37/37 39/39/39
f 41/41/41 40/40/40 39/39/39
f 39/39/39 38/38/38 42/42/42
f 42/42/42 41/41/41 39/39/39
f 43/43/43 40/40/40 41/41/41
f 42/42/42 44/44/44 41/41/41
f 43/43/43 41/41/41 45/45/45
f 44/44/44 46/46/46 41/41/41
f 47/47/47 45/45/45 41/41/41
f 46/46/46 47/47/47 41/41/41
f 50/50/50 49/49/49 48/48/48
f 51/51/51 48/48/48 49/49/49
f 48/48/48 51/51/51 52/52/52
f 53/53/53 51/51/51 49/49/49
f 54/54/54 53/53/53 49/49/49
f 51/51/51 53/53/53 55/55/55
f 53/53/53 56/56/56 55/55/55
f 59/59/59 58/58/58 57/57/57
f 57/57/57 58/58/58 60/60/60
f 57/57/57 60/60/60 61/61/61
f 60/60/60 62/62/62 61/61/61
f 63/63/63 61/61/61 62/62/62
f 60/60/60 64/64/64 62/62/62
f 62/62/62 64/64/64 65/65/65
f 66/66/66 63/63/63 62/62/62
f 62/62/62 65/65/65 66/66/66
f 66/66/66 65/65/65 67/67/67
f 67/67/67 68/68/68 66/66/66
f 67/67/67 69/69/69 68/68/68
f 69/69/69 70/70/70 68/68/68
f 68/68/68 70/70/70 71/71/71
f 74/74/74 73/73/73 72/72/72
f 73/73/73 75/75/75 72/72/72
f 75/75/75 76/76/76 72/72/72
f 76/76/76 75/75/75 77/77/77
f 78/78/78 76/76/76 77/77/77
f 78/78/78 77/77/77 79/79/79
f 79/79/79 80/80/80 78/78/78
f 77/77/77 81/81/81 79/79/79
f 79/79/79 82/82/82 80/80/80
f 83/83/83 79/79/79 81/81/81
f 84/84/84 82/82/82 79/79/79
f 82/82/82 84/84/84 85/85/85
f 79/79/79 83/83/83 86/86/86
f 79/79/79 86/86/86 84/84/84
f 87/87/87 86/86/86 83/83/83
f 87/87/87 83/83/83 88/88/88
f 88/88/88 89/89/89 87/87/87
f 89/89/89 86/86/86 87/87/87
f 89/89/89 84/84/84 86/86/86
f 84/84/84 89/89/89 90/90/90
f 91/91/91 90/90/90 89/89/89
f 91/91/91 92/92/92 90/90/90
f 92/92/92 93/93/93 90/90/90
f 93/93/93 92/92/92 94/94/94
f 95/95/95 92/92/92 91/91/91
f 94/94/94 92/92/92 95/95/95
f 95/95/95 91/91/91 96/96/96
f 96/96/96 97/97/97 95/95/95
f 97/97/97 94/94/94 95/95/95
f 94/94/94 97/97/97 98/98/98
f 101/101/101 100/100/100 99/99/99
f 100/100/100 102/102/102 99/99/99
f 99/99/99 102/102/102 103/103/103
f 104/104/104 99/99/99 103/103/103
f 102/102/102 105/105/105 103/103/103
f 106/106/106 104/104/104 103/103/103
f 105/105/105 107/107/107 103/103/103
f 106/106/106 103/103/103 107/107/107
f 107/107/107 105/105/105 108/108/108
f 107/107/107 108/108/108 109/109/109
f 109/109/109 106/106/106 107/107/107
f 110/110/110 106/106/106 109/109/109
f 111/111/111 110/110/110 109/109/109
f 110/110/110 111/111/111 112/112/112
f 113/113/113 111/111/111 109/109/109
f 112/112/112 111/111/111 114/114/114
f 114/114/114 111/111/111 113/113/113
f 114/114/114 113/113/113 115/115/115
f 115/115/115 116/116/116 114/114/114
f 117/117/117 116/116/116 115/115/115
f 118/118/118 117/117/117 115/115/115
f 119/119/119 118/118/118 115/115/115
f 119/119/119 120/120/120 118/118/118
f 117/117/117 118/118/118 121/121/121
f 120/120/120 122/122/122 118/118/118
f 118/118/118 122/122/122 121/121/121
f 123/123/123 122/122/122 120/120/120
f 122/122/122 123/123/123 124/124/124
f 122/122/122 124/124/124 121/121/121
f 125/125/125 121/121/121 124/124/124
f 128/128/128 127/127/127 126/126/126
f 129/129/129 126/126/126 127/127/127
f 130/130/130 129/129/129 127/127/127
f 131/131/131 130/130/130 127/127/127
f 131/131/131 132/132/132 130/130/130
f 132/132/132 133/133/133 130/130/130
f 134/134/134 130/130/130 133/133/133
f 135/135/135 134/134/134 133/133/133
f 132/132/132 136/136/136 133/133/133
f 133/133/133 137/137/137 135/135/135
f 136/136/136 137/137/137 133/133/133
f 137/137/137 136/136/136 138/138/138
f 139/139/139 137/137/137 138/138/138
f 138/138/138 136/136/136 140/140/140
f 141/141/141 139/139/139 138/138/138
f 140/140/140 141/141/141 138/138/138
f 144/144/144 143/143/143 142/142/142
f 143/143/143 145/145/145 142/142/142
f 145/145/145 143/143/143 146/146/146
f 146/146/146 147/147/147 145/145/145
f 150/150/150 149/149/149 148/148/148
f 148/148/148 149/149/149 151/151/151
f 151/151/151 152/152/152 148/148/148
f 151/151/151 149/149/149 153/153/153
f 149/149/149 154/154/154 153/153/153
f 153/153/153 154/154/154 155/155/155
f 153/153/153 155/155/155 156/156/156
f 157/157/157 151/151/151 153/153/153
f 153/153/153 156/156/156 157/157/157
f 151/151/151 157/157/157 152/152/152
f 156/156/156 158/158/158 157/157/157
f 159/159/159 152/152/152 157/157/157
f 158/158/158 159/159/159 157/157/157
f 159/159/159 160/160/160 152/152/152
f 161/161/161 160/160/160 159/159/159
f 159/159/159 158/158/158 161/161/161
f 158/158/158 162/162/162 161/161/161
f 161/161/161 162/162/162 163/163/163
f 162/162/162 164/164/164 163/163/163
f 167/167/167 166/166/166 165/165/165
f 168/168/168 167/167/167 165/165/165
f 171/171/171 170/170/170 169/169/169
f 172/172/172 171/171/171 169/169/169
f 175/175/175 174/174/174 173/173/173
f 174/174/174 176/176/176 173/173/173
f 176/176/176 177/177/177 173/173/173
f 178/178/178 176/176/176 174/174/174
f 181/181/181 180/180/180 179/179/179
f 180/180/180 182/182/182 179/179/179
f 183/183/183 179/179/179 182/182/182
f 184/184/184 183/183/183 182/182/182
