g spmGPFlower_LOD0
v 0.032731872 1.4394543 0.013227713
v -0.06358707 1.4173515 -0.06236086
v -0.08689451 1.6940749 -0.07951958
v 0.007401765 1.6871971 0.07344553
v -0.1879647 1.416328 -0.059008364
v -0.24960655 1.6601396 -0.010721639
v -0.06358707 1.4173515 -0.06236086
v -0.08689451 1.6940749 -0.07951958
v -0.04208282 1.5716851 -0.18371272
v -0.02335195 0.9689397 -0.019306948
v 0.019012205 -0.13793358 0.014884909
v -0.025997005 0.96798265 -0.02918369
v 0.017509542 -0.13803998 0.0009963913
v -0.035890806 0.9674526 -0.026482549
v 0.0038359084 -0.13811341 -0.0018659857
v -0.003112008 -0.13805246 0.010253776
v -0.03324545 0.96840966 -0.01660581
v 0.0062676026 -0.13794121 0.02060631
v -0.02335195 0.9689397 -0.019306948
v 0.019012205 -0.13793358 0.014884909
v -0.06339109 1.4409093 -0.054967027
v -0.06501324 1.4403448 -0.061018523
v -0.07106656 1.4399331 -0.05935736
v -0.06944441 1.4404975 -0.053305864
v -0.06339109 1.4409093 -0.054967027
v -0.058446012 0.012006987 -0.016702436
v -0.05555072 0.06429147 -0.028929485
v 0.06854038 0.013160961 0.01986351
v 0.07145792 0.06585021 0.0075447145
v -0.032929376 0.20347384 -0.07820223
v 0.090637766 0.18693356 -0.03436651
v 0.013167972 0.38115698 -0.16917741
v 0.1389373 0.37311083 -0.1294123
v 0.04712757 0.48257247 -0.25941226
v 0.17215075 0.4727518 -0.21773848
v 0.07676967 0.50874776 -0.32766885
v 0.19453251 0.49485472 -0.2693347
v 0.11508945 0.5054041 -0.39213678
v 0.22758657 0.49201152 -0.32410026
v 0.06367821 -0.00973745 -0.023543669
v 0.06821973 0.047863964 -0.019009769
v -0.05055779 -0.004849677 0.03779246
v -0.046243045 0.04913406 0.04208465
v 0.09854063 0.409212 0.038121946
v -0.01726418 0.40265697 0.09627841
v 0.11124194 0.47279325 0.07172066
v -0.0045805355 0.46518025 0.12971283
v 0.13010448 0.5264414 0.11654882
v 0.014409116 0.5195919 0.17488877
v 0.15649836 0.5652949 0.17233393
v 0.04026957 0.55814976 0.22956777
v 0.18758613 0.5695322 0.23867486
v 0.07049963 0.561622 0.294029
v 0.018223993 0.052291185 0.060659472
v 0.006336488 0.10780289 0.06560211
v -0.020024141 0.05361524 -0.05035875
v -0.031261206 0.10630235 -0.045635574
v -0.08199882 0.39209348 0.06498489
v -0.11325789 0.3718106 -0.046375934
v -0.12468819 0.462769 0.05906628
v -0.14334865 0.42448613 -0.0503682
v -0.18781045 0.5200055 0.036844835
v -0.18210185 0.46048602 -0.064222276
v -0.27102727 0.538093 0.004999635
v -0.22713058 0.4724031 -0.08187751
v -0.34862143 0.49779478 -0.029117545
v -0.26602578 0.45369905 -0.09999238
v -0.3855388 0.42790565 -0.054007515
v -0.29037228 0.40235612 -0.117884755
v -0.016219018 0.2546756 0.045858994
v -0.019323407 0.30120608 0.04405915
v 0.0057460894 0.2529855 -0.050054867
v 0.0024652227 0.30199766 -0.051906828
v -0.041057173 0.5981078 0.04371503
v -0.026929693 0.6169798 -0.051831245
v -0.12538803 0.8242539 0.08609259
v -0.11321096 0.84928405 -0.008300314
v -0.03565124 0.2794693 0.03280989
v -0.0398206 0.3249427 0.029951783
v 0.022722233 0.28007555 -0.040018108
v 0.018716551 0.3240332 -0.0427415
v -0.07837261 0.55195594 -0.014185698
v -0.020018047 0.54764116 -0.08690366
v -0.1165214 0.65712166 -0.05474025
v -0.056482185 0.64786947 -0.12560259
v -0.18417357 0.79544055 -0.12538101
v -0.12761611 0.79555947 -0.19963092
v -0.05143257 0.27227542 -0.0012758927
v -0.052984606 0.3185023 -0.013676377
v 0.04067312 0.2728006 -0.010370516
v 0.03916406 0.31653604 -0.022113241
v -0.052359767 0.48932347 -0.06729741
v 0.03956944 0.4913568 -0.07784988
v -0.06509462 0.59523207 -0.12858689
v 0.027172616 0.593791 -0.13573872
v -0.06335391 0.6409061 -0.17248726
v 0.028777694 0.6324207 -0.17498903
v -0.06270712 0.653544 -0.23149559
v 0.029330904 0.64392626 -0.23321223
v -0.06627968 0.63331467 -0.28812715
v 0.025990602 0.6260784 -0.28762057
v -0.06772321 0.5830693 -0.32374486
v 0.024700996 0.57877564 -0.32134756
v -0.041246757 0.50008446 -0.008270443
v -0.04343614 0.5268596 -0.018399253
v 0.013965025 0.5010665 -0.016919754
v 0.011451947 0.5308619 -0.028164743
v -0.05923575 0.67899287 -0.070294805
v -0.0044180765 0.671632 -0.07835433
v -0.057281062 0.71225697 -0.09374522
v -0.0026130502 0.7023589 -0.09986926
v -0.055769872 0.73403585 -0.12945284
v -0.0013365486 0.721358 -0.13007951
v -0.052745644 0.7347817 -0.17251286
v 0.0010972804 0.7223126 -0.1641729
v -0.048454974 0.7138648 -0.20832959
v 0.0047795693 0.7034412 -0.19485651
v -0.048646078 0.68111765 -0.23078571
v 0.004408018 0.67096573 -0.21642233
v -0.00853044 0.5135481 0.016505226
v -0.01979981 0.53958654 0.01977299
v -0.025431905 0.5127632 -0.033276845
v -0.036619596 0.5385902 -0.03003286
v -0.059730444 0.63427025 0.037984483
v -0.08106827 0.643677 -0.009140342
v -0.08422935 0.69246966 0.06676462
v -0.10860146 0.7089877 0.023201989
v -0.104647905 0.7133134 0.08817347
v -0.12855549 0.7312725 0.04492539
v -0.13228717 0.72293836 0.10589758
v -0.15976001 0.7407899 0.06477458
v -0.15759899 0.7141108 0.12346169
v -0.19260558 0.72917366 0.08723742
v -0.17985243 0.6930186 0.13993369
v -0.2174675 0.70605123 0.10558577
v 0.012944858 0.5059622 -0.008118044
v 0.013524891 0.5352651 -0.007512406
v -0.03960236 0.50680166 -0.0102443285
v -0.039029337 0.535462 -0.009622231
v 0.032516375 0.7537817 -0.016263824
v -0.01876684 0.76517546 -0.018840298
v 0.04091696 0.78631395 -0.022347936
v -0.008471002 0.8040164 -0.026076252
v 0.054145586 0.8114032 -0.035817962
v 0.010044991 0.8388316 -0.04414114
v 0.07128632 0.8221886 -0.06221761
v 0.030928971 0.8533044 -0.07523836
vt 0.99000007 0.004999995
vt 0.5 0.004999995
vt 0.5 0.495
vt 0.99000007 0.495
vt 0.010000001 0.004999995
vt 0.010000001 0.495
vt 0.988093 0.004999995
vt 0.419047 0.495
vt 0.988093 0.495
vt -0.388332 1.611969
vt -0.388332 0.21200001
vt -0.13833201 1.611969
vt -0.188332 0.21200001
vt 0.111668006 1.611969
vt 0.011668001 0.21200001
vt 0.21166801 0.21200001
vt 0.361668 1.611969
vt 0.41166797 0.21200001
vt 0.611668 1.611969
vt 0.611668 0.21200001
vt -0.388332 2.2120621
vt -0.13833201 2.212031
vt 0.111668006 2.212
vt 0.361668 2.212031
vt 0.611668 2.2120621
vt 0 0.5
vt 0 0.53951705
vt 0.515625 0.5
vt 0.515625 0.53951705
vt 0 0.642007
vt 0.515625 0.642007
vt 0 0.79585505
vt 0.515625 0.79585505
vt 0 0.8981011
vt 0.515625 0.8981011
vt 0 0.94908506
vt 0.515625 0.94908506
vt 0 1
vt 0.515625 1
vt 0.515625 0.5
vt 0.515625 0.53951406
vt 0 0.5
vt 0 0.53951406
vt 0.515625 0.795885
vt 0 0.795885
vt 0.515625 0.846931
vt 0 0.846931
vt 0.515625 0.89818305
vt 0 0.89818305
vt 0.515625 0.94909006
vt 0 0.94909006
vt 0.515625 1
vt 0 1
vt 0 0.5
vt 0 0.539733
vt 0.515625 0.5
vt 0.515625 0.539733
vt 0 0.74597996
vt 0.515625 0.74597996
vt 0 0.79734004
vt 0.515625 0.79734004
vt 0 0.84840304
vt 0.515625 0.84840304
vt 0 0.89873904
vt 0.515625 0.89873904
vt 0 0.94905305
vt 0.515625 0.94905305
vt 0 1
vt 0.515625 1
vt 0.515625 0.5
vt 0.515625 0.5394921
vt 0 0.5
vt 0 0.5394921
vt 0.515625 0.795035
vt 0 0.795035
vt 0.515625 1
vt 0 1
vt 0 0.5
vt 0 0.539448
vt 0.515625 0.5
vt 0.515625 0.539448
vt 0 0.74419504
vt 0.515625 0.74419504
vt 0 0.846414
vt 0.515625 0.846414
vt 0 1
vt 0.515625 1
vt 0.515625 0.5
vt 0.515625 0.53971803
vt 0 0.5
vt 0 0.53971803
vt 0.515625 0.6944151
vt 0 0.6944151
vt 0.515625 0.79737
vt 0 0.79737
vt 0.515625 0.8478541
vt 0 0.8478541
vt 0.515625 0.8988661
vt 0 0.8988661
vt 0.515625 0.94898003
vt 0 0.94898003
vt 0.515625 1
vt 0 1
vt 0 0.5
vt 0 0.53965205
vt 0.515625 0.5
vt 0.515625 0.53965205
vt 0 0.74516505
vt 0.515625 0.74516505
vt 0 0.796352
vt 0.515625 0.796352
vt 0 0.8470551
vt 0.515625 0.8470551
vt 0 0.89763105
vt 0.515625 0.89763105
vt 0 0.9485581
vt 0.515625 0.9485581
vt 0 1
vt 0.515625 1
vt 0.515625 0.5
vt 0.515625 0.53961205
vt 0 0.5
vt 0 0.53961205
vt 0.515625 0.6937051
vt 0 0.6937051
vt 0.515625 0.796386
vt 0 0.796386
vt 0.515625 0.8473151
vt 0 0.8473151
vt 0.515625 0.8977201
vt 0 0.8977201
vt 0.515625 0.9488961
vt 0 0.9488961
vt 0.515625 1
vt 0 1
vt 0 0.5
vt 0 0.539573
vt 0.515625 0.5
vt 0.515625 0.539573
vt 0 0.84770906
vt 0.515625 0.84770906
vt 0 0.89887404
vt 0.515625 0.89887404
vt 0 0.94990003
vt 0.515625 0.94990003
vt 0 1
vt 0.515625 1
vn 0.874894 0.052709006 0.481438
vn 0.612808 -0.6795251 -0.40337598
vn -0.032277 0.97804505 -0.20588
vn 0.403987 0.726115 0.55637395
vn -0.99455214 -0.061440997 -0.084216006
vn -0.74322206 0.64582705 0.17472298
vn 0.612808 -0.6795251 -0.40337598
vn -0.032277 0.97804505 -0.20588
vn 0.25837597 0.441639 -0.859184
vn 0.86545 0.06713401 0.49647802
vn 0.866636 0.048509005 0.496578
vn 0.497396 -0.0080780005 -0.86748606
vn 0.7409769 0.010825001 -0.671444
vn -0.865768 -0.059205003 -0.49693105
vn -0.409278 -0.035007 -0.911738
vn -0.9938421 -0.025888003 0.107735
vn -0.498113 0.016703002 0.866951
vn -0.20494999 0.02559 0.978438
vn 0.86545 0.06713401 0.49647802
vn 0.866636 0.048509005 0.496578
vn 0.862714 0.110473 0.493478
vn 0.498111 -0.017285 -0.866941
vn -0.863688 -0.09869201 -0.49427003
vn -0.49905103 0.029064 0.866085
vn 0.862714 0.110473 0.493478
vn -0.48704702 0.102593005 -0.86732906
vn -0.48733002 0.10742 -0.866586
vn 0.87169296 0.118723 -0.475454
vn 0.873003 0.064867005 -0.483383
vn -0.42412502 0.07930001 -0.90212506
vn 0.90435404 -0.013543001 -0.426568
vn -0.46145102 0.015807 -0.88702506
vn 0.8831661 -0.086279005 -0.461057
vn -0.470826 -0.16025001 -0.8675501
vn 0.87127495 -0.239974 -0.42812598
vn -0.445395 -0.404062 -0.798972
vn 0.816749 -0.548954 -0.17768
vn -0.41927102 -0.474992 -0.773689
vn 0.784702 -0.61818403 -0.045730002
vn 0.949637 0.176736 0.258753
vn 0.9448521 0.19316703 0.26446304
vn -0.29460904 0.22222 0.92942107
vn -0.30208102 0.20226602 0.931577
vn 0.932618 0.19589801 0.303062
vn -0.33897102 0.186521 0.92212206
vn 0.94945407 -0.001938 0.3139
vn -0.312882 -0.08659901 0.94583607
vn 0.946985 -0.14077601 0.288793
vn -0.31371 -0.21108802 0.925758
vn 0.91264695 -0.35289004 0.20626001
vn -0.35417002 -0.43080702 0.83004206
vn 0.87958205 -0.455309 0.137949
vn -0.398263 -0.546023 0.73705107
vn -0.429042 0.106206 0.8970191
vn -0.428095 0.172221 0.88717204
vn -0.88881004 0.127421 -0.440205
vn -0.8941061 0.062589 -0.44346
vn -0.49363303 0.19294502 0.847997
vn -0.85956305 0.036931 -0.509694
vn -0.57889503 0.173723 0.796681
vn -0.80620897 -0.267749 -0.527576
vn -0.681394 0.098085 0.725315
vn -0.624087 -0.59513 -0.50629497
vn -0.721125 -0.120220006 0.68229496
vn -0.21865 -0.8945761 -0.38977602
vn -0.6405231 -0.385046 0.66443205
vn 0.377774 -0.911328 -0.16360901
vn -0.56696296 -0.49960503 0.654941
vn 0.59097695 -0.80059206 -0.09899301
vn -0.81019205 0.23776501 0.535777
vn -0.787503 0.28077 0.548641
vn -0.49681005 0.20654099 -0.842924
vn -0.476525 0.287179 -0.830934
vn -0.731342 0.189594 0.65512806
vn -0.572792 0.349267 -0.741567
vn -0.745513 0.07916201 0.661774
vn -0.5822739 0.40584 -0.70445
vn -0.973208 0.19115901 0.12777
vn -0.9730661 0.195854 0.121589005
vn -0.08800301 0.203691 -0.975072
vn -0.093966 0.144179 -0.98508
vn -0.974357 0.19388802 0.114174
vn -0.09255 0.117114 -0.98879606
vn -0.991998 0.09964101 0.07753601
vn -0.077997014 -0.001061 -0.996953
vn -0.981749 0.13127802 0.13760601
vn -0.13787901 0.012281001 -0.990373
vn -0.7731 0.08584601 -0.628448
vn -0.76552504 0.12029201 -0.63206106
vn 0.63426006 0.096131004 -0.76712006
vn 0.642281 0.08454601 -0.761792
vn -0.784049 0.06841 -0.61691695
vn 0.62052304 0.06921501 -0.781128
vn -0.760105 -0.057841 -0.6472201
vn 0.64953303 -0.035281 -0.75951505
vn -0.750127 -0.25148198 -0.611609
vn 0.655655 -0.40631202 -0.63641703
vn -0.77205694 -0.517767 -0.368572
vn 0.63452613 -0.66115004 -0.400321
vn -0.760058 -0.649274 -0.027477002
vn 0.64990205 -0.759389 -0.030922001
vn -0.742108 -0.65653604 0.135038
vn 0.670137 -0.722565 0.169753
vn -0.808133 0.00151 -0.58899796
vn -0.823339 0.039902 -0.566146
vn 0.58868897 0.034573 -0.80762005
vn 0.5675661 0.09123401 -0.818257
vn -0.7944661 0.064646006 -0.60385907
vn 0.605989 0.06435 -0.79286605
vn -0.800219 -0.057399005 -0.596955
vn 0.584611 -0.29695603 -0.755015
vn -0.79738605 -0.279736 -0.53471905
vn 0.582524 -0.588631 -0.56051606
vn -0.786006 -0.48273003 -0.38622105
vn 0.573319 -0.802965 -0.16295101
vn -0.813904 -0.56089604 -0.151513
vn 0.527713 -0.822541 0.212004
vn -0.83834106 -0.54372406 -0.039355002
vn 0.501752 -0.79772407 0.334486
vn -0.441979 -0.007344 0.896995
vn -0.444145 -0.011885 0.89587605
vn -0.896333 -0.035632998 -0.44194698
vn -0.895753 0.029889002 -0.44354698
vn -0.35237503 -0.066567004 0.9334891
vn -0.9334891 0.09526501 -0.345721
vn -0.29686803 -0.27701402 0.9138561
vn -0.9543021 0.12543601 -0.271245
vn -0.27898198 -0.555877 0.783051
vn -0.92063695 -0.077081 -0.38273504
vn -0.094324 -0.767695 0.6338351
vn -0.81756705 -0.30323303 -0.48952502
vn 0.237439 -0.868107 0.435905
vn -0.71094495 -0.46106198 -0.531017
vn 0.348622 -0.8591251 0.37465504
vn -0.666863 -0.508241 -0.544963
vn 0.68381506 0.24320401 0.687931
vn 0.67974 0.28687003 0.67502606
vn -0.728869 0.271374 0.628575
vn -0.727054 0.38505504 0.56844103
vn 0.75691396 0.295156 0.583064
vn -0.64559007 0.47468102 0.59824
vn 0.822261 0.295565 0.486342
vn -0.505396 0.77205896 0.38535702
vn 0.9386691 0.23099901 0.256009
vn -0.25480002 0.96501607 0.061809998
vn 0.98641205 0.1275 0.103611
vn -0.102524996 0.969964 -0.220588
g spmGPFlower_LOD0_0
f 2/2/2 3/3/3 1/1/1
f 3/3/3 4/4/4 1/1/1
f 2/2/2 5/5/5 3/3/3
f 5/5/5 6/6/6 3/3/3
f 8/8/8 9/9/9 7/7/7
g spmGPFlower_LOD0_1
f 11/11/11 12/12/12 10/10/10
f 12/12/12 11/11/11 13/13/13
f 13/13/13 14/14/14 12/12/12
f 14/14/14 13/13/13 15/15/15
f 14/14/14 15/15/15 16/16/16
f 16/16/16 17/17/17 14/14/14
f 17/17/17 16/16/16 18/18/18
f 18/18/18 19/19/19 17/17/17
f 19/19/19 18/18/18 20/20/20
f 10/10/10 22/22/22 21/21/21
f 22/22/22 10/10/10 12/12/12
f 12/12/12 23/23/23 22/22/22
f 23/23/23 12/12/12 14/14/14
f 14/14/14 24/24/24 23/23/23
f 24/24/24 14/14/14 17/17/17
f 17/17/17 25/25/25 24/24/24
f 25/25/25 17/17/17 19/19/19
g spmGPFlower_LOD0_2
f 27/27/27 28/28/28 26/26/26
f 28/28/28 27/27/27 29/29/29
f 30/30/30 29/29/29 27/27/27
f 29/29/29 30/30/30 31/31/31
f 32/32/32 31/31/31 30/30/30
f 31/31/31 32/32/32 33/33/33
f 34/34/34 33/33/33 32/32/32
f 33/33/33 34/34/34 35/35/35
f 36/36/36 35/35/35 34/34/34
f 35/35/35 36/36/36 37/37/37
f 38/38/38 37/37/37 36/36/36
f 37/37/37 38/38/38 39/39/39
f 41/41/41 42/42/42 40/40/40
f 42/42/42 41/41/41 43/43/43
f 44/44/44 43/43/43 41/41/41
f 43/43/43 44/44/44 45/45/45
f 46/46/46 45/45/45 44/44/44
f 45/45/45 46/46/46 47/47/47
f 48/48/48 47/47/47 46/46/46
f 47/47/47 48/48/48 49/49/49
f 50/50/50 49/49/49 48/48/48
f 49/49/49 50/50/50 51/51/51
f 52/52/52 51/51/51 50/50/50
f 51/51/51 52/52/52 53/53/53
f 55/55/55 56/56/56 54/54/54
f 56/56/56 55/55/55 57/57/57
f 58/58/58 57/57/57 55/55/55
f 57/57/57 58/58/58 59/59/59
f 60/60/60 59/59/59 58/58/58
f 59/59/59 60/60/60 61/61/61
f 62/62/62 61/61/61 60/60/60
f 61/61/61 62/62/62 63/63/63
f 64/64/64 63/63/63 62/62/62
f 63/63/63 64/64/64 65/65/65
f 66/66/66 65/65/65 64/64/64
f 65/65/65 66/66/66 67/67/67
f 68/68/68 67/67/67 66/66/66
f 67/67/67 68/68/68 69/69/69
f 71/71/71 72/72/72 70/70/70
f 72/72/72 71/71/71 73/73/73
f 74/74/74 73/73/73 71/71/71
f 73/73/73 74/74/74 75/75/75
f 76/76/76 75/75/75 74/74/74
f 75/75/75 76/76/76 77/77/77
f 79/79/79 80/80/80 78/78/78
f 80/80/80 79/79/79 81/81/81
f 82/82/82 81/81/81 79/79/79
f 81/81/81 82/82/82 83/83/83
f 84/84/84 83/83/83 82/82/82
f 83/83/83 84/84/84 85/85/85
f 86/86/86 85/85/85 84/84/84
f 85/85/85 86/86/86 87/87/87
f 89/89/89 90/90/90 88/88/88
f 90/90/90 89/89/89 91/91/91
f 92/92/92 91/91/91 89/89/89
f 91/91/91 92/92/92 93/93/93
f 94/94/94 93/93/93 92/92/92
f 93/93/93 94/94/94 95/95/95
f 96/96/96 95/95/95 94/94/94
f 95/95/95 96/96/96 97/97/97
f 98/98/98 97/97/97 96/96/96
f 97/97/97 98/98/98 99/99/99
f 100/100/100 99/99/99 98/98/98
f 99/99/99 100/100/100 101/101/101
f 102/102/102 101/101/101 100/100/100
f 101/101/101 102/102/102 103/103/103
f 105/105/105 106/106/106 104/104/104
f 106/106/106 105/105/105 107/107/107
f 108/108/108 107/107/107 105/105/105
f 107/107/107 108/108/108 109/109/109
f 110/110/110 109/109/109 108/108/108
f 109/109/109 110/110/110 111/111/111
f 112/112/112 111/111/111 110/110/110
f 111/111/111 112/112/112 113/113/113
f 114/114/114 113/113/113 112/112/112
f 113/113/113 114/114/114 115/115/115
f 116/116/116 115/115/115 114/114/114
f 115/115/115 116/116/116 117/117/117
f 118/118/118 117/117/117 116/116/116
f 117/117/117 118/118/118 119/119/119
f 121/121/121 122/122/122 120/120/120
f 122/122/122 121/121/121 123/123/123
f 124/124/124 123/123/123 121/121/121
f 123/123/123 124/124/124 125/125/125
f 126/126/126 125/125/125 124/124/124
f 125/125/125 126/126/126 127/127/127
f 128/128/128 127/127/127 126/126/126
f 127/127/127 128/128/128 129/129/129
f 130/130/130 129/129/129 128/128/128
f 129/129/129 130/130/130 131/131/131
f 132/132/132 131/131/131 130/130/130
f 131/131/131 132/132/132 133/133/133
f 134/134/134 133/133/133 132/132/132
f 133/133/133 134/134/134 135/135/135
f 137/137/137 138/138/138 136/136/136
f 138/138/138 137/137/137 139/139/139
f 140/140/140 139/139/139 137/137/137
f 139/139/139 140/140/140 141/141/141
f 142/142/142 141/141/141 140/140/140
f 141/141/141 142/142/142 143/143/143
f 144/144/144 143/143/143 142/142/142
f 143/143/143 144/144/144 145/145/145
f 146/146/146 145/145/145 144/144/144
f 145/145/145 146/146/146 147/147/147
