g spmRJgrass2_LOD0
v -0.52894455 1.1629459 1.2969353
v 0.5042957 1.1489053 1.4559025
v 0.11659327 1.6537542 1.3962532
v 0.017517252 -0.02448732 1.3810102
v 0.7798061 -0.024487354 1.4982907
v -0.8819197 -0.024487281 1.242629
v 2.042563 0.7838179 -0.35705
v 2.1796343 0.77427137 0.3404086
v 2.128201 1.1175348 0.078701325
v 2.1150575 -0.023557205 0.011823189
v 2.2161841 -0.02355712 0.52638394
v 1.9957366 -0.023557305 -0.59531546
v 0.21910654 0.70956945 -2.5136733
v -0.048298042 1.012516 -2.211983
v -0.20889801 0.70090294 -2.0307915
v -0.32302397 -0.023362633 -1.9020324
v -0.0072570657 -0.023362594 -2.2582858
v 0.36532143 -0.023362549 -2.6786351
v -2.3140233 0.7468753 0.103216976
v -2.7182477 1.0650436 -0.022746786
v -2.96102 0.73777354 -0.09839925
v -3.13354 -0.02288276 -0.15215974
v -2.656208 -0.022882765 -0.0034142816
v -2.0929964 -0.02288277 0.17209288
v 0.6192809 0.5204392 0.8656347
v 0.9113617 0.83845776 0.55939245
v 1.086782 0.5113416 0.37546694
v 1.2114396 -0.24895658 0.24476525
v 0.8665335 -0.24895649 0.60639405
v 0.45957318 -0.24895638 1.0330857
v -0.8899937 0.39463273 0.6343623
v -0.88252616 0.38700703 0.06662953
v -0.88532823 0.66120327 0.27965975
v -0.88604426 -0.25029233 0.33409885
v -0.88053495 -0.25029233 -0.084754705
v -0.8925448 -0.25029233 0.82831097
v -0.24174064 0.54994905 -2.0092342
v 0.16297144 0.5406021 -1.4430679
v 0.011111364 0.8766904 -1.6555104
v -0.027695661 -0.24054955 -1.7097992
v 0.27088687 -0.24054945 -1.2921013
v -0.3799981 -0.24054967 -2.2026477
v -1.8282727 0.24614653 -0.7845055
v -1.6409572 0.4462651 -0.97379506
v -1.5284578 0.2404218 -1.0874803
v -1.4485129 -0.23800856 -1.1682677
v -1.669706 -0.23800862 -0.94474334
v -1.9306953 -0.2380087 -0.68100333
v 1.5468026 0.24985059 -0.39772004
v 1.80221 0.4520406 -0.48233998
v 1.9556046 0.24406658 -0.53316164
v 2.0646105 -0.23931609 -0.56927663
v 1.7630105 -0.23931606 -0.46935248
v 1.4071479 -0.23931603 -0.35145038
v -1.9254571 0.25326574 1.0801339
v -2.0804977 0.24752574 1.4783964
v -2.022322 0.45391667 1.3289565
v -2.0074553 -0.23217733 1.2907677
v -2.1218388 -0.23217733 1.584592
v -1.8724923 -0.23217733 0.94407964
v -1.6248356 0.4591494 -1.346478
v -1.5109786 0.7455983 -1.7102627
v -1.4425974 0.45095512 -1.9287477
v -1.394004 -0.23386821 -2.0840082
v -1.528453 -0.23386827 -1.6544298
v -1.6870916 -0.23386833 -1.1475633
v -0.2865752 0.120070174 2.8364284
v -0.18724516 0.26394248 2.6727562
v -0.12758872 0.115954444 2.5744565
v -0.08519544 -0.22800611 2.5046024
v -0.20249018 -0.22800611 2.6978762
v -0.34088814 -0.22800611 2.925923
vt 0.34936628 0.11178966
vt 0.34534886 0.41091105
vt 0.48980218 0.29867184
vt 0.009603974 0.26998952
vt 0.009603985 0.4906709
vt 0.009603963 0.009603953
vt 0.34936628 0.11178966
vt 0.34534886 0.41091105
vt 0.48980218 0.29867184
vt 0.009603974 0.26998952
vt 0.009603985 0.4906709
vt 0.009603963 0.009603953
vt 0.34936628 0.11178966
vt 0.48980218 0.29867184
vt 0.34534886 0.41091105
vt 0.009603985 0.4906709
vt 0.009603974 0.26998952
vt 0.009603963 0.009603953
vt 0.34936628 0.11178966
vt 0.48980218 0.29867184
vt 0.34534886 0.41091105
vt 0.009603985 0.4906709
vt 0.009603974 0.26998952
vt 0.009603963 0.009603953
vt 0.84877247 0.11178966
vt 0.98920834 0.29867184
vt 0.84475505 0.41091105
vt 0.5090102 0.4906709
vt 0.50901014 0.26998952
vt 0.50901014 0.009603953
vt 0.84877247 0.11178966
vt 0.84475505 0.41091105
vt 0.98920834 0.29867184
vt 0.50901014 0.26998952
vt 0.5090102 0.4906709
vt 0.50901014 0.009603953
vt 0.84877247 0.11178966
vt 0.84475505 0.41091105
vt 0.98920834 0.29867184
vt 0.50901014 0.26998952
vt 0.5090102 0.4906709
vt 0.50901014 0.009603953
vt 0.84877247 0.11178966
vt 0.98920834 0.29867184
vt 0.84475505 0.41091105
vt 0.5090102 0.4906709
vt 0.50901014 0.26998952
vt 0.50901014 0.009603953
vt 0.84877247 0.11178966
vt 0.98920834 0.29867184
vt 0.84475505 0.41091105
vt 0.5090102 0.4906709
vt 0.50901014 0.26998952
vt 0.50901014 0.009603953
vt 0.84877247 0.11178966
vt 0.84475505 0.41091105
vt 0.98920834 0.29867184
vt 0.50901014 0.26998952
vt 0.5090102 0.4906709
vt 0.50901014 0.009603953
vt 0.84877247 0.11178966
vt 0.98920834 0.29867184
vt 0.84475505 0.41091105
vt 0.5090102 0.4906709
vt 0.50901014 0.26998952
vt 0.50901014 0.009603953
vt 0.84877247 0.11178966
vt 0.98920834 0.29867184
vt 0.84475505 0.41091105
vt 0.5090102 0.4906709
vt 0.50901014 0.26998952
vt 0.50901014 0.009603953
vn -0.19762217 0.17365696 0.964774
vn -0.047093287 0.16482487 0.98519796
vn -0.10587507 0.21674158 0.9704708
vn -0.11109429 -0.004451013 0.9937999
vn 0.0054680407 -0.0038614026 0.9999776
vn -0.26556042 -0.0041560116 0.96408534
vn -0.746851 0.63932353 0.18297294
vn -0.6889413 0.44211042 0.57436776
vn -0.73283905 0.55649084 0.3914907
vn -0.59846497 -0.037617195 0.80026543
vn -0.64286554 -0.015660247 0.76581895
vn -0.84247947 -0.0809829 -0.53260696
vn 0.9645429 0.17144403 0.20065862
vn 0.93293124 0.28076184 0.22541572
vn 0.9505602 0.2500103 0.18420148
vn 0.99397373 -0.011161938 0.10904984
vn 0.9886724 -0.0075361277 0.1499005
vn 0.9828971 -0.0053463243 0.18407807
vn -0.55912304 0.099048816 0.8231469
vn -0.5636669 0.120768875 0.8171258
vn -0.5790646 0.08045523 0.81130224
vn -0.5902602 -0.0024367883 0.8072094
vn -0.58068484 -0.0028159767 0.8141237
vn -0.56359655 -0.003435718 0.82604307
vn -0.7220498 0.5748882 -0.38489953
vn -0.4897635 0.55515957 -0.6722572
vn -0.3005682 0.43486094 -0.84885496
vn -0.1975362 -0.21025297 -0.9574827
vn -0.30142957 -0.5532637 -0.7765562
vn -0.93827516 -0.3126649 -0.14792088
vn 0.8143003 0.29778948 0.4982334
vn 0.775787 0.6164236 0.13482094
vn 0.8143657 0.527066 0.24291985
vn 0.7754516 -0.36538666 0.5149443
vn 0.7584263 -0.62819284 -0.1736758
vn 0.8239845 -0.15882446 0.5438974
vn -0.98144495 0.14527917 0.12513934
vn -0.9654655 0.23872522 0.104339816
vn -0.9479344 0.27626994 0.15841553
vn -0.9926308 -0.08694541 0.08440849
vn -0.9884696 -0.14572653 0.041130602
vn -0.99127537 -0.05735177 0.118676364
vn -0.7728312 0.03145332 -0.63383186
vn -0.75052196 0.0579371 -0.65830094
vn -0.73814297 0.031992726 -0.67388535
vn -0.72795475 -0.031847313 -0.6848852
vn -0.7552747 -0.031193675 -0.65466565
vn -0.78324616 -0.029826002 -0.62099594
vn 0.0849439 0.06168597 -0.99447453
vn 0.076252945 0.09334496 -0.9927096
vn 0.08330998 0.047284998 -0.9954012
vn 0.08298504 -0.04384787 -0.99558574
vn 0.08425767 -0.05163648 -0.99510527
vn 0.086093195 -0.06525943 -0.99414754
vn -0.9880108 0.032343864 -0.15095915
vn -0.99182487 0.028305957 -0.12442778
vn -0.9893472 0.0535778 -0.13535713
vn -0.99033093 -0.027971268 -0.13587607
vn -0.9926254 -0.025810383 -0.11844233
vn -0.98634756 -0.030838128 -0.16176379
vn -0.9200408 0.054804556 -0.387971
vn -0.90383714 0.08252831 -0.4198423
vn -0.89590526 0.049183 -0.44151437
vn -0.8902382 -0.025006566 -0.4548084
vn -0.90726334 -0.026993375 -0.41969576
vn -0.9295621 -0.028914366 -0.36753005
vn -0.99885947 0.022498695 -0.042115152
vn -0.9978615 0.053855687 -0.037041668
vn -0.9992475 0.025227897 -0.02946371
vn -0.9982838 -0.051560447 -0.027768133
vn -0.99824286 -0.04594401 -0.03742319
vn -0.99805814 -0.040648248 -0.047197938
g spmRJgrass2_LOD0_0
f 2/2/2 3/3/3 1/1/1
f 4/4/4 5/5/5 2/2/2
f 4/4/4 2/2/2 1/1/1
f 6/6/6 4/4/4 1/1/1
f 8/8/8 9/9/9 7/7/7
f 10/10/10 11/11/11 8/8/8
f 10/10/10 8/8/8 7/7/7
f 12/12/12 10/10/10 7/7/7
f 14/14/14 15/15/15 13/13/13
f 16/16/16 17/17/17 15/15/15
f 15/15/15 17/17/17 13/13/13
f 17/17/17 18/18/18 13/13/13
f 20/20/20 21/21/21 19/19/19
f 22/22/22 23/23/23 21/21/21
f 21/21/21 23/23/23 19/19/19
f 23/23/23 24/24/24 19/19/19
f 26/26/26 27/27/27 25/25/25
f 28/28/28 29/29/29 27/27/27
f 27/27/27 29/29/29 25/25/25
f 29/29/29 30/30/30 25/25/25
f 32/32/32 33/33/33 31/31/31
f 34/34/34 35/35/35 32/32/32
f 34/34/34 32/32/32 31/31/31
f 36/36/36 34/34/34 31/31/31
f 38/38/38 39/39/39 37/37/37
f 40/40/40 41/41/41 38/38/38
f 40/40/40 38/38/38 37/37/37
f 42/42/42 40/40/40 37/37/37
f 44/44/44 45/45/45 43/43/43
f 46/46/46 47/47/47 45/45/45
f 45/45/45 47/47/47 43/43/43
f 47/47/47 48/48/48 43/43/43
f 50/50/50 51/51/51 49/49/49
f 52/52/52 53/53/53 51/51/51
f 51/51/51 53/53/53 49/49/49
f 53/53/53 54/54/54 49/49/49
f 56/56/56 57/57/57 55/55/55
f 58/58/58 59/59/59 56/56/56
f 58/58/58 56/56/56 55/55/55
f 60/60/60 58/58/58 55/55/55
f 62/62/62 63/63/63 61/61/61
f 64/64/64 65/65/65 63/63/63
f 63/63/63 65/65/65 61/61/61
f 65/65/65 66/66/66 61/61/61
f 68/68/68 69/69/69 67/67/67
f 70/70/70 71/71/71 69/69/69
f 69/69/69 71/71/71 67/67/67
f 71/71/71 72/72/72 67/67/67
