g meshSPMossSpiral
v 0.26402137 0.05422719 0.43395233
v 0.26906776 -0.024168678 0.4472465
v 0.24001275 -0.02296647 0.42740816
v 0.23552796 0.046705127 0.4151684
v 0.23352093 0.13120463 0.42034546
v 0.05101962 -0.015146523 0.18677862
v 0.20842172 0.11511616 0.4026408
v 0.18060857 0.19478336 0.40714294
v 0.050187748 -0.00222335 0.18139766
v 0.16139771 0.17161952 0.39048535
v 0.11074915 0.23858286 0.3943499
v 0.012054139 -0.0123013295 -6.055832E-09
v 0.012133497 -0.013534168 -6.055832E-09
v 0.011574493 -0.011090799 -6.055832E-09
v 0.0451599 0.010466 0.17589013
v 0.0107424045 -0.010090973 -6.055832E-09
v 0.03643756 0.02094664 0.17054626
v 0.00964381 -0.009402192 -6.055832E-09
v 0.09931258 0.21054482 0.37870708
v 0.031108402 0.25836384 0.3819644
v 0.024921583 0.028166763 0.1653682
v 0.008391397 -0.009091121 -6.055832E-09
v 0.028534641 0.22812444 0.36730394
v -0.05025988 0.2524142 0.3699768
v 0.0117932 0.031427562 0.16035502
v 0.007111816 -0.009184684 -6.055832E-09
v -0.04377859 0.22283693 0.35626715
v -0.12526429 0.22164306 0.35837245
v -0.0016199593 0.030446798 0.15550292
v 0.005932312 -0.009668582 -6.055832E-09
v -0.110436134 0.19549017 0.3455832
v -0.18659133 0.16940421 0.34713158
v -0.013984066 0.025374329 0.15080597
v 0.0049678963 -0.01049008 -6.055832E-09
v -0.16493842 0.1490647 0.33523396
v -0.22839148 0.101092376 0.33623147
v -0.024093527 0.016763011 0.14625609
v 0.0043105553 -0.011564338 -6.055832E-09
v -0.20208687 0.08835493 0.32519835
v -0.24679722 0.023562612 0.32564616
v -0.030984076 0.005502141 0.14184417
v 0.00402111 -0.012783555 -6.055832E-09
v -0.21844429 0.01945305 0.31545264
v -0.24022666 -0.055545505 0.31534833
v -0.034018174 -0.007278255 0.13755967
v 0.004124438 -0.014027594 -6.055832E-09
v -0.21260494 -0.050851535 0.3059716
v -0.20947662 -0.12853178 0.3053092
v -0.032935046 -0.020318838 0.1333915
v 0.0046080067 -0.015175359 -6.055832E-09
v -0.18527694 -0.11571555 0.29672876
v -0.15760447 -0.1883294 0.29549962
v -0.027866056 -0.032350264 0.12932807
v 0.0054237368 -0.016115725 -6.055832E-09
v -0.13917735 -0.16885862 0.28769723
v -0.0896232 -0.22912714 0.28588992
v -0.019315187 -0.042207606 0.12535755
v 0.0064927973 -0.016757302 -6.055832E-09
v -0.07876136 -0.20511618 0.27884972
v -0.01205615 -0.24686755 0.27645257
v -0.008108808 -0.048932914 0.121467926
v 0.0077126008 -0.017036283 -6.055832E-09
v -0.009826353 -0.22088234 0.2701609
v 0.06766415 -0.23961258 0.2671576
v 0.0046777367 -0.05185733 0.117648065
v 0.008966265 -0.016922193 -6.055832E-09
v 0.061022285 -0.21443473 0.26160318
v 0.14180474 -0.20771421 0.25797832
v 0.017819235 -0.05066139 0.11388583
v 0.010132185 -0.016420567 -6.055832E-09
v 0.12691215 -0.18608616 0.25315192
v 0.20303026 -0.1538206 0.24888834
v 0.030040944 -0.045403097 0.11017042
v 0.011095005 -0.015573048 -6.055832E-09
v 0.18132421 -0.13819012 0.24478295
v 0.24504764 -0.082690686 0.23986326
v 0.040133666 -0.036519002 0.10649117
v 0.01175576 -0.014454471 -6.055832E-09
v 0.21866569 -0.07497587 0.23647372
v 0.26319793 -0.0008235205 0.23087956
v 0.047060028 -0.024793586 0.10283816
v 0.01204119 -0.013167047 -6.055832E-09
v 0.23479614 -0.0022192744 0.22820257
v 0.25492352 0.08406289 0.22191545
v 0.050052006 -0.011298188 0.09920194
v 0.011911066 -0.01183214 -6.055832E-09
v 0.22744256 0.07322057 0.21994944
v 0.22008559 0.1636802 0.21295117
v 0.048688017 0.0026949162 0.09557361
v 0.011363212 -0.010580095 -6.055832E-09
v 0.19648156 0.14397769 0.21169616
v 0.16108169 0.2299162 0.20396817
v 0.042945154 0.015819434 0.09194523
v 0.01043533 -0.009538482 -6.055832E-09
v 0.14404388 0.20284262 0.20342566
v 0.08274189 0.27559295 0.1949494
v 0.033218656 0.026738115 0.08830927
v 0.009203373 -0.008820177 -6.055832E-09
v 0.074422106 0.24343625 0.19512223
v -0.007992849 0.2951883 0.18587984
v 0.020304725 0.034267705 0.08465883
v 0.007776499 -0.008512028 -6.055832E-09
v -0.006215234 0.26085094 0.18677203
v -0.1026232 0.28546035 0.17674592
v 0.0053475513 0.037497897 0.08098783
v 0.006288362 -0.008665005 -6.055832E-09
v -0.09031467 0.25220555 0.17836258
v -0.19182362 0.24588859 0.1675354
v -0.010251794 0.035894297 0.077290796
v 0.0048856135 -0.009287304 -6.055832E-09
v -0.16958843 0.21703754 0.16988261
v -0.266297 0.17889005 0.15823787
v -0.024956044 0.02937108 0.07356274
v 0.003714461 -0.0103409095 -6.055832E-09
v -0.23577407 0.1574949 0.1613225
v -0.31770858 0.089750275 0.14884391
v -0.03723261 0.018326703 0.06979947
v 0.0029059728 -0.011742703 -6.055832E-09
v -0.2814643 0.07827503 0.15267366
v -0.33956102 -0.013716926 0.13934603
v -0.04570756 0.0036324544 0.06599719
v 0.0025623261 -0.013369805 -6.055832E-09
v -0.30088493 -0.013677839 0.1439291
v -0.327969 -0.12180603 0.12973751
v -0.049309827 -0.013423602 0.062152807
v 0.0027446193 -0.015069593 -6.055832E-09
v -0.29058293 -0.109738275 0.13508269
v -0.2822121 -0.22377825 0.12001313
v -0.04739894 -0.031241558 0.058263674
v 0.0034641826 -0.016673185 -6.055832E-09
v -0.24991806 -0.20036253 0.12612961
v -0.2050039 -0.30889562 0.11016867
v -0.039856143 -0.04805117 0.05432763
v 0.0046783434 -0.018011725 -6.055832E-09
v -0.18130197 -0.27600762 0.11706597
v -0.10242151 -0.36751914 0.10020069
v -0.027128747 -0.062082354 0.05034299
v 0.0062915334 -0.018933624 -6.055832E-09
v -0.09013542 -0.3281072 0.10788862
v 0.016507225 -0.39216056 0.09010718
v -0.010218544 -0.07174615 0.046308357
v 0.008161781 -0.01932113 -6.055832E-09
v 0.015558354 -0.35000643 0.098595686
v 0.1405663 -0.37838915 0.07988653
v 0.0093862675 -0.07580816 0.042222913
v 0.01011271 -0.019104565 -6.055832E-09
v 0.12581153 -0.33776757 0.0891857
v 0.25737485 -0.32546884 0.06953847
v 0.02983679 -0.07353802 0.038086005
v 0.0119496165 -0.018272351 -6.055832E-09
v 0.22962105 -0.2907365 0.0796584
v 0.35461372 -0.23664476 0.0590628
v 0.0490921 -0.06481437 0.03389751
v 0.013478774 -0.016875522 -6.055832E-09
v 0.06512145 -0.050172154 0.029657379
v 0.014527438 -0.015026009 -6.055832E-09
v 0.31603876 -0.2117972 0.07001361
v 0.42129803 -0.119034566 0.048460424
v 0.07611403 -0.030784694 0.02536597
v 0.014966516 -0.012859115 -6.055832E-09
v 0.08071665 -0.008070308 0.0209652
v 0.37530208 -0.10727523 0.06025218
v 0.4492189 0.018757785 0.03758791
v 0.4001158 0.015182929 0.05024203
vt 0.26910734 0.079894505
vt 0.26808485 0.08612958
vt 0.27243355 0.08493422
vt 0.27336326 0.07923031
vt 0.27081645 0.07376914
vt 0.3241911 0.07097107
vt 0.27474073 0.073571496
vt 0.27286315 0.06818567
vt 0.32563108 0.069726
vt 0.27644134 0.06830817
vt 0.27512133 0.06306977
vt 0.3785107 0.08504965
vt 0.37825862 0.085953824
vt 0.37876505 0.084176764
vt 0.32724598 0.0684543
vt 0.379023 0.08333447
vt 0.32893038 0.06722834
vt 0.37928548 0.08252208
vt 0.27839017 0.063424036
vt 0.2775468 0.058345698
vt 0.33066463 0.06605169
vt 0.379553 0.0817389
vt 0.2805474 0.0588779
vt 0.28012565 0.05395388
vt 0.33243352 0.06492552
vt 0.379826 0.08098438
vt 0.2828924 0.05462826
vt 0.28285486 0.049847953
vt 0.3342261 0.06384978
vt 0.38010454 0.08025793
vt 0.2854148 0.050639354
vt 0.2857361 0.045991287
vt 0.3360347 0.062823705
vt 0.38038865 0.07955883
vt 0.2881098 0.04688128
vt 0.2887728 0.04235398
vt 0.3378548 0.06184607
vt 0.38067812 0.07888669
vt 0.2909758 0.0433293
vt 0.29197088 0.03891132
vt 0.3396838 0.06091523
vt 0.38097256 0.07824092
vt 0.29401398 0.0399628
vt 0.29533654 0.035643123
vt 0.3415209 0.060029186
vt 0.38127166 0.077621065
vt 0.29722676 0.03676483
vt 0.2988768 0.03253272
vt 0.34336644 0.059185915
vt 0.38157475 0.07702673
vt 0.30061787 0.033721723
vt 0.30259833 0.029567841
vt 0.34522146 0.058382943
vt 0.38188112 0.07645767
vt 0.3041917 0.030823227
vt 0.306507 0.026740357
vt 0.34708786 0.057618074
vt 0.3821905 0.0759136
vt 0.30795175 0.028062947
vt 0.31060562 0.024048015
vt 0.34896812 0.056889072
vt 0.38250232 0.07539443
vt 0.31189927 0.025439255
vt 0.3148924 0.021494828
vt 0.35086533 0.056194417
vt 0.38281593 0.07490019
vt 0.3160317 0.022954967
vt 0.3193547 0.019093879
vt 0.35278276 0.055533253
vt 0.38313127 0.07443111
vt 0.32033637 0.020618781
vt 0.32395908 0.016866934
vt 0.35472468 0.054905973
vt 0.38344803 0.07398747
vt 0.32478258 0.01844249
vt 0.32863045 0.014837272
vt 0.3566955 0.05431425
vt 0.38376582 0.07356978
vt 0.32930657 0.016429678
vt 0.3334695 0.0129455775
vt 0.35870105 0.053760707
vt 0.38408485 0.07317857
vt 0.3340466 0.014673352
vt 0.33860877 0.011221271
vt 0.360744 0.053251617
vt 0.38440466 0.072814725
vt 0.3390521 0.013067514
vt 0.34399527 0.00974337
vt 0.3628281 0.052796878
vt 0.38472524 0.07247899
vt 0.34429148 0.011696003
vt 0.3496026 0.008567493
vt 0.36495596 0.052407734
vt 0.38504612 0.072172396
vt 0.34974253 0.0106181055
vt 0.35541776 0.0077460483
vt 0.36712903 0.052097104
vt 0.3853666 0.071896
vt 0.35539114 0.009887215
vt 0.36143282 0.0073354095
vt 0.36934692 0.051879726
vt 0.38568586 0.07165068
vt 0.36122495 0.009558454
vt 0.36763665 0.007398039
vt 0.37160733 0.051771946
vt 0.38600257 0.071437456
vt 0.3672285 0.009690903
vt 0.37401035 0.008001804
vt 0.37390456 0.051791616
vt 0.38631514 0.07125697
vt 0.3733785 0.010347508
vt 0.38052163 0.009219386
vt 0.3762299 0.05195745
vt 0.38662156 0.071109764
vt 0.37963918 0.011594564
vt 0.38712242 0.011126168
vt 0.3785702 0.05228866
vt 0.38691926 0.07099614
vt 0.38596013 0.013499778
vt 0.3937443 0.013797551
vt 0.38090757 0.052803986
vt 0.38720557 0.0709158
vt 0.39227232 0.016129635
vt 0.40029633 0.017307304
vt 0.38321868 0.053521298
vt 0.38747784 0.070867985
vt 0.39848578 0.01954738
vt 0.40666094 0.021723978
vt 0.38547382 0.054456376
vt 0.38773257 0.07085151
vt 0.4044858 0.023809679
vt 0.41268948 0.027109317
vt 0.3876367 0.05562149
vt 0.3879667 0.070864595
vt 0.4101294 0.028963625
vt 0.4181959 0.0335136
vt 0.3896633 0.057024002
vt 0.38817716 0.07090457
vt 0.41523966 0.03504207
vt 0.42294678 0.040968694
vt 0.39150196 0.05866403
vt 0.38836077 0.0709685
vt 0.41959864 0.042055845
vt 0.4266518 0.049476326
vt 0.39309284 0.060531087
vt 0.38851494 0.071052276
vt 0.42293894 0.0499814
vt 0.42895263 0.05899372
vt 0.3943685 0.06260032
vt 0.3886413 0.07115432
vt 0.42493314 0.058744527
vt 0.4294054 0.069438145
vt 0.39525604 0.06482605
vt 0.38874337 0.07127819
vt 0.3956818 0.06713347
vt 0.3888142 0.07141783
vt 0.42516828 0.0682044
vt 0.42740935 0.08065707
vt 0.39557967 0.06936158
vt 0.38884866 0.07156881
vt 0.39496943 0.07143427
vt 0.42320544 0.07825849
vt 0.42232636 0.091883056
vt 0.4186039 0.088295
vn -0.5545731 0.02405248 0.8317873
vn -0.56210965 0.10528164 0.82033443
vn -0.6679334 0.0954041 0.7380807
vn -0.66662264 -0.0054103793 0.74537575
vn -0.51082927 -0.13658959 0.848762
vn -0.879971 0.057069566 0.4715868
vn -0.6140294 -0.20173538 0.7630667
vn -0.42399076 -0.2697283 0.8645683
vn -0.8949534 -0.0822188 0.43851838
vn -0.5063817 -0.3681524 0.77977014
vn -0.30720317 -0.364757 0.8789644
vn -0.9679037 -0.13642834 0.21106821
vn -0.97877413 0.014697423 0.20441431
vn -0.8767671 -0.42772815 0.21983647
vn -0.8196732 -0.35127008 0.45248777
vn -0.6990495 -0.67753965 0.22862619
vn -0.66498 -0.5836211 0.46603438
vn -0.45292658 -0.8594436 0.23709513
vn -0.35769418 -0.48956972 0.795221
vn -0.17466334 -0.417195 0.891875
vn -0.44747284 -0.75532305 0.47880608
vn -0.16287456 -0.9557554 0.24495576
vn -0.18459597 -0.5577617 0.8092132
vn -0.04005564 -0.4271041 0.90331477
vn -0.18923263 -0.8506867 0.4904315
vn 0.1424212 -0.9572031 0.25194922
vn -0.0044577336 -0.5699906 0.8216392
vn 0.084568396 -0.39823762 0.9133756
vn 0.084255025 -0.8615659 0.50060487
vn 0.43282512 -0.86380446 0.25788414
vn 0.16613084 -0.528539 0.83249444
vn 0.18944615 -0.33711258 0.9222067
vn 0.34648418 -0.7878708 0.50912505
vn 0.6796614 -0.6848831 0.26267016
vn 0.31249967 -0.43999296 0.84187305
vn 0.2674332 -0.25216618 0.92999554
vn 0.5722912 -0.6374201 0.5159248
vn 0.8585055 -0.43821093 0.2663447
vn 0.42272213 -0.31444922 0.8499575
vn 0.31416836 -0.1530398 0.9369509
vn 0.7400429 -0.425198 0.52109796
vn 0.95162463 -0.14832875 0.2690898
vn 0.48826197 -0.1647241 0.85701007
vn 0.32819706 -0.049931783 0.9432886
vn 0.8335804 -0.17208035 0.52491146
vn 0.9498143 0.15583618 0.27123404
vn 0.5045553 -0.0055084676 0.8633618
vn 0.31108314 0.04709815 0.949215
vn 0.8438111 0.096950635 0.52781
vn 0.85342205 0.44385844 0.2732406
vn 0.47153914 0.14765365 0.8693959
vn 0.26742756 0.12898457 0.95490605
vn 0.7698062 0.3550636 0.53040385
vn 0.6723945 0.68694043 0.2756783
vn 0.3940094 0.27968833 0.8755176
vn 0.20460297 0.18870114 0.960484
vn 0.61920905 0.57622075 0.53343207
vn 0.42529228 0.8609217 0.27917808
vn 0.28155822 0.37763426 0.8821096
vn 0.13199514 0.22234704 0.96599126
vn 0.407753 0.7379838 0.5376964
vn 0.13736098 0.9488211 0.28437746
vn 0.14783189 0.4324241 0.889469
vn 0.059614588 0.22993514 0.9713784
vn 0.15779048 0.824134 0.54397166
vn -0.162169 0.94261116 0.2918653
vn 0.008917153 0.4404134 0.89775085
vn -0.003717359 0.21542327 0.9765137
vn -0.104139745 0.8267111 0.55290467
vn -0.44319972 0.8439767 0.3021218
vn -0.118995026 0.40414524 0.9069216
vn -0.052067824 0.18573463 0.9812195
vn -0.35041395 0.7470511 0.5649112
vn -0.67790693 0.6640188 0.31546992
vn -0.22219247 0.33193478 0.9167605
vn -0.08333796 0.14896965 0.9853238
vn -0.5556218 0.5956146 0.58011013
vn -0.84362066 0.42196083 0.33204415
vn -0.29161093 0.23623982 0.9269055
vn -0.09908556 0.11243429 0.98870647
vn -0.6996223 0.39059305 0.5983024
vn -0.9250943 0.1430164 0.35177672
vn -0.32394305 0.13119373 0.9369361
vn -0.10339672 0.081191525 0.9913209
vn -0.76984054 0.15548408 0.6190075
vn -0.9159622 -0.14433323 0.37440798
vn -0.3214216 0.030016784 0.94646037
vn -0.101359166 0.05750072 0.9931867
vn -0.7624763 -0.08397878 0.641543
vn -0.8192434 -0.41137144 0.3995169
vn -0.29048663 -0.056982145 0.95518094
vn -0.09769723 0.041062996 0.99436873
vn -0.68246245 -0.3030472 0.6651372
vn -0.6468302 -0.6321754 0.42657337
vn -0.23989503 -0.12341542 0.96292216
vn -0.095867336 0.02974478 0.9949496
vn -0.542253 -0.48081973 0.68903846
vn -0.4180142 -0.78628063 0.455002
vn -0.17887618 -0.16684055 0.9696223
vn -0.09764198 0.020439645 0.9950117
vn -0.35974446 -0.6023131 0.71260285
vn -0.15724319 -0.8606836 0.48425022
vn -0.1157258 -0.18810369 0.97530735
vn -0.103071585 0.009862321 0.99462503
vn -0.15577526 -0.6595446 0.7353469
vn 0.10862711 -0.85097367 0.5138521
vn -0.0569666 -0.19037482 0.98005724
vn -0.11068574 -0.0048043355 0.9938438
vn 0.048376553 -0.65165967 0.7569673
vn 0.35322943 -0.76148665 0.54347676
vn -0.007010425 -0.17816064 0.9839765
vn -0.117831066 -0.025407141 0.9927086
vn 0.23316856 -0.58428484 0.77733105
vn 0.55340725 -0.60453236 0.57295805
vn 0.031836122 -0.1564444 0.98717356
vn -0.12111918 -0.05245765 0.9912509
vn 0.38249734 -0.46836245 0.79644984
vn 0.6914916 -0.39884633 0.6022963
vn 0.059144218 -0.13000415 0.9897479
vn -0.11696847 -0.084901005 0.9895
vn 0.4848881 -0.318686 0.81444633
vn 0.75695914 -0.16746725 0.6316389
vn 0.076010205 -0.102903076 0.9917829
vn -0.10223024 -0.12005287 0.9874899
vn 0.5342215 -0.15229931 0.83151203
vn 0.7473797 0.06476475 0.661233
vn 0.084628314 -0.07812075 0.9933455
vn -0.07486969 -0.15377375 0.98526555
vn 0.5300388 0.013191858 0.84787077
vn 0.6685778 0.27391133 0.6913584
vn 0.08779853 -0.05733255 0.994487
vn -0.034600973 -0.18093815 0.9828856
vn 0.4774189 0.16134515 0.86373544
vn 0.53393745 0.43963864 0.7222386
vn 0.08839509 -0.040848456 0.99524754
vn 0.016672889 -0.19620351 0.9804215
vn 0.38636297 0.2785875 0.8792683
vn 0.3628117 0.54766375 0.75394434
vn 0.088836305 -0.027738867 0.9956599
vn 0.074783064 -0.19498804 0.9779505
vn 0.27061924 0.35575232 0.8945421
vn 0.17804724 0.59162986 0.78630364
vn 0.09062342 -0.016161038 0.9957541
vn 0.13369112 -0.17446107 0.975546
vn 0.14592347 0.3892193 0.9095134
vn 0.0027945796 0.57400984 0.81884366
vn 0.094040014 -0.0038628073 0.9955609
vn 0.18633959 -0.13428353 0.97326535
vn 0.027775109 0.38134906 0.92401373
vn -0.14300673 0.50566703 0.8507937
vn 0.09809951 0.01121147 0.99511355
vn 0.22577599 -0.07688484 0.9711405
vn -0.070922054 0.339944 0.9377676
vn -0.24581726 0.4038876 0.88116336
vn -0.14184928 0.2766674 0.9504388
vn -0.3006217 0.28888515 0.90893996
vn 0.10077487 0.030344803 0.9944464
vn 0.24627848 -0.0070681516 0.9691733
vn -0.18235649 0.20454101 0.96172196
vn -0.31567597 0.2269222 0.9213332
vn -0.19006902 0.16558802 0.96770567
vn 0.099506326 0.053667452 0.99358857
vn 0.2510346 0.026774295 0.9676077
vn 0.11066849 0.065055266 0.9917259
g meshSPMossSpiral_0
f 3/3/3 2/2/2 1/1/1
f 4/4/4 3/3/3 1/1/1
f 4/4/4 1/1/1 5/5/5
f 6/6/6 3/3/3 4/4/4
f 7/7/7 4/4/4 5/5/5
f 7/7/7 5/5/5 8/8/8
f 9/9/9 6/6/6 4/4/4
f 9/9/9 4/4/4 7/7/7
f 10/10/10 7/7/7 8/8/8
f 10/10/10 8/8/8 11/11/11
f 9/9/9 12/12/12 6/6/6
f 12/12/12 13/13/13 6/6/6
f 14/14/14 12/12/12 9/9/9
f 15/15/15 9/9/9 7/7/7
f 15/15/15 14/14/14 9/9/9
f 15/15/15 7/7/7 10/10/10
f 16/16/16 14/14/14 15/15/15
f 17/17/17 16/16/16 15/15/15
f 17/17/17 15/15/15 10/10/10
f 18/18/18 16/16/16 17/17/17
f 19/19/19 10/10/10 11/11/11
f 17/17/17 10/10/10 19/19/19
f 19/19/19 11/11/11 20/20/20
f 21/21/21 18/18/18 17/17/17
f 21/21/21 17/17/17 19/19/19
f 22/22/22 18/18/18 21/21/21
f 23/23/23 19/19/19 20/20/20
f 21/21/21 19/19/19 23/23/23
f 23/23/23 20/20/20 24/24/24
f 25/25/25 22/22/22 21/21/21
f 25/25/25 21/21/21 23/23/23
f 26/26/26 22/22/22 25/25/25
f 27/27/27 23/23/23 24/24/24
f 25/25/25 23/23/23 27/27/27
f 27/27/27 24/24/24 28/28/28
f 29/29/29 26/26/26 25/25/25
f 29/29/29 25/25/25 27/27/27
f 30/30/30 26/26/26 29/29/29
f 31/31/31 27/27/27 28/28/28
f 29/29/29 27/27/27 31/31/31
f 31/31/31 28/28/28 32/32/32
f 33/33/33 30/30/30 29/29/29
f 33/33/33 29/29/29 31/31/31
f 34/34/34 30/30/30 33/33/33
f 35/35/35 31/31/31 32/32/32
f 33/33/33 31/31/31 35/35/35
f 35/35/35 32/32/32 36/36/36
f 37/37/37 34/34/34 33/33/33
f 37/37/37 33/33/33 35/35/35
f 38/38/38 34/34/34 37/37/37
f 39/39/39 35/35/35 36/36/36
f 37/37/37 35/35/35 39/39/39
f 39/39/39 36/36/36 40/40/40
f 41/41/41 38/38/38 37/37/37
f 41/41/41 37/37/37 39/39/39
f 42/42/42 38/38/38 41/41/41
f 43/43/43 39/39/39 40/40/40
f 41/41/41 39/39/39 43/43/43
f 43/43/43 40/40/40 44/44/44
f 45/45/45 42/42/42 41/41/41
f 45/45/45 41/41/41 43/43/43
f 46/46/46 42/42/42 45/45/45
f 47/47/47 43/43/43 44/44/44
f 45/45/45 43/43/43 47/47/47
f 47/47/47 44/44/44 48/48/48
f 49/49/49 46/46/46 45/45/45
f 49/49/49 45/45/45 47/47/47
f 50/50/50 46/46/46 49/49/49
f 51/51/51 47/47/47 48/48/48
f 49/49/49 47/47/47 51/51/51
f 51/51/51 48/48/48 52/52/52
f 53/53/53 50/50/50 49/49/49
f 53/53/53 49/49/49 51/51/51
f 54/54/54 50/50/50 53/53/53
f 55/55/55 51/51/51 52/52/52
f 53/53/53 51/51/51 55/55/55
f 55/55/55 52/52/52 56/56/56
f 57/57/57 54/54/54 53/53/53
f 57/57/57 53/53/53 55/55/55
f 58/58/58 54/54/54 57/57/57
f 59/59/59 55/55/55 56/56/56
f 57/57/57 55/55/55 59/59/59
f 59/59/59 56/56/56 60/60/60
f 61/61/61 58/58/58 57/57/57
f 61/61/61 57/57/57 59/59/59
f 62/62/62 58/58/58 61/61/61
f 63/63/63 59/59/59 60/60/60
f 61/61/61 59/59/59 63/63/63
f 63/63/63 60/60/60 64/64/64
f 65/65/65 62/62/62 61/61/61
f 65/65/65 61/61/61 63/63/63
f 66/66/66 62/62/62 65/65/65
f 67/67/67 63/63/63 64/64/64
f 65/65/65 63/63/63 67/67/67
f 67/67/67 64/64/64 68/68/68
f 69/69/69 66/66/66 65/65/65
f 69/69/69 65/65/65 67/67/67
f 70/70/70 66/66/66 69/69/69
f 71/71/71 67/67/67 68/68/68
f 69/69/69 67/67/67 71/71/71
f 71/71/71 68/68/68 72/72/72
f 73/73/73 70/70/70 69/69/69
f 73/73/73 69/69/69 71/71/71
f 74/74/74 70/70/70 73/73/73
f 75/75/75 71/71/71 72/72/72
f 73/73/73 71/71/71 75/75/75
f 75/75/75 72/72/72 76/76/76
f 77/77/77 74/74/74 73/73/73
f 77/77/77 73/73/73 75/75/75
f 78/78/78 74/74/74 77/77/77
f 79/79/79 75/75/75 76/76/76
f 77/77/77 75/75/75 79/79/79
f 79/79/79 76/76/76 80/80/80
f 81/81/81 78/78/78 77/77/77
f 81/81/81 77/77/77 79/79/79
f 82/82/82 78/78/78 81/81/81
f 83/83/83 79/79/79 80/80/80
f 81/81/81 79/79/79 83/83/83
f 83/83/83 80/80/80 84/84/84
f 85/85/85 82/82/82 81/81/81
f 85/85/85 81/81/81 83/83/83
f 86/86/86 82/82/82 85/85/85
f 87/87/87 83/83/83 84/84/84
f 85/85/85 83/83/83 87/87/87
f 87/87/87 84/84/84 88/88/88
f 89/89/89 86/86/86 85/85/85
f 89/89/89 85/85/85 87/87/87
f 90/90/90 86/86/86 89/89/89
f 91/91/91 87/87/87 88/88/88
f 89/89/89 87/87/87 91/91/91
f 91/91/91 88/88/88 92/92/92
f 93/93/93 90/90/90 89/89/89
f 93/93/93 89/89/89 91/91/91
f 94/94/94 90/90/90 93/93/93
f 95/95/95 91/91/91 92/92/92
f 93/93/93 91/91/91 95/95/95
f 95/95/95 92/92/92 96/96/96
f 97/97/97 94/94/94 93/93/93
f 97/97/97 93/93/93 95/95/95
f 98/98/98 94/94/94 97/97/97
f 99/99/99 95/95/95 96/96/96
f 97/97/97 95/95/95 99/99/99
f 99/99/99 96/96/96 100/100/100
f 101/101/101 98/98/98 97/97/97
f 101/101/101 97/97/97 99/99/99
f 102/102/102 98/98/98 101/101/101
f 103/103/103 99/99/99 100/100/100
f 101/101/101 99/99/99 103/103/103
f 103/103/103 100/100/100 104/104/104
f 105/105/105 102/102/102 101/101/101
f 105/105/105 101/101/101 103/103/103
f 106/106/106 102/102/102 105/105/105
f 107/107/107 103/103/103 104/104/104
f 105/105/105 103/103/103 107/107/107
f 107/107/107 104/104/104 108/108/108
f 109/109/109 106/106/106 105/105/105
f 109/109/109 105/105/105 107/107/107
f 110/110/110 106/106/106 109/109/109
f 111/111/111 107/107/107 108/108/108
f 109/109/109 107/107/107 111/111/111
f 111/111/111 108/108/108 112/112/112
f 113/113/113 110/110/110 109/109/109
f 113/113/113 109/109/109 111/111/111
f 114/114/114 110/110/110 113/113/113
f 115/115/115 111/111/111 112/112/112
f 113/113/113 111/111/111 115/115/115
f 115/115/115 112/112/112 116/116/116
f 117/117/117 114/114/114 113/113/113
f 117/117/117 113/113/113 115/115/115
f 118/118/118 114/114/114 117/117/117
f 119/119/119 115/115/115 116/116/116
f 117/117/117 115/115/115 119/119/119
f 119/119/119 116/116/116 120/120/120
f 121/121/121 118/118/118 117/117/117
f 121/121/121 117/117/117 119/119/119
f 122/122/122 118/118/118 121/121/121
f 123/123/123 119/119/119 120/120/120
f 121/121/121 119/119/119 123/123/123
f 123/123/123 120/120/120 124/124/124
f 125/125/125 122/122/122 121/121/121
f 125/125/125 121/121/121 123/123/123
f 126/126/126 122/122/122 125/125/125
f 127/127/127 123/123/123 124/124/124
f 125/125/125 123/123/123 127/127/127
f 127/127/127 124/124/124 128/128/128
f 129/129/129 126/126/126 125/125/125
f 129/129/129 125/125/125 127/127/127
f 130/130/130 126/126/126 129/129/129
f 131/131/131 127/127/127 128/128/128
f 129/129/129 127/127/127 131/131/131
f 131/131/131 128/128/128 132/132/132
f 133/133/133 130/130/130 129/129/129
f 133/133/133 129/129/129 131/131/131
f 134/134/134 130/130/130 133/133/133
f 135/135/135 131/131/131 132/132/132
f 133/133/133 131/131/131 135/135/135
f 135/135/135 132/132/132 136/136/136
f 137/137/137 134/134/134 133/133/133
f 137/137/137 133/133/133 135/135/135
f 138/138/138 134/134/134 137/137/137
f 139/139/139 135/135/135 136/136/136
f 137/137/137 135/135/135 139/139/139
f 139/139/139 136/136/136 140/140/140
f 141/141/141 138/138/138 137/137/137
f 141/141/141 137/137/137 139/139/139
f 142/142/142 138/138/138 141/141/141
f 143/143/143 139/139/139 140/140/140
f 141/141/141 139/139/139 143/143/143
f 143/143/143 140/140/140 144/144/144
f 145/145/145 142/142/142 141/141/141
f 145/145/145 141/141/141 143/143/143
f 146/146/146 142/142/142 145/145/145
f 147/147/147 143/143/143 144/144/144
f 145/145/145 143/143/143 147/147/147
f 147/147/147 144/144/144 148/148/148
f 149/149/149 146/146/146 145/145/145
f 149/149/149 145/145/145 147/147/147
f 150/150/150 146/146/146 149/149/149
f 151/151/151 147/147/147 148/148/148
f 149/149/149 147/147/147 151/151/151
f 151/151/151 148/148/148 152/152/152
f 153/153/153 150/150/150 149/149/149
f 153/153/153 149/149/149 151/151/151
f 154/154/154 150/150/150 153/153/153
f 155/155/155 154/154/154 153/153/153
f 153/153/153 151/151/151 155/155/155
f 156/156/156 154/154/154 155/155/155
f 157/157/157 151/151/151 152/152/152
f 151/151/151 157/157/157 155/155/155
f 157/157/157 152/152/152 158/158/158
f 159/159/159 156/156/156 155/155/155
f 155/155/155 157/157/157 159/159/159
f 160/160/160 156/156/156 159/159/159
f 161/161/161 160/160/160 159/159/159
f 162/162/162 157/157/157 158/158/158
f 157/157/157 162/162/162 159/159/159
f 159/159/159 162/162/162 161/161/161
f 162/162/162 158/158/158 163/163/163
f 162/162/162 164/164/164 161/161/161
f 164/164/164 162/162/162 163/163/163
