g spmBbBigFern1_LOD2
v -0.02697907 -0.005695819 0.23018192
v 0.1672401 0.910751 0.4203192
v 0.019438619 0.013434354 0.02193585
v 0.22350742 0.96674305 0.22135732
v 0.22546361 -0.0017669343 -0.03471733
v 0.42218092 0.9178775 0.15789129
v 0.59077895 1.6622102 0.7593757
v 0.64902437 1.7215761 0.5619671
v 0.8250555 1.6311458 0.4799768
v 1.1131617 2.230567 1.180328
v 1.2022523 2.3186884 1.0065911
v 1.3526272 2.2050605 0.9047925
v 1.3381116 2.3187904 1.3590261
v 1.434746 2.4109855 1.1915479
v 1.5719506 2.2910938 1.0789076
v 0.19078681 -0.008242121 -0.14836933
v 0.18144652 1.411401 -0.188873
v 0.004555541 0.013640101 -0.027281128
v -0.0031242 1.3798532 -0.06737543
v -0.18975873 0.013210022 -0.13712221
v -0.1971166 1.36722 -0.17705953
v 0.030821377 2.066977 -0.1625465
v -0.14739123 2.0059898 -0.042780206
v -0.3226433 1.9241675 -0.15420319
v -0.47929677 2.9288273 -0.33044037
v -0.6312588 2.8279014 -0.20181388
v -0.77425784 2.688846 -0.3020041
v -0.69606745 3.168731 -0.38662297
v -0.8450315 3.0643926 -0.25721434
v -0.98158437 2.9178748 -0.35574916
v -0.22875759 -0.007715427 -0.08469753
v -0.5450187 1.5151649 0.0054419
v -0.021240905 0.014019257 0.010241889
v -0.3405716 1.5563585 0.10059193
v -0.009849918 0.0153604 0.23919058
v -0.32074013 1.5221322 0.3263893
v -0.73317236 2.0537837 0.18747638
v -0.5290618 2.0974302 0.28225517
v -0.48332226 1.9984716 0.483909
v -0.99631715 2.4593942 0.57395124
v -0.78662264 2.4966638 0.65873533
v -0.70836043 2.3483047 0.81498367
v -1.214856 2.724919 1.0928034
v -0.9984569 2.7533996 1.1628712
v -0.8966935 2.5753617 1.2653198
v 0.29068962 -0.24147902 0.97064716
v 0.4875444 0.37505764 1.1569464
v 0.06391778 0.0637974 0.07129364
v 0.32875884 0.8472925 0.3171624
v 0.98215556 -0.21586028 0.25042367
v 1.1811186 0.386594 0.43838865
v 0.76525164 0.81480116 1.4484203
v 0.68391424 1.431033 0.69536066
v 1.4407086 0.8142531 0.7127162
v 1.1527237 1.1785882 1.7743871
v 1.1680027 1.8868189 1.1023513
v 1.7882628 1.1389903 1.0049554
v 1.5001497 1.402953 2.0870302
v 1.701695 2.2071905 1.5712416
v 2.1932719 1.388326 1.368093
v 1.6528628 1.4431355 2.2305238
v 1.9841415 2.2709196 1.8324232
v 2.3219967 1.4214295 1.4893814
v 1.8641831 1.4026982 2.4138246
v 2.275698 2.2264354 2.0889113
v 2.5220635 1.3832086 1.6626142
v 1.0597765 -0.23209666 -0.038807444
v 1.5277921 1.9838455 -0.3273616
v 0.086075835 0.064486854 -0.03697072
v 0.5199254 2.124669 -0.30657637
v 0.5265548 -0.14983389 -0.9292166
v 0.9461821 1.7941405 -1.1697767
v 1.5650687 2.280373 -0.45405936
v 0.5696374 2.492192 -0.47159633
v 0.96405256 1.949693 -1.2372268
v 1.7582403 2.784259 -0.88304436
v 0.79226696 3.0930972 -0.97006536
v 1.115601 2.3359158 -1.5685548
v 1.9657077 3.165752 -1.4242631
v 1.0360752 3.541414 -1.5995331
v 1.2884814 2.6520534 -2.025428
v 0.465461 -0.21925484 -0.9792602
v 0.52957326 1.0491347 -1.5162094
v -0.0017583914 0.06602973 -0.08850204
v 0.068840295 1.5333983 -0.712253
v -0.6002637 -0.15680772 -0.9163102
v -0.5363127 1.1029227 -1.4481962
v 0.5062947 1.5650342 -1.8677794
v 0.046231154 2.1633902 -1.1442853
v -0.551599 1.5245105 -1.7166172
v 0.46190396 1.7044916 -2.0311012
v -0.023773795 2.406153 -1.4270151
v -0.57776517 1.6027708 -1.8022513
v 0.2675501 1.884697 -2.531452
v -0.27119243 2.668458 -2.097163
v -0.7052612 1.717565 -2.1199465
v -0.03876782 1.9127861 -3.0739892
v -0.6425797 2.7058442 -2.758391
v -0.9297315 1.7314278 -2.5110285
v -0.36453593 -0.21350478 -0.92090046
v -0.75102174 0.85035515 -1.1444533
v -0.06088807 0.06532445 -0.06765402
v -0.47162557 1.1806267 -0.30134267
v -0.9686614 -0.18917352 -0.16333745
v -1.2767289 0.68298036 -0.3475354
v -1.0607686 1.2271149 -1.2576237
v -0.9388291 1.7504603 -0.47709978
v -1.6042116 1.0757865 -0.4694423
v -1.3880072 1.4874191 -1.4358287
v -1.4944097 2.1653059 -0.7822811
v -1.9169772 1.3292819 -0.639183
v -1.5566883 1.5142038 -1.5338426
v -1.8159826 2.2330556 -0.9734898
v -2.053781 1.3521483 -0.7176946
v -1.9485352 1.4359534 -1.7769221
v -2.4511256 2.1240942 -1.3623837
v -2.42421 1.2720826 -0.9484651
v -1.0883467 -0.20826283 -0.03984437
v -1.6545608 1.432857 0.30233815
v -0.08209971 0.06402996 0.047949616
v -0.72478634 1.8920151 0.44046068
v -0.5961123 -0.23112558 0.9099578
v -1.1178404 1.316554 1.2206771
v -2.1504893 2.0567937 0.62815344
v -1.3801038 2.7232215 0.8664059
v -1.6649117 2.0139465 1.5806869
v -2.597787 2.448665 0.9377782
v -1.887941 3.1629434 1.2211666
v -1.9759121 2.2922647 1.7943714
v -2.819349 2.5559394 1.1415446
v -2.1548543 3.2970154 1.4634726
v -2.1600285 2.3792737 1.9655753
v -0.6447495 -0.19038266 0.83649135
v -0.59165984 1.1182628 1.2742851
v -0.011053268 0.065197945 0.09075878
v 0.038426444 1.3019185 0.5046933
v 0.37822753 -0.183432 0.99056584
v 0.41342524 0.8838557 1.3458884
v -0.3493008 2.251365 1.8095555
v 0.31005138 2.716506 1.1997132
v 0.6690604 2.111587 1.9264836
v -0.29807004 2.6240802 2.2227974
v 0.3834128 3.2411728 1.8011488
v 0.7020852 2.3620613 2.186662
v -0.24343401 2.7230291 2.5251718
v 0.4514457 3.3703058 2.1770556
v 0.7483928 2.44064 2.442675
vt 0 0
vt 0 0.31509995
vt 0.5 0
vt 0.5 0.31509995
vt 1 0
vt 1 0.31509995
vt 0 0.608783
vt 0.5 0.608783
vt 1 0.608783
vt 0 0.902236
vt 0.5 0.902236
vt 1 0.902236
vt 0 1
vt 0.5 1
vt 1 1
vt 1 0
vt 1 0.41456497
vt 0.5 0
vt 0.5 0.41456497
vt 0 0
vt 0 0.41456497
vt 1 0.60959506
vt 0.5 0.60959506
vt 0 0.60959506
vt 1 0.90241605
vt 0.5 0.90241605
vt 0 0.90241605
vt 1 1
vt 0.5 1
vt 0 1
vt 0 0
vt 0 0.46506202
vt 0.5 0
vt 0.5 0.46506202
vt 1 0
vt 1 0.46506202
vt 0 0.642597
vt 0.5 0.642597
vt 1 0.642597
vt 0 0.82135
vt 0.5 0.82135
vt 1 0.82135
vt 0 1
vt 0.5 1
vt 1 1
vt 0 0
vt 0 0.21675396
vt 0.5 0
vt 0.5 0.21675396
vt 1 0
vt 1 0.21675396
vt 0 0.412753
vt 0.5 0.412753
vt 1 0.412753
vt 0 0.60862404
vt 0.5 0.60862404
vt 1 0.60862404
vt 0 0.8045561
vt 0.5 0.8045561
vt 1 0.8045561
vt 0 0.902163
vt 0.5 0.902163
vt 1 0.902163
vt 0 1
vt 0.5 1
vt 1 1
vt 1 0
vt 1 0.5120329
vt 0.5 0
vt 0.5 0.5120329
vt 0 0
vt 0 0.5120329
vt 1 0.609507
vt 0.5 0.609507
vt 0 0.609507
vt 1 0.80466104
vt 0.5 0.80466104
vt 0 0.80466104
vt 1 1
vt 0.5 1
vt 0 1
vt 0 0
vt 0 0.37485504
vt 0.5 0
vt 0.5 0.37485504
vt 1 0
vt 1 0.37485504
vt 0 0.553789
vt 0.5 0.553789
vt 1 0.553789
vt 0 0.64242905
vt 0.5 0.64242905
vt 1 0.64242905
vt 0 0.8212379
vt 0.5 0.8212379
vt 1 0.8212379
vt 0 1
vt 0.5 1
vt 1 1
vt 1 0
vt 1 0.31355596
vt 0.5 0
vt 0.5 0.31355596
vt 0 0
vt 0 0.31355596
vt 1 0.50982904
vt 0.5 0.50982904
vt 0 0.50982904
vt 1 0.70594394
vt 0.5 0.70594394
vt 0 0.70594394
vt 1 0.80401105
vt 0.5 0.80401105
vt 0 0.80401105
vt 1 1
vt 0.5 1
vt 0 1
vt 0 0
vt 0 0.46467507
vt 0.5 0
vt 0.5 0.46467507
vt 1 0
vt 1 0.46467507
vt 0 0.732323
vt 0.5 0.732323
vt 1 0.732323
vt 0 0.910138
vt 0.5 0.910138
vt 1 0.910138
vt 0 1
vt 0.5 1
vt 1 1
vt 1 0
vt 1 0.31653404
vt 0.5 0
vt 0.5 0.31653404
vt 0 0
vt 0 0.31653404
vt 1 0.70729
vt 0.5 0.70729
vt 0 0.70729
vt 1 0.902553
vt 0.5 0.902553
vt 0 0.902553
vt 1 1
vt 0.5 1
vt 0 1
vn -0.976245 0.18274 0.116409
vn -0.81851304 0.51883 0.246683
vn -0.69565207 0.286704 -0.658688
vn -0.541494 0.669979 -0.50785106
vn 0.06516001 0.19118302 -0.979389
vn 0.18366802 0.495175 -0.84915704
vn -0.460312 0.775355 0.432363
vn -0.141511 0.9638361 -0.22581899
vn 0.464348 0.68328 -0.563479
vn -0.09224701 0.71364295 0.6944101
vn 0.22865699 0.9673661 0.109174006
vn 0.739967 0.62410504 -0.250883
vn 0.308287 0.46571502 0.829499
vn 0.598674 0.67377603 0.433145
vn 0.912781 0.395076 0.103661
vn 0.77903396 0.023002002 0.626559
vn 0.720041 0.32593703 0.612622
vn 0.03119 0.029494999 0.99907804
vn -0.0035720002 0.286763 0.95799506
vn -0.736946 0.015927 0.675764
vn -0.73342705 0.220825 0.6429
vn 0.42402202 0.783543 0.454165
vn -0.21087201 0.568385 0.795281
vn -0.82827693 0.245092 0.50387204
vn 0.045309003 0.960735 0.273743
vn -0.50324297 0.681495 0.53132904
vn -0.92747504 0.287145 0.239453
vn -0.223029 0.97480404 -0.003785
vn -0.62055904 0.738687 0.26315102
vn -0.93378705 0.35025504 0.07323901
vn 0.104502 0.080376 -0.991271
vn 0.00088800007 0.39658502 -0.917997
vn 0.805219 0.19942802 -0.558435
vn 0.69321305 0.523127 -0.495776
vn 0.9483691 0.18058601 0.26074103
vn 0.8454611 0.43801302 0.305518
vn -0.284485 0.81248295 -0.50886106
vn 0.361393 0.922968 -0.13238402
vn 0.59764504 0.61313504 0.51660895
vn -0.513255 0.856308 0.057496004
vn 0.062104005 0.9325661 0.35561705
vn 0.362361 0.524889 0.770186
vn -0.562554 0.6980921 0.442946
vn -0.043520004 0.713763 0.69903404
vn 0.186801 0.25689703 0.94821405
vn -0.816219 0.088075005 0.57098997
vn -0.72147197 0.259907 0.6418161
vn -0.662441 0.418827 -0.621093
vn -0.520365 0.69863003 -0.491056
vn 0.521361 0.09249 -0.84830904
vn 0.61234295 0.283991 -0.7378251
vn -0.503275 0.38774002 0.77225095
vn -0.23931901 0.94558907 -0.22042601
vn 0.72982204 0.39049503 -0.561136
vn -0.25183 0.410842 0.8762369
vn 0.088796005 0.9958051 0.022096
vn 0.862868 0.35867703 -0.35610303
vn -0.038805 0.25625202 0.96583104
vn 0.33498 0.89155906 0.30481204
vn 0.96296 0.241041 -0.120858006
vn 0.208082 0.022557002 0.9778511
vn 0.626503 0.55281603 0.549443
vn 0.9946661 -0.001059 0.103139006
vn 0.371886 -0.19393702 0.90779305
vn 0.73295295 0.24247003 0.63560104
vn 0.94867605 -0.20307401 0.24243502
vn 0.33904502 0.050719004 0.9394021
vn 0.37688503 0.340977 0.861215
vn -0.822755 0.24065 0.51493996
vn -0.75736904 0.509749 0.40810198
vn -0.6988141 0.06267 -0.71255296
vn -0.58635795 0.28154597 -0.75955003
vn 0.47500598 0.78245395 0.40266
vn -0.52837497 0.847678 0.047565002
vn -0.52231497 0.21033901 -0.826405
vn 0.587054 0.80891603 -0.031987
vn -0.265198 0.901807 -0.341195
vn -0.28141302 0.20561099 -0.9373001
vn 0.66793 0.64052707 -0.378939
vn -0.038840998 0.78086203 -0.62349504
vn -0.00096900004 0.122272 -0.9924961
vn 0.98815405 0.014719 0.152757
vn 0.972414 0.232713 0.016021
vn 0.07694901 0.38690603 0.918903
vn 0.08104301 0.64294 0.76161695
vn -0.95325905 0.157314 0.257972
vn -0.93272907 0.33490402 0.13362502
vn 0.86310303 0.43493503 -0.25667903
vn 0.021802003 0.916956 0.398392
vn -0.91313607 0.403838 -0.055666003
vn 0.53905106 0.498474 -0.678931
vn -0.13994001 0.9686661 -0.205189
vn -0.915959 0.33682105 -0.21810602
vn 0.24228302 0.27063003 -0.931697
vn -0.368636 0.73061204 -0.57473
vn -0.9077601 0.084975004 -0.410793
vn 0.0058780005 -0.004356 -0.999973
vn -0.545063 0.41310698 -0.729555
vn -0.823809 -0.21987201 -0.52248996
vn 0.74595296 0.13390301 -0.652399
vn 0.606094 0.38183504 -0.69774806
vn 0.727049 0.38663507 0.567374
vn 0.544088 0.67349404 0.50037396
vn -0.427729 0.039636 0.903038
vn -0.526816 0.188617 0.828788
vn 0.272742 0.552193 -0.78784204
vn 0.126439 0.95440304 0.270422
vn -0.69215703 0.25629103 0.67471004
vn -0.023808002 0.43483105 -0.90019804
vn -0.297538 0.95467603 -0.008058
vn -0.89662206 0.17587 0.40637302
vn -0.37664703 0.170201 -0.910587
vn -0.75710803 0.550454 -0.35183403
vn -0.991707 -0.023608003 0.126334
vn -0.437696 -0.217759 -0.872355
vn -0.86177 0.238836 -0.44755998
vn -0.92001104 -0.39001504 -0.038311
vn -0.26645705 0.107774995 -0.9578021
vn -0.401073 0.36221203 -0.841394
vn 0.82499397 0.37989503 -0.41840798
vn 0.63645804 0.718301 -0.281007
vn 0.632913 0.058363006 0.77202
vn 0.46471104 0.26923105 0.84353906
vn -0.66835105 0.488928 -0.56058604
vn 0.17487 0.98356706 -0.044901002
vn 0.19392802 0.37811 0.90522105
vn -0.850335 0.47905 -0.217812
vn -0.17232801 0.9393211 0.29661307
vn -0.087730005 0.26980603 0.95891005
vn -0.9305841 0.32510102 0.16829503
vn -0.46933702 0.708242 0.527367
vn -0.29745403 0.164112 0.9405261
vn -0.93435305 0.146568 -0.32481205
vn -0.863339 0.467703 -0.18947102
vn 0.13957801 0.30926302 -0.940678
vn 0.195758 0.60317606 -0.77321297
vn 0.99632704 -0.004387 -0.08551701
vn 0.987257 0.158804 0.010252
vn -0.756131 0.63211507 0.16940002
vn 0.170234 0.89457405 -0.413229
vn 0.93596506 0.28684503 0.204179
vn -0.6031821 0.553372 0.574414
vn 0.253975 0.93565804 0.24503
vn 0.781563 0.190244 0.5941101
vn -0.348418 0.35725802 0.866586
vn 0.250123 0.676005 0.6931491
vn 0.6186 0.08473801 0.781123
g spmBbBigFern1_LOD2_0
f 2/2/2 3/3/3 1/1/1
f 3/3/3 2/2/2 4/4/4
f 4/4/4 5/5/5 3/3/3
f 5/5/5 4/4/4 6/6/6
f 7/7/7 4/4/4 2/2/2
f 4/4/4 7/7/7 8/8/8
f 8/8/8 6/6/6 4/4/4
f 6/6/6 8/8/8 9/9/9
f 10/10/10 8/8/8 7/7/7
f 8/8/8 10/10/10 11/11/11
f 11/11/11 9/9/9 8/8/8
f 9/9/9 11/11/11 12/12/12
f 13/13/13 11/11/11 10/10/10
f 11/11/11 13/13/13 14/14/14
f 14/14/14 12/12/12 11/11/11
f 12/12/12 14/14/14 15/15/15
f 17/17/17 18/18/18 16/16/16
f 18/18/18 17/17/17 19/19/19
f 19/19/19 20/20/20 18/18/18
f 20/20/20 19/19/19 21/21/21
f 22/22/22 19/19/19 17/17/17
f 19/19/19 22/22/22 23/23/23
f 23/23/23 21/21/21 19/19/19
f 21/21/21 23/23/23 24/24/24
f 25/25/25 23/23/23 22/22/22
f 23/23/23 25/25/25 26/26/26
f 26/26/26 24/24/24 23/23/23
f 24/24/24 26/26/26 27/27/27
f 28/28/28 26/26/26 25/25/25
f 26/26/26 28/28/28 29/29/29
f 29/29/29 27/27/27 26/26/26
f 27/27/27 29/29/29 30/30/30
f 32/32/32 33/33/33 31/31/31
f 33/33/33 32/32/32 34/34/34
f 34/34/34 35/35/35 33/33/33
f 35/35/35 34/34/34 36/36/36
f 37/37/37 34/34/34 32/32/32
f 34/34/34 37/37/37 38/38/38
f 38/38/38 36/36/36 34/34/34
f 36/36/36 38/38/38 39/39/39
f 40/40/40 38/38/38 37/37/37
f 38/38/38 40/40/40 41/41/41
f 41/41/41 39/39/39 38/38/38
f 39/39/39 41/41/41 42/42/42
f 43/43/43 41/41/41 40/40/40
f 41/41/41 43/43/43 44/44/44
f 44/44/44 42/42/42 41/41/41
f 42/42/42 44/44/44 45/45/45
f 47/47/47 48/48/48 46/46/46
f 48/48/48 47/47/47 49/49/49
f 49/49/49 50/50/50 48/48/48
f 50/50/50 49/49/49 51/51/51
f 52/52/52 49/49/49 47/47/47
f 49/49/49 52/52/52 53/53/53
f 53/53/53 51/51/51 49/49/49
f 51/51/51 53/53/53 54/54/54
f 55/55/55 53/53/53 52/52/52
f 53/53/53 55/55/55 56/56/56
f 56/56/56 54/54/54 53/53/53
f 54/54/54 56/56/56 57/57/57
f 58/58/58 56/56/56 55/55/55
f 56/56/56 58/58/58 59/59/59
f 59/59/59 57/57/57 56/56/56
f 57/57/57 59/59/59 60/60/60
f 61/61/61 59/59/59 58/58/58
f 59/59/59 61/61/61 62/62/62
f 62/62/62 60/60/60 59/59/59
f 60/60/60 62/62/62 63/63/63
f 64/64/64 62/62/62 61/61/61
f 62/62/62 64/64/64 65/65/65
f 65/65/65 63/63/63 62/62/62
f 63/63/63 65/65/65 66/66/66
f 68/68/68 69/69/69 67/67/67
f 69/69/69 68/68/68 70/70/70
f 70/70/70 71/71/71 69/69/69
f 71/71/71 70/70/70 72/72/72
f 73/73/73 70/70/70 68/68/68
f 70/70/70 73/73/73 74/74/74
f 74/74/74 72/72/72 70/70/70
f 72/72/72 74/74/74 75/75/75
f 76/76/76 74/74/74 73/73/73
f 74/74/74 76/76/76 77/77/77
f 77/77/77 75/75/75 74/74/74
f 75/75/75 77/77/77 78/78/78
f 79/79/79 77/77/77 76/76/76
f 77/77/77 79/79/79 80/80/80
f 80/80/80 78/78/78 77/77/77
f 78/78/78 80/80/80 81/81/81
f 83/83/83 84/84/84 82/82/82
f 84/84/84 83/83/83 85/85/85
f 85/85/85 86/86/86 84/84/84
f 86/86/86 85/85/85 87/87/87
f 88/88/88 85/85/85 83/83/83
f 85/85/85 88/88/88 89/89/89
f 89/89/89 87/87/87 85/85/85
f 87/87/87 89/89/89 90/90/90
f 91/91/91 89/89/89 88/88/88
f 89/89/89 91/91/91 92/92/92
f 92/92/92 90/90/90 89/89/89
f 90/90/90 92/92/92 93/93/93
f 94/94/94 92/92/92 91/91/91
f 92/92/92 94/94/94 95/95/95
f 95/95/95 93/93/93 92/92/92
f 93/93/93 95/95/95 96/96/96
f 97/97/97 95/95/95 94/94/94
f 95/95/95 97/97/97 98/98/98
f 98/98/98 96/96/96 95/95/95
f 96/96/96 98/98/98 99/99/99
f 101/101/101 102/102/102 100/100/100
f 102/102/102 101/101/101 103/103/103
f 103/103/103 104/104/104 102/102/102
f 104/104/104 103/103/103 105/105/105
f 106/106/106 103/103/103 101/101/101
f 103/103/103 106/106/106 107/107/107
f 107/107/107 105/105/105 103/103/103
f 105/105/105 107/107/107 108/108/108
f 109/109/109 107/107/107 106/106/106
f 107/107/107 109/109/109 110/110/110
f 110/110/110 108/108/108 107/107/107
f 108/108/108 110/110/110 111/111/111
f 112/112/112 110/110/110 109/109/109
f 110/110/110 112/112/112 113/113/113
f 113/113/113 111/111/111 110/110/110
f 111/111/111 113/113/113 114/114/114
f 115/115/115 113/113/113 112/112/112
f 113/113/113 115/115/115 116/116/116
f 116/116/116 114/114/114 113/113/113
f 114/114/114 116/116/116 117/117/117
f 119/119/119 120/120/120 118/118/118
f 120/120/120 119/119/119 121/121/121
f 121/121/121 122/122/122 120/120/120
f 122/122/122 121/121/121 123/123/123
f 124/124/124 121/121/121 119/119/119
f 121/121/121 124/124/124 125/125/125
f 125/125/125 123/123/123 121/121/121
f 123/123/123 125/125/125 126/126/126
f 127/127/127 125/125/125 124/124/124
f 125/125/125 127/127/127 128/128/128
f 128/128/128 126/126/126 125/125/125
f 126/126/126 128/128/128 129/129/129
f 130/130/130 128/128/128 127/127/127
f 128/128/128 130/130/130 131/131/131
f 131/131/131 129/129/129 128/128/128
f 129/129/129 131/131/131 132/132/132
f 134/134/134 135/135/135 133/133/133
f 135/135/135 134/134/134 136/136/136
f 136/136/136 137/137/137 135/135/135
f 137/137/137 136/136/136 138/138/138
f 139/139/139 136/136/136 134/134/134
f 136/136/136 139/139/139 140/140/140
f 140/140/140 138/138/138 136/136/136
f 138/138/138 140/140/140 141/141/141
f 142/142/142 140/140/140 139/139/139
f 140/140/140 142/142/142 143/143/143
f 143/143/143 141/141/141 140/140/140
f 141/141/141 143/143/143 144/144/144
f 145/145/145 143/143/143 142/142/142
f 143/143/143 145/145/145 146/146/146
f 146/146/146 144/144/144 143/143/143
f 144/144/144 146/146/146 147/147/147
