g HG_Q1_Bridge
v -0.8944262 0.23511046 0.6004238
v -0.9510579 0.43157077 0.57774097
v -0.7236073 0.43157077 0.57478964
v -0.8944262 0.23511046 0.6004238
v -1.621485 0.06968805 -0.2528051
v -1.6781167 0.43157077 0.056207508
v -1.621485 0.06968805 -0.2528051
v -1.6781166 0.19746365 -0.56181777
v -1.6781167 0.43157077 0.056207508
v 2.3467734 0.028770328 0.7622404
v 2.3467734 0.028770328 0.31276643
v 2.3467734 0.028770328 -0.033290282
v -0.8944262 0.23511046 0.6004238
v -1.6781167 0.43157077 0.056207508
v -0.9510579 0.43157077 0.57774097
v -0.21432042 0.43157077 0.6004238
v 0.56597316 0.4305645 0.7622514
v 0.56597316 0.23494591 0.80901176
v 1.2672633 0.13243088 0.8090075
v 1.2672633 0.31735015 0.76224715
v 1.788349 -0.012120012 0.8090044
v 1.788349 0.18512985 0.762244
v 2.3467734 -0.16768998 0.80900085
v 2.3467734 0.028770328 0.7622404
v 0.56597316 0.23494591 0.80901176
v -0.8944262 0.23511046 0.6004238
v -0.21432042 0.43157077 0.6004238
v -0.7236073 0.43157077 0.57478964
v -0.95105785 0.21685682 -0.6908322
v -1.6781166 0.19746365 -0.56181777
v -1.621485 0.06968805 -0.2528051
v -0.8944262 0.23511046 0.6004238
v -0.6881894 0.23511046 -0.6908322
v 0.56597316 0.23410603 -0.6908321
v 0.56597316 0.23494591 0.80901176
v 1.2672633 0.12851302 -0.6908363
v 1.2672633 0.13243088 0.8090075
v 1.788349 -0.018418446 -0.6908394
v 1.788349 -0.012120012 0.8090044
v 2.3467734 -0.16768998 -0.690843
v 2.3467734 -0.16768998 0.80900085
v -0.7236073 0.43157077 0.57478964
v -0.42532265 0.43157077 0.27196434
v -0.21432042 0.43157077 0.6004238
v 0.32844546 0.43140537 0.50340027
v 0.12614948 0.43154982 -0.036782056
v 0.57844484 0.41950205 0.33459926
v 0.56597316 0.4305645 0.7622514
v 0.77429205 0.39519382 0.39265788
v 1.2672633 0.31735015 0.76224715
v 1.2672633 0.3110435 0.31277317
v 1.788349 0.18512985 0.762244
v 0.7116213 0.40732723 0.042154677
v 1.788349 0.17112538 0.31277004
v 2.3467734 0.028770328 0.7622404
v 2.3467734 0.028770328 0.31276643
v 0.51620996 0.4294492 -0.036886517
v 0.32844546 0.43140537 0.50340027
v 0.12614948 0.43154982 -0.036782056
v 1.2672633 0.3332091 -0.033283547
v 1.788349 0.17154217 -0.033286676
v 2.3467734 0.028770328 -0.033290282
v 0.6720501 0.40502954 -0.3452415
v 0.51620996 0.4294492 -0.036886517
v 1.2487493 0.31029704 -0.40838626
v 1.788349 0.1789885 -0.56358945
v 2.3467734 0.028770328 -0.56359303
v 0.32730627 0.4300873 -0.45350313
v 0.12614948 0.43154982 -0.036782056
v 0.5632425 0.4262999 -0.6863322
v 1.2672633 0.3239014 -0.6908363
v 1.788349 0.20642775 -0.6908394
v 2.3467734 0.028770328 -0.690843
v 0.5632425 0.4262999 -0.6863322
v 0.32730627 0.4300873 -0.45350313
v -0.2234921 0.43157077 -0.69083214
v -0.2763241 0.43157077 -0.49007612
v 0.12614948 0.43154982 -0.036782056
v -0.7236073 0.43157077 -0.6908322
v -0.2763241 0.43157077 -0.49007612
v 0.12614948 0.43154982 -0.036782056
v -0.42532265 0.43157077 0.27196434
v -0.85064787 0.43157077 0.02475217
v -0.7236073 0.43157077 -0.6908322
v -0.7236073 0.43157077 0.57478964
v -1.4506661 0.43157077 -0.77741694
v -0.9510579 0.43157077 0.57774097
v -1.5777066 0.43639 -0.25847927
v -1.6781167 0.43157077 0.056207508
v -0.7236073 0.43157077 -0.6908322
v -1.4506661 0.43157077 -0.77741694
v -1.6781166 0.19746365 -0.56181777
v -0.95105785 0.21685682 -0.6908322
v -0.6881894 0.23511046 -0.6908322
v -0.2234921 0.43157077 -0.69083214
v 0.5632425 0.4262999 -0.6863322
v 0.56597316 0.23410603 -0.6908321
v 1.2672633 0.3239014 -0.6908363
v 1.2672633 0.12851302 -0.6908363
v 1.788349 0.20642775 -0.6908394
v 1.788349 -0.018418446 -0.6908394
v 2.3467734 0.028770328 -0.690843
v 2.3467734 -0.16768998 -0.690843
v 2.3467734 0.028770328 -0.690843
v 2.3467734 -0.16768998 -0.690843
v 2.3467734 -0.16768998 0.80900085
v 2.3467734 0.028770328 0.7622404
v 2.3467734 0.028770328 -0.56359303
v 2.3467734 0.028770328 -0.033290282
v -1.6781166 0.19746365 -0.56181777
v -1.4506661 0.43157077 -0.77741694
v -1.5777066 0.43639 -0.25847927
v -1.6781167 0.43157077 0.056207508
vt 0.181818 0.157461
vt 0.13636349 0.236191
vt 0.090909 0.314921
vt 0.181818 0.157461
vt 0.181818 0.157461
vt 0.13636349 0.236191
vt 0.181818 0.157461
vt 0.22727251 0.236191
vt 0.13636349 0.236191
vt 0.7727265 0.236191
vt 0.68181753 0.236191
vt 0.636363 0.314921
vt 0.181818 0.157461
vt 0.13636349 0.236191
vt 0.13636349 0.236191
vt 0.9090905 0.314921
vt 0.7727265 0.236191
vt 0.818181 0.157461
vt 0.818181 0.157461
vt 0.7727265 0.236191
vt 0.818181 0.157461
vt 0.7727265 0.236191
vt 0.818181 0.157461
vt 0.7727265 0.236191
vt 0.818181 0.157461
vt 0.181818 0.157461
vt 0.9090905 0.314921
vt 0.090909 0.314921
vt 0.22727251 0.236191
vt 0.22727251 0.236191
vt 0.181818 0.157461
vt 0.181818 0.157461
vt 0.27272698 0.157461
vt 0.545454 0.157461
vt 0.818181 0.157461
vt 0.545454 0.157461
vt 0.818181 0.157461
vt 0.545454 0.157461
vt 0.818181 0.157461
vt 0.545454 0.157461
vt 0.818181 0.157461
vt 1 0.314921
vt 0.954545 0.3936515
vt 0.9090905 0.314921
vt 0.8636355 0.3936515
vt 0.90909 0.472382
vt 0.72727203 0.314921
vt 0.7727265 0.236191
vt 0.68181753 0.236191
vt 0.7727265 0.236191
vt 0.68181753 0.236191
vt 0.7727265 0.236191
vt 0.636363 0.314921
vt 0.68181753 0.236191
vt 0.7727265 0.236191
vt 0.68181753 0.236191
vt 0.68181753 0.3936515
vt 0.7727265 0.3936515
vt 0.727272 0.472382
vt 0.636363 0.314921
vt 0.636363 0.314921
vt 0.636363 0.314921
vt 0.545454 0.314921
vt 0.5909085 0.3936515
vt 0.545454 0.314921
vt 0.545454 0.314921
vt 0.545454 0.314921
vt 0.49999952 0.3936515
vt 0.545454 0.472382
vt 0.454545 0.314921
vt 0.454545 0.314921
vt 0.454545 0.314921
vt 0.454545 0.314921
vt 0.454545 0.314921
vt 0.4090905 0.3936515
vt 0.36363602 0.314921
vt 0.3181815 0.3936515
vt 0.363636 0.472382
vt 0.272727 0.314921
vt 0.22727251 0.3936515
vt 0.181818 0.472382
vt 0.13636349 0.3936515
vt 0.18181801 0.314921
vt 0.272727 0.314921
vt 0.090909 0.314921
vt 0.272727 0.314921
vt 0.13636349 0.236191
vt 0.18181801 0.314921
vt 0.13636349 0.236191
vt 0.272727 0.314921
vt 0.272727 0.314921
vt 0.22727251 0.236191
vt 0.22727251 0.236191
vt 0.27272698 0.157461
vt 0.36363602 0.314921
vt 0.454545 0.314921
vt 0.545454 0.157461
vt 0.454545 0.314921
vt 0.545454 0.157461
vt 0.454545 0.314921
vt 0.545454 0.157461
vt 0.454545 0.314921
vt 0.545454 0.157461
vt 0.454545 0.314921
vt 0.545454 0.157461
vt 0.818181 0.157461
vt 0.7727265 0.236191
vt 0.545454 0.314921
vt 0.636363 0.314921
vt 0.22727251 0.236191
vt 0.272727 0.314921
vt 0.18181801 0.314921
vt 0.13636349 0.236191
vn -0.123703115 0.32289997 0.938314
vn -0.123703115 0.32289997 0.938314
vn -0.123703115 0.32289997 0.938314
vn -0.5554684 -0.5885375 0.5874338
vn -0.5554684 -0.5885375 0.5874338
vn -0.5554684 -0.5885375 0.5874338
vn -0.9707444 -0.22454564 0.08505664
vn -0.9707444 -0.22454564 0.08505664
vn -0.9707444 -0.22454564 0.08505664
vn 1 0 0
vn 1 0 0
vn 1 0 0
vn -0.58127135 -0.07399883 0.810338
vn -0.58127135 -0.07399883 0.810338
vn -0.58127135 -0.07399883 0.810338
vn -0.123703115 0.32289997 0.938314
vn -0.04910853 0.28474003 0.9573461
vn -0.039376598 0.27962065 0.9593028
vn 0.051476326 0.23780274 0.9699485
vn 0.048146907 0.23796368 0.9700799
vn 0.06383143 0.23337361 0.97028977
vn 0.06359799 0.23446374 0.9700422
vn 0.064418994 0.23062685 0.9709075
vn 0.064418994 0.23062685 0.9709075
vn -0.039376598 0.27962065 0.9593028
vn -0.123703115 0.32289997 0.938314
vn -0.123703115 0.32289997 0.938314
vn -0.123703115 0.32289997 0.938314
vn 0.11563469 -0.9927539 -0.03268458
vn 0.16427542 -0.9832523 -0.07892054
vn 0.16427542 -0.9832523 -0.07892054
vn 0.05112615 -0.99847525 -0.020817159
vn 0.030917868 -0.99950886 0.005125172
vn -0.07381066 -0.99727184 0.0009207437
vn -0.07727541 -0.99700934 0.0009515572
vn -0.2084903 -0.9780214 0.0024294818
vn -0.20844732 -0.97803056 0.002428882
vn -0.26633137 -0.96387786 0.0026523129
vn -0.2663357 -0.96387666 0.0026532114
vn -0.263315 -0.9647078 0.0020255963
vn -0.263315 -0.9647078 0.0020255963
vn -0 1 0
vn 5.6385838E-05 1 0
vn 0.0016063591 0.9999982 -0.0010534157
vn 0.013925586 0.99990034 -0.00230965
vn 0.002529664 0.9999964 -0.00087325
vn 0.08529282 0.9963505 0.0032926244
vn 0.08586612 0.9962488 -0.010738843
vn 0.14582744 0.98930466 0.003262509
vn 0.20767246 0.97807765 -0.015375563
vn 0.21227501 0.9771593 0.009953683
vn 0.25546014 0.9666432 -0.01846966
vn 0.13104284 0.99137455 -0.002072175
vn 0.25911567 0.9658455 -0.0012407076
vn 0.25835052 0.96593404 -0.015048022
vn 0.25286806 0.96747375 -0.0072325813
vn 0.064754695 0.9978746 -0.007296287
vn 0.013925586 0.99990034 -0.00230965
vn 0.002529664 0.9999964 -0.00087325
vn 0.21002726 0.97769463 -0.0013631124
vn 0.2605997 0.9654376 0.0042324024
vn 0.25055566 0.96809524 0.0036872271
vn 0.11786736 0.9930177 -0.004809626
vn 0.064754695 0.9978746 -0.007296287
vn 0.20051582 0.9795939 0.013762736
vn 0.25962606 0.9641708 0.054487057
vn 0.26730475 0.96204597 0.054915715
vn 0.024877835 0.9996902 -0.0008575399
vn 0.002529664 0.9999964 -0.00087325
vn 0.08410705 0.99611413 0.026123995
vn 0.19983006 0.9771981 0.07177517
vn 0.26042834 0.9597314 0.10532202
vn 0.28018975 0.9544135 0.10290141
vn 0.08410705 0.99611413 0.026123995
vn 0.024877835 0.9996902 -0.0008575399
vn 0.0019602366 0.99999774 -0.00091675634
vn 0.00085901644 0.99999964 -0.00014126526
vn 0.002529664 0.9999964 -0.00087325
vn 0.0019001975 0.99999726 -0.0014213616
vn 0.00085901644 0.99999964 -0.00014126526
vn 0.002529664 0.9999964 -0.00087325
vn 5.6385838E-05 1 0
vn 0.000955428 0.99999917 0.00090199354
vn 0.0019001975 0.99999726 -0.0014213616
vn -0 1 0
vn 0.0040927334 0.999987 -0.0030614014
vn 9.5879164E-05 0.9999969 0.0025222395
vn 0.00227013 0.9999969 0.0010092198
vn 0.00021300769 0.99998426 0.0056034746
vn -0.003934263 -0.097602926 -0.9952177
vn -0.020991499 -0.41553867 -0.9093332
vn -0.020991499 -0.41553867 -0.9093332
vn -0.01621374 -0.32676116 -0.94496787
vn 0.0016197705 0.0064755017 -0.9999777
vn 0.0016197705 0.0064755017 -0.9999777
vn 0.000157274 0.008884074 -0.99996054
vn -2.0129317E-05 0.009176232 -0.9999579
vn -0.0008373169 0.0064924816 -0.99997866
vn -0.0006521406 0.005046297 -0.9999871
vn -0 0 -1
vn -0 0 -1
vn -0 0 -1
vn -0 0 -1
vn 1 0 0
vn 1 0 0
vn 1 0 0
vn 1 0 0
vn 1 0 0
vn 1 0 0
vn -0.77563506 0.59464586 -0.21162847
vn -0.77563506 0.59464586 -0.21162847
vn -0.77563506 0.59464586 -0.21162847
vn -0.77563506 0.59464586 -0.21162847
g HG_Q1_Bridge_0
f 3/3/3 2/2/2 1/1/1
f 6/6/6 5/5/5 4/4/4
f 9/9/9 8/8/8 7/7/7
f 12/12/12 11/11/11 10/10/10
f 15/15/15 14/14/14 13/13/13
f 18/18/18 17/17/17 16/16/16
f 18/18/18 19/19/19 17/17/17
f 19/19/19 20/20/20 17/17/17
f 19/19/19 21/21/21 20/20/20
f 21/21/21 22/22/22 20/20/20
f 21/21/21 23/23/23 22/22/22
f 23/23/23 24/24/24 22/22/22
f 27/27/27 26/26/26 25/25/25
f 27/27/27 28/28/28 26/26/26
f 31/31/31 30/30/30 29/29/29
f 32/32/32 31/31/31 29/29/29
f 32/32/32 29/29/29 33/33/33
f 32/32/32 33/33/33 34/34/34
f 35/35/35 32/32/32 34/34/34
f 34/34/34 36/36/36 35/35/35
f 36/36/36 37/37/37 35/35/35
f 36/36/36 38/38/38 37/37/37
f 38/38/38 39/39/39 37/37/37
f 38/38/38 40/40/40 39/39/39
f 40/40/40 41/41/41 39/39/39
f 44/44/44 43/43/43 42/42/42
f 44/44/44 45/45/45 43/43/43
f 45/45/45 46/46/46 43/43/43
f 47/47/47 45/45/45 44/44/44
f 48/48/48 47/47/47 44/44/44
f 49/49/49 47/47/47 48/48/48
f 48/48/48 50/50/50 49/49/49
f 50/50/50 51/51/51 49/49/49
f 50/50/50 52/52/52 51/51/51
f 53/53/53 47/47/47 49/49/49
f 49/49/49 51/51/51 53/53/53
f 52/52/52 54/54/54 51/51/51
f 52/52/52 55/55/55 54/54/54
f 55/55/55 56/56/56 54/54/54
f 53/53/53 57/57/57 47/47/47
f 47/47/47 57/57/57 58/58/58
f 57/57/57 59/59/59 58/58/58
f 51/51/51 60/60/60 53/53/53
f 51/51/51 54/54/54 60/60/60
f 54/54/54 56/56/56 61/61/61
f 54/54/54 61/61/61 60/60/60
f 56/56/56 62/62/62 61/61/61
f 53/53/53 60/60/60 63/63/63
f 63/63/63 64/64/64 53/53/53
f 60/60/60 61/61/61 65/65/65
f 60/60/60 65/65/65 63/63/63
f 61/61/61 62/62/62 66/66/66
f 61/61/61 66/66/66 65/65/65
f 62/62/62 67/67/67 66/66/66
f 63/63/63 68/68/68 64/64/64
f 68/68/68 69/69/69 64/64/64
f 70/70/70 68/68/68 63/63/63
f 63/63/63 65/65/65 70/70/70
f 65/65/65 71/71/71 70/70/70
f 65/65/65 66/66/66 71/71/71
f 66/66/66 72/72/72 71/71/71
f 66/66/66 67/67/67 72/72/72
f 67/67/67 73/73/73 72/72/72
f 76/76/76 75/75/75 74/74/74
f 76/76/76 77/77/77 75/75/75
f 77/77/77 78/78/78 75/75/75
f 79/79/79 77/77/77 76/76/76
f 82/82/82 81/81/81 80/80/80
f 83/83/83 82/82/82 80/80/80
f 83/83/83 80/80/80 84/84/84
f 85/85/85 82/82/82 83/83/83
f 84/84/84 86/86/86 83/83/83
f 85/85/85 83/83/83 87/87/87
f 86/86/86 88/88/88 83/83/83
f 83/83/83 88/88/88 87/87/87
f 88/88/88 89/89/89 87/87/87
f 92/92/92 91/91/91 90/90/90
f 93/93/93 92/92/92 90/90/90
f 94/94/94 93/93/93 90/90/90
f 94/94/94 90/90/90 95/95/95
f 94/94/94 95/95/95 96/96/96
f 96/96/96 97/97/97 94/94/94
f 96/96/96 98/98/98 97/97/97
f 98/98/98 99/99/99 97/97/97
f 98/98/98 100/100/100 99/99/99
f 100/100/100 101/101/101 99/99/99
f 100/100/100 102/102/102 101/101/101
f 102/102/102 103/103/103 101/101/101
f 106/106/106 105/105/105 104/104/104
f 104/104/104 107/107/107 106/106/106
f 104/104/104 108/108/108 107/107/107
f 108/108/108 109/109/109 107/107/107
f 112/112/112 111/111/111 110/110/110
f 113/113/113 112/112/112 110/110/110
