g HG_Rock_001
v 0.8011345 0.2539453 0.5550494
v 0.8218962 0.40417543 0.60382485
v 0.9180603 0.36891413 0.2898585
v 0.8842514 0.23951413 0.2979805
v 0.9234965 0.24937882 0.026282772
v 0.8117523 0.109083466 0.27145594
v 0.748232 0.083619565 0.53431857
v 0.8752725 0.13454737 0.008593292
v 0.5778028 -0.23244189 0.4170498
v 0.64544725 -0.20980391 0.15387505
v 0.49323806 -0.13689536 0.6673685
v 0.65399384 0.29681155 0.69888914
v 0.8011345 0.2539453 0.5550494
v 0.8218962 0.40417543 0.60382485
v 0.5762406 0.43762657 0.8660853
v 0.4236246 0.062465638 0.8405323
v 0.30437857 0.43941745 0.9798253
v 0.2500915 -0.35277784 0.76776195
v 0.34093103 -0.4689013 0.558865
v 0.42445856 -0.5187865 0.30768162
v 0.1278815 0.061760545 0.9080032
v -0.015245616 0.4362164 1.001027
v 0.050206654 -0.45895022 0.65450346
v -0.0067596133 -0.32766563 0.8298304
v -0.14174694 0.10557595 0.928822
v -0.5877856 0.21364056 0.8090167
v -0.2908096 0.46597067 0.84528
v -0.5522552 0.45450917 0.7217462
v -0.7317471 0.43621644 0.5197576
v 0.12741229 -0.5599575 0.40442103
v -0.95105785 0.24511233 0.30901262
v -0.8630342 0.43914047 0.2746406
v -0.8984884 0.4387119 -0.0072152927
v -0.9203524 0.08144964 -0.27836844
v -0.87209487 0.43941745 -0.2906235
v -0.7317471 0.43621644 -0.531693
v -0.5877856 0.25254896 -0.8090167
v -0.5076387 0.41421348 -0.7047014
v -0.30154455 0.36694592 -0.8849969
v -0.008139771 0.35919172 -1.0059676
v 0.20252791 -0.64269507 0.15412225
v 0.41832542 -0.54999363 -0.0014001597
v 0.67780095 -0.21259639 -0.10073428
v -0.922742 0.0009023249 0.15450631
v -0.8196236 0.088976204 0.40450478
v -0.13819401 0.009919912 -0.92532456
v 0.13143441 0.117604196 -0.9045058
v 0.30437857 0.35223103 -0.9889259
v 0.26808047 -0.21382365 -0.8271661
v -0.0027557653 -0.28995484 -0.8768791
v 0.4256908 0.114231855 -0.8090338
v 0.5796458 0.353016 -0.8149844
v 0.6572964 0.07413805 -0.66738605
v 0.8215006 0.34676808 -0.61446095
v 0.4879824 -0.21996471 -0.66647166
v 0.7766613 0.07195805 -0.5669777
v 0.8818458 0.3479602 -0.46613163
v 0.6519912 -0.23379855 -0.48640543
v 0.837423 0.07315469 -0.41874483
v 0.94219095 0.34915236 -0.3178023
v 0.9207095 0.26507604 -0.14445156
v 0.9381184 0.35614103 -0.013596848
v 0.9234965 0.24937882 0.026282772
v 0.9180603 0.36891413 0.2898585
v 0.7816476 -0.055884518 -0.26160672
v 0.671421 -0.23005648 -0.35178605
v 0.5635577 -0.39405462 -0.41671085
v 0.35953182 -0.3800083 -0.62559223
v 0.4204826 -0.54028684 -0.3108777
v 0.059442583 -0.4325703 -0.71982515
v 0.12158796 -0.59238946 -0.4050888
v 0.20035641 -0.634749 -0.15523303
v -0.2146371 -0.5130133 -0.6784515
v -0.15619679 -0.5908 -0.49943483
v -0.077993944 -0.6557385 -0.25397307
v -0.0016897493 -0.6798765 -0.0019978161
v -0.07555662 -0.6281258 0.24596399
v -0.24415644 -0.63677484 -0.012235595
v -0.32275984 -0.5854346 -0.26394963
v -0.15619999 -0.5219744 0.49590406
v -0.3229902 -0.5373969 0.23619631
v -0.21661586 -0.39675432 0.6734871
v -0.4631417 -0.38082594 -0.5546793
v -0.4963103 -0.5611052 -0.019240793
v -0.43690678 -0.2905173 0.53793764
v -0.26358178 -0.2801073 0.80566573
v -0.48175675 -0.17437626 0.67497516
v -0.43208683 -0.03498496 0.829833
v -0.6379875 0.07324031 0.6545068
v -0.6881894 -0.06715992 0.49999693
v -0.6108093 -0.32981193 0.28288153
v -0.79021794 -0.15316688 0.24928568
v -0.69172025 -0.3942078 -0.012006233
v -0.8468049 -0.22332714 0.006185323
v -0.60113233 -0.36875236 -0.31273353
v -0.922742 -0.087707974 -0.15450631
v -0.7893844 -0.18032393 -0.2512564
v -0.8196236 -0.02837199 -0.40450478
v -0.6879132 -0.12411194 -0.50017756
v -0.6379875 0.06395662 -0.6545068
v -0.47959423 -0.25615662 -0.67708534
v -0.43208683 -0.07267445 -0.829833
v -0.27311164 -0.3435011 -0.82552636
v -0.3745004 -0.38710594 -0.6806945
v -0.57823294 0.55762976 0.3400328
v -0.17179282 0.56959766 0.50799656
v -0.2908096 0.46597067 0.84528
v 0.16778982 0.56561893 0.82915
v 0.16745123 0.54024535 0.49257717
v -0.015245616 0.4362164 1.001027
v 0.30437857 0.43941745 0.9798253
v 0.5762406 0.43762657 0.8660853
v 0.6881893 0.522497 0.49999696
v 0.8218962 0.40417543 0.60382485
v 0.9180603 0.36891413 0.2898585
v 0.89442617 0.45842603 9.254293E-09
v 0.9381184 0.35614103 -0.013596848
v 0.94219095 0.34915236 -0.3178023
v 0.6898857 0.45764875 -0.50929934
v 0.8818458 0.3479602 -0.46613163
v 0.8215006 0.34676808 -0.61446095
v 0.5796458 0.353016 -0.8149844
v 0.51999253 0.51112705 0.008304867
v 0.2648334 0.47459808 -0.8036899
v 0.30437857 0.35223103 -0.9889259
v -0.008139771 0.35919172 -1.0059676
v -0.30154455 0.36694592 -0.8849969
v 0.16017686 0.5220403 -0.48325744
v -0.63497853 0.5603097 -0.27416494
v -0.5076387 0.41421348 -0.7047014
v -0.7317471 0.43621644 -0.531693
v -0.87209487 0.43941745 -0.2906235
v -0.8984884 0.4387119 -0.0072152927
v 0.0049956893 0.54024535 -0.0074181166
v -0.17179282 0.56959766 0.50799656
v -0.57823294 0.55762976 0.3400328
v -0.8630342 0.43914047 0.2746406
v -0.7317471 0.43621644 0.5197576
v -0.5522552 0.45450917 0.7217462
vt 0.12657383 0.58898354
vt 0.044481546 0.5111725
vt 0.07145512 0.66524494
vt 0.1502131 0.63007885
vt 0.17816626 0.67867374
vt 0.22760415 0.5955231
vt 0.18987352 0.50140303
vt 0.26533478 0.6896432
vt 0.29476994 0.48396283
vt 0.33250058 0.5780829
vt 0.26613247 0.4326981
vt 0.10369074 0.42925152
vt 0.11387648 0.50650954
vt 0.044481546 0.5111725
vt 0.01750797 0.3571
vt 0.1799497 0.3605466
vt 0.09575659 0.22256394
vt 0.34239143 0.36399317
vt 0.3710289 0.41525787
vt 0.39966634 0.4665226
vt 0.25819832 0.22601052
vt 0.17400521 0.088027865
vt 0.39869335 0.35796353
vt 0.3772988 0.31810454
vt 0.2931057 0.18012188
vt 0.45559227 0.12786368
vt 0.3185985 0.03135401
vt 0.4437881 0.024818853
vt 0.5689777 0.018283695
vt 0.4273308 0.40922827
vt 0.6428729 0.14953128
vt 0.6825586 0.06328702
vt 0.7961395 0.108290344
vt 0.7473357 0.298869
vt 0.8685259 0.21771558
vt 0.94091237 0.3271408
vt 0.85076725 0.4566599
vt 0.94091237 0.4538772
vt 0.94091237 0.5806136
vt 0.9026195 0.7374492
vt 0.45312417 0.45797026
vt 0.44591624 0.5140915
vt 0.37875047 0.6256518
vt 0.64075965 0.22478788
vt 0.58914137 0.18518077
vt 0.791139 0.62813735
vt 0.7651623 0.6930034
vt 0.76217484 0.8347427
vt 0.6277051 0.64855754
vt 0.6536819 0.5836915
vt 0.62471765 0.7902969
vt 0.6217302 0.9320362
vt 0.55287755 0.80325127
vt 0.45583433 0.91050893
vt 0.555865 0.6615119
vt 0.4699296 0.7924876
vt 0.3728864 0.8997453
vt 0.48402488 0.6744663
vt 0.38698167 0.781724
vt 0.28993845 0.88898164
vt 0.27763662 0.7893124
vt 0.18069679 0.7771133
vt 0.22147074 0.734975
vt 0.07145512 0.66524494
vt 0.37467983 0.68205476
vt 0.43269855 0.6493194
vt 0.48809552 0.61806333
vt 0.5599356 0.605109
vt 0.49216616 0.56166035
vt 0.6133559 0.5690949
vt 0.5455864 0.52564627
vt 0.4993741 0.5055391
vt 0.63933265 0.50422883
vt 0.59900665 0.4896322
vt 0.55279434 0.46952504
vt 0.506582 0.44941792
vt 0.48078865 0.4006759
vt 0.5392343 0.41357625
vt 0.5854466 0.4336834
vt 0.45499527 0.3519339
vt 0.5134409 0.36483425
vt 0.43360072 0.3120749
vt 0.6602547 0.44254625
vt 0.57188654 0.37773457
vt 0.49520257 0.28638208
vt 0.41220617 0.2722159
vt 0.47380802 0.24652308
vt 0.43389922 0.20003979
vt 0.49550107 0.17434697
vt 0.53540987 0.22083026
vt 0.55364823 0.29928243
vt 0.58702815 0.26043737
vt 0.60526645 0.33888954
vt 0.63864636 0.30004448
vt 0.64669466 0.38659745
vt 0.692991 0.29945675
vt 0.6800746 0.3477524
vt 0.7344192 0.34716466
vt 0.72150284 0.3954603
vt 0.7861351 0.4260601
vt 0.7005807 0.45714286
vt 0.7652129 0.48774266
vt 0.6796586 0.5188254
vt 0.6711215 0.4797904
vt 0.25683814 0.7511867
vt 0.17922533 0.71260417
vt 0.25083774 0.8681507
vt 0.102472395 0.674449
vt 0.26299322 0.63120836
vt 0.11383012 0.81561613
vt 0.07785553 0.68111694
vt 0.041880935 0.54661775
vt 0.13388339 0.43433118
vt 0.09041025 0.41653535
vt 0.13893956 0.28645295
vt 0.26956284 0.2312946
vt 0.25553727 0.20976873
vt 0.37213498 0.1330845
vt 0.50939035 0.18456542
vt 0.4417816 0.13619608
vt 0.51142824 0.13930766
vt 0.65072155 0.14553082
vt 0.36193526 0.36952007
vt 0.7438748 0.25254828
vt 0.7598294 0.23255858
vt 0.86893725 0.31958634
vt 0.8623495 0.46627095
vt 0.6398915 0.38314688
vt 0.71325034 0.6533855
vt 0.8656434 0.58928555
vt 0.86893725 0.7123001
vt 0.7853831 0.8013853
vt 0.70182896 0.8904704
vt 0.49161685 0.56958675
vt 0.3549661 0.7053962
vt 0.47995538 0.80621594
vt 0.5867784 0.93146443
vt 0.47172785 0.9724585
vt 0.3612828 0.9203046
vn 0.8707361 0.054233316 0.4887509
vn 0.8210073 0.28916076 0.49227336
vn 0.9424142 0.26396707 0.20537007
vn 0.9779091 0.09882193 0.18419546
vn 0.98644453 0.014849752 0.16342174
vn 0.8654612 -0.46932504 0.1752452
vn 0.7850821 -0.41944188 0.45575714
vn 0.89136505 -0.4493362 0.05971063
vn 0.79807895 -0.52281916 0.2995498
vn 0.83560896 -0.53333056 0.13159132
vn 0.6870161 -0.4297921 0.5859074
vn 0.6584031 -0.34301564 0.6699595
vn 0.8707361 0.054233316 0.4887509
vn 0.8210073 0.28916076 0.49227336
vn 0.5708883 0.37035722 0.7327497
vn 0.49388343 -0.30292997 0.81505376
vn 0.22823885 0.34170073 0.911673
vn 0.3468013 -0.56989026 0.74495226
vn 0.46370977 -0.7645137 0.44776332
vn 0.60360205 -0.7644473 0.22646192
vn 0.11509962 -0.24085465 0.9637121
vn -0.1260654 0.38723186 0.9133231
vn 0.0016500122 -0.86166185 0.50748026
vn -0.014922503 -0.54971015 0.8352221
vn -0.13264409 -0.18188956 0.97433144
vn -0.6185317 -0.0034487275 0.7857522
vn -0.31865627 0.735845 0.59748673
vn -0.45725566 0.68370044 0.5687451
vn -0.64401406 0.62028265 0.44776708
vn 0.102545895 -0.92827463 0.35747823
vn -0.9457284 0.047500327 0.32146785
vn -0.6868284 0.69626284 0.20853032
vn -0.7950759 0.606237 -0.018195668
vn -0.9451381 -0.052035272 -0.32250017
vn -0.800611 0.5406414 -0.25831896
vn -0.6219233 0.6006581 -0.5024155
vn -0.61113364 0.1491082 -0.7773561
vn -0.273346 0.8150517 -0.51085484
vn -0.2692412 0.69779307 -0.6637726
vn -0.08967638 0.4099946 -0.9076687
vn 0.23574078 -0.95744604 0.16650334
vn 0.61775583 -0.7861168 0.019952308
vn 0.8259646 -0.5597154 0.06709079
vn -0.9285833 -0.2987156 0.22023176
vn -0.78700787 -0.35596982 0.503889
vn -0.10781489 -0.15419854 -0.9821399
vn 0.055609085 -0.25412875 -0.9655704
vn 0.284722 0.29134572 -0.913264
vn 0.3765367 -0.39817247 -0.8364681
vn 0.107619084 -0.43330637 -0.8947982
vn 0.533623 -0.28295195 -0.79698473
vn 0.5383285 0.34187293 -0.770276
vn 0.5658589 -0.30883357 -0.7644774
vn 0.75708634 0.33949137 -0.558181
vn 0.5683124 -0.44050467 -0.6949652
vn 0.76539195 -0.32899332 -0.55311716
vn 0.85926026 0.37037504 -0.35283723
vn 0.7619962 -0.50935316 -0.39990157
vn 0.90845865 -0.36099055 -0.21068625
vn 0.9326208 0.2932585 -0.2102803
vn 0.95524323 -0.29509467 -0.020723818
vn 0.99187696 0.12544018 0.021088287
vn 0.98644453 0.014849752 0.16342174
vn 0.9424142 0.26396707 0.20537007
vn 0.8771711 -0.4798099 -0.018796025
vn 0.7755561 -0.55419576 -0.30229065
vn 0.6863807 -0.6776206 -0.26403004
vn 0.41232708 -0.69965154 -0.58350164
vn 0.5133528 -0.83320063 -0.20553769
vn 0.2276346 -0.7633606 -0.60453534
vn 0.20234902 -0.91115326 -0.3589635
vn 0.25059235 -0.9614889 -0.11288265
vn -0.22002006 -0.83983314 -0.49625745
vn -0.15246776 -0.92846316 -0.33868825
vn -0.06164221 -0.9842039 -0.1659608
vn -0.0037464006 -0.9994518 0.032893762
vn -0.13557048 -0.950757 0.27871442
vn -0.26019993 -0.96287054 0.07194696
vn -0.40694404 -0.8861321 -0.22173479
vn -0.2821106 -0.869906 0.40457022
vn -0.41931215 -0.840785 0.34242925
vn -0.38226083 -0.78732294 0.4837347
vn -0.63914734 -0.674284 -0.36990774
vn -0.5035219 -0.8625182 0.050279833
vn -0.5798288 -0.70123184 0.4148161
vn -0.37262243 -0.5542884 0.7442559
vn -0.6547202 -0.5633486 0.5039641
vn -0.48069057 -0.30711177 0.8213519
vn -0.74212176 -0.358634 0.5662482
vn -0.7248066 -0.46228966 0.51082635
vn -0.59816396 -0.68359864 0.41820177
vn -0.74524117 -0.52703524 0.40847215
vn -0.69901973 -0.7144312 0.030973786
vn -0.79804313 -0.5983234 0.07166874
vn -0.66065097 -0.67686516 -0.32464406
vn -0.9115699 -0.37197205 -0.17514913
vn -0.7098894 -0.6085852 -0.3545153
vn -0.78544796 -0.31711096 -0.5315186
vn -0.72315943 -0.45116365 -0.52296454
vn -0.74722064 -0.28342515 -0.6011087
vn -0.6974574 -0.44337872 -0.56299955
vn -0.5133341 -0.23822954 -0.82446027
vn -0.33400708 -0.48607096 -0.8075731
vn -0.35916972 -0.6049284 -0.7106749
vn -0.25788066 0.94882476 0.18228859
vn -0.17247635 0.9800986 0.098278075
vn -0.31865627 0.735845 0.59748673
vn 0.033610422 0.9511695 0.30683383
vn 0.060153127 0.9969035 -0.05064598
vn -0.1260654 0.38723186 0.9133231
vn 0.22823885 0.34170073 0.911673
vn 0.5708883 0.37035722 0.7327497
vn 0.3367973 0.93438816 0.11613062
vn 0.8210073 0.28916076 0.49227336
vn 0.9424142 0.26396707 0.20537007
vn 0.6146625 0.7885621 -0.018964557
vn 0.99187696 0.12544018 0.021088287
vn 0.9326208 0.2932585 -0.2102803
vn 0.3133942 0.92349535 -0.22122507
vn 0.85926026 0.37037504 -0.35283723
vn 0.75708634 0.33949137 -0.558181
vn 0.5383285 0.34187293 -0.770276
vn 0.09485444 0.99442965 -0.04595971
vn 0.08265459 0.9369852 -0.33945113
vn 0.284722 0.29134572 -0.913264
vn -0.08967638 0.4099946 -0.9076687
vn -0.2692412 0.69779307 -0.6637726
vn 0.020898622 0.99182665 -0.12586933
vn -0.21234038 0.96690446 -0.14144695
vn -0.273346 0.8150517 -0.51085484
vn -0.6219233 0.6006581 -0.5024155
vn -0.800611 0.5406414 -0.25831896
vn -0.7950759 0.606237 -0.018195668
vn 0.04538578 0.99871266 -0.022650613
vn -0.17247635 0.9800986 0.098278075
vn -0.25788066 0.94882476 0.18228859
vn -0.6868284 0.69626284 0.20853032
vn -0.64401406 0.62028265 0.44776708
vn -0.45725566 0.68370044 0.5687451
g HG_Rock_001_0
f 3/3/3 2/2/2 1/1/1
f 3/3/3 1/1/1 4/4/4
f 5/5/5 3/3/3 4/4/4
f 4/4/4 1/1/1 6/6/6
f 5/5/5 4/4/4 6/6/6
f 1/1/1 7/7/7 6/6/6
f 8/8/8 5/5/5 6/6/6
f 9/9/9 6/6/6 7/7/7
f 10/10/10 8/8/8 6/6/6
f 9/9/9 10/10/10 6/6/6
f 7/7/7 11/11/11 9/9/9
f 7/7/7 12/12/12 11/11/11
f 7/7/7 13/13/13 12/12/12
f 12/12/12 13/13/13 14/14/14
f 14/14/14 15/15/15 12/12/12
f 12/12/12 15/15/15 16/16/16
f 11/11/11 12/12/12 16/16/16
f 15/15/15 17/17/17 16/16/16
f 11/11/11 16/16/16 18/18/18
f 17/17/17 18/18/18 16/16/16
f 9/9/9 11/11/11 19/19/19
f 11/11/11 18/18/18 19/19/19
f 20/20/20 10/10/10 9/9/9
f 9/9/9 19/19/19 20/20/20
f 18/18/18 17/17/17 21/21/21
f 17/17/17 22/22/22 21/21/21
f 19/19/19 18/18/18 23/23/23
f 18/18/18 21/21/21 24/24/24
f 18/18/18 24/24/24 23/23/23
f 21/21/21 22/22/22 25/25/25
f 24/24/24 21/21/21 25/25/25
f 22/22/22 26/26/26 25/25/25
f 22/22/22 27/27/27 26/26/26
f 27/27/27 28/28/28 26/26/26
f 26/26/26 28/28/28 29/29/29
f 20/20/20 19/19/19 30/30/30
f 30/30/30 19/19/19 23/23/23
f 26/26/26 29/29/29 31/31/31
f 29/29/29 32/32/32 31/31/31
f 31/31/31 32/32/32 33/33/33
f 31/31/31 33/33/33 34/34/34
f 33/33/33 35/35/35 34/34/34
f 34/34/34 35/35/35 36/36/36
f 34/34/34 36/36/36 37/37/37
f 36/36/36 38/38/38 37/37/37
f 37/37/37 38/38/38 39/39/39
f 37/37/37 39/39/39 40/40/40
f 20/20/20 30/30/30 41/41/41
f 41/41/41 42/42/42 20/20/20
f 20/20/20 42/42/42 10/10/10
f 10/10/10 42/42/42 43/43/43
f 10/10/10 43/43/43 8/8/8
f 31/31/31 34/34/34 44/44/44
f 45/45/45 31/31/31 44/44/44
f 26/26/26 31/31/31 45/45/45
f 40/40/40 46/46/46 37/37/37
f 46/46/46 40/40/40 47/47/47
f 40/40/40 48/48/48 47/47/47
f 48/48/48 49/49/49 47/47/47
f 50/50/50 46/46/46 47/47/47
f 50/50/50 47/47/47 49/49/49
f 49/49/49 48/48/48 51/51/51
f 48/48/48 52/52/52 51/51/51
f 51/51/51 52/52/52 53/53/53
f 52/52/52 54/54/54 53/53/53
f 49/49/49 51/51/51 55/55/55
f 55/55/55 51/51/51 53/53/53
f 54/54/54 56/56/56 53/53/53
f 56/56/56 54/54/54 57/57/57
f 53/53/53 56/56/56 58/58/58
f 55/55/55 53/53/53 58/58/58
f 59/59/59 56/56/56 57/57/57
f 58/58/58 56/56/56 59/59/59
f 59/59/59 57/57/57 60/60/60
f 59/59/59 60/60/60 61/61/61
f 60/60/60 62/62/62 61/61/61
f 62/62/62 63/63/63 61/61/61
f 63/63/63 62/62/62 64/64/64
f 61/61/61 63/63/63 8/8/8
f 65/65/65 59/59/59 61/61/61
f 65/65/65 61/61/61 8/8/8
f 58/58/58 59/59/59 65/65/65
f 43/43/43 65/65/65 8/8/8
f 66/66/66 58/58/58 65/65/65
f 43/43/43 66/66/66 65/65/65
f 67/67/67 58/58/58 66/66/66
f 55/55/55 58/58/58 67/67/67
f 67/67/67 66/66/66 43/43/43
f 68/68/68 55/55/55 67/67/67
f 49/49/49 55/55/55 68/68/68
f 69/69/69 67/67/67 43/43/43
f 68/68/68 67/67/67 69/69/69
f 42/42/42 69/69/69 43/43/43
f 70/70/70 49/49/49 68/68/68
f 50/50/50 49/49/49 70/70/70
f 71/71/71 68/68/68 69/69/69
f 71/71/71 70/70/70 68/68/68
f 72/72/72 69/69/69 42/42/42
f 71/71/71 69/69/69 72/72/72
f 41/41/41 72/72/72 42/42/42
f 73/73/73 50/50/50 70/70/70
f 74/74/74 70/70/70 71/71/71
f 73/73/73 70/70/70 74/74/74
f 75/75/75 71/71/71 72/72/72
f 74/74/74 71/71/71 75/75/75
f 76/76/76 72/72/72 41/41/41
f 75/75/75 72/72/72 76/76/76
f 41/41/41 77/77/77 76/76/76
f 41/41/41 30/30/30 77/77/77
f 78/78/78 75/75/75 76/76/76
f 77/77/77 78/78/78 76/76/76
f 79/79/79 74/74/74 75/75/75
f 78/78/78 79/79/79 75/75/75
f 30/30/30 80/80/80 77/77/77
f 30/30/30 23/23/23 80/80/80
f 77/77/77 81/81/81 78/78/78
f 80/80/80 81/81/81 77/77/77
f 23/23/23 82/82/82 80/80/80
f 23/23/23 24/24/24 82/82/82
f 83/83/83 73/73/73 74/74/74
f 79/79/79 83/83/83 74/74/74
f 84/84/84 79/79/79 78/78/78
f 81/81/81 84/84/84 78/78/78
f 80/80/80 85/85/85 81/81/81
f 82/82/82 85/85/85 80/80/80
f 24/24/24 86/86/86 82/82/82
f 24/24/24 25/25/25 86/86/86
f 86/86/86 87/87/87 82/82/82
f 82/82/82 87/87/87 85/85/85
f 25/25/25 88/88/88 86/86/86
f 86/86/86 88/88/88 87/87/87
f 26/26/26 88/88/88 25/25/25
f 88/88/88 26/26/26 89/89/89
f 87/87/87 88/88/88 89/89/89
f 89/89/89 26/26/26 45/45/45
f 87/87/87 89/89/89 90/90/90
f 87/87/87 90/90/90 85/85/85
f 90/90/90 89/89/89 45/45/45
f 81/81/81 85/85/85 91/91/91
f 85/85/85 90/90/90 91/91/91
f 81/81/81 91/91/91 84/84/84
f 90/90/90 45/45/45 92/92/92
f 90/90/90 92/92/92 91/91/91
f 92/92/92 45/45/45 44/44/44
f 91/91/91 93/93/93 84/84/84
f 91/91/91 92/92/92 93/93/93
f 92/92/92 44/44/44 94/94/94
f 92/92/92 94/94/94 93/93/93
f 93/93/93 95/95/95 84/84/84
f 84/84/84 95/95/95 79/79/79
f 79/79/79 95/95/95 83/83/83
f 44/44/44 96/96/96 94/94/94
f 34/34/34 96/96/96 44/44/44
f 94/94/94 97/97/97 93/93/93
f 93/93/93 97/97/97 95/95/95
f 94/94/94 96/96/96 97/97/97
f 96/96/96 34/34/34 98/98/98
f 97/97/97 96/96/96 98/98/98
f 97/97/97 99/99/99 95/95/95
f 97/97/97 98/98/98 99/99/99
f 95/95/95 99/99/99 83/83/83
f 98/98/98 34/34/34 100/100/100
f 99/99/99 98/98/98 100/100/100
f 34/34/34 37/37/37 100/100/100
f 99/99/99 101/101/101 83/83/83
f 99/99/99 100/100/100 101/101/101
f 100/100/100 37/37/37 102/102/102
f 101/101/101 100/100/100 102/102/102
f 46/46/46 102/102/102 37/37/37
f 102/102/102 46/46/46 103/103/103
f 101/101/101 102/102/102 103/103/103
f 103/103/103 46/46/46 50/50/50
f 103/103/103 50/50/50 73/73/73
f 101/101/101 104/104/104 83/83/83
f 83/83/83 104/104/104 73/73/73
f 101/101/101 103/103/103 104/104/104
f 104/104/104 103/103/103 73/73/73
f 107/107/107 106/106/106 105/105/105
f 108/108/108 106/106/106 107/107/107
f 109/109/109 106/106/106 108/108/108
f 108/108/108 107/107/107 110/110/110
f 108/108/108 110/110/110 111/111/111
f 112/112/112 108/108/108 111/111/111
f 113/113/113 108/108/108 112/112/112
f 113/113/113 109/109/109 108/108/108
f 114/114/114 113/113/113 112/112/112
f 115/115/115 113/113/113 114/114/114
f 116/116/116 113/113/113 115/115/115
f 117/117/117 116/116/116 115/115/115
f 118/118/118 116/116/116 117/117/117
f 119/119/119 116/116/116 118/118/118
f 119/119/119 118/118/118 120/120/120
f 121/121/121 119/119/119 120/120/120
f 122/122/122 119/119/119 121/121/121
f 116/116/116 123/123/123 113/113/113
f 113/113/113 123/123/123 109/109/109
f 119/119/119 123/123/123 116/116/116
f 124/124/124 119/119/119 122/122/122
f 125/125/125 124/124/124 122/122/122
f 126/126/126 124/124/124 125/125/125
f 127/127/127 124/124/124 126/126/126
f 124/124/124 128/128/128 119/119/119
f 119/119/119 128/128/128 123/123/123
f 127/127/127 128/128/128 124/124/124
f 127/127/127 129/129/129 128/128/128
f 130/130/130 129/129/129 127/127/127
f 131/131/131 129/129/129 130/130/130
f 132/132/132 129/129/129 131/131/131
f 133/133/133 129/129/129 132/132/132
f 123/123/123 134/134/134 109/109/109
f 128/128/128 134/134/134 123/123/123
f 129/129/129 134/134/134 128/128/128
f 109/109/109 134/134/134 135/135/135
f 135/135/135 134/134/134 136/136/136
f 136/136/136 134/134/134 129/129/129
f 133/133/133 136/136/136 129/129/129
f 137/137/137 136/136/136 133/133/133
f 138/138/138 136/136/136 137/137/137
f 139/139/139 136/136/136 138/138/138
f 107/107/107 136/136/136 139/139/139
