g terrainMesh.051
v -45.822407 -9.999999 48.30879
v -49.960697 -9.999999 48.311234
v -50.111572 -5.5520015 48.842514
v -43.206516 -2.7732847 47.982067
v -48.851288 0 47.624146
v -45.497425 0 47.490154
v -43.937145 -9.999999 48.073956
v -37.07104 -9.125274 43.225903
v -39.40153 -9.999999 44.837086
v -37.54052 -9.999999 43.492203
v -36.99463 -9.999999 42.997223
v -35.55046 -9.999999 42.12394
v -42.20272 0 47.53527
v -32.5008 -9.999999 40.650253
v -34.923615 -1.4696807 45.401707
v -36.30507 0 45.74557
v -28.439457 -1.5355222 43.341618
v -31.217096 -9.999999 40.24851
v -34.350002 0 45.23689
v -28.846806 0 43.489124
v -29.86132 -9.999999 39.201557
v -27.272757 0 41.986927
v -24.999996 -4.90733 38.59904
v -24.999996 0 39.064342
v -24.999996 -5.01248 38.533974
v -25.146421 -9.999999 34.48877
v -24.999996 -6.2875156 37.462418
v -24.999996 -9.999999 34.320713
vt 0.32870847 0.36498052
vt 0.3414787 0.3655131
vt 0.34309307 0.3475176
vt 0.3194206 0.33565181
vt 0.3357597 0.3253075
vt 0.32506773 0.32490665
vt 0.32228458 0.36479235
vt 0.2884868 0.36151922
vt 0.2998991 0.36496237
vt 0.29067063 0.36503604
vt 0.28770298 0.36508107
vt 0.28098348 0.36509854
vt 0.31502283 0.3244717
vt 0.26775473 0.36504903
vt 0.28711307 0.32994264
vt 0.2921902 0.32412902
vt 0.2617735 0.32985222
vt 0.26275328 0.3649773
vt 0.28484064 0.32399568
vt 0.26333344 0.32369405
vt 0.25585592 0.36504662
vt 0.254582 0.3238413
vt 0.2390369 0.34407666
vt 0.23999113 0.32422957
vt 0.23887351 0.34451473
vt 0.22908907 0.36553743
vt 0.23615967 0.349893
vt 0.22820154 0.36555776
vn 0.09232099 -0.030366745 0.9952662
vn 0.00057986693 -0.11856754 0.99294585
vn 0.06467009 0.03878985 0.99715245
vn 0.219369 0.02124107 0.9754107
vn 0.03906458 0.20569943 0.97783524
vn 0.024201937 0.19395122 0.98071253
vn 0.34880257 -0.023347097 0.9369053
vn 0.49629855 -0.2217199 0.83936167
vn 0.58062243 -0.05014259 0.8126274
vn 0.6121303 -0.08933068 0.78569496
vn 0.5792547 -0.15842521 0.79960334
vn 0.4226326 -0.32909065 0.8444412
vn 0.17466202 0.09467091 0.98006666
vn 0.32289717 -0.3888805 0.8628496
vn 0.3065081 -0.17255767 0.93609643
vn 0.28035045 0.03912576 0.9591
vn 0.5361284 -0.17127301 0.82657844
vn 0.4069456 -0.42837024 0.80678016
vn 0.28358397 -0.0031129539 0.95894235
vn 0.47518778 0.041628525 0.87889904
vn 0.5679961 -0.46249065 0.6807957
vn 0.76829344 -0.01928821 0.6398071
vn 0.6298205 -0.3398901 0.6984273
vn 0.7880742 -0.0581091 0.6128313
vn 0.5695131 -0.4643144 0.6782823
vn 0.64093125 -0.49511108 0.58657676
vn 0.6083834 -0.5106282 0.6075594
vn 0.6589822 -0.4858743 0.5741679
g terrainMesh.051_0
f 3/3/3 2/2/2 1/1/1
f 3/3/3 1/1/1 4/4/4
f 3/3/3 4/4/4 5/5/5
f 4/4/4 6/6/6 5/5/5
f 1/1/1 7/7/7 4/4/4
f 4/4/4 7/7/7 8/8/8
f 7/7/7 9/9/9 8/8/8
f 9/9/9 10/10/10 8/8/8
f 10/10/10 11/11/11 8/8/8
f 8/8/8 11/11/11 12/12/12
f 4/4/4 13/13/13 6/6/6
f 12/12/12 14/14/14 8/8/8
f 4/4/4 15/15/15 13/13/13
f 8/8/8 15/15/15 4/4/4
f 14/14/14 15/15/15 8/8/8
f 15/15/15 16/16/16 13/13/13
f 15/15/15 14/14/14 17/17/17
f 14/14/14 18/18/18 17/17/17
f 15/15/15 19/19/19 16/16/16
f 19/19/19 15/15/15 17/17/17
f 20/20/20 19/19/19 17/17/17
f 17/17/17 18/18/18 21/21/21
f 20/20/20 17/17/17 22/22/22
f 17/17/17 23/23/23 22/22/22
f 23/23/23 24/24/24 22/22/22
f 25/25/25 23/23/23 17/17/17
f 17/17/17 21/21/21 25/25/25
f 25/25/25 21/21/21 26/26/26
f 27/27/27 25/25/25 26/26/26
f 28/28/28 27/27/27 26/26/26
