g terrainMesh.020
v -14.999998 106.7403 -5.2257667
v -16.116302 107.32646 -6.052144
v -14.999998 108.99433 -3.4651294
v -14.999998 105.45616 -5.7936325
v -16.363321 98.546585 -14.961522
v -14.999998 100.09043 -10.960015
v -14.999998 97.57432 -13.34465
v -14.999998 97.28886 -15.816039
v -14.999998 98.42233 -20.93602
v -16.363321 98.546585 -14.961522
v -14.999998 97.57432 -13.34465
vt 0.6601981 0.10694334
vt 0.6644169 0.10282138
vt 0.6516612 0.09954263
vt 0.66361856 0.11143901
vt 0.70495474 0.13002779
vt 0.68717444 0.1284304
vt 0.69809437 0.13642243
vt 0.7848674 0.27723935
vt 0.8051349 0.28096685
vt 0.7824273 0.27124515
vt 0.77505994 0.27545995
vn -0.67084014 -0.3783147 0.63784903
vn -0.7238587 -0.4071896 0.5569787
vn -0.6716745 -0.45605382 0.5838392
vn -0.7710669 -0.39073694 0.5027728
vn -0.7588276 -0.63079983 0.1620871
vn -0.79987717 -0.41570175 0.432884
vn -0.77419084 -0.5420587 0.32680392
vn -0.6980097 -0.71323895 -0.06381612
vn -0.71957105 -0.67800456 -0.15009122
vn -0.7588276 -0.63079983 0.1620871
vn -0.77419084 -0.5420587 0.32680392
g terrainMesh.020_0
f 3/3/3 2/2/2 1/1/1
f 1/1/1 2/2/2 4/4/4
f 4/4/4 2/2/2 5/5/5
f 6/6/6 4/4/4 5/5/5
f 7/7/7 6/6/6 5/5/5
f 10/10/10 9/9/9 8/8/8
f 11/11/11 10/10/10 8/8/8
