g terrainMesh.046
v -16.566847 23.261305 -7.991149
v -16.84325 20.43501 -8.090914
v -16.649817 21.516294 -7.991149
v -16.649817 21.516294 -7.991149
v -16.84325 20.43501 -8.090914
v -16.611492 22.440596 -8.37701
v -16.566847 23.261305 -7.991149
v -16.497238 24.898754 -8.557032
v -16.377985 27.37991 -8.469091
v -16.253448 29.999996 -8.471752
v -16.253326 29.999996 -8.463422
v -16.246445 29.999996 -7.991149
v -16.253542 29.999996 -8.478202
v -16.360723 27.78146 -8.594601
v -16.566847 23.261305 -7.991149
v -16.246445 29.999996 -7.991149
v -24.107975 29.999996 -7.9895806
v -24.999996 20.960268 -7.9894886
v -24.999996 29.20863 -7.9894104
v -24.999996 29.999996 -7.9896183
v -24.999996 19.999998 -7.985539
v -23.97802 19.999998 -7.9845934
v -16.84325 20.43501 -8.090914
v -18.325607 19.999998 -8.081568
v -17.15471 19.999998 -8.084406
v -17.013382 19.999998 -8.082278
v -16.78371 19.999998 -8.086811
v -16.5689 19.999998 -8.087383
v -14.999998 19.999998 -8.063292
v -14.999998 20.407825 -8.062652
v -14.999998 22.607254 -8.377145
v -16.611492 22.440596 -8.37701
v -14.999998 23.186123 -8.460714
v -16.497238 24.898754 -8.557032
v -14.999998 24.029627 -8.521764
v -14.999998 25.004087 -8.536301
v -14.999998 25.936089 -8.527476
v -14.999998 27.354565 -8.476861
v -16.377985 27.37991 -8.469091
v -14.999998 27.57188 -8.5380945
v -16.360723 27.78146 -8.594601
v -14.999998 27.767008 -8.59903
v -14.999998 28.396374 -8.569079
v -14.999998 29.622553 -8.504446
v -15.945573 29.999996 -8.479762
v -14.999998 29.999996 -8.454091
v -16.253542 29.999996 -8.478202
vt 0.34250444 0.8036723
vt 0.34250444 0.7923685
vt 0.34208483 0.7967207
vt 0.34139264 0.60074574
vt 0.34073985 0.5965084
vt 0.34008983 0.60420895
vt 0.34139264 0.60762703
vt 0.33948204 0.61381763
vt 0.33977896 0.62364316
vt 0.33976996 0.63397396
vt 0.3397981 0.6339779
vt 0.34139264 0.6342002
vt 0.33974817 0.63397086
vt 0.33935517 0.62516755
vt 0.4929665 0.5677026
vt 0.51911163 0.5749629
vt 0.5257938 0.5494977
vt 0.49111384 0.53826106
vt 0.52344966 0.5458775
vt 0.52655196 0.54660875
vt 0.48735088 0.53736556
vt 0.48648268 0.54067343
vt 0.48208255 0.5644185
vt 0.4816407 0.5591951
vt 0.48064443 0.56299365
vt 0.48052517 0.56344664
vt 0.48032817 0.5642006
vt 0.48014536 0.56489754
vt 0.47882143 0.56992555
vt 0.48042047 0.5703007
vt 0.48891965 0.5730283
vt 0.48963597 0.5676549
vt 0.49115625 0.57374805
vt 0.499105 0.5706936
vt 0.49443913 0.5746622
vt 0.49825355 0.5755942
vt 0.5019107 0.5764352
vt 0.50749135 0.57763296
vt 0.50876486 0.5731762
vt 0.50831926 0.5779693
vt 0.51027524 0.5738809
vt 0.5090604 0.57828444
vt 0.51153934 0.57879925
vt 0.5163716 0.5797883
vt 0.5186646 0.5770197
vt 0.517871 0.5800253
vt 0.518927 0.5760188
vn -0.70938337 0.042268798 -0.7035543
vn -0.028687958 -0.02047832 -0.99937856
vn -0.55770844 0.1512228 -0.8161453
vn -0.55770844 0.1512228 -0.8161453
vn -0.028687958 -0.02047832 -0.99937856
vn -0.7041804 -0.048068486 -0.70839214
vn -0.70938337 0.042268798 -0.7035543
vn -0.7007485 0.021699063 -0.7130782
vn -0.7550162 -0.050570425 -0.6537532
vn -0.9987657 0.047487613 0.014557577
vn -0.9987662 0.047487635 0.014527065
vn -0.72217274 0.03433395 -0.6908602
vn -0.71342295 0.07101879 -0.6971256
vn -0.6783862 -0.064640194 -0.73185635
vn -0.70938337 0.042268798 -0.7035543
vn -0.72217274 0.03433395 -0.6908602
vn -0.00012207404 -3.051851E-05 -1
vn 0.0004577903 -0.0023805096 -0.99999714
vn -0.00012207404 -6.103702E-05 -1
vn 3.051944E-05 -0.00024415553 -1
vn 0.00091557525 -0.0040895697 -0.9999913
vn -0.0014344112 0.0012818142 -0.9999982
vn -0.028687958 -0.02047832 -0.99937856
vn -0.015778422 0.032380868 -0.9993511
vn 0.0028382328 -0.016998878 -0.99985147
vn 0.0017700755 -0.020538978 -0.9997875
vn -0.010437423 -0.010834168 -0.9998869
vn 0.00955242 -0.0020752861 -0.9999522
vn 0.015350856 0.0015564488 -0.9998809
vn 0.014252401 -0.06943085 -0.9974849
vn 0.014313599 -0.14255612 -0.98968315
vn -0.7041804 -0.048068486 -0.70839214
vn -0.0064394637 -0.097782195 -0.9951871
vn -0.7007485 0.021699063 -0.7130782
vn -0.007324629 -0.053134076 -0.9985605
vn 0.013977786 -0.002166862 -0.9999
vn 0.0005798609 0.02758917 -0.9996191
vn -0.007751739 -0.11746631 -0.9930466
vn -0.7550162 -0.050570425 -0.6537532
vn -0.008148722 -0.28590724 -0.9582227
vn -0.6783862 -0.064640194 -0.73185635
vn -0.0045778938 -0.1283031 -0.99172443
vn -0.0042116162 0.05075303 -0.9987024
vn 0.007049885 0.08285904 -0.9965364
vn -0.0011597113 0.062349744 -0.99805367
vn 0.026887264 0.13217792 -0.9908613
vn -0.71342295 0.07101879 -0.6971256
g terrainMesh.046_0
f 3/3/3 2/2/2 1/1/1
f 6/6/6 5/5/5 4/4/4
f 4/4/4 7/7/7 6/6/6
f 6/6/6 7/7/7 8/8/8
f 8/8/8 7/7/7 9/9/9
f 10/10/10 9/9/9 7/7/7
f 11/11/11 10/10/10 7/7/7
f 7/7/7 12/12/12 11/11/11
f 9/9/9 10/10/10 13/13/13
f 14/14/14 9/9/9 13/13/13
f 17/17/17 16/16/16 15/15/15
f 15/15/15 18/18/18 17/17/17
f 18/18/18 19/19/19 17/17/17
f 19/19/19 20/20/20 17/17/17
f 18/18/18 15/15/15 21/21/21
f 15/15/15 22/22/22 21/21/21
f 22/22/22 15/15/15 23/23/23
f 24/24/24 22/22/22 23/23/23
f 25/25/25 24/24/24 23/23/23
f 26/26/26 25/25/25 23/23/23
f 26/26/26 23/23/23 27/27/27
f 28/28/28 27/27/27 23/23/23
f 29/29/29 28/28/28 23/23/23
f 30/30/30 29/29/29 23/23/23
f 23/23/23 31/31/31 30/30/30
f 23/23/23 32/32/32 31/31/31
f 32/32/32 33/33/33 31/31/31
f 32/32/32 34/34/34 33/33/33
f 34/34/34 35/35/35 33/33/33
f 36/36/36 35/35/35 34/34/34
f 37/37/37 36/36/36 34/34/34
f 38/38/38 37/37/37 34/34/34
f 39/39/39 38/38/38 34/34/34
f 38/38/38 39/39/39 40/40/40
f 39/39/39 41/41/41 40/40/40
f 41/41/41 42/42/42 40/40/40
f 42/42/42 41/41/41 43/43/43
f 44/44/44 43/43/43 41/41/41
f 41/41/41 45/45/45 44/44/44
f 46/46/46 44/44/44 45/45/45
f 41/41/41 47/47/47 45/45/45
