g terrainMesh.032
v -15.08838 -8.763915 -2.4095972
v -14.999998 -8.765451 -2.3775666
v -14.999998 -8.711512 -2.435849
v -15.08838 -8.763915 -2.4095972
v -14.999998 -8.916586 -2.2874236
v -14.999998 -8.765451 -2.3775666
v -14.999998 -9.999999 -1.4951463
v -14.999998 -8.916586 -2.2874236
v -15.08838 -8.763915 -2.4095972
v -15.746624 -9.999999 -1.5840869
v -16.875847 -9.999999 -1.5014486
v -19.027037 -9.999999 -1.346277
v -18.038292 -7.6566153 -2.89484
v -20.60656 -9.999999 -0.96986383
v -21.188532 -8.236724 -1.8190925
v -21.972368 -9.999999 -0.50287586
v -23.777061 -9.999999 0.3471695
v -19.23094 -5.676864 -4.0166106
v -16.457235 -5.598846 -4.490522
v -24.616327 -5.6013484 -1.9578741
v -24.808268 -2.6125486 -3.7340693
v -24.713963 -8.933822 0.2158489
v -24.738838 -9.999999 0.9117093
v -14.999998 -8.598368 -2.5212924
v -14.999998 -8.711512 -2.435849
v -14.999998 -5.547929 -4.5503864
v -14.999998 -3.318973 -5.927986
v -14.999998 -3.1906152 -5.9961233
v -14.999998 -3.0600522 -6.056079
v -22.536465 0 -5.9689474
v -14.999998 0 -7.2986336
v -22.870426 0 -5.9028172
v -23.107307 0 -5.8175335
v -24.999996 0 -5.2715178
v -24.999996 -2.071722 -4.008477
v -24.999996 -2.4456892 -3.7684648
v -24.999996 -2.6533024 -3.6175447
v -24.999996 -5.2714 -1.9817957
v -24.999996 -5.6894956 -1.6740811
v -24.999996 -8.65879 0.21108644
v -24.999996 -8.817002 0.35197008
v -24.999996 -9.999999 1.1037765
vt 0.9989823 0.7379046
vt 0.9989823 0.73752576
vt 0.9987622 0.73760384
vt 0.93698007 0.5592462
vt 0.9369316 0.56009996
vt 0.93718207 0.55951256
vt 0.3637853 0.52767307
vt 0.36772233 0.5304286
vt 0.36834812 0.53055394
vt 0.36438504 0.5254519
vt 0.36537713 0.5216116
vt 0.36726618 0.51430064
vt 0.37500617 0.5230973
vt 0.368756 0.508351
vt 0.37583062 0.5099757
vt 0.37009966 0.50289303
vt 0.3719663 0.495165
vt 0.38334173 0.5235477
vt 0.38110465 0.53365296
vt 0.38902095 0.5016148
vt 0.40020546 0.50768775
vt 0.37689087 0.493406
vt 0.3730048 0.49079943
vt 0.36887825 0.5312405
vt 0.36846817 0.53094673
vt 0.3800423 0.5385522
vt 0.388241 0.5436622
vt 0.3887175 0.5439317
vt 0.38920587 0.54418504
vt 0.40764147 0.52240884
vt 0.40071553 0.5497633
vt 0.40795118 0.5211807
vt 0.4081859 0.5202246
vt 0.4100083 0.5128851
vt 0.40238118 0.50817406
vt 0.40100908 0.50729704
vt 0.40025428 0.506771
vt 0.39063114 0.50072986
vt 0.3891126 0.49966213
vt 0.3782103 0.49274412
vt 0.37764522 0.4922859
vt 0.37330192 0.48952806
vn 0.06927839 -0.5782152 -0.8129377
vn 0.26554552 -0.5917322 -0.761143
vn 0.15506843 -0.638982 -0.75342935
vn 0.06927839 -0.5782152 -0.8129377
vn 0.12332848 -0.57553285 -0.80842566
vn 0.26554552 -0.5917322 -0.761143
vn 0.0957084 -0.5875873 -0.80348057
vn 0.12332848 -0.57553285 -0.80842566
vn 0.06927839 -0.5782152 -0.8129377
vn -0.0025941543 -0.5544166 -0.8322353
vn -0.06109919 -0.53206956 -0.8444933
vn -0.15115923 -0.4998051 -0.85284567
vn -0.121984795 -0.5432398 -0.83066857
vn -0.23905903 -0.48425248 -0.8416355
vn -0.28519988 -0.4855264 -0.82639295
vn -0.35055056 -0.45514196 -0.8185109
vn -0.40297487 -0.4521412 -0.79572576
vn -0.20798734 -0.48885417 -0.84720886
vn -0.0828599 -0.520934 -0.84956586
vn -0.37200207 -0.49908525 -0.7826419
vn -0.31745982 -0.5028024 -0.8039956
vn -0.44853687 -0.47960517 -0.7541841
vn -0.49437937 -0.4669732 -0.733161
vn 0.0030519217 -0.5604244 -0.8282
vn 0.15506843 -0.638982 -0.75342935
vn -0.015717536 -0.5393404 -0.8419411
vn -0.117619306 -0.4747498 -0.8722262
vn -0.16498552 -0.42705187 -0.889048
vn -0.17099895 -0.39546752 -0.9024216
vn -0.17502838 -0.40551043 -0.8971769
vn -0.16132545 -0.37129882 -0.9143913
vn -0.25642484 -0.4488198 -0.8560415
vn -0.28166032 -0.47942382 -0.83115596
vn -0.23915078 -0.5054334 -0.8290621
vn -0.24585979 -0.50649065 -0.8264502
vn -0.3158756 -0.52575743 -0.78981113
vn -0.36336225 -0.51336443 -0.7774476
vn -0.38756272 -0.5065263 -0.7702118
vn -0.43801337 -0.49960136 -0.74735725
vn -0.47588524 -0.5073505 -0.718421
vn -0.5305812 -0.5119338 -0.67557925
vn -0.5273724 -0.45571327 -0.71708
g terrainMesh.032_0
f 3/3/3 2/2/2 1/1/1
f 6/6/6 5/5/5 4/4/4
f 9/9/9 8/8/8 7/7/7
f 10/10/10 9/9/9 7/7/7
f 11/11/11 9/9/9 10/10/10
f 9/9/9 11/11/11 12/12/12
f 13/13/13 9/9/9 12/12/12
f 13/13/13 12/12/12 14/14/14
f 15/15/15 13/13/13 14/14/14
f 15/15/15 14/14/14 16/16/16
f 16/16/16 17/17/17 15/15/15
f 13/13/13 15/15/15 18/18/18
f 19/19/19 13/13/13 18/18/18
f 9/9/9 13/13/13 19/19/19
f 15/15/15 20/20/20 18/18/18
f 20/20/20 21/21/21 18/18/18
f 17/17/17 22/22/22 15/15/15
f 22/22/22 20/20/20 15/15/15
f 22/22/22 17/17/17 23/23/23
f 9/9/9 19/19/19 24/24/24
f 9/9/9 24/24/24 25/25/25
f 19/19/19 26/26/26 24/24/24
f 27/27/27 26/26/26 19/19/19
f 19/19/19 18/18/18 27/27/27
f 18/18/18 28/28/28 27/27/27
f 29/29/29 28/28/28 18/18/18
f 18/18/18 30/30/30 29/29/29
f 31/31/31 29/29/29 30/30/30
f 18/18/18 32/32/32 30/30/30
f 32/32/32 18/18/18 21/21/21
f 33/33/33 32/32/32 21/21/21
f 33/33/33 21/21/21 34/34/34
f 21/21/21 35/35/35 34/34/34
f 36/36/36 35/35/35 21/21/21
f 37/37/37 36/36/36 21/21/21
f 37/37/37 21/21/21 20/20/20
f 38/38/38 37/37/37 20/20/20
f 20/20/20 39/39/39 38/38/38
f 20/20/20 22/22/22 39/39/39
f 22/22/22 40/40/40 39/39/39
f 40/40/40 22/22/22 41/41/41
f 22/22/22 23/23/23 41/41/41
f 23/23/23 42/42/42 41/41/41
