g terrainMesh.053
v 1.2672755 0 -12.908773
v 2.5493135 0 -13.674866
v 0.66292375 0.45385736 -13.033725
v 2.8435133 1.018463 -14.519569
v 0.6311378 2.8567502 -13.818006
v 2.9639413 0.31521603 -14.334592
v 3.4235818 0 -14.500823
v 2.7287033 0 -13.789796
v 3.5829554 0 -14.598704
v 4.675731 1.297943 -15.149214
v 3.8752515 0 -14.692256
v 4.1733646 0 -14.725328
v 3.3813033 2.748535 -14.920585
v 4.2335258 2.0970914 -15.14464
v 4.7034125 3.711059 -15.36444
v -1.9528177 6.895171 -12.646136
v 4.9999995 2.5184877 -15.406168
v 4.9999995 2.3234072 -15.378783
v 4.9999995 1.3829478 -15.175909
v 4.9999995 0.43582264 -14.940652
v 4.9999995 0.41618475 -14.935082
v 4.9999995 0.40696514 -14.928861
v 4.795292 0 -14.67184
v 4.9999995 -2.9802319E-08 -14.690895
v 4.9999995 2.7911391 -15.418129
v 4.9999995 3.8266323 -15.408183
v 4.9999995 4.0469594 -15.408284
v 4.8033805 6.189803 -15.161063
v 3.4851565 7.3197927 -14.472464
v 4.9999995 6.0346994 -15.22497
v 4.9999995 6.3310146 -15.171971
v 4.9999995 7.5361123 -14.814827
v 4.9999995 8.573718 -14.537731
v 4.9999995 9.818505 -14.220211
v 1.3213195 7.575637 -13.6215
v 4.040075 9.836684 -13.971532
v 3.9951727 9.999999 -13.917154
v 4.9999995 9.999999 -14.172459
v 3.7262921 9.999999 -13.860806
v 1.057979 9.999999 -13.149436
v -1.1744257 9.999999 -12.415305
v -1.8349979 9.999999 -12.196937
v -3.4154105 9.500701 -11.494562
v -2.6992164 9.999999 -11.768215
v -3.6947725 9.999999 -11.011356
v -4.9999995 9.999999 -9.569034
v -4.9999995 9.377745 -9.786506
v -3.9962697 7.8299246 -11.460119
v -4.9999995 8.49345 -10.108345
v -4.9999995 7.0345273 -10.815227
v -3.791925 6.036376 -11.847479
v -4.9999995 6.3101115 -10.910089
v -4.994594 4.980224 -11.124216
v -4.9999995 4.9914756 -11.118438
v -4.9999995 4.978783 -11.11894
v -4.744142 3.3044734 -11.075773
v -4.9999995 3.4832673 -10.867572
v -4.9999995 3.2612338 -10.797545
v -3.0043464 3.9454951 -11.997946
v -4.4479027 1.19209275E-07 -9.56381
v -4.9999995 0 -9.014456
v -3.6234145 0 -10.218767
v -2.882015 1.5401304 -11.6220875
v -1.5515172 2.1690671 -12.674737
v -0.83348787 0 -11.493119
v -2.2223356 0 -10.499407
v -3.6234145 0 -10.218767
v 0.66292375 0.45385736 -13.033725
v -0.83348787 0 -11.493119
v 0.41923755 0 -12.163079
v 0.90879923 0 -12.59356
v 1.2672755 0 -12.908773
v 2.9639413 0.31521603 -14.334592
v 0.66292375 0.45385736 -13.033725
v 2.5493135 0 -13.674866
v 2.7287033 0 -13.789796
vt 0.38469326 0.6148771
vt 0.38330367 0.6207264
vt 0.38693723 0.61361563
vt 0.38671553 0.6244909
vt 0.39607713 0.6174689
vt 0.38392872 0.6238218
vt 0.38223726 0.62538767
vt 0.38310623 0.621562
vt 0.38206345 0.6261206
vt 0.38600743 0.63207793
vt 0.38177842 0.6272746
vt 0.38151208 0.62831336
vt 0.39288378 0.6287186
vt 0.38951793 0.6313735
vt 0.3953597 0.6348727
vt 0.41456375 0.61023325
vt 0.3904161 0.63482445
vt 0.38966206 0.6345836
vt 0.38605464 0.6332658
vt 0.38243377 0.6318701
vt 0.38235894 0.63183963
vt 0.38232526 0.63181734
vt 0.38100445 0.6302092
vt 0.38082302 0.63091433
vt 0.39148027 0.63510275
vt 0.39554358 0.6360369
vt 0.39640728 0.63624054
vt 0.40507168 0.63703483
vt 0.41089153 0.63228345
vt 0.4042715 0.63767
vt 0.4054539 0.6378262
vt 0.41031802 0.63814783
vt 0.41449422 0.6384921
vt 0.41949844 0.6389382
vt 0.41406676 0.6236264
vt 0.42048293 0.63529515
vt 0.42118263 0.63518006
vt 0.42022866 0.639
vt 0.4214332 0.6341844
vt 0.42397952 0.62396646
vt 0.42616433 0.6151099
vt 0.42681125 0.6124868
vt 0.4264721 0.6053512
vt 0.42771363 0.60873806
vt 0.42885607 0.6038371
vt 0.4305302 0.5964147
vt 0.42800564 0.5963218
vt 0.42042938 0.6018508
vt 0.42441294 0.59621817
vt 0.4184168 0.5964369
vt 0.41307282 0.60171455
vt 0.41553974 0.5959781
vt 0.4102378 0.5952419
vt 0.41028875 0.595222
vt 0.4102388 0.5952113
vt 0.4034745 0.5943983
vt 0.4044744 0.5932735
vt 0.40363142 0.5929134
vt 0.40414774 0.60266787
vt 0.39086038 0.5889571
vt 0.39154467 0.585952
vt 0.38990316 0.59307826
vt 0.3947613 0.60001034
vt 0.3956839 0.60723215
vt 0.38703302 0.6049372
vt 0.3886025 0.5982377
vt 0.38990316 0.59307826
vt 0.9542024 0.13499606
vt 0.94980377 0.12753828
vt 0.95108736 0.13311914
vt 0.952245 0.1354782
vt 0.9530927 0.1372056
vt 0.7565797 0.8277589
vt 0.7565797 0.8171055
vt 0.7551001 0.8249904
vt 0.75514704 0.8258479
vn -0.40132695 -0.6977595 -0.5933535
vn -0.37221876 -0.72044903 -0.585155
vn -0.43542534 -0.5486231 -0.71373487
vn -0.4071019 -0.20194867 -0.89077765
vn -0.40666676 -0.10373437 -0.90766805
vn -0.51750904 -0.43953326 -0.73416275
vn -0.52578664 -0.36034143 -0.7705209
vn -0.41860467 -0.6959653 -0.5834401
vn -0.36717373 -0.1959318 -0.90928227
vn -0.15656468 -0.19962762 -0.9672829
vn -0.24094933 -0.18668611 -0.9524137
vn -0.076236404 -0.3238369 -0.94303644
vn -0.3474909 -0.020630937 -0.93745637
vn -0.2927674 -0.10730431 -0.95014364
vn -0.26408285 0.034334127 -0.96388865
vn -0.38441736 0.09735562 -0.91801155
vn -0.28581133 -0.07312376 -0.95549184
vn -0.23176326 -0.14212818 -0.96233326
vn -0.0216683 -0.2233666 -0.9744937
vn -0.09616668 -0.26808253 -0.95858425
vn -0.046786092 -0.37389198 -0.9262914
vn 0.051759973 -0.5517503 -0.8324017
vn 0.015534383 -0.5394917 -0.8418476
vn -0.08008224 -0.50313866 -0.86048734
vn -0.2870008 -0.036653332 -0.95722884
vn -0.14716499 0.0033571443 -0.98910624
vn -0.22113965 0.06827068 -0.9728496
vn -0.2888356 0.1620275 -0.9435683
vn -0.31569263 0.19468324 -0.9286747
vn -0.22535324 0.11301233 -0.9677004
vn -0.22749028 0.24390961 -0.9427387
vn -0.24818268 0.26200792 -0.93260777
vn -0.24155724 0.24290007 -0.9394944
vn -0.23890455 0.24336037 -0.9400534
vn -0.30857465 0.1608336 -0.93750423
vn -0.24714231 0.23133354 -0.9409598
vn -0.21421637 0.25505143 -0.9428999
vn -0.23859732 0.2470816 -0.9391603
vn -0.2461051 0.17362252 -0.9535657
vn -0.2844414 0.1533603 -0.94634753
vn -0.3100698 0.1480156 -0.9391209
vn -0.3767874 0.1466132 -0.9146234
vn -0.5767536 0.24607706 -0.7789745
vn -0.46657556 0.19663438 -0.8623469
vn -0.6836751 0.2726033 -0.67696077
vn -0.7218787 0.22831671 -0.6532707
vn -0.72135055 0.23215915 -0.6524994
vn -0.5842856 0.18674555 -0.7897698
vn -0.70954657 0.260514 -0.65473366
vn -0.6317804 0.18741915 -0.7521487
vn -0.49349046 0.03552399 -0.86902547
vn -0.5929203 0.11334702 -0.797244
vn -0.5892355 -0.026093975 -0.8075398
vn -0.61182374 0.10843567 -0.7835263
vn -0.6893648 -0.057711564 -0.72211176
vn -0.57303226 -0.22187604 -0.78892654
vn -0.6875093 -0.15867008 -0.7086287
vn -0.6764019 -0.30665916 -0.6696571
vn -0.46453702 -0.117377914 -0.8777402
vn -0.62268686 -0.37102404 -0.6889139
vn -0.65768576 -0.36137617 -0.66095126
vn -0.44976118 -0.47350508 -0.757303
vn -0.48043606 -0.40413767 -0.77836627
vn -0.466337 -0.22099125 -0.85655856
vn -0.42662352 -0.66695964 -0.610866
vn -0.31129232 -0.6432459 -0.6995226
vn -0.44976118 -0.47350508 -0.757303
vn -0.43542534 -0.5486231 -0.71373487
vn -0.42662352 -0.66695964 -0.610866
vn -0.31386134 -0.8030872 -0.50649977
vn -0.44728723 -0.73566175 -0.50866103
vn -0.40132695 -0.6977595 -0.5933535
vn -0.51750904 -0.43953326 -0.73416275
vn -0.43542534 -0.5486231 -0.71373487
vn -0.37221876 -0.72044903 -0.585155
vn -0.41860467 -0.6959653 -0.5834401
g terrainMesh.053_0
f 3/3/3 2/2/2 1/1/1
f 5/5/5 4/4/4 3/3/3
f 3/3/3 4/4/4 6/6/6
f 7/7/7 6/6/6 4/4/4
f 7/7/7 8/8/8 6/6/6
f 9/9/9 7/7/7 4/4/4
f 9/9/9 4/4/4 10/10/10
f 11/11/11 9/9/9 10/10/10
f 12/12/12 11/11/11 10/10/10
f 4/4/4 5/5/5 13/13/13
f 14/14/14 4/4/4 13/13/13
f 14/14/14 10/10/10 4/4/4
f 13/13/13 5/5/5 15/15/15
f 14/14/14 13/13/13 15/15/15
f 5/5/5 16/16/16 15/15/15
f 17/17/17 14/14/14 15/15/15
f 17/17/17 18/18/18 14/14/14
f 18/18/18 10/10/10 14/14/14
f 18/18/18 19/19/19 10/10/10
f 10/10/10 19/19/19 20/20/20
f 12/12/12 10/10/10 20/20/20
f 20/20/20 21/21/21 12/12/12
f 12/12/12 21/21/21 22/22/22
f 23/23/23 12/12/12 22/22/22
f 22/22/22 24/24/24 23/23/23
f 25/25/25 17/17/17 15/15/15
f 26/26/26 25/25/25 15/15/15
f 27/27/27 26/26/26 15/15/15
f 27/27/27 15/15/15 28/28/28
f 28/28/28 15/15/15 29/29/29
f 30/30/30 27/27/27 28/28/28
f 28/28/28 31/31/31 30/30/30
f 28/28/28 29/29/29 31/31/31
f 29/29/29 32/32/32 31/31/31
f 29/29/29 33/33/33 32/32/32
f 34/34/34 33/33/33 29/29/29
f 29/29/29 15/15/15 35/35/35
f 16/16/16 35/35/35 15/15/15
f 36/36/36 34/34/34 29/29/29
f 35/35/35 36/36/36 29/29/29
f 34/34/34 36/36/36 37/37/37
f 38/38/38 34/34/34 37/37/37
f 39/39/39 37/37/37 36/36/36
f 36/36/36 35/35/35 39/39/39
f 35/35/35 40/40/40 39/39/39
f 40/40/40 35/35/35 41/41/41
f 35/35/35 16/16/16 41/41/41
f 16/16/16 42/42/42 41/41/41
f 16/16/16 43/43/43 42/42/42
f 43/43/43 44/44/44 42/42/42
f 45/45/45 44/44/44 43/43/43
f 45/45/45 43/43/43 46/46/46
f 43/43/43 47/47/47 46/46/46
f 43/43/43 48/48/48 47/47/47
f 43/43/43 16/16/16 48/48/48
f 48/48/48 49/49/49 47/47/47
f 50/50/50 49/49/49 48/48/48
f 48/48/48 16/16/16 51/51/51
f 48/48/48 51/51/51 50/50/50
f 51/51/51 52/52/52 50/50/50
f 16/16/16 5/5/5 51/51/51
f 51/51/51 53/53/53 52/52/52
f 53/53/53 54/54/54 52/52/52
f 54/54/54 53/53/53 55/55/55
f 53/53/53 56/56/56 55/55/55
f 56/56/56 57/57/57 55/55/55
f 56/56/56 58/58/58 57/57/57
f 51/51/51 59/59/59 53/53/53
f 5/5/5 59/59/59 51/51/51
f 56/56/56 53/53/53 59/59/59
f 58/58/58 56/56/56 60/60/60
f 61/61/61 58/58/58 60/60/60
f 62/62/62 60/60/60 56/56/56
f 63/63/63 62/62/62 56/56/56
f 63/63/63 56/56/56 59/59/59
f 64/64/64 59/59/59 5/5/5
f 59/59/59 64/64/64 63/63/63
f 3/3/3 64/64/64 5/5/5
f 3/3/3 63/63/63 64/64/64
f 3/3/3 65/65/65 63/63/63
f 65/65/65 66/66/66 63/63/63
f 66/66/66 67/67/67 63/63/63
f 70/70/70 69/69/69 68/68/68
f 71/71/71 70/70/70 68/68/68
f 72/72/72 71/71/71 68/68/68
f 75/75/75 74/74/74 73/73/73
f 76/76/76 75/75/75 73/73/73
