g terrainMesh
v -16.5689 19.999998 -8.087383
v -14.999998 17.512335 -8.067193
v -14.999998 19.999998 -8.063292
v -15.415021 9.999999 -7.9925036
v -14.999998 9.999999 -7.9936085
v -16.78371 19.999998 -8.086811
v -17.013382 19.999998 -8.082278
v -20.924358 9.999999 -7.883774
v -24.314524 9.999999 -7.9348087
v -17.15471 19.999998 -8.084406
v -18.325607 19.999998 -8.081568
v -24.999996 18.04133 -8.039485
v -24.999996 9.999999 -7.933147
v -24.999996 19.550274 -7.9836893
v -23.97802 19.999998 -7.9845934
v -24.999996 19.999998 -7.985539
vt 0.48014536 0.56489754
vt 0.46906757 0.56763697
vt 0.47882143 0.56992555
vt 0.43999922 0.5591904
vt 0.43964607 0.560537
vt 0.48032817 0.5642006
vt 0.48052517 0.56344664
vt 0.4447242 0.54110605
vt 0.44758555 0.5302391
vt 0.48064443 0.56299365
vt 0.4816407 0.5591951
vt 0.47965127 0.53567636
vt 0.44816878 0.5280154
vt 0.48558855 0.5369462
vt 0.48648268 0.54067343
vt 0.48735088 0.53736556
vn 0.0031129094 -0.006134263 -0.9999764
vn 0.00054933334 -0.007751704 -0.99996984
vn 0.015350856 0.0015564488 -0.9998809
vn -0.010437423 -0.010834168 -0.9998869
vn -0.0026551366 -0.00976602 -0.99994886
vn -0.011932981 -0.011047926 -0.9998678
vn -0.006439487 -0.017304214 -0.99982953
vn 0.0017700755 -0.020538978 -0.9997875
vn 0.0028382328 -0.016998878 -0.99985147
vn 0.009766085 -0.021943174 -0.99971145
vn -0.0037538393 -0.0086368825 -0.99995565
vn -0.008423356 0.0072941384 -0.9999379
vn -0.0024109653 -0.013214531 -0.99990976
vn -0.010467976 0.021821002 -0.99970704
vn -0.014740508 0.031525765 -0.9993943
vn 0.00091557525 -0.0040895697 -0.9999913
g terrainMesh_0
f 3/3/3 2/2/2 1/1/1
f 4/4/4 1/1/1 2/2/2
f 2/2/2 5/5/5 4/4/4
f 4/4/4 6/6/6 1/1/1
f 7/7/7 6/6/6 4/4/4
f 8/8/8 7/7/7 4/4/4
f 8/8/8 9/9/9 7/7/7
f 9/9/9 10/10/10 7/7/7
f 11/11/11 10/10/10 9/9/9
f 9/9/9 12/12/12 11/11/11
f 9/9/9 13/13/13 12/12/12
f 12/12/12 14/14/14 11/11/11
f 14/14/14 15/15/15 11/11/11
f 16/16/16 15/15/15 14/14/14
