g terrainMesh.036
v -24.314524 9.999999 -7.9348087
v -24.999996 9.999999 -7.933147
v -24.999996 9.042611 -7.9204865
v -24.999996 6.6896143 -7.859925
v -22.903471 4.93959 -7.7833223
v -20.924358 9.999999 -7.883774
v -24.999996 4.1340437 -7.261577
v -22.987953 0.18331908 -5.9637275
v -15.415021 9.999999 -7.9925036
v -24.999996 1.8174711 -6.379552
v -14.999998 6.967737 -7.9639072
v -14.999998 9.999999 -7.9936085
v -14.999998 4.406755 -7.9328375
v -14.999998 0.48543864 -7.491634
v -14.999998 0.33090997 -7.4330015
v -14.999998 0 -7.2986336
v -22.536465 0 -5.9689474
v -22.870426 0 -5.9028172
v -23.107307 0 -5.8175335
v -24.999996 0 -5.2715178
vt 0.44758555 0.5302391
vt 0.44816878 0.5280154
vt 0.44442052 0.52710325
vt 0.43521988 0.5247963
vt 0.42660746 0.5298008
vt 0.4447242 0.54110605
vt 0.42543563 0.52111095
vt 0.40874588 0.5211043
vt 0.43999922 0.5591904
vt 0.4166994 0.5170179
vt 0.42777044 0.5576712
vt 0.43964607 0.560537
vt 0.41774285 0.5552375
vt 0.402543 0.5506391
vt 0.4019602 0.5503665
vt 0.40071553 0.5497633
vt 0.40764147 0.52240884
vt 0.40795118 0.5211807
vt 0.4081859 0.5202246
vt 0.4100083 0.5128851
vn 0.009766085 -0.021943174 -0.99971145
vn -0.0024109653 -0.013214531 -0.99990976
vn 0.011566856 -0.02322527 -0.99966335
vn -0.032472584 -0.0825243 -0.99605983
vn -0.07611517 -0.1822003 -0.9803109
vn -0.006439487 -0.017304214 -0.99982953
vn -0.1169488 -0.30726525 -0.9444104
vn -0.20020568 -0.42400268 -0.88325495
vn -0.011932981 -0.011047926 -0.9998678
vn -0.13739635 -0.39976785 -0.9062605
vn -0.018982934 -0.01202456 -0.99974746
vn -0.0026551366 -0.00976602 -0.99994886
vn -0.023194587 -0.06412083 -0.9976725
vn -0.117834106 -0.27165017 -0.95515513
vn -0.16230108 -0.360096 -0.9186889
vn -0.16132545 -0.37129882 -0.9143913
vn -0.16345938 -0.37666464 -0.91181403
vn -0.22193807 -0.43261445 -0.8738354
vn -0.2568767 -0.49480125 -0.8301723
vn -0.23915078 -0.5054334 -0.8290621
g terrainMesh.036_0
f 3/3/3 2/2/2 1/1/1
f 4/4/4 3/3/3 1/1/1
f 5/5/5 4/4/4 1/1/1
f 1/1/1 6/6/6 5/5/5
f 5/5/5 7/7/7 4/4/4
f 7/7/7 5/5/5 8/8/8
f 5/5/5 6/6/6 9/9/9
f 10/10/10 7/7/7 8/8/8
f 5/5/5 9/9/9 11/11/11
f 12/12/12 11/11/11 9/9/9
f 11/11/11 13/13/13 5/5/5
f 5/5/5 13/13/13 14/14/14
f 14/14/14 15/15/15 5/5/5
f 15/15/15 8/8/8 5/5/5
f 15/15/15 16/16/16 8/8/8
f 16/16/16 17/17/17 8/8/8
f 18/18/18 8/8/8 17/17/17
f 8/8/8 18/18/18 19/19/19
f 8/8/8 19/19/19 10/10/10
f 19/19/19 20/20/20 10/10/10
