g Q4_Ruins_006
v -0.7208325 0.15708905 -0.1110535
v -0.7367804 0.18068607 0.99999994
v -0.90254295 0.13458395 1
v -0.7208325 0.15708905 -0.1110535
v -0.7738337 0.1446144 -1
v -0.66177154 0.1739496 -1
v 0.4881039 0.51772505 1
v 0.43720347 0.52537847 0.9999999
v 0.503264 0.5172738 0.64307845
v 0.52979916 0.91562444 -0.99999994
v 0.5890907 1 -1
v 0.59381235 1 -0.96938205
v 0.6511318 0.9030303 -0.1558429
v 0.651933 1 -0.33856162
v 0.66296846 1 0.17916423
v 0.503264 0.5172738 0.64307845
v 0.40914384 0.77840054 -1
v 0.33048508 0.59371066 -0.57500863
v 0.33734828 0.6624678 -0.99999994
v 0.6249118 0.9611253 0.9999998
v 0.634341 1 1
v 0.503264 0.5172738 0.64307845
v 0.5231782 0.6271647 1
v 0.4881039 0.51772505 1
v 0.33048508 0.59371066 -0.57500863
v 0.16035992 0.7774726 -0.9999998
v 0.33734828 0.6624678 -0.99999994
v 0.14316627 0.7701609 -0.8927088
v 0.15080428 0.8389024 -1
v 0.10816546 1 -0.7036072
v 0.14091857 1 -1
v 0.06784498 1 0.056167394
v 0.11260171 0.61786675 1
v 0.03772196 1 1
v 0.15643862 0.58349705 1
v 0.3050501 0.55992323 0.99999994
v -0.7208325 0.15708905 -0.1110535
v -0.63382626 0.19863252 0.9999999
v -0.7367804 0.18068607 0.99999994
v -0.54006815 0.19304442 0.07619655
v -0.5533277 0.26663607 1
v -0.47184592 0.69095474 1
v -0.41329557 0.8734928 0.20751739
v -0.42702487 1 0.75115144
v -0.4393909 1 1
v -0.38445854 1 -0.32045648
v -0.3917978 1 -1
v -0.4039545 0.95547414 -1
v -0.46856612 0.60692203 -0.9999999
v -0.54006815 0.19304442 0.07619655
v -0.556519 0.19547184 -0.99999994
v -0.917226 0.132328 1
v -0.8377804 0.13478938 -1
v -0.7738337 0.1446144 -1
v -0.7208325 0.15708905 -0.1110535
v -0.90254295 0.13458395 1
v -0.54006815 0.19304442 0.07619655
v -0.7208325 0.15708905 -0.1110535
v -0.66177154 0.1739496 -1
v -0.556519 0.19547184 -0.99999994
v -1 0.40884233 1
v -1 -1 1
v -1 -1 -1
v -1 0.59572244 -0.6380184
v -1 0.73640704 -1
v -1 0.5508587 -0.19069755
v -1 0.5900522 -0.4954711
v -1 -1 -1
v 1 -1 -1
v 1 1 -1
v 0.33734828 0.6624678 -0.99999994
v 0.16035992 0.7774726 -0.9999998
v 0.15080428 0.8389024 -1
v 0.14091857 1 -1
v 0.52979916 0.91562444 -0.99999994
v 0.5890907 1 -1
v 0.40914384 0.77840054 -1
v -0.556519 0.19547184 -0.99999994
v -0.46856612 0.60692203 -0.9999999
v -0.3917978 1 -1
v -0.4039545 0.95547414 -1
v -0.66177154 0.1739496 -1
v -0.7738337 0.1446144 -1
v -0.8377804 0.13478938 -1
v -0.917485 0.39035583 -1
v -0.97847736 0.5527993 -1.0000001
v -1 0.73640704 -1
v 1 -1 -1
v 1 -1 1
v 1 1 1
v 1 1 -1
v 0.634341 1 1
v 1 1 1
v 1 -1 1
v 0.6249118 0.9611253 0.9999998
v 0.5231782 0.6271647 1
v 0.4881039 0.51772505 1
v -1 -1 1
v 0.43720347 0.52537847 0.9999999
v 0.3050501 0.55992323 0.99999994
v 0.15643862 0.58349705 1
v 0.11260171 0.61786675 1
v 0.03772196 1 1
v -0.5533277 0.26663607 1
v -0.47184592 0.69095474 1
v -0.4393909 1 1
v -0.63382626 0.19863252 0.9999999
v -0.7367804 0.18068607 0.99999994
v -0.90254295 0.13458395 1
v -0.917226 0.132328 1
v -0.92900634 0.17010085 1.0000001
v -1 0.40884233 1
v -1 -1 -1
v -1 -1 1
v 1 -1 1
v 1 -1 -1
v 0.59381235 1 -0.96938205
v 0.5890907 1 -1
v 1 1 -1
v 1 1 1
v 0.651933 1 -0.33856162
v 0.66296846 1 0.17916423
v 0.634341 1 1
v -1 0.59572244 -0.6380184
v -1 0.73640704 -1
v -0.97847736 0.5527993 -1.0000001
v -1 0.5900522 -0.4954711
v -0.917485 0.39035583 -1
v -1 0.5508587 -0.19069755
v -0.92900634 0.17010085 1.0000001
v -1 0.40884233 1
v -0.8377804 0.13478938 -1
v -0.917226 0.132328 1
v 0.43720347 0.52537847 0.9999999
v 0.3050501 0.55992323 0.99999994
v 0.33048508 0.59371066 -0.57500863
v 0.503264 0.5172738 0.64307845
v -0.38445854 1 -0.32045648
v -0.3917978 1 -1
v 0.14091857 1 -1
v 0.10816546 1 -0.7036072
v 0.06784498 1 0.056167394
v -0.42702487 1 0.75115144
v 0.03772196 1 1
v -0.4393909 1 1
vt 0.090909 0
vt 0.06888023 0.038155425
vt 0.13198012 0.07113817
vt 0.454545 0
vt 0.42818075 0.04566482
vt 0.47310713 0.032150988
vt 0.23889227 0.0787305
vt 0.24151388 0.05406341
vt 0.22727251 0.0787305
vt 0.10468088 0.13360709
vt 0.13141705 0.15647206
vt 0.13435957 0.157461
vt 0.181818 0.157461
vt 0.17572017 0.16802278
vt 0.19545548 0.18108195
vt 0.13636349 0.0787305
vt 0.062411673 0.10810156
vt 0.0454545 0.0787305
vt 0.033769384 0.098969966
vt 0.22466865 0.157461
vt 0.22525942 0.16892035
vt 0.22727251 0.0787305
vt 0.2370858 0.095727846
vt 0.23889227 0.0787305
vt 0.8636355 0.0787305
vt 0.8254844 0.157461
vt 0.87532055 0.098969966
vt 0.818181 0.157461
vt 0.8218325 0.16378565
vt 0.80597204 0.17860761
vt 0.8191828 0.17860761
vt 0.7777681 0.157461
vt 0.7816849 0.09424712
vt 0.7540831 0.13379866
vt 0.79343414 0.0787305
vt 0.8332652 0.026127007
vt 0.818181 0
vt 0.81261694 0.0787305
vt 0.8402097 0.038155425
vt 0.7727265 0.0787305
vt 0.79104257 0.11045524
vt 0.76060617 0.157461
vt 0.727272 0.157461
vt 0.7449057 0.18800366
vt 0.7541814 0.19495834
vt 0.7096383 0.18800367
vt 0.68126523 0.17246114
vt 0.6797127 0.157461
vt 0.65934545 0.11765375
vt 0.68181753 0.0787305
vt 0.64043313 0.0787305
vt 0.23117508 0.0787305
vt 0.29699725 0.0787305
vt 0.29909128 0.04566482
vt 0.272727 0
vt 0.23165588 0.07113817
vt 0.68181753 0.0787305
vt 0.636363 0
vt 0.6178009 0.032150988
vt 0.64043313 0.0787305
vt 0.29275483 0.7557726
vt 0.29697025 0.7557726
vt 0.29697025 0.7499616
vt 0.29219568 0.75101334
vt 0.29177472 0.7499616
vt 0.2923299 0.752313
vt 0.29221264 0.75142753
vt 0.8670427 0.88694394
vt 0.8730269 0.88694394
vt 0.8730269 0.88113296
vt 0.8710442 0.88211364
vt 0.87051463 0.8817795
vt 0.870486 0.88160104
vt 0.87045646 0.88113296
vt 0.87162006 0.8813781
vt 0.87179744 0.88113296
vt 0.87125903 0.8817768
vt 0.86836964 0.8834705
vt 0.8686328 0.88227504
vt 0.8688625 0.88113296
vt 0.86882615 0.8812623
vt 0.86805475 0.883533
vt 0.8677194 0.88361824
vt 0.8675281 0.8836468
vt 0.8672896 0.88290423
vt 0.8671071 0.8824323
vt 0.8670427 0.8818988
vt 0.75932664 0.875322
vt 0.75932664 0.86951095
vt 0.7533424 0.86951095
vt 0.7533424 0.875322
vt 0.9380696 0.33482182
vt 0.9369755 0.33482182
vt 0.9369755 0.34063283
vt 0.93809783 0.33493477
vt 0.93840224 0.3359051
vt 0.93850714 0.33622307
vt 0.9429597 0.34063283
vt 0.9386594 0.33620083
vt 0.93905485 0.33610046
vt 0.93949956 0.33603197
vt 0.9396307 0.3359321
vt 0.93985474 0.33482182
vt 0.9416232 0.3369526
vt 0.9413794 0.33571976
vt 0.94128233 0.33482182
vt 0.9418641 0.3371502
vt 0.94217217 0.33720234
vt 0.94266814 0.3373363
vt 0.94271207 0.33734283
vt 0.9427473 0.3372331
vt 0.9429597 0.33653942
vt 0.544636 0.93721396
vt 0.544636 0.931403
vt 0.53865176 0.931403
vt 0.53865176 0.93721396
vt 0.5482505 0.82378685
vt 0.5482646 0.82369787
vt 0.54703516 0.82369787
vt 0.54703516 0.82950884
vt 0.5480766 0.8256197
vt 0.5480436 0.82712394
vt 0.54812926 0.82950884
vt 0.28156236 0.157461
vt 0.29232597 0.18397507
vt 0.29584205 0.157461
vt 0.2757369 0.1522476
vt 0.29438725 0.119943865
vt 0.2661029 0.14598761
vt 0.2307893 0.08482185
vt 0.22345607 0.13020626
vt 0.29699725 0.0787305
vt 0.23117508 0.0787305
vt 0.122122124 0.05406341
vt 0.07582475 0.026127007
vt 0.0454545 0.0787305
vt 0.13636349 0.0787305
vt 0.31735483 0.6808175
vt 0.31742516 0.67884415
vt 0.31583166 0.6788073
vt 0.31590852 0.6796705
vt 0.31597507 0.6818802
vt 0.31740588 0.6839331
vt 0.315998 0.6846238
vt 0.31742516 0.6846568
vn -0.17752647 0.984109 -0.0037102043
vn -0.20937063 0.9775475 -0.023766832
vn -0.25689486 0.9661787 -0.022444038
vn -0.17752647 0.984109 -0.0037102043
vn -0.19350235 0.9810972 -0.002230741
vn -0.21334618 0.976967 0.004355451
vn 0.14868717 0.9888713 0.0050651743
vn 0.24886137 0.9682398 0.024074275
vn 0.25256044 0.9672637 0.024781067
vn -0.7585545 0.6359637 0.1419337
vn -0.20121159 0.9790562 0.031029144
vn -0.10626286 0.9942087 0.01603879
vn -0.8811081 0.46608806 0.08006618
vn -0.98349077 0.16159336 0.08144584
vn -0.97296304 0.22875622 -0.031837493
vn -0.9411148 0.3378157 -0.0135500245
vn -0.7494044 0.64663815 0.1423095
vn -0.74420404 0.6518995 0.14555849
vn -0.84801245 0.5251625 0.07126866
vn -0.95886946 0.2815675 -0.035903905
vn -0.9712635 0.23558374 -0.033873793
vn -0.9411148 0.3378157 -0.0135500245
vn -0.9557858 0.29178846 -0.03650996
vn -0.9514957 0.30494493 -0.040799994
vn 0.59317034 0.8016482 0.074223444
vn 0.5705901 0.8080611 0.14650634
vn 0.53926545 0.82991016 0.14297545
vn 0.83964646 0.53579646 0.088972
vn 0.9916658 0.06417777 0.11171483
vn 0.9930282 0.100384764 0.06178929
vn 0.99210596 0.06088029 0.10963347
vn 0.98108864 0.19095795 0.031624056
vn 0.8940101 0.4452188 0.050260916
vn 0.98085624 0.1922006 0.031304605
vn 0.5019173 0.8627576 0.06105921
vn 0.21468093 0.9763791 0.02441241
vn -0.17752647 0.984109 -0.0037102043
vn -0.28421468 0.95813465 -0.034641124
vn -0.20937063 0.9775475 -0.023766832
vn -0.9094786 0.41558534 -0.011726531
vn -0.96979654 0.24164937 -0.033169884
vn -0.9842249 0.17387976 -0.032665744
vn -0.985126 0.17121415 -0.0145788565
vn -0.99349916 0.102753215 -0.049001887
vn -0.99331856 0.10431547 -0.04936088
vn -0.96835685 0.24947473 0.006886221
vn -0.9646389 0.26336914 0.010418504
vn -0.9814636 0.19157213 0.0054139327
vn -0.98229194 0.18723555 0.0067429594
vn -0.9094786 0.41558534 -0.011726531
vn -0.9777908 0.20901555 0.0154180275
vn -0.15185954 0.9883903 -0.0048158336
vn -0.15186009 0.9883903 -0.004815909
vn -0.19350235 0.9810972 -0.002230741
vn -0.17752647 0.984109 -0.0037102043
vn -0.25689486 0.9661787 -0.022444038
vn -0.9094786 0.41558534 -0.011726531
vn -0.17752647 0.984109 -0.0037102043
vn -0.21334618 0.976967 0.004355451
vn -0.20033352 0.9797135 0.0052720974
vn -1 0 0
vn -1 0 0
vn -1 0 0
vn -1 0 0
vn -1 0 0
vn -1 0 0
vn -1 0 0
vn -0 0 -1
vn -0 0 -1
vn -0 0 -1
vn -0 0 -1
vn -0 0 -1
vn -0 0 -1
vn -0 0 -1
vn -0 0 -1
vn -0 0 -1
vn -0 0 -1
vn -0 0 -1
vn -0 0 -1
vn -0 0 -1
vn -0 0 -1
vn -0 0 -1
vn -0 0 -1
vn -0 0 -1
vn -0 0 -1
vn -0 0 -1
vn -0 0 -1
vn 1 0 0
vn 1 0 0
vn 1 0 0
vn 1 0 0
vn -0 0 1
vn -0 0 1
vn -0 0 1
vn -0 0 1
vn -0 0 1
vn -0 0 1
vn -0 0 1
vn -0 0 1
vn -0 0 1
vn -0 0 1
vn -0 0 1
vn -0 0 1
vn -0 0 1
vn -0 0 1
vn -0 0 1
vn -0 0 1
vn -0 0 1
vn -0 0 1
vn -0 0 1
vn -0 0 1
vn -0 0 1
vn -0 -1 0
vn -0 -1 0
vn -0 -1 0
vn -0 -1 0
vn -0.10626286 0.9942087 0.01603879
vn -0.20121159 0.9790562 0.031029144
vn -0 1 0
vn -0 1 0
vn -0 1 0
vn -0 1 0
vn -0 1 0
vn 0.94448566 0.32809928 0.017251596
vn 0.99218446 0.116304584 0.045201927
vn 0.96364933 0.26592517 0.025763525
vn 0.95131737 0.30629244 0.034353763
vn 0.952266 0.30316952 0.0357451
vn 0.9541174 0.29700062 0.03808609
vn 0.95618975 0.29053843 0.035896152
vn 0.95796484 0.28486648 0.033976465
vn 0.9539509 0.29751268 0.038259722
vn 0.9539513 0.2975114 0.038259756
vn 0.24886137 0.9682398 0.024074275
vn 0.21468093 0.9763791 0.02441241
vn 0.59317034 0.8016482 0.074223444
vn 0.25256044 0.9672637 0.024781067
vn -0 1 0
vn -0 1 0
vn -0 1 0
vn -0 1 0
vn -0 1 0
vn -0 1 0
vn -0 1 0
vn -0 1 0
g Q4_Ruins_006_0
f 3/3/3 2/2/2 1/1/1
f 6/6/6 5/5/5 4/4/4
f 9/9/9 8/8/8 7/7/7
f 12/12/12 11/11/11 10/10/10
f 13/13/13 12/12/12 10/10/10
f 14/14/14 12/12/12 13/13/13
f 15/15/15 14/14/14 13/13/13
f 10/10/10 16/16/16 13/13/13
f 10/10/10 17/17/17 16/16/16
f 17/17/17 18/18/18 16/16/16
f 17/17/17 19/19/19 18/18/18
f 13/13/13 20/20/20 15/15/15
f 20/20/20 21/21/21 15/15/15
f 20/20/20 13/13/13 22/22/22
f 23/23/23 20/20/20 22/22/22
f 22/22/22 24/24/24 23/23/23
f 27/27/27 26/26/26 25/25/25
f 26/26/26 28/28/28 25/25/25
f 28/28/28 26/26/26 29/29/29
f 28/28/28 29/29/29 30/30/30
f 29/29/29 31/31/31 30/30/30
f 30/30/30 32/32/32 28/28/28
f 28/28/28 32/32/32 33/33/33
f 28/28/28 33/33/33 25/25/25
f 32/32/32 34/34/34 33/33/33
f 33/33/33 35/35/35 25/25/25
f 25/25/25 35/35/35 36/36/36
f 39/39/39 38/38/38 37/37/37
f 38/38/38 40/40/40 37/37/37
f 40/40/40 38/38/38 41/41/41
f 41/41/41 42/42/42 40/40/40
f 42/42/42 43/43/43 40/40/40
f 43/43/43 42/42/42 44/44/44
f 42/42/42 45/45/45 44/44/44
f 44/44/44 46/46/46 43/43/43
f 46/46/46 47/47/47 43/43/43
f 47/47/47 48/48/48 43/43/43
f 48/48/48 49/49/49 43/43/43
f 49/49/49 50/50/50 43/43/43
f 50/50/50 49/49/49 51/51/51
f 54/54/54 53/53/53 52/52/52
f 52/52/52 55/55/55 54/54/54
f 52/52/52 56/56/56 55/55/55
f 59/59/59 58/58/58 57/57/57
f 60/60/60 59/59/59 57/57/57
f 63/63/63 62/62/62 61/61/61
f 61/61/61 64/64/64 63/63/63
f 64/64/64 65/65/65 63/63/63
f 61/61/61 66/66/66 64/64/64
f 66/66/66 67/67/67 64/64/64
f 70/70/70 69/69/69 68/68/68
f 68/68/68 71/71/71 70/70/70
f 68/68/68 72/72/72 71/71/71
f 68/68/68 73/73/73 72/72/72
f 68/68/68 74/74/74 73/73/73
f 71/71/71 75/75/75 70/70/70
f 75/75/75 76/76/76 70/70/70
f 71/71/71 77/77/77 75/75/75
f 68/68/68 78/78/78 74/74/74
f 78/78/78 79/79/79 74/74/74
f 79/79/79 80/80/80 74/74/74
f 79/79/79 81/81/81 80/80/80
f 68/68/68 82/82/82 78/78/78
f 68/68/68 83/83/83 82/82/82
f 68/68/68 84/84/84 83/83/83
f 68/68/68 85/85/85 84/84/84
f 68/68/68 86/86/86 85/85/85
f 68/68/68 87/87/87 86/86/86
f 90/90/90 89/89/89 88/88/88
f 91/91/91 90/90/90 88/88/88
f 94/94/94 93/93/93 92/92/92
f 92/92/92 95/95/95 94/94/94
f 95/95/95 96/96/96 94/94/94
f 96/96/96 97/97/97 94/94/94
f 97/97/97 98/98/98 94/94/94
f 97/97/97 99/99/99 98/98/98
f 99/99/99 100/100/100 98/98/98
f 100/100/100 101/101/101 98/98/98
f 101/101/101 102/102/102 98/98/98
f 102/102/102 103/103/103 98/98/98
f 103/103/103 104/104/104 98/98/98
f 103/103/103 105/105/105 104/104/104
f 103/103/103 106/106/106 105/105/105
f 104/104/104 107/107/107 98/98/98
f 107/107/107 108/108/108 98/98/98
f 108/108/108 109/109/109 98/98/98
f 109/109/109 110/110/110 98/98/98
f 110/110/110 111/111/111 98/98/98
f 111/111/111 112/112/112 98/98/98
f 115/115/115 114/114/114 113/113/113
f 116/116/116 115/115/115 113/113/113
f 119/119/119 118/118/118 117/117/117
f 117/117/117 120/120/120 119/119/119
f 117/117/117 121/121/121 120/120/120
f 121/121/121 122/122/122 120/120/120
f 122/122/122 123/123/123 120/120/120
f 126/126/126 125/125/125 124/124/124
f 124/124/124 127/127/127 126/126/126
f 127/127/127 128/128/128 126/126/126
f 128/128/128 127/127/127 129/129/129
f 128/128/128 129/129/129 130/130/130
f 129/129/129 131/131/131 130/130/130
f 132/132/132 128/128/128 130/130/130
f 130/130/130 133/133/133 132/132/132
f 136/136/136 135/135/135 134/134/134
f 137/137/137 136/136/136 134/134/134
f 140/140/140 139/139/139 138/138/138
f 138/138/138 141/141/141 140/140/140
f 138/138/138 142/142/142 141/141/141
f 138/138/138 143/143/143 142/142/142
f 143/143/143 144/144/144 142/142/142
f 143/143/143 145/145/145 144/144/144
