g Q4_Ruins_008
v 0.0885959 0.5869921 0.04840077
v 0.056280512 0.61358064 1.0000001
v -0.23989363 0.5962885 1
v 0.0885959 0.5869921 0.04840077
v 0.013105411 0.59554505 -0.99999994
v 0.21924096 0.6106464 -0.99999994
v 0.0885959 0.5869921 0.04840077
v 0.35732135 0.63904834 1
v 0.056280512 0.61358064 1.0000001
v 0.4292065 0.6337861 0.6318655
v 0.41670528 0.6490284 1
v 0.6326283 1 1
v 0.6336896 1 0.9821442
v 0.0885959 0.5869921 0.04840077
v -0.23989363 0.5962885 1
v -0.2954292 0.5986749 0.99999994
v 0.013105411 0.59554505 -0.99999994
v -0.14305167 0.60225517 -1.0000001
v -0.4265176 0.8775228 -1
v -0.4625261 0.9045856 -0.89568794
v -0.32602352 0.62838435 1
v -0.45089132 0.8978177 -1.0000001
v -0.5464261 0.8563393 1
v -0.45898384 0.9187056 -1
v -0.63549244 0.9723723 1
v -0.6125878 1 0.30853295
v -0.49332595 1 -1
v -0.64405286 1 0.80176187
v -0.63952255 1 1
v 0.4292065 0.6337861 0.6318655
v 0.0885959 0.5869921 0.04840077
v 0.21924096 0.6106464 -0.99999994
v 0.41074032 0.6384264 -1
v 0.63256 0.9829415 -1
v 0.6336896 1 0.9821442
v 0.6421548 1 -1
v -1 -1 1
v -1 -1 -1
v -1 1 -1
v -1 1 1
v -1 -1 -1
v 1 -1 -1
v 1 1 -1
v 0.41074032 0.6384264 -1
v 0.21924096 0.6106464 -0.99999994
v 0.63256 0.9829415 -1
v 0.6421548 1 -1
v 0.013105411 0.59554505 -0.99999994
v -0.14305167 0.60225517 -1.0000001
v -0.4265176 0.8775228 -1
v -0.45089132 0.8978177 -1.0000001
v -0.45898384 0.9187056 -1
v -0.49332595 1 -1
v -1 1 -1
v 1 -1 -1
v 1 -1 1
v 1 1 1
v 1 1 -1
v 0.6326283 1 1
v 1 1 1
v 1 -1 1
v 0.41670528 0.6490284 1
v -1 -1 1
v 0.35732135 0.63904834 1
v 0.056280512 0.61358064 1.0000001
v -0.23989363 0.5962885 1
v -0.2954292 0.5986749 0.99999994
v -0.32602352 0.62838435 1
v -0.5464261 0.8563393 1
v -0.63549244 0.9723723 1
v -0.63952255 1 1
v -1 1 1
v -1 -1 -1
v -1 -1 1
v 1 -1 1
v 1 -1 -1
v 0.6336896 1 0.9821442
v 0.6421548 1 -1
v 1 1 -1
v 1 1 1
v 0.6326283 1 1
v -1 1 1
v -1 1 -1
v -0.49332595 1 -1
v -0.6125878 1 0.30853295
v -0.64405286 1 0.80176187
v -0.63952255 1 1
vt 0.090909 0
vt 0.07555871 0.026587812
vt 0.12826028 0.06469516
vt 0.454545 0
vt 0.43187538 0.039265405
vt 0.4739387 0.033591356
vt 0.818181 0
vt 0.7877047 0.0787305
vt 0.83353126 0.026587812
vt 0.7727265 0.0787305
vt 0.7786648 0.08901615
vt 0.734198 0.14650363
vt 0.7338162 0.14612584
vt 0.272727 0
vt 0.23537572 0.06469516
vt 0.23302917 0.0787305
vt 0.29539663 0.039265405
vt 0.2887985 0.0787305
vt 0.27682135 0.15036926
vt 0.27272698 0.157461
vt 0.23173648 0.08646243
vt 0.27632952 0.157461
vt 0.21359217 0.157461
vt 0.27544954 0.16217665
vt 0.21499324 0.21492255
vt 0.23668422 0.21988933
vt 0.27399856 0.19894093
vt 0.22144982 0.22610576
vt 0.2153312 0.22205698
vt 0.68181753 0.0787305
vt 0.636363 0
vt 0.6169693 0.033591356
vt 0.6330286 0.0787305
vt 0.6516307 0.13101628
vt 0.7207277 0.14612584
vt 0.6528847 0.13405624
vt 0.9429597 0.23022412
vt 0.9429597 0.22441313
vt 0.9369755 0.22441313
vt 0.9369755 0.23022412
vt 0.92500705 0.29414493
vt 0.92500705 0.28833395
vt 0.9190228 0.28833395
vt 0.9201046 0.29004604
vt 0.9201878 0.29060245
vt 0.9190738 0.28940153
vt 0.9190228 0.28937367
vt 0.9202329 0.29120135
vt 0.92021286 0.29165506
vt 0.9193894 0.2924787
vt 0.9193286 0.29254955
vt 0.9192661 0.292573
vt 0.9190228 0.29267278
vt 0.9190228 0.29414493
vt 0.9005285 0.8557769
vt 0.9005285 0.84996593
vt 0.89454424 0.84996593
vt 0.89454424 0.8557769
vt 0.9380747 0.25927904
vt 0.9369755 0.25927904
vt 0.9369755 0.26509002
vt 0.9387208 0.26029882
vt 0.9429597 0.26509002
vt 0.93889844 0.2603278
vt 0.9397992 0.2604018
vt 0.9406854 0.260452
vt 0.94085157 0.2604451
vt 0.9409431 0.26035878
vt 0.9416026 0.25969645
vt 0.9418691 0.25935933
vt 0.9418811 0.25927904
vt 0.9429597 0.25927904
vt 0.96656364 0.8430755
vt 0.96656364 0.83726454
vt 0.9605794 0.83726454
vt 0.9605794 0.8430755
vt 0.95498157 0.2777763
vt 0.96091247 0.2777517
vt 0.9609124 0.276712
vt 0.95492816 0.276712
vt 0.95492816 0.2777794
vt 0.95492816 0.28252298
vt 0.9609124 0.28252298
vt 0.96091247 0.28105086
vt 0.956997 0.2813973
vt 0.95552135 0.2814888
vt 0.95492816 0.28147563
vn -0.06916718 0.9976041 0.0014055835
vn -0.07406494 0.99679095 -0.030366438
vn -0.035695937 0.9991186 -0.022082789
vn -0.06916718 0.9976041 0.0014055835
vn -0.00014451635 0.9999666 0.008168226
vn -0.12974016 0.99152863 0.006203786
vn -0.06916718 0.9976041 0.0014055835
vn -0.08726279 0.9956943 -0.031272482
vn -0.07406494 0.99679095 -0.030366438
vn -0.6096618 0.7925406 -0.013851663
vn -0.79638994 0.6025445 -0.051992115
vn -0.8332746 0.5506368 -0.049522363
vn -0.48311853 0.8754926 -0.010450025
vn -0.06916718 0.9976041 0.0014055835
vn -0.035695937 0.9991186 -0.022082789
vn 0.45078278 0.89190984 0.035941247
vn -0.00014451635 0.9999666 0.008168226
vn 0.52883106 0.8476968 0.04180848
vn 0.6954576 0.71652186 0.054176867
vn 0.82615435 0.55916446 0.069311045
vn 0.71493137 0.6973952 0.050130315
vn 0.77343345 0.6322607 0.045245383
vn 0.7427003 0.6677647 0.049865674
vn 0.91811204 0.38739958 0.08361744
vn 0.7976659 0.60107917 0.049324773
vn 0.20646966 0.97836155 0.013378966
vn 0.9179476 0.3877792 0.08366325
vn 0.087035835 0.9961904 0.0054121823
vn 0.9892747 0.14430746 -0.022607774
vn -0.6096618 0.7925406 -0.013851663
vn -0.06916718 0.9976041 0.0014055835
vn -0.12974016 0.99152863 0.006203786
vn -0.51592857 0.85659164 0.008274032
vn -0.8608091 0.5089253 0.0016210605
vn -0.48311853 0.8754926 -0.010450025
vn -0.8715859 0.49022868 -0.003722253
vn -1 0 0
vn -1 0 0
vn -1 0 0
vn -1 0 0
vn -0 0 -1
vn -0 0 -1
vn -0 0 -1
vn -0 0 -1
vn -0 0 -1
vn -0 0 -1
vn -0 0 -1
vn -0 0 -1
vn -0 0 -1
vn -0 0 -1
vn -0 0 -1
vn -0 0 -1
vn -0 0 -1
vn -0 0 -1
vn 1 0 0
vn 1 0 0
vn 1 0 0
vn 1 0 0
vn -0 0 1
vn -0 0 1
vn -0 0 1
vn -0 0 1
vn -0 0 1
vn -0 0 1
vn -0 0 1
vn -0 0 1
vn -0 0 1
vn -0 0 1
vn -0 0 1
vn -0 0 1
vn -0 0 1
vn -0 0 1
vn -0 -1 0
vn -0 -1 0
vn -0 -1 0
vn -0 -1 0
vn -0.48311853 0.8754926 -0.010450025
vn -0 1 0
vn -0 1 0
vn -0 1 0
vn -0.8332746 0.5506368 -0.049522363
vn -0 1 0
vn -0 1 0
vn -0 1 0
vn 0.20646966 0.97836155 0.013378966
vn 0.087035835 0.9961904 0.0054121823
vn -0 1 0
g Q4_Ruins_008_0
f 3/3/3 2/2/2 1/1/1
f 6/6/6 5/5/5 4/4/4
f 9/9/9 8/8/8 7/7/7
f 8/8/8 10/10/10 7/7/7
f 10/10/10 8/8/8 11/11/11
f 11/11/11 12/12/12 10/10/10
f 12/12/12 13/13/13 10/10/10
f 16/16/16 15/15/15 14/14/14
f 16/16/16 14/14/14 17/17/17
f 17/17/17 18/18/18 16/16/16
f 16/16/16 18/18/18 19/19/19
f 19/19/19 20/20/20 16/16/16
f 20/20/20 21/21/21 16/16/16
f 20/20/20 19/19/19 22/22/22
f 20/20/20 23/23/23 21/21/21
f 20/20/20 22/22/22 24/24/24
f 25/25/25 23/23/23 20/20/20
f 20/20/20 24/24/24 26/26/26
f 20/20/20 26/26/26 25/25/25
f 24/24/24 27/27/27 26/26/26
f 26/26/26 28/28/28 25/25/25
f 28/28/28 29/29/29 25/25/25
f 32/32/32 31/31/31 30/30/30
f 33/33/33 32/32/32 30/30/30
f 30/30/30 34/34/34 33/33/33
f 30/30/30 35/35/35 34/34/34
f 35/35/35 36/36/36 34/34/34
f 39/39/39 38/38/38 37/37/37
f 40/40/40 39/39/39 37/37/37
f 43/43/43 42/42/42 41/41/41
f 41/41/41 44/44/44 43/43/43
f 41/41/41 45/45/45 44/44/44
f 44/44/44 46/46/46 43/43/43
f 46/46/46 47/47/47 43/43/43
f 41/41/41 48/48/48 45/45/45
f 41/41/41 49/49/49 48/48/48
f 41/41/41 50/50/50 49/49/49
f 41/41/41 51/51/51 50/50/50
f 41/41/41 52/52/52 51/51/51
f 41/41/41 53/53/53 52/52/52
f 41/41/41 54/54/54 53/53/53
f 57/57/57 56/56/56 55/55/55
f 58/58/58 57/57/57 55/55/55
f 61/61/61 60/60/60 59/59/59
f 59/59/59 62/62/62 61/61/61
f 62/62/62 63/63/63 61/61/61
f 62/62/62 64/64/64 63/63/63
f 64/64/64 65/65/65 63/63/63
f 65/65/65 66/66/66 63/63/63
f 66/66/66 67/67/67 63/63/63
f 67/67/67 68/68/68 63/63/63
f 68/68/68 69/69/69 63/63/63
f 69/69/69 70/70/70 63/63/63
f 70/70/70 71/71/71 63/63/63
f 71/71/71 72/72/72 63/63/63
f 75/75/75 74/74/74 73/73/73
f 76/76/76 75/75/75 73/73/73
f 79/79/79 78/78/78 77/77/77
f 77/77/77 80/80/80 79/79/79
f 77/77/77 81/81/81 80/80/80
f 84/84/84 83/83/83 82/82/82
f 82/82/82 85/85/85 84/84/84
f 82/82/82 86/86/86 85/85/85
f 82/82/82 87/87/87 86/86/86
