g RJTriangle
v 0.010538344 0.007691596 0.04434862
v 0.008118827 0.007691596 0.0526213
v 0.008118827 -0.007691596 0.0526213
v 0.010538344 -0.007691596 0.04434862
v 0.03600249 -0.007691596 0.042906523
v 0.019566638 -0.007691596 0.07431103
v 0.019566638 0.007691596 0.07431103
v 0.03600249 0.007691596 0.042906523
v -0.029744377 -0.007691596 -0.03502921
v -0.03904948 -0.007691596 -0.035077367
v -0.03904948 0.007691596 -0.035077367
v -0.029744377 0.007691596 -0.035029206
v -0.054971114 -0.007691596 -0.05467636
v -0.052863162 -0.01 -0.05295565
v -0.039756488 -0.01 -0.037093125
v -0.03904948 -0.007691596 -0.035077367
v -0.054971114 0.007691596 -0.05467636
v -0.03904948 0.007691596 -0.035077367
v -0.052863173 0.01 -0.05295565
v -0.039756488 0.01 -0.037093125
v 0.019566638 0.007691596 0.07431103
v 0.019566638 -0.007691596 0.07431103
v -0.09091279 -0.007691596 0.07431107
v -0.09091279 0.007691596 0.07431107
v -0.03904948 0.007691596 -0.035077367
v -0.03904948 -0.007691596 -0.035077367
v -0.0814209 -0.007691596 0.0447479
v -0.0814209 0.007691596 0.0447479
v -0.0814209 -0.007691596 0.0447479
v -0.07908886 -0.007691596 0.05299649
v -0.07908886 0.007691596 0.05299649
v -0.0814209 0.007691596 0.0447479
v -0.10518126 0.007691596 0.04373266
v -0.10518126 -0.007691596 0.043732658
v -0.054971114 -0.007691596 -0.05467636
v -0.054971114 0.007691596 -0.05467636
v -0.07908886 0.007691596 0.05299649
v -0.07908886 -0.007691596 0.05299649
v 0.008118827 -0.007691596 0.0526213
v 0.008118827 0.007691596 0.0526213
v 0.008118827 -0.007691596 0.0526213
v 0.009368377 -0.01 0.054988775
v 0.01830152 -0.01 0.07191406
v 0.019566638 -0.007691596 0.07431103
v 0.008118827 0.007691596 0.0526213
v 0.019566638 0.007691596 0.07431103
v 0.009368377 0.01 0.054988775
v 0.01830152 0.01 0.07191406
v -0.07908886 -0.007691596 0.05299649
v -0.08040831 -0.01 0.055375017
v -0.08958311 -0.01 0.07191409
v -0.09091279 -0.007691596 0.07431107
v -0.07908886 0.007691596 0.05299649
v -0.09091279 0.007691596 0.07431107
v -0.08040831 0.01 0.055375017
v -0.08958311 0.01 0.07191409
v -0.102177724 -0.01 0.04360262
v -0.10518126 -0.007691596 0.043732658
v -0.09091279 -0.007691596 0.07431107
v -0.08958311 -0.01 0.07191409
v -0.029744377 0.007691596 -0.035029206
v 0.010538344 0.007691596 0.04434862
v 0.010538344 -0.007691596 0.04434862
v -0.029744377 -0.007691596 -0.03502921
v 0.010538344 -0.007691596 0.04434862
v 0.012966694 -0.01 0.043994613
v -0.028522627 -0.01 -0.037081726
v -0.029744377 -0.007691596 -0.03502921
v 0.03600249 0.007691596 0.042906523
v 0.033291094 0.01 0.04281959
v -0.017855376 0.01 -0.05259879
v -0.014078053 0.007691596 -0.05467636
v -0.029744377 0.007691596 -0.035029206
v -0.028522622 0.01 -0.037081722
v 0.012966694 0.01 0.043994613
v 0.010538344 0.007691596 0.04434862
v -0.014078053 -0.007691596 -0.05467636
v 0.03600249 -0.007691596 0.042906523
v 0.03600249 0.007691596 0.042906523
v -0.014078053 0.007691596 -0.05467636
v 0.012966694 -0.01 0.043994613
v 0.010538344 -0.007691596 0.04434862
v 0.008118827 -0.007691596 0.0526213
v 0.009368377 -0.01 0.054988775
v 0.019566638 0.007691596 0.07431103
v 0.01830152 0.01 0.07191406
v 0.033291094 0.01 0.04281959
v 0.03600249 0.007691596 0.042906523
v 0.009368377 0.01 0.054988775
v 0.008118827 0.007691596 0.0526213
v 0.010538344 0.007691596 0.04434862
v 0.012966694 0.01 0.043994613
v -0.08040831 -0.01 0.055375017
v -0.07908886 -0.007691596 0.05299649
v -0.0814209 -0.007691596 0.0447479
v -0.08412826 -0.01 0.044381063
v -0.08958311 0.01 0.07191409
v -0.09091279 0.007691596 0.07431107
v -0.10518126 0.007691596 0.04373266
v -0.102177724 0.01 0.04360262
v -0.08412826 0.01 0.044381063
v -0.0814209 0.007691596 0.0447479
v -0.07908886 0.007691596 0.05299649
v -0.08040831 0.01 0.055375017
v -0.10518126 0.007691596 0.04373266
v -0.09091279 0.007691596 0.07431107
v -0.09091279 -0.007691596 0.07431107
v -0.10518126 -0.007691596 0.043732658
v -0.054971114 0.007691596 -0.05467636
v -0.052863173 0.01 -0.05295565
v -0.102177724 0.01 0.04360262
v -0.10518126 0.007691596 0.04373266
v -0.0814209 0.007691596 0.0447479
v -0.08412826 0.01 0.044381063
v -0.039756488 0.01 -0.037093125
v -0.03904948 0.007691596 -0.035077367
v -0.10518126 -0.007691596 0.043732658
v -0.102177724 -0.01 0.04360262
v -0.052863162 -0.01 -0.05295565
v -0.054971114 -0.007691596 -0.05467636
v -0.03904948 -0.007691596 -0.035077367
v -0.039756488 -0.01 -0.037093125
v -0.08412826 -0.01 0.044381063
v -0.0814209 -0.007691596 0.0447479
v 0.008118827 0.007691596 0.0526213
v 0.009368377 0.01 0.054988775
v -0.08040831 0.01 0.055375017
v -0.07908886 0.007691596 0.05299649
v -0.09091279 0.007691596 0.07431107
v -0.08958311 0.01 0.07191409
v 0.01830152 0.01 0.07191406
v 0.019566638 0.007691596 0.07431103
v 0.019566638 -0.007691596 0.07431103
v 0.01830152 -0.01 0.07191406
v -0.08958311 -0.01 0.07191409
v -0.09091279 -0.007691596 0.07431107
v -0.07908886 -0.007691596 0.05299649
v -0.08040831 -0.01 0.055375017
v 0.009368377 -0.01 0.054988775
v 0.008118827 -0.007691596 0.0526213
v -0.028522622 0.01 -0.037081722
v -0.029744377 0.007691596 -0.035029206
v -0.03904948 0.007691596 -0.035077367
v -0.039756488 0.01 -0.037093125
v -0.017855376 -0.01 -0.05259879
v -0.014078053 -0.007691596 -0.05467636
v -0.054971114 -0.007691596 -0.05467636
v -0.052863162 -0.01 -0.05295565
v -0.052863173 0.01 -0.05295565
v -0.054971114 0.007691596 -0.05467636
v -0.014078053 0.007691596 -0.05467636
v -0.017855376 0.01 -0.05259879
v -0.039756488 -0.01 -0.037093125
v -0.03904948 -0.007691596 -0.035077367
v -0.029744377 -0.007691596 -0.03502921
v -0.028522627 -0.01 -0.037081726
v -0.014078053 0.007691596 -0.05467636
v -0.054971114 0.007691596 -0.05467636
v -0.054971114 -0.007691596 -0.05467636
v -0.014078053 -0.007691596 -0.05467636
v 0.03600249 -0.007691596 0.042906523
v 0.033291094 -0.01 0.04281959
v 0.01830152 -0.01 0.07191406
v 0.019566638 -0.007691596 0.07431103
v -0.014078053 -0.007691596 -0.05467636
v -0.017855376 -0.01 -0.05259879
v 0.033291094 -0.01 0.04281959
v 0.03600249 -0.007691596 0.042906523
v -0.028522622 0.01 -0.037081722
v -0.039756488 0.01 -0.037093125
v -0.052863173 0.01 -0.05295565
v -0.017855376 0.01 -0.05259879
v -0.102177724 0.01 0.04360262
v 0.012966694 0.01 0.043994613
v -0.08412826 0.01 0.044381063
v 0.033291094 0.01 0.04281959
v -0.08958311 0.01 0.07191409
v 0.009368377 0.01 0.054988775
v -0.08040831 0.01 0.055375017
v 0.01830152 0.01 0.07191406
v -0.017855376 -0.01 -0.05259879
v -0.052863162 -0.01 -0.05295565
v -0.039756488 -0.01 -0.037093125
v -0.028522627 -0.01 -0.037081726
v -0.08412826 -0.01 0.044381063
v 0.033291094 -0.01 0.04281959
v -0.102177724 -0.01 0.04360262
v 0.012966694 -0.01 0.043994613
v -0.08040831 -0.01 0.055375017
v 0.01830152 -0.01 0.07191406
v -0.08958311 -0.01 0.07191409
v 0.009368377 -0.01 0.054988775
vn -0.9597922 0 -0.28071135
vn -0.9597922 0 -0.28071135
vn -0.9597922 0 -0.28071135
vn -0.9597922 0 -0.28071135
vn 0.8859954 0 0.4636941
vn 0.8859954 0 0.4636941
vn 0.8859954 0 0.4636941
vn 0.8859954 0 0.4636941
vn -0.0051753023 0 0.99998665
vn -0.0051753023 0 0.99998665
vn -0.0051753023 0 0.99998665
vn -0.0051753023 0 0.99998665
vn 0.7756592 2.7738201E-07 -0.6311519
vn 0.7756592 2.7738201E-07 -0.6311519
vn 0.7756592 2.7738201E-07 -0.6311519
vn 0.7756592 2.7738201E-07 -0.6311519
vn 0.7756592 2.7738201E-07 -0.6311519
vn 0.7756592 2.7738201E-07 -0.6311519
vn 0.7756592 2.7738201E-07 -0.6311519
vn 0.7756592 2.7738201E-07 -0.6311519
vn 2.8057062E-07 0 1
vn 2.8057062E-07 0 1
vn 2.8057062E-07 0 1
vn 2.8057062E-07 0 1
vn 0.8832796 0 0.46884665
vn 0.8832796 0 0.46884665
vn 0.8832796 0 0.46884665
vn 0.8832796 0 0.46884665
vn 0.9622816 0 -0.27205527
vn 0.9622816 0 -0.27205527
vn 0.9622816 0 -0.27205527
vn 0.9622816 0 -0.27205527
vn -0.8907564 4.489187E-07 -0.4544809
vn -0.8907564 4.489187E-07 -0.4544809
vn -0.8907564 4.489187E-07 -0.4544809
vn -0.8907564 4.489187E-07 -0.4544809
vn -0.0043022307 0 -0.9999908
vn -0.0043022307 0 -0.9999908
vn -0.0043022307 0 -0.9999908
vn -0.0043022307 0 -0.9999908
vn 0.8843771 0 -0.466773
vn 0.8843771 0 -0.466773
vn 0.8843771 0 -0.466773
vn 0.8843771 0 -0.466773
vn 0.8843771 0 -0.466773
vn 0.8843771 0 -0.466773
vn 0.8843771 0 -0.466773
vn 0.8843771 0 -0.466773
vn 0.874462 -1.5061704E-07 0.4850941
vn 0.874462 -1.5061704E-07 0.4850941
vn 0.874462 -1.5061704E-07 0.4850941
vn 0.874462 -1.5061704E-07 0.4850941
vn 0.874462 -1.5061704E-07 0.4850941
vn 0.874462 -1.5061704E-07 0.4850941
vn 0.874462 -1.5061704E-07 0.4850941
vn 0.874462 -1.5061704E-07 0.4850941
vn -0.6177984 -0.7341022 0.28181377
vn -0.6177984 -0.7341022 0.28181377
vn -0.6177984 -0.7341022 0.28181377
vn -0.6177984 -0.7341022 0.28181377
vn -0.89174294 0 0.4525423
vn -0.89174294 0 0.4525423
vn -0.89174294 0 0.4525423
vn -0.89174294 0 0.4525423
vn -0.6488308 -0.68533254 0.3306628
vn -0.6488308 -0.68533254 0.3306628
vn -0.6488308 -0.68533254 0.3306628
vn -0.6488308 -0.68533254 0.3306628
vn 0.50397116 0.8222799 -0.2643272
vn 0.50397116 0.8222799 -0.2643272
vn 0.50397116 0.8222799 -0.2643272
vn 0.50397116 0.8222799 -0.2643272
vn -0.6488308 0.68533254 0.3306628
vn -0.6488308 0.68533254 0.3306628
vn -0.6488308 0.68533254 0.3306628
vn -0.6488308 0.68533254 0.3306628
vn 0.88967663 0 -0.45659125
vn 0.88967663 0 -0.45659125
vn 0.88967663 0 -0.45659125
vn 0.88967663 0 -0.45659125
vn -0.71287477 -0.6650051 -0.22266051
vn -0.71287477 -0.6650051 -0.22266051
vn -0.71287477 -0.6650051 -0.22266051
vn -0.71287477 -0.6650051 -0.22266051
vn 0.6236389 0.7114328 0.32394123
vn 0.6236389 0.7114328 0.32394123
vn 0.6236389 0.7114328 0.32394123
vn 0.6236389 0.7114328 0.32394123
vn -0.71287477 0.6650051 -0.22266051
vn -0.71287477 0.6650051 -0.22266051
vn -0.71287477 0.6650051 -0.22266051
vn -0.71287477 0.6650051 -0.22266051
vn 0.68720645 -0.69356585 -0.2161338
vn 0.68720645 -0.69356585 -0.2161338
vn 0.68720645 -0.69356585 -0.2161338
vn 0.68720645 -0.69356585 -0.2161338
vn -0.6177984 0.7341022 0.28181377
vn -0.6177984 0.7341022 0.28181377
vn -0.6177984 0.7341022 0.28181377
vn -0.6177984 0.7341022 0.28181377
vn 0.6872071 0.693565 -0.21613401
vn 0.6872071 0.693565 -0.21613401
vn 0.6872071 0.693565 -0.21613401
vn 0.6872071 0.693565 -0.21613401
vn -0.9061996 0 0.4228502
vn -0.9061996 0 0.4228502
vn -0.9061996 0 0.4228502
vn -0.9061996 0 0.4228502
vn -0.58654135 0.7525439 -0.29941097
vn -0.58654135 0.7525439 -0.29941097
vn -0.58654135 0.7525439 -0.29941097
vn -0.58654135 0.7525439 -0.29941097
vn 0.6560147 0.6672211 0.35278988
vn 0.6560147 0.6672211 0.35278988
vn 0.6560147 0.6672211 0.35278988
vn 0.6560147 0.6672211 0.35278988
vn -0.58654135 -0.7525439 -0.29941097
vn -0.58654135 -0.7525439 -0.29941097
vn -0.58654135 -0.7525439 -0.29941097
vn -0.58654135 -0.7525439 -0.29941097
vn 0.6560147 -0.6672211 0.35278988
vn 0.6560147 -0.6672211 0.35278988
vn 0.6560147 -0.6672211 0.35278988
vn 0.6560147 -0.6672211 0.35278988
vn -0.0029999772 0.7167701 -0.6973031
vn -0.0029999772 0.7167701 -0.6973031
vn -0.0029999772 0.7167701 -0.6973031
vn -0.0029999772 0.7167701 -0.6973031
vn 1.9685825E-07 0.72028935 0.6936738
vn 1.9685825E-07 0.72028935 0.6936738
vn 1.9685825E-07 0.72028935 0.6936738
vn 1.9685825E-07 0.72028935 0.6936738
vn 1.9685825E-07 -0.72028935 0.6936738
vn 1.9685825E-07 -0.72028935 0.6936738
vn 1.9685825E-07 -0.72028935 0.6936738
vn 1.9685825E-07 -0.72028935 0.6936738
vn -0.0029999772 -0.7167701 -0.6973031
vn -0.0029999772 -0.7167701 -0.6973031
vn -0.0029999772 -0.7167701 -0.6973031
vn -0.0029999772 -0.7167701 -0.6973031
vn -0.0021754417 0.6612647 0.7501495
vn -0.0021754417 0.6612647 0.7501495
vn -0.0021754417 0.6612647 0.7501495
vn -0.0021754417 0.6612647 0.7501495
vn 0.003627801 -0.63610554 -0.7715936
vn 0.003627801 -0.63610554 -0.7715936
vn 0.003627801 -0.63610554 -0.7715936
vn 0.003627801 -0.63610554 -0.7715936
vn 0.0036278013 0.63610554 -0.7715935
vn 0.0036278013 0.63610554 -0.7715935
vn 0.0036278013 0.63610554 -0.7715935
vn 0.0036278013 0.63610554 -0.7715935
vn -0.0021750645 -0.6612651 0.75014913
vn -0.0021750645 -0.6612651 0.75014913
vn -0.0021750645 -0.6612651 0.75014913
vn -0.0021750645 -0.6612651 0.75014913
vn -0 0 -1
vn -0 0 -1
vn -0 0 -1
vn -0 0 -1
vn 0.62363887 -0.7114328 0.32394135
vn 0.62363887 -0.7114328 0.32394135
vn 0.62363887 -0.7114328 0.32394135
vn 0.62363887 -0.7114328 0.32394135
vn 0.50397116 -0.82227993 -0.2643272
vn 0.50397116 -0.82227993 -0.2643272
vn 0.50397116 -0.82227993 -0.2643272
vn 0.50397116 -0.82227993 -0.2643272
vn -0 1 0
vn -0 1 0
vn -0 1 0
vn -0 1 0
vn -0 1 0
vn -0 1 0
vn -0 1 0
vn -0 1 0
vn -0 1 0
vn -0 1 0
vn -0 1 0
vn -0 1 0
vn -0 -1 0
vn -0 -1 0
vn -0 -1 0
vn -0 -1 0
vn -0 -1 0
vn -0 -1 0
vn -0 -1 0
vn -0 -1 0
vn -0 -1 0
vn -0 -1 0
vn -0 -1 0
vn -0 -1 0
g RJTriangle_0
f 3/3/3 2/2/2 1/1/1
f 4/4/4 3/3/3 1/1/1
f 7/7/7 6/6/6 5/5/5
f 8/8/8 7/7/7 5/5/5
f 11/11/11 10/10/10 9/9/9
f 12/12/12 11/11/11 9/9/9
f 15/15/15 14/14/14 13/13/13
f 13/13/13 16/16/16 15/15/15
f 13/13/13 17/17/17 16/16/16
f 17/17/17 18/18/18 16/16/16
f 17/17/17 19/19/19 18/18/18
f 19/19/19 20/20/20 18/18/18
f 23/23/23 22/22/22 21/21/21
f 24/24/24 23/23/23 21/21/21
f 27/27/27 26/26/26 25/25/25
f 28/28/28 27/27/27 25/25/25
f 31/31/31 30/30/30 29/29/29
f 32/32/32 31/31/31 29/29/29
f 35/35/35 34/34/34 33/33/33
f 36/36/36 35/35/35 33/33/33
f 39/39/39 38/38/38 37/37/37
f 40/40/40 39/39/39 37/37/37
f 43/43/43 42/42/42 41/41/41
f 41/41/41 44/44/44 43/43/43
f 41/41/41 45/45/45 44/44/44
f 45/45/45 46/46/46 44/44/44
f 45/45/45 47/47/47 46/46/46
f 47/47/47 48/48/48 46/46/46
f 51/51/51 50/50/50 49/49/49
f 49/49/49 52/52/52 51/51/51
f 49/49/49 53/53/53 52/52/52
f 53/53/53 54/54/54 52/52/52
f 53/53/53 55/55/55 54/54/54
f 55/55/55 56/56/56 54/54/54
f 59/59/59 58/58/58 57/57/57
f 60/60/60 59/59/59 57/57/57
f 63/63/63 62/62/62 61/61/61
f 64/64/64 63/63/63 61/61/61
f 67/67/67 66/66/66 65/65/65
f 68/68/68 67/67/67 65/65/65
f 71/71/71 70/70/70 69/69/69
f 72/72/72 71/71/71 69/69/69
f 75/75/75 74/74/74 73/73/73
f 76/76/76 75/75/75 73/73/73
f 79/79/79 78/78/78 77/77/77
f 80/80/80 79/79/79 77/77/77
f 83/83/83 82/82/82 81/81/81
f 84/84/84 83/83/83 81/81/81
f 87/87/87 86/86/86 85/85/85
f 88/88/88 87/87/87 85/85/85
f 91/91/91 90/90/90 89/89/89
f 92/92/92 91/91/91 89/89/89
f 95/95/95 94/94/94 93/93/93
f 96/96/96 95/95/95 93/93/93
f 99/99/99 98/98/98 97/97/97
f 100/100/100 99/99/99 97/97/97
f 103/103/103 102/102/102 101/101/101
f 104/104/104 103/103/103 101/101/101
f 107/107/107 106/106/106 105/105/105
f 108/108/108 107/107/107 105/105/105
f 111/111/111 110/110/110 109/109/109
f 112/112/112 111/111/111 109/109/109
f 115/115/115 114/114/114 113/113/113
f 116/116/116 115/115/115 113/113/113
f 119/119/119 118/118/118 117/117/117
f 120/120/120 119/119/119 117/117/117
f 123/123/123 122/122/122 121/121/121
f 124/124/124 123/123/123 121/121/121
f 127/127/127 126/126/126 125/125/125
f 128/128/128 127/127/127 125/125/125
f 131/131/131 130/130/130 129/129/129
f 132/132/132 131/131/131 129/129/129
f 135/135/135 134/134/134 133/133/133
f 136/136/136 135/135/135 133/133/133
f 139/139/139 138/138/138 137/137/137
f 140/140/140 139/139/139 137/137/137
f 143/143/143 142/142/142 141/141/141
f 144/144/144 143/143/143 141/141/141
f 147/147/147 146/146/146 145/145/145
f 148/148/148 147/147/147 145/145/145
f 151/151/151 150/150/150 149/149/149
f 152/152/152 151/151/151 149/149/149
f 155/155/155 154/154/154 153/153/153
f 156/156/156 155/155/155 153/153/153
f 159/159/159 158/158/158 157/157/157
f 160/160/160 159/159/159 157/157/157
f 163/163/163 162/162/162 161/161/161
f 164/164/164 163/163/163 161/161/161
f 167/167/167 166/166/166 165/165/165
f 168/168/168 167/167/167 165/165/165
f 171/171/171 170/170/170 169/169/169
f 172/172/172 171/171/171 169/169/169
f 170/170/170 171/171/171 173/173/173
f 169/169/169 174/174/174 172/172/172
f 175/175/175 170/170/170 173/173/173
f 174/174/174 176/176/176 172/172/172
f 173/173/173 177/177/177 175/175/175
f 174/174/174 178/178/178 176/176/176
f 177/177/177 179/179/179 175/175/175
f 178/178/178 180/180/180 176/176/176
f 177/177/177 180/180/180 179/179/179
f 180/180/180 178/178/178 179/179/179
f 183/183/183 182/182/182 181/181/181
f 184/184/184 183/183/183 181/181/181
f 183/183/183 185/185/185 182/182/182
f 181/181/181 186/186/186 184/184/184
f 185/185/185 187/187/187 182/182/182
f 186/186/186 188/188/188 184/184/184
f 185/185/185 189/189/189 187/187/187
f 186/186/186 190/190/190 188/188/188
f 189/189/189 191/191/191 187/187/187
f 190/190/190 192/192/192 188/188/188
f 191/191/191 189/189/189 192/192/192
f 190/190/190 191/191/191 192/192/192
