g terrainMesh.050
v -22.572636 -9.999999 20.243353
v -23.927223 -9.999999 19.947447
v -23.897673 -8.314025 19.944965
v -19.449915 -9.999999 20.466381
v -20.759768 -9.999999 20.269989
v -20.955656 -8.21524 19.971848
v -18.568884 -7.6740866 20.248215
v -23.897673 -8.314025 19.944965
v -20.759768 -9.999999 20.269989
v -22.572636 -9.999999 20.243353
v -24.999996 -7.634472 19.898945
v -23.897673 -8.314025 19.944965
v -24.999996 -8.640042 19.921072
v -24.999996 -9.999999 19.923603
v -23.927223 -9.999999 19.947447
vt 0.32500854 0.98260677
vt 0.32179207 0.98510754
vt 0.32500854 0.99095595
vt 0.1751463 0.36807126
vt 0.17867689 0.36828578
vt 0.17841582 0.36120167
vt 0.17174323 0.35865313
vt 0.18742532 0.36198428
vt 0.17867689 0.36828578
vt 0.18419927 0.3685255
vt 0.19067088 0.35940367
vt 0.18742532 0.36198428
vt 0.19078004 0.3634432
vt 0.19085664 0.36891273
vt 0.18760972 0.36876896
vn -0.071780995 0.1188415 0.99031526
vn -0.11731507 0.003509686 0.99308854
vn -0.057375453 0.047884088 0.9972037
vn -0.14664356 0.14728448 0.97816306
vn -0.08578972 0.15497695 0.9841861
vn -0.08108989 0.15555711 0.984493
vn -0.14664356 0.14728448 0.97816306
vn -0.057375453 0.047884088 0.9972037
vn -0.08578972 0.15497695 0.9841861
vn -0.071780995 0.1188415 0.99031526
vn -0.028138163 0.021973401 0.9993625
vn -0.057375453 0.047884088 0.9972037
vn -0.024628738 0.01007123 0.99964595
vn -0.022218056 0.0018311584 0.9997515
vn -0.11731507 0.003509686 0.99308854
g terrainMesh.050_0
f 3/3/3 2/2/2 1/1/1
f 6/6/6 5/5/5 4/4/4
f 7/7/7 6/6/6 4/4/4
f 9/9/9 6/6/6 8/8/8
f 10/10/10 9/9/9 8/8/8
f 13/13/13 12/12/12 11/11/11
f 12/12/12 13/13/13 14/14/14
f 15/15/15 12/12/12 14/14/14
