g terrainMesh.017
v 4.9999995 128.74544 13.261121
v 4.9999995 128.00403 14.133439
v 1.6839635 129.67885 13.972246
v -4.9999995 125.08888 14.874616
v -4.9999995 127.504486 13.987495
v -3.1577563 125.6935 15.846615
v -4.9999995 89.93169 -24.364252
v -0.65506357 89.606255 -31.582886
v -4.9999995 92.632805 -30.835476
v -4.9999995 104.258255 9.96607
v -4.9999995 104.6182 10.930353
v -4.308864 103.87999 10.352353
v 4.9999995 81.40521 -20.251913
v 4.997808 81.40493 -20.24747
v 4.9999995 81.403275 -20.249249
v 2.7532346 83.70382 -12.7566805
v 1.1178836 84.86123 -19.730951
v -2.115791 88.217186 -14.445858
v 0.78148067 87.143974 -9.16348
v -4.5166154 91.26638 -9.614689
v -4.9999995 91.05601 -11.609018
v -4.9999995 91.54516 -9.696724
v -4.9999995 91.6779 -9.417691
v -4.9999995 89.28259 -17.992315
v -4.9999995 88.71014 -20.44515
v 1.1178836 84.86123 -19.730951
v 2.845476 84.17165 -29.043907
v -4.9999995 88.79727 -22.531897
v 4.997808 81.40493 -20.24747
v 4.9999995 81.18895 -14.93841
v 4.9999995 81.401634 -20.214355
v 4.9999995 81.40521 -20.251913
v 4.9999995 83.22517 -28.119902
v 4.9999995 83.03055 -30.604269
v 4.9999995 81.40411 -20.247179
v 4.9999995 81.403275 -20.249249
v 4.9999995 81.401634 -20.214355
v 1.6839635 129.67885 13.972246
v 4.9999995 132.73395 9.880058
v 4.9999995 128.74544 13.261121
v 4.905662 98.34694 5.505405
v 4.9999995 98.28021 5.5037813
v 4.9999995 96.40104 2.072468
v -4.9999995 127.504486 13.987495
v -4.9999995 127.776245 13.777406
v 1.6839635 129.67885 13.972246
v -3.1577563 125.6935 15.846615
v -4.9999995 124.468864 15.846262
v -3.1577563 125.6935 15.846615
v -4.9999995 122.501076 18.033342
v -4.9999995 125.08888 14.874616
v -4.9999995 102.644714 3.1808615
v -4.0310187 101.71248 2.0323427
v -4.9999995 102.14848 1.685523
v -4.9999995 104.258255 9.96607
v -4.308864 103.87999 10.352353
v -4.9999995 111.13457 18.193905
v -4.8458056 110.541275 17.952694
v -4.9999995 110.61419 17.921556
v -4.9999995 110.28245 17.687305
v -4.9999995 107.77687 15.561702
v -2.003784 106.06093 14.996214
v 2.0784185 107.28029 16.55022
v -4.308864 103.87999 10.352353
v -1.8920648 97.481186 1.4256896
v -4.0310187 101.71248 2.0323427
v -4.9999995 99.13079 -0.91903234
v -4.9999995 100.92282 0.36615583
v -4.9999995 102.14848 1.685523
v -4.9999995 97.17694 -3.0721178
v -3.0912852 93.363365 -4.7181926
v -4.9999995 94.06801 -5.4630575
v -4.9999995 91.6779 -9.417691
v -4.5166154 91.26638 -9.614689
v 0.78148067 87.143974 -9.16348
v 1.473955 87.959984 -4.585302
v 0.7419185 91.56603 -1.6213682
v 4.9999995 96.18378 1.685255
v 4.9999995 96.17028 1.6774204
v 4.9999995 90.85603 -0.48868802
v 4.9999995 89.89281 -1.3619678
v 4.9999995 87.52932 -2.2828908
v 4.9999995 85.8669 -3.7585957
v 3.6452956 84.3489 -6.9624577
v 4.9999995 84.425316 -5.550362
v 4.9999995 83.54154 -6.259324
v 4.9999995 83.22206 -7.152108
v 2.7532346 83.70382 -12.7566805
v -2.115791 88.217186 -14.445858
v 4.905662 98.34694 5.505405
v 1.6075552 99.32231 5.7549376
v 3.9665465 100.926834 11.483224
v 4.9999995 96.19159 1.6983659
v 4.9999995 96.40104 2.072468
v -1.8920648 97.481186 1.4256896
v 4.9999995 96.18378 1.685255
v -4.308864 103.87999 10.352353
v 3.9665465 100.926834 11.483224
v -2.003784 106.06093 14.996214
v -4.9999995 104.6182 10.930353
v -4.9999995 106.92684 14.197951
v -4.9999995 107.77687 15.561702
v 2.0784185 107.28029 16.55022
v 4.9999995 99.61033 9.643315
v 4.9999995 100.2851 11.308361
v 4.9999995 98.28021 5.5037813
v 4.905662 98.34694 5.505405
v 4.9999995 83.22206 -7.152108
v 4.9999995 82.49606 -10.250119
v 2.7532346 83.70382 -12.7566805
v 3.6452956 84.3489 -6.9624577
v 4.9999995 106.100914 16.23147
v 4.9999995 103.80382 14.792494
v 2.0784185 107.28029 16.55022
v 3.9665465 100.926834 11.483224
v 4.9999995 101.546295 12.631544
v 4.9999995 100.2851 11.308361
v -4.9999995 113.58264 -38.648663
v -4.9999995 111.20077 -38.27077
v -3.7744527 111.15315 -38.77544
v -4.9999995 109.44902 -37.5442
v -4.9999995 97.51584 -33.642937
v -1.0579318 97.15895 -35.694603
v -0.65506357 89.606255 -31.582886
v -4.9999995 92.632805 -30.835476
v 4.9999995 105.72098 -40.046227
v 4.9999995 107.21146 -40.4668
v 4.9999995 116.65543 -40.291874
v 4.9999995 96.265625 -36.98377
v 4.9999995 92.23199 -34.72428
v 4.9999995 84.44793 -32.612873
v 2.845476 84.17165 -29.043907
v 4.9999995 83.03055 -30.604269
v -4.9999995 89.93169 -24.364252
v -4.9999995 88.79727 -22.531897
v -3.1577563 125.6935 15.846615
v -4.9999995 121.172455 18.939304
v -4.9999995 122.501076 18.033342
v 2.287542 125.470535 15.969452
v 1.6839635 129.67885 13.972246
v 4.9999995 128.00403 14.133439
v 4.9999995 126.44591 14.918938
v -4.9999995 120.46366 19.266771
v 4.9999995 123.42673 16.07796
v -0.43191332 120.372116 18.692196
v -4.9999995 117.55662 19.859905
v 4.9999995 122.83248 16.313375
v 4.9999995 118.476425 17.660408
v -4.6169086 116.590775 20.007217
v 4.9999995 117.450165 17.762232
v 4.9999995 114.869064 18.264101
v 0.12270735 112.16676 18.629852
v 4.9999995 113.3014 18.036861
v 4.9999995 110.13751 17.387257
v -4.9999995 113.86391 19.305689
v -4.9999995 115.77462 19.809229
v -4.8458056 110.541275 17.952694
v -4.9999995 111.13457 18.193905
v 2.0784185 107.28029 16.55022
v 4.9999995 109.189964 17.019344
v 4.9999995 106.100914 16.23147
v -4.6169086 116.590775 20.007217
v -4.9999995 116.60855 19.790518
v -4.9999995 117.55662 19.859905
v -4.9999995 115.77462 19.809229
v 1.1178836 84.86123 -19.730951
v 4.9999995 81.24533 -14.221174
v 4.9999995 81.18895 -14.93841
v 2.7532346 83.70382 -12.7566805
v 4.9999995 81.507805 -12.061747
v 4.9999995 82.49606 -10.250119
vt 0.26197153 0.9712772
vt 0.2586846 0.9721282
vt 0.26197153 0.9848593
vt 0.9878473 0.90007854
vt 0.9781715 0.8992572
vt 0.9878473 0.9076488
vt 0.8117523 0.32289958
vt 0.83724475 0.34533986
vt 0.83733153 0.32764098
vt 0.59326136 0.1383897
vt 0.5896328 0.13764648
vt 0.59108347 0.1409194
vt 0.34156606 0.9203287
vt 0.3415761 0.92034286
vt 0.3415761 0.92032975
vt 0.7603095 0.34510887
vt 0.78911006 0.34369186
vt 0.77039236 0.32712805
vt 0.747386 0.3347743
vt 0.75288177 0.31418782
vt 0.7611447 0.31370732
vt 0.7535481 0.3123368
vt 0.75243783 0.3121383
vt 0.7865066 0.3182788
vt 0.7962488 0.32003796
vt 0.78911006 0.34369186
vt 0.8248081 0.3572576
vt 0.80452025 0.32154828
vt 0.7884564 0.35936955
vt 0.7674106 0.3555359
vt 0.7883236 0.35935423
vt 0.7884724 0.35938147
vt 0.8196156 0.3651114
vt 0.8294719 0.3669024
vt 0.7884537 0.359378
vt 0.78846186 0.35937947
vt 0.7883236 0.35935423
vt 0.6988881 0.41879886
vt 0.6750572 0.41542518
vt 0.6889396 0.42640316
vt 0.5957841 0.17008205
vt 0.5956851 0.1704496
vt 0.60931337 0.17535894
vt 0.8694764 0.8574588
vt 0.8691392 0.8567296
vt 0.84440345 0.8680248
vt 0.86555636 0.86683774
vt 0.9680441 0.78225386
vt 0.9732339 0.7767256
vt 0.9618211 0.77646935
vt 0.9708147 0.78487587
vt 0.87152207 0.38075906
vt 0.8752523 0.37598646
vt 0.8713178 0.3747226
vt 0.8724303 0.40813494
vt 0.8752523 0.4095945
vt 0.557745 0.11764653
vt 0.55895394 0.11992683
vt 0.55927104 0.11944125
vt 0.560445 0.120546415
vt 0.57049334 0.12866491
vt 0.5685711 0.13848138
vt 0.55398536 0.13988473
vt 0.59108347 0.1409194
vt 0.6236255 0.16237901
vt 0.6207257 0.14412315
vt 0.63549596 0.15080778
vt 0.62908876 0.14485037
vt 0.6232463 0.14105853
vt 0.6449748 0.15682042
vt 0.6512711 0.17254485
vt 0.6566254 0.16705218
vt 0.6726007 0.17355934
vt 0.67280257 0.1755849
vt 0.6658941 0.19799325
vt 0.6483831 0.19869566
vt 0.635667 0.18605007
vt 0.6108575 0.17593262
vt 0.6108997 0.17597868
vt 0.6244447 0.19470146
vt 0.6284938 0.1977864
vt 0.6343771 0.20614049
vt 0.64126086 0.21148506
vt 0.6563483 0.21350728
vt 0.6489284 0.21579082
vt 0.6523374 0.21868055
vt 0.6556804 0.21931654
vt 0.67807704 0.21113172
vt 0.68778473 0.18697664
vt 0.23058009 0.8995214
vt 0.22320375 0.9105956
vt 0.24729559 0.91735375
vt 0.21866263 0.8897662
vt 0.2198567 0.89069545
vt 0.20070232 0.9109376
vt 0.21862076 0.8897337
vt 0.22323455 0.94076526
vt 0.24729559 0.91735375
vt 0.24377492 0.9449922
vt 0.22337562 0.94438994
vt 0.23382282 0.9525027
vt 0.23817879 0.95588946
vt 0.25890198 0.9359021
vt 0.24398305 0.909508
vt 0.24928795 0.9136457
vt 0.23080713 0.8992186
vt 0.23058009 0.8995214
vt 0.98167396 0.08366148
vt 0.9900004 0.0743316
vt 0.99000037 0.06080828
vt 0.9771022 0.08063018
vt 0.55074835 0.14773703
vt 0.5582701 0.15550727
vt 0.55398536 0.13988473
vt 0.5747066 0.16300043
vt 0.5681387 0.1626642
vt 0.57403636 0.16658804
vt 0.24246499 0.6704404
vt 0.24709153 0.6619382
vt 0.24238431 0.6596354
vt 0.25144053 0.65603554
vt 0.27885535 0.61500704
vt 0.26313818 0.60651314
vt 0.28273186 0.5812579
vt 0.29262823 0.59916353
vt 0.22180915 0.62617266
vt 0.21852568 0.63134927
vt 0.2037115 0.66636556
vt 0.2434709 0.593641
vt 0.2547223 0.5805069
vt 0.27169082 0.55340564
vt 0.28620207 0.55821747
vt 0.27820674 0.5497384
vt 0.31062195 0.5942379
vt 0.31631115 0.59147835
vt 0.7233977 0.42668766
vt 0.7427903 0.4381528
vt 0.7386802 0.4342414
vt 0.7081065 0.43279627
vt 0.6988881 0.41879886
vt 0.69208926 0.42816222
vt 0.6962629 0.43306917
vt 0.7446192 0.44041947
vt 0.7035027 0.44299674
vt 0.7300662 0.44597045
vt 0.75036967 0.45058233
vt 0.7049447 0.44494233
vt 0.7146311 0.4596415
vt 0.7510446 0.4543975
vt 0.71641016 0.46335348
vt 0.72145796 0.4724055
vt 0.74062306 0.47721365
vt 0.7232819 0.4785179
vt 0.72651726 0.49107474
vt 0.75462186 0.46500236
vt 0.75292766 0.4572906
vt 0.7560031 0.4791175
vt 0.7561257 0.47647148
vt 0.73739225 0.49979654
vt 0.72708154 0.49503565
vt 0.7298817 0.507473
vt 0.5444517 0.09863114
vt 0.5458972 0.097953595
vt 0.5445322 0.094409876
vt 0.5468335 0.10112184
vt 0.7030128 0.20026228
vt 0.6814887 0.22225969
vt 0.6839346 0.22201261
vt 0.67807704 0.21113172
vt 0.6740136 0.22265266
vt 0.6668229 0.22007537
vn 0.33097854 0.66833556 0.66616875
vn 0.244032 0.5594485 0.79212743
vn 0.13950238 0.5424753 0.8284079
vn -0.5254819 0.52578706 0.6688922
vn -0.27293226 0.5398217 0.7963043
vn -0.2167771 0.5633824 0.7972502
vn -0.6623856 -0.651826 -0.36928055
vn -0.52768755 -0.5488989 -0.6482714
vn -0.5226714 -0.60101414 -0.6046459
vn -0.5632409 -0.79338986 0.23085093
vn -0.4210414 -0.7698136 0.4796991
vn -0.46715355 -0.7930044 0.39103928
vn -0.41631126 -0.8713208 -0.2597787
vn -0.55405396 -0.8297686 -0.06714326
vn -0.6800898 -0.7119518 -0.17493603
vn -0.7070858 -0.69161284 0.14731336
vn -0.6242444 -0.7811142 0.013398028
vn -0.61122966 -0.7705987 0.18048795
vn -0.70700103 -0.6643356 0.24250327
vn -0.54419196 -0.7700968 0.3328754
vn -0.5608235 -0.798142 0.22010553
vn -0.51446414 -0.80574054 0.2934432
vn -0.47640884 -0.76609963 0.43142316
vn -0.5457508 -0.81389576 0.19932327
vn -0.53726625 -0.84005076 0.075230695
vn -0.6242444 -0.7811142 0.013398028
vn -0.5841141 -0.77220625 -0.25001636
vn -0.6010491 -0.78108305 -0.16926059
vn -0.55405396 -0.8297686 -0.06714326
vn -0.7074015 -0.70608926 0.03195347
vn -0.6608211 -0.74990517 -0.03094595
vn -0.41631126 -0.8713208 -0.2597787
vn -0.3607694 -0.9264154 -0.10770285
vn -0.59698 -0.7545795 -0.2724421
vn -0.36204872 -0.92308235 0.12976743
vn -0.6800898 -0.7119518 -0.17493603
vn -0.6608211 -0.74990517 -0.03094595
vn 0.13950238 0.5424753 0.8284079
vn 0.32665107 0.6111546 0.7209641
vn 0.33097854 0.66833556 0.66616875
vn -0.39482886 -0.8381835 0.37624258
vn -0.5381088 -0.7691367 0.3447717
vn -0.2186981 -0.85147595 0.47661287
vn -0.27293226 0.5398217 0.7963043
vn -0.19342841 0.6000614 0.7762162
vn 0.13950238 0.5424753 0.8284079
vn -0.2167771 0.5633824 0.7972502
vn -0.46248123 0.6955834 0.5497953
vn -0.2167771 0.5633824 0.7972502
vn -0.06671549 0.5897881 0.8047976
vn -0.5254819 0.52578706 0.6688922
vn -0.53580374 -0.8174395 0.21144044
vn -0.7001072 -0.6216733 0.35124385
vn -0.4953272 -0.7437843 0.44881594
vn -0.5632409 -0.79338986 0.23085093
vn -0.46715355 -0.7930044 0.39103928
vn -0.03256401 -0.38365716 0.9229013
vn -0.19926226 -0.49160922 0.84771156
vn -0.38362303 -0.47234154 0.79355335
vn -0.24616845 -0.6185036 0.7462267
vn -0.27449223 -0.6974617 0.6619676
vn -0.2362179 -0.69931483 0.6746554
vn -0.05682693 -0.48537886 0.8724551
vn -0.46715355 -0.7930044 0.39103928
vn -0.5139972 -0.6427254 0.5680765
vn -0.7001072 -0.6216733 0.35124385
vn -0.6753631 -0.4938034 0.5477616
vn -0.6479226 -0.46990407 0.59948856
vn -0.4953272 -0.7437843 0.44881594
vn -0.640349 -0.55132514 0.5347839
vn -0.600413 -0.6222346 0.50232285
vn -0.4717951 -0.6603422 0.5842581
vn -0.47640884 -0.76609963 0.43142316
vn -0.54419196 -0.7700968 0.3328754
vn -0.70700103 -0.6643356 0.24250327
vn -0.62659144 -0.61505514 0.47863397
vn -0.45357397 -0.55807126 0.69485754
vn -0.15531208 -0.68219507 0.7144844
vn -0.16306286 -0.470511 0.8671966
vn -0.29951245 -0.5081701 0.80749947
vn -0.375233 -0.5543499 0.7428972
vn -0.53030914 -0.4273359 0.73222697
vn -0.5106838 -0.6286419 0.5865249
vn -0.65313953 -0.6808509 0.33143756
vn -0.5537469 -0.61225283 0.56436765
vn -0.6185631 -0.6357148 0.461786
vn -0.6060216 -0.76514924 0.21744995
vn -0.7070858 -0.69161284 0.14731336
vn -0.61122966 -0.7705987 0.18048795
vn -0.39482886 -0.8381835 0.37624258
vn -0.24347983 -0.8571541 0.45387718
vn -0.34673074 -0.7737886 0.53012174
vn -0.18534465 -0.8468234 0.49853534
vn -0.2186981 -0.85147595 0.47661287
vn -0.5139972 -0.6427254 0.5680765
vn -0.15531208 -0.68219507 0.7144844
vn -0.46715355 -0.7930044 0.39103928
vn -0.34673074 -0.7737886 0.53012174
vn -0.2362179 -0.69931483 0.6746554
vn -0.4210414 -0.7698136 0.4796991
vn -0.3619013 -0.77602166 0.51654404
vn -0.27449223 -0.6974617 0.6619676
vn -0.05682693 -0.48537886 0.8724551
vn -0.54056436 -0.7977536 0.26716918
vn -0.4115564 -0.7877101 0.4584039
vn -0.5381088 -0.7691367 0.3447717
vn -0.39482886 -0.8381835 0.37624258
vn -0.6060216 -0.76514924 0.21744995
vn -0.64963454 -0.7234302 0.23371707
vn -0.7070858 -0.69161284 0.14731336
vn -0.65313953 -0.6808509 0.33143756
vn -0.07416264 -0.42730498 0.90106076
vn -0.313922 -0.6251278 0.7146105
vn -0.05682693 -0.48537886 0.8724551
vn -0.34673074 -0.7737886 0.53012174
vn -0.3514893 -0.6544837 0.66940755
vn -0.4115564 -0.7877101 0.4584039
vn -0.38155553 -0.1448153 -0.9129315
vn -0.37652144 -0.25657904 -0.89016783
vn -0.3382445 -0.20063335 -0.91942203
vn -0.4462235 -0.29060528 -0.84642375
vn -0.4551957 -0.36849025 -0.8105627
vn -0.3519777 -0.36897692 -0.8602137
vn -0.52768755 -0.5488989 -0.6482714
vn -0.5226714 -0.60101414 -0.6046459
vn -0.28410757 -0.26698604 -0.9208699
vn -0.25450245 -0.1571146 -0.954224
vn -0.18134217 0.01818915 -0.9832518
vn -0.24635448 -0.39065135 -0.88696164
vn -0.29628178 -0.39968136 -0.86745137
vn -0.58814317 -0.52130526 -0.6183271
vn -0.5841141 -0.77220625 -0.25001636
vn -0.59698 -0.7545795 -0.2724421
vn -0.6623856 -0.651826 -0.36928055
vn -0.6010491 -0.78108305 -0.16926059
vn -0.2167771 0.5633824 0.7972502
vn 0.08652298 0.4628598 0.88219875
vn -0.06671549 0.5897881 0.8047976
vn 0.13696845 0.41868773 0.8977417
vn 0.13950238 0.5424753 0.8284079
vn 0.244032 0.5594485 0.79212743
vn 0.19764268 0.40956834 0.8906128
vn 0.12479189 0.30793592 0.9431874
vn 0.2315159 0.35533082 0.90561604
vn 0.18583211 0.26438883 0.94634295
vn 0.04345956 0.16745968 0.98492056
vn 0.24748398 0.3332137 0.9097913
vn 0.24213813 0.1743248 0.95445275
vn -0.10962586 -0.01654154 0.99383533
vn 0.21338743 0.13821962 0.9671407
vn 0.17926963 0.005310336 0.9837856
vn 0.083592094 -0.27314687 0.95833355
vn 0.15708329 -0.16651377 0.97344637
vn 0.11493552 -0.30299515 0.94603586
vn 0.025178505 -0.3032713 0.9525716
vn -0.040621396 -0.21748166 0.9752187
vn -0.19926226 -0.49160922 0.84771156
vn -0.03256401 -0.38365716 0.9229013
vn -0.05682693 -0.48537886 0.8724551
vn 0.06155804 -0.32591885 0.9433915
vn -0.07416264 -0.42730498 0.90106076
vn -0.10962586 -0.01654154 0.99383533
vn -0.4930037 -0.022736643 0.86973006
vn 0.04345956 0.16745968 0.98492056
vn -0.040621396 -0.21748166 0.9752187
vn -0.6242444 -0.7811142 0.013398028
vn -0.7170751 -0.6939722 0.064852946
vn -0.7074015 -0.70608926 0.03195347
vn -0.7070858 -0.69161284 0.14731336
vn -0.7158454 -0.66500133 0.21292862
vn -0.64963454 -0.7234302 0.23371707
g terrainMesh.017_0
f 3/3/3 2/2/2 1/1/1
f 6/6/6 5/5/5 4/4/4
f 9/9/9 8/8/8 7/7/7
f 12/12/12 11/11/11 10/10/10
f 15/15/15 14/14/14 13/13/13
f 18/18/18 17/17/17 16/16/16
f 20/20/20 18/18/18 19/19/19
f 20/20/20 21/21/21 18/18/18
f 21/21/21 20/20/20 22/22/22
f 22/22/22 20/20/20 23/23/23
f 21/21/21 24/24/24 18/18/18
f 24/24/24 25/25/25 18/18/18
f 25/25/25 26/26/26 18/18/18
f 26/26/26 25/25/25 27/27/27
f 25/25/25 28/28/28 27/27/27
f 26/26/26 27/27/27 29/29/29
f 30/30/30 26/26/26 29/29/29
f 31/31/31 30/30/30 29/29/29
f 29/29/29 27/27/27 32/32/32
f 27/27/27 33/33/33 32/32/32
f 34/34/34 33/33/33 27/27/27
f 36/36/36 35/35/35 29/29/29
f 35/35/35 37/37/37 29/29/29
f 40/40/40 39/39/39 38/38/38
f 43/43/43 42/42/42 41/41/41
f 46/46/46 45/45/45 44/44/44
f 47/47/47 46/46/46 44/44/44
f 50/50/50 49/49/49 48/48/48
f 51/51/51 48/48/48 49/49/49
f 54/54/54 53/53/53 52/52/52
f 55/55/55 52/52/52 53/53/53
f 56/56/56 55/55/55 53/53/53
f 59/59/59 58/58/58 57/57/57
f 58/58/58 59/59/59 60/60/60
f 60/60/60 61/61/61 58/58/58
f 61/61/61 62/62/62 58/58/58
f 63/63/63 58/58/58 62/62/62
f 66/66/66 65/65/65 64/64/64
f 67/67/67 65/65/65 66/66/66
f 68/68/68 67/67/67 66/66/66
f 69/69/69 68/68/68 66/66/66
f 67/67/67 70/70/70 65/65/65
f 70/70/70 71/71/71 65/65/65
f 71/71/71 70/70/70 72/72/72
f 72/72/72 73/73/73 71/71/71
f 73/73/73 74/74/74 71/71/71
f 71/71/71 74/74/74 75/75/75
f 71/71/71 75/75/75 76/76/76
f 65/65/65 71/71/71 77/77/77
f 76/76/76 77/77/77 71/71/71
f 78/78/78 65/65/65 77/77/77
f 79/79/79 78/78/78 77/77/77
f 77/77/77 80/80/80 79/79/79
f 77/77/77 76/76/76 80/80/80
f 76/76/76 81/81/81 80/80/80
f 81/81/81 76/76/76 82/82/82
f 83/83/83 82/82/82 76/76/76
f 76/76/76 84/84/84 83/83/83
f 84/84/84 76/76/76 75/75/75
f 84/84/84 85/85/85 83/83/83
f 86/86/86 85/85/85 84/84/84
f 87/87/87 86/86/86 84/84/84
f 84/84/84 75/75/75 88/88/88
f 89/89/89 88/88/88 75/75/75
f 92/92/92 91/91/91 90/90/90
f 91/91/91 93/93/93 90/90/90
f 93/93/93 94/94/94 90/90/90
f 93/93/93 91/91/91 95/95/95
f 96/96/96 93/93/93 95/95/95
f 97/97/97 95/95/95 91/91/91
f 97/97/97 91/91/91 98/98/98
f 99/99/99 97/97/97 98/98/98
f 97/97/97 99/99/99 100/100/100
f 99/99/99 101/101/101 100/100/100
f 102/102/102 101/101/101 99/99/99
f 98/98/98 103/103/103 99/99/99
f 105/105/105 98/98/98 104/104/104
f 106/106/106 104/104/104 98/98/98
f 107/107/107 106/106/106 98/98/98
f 110/110/110 109/109/109 108/108/108
f 111/111/111 110/110/110 108/108/108
f 114/114/114 113/113/113 112/112/112
f 113/113/113 114/114/114 115/115/115
f 116/116/116 113/113/113 115/115/115
f 117/117/117 116/116/116 115/115/115
f 120/120/120 119/119/119 118/118/118
f 120/120/120 121/121/121 119/119/119
f 122/122/122 121/121/121 120/120/120
f 123/123/123 122/122/122 120/120/120
f 122/122/122 123/123/123 124/124/124
f 125/125/125 122/122/122 124/124/124
f 123/123/123 120/120/120 126/126/126
f 120/120/120 127/127/127 126/126/126
f 128/128/128 127/127/127 120/120/120
f 129/129/129 123/123/123 126/126/126
f 129/129/129 130/130/130 123/123/123
f 130/130/130 124/124/124 123/123/123
f 131/131/131 124/124/124 130/130/130
f 124/124/124 131/131/131 132/132/132
f 131/131/131 133/133/133 132/132/132
f 134/134/134 124/124/124 132/132/132
f 135/135/135 134/134/134 132/132/132
f 138/138/138 137/137/137 136/136/136
f 137/137/137 139/139/139 136/136/136
f 140/140/140 136/136/136 139/139/139
f 140/140/140 139/139/139 141/141/141
f 139/139/139 142/142/142 141/141/141
f 137/137/137 143/143/143 139/139/139
f 142/142/142 139/139/139 144/144/144
f 143/143/143 145/145/145 139/139/139
f 144/144/144 139/139/139 145/145/145
f 143/143/143 146/146/146 145/145/145
f 147/147/147 144/144/144 145/145/145
f 145/145/145 148/148/148 147/147/147
f 146/146/146 149/149/149 145/145/145
f 148/148/148 145/145/145 149/149/149
f 150/150/150 148/148/148 149/149/149
f 151/151/151 150/150/150 149/149/149
f 151/151/151 149/149/149 152/152/152
f 153/153/153 151/151/151 152/152/152
f 154/154/154 153/153/153 152/152/152
f 155/155/155 152/152/152 149/149/149
f 156/156/156 155/155/155 149/149/149
f 152/152/152 155/155/155 157/157/157
f 155/155/155 158/158/158 157/157/157
f 159/159/159 152/152/152 157/157/157
f 154/154/154 152/152/152 159/159/159
f 160/160/160 154/154/154 159/159/159
f 161/161/161 160/160/160 159/159/159
f 164/164/164 163/163/163 162/162/162
f 163/163/163 165/165/165 162/162/162
f 168/168/168 167/167/167 166/166/166
f 167/167/167 169/169/169 166/166/166
f 169/169/169 167/167/167 170/170/170
f 170/170/170 171/171/171 169/169/169
