g terrainMesh.061
v 4.9999995 9.999999 -0.2915748
v 5.057731 9.999999 -0.36192155
v 4.9999995 9.952762 -0.37679312
v 5.1046257 9.999999 -0.47825003
v 4.9999995 9.933526 -0.44116616
v 5.11534 9.999999 -0.6287352
v 4.9999995 9.922837 -0.6714862
v 5.003062 9.924472 -0.67927736
v 5.1118507 9.999999 -0.7181414
v 4.9999995 9.92191 -0.6776571
v 4.9999995 9.922277 -0.6797034
v 5.04637 9.999999 -0.8047906
v 4.9999995 9.924361 -0.6827464
v 4.9999995 9.999999 -0.8612628
vt 0.9464798 0.50270456
vt 0.9461626 0.5025204
vt 0.94613993 0.50276124
vt 0.94566953 0.5024091
vt 0.94588345 0.5028035
vt 0.94506395 0.5024639
vt 0.94496703 0.50295293
vt 0.94493407 0.5029457
vt 0.9447105 0.5025356
vt 0.9449425 0.5029569
vt 0.94493437 0.50295824
vt 0.9444082 0.5028522
vt 0.94492227 0.50296015
vt 0.9442136 0.5030732
vn 0.50863427 -0.75303274 0.41741216
vn 0.55181545 -0.7729872 0.31303418
vn 0.5564474 -0.7746561 0.30045658
vn 0.55943877 -0.82226616 0.10443509
vn 0.5674768 -0.8096784 0.14963636
vn 0.55334604 -0.83281165 0.015259669
vn 0.5666698 -0.82241595 0.050172623
vn 0.550667 -0.81838584 -0.1643486
vn 0.5153217 -0.8369972 -0.18406306
vn 0.64701104 -0.76228285 0.017365532
vn 0.583042 -0.75590384 -0.2977775
vn 0.43663824 -0.82942045 -0.34843776
vn 0.4677951 -0.79431784 -0.3875912
vn 0.4291282 -0.8316744 -0.35237283
g terrainMesh.061_0
f 3/3/3 2/2/2 1/1/1
f 2/2/2 3/3/3 4/4/4
f 3/3/3 5/5/5 4/4/4
f 6/6/6 4/4/4 5/5/5
f 6/6/6 5/5/5 7/7/7
f 7/7/7 8/8/8 6/6/6
f 9/9/9 6/6/6 8/8/8
f 8/8/8 7/7/7 10/10/10
f 10/10/10 11/11/11 8/8/8
f 9/9/9 8/8/8 12/12/12
f 11/11/11 13/13/13 8/8/8
f 8/8/8 13/13/13 12/12/12
f 13/13/13 14/14/14 12/12/12
