g terrainMesh.033
v -34.4693 -9.999999 13.682912
v -35.571934 -9.999999 16.292171
v -34.361378 -12.490889 15.01001
v -32.707745 -15.38867 14.131817
v -33.354107 -16.334105 17.968803
v -31.434946 -14.813475 19.47293
v -27.993183 -12.833296 19.866035
v -29.162872 -14.42494 19.844734
v -31.434946 -14.813475 19.47293
v -29.162872 -14.42494 19.844734
v -29.43841 -17.798399 18.774155
v -32.707745 -15.38867 14.131817
v -29.966022 -16.973738 12.214972
v -32.38057 -12.118269 11.771485
v -34.361378 -12.490889 15.01001
v -34.27842 -9.999999 13.39233
v -34.4693 -9.999999 13.682912
v -24.999996 -16.995958 6.9996743
v -24.999996 -16.982714 6.9736857
v -25.010885 -16.981428 6.9793406
v -24.999996 -17.981577 9.069745
v -26.910847 -17.312513 9.451821
v -24.999996 -18.500647 10.534943
v -26.270515 -18.7144 12.648067
v -24.999996 -18.842777 12.142055
v -24.999996 -18.865852 13.568577
v -29.966022 -16.973738 12.214972
v -24.999996 -18.982866 15.896938
v -30.627857 -17.85118 15.282654
v -32.707745 -15.38867 14.131817
v -33.354107 -16.334105 17.968803
v -29.43841 -17.798399 18.774155
v -26.97582 -18.84889 16.486168
v -24.999996 -18.658665 18.70331
v -24.999996 -18.542604 19.158634
v -33.354107 -16.334105 17.968803
v -31.434946 -14.813475 19.47293
v -29.43841 -17.798399 18.774155
v -34.638447 -12.441999 17.999928
v -31.387718 -11.570693 19.625484
v -34.361378 -12.490889 15.01001
v -32.064976 -9.999999 19.431313
v -35.571934 -9.999999 16.292171
v -33.62135 -9.999999 18.687433
v -35.612896 -9.999999 16.771572
v -24.999996 -18.215906 19.25863
v -24.999996 -18.542604 19.158634
v -29.43841 -17.798399 18.774155
v -29.162872 -14.42494 19.844734
v -24.999996 -16.982714 6.9736857
v -24.999996 -16.921822 6.902838
v -25.010885 -16.981428 6.9793406
v -29.324657 -15.209883 9.785724
v -26.910847 -17.312513 9.451821
v -29.966022 -16.973738 12.214972
v -24.999996 -15.185149 5.021455
v -29.384272 -10.10086 5.2801604
v -24.999996 -14.840035 4.7126894
v -24.999996 -12.127449 2.4962428
v -32.38057 -12.118269 11.771485
v -24.999996 -12.007868 2.379798
v -26.942469 -9.999999 2.5323517
v -24.999996 -9.999999 1.1037765
v -29.405804 -9.999999 5.205309
v -29.488266 -9.999999 5.3114786
v -30.721079 -11.488036 8.772923
v -31.256695 -9.999999 7.8189573
v -31.925503 -9.999999 9.4131975
v -32.821243 -9.999999 10.763139
v -34.27842 -9.999999 13.39233
v -24.999996 -18.215906 19.25863
v -29.162872 -14.42494 19.844734
v -24.999996 -15.920352 19.855034
v -24.999996 -13.585554 19.931337
v -27.993183 -12.833296 19.866035
v -24.999996 -13.2426 19.93057
v -27.911121 -9.999999 19.8589
v -24.999996 -12.50802 19.92827
v -24.999996 -9.999999 19.923603
v -28.30182 -9.999999 19.850643
v -28.92476 -9.999999 19.805946
v -31.387718 -11.570693 19.625484
v -32.064976 -9.999999 19.431313
v -31.434946 -14.813475 19.47293
vt 0.38627535 0.43099344
vt 0.38823414 0.42164212
vt 0.3769383 0.426103
vt 0.36382896 0.4307283
vt 0.36217436 0.419262
vt 0.29487613 0.99858123
vt 0.29487613 0.9877567
vt 0.29166973 0.99312097
vt 0.03821077 0.98241884
vt 0.032076214 0.98412275
vt 0.03821077 0.9966672
vt 0.36382896 0.4307283
vt 0.35453433 0.44239068
vt 0.37544754 0.44003657
vt 0.3769383 0.426103
vt 0.38599935 0.43225536
vt 0.38627535 0.43099344
vt 0.12284083 0.93146896
vt 0.12291696 0.9315405
vt 0.122930154 0.9314928
vt 0.1167744 0.92577577
vt 0.12087311 0.9190934
vt 0.11247386 0.92174685
vt 0.10974245 0.91219175
vt 0.10774827 0.9173286
vt 0.103543155 0.91340804
vt 0.12110801 0.9024912
vt 0.09668258 0.90700865
vt 0.11391463 0.892105
vt 0.12293016 0.8891445
vt 0.11342859 0.8766894
vt 0.100350074 0.8860174
vt 0.100369126 0.89956313
vt 0.088396065 0.8992974
vt 0.08704923 0.8980466
vt 0.86746633 0.42318556
vt 0.87764984 0.42687875
vt 0.8772882 0.41343108
vt 0.86772645 0.4396293
vt 0.880626 0.43945044
vt 0.85819477 0.43986735
vt 0.8797025 0.4462913
vt 0.86180305 0.45047724
vt 0.87394655 0.4479967
vt 0.8633328 0.45040506
vt 0.50833833 0.97575617
vt 0.50751746 0.9746504
vt 0.49923164 0.98392
vt 0.50833833 0.9949189
vt 0.34822625 0.47007692
vt 0.34843722 0.4702901
vt 0.34824276 0.4700303
vt 0.35995284 0.45147806
vt 0.34952772 0.4580939
vt 0.35453433 0.44239068
vt 0.3545088 0.4760615
vt 0.37826803 0.46598363
vt 0.35574082 0.47706416
vt 0.365507 0.48447892
vt 0.37544754 0.44003657
vt 0.3659302 0.48484734
vt 0.37551224 0.4800723
vt 0.37330192 0.48952806
vt 0.37865242 0.46617284
vt 0.3787641 0.4656706
vt 0.3753337 0.45263577
vt 0.3812489 0.45438838
vt 0.38244155 0.44869062
vt 0.38373142 0.4427991
vt 0.38599935 0.43225536
vt 0.18955487 0.40211433
vt 0.2037196 0.38726574
vt 0.19098365 0.392742
vt 0.19106135 0.38333303
vt 0.20008521 0.38070804
vt 0.19104171 0.38195375
vt 0.19966766 0.36930284
vt 0.1909979 0.3789996
vt 0.19085664 0.36891273
vt 0.20085129 0.3693551
vt 0.20265669 0.36944574
vt 0.20986605 0.37612286
vt 0.2113704 0.3699376
vt 0.20978299 0.38920787
vn -0.8344296 -0.2868514 -0.47057787
vn -0.91795963 -0.35408494 -0.1788126
vn -0.8854515 -0.33690068 -0.32011515
vn -0.7545311 -0.4999688 -0.42510468
vn -0.723584 -0.5930221 0.35320082
vn -0.29954022 -0.19824894 0.9332593
vn -0.050051577 0.0028993287 0.9987425
vn -0.120945565 -0.0778837 0.9895991
vn -0.29954022 -0.19824894 0.9332593
vn -0.120945565 -0.0778837 0.9895991
vn -0.2706183 -0.73381597 0.62312096
vn -0.7545311 -0.4999688 -0.42510468
vn -0.5724223 -0.6855578 -0.4498258
vn -0.7690943 -0.37539124 -0.51727694
vn -0.8854515 -0.33690068 -0.32011515
vn -0.7983256 -0.3295481 -0.5040578
vn -0.8344296 -0.2868514 -0.47057787
vn -0.3661424 -0.8386453 -0.40325415
vn -0.36815816 -0.7595723 -0.5361992
vn -0.45861074 -0.7293152 -0.50771594
vn -0.37144598 -0.8573381 -0.35636964
vn -0.4833938 -0.7566323 -0.4402702
vn -0.33656752 -0.8949498 -0.29289433
vn -0.24266101 -0.95370567 -0.17765434
vn -0.15195476 -0.9793895 -0.1330634
vn -0.0897568 -0.9951683 -0.039796963
vn -0.5724223 -0.6855578 -0.4498258
vn -0.062532544 -0.9978961 0.017120915
vn -0.46413183 -0.8752217 -0.136267
vn -0.7545311 -0.4999688 -0.42510468
vn -0.723584 -0.5930221 0.35320082
vn -0.2706183 -0.73381597 0.62312096
vn -0.17087413 -0.9825187 0.07388575
vn -0.1470431 -0.9657295 0.21388087
vn -0.17896518 -0.72211725 0.66822016
vn -0.723584 -0.5930221 0.35320082
vn -0.29954022 -0.19824894 0.9332593
vn -0.2706183 -0.73381597 0.62312096
vn -0.8352238 -0.20887463 0.5086969
vn -0.24531311 -0.01733489 0.9692889
vn -0.8854515 -0.33690068 -0.32011515
vn -0.32011092 -0.020935846 0.9471487
vn -0.91795963 -0.35408494 -0.1788126
vn -0.5300264 -0.017914752 0.84779197
vn -0.93956107 -0.2672863 0.21396942
vn -0.12061248 -0.27970982 0.9524784
vn -0.17896518 -0.72211725 0.66822016
vn -0.2706183 -0.73381597 0.62312096
vn -0.120945565 -0.0778837 0.9895991
vn -0.36815816 -0.7595723 -0.5361992
vn -0.589118 -0.59461147 -0.54715365
vn -0.45861074 -0.7293152 -0.50771594
vn -0.67700464 -0.50216085 -0.53805125
vn -0.4833938 -0.7566323 -0.4402702
vn -0.5724223 -0.6855578 -0.4498258
vn -0.62161005 -0.54042965 -0.5670422
vn -0.6582961 -0.52672845 -0.53777635
vn -0.62767845 -0.510273 -0.58791256
vn -0.61572033 -0.52565885 -0.58700204
vn -0.7690943 -0.37539124 -0.51727694
vn -0.58895147 -0.5229393 -0.61617416
vn -0.5896304 -0.523709 -0.6148698
vn -0.5273724 -0.45571327 -0.71708
vn -0.6360558 -0.5427884 -0.548465
vn -0.67783594 -0.5460227 -0.49233904
vn -0.76280516 -0.44842345 -0.46588063
vn -0.7304187 -0.5350646 -0.42449313
vn -0.7778896 -0.43411416 -0.45434883
vn -0.78276855 -0.39266607 -0.48279065
vn -0.7983256 -0.3295481 -0.5040578
vn -0.12061248 -0.27970982 0.9524784
vn -0.120945565 -0.0778837 0.9895991
vn -0.062106006 -0.166145 0.9841436
vn -0.018158972 -0.013001214 0.99975055
vn -0.050051577 0.0028993287 0.9987425
vn -0.021180192 0.0026246347 0.99977225
vn -0.021363208 0.002838255 0.9997677
vn -0.021424223 0.0027772142 0.99976665
vn -0.022218056 0.0018311584 0.9997515
vn -0.048097283 0.0001831115 0.9988426
vn -0.08002186 0.0109564625 0.99673295
vn -0.24531311 -0.01733489 0.9692889
vn -0.32011092 -0.020935846 0.9471487
vn -0.29954022 -0.19824894 0.9332593
g terrainMesh.033_0
f 3/3/3 2/2/2 1/1/1
f 5/5/5 3/3/3 4/4/4
f 8/8/8 7/7/7 6/6/6
f 11/11/11 10/10/10 9/9/9
f 14/14/14 13/13/13 12/12/12
f 14/14/14 12/12/12 15/15/15
f 16/16/16 14/14/14 15/15/15
f 17/17/17 16/16/16 15/15/15
f 20/20/20 19/19/19 18/18/18
f 20/20/20 18/18/18 21/21/21
f 22/22/22 20/20/20 21/21/21
f 21/21/21 23/23/23 22/22/22
f 23/23/23 24/24/24 22/22/22
f 24/24/24 23/23/23 25/25/25
f 25/25/25 26/26/26 24/24/24
f 24/24/24 27/27/27 22/22/22
f 24/24/24 26/26/26 28/28/28
f 27/27/27 24/24/24 29/29/29
f 27/27/27 29/29/29 30/30/30
f 29/29/29 31/31/31 30/30/30
f 32/32/32 31/31/31 29/29/29
f 33/33/33 24/24/24 28/28/28
f 33/33/33 29/29/29 24/24/24
f 33/33/33 32/32/32 29/29/29
f 33/33/33 28/28/28 34/34/34
f 35/35/35 32/32/32 33/33/33
f 34/34/34 35/35/35 33/33/33
f 38/38/38 37/37/37 36/36/36
f 39/39/39 36/36/36 37/37/37
f 37/37/37 40/40/40 39/39/39
f 41/41/41 36/36/36 39/39/39
f 40/40/40 42/42/42 39/39/39
f 43/43/43 41/41/41 39/39/39
f 42/42/42 44/44/44 39/39/39
f 45/45/45 43/43/43 39/39/39
f 45/45/45 39/39/39 44/44/44
f 48/48/48 47/47/47 46/46/46
f 49/49/49 48/48/48 46/46/46
f 52/52/52 51/51/51 50/50/50
f 52/52/52 53/53/53 51/51/51
f 54/54/54 53/53/53 52/52/52
f 53/53/53 54/54/54 55/55/55
f 53/53/53 56/56/56 51/51/51
f 53/53/53 57/57/57 56/56/56
f 57/57/57 58/58/58 56/56/56
f 59/59/59 58/58/58 57/57/57
f 55/55/55 60/60/60 53/53/53
f 61/61/61 59/59/59 57/57/57
f 57/57/57 62/62/62 61/61/61
f 63/63/63 61/61/61 62/62/62
f 57/57/57 64/64/64 62/62/62
f 64/64/64 57/57/57 65/65/65
f 57/57/57 53/53/53 66/66/66
f 57/57/57 66/66/66 65/65/65
f 66/66/66 53/53/53 60/60/60
f 66/66/66 67/67/67 65/65/65
f 66/66/66 68/68/68 67/67/67
f 68/68/68 66/66/66 60/60/60
f 69/69/69 68/68/68 60/60/60
f 60/60/60 70/70/70 69/69/69
f 73/73/73 72/72/72 71/71/71
f 73/73/73 74/74/74 72/72/72
f 72/72/72 74/74/74 75/75/75
f 74/74/74 76/76/76 75/75/75
f 77/77/77 75/75/75 76/76/76
f 76/76/76 78/78/78 77/77/77
f 78/78/78 79/79/79 77/77/77
f 77/77/77 80/80/80 75/75/75
f 75/75/75 80/80/80 81/81/81
f 82/82/82 75/75/75 81/81/81
f 81/81/81 83/83/83 82/82/82
f 84/84/84 75/75/75 82/82/82
