g terrainMesh.066
v 5.0896754 19.999998 -0.39246207
v 5.0890436 19.999998 -0.37548915
v 5.088778 19.99026 -0.39500883
v 4.9999995 19.767443 -1.0516078
v 4.9999995 19.86467 -1.1237032
v 5.1060233 19.945833 -1.0744413
v 5.128934 19.999998 -1.0157847
v 5.1281023 19.999998 -1.0753816
v 5.088778 19.99026 -0.39500883
v 5.0938854 19.999998 -0.40177506
v 5.0644174 19.999998 -0.3763828
v 5.088778 19.99026 -0.39500883
v 5.0890436 19.999998 -0.37548915
v 5.1060233 19.945833 -1.0744413
v 4.9999995 19.856438 -0.96783847
v 4.9999995 19.767443 -1.0516078
v 5.0644174 19.999998 -0.3763828
v 4.9999995 19.999998 -0.35622177
v 4.9999995 19.977182 -0.381996
v 5.088778 19.99026 -0.39500883
v 4.9999995 19.902338 -0.45244145
v 5.0988274 19.999998 -1.0812666
v 5.1281023 19.999998 -1.0753816
v 5.1060233 19.945833 -1.0744413
v 5.078831 19.999998 -1.0869335
v 5.027823 19.999998 -1.1087775
v 4.9999995 19.999998 -1.121332
v 4.9999995 19.86467 -1.1237032
v 5.1060233 19.945833 -1.0744413
v 5.088778 19.99026 -0.39500883
v 4.9999995 19.902338 -0.45244145
v 4.9999995 19.856438 -0.96783847
v 5.088778 19.99026 -0.39500883
v 5.091141 19.999998 -0.39517096
v 5.0896754 19.999998 -0.39246207
v 5.0938854 19.999998 -0.40177506
vt 0.907232 0.99754655
vt 0.9071802 0.9975254
vt 0.907232 0.9975871
vt 0.9965715 0.30081934
vt 0.99618375 0.30101
vt 0.99639416 0.30145222
vt 0.99649805 0.30177015
vt 0.9963341 0.3016503
vt 0.9981164 0.30295563
vt 0.99809015 0.3029787
vt 0.33821973 0.71195835
vt 0.33830997 0.71187395
vt 0.33823103 0.71185976
vt 0.49992406 0.9687344
vt 0.50055957 0.9684477
vt 0.5004168 0.96807885
vt 0.33821973 0.71195835
vt 0.3381006 0.7122029
vt 0.33820644 0.7122218
vt 0.33830997 0.71187395
vt 0.33849743 0.71227527
vt 0.9962529 0.3016209
vt 0.9963341 0.3016503
vt 0.99639416 0.30145222
vt 0.99619293 0.3015975
vt 0.99601984 0.30152306
vt 0.99592376 0.30148116
vt 0.99618375 0.30101
vt 0.34103245 0.7122182
vt 0.33830997 0.71187395
vt 0.33849743 0.71227527
vt 0.34055644 0.7125904
vt 0.73520833 0.40914047
vt 0.73519737 0.40917885
vt 0.73520833 0.40917936
vt 0.73517334 0.40917778
vn -0.9620729 0.14859577 -0.2287685
vn -0.2677128 0.86362714 -0.42717466
vn -0.68237734 0.63369936 -0.36439848
vn -0.85933733 0.5113846 0.0050051967
vn -0.5846305 0.30821592 0.75047326
vn -0.77986467 0.3926028 0.48751843
vn -0.90618557 0.42141354 -0.035189003
vn -0.7725004 0.32435736 0.54592633
vn -0.68237734 0.63369936 -0.36439848
vn -0.9144094 0.37681773 -0.14786442
vn -0.15699059 0.77588874 -0.6110242
vn -0.68237734 0.63369936 -0.36439848
vn -0.2677128 0.86362714 -0.42717466
vn -0.77986467 0.3926028 0.48751843
vn -0.7512936 0.61941963 -0.22776552
vn -0.85933733 0.5113846 0.0050051967
vn -0.15699059 0.77588874 -0.6110242
vn -0.2031085 0.7331743 -0.64900106
vn -0.20344134 0.7028583 -0.6816169
vn -0.68237734 0.63369936 -0.36439848
vn -0.5955872 0.763841 -0.24864201
vn -0.23786753 0.090245605 0.967096
vn -0.7725004 0.32435736 0.54592633
vn -0.77986467 0.3926028 0.48751843
vn -0.35292354 0.03842362 0.9348629
vn -0.4080973 -0.010498464 0.91287804
vn -0.41124234 -0.01596139 0.91138625
vn -0.5846305 0.30821592 0.75047326
vn -0.77986467 0.3926028 0.48751843
vn -0.68237734 0.63369936 -0.36439848
vn -0.5955872 0.763841 -0.24864201
vn -0.7512936 0.61941963 -0.22776552
vn -0.68237734 0.63369936 -0.36439848
vn -0.8845487 0.20768566 -0.41766036
vn -0.9620729 0.14859577 -0.2287685
vn -0.9144094 0.37681773 -0.14786442
g terrainMesh.066_0
f 3/3/3 2/2/2 1/1/1
f 6/6/6 5/5/5 4/4/4
f 8/8/8 6/6/6 7/7/7
f 7/7/7 6/6/6 9/9/9
f 10/10/10 7/7/7 9/9/9
f 13/13/13 12/12/12 11/11/11
f 16/16/16 15/15/15 14/14/14
f 19/19/19 18/18/18 17/17/17
f 20/20/20 19/19/19 17/17/17
f 19/19/19 20/20/20 21/21/21
f 24/24/24 23/23/23 22/22/22
f 25/25/25 24/24/24 22/22/22
f 25/25/25 26/26/26 24/24/24
f 26/26/26 27/27/27 24/24/24
f 27/27/27 28/28/28 24/24/24
f 31/31/31 30/30/30 29/29/29
f 32/32/32 31/31/31 29/29/29
f 35/35/35 34/34/34 33/33/33
f 34/34/34 36/36/36 33/33/33
