g ArtifactFormulaHolderCarvedRightInnerMesh
v 1.5706959 -0.94912416 -7.238038
v 1.7315617 -0.94912416 -7.319749
v 1.6767292 -0.76748484 -7.3381805
v 1.6182213 -0.6805248 -7.33062
v 1.6588192 -0.6853236 -7.3465176
v 1.5094337 -0.94912416 -7.2069206
v 1.9881916 -0.6853236 -7.4829607
v 1.061966 -0.94912416 -6.9303703
v 2.022129 -0.6853236 -7.497019
v 2.3746853 -0.6636735 -7.6472178
v 2.261383 -0.9464366 -7.546056
v 2.0637436 -0.9464366 -7.464184
v 2.501854 -0.9464366 -7.6223764
v 2.501854 -0.8387049 -7.6472178
v 2.501854 -0.6584698 -7.6792097
v 2.501854 -0.37647024 -7.7033815
v 1.9418888 2.9429793E-07 -7.5304775
v 2.501854 2.9429793E-07 -7.7204494
v 2.3746853 0.66366863 -7.6472187
v 2.501854 0.3764677 -7.7033825
v 2.501854 0.65846485 -7.6792107
v 2.501854 0.83869725 -7.6472197
v 2.501854 1.0535634 -7.5976744
v 2.436695 1.0535634 -7.576994
v 2.2184544 1.0535634 -7.5077286
v 1.6182213 0.6805207 -7.33062
v 1.8692131 1.0535634 -7.3630543
v 1.4671326 1.0535634 -7.158821
v 1.2281837 2.9429793E-07 -7.1617002
v 0.9026718 0.68052095 -6.8883877
v 1.1239071 1.0535634 -6.9466963
v 0.7614174 1.0535634 -6.678405
v 0.9026718 -0.6805238 -6.8883877
v 0.80096626 -0.94912416 -6.737194
v 0.4236927 -0.94912416 -6.4100113
v 0.28119278 0.6636692 -6.3533754
v 0.47583008 1.0535634 -6.4307337
v 0.15450859 1.0535634 -6.100008
v 0.5791588 2.9429793E-07 -6.6882668
v 0.2811947 -0.66367084 -6.3533764
v 0.18844414 -0.94912416 -6.167878
v -0.08785057 -0.94912416 -5.8420134
v -0.21590424 0.6334101 -5.7751617
v -0.045492172 1.0535634 -5.864127
v -0.3227291 1.0535634 -5.47622
v 0.033685684 2.9429793E-07 -6.148571
v -0.21590424 -0.6334104 -5.7751627
v -0.296175 -0.94912416 -5.5505295
v -0.47154427 -0.94912416 -5.2730513
v -0.58594704 0.59489864 -5.2015686
v -0.4378147 1.0535634 -5.2941265
v -0.3926506 2.9429793E-07 -5.5881567
v -0.58594704 -0.5948979 -5.2015686
v -0.72498703 -0.94912416 -4.786339
v -0.77132034 -0.94912416 -4.683529
v -0.7058697 2.9429793E-07 -5.045415
v -0.89870834 -0.36766398 -4.576046
v -0.8386135 -0.94912416 -4.4917183
v -0.7547226 1.0248835 -4.6975327
v -0.70677185 1.0535634 -4.7776175
v -0.74443054 1.0535634 -4.701374
v -0.7605438 1.0535634 -4.6599045
v -0.89870834 0.3676646 -4.576046
v -1.0321465 0.7743552 -4.016919
v -0.9596672 1.0535634 -4.047699
v -1.0598736 1.0535634 -3.6011162
v -1.0321465 -0.77435446 -4.016919
v -0.98677826 -0.94912416 -4.0361853
v -1.0495014 -0.94912416 -3.756649
v -1.1135578 -0.94912416 -3.386097
v -1.0877323 -1.8291175E-06 -4.0315094
v -1.1968441 0.41016716 -3.3973103
v -1.0974178 1.0535634 -3.3839245
v -1.1968441 -0.41017142 -3.3973064
v -1.1566677 -0.94912416 -2.9036236
v -1.1917915 0.8411671 -2.6994762
v -1.1226864 1.0535634 -3.101139
v -1.1403542 1.0535634 -2.6994762
v -1.1227798 1.0535634 -2.3381195
v -1.1917915 -0.84117144 -2.6994686
v -1.1656475 -0.94912416 -2.6994705
v -1.1567154 -0.94912416 -2.5158043
v -1.1059322 -0.94912416 -1.9767017
v -1.2596722 -1.5981495E-06 -2.6994724
v -1.1899853 0.4318346 -1.964777
v -1.0889626 1.0535634 -1.9791164
v -1.1899834 -0.43183652 -1.9647732
v -0.9998951 -0.94912416 -1.4233799
v -0.9827728 0.85219693 -1.2495995
v -1.0183506 1.0535634 -1.6106434
v -0.93533516 1.0535634 -1.2634411
v -0.8129616 1.0535634 -0.9070053
v -0.982769 -0.8521976 -1.2495956
v -0.95993614 -0.94912416 -1.256258
v -0.9010315 -0.94912416 -1.0846901
v -1.0496674 -1.2665987E-07 -1.2300777
v -0.78180695 0.42058444 -0.55280495
v -0.68953705 1.0535634 -0.5943489
v -0.7734318 -0.6853236 -0.6467266
v -0.7709656 -0.94912416 -0.75520706
v -0.7387104 -0.94912416 -0.67349625
v -0.78180695 -0.42058372 -0.55280495
v -0.4378929 0.78610665 0.0033779144
v -0.4324875 0.81636566 0.0033779144
v -0.5037098 0.037831977 0.0033779144
v -0.5037098 -0.03783121 0.0033779144
v -0.4378929 -0.786106 0.0033779144
v -0.69621086 -0.6853236 -0.47634697
v -0.5649376 1.0535634 -0.3456192
v -0.4324875 -0.81636506 0.0033779144
v -0.6287155 -0.9464366 -0.43473244
v -0.5051174 -0.9464366 -0.18799973
v -0.39818192 -0.9464366 0.0033779144
v -0.3872738 0.9878012 0.0033779144
v -0.37438202 1.0535634 -0.004589081
v -0.425951 1.0535634 -0.09687996
v -0.36895943 1.0535634 0.0033779144
v -0.78180695 -0.42058372 -0.55280495
v -0.74321556 -0.6853236 -0.5701809
v -0.7734318 -0.6853236 -0.6467266
v -0.69621086 -0.6853236 -0.47634697
vt 0.21006684 0.09387469
vt 0.20951255 0.07175947
vt 0.18680611 0.077300675
vt 0.17523631 0.08566985
vt 0.17565212 0.07919506
vt 0.21027794 0.10229676
vt 0.17353962 0.04943413
vt 0.21405178 0.15998459
vt 0.17290121 0.040345646
vt 0.16895898 0.012451895
vt 0.19170623 0.02189671
vt 0.1923467 0.037646327
vt 0.19138978 0.0026564621
vt 0.18296844 0.0022216563
vt 0.16847439 0.001478733
vt 0.14352003 0.0003861172
vt 0.1082575 0.0558129
vt 0.10806066 4.65875E-05
vt 0.04301381 0.013809436
vt 0.071206205 0.00038311456
vt 0.04343752 0.0009405669
vt 0.025345318 0.0018820111
vt 0.0034828677 0.0034892338
vt 0.0035192892 0.010285256
vt 0.0036412138 0.03304795
vt 0.041638702 0.09487019
vt 0.0033776597 0.07080671
vt 0.0030124632 0.1167452
vt 0.11104107 0.13556772
vt 0.0423091 0.18078367
vt 0.0027438565 0.15854876
vt 0.0025208236 0.20605387
vt 0.18493043 0.17799768
vt 0.21503071 0.19574498
vt 0.21572874 0.24967092
vt 0.044792403 0.26659787
vt 0.0027627384 0.2462005
vt 0.0027101345 0.29548982
vt 0.11380507 0.21918558
vt 0.18486847 0.26527524
vt 0.21622077 0.2860953
vt 0.21646605 0.33200732
vt 0.048454817 0.34698492
vt 0.002955478 0.32857624
vt 0.0030261916 0.37977737
vt 0.11491991 0.29953814
vt 0.18231499 0.34624135
vt 0.2168027 0.37056324
vt 0.21684732 0.40582263
vt 0.05284044 0.41900975
vt 0.0032435367 0.4028409
vt 0.115431465 0.37345248
vt 0.17852971 0.41865912
vt 0.21703885 0.46481392
vt 0.21698707 0.4768816
vt 0.11568087 0.43927124
vt 0.15452397 0.49258024
vt 0.21710628 0.4986828
vt 0.006849914 0.47518528
vt 0.0035784976 0.4653425
vt 0.003691436 0.4744005
vt 0.0037050345 0.4791433
vt 0.07709822 0.492652
vt 0.03385507 0.5531499
vt 0.0033990103 0.5478665
vt 0.0032016658 0.59702784
vt 0.19778201 0.5532601
vt 0.21687117 0.5500728
vt 0.2168271 0.580799
vt 0.21702099 0.6211074
vt 0.11577179 0.55321175
vt 0.0724687 0.6207727
vt 0.003257583 0.6206445
vt 0.1589131 0.62094617
vt 0.21649112 0.6729466
vt 0.026333736 0.6942918
vt 0.0030684667 0.6510954
vt 0.0030443228 0.6942354
vt 0.00281937 0.73305625
vt 0.20460281 0.6947588
vt 0.21639302 0.6947959
vt 0.216387 0.71445775
vt 0.21669035 0.7723859
vt 0.11549032 0.69454193
vt 0.06974712 0.7720351
vt 0.0028111706 0.771761
vt 0.1608543 0.77229834
vt 0.21622463 0.83268315
vt 0.02447627 0.8505215
vt 0.0024891875 0.81203747
vt 0.0023539602 0.85035074
vt 0.0018937257 0.89081824
vt 0.20559198 0.85107
vt 0.21618718 0.8510471
vt 0.21629117 0.87042004
vt 0.115044035 0.8510338
vt 0.07006452 0.9279001
vt 0.001581126 0.92696214
vt 0.19375595 0.934851
vt 0.21659295 0.9083171
vt 0.21666777 0.9177154
vt 0.15954372 0.9282197
vt 0.029632466 0.99704355
vt 0.026331687 0.99725246
vt 0.11046674 0.99473995
vt 0.11859274 0.99480367
vt 0.19945548 0.9977615
vt 0.19846018 0.9234508
vt 0.0011127786 0.95689327
vt 0.20274784 0.9980061
vt 0.21665442 0.9464294
vt 0.21679293 0.9760683
vt 0.21710633 0.9996124
vt 0.0073498036 0.99916536
vt 9.225511E-05 0.9989173
vt 0.00036843336 0.98754454
vt 4.65875E-05 0.9999533
vt 0.15954372 0.9282197
vt 0.18816784 0.9280472
vt 0.19375595 0.934851
vt 0.19846018 0.9234508
vn -0.44161028 -0.22153762 -0.869426
vn -0.44161028 -0.22153762 -0.869426
vn -0.43346223 -0.21555611 -0.875012
vn -0.45202157 -0.13257591 -0.8820998
vn -0.37684494 -0.17444491 -0.9097015
vn -0.49242836 -0.1915389 -0.8490155
vn -0.37684494 -0.17444491 -0.9097015
vn -0.53915066 -0.19153795 -0.8201401
vn -0.37684494 -0.17444491 -0.9097015
vn -0.3094968 -0.12928 -0.94207144
vn -0.3482247 -0.18894471 -0.91817176
vn -0.37684494 -0.17444491 -0.9097015
vn -0.29545775 -0.21464251 -0.9309314
vn -0.28281996 -0.20548467 -0.93690395
vn -0.23725621 -0.12454882 -0.96342987
vn -0.3101671 -0.048311967 -0.9494538
vn -0.3907309 0 -0.920505
vn -0.3212773 0 -0.9469852
vn -0.3094968 0.12928 -0.94207144
vn -0.3101671 0.048311967 -0.9494538
vn -0.23725621 0.12454882 -0.96342987
vn -0.28281996 0.20548467 -0.93690395
vn -0.29545775 0.21464251 -0.9309314
vn -0.29545775 0.21464251 -0.9309314
vn -0.3482247 0.18894471 -0.91817176
vn -0.45202157 0.13257591 -0.8820998
vn -0.39796793 0.18973671 -0.8975642
vn -0.49242836 0.1915389 -0.8490155
vn -0.5257209 0 -0.8506571
vn -0.58679307 0.1325755 -0.7988101
vn -0.53915066 0.19153795 -0.8201401
vn -0.6248229 0.18970835 -0.7573685
vn -0.58679307 -0.1325755 -0.7988101
vn -0.6248193 -0.18973778 -0.7573641
vn -0.6655023 -0.18894453 -0.72208494
vn -0.70420295 0.12927987 -0.69812953
vn -0.6655023 0.18894453 -0.72208494
vn -0.7363333 0.18387733 -0.6511546
vn -0.64856935 0 -0.76115566
vn -0.70420295 -0.12927987 -0.69812953
vn -0.7363333 -0.18387733 -0.6511546
vn -0.7693381 -0.18238513 -0.61225367
vn -0.7986029 0.12332916 -0.5890868
vn -0.7693381 0.18238513 -0.61225367
vn -0.82316154 0.17502712 -0.54015785
vn -0.75204337 0 -0.6591137
vn -0.7986029 -0.12332916 -0.5890868
vn -0.82316154 -0.17502712 -0.54015785
vn -0.8494804 -0.17380868 -0.49817017
vn -0.870887 0.1160328 -0.47759005
vn -0.8494804 0.17380868 -0.49817017
vn -0.8331755 0 -0.55300874
vn -0.870887 -0.1160328 -0.47759005
vn -0.8978988 -0.13770162 -0.41810995
vn -0.917896 -0.13190405 -0.37425715
vn -0.89443326 0 -0.44720137
vn -0.93189216 -0.07171923 -0.35557476
vn -0.93360156 -0.1508851 -0.32499504
vn -0.9035137 0.19956346 -0.37925905
vn -0.87067336 0.19605334 -0.45109966
vn -0.8802283 0.26295146 -0.3950376
vn -0.9234697 0.22257394 -0.31251296
vn -0.93189216 0.07171923 -0.35557476
vn -0.9568979 0.14881144 -0.24940261
vn -0.9405023 0.21512803 -0.26301226
vn -0.96984607 0.16742952 -0.17710419
vn -0.9568979 -0.14881144 -0.24940261
vn -0.9405023 -0.21512803 -0.26301226
vn -0.96984607 -0.16742952 -0.17710419
vn -0.9797085 -0.15405796 -0.1282087
vn -0.9683613 0 -0.24955216
vn -0.9885783 0.07730517 -0.12937094
vn -0.9797085 0.15405796 -0.1282087
vn -0.9885783 -0.07730517 -0.12937094
vn -0.9826734 -0.166785 -0.080844186
vn -0.98736876 0.15842213 0.0022888961
vn -0.9826734 0.166785 -0.080844186
vn -0.9719052 0.23536181 0.0022583993
vn -0.98100704 0.17444736 0.08481267
vn -0.98736876 -0.15842213 0.0022888961
vn -0.9719052 -0.23536181 0.0022583993
vn -0.98101234 -0.1744178 0.08481313
vn -0.9769214 -0.16193518 0.13928987
vn -0.99999714 0 0.0023805096
vn -0.9867143 0.08124196 0.14069323
vn -0.9769214 0.16193518 0.13928987
vn -0.9867143 -0.08124196 0.14069323
vn -0.96565855 -0.17450888 0.1924847
vn -0.94787604 0.16041073 0.2753168
vn -0.96565855 0.17450888 0.1924847
vn -0.9326412 0.2383257 0.27088988
vn -0.9190607 0.1705423 0.35530666
vn -0.94787604 -0.16041073 0.2753168
vn -0.9326412 -0.2383257 0.27088988
vn -0.9190607 -0.1705423 0.35530666
vn -0.9603159 0 0.2789146
vn -0.91014916 0.0791978 0.4066403
vn -0.90157616 0.15784678 0.40279618
vn -0.91851705 -0.15769464 0.36257252
vn -0.91851705 -0.15769464 0.36257252
vn -0.91851705 -0.15769464 0.36257252
vn -0.91014916 -0.0791978 0.4066403
vn -0.8795381 0.13190477 0.45718035
vn -0.87228966 0.18119039 0.45418146
vn -0.8870071 0.02548345 0.46105203
vn -0.8870071 -0.02548345 0.46105203
vn -0.8795381 -0.13190477 0.45718035
vn -0.8828958 -0.15772428 0.44228724
vn -0.8773935 0.17011343 0.44860017
vn -0.87228966 -0.18119039 0.45418146
vn -0.8828958 -0.15772428 0.44228724
vn -0.87738895 -0.17014307 0.44859785
vn -0.85072047 -0.22434604 0.47533527
vn -0.848828 0.2243765 0.4786922
vn -0.8289311 0.22456004 0.51229477
vn -0.85072047 0.22434604 0.47533527
vn -0.8056197 0.22434787 0.54831094
vn -0.91014916 -0.0791978 0.4066403
vn -0.90157616 -0.15784678 0.40279618
vn -0.91851705 -0.15769464 0.36257252
vn -0.8828958 -0.15772428 0.44228724
g ArtifactFormulaHolderCarvedRightInnerMesh_0
f 3/3/3 2/2/2 1/1/1
f 1/1/1 4/4/4 3/3/3
f 5/5/5 3/3/3 4/4/4
f 1/1/1 6/6/6 4/4/4
f 7/7/7 5/5/5 4/4/4
f 4/4/4 6/6/6 8/8/8
f 9/9/9 7/7/7 4/4/4
f 9/9/9 4/4/4 10/10/10
f 10/10/10 11/11/11 9/9/9
f 11/11/11 12/12/12 9/9/9
f 13/13/13 11/11/11 10/10/10
f 14/14/14 13/13/13 10/10/10
f 10/10/10 15/15/15 14/14/14
f 10/10/10 16/16/16 15/15/15
f 10/10/10 17/17/17 16/16/16
f 10/10/10 4/4/4 17/17/17
f 17/17/17 18/18/18 16/16/16
f 17/17/17 19/19/19 18/18/18
f 19/19/19 20/20/20 18/18/18
f 19/19/19 21/21/21 20/20/20
f 19/19/19 22/22/22 21/21/21
f 23/23/23 22/22/22 19/19/19
f 19/19/19 24/24/24 23/23/23
f 19/19/19 25/25/25 24/24/24
f 19/19/19 26/26/26 25/25/25
f 17/17/17 26/26/26 19/19/19
f 26/26/26 27/27/27 25/25/25
f 26/26/26 28/28/28 27/27/27
f 4/4/4 29/29/29 17/17/17
f 29/29/29 26/26/26 17/17/17
f 26/26/26 30/30/30 28/28/28
f 29/29/29 30/30/30 26/26/26
f 30/30/30 31/31/31 28/28/28
f 30/30/30 32/32/32 31/31/31
f 4/4/4 33/33/33 29/29/29
f 33/33/33 4/4/4 8/8/8
f 33/33/33 8/8/8 34/34/34
f 33/33/33 34/34/34 35/35/35
f 30/30/30 36/36/36 32/32/32
f 36/36/36 37/37/37 32/32/32
f 36/36/36 38/38/38 37/37/37
f 39/39/39 30/30/30 29/29/29
f 33/33/33 39/39/39 29/29/29
f 39/39/39 36/36/36 30/30/30
f 40/40/40 33/33/33 35/35/35
f 33/33/33 40/40/40 39/39/39
f 40/40/40 35/35/35 41/41/41
f 40/40/40 41/41/41 42/42/42
f 36/36/36 43/43/43 38/38/38
f 43/43/43 44/44/44 38/38/38
f 43/43/43 45/45/45 44/44/44
f 46/46/46 36/36/36 39/39/39
f 40/40/40 46/46/46 39/39/39
f 46/46/46 43/43/43 36/36/36
f 47/47/47 40/40/40 42/42/42
f 40/40/40 47/47/47 46/46/46
f 47/47/47 42/42/42 48/48/48
f 47/47/47 48/48/48 49/49/49
f 43/43/43 50/50/50 45/45/45
f 50/50/50 51/51/51 45/45/45
f 52/52/52 43/43/43 46/46/46
f 47/47/47 52/52/52 46/46/46
f 52/52/52 50/50/50 43/43/43
f 53/53/53 47/47/47 49/49/49
f 47/47/47 53/53/53 52/52/52
f 53/53/53 49/49/49 54/54/54
f 53/53/53 54/54/54 55/55/55
f 53/53/53 56/56/56 52/52/52
f 56/56/56 50/50/50 52/52/52
f 57/57/57 53/53/53 55/55/55
f 53/53/53 57/57/57 56/56/56
f 57/57/57 55/55/55 58/58/58
f 50/50/50 59/59/59 51/51/51
f 59/59/59 60/60/60 51/51/51
f 59/59/59 61/61/61 60/60/60
f 59/59/59 62/62/62 61/61/61
f 56/56/56 63/63/63 50/50/50
f 50/50/50 63/63/63 59/59/59
f 57/57/57 63/63/63 56/56/56
f 59/59/59 64/64/64 62/62/62
f 63/63/63 64/64/64 59/59/59
f 64/64/64 65/65/65 62/62/62
f 64/64/64 66/66/66 65/65/65
f 67/67/67 57/57/57 58/58/58
f 67/67/67 58/58/58 68/68/68
f 67/67/67 68/68/68 69/69/69
f 67/67/67 69/69/69 70/70/70
f 57/57/57 71/71/71 63/63/63
f 71/71/71 64/64/64 63/63/63
f 67/67/67 71/71/71 57/57/57
f 64/64/64 72/72/72 66/66/66
f 71/71/71 72/72/72 64/64/64
f 72/72/72 73/73/73 66/66/66
f 74/74/74 67/67/67 70/70/70
f 67/67/67 74/74/74 71/71/71
f 74/74/74 72/72/72 71/71/71
f 74/74/74 70/70/70 75/75/75
f 72/72/72 76/76/76 73/73/73
f 76/76/76 77/77/77 73/73/73
f 76/76/76 78/78/78 77/77/77
f 76/76/76 79/79/79 78/78/78
f 80/80/80 74/74/74 75/75/75
f 80/80/80 75/75/75 81/81/81
f 80/80/80 81/81/81 82/82/82
f 80/80/80 82/82/82 83/83/83
f 74/74/74 84/84/84 72/72/72
f 84/84/84 76/76/76 72/72/72
f 80/80/80 84/84/84 74/74/74
f 76/76/76 85/85/85 79/79/79
f 84/84/84 85/85/85 76/76/76
f 85/85/85 86/86/86 79/79/79
f 87/87/87 80/80/80 83/83/83
f 80/80/80 87/87/87 84/84/84
f 87/87/87 85/85/85 84/84/84
f 87/87/87 83/83/83 88/88/88
f 85/85/85 89/89/89 86/86/86
f 89/89/89 90/90/90 86/86/86
f 89/89/89 91/91/91 90/90/90
f 89/89/89 92/92/92 91/91/91
f 93/93/93 87/87/87 88/88/88
f 93/93/93 88/88/88 94/94/94
f 93/93/93 94/94/94 95/95/95
f 87/87/87 96/96/96 85/85/85
f 96/96/96 89/89/89 85/85/85
f 93/93/93 96/96/96 87/87/87
f 89/89/89 97/97/97 92/92/92
f 96/96/96 97/97/97 89/89/89
f 97/97/97 98/98/98 92/92/92
f 99/99/99 93/93/93 95/95/95
f 99/99/99 95/95/95 100/100/100
f 100/100/100 101/101/101 99/99/99
f 99/99/99 102/102/102 93/93/93
f 93/93/93 102/102/102 96/96/96
f 102/102/102 97/97/97 96/96/96
f 98/98/98 97/97/97 103/103/103
f 103/103/103 104/104/104 98/98/98
f 97/97/97 105/105/105 103/103/103
f 97/97/97 102/102/102 105/105/105
f 102/102/102 106/106/106 105/105/105
f 102/102/102 107/107/107 106/106/106
f 107/107/107 102/102/102 108/108/108
f 104/104/104 109/109/109 98/98/98
f 110/110/110 107/107/107 108/108/108
f 110/110/110 108/108/108 111/111/111
f 111/111/111 112/112/112 110/110/110
f 112/112/112 113/113/113 110/110/110
f 109/109/109 104/104/104 114/114/114
f 114/114/114 115/115/115 109/109/109
f 115/115/115 116/116/116 109/109/109
f 114/114/114 117/117/117 115/115/115
f 120/120/120 119/119/119 118/118/118
f 118/118/118 119/119/119 121/121/121
