g ArtifactSimpleCube
v 1 -1 -0.8560189
v 1 -0.8490735 -1
v 0.86165583 -1 -1
v -1 -0.875841 0.98190004
v -0.91006505 -1 0.97418827
v -1 -1 0.62406933
v -1 -1 -0.76427996
v -0.8853232 -1 -1
v -1 -0.71045274 -1
v -1 1 -0.80675995
v -1 0.5760408 -1
v -0.81532526 1 -1
v 0.75842917 0.93040764 1
v 0.082164526 1 1
v 0.7182244 1 0.98913926
v 0.9350406 -0.76690286 1
v 1 -0.5146564 1
v 1 -0.8057492 0.8978249
v 0.75115824 -1 1
v 1 -1 0.7340543
v 0.7182244 1 0.98913926
v 1 1 0.3278036
v 1 0.55542105 1
v 0.75842917 0.93040764 1
v 0.75842917 0.93040764 1
v 1 0.55542105 1
v 1 -0.5146564 1
v 0.9350406 -0.76690286 1
v 0.75115824 -1 1
v 0.082164526 1 1
v -0.78136504 -1 1
v -1 1 1
v -1 -0.7885647 1
v 1 -0.8490735 -1
v 1 -1 -0.8560189
v 1 -1 0.7340543
v 1 -0.8057492 0.8978249
v 1 1 -1
v 1 -0.5146564 1
v 1 0.55542105 1
v 1 1 0.3278036
v -1 1 -0.80675995
v -0.81532526 1 -1
v 1 1 -1
v 1 1 0.3278036
v -1 1 1
v 0.7182244 1 0.98913926
v 0.082164526 1 1
v 0.86165583 -1 -1
v 1 -0.8490735 -1
v 1 1 -1
v -0.81532526 1 -1
v -0.8853232 -1 -1
v -1 0.5760408 -1
v -1 -0.71045274 -1
v -1 -0.7885647 1
v -0.78136504 -1 1
v -0.91006505 -1 0.97418827
v -1 -0.875841 0.98190004
v -1 -0.875841 0.98190004
v -1 -1 0.62406933
v -1 -1 -0.76427996
v -1 -0.71045274 -1
v -1 -0.7885647 1
v -1 1 1
v -1 0.5760408 -1
v -1 1 -0.80675995
v 1 -1 -0.8560189
v 0.86165583 -1 -1
v -0.8853232 -1 -1
v -1 -1 -0.76427996
v 1 -1 0.7340543
v -1 -1 0.62406933
v -0.91006505 -1 0.97418827
v 0.75115824 -1 1
v -0.78136504 -1 1
vt 0.42857027 0.38321593
vt 0.81628865 0.38321593
vt 0.6133033 0.22226271
vt 0.4900151 0.3685275
vt 0.5250326 0.22694269
vt -0.14666076 0.21828249
vt 0.4038878 0.13246444
vt 0.4038878 0.3760883
vt 0.9752023 0.3294631
vt 0.861331 0.19650874
vt 0.023547992 0.30621794
vt 0.8373055 0.4446374
vt 0.48187774 0.032659024
vt 0.76030976 0.31109104
vt 0.76030976 0.032659024
vt 0.5384804 0.38390532
vt 0.9981595 0.45991674
vt 0.573833 0.26705864
vt -0.0118884295 0.36363915
vt 0.3188623 0.06829658
vt 0.28080994 0.52875817
vt 1.306117 0.100340754
vt -0.1918902 0.100340754
vt 0.19261415 0.46763077
vt 1.656002 0.42458364
vt 1.7306995 0.34542805
vt 1.675668 0.13727236
vt 1.6374233 0.08987485
vt 1.5538967 0.049260214
vt 1.3964815 0.45551032
vt 0.95767176 0.088667214
vt 0.97546816 0.4833371
vt 0.88348573 0.13541867
vt -0.21622154 0.08090018
vt -0.27331084 0.11023185
vt -0.25013745 0.4220146
vt -0.17157316 0.45271137
vt 0.50891364 0.06742638
vt -0.055928767 0.47062472
vt 0.3637141 0.46282715
vt 0.52826476 0.32778293
vt 2.7111726 0.47222906
vt 2.7843027 0.43462968
vt 2.7582316 0.07867223
vt 2.2375078 0.08820696
vt 2.002617 0.48520327
vt 1.9821991 0.1482079
vt 1.9870749 0.2730074
vt 0.46379566 0.07577546
vt 0.40619528 0.04776761
vt -0.3191237 0.03705612
vt -0.34015557 0.39309675
vt 0.44355583 0.41841117
vt -0.17599243 0.43177313
vt 0.3286487 0.4392255
vt 0.5718782 0.44054773
vt 0.74179965 0.17094785
vt 0.5250326 0.22694269
vt 0.4900151 0.3685275
vt 0.991974 0.42523694
vt 1.1275628 0.4556874
vt 1.6702781 0.47967649
vt 1.7724291 0.4271563
vt 0.98791474 0.4078656
vt 1.0497242 0.05828391
vt 1.8168879 0.17570643
vt 1.756 0.089502975
vt 0.99993026 0.26654848
vt 0.99993026 0.22881393
vt 0.5238015 6.976762E-05
vt 0.43081802 0.01717641
vt 0.58353204 0.48323125
vt 0.06724555 0.2063697
vt 6.976762E-05 0.26585695
vt 0.4460672 0.4868897
vt 0.028386844 0.28622597
vn 0.60156447 -0.5513908 -0.57800364
vn 0.60156447 -0.5513908 -0.57800364
vn 0.60156447 -0.5513908 -0.57800364
vn -0.78712755 -0.5827081 0.20219147
vn -0.78712755 -0.5827081 0.20219147
vn -0.78712755 -0.5827081 0.20219147
vn -0.84712124 -0.3354975 -0.41210064
vn -0.84712124 -0.3354975 -0.41210064
vn -0.84712124 -0.3354975 -0.41210064
vn -0.68955606 0.30037227 -0.65900606
vn -0.68955606 0.30037227 -0.65900606
vn -0.68955606 0.30037227 -0.65900606
vn 0.0050051194 0.048799917 0.998796
vn 0.0005493419 0.005401862 0.99998534
vn 0.016816005 0.16364323 0.9863762
vn 0.7234432 -0.35213837 0.5938253
vn 0.7894374 -0.20328768 0.5791914
vn 0.68595475 -0.4185435 0.5952205
vn 0.6327254 -0.4991426 0.5920432
vn 0.6327254 -0.4991426 0.5920432
vn 0.79141957 0.509851 0.33720478
vn 0.79141957 0.509851 0.33720478
vn 0.79141957 0.509851 0.33720478
vn 0.79141957 0.509851 0.33720478
vn 0.0050051194 0.048799917 0.998796
vn -0 0 1
vn -0 0 1
vn -0 0 1
vn -0 0 1
vn 0.0005493419 0.005401862 0.99998534
vn -0.04840306 -0.050051086 0.9975731
vn -0 0 1
vn -0.050478414 -0.052187476 0.99736065
vn 1 0 0
vn 1 0 0
vn 1 0 0
vn 1 0 0
vn 1 0 0
vn 1 0 0
vn 1 0 0
vn 1 0 0
vn -0 1 0
vn -0 1 0
vn -0 1 0
vn -0 1 0
vn -0 1 0
vn -0 1 0
vn -0 1 0
vn -0 0 -1
vn -0 0 -1
vn -0 0 -1
vn -0 0 -1
vn -0 0 -1
vn -0 0 -1
vn -0 0 -1
vn -0.050478414 -0.052187476 0.99736065
vn -0.04840306 -0.050051086 0.9975731
vn -0.19269975 -0.19926143 0.96081305
vn -0.19269975 -0.19926143 0.96081305
vn -1 0 0
vn -1 0 0
vn -1 0 0
vn -1 0 0
vn -1 0 0
vn -1 0 0
vn -1 0 0
vn -1 0 0
vn -0 -1 0
vn -0 -1 0
vn -0 -1 0
vn -0 -1 0
vn -0 -1 0
vn -0 -1 0
vn -0 -1 0
vn -0 -1 0
vn -0 -1 0
g ArtifactSimpleCube_0
f 3/3/3 2/2/2 1/1/1
f 6/6/6 5/5/5 4/4/4
f 9/9/9 8/8/8 7/7/7
f 12/12/12 11/11/11 10/10/10
f 15/15/15 14/14/14 13/13/13
f 18/18/18 17/17/17 16/16/16
f 18/18/18 16/16/16 19/19/19
f 20/20/20 18/18/18 19/19/19
f 23/23/23 22/22/22 21/21/21
f 24/24/24 23/23/23 21/21/21
f 27/27/27 26/26/26 25/25/25
f 25/25/25 28/28/28 27/27/27
f 25/25/25 29/29/29 28/28/28
f 25/25/25 30/30/30 29/29/29
f 30/30/30 31/31/31 29/29/29
f 30/30/30 32/32/32 31/31/31
f 32/32/32 33/33/33 31/31/31
f 36/36/36 35/35/35 34/34/34
f 34/34/34 37/37/37 36/36/36
f 34/34/34 38/38/38 37/37/37
f 38/38/38 39/39/39 37/37/37
f 38/38/38 40/40/40 39/39/39
f 38/38/38 41/41/41 40/40/40
f 44/44/44 43/43/43 42/42/42
f 42/42/42 45/45/45 44/44/44
f 42/42/42 46/46/46 45/45/45
f 46/46/46 47/47/47 45/45/45
f 46/46/46 48/48/48 47/47/47
f 51/51/51 50/50/50 49/49/49
f 49/49/49 52/52/52 51/51/51
f 49/49/49 53/53/53 52/52/52
f 53/53/53 54/54/54 52/52/52
f 53/53/53 55/55/55 54/54/54
f 58/58/58 57/57/57 56/56/56
f 59/59/59 58/58/58 56/56/56
f 62/62/62 61/61/61 60/60/60
f 60/60/60 63/63/63 62/62/62
f 60/60/60 64/64/64 63/63/63
f 64/64/64 65/65/65 63/63/63
f 65/65/65 66/66/66 63/63/63
f 65/65/65 67/67/67 66/66/66
f 70/70/70 69/69/69 68/68/68
f 68/68/68 71/71/71 70/70/70
f 68/68/68 72/72/72 71/71/71
f 72/72/72 73/73/73 71/71/71
f 72/72/72 74/74/74 73/73/73
f 72/72/72 75/75/75 74/74/74
f 75/75/75 76/76/76 74/74/74
