g ArtifactNestedCubeMesh
v 1 -1 -0.8560189
v 1 -0.8490735 -1
v 0.86165583 -1 -1
v -1 -0.875841 0.98190004
v -0.91006505 -1 0.97418827
v -1 -1 0.62406933
v -1 -1 -0.76427996
v -0.8853232 -1 -1
v -1 -0.71045274 -1
v -1 1 -0.80675995
v -1 0.5760408 -1
v -0.81532526 1 -1
v 0.75842917 0.93040764 1
v 0.082164526 1 1
v 0.7182244 1 0.98913926
v 0.52027524 -0.738887 -0.52027524
v 0.349895 -0.738887 -0.349895
v 0.349895 -0.738887 0.349895
v 0.52027524 -0.738887 0.52027524
v -0.349895 -0.738887 0.349895
v -0.52027524 -0.738887 0.52027524
v -0.349895 -0.738887 -0.349895
v -0.52027524 -0.738887 -0.52027524
v 0.349895 -0.738887 -0.349895
v 0.52027524 -0.738887 -0.52027524
v 0.52027524 -0.738887 -0.52027524
v 0.52027524 -0.738887 0.52027524
v 0.5618891 -1 0.5618891
v 0.5618891 -1 -0.5618891
v -0.52027524 -0.738887 -0.52027524
v 0.52027524 -0.738887 -0.52027524
v 0.5618891 -1 -0.5618891
v -0.5618891 -1 -0.5618891
v 0.52027524 -0.738887 0.52027524
v -0.52027524 -0.738887 0.52027524
v -0.5618891 -1 0.5618891
v 0.5618891 -1 0.5618891
v 0.9350406 -0.76690286 1
v 1 -0.5146564 1
v 1 -0.8057492 0.8978249
v 0.75115824 -1 1
v 1 -1 0.7340543
v 0.7182244 1 0.98913926
v 1 1 0.3278036
v 1 0.55542105 1
v 0.75842917 0.93040764 1
v 0.75842917 0.93040764 1
v 1 0.55542105 1
v 1 -0.5146564 1
v 0.9350406 -0.76690286 1
v 0.75115824 -1 1
v 0.082164526 1 1
v -0.78136504 -1 1
v -1 1 1
v -1 -0.7885647 1
v 1 -0.8490735 -1
v 1 -1 -0.8560189
v 1 -1 0.7340543
v 1 -0.8057492 0.8978249
v 1 1 -1
v 1 -0.5146564 1
v 1 0.55542105 1
v 1 1 0.3278036
v -1 1 -0.80675995
v -0.81532526 1 -1
v 1 1 -1
v 1 1 0.3278036
v -1 1 1
v 0.7182244 1 0.98913926
v 0.082164526 1 1
v 0.86165583 -1 -1
v 1 -0.8490735 -1
v 1 1 -1
v -0.81532526 1 -1
v -0.8853232 -1 -1
v -1 0.5760408 -1
v -1 -0.71045274 -1
v -1 -0.7885647 1
v -0.78136504 -1 1
v -0.91006505 -1 0.97418827
v -1 -0.875841 0.98190004
v -1 -0.875841 0.98190004
v -1 -1 0.62406933
v -1 -1 -0.76427996
v -1 -0.71045274 -1
v -1 -0.7885647 1
v -1 1 1
v -1 0.5760408 -1
v -1 1 -0.80675995
v 1 -1 -0.8560189
v 0.86165583 -1 -1
v -0.8853232 -1 -1
v -1 -1 -0.76427996
v 0.5618891 -1 -0.5618891
v 1 -1 0.7340543
v -0.5618891 -1 -0.5618891
v 0.5618891 -1 0.5618891
v -1 -1 0.62406933
v -0.5618891 -1 0.5618891
v -0.91006505 -1 0.97418827
v 0.75115824 -1 1
v -0.78136504 -1 1
v -0.5618891 -1 -0.5618891
v -0.5618891 -1 0.5618891
v -0.52027524 -0.738887 0.52027524
v -0.52027524 -0.738887 -0.52027524
v 0.349895 -0.738887 0.349895
v 0.32312608 -1.0026876 0.32312608
v -0.32312608 -1.0026876 0.32312608
v -0.349895 -0.738887 0.349895
v -0.32312608 -1.0026876 -0.32312608
v -0.32312608 -1.0026876 0.32312608
v 0.32312608 -1.0026876 0.32312608
v 0.32312608 -1.0026876 -0.32312608
v -0.349895 -0.738887 0.349895
v -0.32312608 -1.0026876 0.32312608
v -0.32312608 -1.0026876 -0.32312608
v -0.349895 -0.738887 -0.349895
v 0.349895 -0.738887 -0.349895
v 0.32312608 -1.0026876 -0.32312608
v 0.32312608 -1.0026876 0.32312608
v 0.349895 -0.738887 0.349895
v -0.349895 -0.738887 -0.349895
v -0.32312608 -1.0026876 -0.32312608
v 0.32312608 -1.0026876 -0.32312608
v 0.349895 -0.738887 -0.349895
vt 0.42857027 0.38321593
vt 0.81628865 0.38321593
vt 0.6133033 0.22226271
vt 0.4900151 0.3685275
vt 0.5250326 0.22694269
vt -0.14666076 0.21828249
vt 0.4038878 0.13246444
vt 0.4038878 0.3760883
vt 0.9752023 0.3294631
vt 0.861331 0.19650874
vt 0.023547992 0.30621794
vt 0.8373055 0.4446374
vt 0.48187774 0.032659024
vt 0.76030976 0.31109104
vt 0.76030976 0.032659024
vt 1.3212389 0.6029617
vt 1.3212389 0.4560972
vt 0.8948549 0.45609716
vt 0.8948548 0.60296166
vt 0.4684709 0.45609713
vt 0.46847084 0.60296166
vt 0.04208684 0.4560971
vt 0.04208684 0.6029616
vt -0.38429713 0.45609707
vt -0.38429713 0.60296154
vt 0.62498754 0.6806113
vt 1.1249374 0.6806114
vt 1.1249374 0.5556239
vt 0.62498754 0.5556238
vt 0.12503746 0.6806113
vt 0.62498754 0.6806113
vt 0.62498754 0.5556238
vt 0.12503761 0.55562377
vt -0.8748624 0.68061125
vt -0.37491244 0.68061125
vt -0.37491235 0.55562377
vt -0.87486243 0.55562377
vt 0.5384804 0.38390532
vt 0.9981595 0.45991674
vt 0.573833 0.26705864
vt -0.0118884295 0.36363915
vt 0.3188623 0.06829658
vt 0.28080994 0.52875817
vt 1.306117 0.100340754
vt -0.1918902 0.100340754
vt 0.19261415 0.46763077
vt 1.656002 0.42458364
vt 1.7306995 0.34542805
vt 1.675668 0.13727236
vt 1.6374233 0.08987485
vt 1.5538967 0.049260214
vt 1.3964815 0.45551032
vt 0.95767176 0.088667214
vt 0.97546816 0.4833371
vt 0.88348573 0.13541867
vt -0.21622154 0.08090018
vt -0.27331084 0.11023185
vt -0.25013745 0.4220146
vt -0.17157316 0.45271137
vt 0.50891364 0.06742638
vt -0.055928767 0.47062472
vt 0.3637141 0.46282715
vt 0.52826476 0.32778293
vt 2.7111726 0.47222906
vt 2.7843027 0.43462968
vt 2.7582316 0.07867223
vt 2.2375078 0.08820696
vt 2.002617 0.48520327
vt 1.9821991 0.1482079
vt 1.9870749 0.2730074
vt 0.46379566 0.07577546
vt 0.40619528 0.04776761
vt -0.3191237 0.03705612
vt -0.34015557 0.39309675
vt 0.44355583 0.41841117
vt -0.17599243 0.43177313
vt 0.3286487 0.4392255
vt 0.5718782 0.44054773
vt 0.74179965 0.17094785
vt 0.5250326 0.22694269
vt 0.4900151 0.3685275
vt 0.991974 0.42523694
vt 1.1275628 0.4556874
vt 1.6702781 0.47967649
vt 1.7724291 0.4271563
vt 0.98791474 0.4078656
vt 1.0497242 0.05828391
vt 1.8168879 0.17570643
vt 1.756 0.089502975
vt 0.8617542 0.08735232
vt 0.8055798 0.060037747
vt 0.12040296 0.07165831
vt 0.07856205 0.11864674
vt 0.67807007 0.15638395
vt 0.8829088 0.399171
vt 0.26995936 0.16330571
vt 0.69191355 0.36043936
vt 0.09703237 0.3909067
vt 0.28380266 0.36736125
vt 0.13696328 0.45896792
vt 0.78884935 0.45297927
vt 0.18778375 0.4631735
vt 0.12503761 0.55562377
vt -0.37491235 0.55562377
vt -0.37491244 0.68061125
vt 0.12503746 0.6806113
vt 0.74997497 0.84337145
vt 0.74997497 0.71091086
vt 0.5 0.71091086
vt 0.5 0.84337145
vt 0.4070531 0.3154717
vt 0.8808727 0.42150885
vt 1.0929469 0.18459898
vt 0.6191273 0.0785619
vt 0.5 0.84337145
vt 0.5 0.71091086
vt 0.25002503 0.71091086
vt 0.250025 0.84337145
vt 0.99994993 0.84337145
vt 0.99994993 0.71091086
vt 0.74997497 0.71091086
vt 0.74997497 0.84337145
vt 0.250025 0.84337145
vt 0.25002503 0.71091086
vt 5.0008297E-05 0.71091086
vt 5.0008297E-05 0.8433714
vn 0.60156447 -0.5513908 -0.57800364
vn 0.60156447 -0.5513908 -0.57800364
vn 0.60156447 -0.5513908 -0.57800364
vn -0.78712755 -0.5827081 0.20219147
vn -0.78712755 -0.5827081 0.20219147
vn -0.78712755 -0.5827081 0.20219147
vn -0.84712124 -0.3354975 -0.41210064
vn -0.84712124 -0.3354975 -0.41210064
vn -0.84712124 -0.3354975 -0.41210064
vn -0.68955606 0.30037227 -0.65900606
vn -0.68955606 0.30037227 -0.65900606
vn -0.68955606 0.30037227 -0.65900606
vn 0.0050051194 0.048799917 0.998796
vn 0.0005493419 0.005401862 0.99998534
vn 0.016816005 0.16364323 0.9863762
vn -0 -1 0
vn -0 -1 0
vn -0 -1 0
vn -0 -1 0
vn -0 -1 0
vn -0 -1 0
vn -0 -1 0
vn -0 -1 0
vn -0 -1 0
vn -0 -1 0
vn -0.9875371 -0.157387 0
vn -0.9875371 -0.157387 0
vn -0.9875371 -0.157387 0
vn -0.9875371 -0.157387 0
vn -0 -0.157387 0.9875371
vn -0 -0.157387 0.9875371
vn -0 -0.157387 0.9875371
vn -0 -0.157387 0.9875371
vn -0 -0.157387 -0.9875371
vn -0 -0.157387 -0.9875371
vn -0 -0.157387 -0.9875371
vn -0 -0.157387 -0.9875371
vn 0.7234432 -0.35213837 0.5938253
vn 0.7894374 -0.20328768 0.5791914
vn 0.68595475 -0.4185435 0.5952205
vn 0.6327254 -0.4991426 0.5920432
vn 0.6327254 -0.4991426 0.5920432
vn 0.79141957 0.509851 0.33720478
vn 0.79141957 0.509851 0.33720478
vn 0.79141957 0.509851 0.33720478
vn 0.79141957 0.509851 0.33720478
vn 0.0050051194 0.048799917 0.998796
vn -0 0 1
vn -0 0 1
vn -0 0 1
vn -0 0 1
vn 0.0005493419 0.005401862 0.99998534
vn -0.04840306 -0.050051086 0.9975731
vn -0 0 1
vn -0.050478414 -0.052187476 0.99736065
vn 1 0 0
vn 1 0 0
vn 1 0 0
vn 1 0 0
vn 1 0 0
vn 1 0 0
vn 1 0 0
vn 1 0 0
vn -0 1 0
vn -0 1 0
vn -0 1 0
vn -0 1 0
vn -0 1 0
vn -0 1 0
vn -0 1 0
vn -0 0 -1
vn -0 0 -1
vn -0 0 -1
vn -0 0 -1
vn -0 0 -1
vn -0 0 -1
vn -0 0 -1
vn -0.050478414 -0.052187476 0.99736065
vn -0.04840306 -0.050051086 0.9975731
vn -0.19269975 -0.19926143 0.96081305
vn -0.19269975 -0.19926143 0.96081305
vn -1 0 0
vn -1 0 0
vn -1 0 0
vn -1 0 0
vn -1 0 0
vn -1 0 0
vn -1 0 0
vn -1 0 0
vn -0 -1 0
vn -0 -1 0
vn -0 -1 0
vn -0 -1 0
vn -0 -1 0
vn -0 -1 0
vn -0 -1 0
vn -0 -1 0
vn -0 -1 0
vn -0 -1 0
vn -0 -1 0
vn -0 -1 0
vn -0 -1 0
vn 0.9875371 -0.157387 0
vn 0.9875371 -0.157387 0
vn 0.9875371 -0.157387 0
vn 0.9875371 -0.157387 0
vn -0 -0.10095706 0.9948908
vn -0 -0.10095706 0.9948908
vn -0 -0.10095706 0.9948908
vn -0 -0.10095706 0.9948908
vn -0 -1 0
vn -0 -1 0
vn -0 -1 0
vn -0 -1 0
vn -0.9948908 -0.10095706 0
vn -0.9948908 -0.10095706 0
vn -0.9948908 -0.10095706 0
vn -0.9948908 -0.10095706 0
vn 0.9948908 -0.10095706 0
vn 0.9948908 -0.10095706 0
vn 0.9948908 -0.10095706 0
vn 0.9948908 -0.10095706 0
vn -0 -0.10095706 -0.9948908
vn -0 -0.10095706 -0.9948908
vn -0 -0.10095706 -0.9948908
vn -0 -0.10095706 -0.9948908
g ArtifactNestedCubeMesh_0
f 3/3/3 2/2/2 1/1/1
f 6/6/6 5/5/5 4/4/4
f 9/9/9 8/8/8 7/7/7
f 12/12/12 11/11/11 10/10/10
f 15/15/15 14/14/14 13/13/13
f 18/18/18 17/17/17 16/16/16
f 19/19/19 18/18/18 16/16/16
f 20/20/20 18/18/18 19/19/19
f 21/21/21 20/20/20 19/19/19
f 22/22/22 20/20/20 21/21/21
f 23/23/23 22/22/22 21/21/21
f 24/24/24 22/22/22 23/23/23
f 25/25/25 24/24/24 23/23/23
f 28/28/28 27/27/27 26/26/26
f 29/29/29 28/28/28 26/26/26
f 32/32/32 31/31/31 30/30/30
f 33/33/33 32/32/32 30/30/30
f 36/36/36 35/35/35 34/34/34
f 37/37/37 36/36/36 34/34/34
f 40/40/40 39/39/39 38/38/38
f 40/40/40 38/38/38 41/41/41
f 42/42/42 40/40/40 41/41/41
f 45/45/45 44/44/44 43/43/43
f 46/46/46 45/45/45 43/43/43
f 49/49/49 48/48/48 47/47/47
f 47/47/47 50/50/50 49/49/49
f 47/47/47 51/51/51 50/50/50
f 47/47/47 52/52/52 51/51/51
f 52/52/52 53/53/53 51/51/51
f 52/52/52 54/54/54 53/53/53
f 54/54/54 55/55/55 53/53/53
f 58/58/58 57/57/57 56/56/56
f 56/56/56 59/59/59 58/58/58
f 56/56/56 60/60/60 59/59/59
f 60/60/60 61/61/61 59/59/59
f 60/60/60 62/62/62 61/61/61
f 60/60/60 63/63/63 62/62/62
f 66/66/66 65/65/65 64/64/64
f 64/64/64 67/67/67 66/66/66
f 64/64/64 68/68/68 67/67/67
f 68/68/68 69/69/69 67/67/67
f 68/68/68 70/70/70 69/69/69
f 73/73/73 72/72/72 71/71/71
f 71/71/71 74/74/74 73/73/73
f 71/71/71 75/75/75 74/74/74
f 75/75/75 76/76/76 74/74/74
f 75/75/75 77/77/77 76/76/76
f 80/80/80 79/79/79 78/78/78
f 81/81/81 80/80/80 78/78/78
f 84/84/84 83/83/83 82/82/82
f 82/82/82 85/85/85 84/84/84
f 82/82/82 86/86/86 85/85/85
f 86/86/86 87/87/87 85/85/85
f 87/87/87 88/88/88 85/85/85
f 87/87/87 89/89/89 88/88/88
f 92/92/92 91/91/91 90/90/90
f 90/90/90 93/93/93 92/92/92
f 90/90/90 94/94/94 93/93/93
f 90/90/90 95/95/95 94/94/94
f 93/93/93 94/94/94 96/96/96
f 95/95/95 97/97/97 94/94/94
f 98/98/98 93/93/93 96/96/96
f 96/96/96 99/99/99 98/98/98
f 99/99/99 97/97/97 95/95/95
f 95/95/95 98/98/98 99/99/99
f 95/95/95 100/100/100 98/98/98
f 95/95/95 101/101/101 100/100/100
f 101/101/101 102/102/102 100/100/100
f 105/105/105 104/104/104 103/103/103
f 106/106/106 105/105/105 103/103/103
f 109/109/109 108/108/108 107/107/107
f 110/110/110 109/109/109 107/107/107
f 113/113/113 112/112/112 111/111/111
f 114/114/114 113/113/113 111/111/111
f 117/117/117 116/116/116 115/115/115
f 118/118/118 117/117/117 115/115/115
f 121/121/121 120/120/120 119/119/119
f 122/122/122 121/121/121 119/119/119
f 125/125/125 124/124/124 123/123/123
f 126/126/126 125/125/125 123/123/123
