g BlueprintDisplayMesh
v -1.2790347 0.0881723 0.9647154
v 1.5132796 0.0881723 0.9647154
v 1.5132796 0.08817242 -1.2186668
v -1.2790347 0.08817242 -1.2186668
v -1.4797112 -0.43653446 1.3456576
v -0.3093622 -0.43653446 1.3456576
v -0.3093622 -0.43653446 0.43053192
v -1.4797112 -0.43653446 0.43053192
v 0.8183674 -0.31175762 -0.57863986
v 1.3543267 -0.31175762 -0.57863986
v 1.3543267 -0.31175756 -0.9977202
v 0.8183674 -0.31175756 -0.9977202
vt 0.051416874 0.6643187
vt 0.8495574 0.6643187
vt 0.8495575 0.04023215
vt 0.051416904 0.04023215
vt 0.021624997 0.98306286
vt 0.35615146 0.98306286
vt 0.35615152 0.721488
vt 0.021625042 0.721488
vt 0.6865773 0.8321645
vt 0.8397732 0.8321645
vt 0.8397732 0.7123768
vt 0.6865773 0.7123768
vn -0 -1 0
vn -0 -1 0
vn -0 -1 0
vn -0 -1 0
vn -0 -1 0
vn -0 -1 0
vn -0 -1 0
vn -0 -1 0
vn -0 -1 0
vn -0 -1 0
vn -0 -1 0
vn -0 -1 0
g BlueprintDisplayMesh_0
f 3/3/3 2/2/2 1/1/1
f 4/4/4 3/3/3 1/1/1
f 7/7/7 6/6/6 5/5/5
f 8/8/8 7/7/7 5/5/5
f 11/11/11 10/10/10 9/9/9
f 12/12/12 11/11/11 9/9/9
