g BrokenPotBig
v -0.6615981 0.6615984 5.1594152
v 0.6615992 0.66159844 5.159414
v 0.66159934 -0.6615982 5.159414
v -0.66159767 -0.6615982 5.159414
v -0.72352886 0.72352946 5.529209
v -0.6615981 0.6615984 5.1594152
v -0.66159767 -0.6615982 5.159414
v -0.72352886 -0.72352964 5.529207
v -0.72352886 -0.72352964 5.529207
v -0.66159767 -0.6615982 5.159414
v 0.66159934 -0.6615982 5.159414
v 0.72353035 -0.72352934 5.529207
v 0.72353035 -0.72352934 5.529207
v 0.66159934 -0.6615982 5.159414
v 0.6615992 0.66159844 5.159414
v 0.72353005 0.72352946 5.529207
v -0.72352886 0.72352946 5.529209
v 0.72353005 0.72352946 5.529207
v 0.6615992 0.66159844 5.159414
v -0.6615981 0.6615984 5.1594152
v 2.702478 -2.7024767 -0.84675896
v 2.1514046 -2.151403 3.754627
v 2.151404 2.1514034 3.7546277
v 2.7024775 2.7024775 -0.84675807
v 1.9880837 1.9880832 5.529209
v 2.0991461 2.0991454 4.1909738
v 2.0991466 -2.099145 4.190973
v 1.9880847 -1.9880826 5.529207
v -2.702478 2.7024763 -0.84675694
v -2.1514027 2.1514025 3.754629
v -2.1514022 -2.1514037 3.7546282
v -2.7024775 -2.702478 -0.8467578
v -1.9880819 -1.9880837 5.529209
v -2.0991442 -2.0991457 4.1909738
v -2.099145 2.0991447 4.190974
v -1.9880825 1.9880825 5.529209
v 2.7024775 2.7024775 -0.84675807
v 2.151404 2.1514034 3.7546277
v -2.1514027 2.1514025 3.754629
v -2.702478 2.7024763 -0.84675694
v -1.9880825 1.9880825 5.529209
v -2.099145 2.0991447 4.190974
v 2.0991461 2.0991454 4.1909738
v 1.9880837 1.9880832 5.529209
v -2.7024775 -2.702478 -0.8467578
v -2.1514022 -2.1514037 3.7546282
v 2.1514046 -2.151403 3.754627
v 2.702478 -2.7024767 -0.84675896
v 1.9880847 -1.9880826 5.529207
v 2.0991466 -2.099145 4.190973
v -2.0991442 -2.0991457 4.1909738
v -1.9880819 -1.9880837 5.529209
v 2.1514046 -2.151403 3.754627
v 2.0706663 -2.0706642 3.8013494
v 2.0706654 2.070665 3.80135
v 2.151404 2.1514034 3.7546277
v 2.151404 2.1514034 3.7546277
v 2.0706654 2.070665 3.80135
v -2.0706644 2.0706642 3.8013508
v -2.1514027 2.1514025 3.754629
v -2.1514027 2.1514025 3.754629
v -2.0706644 2.0706642 3.8013508
v -2.0706642 -2.0706654 3.80135
v -2.1514022 -2.1514037 3.7546282
v -2.1514022 -2.1514037 3.7546282
v -2.0706642 -2.0706654 3.80135
v 2.0706663 -2.0706642 3.8013494
v 2.1514046 -2.151403 3.754627
v 2.0991461 2.0991454 4.1909738
v 2.0262074 2.0262067 4.1074424
v 2.026208 -2.0262063 4.1074405
v 2.0991466 -2.099145 4.190973
v 2.0991466 -2.099145 4.190973
v 2.026208 -2.0262063 4.1074405
v -2.0262058 -2.026207 4.1074424
v -2.0991442 -2.0991457 4.1909738
v -2.0991442 -2.0991457 4.1909738
v -2.0262058 -2.026207 4.1074424
v -2.0262063 2.026206 4.1074424
v -2.099145 2.0991447 4.190974
v -2.099145 2.0991447 4.190974
v -2.0262063 2.026206 4.1074424
v 2.0262074 2.0262067 4.1074424
v 2.0991461 2.0991454 4.1909738
v -1.9880819 -1.9880837 5.529209
v -1.9880825 1.9880825 5.529209
v -0.72352886 0.72352946 5.529209
v 1.9880837 1.9880832 5.529209
v -0.72352886 -0.72352964 5.529207
v 0.72353005 0.72352946 5.529207
v 0.72353035 -0.72352934 5.529207
v 1.9880847 -1.9880826 5.529207
v 2.0706663 -2.0706642 3.8013494
v 2.026208 -2.0262063 4.1074405
v 2.0262074 2.0262067 4.1074424
v 2.0706654 2.070665 3.80135
v -2.0706644 2.0706642 3.8013508
v -2.0262063 2.026206 4.1074424
v -2.0262058 -2.026207 4.1074424
v -2.0706642 -2.0706654 3.80135
v 2.0706654 2.070665 3.80135
v 2.0262074 2.0262067 4.1074424
v -2.0262063 2.026206 4.1074424
v -2.0706644 2.0706642 3.8013508
v -2.0706642 -2.0706654 3.80135
v -2.0262058 -2.026207 4.1074424
v 2.026208 -2.0262063 4.1074405
v 2.0706663 -2.0706642 3.8013494
vt 0.48294324 0.77701867
vt 0.48294324 0.74950004
vt 0.45542467 0.74950004
vt 0.45542467 0.77701867
vt 0.36445525 0.76103294
vt 0.3680591 0.7540179
vt 0.3440108 0.7361943
vt 0.33829752 0.74173325
vt 0.33829752 0.74173325
vt 0.3440108 0.7361943
vt 0.3269562 0.7120335
vt 0.31964743 0.7155018
vt 0.4267121 0.7706627
vt 0.42531607 0.76303965
vt 0.39699388 0.76332337
vt 0.39584705 0.77108794
vt 0.36445525 0.76103294
vt 0.39584705 0.77108794
vt 0.39699388 0.76332337
vt 0.3680591 0.7540179
vt 0.7778022 0.68260247
vt 0.7892094 0.77853113
vt 0.8782775 0.7785312
vt 0.8896847 0.68260247
vt 0.87489676 0.8169323
vt 0.8771958 0.7891548
vt 0.79029113 0.7891548
vt 0.79259014 0.8169323
vt 0.52380025 0.6812609
vt 0.53520745 0.77718955
vt 0.6242755 0.77718955
vt 0.6356827 0.6812609
vt 0.6208948 0.8155908
vt 0.6231938 0.7878134
vt 0.53628916 0.7878135
vt 0.53858817 0.8155908
vt 0.91766787 0.69345486
vt 0.9290751 0.7893835
vt 1.0181432 0.7893835
vt 1.0295503 0.69345474
vt 1.0147625 0.8277847
vt 1.0170615 0.8000073
vt 0.93015695 0.8000073
vt 0.93245596 0.8277847
vt 0.655496 0.6824804
vt 0.66690314 0.778409
vt 0.7559712 0.778409
vt 0.7673784 0.68248045
vt 0.75259054 0.81681025
vt 0.7548895 0.78903276
vt 0.6679849 0.7890328
vt 0.6702839 0.81681025
vt 0.7892094 0.77853113
vt 0.7908807 0.78046083
vt 0.8766062 0.78046083
vt 0.8782775 0.7785312
vt 0.9290751 0.7893835
vt 0.9307465 0.79131323
vt 1.016472 0.79131323
vt 1.0181432 0.7893835
vt 0.53520745 0.77718955
vt 0.5368787 0.7791193
vt 0.62260425 0.7791193
vt 0.6242755 0.77718955
vt 0.66690314 0.778409
vt 0.6685744 0.7803387
vt 0.7542999 0.7803387
vt 0.7559712 0.778409
vt 0.8771958 0.7891548
vt 0.87568593 0.786861
vt 0.791801 0.78686094
vt 0.79029113 0.7891548
vt 0.7548895 0.78903276
vt 0.75337964 0.78673893
vt 0.6694947 0.78673893
vt 0.6679849 0.7890328
vt 0.6231938 0.7878134
vt 0.62168396 0.78551954
vt 0.537799 0.78551954
vt 0.53628916 0.7878135
vt 1.0170615 0.8000073
vt 1.0155518 0.7977134
vt 0.9316668 0.7977134
vt 0.93015695 0.8000073
vt 0.5105617 0.7215085
vt 0.42786896 0.7218524
vt 0.45416802 0.7481515
vt 0.42786887 0.8045329
vt 0.48426256 0.7481515
vt 0.45416796 0.7782461
vt 0.48426256 0.7782461
vt 0.5105615 0.8045083
vt 0.7908807 0.78046083
vt 0.791801 0.78686094
vt 0.87568593 0.786861
vt 0.8766062 0.78046083
vt 0.5368787 0.7791193
vt 0.537799 0.78551954
vt 0.62168396 0.78551954
vt 0.62260425 0.7791193
vt 0.9307465 0.79131323
vt 0.9316668 0.7977134
vt 1.0155518 0.7977134
vt 1.016472 0.79131323
vt 0.6685744 0.7803387
vt 0.6694947 0.78673893
vt 0.75337964 0.78673893
vt 0.7542999 0.7803387
vn 5.858133E-07 -5.858134E-07 1
vn 5.858133E-07 -5.858134E-07 1
vn 5.858133E-07 -5.858134E-07 1
vn 5.858134E-07 -5.858134E-07 1
vn 0.9862644 0 0.16517411
vn 0.9862644 0 0.16517411
vn 0.9862644 0 0.16517411
vn 0.9862644 0 0.1651741
vn -0 0.9862643 0.1651748
vn -0 0.9862643 0.1651748
vn -0 0.9862643 0.1651748
vn -0 0.9862643 0.1651748
vn -0.9862645 0 0.16517384
vn -0.9862645 0 0.16517386
vn -0.9862645 0 0.16517386
vn -0.9862645 0 0.16517384
vn -0 -0.9862644 0.16517423
vn -0 -0.9862644 0.16517423
vn -0 -0.9862644 0.16517423
vn -0 -0.9862644 0.16517423
vn 0.9929047 0 0.11891277
vn 0.9929047 0 0.11891276
vn 0.9929047 0 0.11891277
vn 0.9929047 0 0.11891277
vn 0.9965739 0 0.08270723
vn 0.9965739 0 0.08270723
vn 0.9965739 0 0.082707234
vn 0.9965739 0 0.082707234
vn -0.9929047 0 0.11891314
vn -0.9929047 0 0.11891314
vn -0.9929047 0 0.11891313
vn -0.9929047 0 0.11891314
vn -0.9965739 0 0.08270735
vn -0.9965739 0 0.08270736
vn -0.9965739 0 0.08270736
vn -0.9965739 0 0.08270735
vn -0 0.9929047 0.11891285
vn -0 0.9929047 0.11891285
vn -0 0.9929047 0.11891285
vn -0 0.9929047 0.11891285
vn -0 0.9965739 0.08270723
vn -0 0.9965739 0.08270723
vn -0 0.9965739 0.08270723
vn -0 0.9965739 0.082707234
vn -0 -0.9929047 0.11891284
vn -0 -0.9929047 0.11891283
vn -0 -0.9929047 0.118912816
vn -0 -0.9929047 0.11891284
vn -0 -0.9965739 0.08270716
vn -0 -0.9965739 0.08270716
vn -0 -0.9965739 0.08270716
vn -0 -0.9965739 0.08270716
vn 0.5008681 0 0.8655237
vn 0.5008681 0 0.8655237
vn 0.5008681 0 0.8655237
vn 0.50086814 0 0.8655236
vn -0 0.5008661 0.86552477
vn -0 0.5008661 0.86552477
vn -0 0.5008662 0.86552465
vn -0 0.5008662 0.86552477
vn -0.50086594 0 0.8655248
vn -0.50086594 0 0.8655248
vn -0.50086594 0 0.8655248
vn -0.50086594 0 0.8655248
vn 3.0228858E-07 -0.5008657 0.865525
vn 3.0228858E-07 -0.5008657 0.865525
vn 3.0228858E-07 -0.5008657 0.865525
vn 3.0228856E-07 -0.50086564 0.865525
vn 0.7532545 3.0445585E-07 -0.6577292
vn 0.7532545 3.0445585E-07 -0.6577292
vn 0.7532545 3.0445585E-07 -0.65772915
vn 0.7532545 3.044558E-07 -0.65772915
vn -0 -0.75325376 -0.65773004
vn -0 -0.75325376 -0.6577301
vn -0 -0.75325376 -0.65773004
vn -0 -0.75325376 -0.65773004
vn -0.75325376 0 -0.65773004
vn -0.75325376 0 -0.65773004
vn -0.75325376 0 -0.6577301
vn -0.75325376 0 -0.65773004
vn -0 0.7532541 -0.65772957
vn -0 0.75325406 -0.6577296
vn -0 0.7532541 -0.6577296
vn -0 0.7532541 -0.6577296
vn 5.260436E-07 0 1
vn 5.617765E-07 -5.6177635E-07 1
vn 5.617765E-07 -5.617763E-07 1
vn -0 -5.260437E-07 1
vn 5.260437E-07 0 1
vn -0 -5.260437E-07 1
vn -0 0 1
vn -0 0 1
vn 0.98961604 0 0.14373627
vn 0.98961604 0 0.14373627
vn 0.98961604 0 0.14373627
vn 0.98961604 0 0.14373627
vn -0.9896159 0 0.1437369
vn -0.9896159 0 0.14373688
vn -0.9896159 0 0.14373687
vn -0.9896159 0 0.14373688
vn -0 0.98961604 0.14373626
vn -0 0.98961604 0.14373627
vn -0 0.98961604 0.14373627
vn -0 0.98961604 0.14373626
vn -0 -0.98961604 0.14373626
vn -0 -0.98961604 0.14373626
vn -0 -0.98961604 0.14373624
vn -0 -0.98961604 0.14373626
g BrokenPotBig_0
f 3/3/3 2/2/2 1/1/1
f 4/4/4 3/3/3 1/1/1
f 7/7/7 6/6/6 5/5/5
f 8/8/8 7/7/7 5/5/5
f 11/11/11 10/10/10 9/9/9
f 12/12/12 11/11/11 9/9/9
f 15/15/15 14/14/14 13/13/13
f 16/16/16 15/15/15 13/13/13
f 19/19/19 18/18/18 17/17/17
f 20/20/20 19/19/19 17/17/17
f 23/23/23 22/22/22 21/21/21
f 24/24/24 23/23/23 21/21/21
f 27/27/27 26/26/26 25/25/25
f 28/28/28 27/27/27 25/25/25
f 31/31/31 30/30/30 29/29/29
f 32/32/32 31/31/31 29/29/29
f 35/35/35 34/34/34 33/33/33
f 36/36/36 35/35/35 33/33/33
f 39/39/39 38/38/38 37/37/37
f 40/40/40 39/39/39 37/37/37
f 43/43/43 42/42/42 41/41/41
f 44/44/44 43/43/43 41/41/41
f 47/47/47 46/46/46 45/45/45
f 48/48/48 47/47/47 45/45/45
f 51/51/51 50/50/50 49/49/49
f 52/52/52 51/51/51 49/49/49
f 55/55/55 54/54/54 53/53/53
f 56/56/56 55/55/55 53/53/53
f 59/59/59 58/58/58 57/57/57
f 60/60/60 59/59/59 57/57/57
f 63/63/63 62/62/62 61/61/61
f 64/64/64 63/63/63 61/61/61
f 67/67/67 66/66/66 65/65/65
f 68/68/68 67/67/67 65/65/65
f 71/71/71 70/70/70 69/69/69
f 72/72/72 71/71/71 69/69/69
f 75/75/75 74/74/74 73/73/73
f 76/76/76 75/75/75 73/73/73
f 79/79/79 78/78/78 77/77/77
f 80/80/80 79/79/79 77/77/77
f 83/83/83 82/82/82 81/81/81
f 84/84/84 83/83/83 81/81/81
f 87/87/87 86/86/86 85/85/85
f 86/86/86 87/87/87 88/88/88
f 89/89/89 87/87/87 85/85/85
f 87/87/87 90/90/90 88/88/88
f 91/91/91 89/89/89 85/85/85
f 90/90/90 91/91/91 88/88/88
f 92/92/92 91/91/91 85/85/85
f 91/91/91 92/92/92 88/88/88
g BrokenPotBig_1
f 95/95/95 94/94/94 93/93/93
f 96/96/96 95/95/95 93/93/93
f 99/99/99 98/98/98 97/97/97
f 100/100/100 99/99/99 97/97/97
f 103/103/103 102/102/102 101/101/101
f 104/104/104 103/103/103 101/101/101
f 107/107/107 106/106/106 105/105/105
f 108/108/108 107/107/107 105/105/105
