g BugWingMotionMesh
v 5.4699974 -0.84503365 -1.2526306
v 6.4961653 -0.14645386 -1.1621354
v 1.0512791 -0.024392009 -0.45785323
v 0.96709394 -0.28210855 -0.44768775
v 0.23544061 -0.13877532 -0.32069045
v 0.96709394 -0.28210855 -0.44768775
v 1.0512791 -0.024392009 -0.45785323
v 0.30793738 -0.057167612 -0.31518623
v 2.6825068 6.175723 -0.045678053
v 0.4085108 6.7207527 -0.045678053
v -0.15886617 1.2157384 -0.15982907
v 0.26652157 1.196756 -0.22706164
v 0.11396968 0.28215316 -0.250886
v 4.632954 4.8858094 -0.19197181
v 0.1996133 0.24855685 -0.26802364
v 0.6597631 1.0334269 -0.30970967
v 6.024598 3.0065956 -0.6024135
v 0.26860145 0.18769479 -0.28368005
v 0.9734274 0.7454514 -0.39480695
v 6.6895866 0.7647422 -1.0320164
v 0.3126129 0.10690783 -0.29547
v 1.1696819 0.36756343 -0.4639932
v 6.4961653 -0.14645386 -1.1621354
v 0.3263395 0.015940115 -0.3014257
v 1.0512791 -0.024392009 -0.45785323
v 0.30793738 -0.057167612 -0.31518623
vt 0.9491602 0.999964
vt 0.9491602 0.88855445
vt 0.17444897 0.88855445
vt 0.17444894 0.999964
vt 0.046864152 0.999964
vt 0.17444894 0.999964
vt 0.17444897 0.88855445
vt 0.04686421 0.88855445
vt 0.9491606 0.19629279
vt 0.9491608 3.6031008E-05
vt 0.17444953 3.6031008E-05
vt 0.17444944 0.1962927
vt 0.046864778 3.6031008E-05
vt 0.9491605 0.39302826
vt 0.04686466 0.19629279
vt 0.1744493 0.39302826
vt 0.9491604 0.5918942
vt 0.04686451 0.39302826
vt 0.17444918 0.5918941
vt 0.9491602 0.7907594
vt 0.04686442 0.5918942
vt 0.17444906 0.7907594
vt 0.9491602 0.88855445
vt 0.04686421 0.7907593
vt 0.17444897 0.88855445
vt 0.04686421 0.88855445
vn -0.1302498 0.23220184 -0.96390736
vn -0.1302498 0.23220184 -0.96390736
vn -0.1302498 0.23220184 -0.96390736
vn -0.1302498 0.23220184 -0.96390736
vn -0.17456774 0.067111544 -0.9823554
vn -0.17456774 0.067111544 -0.9823554
vn -0.17456774 0.067111544 -0.9823554
vn -0.17456774 0.067111544 -0.9823554
vn -0.03582944 0.05313377 -0.9979444
vn -0.017914696 0.033265788 -0.999286
vn -0.08066182 0.041750047 -0.9958668
vn -0.09360124 0.051576816 -0.9942729
vn -0.15744749 0.051943332 -0.98616034
vn -0.08011283 0.10791579 -0.990927
vn -0.17325592 0.0537133 -0.98341113
vn -0.12759972 0.08252324 -0.9883867
vn -0.10800789 0.14646225 -0.9833022
vn -0.19480582 0.058505837 -0.97909534
vn -0.15180421 0.108344376 -0.9824546
vn -0.113683775 0.1365426 -0.9840895
vn -0.207469 0.061496034 -0.97630674
vn -0.14963566 0.11087628 -0.9825048
vn -0.121069476 0.15213798 -0.9809161
vn -0.20792446 0.071017206 -0.97556335
vn -0.15964559 0.1307745 -0.97847396
vn -0.18613346 0.070589714 -0.9799855
g BugWingMotionMesh_0
f 3/3/3 2/2/2 1/1/1
f 4/4/4 3/3/3 1/1/1
f 7/7/7 6/6/6 5/5/5
f 8/8/8 7/7/7 5/5/5
f 11/11/11 10/10/10 9/9/9
f 12/12/12 11/11/11 9/9/9
f 13/13/13 11/11/11 12/12/12
f 12/12/12 9/9/9 14/14/14
f 15/15/15 13/13/13 12/12/12
f 16/16/16 12/12/12 14/14/14
f 15/15/15 12/12/12 16/16/16
f 16/16/16 14/14/14 17/17/17
f 18/18/18 15/15/15 16/16/16
f 19/19/19 16/16/16 17/17/17
f 18/18/18 16/16/16 19/19/19
f 19/19/19 17/17/17 20/20/20
f 21/21/21 18/18/18 19/19/19
f 22/22/22 19/19/19 20/20/20
f 21/21/21 19/19/19 22/22/22
f 22/22/22 20/20/20 23/23/23
f 24/24/24 21/21/21 22/22/22
f 25/25/25 22/22/22 23/23/23
f 22/22/22 25/25/25 24/24/24
f 25/25/25 26/26/26 24/24/24
