g CategorySymbolHealing
v 0.1810239 0.25553977 -0.4846502
v -0.18102421 0.25553977 -0.4846502
v -0.18102421 0.12776595 -0.4846502
v -0.18102421 0.25553983 -0.06743616
v -0.18102421 0.12776595 -0.067436144
v 0.1810239 0.12776595 -0.4846502
v 0.1810239 0.25553983 -0.06743616
v -0.13707165 0.08381337 -0.44069767
v -0.13707165 0.08381341 -0.02348359
v 0.13707134 0.08381337 -0.44069767
v 0.13707134 0.08381341 -0.02348359
v 0.13707134 0.08381343 0.2506594
v 0.1810239 0.12776595 -0.067436144
v -0.5982383 0.12776595 -0.067436144
v 0.5542854 0.08381341 -0.02348359
v 0.598238 0.12776595 -0.067436144
v 0.598238 0.25553983 -0.06743616
v 0.598238 0.25553986 0.29461193
v 0.5542854 0.08381343 0.2506594
v 0.598238 0.12776598 0.29461193
v 0.1810239 0.25553986 0.29461193
v 0.1810239 0.12776598 0.29461193
v -0.13707165 0.08381343 0.2506594
v 0.13707134 0.08381343 0.6678735
v 0.1810239 0.2555399 0.711826
v 0.1810239 0.12776601 0.711826
v -0.18102421 0.25553986 0.29461193
v -0.13707165 0.08381343 0.6678735
v -0.18102421 0.2555399 0.711826
v -0.18102421 0.12776601 0.711826
v -0.18102421 0.12776598 0.29461193
v -0.5542857 0.08381343 0.2506594
v -0.5982383 0.25553986 0.29461193
v -0.5542857 0.08381341 -0.02348359
v -0.5982383 0.12776598 0.29461193
v -0.5982383 0.25553983 -0.06743616
vt 0.9655889 0.60089195
vt 0.9655889 0.60089195
vt 0.9655889 0.60089195
vt 0.9655889 0.60089195
vt 0.9655889 0.60089195
vt 0.9655889 0.60089195
vt 0.9655889 0.60089195
vt 0.9655889 0.60089195
vt 0.9655889 0.60089195
vt 0.9655889 0.60089195
vt 0.9655889 0.60089195
vt 0.9655889 0.60089195
vt 0.9655889 0.60089195
vt 0.9655889 0.60089195
vt 0.9655889 0.60089195
vt 0.9655889 0.60089195
vt 0.9655889 0.60089195
vt 0.9655889 0.60089195
vt 0.9655889 0.60089195
vt 0.9655889 0.60089195
vt 0.9655889 0.60089195
vt 0.9655889 0.60089195
vt 0.9655889 0.60089195
vt 0.9655889 0.60089195
vt 0.9655889 0.60089195
vt 0.9655889 0.60089195
vt 0.9655889 0.60089195
vt 0.9655889 0.60089195
vt 0.9655889 0.60089195
vt 0.9655889 0.60089195
vt 0.9655889 0.60089195
vt 0.9655889 0.60089195
vt 0.9655889 0.60089195
vt 0.9655889 0.60089195
vt 0.9655889 0.60089195
vt 0.9655889 0.60089195
vn 0.57735026 0.5773502 -0.5773503
vn -0.57735026 0.5773502 -0.5773503
vn -0.650706 -0.39136124 -0.65070593
vn -0.30151135 0.90453404 -0.30151144
vn -0.57888573 -0.5742672 -0.57888556
vn 0.650706 -0.39136124 -0.65070593
vn 0.30151135 0.90453404 -0.30151144
vn -0.3001939 -0.9054099 -0.30019403
vn -0.11005025 -0.9878148 -0.11005013
vn 0.3001939 -0.9054099 -0.30019403
vn 0.11005025 -0.9878148 -0.11005012
vn 0.11005025 -0.98781466 0.110050276
vn 0.57888573 -0.5742672 -0.5788856
vn -0.6507059 -0.39136145 -0.6507059
vn 0.3001935 -0.9054102 -0.30019376
vn 0.6507059 -0.3913615 -0.65070575
vn 0.5773502 0.57735026 -0.57735026
vn 0.5773502 0.5773504 0.5773502
vn 0.3001935 -0.90541005 0.300194
vn 0.6507059 -0.39136136 0.65070593
vn 0.30151135 0.90453404 0.3015113
vn 0.5788856 -0.5742671 0.5788858
vn -0.11005027 -0.98781466 0.11005027
vn 0.30019388 -0.9054099 0.30019408
vn 0.57735026 0.5773503 0.5773502
vn 0.650706 -0.39136127 0.65070593
vn -0.30151135 0.90453404 0.3015113
vn -0.3001939 -0.9054099 0.30019408
vn -0.57735026 0.5773503 0.5773502
vn -0.65070605 -0.39136127 0.6507059
vn -0.5788857 -0.574267 0.5788858
vn -0.3001935 -0.90541005 0.30019397
vn -0.5773502 0.57735044 0.5773502
vn -0.3001935 -0.9054102 -0.30019376
vn -0.65070593 -0.39136136 0.650706
vn -0.5773502 0.5773504 -0.57735026
g CategorySymbolHealing_0
f 3/3/3 2/2/2 1/1/1
f 2/2/2 4/4/4 1/1/1
f 4/4/4 2/2/2 5/5/5
f 2/2/2 3/3/3 5/5/5
f 6/6/6 3/3/3 1/1/1
f 4/4/4 7/7/7 1/1/1
f 6/6/6 1/1/1 7/7/7
f 5/5/5 3/3/3 8/8/8
f 9/9/9 5/5/5 8/8/8
f 8/8/8 3/3/3 10/10/10
f 3/3/3 6/6/6 10/10/10
f 8/8/8 10/10/10 11/11/11
f 11/11/11 10/10/10 6/6/6
f 9/9/9 8/8/8 11/11/11
f 9/9/9 11/11/11 12/12/12
f 13/13/13 11/11/11 6/6/6
f 13/13/13 6/6/6 7/7/7
f 5/5/5 14/14/14 4/4/4
f 14/14/14 5/5/5 9/9/9
f 11/11/11 15/15/15 12/12/12
f 15/15/15 11/11/11 13/13/13
f 16/16/16 15/15/15 13/13/13
f 7/7/7 17/17/17 13/13/13
f 17/17/17 16/16/16 13/13/13
f 17/17/17 7/7/7 18/18/18
f 16/16/16 17/17/17 18/18/18
f 15/15/15 16/16/16 19/19/19
f 15/15/15 19/19/19 12/12/12
f 16/16/16 20/20/20 19/19/19
f 20/20/20 16/16/16 18/18/18
f 12/12/12 19/19/19 20/20/20
f 7/7/7 21/21/21 18/18/18
f 20/20/20 18/18/18 21/21/21
f 21/21/21 7/7/7 4/4/4
f 22/22/22 12/12/12 20/20/20
f 22/22/22 20/20/20 21/21/21
f 23/23/23 9/9/9 12/12/12
f 24/24/24 12/12/12 22/22/22
f 12/12/12 24/24/24 23/23/23
f 21/21/21 25/25/25 22/22/22
f 26/26/26 24/24/24 22/22/22
f 25/25/25 26/26/26 22/22/22
f 21/21/21 27/27/27 25/25/25
f 27/27/27 21/21/21 4/4/4
f 24/24/24 28/28/28 23/23/23
f 24/24/24 26/26/26 28/28/28
f 26/26/26 25/25/25 29/29/29
f 27/27/27 29/29/29 25/25/25
f 26/26/26 30/30/30 28/28/28
f 30/30/30 26/26/26 29/29/29
f 23/23/23 28/28/28 30/30/30
f 30/30/30 29/29/29 27/27/27
f 31/31/31 23/23/23 30/30/30
f 31/31/31 30/30/30 27/27/27
f 23/23/23 32/32/32 9/9/9
f 23/23/23 31/31/31 32/32/32
f 27/27/27 4/4/4 33/33/33
f 27/27/27 33/33/33 31/31/31
f 32/32/32 34/34/34 9/9/9
f 34/34/34 14/14/14 9/9/9
f 31/31/31 35/35/35 32/32/32
f 32/32/32 35/35/35 34/34/34
f 33/33/33 35/35/35 31/31/31
f 35/35/35 14/14/14 34/34/34
f 14/14/14 36/36/36 4/4/4
f 4/4/4 36/36/36 33/33/33
f 35/35/35 33/33/33 36/36/36
f 14/14/14 35/35/35 36/36/36
