g CategorySymbolHealing
v -0.18102421 -0.18102404 0.0065971427
v -0.18102421 -0.5982381 -0.12117673
v -0.18102421 -0.18102404 -0.12117673
v -0.18102421 -0.5982381 0.0065971427
v -0.5982383 -0.18102404 0.0065971427
v 0.1810239 -0.5982381 -0.12117673
v -0.5982383 -0.18102404 -0.12117673
v 0.1810239 -0.5982381 0.0065971427
v -0.5982383 0.18102404 0.0065971427
v 0.1810239 -0.18102404 -0.12117673
v -0.5982383 0.18102404 -0.12117673
v 0.1810239 -0.18102404 0.0065971427
v -0.18102421 0.18102404 0.0065971427
v 0.598238 -0.18102404 -0.12117673
v -0.18102421 0.18102404 -0.12117673
v 0.598238 -0.18102404 0.0065971427
v -0.18102421 0.5982381 0.0065971427
v 0.598238 0.18102404 -0.12117673
v -0.18102421 0.5982381 -0.12117673
v 0.598238 0.18102404 0.0065971427
v 0.1810239 0.5982381 0.0065971427
v 0.1810239 0.18102404 -0.12117673
v 0.1810239 0.5982381 -0.12117673
v 0.1810239 0.18102404 0.0065971427
v -0.13707165 0.5542856 0.050549697
v -0.18102421 0.5982381 0.0065971427
v 0.1810239 0.5982381 0.0065971427
v 0.13707134 0.5542856 0.050549697
v 0.1810239 0.18102404 0.0065971427
v 0.13707134 0.13707149 0.050549697
v 0.598238 0.18102404 0.0065971427
v -0.13707165 0.13707149 0.050549697
v -0.13707165 -0.13707149 0.050549697
v -0.18102421 0.18102404 0.0065971427
v -0.5542857 0.13707149 0.050549697
v -0.5982383 0.18102404 0.0065971427
v -0.5542857 -0.13707149 0.050549697
v -0.5982383 -0.18102404 0.0065971427
v -0.18102421 -0.18102404 0.0065971427
v -0.13707165 -0.5542856 0.050549697
v -0.18102421 -0.5982381 0.0065971427
v 0.13707134 -0.13707149 0.050549697
v 0.13707134 -0.5542856 0.050549697
v 0.1810239 -0.5982381 0.0065971427
v 0.1810239 -0.18102404 0.0065971427
v 0.5542854 -0.13707149 0.050549697
v 0.598238 -0.18102404 0.0065971427
v 0.5542854 0.13707149 0.050549697
vt 0.9655889 0.60089195
vt 0.9655889 0.60089195
vt 0.9655889 0.60089195
vt 0.9655889 0.60089195
vt 0.9655889 0.60089195
vt 0.9655889 0.60089195
vt 0.9655889 0.60089195
vt 0.9655889 0.60089195
vt 0.9655889 0.60089195
vt 0.9655889 0.60089195
vt 0.9655889 0.60089195
vt 0.9655889 0.60089195
vt 0.9655889 0.60089195
vt 0.9655889 0.60089195
vt 0.9655889 0.60089195
vt 0.9655889 0.60089195
vt 0.9655889 0.60089195
vt 0.9655889 0.60089195
vt 0.9655889 0.60089195
vt 0.9655889 0.60089195
vt 0.9655889 0.60089195
vt 0.9655889 0.60089195
vt 0.9655889 0.60089195
vt 0.9655889 0.60089195
vt 0.9655889 0.60089195
vt 0.9655889 0.60089195
vt 0.9655889 0.60089195
vt 0.9655889 0.60089195
vt 0.9655889 0.60089195
vt 0.9655889 0.60089195
vt 0.9655889 0.60089195
vt 0.9655889 0.60089195
vt 0.9655889 0.60089195
vt 0.9655889 0.60089195
vt 0.9655889 0.60089195
vt 0.9655889 0.60089195
vt 0.9655889 0.60089195
vt 0.9655889 0.60089195
vt 0.9655889 0.60089195
vt 0.9655889 0.60089195
vt 0.9655889 0.60089195
vt 0.9655889 0.60089195
vt 0.9655889 0.60089195
vt 0.9655889 0.60089195
vt 0.9655889 0.60089195
vt 0.9655889 0.60089195
vt 0.9655889 0.60089195
vt 0.9655889 0.60089195
vn -0.70710677 -0.70710677 0
vn -0.70710677 -0.70710677 0
vn -0.70710677 -0.70710677 0
vn -0.70710677 -0.70710677 0
vn -0.70710677 -0.70710677 0
vn 0.70710677 -0.70710677 0
vn -0.70710677 -0.70710677 0
vn 0.70710677 -0.70710677 0
vn -0.70710677 0.70710677 0
vn 0.70710677 -0.70710677 0
vn -0.70710677 0.70710677 0
vn 0.70710677 -0.70710677 0
vn -0.70710677 0.70710677 0
vn 0.70710677 -0.70710677 0
vn -0.70710677 0.70710677 0
vn 0.70710677 -0.70710677 0
vn -0.70710677 0.70710677 0
vn 0.70710677 0.70710677 0
vn -0.70710677 0.70710677 0
vn 0.70710677 0.70710677 0
vn 0.70710677 0.70710677 0
vn 0.70710677 0.70710677 0
vn 0.70710677 0.70710677 0
vn 0.70710677 0.70710677 0
vn -0.30018723 0.30018723 0.90541434
vn -0.40824828 0.40824828 0.81649655
vn 0.40824828 0.40824828 0.81649655
vn 0.30018723 0.30018723 0.90541434
vn 0.40824828 0.40824828 0.81649655
vn 0.11005216 0.11005216 0.9878143
vn 0.40824828 0.40824828 0.81649655
vn -0.11005216 0.11005216 0.9878143
vn -0.11005216 -0.11005216 0.9878143
vn -0.40824828 0.40824828 0.81649655
vn -0.30018723 0.30018723 0.90541434
vn -0.40824828 0.40824828 0.81649655
vn -0.30018723 -0.30018723 0.90541434
vn -0.40824828 -0.40824828 0.81649655
vn -0.40824828 -0.40824828 0.81649655
vn -0.30018723 -0.30018723 0.90541434
vn -0.40824828 -0.40824828 0.81649655
vn 0.11005216 -0.11005216 0.9878143
vn 0.30018723 -0.30018723 0.90541434
vn 0.40824828 -0.40824828 0.81649655
vn 0.40824828 -0.40824828 0.81649655
vn 0.30018723 -0.30018723 0.90541434
vn 0.40824828 -0.40824828 0.81649655
vn 0.30018723 0.30018723 0.90541434
g CategorySymbolHealing_0
f 3/3/3 2/2/2 1/1/1
f 2/2/2 4/4/4 1/1/1
f 1/1/1 5/5/5 3/3/3
f 4/4/4 2/2/2 6/6/6
f 5/5/5 7/7/7 3/3/3
f 8/8/8 4/4/4 6/6/6
f 5/5/5 9/9/9 7/7/7
f 8/8/8 6/6/6 10/10/10
f 9/9/9 11/11/11 7/7/7
f 12/12/12 8/8/8 10/10/10
f 11/11/11 9/9/9 13/13/13
f 10/10/10 14/14/14 12/12/12
f 15/15/15 11/11/11 13/13/13
f 14/14/14 16/16/16 12/12/12
f 13/13/13 17/17/17 15/15/15
f 16/16/16 14/14/14 18/18/18
f 17/17/17 19/19/19 15/15/15
f 20/20/20 16/16/16 18/18/18
f 17/17/17 21/21/21 19/19/19
f 20/20/20 18/18/18 22/22/22
f 21/21/21 23/23/23 19/19/19
f 24/24/24 20/20/20 22/22/22
f 23/23/23 21/21/21 24/24/24
f 22/22/22 23/23/23 24/24/24
f 27/27/27 26/26/26 25/25/25
f 28/28/28 27/27/27 25/25/25
f 27/27/27 28/28/28 29/29/29
f 28/28/28 30/30/30 29/29/29
f 29/29/29 30/30/30 31/31/31
f 32/32/32 25/25/25 26/26/26
f 28/28/28 25/25/25 32/32/32
f 30/30/30 28/28/28 32/32/32
f 32/32/32 33/33/33 30/30/30
f 34/34/34 32/32/32 26/26/26
f 32/32/32 34/34/34 35/35/35
f 32/32/32 35/35/35 33/33/33
f 34/34/34 36/36/36 35/35/35
f 35/35/35 36/36/36 37/37/37
f 35/35/35 37/37/37 33/33/33
f 36/36/36 38/38/38 37/37/37
f 37/37/37 38/38/38 33/33/33
f 38/38/38 39/39/39 33/33/33
f 33/33/33 39/39/39 40/40/40
f 39/39/39 41/41/41 40/40/40
f 33/33/33 40/40/40 42/42/42
f 33/33/33 42/42/42 30/30/30
f 40/40/40 41/41/41 43/43/43
f 40/40/40 43/43/43 42/42/42
f 41/41/41 44/44/44 43/43/43
f 42/42/42 43/43/43 44/44/44
f 45/45/45 42/42/42 44/44/44
f 46/46/46 42/42/42 45/45/45
f 42/42/42 46/46/46 30/30/30
f 47/47/47 46/46/46 45/45/45
f 46/46/46 48/48/48 30/30/30
f 46/46/46 47/47/47 48/48/48
f 30/30/30 48/48/48 31/31/31
f 47/47/47 31/31/31 48/48/48
