g Circle
v -0.23558402 -0.3796027 -0.827545
v -0.07317513 -0.3700549 -0.84354085
v -0 3.2782555E-07 -0.9999997
v -0.19509032 3.2782555E-07 -0.98078495
v -0.07317513 0.37005556 -0.8435407
v -0.39175165 -0.3796027 -0.78017205
v -0.23558402 0.37960336 -0.82754487
v -0.38268346 3.2782555E-07 -0.9238792
v -0.5356765 -0.3700549 -0.7032426
v -0.39175165 0.37960336 -0.78017193
v -0.55557024 3.2782555E-07 -0.8314693
v -0.6618277 -0.34547937 -0.59971297
v -0.5356765 0.37005556 -0.7032425
v -0.70710677 3.2782555E-07 -0.7071065
v -0.7653574 -0.31208915 -0.47356176
v -0.6618277 0.34548002 -0.59971285
v -0.83146966 3.2782555E-07 -0.5555699
v -0.84228677 -0.27582383 -0.32963687
v -0.7653574 0.3120898 -0.47356164
v -0.9238795 3.2782555E-07 -0.3826831
v -0.88965964 -0.24187818 -0.17346935
v -0.84228677 0.2758245 -0.32963675
v -0.98078525 3.2782555E-07 -0.19509003
v -0.90565556 -0.21432766 -0.011060489
v -0.88965964 0.24187884 -0.17346923
v -1 3.2782555E-07 2.3841858E-07
v -0.8896597 -0.19588023 0.15134835
v -0.90565556 0.21432832 -0.01106037
v -0.9807853 3.2782555E-07 0.19509053
v -0.8422868 -0.18776956 0.3075159
v -0.8896597 0.19588089 0.15134847
v -0.92387956 3.2782555E-07 0.38268358
v -0.7653574 -0.18735605 0.4514409
v -0.8422868 0.18777022 0.307516
v -0.83146966 3.2782555E-07 0.5555705
v -0.6618277 -0.18735611 0.5775921
v -0.7653574 0.18735671 0.45144102
v -0.70710677 2.9802322E-07 0.70710707
v -0.5356765 -0.18735611 0.68112177
v -0.6618277 0.18735671 0.5775922
v -0.5555702 2.9802322E-07 0.83146995
v -0.39610413 -0.1258798 0.77612424
v -0.5356765 0.18735671 0.6811219
v -0.3943519 2.9802322E-07 0.861817
v -0.29171586 -0.07025836 0.8137361
v -0.3961041 0.12588039 0.77612436
v -0.2850089 2.9802322E-07 0.8514439
v -0.23558381 2.9802322E-07 0.80542415
v -0.29171583 0.07025895 0.81373614
v -0.39610413 -0.1258798 0.77612424
v -0.29171586 -0.07025836 0.8137361
v -0.23558381 2.9802322E-07 0.80542415
v -0.39022115 2.9802322E-07 0.75435674
v -0.29171583 0.07025895 0.81373614
v -0.5356765 -0.18735611 0.68112177
v -0.3961041 0.12588039 0.77612436
v -0.5356765 2.9802322E-07 0.6811218
v -0.6618277 -0.18735611 0.5775921
v -0.5356765 0.18735671 0.6811219
v -0.6618277 2.9802322E-07 0.57759213
v -0.7653574 -0.18735605 0.4514409
v -0.6618277 0.18735671 0.5775922
v -0.7653574 3.2782555E-07 0.45144096
v -0.8422868 -0.18776956 0.3075159
v -0.7653574 0.18735671 0.45144102
v -0.8422868 3.2782555E-07 0.30751595
v -0.8896597 -0.19588023 0.15134835
v -0.8422868 0.18777022 0.307516
v -0.8896597 3.2782555E-07 0.15134841
v -0.90565556 -0.21432766 -0.011060489
v -0.8896597 0.19588089 0.15134847
v -0.90565556 3.2782555E-07 -0.01106043
v -0.88965964 -0.24187818 -0.17346935
v -0.90565556 0.21432832 -0.01106037
v -0.88965964 3.2782555E-07 -0.17346926
v -0.84228677 -0.27582383 -0.32963687
v -0.88965964 0.24187884 -0.17346923
v -0.84228677 3.2782555E-07 -0.3296368
v -0.7653574 -0.31208915 -0.47356176
v -0.84228677 0.2758245 -0.32963675
v -0.7653574 3.2782555E-07 -0.4735617
v -0.6618277 -0.34547937 -0.59971297
v -0.7653574 0.3120898 -0.47356164
v -0.6618277 3.2782555E-07 -0.5997129
v -0.5356765 -0.3700549 -0.7032426
v -0.6618277 0.34548002 -0.59971285
v -0.5356765 3.2782555E-07 -0.70324254
v -0.39175165 -0.3796027 -0.78017205
v -0.5356765 0.37005556 -0.7032425
v -0.39175165 3.2782555E-07 -0.780172
v -0.23558402 -0.3796027 -0.827545
v -0.39175165 0.37960336 -0.78017193
v -0.23558402 3.2782555E-07 -0.8275449
v -0.07317513 -0.3700549 -0.84354085
v -0.23558402 0.37960336 -0.82754487
v -0.07317513 3.2782555E-07 -0.8435408
v -0 3.2782555E-07 -0.9999997
v -0.07317513 0.37005556 -0.8435407
vt 0.2807801 0.10372575
vt 0.28362513 0.044152215
vt 0.14283425 0.000102304
vt 0.141197 0.06870919
vt 0.000102304 0.037386138
vt 0.2765993 0.16285318
vt 0.0001023331 0.097027585
vt 0.13963643 0.13410224
vt 0.2702622 0.22163557
vt 0.0014579396 0.15628721
vt 0.13810621 0.19822457
vt 0.25954378 0.2800407
vt 0.0049838577 0.215305
vt 0.13658498 0.26197022
vt 0.24653141 0.33816117
vt 0.012904121 0.27415487
vt 0.13506074 0.325842
vt 0.23407969 0.396743
vt 0.023129242 0.33282992
vt 0.1335312 0.3899352
vt 0.22272184 0.45632073
vt 0.032772426 0.39193898
vt 0.1319859 0.4546889
vt 0.21368751 0.51688313
vt 0.041275382 0.45199063
vt 0.1304182 0.5203813
vt 0.20787773 0.5784225
vt 0.047410525 0.5129151
vt 0.12882885 0.5869808
vt 0.20569222 0.6409195
vt 0.050278205 0.57466155
vt 0.1272232 0.6542638
vt 0.20617606 0.70434284
vt 0.049480014 0.6371916
vt 0.12561104 0.7218186
vt 0.20674141 0.76860774
vt 0.04597136 0.70051974
vt 0.12401338 0.78876644
vt 0.20663682 0.83356375
vt 0.042341154 0.7646845
vt 0.122478336 0.8530904
vt 0.2038241 0.8990202
vt 0.03934712 0.82957155
vt 0.121122204 0.9099174
vt 0.19202605 0.96402675
vt 0.0390343 0.8950876
vt 0.120169334 0.94984627
vt 0.1189749 0.9998977
vt 0.047718048 0.96058285
vt 0.06770703 0.8548756
vt 0.06770688 0.9116395
vt 0.13287488 0.9116397
vt 0.13287506 0.8548758
vt 0.19804293 0.9116399
vt 0.06770721 0.79811174
vt 0.19804308 0.854876
vt 0.13287523 0.7981119
vt 0.06770733 0.74134785
vt 0.19804326 0.7981121
vt 0.13287535 0.741348
vt 0.06770751 0.6845839
vt 0.19804338 0.7413482
vt 0.13287553 0.6845841
vt 0.06756383 0.62781996
vt 0.19804356 0.68458426
vt 0.13287571 0.6278202
vt 0.06474283 0.57105607
vt 0.1981875 0.6278204
vt 0.13287583 0.5710563
vt 0.058326423 0.51429224
vt 0.20100883 0.5710565
vt 0.13287598 0.5142924
vt 0.048743695 0.45752832
vt 0.2074255 0.5142926
vt 0.1328761 0.45752853
vt 0.03693652 0.4007644
vt 0.21700856 0.45752874
vt 0.13287628 0.40076464
vt 0.02432254 0.34400046
vt 0.228816 0.4007649
vt 0.1328764 0.34400076
vt 0.0127085745 0.2872365
vt 0.24143031 0.34400102
vt 0.13287652 0.2872368
vt 0.004160613 0.23047261
vt 0.25304452 0.28723714
vt 0.1328767 0.2304729
vt 0.00083974004 0.17370868
vt 0.26159272 0.23047328
vt 0.13287681 0.17370902
vt 0.00083988905 0.1169448
vt 0.26491395 0.17370938
vt 0.13287693 0.11694509
vt 0.00416103 0.06018092
vt 0.26491407 0.11694544
vt 0.13287711 0.06018121
vt 0.1328772 0.000102304
vt 0.2615932 0.060181502
vn 0.0058596795 -0.9931851 0.11640009
vn 0.50710493 -0.85255027 0.12650156
vn 0.7651581 0 -0.6438425
vn -0.17936078 0 -0.9837834
vn 0.50710493 0.85255027 0.12650156
vn -0.002288895 -0.9939908 0.10943969
vn 0.0058596795 0.9931851 0.11640009
vn -0.37746555 0 -0.9260236
vn -0.014282825 -0.99299204 0.11731448
vn -0.002288895 0.9939908 0.10943969
vn -0.56026566 0 -0.828313
vn -0.012787413 -0.9904294 0.13742654
vn -0.014282825 0.99299204 0.11731448
vn -0.719029 0 -0.69498
vn 0.012878919 -0.98877746 0.14884003
vn -0.012787413 0.9904294 0.13742654
vn -0.8448094 0 -0.5350673
vn 0.05542246 -0.988357 0.1416996
vn 0.012878919 0.98877746 0.14884003
vn -0.9346226 0 -0.35564125
vn 0.10425218 -0.98832047 0.11114943
vn 0.05542246 0.988357 0.1416996
vn -0.9863625 0 -0.16458704
vn 0.1471015 -0.9874113 0.05813867
vn 0.10425218 0.98832047 0.11114943
vn -0.99956626 0 0.029451068
vn 0.17267895 -0.9849231 -0.0104071265
vn 0.1471015 0.9874113 0.05813867
vn -0.97589535 0 0.21823896
vn 0.1746008 -0.9813473 -0.08044882
vn 0.17267895 0.9849231 -0.0104071265
vn -0.91764987 0 0.39738986
vn 0.16062324 -0.97768676 -0.13538375
vn 0.1746008 0.9813473 -0.08044882
vn -0.8238193 0 0.56685257
vn 0.1439263 -0.9731199 -0.17978577
vn 0.16062324 0.97768676 -0.13538375
vn -0.6961119 0 0.7179332
vn 0.23274015 -0.9625786 -0.13883227
vn 0.1439263 0.9731199 -0.17978577
vn -0.430103 0 0.9027799
vn 0.3908562 -0.92020744 -0.021210672
vn 0.23274015 0.9625786 -0.13883227
vn -0.10098726 0 0.99488777
vn 0.56805307 -0.8220335 0.039705426
vn 0.3908562 0.92020744 -0.021210672
vn 0.36833152 0 0.92969453
vn 0.98168105 0 -0.19053145
vn 0.56805307 0.8220335 0.039705426
vn 0.3908562 -0.92020744 -0.021210672
vn 0.56805307 -0.8220335 0.039705426
vn 0.98168105 0 -0.19053145
vn 0.45003134 0 -0.89301276
vn 0.56805307 0.8220335 0.039705426
vn 0.23274015 -0.9625786 -0.13883227
vn 0.3908562 0.92020744 -0.021210672
vn 0.5783678 0 -0.8157761
vn 0.1439263 -0.9731199 -0.17978577
vn 0.23274015 0.9625786 -0.13883227
vn 0.70710677 0 -0.70710677
vn 0.16062324 -0.97768676 -0.13538375
vn 0.1439263 0.9731199 -0.17978577
vn 0.8314676 0 -0.5555732
vn 0.1746008 -0.9813473 -0.08044882
vn 0.16062324 0.97768676 -0.13538375
vn 0.92388034 0 -0.38268155
vn 0.17267895 -0.9849231 -0.0104071265
vn 0.1746008 0.9813473 -0.08044882
vn 0.9807879 0 -0.19507721
vn 0.1471015 -0.9874113 0.05813867
vn 0.17267895 0.9849231 -0.0104071265
vn 1 0 0
vn 0.10425218 -0.98832047 0.11114943
vn 0.1471015 0.9874113 0.05813867
vn 0.9807879 0 0.19507721
vn 0.05542246 -0.988357 0.1416996
vn 0.10425218 0.98832047 0.11114943
vn 0.92388034 0 0.38268155
vn 0.012878919 -0.98877746 0.14884003
vn 0.05542246 0.988357 0.1416996
vn 0.8314676 0 0.5555732
vn -0.012787413 -0.9904294 0.13742654
vn 0.012878919 0.98877746 0.14884003
vn 0.70710677 0 0.70710677
vn -0.014282825 -0.99299204 0.11731448
vn -0.012787413 0.9904294 0.13742654
vn 0.5555732 0 0.8314676
vn -0.002288895 -0.9939908 0.10943969
vn -0.014282825 0.99299204 0.11731448
vn 0.38268155 0 0.92388034
vn 0.0058596795 -0.9931851 0.11640009
vn -0.002288895 0.9939908 0.10943969
vn 0.19507721 0 0.9807879
vn 0.50710493 -0.85255027 0.12650156
vn 0.0058596795 0.9931851 0.11640009
vn 0.57756597 0 0.8163441
vn 0.7651581 0 -0.6438425
vn 0.50710493 0.85255027 0.12650156
g Circle_0
f 3/3/3 2/2/2 1/1/1
f 4/4/4 3/3/3 1/1/1
f 5/5/5 3/3/3 4/4/4
f 4/4/4 1/1/1 6/6/6
f 7/7/7 5/5/5 4/4/4
f 8/8/8 4/4/4 6/6/6
f 7/7/7 4/4/4 8/8/8
f 8/8/8 6/6/6 9/9/9
f 10/10/10 7/7/7 8/8/8
f 11/11/11 8/8/8 9/9/9
f 10/10/10 8/8/8 11/11/11
f 11/11/11 9/9/9 12/12/12
f 13/13/13 10/10/10 11/11/11
f 14/14/14 11/11/11 12/12/12
f 13/13/13 11/11/11 14/14/14
f 14/14/14 12/12/12 15/15/15
f 16/16/16 13/13/13 14/14/14
f 17/17/17 14/14/14 15/15/15
f 16/16/16 14/14/14 17/17/17
f 17/17/17 15/15/15 18/18/18
f 19/19/19 16/16/16 17/17/17
f 20/20/20 17/17/17 18/18/18
f 19/19/19 17/17/17 20/20/20
f 20/20/20 18/18/18 21/21/21
f 22/22/22 19/19/19 20/20/20
f 23/23/23 20/20/20 21/21/21
f 22/22/22 20/20/20 23/23/23
f 23/23/23 21/21/21 24/24/24
f 25/25/25 22/22/22 23/23/23
f 26/26/26 23/23/23 24/24/24
f 25/25/25 23/23/23 26/26/26
f 26/26/26 24/24/24 27/27/27
f 28/28/28 25/25/25 26/26/26
f 29/29/29 26/26/26 27/27/27
f 28/28/28 26/26/26 29/29/29
f 29/29/29 27/27/27 30/30/30
f 31/31/31 28/28/28 29/29/29
f 32/32/32 29/29/29 30/30/30
f 31/31/31 29/29/29 32/32/32
f 32/32/32 30/30/30 33/33/33
f 34/34/34 31/31/31 32/32/32
f 35/35/35 32/32/32 33/33/33
f 34/34/34 32/32/32 35/35/35
f 35/35/35 33/33/33 36/36/36
f 37/37/37 34/34/34 35/35/35
f 38/38/38 35/35/35 36/36/36
f 37/37/37 35/35/35 38/38/38
f 38/38/38 36/36/36 39/39/39
f 40/40/40 37/37/37 38/38/38
f 41/41/41 38/38/38 39/39/39
f 40/40/40 38/38/38 41/41/41
f 41/41/41 39/39/39 42/42/42
f 43/43/43 40/40/40 41/41/41
f 44/44/44 41/41/41 42/42/42
f 43/43/43 41/41/41 44/44/44
f 44/44/44 42/42/42 45/45/45
f 46/46/46 43/43/43 44/44/44
f 47/47/47 44/44/44 45/45/45
f 46/46/46 44/44/44 47/47/47
f 48/48/48 47/47/47 45/45/45
f 49/49/49 46/46/46 47/47/47
f 49/49/49 47/47/47 48/48/48
f 52/52/52 51/51/51 50/50/50
f 53/53/53 52/52/52 50/50/50
f 54/54/54 52/52/52 53/53/53
f 53/53/53 50/50/50 55/55/55
f 56/56/56 54/54/54 53/53/53
f 57/57/57 53/53/53 55/55/55
f 56/56/56 53/53/53 57/57/57
f 57/57/57 55/55/55 58/58/58
f 59/59/59 56/56/56 57/57/57
f 60/60/60 57/57/57 58/58/58
f 59/59/59 57/57/57 60/60/60
f 60/60/60 58/58/58 61/61/61
f 62/62/62 59/59/59 60/60/60
f 63/63/63 60/60/60 61/61/61
f 62/62/62 60/60/60 63/63/63
f 63/63/63 61/61/61 64/64/64
f 65/65/65 62/62/62 63/63/63
f 66/66/66 63/63/63 64/64/64
f 65/65/65 63/63/63 66/66/66
f 66/66/66 64/64/64 67/67/67
f 68/68/68 65/65/65 66/66/66
f 69/69/69 66/66/66 67/67/67
f 68/68/68 66/66/66 69/69/69
f 69/69/69 67/67/67 70/70/70
f 71/71/71 68/68/68 69/69/69
f 72/72/72 69/69/69 70/70/70
f 71/71/71 69/69/69 72/72/72
f 72/72/72 70/70/70 73/73/73
f 74/74/74 71/71/71 72/72/72
f 75/75/75 72/72/72 73/73/73
f 74/74/74 72/72/72 75/75/75
f 75/75/75 73/73/73 76/76/76
f 77/77/77 74/74/74 75/75/75
f 78/78/78 75/75/75 76/76/76
f 77/77/77 75/75/75 78/78/78
f 78/78/78 76/76/76 79/79/79
f 80/80/80 77/77/77 78/78/78
f 81/81/81 78/78/78 79/79/79
f 80/80/80 78/78/78 81/81/81
f 81/81/81 79/79/79 82/82/82
f 83/83/83 80/80/80 81/81/81
f 84/84/84 81/81/81 82/82/82
f 83/83/83 81/81/81 84/84/84
f 84/84/84 82/82/82 85/85/85
f 86/86/86 83/83/83 84/84/84
f 87/87/87 84/84/84 85/85/85
f 86/86/86 84/84/84 87/87/87
f 87/87/87 85/85/85 88/88/88
f 89/89/89 86/86/86 87/87/87
f 90/90/90 87/87/87 88/88/88
f 89/89/89 87/87/87 90/90/90
f 90/90/90 88/88/88 91/91/91
f 92/92/92 89/89/89 90/90/90
f 93/93/93 90/90/90 91/91/91
f 92/92/92 90/90/90 93/93/93
f 93/93/93 91/91/91 94/94/94
f 95/95/95 92/92/92 93/93/93
f 96/96/96 93/93/93 94/94/94
f 95/95/95 93/93/93 96/96/96
f 96/96/96 94/94/94 97/97/97
f 98/98/98 95/95/95 96/96/96
f 97/97/97 98/98/98 96/96/96
