g Cube.614
v -1 -1 1
v -1 -1 -1
v -1 1 -1
v -1 1 1
v -1 -1 -1
v 1 -1 -1
v 1 1 -1
v -1 1 -1
v 1 -1 -1
v 1 -1 1
v 1 1 1
v 1 1 -1
v 1 -1 1
v -1 -1 1
v -1 1 1
v 1 1 1
v -1 -1 -1
v -1 -1 1
v 1 -1 1
v 1 -1 -1
v 1 1 -1
v 1 1 1
v -1 1 1
v -1 1 -1
vt 0.90893227 0.90437686
vt 0.90893227 0.8985659
vt 0.9029481 0.8985659
vt 0.9029481 0.90437686
vt 0.9149165 0.8985659
vt 0.9149165 0.8927549
vt 0.90893227 0.8927549
vt 0.90893227 0.8985659
vt 0.544636 0.8151833
vt 0.544636 0.8093723
vt 0.53865176 0.8093723
vt 0.53865176 0.8151833
vt 0.92090076 0.90437686
vt 0.92688495 0.90437686
vt 0.92688495 0.8985659
vt 0.92090076 0.8985659
vt 0.96656364 0.78496563
vt 0.96656364 0.77915466
vt 0.9605794 0.77915466
vt 0.9605794 0.78496563
vt 0.95492816 0.34063283
vt 0.948944 0.34063283
vt 0.948944 0.3464438
vt 0.95492816 0.3464438
vn -1 0 0
vn -1 0 0
vn -1 0 0
vn -1 0 0
vn -0 0 -1
vn -0 0 -1
vn -0 0 -1
vn -0 0 -1
vn 1 0 0
vn 1 0 0
vn 1 0 0
vn 1 0 0
vn -0 0 1
vn -0 0 1
vn -0 0 1
vn -0 0 1
vn -0 -1 0
vn -0 -1 0
vn -0 -1 0
vn -0 -1 0
vn -0 1 0
vn -0 1 0
vn -0 1 0
vn -0 1 0
g Cube.614_0
f 3/3/3 2/2/2 1/1/1
f 4/4/4 3/3/3 1/1/1
f 7/7/7 6/6/6 5/5/5
f 8/8/8 7/7/7 5/5/5
f 11/11/11 10/10/10 9/9/9
f 12/12/12 11/11/11 9/9/9
f 15/15/15 14/14/14 13/13/13
f 16/16/16 15/15/15 13/13/13
f 19/19/19 18/18/18 17/17/17
f 20/20/20 19/19/19 17/17/17
f 23/23/23 22/22/22 21/21/21
f 24/24/24 23/23/23 21/21/21
