g Cube.612
v 1 0.3062502 -0.26929474
v 1 0.4234384 -0.5195053
v 1 0.15370189 -0.42184305
v -0.19847007 0.3062502 -1
v -0.5566462 0.47299343 -1
v -0.4163705 0.0883498 -1
v 0.3862474 0.3062502 1
v 0.5999783 0.418627 1
v 0.5226559 0.16984166 1
v 0.5693394 0.54005337 0.5638672
v 0.5693394 0.54005337 -0.46852648
v -0.4630543 0.54005337 -0.46852648
v -0.4630543 0.54005337 0.5638672
v -0.5349189 0.46818876 -0.5403911
v -0.69685745 0.3062502 -0.42184386
v -0.69685745 0.3062502 0.5171846
v -0.5349189 0.46818876 0.6357318
v -0.4630543 0.54005337 -0.46852648
v -0.4630543 0.54005337 0.5638672
v 0.70734775 0.40204492 0.5873112
v 0.80314255 0.3062502 0.3646363
v 0.80314255 0.3062502 -0.26929557
v 0.70734775 0.40204492 -0.49197048
v 0.641204 0.46818876 0.6357318
v 0.641204 0.46818876 -0.5403911
v 0.5693394 0.54005337 0.5638672
v 0.5693394 0.54005337 -0.46852648
v -0.69685745 -0.9599466 0.5171846
v -0.69685745 0.3062502 0.5171846
v -0.69685745 0.3062502 -0.42184386
v -0.69685745 -0.9599466 -0.42184386
v 0.5226568 0.16984165 0.79767036
v 0.5226568 -0.9599466 0.79767036
v 0.80314255 -0.9599466 0.5171846
v 0.80314255 0.15370189 0.5171846
v 0.6952746 0.3062502 0.6250526
v 0.61911225 0.3062502 0.7012149
v 0.80314255 0.3062502 -0.26929557
v 0.80314255 0.3062502 0.3646363
v 1 0.3062502 0.36463714
v 1 0.3062502 -0.26929474
v 0.5853639 0.39190978 0.7120108
v 0.61911225 0.3062502 0.7012149
v 0.6952746 0.3062502 0.6250526
v 0.70734775 0.40204492 0.5873112
v 0.641204 0.46818876 0.6357318
v -0.1984713 0.3062502 -0.70232964
v 0.30475637 0.3062502 -0.70232964
v 0.3047576 0.3062502 -1
v -0.19847007 0.3062502 -1
v 0.70734775 0.40204492 -0.49197048
v 0.6952746 0.3062502 -0.52971184
v 0.6767356 0.3062502 -0.5482508
v 0.6228258 0.44308364 -0.5654962
v 0.641204 0.46818876 -0.5403911
v -0.41637167 0.0883498 -0.70232964
v -0.41637167 -0.9599466 -0.70232964
v -0.69685745 -0.9599466 -0.42184386
v -0.69685745 0.3062502 -0.42184386
v -0.57045054 0.3062502 -0.5482508
v 0.5226568 0.0883498 -0.70232964
v 0.5226568 -0.9599466 -0.70232964
v 0.522658 -0.9599466 -1
v 0.522658 0.0883498 -1
v 0.5853639 0.39190978 0.7120108
v 0.641204 0.46818876 0.6357318
v 0.5693394 0.54005337 0.5638672
v 0.38624823 0.3062502 0.79767036
v -0.4630543 0.54005337 0.5638672
v -0.27996314 0.3062502 0.79767036
v -0.47907883 0.39190978 0.7120108
v -0.5349189 0.46818876 0.6357318
v 1 0.4234384 -0.5195053
v 1 0.3062502 -0.26929474
v 1 0.3062502 0.36463714
v 1 1 1
v 1 0.15370189 0.51718545
v 1 -0.9599466 0.51718545
v 1 -1 1
v 1 1 -1
v 1 0.15370189 -0.42184305
v 1 -0.9599466 -0.42184305
v 1 -1 -1
v 0.38624823 0.3062502 0.79767036
v -0.27996314 0.3062502 0.79767036
v -0.27996397 0.3062502 1
v 0.3862474 0.3062502 1
v -0.41637167 -0.9599466 -0.70232964
v -0.41637167 0.0883498 -0.70232964
v -0.4163705 0.0883498 -1
v -0.4163705 -0.9599466 -1
v 0.80314255 -0.9599466 -0.42184386
v 0.80314255 0.15370189 -0.42184386
v 1 0.15370189 -0.42184305
v 1 -0.9599466 -0.42184305
v 0.80314255 0.15370189 0.5171846
v 0.80314255 -0.9599466 0.5171846
v 1 -0.9599466 0.51718545
v 1 0.15370189 0.51718545
v 0.5693394 0.54005337 -0.46852648
v 0.641204 0.46818876 -0.5403911
v 0.6228258 0.44308364 -0.5654962
v 0.30475637 0.3062502 -0.70232964
v -0.4630543 0.54005337 -0.46852648
v -0.1984713 0.3062502 -0.70232964
v -0.5165407 0.44308364 -0.5654962
v -0.5349189 0.46818876 -0.5403911
v 0.5226568 -0.9599466 -0.70232964
v -0.4163705 -0.9599466 -1
v 0.522658 -0.9599466 -1
v -0.41637167 -0.9599466 -0.70232964
v -0.69685745 -0.9599466 -0.42184386
v 0.80314255 -0.9599466 -0.42184386
v -0.69685745 -0.9599466 0.5171846
v 0.80314255 -0.9599466 0.5171846
v 1 -0.9599466 -0.42184305
v 1 -0.9599466 0.51718545
v -0.41637167 -0.9599466 0.79767036
v 0.5226568 -0.9599466 0.79767036
v 0.5226559 -0.9599466 1
v -0.41637248 -0.9599466 1
v 0.5226568 -0.9599466 0.79767036
v 0.5226568 0.16984165 0.79767036
v 0.5226559 0.16984166 1
v 0.5226559 -0.9599466 1
v 0.5226559 -0.9599466 1
v 0.5226559 0.16984166 1
v 0.5999783 0.418627 1
v 1 -1 1
v 1 1 1
v -1 -1 1
v -0.41637248 -0.9599466 1
v -0.4163725 -0.4163725 1
v -1 1 1
v 0.3862474 0.3062502 1
v -0.41637248 0.16984166 1
v -0.27996397 0.3062502 1
v -0.69685745 0.3062502 0.5171846
v -0.51282716 0.3062502 0.7012149
v -0.47907883 0.39190978 0.7120108
v -0.5349189 0.46818876 0.6357318
v -0.41637167 0.16984166 0.79767036
v -0.41637167 -0.9599466 0.79767036
v -0.41637248 -0.9599466 1
v -0.4163725 -0.4163725 1
v -0.41637248 0.16984166 1
v -1 -1 1
v -1 -1 -1
v -1 1 -1
v -1 1 1
v -1 -1 -1
v -1 -1 1
v 1 -1 1
v 1 -1 -1
v 1 1 -1
v 1 1 1
v -1 1 1
v -1 1 -1
v 0.80314255 0.15370189 -0.42184386
v 0.6952746 0.3062502 -0.52971184
v 0.70734775 0.40204492 -0.49197048
v 0.80314255 0.3062502 -0.26929557
v 0.80314255 0.3062502 0.3646363
v 0.70734775 0.40204492 0.5873112
v 0.6952746 0.3062502 0.6250526
v 0.80314255 0.15370189 0.5171846
v 1 0.15370189 0.51718545
v 1 0.3062502 0.36463714
v 0.80314255 0.3062502 0.3646363
v 0.80314255 0.15370189 0.5171846
v 0.80314255 0.15370189 -0.42184386
v 0.80314255 0.3062502 -0.26929557
v 1 0.3062502 -0.26929474
v 1 0.15370189 -0.42184305
v 0.80314255 0.15370189 -0.42184386
v 0.80314255 -0.9599466 -0.42184386
v 0.5226568 -0.9599466 -0.70232964
v 0.5226568 0.0883498 -0.70232964
v 0.6767356 0.3062502 -0.5482508
v 0.6952746 0.3062502 -0.52971184
v -0.41637167 0.0883498 -0.70232964
v -0.57045054 0.3062502 -0.5482508
v -0.5165407 0.44308364 -0.5654962
v -0.1984713 0.3062502 -0.70232964
v 0.30475637 0.3062502 -0.70232964
v 0.6228258 0.44308364 -0.5654962
v 0.6767356 0.3062502 -0.5482508
v 0.5226568 0.0883498 -0.70232964
v -0.19847007 0.3062502 -1
v -0.4163705 0.0883498 -1
v -0.41637167 0.0883498 -0.70232964
v -0.1984713 0.3062502 -0.70232964
v 0.30475637 0.3062502 -0.70232964
v 0.5226568 0.0883498 -0.70232964
v 0.522658 0.0883498 -1
v 0.3047576 0.3062502 -1
v -0.57045054 0.3062502 -0.5482508
v -0.69685745 0.3062502 -0.42184386
v -0.5349189 0.46818876 -0.5403911
v -0.5165407 0.44308364 -0.5654962
v -0.27996314 0.3062502 0.79767036
v -0.47907883 0.39190978 0.7120108
v -0.51282716 0.3062502 0.7012149
v -0.41637167 0.16984166 0.79767036
v 0.5226568 0.16984165 0.79767036
v 0.61911225 0.3062502 0.7012149
v 0.5853639 0.39190978 0.7120108
v 0.38624823 0.3062502 0.79767036
v -0.41637248 0.16984166 1
v -0.27996397 0.3062502 1
v -0.27996314 0.3062502 0.79767036
v -0.41637167 0.16984166 0.79767036
v 0.5226568 0.16984165 0.79767036
v 0.38624823 0.3062502 0.79767036
v 0.3862474 0.3062502 1
v 0.5226559 0.16984166 1
v -0.69685745 0.3062502 0.5171846
v -0.69685745 -0.9599466 0.5171846
v -0.41637167 -0.9599466 0.79767036
v -0.41637167 0.16984166 0.79767036
v -0.51282716 0.3062502 0.7012149
v -1 -1 -1
v 1 -1 -1
v 0.522658 -0.9599466 -1
v 1 1 -1
v 0.522658 0.0883498 -1
v 0.3047576 0.3062502 -1
v -0.4163705 -0.9599466 -1
v -0.4163705 0.0883498 -1
v -0.5566462 0.47299343 -1
v -1 1 -1
v -0.19847007 0.3062502 -1
vt 0.8028277 0.5
vt 0.8282525 0.5
vt 0.8282525 0.5
vt 0.875 0.66693556
vt 0.875 0.7032523
vt 0.875 0.7032523
vt 0.58603287 0.5694824
vt 0.58603287 0.5467476
vt 0.58603287 0.5467476
vt 0.66396713 0.5389672
vt 0.8360328 0.5389672
vt 0.83603287 0.7110328
vt 0.6639672 0.7110328
vt 0.8480103 0.72301024
vt 0.82825243 0.75
vt 0.67174757 0.75
vt 0.65198976 0.72301024
vt 0.83603287 0.7110328
vt 0.6639672 0.7110328
vt 0.6600598 0.5159658
vt 0.6971723 0.5
vt 0.8028277 0.5
vt 0.83994013 0.5159658
vt 0.6519897 0.52698976
vt 0.84801024 0.52698976
vt 0.66396713 0.5389672
vt 0.8360328 0.5389672
vt 0.375 0.7967476
vt 0.58603287 0.7967476
vt 0.58603287 0.9532524
vt 0.375 0.9532524
vt 0.5632981 0.5467476
vt 0.375 0.5467476
vt 0.375 0.45325238
vt 0.56060815 0.45325238
vt 0.58603287 0.48920834
vt 0.58603287 0.5145958
vt 0.8028277 0.5
vt 0.6971723 0.5
vt 0.6971723 0.5
vt 0.8028277 0.5
vt 0.614586 0.5362965
vt 0.59675014 0.53603035
vt 0.6052126 0.52756786
vt 0.6306938 0.5223305
vt 0.64001226 0.52698976
vt 0.875 0.6669357
vt 0.875 0.5830644
vt 0.875 0.5830643
vt 0.875 0.66693556
vt 0.83994013 0.5159658
vt 0.84023774 0.50599265
vt 0.8422976 0.5070226
vt 0.84977865 0.5252213
vt 0.84801024 0.52698976
vt 0.5497161 0.046747625
vt 0.375 0.046747625
vt 0.375 0
vt 0.58603287 0
vt 0.58603287 0.021067819
vt 0.5497161 0.20325238
vt 0.375 0.20325238
vt 0.375 0.20325238
vt 0.5497161 0.20325238
vt 0.614586 0.5362964
vt 0.64001226 0.52698976
vt 0.66396713 0.5389672
vt 0.58603287 0.5694824
vt 0.6639672 0.7110328
vt 0.58603287 0.6805176
vt 0.614586 0.7137036
vt 0.6400124 0.72301024
vt 0.31176087 0.83917403
vt 0.31211153 0.8384471
vt 0.31211153 0.8366052
vt 0.31003577 0.8347592
vt 0.31256795 0.836162
vt 0.31590015 0.836162
vt 0.31601998 0.8347592
vt 0.31003577 0.84057015
vt 0.31256798 0.8388903
vt 0.31590015 0.8388903
vt 0.31601998 0.84057015
vt 0.58603287 0.5694824
vt 0.58603287 0.68051755
vt 0.58603287 0.6805176
vt 0.58603287 0.5694824
vt 0.375 0.046747625
vt 0.5497161 0.046747625
vt 0.5497161 0.046747625
vt 0.375 0.046747625
vt 0.375 0.29674762
vt 0.56060815 0.29674762
vt 0.56060815 0.29674765
vt 0.375 0.29674762
vt 0.56060815 0.45325238
vt 0.375 0.45325238
vt 0.375 0.45325238
vt 0.56060815 0.45325238
vt 0.8360328 0.5389672
vt 0.84801024 0.52698976
vt 0.8521944 0.5300528
vt 0.875 0.5830643
vt 0.83603287 0.7110328
vt 0.87500006 0.6669357
vt 0.85219455 0.7199472
vt 0.8480103 0.72301024
vt 0.125 0.5467476
vt 0.125 0.7032523
vt 0.125 0.5467476
vt 0.125 0.7032524
vt 0.17174762 0.75
vt 0.17174762 0.5
vt 0.32825238 0.75
vt 0.32825238 0.5
vt 0.17174762 0.5
vt 0.32825238 0.5
vt 0.375 0.7032524
vt 0.375 0.5467476
vt 0.375 0.5467476
vt 0.375 0.7032524
vt 0.375 0.5467476
vt 0.5632981 0.5467476
vt 0.5632981 0.5467476
vt 0.375 0.5467476
vt 0.9318779 0.86147153
vt 0.9318779 0.8581889
vt 0.9316465 0.8574661
vt 0.9304496 0.8615879
vt 0.9304496 0.8557769
vt 0.93643385 0.8615879
vt 0.93468755 0.86147153
vt 0.93468755 0.8598922
vt 0.93643385 0.8557769
vt 0.932286 0.8577926
vt 0.9346875 0.858189
vt 0.9342794 0.8577926
vt 0.67174757 0.75
vt 0.65129983 0.73977613
vt 0.6466165 0.7283834
vt 0.65198976 0.72301024
vt 0.5632981 0.7032524
vt 0.375 0.7032524
vt 0.375 0.7032524
vt 0.4655957 0.7032523
vt 0.5632981 0.70325243
vt 0.5340232 0.9083305
vt 0.5340232 0.9025195
vt 0.52803904 0.9025195
vt 0.52803904 0.9083305
vt 0.9685682 0.05229886
vt 0.9685682 0.04648787
vt 0.96258396 0.046487875
vt 0.96258396 0.05229886
vt 0.80720043 0.92180985
vt 0.8012162 0.92180985
vt 0.8012162 0.9276208
vt 0.80720043 0.9276208
vt 0.56060815 0.29674762
vt 0.58603287 0.29674762
vt 0.58603287 0.29674762
vt 0.58603287 0.29674762
vt 0.6971723 0.5
vt 0.6600598 0.5159658
vt 0.6627586 0.5122792
vt 0.67174757 0.5
vt 0.56060815 0.45325238
vt 0.58603287 0.45325238
vt 0.58603287 0.45325238
vt 0.56060815 0.45325238
vt 0.56060815 0.29674762
vt 0.58603287 0.29674762
vt 0.58603287 0.29674765
vt 0.56060815 0.29674765
vt 0.56060815 0.29674762
vt 0.375 0.29674762
vt 0.375 0.20325238
vt 0.5497161 0.20325238
vt 0.58603287 0.254612
vt 0.58603287 0.26079166
vt 0.5497161 0.046747625
vt 0.58603287 0.046747625
vt 0.58603287 0.046747625
vt 0.58603287 0.046747625
vt 0.875 0.5830643
vt 0.8521944 0.5300528
vt 0.8574604 0.5339078
vt 0.875 0.5467476
vt 0.875 0.66693556
vt 0.875 0.7032523
vt 0.875 0.7032524
vt 0.875 0.6669357
vt 0.875 0.5830644
vt 0.875 0.5467476
vt 0.875 0.5467476
vt 0.875 0.5830643
vt 0.86644006 0.72037226
vt 0.8594175 0.7344175
vt 0.8480103 0.72301024
vt 0.8521945 0.7199472
vt 0.58603287 0.6805176
vt 0.614586 0.7137036
vt 0.60799295 0.7112903
vt 0.58603287 0.7032524
vt 0.5632981 0.5467476
vt 0.58603287 0.5467476
vt 0.58603287 0.5467476
vt 0.58603287 0.5467476
vt 0.5632981 0.70325243
vt 0.58603287 0.6805176
vt 0.58603287 0.68051755
vt 0.5632981 0.7032524
vt 0.5632981 0.5467476
vt 0.58603287 0.5694824
vt 0.58603287 0.5694824
vt 0.5632981 0.5467476
vt 0.58603287 0.7967476
vt 0.375 0.7967476
vt 0.375 0.7032524
vt 0.5632981 0.7032524
vt 0.58603287 0.7354042
vt 0.87901115 0.8985659
vt 0.87901115 0.8927549
vt 0.8788913 0.8941418
vt 0.8730269 0.8927549
vt 0.87575465 0.8941418
vt 0.8751027 0.8947749
vt 0.8788913 0.89687014
vt 0.87575465 0.89687014
vt 0.8746038 0.8972777
vt 0.8730269 0.8985659
vt 0.8751027 0.896237
vn 1 0 0
vn 1 0 0
vn 1 0 0
vn -0 0 -1
vn -0 0 -1
vn -0 0 -1
vn -0 0 1
vn -0 0 1
vn -0 0 1
vn -0 -1 0
vn -0 -1 0
vn -0 -1 0
vn -0 -1 0
vn 0.70710677 -0.70710677 0
vn 0.70710677 -0.70710677 0
vn 0.70710677 -0.70710677 0
vn 0.70710677 -0.70710677 0
vn 0.70710677 -0.70710677 0
vn 0.70710677 -0.70710677 0
vn -0.7071068 -0.70710677 0
vn -0.7071068 -0.70710677 0
vn -0.7071068 -0.70710677 0
vn -0.7071068 -0.70710677 0
vn -0.7071068 -0.70710677 0
vn -0.7071068 -0.70710677 0
vn -0.7071068 -0.70710677 0
vn -0.7071068 -0.70710677 0
vn 1 0 0
vn 1 0 0
vn 1 0 0
vn 1 0 0
vn -0.70710665 0 -0.7071068
vn -0.70710665 0 -0.7071068
vn -0.70710665 0 -0.7071068
vn -0.70710665 0 -0.7071068
vn -0.70710665 0 -0.7071068
vn -0.70710665 0 -0.7071068
vn -0 -1 0
vn -0 -1 0
vn -0 -1 0
vn -0 -1 0
vn -0.69474643 -0.18615696 -0.69474673
vn -0.69474643 -0.18615696 -0.69474673
vn -0.69474643 -0.18615696 -0.69474673
vn -0.69474643 -0.18615696 -0.69474673
vn -0.69474643 -0.18615696 -0.69474673
vn -0 -1 0
vn -0 -1 0
vn -0 -1 0
vn -0 -1 0
vn -0.69474685 -0.18615717 0.69474626
vn -0.69474685 -0.18615717 0.69474626
vn -0.69474685 -0.18615717 0.69474626
vn -0.69474685 -0.18615717 0.69474626
vn -0.69474685 -0.18615717 0.69474626
vn 0.70710665 0 0.7071069
vn 0.70710665 0 0.7071069
vn 0.70710665 0 0.7071069
vn 0.70710665 0 0.7071069
vn 0.70710665 0 0.7071069
vn -1 0 -4.0112495E-06
vn -1 0 -4.0112495E-06
vn -1 0 -4.0112495E-06
vn -1 0 -4.0112495E-06
vn -0 -0.7071068 -0.70710677
vn -0 -0.7071068 -0.70710677
vn -0 -0.7071068 -0.70710677
vn -0 -0.7071068 -0.70710677
vn -0 -0.7071068 -0.70710677
vn -0 -0.7071068 -0.70710677
vn -0 -0.7071068 -0.70710677
vn -0 -0.7071068 -0.70710677
vn 1 0 0
vn 1 0 0
vn 1 0 0
vn 1 0 0
vn 1 0 0
vn 1 0 0
vn 1 0 0
vn 1 0 0
vn 1 0 0
vn 1 0 0
vn 1 0 0
vn -0 -1 0
vn -0 -1 0
vn -0 -1 0
vn -0 -1 0
vn 1 0 4.0112495E-06
vn 1 0 4.0112495E-06
vn 1 0 4.0112495E-06
vn 1 0 4.0112495E-06
vn -4.08754E-06 0 1
vn -4.08754E-06 0 1
vn -4.08754E-06 0 1
vn -4.08754E-06 0 1
vn 4.2389306E-06 0 -1
vn 4.2389306E-06 0 -1
vn 4.2389306E-06 0 -1
vn 4.2389306E-06 0 -1
vn -0 -0.70710677 0.7071068
vn -0 -0.70710677 0.7071068
vn -0 -0.70710677 0.7071068
vn -0 -0.70710677 0.7071068
vn -0 -0.70710677 0.7071068
vn -0 -0.70710677 0.7071068
vn -0 -0.70710677 0.7071068
vn -0 -0.70710677 0.7071068
vn -0 1 0
vn -0 1 0
vn -0 1 0
vn -0 1 0
vn -0 1 0
vn -0 1 0
vn -0 1 0
vn -0 1 0
vn -0 1 0
vn -0 1 0
vn -0 1 0
vn -0 1 0
vn -0 1 0
vn -0 1 0
vn -1 0 -4.2060633E-06
vn -1 0 -4.2060633E-06
vn -1 0 -4.2060633E-06
vn -1 0 -4.2060633E-06
vn -0 0 1
vn -0 0 1
vn -0 0 1
vn -0 0 1
vn -0 0 1
vn -0 0 1
vn -0 0 1
vn -0 0 1
vn -0 0 1
vn -0 0 1
vn -0 0 1
vn -0 0 1
vn 0.6947467 -0.18615703 -0.6947465
vn 0.6947467 -0.18615703 -0.6947465
vn 0.6947467 -0.18615703 -0.6947465
vn 0.6947467 -0.18615703 -0.6947465
vn 1 0 4.1719927E-06
vn 1 0 4.1719927E-06
vn 1 0 4.1719927E-06
vn 1 0 4.1719927E-06
vn 1 0 4.1719927E-06
vn -1 0 0
vn -1 0 0
vn -1 0 0
vn -1 0 0
vn -0 -1 0
vn -0 -1 0
vn -0 -1 0
vn -0 -1 0
vn -0 1 0
vn -0 1 0
vn -0 1 0
vn -0 1 0
vn -0.8966498 -0.24099326 0.37140465
vn -0.8966498 -0.24099326 0.37140465
vn -0.8966498 -0.24099326 0.37140465
vn -0.8966498 -0.24099326 0.37140465
vn -0.8966498 -0.24099326 -0.37140465
vn -0.8966498 -0.24099326 -0.37140465
vn -0.8966498 -0.24099326 -0.37140465
vn -0.8966498 -0.24099326 -0.37140465
vn 3.035027E-06 -0.70710677 -0.70710677
vn 3.035027E-06 -0.70710677 -0.70710677
vn 3.035027E-06 -0.70710677 -0.70710677
vn 3.035027E-06 -0.70710677 -0.70710677
vn -2.94731E-06 -0.70710677 0.70710677
vn -2.94731E-06 -0.70710677 0.70710677
vn -2.94731E-06 -0.70710677 0.70710677
vn -2.94731E-06 -0.70710677 0.70710677
vn -0.70710677 0 0.7071068
vn -0.70710677 0 0.7071068
vn -0.70710677 0 0.7071068
vn -0.70710677 0 0.7071068
vn -0.70710677 0 0.7071068
vn -0.70710677 0 0.7071068
vn 0.3714044 -0.2409935 0.8966498
vn 0.3714044 -0.2409935 0.8966498
vn 0.3714044 -0.2409935 0.8966498
vn 0.3714044 -0.2409935 0.8966498
vn -0.3714046 -0.24099337 0.8966498
vn -0.3714046 -0.24099337 0.8966498
vn -0.3714046 -0.24099337 0.8966498
vn -0.3714046 -0.24099337 0.8966498
vn 0.7071068 -0.70710677 2.7615977E-06
vn 0.7071068 -0.70710677 2.7615977E-06
vn 0.7071068 -0.70710677 2.7615977E-06
vn 0.7071068 -0.70710677 2.7615977E-06
vn -0.7071068 -0.70710677 -2.842821E-06
vn -0.7071068 -0.70710677 -2.842821E-06
vn -0.7071068 -0.70710677 -2.842821E-06
vn -0.7071068 -0.70710677 -2.842821E-06
vn 0.69474673 -0.18615726 0.69474626
vn 0.69474673 -0.18615726 0.69474626
vn 0.69474673 -0.18615726 0.69474626
vn 0.69474673 -0.18615726 0.69474626
vn 0.37140462 -0.24099305 -0.8966498
vn 0.37140462 -0.24099305 -0.8966498
vn 0.37140462 -0.24099305 -0.8966498
vn 0.37140462 -0.24099305 -0.8966498
vn -0.37140465 -0.24099302 -0.8966499
vn -0.37140465 -0.24099302 -0.8966499
vn -0.37140465 -0.24099302 -0.8966499
vn -0.37140465 -0.24099302 -0.8966499
vn 0.7071069 -0.70710665 2.8632896E-06
vn 0.7071069 -0.70710665 2.8632896E-06
vn 0.7071069 -0.70710665 2.8632896E-06
vn 0.7071069 -0.70710665 2.8632896E-06
vn -0.70710665 -0.7071068 -2.863289E-06
vn -0.70710665 -0.7071068 -2.863289E-06
vn -0.70710665 -0.7071068 -2.863289E-06
vn -0.70710665 -0.7071068 -2.863289E-06
vn 0.70710677 0 -0.7071068
vn 0.70710677 0 -0.7071068
vn 0.70710677 0 -0.7071068
vn 0.70710677 0 -0.7071068
vn 0.70710677 0 -0.7071068
vn -0 0 -1
vn -0 0 -1
vn -0 0 -1
vn -0 0 -1
vn -0 0 -1
vn -0 0 -1
vn -0 0 -1
vn -0 0 -1
vn -0 0 -1
vn -0 0 -1
vn -0 0 -1
g Cube.612_0
f 3/3/3 2/2/2 1/1/1
f 6/6/6 5/5/5 4/4/4
f 9/9/9 8/8/8 7/7/7
f 12/12/12 11/11/11 10/10/10
f 13/13/13 12/12/12 10/10/10
f 16/16/16 15/15/15 14/14/14
f 14/14/14 17/17/17 16/16/16
f 14/14/14 18/18/18 17/17/17
f 18/18/18 19/19/19 17/17/17
f 22/22/22 21/21/21 20/20/20
f 20/20/20 23/23/23 22/22/22
f 20/20/20 24/24/24 23/23/23
f 24/24/24 25/25/25 23/23/23
f 24/24/24 26/26/26 25/25/25
f 26/26/26 27/27/27 25/25/25
f 30/30/30 29/29/29 28/28/28
f 31/31/31 30/30/30 28/28/28
f 34/34/34 33/33/33 32/32/32
f 32/32/32 35/35/35 34/34/34
f 32/32/32 36/36/36 35/35/35
f 32/32/32 37/37/37 36/36/36
f 40/40/40 39/39/39 38/38/38
f 41/41/41 40/40/40 38/38/38
f 44/44/44 43/43/43 42/42/42
f 42/42/42 45/45/45 44/44/44
f 42/42/42 46/46/46 45/45/45
f 49/49/49 48/48/48 47/47/47
f 50/50/50 49/49/49 47/47/47
f 53/53/53 52/52/52 51/51/51
f 51/51/51 54/54/54 53/53/53
f 51/51/51 55/55/55 54/54/54
f 58/58/58 57/57/57 56/56/56
f 56/56/56 59/59/59 58/58/58
f 56/56/56 60/60/60 59/59/59
f 63/63/63 62/62/62 61/61/61
f 64/64/64 63/63/63 61/61/61
f 67/67/67 66/66/66 65/65/65
f 65/65/65 68/68/68 67/67/67
f 68/68/68 69/69/69 67/67/67
f 68/68/68 70/70/70 69/69/69
f 70/70/70 71/71/71 69/69/69
f 71/71/71 72/72/72 69/69/69
f 75/75/75 74/74/74 73/73/73
f 75/75/75 73/73/73 76/76/76
f 77/77/77 75/75/75 76/76/76
f 78/78/78 77/77/77 76/76/76
f 76/76/76 79/79/79 78/78/78
f 73/73/73 80/80/80 76/76/76
f 80/80/80 73/73/73 81/81/81
f 79/79/79 82/82/82 78/78/78
f 80/80/80 81/81/81 82/82/82
f 82/82/82 79/79/79 83/83/83
f 83/83/83 80/80/80 82/82/82
f 86/86/86 85/85/85 84/84/84
f 87/87/87 86/86/86 84/84/84
f 90/90/90 89/89/89 88/88/88
f 91/91/91 90/90/90 88/88/88
f 94/94/94 93/93/93 92/92/92
f 95/95/95 94/94/94 92/92/92
f 98/98/98 97/97/97 96/96/96
f 99/99/99 98/98/98 96/96/96
f 102/102/102 101/101/101 100/100/100
f 100/100/100 103/103/103 102/102/102
f 100/100/100 104/104/104 103/103/103
f 104/104/104 105/105/105 103/103/103
f 104/104/104 106/106/106 105/105/105
f 104/104/104 107/107/107 106/106/106
f 110/110/110 109/109/109 108/108/108
f 109/109/109 111/111/111 108/108/108
f 108/108/108 111/111/111 112/112/112
f 112/112/112 113/113/113 108/108/108
f 112/112/112 114/114/114 113/113/113
f 114/114/114 115/115/115 113/113/113
f 116/116/116 113/113/113 115/115/115
f 117/117/117 116/116/116 115/115/115
f 114/114/114 118/118/118 115/115/115
f 118/118/118 119/119/119 115/115/115
f 120/120/120 119/119/119 118/118/118
f 121/121/121 120/120/120 118/118/118
f 124/124/124 123/123/123 122/122/122
f 125/125/125 124/124/124 122/122/122
f 128/128/128 127/127/127 126/126/126
f 128/128/128 126/126/126 129/129/129
f 129/129/129 130/130/130 128/128/128
f 126/126/126 131/131/131 129/129/129
f 126/126/126 132/132/132 131/131/131
f 132/132/132 133/133/133 131/131/131
f 128/128/128 130/130/130 134/134/134
f 134/134/134 131/131/131 133/133/133
f 134/134/134 135/135/135 128/128/128
f 134/134/134 133/133/133 136/136/136
f 134/134/134 137/137/137 135/135/135
f 134/134/134 136/136/136 137/137/137
f 140/140/140 139/139/139 138/138/138
f 141/141/141 140/140/140 138/138/138
f 144/144/144 143/143/143 142/142/142
f 142/142/142 145/145/145 144/144/144
f 142/142/142 146/146/146 145/145/145
f 149/149/149 148/148/148 147/147/147
f 150/150/150 149/149/149 147/147/147
f 153/153/153 152/152/152 151/151/151
f 154/154/154 153/153/153 151/151/151
f 157/157/157 156/156/156 155/155/155
f 158/158/158 157/157/157 155/155/155
f 161/161/161 160/160/160 159/159/159
f 162/162/162 161/161/161 159/159/159
f 165/165/165 164/164/164 163/163/163
f 166/166/166 165/165/165 163/163/163
f 169/169/169 168/168/168 167/167/167
f 170/170/170 169/169/169 167/167/167
f 173/173/173 172/172/172 171/171/171
f 174/174/174 173/173/173 171/171/171
f 177/177/177 176/176/176 175/175/175
f 175/175/175 178/178/178 177/177/177
f 175/175/175 179/179/179 178/178/178
f 175/175/175 180/180/180 179/179/179
f 183/183/183 182/182/182 181/181/181
f 184/184/184 183/183/183 181/181/181
f 187/187/187 186/186/186 185/185/185
f 188/188/188 187/187/187 185/185/185
f 191/191/191 190/190/190 189/189/189
f 192/192/192 191/191/191 189/189/189
f 195/195/195 194/194/194 193/193/193
f 196/196/196 195/195/195 193/193/193
f 199/199/199 198/198/198 197/197/197
f 200/200/200 199/199/199 197/197/197
f 203/203/203 202/202/202 201/201/201
f 204/204/204 203/203/203 201/201/201
f 207/207/207 206/206/206 205/205/205
f 208/208/208 207/207/207 205/205/205
f 211/211/211 210/210/210 209/209/209
f 212/212/212 211/211/211 209/209/209
f 215/215/215 214/214/214 213/213/213
f 216/216/216 215/215/215 213/213/213
f 219/219/219 218/218/218 217/217/217
f 217/217/217 220/220/220 219/219/219
f 217/217/217 221/221/221 220/220/220
f 224/224/224 223/223/223 222/222/222
f 225/225/225 223/223/223 224/224/224
f 224/224/224 226/226/226 225/225/225
f 226/226/226 227/227/227 225/225/225
f 222/222/222 228/228/228 224/224/224
f 222/222/222 229/229/229 228/228/228
f 222/222/222 230/230/230 229/229/229
f 227/227/227 231/231/231 225/225/225
f 222/222/222 231/231/231 230/230/230
f 227/227/227 232/232/232 231/231/231
f 232/232/232 230/230/230 231/231/231
