g Cube.688
v 0.15540111 0.99985623 0.6718373
v 0.15583202 1 0.6738644
v 0.15550151 1 0.668623
v 0.23170766 0.97199994 -1
v 0.24369958 0.957904 -0.9999998
v 0.23828673 0.9628929 -0.8665387
v 0.20866103 0.88733214 1
v 0.19221659 0.9998564 1
v 0.15540111 0.99985623 0.6718373
v 0.15550151 1 0.668623
v 0.15541446 1 0.6653931
v 0.15540111 0.99985623 0.6718373
v 0.7873035 0.25216082 1
v 0.7614774 0.4288814 1
v 0.7036603 0.42887688 0.48462954
v 1 0.01137745 0.6946049
v 1 0.043086737 1
v 0.93141264 0.062312655 0.9999999
v 0.8085549 0.37720767 -1.0000001
v 1 0.0814653 -1
v 1 0.08110221 -0.09943339
v 0.15540111 0.99985623 0.6718373
v 0.19221659 0.9998564 1
v 0.19242011 1 1
v 0.15583202 1 0.6738644
v 0.23828673 0.9628929 -0.8665387
v 0.30579954 0.72245747 1
v 0.20866103 0.88733214 1
v 0.15540111 0.99985623 0.6718373
v 0.5726156 0.44579092 0.7061604
v 0.5870993 0.4722406 1
v 0.50662357 0.49479884 1
v 0.7100289 0.4344627 1
v 0.23828673 0.9628929 -0.8665387
v 0.5726156 0.44579092 0.7061604
v 0.50662357 0.49479884 1
v 0.30579954 0.72245747 1
v 0.23828673 0.9628929 -0.8665387
v 0.5761517 0.4410161 -1.0000001
v 0.5726156 0.44579092 0.7061604
v 0.26826045 0.91664356 -1
v 0.24369958 0.957904 -0.9999998
v -1 -1 1
v -1 -1 -1
v -1 1 -1
v -1 1 1
v -1 -1 -1
v 1 -1 -1
v 1 0.0814653 -1
v 0.8085549 0.37720767 -1.0000001
v 0.7794659 0.41018358 -1
v 0.5761517 0.4410161 -1.0000001
v 0.26826045 0.91664356 -1
v 0.24369958 0.957904 -0.9999998
v 0.23170766 0.97199994 -1
v 0.2003969 1 -1
v -1 1 -1
v 1 0.0814653 -1
v 1 -1 -1
v 1 -1 1
v 1 0.01137745 0.6946049
v 1 0.043086737 1
v 1 0.08110221 -0.09943339
v -1 1 1
v 0.19242011 1 1
v 0.19221659 0.9998564 1
v -1 -1 1
v 0.20866103 0.88733214 1
v 0.30579954 0.72245747 1
v 0.50662357 0.49479884 1
v 0.5870993 0.4722406 1
v 0.7100289 0.4344627 1
v 0.7614774 0.4288814 1
v 0.7873035 0.25216082 1
v 0.8342845 0.17241941 1
v 0.93141264 0.062312655 0.9999999
v 1 -1 1
v 1 0.043086737 1
v -1 -1 -1
v -1 -1 1
v 1 -1 1
v 1 -1 -1
v 0.5726156 0.44579092 0.7061604
v 0.5761517 0.4410161 -1.0000001
v 0.7794659 0.41018358 -1
v 0.76689076 0.41243035 -0.8632432
v 0.7270018 0.42067057 0.018731207
v -1 1 1
v -1 1 -1
v 0.2003969 1 -1
v 0.15541446 1 0.6653931
v 0.15550151 1 0.668623
v 0.15583202 1 0.6738644
v 0.19242011 1 1
v 0.15541446 1 0.6653931
v 0.2003969 1 -1
v 0.23170766 0.97199994 -1
v 0.23828673 0.9628929 -0.8665387
v 0.15540111 0.99985623 0.6718373
v 0.76689076 0.41243035 -0.8632432
v 0.8342845 0.17241941 1
v 0.7873035 0.25216082 1
v 0.7270018 0.42067057 0.018731207
v 0.7036603 0.42887688 0.48462954
v 1 0.08110221 -0.09943339
v 1 0.01137745 0.6946049
v 0.93141264 0.062312655 0.9999999
v 0.8342845 0.17241941 1
v 0.8085549 0.37720767 -1.0000001
v 0.76689076 0.41243035 -0.8632432
v 0.7794659 0.41018358 -1
v 0.5726156 0.44579092 0.7061604
v 0.7270018 0.42067057 0.018731207
v 0.7036603 0.42887688 0.48462954
v 0.7614774 0.4288814 1
v 0.7100289 0.4344627 1
vt 0.5909085 0.236191
vt 0.59081376 0.2363552
vt 0.5910033 0.2363552
vt 0.6402731 0.16423346
vt 0.64099365 0.157461
vt 0.636363 0.157461
vt 0.57732743 0.21266769
vt 0.5790866 0.236191
vt 0.5909085 0.236191
vt 0.5910033 0.2363552
vt 0.5910981 0.236191
vt 0.5909085 0.236191
vt 0.5608695 0.18416163
vt 0.5636323 0.22110526
vt 0.58219826 0.22110435
vt 0.51649463 0.10730125
vt 0.5143083 0.11922226
vt 0.52954125 0.12989888
vt 0.6287267 0.1442343
vt 0.6291901 0.09958653
vt 0.6026983 0.09915125
vt 0.5909085 0.236191
vt 0.5790866 0.236191
vt 0.57906485 0.23635516
vt 0.59081376 0.2363552
vt 0.636363 0.157461
vt 0.5720079 0.157461
vt 0.57732743 0.21266769
vt 0.5909085 0.236191
vt 0.49999952 0.0787305
vt 0.4946791 0.08794586
vt 0.51255244 0.10047307
vt 0.47310424 0.0787305
vt 0.636363 0.157461
vt 0.5909085 0.0787305
vt 0.5783556 0.10047307
vt 0.5720079 0.157461
vt 0.636363 0.157461
vt 0.64110684 0.0787305
vt 0.5909085 0.0787305
vt 0.6403616 0.15053521
vt 0.64099365 0.157461
vt 0.9429597 0.23022412
vt 0.9429597 0.22441313
vt 0.9369755 0.22441313
vt 0.9369755 0.23022412
vt 0.92500705 0.29414493
vt 0.92500705 0.28833395
vt 0.92177117 0.28833395
vt 0.9208863 0.28889018
vt 0.9207875 0.2889747
vt 0.92069525 0.28956538
vt 0.9192722 0.29046
vt 0.91914874 0.29053134
vt 0.91910654 0.29056624
vt 0.9190228 0.2906572
vt 0.9190228 0.29414493
vt 0.8972926 0.8557769
vt 0.9005285 0.8557769
vt 0.9005285 0.84996593
vt 0.8975023 0.85085326
vt 0.8974074 0.84996593
vt 0.89729375 0.8531604
vt 0.9429597 0.25927904
vt 0.93939185 0.25927904
vt 0.93939245 0.25927943
vt 0.9429597 0.26509002
vt 0.9393433 0.2596064
vt 0.9390525 0.26008543
vt 0.9384517 0.2607469
vt 0.93821096 0.26081243
vt 0.93784314 0.2609222
vt 0.9376892 0.2609384
vt 0.93761194 0.261452
vt 0.9374711 0.2616835
vt 0.9371807 0.26200345
vt 0.9369755 0.26509002
vt 0.9369755 0.26205933
vt 0.96656364 0.8430755
vt 0.96656364 0.83726454
vt 0.9605794 0.83726454
vt 0.9605794 0.8430755
vt 0.5909085 0.0787305
vt 0.64110684 0.0787305
vt 0.6415989 0.0313144
vt 0.6375456 0.03418103
vt 0.6115041 0.043057475
vt 0.95492816 0.28252298
vt 0.9609124 0.28252298
vt 0.96091235 0.27903524
vt 0.9559293 0.27916592
vt 0.95591974 0.2791657
vt 0.95590395 0.2791647
vt 0.95492816 0.2790584
vt 0.5910981 0.236191
vt 0.64019734 0.19516417
vt 0.6402731 0.16423346
vt 0.636363 0.157461
vt 0.5909085 0.236191
vt 0.62253827 0.157461
vt 0.5582968 0.157461
vt 0.5608695 0.18416163
vt 0.59606063 0.19826145
vt 0.58219826 0.22110435
vt 0.6026983 0.09915125
vt 0.5744134 0.10730125
vt 0.56136686 0.12989888
vt 0.5582968 0.157461
vt 0.6287267 0.1442343
vt 0.62253827 0.157461
vt 0.62780726 0.15248889
vt 0.49999952 0.0787305
vt 0.4794039 0.043057475
vt 0.47909513 0.061140418
vt 0.46407473 0.074873656
vt 0.47310424 0.0787305
vn 0.4283491 -0.9032097 -0.027005533
vn 0.4283491 -0.9032097 -0.027005533
vn 0.4283491 -0.9032097 -0.027005533
vn 0.76164806 0.64795667 0.0066688512
vn 0.76164806 0.64795667 0.0066688512
vn 0.76164806 0.64795667 0.0066688512
vn 0.98344857 0.14372252 -0.110329986
vn 0.98344857 0.14372252 -0.110329986
vn 0.98344857 0.14372252 -0.110329986
vn 0.60965216 -0.7924991 -0.016412465
vn 0.60965216 -0.7924991 -0.016412465
vn 0.60965216 -0.7924991 -0.016412465
vn 0.9834487 0.14372233 -0.11032992
vn 0.9834487 0.14372233 -0.11032992
vn 0.9834487 0.14372233 -0.11032992
vn 0.26857063 0.95810926 -0.099480994
vn 0.26857063 0.95810926 -0.099480994
vn 0.26857063 0.95810926 -0.099480994
vn 0.83946353 0.5434159 0.00021914787
vn 0.83946353 0.5434159 0.00021914787
vn 0.83946353 0.5434159 0.00021914787
vn 0.57546246 -0.8152765 -0.06455319
vn 0.57546246 -0.8152765 -0.06455319
vn 0.57546246 -0.8152765 -0.06455319
vn 0.57546246 -0.8152765 -0.06455319
vn 0.8610796 0.50731856 0.0342042
vn 0.8610796 0.50731856 0.0342042
vn 0.8610796 0.50731856 0.0342042
vn 0.8610796 0.50731856 0.0342042
vn 0.26856917 0.9581096 -0.09948133
vn 0.26856917 0.9581096 -0.09948133
vn 0.26856917 0.9581096 -0.09948133
vn 0.29228127 0.95108783 -0.10001801
vn 0.74865973 0.6604132 0.057991102
vn 0.74865973 0.6604132 0.057991102
vn 0.74865973 0.6604132 0.057991102
vn 0.74865973 0.6604132 0.057991102
vn 0.8394636 0.5434159 0.0002190672
vn 0.8394636 0.5434159 0.0002190672
vn 0.8394636 0.5434159 0.0002190672
vn 0.8394636 0.5434159 0.0002190672
vn 0.8591755 0.5114392 0.01572749
vn -1 0 0
vn -1 0 0
vn -1 0 0
vn -1 0 0
vn -0 0 -1
vn -0 0 -1
vn -0 0 -1
vn -0 0 -1
vn -0 0 -1
vn -0 0 -1
vn -0 0 -1
vn -0 0 -1
vn -0 0 -1
vn -0 0 -1
vn -0 0 -1
vn 1 0 0
vn 1 0 0
vn 1 0 0
vn 1 0 0
vn 1 0 0
vn 1 0 0
vn -0 0 1
vn -0 0 1
vn -0 0 1
vn -0 0 1
vn -0 0 1
vn -0 0 1
vn -0 0 1
vn -0 0 1
vn -0 0 1
vn -0 0 1
vn -0 0 1
vn -0 0 1
vn -0 0 1
vn -0 0 1
vn -0 0 1
vn -0 -1 0
vn -0 -1 0
vn -0 -1 0
vn -0 -1 0
vn 0.14993508 0.9886929 -0.0024561682
vn 0.14993508 0.9886929 -0.0024561682
vn 0.14993508 0.9886929 -0.0024561682
vn 0.14993508 0.9886929 -0.0024561682
vn 0.14993508 0.9886929 -0.0024561682
vn -0 1 0
vn -0 1 0
vn -0 1 0
vn -0 1 0
vn -0 1 0
vn -0 1 0
vn -0 1 0
vn 0.6664885 0.7452979 0.018002022
vn 0.6664885 0.7452979 0.018002022
vn 0.6664885 0.7452979 0.018002022
vn 0.6664885 0.7452979 0.018002022
vn 0.6664885 0.7452979 0.018002022
vn 0.8610795 0.5073186 0.034204204
vn 0.8610795 0.5073186 0.034204204
vn 0.8610795 0.5073186 0.034204204
vn 0.8610795 0.5073186 0.034204204
vn 0.8610795 0.5073186 0.034204204
vn 0.7486595 0.6604135 0.05799109
vn 0.7486595 0.6604135 0.05799109
vn 0.7486595 0.6604135 0.05799109
vn 0.7486595 0.6604135 0.05799109
vn 0.7486595 0.6604135 0.05799109
vn 0.7486595 0.6604135 0.05799109
vn 0.7486595 0.6604135 0.05799109
vn 0.10784152 0.99409443 -0.0121070715
vn 0.10784152 0.99409443 -0.0121070715
vn 0.10784152 0.99409443 -0.0121070715
vn 0.10784152 0.99409443 -0.0121070715
vn 0.10784152 0.99409443 -0.0121070715
g Cube.688_0
f 3/3/3 2/2/2 1/1/1
f 6/6/6 5/5/5 4/4/4
f 9/9/9 8/8/8 7/7/7
f 12/12/12 11/11/11 10/10/10
f 15/15/15 14/14/14 13/13/13
f 18/18/18 17/17/17 16/16/16
f 21/21/21 20/20/20 19/19/19
f 24/24/24 23/23/23 22/22/22
f 25/25/25 24/24/24 22/22/22
f 28/28/28 27/27/27 26/26/26
f 29/29/29 28/28/28 26/26/26
f 32/32/32 31/31/31 30/30/30
f 31/31/31 33/33/33 30/30/30
f 36/36/36 35/35/35 34/34/34
f 37/37/37 36/36/36 34/34/34
f 40/40/40 39/39/39 38/38/38
f 39/39/39 41/41/41 38/38/38
f 38/38/38 41/41/41 42/42/42
f 45/45/45 44/44/44 43/43/43
f 46/46/46 45/45/45 43/43/43
f 49/49/49 48/48/48 47/47/47
f 47/47/47 50/50/50 49/49/49
f 47/47/47 51/51/51 50/50/50
f 47/47/47 52/52/52 51/51/51
f 47/47/47 53/53/53 52/52/52
f 47/47/47 54/54/54 53/53/53
f 47/47/47 55/55/55 54/54/54
f 47/47/47 56/56/56 55/55/55
f 47/47/47 57/57/57 56/56/56
f 60/60/60 59/59/59 58/58/58
f 58/58/58 61/61/61 60/60/60
f 60/60/60 61/61/61 62/62/62
f 58/58/58 63/63/63 61/61/61
f 66/66/66 65/65/65 64/64/64
f 66/66/66 64/64/64 67/67/67
f 68/68/68 66/66/66 67/67/67
f 69/69/69 68/68/68 67/67/67
f 70/70/70 69/69/69 67/67/67
f 71/71/71 70/70/70 67/67/67
f 72/72/72 71/71/71 67/67/67
f 73/73/73 72/72/72 67/67/67
f 74/74/74 73/73/73 67/67/67
f 75/75/75 74/74/74 67/67/67
f 76/76/76 75/75/75 67/67/67
f 76/76/76 67/67/67 77/77/77
f 77/77/77 78/78/78 76/76/76
f 81/81/81 80/80/80 79/79/79
f 82/82/82 81/81/81 79/79/79
f 85/85/85 84/84/84 83/83/83
f 83/83/83 86/86/86 85/85/85
f 83/83/83 87/87/87 86/86/86
f 90/90/90 89/89/89 88/88/88
f 88/88/88 91/91/91 90/90/90
f 88/88/88 92/92/92 91/91/91
f 88/88/88 93/93/93 92/92/92
f 88/88/88 94/94/94 93/93/93
f 97/97/97 96/96/96 95/95/95
f 95/95/95 98/98/98 97/97/97
f 95/95/95 99/99/99 98/98/98
f 102/102/102 101/101/101 100/100/100
f 100/100/100 103/103/103 102/102/102
f 103/103/103 104/104/104 102/102/102
f 107/107/107 106/106/106 105/105/105
f 105/105/105 108/108/108 107/107/107
f 105/105/105 109/109/109 108/108/108
f 109/109/109 110/110/110 108/108/108
f 109/109/109 111/111/111 110/110/110
f 114/114/114 113/113/113 112/112/112
f 112/112/112 115/115/115 114/114/114
f 112/112/112 116/116/116 115/115/115
