g Cube.090
v -0.6746929 -0.674691 1.0355424
v -0.98943555 -0.9894355 -0.97887105
v -0.96448714 0.9644871 -0.928974
v -0.67625976 0.6762593 1.0304252
v -0.37303272 -0.3705578 3.2386882
v -0.58230996 0.048569728 3.2386882
v -0.3730326 0.37282494 3.2386882
v -0.98943555 -0.9894355 -0.97887105
v 0.96455204 -0.96455204 -0.92910427
v 0.9999214 0.9999214 -0.9998429
v -0.96448714 0.9644871 -0.928974
v 0.96455204 -0.96455204 -0.92910427
v 0.6770597 0.6770613 1.0278059
v 0.9999214 0.9999214 -0.9998429
v 0.67429936 -0.6743002 1.0368185
v 0.37035006 -0.37055784 3.2386882
v 0.56009483 -0.049093045 3.2386882
v 0.37035015 0.37282488 3.2386882
v -0.98943555 -0.9894355 -0.97887105
v 0.67429936 -0.6743002 1.0368185
v 0.96455204 -0.96455204 -0.92910427
v -0.6746929 -0.674691 1.0355424
v -0.37303272 -0.3705578 3.2386882
v 0.37035006 -0.37055784 3.2386882
v -0.020873863 -0.54077 3.2386882
v 0.9999214 0.9999214 -0.9998429
v 0.6770597 0.6770613 1.0278059
v -0.67625976 0.6762593 1.0304252
v -0.96448714 0.9644871 -0.928974
v 0.37035015 0.37282488 3.2386882
v 0.37035015 0.37282485 7.867931
v 0.0014491387 0.57652134 7.867931
v 0.0014491387 0.57652146 3.2386882
v -0.67625976 0.6762593 1.0304252
v 0.6770597 0.6770613 1.0278059
v 0.37035015 0.37282488 3.2386882
v -0.3730326 0.37282494 3.2386882
v 0.0014491387 0.57652146 3.2386882
v -0.020873863 -0.54077 3.2386882
v -0.020873863 -0.54077 7.867931
v 0.37035006 -0.3705579 7.867931
v 0.37035006 -0.37055784 3.2386882
v -0.58230996 0.048569728 3.2386882
v -0.58230996 0.048569687 7.867931
v -0.37303272 -0.37055784 7.867931
v -0.37303272 -0.3705578 3.2386882
v -0.37303272 -0.3705578 3.2386882
v -0.37303272 -0.37055784 7.867931
v -0.020873863 -0.54077 7.867931
v -0.020873863 -0.54077 3.2386882
v -0.020873863 -0.54077 7.867931
v -0.37303272 -0.37055784 7.867931
v -0.58230996 0.048569687 7.867931
v -0.001341287 0.0011334855 7.867931
v 0.37035006 -0.3705579 7.867931
v -0.3730326 0.37282488 7.867931
v 0.56009483 -0.049093083 7.867931
v 0.0014491387 0.57652134 7.867931
v 0.37035015 0.37282485 7.867931
v -0.3730326 0.37282494 3.2386882
v -0.3730326 0.37282488 7.867931
v -0.58230996 0.048569687 7.867931
v -0.58230996 0.048569728 3.2386882
v 0.56009483 -0.049093045 3.2386882
v 0.56009483 -0.049093083 7.867931
v 0.37035015 0.37282485 7.867931
v 0.37035015 0.37282488 3.2386882
v 0.0014491387 0.57652146 3.2386882
v 0.0014491387 0.57652134 7.867931
v -0.3730326 0.37282488 7.867931
v -0.3730326 0.37282494 3.2386882
v 0.37035006 -0.37055784 3.2386882
v 0.37035006 -0.3705579 7.867931
v 0.56009483 -0.049093083 7.867931
v 0.56009483 -0.049093045 3.2386882
vt 0.375 0
vt 0.375 0.25
vt 0.625 0.25
vt 0.625 0
vt 0.375 0
vt 0.5 0
vt 0.625 0
vt 0.375 0.25
vt 0.375 0.5
vt 0.625 0.5
vt 0.625 0.25
vt 0.375 0.5
vt 0.625 0.75
vt 0.625 0.5
vt 0.375 0.75
vt 0.375 0.75
vt 0.5 0.75
vt 0.625 0.75
vt 0.125 0.5
vt 0.375 0.75
vt 0.375 0.5
vt 0.125 0.75
vt 0.125 0.75
vt 0.375 0.75
vt 0.25 0.75
vt 0.625 0.5
vt 0.625 0.75
vt 0.875 0.75
vt 0.875 0.5
vt 0.625 0.75
vt 0.625 0.75
vt 0.75 0.75
vt 0.75 0.75
vt 0.875 0.75
vt 0.625 0.75
vt 0.625 0.75
vt 0.875 0.75
vt 0.75 0.75
vt 0.25 0.75
vt 0.25 0.75
vt 0.375 0.75
vt 0.375 0.75
vt 0.5 0
vt 0.5 0
vt 0.375 0
vt 0.375 0
vt 0.125 0.75
vt 0.125 0.75
vt 0.25 0.75
vt 0.25 0.75
vt 0.375 0.875
vt 0.375 1
vt 0.5 1
vt 0.5 0.875
vt 0.375 0.75
vt 0.625 1
vt 0.5 0.75
vt 0.625 0.875
vt 0.625 0.75
vt 0.625 0
vt 0.625 0
vt 0.5 0
vt 0.5 0
vt 0.5 0.75
vt 0.5 0.75
vt 0.625 0.75
vt 0.625 0.75
vt 0.75 0.75
vt 0.75 0.75
vt 0.875 0.75
vt 0.875 0.75
vt 0.375 0.75
vt 0.375 0.75
vt 0.5 0.75
vt 0.5 0.75
vn -0.98867583 0.0049625277 0.1499845
vn -0.98867583 0.0049625277 0.1499845
vn -0.98867583 0.0049625277 0.1499845
vn -0.98867583 0.0049625277 0.1499845
vn -0.9946924 -0.00041082915 0.10289224
vn -0.9946924 -0.00041082915 0.10289224
vn -0.9946924 -0.00041082915 0.10289224
vn -0.0053046476 -0.0052370364 -0.9999722
vn -0.0053046476 -0.0052370364 -0.9999722
vn -0.0053046476 -0.0052370364 -0.9999722
vn -0.0053046476 -0.0052370364 -0.9999722
vn 0.98839927 -0.0077176928 0.15168132
vn 0.98839927 -0.0077176928 0.15168132
vn 0.98839927 -0.0077176928 0.15168132
vn 0.98839927 -0.0077176928 0.15168132
vn 0.9942325 -0.00071821455 0.10724369
vn 0.9942325 -0.00071821455 0.10724369
vn 0.9942325 -0.00071821455 0.10724369
vn 0.0052432506 -0.9886361 0.15023676
vn 0.0052432506 -0.9886361 0.15023676
vn 0.0052432506 -0.9886361 0.15023676
vn 0.0052432506 -0.9886361 0.15023676
vn 0.00010196906 -0.9939459 0.109870546
vn 0.00010196906 -0.9939459 0.109870546
vn 0.00010196906 -0.9939459 0.109870546
vn -0.007441562 0.9884397 0.15143181
vn -0.007441562 0.9884397 0.15143181
vn -0.007441562 0.9884397 0.15143181
vn -0.007441562 0.9884397 0.15143181
vn 0.4833773 0.87541217 0
vn 0.4833773 0.87541217 0
vn 0.4833773 0.87541217 0
vn 0.4833773 0.87541217 0
vn -0.00020959279 0.9945509 0.104252055
vn -0.00020959279 0.9945509 0.104252055
vn -0.00020959279 0.9945509 0.104252055
vn -0.00020959279 0.9945509 0.104252055
vn -0.00020959279 0.9945509 0.104252055
vn 0.3989524 -0.9169717 0
vn 0.3989524 -0.9169717 0
vn 0.3989524 -0.9169717 0
vn 0.3989524 -0.9169717 0
vn -0.8946717 -0.44672418 0
vn -0.8946717 -0.44672418 0
vn -0.8946717 -0.44672418 0
vn -0.8946717 -0.44672418 0
vn -0.43517298 -0.9003468 0
vn -0.43517298 -0.9003468 0
vn -0.43517298 -0.9003468 0
vn -0.43517298 -0.9003468 0
vn -0 -5.573999E-07 1
vn -0 -5.573999E-07 1
vn -0 1.7309601E-06 1
vn -0 1.7309601E-06 1
vn -0 -8.2225034E-07 1
vn -0 1.7309601E-06 1
vn -0 -8.2225034E-07 1
vn -0 1.7309601E-06 1
vn -0 6.178077E-07 1
vn -0.8402016 0.5422741 0
vn -0.8402016 0.5422741 0
vn -0.8402016 0.5422741 0
vn -0.8402016 0.5422741 0
vn 0.9120173 0.41015187 0
vn 0.9120173 0.41015187 0
vn 0.9120173 0.41015187 0
vn 0.9120173 0.41015187 0
vn -0.4778281 0.8784534 0
vn -0.4778281 0.8784534 0
vn -0.4778281 0.8784534 0
vn -0.4778281 0.8784534 0
vn 0.8611749 -0.5083088 0
vn 0.8611749 -0.5083088 0
vn 0.8611749 -0.5083088 0
vn 0.8611749 -0.5083088 0
g Cube.090_0
f 3/3/3 2/2/2 1/1/1
f 4/4/4 3/3/3 1/1/1
f 4/4/4 1/1/1 5/5/5
f 5/5/5 6/6/6 4/4/4
f 6/6/6 7/7/7 4/4/4
f 10/10/10 9/9/9 8/8/8
f 11/11/11 10/10/10 8/8/8
f 14/14/14 13/13/13 12/12/12
f 13/13/13 15/15/15 12/12/12
f 16/16/16 15/15/15 13/13/13
f 13/13/13 17/17/17 16/16/16
f 13/13/13 18/18/18 17/17/17
f 21/21/21 20/20/20 19/19/19
f 20/20/20 22/22/22 19/19/19
f 23/23/23 22/22/22 20/20/20
f 20/20/20 24/24/24 23/23/23
f 24/24/24 25/25/25 23/23/23
f 28/28/28 27/27/27 26/26/26
f 29/29/29 28/28/28 26/26/26
f 32/32/32 31/31/31 30/30/30
f 33/33/33 32/32/32 30/30/30
f 36/36/36 35/35/35 34/34/34
f 34/34/34 37/37/37 36/36/36
f 37/37/37 38/38/38 36/36/36
f 41/41/41 40/40/40 39/39/39
f 42/42/42 41/41/41 39/39/39
f 45/45/45 44/44/44 43/43/43
f 46/46/46 45/45/45 43/43/43
f 49/49/49 48/48/48 47/47/47
f 50/50/50 49/49/49 47/47/47
f 53/53/53 52/52/52 51/51/51
f 54/54/54 53/53/53 51/51/51
f 54/54/54 51/51/51 55/55/55
f 56/56/56 53/53/53 54/54/54
f 57/57/57 54/54/54 55/55/55
f 58/58/58 56/56/56 54/54/54
f 58/58/58 54/54/54 57/57/57
f 59/59/59 58/58/58 57/57/57
f 62/62/62 61/61/61 60/60/60
f 63/63/63 62/62/62 60/60/60
f 66/66/66 65/65/65 64/64/64
f 67/67/67 66/66/66 64/64/64
f 70/70/70 69/69/69 68/68/68
f 71/71/71 70/70/70 68/68/68
f 74/74/74 73/73/73 72/72/72
f 75/75/75 74/74/74 72/72/72
