g Cube.512
v -1 -1 1
v -1 -1 -1
v -1 1 -1
v -1 1 1
v -1 -1 -1
v 1 -1 -1
v 1 1 -1
v -1 1 -1
v 1 -1 -1
v 1 -1 1
v 1 1 1
v 1 1 -1
v 1 -1 1
v -1 -1 1
v -1 1 1
v 1 1 1
v -1 -1 -1
v -1 -1 1
v 1 -1 1
v 1 -1 -1
v 1 1 -1
v 1 1 1
v -1 1 1
v -1 1 -1
vt 0.94861096 0.83726454
vt 0.94861096 0.8314535
vt 0.9426267 0.8314535
vt 0.9426267 0.83726454
vt 0.795232 0.8927549
vt 0.795232 0.88694394
vt 0.78924775 0.88694394
vt 0.78924775 0.8927549
vt 0.75932664 0.88113296
vt 0.75932664 0.875322
vt 0.7533424 0.875322
vt 0.7533424 0.88113296
vt 0.9429597 0.23022412
vt 0.948944 0.23022412
vt 0.948944 0.22441313
vt 0.9429597 0.22441313
vt 0.5049666 0.93881077
vt 0.5049666 0.9329998
vt 0.49898243 0.9329998
vt 0.49898243 0.93881077
vt 0.9609124 0.23022412
vt 0.95492816 0.23022412
vt 0.95492816 0.2360351
vt 0.9609124 0.2360351
vn -1 0 0
vn -1 0 0
vn -1 0 0
vn -1 0 0
vn -0 0 -1
vn -0 0 -1
vn -0 0 -1
vn -0 0 -1
vn 1 0 0
vn 1 0 0
vn 1 0 0
vn 1 0 0
vn -0 0 1
vn -0 0 1
vn -0 0 1
vn -0 0 1
vn -0 -1 0
vn -0 -1 0
vn -0 -1 0
vn -0 -1 0
vn -0 1 0
vn -0 1 0
vn -0 1 0
vn -0 1 0
g Cube.512_0
f 3/3/3 2/2/2 1/1/1
f 4/4/4 3/3/3 1/1/1
f 7/7/7 6/6/6 5/5/5
f 8/8/8 7/7/7 5/5/5
f 11/11/11 10/10/10 9/9/9
f 12/12/12 11/11/11 9/9/9
f 15/15/15 14/14/14 13/13/13
f 16/16/16 15/15/15 13/13/13
f 19/19/19 18/18/18 17/17/17
f 20/20/20 19/19/19 17/17/17
f 23/23/23 22/22/22 21/21/21
f 24/24/24 23/23/23 21/21/21
