g Cube.698
v -0.56214523 0.4766672 -0.41714483
v -0.60881394 0.4819406 -1
v -0.5361622 0.49060863 -1
v -0.19529384 0.9512684 0.3704821
v -0.21912488 1 -0.9443167
v -0.18431799 1 0.018749803
v -0.19529384 0.9512684 0.3704821
v -0.18431799 1 0.018749803
v -0.19516225 1 0.746069
v -0.7592706 0.48798048 0.7292326
v -0.75615734 0.5237392 1
v -0.8058304 0.56615347 1
v -0.7592706 0.48798048 0.7292326
v -0.71708953 0.50050473 1
v -0.75615734 0.5237392 1
v -0.33554465 0.56621385 1
v -0.42927295 0.5376956 0.9999999
v -0.3465169 0.5234612 0.04580736
v -0.95602095 0.96263397 -0.9999998
v -0.9184519 0.8082244 -0.9999999
v -0.9749012 0.91459036 0.26628697
v -0.9300842 0.80194813 1
v -0.94527 0.9780438 1.0000001
v -0.9749012 0.91459036 0.26628697
v -0.56214523 0.4766672 -0.41714483
v -0.3465169 0.5234612 0.04580736
v -0.42927295 0.5376956 0.9999999
v -0.5458503 0.5195159 1.0000002
v -0.22081614 1 -1
v -0.21912488 1 -0.9443167
v -0.19529384 0.9512684 0.3704821
v -0.29989558 0.7606798 -0.9999999
v -0.3465169 0.5234612 0.04580736
v -0.3887521 0.526713 -0.9999999
v -0.3465169 0.5234612 0.04580736
v -0.22879009 0.8653359 1
v -0.33554465 0.56621385 1
v -0.56214523 0.4766672 -0.41714483
v -0.5458503 0.5195159 1.0000002
v -0.71708953 0.50050473 1
v -0.7592706 0.48798048 0.7292326
v -0.56214523 0.4766672 -0.41714483
v -0.7592706 0.48798048 0.7292326
v -0.7334863 0.4912982 -1
v -0.60881394 0.4819406 -1
v -0.9749012 0.91459036 0.26628697
v -0.94158804 1 0.68232435
v -0.95859826 1 -0.25615835
v -0.93793577 1 1
v -0.94527 0.9780438 1.0000001
v -0.90018713 0.7347408 0.9999999
v -0.9102084 0.7896931 -1
v -0.8977305 0.76739913 -1
v -0.8058304 0.56615347 1
v -0.7592706 0.48798048 0.7292326
v -0.7334863 0.4912982 -1
v -0.3465169 0.5234612 0.04580736
v -0.56214523 0.4766672 -0.41714483
v -0.5361622 0.49060863 -1
v -0.3887521 0.526713 -0.9999999
v -1 -1 1
v -1 -1 -1
v -1 1 -1
v -1 1 1
v -1 -1 -1
v 1 -1 -1
v 1 1 -1
v -0.3887521 0.526713 -0.9999999
v -0.5361622 0.49060863 -1
v -0.29989558 0.7606798 -0.9999999
v -0.22081614 1 -1
v -0.60881394 0.4819406 -1
v -0.7334863 0.4912982 -1
v -0.8977305 0.76739913 -1
v -0.9102084 0.7896931 -1
v -0.9184519 0.8082244 -0.9999999
v -0.95602095 0.96263397 -0.9999998
v -1 1 -1
v -0.9511708 1 -1
v 1 -1 -1
v 1 -1 1
v 1 1 1
v 1 1 -1
v -1 1 1
v -0.93793577 1 1
v -0.94527 0.9780438 1.0000001
v -1 -1 1
v -0.9300842 0.80194813 1
v -0.90018713 0.7347408 0.9999999
v -0.8058304 0.56615347 1
v -0.75615734 0.5237392 1
v -0.71708953 0.50050473 1
v -0.5458503 0.5195159 1.0000002
v -0.42927295 0.5376956 0.9999999
v -0.33554465 0.56621385 1
v 1 -1 1
v -0.22879009 0.8653359 1
v -0.2017009 1 1
v 1 1 1
v -1 -1 -1
v -1 -1 1
v 1 -1 1
v 1 -1 -1
v -0.21912488 1 -0.9443167
v -0.22081614 1 -1
v 1 1 -1
v 1 1 1
v -0.18431799 1 0.018749803
v -0.19516225 1 0.746069
v -0.2017009 1 1
v -0.9102084 0.7896931 -1
v -0.90018713 0.7347408 0.9999999
v -0.9300842 0.80194813 1
v -0.9184519 0.8082244 -0.9999999
v -0.9749012 0.91459036 0.26628697
v -0.95859826 1 -0.25615835
v -0.9511708 1 -1
v -0.95602095 0.96263397 -0.9999998
v -0.9749012 0.91459036 0.26628697
v -0.19516225 1 0.746069
v -0.2017009 1 1
v -0.22879009 0.8653359 1
v -0.19529384 0.9512684 0.3704821
v -1 1 1
v -1 1 -1
v -0.9511708 1 -1
v -0.95859826 1 -0.25615835
v -0.94158804 1 0.68232435
v -0.93793577 1 1
vt 0.454545 0
vt 0.4405678 0.024209525
vt 0.46597528 0.019798094
vt 0.727272 0.157461
vt 0.6820395 0.157461
vt 0.7164038 0.17628546
vt 0.727272 0.157461
vt 0.7164038 0.17628546
vt 0.7381402 0.17628546
vt 0.13636349 0.0787305
vt 0.13163702 0.08691709
vt 0.15167221 0.105246335
vt 0.13636349 0.0787305
vt 0.11947575 0.0787305
vt 0.13163702 0.08691709
vt 0.7893827 0.107580274
vt 0.8132424 0.0787305
vt 0.7727265 0.0787305
vt 0.26511645 0.236191
vt 0.2674522 0.16659725
vt 0.22727251 0.236191
vt 0.20094806 0.19059545
vt 0.20328608 0.236191
vt 0.22727251 0.236191
vt 0.818181 0
vt 0.7727265 0.0787305
vt 0.8132424 0.0787305
vt 0.84291863 0.04284733
vt 0.679963 0.15709159
vt 0.6820395 0.157461
vt 0.727272 0.157461
vt 0.6613084 0.11425382
vt 0.68181753 0.0787305
vt 0.647628 0.0787305
vt 0.7727265 0.0787305
vt 0.7523801 0.157461
vt 0.7893827 0.107580274
vt 0.090909 0
vt 0.06617139 0.04284733
vt 0.11947575 0.0787305
vt 0.13636349 0.0787305
vt 0.272727 0
vt 0.22727251 0.0787305
vt 0.27895254 0.0787305
vt 0.2867042 0.024209525
vt 0.22727251 0.236191
vt 0.21112937 0.2641519
vt 0.24341564 0.2641519
vt 0.2021569 0.248611
vt 0.20328608 0.236191
vt 0.19977435 0.157461
vt 0.2671286 0.157461
vt 0.2687405 0.15055612
vt 0.21196377 0.105246335
vt 0.22727251 0.0787305
vt 0.27895254 0.0787305
vt 0.68181753 0.0787305
vt 0.636363 0
vt 0.62493277 0.019798094
vt 0.647628 0.0787305
vt 0.9429597 0.23022412
vt 0.9429597 0.22441313
vt 0.9369755 0.22441313
vt 0.9369755 0.23022412
vt 0.92500705 0.29414493
vt 0.92500705 0.28833395
vt 0.9190228 0.28833395
vt 0.92043895 0.29236895
vt 0.92054695 0.29279727
vt 0.9197388 0.29211077
vt 0.9190228 0.29188102
vt 0.920573 0.29300833
vt 0.92054486 0.29337057
vt 0.9197188 0.29384783
vt 0.91965204 0.293884
vt 0.9195966 0.293908
vt 0.9191346 0.29401714
vt 0.9190228 0.29414493
vt 0.9190228 0.29400304
vt 0.9005285 0.8557769
vt 0.9005285 0.84996593
vt 0.89454424 0.84996593
vt 0.89454424 0.8557769
vt 0.9429597 0.25927904
vt 0.94277406 0.25927904
vt 0.94279593 0.2593428
vt 0.9429597 0.26509002
vt 0.9427505 0.25985447
vt 0.9426611 0.26004976
vt 0.9423787 0.26053956
vt 0.94223017 0.26066282
vt 0.9421132 0.26073033
vt 0.9416009 0.2606751
vt 0.94125205 0.26062226
vt 0.9409716 0.2605394
vt 0.9369755 0.26509002
vt 0.94065225 0.25967032
vt 0.9405711 0.25927904
vt 0.9369755 0.25927904
vt 0.96656364 0.8430755
vt 0.96656364 0.83726454
vt 0.9605794 0.83726454
vt 0.9605794 0.8430755
vt 0.9607457 0.28025416
vt 0.9609124 0.28025907
vt 0.9609124 0.276712
vt 0.95492816 0.276712
vt 0.95786417 0.280153
vt 0.955688 0.28018454
vt 0.95492816 0.28020352
vt 0.2671286 0.157461
vt 0.19977435 0.157461
vt 0.20094806 0.19059545
vt 0.2674522 0.16659725
vt 0.22727251 0.236191
vt 0.24341564 0.2641519
vt 0.2654181 0.2521206
vt 0.26511645 0.236191
vt 0.22727251 0.236191
vt 0.7381402 0.17628546
vt 0.7468428 0.18281047
vt 0.7523801 0.157461
vt 0.727272 0.157461
vt 0.95492816 0.28252298
vt 0.9609124 0.28252298
vt 0.9609124 0.2823811
vt 0.95868677 0.2824027
vt 0.95587873 0.28235325
vt 0.95492816 0.28234267
vn -0.11844899 0.9927884 0.018466389
vn -0.11844899 0.9927884 0.018466389
vn -0.11844899 0.9927884 0.018466389
vn -0.8988987 0.43695053 0.032487977
vn -0.8988987 0.43695053 0.032487977
vn -0.8988987 0.43695053 0.032487977
vn -0.9930455 0.11679672 -0.014806226
vn -0.9930455 0.11679672 -0.014806226
vn -0.9930455 0.11679672 -0.014806226
vn 0.64560795 0.75609666 -0.10727671
vn 0.64560795 0.75609666 -0.10727671
vn 0.64560795 0.75609666 -0.10727671
vn 0.50755244 0.8534273 -0.11854315
vn 0.50755244 0.8534273 -0.11854315
vn 0.50755244 0.8534273 -0.11854315
vn -0.29086223 0.9559497 -0.039486755
vn -0.29086223 0.9559497 -0.039486755
vn -0.29086223 0.9559497 -0.039486755
vn 0.971386 0.2363457 0.023450365
vn 0.971386 0.2363457 0.023450365
vn 0.971386 0.2363457 0.023450365
vn 0.99517244 0.08581974 -0.047612097
vn 0.99517244 0.08581974 -0.047612097
vn 0.99517244 0.08581974 -0.047612097
vn -0.1540225 0.98766786 -0.028091978
vn -0.1540225 0.98766786 -0.028091978
vn -0.1540225 0.98766786 -0.028091978
vn -0.1540225 0.98766786 -0.028091978
vn -0.94911146 0.31361827 0.028826777
vn -0.94911146 0.31361827 0.028826777
vn -0.94911146 0.31361827 0.028826777
vn -0.94911146 0.31361827 0.028826777
vn -0.94911146 0.31361827 0.028826777
vn -0.9341461 0.35477236 0.03882879
vn -0.94180804 0.33612466 -0.004230238
vn -0.94180804 0.33612466 -0.004230238
vn -0.94180804 0.33612466 -0.004230238
vn -0.11029708 0.9934822 -0.02877057
vn -0.11029708 0.9934822 -0.02877057
vn -0.11029708 0.9934822 -0.02877057
vn -0.11029708 0.9934822 -0.02877057
vn 0.07484618 0.99719054 0.0030292335
vn 0.07484618 0.99719054 0.0030292335
vn 0.07484618 0.99719054 0.0030292335
vn 0.07484618 0.99719054 0.0030292335
vn 0.95721966 -0.2888417 -0.017349813
vn 0.95721966 -0.2888417 -0.017349813
vn 0.95721966 -0.2888417 -0.017349813
vn 0.9484263 -0.31680992 -0.01090389
vn 0.9484263 -0.31680992 -0.01090389
vn 0.87258554 0.4883776 0.00904658
vn 0.87258554 0.4883776 0.00904658
vn 0.87258554 0.4883776 0.00904658
vn 0.87258554 0.4883776 0.00904658
vn 0.87258554 0.4883776 0.00904658
vn 0.85935 0.51120186 0.013794452
vn -0.23787439 0.9712138 0.012626454
vn -0.23787439 0.9712138 0.012626454
vn -0.23787439 0.9712138 0.012626454
vn -0.23787439 0.9712138 0.012626454
vn -1 0 0
vn -1 0 0
vn -1 0 0
vn -1 0 0
vn -0 0 -1
vn -0 0 -1
vn -0 0 -1
vn -0 0 -1
vn -0 0 -1
vn -0 0 -1
vn -0 0 -1
vn -0 0 -1
vn -0 0 -1
vn -0 0 -1
vn -0 0 -1
vn -0 0 -1
vn -0 0 -1
vn -0 0 -1
vn -0 0 -1
vn 1 0 0
vn 1 0 0
vn 1 0 0
vn 1 0 0
vn -0 0 1
vn -0 0 1
vn -0 0 1
vn -0 0 1
vn -0 0 1
vn -0 0 1
vn -0 0 1
vn -0 0 1
vn -0 0 1
vn -0 0 1
vn -0 0 1
vn -0 0 1
vn -0 0 1
vn -0 0 1
vn -0 0 1
vn -0 0 1
vn -0 -1 0
vn -0 -1 0
vn -0 -1 0
vn -0 -1 0
vn -0 1 0
vn -0 1 0
vn -0 1 0
vn -0 1 0
vn -0 1 0
vn -0 1 0
vn -0 1 0
vn 0.91365474 0.40643764 0.006589407
vn 0.91365474 0.40643764 0.006589407
vn 0.91365474 0.40643764 0.006589407
vn 0.91365474 0.40643764 0.006589407
vn 0.91365474 0.40643764 0.006589407
vn 0.9916323 -0.12871426 0.0099016605
vn 0.9916323 -0.12871426 0.0099016605
vn 0.9916323 -0.12871426 0.0099016605
vn 0.9916323 -0.12871426 0.0099016605
vn -0.980049 0.19714755 -0.025235988
vn -0.980049 0.19714755 -0.025235988
vn -0.980049 0.19714755 -0.025235988
vn -0.980049 0.19714755 -0.025235988
vn -0 1 0
vn -0 1 0
vn -0 1 0
vn -0 1 0
vn -0 1 0
vn -0 1 0
g Cube.698_0
f 3/3/3 2/2/2 1/1/1
f 6/6/6 5/5/5 4/4/4
f 9/9/9 8/8/8 7/7/7
f 12/12/12 11/11/11 10/10/10
f 15/15/15 14/14/14 13/13/13
f 18/18/18 17/17/17 16/16/16
f 21/21/21 20/20/20 19/19/19
f 24/24/24 23/23/23 22/22/22
f 27/27/27 26/26/26 25/25/25
f 28/28/28 27/27/27 25/25/25
f 31/31/31 30/30/30 29/29/29
f 31/31/31 29/29/29 32/32/32
f 32/32/32 33/33/33 31/31/31
f 33/33/33 32/32/32 34/34/34
f 36/36/36 31/31/31 35/35/35
f 37/37/37 36/36/36 35/35/35
f 40/40/40 39/39/39 38/38/38
f 41/41/41 40/40/40 38/38/38
f 44/44/44 43/43/43 42/42/42
f 45/45/45 44/44/44 42/42/42
f 48/48/48 47/47/47 46/46/46
f 47/47/47 49/49/49 46/46/46
f 49/49/49 50/50/50 46/46/46
f 53/53/53 52/52/52 51/51/51
f 53/53/53 51/51/51 54/54/54
f 54/54/54 55/55/55 53/53/53
f 55/55/55 56/56/56 53/53/53
f 59/59/59 58/58/58 57/57/57
f 60/60/60 59/59/59 57/57/57
f 63/63/63 62/62/62 61/61/61
f 64/64/64 63/63/63 61/61/61
f 67/67/67 66/66/66 65/65/65
f 65/65/65 68/68/68 67/67/67
f 65/65/65 69/69/69 68/68/68
f 68/68/68 70/70/70 67/67/67
f 70/70/70 71/71/71 67/67/67
f 65/65/65 72/72/72 69/69/69
f 65/65/65 73/73/73 72/72/72
f 65/65/65 74/74/74 73/73/73
f 65/65/65 75/75/75 74/74/74
f 65/65/65 76/76/76 75/75/75
f 65/65/65 77/77/77 76/76/76
f 77/77/77 65/65/65 78/78/78
f 78/78/78 79/79/79 77/77/77
f 82/82/82 81/81/81 80/80/80
f 83/83/83 82/82/82 80/80/80
f 86/86/86 85/85/85 84/84/84
f 86/86/86 84/84/84 87/87/87
f 88/88/88 86/86/86 87/87/87
f 89/89/89 88/88/88 87/87/87
f 90/90/90 89/89/89 87/87/87
f 91/91/91 90/90/90 87/87/87
f 92/92/92 91/91/91 87/87/87
f 93/93/93 92/92/92 87/87/87
f 94/94/94 93/93/93 87/87/87
f 95/95/95 94/94/94 87/87/87
f 95/95/95 87/87/87 96/96/96
f 97/97/97 95/95/95 96/96/96
f 98/98/98 97/97/97 96/96/96
f 96/96/96 99/99/99 98/98/98
f 102/102/102 101/101/101 100/100/100
f 103/103/103 102/102/102 100/100/100
f 106/106/106 105/105/105 104/104/104
f 104/104/104 107/107/107 106/106/106
f 104/104/104 108/108/108 107/107/107
f 108/108/108 109/109/109 107/107/107
f 109/109/109 110/110/110 107/107/107
f 113/113/113 112/112/112 111/111/111
f 111/111/111 114/114/114 113/113/113
f 114/114/114 115/115/115 113/113/113
f 118/118/118 117/117/117 116/116/116
f 119/119/119 118/118/118 116/116/116
f 122/122/122 121/121/121 120/120/120
f 123/123/123 122/122/122 120/120/120
f 126/126/126 125/125/125 124/124/124
f 124/124/124 127/127/127 126/126/126
f 124/124/124 128/128/128 127/127/127
f 124/124/124 129/129/129 128/128/128
