g Cube.496
v -1 -1 1
v -1 -1 -1
v -1 1 -1
v -1 1 1
v -1 -1 -1
v 1 -1 -1
v 1 1 -1
v -1 1 -1
v 1 -1 -1
v 1 -1 1
v 1 1 1
v 1 1 -1
v 1 -1 1
v -1 -1 1
v -1 1 1
v 1 1 1
v -1 -1 -1
v -1 -1 1
v 1 -1 1
v 1 -1 -1
v 1 1 -1
v 1 1 1
v -1 1 1
v -1 1 -1
vt 0.948944 0.35225478
vt 0.948944 0.3464438
vt 0.9429597 0.3464438
vt 0.9429597 0.35225478
vt 0.9190228 0.35225478
vt 0.9190228 0.3464438
vt 0.9130386 0.3464438
vt 0.9130386 0.35225478
vt 0.8550742 0.88113296
vt 0.8550742 0.875322
vt 0.84909004 0.875322
vt 0.84909004 0.88113296
vt 0.7353897 0.92180985
vt 0.74137396 0.92180985
vt 0.74137396 0.9159988
vt 0.7353897 0.9159988
vt 0.7712951 0.9392428
vt 0.7712951 0.9334318
vt 0.7653108 0.9334318
vt 0.7653108 0.9392428
vt 0.9603707 0.8557769
vt 0.95438653 0.8557769
vt 0.95438653 0.8615879
vt 0.9603708 0.8615879
vn -1 0 0
vn -1 0 0
vn -1 0 0
vn -1 0 0
vn -0 0 -1
vn -0 0 -1
vn -0 0 -1
vn -0 0 -1
vn 1 0 0
vn 1 0 0
vn 1 0 0
vn 1 0 0
vn -0 0 1
vn -0 0 1
vn -0 0 1
vn -0 0 1
vn -0 -1 0
vn -0 -1 0
vn -0 -1 0
vn -0 -1 0
vn -0 1 0
vn -0 1 0
vn -0 1 0
vn -0 1 0
g Cube.496_0
f 3/3/3 2/2/2 1/1/1
f 4/4/4 3/3/3 1/1/1
f 7/7/7 6/6/6 5/5/5
f 8/8/8 7/7/7 5/5/5
f 11/11/11 10/10/10 9/9/9
f 12/12/12 11/11/11 9/9/9
f 15/15/15 14/14/14 13/13/13
f 16/16/16 15/15/15 13/13/13
f 19/19/19 18/18/18 17/17/17
f 20/20/20 19/19/19 17/17/17
f 23/23/23 22/22/22 21/21/21
f 24/24/24 23/23/23 21/21/21
