g Cube.731
v -1.0009125 -1.6856927 0.8647187
v -1.0352765 -1.7347115 -0.09843734
v -1.1818218 0.30262703 -0.09843745
v -1.0420946 0.71581876 0.46156138
v -1.0352765 -1.7347115 -0.09843734
v 0.7239575 -1.6934857 -0.098437354
v 0.8273238 0.87475544 -0.09843744
v -1.1818218 0.30262703 -0.09843745
v -0.70618343 2.9915175 -0.09843734
v 0.7006785 2.248555 -0.09843739
v -0.96774656 3.601128 -0.098437324
v 0.6242607 4.05896 -0.09843731
v -1.1201224 5.1376276 -0.09843725
v 0.68248016 4.4441442 -0.09843729
v -1.1337571 5.732828 -0.09843725
v 0.5995722 5.6438932 -0.09843725
v -1.5814375 7.1076627 -0.05315873
v 0.94142765 6.865229 -0.09843719
v -1.306383 8.7919 -0.022190632
v 0.7637171 8.859555 -0.05820091
v 0.7239575 -1.6934857 -0.098437354
v 0.8999226 -1.6989479 0.544853
v 0.5862619 1.3655765 0.7501655
v 0.8273238 0.87475544 -0.09843744
v 0.8999226 -1.6989479 0.544853
v -1.0009125 -1.6856927 0.8647187
v -1.0420946 0.71581876 0.46156138
v 0.5862619 1.3655765 0.7501655
v -1.0352765 -1.7347115 -0.09843734
v -1.0009125 -1.6856927 0.8647187
v 0.8999226 -1.6989479 0.544853
v 0.7239575 -1.6934857 -0.098437354
v -1.1818218 0.30262703 -0.09843745
v -0.70618343 2.9915175 -0.09843734
v -0.8185165 2.7977955 0.46822134
v -1.0420946 0.71581876 0.46156138
v -0.8185165 2.7977955 0.46822134
v -1.1651127 3.5436633 0.38986593
v 0.7133403 3.7216103 0.68050146
v 0.4232186 3.010482 0.8409822
v -1.0420946 0.71581876 0.46156138
v -0.8185165 2.7977955 0.46822134
v 0.4232186 3.010482 0.8409822
v 0.5862619 1.3655765 0.7501655
v 0.5862619 1.3655765 0.7501655
v 0.4232186 3.010482 0.8409822
v 0.7006785 2.248555 -0.09843739
v 0.8273238 0.87475544 -0.09843744
v 0.7133403 3.7216103 0.68050146
v 0.87460136 5.3968277 0.5087712
v 0.68248016 4.4441442 -0.09843729
v 0.6242607 4.05896 -0.09843731
v 0.4232186 3.010482 0.8409822
v 0.7133403 3.7216103 0.68050146
v 0.6242607 4.05896 -0.09843731
v 0.7006785 2.248555 -0.09843739
v -0.70618343 2.9915175 -0.09843734
v -0.96774656 3.601128 -0.098437324
v -1.1651127 3.5436633 0.38986593
v -0.8185165 2.7977955 0.46822134
v -1.1201224 5.1376276 -0.09843725
v -1.1337571 5.732828 -0.09843725
v -1.109326 5.6915765 0.2979704
v -1.1097801 4.6347394 0.4806088
v -0.96774656 3.601128 -0.098437324
v -1.1201224 5.1376276 -0.09843725
v -1.1097801 4.6347394 0.4806088
v -1.1651127 3.5436633 0.38986593
v -1.1651127 3.5436633 0.38986593
v -1.1097801 4.6347394 0.4806088
v 0.87460136 5.3968277 0.5087712
v 0.7133403 3.7216103 0.68050146
v -1.109326 5.6915765 0.2979704
v -1.3823668 6.7819357 0.65670955
v 1.1324525 6.8204365 0.7980194
v 1.0029469 6.185652 0.7921615
v -1.1097801 4.6347394 0.4806088
v -1.109326 5.6915765 0.2979704
v 1.0029469 6.185652 0.7921615
v 0.87460136 5.3968277 0.5087712
v 0.87460136 5.3968277 0.5087712
v 1.0029469 6.185652 0.7921615
v 0.5995722 5.6438932 -0.09843725
v 0.68248016 4.4441442 -0.09843729
v 1.1324525 6.8204365 0.7980194
v 0.74234277 8.850309 1.0744272
v 0.7637171 8.859555 -0.05820091
v 0.94142765 6.865229 -0.09843719
v 1.0029469 6.185652 0.7921615
v 1.1324525 6.8204365 0.7980194
v 0.94142765 6.865229 -0.09843719
v 0.5995722 5.6438932 -0.09843725
v -1.1337571 5.732828 -0.09843725
v -1.5814375 7.1076627 -0.05315873
v -1.3823668 6.7819357 0.65670955
v -1.109326 5.6915765 0.2979704
v 0.7637171 8.859555 -0.05820091
v 0.74234277 8.850309 1.0744272
v -1.2318287 8.713311 1.0723962
v -1.306383 8.7919 -0.022190632
v -1.5814375 7.1076627 -0.05315873
v -1.306383 8.7919 -0.022190632
v -1.2318287 8.713311 1.0723962
v -1.3823668 6.7819357 0.65670955
v -1.3823668 6.7819357 0.65670955
v -1.2318287 8.713311 1.0723962
v 0.74234277 8.850309 1.0744272
v 1.1324525 6.8204365 0.7980194
vt 0.375 0
vt 0.375 0.25
vt 0.625 0.25
vt 0.625 0
vt 0.375 0.25
vt 0.375 0.5
vt 0.625 0.5
vt 0.625 0.25
vt 0.625 0.25
vt 0.625 0.5
vt 0.625 0.25
vt 0.625 0.5
vt 0.625 0.25
vt 0.625 0.5
vt 0.625 0.25
vt 0.625 0.5
vt 0.625 0.25
vt 0.625 0.5
vt 0.625 0.25
vt 0.625 0.5
vt 0.375 0.5
vt 0.375 0.75
vt 0.625 0.75
vt 0.625 0.5
vt 0.375 0.75
vt 0.375 1
vt 0.625 1
vt 0.625 0.75
vt 0.125 0.5
vt 0.125 0.75
vt 0.375 0.75
vt 0.375 0.5
vt 0.625 0.25
vt 0.625 0.25
vt 0.625 0
vt 0.625 0
vt 0.625 1
vt 0.625 1
vt 0.625 0.75
vt 0.625 0.75
vt 0.625 1
vt 0.625 1
vt 0.625 0.75
vt 0.625 0.75
vt 0.625 0.75
vt 0.625 0.75
vt 0.625 0.5
vt 0.625 0.5
vt 0.625 0.75
vt 0.625 0.75
vt 0.625 0.5
vt 0.625 0.5
vt 0.625 0.75
vt 0.625 0.75
vt 0.625 0.5
vt 0.625 0.5
vt 0.625 0.25
vt 0.625 0.25
vt 0.625 0
vt 0.625 0
vt 0.625 0.25
vt 0.625 0.25
vt 0.625 0
vt 0.625 0
vt 0.625 0.25
vt 0.625 0.25
vt 0.625 0
vt 0.625 0
vt 0.625 1
vt 0.625 1
vt 0.625 0.75
vt 0.625 0.75
vt 0.625 1
vt 0.625 1
vt 0.625 0.75
vt 0.625 0.75
vt 0.625 1
vt 0.625 1
vt 0.625 0.75
vt 0.625 0.75
vt 0.625 0.75
vt 0.625 0.75
vt 0.625 0.5
vt 0.625 0.5
vt 0.625 0.75
vt 0.625 0.75
vt 0.625 0.5
vt 0.625 0.5
vt 0.625 0.75
vt 0.625 0.75
vt 0.625 0.5
vt 0.625 0.5
vt 0.625 0.25
vt 0.625 0.25
vt 0.625 0
vt 0.625 0
vt 0.625 0.5
vt 0.625 0.75
vt 0.875 0.75
vt 0.875 0.5
vt 0.625 0.25
vt 0.625 0.25
vt 0.625 0
vt 0.625 0
vt 0.625 1
vt 0.625 1
vt 0.625 0.75
vt 0.625 0.75
vn -0.9919625 -0.030805387 0.12272558
vn -0.9919625 -0.030805387 0.12272558
vn -0.9919625 -0.030805387 0.12272558
vn -0.9919625 -0.030805387 0.12272558
vn -0 0 -1
vn -0 0 -1
vn -0 0 -1
vn -0 0 -1
vn -0 0 -1
vn -0 0 -1
vn -0 0 -1
vn -0 0 -1
vn -0 0 -1
vn -0 0 -1
vn -0 0 -1
vn -0 0 -1
vn -0.009308205 0.017057808 -0.99981123
vn -0.009308205 0.017057808 -0.99981123
vn -0.016939128 0.019798256 -0.9996605
vn -0.016939128 0.019798256 -0.9996605
vn 0.99884015 0.03613069 0.03182862
vn 0.99884015 0.03613069 0.03182862
vn 0.99884015 0.03613069 0.03182862
vn 0.99884015 0.03613069 0.03182862
vn 0.0023015568 0.036320727 0.9993375
vn 0.0023015568 0.036320727 0.9993375
vn 0.0023015568 0.036320727 0.9993375
vn 0.0023015568 0.036320727 0.9993375
vn 0.009894689 -0.99961793 0.025807843
vn 0.009894689 -0.99961793 0.025807843
vn 0.009894689 -0.99961793 0.025807843
vn 0.009894689 -0.99961793 0.025807843
vn -0.98942065 0.14501493 -0.0041912547
vn -0.98942065 0.14501493 -0.0041912547
vn -0.98942065 0.14501493 -0.0041912547
vn -0.98942065 0.14501493 -0.0041912547
vn -0.22347687 0.14923204 0.9632175
vn -0.22347687 0.14923204 0.9632175
vn -0.22347687 0.14923204 0.9632175
vn -0.22347687 0.14923204 0.9632175
vn -0.21821995 -0.021973766 0.9756522
vn -0.21821995 -0.021973766 0.9756522
vn -0.21821995 -0.021973766 0.9756522
vn -0.21821995 -0.021973766 0.9756522
vn 0.971412 0.08657083 0.22105251
vn 0.971412 0.08657083 0.22105251
vn 0.971412 0.08657083 0.22105251
vn 0.971412 0.08657083 0.22105251
vn 0.98215175 -0.116903044 -0.14734897
vn 0.98215175 -0.116903044 -0.14734897
vn 0.98215175 -0.116903044 -0.14734897
vn 0.98215175 -0.116903044 -0.14734897
vn 0.9889908 -0.075727314 0.12713219
vn 0.9889908 -0.075727314 0.12713219
vn 0.9889908 -0.075727314 0.12713219
vn 0.9889908 -0.075727314 0.12713219
vn -0.84888166 -0.40078765 -0.34462893
vn -0.84888166 -0.40078765 -0.34462893
vn -0.84888166 -0.40078765 -0.34462893
vn -0.84888166 -0.40078765 -0.34462893
vn -0.99943846 -0.004300264 0.0332295
vn -0.99943846 -0.004300264 0.0332295
vn -0.99943846 -0.004300264 0.0332295
vn -0.99943846 -0.004300264 0.0332295
vn -0.98178184 -0.029778793 -0.187664
vn -0.98178184 -0.029778793 -0.187664
vn -0.98178184 -0.029778793 -0.187664
vn -0.98178184 -0.029778793 -0.187664
vn -0.09095635 0.036257464 0.9951946
vn -0.09095635 0.036257464 0.9951946
vn -0.09095635 0.036257464 0.9951946
vn -0.09095635 0.036257464 0.9951946
vn -0.10866908 -0.21419767 0.9707267
vn -0.10866908 -0.21419767 0.9707267
vn -0.10866908 -0.21419767 0.9707267
vn -0.10866908 -0.21419767 0.9707267
vn -0.11235178 -0.046343435 0.99258715
vn -0.11235178 -0.046343435 0.99258715
vn -0.11235178 -0.046343435 0.99258715
vn -0.11235178 -0.046343435 0.99258715
vn 0.9157608 0.036093425 -0.40009925
vn 0.9157608 0.036093425 -0.40009925
vn 0.9157608 0.036093425 -0.40009925
vn 0.9157608 0.036093425 -0.40009925
vn 0.9862547 0.14534572 -0.07858911
vn 0.9862547 0.14534572 -0.07858911
vn 0.9862547 0.14534572 -0.07858911
vn 0.9862547 0.14534572 -0.07858911
vn 0.93954444 -0.2378194 -0.24636994
vn 0.93954444 -0.2378194 -0.24636994
vn 0.93954444 -0.2378194 -0.24636994
vn 0.93954444 -0.2378194 -0.24636994
vn -0.9512107 -0.2936269 0.09477077
vn -0.9512107 -0.2936269 0.09477077
vn -0.9512107 -0.2936269 0.09477077
vn -0.9512107 -0.2936269 0.09477077
vn -0.05015729 0.9979177 0.040552367
vn -0.05015729 0.9979177 0.040552367
vn -0.05015729 0.9979177 0.040552367
vn -0.05015729 0.9979177 0.040552367
vn -0.9809201 0.09447341 0.16991353
vn -0.9809201 0.09447341 0.16991353
vn -0.9809201 0.09447341 0.16991353
vn -0.9809201 0.09447341 0.16991353
vn -0.02465428 -0.1735035 0.98452455
vn -0.02465428 -0.1735035 0.98452455
vn -0.02465428 -0.1735035 0.98452455
vn -0.02465428 -0.1735035 0.98452455
g Cube.731_0
f 3/3/3 2/2/2 1/1/1
f 4/4/4 3/3/3 1/1/1
f 7/7/7 6/6/6 5/5/5
f 8/8/8 7/7/7 5/5/5
f 8/8/8 9/9/9 7/7/7
f 9/9/9 10/10/10 7/7/7
f 9/9/9 11/11/11 10/10/10
f 11/11/11 12/12/12 10/10/10
f 11/11/11 13/13/13 12/12/12
f 13/13/13 14/14/14 12/12/12
f 13/13/13 15/15/15 14/14/14
f 15/15/15 16/16/16 14/14/14
f 15/15/15 17/17/17 16/16/16
f 17/17/17 18/18/18 16/16/16
f 17/17/17 19/19/19 18/18/18
f 19/19/19 20/20/20 18/18/18
f 23/23/23 22/22/22 21/21/21
f 24/24/24 23/23/23 21/21/21
f 27/27/27 26/26/26 25/25/25
f 28/28/28 27/27/27 25/25/25
f 31/31/31 30/30/30 29/29/29
f 32/32/32 31/31/31 29/29/29
f 35/35/35 34/34/34 33/33/33
f 36/36/36 35/35/35 33/33/33
f 39/39/39 38/38/38 37/37/37
f 40/40/40 39/39/39 37/37/37
f 43/43/43 42/42/42 41/41/41
f 44/44/44 43/43/43 41/41/41
f 47/47/47 46/46/46 45/45/45
f 48/48/48 47/47/47 45/45/45
f 51/51/51 50/50/50 49/49/49
f 52/52/52 51/51/51 49/49/49
f 55/55/55 54/54/54 53/53/53
f 56/56/56 55/55/55 53/53/53
f 59/59/59 58/58/58 57/57/57
f 60/60/60 59/59/59 57/57/57
f 63/63/63 62/62/62 61/61/61
f 64/64/64 63/63/63 61/61/61
f 67/67/67 66/66/66 65/65/65
f 68/68/68 67/67/67 65/65/65
f 71/71/71 70/70/70 69/69/69
f 72/72/72 71/71/71 69/69/69
f 75/75/75 74/74/74 73/73/73
f 76/76/76 75/75/75 73/73/73
f 79/79/79 78/78/78 77/77/77
f 80/80/80 79/79/79 77/77/77
f 83/83/83 82/82/82 81/81/81
f 84/84/84 83/83/83 81/81/81
f 87/87/87 86/86/86 85/85/85
f 88/88/88 87/87/87 85/85/85
f 91/91/91 90/90/90 89/89/89
f 92/92/92 91/91/91 89/89/89
f 95/95/95 94/94/94 93/93/93
f 96/96/96 95/95/95 93/93/93
f 99/99/99 98/98/98 97/97/97
f 100/100/100 99/99/99 97/97/97
f 103/103/103 102/102/102 101/101/101
f 104/104/104 103/103/103 101/101/101
f 107/107/107 106/106/106 105/105/105
f 108/108/108 107/107/107 105/105/105
