g Cube.733
v -1.2261353 -0.3075783 0.5712124
v -1.0795101 -0.86401165 -0.07176147
v -1.1901436 0.5304112 -0.20131189
v -1.2105106 0.9676863 0.33973816
v -1.0795101 -0.86401165 -0.07176147
v 0.6846624 -0.8324777 -0.057257123
v 0.6885243 1.1680741 -0.093275085
v -1.1901436 0.5304112 -0.20131189
v 0.6846624 -0.8324777 -0.057257123
v 0.6377297 -0.37380072 0.8560596
v 0.4317283 1.6317145 0.8938905
v 0.6885243 1.1680741 -0.093275085
v 0.6377297 -0.37380072 0.8560596
v -1.2261353 -0.3075783 0.5712124
v -1.2105106 0.9676863 0.33973816
v 0.4317283 1.6317145 0.8938905
v -1.0795101 -0.86401165 -0.07176147
v -1.2261353 -0.3075783 0.5712124
v 0.6377297 -0.37380072 0.8560596
v 0.6846624 -0.8324777 -0.057257123
v -1.1901436 0.5304112 -0.20131189
v -0.7738915 3.0688024 -0.1362773
v -0.9063005 3.0073502 0.4178068
v -1.2105106 0.9676863 0.33973816
v -0.9063005 3.0073502 0.4178068
v -1.1817226 3.6019046 0.37123546
v 0.6402452 3.8693383 0.75269306
v 0.302425 3.1960955 0.9194585
v -1.2105106 0.9676863 0.33973816
v -0.9063005 3.0073502 0.4178068
v 0.302425 3.1960955 0.9194585
v 0.4317283 1.6317145 0.8938905
v 0.6885243 1.1680741 -0.093275085
v 0.6029362 2.3957074 -0.04242298
v -0.7738915 3.0688024 -0.1362773
v -1.1901436 0.5304112 -0.20131189
v 0.4317283 1.6317145 0.8938905
v 0.302425 3.1960955 0.9194585
v 0.6029362 2.3957074 -0.04242298
v 0.6885243 1.1680741 -0.093275085
v 0.6402452 3.8693383 0.75269306
v 0.8346874 5.436399 0.52323395
v 0.6307589 4.4351196 -0.0480242
v 0.6029894 4.1770263 -0.119490296
v 0.6029362 2.3957074 -0.04242298
v 0.6029894 4.1770263 -0.119490296
v -0.98299426 3.7122862 -0.12294298
v -0.7738915 3.0688024 -0.1362773
v 0.302425 3.1960955 0.9194585
v 0.6402452 3.8693383 0.75269306
v 0.6029894 4.1770263 -0.119490296
v 0.6029362 2.3957074 -0.04242298
v -0.7738915 3.0688024 -0.1362773
v -0.98299426 3.7122862 -0.12294298
v -1.1817226 3.6019046 0.37123546
v -0.9063005 3.0073502 0.4178068
v -1.1535804 5.186025 -0.103608
v -1.131714 5.7559814 -0.12264877
v -1.1317141 5.7701855 0.25863588
v -1.0944258 4.743128 0.38786137
v -0.98299426 3.7122862 -0.12294298
v -1.1535804 5.186025 -0.103608
v -1.0944258 4.743128 0.38786137
v -1.1817226 3.6019046 0.37123546
v -1.1817226 3.6019046 0.37123546
v -1.0944258 4.743128 0.38786137
v 0.8346874 5.436399 0.52323395
v 0.6402452 3.8693383 0.75269306
v 0.6029894 4.1770263 -0.119490296
v 0.6307589 4.4351196 -0.0480242
v -1.1535804 5.186025 -0.103608
v -0.98299426 3.7122862 -0.12294298
v -1.1317141 5.7701855 0.25863588
v -1.384349 6.815073 0.639401
v 1.1258428 6.8169065 0.8053076
v 0.9805893 6.215239 0.82718
v -1.0944258 4.743128 0.38786137
v -1.1317141 5.7701855 0.25863588
v 0.9805893 6.215239 0.82718
v 0.8346874 5.436399 0.52323395
v 0.6307589 4.4351196 -0.0480242
v -1.131714 5.7559814 -0.12264877
v -1.1535804 5.186025 -0.103608
v 0.5877554 5.6518083 -0.067204446
v -1.5699584 7.1256266 -0.099174306
v 0.94109267 6.8632793 -0.09641433
v -1.2907171 8.8742 -0.0984371
v 0.8017459 8.872059 -0.09843707
v 0.8346874 5.436399 0.52323395
v 0.9805893 6.215239 0.82718
v 0.5877554 5.6518083 -0.067204446
v 0.6307589 4.4351196 -0.0480242
v 1.1258428 6.8169065 0.8053076
v 0.747136 8.871998 1.0408183
v 0.8017459 8.872059 -0.09843707
v 0.94109267 6.8632793 -0.09641433
v 0.9805893 6.215239 0.82718
v 1.1258428 6.8169065 0.8053076
v 0.94109267 6.8632793 -0.09641433
v 0.5877554 5.6518083 -0.067204446
v -1.131714 5.7559814 -0.12264877
v -1.5699584 7.1256266 -0.099174306
v -1.384349 6.815073 0.639401
v -1.1317141 5.7701855 0.25863588
v 0.8017459 8.872059 -0.09843707
v 0.747136 8.871998 1.0408183
v -1.6299766 8.866799 0.69932884
v -1.2907171 8.8742 -0.0984371
v -1.5699584 7.1256266 -0.099174306
v -1.2907171 8.8742 -0.0984371
v -1.6299766 8.866799 0.69932884
v -1.384349 6.815073 0.639401
v -1.384349 6.815073 0.639401
v -1.6299766 8.866799 0.69932884
v 0.747136 8.871998 1.0408183
v 1.1258428 6.8169065 0.8053076
vt 0.375 0
vt 0.375 0.25
vt 0.625 0.25
vt 0.625 0
vt 0.375 0.25
vt 0.375 0.5
vt 0.625 0.5
vt 0.625 0.25
vt 0.375 0.5
vt 0.375 0.75
vt 0.625 0.75
vt 0.625 0.5
vt 0.375 0.75
vt 0.375 1
vt 0.625 1
vt 0.625 0.75
vt 0.125 0.5
vt 0.125 0.75
vt 0.375 0.75
vt 0.375 0.5
vt 0.625 0.25
vt 0.625 0.25
vt 0.625 0
vt 0.625 0
vt 0.625 1
vt 0.625 1
vt 0.625 0.75
vt 0.625 0.75
vt 0.625 1
vt 0.625 1
vt 0.625 0.75
vt 0.625 0.75
vt 0.625 0.5
vt 0.625 0.5
vt 0.625 0.25
vt 0.625 0.25
vt 0.625 0.75
vt 0.625 0.75
vt 0.625 0.5
vt 0.625 0.5
vt 0.625 0.75
vt 0.625 0.75
vt 0.625 0.5
vt 0.625 0.5
vt 0.625 0.5
vt 0.625 0.5
vt 0.625 0.25
vt 0.625 0.25
vt 0.625 0.75
vt 0.625 0.75
vt 0.625 0.5
vt 0.625 0.5
vt 0.625 0.25
vt 0.625 0.25
vt 0.625 0
vt 0.625 0
vt 0.625 0.25
vt 0.625 0.25
vt 0.625 0
vt 0.625 0
vt 0.625 0.25
vt 0.625 0.25
vt 0.625 0
vt 0.625 0
vt 0.625 1
vt 0.625 1
vt 0.625 0.75
vt 0.625 0.75
vt 0.625 0.5
vt 0.625 0.5
vt 0.625 0.25
vt 0.625 0.25
vt 0.625 1
vt 0.625 1
vt 0.625 0.75
vt 0.625 0.75
vt 0.625 1
vt 0.625 1
vt 0.625 0.75
vt 0.625 0.75
vt 0.625 0.5
vt 0.625 0.25
vt 0.625 0.25
vt 0.625 0.5
vt 0.625 0.25
vt 0.625 0.5
vt 0.625 0.25
vt 0.625 0.5
vt 0.625 0.75
vt 0.625 0.75
vt 0.625 0.5
vt 0.625 0.5
vt 0.625 0.75
vt 0.625 0.75
vt 0.625 0.5
vt 0.625 0.5
vt 0.625 0.75
vt 0.625 0.75
vt 0.625 0.5
vt 0.625 0.5
vt 0.625 0.25
vt 0.625 0.25
vt 0.625 0
vt 0.625 0
vt 0.625 0.5
vt 0.625 0.75
vt 0.875 0.75
vt 0.875 0.5
vt 0.625 0.25
vt 0.625 0.25
vt 0.625 0
vt 0.625 0
vt 0.625 1
vt 0.625 1
vt 0.625 0.75
vt 0.625 0.75
vn -0.99386805 -0.048788317 -0.09922667
vn -0.99386805 -0.048788317 -0.09922667
vn -0.99386805 -0.048788317 -0.09922667
vn -0.99386805 -0.048788317 -0.09922667
vn 0.04226773 -0.047341026 -0.99798405
vn 0.04226773 -0.047341026 -0.99798405
vn 0.04226773 -0.047341026 -0.99798405
vn 0.04226773 -0.047341026 -0.99798405
vn 0.9897295 0.049879476 0.13396837
vn 0.9897295 0.049879476 0.13396837
vn 0.9897295 0.049879476 0.13396837
vn 0.9897295 0.049879476 0.13396837
vn -0.23949277 0.043351457 0.9699299
vn -0.23949277 0.043351457 0.9699299
vn -0.23949277 0.043351457 0.9699299
vn -0.23949277 0.043351457 0.9699299
vn -0.052660506 -0.8393987 0.5409591
vn -0.052660506 -0.8393987 0.5409591
vn -0.052660506 -0.8393987 0.5409591
vn -0.052660506 -0.8393987 0.5409591
vn -0.9690072 0.15842053 -0.18954672
vn -0.9690072 0.15842053 -0.18954672
vn -0.9690072 0.15842053 -0.18954672
vn -0.9690072 0.15842053 -0.18954672
vn -0.2994169 0.17264004 0.9383735
vn -0.2994169 0.17264004 0.9383735
vn -0.2994169 0.17264004 0.9383735
vn -0.2994169 0.17264004 0.9383735
vn -0.34456134 -0.0102713285 0.93870753
vn -0.34456134 -0.0102713285 0.93870753
vn -0.34456134 -0.0102713285 0.93870753
vn -0.34456134 -0.0102713285 0.93870753
vn 0.06215056 0.025245357 -0.99774736
vn 0.06215056 0.025245357 -0.99774736
vn 0.06215056 0.025245357 -0.99774736
vn 0.06215056 0.025245357 -0.99774736
vn 0.9700543 0.068281665 0.23309246
vn 0.9700543 0.068281665 0.23309246
vn 0.9700543 0.068281665 0.23309246
vn 0.9700543 0.068281665 0.23309246
vn 0.98630166 -0.12898263 -0.10282329
vn 0.98630166 -0.12898263 -0.10282329
vn 0.98630166 -0.12898263 -0.10282329
vn 0.98630166 -0.12898263 -0.10282329
vn 0.031159686 -0.023577332 -0.99923635
vn 0.031159686 -0.023577332 -0.99923635
vn 0.031159686 -0.023577332 -0.99923635
vn 0.031159686 -0.023577332 -0.99923635
vn 0.9780644 -0.11754885 0.17196617
vn 0.9780644 -0.11754885 0.17196617
vn 0.9780644 -0.11754885 0.17196617
vn 0.9780644 -0.11754885 0.17196617
vn -0.8747038 -0.35129246 -0.33389634
vn -0.8747038 -0.35129246 -0.33389634
vn -0.8747038 -0.35129246 -0.33389634
vn -0.8747038 -0.35129246 -0.33389634
vn -0.9978198 -0.0035171534 0.06590363
vn -0.9978198 -0.0035171534 0.06590363
vn -0.9978198 -0.0035171534 0.06590363
vn -0.9978198 -0.0035171534 0.06590363
vn -0.98728275 -0.029297221 -0.15625064
vn -0.98728275 -0.029297221 -0.15625064
vn -0.98728275 -0.029297221 -0.15625064
vn -0.98728275 -0.029297221 -0.15625064
vn -0.15943123 0.093815155 0.9827413
vn -0.15943123 0.093815155 0.9827413
vn -0.15943123 0.093815155 0.9827413
vn -0.15943123 0.093815155 0.9827413
vn 0.022085346 0.05416216 -0.99828786
vn 0.022085346 0.05416216 -0.99828786
vn 0.022085346 0.05416216 -0.99828786
vn 0.022085346 0.05416216 -0.99828786
vn -0.13238034 -0.21932541 0.966629
vn -0.13238034 -0.21932541 0.966629
vn -0.13238034 -0.21932541 0.966629
vn -0.13238034 -0.21932541 0.966629
vn -0.14726104 -0.086471945 0.98531055
vn -0.14726104 -0.086471945 0.98531055
vn -0.14726104 -0.086471945 0.98531055
vn -0.14726104 -0.086471945 0.98531055
vn 0.026528517 -0.021066502 -0.9994261
vn 0.026528517 -0.021066502 -0.9994261
vn 0.026528517 -0.021066502 -0.9994261
vn 0.026528517 -0.021066502 -0.9994261
vn 0.013603167 -0.0017743781 -0.99990594
vn 0.013603167 -0.0017743781 -0.99990594
vn 0.0005786486 -0.00036368257 -0.99999976
vn 0.0005786486 -0.00036368257 -0.99999976
vn 0.9234671 0.0071240235 -0.38361144
vn 0.9234671 0.0071240235 -0.38361144
vn 0.9234671 0.0071240235 -0.38361144
vn 0.9234671 0.0071240235 -0.38361144
vn 0.9897363 0.12962595 -0.060160115
vn 0.9897363 0.12962595 -0.060160115
vn 0.9897363 0.12962595 -0.060160115
vn 0.9897363 0.12962595 -0.060160115
vn 0.93773305 -0.2642178 -0.22548969
vn 0.93773305 -0.2642178 -0.22548969
vn 0.93773305 -0.2642178 -0.22548969
vn 0.93773305 -0.2642178 -0.22548969
vn -0.95443004 -0.28686917 0.08227599
vn -0.95443004 -0.28686917 0.08227599
vn -0.95443004 -0.28686917 0.08227599
vn -0.95443004 -0.28686917 0.08227599
vn -0.0009629778 0.99999285 0.0036561505
vn -0.0009629778 0.99999285 0.0036561505
vn -0.0009629778 0.99999285 0.0036561505
vn -0.0009629778 0.99999285 0.0036561505
vn -0.99519277 0.010357113 -0.097386025
vn -0.99519277 0.010357113 -0.097386025
vn -0.99519277 0.010357113 -0.097386025
vn -0.99519277 0.010357113 -0.097386025
vn -0.10274977 -0.086904615 0.9909037
vn -0.10274977 -0.086904615 0.9909037
vn -0.10274977 -0.086904615 0.9909037
vn -0.10274977 -0.086904615 0.9909037
g Cube.733_0
f 3/3/3 2/2/2 1/1/1
f 4/4/4 3/3/3 1/1/1
f 7/7/7 6/6/6 5/5/5
f 8/8/8 7/7/7 5/5/5
f 11/11/11 10/10/10 9/9/9
f 12/12/12 11/11/11 9/9/9
f 15/15/15 14/14/14 13/13/13
f 16/16/16 15/15/15 13/13/13
f 19/19/19 18/18/18 17/17/17
f 20/20/20 19/19/19 17/17/17
f 23/23/23 22/22/22 21/21/21
f 24/24/24 23/23/23 21/21/21
f 27/27/27 26/26/26 25/25/25
f 28/28/28 27/27/27 25/25/25
f 31/31/31 30/30/30 29/29/29
f 32/32/32 31/31/31 29/29/29
f 35/35/35 34/34/34 33/33/33
f 36/36/36 35/35/35 33/33/33
f 39/39/39 38/38/38 37/37/37
f 40/40/40 39/39/39 37/37/37
f 43/43/43 42/42/42 41/41/41
f 44/44/44 43/43/43 41/41/41
f 47/47/47 46/46/46 45/45/45
f 48/48/48 47/47/47 45/45/45
f 51/51/51 50/50/50 49/49/49
f 52/52/52 51/51/51 49/49/49
f 55/55/55 54/54/54 53/53/53
f 56/56/56 55/55/55 53/53/53
f 59/59/59 58/58/58 57/57/57
f 60/60/60 59/59/59 57/57/57
f 63/63/63 62/62/62 61/61/61
f 64/64/64 63/63/63 61/61/61
f 67/67/67 66/66/66 65/65/65
f 68/68/68 67/67/67 65/65/65
f 71/71/71 70/70/70 69/69/69
f 72/72/72 71/71/71 69/69/69
f 75/75/75 74/74/74 73/73/73
f 76/76/76 75/75/75 73/73/73
f 79/79/79 78/78/78 77/77/77
f 80/80/80 79/79/79 77/77/77
f 83/83/83 82/82/82 81/81/81
f 82/82/82 84/84/84 81/81/81
f 82/82/82 85/85/85 84/84/84
f 85/85/85 86/86/86 84/84/84
f 85/85/85 87/87/87 86/86/86
f 87/87/87 88/88/88 86/86/86
f 91/91/91 90/90/90 89/89/89
f 92/92/92 91/91/91 89/89/89
f 95/95/95 94/94/94 93/93/93
f 96/96/96 95/95/95 93/93/93
f 99/99/99 98/98/98 97/97/97
f 100/100/100 99/99/99 97/97/97
f 103/103/103 102/102/102 101/101/101
f 104/104/104 103/103/103 101/101/101
f 107/107/107 106/106/106 105/105/105
f 108/108/108 107/107/107 105/105/105
f 111/111/111 110/110/110 109/109/109
f 112/112/112 111/111/111 109/109/109
f 115/115/115 114/114/114 113/113/113
f 116/116/116 115/115/115 113/113/113
