g Cube.567
v -1 -1 1
v -1 -1 -1
v -1 1 -1
v -1 1 1
v -1 -1 -1
v 1 -1 -1
v 1 1 -1
v -1 1 -1
v 1 -1 -1
v 1 -1 1
v 1 1 1
v 1 1 -1
v 1 -1 1
v -1 -1 1
v -1 1 1
v 1 1 1
v -1 -1 -1
v -1 -1 1
v 1 -1 1
v 1 -1 -1
v 1 1 -1
v 1 1 1
v -1 1 1
v -1 1 -1
vt 0.9429597 0.3464438
vt 0.9429597 0.34063283
vt 0.9369755 0.34063283
vt 0.9369755 0.3464438
vt 0.92500705 0.2360351
vt 0.92500705 0.23022412
vt 0.9190228 0.23022412
vt 0.9190228 0.2360351
vt 0.7772793 0.875322
vt 0.7772793 0.86951095
vt 0.7712951 0.86951095
vt 0.7712951 0.875322
vt 0.7353897 0.9159988
vt 0.74137396 0.9159988
vt 0.74137396 0.91018784
vt 0.7353897 0.91018784
vt 0.9627903 0.90437686
vt 0.9627903 0.8985659
vt 0.9568061 0.8985659
vt 0.9568061 0.90437686
vt 0.7772793 0.9276208
vt 0.7712951 0.9276208
vt 0.7712951 0.9334318
vt 0.7772793 0.9334318
vn -1 0 0
vn -1 0 0
vn -1 0 0
vn -1 0 0
vn -0 0 -1
vn -0 0 -1
vn -0 0 -1
vn -0 0 -1
vn 1 0 0
vn 1 0 0
vn 1 0 0
vn 1 0 0
vn -0 0 1
vn -0 0 1
vn -0 0 1
vn -0 0 1
vn -0 -1 0
vn -0 -1 0
vn -0 -1 0
vn -0 -1 0
vn -0 1 0
vn -0 1 0
vn -0 1 0
vn -0 1 0
g Cube.567_0
f 3/3/3 2/2/2 1/1/1
f 4/4/4 3/3/3 1/1/1
f 7/7/7 6/6/6 5/5/5
f 8/8/8 7/7/7 5/5/5
f 11/11/11 10/10/10 9/9/9
f 12/12/12 11/11/11 9/9/9
f 15/15/15 14/14/14 13/13/13
f 16/16/16 15/15/15 13/13/13
f 19/19/19 18/18/18 17/17/17
f 20/20/20 19/19/19 17/17/17
f 23/23/23 22/22/22 21/21/21
f 24/24/24 23/23/23 21/21/21
