g CustomCollisionTrapezoid
v 2.1261601 2.1261601 -0.25584352
v -2.126161 -2.1261604 -0.25584352
v 2.1261601 -2.1261609 -0.25584352
v 0.99999934 -1.0000006 1
v -1.0000004 -0.99999964 1
v 1.0000005 0.99999946 1
v -2.1261601 2.126161 -0.25584352
v -0.99999994 1 1
vn 0.6858591 0.6858591 -0.24329945
vn -0.6858591 -0.6858591 -0.24329945
vn 0.6858591 -0.6858591 -0.24329945
vn 0.321488 -0.321488 0.89066887
vn -0.321488 -0.321488 0.89066887
vn 0.321488 0.321488 0.89066887
vn -0.6858591 0.6858591 -0.24329945
vn -0.321488 0.321488 0.89066887
g CustomCollisionTrapezoid_0
f 3/3/3 2/2/2 1/1/1
f 4/4/4 3/3/3 1/1/1
f 4/4/4 5/5/5 3/3/3
f 5/5/5 2/2/2 3/3/3
f 6/6/6 4/4/4 1/1/1
f 5/5/5 4/4/4 6/6/6
f 2/2/2 7/7/7 1/1/1
f 1/1/1 7/7/7 6/6/6
f 8/8/8 5/5/5 6/6/6
f 5/5/5 8/8/8 2/2/2
f 8/8/8 7/7/7 2/2/2
f 7/7/7 8/8/8 6/6/6
