g Cylinder
v -0 0.9999999 -0.9999999
v -0 0.9999999 0.9999999
v 0.1950903 0.98078513 0.9999999
v 0.1950903 0.98078513 -0.9999999
v 0.3826834 0.9238794 0.9999999
v 0.3826834 0.9238794 -0.9999999
v 0.5555702 0.8314695 0.9999999
v 0.5555702 0.8314695 -0.9999999
v 0.7071067 0.7071067 0.9999999
v 0.7071067 0.7071067 -0.9999999
v 0.83146954 0.5555701 0.9999999
v 0.83146954 0.5555701 -0.9999999
v 0.9238794 0.38268337 0.9999999
v 0.9238794 0.38268337 -0.9999999
v 0.98078513 0.19509032 0.9999999
v 0.98078513 0.19509032 -0.9999999
v 0.9999999 7.5497894E-08 0.9999999
v 0.9999999 7.5497894E-08 -0.9999999
v 0.9807852 -0.19509017 0.9999999
v 0.9807852 -0.19509017 -0.9999999
v 0.92387944 -0.38268322 0.9999999
v 0.92387944 -0.38268322 -0.9999999
v 0.83146954 -0.5555701 0.9999999
v 0.83146954 -0.5555701 -0.9999999
v 0.7071067 -0.7071067 0.9999999
v 0.7071067 -0.7071067 -0.9999999
v 0.5555701 -0.83146954 0.9999999
v 0.5555701 -0.83146954 -0.9999999
v 0.38268322 -0.9238795 0.9999999
v 0.38268322 -0.9238795 -0.9999999
v 0.19509006 -0.9807852 0.9999999
v 0.19509006 -0.9807852 -0.9999999
v -3.2584134E-07 -0.9999999 0.9999999
v -3.2584134E-07 -0.9999999 -0.9999999
v -0.1950907 -0.9807851 0.9999999
v -0.1950907 -0.9807851 -0.9999999
v -0.3826838 -0.9238792 0.9999999
v -0.3826838 -0.9238792 -0.9999999
v -0.55557066 -0.8314692 0.9999999
v -0.55557066 -0.8314692 -0.9999999
v -0.7071072 -0.7071063 0.9999999
v -0.7071072 -0.7071063 -0.9999999
v -0.8314699 -0.5555696 0.9999999
v -0.8314699 -0.5555696 -0.9999999
v -0.92387974 -0.38268262 0.9999999
v -0.92387974 -0.38268262 -0.9999999
v -0.9807853 -0.19508943 0.9999999
v -0.9807853 -0.19508943 -0.9999999
v -0.9999999 9.65599E-07 0.9999999
v -0.9999999 9.65599E-07 -0.9999999
v -0.98078495 0.19509132 0.9999999
v -0.98078495 0.19509132 -0.9999999
v -0.92387897 0.3826844 0.9999999
v -0.92387897 0.3826844 -0.9999999
v -0.8314688 0.5555712 0.9999999
v -0.8314688 0.5555712 -0.9999999
v -0.7071058 0.7071076 0.9999999
v -0.7071058 0.7071076 -0.9999999
v -0.55556905 0.83147025 0.9999999
v -0.55556905 0.83147025 -0.9999999
v -0.38268203 0.92388 0.9999999
v -0.38268203 0.92388 -0.9999999
v -0.19508879 0.9807854 0.9999999
v -0.19508879 0.9807854 -0.9999999
v -0 0.9999999 0.9999999
v -0 0.9999999 -0.9999999
vt 1 0.03112939
vt 1 0.9688705
vt 0.96875 0.9688705
vt 0.96875 0.03112939
vt 0.9375 0.9688705
vt 0.9375 0.03112939
vt 0.90625 0.9688705
vt 0.90625 0.03112939
vt 0.875 0.9688705
vt 0.875 0.03112939
vt 0.84375 0.9688705
vt 0.84375 0.03112939
vt 0.8125 0.9688705
vt 0.8125 0.03112939
vt 0.78125 0.9688705
vt 0.78125 0.03112939
vt 0.75 0.9688705
vt 0.75 0.03112939
vt 0.71875 0.9688705
vt 0.71875 0.03112939
vt 0.6875 0.9688705
vt 0.6875 0.03112945
vt 0.65625 0.9688705
vt 0.65625 0.03112945
vt 0.625 0.9688705
vt 0.625 0.03112945
vt 0.59375 0.9688705
vt 0.59374994 0.03112945
vt 0.5625 0.9688705
vt 0.56249994 0.03112945
vt 0.53125 0.96887064
vt 0.53124994 0.03112951
vt 0.49999997 0.96887064
vt 0.49999994 0.03112951
vt 0.46874994 0.96887064
vt 0.46874994 0.03112951
vt 0.43749994 0.96887064
vt 0.43749994 0.03112951
vt 0.4062499 0.96887064
vt 0.40624994 0.03112951
vt 0.3749999 0.96887064
vt 0.3749999 0.03112951
vt 0.34374988 0.96887064
vt 0.3437499 0.03112951
vt 0.31249988 0.96887064
vt 0.31249988 0.03112951
vt 0.28124988 0.96887064
vt 0.28124988 0.03112951
vt 0.24999985 0.96887064
vt 0.24999988 0.03112951
vt 0.21874982 0.96887064
vt 0.21874985 0.03112951
vt 0.18749979 0.9688705
vt 0.18749985 0.03112945
vt 0.15624979 0.9688705
vt 0.15624982 0.03112945
vt 0.12499979 0.9688705
vt 0.12499982 0.03112945
vt 0.09374976 0.9688705
vt 0.09374982 0.03112945
vt 0.06249976 0.9688705
vt 0.06249979 0.03112945
vt 0.031249732 0.9688705
vt 0.031249791 0.03112939
vt 0 0.9688705
vt 2.9802322E-08 0.03112939
vn -0 -1 0
vn -0 -1 0
vn -0.19507721 -0.9807879 0
vn -0.19507721 -0.9807879 0
vn -0.38268155 -0.92388034 0
vn -0.38268155 -0.92388034 0
vn -0.55557317 -0.8314676 0
vn -0.55557317 -0.8314676 0
vn -0.70710677 -0.70710677 0
vn -0.70710677 -0.70710677 0
vn -0.8314676 -0.55557317 0
vn -0.8314676 -0.55557317 0
vn -0.92388034 -0.38268155 0
vn -0.92388034 -0.38268155 0
vn -0.9807879 -0.19507721 0
vn -0.9807879 -0.19507721 0
vn -1 0 0
vn -1 0 0
vn -0.9807879 0.19507721 0
vn -0.9807879 0.19507721 0
vn -0.92388034 0.38268155 0
vn -0.92388034 0.38268155 0
vn -0.8314676 0.55557317 0
vn -0.8314676 0.55557317 0
vn -0.70710677 0.70710677 0
vn -0.70710677 0.70710677 0
vn -0.55557317 0.8314676 0
vn -0.55557317 0.8314676 0
vn -0.38268155 0.92388034 0
vn -0.38268155 0.92388034 0
vn -0.19507721 0.9807879 0
vn -0.19507721 0.9807879 0
vn -0 1 0
vn -0 1 0
vn 0.19507721 0.9807879 0
vn 0.19507721 0.9807879 0
vn 0.38268155 0.92388034 0
vn 0.38268155 0.92388034 0
vn 0.55557317 0.8314676 0
vn 0.55557317 0.8314676 0
vn 0.70710677 0.70710677 0
vn 0.70710677 0.70710677 0
vn 0.8314676 0.55557317 0
vn 0.8314676 0.55557317 0
vn 0.92388034 0.38268155 0
vn 0.92388034 0.38268155 0
vn 0.9807879 0.19507721 0
vn 0.9807879 0.19507721 0
vn 1 0 0
vn 1 0 0
vn 0.9807879 -0.19507721 0
vn 0.9807879 -0.19507721 0
vn 0.92388034 -0.38268155 0
vn 0.92388034 -0.38268155 0
vn 0.8314676 -0.55557317 0
vn 0.8314676 -0.55557317 0
vn 0.70710677 -0.70710677 0
vn 0.70710677 -0.70710677 0
vn 0.55557317 -0.8314676 0
vn 0.55557317 -0.8314676 0
vn 0.38268155 -0.92388034 0
vn 0.38268155 -0.92388034 0
vn 0.19507721 -0.9807879 0
vn 0.19507721 -0.9807879 0
vn -0 -1 0
vn -0 -1 0
g Cylinder_0
f 3/3/3 2/2/2 1/1/1
f 4/4/4 3/3/3 1/1/1
f 5/5/5 3/3/3 4/4/4
f 6/6/6 5/5/5 4/4/4
f 7/7/7 5/5/5 6/6/6
f 8/8/8 7/7/7 6/6/6
f 9/9/9 7/7/7 8/8/8
f 10/10/10 9/9/9 8/8/8
f 11/11/11 9/9/9 10/10/10
f 12/12/12 11/11/11 10/10/10
f 13/13/13 11/11/11 12/12/12
f 14/14/14 13/13/13 12/12/12
f 15/15/15 13/13/13 14/14/14
f 16/16/16 15/15/15 14/14/14
f 17/17/17 15/15/15 16/16/16
f 18/18/18 17/17/17 16/16/16
f 19/19/19 17/17/17 18/18/18
f 20/20/20 19/19/19 18/18/18
f 21/21/21 19/19/19 20/20/20
f 22/22/22 21/21/21 20/20/20
f 23/23/23 21/21/21 22/22/22
f 24/24/24 23/23/23 22/22/22
f 25/25/25 23/23/23 24/24/24
f 26/26/26 25/25/25 24/24/24
f 27/27/27 25/25/25 26/26/26
f 28/28/28 27/27/27 26/26/26
f 29/29/29 27/27/27 28/28/28
f 30/30/30 29/29/29 28/28/28
f 31/31/31 29/29/29 30/30/30
f 32/32/32 31/31/31 30/30/30
f 33/33/33 31/31/31 32/32/32
f 34/34/34 33/33/33 32/32/32
f 35/35/35 33/33/33 34/34/34
f 36/36/36 35/35/35 34/34/34
f 37/37/37 35/35/35 36/36/36
f 38/38/38 37/37/37 36/36/36
f 39/39/39 37/37/37 38/38/38
f 40/40/40 39/39/39 38/38/38
f 41/41/41 39/39/39 40/40/40
f 42/42/42 41/41/41 40/40/40
f 43/43/43 41/41/41 42/42/42
f 44/44/44 43/43/43 42/42/42
f 45/45/45 43/43/43 44/44/44
f 46/46/46 45/45/45 44/44/44
f 47/47/47 45/45/45 46/46/46
f 48/48/48 47/47/47 46/46/46
f 49/49/49 47/47/47 48/48/48
f 50/50/50 49/49/49 48/48/48
f 51/51/51 49/49/49 50/50/50
f 52/52/52 51/51/51 50/50/50
f 53/53/53 51/51/51 52/52/52
f 54/54/54 53/53/53 52/52/52
f 55/55/55 53/53/53 54/54/54
f 56/56/56 55/55/55 54/54/54
f 57/57/57 55/55/55 56/56/56
f 58/58/58 57/57/57 56/56/56
f 59/59/59 57/57/57 58/58/58
f 60/60/60 59/59/59 58/58/58
f 61/61/61 59/59/59 60/60/60
f 62/62/62 61/61/61 60/60/60
f 63/63/63 61/61/61 62/62/62
f 64/64/64 63/63/63 62/62/62
f 65/65/65 63/63/63 64/64/64
f 66/66/66 65/65/65 64/64/64
