g Cylinder
v -0 0.9999999 0.0078003397
v 0.7071067 0.7071067 0.0078003397
v 0.7071067 0.7071067 0.14528327
v -0 0.9999999 0.14528327
v 0.7071067 0.7071067 0.0078003397
v 0.9999999 -4.3711385E-08 0.0078003397
v 0.9999999 -4.3711385E-08 0.14528327
v 0.7071067 0.7071067 0.14528327
v 0.9999999 -4.3711385E-08 0.0078003397
v 0.7071067 -0.7071067 0.0078003397
v 0.7071067 -0.7071067 0.14528327
v 0.9999999 -4.3711385E-08 0.14528327
v 0.7071067 -0.7071067 0.0078003397
v -8.742277E-08 -0.9999999 0.0078003397
v -8.742277E-08 -0.9999999 0.14528327
v 0.7071067 -0.7071067 0.14528327
v -8.742277E-08 -0.9999999 0.0078003397
v -0.7071068 -0.7071066 0.0078003397
v -0.7071068 -0.7071066 0.14528327
v -8.742277E-08 -0.9999999 0.14528327
v -0.7071068 -0.7071066 0.0078003397
v -0.9999999 1.1924879E-08 0.0078003397
v -0.9999999 1.1924879E-08 0.14528327
v -0.7071068 -0.7071066 0.14528327
v -0.7071068 0.70710665 0.0078003397
v -0 0.9999999 0.0078003397
v -0 0.9999999 0.14528327
v -0.7071068 0.70710665 0.14528327
v -0.9999999 1.1924879E-08 0.0078003397
v -0.7071068 0.70710665 0.0078003397
v -0.7071068 0.70710665 0.14528327
v -0.9999999 1.1924879E-08 0.14528327
v 0.7071067 -0.7071067 0.0078003397
v 0.9999999 -4.3711385E-08 0.0078003397
v 0.7071067 0.7071067 0.0078003397
v -8.742277E-08 -0.9999999 0.0078003397
v -0 0.9999999 0.0078003397
v -0.7071068 0.70710665 0.0078003397
v -0.7071068 -0.7071066 0.0078003397
v -0.9999999 1.1924879E-08 0.0078003397
v -6.6925665E-08 -0.74369705 0.14528327
v -6.6925665E-08 -0.74369705 0.30666092
v 0.5258732 -0.5258732 0.30666092
v 0.5258732 -0.5258732 0.14528327
v 0.74369705 -3.0598425E-08 0.14528327
v 0.74369705 -3.0598425E-08 0.30666092
v 0.5258732 0.5258732 0.30666092
v 0.5258732 0.5258732 0.14528327
v -0.5258733 0.5258732 0.14528327
v -0.5258733 0.5258732 0.30666092
v -0.74369705 1.0778104E-08 0.30666092
v -0.74369705 1.0778104E-08 0.14528327
v -0.5258733 -0.5258731 0.14528327
v -0.5258733 -0.5258731 0.30666092
v -6.6925665E-08 -0.74369705 0.30666092
v -6.6925665E-08 -0.74369705 0.14528327
v 0.5258732 -0.5258732 0.14528327
v 0.5258732 -0.5258732 0.30666092
v 0.74369705 -3.0598425E-08 0.30666092
v 0.74369705 -3.0598425E-08 0.14528327
v 0.5258732 0.5258732 0.14528327
v 0.5258732 0.5258732 0.30666092
v -1.9096051E-09 0.74369705 0.30666092
v -1.9096051E-09 0.74369705 0.14528327
v -1.9096051E-09 0.74369705 0.14528327
v -1.9096051E-09 0.74369705 0.30666092
v -0.5258733 0.5258732 0.30666092
v -0.5258733 0.5258732 0.14528327
v -0.74369705 1.0778104E-08 0.14528327
v -0.74369705 1.0778104E-08 0.30666092
v -0.5258733 -0.5258731 0.30666092
v -0.5258733 -0.5258731 0.14528327
v -1.5714447E-08 0.50378835 0.30666092
v -1.5714447E-08 0.50378835 0.058988117
v -0.35623226 0.35623217 0.058988117
v -0.35623226 0.35623217 0.30666092
v 0.3562322 0.35623217 0.058988117
v 0.50378835 -1.8324227E-08 0.058988117
v 0.3562322 -0.35623217 0.058988117
v -1.5714447E-08 0.50378835 0.058988117
v -5.975703E-08 -0.50378835 0.058988117
v -0.35623226 0.35623217 0.058988117
v -0.35623226 -0.35623214 0.058988117
v -0.5037884 9.704681E-09 0.058988117
v -0.5037884 9.704681E-09 0.30666092
v -0.5037884 9.704681E-09 0.058988117
v -0.35623226 -0.35623214 0.058988117
v -0.35623226 -0.35623214 0.30666092
v -5.975703E-08 -0.50378835 0.30666092
v -5.975703E-08 -0.50378835 0.058988117
v 0.3562322 -0.35623217 0.058988117
v 0.3562322 -0.35623217 0.30666092
v 0.50378835 -1.8324227E-08 0.30666092
v 0.50378835 -1.8324227E-08 0.058988117
v 0.3562322 0.35623217 0.058988117
v 0.3562322 0.35623217 0.30666092
v -0.35623226 0.35623217 0.30666092
v -0.35623226 0.35623217 0.058988117
v -0.5037884 9.704681E-09 0.058988117
v -0.5037884 9.704681E-09 0.30666092
v -0.35623226 -0.35623214 0.30666092
v -0.35623226 -0.35623214 0.058988117
v -5.975703E-08 -0.50378835 0.058988117
v -5.975703E-08 -0.50378835 0.30666092
v 0.3562322 -0.35623217 0.30666092
v 0.3562322 -0.35623217 0.058988117
v 0.50378835 -1.8324227E-08 0.058988117
v 0.50378835 -1.8324227E-08 0.30666092
v 0.3562322 0.35623217 0.30666092
v 0.3562322 0.35623217 0.058988117
v -1.5714447E-08 0.50378835 0.058988117
v -1.5714447E-08 0.50378835 0.30666092
v -0 0.9999999 0.14528327
v -1.9096051E-09 0.74369705 0.14528327
v -0.5258733 0.5258732 0.14528327
v -0.7071068 0.70710665 0.14528327
v 0.7071067 0.7071067 0.14528327
v -0.74369705 1.0778104E-08 0.14528327
v 0.5258732 0.5258732 0.14528327
v -0.9999999 1.1924879E-08 0.14528327
v 0.9999999 -4.3711385E-08 0.14528327
v -0.5258733 -0.5258731 0.14528327
v 0.74369705 -3.0598425E-08 0.14528327
v -0.7071068 -0.7071066 0.14528327
v 0.7071067 -0.7071067 0.14528327
v -6.6925665E-08 -0.74369705 0.14528327
v 0.5258732 -0.5258732 0.14528327
v -8.742277E-08 -0.9999999 0.14528327
v 0.74369705 -3.0598425E-08 0.30666092
v 0.3562322 0.35623217 0.30666092
v 0.5258732 0.5258732 0.30666092
v 0.50378835 -1.8324227E-08 0.30666092
v -1.5714447E-08 0.50378835 0.30666092
v 0.5258732 -0.5258732 0.30666092
v -1.9096051E-09 0.74369705 0.30666092
v 0.3562322 -0.35623217 0.30666092
v -0.35623226 0.35623217 0.30666092
v -6.6925665E-08 -0.74369705 0.30666092
v -0.5258733 0.5258732 0.30666092
v -5.975703E-08 -0.50378835 0.30666092
v -0.5037884 9.704681E-09 0.30666092
v -0.5258733 -0.5258731 0.30666092
v -0.74369705 1.0778104E-08 0.30666092
v -0.35623226 -0.35623214 0.30666092
vn 0.38268343 0.9238795 0
vn 0.38268343 0.9238795 0
vn 0.38268343 0.9238795 0
vn 0.38268343 0.9238795 0
vn 0.9238795 0.3826834 0
vn 0.9238795 0.3826834 0
vn 0.9238795 0.3826834 0
vn 0.9238795 0.3826834 0
vn 0.9238795 -0.38268355 0
vn 0.9238795 -0.38268355 0
vn 0.9238795 -0.38268355 0
vn 0.9238795 -0.38268355 0
vn 0.38268337 -0.9238795 0
vn 0.38268337 -0.9238795 0
vn 0.38268337 -0.9238795 0
vn 0.38268337 -0.9238795 0
vn -0.3826836 -0.92387944 0
vn -0.3826836 -0.92387944 0
vn -0.3826836 -0.92387944 0
vn -0.3826836 -0.92387944 0
vn -0.9238795 -0.3826833 0
vn -0.9238795 -0.3826833 0
vn -0.9238795 -0.3826833 0
vn -0.9238795 -0.3826833 0
vn -0.38268343 0.9238795 0
vn -0.38268343 0.9238795 0
vn -0.38268343 0.9238795 0
vn -0.38268343 0.9238795 0
vn -0.9238795 0.38268328 0
vn -0.9238795 0.38268328 0
vn -0.9238795 0.38268328 0
vn -0.9238795 0.38268328 0
vn -0 0 -1
vn -0 0 -1
vn -0 0 -1
vn -0 0 -1
vn -0 0 -1
vn -0 0 -1
vn -0 0 -1
vn -0 0 -1
vn 0.38268346 -0.9238795 0
vn 0.38268346 -0.9238795 0
vn 0.38268346 -0.9238795 0
vn 0.38268346 -0.9238795 0
vn 0.9238795 0.38268343 0
vn 0.9238795 0.38268343 0
vn 0.9238795 0.38268343 0
vn 0.9238795 0.38268343 0
vn -0.9238795 0.3826833 0
vn -0.9238795 0.3826833 0
vn -0.9238795 0.3826833 0
vn -0.9238795 0.3826833 0
vn -0.38268355 -0.92387944 0
vn -0.38268355 -0.92387944 0
vn -0.38268355 -0.92387944 0
vn -0.38268355 -0.92387944 0
vn 0.9238795 -0.38268352 0
vn 0.9238795 -0.38268352 0
vn 0.9238795 -0.38268352 0
vn 0.9238795 -0.38268352 0
vn 0.38268352 0.9238795 0
vn 0.38268352 0.9238795 0
vn 0.38268352 0.9238795 0
vn 0.38268352 0.9238795 0
vn -0.38268346 0.9238795 0
vn -0.38268346 0.9238795 0
vn -0.38268346 0.9238795 0
vn -0.38268346 0.9238795 0
vn -0.9238795 -0.38268334 0
vn -0.9238795 -0.38268334 0
vn -0.9238795 -0.38268334 0
vn -0.9238795 -0.38268334 0
vn 0.38268334 -0.9238795 0
vn 0.38268334 -0.9238795 0
vn 0.38268334 -0.9238795 0
vn 0.38268334 -0.9238795 0
vn -0 0 1
vn -0 0 1
vn -0 0 1
vn -0 0 1
vn -0 0 1
vn -0 0 1
vn -0 0 1
vn -0 0 1
vn 0.9238795 0.3826834 0
vn 0.9238795 0.3826834 0
vn 0.9238795 0.3826834 0
vn 0.9238795 0.3826834 0
vn -0.38268334 0.9238795 0
vn -0.38268334 0.9238795 0
vn -0.38268334 0.9238795 0
vn -0.38268334 0.9238795 0
vn -0.9238795 -0.3826833 0
vn -0.9238795 -0.3826833 0
vn -0.9238795 -0.3826833 0
vn -0.9238795 -0.3826833 0
vn 0.9238795 -0.38268334 0
vn 0.9238795 -0.38268334 0
vn 0.9238795 -0.38268334 0
vn 0.9238795 -0.38268334 0
vn 0.3826835 0.9238795 0
vn 0.3826835 0.9238795 0
vn 0.3826835 0.9238795 0
vn 0.3826835 0.9238795 0
vn -0.9238795 0.3826834 0
vn -0.9238795 0.3826834 0
vn -0.9238795 0.3826834 0
vn -0.9238795 0.3826834 0
vn -0.38268334 -0.9238795 0
vn -0.38268334 -0.9238795 0
vn -0.38268334 -0.9238795 0
vn -0.38268334 -0.9238795 0
vn -0 0 1
vn -0 0 1
vn -0 0 1
vn -0 0 1
vn -0 0 1
vn -0 0 1
vn -0 0 1
vn -0 0 1
vn -0 0 1
vn -0 0 1
vn -0 0 1
vn -0 0 1
vn -0 0 1
vn -0 0 1
vn -0 0 1
vn -0 0 1
vn -0 0 1
vn -0 0 1
vn -0 0 1
vn -0 0 1
vn -0 0 1
vn -0 0 1
vn -0 0 1
vn -0 0 1
vn -0 0 1
vn -0 0 1
vn -0 0 1
vn -0 0 1
vn -0 0 1
vn -0 0 1
vn -0 0 1
vn -0 0 1
g Cylinder_0
f 3/3/3 2/2/2 1/1/1
f 4/4/4 3/3/3 1/1/1
f 7/7/7 6/6/6 5/5/5
f 8/8/8 7/7/7 5/5/5
f 11/11/11 10/10/10 9/9/9
f 12/12/12 11/11/11 9/9/9
f 15/15/15 14/14/14 13/13/13
f 16/16/16 15/15/15 13/13/13
f 19/19/19 18/18/18 17/17/17
f 20/20/20 19/19/19 17/17/17
f 23/23/23 22/22/22 21/21/21
f 24/24/24 23/23/23 21/21/21
f 27/27/27 26/26/26 25/25/25
f 28/28/28 27/27/27 25/25/25
f 31/31/31 30/30/30 29/29/29
f 32/32/32 31/31/31 29/29/29
f 35/35/35 34/34/34 33/33/33
f 33/33/33 36/36/36 35/35/35
f 36/36/36 37/37/37 35/35/35
f 36/36/36 38/38/38 37/37/37
f 36/36/36 39/39/39 38/38/38
f 39/39/39 40/40/40 38/38/38
f 43/43/43 42/42/42 41/41/41
f 44/44/44 43/43/43 41/41/41
f 47/47/47 46/46/46 45/45/45
f 48/48/48 47/47/47 45/45/45
f 51/51/51 50/50/50 49/49/49
f 52/52/52 51/51/51 49/49/49
f 55/55/55 54/54/54 53/53/53
f 56/56/56 55/55/55 53/53/53
f 59/59/59 58/58/58 57/57/57
f 60/60/60 59/59/59 57/57/57
f 63/63/63 62/62/62 61/61/61
f 64/64/64 63/63/63 61/61/61
f 67/67/67 66/66/66 65/65/65
f 68/68/68 67/67/67 65/65/65
f 71/71/71 70/70/70 69/69/69
f 72/72/72 71/71/71 69/69/69
f 75/75/75 74/74/74 73/73/73
f 76/76/76 75/75/75 73/73/73
f 79/79/79 78/78/78 77/77/77
f 77/77/77 80/80/80 79/79/79
f 80/80/80 81/81/81 79/79/79
f 80/80/80 82/82/82 81/81/81
f 82/82/82 83/83/83 81/81/81
f 82/82/82 84/84/84 83/83/83
f 87/87/87 86/86/86 85/85/85
f 88/88/88 87/87/87 85/85/85
f 91/91/91 90/90/90 89/89/89
f 92/92/92 91/91/91 89/89/89
f 95/95/95 94/94/94 93/93/93
f 96/96/96 95/95/95 93/93/93
f 99/99/99 98/98/98 97/97/97
f 100/100/100 99/99/99 97/97/97
f 103/103/103 102/102/102 101/101/101
f 104/104/104 103/103/103 101/101/101
f 107/107/107 106/106/106 105/105/105
f 108/108/108 107/107/107 105/105/105
f 111/111/111 110/110/110 109/109/109
f 112/112/112 111/111/111 109/109/109
f 115/115/115 114/114/114 113/113/113
f 116/116/116 115/115/115 113/113/113
f 113/113/113 114/114/114 117/117/117
f 118/118/118 115/115/115 116/116/116
f 114/114/114 119/119/119 117/117/117
f 120/120/120 118/118/118 116/116/116
f 117/117/117 119/119/119 121/121/121
f 122/122/122 118/118/118 120/120/120
f 119/119/119 123/123/123 121/121/121
f 124/124/124 122/122/122 120/120/120
f 121/121/121 123/123/123 125/125/125
f 126/126/126 122/122/122 124/124/124
f 123/123/123 127/127/127 125/125/125
f 128/128/128 126/126/126 124/124/124
f 125/125/125 127/127/127 128/128/128
f 127/127/127 126/126/126 128/128/128
f 131/131/131 130/130/130 129/129/129
f 130/130/130 132/132/132 129/129/129
f 133/133/133 130/130/130 131/131/131
f 129/129/129 132/132/132 134/134/134
f 135/135/135 133/133/133 131/131/131
f 132/132/132 136/136/136 134/134/134
f 137/137/137 133/133/133 135/135/135
f 134/134/134 136/136/136 138/138/138
f 139/139/139 137/137/137 135/135/135
f 136/136/136 140/140/140 138/138/138
f 141/141/141 137/137/137 139/139/139
f 138/138/138 140/140/140 142/142/142
f 143/143/143 141/141/141 139/139/139
f 140/140/140 144/144/144 142/142/142
f 144/144/144 141/141/141 143/143/143
f 142/142/142 144/144/144 143/143/143
