g DCGiantChainStopperCollision
v -0 0.532986 -1.5189787
v 2.6822091E-08 1.4156103E-07 -1.5968448
v 0.16470173 0.50689983 -1.5189787
v 0.16470173 0.50689983 -0.21527195
v -0 0.532986 -0.21527195
v -0.16470098 0.5069 -1.5189787
v 2.6822091E-08 1.4156103E-07 -1.5968448
v 0.3132813 0.43119472 -0.21527195
v 0.3132813 0.43119472 -1.5189787
v 2.6822091E-08 1.4156103E-07 -1.5968448
v -1.3038516E-08 0.47697455 -0.15995014
v 0.14739324 0.4536298 -0.15995014
v -0.14739259 0.45362997 -0.15995014
v 0.28035864 0.3858805 -0.15995014
v -0.16470098 0.5069 -0.21527195
v -0.2803581 0.3858809 -0.15995014
v 0.43119472 0.3132813 -0.21527195
v 0.3858805 0.28035864 -0.15995014
v -0.31328073 0.43119514 -1.5189787
v 2.6822091E-08 1.4156103E-07 -1.5968448
v -0.31328073 0.43119514 -0.21527195
v -0.38588017 0.28035912 -0.15995014
v 0.43119472 0.3132813 -1.5189787
v 2.6822091E-08 1.4156103E-07 -1.5968448
v 0.50689983 0.16470172 -0.21527195
v 0.4536298 0.14739324 -0.15995014
v -0.43119434 0.31328183 -1.5189787
v 2.6822091E-08 1.4156103E-07 -1.5968448
v -0.43119434 0.31328183 -0.21527195
v -0.45362958 0.14739372 -0.15995014
v 0.50689983 0.16470172 -1.5189787
v 2.6822091E-08 1.4156103E-07 -1.5968448
v 0.532986 -2.3297558E-08 -0.21527195
v 0.47697455 1.8626451E-09 -0.15995014
v -0.5068996 0.16470228 -1.5189787
v 2.6822091E-08 1.4156103E-07 -1.5968448
v -0.5068996 0.16470228 -0.21527195
v -0.47697458 4.8521906E-07 -0.15995014
v 0.532986 -2.3297558E-08 -1.5189787
v 2.6822091E-08 1.4156103E-07 -1.5968448
v 0.5068998 -0.16470174 -0.21527195
v 0.45362976 -0.1473932 -0.15995014
v -0.532986 5.146508E-07 -1.5189787
v 2.6822091E-08 1.4156103E-07 -1.5968448
v -0.532986 5.146508E-07 -0.21527195
v -0.4536299 -0.14739284 -0.15995014
v 0.5068998 -0.16470174 -1.5189787
v 2.6822091E-08 1.4156103E-07 -1.5968448
v 0.43119472 -0.31328127 -0.21527195
v 0.38588053 -0.2803586 -0.15995014
v -0.50689995 -0.1647013 -1.5189787
v 2.6822091E-08 1.4156103E-07 -1.5968448
v -0.50689995 -0.1647013 -0.21527195
v -0.3858807 -0.2803584 -0.15995014
v 0.43119472 -0.31328127 -1.5189787
v 2.6822091E-08 1.4156103E-07 -1.5968448
v 0.31328127 -0.43119475 -0.21527195
v 0.28035858 -0.38588056 -0.15995014
v -0.43119496 -0.313281 -1.5189787
v 2.6822091E-08 1.4156103E-07 -1.5968448
v -0.43119496 -0.313281 -0.21527195
v -0.2803589 -0.38588032 -0.15995014
v 0.31328127 -0.43119475 -1.5189787
v 2.6822091E-08 1.4156103E-07 -1.5968448
v 0.16470163 -0.50689983 -0.21527195
v 0.14739318 -0.4536298 -0.15995014
v -0.31328157 -0.43119454 -1.5189787
v 2.6822091E-08 1.4156103E-07 -1.5968448
v -0.31328157 -0.43119454 -0.21527195
v -0.14739345 -0.45362967 -0.15995014
v -0.16470195 -0.5068997 -0.21527195
v -0.16470195 -0.5068997 -1.5189787
v 2.6822091E-08 1.4156103E-07 -1.5968448
v 0.16470163 -0.50689983 -1.5189787
v 2.6822091E-08 1.4156103E-07 -1.5968448
v -1.7366888E-07 -0.532986 -0.21527195
v -1.2759119E-07 -0.47697455 -0.15995014
v -1.7366888E-07 -0.532986 -1.5189787
v 2.6822091E-08 1.4156103E-07 -1.5968448
v -0.16470195 -0.5068997 -0.21527195
v -0.14739345 -0.45362967 -0.15995014
v -0.16470195 -0.5068997 -1.5189787
v 2.6822091E-08 1.4156103E-07 -1.5968448
v 0.4536298 0.14739324 -0.15995014
v 0.47697455 1.8626451E-09 -0.15995014
v 0.45362976 -0.1473932 -0.15995014
v 0.3858805 0.28035864 -0.15995014
v 0.38588053 -0.2803586 -0.15995014
v 0.28035858 -0.38588056 -0.15995014
v 0.28035864 0.3858805 -0.15995014
v 0.14739324 0.4536298 -0.15995014
v 0.14739318 -0.4536298 -0.15995014
v -1.3038516E-08 0.47697455 -0.15995014
v -1.2759119E-07 -0.47697455 -0.15995014
v -0.14739259 0.45362997 -0.15995014
v -0.14739345 -0.45362967 -0.15995014
v -0.2803581 0.3858809 -0.15995014
v -0.2803589 -0.38588032 -0.15995014
v -0.38588017 0.28035912 -0.15995014
v -0.3858807 -0.2803584 -0.15995014
v -0.45362958 0.14739372 -0.15995014
v -0.4536299 -0.14739284 -0.15995014
v -0.47697458 4.8521906E-07 -0.15995014
vt 0.16803375 0.39555496
vt 0.16803375 0.3253035
vt 0.039057083 0.39555496
vt 0.039057076 0.6114131
vt 0.16803375 0.6114131
vt 0.2970096 0.39555496
vt 0.2970096 0.3253035
vt -0.08991948 0.6114131
vt -0.08991948 0.39555454
vt 0.039057083 0.3253035
vt 0.16803375 0.67606306
vt 0.039057076 0.67606306
vt 0.29700994 0.67606306
vt -0.08991966 0.67606306
vt 0.2970096 0.6114131
vt 0.42598653 0.6760638
vt -0.21889627 0.6114131
vt -0.21889645 0.67606306
vt 0.4259864 0.39555496
vt 0.4259864 0.32530382
vt 0.4259864 0.6114131
vt 0.55496323 0.6760638
vt -0.21889627 0.39555454
vt -0.08991948 0.3253035
vt -0.34787297 0.6114131
vt -0.34787297 0.67606306
vt 0.5549631 0.39555496
vt 0.5549631 0.32530382
vt 0.5549631 0.6114131
vt 0.6839402 0.6760638
vt -0.34787297 0.39555454
vt -0.21889627 0.3253035
vt -0.47684956 0.6114124
vt -0.47684968 0.67606306
vt 0.6839397 0.3955553
vt 0.6839397 0.32530382
vt 0.6839397 0.6114131
vt 0.8129165 0.6760638
vt -0.47684956 0.39555454
vt -0.34787297 0.32530308
vt -0.60582614 0.6114124
vt -0.60582614 0.67606306
vt 0.8129163 0.3955553
vt 0.8129163 0.32530382
vt 0.8129163 0.6114131
vt 0.9418936 0.6760638
vt -0.60582614 0.39555454
vt -0.47684956 0.32530308
vt -0.73480296 0.6114124
vt -0.73480296 0.67606306
vt 0.94189334 0.3955553
vt 0.94189334 0.32530382
vt 0.94189334 0.61141396
vt 1.0708699 0.6760638
vt -0.73480296 0.3955542
vt -0.60582614 0.32530308
vt -0.86377954 0.6114124
vt -0.86377954 0.67606306
vt 1.0708699 0.3955553
vt 1.0708699 0.32530424
vt 1.0708699 0.61141396
vt 1.1998467 0.6760638
vt -0.86377954 0.3955542
vt -0.73480296 0.32530308
vt -0.99275637 0.6114124
vt -0.99275637 0.67606306
vt 1.1998467 0.3955553
vt 1.1998467 0.32530424
vt 1.1998467 0.61141396
vt 1.3288236 0.6760638
vt 1.3288236 0.61141396
vt 1.3288236 0.3955557
vt 1.3288236 0.32530382
vt -0.99275637 0.3955542
vt -0.86377954 0.32530308
vt -1.121733 0.6114124
vt -1.121733 0.67606235
vt -1.121733 0.3955542
vt -0.99275637 0.32530275
vt -1.25071 0.6114124
vt -1.25071 0.67606235
vt -1.25071 0.3955538
vt -1.121733 0.32530275
vt 0.9035688 0.3528683
vt 0.947359 0.28548157
vt 0.9473591 0.2146269
vt 0.82027406 0.41019094
vt 0.9035682 0.14724003
vt 0.8202739 0.08991727
vt 0.70562893 0.4518383
vt 0.57085526 0.47373354
vt 0.705629 0.048269767
vt 0.42914596 0.4737336
vt 0.57085526 0.026374273
vt 0.29437247 0.45183843
vt 0.4291459 0.026374035
vt 0.1797268 0.41019103
vt 0.29437232 0.04826918
vt 0.09643183 0.35286838
vt 0.17972693 0.08991642
vt 0.052640922 0.2854812
vt 0.096431784 0.14723921
vt 0.052641056 0.21462612
vn -0 0.7818831 -0.62342507
vn -0 0 -1
vn 0.24159552 0.74361736 -0.62342995
vn 0.28675708 0.88261116 0.37251562
vn -0 0.9280256 0.37251645
vn -0.24159552 0.74361736 -0.62342995
vn -0 0 -1
vn 0.54546654 0.7507986 0.37251523
vn 0.45956987 0.6325571 -0.6234316
vn -0 0 -1
vn -0 0.4113618 0.91147214
vn 0.12711103 0.39122123 0.9114762
vn -0.12711103 0.39122123 0.9114762
vn 0.24177003 0.33280766 0.9114748
vn -0.28675708 0.88261116 0.37251562
vn -0.24177003 0.33280766 0.9114748
vn 0.7507986 0.54546654 0.37251523
vn 0.33280766 0.24177003 0.9114748
vn -0.45956987 0.6325571 -0.6234316
vn -0 0 -1
vn -0.54546654 0.7507986 0.37251523
vn -0.33280766 0.24177003 0.9114748
vn 0.6325571 0.45956987 -0.6234316
vn -0 0 -1
vn 0.88261116 0.28675708 0.37251562
vn 0.39122123 0.12711103 0.9114762
vn -0.6325482 0.45959392 -0.62342286
vn -0 0 -1
vn -0.7507986 0.54546654 0.37251523
vn -0.39122123 0.12711103 0.9114762
vn 0.74361736 0.24159552 -0.62342995
vn -0 0 -1
vn 0.9280256 0 0.37251645
vn 0.4113618 0 0.91147214
vn -0.7436119 0.24162425 -0.62342536
vn -0 0 -1
vn -0.88261116 0.28675708 0.37251562
vn -0.4113618 0 0.91147214
vn 0.7818831 0 -0.62342507
vn -0 0 -1
vn 0.88261116 -0.28675708 0.37251562
vn 0.39122123 -0.12711103 0.9114762
vn -0.7818831 0 -0.62342507
vn -0 0 -1
vn -0.9280256 0 0.37251645
vn -0.39122123 -0.12711103 0.9114762
vn 0.74361736 -0.24159552 -0.62342995
vn -0 0 -1
vn 0.7507986 -0.54546654 0.37251523
vn 0.33280766 -0.24177003 0.9114748
vn -0.74361736 -0.24159552 -0.62342995
vn -0 0 -1
vn -0.88261116 -0.28675708 0.37251562
vn -0.33280766 -0.24177003 0.9114748
vn 0.6325571 -0.45956987 -0.6234316
vn -0 0 -1
vn 0.54546654 -0.7507986 0.37251523
vn 0.24177003 -0.33280766 0.9114748
vn -0.6325571 -0.45956987 -0.6234316
vn -0 0 -1
vn -0.7507986 -0.54546654 0.37251523
vn -0.24177003 -0.33280766 0.9114748
vn 0.45956987 -0.6325571 -0.6234316
vn -0 0 -1
vn 0.28675708 -0.88261116 0.37251562
vn 0.12711103 -0.39122123 0.9114762
vn -0.45956987 -0.6325571 -0.6234316
vn -0 0 -1
vn -0.54546654 -0.7507986 0.37251523
vn -0.12711103 -0.39122123 0.9114762
vn -0.28675708 -0.88261116 0.37251562
vn -0.24159552 -0.74361736 -0.62342995
vn -0 0 -1
vn 0.24159552 -0.74361736 -0.62342995
vn -0 0 -1
vn -0 -0.9280256 0.37251645
vn -0 -0.4113618 0.91147214
vn -0 -0.7818831 -0.62342507
vn -0 0 -1
vn -0.28675708 -0.88261116 0.37251562
vn -0.12711103 -0.39122123 0.9114762
vn -0.24159552 -0.74361736 -0.62342995
vn -0 0 -1
vn 0.39122123 0.12711103 0.9114762
vn 0.4113618 0 0.91147214
vn 0.39122123 -0.12711103 0.9114762
vn 0.33280766 0.24177003 0.9114748
vn 0.33280766 -0.24177003 0.9114748
vn 0.24177003 -0.33280766 0.9114748
vn 0.24177003 0.33280766 0.9114748
vn 0.12711103 0.39122123 0.9114762
vn 0.12711103 -0.39122123 0.9114762
vn -0 0.4113618 0.91147214
vn -0 -0.4113618 0.91147214
vn -0.12711103 0.39122123 0.9114762
vn -0.12711103 -0.39122123 0.9114762
vn -0.24177003 0.33280766 0.9114748
vn -0.24177003 -0.33280766 0.9114748
vn -0.33280766 0.24177003 0.9114748
vn -0.33280766 -0.24177003 0.9114748
vn -0.39122123 0.12711103 0.9114762
vn -0.39122123 -0.12711103 0.9114762
vn -0.4113618 0 0.91147214
g DCGiantChainStopperCollision_0
f 3/3/3 2/2/2 1/1/1
f 4/4/4 3/3/3 1/1/1
f 5/5/5 4/4/4 1/1/1
f 5/5/5 1/1/1 6/6/6
f 1/1/1 7/7/7 6/6/6
f 4/4/4 8/8/8 3/3/3
f 8/8/8 9/9/9 3/3/3
f 9/9/9 10/10/10 3/3/3
f 5/5/5 11/11/11 4/4/4
f 11/11/11 12/12/12 4/4/4
f 4/4/4 12/12/12 8/8/8
f 13/13/13 11/11/11 5/5/5
f 12/12/12 14/14/14 8/8/8
f 15/15/15 13/13/13 5/5/5
f 15/15/15 5/5/5 6/6/6
f 16/16/16 13/13/13 15/15/15
f 8/8/8 14/14/14 17/17/17
f 8/8/8 17/17/17 9/9/9
f 14/14/14 18/18/18 17/17/17
f 15/15/15 6/6/6 19/19/19
f 6/6/6 20/20/20 19/19/19
f 21/21/21 16/16/16 15/15/15
f 21/21/21 15/15/15 19/19/19
f 22/22/22 16/16/16 21/21/21
f 17/17/17 23/23/23 9/9/9
f 23/23/23 24/24/24 9/9/9
f 17/17/17 18/18/18 25/25/25
f 17/17/17 25/25/25 23/23/23
f 18/18/18 26/26/26 25/25/25
f 21/21/21 19/19/19 27/27/27
f 19/19/19 28/28/28 27/27/27
f 29/29/29 22/22/22 21/21/21
f 29/29/29 21/21/21 27/27/27
f 30/30/30 22/22/22 29/29/29
f 25/25/25 31/31/31 23/23/23
f 31/31/31 32/32/32 23/23/23
f 25/25/25 26/26/26 33/33/33
f 25/25/25 33/33/33 31/31/31
f 26/26/26 34/34/34 33/33/33
f 29/29/29 27/27/27 35/35/35
f 27/27/27 36/36/36 35/35/35
f 37/37/37 30/30/30 29/29/29
f 37/37/37 29/29/29 35/35/35
f 38/38/38 30/30/30 37/37/37
f 33/33/33 39/39/39 31/31/31
f 39/39/39 40/40/40 31/31/31
f 33/33/33 34/34/34 41/41/41
f 33/33/33 41/41/41 39/39/39
f 34/34/34 42/42/42 41/41/41
f 37/37/37 35/35/35 43/43/43
f 35/35/35 44/44/44 43/43/43
f 45/45/45 38/38/38 37/37/37
f 45/45/45 37/37/37 43/43/43
f 46/46/46 38/38/38 45/45/45
f 41/41/41 47/47/47 39/39/39
f 47/47/47 48/48/48 39/39/39
f 41/41/41 42/42/42 49/49/49
f 41/41/41 49/49/49 47/47/47
f 42/42/42 50/50/50 49/49/49
f 45/45/45 43/43/43 51/51/51
f 43/43/43 52/52/52 51/51/51
f 53/53/53 46/46/46 45/45/45
f 53/53/53 45/45/45 51/51/51
f 54/54/54 46/46/46 53/53/53
f 49/49/49 55/55/55 47/47/47
f 55/55/55 56/56/56 47/47/47
f 49/49/49 50/50/50 57/57/57
f 49/49/49 57/57/57 55/55/55
f 50/50/50 58/58/58 57/57/57
f 53/53/53 51/51/51 59/59/59
f 51/51/51 60/60/60 59/59/59
f 61/61/61 54/54/54 53/53/53
f 61/61/61 53/53/53 59/59/59
f 62/62/62 54/54/54 61/61/61
f 57/57/57 63/63/63 55/55/55
f 63/63/63 64/64/64 55/55/55
f 57/57/57 58/58/58 65/65/65
f 57/57/57 65/65/65 63/63/63
f 58/58/58 66/66/66 65/65/65
f 61/61/61 59/59/59 67/67/67
f 59/59/59 68/68/68 67/67/67
f 69/69/69 62/62/62 61/61/61
f 69/69/69 61/61/61 67/67/67
f 70/70/70 62/62/62 69/69/69
f 71/71/71 70/70/70 69/69/69
f 71/71/71 69/69/69 72/72/72
f 69/69/69 67/67/67 72/72/72
f 67/67/67 73/73/73 72/72/72
f 65/65/65 74/74/74 63/63/63
f 74/74/74 75/75/75 63/63/63
f 65/65/65 66/66/66 76/76/76
f 65/65/65 76/76/76 74/74/74
f 66/66/66 77/77/77 76/76/76
f 76/76/76 78/78/78 74/74/74
f 78/78/78 79/79/79 74/74/74
f 76/76/76 77/77/77 80/80/80
f 76/76/76 80/80/80 78/78/78
f 77/77/77 81/81/81 80/80/80
f 80/80/80 82/82/82 78/78/78
f 82/82/82 83/83/83 78/78/78
f 86/86/86 85/85/85 84/84/84
f 84/84/84 87/87/87 86/86/86
f 87/87/87 88/88/88 86/86/86
f 87/87/87 89/89/89 88/88/88
f 87/87/87 90/90/90 89/89/89
f 90/90/90 91/91/91 89/89/89
f 91/91/91 92/92/92 89/89/89
f 91/91/91 93/93/93 92/92/92
f 93/93/93 94/94/94 92/92/92
f 93/93/93 95/95/95 94/94/94
f 95/95/95 96/96/96 94/94/94
f 95/95/95 97/97/97 96/96/96
f 97/97/97 98/98/98 96/96/96
f 97/97/97 99/99/99 98/98/98
f 99/99/99 100/100/100 98/98/98
f 99/99/99 101/101/101 100/100/100
f 101/101/101 102/102/102 100/100/100
f 101/101/101 103/103/103 102/102/102
