g Decal.003
v 128.62419 -111.725204 16.46496
v 127.07835 -111.724754 16.450886
v 126.49186 -111.549164 -13.910757
v 128.124 -111.54964 -13.895899
v 127.07835 -111.724754 16.450886
v 126.65797 -112.144714 16.459398
v 126.07147 -111.96912 -13.902155
v 126.49186 -111.549164 -13.910757
v 126.607735 -162.43979 17.947083
v 126.02003 -164.40924 -12.351012
v 126.0268 -151.1631 -12.742881
v 126.61443 -150.43896 17.59206
v 129.65863 -139.84485 -0.9851117
v 129.66084 -135.8581 -1.1030517
v 129.93932 -135.41176 17.335922
v 129.9372 -139.20073 17.448011
v 126.06345 -125.2193 -13.510178
v 126.07147 -111.96912 -13.902155
v 126.65797 -112.144714 16.459398
v 126.651276 -124.14555 16.814423
v 127.02764 -162.85999 17.963428
v 126.43996 -164.82944 -12.334761
v 126.02003 -164.40924 -12.351012
v 126.607735 -162.43979 17.947083
v 129.71938 -140.2877 -31.642494
v 129.72131 -136.80798 -31.745428
v 129.84375 -136.52306 -25.027937
v 129.8417 -140.17517 -24.919895
v 127.02764 -162.85999 17.963428
v 128.57347 -162.86044 17.9775
v 128.07208 -164.8299 -12.319902
v 126.43996 -164.82944 -12.334761
v 129.85535 -132.97374 -32.27918
v 129.84886 -144.56662 -31.936232
v 129.59996 -144.84935 -45.612366
v 129.6063 -133.49968 -45.948124
vt 0.43768236 0.97616035
vt 0.38844597 0.97616035
vt 0.36538586 0.21412927
vt 0.41692826 0.21412927
vt 0.38844445 0.9764033
vt 0.32083145 0.9762216
vt 0.34950542 0.21412927
vt 0.36538586 0.21412927
vt 0.32083085 0.9762216
vt 0.34950393 0.2143721
vt -0.0046188906 0.21437153
vt 0 0.9762216
vt 0.014208645 0.031575453
vt 0.014208645 0.17028444
vt 0.9931848 0.17028444
vt 0.9931848 0.031575453
vt -0.0047264583 0.21437176
vt 0.3495045 0.21437235
vt 0.32083145 0.9762216
vt 0 0.9762216
vt 0.38844445 0.9764033
vt 0.36538467 0.2143721
vt 0.34950393 0.2143721
vt 0.32083145 0.9762216
vt 0.432592 0.035169348
vt 0.43259275 0.16908647
vt 0.8923087 0.16908647
vt 0.8923087 0.035169348
vt 0.38844445 0.9764033
vt 0.43768087 0.9764033
vt 0.41692707 0.2143721
vt 0.36538467 0.2143721
vt 0.43109012 0.96380395
vt 1.004811 0.9638037
vt 0.9987922 0.2312302
vt 0.43710792 0.2312302
vn 0.00023787259 0.9999833 0.005778938
vn 0.00023787259 0.9999833 0.005778938
vn 0.00023787259 0.9999833 0.005778938
vn 0.00023787259 0.9999833 0.005778938
vn -0.70644784 0.7075428 0.017737694
vn -0.70644784 0.7075428 0.017737694
vn -0.70644784 0.7075428 0.017737694
vn -0.70644784 0.7075428 0.017737694
vn -0.99981254 0.0011055586 0.019331723
vn -0.99981254 0.0011055586 0.019331723
vn -0.99981254 0.0011055586 0.019331723
vn -0.99981254 0.0011055586 0.019331723
vn -0.9998858 0.0010072183 0.015075947
vn -0.9998858 0.0010072183 0.015075947
vn -0.9998858 0.0010072183 0.015075947
vn -0.9998858 0.0010072183 0.015075947
vn -0.99981254 0.0011546697 0.01932993
vn -0.99981254 0.0011546697 0.01932993
vn -0.99981254 0.0011546697 0.01932993
vn -0.99981254 0.0011546697 0.01932993
vn -0.7072503 -0.70445406 0.05951123
vn -0.7072503 -0.70445406 0.05951123
vn -0.7072503 -0.70445406 0.05951123
vn -0.7072503 -0.70445406 0.05951123
vn -0.9998342 0.0010940899 0.01817613
vn -0.9998342 0.0010940899 0.01817613
vn -0.9998342 0.0010940899 0.01817613
vn -0.9998342 0.0010940899 0.01817613
vn -0.00087812706 -0.99789256 0.0648817
vn -0.00087812706 -0.99789256 0.0648817
vn -0.00087812706 -0.99789256 0.0648817
vn -0.00087812706 -0.99789256 0.0648817
vn -0.9998342 0.0010962671 0.018174587
vn -0.9998342 0.0010962671 0.018174587
vn -0.9998342 0.0010962671 0.018174587
vn -0.9998342 0.0010962671 0.018174587
g Decal.003_0
f 3/3/3 2/2/2 1/1/1
f 4/4/4 3/3/3 1/1/1
f 7/7/7 6/6/6 5/5/5
f 8/8/8 7/7/7 5/5/5
f 11/11/11 10/10/10 9/9/9
f 12/12/12 11/11/11 9/9/9
f 15/15/15 14/14/14 13/13/13
f 16/16/16 15/15/15 13/13/13
f 19/19/19 18/18/18 17/17/17
f 20/20/20 19/19/19 17/17/17
f 23/23/23 22/22/22 21/21/21
f 24/24/24 23/23/23 21/21/21
f 27/27/27 26/26/26 25/25/25
f 28/28/28 27/27/27 25/25/25
f 31/31/31 30/30/30 29/29/29
f 32/32/32 31/31/31 29/29/29
g Decal.003_1
f 35/35/35 34/34/34 33/33/33
f 36/36/36 35/35/35 33/33/33
