g Decal
v 25.55654 -0.84436035 24.500206
v 25.55654 0.7015381 24.500206
v 26.629528 1.5644836 -5.836378
v 26.629526 -0.06777954 -5.836378
v 25.55654 0.7015381 24.500206
v 25.13628 1.1217041 24.500114
v 26.209269 1.9846191 -5.836378
v 26.629528 1.5644836 -5.836378
v -2.0342245 -1.7279968 6.217472
v 1.9542708 -1.7279968 6.217472
v 1.8553457 -2.1741943 24.658287
v -1.9352987 -2.1741943 24.658287
v 12.953297 1.98526 -5.836378
v 26.209269 1.9846191 -5.836378
v 25.13628 1.1217041 24.500114
v 13.130198 1.1217041 24.500114
v -1.5705681 -1.0036926 -24.434282
v 1.9106598 -1.0036926 -24.43428
v 1.9969025 -1.1871948 -17.712687
v -1.6568117 -1.1871948 -17.712687
v 5.7589965 -0.9683838 -24.85411
v -5.838949 -0.9683838 -24.854115
v -5.71729 -0.5950012 -38.5298
v 5.637337 -0.5950012 -38.529797
vt 0.43768236 0.97616035
vt 0.38844597 0.97616035
vt 0.36538586 0.21412927
vt 0.41692826 0.21412927
vt 0.38844445 0.9764033
vt 0.32083145 0.9762216
vt 0.34950542 0.21412927
vt 0.36538586 0.21412927
vt 0.014208645 0.031575453
vt 0.014208645 0.17028444
vt 0.9931848 0.17028444
vt 0.9931848 0.031575453
vt -0.0047264583 0.21437176
vt 0.3495045 0.21437235
vt 0.32083145 0.9762216
vt 0 0.9762216
vt 0.432592 0.035169348
vt 0.43259275 0.16908647
vt 0.8923087 0.16908647
vt 0.8923087 0.035169348
vt 0.43109012 0.96380395
vt 1.004811 0.9638037
vt 0.9987922 0.2312302
vt 0.43710792 0.2312302
vn 0.99937516 0 0.035347316
vn 0.99937516 0 0.035347316
vn 0.99937516 0 0.035347316
vn 0.99937516 0 0.035347316
vn 0.70629585 0.7064802 0.045077432
vn 0.70629585 0.7064802 0.045077432
vn 0.70629585 0.7064802 0.045077432
vn 0.70629585 0.7064802 0.045077432
vn -0 0.9997074 0.024189103
vn -0 0.9997074 0.024189103
vn -0 0.9997074 0.024189103
vn -0 0.9997074 0.024189103
vn 2.5358428E-05 0.99959546 0.02844421
vn 2.5358428E-05 0.99959546 0.02844421
vn 2.5358428E-05 0.99959546 0.02844421
vn 2.5358428E-05 0.99959546 0.02844421
vn -0 0.9996276 0.027290221
vn -0 0.9996276 0.027290221
vn -0 0.9996276 0.027290221
vn -0 0.9996276 0.027290221
vn -0 0.9996275 0.02729249
vn -0 0.9996275 0.02729249
vn -0 0.9996275 0.02729249
vn -0 0.9996275 0.02729249
g Decal_0
f 3/3/3 2/2/2 1/1/1
f 4/4/4 3/3/3 1/1/1
f 7/7/7 6/6/6 5/5/5
f 8/8/8 7/7/7 5/5/5
f 11/11/11 10/10/10 9/9/9
f 12/12/12 11/11/11 9/9/9
f 15/15/15 14/14/14 13/13/13
f 16/16/16 15/15/15 13/13/13
f 19/19/19 18/18/18 17/17/17
f 20/20/20 19/19/19 17/17/17
g Decal_1
f 23/23/23 22/22/22 21/21/21
f 24/24/24 23/23/23 21/21/21
