g DiamondMesh
v 1.095343 0.8728467 -0.971351
v 0.8560919 1.0743172 -0.9861201
v 1.4901161E-08 -1.4901161E-08 -1.740749
v -0.89048547 -0.7317981 -1.1152483
v -0.89222914 -1.0857053 -0.9781207
v 1.4901161E-08 -1.4901161E-08 -1.740749
v 0.6783657 0.85128695 1.6530613
v 0.9578703 0.7632989 1.5781941
v -0 0 2.251028
v -0 0 2.251028
v 0.992141 -0.79060817 1.5541216
v 0.7024985 -0.8815714 1.6317886
v 1.4901161E-08 -1.4901161E-08 -1.740749
v -0.77229804 0.96916354 -1.0599828
v -0.8616006 0.6865843 -1.1355379
v -1.1845651 -0.97347176 -0.38585103
v -1.106743 -1.0512938 -0.6747186
v -1.1845651 -0.765661 -0.6685003
v 0.09080756 1.1845651 1.4189578
v 0.6783657 0.85128695 1.6530613
v -0 0 2.251028
v -0.9439453 1.1845651 1.4189577
v 0.82387704 -1.1845651 1.2596674
v 0.992141 -0.79060817 1.5541216
v 1.0850108 -0.80195624 1.4888874
v 0.7024985 -0.8815714 1.6317886
v 0.5496094 -1.1845651 1.4189577
v 0.7516226 -0.94321775 -1.0782077
v 1.0060792 -1.1224312 -0.36018395
v 0.8783724 -0.9346183 -1.0320208
v -0.27983677 -1.1845651 -0.9086789
v 0.9439452 -1.1845651 -0.1984961
v 0.9578703 0.7632989 1.5781941
v 1.1845651 0.9439453 0.8522788
v 1.1845651 0.7292578 1.4189577
v 0.6783657 0.85128695 1.6530613
v 0.09080756 1.1845651 1.4189578
v 0.9439453 1.1845651 0.48154032
v 1.1845651 0.9439452 -0.74738896
v 1.1845651 0.9439453 0.8522788
v 0.9439453 1.1845651 0.48154032
v 0.9439452 1.1845651 -0.7054794
v 0.8560919 1.0743172 -0.9861201
v 0.9439452 1.1845651 -0.7054794
v 0.7899736 1.1845651 -0.908679
v 1.1845651 0.9439452 -0.74738896
v 1.095343 0.8728467 -0.971351
v 1.1845651 0.83597916 -0.908679
v 0.8560919 1.0743172 -0.9861201
v -0.77229804 0.96916354 -1.0599828
v 1.4901161E-08 -1.4901161E-08 -1.740749
v 0.7899736 1.1845651 -0.908679
v -0.76130223 1.1845651 -0.908679
v 0.5496094 -1.1845651 1.4189577
v -0.97347176 -1.1845651 1.4189578
v -0 0 2.251028
v 0.7024985 -0.8815714 1.6317886
v -1.1150765 0.055155754 1.4677684
v -0.90068614 0.71773046 1.618362
v -0 0 2.251028
v -1.0393218 -0.85411125 1.5209806
v -0.97347176 -1.1845651 1.4189578
v -1.072598 -1.085439 1.4189578
v -1.0393218 -0.85411125 1.5209806
v -0 0 2.251028
v -1.1150765 0.055155754 1.4677684
v -1.1845651 -0.97347176 1.1866922
v -1.1845651 0.24893045 1.3391186
v -1.0393218 -0.85411125 1.5209806
v -1.072598 -1.085439 1.4189578
v -0.9439453 1.1845651 1.4189577
v -0 0 2.251028
v -0.90068614 0.71773046 1.618362
v -0.99044204 1.1380683 1.4189577
v -0.8616006 0.6865843 -1.1355379
v -1.1845651 0.9439452 -0.4029373
v -1.1845651 0.30070424 -0.908679
v -0.9439452 1.1845651 -0.6088098
v -0.77229804 0.96916354 -1.0599828
v -0.76130223 1.1845651 -0.908679
v -0.9439452 1.1845651 -0.6088098
v -1.1845651 0.9439453 1.2032918
v -1.1845651 0.9439452 -0.4029373
v -0.9439453 1.1845651 1.4189577
v -0.99044204 1.1380683 1.4189577
v 1.0060792 -1.1224312 -0.36018395
v 0.9384118 -0.7477929 -1.0815836
v 0.8783724 -0.9346183 -1.0320208
v 1.1845651 -0.26500398 -0.908679
v 1.1845651 -0.9439452 -0.0069134235
v 0.9439452 -1.1845651 -0.1984961
v 1.1845651 -0.9439452 -0.0069134235
v 1.0060792 -1.1224312 -0.36018395
v 0.9439453 -1.1845651 0.8990096
v 1.1845651 -0.9439453 0.8136915
v 0.82387704 -1.1845651 1.2596674
v 1.0850108 -0.80195624 1.4888874
v 1.1845651 -0.7154738 1.4189578
v 0.9384118 -0.7477929 -1.0815836
v 1.4901161E-08 -1.4901161E-08 -1.740749
v 0.7516226 -0.94321775 -1.0782077
v 0.8783724 -0.9346183 -1.0320208
v -0.89222914 -1.0857053 -0.9781207
v -0.97347176 -1.1845651 -0.82067215
v -0.91382074 -1.1845651 -0.9086789
v -1.106743 -1.0512938 -0.6747186
v -1.1845651 -0.765661 -0.6685003
v -0.89048547 -0.7317981 -1.1152483
v -1.1845651 -0.13394207 -0.908679
v -1.1150765 0.055155754 1.4677684
v -1.1845651 0.24893045 1.3391186
v -0.90068614 0.71773046 1.618362
v -1.1845651 0.9439453 1.2032918
v -0.99044204 1.1380683 1.4189577
v 1.095343 0.8728467 -0.971351
v 1.1845651 -0.26500398 -0.908679
v 1.1845651 0.83597916 -0.908679
v 1.4901161E-08 -1.4901161E-08 -1.740749
v 0.9384118 -0.7477929 -1.0815836
v -0.89048547 -0.7317981 -1.1152483
v 1.4901161E-08 -1.4901161E-08 -1.740749
v -1.1845651 -0.13394207 -0.908679
v -0.8616006 0.6865843 -1.1355379
v -1.1845651 0.30070424 -0.908679
v -1.106743 -1.0512938 -0.6747186
v -1.1845651 -0.97347176 -0.38585103
v -0.97347176 -1.1845651 -0.82067215
v -0.97347176 -1.1845651 1.4189578
v -1.1845651 -0.97347176 1.1866922
v -1.072598 -1.085439 1.4189578
v -1.1845651 -0.765661 -0.6685003
v -1.1845651 -0.13394207 -0.908679
v -1.1845651 -0.97347176 -0.38585103
v -1.1845651 0.24893045 1.3391186
v -1.1845651 -0.97347176 1.1866922
v -1.1845651 0.9439452 -0.4029373
v -1.1845651 0.9439453 1.2032918
v -1.1845651 0.30070424 -0.908679
v 0.7516226 -0.94321775 -1.0782077
v 1.4901161E-08 -1.4901161E-08 -1.740749
v -0.27983677 -1.1845651 -0.9086789
v -0.89222914 -1.0857053 -0.9781207
v -0.91382074 -1.1845651 -0.9086789
v -0.27983677 -1.1845651 -0.9086789
v 0.9439453 -1.1845651 0.8990096
v 0.9439452 -1.1845651 -0.1984961
v -0.97347176 -1.1845651 1.4189578
v -0.97347176 -1.1845651 -0.82067215
v -0.91382074 -1.1845651 -0.9086789
v 0.5496094 -1.1845651 1.4189577
v 0.82387704 -1.1845651 1.2596674
v 1.1845651 0.83597916 -0.908679
v 1.1845651 -0.26500398 -0.908679
v 1.1845651 0.9439452 -0.74738896
v 1.1845651 0.9439453 0.8522788
v 1.1845651 -0.9439452 -0.0069134235
v 1.1845651 -0.9439453 0.8136915
v 1.1845651 -0.7154738 1.4189578
v 1.1845651 0.7292578 1.4189577
v 1.0850108 -0.80195624 1.4888874
v 0.992141 -0.79060817 1.5541216
v 1.1845651 -0.7154738 1.4189578
v 0.9578703 0.7632989 1.5781941
v 1.1845651 0.7292578 1.4189577
v -0 0 2.251028
v -0.76130223 1.1845651 -0.908679
v 0.7899736 1.1845651 -0.908679
v -0.9439452 1.1845651 -0.6088098
v 0.9439452 1.1845651 -0.7054794
v 0.9439453 1.1845651 0.48154032
v 0.09080756 1.1845651 1.4189578
v -0.9439453 1.1845651 1.4189577
vt 0.9059539 0.27581626
vt 0.89798236 0.23572083
vt 0.6973288 0.27581626
vt 0.101254165 0.9376168
vt 0.06121383 0.9668079
vt 0.26995406 0.9668079
vt 0.22021154 0.99952656
vt 0.24365526 0.9677551
vt 0.06121383 0.9677551
vt 0.3039848 0.9703894
vt 0.49295372 0.9703894
vt 0.46863896 0.9374877
vt 0.5552579 0.9749634
vt 0.73985004 0.9749634
vt 0.7161816 0.94280696
vt 0.16339336 0.837097
vt 0.16339335 0.7967398
vt 0.12688227 0.80944407
vt 0.8570035 0.15230435
vt 0.8922144 0.065866075
vt 0.743845 0.00047355687
vt 0.743845 0.22609249
vt 0.84793866 0.43428177
vt 0.8476282 0.5021462
vt 0.86238986 0.50019133
vt 0.8098367 0.48647654
vt 0.8065311 0.43428177
vt 0.4093457 0.7746827
vt 0.48512894 0.8432044
vt 0.42668444 0.7713947
vt 0.3039848 0.86696106
vt 0.48870802 0.86696106
vt 0.76961535 0.85719013
vt 0.81769687 0.76717997
vt 0.7605549 0.8218949
vt 0.7930346 0.8889797
vt 0.8817409 0.9180066
vt 0.881741 0.7525277
vt 0.89316154 0.00047355687
vt 0.89316154 0.20931612
vt 0.9375874 0.1609148
vt 0.9375874 0.005944986
vt 0.82191044 0.54407614
vt 0.8231413 0.50309324
vt 0.8065311 0.5319365
vt 0.86709744 0.5115459
vt 0.8627905 0.54407614
vt 0.8751734 0.53556377
vt 0.57694614 0.10929113
vt 0.37870595 0.030692115
vt 0.4010993 0.21392109
vt 0.5769461 0.089697905
vt 0.39513487 0.00047355687
vt 0.7428978 0.11143483
vt 0.5778933 0.00047355687
vt 0.5778933 0.22822085
vt 0.7324856 0.1626872
vt 0.648092 0.923263
vt 0.73923266 0.94185984
vt 0.73923266 0.77031004
vt 0.5552579 0.8482993
vt 0.3039848 0.8679082
vt 0.30555075 0.8861428
vt 0.33483556 0.9019783
vt 0.5317321 0.8679082
vt 0.6694839 0.23572083
vt 0.53877187 0.28447878
vt 0.6963817 0.25248092
vt 0.5501621 0.23572098
vt 0.5212523 0.25223115
vt 0.5296037 0.9029255
vt 0.3039848 0.9029255
vt 0.47220892 0.9365406
vt 0.5287585 0.9114685
vt 0.052015983 0.8980315
vt 0.094377205 0.7967398
vt 0.00047355687 0.84766936
vt 0.12593515 0.83797264
vt 0.09194381 0.8980315
vt 0.123226136 0.8837316
vt 0.50809354 0.59079707
vt 0.55251944 0.8273736
vt 0.5525194 0.61767447
vt 0.50809354 0.85552967
vt 0.51667833 0.85552967
vt 0.8436539 0.41050515
vt 0.8239837 0.30584615
vt 0.8065311 0.32568604
vt 0.89553744 0.28596827
vt 0.89553744 0.43333462
vt 0.22868232 0.636715
vt 0.2699541 0.6666464
vt 0.2424944 0.6170575
vt 0.21228558 0.7790571
vt 0.25769424 0.7730755
vt 0.19606967 0.8259589
vt 0.25186798 0.8638992
vt 0.269954 0.8566431
vt 0.9178906 0.9312629
vt 0.9178906 0.7525277
vt 0.88268816 0.9286955
vt 0.89389527 0.94232804
vt 0.39022455 0.26194873
vt 0.38099393 0.23712131
vt 0.37870595 0.2508116
vt 0.40275025 0.2148682
vt 0.44140851 0.2148682
vt 0.43435788 0.28447878
vt 0.52030516 0.25436968
vt 0.13493174 0.86484635
vt 0.15217762 0.89143515
vt 0.22795044 0.86484635
vt 0.23280919 0.9366697
vt 0.26995406 0.91025746
vt 0.19137911 0.7011974
vt 0.07472128 0.79426116
vt 0.19512255 0.71575016
vt 0.00047355687 0.6170575
vt 0.00047356472 0.79579264
vt 0.7605549 0.58037376
vt 0.7605549 0.75158066
vt 0.8515062 0.58499575
vt 0.9116452 0.68753165
vt 0.8985941 0.61666113
vt 0.9108529 0.30502304
vt 0.8964846 0.34273583
vt 0.9354589 0.28596827
vt 0.935459 0.5783603
vt 0.89648473 0.5480372
vt 0.91715735 0.5783603
vt 0.7784536 0.31732458
vt 0.6959802 0.2859683
vt 0.80558395 0.3542255
vt 0.64599466 0.57942665
vt 0.80558383 0.559527
vt 0.555258 0.35199472
vt 0.5552579 0.56169397
vt 0.63923556 0.28596827
vt 0.5071464 0.7704476
vt 0.5071464 0.59079707
vt 0.37331602 0.7291482
vt 0.31496108 0.67226684
vt 0.3039848 0.68393886
vt 0.39454144 0.2859683
vt 0.55431074 0.5219688
vt 0.55431074 0.37868524
vt 0.3039848 0.58984995
vt 0.3039848 0.29745787
vt 0.31177244 0.28596827
vt 0.5028287 0.58984995
vt 0.5386354 0.569054
vt 0.29728684 0.33672935
vt 0.16281085 0.28596827
vt 0.30303767 0.36140737
vt 0.22928466 0.5567935
vt 0.038307734 0.36480874
vt 0.00047358824 0.46503884
vt 0.00047355687 0.54950076
vt 0.17693554 0.61611044
vt 0.5552579 0.596257
vt 0.5567394 0.6110736
vt 0.56654847 0.58037376
vt 0.7596078 0.6165414
vt 0.7551636 0.5803738
vt 0.65995616 0.7693629
vt 0.105823636 0.00047355687
vt 0.00047355687 0.17344081
vt 0.15166274 0.00047355687
vt 0.012673828 0.20440832
vt 0.14502653 0.28502116
vt 0.30748677 0.2535581
vt 0.37775883 0.13818313
vn 0.56952214 0.37941688 -0.72916895
vn 0.34669873 0.5900898 -0.729105
vn 0.00027467497 0.00027467497 -1
vn -0.5988142 -0.21543391 -0.7713688
vn -0.45306593 -0.42739877 -0.7823437
vn 0.00027467497 0.00027467497 -1
vn 0.28215215 0.66993207 0.68671775
vn 0.5082149 0.50812334 0.69536203
vn 0.00027467497 0.00027467497 1
vn 0.00027467497 0.00027467497 1
vn 0.48522356 -0.34550703 0.80323285
vn 0.24180037 -0.5399994 0.80618435
vn 0.00027467497 0.00027467497 -1
vn -0.43950814 0.49874607 -0.7470509
vn -0.6116356 0.2699425 -0.7436618
vn -0.92444706 -0.38014305 -0.029816935
vn -0.84974563 -0.45693323 -0.26295328
vn -0.9511362 -0.13568912 -0.27736002
vn 0.08304285 0.88698065 0.45427886
vn 0.28215215 0.66993207 0.68671775
vn 0.00027467497 0.00027467497 1
vn -0.3512121 0.81714493 0.45708236
vn 0.37202972 -0.8790156 0.29820365
vn 0.48522356 -0.34550703 0.80323285
vn 0.64326257 -0.4293199 0.6339541
vn 0.24180037 -0.5399994 0.80618435
vn 0.10580878 -0.8717704 0.4783522
vn 0.2173275 -0.70517755 -0.6749025
vn 0.6144102 -0.7457033 -0.25773367
vn 0.54309636 -0.6439331 -0.53888464
vn 0.022157092 -0.88790125 -0.45950025
vn 0.36922216 -0.92644304 -0.07333781
vn 0.5082149 0.50812334 0.69536203
vn 0.8239217 0.5416513 0.16663378
vn 0.79902583 0.39611003 0.45238757
vn 0.28215215 0.66993207 0.68671775
vn 0.08304285 0.88698065 0.45427886
vn 0.38160822 0.92106014 0.07760954
vn 0.88007516 0.44295213 -0.17105874
vn 0.8239217 0.5416513 0.16663378
vn 0.38160822 0.92106014 0.07760954
vn 0.41881663 0.89494854 -0.15381737
vn 0.34669873 0.5900898 -0.729105
vn 0.41881663 0.89494854 -0.15381737
vn 0.19373897 0.86483634 -0.46316674
vn 0.88007516 0.44295213 -0.17105874
vn 0.56952214 0.37941688 -0.72916895
vn 0.85078007 0.24247399 -0.46623978
vn 0.34669873 0.5900898 -0.729105
vn -0.43950814 0.49874607 -0.7470509
vn 0.00027467497 0.00027467497 -1
vn 0.19373897 0.86483634 -0.46316674
vn -0.3422354 0.8041952 -0.48594743
vn 0.10580878 -0.8717704 0.4783522
vn -0.35145807 -0.81623363 0.45851913
vn 0.00027467497 0.00027467497 1
vn 0.24180037 -0.5399994 0.80618435
vn -0.77138376 -0.002594169 0.63636494
vn -0.58161 0.19022803 0.79091275
vn 0.00027467497 0.00027467497 1
vn -0.6703773 -0.1697154 0.72235096
vn -0.35145807 -0.81623363 0.45851913
vn -0.73105997 -0.4620321 0.50207347
vn -0.6703773 -0.1697154 0.72235096
vn 0.00027467497 0.00027467497 1
vn -0.77138376 -0.002594169 0.63636494
vn -0.93036467 -0.33952132 0.1383721
vn -0.9452426 0.046236683 0.3230769
vn -0.6703773 -0.1697154 0.72235096
vn -0.73105997 -0.4620321 0.50207347
vn -0.3512121 0.81714493 0.45708236
vn 0.00027467497 0.00027467497 1
vn -0.58161 0.19022803 0.79091275
vn -0.6907805 0.5052824 0.5172156
vn -0.6116356 0.2699425 -0.7436618
vn -0.9112172 0.38417795 -0.14862938
vn -0.8822561 0.087896 -0.46249166
vn -0.51552874 0.82603014 -0.22782513
vn -0.43950814 0.49874607 -0.7470509
vn -0.3422354 0.8041952 -0.48594743
vn -0.51552874 0.82603014 -0.22782513
vn -0.9141527 0.33711916 0.22511235
vn -0.9112172 0.38417795 -0.14862938
vn -0.3512121 0.81714493 0.45708236
vn -0.6907805 0.5052824 0.5172156
vn 0.6144102 -0.7457033 -0.25773367
vn 0.6908937 -0.28678894 -0.6636401
vn 0.54309636 -0.6439331 -0.53888464
vn 0.88864535 -0.085208386 -0.45060953
vn 0.9226916 -0.38170555 -0.054232888
vn 0.36922216 -0.92644304 -0.07333781
vn 0.9226916 -0.38170555 -0.054232888
vn 0.6144102 -0.7457033 -0.25773367
vn 0.429225 -0.89894927 0.08749915
vn 0.9128905 -0.4026399 0.06717277
vn 0.37202972 -0.8790156 0.29820365
vn 0.64326257 -0.4293199 0.6339541
vn 0.87335753 -0.22477123 0.4321162
vn 0.6908937 -0.28678894 -0.6636401
vn 0.00027467497 0.00027467497 -1
vn 0.2173275 -0.70517755 -0.6749025
vn 0.54309636 -0.6439331 -0.53888464
vn -0.45306593 -0.42739877 -0.7823437
vn -0.5616767 -0.7750064 -0.2896279
vn -0.39110678 -0.76033115 -0.51858664
vn -0.84974563 -0.45693323 -0.26295328
vn -0.9511362 -0.13568912 -0.27736002
vn -0.5988142 -0.21543391 -0.7713688
vn -0.8862117 -0.030091768 -0.46230227
vn -0.77138376 -0.002594169 0.63636494
vn -0.9452426 0.046236683 0.3230769
vn -0.58161 0.19022803 0.79091275
vn -0.9141527 0.33711916 0.22511235
vn -0.6907805 0.5052824 0.5172156
vn 0.56952214 0.37941688 -0.72916895
vn 0.88864535 -0.085208386 -0.45060953
vn 0.85078007 0.24247399 -0.46623978
vn 0.00027467497 0.00027467497 -1
vn 0.6908937 -0.28678894 -0.6636401
vn -0.5988142 -0.21543391 -0.7713688
vn 0.00027467497 0.00027467497 -1
vn -0.8862117 -0.030091768 -0.46230227
vn -0.6116356 0.2699425 -0.7436618
vn -0.8822561 0.087896 -0.46249166
vn -0.84974563 -0.45693323 -0.26295328
vn -0.92444706 -0.38014305 -0.029816935
vn -0.5616767 -0.7750064 -0.2896279
vn -0.35145807 -0.81623363 0.45851913
vn -0.93036467 -0.33952132 0.1383721
vn -0.73105997 -0.4620321 0.50207347
vn -0.9511362 -0.13568912 -0.27736002
vn -0.8862117 -0.030091768 -0.46230227
vn -0.92444706 -0.38014305 -0.029816935
vn -0.9452426 0.046236683 0.3230769
vn -0.93036467 -0.33952132 0.1383721
vn -0.9112172 0.38417795 -0.14862938
vn -0.9141527 0.33711916 0.22511235
vn -0.8822561 0.087896 -0.46249166
vn 0.2173275 -0.70517755 -0.6749025
vn 0.00027467497 0.00027467497 -1
vn 0.022157092 -0.88790125 -0.45950025
vn -0.45306593 -0.42739877 -0.7823437
vn -0.39110678 -0.76033115 -0.51858664
vn 0.022157092 -0.88790125 -0.45950025
vn 0.429225 -0.89894927 0.08749915
vn 0.36922216 -0.92644304 -0.07333781
vn -0.35145807 -0.81623363 0.45851913
vn -0.5616767 -0.7750064 -0.2896279
vn -0.39110678 -0.76033115 -0.51858664
vn 0.10580878 -0.8717704 0.4783522
vn 0.37202972 -0.8790156 0.29820365
vn 0.85078007 0.24247399 -0.46623978
vn 0.88864535 -0.085208386 -0.45060953
vn 0.88007516 0.44295213 -0.17105874
vn 0.8239217 0.5416513 0.16663378
vn 0.9226916 -0.38170555 -0.054232888
vn 0.9128905 -0.4026399 0.06717277
vn 0.87335753 -0.22477123 0.4321162
vn 0.79902583 0.39611003 0.45238757
vn 0.64326257 -0.4293199 0.6339541
vn 0.48522356 -0.34550703 0.80323285
vn 0.87335753 -0.22477123 0.4321162
vn 0.5082149 0.50812334 0.69536203
vn 0.79902583 0.39611003 0.45238757
vn 0.00027467497 0.00027467497 1
vn -0.3422354 0.8041952 -0.48594743
vn 0.19373897 0.86483634 -0.46316674
vn -0.51552874 0.82603014 -0.22782513
vn 0.41881663 0.89494854 -0.15381737
vn 0.38160822 0.92106014 0.07760954
vn 0.08304285 0.88698065 0.45427886
vn -0.3512121 0.81714493 0.45708236
g DiamondMesh_0
f 3/3/3 2/2/2 1/1/1
f 6/6/6 5/5/5 4/4/4
f 9/9/9 8/8/8 7/7/7
f 12/12/12 11/11/11 10/10/10
f 15/15/15 14/14/14 13/13/13
f 18/18/18 17/17/17 16/16/16
f 21/21/21 20/20/20 19/19/19
f 22/22/22 21/21/21 19/19/19
f 25/25/25 24/24/24 23/23/23
f 26/26/26 23/23/23 24/24/24
f 27/27/27 23/23/23 26/26/26
f 30/30/30 29/29/29 28/28/28
f 28/28/28 29/29/29 31/31/31
f 32/32/32 31/31/31 29/29/29
f 35/35/35 34/34/34 33/33/33
f 33/33/33 34/34/34 36/36/36
f 36/36/36 34/34/34 37/37/37
f 37/37/37 34/34/34 38/38/38
f 41/41/41 40/40/40 39/39/39
f 42/42/42 41/41/41 39/39/39
f 45/45/45 44/44/44 43/43/43
f 46/46/46 43/43/43 44/44/44
f 46/46/46 47/47/47 43/43/43
f 48/48/48 47/47/47 46/46/46
f 51/51/51 50/50/50 49/49/49
f 49/49/49 50/50/50 52/52/52
f 53/53/53 52/52/52 50/50/50
f 56/56/56 55/55/55 54/54/54
f 57/57/57 56/56/56 54/54/54
f 60/60/60 59/59/59 58/58/58
f 61/61/61 60/60/60 58/58/58
f 64/64/64 63/63/63 62/62/62
f 65/65/65 64/64/64 62/62/62
f 68/68/68 67/67/67 66/66/66
f 66/66/66 67/67/67 69/69/69
f 69/69/69 67/67/67 70/70/70
f 73/73/73 72/72/72 71/71/71
f 74/74/74 73/73/73 71/71/71
f 77/77/77 76/76/76 75/75/75
f 78/78/78 75/75/75 76/76/76
f 78/78/78 79/79/79 75/75/75
f 80/80/80 79/79/79 78/78/78
f 83/83/83 82/82/82 81/81/81
f 81/81/81 82/82/82 84/84/84
f 84/84/84 82/82/82 85/85/85
f 88/88/88 87/87/87 86/86/86
f 89/89/89 86/86/86 87/87/87
f 90/90/90 86/86/86 89/89/89
f 93/93/93 92/92/92 91/91/91
f 91/91/91 92/92/92 94/94/94
f 94/94/94 92/92/92 95/95/95
f 94/94/94 95/95/95 96/96/96
f 96/96/96 95/95/95 97/97/97
f 98/98/98 97/97/97 95/95/95
f 101/101/101 100/100/100 99/99/99
f 102/102/102 101/101/101 99/99/99
f 105/105/105 104/104/104 103/103/103
f 106/106/106 103/103/103 104/104/104
f 107/107/107 103/103/103 106/106/106
f 103/103/103 107/107/107 108/108/108
f 109/109/109 108/108/108 107/107/107
f 112/112/112 111/111/111 110/110/110
f 112/112/112 113/113/113 111/111/111
f 114/114/114 113/113/113 112/112/112
f 117/117/117 116/116/116 115/115/115
f 118/118/118 115/115/115 116/116/116
f 119/119/119 118/118/118 116/116/116
f 122/122/122 121/121/121 120/120/120
f 122/122/122 123/123/123 121/121/121
f 124/124/124 123/123/123 122/122/122
f 127/127/127 126/126/126 125/125/125
f 128/128/128 126/126/126 127/127/127
f 126/126/126 128/128/128 129/129/129
f 130/130/130 129/129/129 128/128/128
f 133/133/133 132/132/132 131/131/131
f 132/132/132 133/133/133 134/134/134
f 135/135/135 134/134/134 133/133/133
f 136/136/136 132/132/132 134/134/134
f 137/137/137 136/136/136 134/134/134
f 138/138/138 132/132/132 136/136/136
f 141/141/141 140/140/140 139/139/139
f 141/141/141 142/142/142 140/140/140
f 143/143/143 142/142/142 141/141/141
f 146/146/146 145/145/145 144/144/144
f 145/145/145 147/147/147 144/144/144
f 148/148/148 144/144/144 147/147/147
f 149/149/149 144/144/144 148/148/148
f 147/147/147 145/145/145 150/150/150
f 151/151/151 150/150/150 145/145/145
f 154/154/154 153/153/153 152/152/152
f 155/155/155 153/153/153 154/154/154
f 153/153/153 155/155/155 156/156/156
f 156/156/156 155/155/155 157/157/157
f 157/157/157 155/155/155 158/158/158
f 159/159/159 158/158/158 155/155/155
f 162/162/162 161/161/161 160/160/160
f 161/161/161 162/162/162 163/163/163
f 164/164/164 163/163/163 162/162/162
f 165/165/165 161/161/161 163/163/163
f 168/168/168 167/167/167 166/166/166
f 167/167/167 168/168/168 169/169/169
f 169/169/169 168/168/168 170/170/170
f 168/168/168 171/171/171 170/170/170
f 172/172/172 171/171/171 168/168/168
