g EmissiveShell
v -0.2078554 -0.18642431 0.4149375
v -0.15915221 -0.05021721 0.4149375
v -0.22245601 -0.26029554 0.4149375
v -0.39118657 -0.16536398 0.13859744
v 0.24176483 -0.4685937 0.13859744
v 0.39118645 -0.16536364 0.13859744
v -0.24176814 -0.46859363 0.13859744
v -0.39118657 -0.16536398 0.13859744
v 0.39118645 -0.16536364 0.13859744
v 0.046008967 0.44873065 0.13859744
v -3.5756085E-07 0.4496936 0.13859744
v 0.1261218 0.422311 0.13859744
v 0.08867361 0.44199038 0.13859743
v 0.39118645 -0.16536364 0.13859744
v 0.3392108 -0.4670562 0.13859746
v 0.20326722 0.2936061 0.13859744
v 0.16237052 0.376993 0.13859743
v 0.2560939 0.16633219 0.13859746
v 0.45308095 -0.427616 0.13859744
v 0.41137514 -0.45629457 0.13859744
v 0.44028342 -0.29012895 0.13859744
v 0.46260685 -0.37445498 0.13859744
v 0.1266804 -0.31319582 0.38077864
v 9.241863E-05 -0.35426876 0.2887122
v 9.300187E-05 -0.31379405 0.38077867
v 0.14679432 -0.35357547 0.2887122
v 0.2229032 -0.30900818 0.38077867
v 0.2583787 -0.34871927 0.2887122
v 0.2641949 -0.28881583 0.380764
v 0.30606064 -0.3255537 0.2887122
v 0.2887848 -0.23150046 0.28871232
v 0.18668531 -0.27896792 0.41493613
v 0.1266804 -0.31319582 0.38077864
v 0.10471553 -0.28313804 0.41493705
v 9.300187E-05 -0.31379405 0.38077867
v 0.0065690423 -0.28380728 0.41493744
v 0.1587279 -0.047874853 0.41493702
v 0.22264203 -0.26029554 0.4149375
v 0.20904173 -0.18966217 0.4149342
v 0.18576862 -0.023884183 0.3805906
v 0.24891096 -0.20516668 0.38077867
v 0.21813369 -0.030731145 0.2887122
v 0.14045888 0.16616589 0.28871244
v 0.120685756 0.14243424 0.38077867
v 0.08034846 0.22458985 0.38077864
v 0.09316146 0.26155734 0.28871226
v 0.056251053 0.24313845 0.38076675
v 0.053387348 0.19289446 0.41493466
v 0.06498168 0.28305608 0.2887122
v 0.120685756 0.14243424 0.38077867
v 0.034385797 0.2871361 0.2887122
v 0.10611062 0.13058476 0.39785805
v 0.029683767 0.24674137 0.38077864
v 9.2424685E-05 0.2877189 0.2887122
v 9.300187E-05 0.2472442 0.38077867
v 0.09153547 0.11873526 0.41493747
v 0.016321417 0.21485065 0.4149375
v 9.3005365E-05 0.21578322 0.41493532
v 0.03315595 0.2098607 0.41493747
v 0.023002587 0.23079602 0.39785805
v 9.300187E-05 0.2472442 0.38077867
v 0.029683767 0.24674137 0.38077864
v -0.12649441 -0.31319582 0.38077864
v 9.300187E-05 -0.31379405 0.38077867
v 9.241863E-05 -0.35426876 0.2887122
v -0.14660817 -0.35357547 0.2887122
v -0.22271721 -0.30900818 0.38077867
v -0.25815102 -0.34872112 0.28871226
v -0.26395556 -0.2885906 0.38100916
v -0.3058673 -0.325514 0.2887122
v -0.28859872 -0.23150033 0.28871247
v -0.1867326 -0.27885035 0.41493556
v -0.12649441 -0.31319582 0.38077864
v -0.10010069 -0.28311887 0.41493675
v 9.300187E-05 -0.31379405 0.38077867
v -0.15915221 -0.05021721 0.4149375
v 0.0065690423 -0.28380728 0.41493744
v 0.1587279 -0.047874853 0.41493702
v -0.22245601 -0.26029554 0.4149375
v -0.24853876 -0.2044092 0.38074365
v -0.2078554 -0.18642431 0.4149375
v -0.18714437 -0.028628819 0.38079002
v -0.21794768 -0.030731145 0.2887122
v -0.14136893 0.16406547 0.28871262
v -0.17050242 -0.032381877 0.39785802
v -0.12049975 0.14243424 0.38077867
v -0.080162466 0.22458985 0.38077864
v -0.09320173 0.26140234 0.28871232
v -0.05606472 0.24313848 0.3807668
v -0.053201344 0.1928945 0.41493464
v -0.064864315 0.2830469 0.2887122
v -0.12049975 0.14243424 0.38077867
v -0.034199607 0.28713617 0.2887122
v -0.1059246 0.13058476 0.39785808
v -0.09134947 0.11873526 0.41493747
v -0.02949776 0.24674137 0.38077864
v 9.2424685E-05 0.2877189 0.2887122
v 9.300187E-05 0.2472442 0.38077867
v -0.016135411 0.21485065 0.4149375
v 9.3005365E-05 0.21578322 0.41493532
v -0.032969948 0.2098607 0.41493747
v -0.022816585 0.23079602 0.39785802
v 9.300187E-05 0.2472442 0.38077867
v -0.02949776 0.24674137 0.38077864
v -0.39118657 -0.16536398 0.13859744
v -3.5756085E-07 0.4496936 0.13859744
v -0.046008963 0.44873068 0.13859744
v -0.12612179 0.42231104 0.13859744
v -0.0886736 0.44199038 0.13859743
v -0.20326728 0.293606 0.13859744
v -0.16237052 0.376993 0.13859743
v -0.25609335 0.16633354 0.13859744
v -0.3392107 -0.4670562 0.13859746
v -0.45308092 -0.42761603 0.13859744
v -0.41137514 -0.45629457 0.13859744
v -0.44028348 -0.29012907 0.13859744
v -0.46260685 -0.37445486 0.13859743
vt 0.66561186 0.9342626
vt 0.6656674 0.93531215
vt 0.66548395 0.9337581
vt 0.65746486 0.9370185
vt 0.65636516 0.9354663
vt 0.65746486 0.93701845
vt 0.65636516 0.9354663
vt 0.65746486 0.9370185
vt 0.65746486 0.93701845
vt 0.65585387 0.94075215
vt 0.6550715 0.94075215
vt 0.6569061 0.9406191
vt 0.65663624 0.94075215
vt 0.65746486 0.93701845
vt 0.6567743 0.9354663
vt 0.6572292 0.93989575
vt 0.6571759 0.9404861
vt 0.65728235 0.9393054
vt 0.6573659 0.93567866
vt 0.6571835 0.9354663
vt 0.6575066 0.9364548
vt 0.6575483 0.93589103
vt 0.664044 0.9333239
vt 0.6622596 0.93252087
vt 0.6622391 0.93333584
vt 0.6645837 0.93259
vt 0.6654222 0.9333393
vt 0.6663668 0.9326751
vt 0.66607916 0.93346983
vt 0.66723704 0.93287474
vt 0.6675074 0.93361235
vt 0.6649343 0.93365324
vt 0.664044 0.9333239
vt 0.66378176 0.9336597
vt 0.6622391 0.93333584
vt 0.66226983 0.93369144
vt 0.6656128 0.93531734
vt 0.6654841 0.933758
vt 0.66563225 0.9342557
vt 0.6662439 0.9352555
vt 0.6662507 0.9340458
vt 0.66756964 0.9351422
vt 0.6675271 0.9366849
vt 0.66617787 0.93647534
vt 0.66605794 0.9370887
vt 0.6674007 0.9374694
vt 0.6658639 0.93729967
vt 0.6653558 0.9369382
vt 0.66717136 0.9377536
vt 0.66617787 0.9364754
vt 0.6668383 0.9379674
vt 0.66583383 0.936433
vt 0.66556895 0.9374491
vt 0.6664474 0.9381899
vt 0.6652161 0.93760264
vt 0.6654898 0.93639064
vt 0.6649842 0.9372112
vt 0.6647749 0.93728673
vt 0.66517854 0.93711704
vt 0.6652765 0.9373302
vt 0.6652161 0.93760264
vt 0.66556895 0.93744916
vt 0.664044 0.9333239
vt 0.6622391 0.93333584
vt 0.6622596 0.93252087
vt 0.6645837 0.93259
vt 0.6654222 0.9333393
vt 0.6663667 0.93267524
vt 0.6660764 0.93347114
vt 0.6672369 0.9328748
vt 0.6675106 0.9336112
vt 0.6649349 0.9336528
vt 0.664044 0.9333239
vt 0.6637726 0.9336714
vt 0.6622391 0.93333584
vt 0.6656674 0.93531215
vt 0.66226983 0.93369144
vt 0.6656128 0.93531734
vt 0.6654841 0.933758
vt 0.66624665 0.93404716
vt 0.66561186 0.93426263
vt 0.6662476 0.93525517
vt 0.66756964 0.9351422
vt 0.66752255 0.9366842
vt 0.6659193 0.9352873
vt 0.66617787 0.93647534
vt 0.66605794 0.9370887
vt 0.66740036 0.93746936
vt 0.6658639 0.93729967
vt 0.6653559 0.9369382
vt 0.66717136 0.9377536
vt 0.66617787 0.9364754
vt 0.6668383 0.9379674
vt 0.66583383 0.936433
vt 0.6654898 0.93639064
vt 0.66556895 0.9374491
vt 0.6664474 0.9381899
vt 0.6652161 0.93760264
vt 0.6649842 0.9372112
vt 0.6647749 0.93728673
vt 0.66517854 0.93711704
vt 0.6652765 0.9373302
vt 0.6652161 0.93760264
vt 0.66556895 0.93744916
vt 0.65746486 0.9370185
vt 0.6550715 0.94075215
vt 0.65585387 0.94075215
vt 0.6569061 0.9406191
vt 0.65663624 0.94075215
vt 0.6572292 0.93989575
vt 0.6571759 0.9404861
vt 0.65728235 0.9393054
vt 0.6567743 0.9354663
vt 0.6573659 0.93567866
vt 0.6571835 0.9354663
vt 0.6575066 0.9364548
vt 0.6575483 0.93589103
vn -0.3831389 0.11495616 0.9165095
vn -0.36708483 0.13569358 0.9202369
vn -0.37263134 -0.14264451 0.9169506
vn -0 0 -1
vn -0 0 -1
vn -0 0 -1
vn -0 0 -1
vn -0 0 -1
vn -0 0 -1
vn -0 0 -1
vn -0 0 -1
vn -0 0 -1
vn -0 0 -1
vn -0 0 -1
vn -0 0 -1
vn -0 0 -1
vn -0 0 -1
vn 4.5343506E-05 0 -1
vn -0 0 -1
vn -0 0 -1
vn -0 0 -1
vn -0 0 -1
vn 0.019906228 -0.9140011 0.40522313
vn -0 -0.9154414 0.40245125
vn -0 -0.9154414 0.40245125
vn 0.024132146 -0.9135729 0.40595844
vn 0.19791594 -0.7726693 0.60316783
vn 0.24204667 -0.8533602 0.4617248
vn 0.70187944 -0.3176301 0.63755506
vn 0.75280356 -0.4179629 0.50852126
vn 0.9159546 0.22598334 0.33160013
vn 0.07433053 -0.40545288 0.91108894
vn 0.023587782 -0.7411558 0.6709185
vn 0.008457908 -0.4129656 0.9107073
vn -0.00033009239 -0.75030696 0.6610896
vn 0.00023426523 -0.41312954 0.91067225
vn 0.36672252 0.13552625 0.920406
vn 0.37578136 -0.14215682 0.91574013
vn 0.38290825 0.11250186 0.9169103
vn 0.80503136 0.30218247 0.5105
vn 0.8197485 0.21779346 0.5296964
vn 0.8970398 0.33243358 0.2912174
vn 0.8743997 0.3903593 0.28817466
vn 0.7798147 0.34501976 0.5223507
vn 0.65040714 0.5195025 0.55415493
vn 0.7080439 0.6155011 0.3461679
vn 0.3324742 0.74714184 0.5755346
vn 0.3053913 0.23332909 0.92319745
vn 0.3422962 0.8496938 0.40106583
vn 0.7798147 0.34501976 0.5223507
vn 0.06940457 0.9121525 0.4039318
vn 0.62622845 0.2816446 0.72698987
vn 0.06690076 0.83031785 0.5532599
vn -0 0.91544163 0.40245074
vn -0 0.91544163 0.40245074
vn 0.344177 0.15520602 0.9259877
vn 0.05223542 0.4014128 0.9144065
vn -2.0106432E-05 0.40841275 0.9127974
vn 0.16586176 0.35136232 0.9214306
vn 0.080467366 0.7058808 0.70374525
vn -0 0.7327827 0.6804627
vn 0.06690076 0.83031785 0.5532599
vn -0.01990613 -0.914001 0.40522322
vn -0 -0.9154414 0.40245125
vn -0 -0.9154414 0.40245125
vn -0.024131974 -0.9135728 0.40595856
vn -0.19771907 -0.7728703 0.60297483
vn -0.24249722 -0.85312974 0.4619142
vn -0.7015996 -0.31618977 0.63857824
vn -0.753029 -0.41757035 0.50851
vn -0.9159926 0.22622624 0.33132973
vn -0.07414977 -0.404726 0.9114268
vn -0.023923464 -0.7395474 0.67267925
vn -0.00790782 -0.41243517 0.91095257
vn -0.00033009239 -0.75030696 0.6610896
vn -0.36708483 0.13569358 0.9202369
vn 0.00023426523 -0.41312954 0.91067225
vn 0.36672252 0.13552625 0.920406
vn -0.37263134 -0.14264451 0.9169506
vn -0.82033956 0.21995993 0.527883
vn -0.3831389 0.11495616 0.9165095
vn -0.8036992 0.2986519 0.51465964
vn -0.89668554 0.33236468 0.29238465
vn -0.8745552 0.38894513 0.28961185
vn -0.6603795 0.24940203 0.7083061
vn -0.77907515 0.34440506 0.52385795
vn -0.6502507 0.5193974 0.554437
vn -0.7083561 0.61491674 0.34656748
vn -0.33247802 0.747097 0.5755904
vn -0.30539298 0.23333086 0.92319655
vn -0.3424765 0.84957737 0.4011584
vn -0.77907515 0.34440506 0.52385795
vn -0.06940398 0.91215223 0.40393233
vn -0.6270057 0.28116402 0.7265058
vn -0.34750435 0.1556789 0.9246647
vn -0.066900335 0.83031744 0.55326056
vn -0 0.91544163 0.40245074
vn -0 0.91544163 0.40245074
vn -0.052282795 0.40143737 0.91439307
vn -2.0106432E-05 0.40841275 0.9127974
vn -0.16586381 0.35136393 0.92142963
vn -0.08046754 0.705881 0.70374495
vn -0 0.7327827 0.6804627
vn -0.066900335 0.83031744 0.55326056
vn -0 0 -1
vn -0 0 -1
vn -0 0 -1
vn -0 0 -1
vn -0 0 -1
vn -0 0 -1
vn -0 0 -1
vn 4.5342993E-05 0 -1
vn -0 0 -1
vn -0 0 -1
vn -0 0 -1
vn -0 0 -1
vn -0 0 -1
g EmissiveShell_0
f 3/3/3 2/2/2 1/1/1
f 6/6/6 5/5/5 4/4/4
f 8/8/8 5/5/5 7/7/7
f 10/10/10 9/9/9 8/8/8
f 11/11/11 10/10/10 8/8/8
f 13/13/13 12/12/12 10/10/10
f 12/12/12 14/14/14 10/10/10
f 14/14/14 15/15/15 5/5/5
f 16/16/16 14/14/14 12/12/12
f 17/17/17 16/16/16 12/12/12
f 14/14/14 16/16/16 18/18/18
f 15/15/15 14/14/14 19/19/19
f 20/20/20 15/15/15 19/19/19
f 19/19/19 14/14/14 21/21/21
f 22/22/22 19/19/19 21/21/21
f 25/25/25 24/24/24 23/23/23
f 24/24/24 26/26/26 23/23/23
f 23/23/23 26/26/26 27/27/27
f 26/26/26 28/28/28 27/27/27
f 27/27/27 28/28/28 29/29/29
f 28/28/28 30/30/30 29/29/29
f 30/30/30 31/31/31 29/29/29
f 29/29/29 32/32/32 27/27/27
f 27/27/27 32/32/32 33/33/33
f 32/32/32 34/34/34 33/33/33
f 33/33/33 34/34/34 35/35/35
f 34/34/34 36/36/36 35/35/35
f 34/34/34 37/37/37 36/36/36
f 34/34/34 32/32/32 37/37/37
f 32/32/32 38/38/38 37/37/37
f 29/29/29 38/38/38 32/32/32
f 29/29/29 39/39/39 38/38/38
f 37/37/37 38/38/38 39/39/39
f 37/37/37 39/39/39 40/40/40
f 41/41/41 39/39/39 29/29/29
f 31/31/31 41/41/41 29/29/29
f 39/39/39 41/41/41 40/40/40
f 41/41/41 31/31/31 40/40/40
f 40/40/40 31/31/31 42/42/42
f 43/43/43 40/40/40 42/42/42
f 43/43/43 44/44/44 40/40/40
f 44/44/44 43/43/43 45/45/45
f 43/43/43 46/46/46 45/45/45
f 45/45/45 46/46/46 47/47/47
f 47/47/47 48/48/48 45/45/45
f 46/46/46 49/49/49 47/47/47
f 50/50/50 45/45/45 48/48/48
f 49/49/49 51/51/51 47/47/47
f 50/50/50 52/52/52 40/40/40
f 52/52/52 50/50/50 48/48/48
f 52/52/52 37/37/37 40/40/40
f 51/51/51 53/53/53 47/47/47
f 51/51/51 54/54/54 53/53/53
f 54/54/54 55/55/55 53/53/53
f 48/48/48 56/56/56 52/52/52
f 37/37/37 52/52/52 56/56/56
f 48/48/48 37/37/37 56/56/56
f 57/57/57 37/37/37 48/48/48
f 57/57/57 58/58/58 37/37/37
f 47/47/47 59/59/59 48/48/48
f 59/59/59 57/57/57 48/48/48
f 60/60/60 58/58/58 57/57/57
f 57/57/57 59/59/59 60/60/60
f 59/59/59 47/47/47 60/60/60
f 58/58/58 60/60/60 61/61/61
f 62/62/62 60/60/60 47/47/47
f 60/60/60 62/62/62 61/61/61
f 65/65/65 64/64/64 63/63/63
f 66/66/66 65/65/65 63/63/63
f 66/66/66 63/63/63 67/67/67
f 68/68/68 66/66/66 67/67/67
f 68/68/68 67/67/67 69/69/69
f 70/70/70 68/68/68 69/69/69
f 70/70/70 69/69/69 71/71/71
f 67/67/67 72/72/72 69/69/69
f 72/72/72 67/67/67 73/73/73
f 74/74/74 72/72/72 73/73/73
f 74/74/74 73/73/73 75/75/75
f 72/72/72 74/74/74 76/76/76
f 74/74/74 77/77/77 76/76/76
f 77/77/77 74/74/74 75/75/75
f 77/77/77 78/78/78 76/76/76
f 69/69/69 72/72/72 79/79/79
f 79/79/79 72/72/72 76/76/76
f 69/69/69 79/79/79 80/80/80
f 69/69/69 80/80/80 71/71/71
f 79/79/79 81/81/81 80/80/80
f 82/82/82 71/71/71 80/80/80
f 82/82/82 83/83/83 71/71/71
f 82/82/82 84/84/84 83/83/83
f 85/85/85 80/80/80 81/81/81
f 76/76/76 85/85/85 81/81/81
f 80/80/80 85/85/85 82/82/82
f 86/86/86 84/84/84 82/82/82
f 84/84/84 86/86/86 87/87/87
f 88/88/88 84/84/84 87/87/87
f 88/88/88 87/87/87 89/89/89
f 87/87/87 90/90/90 89/89/89
f 91/91/91 88/88/88 89/89/89
f 90/90/90 87/87/87 92/92/92
f 91/91/91 89/89/89 93/93/93
f 94/94/94 92/92/92 82/82/82
f 85/85/85 94/94/94 82/82/82
f 94/94/94 90/90/90 92/92/92
f 95/95/95 94/94/94 85/85/85
f 76/76/76 95/95/95 85/85/85
f 94/94/94 95/95/95 90/90/90
f 76/76/76 90/90/90 95/95/95
f 89/89/89 96/96/96 93/93/93
f 93/93/93 96/96/96 97/97/97
f 96/96/96 98/98/98 97/97/97
f 90/90/90 76/76/76 99/99/99
f 99/99/99 76/76/76 78/78/78
f 100/100/100 99/99/99 78/78/78
f 89/89/89 90/90/90 101/101/101
f 101/101/101 90/90/90 99/99/99
f 102/102/102 99/99/99 100/100/100
f 99/99/99 102/102/102 101/101/101
f 102/102/102 89/89/89 101/101/101
f 100/100/100 103/103/103 102/102/102
f 89/89/89 102/102/102 104/104/104
f 103/103/103 104/104/104 102/102/102
f 107/107/107 106/106/106 105/105/105
f 107/107/107 105/105/105 108/108/108
f 109/109/109 107/107/107 108/108/108
f 108/108/108 105/105/105 110/110/110
f 111/111/111 108/108/108 110/110/110
f 110/110/110 105/105/105 112/112/112
f 113/113/113 105/105/105 7/7/7
f 114/114/114 105/105/105 113/113/113
f 115/115/115 114/114/114 113/113/113
f 116/116/116 105/105/105 114/114/114
f 117/117/117 116/116/116 114/114/114
