g FireworkProjectileMesh
v 0.014476469 -0.10914322 0.46072966
v -0.017803816 -0.1350552 0.23583075
v -0.049629122 -0.1423697 0.45007247
v 0.0463018 -0.10182872 0.246488
v 0.04682048 -0.04409248 0.46775526
v 0.07864581 -0.036777977 0.25351354
v 0.035048652 0.02793542 0.46846575
v 0.06687398 0.035249922 0.25422403
v -0.0163426 0.07942821 0.46258968
v 0.074726984 0.037054796 0.20135918
v 0.08649881 -0.034973092 0.20064875
v 0.015482729 0.086742714 0.24834797
v -0.055898055 0.098031946 0.23812982
v -0.08772339 0.09071745 0.45237154
v -0.15182902 0.05749108 0.44171435
v 0.02333573 0.0885476 0.19548312
v -0.12000369 0.06480558 0.22747266
v -0.18417312 -0.0075596822 0.43468875
v -0.15234782 -0.00024517995 0.22044706
v -0.17240138 -0.07958761 0.43397826
v -0.14057602 -0.072273105 0.2197366
v -0.12101012 -0.13108046 0.43985432
v -0.08918479 -0.12376594 0.22561267
v -0.049629122 -0.1423697 0.45007247
v -0.017803816 -0.1350552 0.23583075
v -0.14449479 0.0015596969 0.16758223
v -0.11215069 0.06661047 0.17460786
v -0.048045054 0.099836834 0.18526505
v 0.063014045 0.09766699 -0.07162338
v 0.11440528 0.046174187 -0.06574731
v 0.12617715 -0.025853714 -0.06645774
v 0.0541548 -0.10002383 0.19362316
v 0.0938331 -0.090904474 -0.07348334
v -0.009950808 -0.13325031 0.18296598
v 0.029727507 -0.12413096 -0.08414053
v 0.026398603 -0.09562161 -0.09249454
v 0.074984565 -0.070439085 -0.084417395
v 0.09949822 -0.021136796 -0.079092674
v 0.090576336 0.033453498 -0.078554206
v 0.051626638 0.07248013 -0.083007745
v -0.00836674 0.108956225 -0.08184146
v -0.00247322 0.081036314 -0.09075206
v -0.07247236 0.07572983 -0.09249865
v -0.05105917 0.055853873 -0.098829195
v -0.10481646 0.01067908 -0.099524304
v -0.07557295 0.006551585 -0.104153976
v -0.0930447 -0.061348855 -0.10023473
v -0.06665105 -0.04803873 -0.104692385
v -0.13272299 -0.07046823 0.16687177
v -0.041653473 -0.11284169 -0.09435867
v -0.027701396 -0.0870654 -0.100238904
v -0.08133179 -0.12196108 0.17274787
v 0.029727507 -0.12413096 -0.08414053
v 0.026398603 -0.09562161 -0.09249454
v -0.009950808 -0.13325031 0.18296598
v 0.014476469 -0.10914322 0.46072966
v -0.049629122 -0.1423697 0.45007247
v -0.046910197 -0.15900601 0.44990832
v -0.12101012 -0.13108046 0.43985432
v 0.02634633 -0.12103655 0.46208686
v 0.04682048 -0.04409248 0.46775526
v -0.105607115 -0.034313995 0.6998324
v -0.12848063 -0.14610524 0.43823165
v 0.06330736 -0.046699952 0.47011536
v -0.17240138 -0.07958761 0.43397826
v 0.049855158 0.03560974 0.47092718
v 0.035048652 0.02793542 0.46846575
v -0.18720783 -0.087261945 0.43151683
v -0.18417312 -0.0075596822 0.43468875
v -0.0088720685 0.094453014 0.46421236
v -0.0163426 0.07942821 0.46258968
v -0.0904423 0.107353754 0.45253557
v -0.08772339 0.09071745 0.45237154
v -0.15182902 0.05749108 0.44171435
v -0.16369887 0.06938441 0.44035715
v -0.20065999 -0.0049521956 0.43232864
v 0.0541548 -0.10002383 0.19362316
v 0.106277116 -0.026823916 0.22493324
v 0.08649881 -0.034973092 0.20064875
v 0.07864581 -0.036777977 0.25351354
v 0.068049476 -0.1037079 0.21662965
v 0.0463018 -0.10182872 0.246488
v -0.009950808 -0.13325031 0.18296598
v -0.017803816 -0.1350552 0.23583075
v -0.007717422 -0.1429785 0.20403382
v -0.08133179 -0.12196108 0.17274787
v -0.08918479 -0.12376594 0.22561267
v -0.09208313 -0.12963565 0.19195694
v -0.13272299 -0.07046823 0.16687177
v -0.1528228 -0.06877589 0.185012
v -0.14057602 -0.072273105 0.2197366
v -0.14449479 0.0015596969 0.16758223
v -0.16673596 0.016354477 0.18585168
v -0.15234782 -0.00024517995 0.22044706
v -0.027701396 -0.0870654 -0.100238904
v -0.03267001 -0.030426092 -0.099043235
v -0.06665105 -0.04803873 -0.104692385
v -0.010556473 -0.05258336 -0.096514806
v -0.037735384 0.0005673803 -0.09873752
v 0.026398603 -0.09562161 -0.09249454
v -0.07557295 0.006551585 -0.104153976
v 0.020158624 -0.0574411 -0.09211796
v -0.023817774 0.028558586 -0.095714435
v 0.074984565 -0.070439085 -0.084417395
v -0.05105917 0.055853873 -0.098829195
v 0.047743127 -0.043143813 -0.087532155
v 0.0037667449 0.042855833 -0.0911287
v 0.09949822 -0.021136796 -0.079092674
v -0.00247322 0.081036314 -0.09075206
v 0.061660692 -0.015152605 -0.08450907
v 0.034481753 0.0379981 -0.08673184
v 0.090576336 0.033453498 -0.078554206
v 0.051626638 0.07248013 -0.083007745
v 0.056595296 0.015840849 -0.084203355
v 0.056595296 0.015840849 -0.084203355
v 0.07701035 -0.011624751 -0.18783984
v 0.061660692 -0.015152605 -0.08450907
v 0.07194494 0.019368699 -0.18753418
v 0.034481753 0.0379981 -0.08673184
v 0.06309278 -0.039615948 -0.19086298
v 0.047743127 -0.043143813 -0.087532155
v 0.049831405 0.04152595 -0.19006261
v 0.0037667449 0.042855833 -0.0911287
v 0.03550828 -0.05391325 -0.19544873
v 0.020158624 -0.0574411 -0.09211796
v 0.0191164 0.046383698 -0.19445941
v -0.023817774 0.028558586 -0.095714435
v 0.004793189 -0.0490555 -0.19984558
v -0.010556473 -0.05258336 -0.096514806
v -0.00846812 0.032086436 -0.19904521
v -0.037735384 0.0005673803 -0.09873752
v -0.017320348 -0.026898239 -0.20237407
v -0.03267001 -0.030426092 -0.099043235
v -0.022385737 0.0040952335 -0.2020683
v 0.030545462 -0.023547325 -0.19514921
v 0.018428972 -0.021631045 -0.19688365
v 0.009705632 -0.012890454 -0.19788113
v 0.007707446 -0.0006641559 -0.1977605
v 0.013197659 0.0103778085 -0.19656798
v 0.024079192 0.016017785 -0.19475898
v 0.036195654 0.014101503 -0.19302449
v 0.041426975 -0.017907336 -0.19334021
v 0.044918988 0.005360916 -0.19202706
v 0.046917185 -0.00686537 -0.1921477
vt 0.8800572 0.93734705
vt 0.81597066 0.68966633
vt 0.86971694 0.9395709
vt 0.8263109 0.6874424
vt 0.8903973 0.9351232
vt 0.836651 0.68521863
vt 0.89970654 0.9331211
vt 0.8459602 0.6832166
vt 0.9090158 0.93111897
vt 0.8326981 0.6215517
vt 0.8233889 0.6235538
vt 0.85526943 0.68121445
vt 0.8645786 0.67921233
vt 0.91832495 0.92911696
vt 0.9276341 0.92711484
vt 0.84200734 0.61954963
vt 0.8738878 0.6772102
vt 0.9369433 0.9251127
vt 0.88319695 0.67520815
vt 0.9472835 0.9228889
vt 0.89353716 0.6729843
vt 0.95762366 0.9206651
vt 0.9038773 0.67076045
vt 0.9679638 0.9184412
vt 0.91421753 0.6685366
vt 0.8699349 0.6135433
vt 0.86062574 0.6155454
vt 0.8513165 0.6175475
vt 0.77499896 0.3079802
vt 0.76568973 0.3099823
vt 0.7563805 0.31198442
vt 0.81304884 0.62577766
vt 0.7460404 0.3142082
vt 0.80270857 0.6280015
vt 0.73570013 0.3164321
vt 0.72828615 0.28195938
vt 0.7386264 0.2797355
vt 0.7489666 0.2775117
vt 0.75827575 0.2755096
vt 0.767585 0.27350745
vt 0.7843081 0.30597806
vt 0.77689415 0.2715054
vt 0.7936173 0.30397597
vt 0.7862034 0.26950327
vt 0.8029265 0.30197388
vt 0.7955125 0.26750115
vt 0.8132667 0.29975006
vt 0.8058527 0.26527733
vt 0.8802751 0.6113195
vt 0.82360685 0.29752624
vt 0.81619287 0.2630535
vt 0.8906152 0.60909563
vt 0.833947 0.2953024
vt 0.8265331 0.26082966
vt 0.90095544 0.6068718
vt 0.08080375 0.96153444
vt 0.08080375 0.96153444
vt 0.08080375 0.96153444
vt 0.08080375 0.96153444
vt 0.08080375 0.96153444
vt 0.08080375 0.96153444
vt 0.08080375 0.96153444
vt 0.08080375 0.96153444
vt 0.08080375 0.96153444
vt 0.08080375 0.96153444
vt 0.08080375 0.96153444
vt 0.08080375 0.96153444
vt 0.08080375 0.96153444
vt 0.08080375 0.96153444
vt 0.08080375 0.96153444
vt 0.08080375 0.96153444
vt 0.08080375 0.96153444
vt 0.08080375 0.96153444
vt 0.08080375 0.96153444
vt 0.08080375 0.96153444
vt 0.08080375 0.96153444
vt 0.058243062 0.8059281
vt 0.058243062 0.8059281
vt 0.058243062 0.8059281
vt 0.058243062 0.8059281
vt 0.058243062 0.8059281
vt 0.058243062 0.8059281
vt 0.058243062 0.8059281
vt 0.058243062 0.8059281
vt 0.058243062 0.8059281
vt 0.058243062 0.8059281
vt 0.058243062 0.8059281
vt 0.058243062 0.8059281
vt 0.058243062 0.8059281
vt 0.058243062 0.8059281
vt 0.058243062 0.8059281
vt 0.058243062 0.8059281
vt 0.058243062 0.8059281
vt 0.058243062 0.8059281
vt 0.15241441 0.9454017
vt 0.15241441 0.9454017
vt 0.15241441 0.9454017
vt 0.15241441 0.9454017
vt 0.15241441 0.9454017
vt 0.15241441 0.9454017
vt 0.15241441 0.9454017
vt 0.15241441 0.9454017
vt 0.15241441 0.9454017
vt 0.15241441 0.9454017
vt 0.15241441 0.9454017
vt 0.15241441 0.9454017
vt 0.15241441 0.9454017
vt 0.15241441 0.9454017
vt 0.15241441 0.9454017
vt 0.15241441 0.9454017
vt 0.15241441 0.9454017
vt 0.15241441 0.9454017
vt 0.15241441 0.9454017
vt 0.15241441 0.9454017
vt 0.06874779 0.9158723
vt 0.06874779 0.9158723
vt 0.06874779 0.9158723
vt 0.06874779 0.9158723
vt 0.06874779 0.9158723
vt 0.06874779 0.9158723
vt 0.06874779 0.9158723
vt 0.06874779 0.9158723
vt 0.06874779 0.9158723
vt 0.06874779 0.9158723
vt 0.06874779 0.9158723
vt 0.06874779 0.9158723
vt 0.06874779 0.9158723
vt 0.06874779 0.9158723
vt 0.06874779 0.9158723
vt 0.06874779 0.9158723
vt 0.06874779 0.9158723
vt 0.06874779 0.9158723
vt 0.06874779 0.9158723
vt 0.06874779 0.9158723
vt 0.06874779 0.9158723
vt 0.06874779 0.9158723
vt 0.06874779 0.9158723
vt 0.06874779 0.9158723
vt 0.06874779 0.9158723
vt 0.06874779 0.9158723
vt 0.06874779 0.9158723
vt 0.06874779 0.9158723
vt 0.06874779 0.9158723
vt 0.06874779 0.9158723
vn 0.5524229 -0.41176122 -0.72476315
vn 0.12619853 -0.9828531 0.13443881
vn 0.21525294 -0.58652073 -0.78080696
vn 0.63839465 -0.71820164 0.27683708
vn 0.722543 -0.06961439 -0.6878121
vn 0.9523503 -0.076908275 0.29515076
vn 0.6606352 0.3091978 -0.6840745
vn 0.8783215 0.45522928 0.14600542
vn 0.390339 0.5800455 -0.71497035
vn 0.8783215 0.45522928 0.14600542
vn 0.99602926 -0.020966789 -0.08652233
vn 0.44313383 0.8912727 0.09625648
vn -0.16126263 0.98686385 0.009705056
vn 0.014893437 0.6394106 -0.76872116
vn -0.32224983 0.46465135 -0.8247752
vn 0.44313383 0.8912727 0.09625648
vn -0.7041091 0.705513 -0.08050973
vn -0.49237233 0.12250559 -0.8617203
vn -0.9735439 0.22766888 0.019470878
vn -0.43044326 -0.2563005 -0.8654644
vn -0.8759267 -0.47869098 0.06006145
vn -0.16016589 -0.5271314 -0.8345534
vn -0.44940114 -0.8918133 0.05203592
vn 0.21525294 -0.58652073 -0.78080696
vn 0.12619853 -0.9828531 0.13443881
vn -0.89198196 0.27760178 -0.35679886
vn -0.7041091 0.705513 -0.08050973
vn -0.16126263 0.98686385 0.009705056
vn 0.45165107 0.76590556 -0.45760235
vn 0.81662935 0.4001966 -0.41588342
vn 0.90023637 -0.11133547 -0.4209262
vn 0.6869862 -0.6919303 -0.22199635
vn 0.6705363 -0.57333285 -0.470819
vn 0.17261748 -0.9569039 -0.2335341
vn 0.21522462 -0.8093202 -0.54651546
vn 0.17298384 -0.14072487 -0.97481954
vn 0.2686608 -0.09113042 -0.9589143
vn 0.31693622 0.0059511377 -0.9484283
vn 0.29936033 0.11346944 -0.94736904
vn 0.2226683 0.19031793 -0.956137
vn -0.05530062 0.8460812 -0.5301779
vn 0.116094775 0.20716386 -0.97139335
vn -0.51058453 0.6101073 -0.6058652
vn 0.020417353 0.15757072 -0.9872966
vn -0.7402983 0.14810848 -0.6557608
vn -0.027833119 0.060488205 -0.99778074
vn -0.6566796 -0.36342153 -0.6608302
vn -0.0102542415 -0.04699861 -0.9988424
vn -0.775743 -0.4605688 -0.43139222
vn -0.29170406 -0.729138 -0.61908525
vn 0.06640974 -0.12387737 -0.99007285
vn -0.38313964 -0.86900735 -0.31309777
vn 0.21522462 -0.8093202 -0.54651546
vn 0.17298384 -0.14072487 -0.97481954
vn 0.17261748 -0.9569039 -0.2335341
vn 0.5524229 -0.41176122 -0.72476315
vn 0.21525294 -0.58652073 -0.78080696
vn 0.21015401 -0.8657027 -0.45430622
vn -0.16016589 -0.5271314 -0.8345534
vn 0.694717 -0.61454207 -0.3737732
vn 0.722543 -0.06961439 -0.6878121
vn -0.1468292 -0.033724017 0.98858684
vn -0.32936066 -0.78037006 -0.53154886
vn 0.93919396 -0.12283927 -0.32066387
vn -0.43044326 -0.2563005 -0.8654644
vn 0.8502161 0.4215678 -0.31529838
vn 0.6606352 0.3091978 -0.6840745
vn -0.7178233 -0.3911405 -0.5759677
vn -0.49237233 0.12250559 -0.8617203
vn 0.46175453 0.81080186 -0.3596985
vn 0.390339 0.5800455 -0.71497035
vn -0.07776195 0.8961241 -0.43693796
vn 0.014893437 0.6394106 -0.76872116
vn -0.32224983 0.46465135 -0.8247752
vn -0.5623261 0.6449735 -0.5174926
vn -0.80680734 0.15326776 -0.5705882
vn 0.6869862 -0.6919303 -0.22199635
vn 0.79966545 0.5979332 0.05487362
vn 0.99602926 -0.020966789 -0.08652233
vn 0.9523503 -0.076908275 0.29515076
vn 0.75168663 -0.6595188 -0.0014649192
vn 0.63839465 -0.71820164 0.27683708
vn 0.17261748 -0.9569039 -0.2335341
vn 0.12619853 -0.9828531 0.13443881
vn 0.19480278 -0.9779508 -0.07525985
vn -0.38313964 -0.86900735 -0.31309777
vn -0.44940114 -0.8918133 0.05203592
vn -0.4531191 -0.8754748 -0.16800839
vn -0.775743 -0.4605688 -0.43139222
vn -0.8853844 -0.40062186 -0.23578918
vn -0.8759267 -0.47869098 0.06006145
vn -0.89198196 0.27760178 -0.35679886
vn -0.56417745 0.81364125 -0.14032716
vn -0.9735439 0.22766888 0.019470878
vn 0.06640974 -0.12387737 -0.99007285
vn -0.43044326 -0.2563005 -0.8654644
vn -0.0102542415 -0.04699861 -0.9988424
vn -0.16016589 -0.5271314 -0.8345534
vn -0.49237233 0.12250559 -0.8617203
vn 0.17298384 -0.14072487 -0.97481954
vn -0.027833119 0.060488205 -0.99778074
vn 0.21525294 -0.58652073 -0.78080696
vn -0.32224983 0.46465135 -0.8247752
vn 0.2686608 -0.09113042 -0.9589143
vn 0.020417353 0.15757072 -0.9872966
vn 0.5524229 -0.41176122 -0.72476315
vn 0.014893437 0.6394106 -0.76872116
vn 0.31693622 0.0059511377 -0.9484283
vn 0.116094775 0.20716386 -0.97139335
vn 0.722543 -0.06961439 -0.6878121
vn 0.390339 0.5800455 -0.71497035
vn 0.29936033 0.11346944 -0.94736904
vn 0.2226683 0.19031793 -0.956137
vn 0.66065234 0.30919155 -0.6840607
vn 0.66065234 0.30919155 -0.6840607
vn 0.8429607 -0.09662263 -0.5292271
vn 0.722543 -0.06961439 -0.6878121
vn 0.76667386 0.37010682 -0.5246257
vn 0.390339 0.5800455 -0.71497035
vn 0.6333668 -0.5181565 -0.5747698
vn 0.5524229 -0.41176122 -0.72476315
vn 0.43364906 0.7037755 -0.56271523
vn 0.014893437 0.6394106 -0.76872116
vn 0.21794266 -0.7334849 -0.6438174
vn 0.21525294 -0.58652073 -0.78080696
vn -0.028871506 0.77693653 -0.62891656
vn -0.32224983 0.46465135 -0.8247752
vn -0.2445839 -0.6603216 -0.710038
vn -0.16016589 -0.5271314 -0.8345534
vn -0.44430304 0.56162006 -0.6979812
vn -0.49237233 0.12250559 -0.8617203
vn -0.5776045 -0.32664588 -0.74811465
vn -0.43044326 -0.2563005 -0.8654644
vn -0.65389806 0.14008178 -0.74350154
vn 0.1468292 0.033724017 -0.98858684
vn 0.1468292 0.033724017 -0.98858684
vn 0.1468292 0.033724017 -0.98858684
vn 0.1468292 0.033724017 -0.98858684
vn 0.1468292 0.033724017 -0.98858684
vn 0.1468292 0.033724017 -0.98858684
vn 0.1468292 0.033724017 -0.98858684
vn 0.1468292 0.033724017 -0.98858684
vn 0.1468292 0.033724017 -0.98858684
vn 0.1468292 0.033724017 -0.98858684
g FireworkProjectileMesh_0
f 3/3/3 2/2/2 1/1/1
f 2/2/2 4/4/4 1/1/1
f 1/1/1 4/4/4 5/5/5
f 4/4/4 6/6/6 5/5/5
f 5/5/5 6/6/6 7/7/7
f 6/6/6 8/8/8 7/7/7
f 7/7/7 8/8/8 9/9/9
f 8/8/8 6/6/6 10/10/10
f 6/6/6 11/11/11 10/10/10
f 8/8/8 12/12/12 9/9/9
f 9/9/9 12/12/12 13/13/13
f 14/14/14 9/9/9 13/13/13
f 14/14/14 13/13/13 15/15/15
f 12/12/12 8/8/8 16/16/16
f 8/8/8 10/10/10 16/16/16
f 12/12/12 16/16/16 13/13/13
f 13/13/13 17/17/17 15/15/15
f 15/15/15 17/17/17 18/18/18
f 17/17/17 19/19/19 18/18/18
f 18/18/18 19/19/19 20/20/20
f 19/19/19 21/21/21 20/20/20
f 20/20/20 21/21/21 22/22/22
f 21/21/21 23/23/23 22/22/22
f 22/22/22 23/23/23 24/24/24
f 23/23/23 25/25/25 24/24/24
f 19/19/19 17/17/17 26/26/26
f 17/17/17 13/13/13 27/27/27
f 17/17/17 27/27/27 26/26/26
f 16/16/16 28/28/28 13/13/13
f 13/13/13 28/28/28 27/27/27
f 16/16/16 29/29/29 28/28/28
f 16/16/16 10/10/10 29/29/29
f 10/10/10 30/30/30 29/29/29
f 10/10/10 11/11/11 30/30/30
f 11/11/11 31/31/31 30/30/30
f 11/11/11 32/32/32 31/31/31
f 32/32/32 33/33/33 31/31/31
f 32/32/32 34/34/34 33/33/33
f 34/34/34 35/35/35 33/33/33
f 35/35/35 36/36/36 33/33/33
f 36/36/36 37/37/37 33/33/33
f 33/33/33 37/37/37 31/31/31
f 37/37/37 38/38/38 31/31/31
f 31/31/31 38/38/38 30/30/30
f 38/38/38 39/39/39 30/30/30
f 30/30/30 39/39/39 29/29/29
f 39/39/39 40/40/40 29/29/29
f 29/29/29 40/40/40 41/41/41
f 40/40/40 42/42/42 41/41/41
f 29/29/29 41/41/41 28/28/28
f 41/41/41 42/42/42 43/43/43
f 28/28/28 41/41/41 43/43/43
f 42/42/42 44/44/44 43/43/43
f 27/27/27 28/28/28 43/43/43
f 43/43/43 44/44/44 45/45/45
f 27/27/27 43/43/43 45/45/45
f 44/44/44 46/46/46 45/45/45
f 26/26/26 27/27/27 45/45/45
f 45/45/45 46/46/46 47/47/47
f 26/26/26 45/45/45 47/47/47
f 46/46/46 48/48/48 47/47/47
f 49/49/49 26/26/26 47/47/47
f 47/47/47 48/48/48 50/50/50
f 49/49/49 47/47/47 50/50/50
f 48/48/48 51/51/51 50/50/50
f 52/52/52 49/49/49 50/50/50
f 50/50/50 51/51/51 53/53/53
f 52/52/52 50/50/50 53/53/53
f 51/51/51 54/54/54 53/53/53
f 55/55/55 52/52/52 53/53/53
f 58/58/58 57/57/57 56/56/56
f 57/57/57 58/58/58 59/59/59
f 60/60/60 58/58/58 56/56/56
f 60/60/60 56/56/56 61/61/61
f 60/60/60 62/62/62 58/58/58
f 62/62/62 63/63/63 58/58/58
f 58/58/58 63/63/63 59/59/59
f 64/64/64 62/62/62 60/60/60
f 64/64/64 60/60/60 61/61/61
f 59/59/59 63/63/63 65/65/65
f 66/66/66 64/64/64 61/61/61
f 66/66/66 62/62/62 64/64/64
f 67/67/67 66/66/66 61/61/61
f 63/63/63 68/68/68 65/65/65
f 63/63/63 62/62/62 68/68/68
f 65/65/65 68/68/68 69/69/69
f 70/70/70 66/66/66 67/67/67
f 70/70/70 62/62/62 66/66/66
f 71/71/71 70/70/70 67/67/67
f 72/72/72 70/70/70 71/71/71
f 72/72/72 62/62/62 70/70/70
f 73/73/73 72/72/72 71/71/71
f 72/72/72 73/73/73 74/74/74
f 75/75/75 72/72/72 74/74/74
f 75/75/75 74/74/74 69/69/69
f 62/62/62 72/72/72 75/75/75
f 68/68/68 76/76/76 69/69/69
f 76/76/76 75/75/75 69/69/69
f 68/68/68 62/62/62 76/76/76
f 76/76/76 62/62/62 75/75/75
f 79/79/79 78/78/78 77/77/77
f 80/80/80 78/78/78 79/79/79
f 78/78/78 81/81/81 77/77/77
f 81/81/81 78/78/78 80/80/80
f 82/82/82 81/81/81 80/80/80
f 77/77/77 81/81/81 83/83/83
f 82/82/82 84/84/84 81/81/81
f 81/81/81 85/85/85 83/83/83
f 84/84/84 85/85/85 81/81/81
f 83/83/83 85/85/85 86/86/86
f 84/84/84 87/87/87 85/85/85
f 85/85/85 88/88/88 86/86/86
f 87/87/87 88/88/88 85/85/85
f 86/86/86 88/88/88 89/89/89
f 90/90/90 88/88/88 87/87/87
f 88/88/88 90/90/90 89/89/89
f 91/91/91 90/90/90 87/87/87
f 89/89/89 90/90/90 92/92/92
f 93/93/93 90/90/90 91/91/91
f 90/90/90 93/93/93 92/92/92
f 94/94/94 93/93/93 91/91/91
f 92/92/92 93/93/93 94/94/94
f 97/97/97 96/96/96 95/95/95
f 96/96/96 98/98/98 95/95/95
f 99/99/99 96/96/96 97/97/97
f 95/95/95 98/98/98 100/100/100
f 101/101/101 99/99/99 97/97/97
f 98/98/98 102/102/102 100/100/100
f 103/103/103 99/99/99 101/101/101
f 100/100/100 102/102/102 104/104/104
f 105/105/105 103/103/103 101/101/101
f 102/102/102 106/106/106 104/104/104
f 107/107/107 103/103/103 105/105/105
f 104/104/104 106/106/106 108/108/108
f 109/109/109 107/107/107 105/105/105
f 106/106/106 110/110/110 108/108/108
f 111/111/111 107/107/107 109/109/109
f 108/108/108 110/110/110 112/112/112
f 113/113/113 111/111/111 109/109/109
f 110/110/110 114/114/114 112/112/112
f 114/114/114 111/111/111 113/113/113
f 112/112/112 114/114/114 113/113/113
f 117/117/117 116/116/116 115/115/115
f 116/116/116 118/118/118 115/115/115
f 115/115/115 118/118/118 119/119/119
f 120/120/120 116/116/116 117/117/117
f 121/121/121 120/120/120 117/117/117
f 118/118/118 122/122/122 119/119/119
f 119/119/119 122/122/122 123/123/123
f 124/124/124 120/120/120 121/121/121
f 125/125/125 124/124/124 121/121/121
f 122/122/122 126/126/126 123/123/123
f 123/123/123 126/126/126 127/127/127
f 128/128/128 124/124/124 125/125/125
f 129/129/129 128/128/128 125/125/125
f 126/126/126 130/130/130 127/127/127
f 127/127/127 130/130/130 131/131/131
f 132/132/132 128/128/128 129/129/129
f 133/133/133 132/132/132 129/129/129
f 131/131/131 134/134/134 133/133/133
f 130/130/130 134/134/134 131/131/131
f 134/134/134 132/132/132 133/133/133
f 124/124/124 135/135/135 120/120/120
f 128/128/128 136/136/136 124/124/124
f 136/136/136 135/135/135 124/124/124
f 132/132/132 137/137/137 128/128/128
f 137/137/137 136/136/136 128/128/128
f 134/134/134 138/138/138 132/132/132
f 138/138/138 137/137/137 132/132/132
f 139/139/139 138/138/138 134/134/134
f 137/137/137 138/138/138 139/139/139
f 130/130/130 139/139/139 134/134/134
f 136/136/136 137/137/137 139/139/139
f 140/140/140 139/139/139 130/130/130
f 136/136/136 139/139/139 140/140/140
f 135/135/135 136/136/136 140/140/140
f 126/126/126 140/140/140 130/130/130
f 141/141/141 140/140/140 126/126/126
f 135/135/135 140/140/140 141/141/141
f 122/122/122 141/141/141 126/126/126
f 135/135/135 142/142/142 120/120/120
f 142/142/142 135/135/135 141/141/141
f 120/120/120 142/142/142 116/116/116
f 143/143/143 141/141/141 122/122/122
f 142/142/142 141/141/141 143/143/143
f 118/118/118 143/143/143 122/122/122
f 116/116/116 144/144/144 118/118/118
f 142/142/142 144/144/144 116/116/116
f 144/144/144 143/143/143 118/118/118
f 143/143/143 144/144/144 142/142/142
