g FracturedGround_cell.004
v 0.46801832 0.29067275 0.13259983
v 0.15437213 -0.047039084 0.2033307
v -0.84410524 -0.12101559 -0.18133181
v -0.38460293 -0.4006712 0.18677294
v -0.64271927 -0.5163177 0.14604157
v 0.89349496 1.0511466 -0.18133107
v 0.87885785 1.0639533 -0.16160703
v 0.88558376 1.1010966 -0.18133107
v 0.86632884 1.0273778 -0.14472368
v 0.8043219 0.48812264 -0.1813311
v 0.7077452 0.65819836 0.01188314
v 0.55230165 0.40600467 0.09861076
v 0.5455251 -0.019799829 -0.1813345
v 0.46801832 0.29067275 0.13259983
v 0.15437213 -0.047039084 0.2033307
v 0.14243624 -0.42288983 -0.18133104
v 0.14273489 -0.057427976 0.20465034
v 0.034061342 -0.13714889 0.2064395
v -0.22259083 -0.34803164 0.18677354
v -0.22796181 -0.3114746 0.19985616
v -0.25151852 -0.3294045 0.20063943
v -0.38460293 -0.4006712 0.18677294
v -0.36548266 -0.6816876 -0.18133107
v -0.64271927 -0.5163177 0.14604157
v -0.8496001 -0.68446916 -0.06573826
v -0.873343 -0.7621247 -0.1813311
v -0.7172711 -0.53959906 0.12809384
v -0.8160517 -0.56067055 0.09836286
v -0.84410524 -0.12101559 -0.18133181
v 0.88558376 1.1010966 -0.18133107
v 0.87885785 1.0639533 -0.16160703
v 0.86632884 1.0273778 -0.14472368
v 0.7077452 0.65819836 0.01188314
v 0.7077452 0.65819836 0.01188314
v 0.55230165 0.40600467 0.09861076
v -0.84410524 -0.12101559 -0.18133181
v 0.46801832 0.29067275 0.13259983
v 0.15437213 -0.047039084 0.2033307
v 0.14273489 -0.057427976 0.20465034
v -0.84410524 -0.12101559 -0.18133181
v 0.034061342 -0.13714889 0.2064395
v -0.22796181 -0.3114746 0.19985616
v -0.25151852 -0.3294045 0.20063943
v -0.38460293 -0.4006712 0.18677294
v -0.64271927 -0.5163177 0.14604157
v -0.7172711 -0.53959906 0.12809384
v -0.84410524 -0.12101559 -0.18133181
v -0.8160517 -0.56067055 0.09836286
v -0.8805356 -0.1468006 -0.18133196
v 0.8043219 0.48812264 -0.1813311
v 0.89349496 1.0511466 -0.18133107
v 0.88558376 1.1010966 -0.18133107
v -0.84410524 -0.12101559 -0.18133181
v 0.5455251 -0.019799829 -0.1813345
v 0.14243624 -0.42288983 -0.18133104
v -0.36548266 -0.6816876 -0.18133107
v -0.873343 -0.7621247 -0.1813311
v -0.8805356 -0.1468006 -0.18133196
v -0.8805356 -0.1468006 -0.18133196
v -0.8160517 -0.56067055 0.09836286
v -0.8496001 -0.68446916 -0.06573826
v -0.873343 -0.7621247 -0.1813311
vt 0.56164616 0.5328143
vt 0.4419314 0.100097485
vt 1 0.936213
vt 0.46317843 0.40626532
vt 0.6917306 0.40748364
vt 0.6559674 0.51835865
vt 0.65477824 0.5193991
vt 0.65532464 0.5224169
vt 0.6537603 0.5164276
vt 0.64872247 0.47261563
vt 0.64087605 0.48643348
vt 0.628247 0.46594393
vt 0.62769645 0.43134928
vt 0.6213994 0.45657375
vt 0.59591717 0.42913625
vt 0.59494746 0.39860013
vt 0.5949717 0.42829219
vt 0.5861425 0.42181525
vt 0.5652907 0.404682
vt 0.5648543 0.4076521
vt 0.5629405 0.40619537
vt 0.55212796 0.4004053
vt 0.5536814 0.37757406
vt 0.53115726 0.39100957
vt 0.51434916 0.377348
vt 0.5124201 0.37103885
vt 0.5251003 0.38911808
vt 0.5170748 0.3874061
vt 1 0.936213
vt 0.9464304 0.93630016
vt 0.94024116 0.91093016
vt 0.9287 0.88922065
vt 0.7825877 0.6878892
vt 0.7825877 0.6878892
vt 0.63933 0.57646066
vt 1 0.936213
vt 0.56164616 0.5328143
vt 0.4419314 0.100097485
vt 0.44023436 0.105434164
vt 1 0.936213
vt 0.4379288 0.16327116
vt 0.446374 0.3110012
vt 0.44536617 0.32323757
vt 0.46317843 0.40626532
vt 0.6917306 0.40748364
vt 0.5374309 0.37647432
vt 1 0.936213
vt 0.34845492 0.34845492
vt 0.9017992 0.9017992
vt 0.64872247 0.47261563
vt 0.6559674 0.51835865
vt 0.65532464 0.5224169
vt 0.5147955 0.423126
vt 0.62769645 0.43134928
vt 0.59494746 0.39860013
vt 0.5536814 0.37757406
vt 0.5124201 0.37103885
vt 0.51183563 0.42103094
vt 1 0.9017992
vt 1 0.34845492
vt 0.5094811 0.18239304
vt 0.1767344 0.07819907
vn -0.34501317 0.48823968 0.8016159
vn -0.34501317 0.48823968 0.8016159
vn -0.34501317 0.48823968 0.8016159
vn -0.34501317 0.48823968 0.8016159
vn -0.34501317 0.48823968 0.8016159
vn 0.89974 0 -0.43642622
vn 0.8211426 0.065249495 0.5669809
vn 0.51439637 0.08145501 -0.85367525
vn 0.8307418 -0.108588524 0.54596406
vn 0.8557031 -0.28550905 -0.43157494
vn 0.8010667 -0.18998171 0.5676257
vn 0.74522865 -0.34795442 0.56882507
vn 0.7321604 -0.5319226 -0.4254404
vn 0.7002303 -0.41359493 0.58190775
vn 0.6033439 -0.55326104 0.5743502
vn 0.5359528 -0.7256009 -0.43157613
vn 0.5481925 -0.6075225 0.5748055
vn 0.47023687 -0.62994283 0.6181014
vn 0.30216983 -0.57498026 0.7603229
vn 0.20713201 -0.30250368 0.93036973
vn 0.18577017 -0.38454154 0.90422195
vn 0.24293217 -0.74771833 0.61798155
vn 0.278032 -0.8557038 -0.43642783
vn 0.17954516 -0.8084873 0.5604568
vn 0.11691863 -0.8321335 0.5421106
vn 0.13117301 -0.8283005 -0.54471284
vn 0.099676564 -0.8284508 0.5511204
vn -0.011658357 -0.79710203 0.603732
vn -0.34501317 0.48823968 0.8016159
vn -0.34501317 0.48823968 0.8016159
vn -0.34501317 0.48823968 0.8016159
vn -0.34501317 0.48823968 0.8016159
vn -0.34501317 0.48823968 0.8016159
vn -0.34501317 0.48823968 0.8016159
vn -0.34501317 0.48823968 0.8016159
vn -0.34501317 0.48823968 0.8016159
vn -0.34501317 0.48823968 0.8016159
vn -0.34501317 0.48823968 0.8016159
vn -0.34501317 0.48823968 0.8016159
vn -0.34501317 0.48823968 0.8016159
vn -0.34501317 0.48823968 0.8016159
vn -0.34501317 0.48823968 0.8016159
vn -0.34501317 0.48823968 0.8016159
vn -0.34501317 0.48823968 0.8016159
vn -0.34501317 0.48823968 0.8016159
vn -0.34501317 0.48823968 0.8016159
vn -0.34501317 0.48823968 0.8016159
vn -0.34501317 0.48823968 0.8016159
vn -0.34501317 0.48823968 0.8016159
vn 0.8557031 -0.28550905 -0.43157494
vn 0.89974 0 -0.43642622
vn 0.51439637 0.08145501 -0.85367525
vn -0 0 -1
vn 0.7321604 -0.5319226 -0.4254404
vn 0.5359528 -0.7256009 -0.43157613
vn 0.278032 -0.8557038 -0.43642783
vn 0.13117301 -0.8283005 -0.54471284
vn -0 0 -1
vn -0.9779447 -0.011430816 0.20855108
vn -0.9779447 -0.011430816 0.20855108
vn -0.9779447 -0.011430816 0.20855108
vn -0.9779447 -0.011430816 0.20855108
g FracturedGround_cell.004_0
f 3/3/3 2/2/2 1/1/1
f 3/3/3 5/5/5 4/4/4
f 8/8/8 7/7/7 6/6/6
f 9/9/9 6/6/6 7/7/7
f 6/6/6 9/9/9 10/10/10
f 9/9/9 11/11/11 10/10/10
f 11/11/11 12/12/12 10/10/10
f 10/10/10 12/12/12 13/13/13
f 12/12/12 14/14/14 13/13/13
f 14/14/14 15/15/15 13/13/13
f 13/13/13 15/15/15 16/16/16
f 15/15/15 17/17/17 16/16/16
f 17/17/17 18/18/18 16/16/16
f 18/18/18 19/19/19 16/16/16
f 18/18/18 20/20/20 19/19/19
f 20/20/20 21/21/21 19/19/19
f 22/22/22 19/19/19 21/21/21
f 16/16/16 19/19/19 23/23/23
f 23/23/23 19/19/19 22/22/22
f 24/24/24 23/23/23 22/22/22
f 23/23/23 24/24/24 25/25/25
f 25/25/25 26/26/26 23/23/23
f 24/24/24 27/27/27 25/25/25
f 28/28/28 25/25/25 27/27/27
f 31/31/31 30/30/30 29/29/29
f 29/29/29 32/32/32 31/31/31
f 29/29/29 33/33/33 32/32/32
f 36/36/36 35/35/35 34/34/34
f 36/36/36 37/37/37 35/35/35
f 40/40/40 39/39/39 38/38/38
f 40/40/40 41/41/41 39/39/39
f 40/40/40 42/42/42 41/41/41
f 40/40/40 43/43/43 42/42/42
f 40/40/40 44/44/44 43/43/43
f 47/47/47 46/46/46 45/45/45
f 47/47/47 48/48/48 46/46/46
f 47/47/47 49/49/49 48/48/48
f 52/52/52 51/51/51 50/50/50
f 50/50/50 53/53/53 52/52/52
f 50/50/50 54/54/54 53/53/53
f 54/54/54 55/55/55 53/53/53
f 55/55/55 56/56/56 53/53/53
f 56/56/56 57/57/57 53/53/53
f 57/57/57 58/58/58 53/53/53
f 61/61/61 60/60/60 59/59/59
f 62/62/62 61/61/61 59/59/59
