g FracturedGround_cell.008
v -0.29448444 -0.46332276 -0.0974002
v -0.2818482 -0.5202987 -0.17139135
v -0.35002267 -0.49756718 -0.17139135
v -0.23473686 -0.5357149 -0.17139147
v -0.054885864 -0.42946327 0.059796713
v 0.052399516 -0.32686138 -0.17139198
v 0.052399516 -0.32686138 -0.17139198
v -0.054885864 -0.42946327 0.059796713
v -0.06787562 -0.32670343 0.19794804
v -0.059484124 -0.28853709 0.20869201
v 0.064311385 -0.28863013 -0.17139201
v 0.45433378 0.96693134 -0.17139252
v -0.054148674 -0.26815927 0.21180414
v -0.023088098 -0.16821243 0.21205115
v -0.06787562 -0.32670343 0.19794804
v 0.064311385 -0.28863013 -0.17139201
v 0.052399516 -0.32686138 -0.17139198
v -0.023088098 -0.16821243 0.21205115
v 0.0061683655 -0.073894784 0.2122153
v 0.45433378 0.96693134 -0.17139252
v 0.24341714 0.5563073 0.08501005
v 0.38390005 0.8403048 -0.07571307
v 0.45433378 0.96693134 -0.17139252
v 0.38390005 0.8403048 -0.07571307
v 0.42905045 0.92542756 -0.13327138
v 0.45433378 0.96693134 -0.17139252
v -0.29448444 -0.46332276 -0.0974002
v -0.35002267 -0.49756718 -0.17139135
v -0.26717174 0.025541052 -0.17139237
v -0.2258625 -0.42069256 -0.006052524
v -0.1916703 -0.39938796 0.039448515
v -0.059484124 -0.28853709 0.20869201
v -0.06787562 -0.32670343 0.19794804
v -0.054148674 -0.26815927 0.21180414
v -0.023088098 -0.16821243 0.21205115
v 0.0061683655 -0.073894784 0.2122153
v 0.07213974 0.17953204 0.19670962
v 0.08416581 0.16723374 0.2028001
v 0.088146925 0.18043312 0.20317098
v 0.103296876 0.22241661 0.19670984
v -0.008374453 0.5334639 -0.1713924
v 0.24341714 0.5563073 0.08501005
v 0.39471388 0.9365534 -0.17139243
v 0.38390005 0.8403048 -0.07571307
v 0.42905045 0.92542756 -0.13327138
v 0.45433378 0.96693134 -0.17139252
v -0.054885864 -0.42946327 0.059796713
v -0.23473686 -0.5357149 -0.17139147
v -0.26239532 -0.5266992 -0.17139141
v -0.2258625 -0.42069256 -0.006052524
v -0.1916703 -0.39938796 0.039448515
v -0.06787562 -0.32670343 0.19794804
v 0.064311385 -0.28863013 -0.17139201
v 0.45433378 0.96693134 -0.17139252
v 0.39471388 0.9365534 -0.17139243
v -0.008374453 0.5334639 -0.1713924
v 0.052399516 -0.32686138 -0.17139198
v -0.23473686 -0.5357149 -0.17139147
v -0.26717174 0.025541052 -0.17139237
v -0.26239532 -0.5266992 -0.17139141
v -0.2818482 -0.5202987 -0.17139135
v -0.35002267 -0.49756718 -0.17139135
v -0.2818482 -0.5202987 -0.17139135
v -0.29448444 -0.46332276 -0.0974002
v -0.2258625 -0.42069256 -0.006052524
v -0.26239532 -0.5266992 -0.17139141
v 0.0061683655 -0.073894784 0.2122153
v 0.08416581 0.16723374 0.2028001
v 0.45433378 0.96693134 -0.17139252
v 0.088146925 0.18043312 0.20317098
v 0.103296876 0.22241661 0.19670984
v 0.24341714 0.5563073 0.08501005
vt 1 0.15903437
vt 1 0.06386871
vt 0.4858367 0.063846186
vt 1 0.8231853
vt 1 0
vt 0.17912237 0
vt 0.8208776 0
vt 0 0
vt 0.27818307 0.27818307
vt 0.44119295 0.3509785
vt 0.064820886 0.064820886
vt 0.13513859 0.027241562
vt 0.53208876 0.38787085
vt 1 0.5575162
vt 0.27818307 0.27818307
vt 0.064820886 0.064820886
vt 0.8208776 0
vt 1 0.5575162
vt 0.58485585 0.51801115
vt 0.13513859 0.027241562
vt 0.6142667 0.07221451
vt 0.4871977 0.17189568
vt 0.13513859 0.027241562
vt 0.4871977 0.17189568
vt 0.26838422 0.07786143
vt 0.13513859 0.027241562
vt 0.36493376 0.52438384
vt 0.36042157 0.5216016
vt 0.3671528 0.56410176
vt 0.37050903 0.5278473
vt 0.37328696 0.5295782
vt 0.38402647 0.5385843
vt 0.38334468 0.5354835
vt 0.38445994 0.54023993
vt 0.38698345 0.5483601
vt 0.38936043 0.556023
vt 0.3947203 0.5766128
vt 0.39569736 0.5756136
vt 0.3960208 0.576686
vt 0.39725164 0.58009696
vt 0.3881789 0.605368
vt 0.40863577 0.607224
vt 0.4209279 0.63811713
vt 0.4200493 0.6302974
vt 0.4237176 0.6372132
vt 0.42577174 0.6405852
vt 0 0
vt 0.8231853 0.8231853
vt 1 0.93612874
vt 1 0.72346485
vt 0.84568864 0.56637096
vt 0.27818307 0
vt 0.39408433 0.53857684
vt 0.42577174 0.6405852
vt 0.4209279 0.63811713
vt 0.3881789 0.605368
vt 0.3931165 0.5354708
vt 0.36978805 0.51850235
vt 0.3671528 0.56410176
vt 0.36754093 0.5192348
vt 0.36596036 0.5197547
vt 0.36042157 0.5216016
vt 0.06386871 0.06386871
vt 0.15903437 0.15903437
vt 0.27653515 0
vt 0.06387128 0
vt 0.58485585 0.51801115
vt 0.64300233 0.40307528
vt 0.13513859 0.027241562
vt 0.6472441 0.39803973
vt 0.651608 0.3711942
vt 0.6142667 0.07221451
vn -0.26199466 -0.7857518 0.56031495
vn -0.26199466 -0.7857518 0.56031495
vn -0.26199466 -0.7857518 0.56031495
vn 0.5860617 -0.80573046 -0.0856168
vn 0.5860617 -0.80573046 -0.0856168
vn 0.5860617 -0.80573046 -0.0856168
vn 0.91192526 -0.28345138 0.29672834
vn 0.91192526 -0.28345138 0.29672834
vn 0.91192526 -0.28345138 0.29672834
vn 0.91192526 -0.28345138 0.29672834
vn 0.91192526 -0.28345138 0.29672834
vn 0.91192526 -0.28345138 0.29672834
vn 0.91192526 -0.28345138 0.29672834
vn 0.91192526 -0.28345138 0.29672834
vn 0.91192526 -0.28345138 0.29672834
vn 0.91192526 -0.28345138 0.29672834
vn 0.91192526 -0.28345138 0.29672834
vn 0.91192526 -0.28345138 0.29672834
vn 0.91192526 -0.28345138 0.29672834
vn 0.91192526 -0.28345138 0.29672834
vn 0.91192526 -0.28345138 0.29672834
vn 0.91192526 -0.28345138 0.29672834
vn 0.91192526 -0.28345138 0.29672834
vn 0.91192526 -0.28345138 0.29672834
vn 0.91192526 -0.28345138 0.29672834
vn 0.91192526 -0.28345138 0.29672834
vn -0.82093287 0.1300113 0.55602723
vn -0.63647306 0.10080415 -0.7646833
vn -0.8600965 0.2719885 -0.43157423
vn -0.82093287 0.1300113 0.55602723
vn -0.81993043 0.12470169 0.5587161
vn -0.81451726 0.098362215 0.5717399
vn -0.7881016 0 0.61554515
vn -0.80022436 0.16996375 0.5751116
vn -0.76169837 0.23521154 0.603731
vn -0.7553206 0.23408253 0.6121243
vn -0.5824276 0.2875515 0.76032376
vn -0.3451469 0.12323841 0.9304225
vn -0.37642732 0.19932275 0.9047501
vn -0.6271953 0.45567873 0.63165104
vn -0.7279161 0.52883863 -0.43642616
vn -0.6246065 0.5387254 0.56536865
vn -0.5244678 0.7339498 -0.4315682
vn -0.58175606 0.60537785 0.5432103
vn -0.42705426 0.688878 0.5857233
vn -0.409479 0.8036372 -0.43184972
vn -0.25650954 -0.7869217 0.5612104
vn -0.25650954 -0.7869217 0.5612104
vn -0.25650954 -0.7869217 0.5612104
vn -0.25650954 -0.7869217 0.5612104
vn -0.25650954 -0.7869217 0.5612104
vn -0.25650954 -0.7869217 0.5612104
vn -0 0 -1
vn -0.409479 0.8036372 -0.43184972
vn -0.5244678 0.7339498 -0.4315682
vn -0.7279161 0.52883863 -0.43642616
vn -0 0 -1
vn -0 0 -1
vn -0.8600965 0.2719885 -0.43157423
vn -0 0 -1
vn -0 0 -1
vn -0.63647306 0.10080415 -0.7646833
vn -0.2586769 -0.78620034 0.56122667
vn -0.2586769 -0.78620034 0.56122667
vn -0.2586769 -0.78620034 0.56122667
vn -0.2586769 -0.78620034 0.56122667
vn 0.91192526 -0.28345138 0.29672834
vn 0.91192526 -0.28345138 0.29672834
vn 0.91192526 -0.28345138 0.29672834
vn 0.91192526 -0.28345138 0.29672834
vn 0.91192526 -0.28345138 0.29672834
vn 0.91192526 -0.28345138 0.29672834
g FracturedGround_cell.008_0
f 3/3/3 2/2/2 1/1/1
f 6/6/6 5/5/5 4/4/4
f 9/9/9 8/8/8 7/7/7
f 11/11/11 10/10/10 9/9/9
f 11/11/11 12/12/12 10/10/10
f 12/12/12 13/13/13 10/10/10
f 12/12/12 14/14/14 13/13/13
f 17/17/17 16/16/16 15/15/15
f 20/20/20 19/19/19 18/18/18
f 23/23/23 22/22/22 21/21/21
f 26/26/26 25/25/25 24/24/24
f 29/29/29 28/28/28 27/27/27
f 27/27/27 30/30/30 29/29/29
f 30/30/30 31/31/31 29/29/29
f 31/31/31 32/32/32 29/29/29
f 33/33/33 32/32/32 31/31/31
f 32/32/32 34/34/34 29/29/29
f 29/29/29 34/34/34 35/35/35
f 35/35/35 36/36/36 29/29/29
f 36/36/36 37/37/37 29/29/29
f 36/36/36 38/38/38 37/37/37
f 38/38/38 39/39/39 37/37/37
f 40/40/40 37/37/37 39/39/39
f 29/29/29 37/37/37 41/41/41
f 41/41/41 37/37/37 40/40/40
f 42/42/42 41/41/41 40/40/40
f 41/41/41 42/42/42 43/43/43
f 42/42/42 44/44/44 43/43/43
f 44/44/44 45/45/45 43/43/43
f 46/46/46 43/43/43 45/45/45
f 49/49/49 48/48/48 47/47/47
f 47/47/47 50/50/50 49/49/49
f 47/47/47 51/51/51 50/50/50
f 47/47/47 52/52/52 51/51/51
f 55/55/55 54/54/54 53/53/53
f 53/53/53 56/56/56 55/55/55
f 53/53/53 57/57/57 56/56/56
f 57/57/57 58/58/58 56/56/56
f 58/58/58 59/59/59 56/56/56
f 58/58/58 60/60/60 59/59/59
f 60/60/60 61/61/61 59/59/59
f 61/61/61 62/62/62 59/59/59
f 65/65/65 64/64/64 63/63/63
f 66/66/66 65/65/65 63/63/63
f 69/69/69 68/68/68 67/67/67
f 69/69/69 70/70/70 68/68/68
f 69/69/69 71/71/71 70/70/70
f 69/69/69 72/72/72 71/71/71
