g FracturedGround_cell.003
v -0.09788892 -0.36006212 0.1816554
v -0.26160106 -0.48132133 -0.34191513
v -1.4815882 0.52485424 -0.3419146
v 1.2470635 -0.5550904 -0.3419144
v -0.26160106 -0.48132133 -0.34191513
v -0.09788892 -0.36006212 0.1816554
v -0.09788892 -0.36006212 0.1816554
v -0.0025898516 -0.36457646 0.18224487
v 0.78941655 -0.4250698 0.09360973
v -0.0025898516 -0.36457646 0.18224487
v 0.40010005 -0.38222706 0.19037709
v 0.78941655 -0.4250698 0.09360973
v -0.0025898516 -0.36457646 0.18224487
v 0.2794911 -0.37690163 0.18819037
v 0.40010005 -0.38222706 0.19037709
v 0.2794911 -0.37690163 0.18819037
v 0.36492693 -0.3806485 0.18986246
v 0.40010005 -0.38222706 0.19037709
v -1.0679517 0.73561263 -0.34191528
v -1.1882815 0.43753913 -0.026567072
v -1.4815882 0.52485424 -0.3419146
v -1.0961747 0.40114918 0.05418519
v -0.72561455 0.521551 0.05418443
v -0.80398726 0.20449206 0.14489183
v -0.5049206 0.82478774 -0.3419144
v -0.64697695 0.09668565 0.18929392
v -0.25361732 0.5496677 0.026188456
v 0.058111817 0.73561215 -0.34191442
v -0.465759 0.14459932 0.18809143
v -0.5029353 -0.024248779 0.18514234
v -0.24688044 -0.20304292 0.18307146
v -0.2780204 -0.21093422 0.18282893
v -0.25486526 -0.22761822 0.18775648
v -0.15660945 -0.31146383 0.18200642
v -0.09788892 -0.36006212 0.1816554
v -0.0025898516 -0.36457646 0.18224487
v 0.20100364 0.40195596 0.026190184
v 0.56603074 0.4768145 -0.34191445
v -0.116797745 0.19731748 0.17852166
v 0.1345366 -0.05044645 0.18809101
v 0.5663364 0.101771355 0.054184966
v 0.9691206 0.07372272 -0.34191442
v 0.38142356 -0.3532579 0.19059828
v 0.2794911 -0.37690163 0.18819037
v 0.36492693 -0.3806485 0.18986246
v 0.40010005 -0.38222706 0.19037709
v 0.8713262 -0.31800985 0.054183833
v 0.78941655 -0.4250698 0.09360973
v 0.9203932 -0.44315505 0.04622481
v 1.2279164 -0.4341979 -0.3419144
v 1.175864 -0.5258645 -0.23777682
v 1.2470635 -0.5550904 -0.3419144
v -0.26160106 -0.48132133 -0.34191513
v 1.2470635 -0.5550904 -0.3419144
v 1.2279164 -0.4341979 -0.3419144
v 0.9691206 0.07372272 -0.34191442
v 0.56603074 0.4768145 -0.34191445
v 0.058111817 0.73561215 -0.34191442
v -0.5049206 0.82478774 -0.3419144
v -1.4815882 0.52485424 -0.3419146
v -1.0679517 0.73561263 -0.34191528
v -0.25486526 -0.22761822 0.18775648
v -0.15660945 -0.31146383 0.18200642
v -0.2780204 -0.21093422 0.18282893
v -0.80398726 0.20449206 0.14489183
v -0.09788892 -0.36006212 0.1816554
v -0.5029353 -0.024248779 0.18514234
v -0.64697695 0.09668565 0.18929392
v -1.4815882 0.52485424 -0.3419146
v -1.1882815 0.43753913 -0.026567072
v -0.09788892 -0.36006212 0.1816554
v -1.0961747 0.40114918 0.05418519
v -0.80398726 0.20449206 0.14489183
v -0.09788892 -0.36006212 0.1816554
v 1.175864 -0.5258645 -0.23777682
v 1.2470635 -0.5550904 -0.3419144
v 0.9203932 -0.44315505 0.04622481
v 0.78941655 -0.4250698 0.09360973
vt 0.7369175 0
vt 0.06381495 0
vt 0.9863703 0.9010991
vt 0.93575364 0.9176292
vt 0.93618506 0
vt 0.26308247 0
vt 0.26308247 0
vt 0.26229772 0.05785279
vt 0.78827053 0.37606192
vt 0.26229772 0.05785279
vt 0.9419012 0.25174233
vt 0.78827053 0.37606192
vt 0.26229772 0.05785279
vt 0.25457412 0.22829454
vt 0.9419012 0.25174233
vt 0.25457412 0.22829454
vt 0.9676798 0.252408
vt 0.9419012 0.25174233
vt 0.46219403 0.6591433
vt 0.4524178 0.6349262
vt 0.428588 0.64202017
vt 0.45990103 0.6319697
vt 0.4900073 0.6417518
vt 0.48363996 0.6159923
vt 0.50793767 0.66638833
vt 0.49639627 0.6072335
vt 0.5283549 0.6440362
vt 0.5536814 0.65914327
vt 0.51111937 0.6111263
vt 0.50809896 0.5974082
vt 0.52890223 0.582882
vt 0.5263723 0.5822409
vt 0.5282535 0.58088535
vt 0.5362363 0.57407326
vt 0.54100704 0.57012486
vt 0.5487497 0.5697581
vt 0.5652907 0.6320353
vt 0.59494746 0.6381172
vt 0.5394708 0.6154094
vt 0.55989057 0.5952797
vt 0.59497225 0.6076467
vt 0.6276966 0.6053679
vt 0.57994896 0.5706777
vt 0.57166743 0.56875676
vt 0.5786087 0.56845236
vt 0.5814663 0.5683241
vt 0.6197513 0.57354146
vt 0.6130965 0.56484336
vt 0.6237377 0.563374
vt 0.64872247 0.56410176
vt 0.64449346 0.5566543
vt 0.6502781 0.5542798
vt 0.52770615 0.56027323
vt 0.6502781 0.5542798
vt 0.64872247 0.56410176
vt 0.6276966 0.6053679
vt 0.59494746 0.6381172
vt 0.5536814 0.65914327
vt 0.50793767 0.66638833
vt 0.428588 0.64202017
vt 0.46219403 0.6591433
vt 0.87515604 0.13034727
vt 0.7856507 0.04826459
vt 0.8865597 0.14808016
vt 0.51195127 0.1715062
vt 0.7369175 0
vt 0.31653643 0.21859688
vt 0.40799123 0.14669561
vt 0.9863703 0.9010991
vt 0.7718803 0.36463338
vt 0.7369175 0
vt 0.7061196 0.23471016
vt 0.51195127 0.1715062
vt 0.26308247 0
vt 0.9382585 0.80191815
vt 0.93575364 0.9176292
vt 0.75564647 0.43694565
vt 0.78827053 0.37606192
vn -0.5952641 -0.72161734 0.35345328
vn -0.5952641 -0.72161734 0.35345328
vn -0.5952641 -0.72161734 0.35345328
vn -0.047355916 -0.96973395 0.2395276
vn -0.047355916 -0.96973395 0.2395276
vn -0.047355916 -0.96973395 0.2395276
vn -0.047355916 -0.96973395 0.2395276
vn -0.047355916 -0.96973395 0.2395276
vn -0.047355916 -0.96973395 0.2395276
vn -0.047355916 -0.96973395 0.2395276
vn -0.047355916 -0.96973395 0.2395276
vn -0.047355916 -0.96973395 0.2395276
vn -0.047355916 -0.96973395 0.2395276
vn -0.047355916 -0.96973395 0.2395276
vn -0.047355916 -0.96973395 0.2395276
vn -0.047355916 -0.96973395 0.2395276
vn -0.047355916 -0.96973395 0.2395276
vn -0.047355916 -0.96973395 0.2395276
vn -0.27964622 0.8606988 -0.42543584
vn -0.2912814 0.74822456 0.5960831
vn -0.37690824 0.73971677 -0.5574579
vn -0.20731571 0.63806117 0.74155116
vn -0.092046216 0.5943329 0.7989343
vn -0.0799894 0.29239926 0.9529451
vn -0.007080421 0.9020517 -0.43156993
vn -0.046419732 0.20017555 0.9786598
vn 0.09348129 0.64277154 0.76033276
vn 0.278032 0.8557038 -0.43642783
vn -0.006897288 0.17328672 0.98484725
vn 0.0018006319 -0.01785372 0.99983895
vn 0.016632823 0.051210787 0.9985493
vn -0.019745518 0.04721223 0.9986897
vn 0.0807537 0.16126324 0.98360205
vn 0.0028383052 -0.007416217 0.9999685
vn -0.0068972358 -0.015564558 0.99985504
vn -0.012482309 -0.01312321 0.99983597
vn 0.30216983 0.57498026 0.7603229
vn 0.5359528 0.7256009 -0.43157613
vn 0.080600165 0.2481179 0.9653709
vn 0.10742723 0.13611518 0.9848513
vn 0.42381912 0.42671847 0.79892975
vn 0.7321604 0.5319226 -0.4254404
vn 0.11890067 0.0863983 0.98914003
vn -0.0213636 -0.009674659 0.9997249
vn -0.018555447 -0.015656158 0.99970526
vn 0.1756051 0.10571707 0.97876793
vn 0.5368038 0.2711944 0.7989339
vn 0.28477854 0.13175318 0.94949573
vn 0.63842916 0.20307413 0.74240774
vn 0.8557031 0.28550905 -0.43157494
vn 0.7799519 0.221906 0.58517754
vn 0.8269866 0.13095912 -0.5467567
vn -0 0 -1
vn 0.8269866 0.13095912 -0.5467567
vn 0.8557031 0.28550905 -0.43157494
vn 0.7321604 0.5319226 -0.4254404
vn 0.5359528 0.7256009 -0.43157613
vn 0.278032 0.8557038 -0.43642783
vn -0.007080421 0.9020517 -0.43156993
vn -0.37690824 0.73971677 -0.5574579
vn -0.27964622 0.8606988 -0.42543584
vn -0.5952641 -0.72161734 0.35345328
vn -0.5952641 -0.72161734 0.35345328
vn -0.5952641 -0.72161734 0.35345328
vn -0.5952641 -0.72161734 0.35345328
vn -0.5952641 -0.72161734 0.35345328
vn -0.5952641 -0.72161734 0.35345328
vn -0.5952641 -0.72161734 0.35345328
vn -0.5952641 -0.72161734 0.35345328
vn -0.5952641 -0.72161734 0.35345328
vn -0.5952641 -0.72161734 0.35345328
vn -0.5952641 -0.72161734 0.35345328
vn -0.5952641 -0.72161734 0.35345328
vn -0.047355916 -0.96973395 0.2395276
vn -0.047355916 -0.96973395 0.2395276
vn -0.047355916 -0.96973395 0.2395276
vn -0.047355916 -0.96973395 0.2395276
vn -0.047355916 -0.96973395 0.2395276
g FracturedGround_cell.003_0
f 3/3/3 2/2/2 1/1/1
f 6/6/6 5/5/5 4/4/4
f 9/9/9 8/8/8 7/7/7
f 12/12/12 11/11/11 10/10/10
f 15/15/15 14/14/14 13/13/13
f 18/18/18 17/17/17 16/16/16
f 21/21/21 20/20/20 19/19/19
f 20/20/20 22/22/22 19/19/19
f 22/22/22 23/23/23 19/19/19
f 22/22/22 24/24/24 23/23/23
f 19/19/19 23/23/23 25/25/25
f 24/24/24 26/26/26 23/23/23
f 23/23/23 27/27/27 25/25/25
f 25/25/25 27/27/27 28/28/28
f 26/26/26 29/29/29 23/23/23
f 23/23/23 29/29/29 27/27/27
f 26/26/26 30/30/30 29/29/29
f 29/29/29 30/30/30 31/31/31
f 30/30/30 32/32/32 31/31/31
f 32/32/32 33/33/33 31/31/31
f 34/34/34 31/31/31 33/33/33
f 31/31/31 34/34/34 35/35/35
f 31/31/31 35/35/35 36/36/36
f 28/28/28 27/27/27 37/37/37
f 28/28/28 37/37/37 38/38/38
f 29/29/29 39/39/39 27/27/27
f 29/29/29 31/31/31 39/39/39
f 27/27/27 39/39/39 37/37/37
f 39/39/39 31/31/31 40/40/40
f 36/36/36 40/40/40 31/31/31
f 39/39/39 40/40/40 37/37/37
f 37/37/37 41/41/41 38/38/38
f 37/37/37 40/40/40 41/41/41
f 38/38/38 41/41/41 42/42/42
f 40/40/40 36/36/36 43/43/43
f 40/40/40 43/43/43 41/41/41
f 36/36/36 44/44/44 43/43/43
f 45/45/45 43/43/43 44/44/44
f 46/46/46 43/43/43 45/45/45
f 41/41/41 47/47/47 42/42/42
f 41/41/41 43/43/43 47/47/47
f 43/43/43 46/46/46 47/47/47
f 46/46/46 48/48/48 47/47/47
f 49/49/49 47/47/47 48/48/48
f 42/42/42 47/47/47 50/50/50
f 47/47/47 49/49/49 50/50/50
f 49/49/49 51/51/51 50/50/50
f 52/52/52 50/50/50 51/51/51
f 55/55/55 54/54/54 53/53/53
f 53/53/53 56/56/56 55/55/55
f 53/53/53 57/57/57 56/56/56
f 53/53/53 58/58/58 57/57/57
f 53/53/53 59/59/59 58/58/58
f 53/53/53 60/60/60 59/59/59
f 60/60/60 61/61/61 59/59/59
f 64/64/64 63/63/63 62/62/62
f 63/63/63 64/64/64 65/65/65
f 66/66/66 63/63/63 65/65/65
f 64/64/64 67/67/67 65/65/65
f 67/67/67 68/68/68 65/65/65
f 71/71/71 70/70/70 69/69/69
f 71/71/71 72/72/72 70/70/70
f 71/71/71 73/73/73 72/72/72
f 76/76/76 75/75/75 74/74/74
f 75/75/75 77/77/77 74/74/74
f 77/77/77 78/78/78 74/74/74
