g FWGlacierChunk3Mesh
v 1.1269827 0.63942796 -0.8970232
v 1.3756883 0.49234992 -0.86090577
v 1.3916609 0.6365102 -0.7671071
v 0.8951655 0.3658083 -1.0612199
v 0.66200376 0.45326167 -1.0481441
v 0.566355 -0.14777893 -1.0751417
v 0.96495295 0.9808207 -0.6118758
v 1.0545666 0.13619518 -1.0294154
v 1.5109317 0.11097449 -0.7300261
v 1.3416376 -0.14401093 -0.8337467
v 1.6740282 -0.01246196 -0.39471984
v 1.0173744 -0.32365447 -0.97540903
v 0.14166036 0.9506187 -0.6569282
v 0.7433258 1.129925 -0.42376906
v 0.80731106 1.169158 -0.22961545
v -0.07139441 1.0999935 -0.30731192
v -0.2522887 0.88527757 -0.6292589
v -0.17716694 0.6117895 -0.9110931
v -0.44920814 0.5465345 -0.8256048
v 0.2923404 0.61510533 -0.94121265
v 0.17104003 0.37577152 -1.0224926
v -0.34177965 0.3186413 -1.0008585
v 0.14044507 0.010557294 -1.0673393
v -0.6784718 0.15384239 -0.89789236
v -0.96912307 0.015125036 -0.62418723
v -0.47985578 0.019239724 -1.020654
v -0.68403333 -0.26792052 -0.9538188
v -0.81940717 -0.42148042 -0.8341783
v -0.35363847 -0.5199571 -1.0194792
v -0.6997542 -0.6600308 -0.8748579
v -0.880766 -1.0056244 -0.556323
v -0.038942695 -0.79340047 -1.0268043
v -0.41382438 -0.9704238 -0.9502584
v -0.6841156 -1.0986009 -0.7849288
v -0.3407756 -1.355826 -0.8355354
v -0.7916456 -1.3215961 -0.6056792
v -0.98003167 -0.9940954 -0.3253439
v -0.65508044 -1.5819998 -0.5940118
v -0.8147767 -1.6479921 -0.28578815
v -0.71241456 -1.9386308 -0.26591766
v -0.49101007 -1.8718495 -0.59229636
v -0.15950084 -1.9223881 -0.7187603
v -0.27950507 -2.260089 -0.53424513
v 0.28734097 -1.5311894 -0.9109733
v 0.63379157 -1.7807 -0.7837935
v 0.58275163 -1.3260266 -0.9325589
v 0.842816 -1.4817052 -0.77981997
v 0.9676249 -1.7911489 -0.5081142
v 1.0661899 -1.5272458 -0.54783106
v 0.87567735 -0.8281827 -0.952469
v 1.0882913 -0.9100508 -0.82922363
v 1.2359462 -0.9952353 -0.661186
v 1.3898828 -0.866582 -0.4389718
v 1.3644054 -1.1383198 -0.088460624
v 1.4445171 -0.37409884 -0.66627765
v -0.71241456 -1.9386308 -0.26591766
v -0.46911657 -2.2629113 -0.33415478
v -0.49101007 -1.8718495 -0.59229636
v -0.27950507 -2.260089 -0.53424513
v -0.579824 -2.138741 -0.04732269
v -0.74025446 -1.8766437 -0.02637279
v -0.8147767 -1.6479921 -0.28578815
v -0.16997501 -2.4239757 -0.30985948
v -0.31540704 -2.3016636 -0.003771305
v 0.11043824 -2.3923469 -0.39523742
v 0.63379157 -1.7807 -0.7837935
v 0.06422223 -2.3126915 -0.024164766
v -0.8476202 -1.5034275 0.09334245
v -0.57488614 -1.6619384 0.1979799
v -0.63340485 -0.6045032 0.4178832
v -0.3272797 -2.104354 0.14499444
v 0.58721906 -1.7318347 0.36777905
v 0.09999764 -2.0367825 0.22052887
v -0.9220405 -1.4430583 -0.07917854
v -0.7916456 -1.3215961 -0.6056792
v -0.98003167 -0.9940954 -0.3253439
v -0.9711688 -0.91662145 0.029067397
v -0.7844475 -0.9264196 0.28413633
v -1.0528655 -0.710098 -0.2637202
v -0.880766 -1.0056244 -0.556323
v -0.92140657 -0.55270845 0.18838659
v -1.0622544 -0.20675889 -0.4421513
v -0.81940717 -0.42148042 -0.8341783
v -0.96912307 0.015125036 -0.62418723
v -1.0300121 -0.4685248 -0.028042108
v -1.0155647 0.108035505 -0.3108036
v -0.76624113 0.49267954 0.029398143
v -0.8768622 0.40792936 -0.28352472
v -0.44920814 0.5465345 -0.8256048
v -0.8076145 0.014999986 0.2161428
v -0.3973428 0.98486894 -0.27534983
v -0.2522887 0.88527757 -0.6292589
v -0.07139441 1.0999935 -0.30731192
v -0.7588472 -0.31293416 0.3445826
v -0.39745218 -0.160849 0.50886416
v -0.59338576 0.26000404 0.351644
v -0.61558926 0.78930694 -0.15986802
v -0.3148539 0.96979827 0.01975435
v -0.4177804 0.53317314 0.32668355
v 0.06314066 1.1295302 -0.026780933
v 0.80731106 1.169158 -0.22961545
v 0.035166487 -0.5592506 0.5627264
v 0.068790704 0.962635 0.24857053
v 0.58035797 0.9902652 0.27513394
v 0.77410644 1.1432791 -0.0052042007
v 0.8506133 0.66081303 0.3928965
v 1.2071648 -0.14015844 0.5750226
v 0.9325783 0.9393783 0.2189531
v 1.2045424 0.93907505 -0.05603677
v 1.2698431 0.86807865 -0.5429746
v 0.96495295 0.9808207 -0.6118758
v 1.1269827 0.63942796 -0.8970232
v 1.3916609 0.6365102 -0.7671071
v 1.5947597 0.26602525 -0.5520921
v 1.3756883 0.49234992 -0.86090577
v 1.5109317 0.11097449 -0.7300261
v 1.6740282 -0.01246196 -0.39471984
v 1.3261533 0.731258 0.074278355
v 1.2966135 0.50200826 0.29081616
v 1.65024 0.06559664 0.16539791
v 1.7028234 0.015566707 -0.038634136
v 1.1341815 0.32616365 0.46214518
v 1.6697481 -0.2919042 -0.019905359
v 1.3644054 -1.1383198 -0.088460624
v 1.6190455 -0.25789794 0.24728939
v 1.5503867 -0.07932043 0.36063215
v 1.4204755 -0.96444285 0.12171617
v 1.1767943 -0.5034169 0.5755365
v 1.3091142 -0.93144953 0.33171156
v 1.2436328 -1.3694367 0.103443146
v 1.0597965 -1.294956 0.39764538
v 1.0655903 -1.777684 -0.19214316
v 1.0661899 -1.5272458 -0.54783106
v 0.9676249 -1.7911489 -0.5081142
v 0.7308394 -2.1013181 -0.41781354
v 0.9832024 -1.7537727 0.19692159
v 0.49755612 -2.0206225 -0.6548273
v 0.44508442 -2.24896 -0.42385244
v 0.41650856 -2.258103 -0.1413572
v 0.64789605 -2.0912468 -0.015752226
v 0.8673566 -2.0137928 -0.14681938
v 0.91149944 -1.6061573 0.37984154
v 0.77385676 -1.1777864 0.53624153
v 0.959683 -0.7618743 0.6244339
v 0.7622874 -0.6260091 0.65214217
v 0.31255448 -0.35022444 0.6074759
vt 0.474261 0.8123535
vt 0.47583538 0.8415427
vt 0.48911303 0.8366524
vt 0.42538562 0.79614776
vt 0.41923806 0.7657621
vt 0.34292132 0.7868495
vt 0.51495063 0.7624384
vt 0.41125455 0.823927
vt 0.4408036 0.8866185
vt 0.3933175 0.878304
vt 0.43035328 0.9368042
vt 0.34873524 0.85015786
vt 0.4499002 0.65757465
vt 0.5249574 0.71797734
vt 0.54702795 0.71254075
vt 0.47532904 0.6086771
vt 0.4186836 0.6148018
vt 0.38037315 0.64555734
vt 0.35775718 0.6215881
vt 0.41337323 0.705601
vt 0.37889966 0.70360017
vt 0.33607993 0.6452097
vt 0.33311802 0.7234347
vt 0.2962199 0.6221891
vt 0.2623201 0.58199966
vt 0.2941574 0.6463324
vt 0.25039166 0.6418246
vt 0.2250334 0.6353519
vt 0.23441298 0.69498086
vt 0.19871743 0.6645983
vt 0.12841873 0.6632934
vt 0.21916585 0.75219405
vt 0.17518339 0.71646696
vt 0.14055525 0.6975676
vt 0.12687719 0.7518559
vt 0.09916556 0.69835943
vt 0.11212786 0.6354721
vt 0.07022511 0.73184603
vt 0.03118873 0.71375376
vt 0.00011055017 0.7485426
vt 0.038259737 0.77720475
vt 0.056378167 0.81900567
vt 0.00011055017 0.82711506
vt 0.14624494 0.84385115
vt 0.1343186 0.90128744
vt 0.18878649 0.8637146
vt 0.18295339 0.90571755
vt 0.14647935 0.9507652
vt 0.18657522 0.94254076
vt 0.27198768 0.8660751
vt 0.27416384 0.89602196
vt 0.27197012 0.92125875
vt 0.2999294 0.9455765
vt 0.2645381 0.9998895
vt 0.3685197 0.9109274
vt 0.062140312 0.23019867
vt 0.052154236 0.17133796
vt 0.00011055017 0.2122044
vt 0.037301462 0.13969299
vt 0.071381465 0.19645478
vt 0.080916315 0.23878369
vt 0.07588426 0.28105494
vt 0.06875078 0.14346653
vt 0.079195276 0.16787845
vt 0.08510374 0.118386455
vt 0.13028547 0.00011058321
vt 0.101100065 0.13983841
vt 0.11799008 0.29385868
vt 0.1168458 0.25255674
vt 0.24407992 0.35553214
vt 0.091968894 0.18230854
vt 0.21489787 0.1348614
vt 0.13773619 0.15559779
vt 0.11457013 0.30622908
vt 0.059941225 0.36160144
vt 0.13377318 0.39061242
vt 0.17248482 0.36743206
vt 0.19295846 0.3418359
vt 0.18053265 0.41751236
vt 0.10194707 0.41892785
vt 0.22440365 0.38800344
vt 0.23321083 0.48241934
vt 0.1727961 0.520584
vt 0.2541677 0.5197359
vt 0.21832022 0.41680983
vt 0.27659634 0.48571062
vt 0.3486562 0.45386067
vt 0.3237292 0.48518026
vt 0.37652966 0.5817786
vt 0.29867658 0.41210806
vt 0.42929575 0.48072353
vt 0.44114524 0.5377152
vt 0.4859968 0.4724426
vt 0.266889 0.3824714
vt 0.30682096 0.3589511
vt 0.33862686 0.40735447
vt 0.39026237 0.4693708
vt 0.43123484 0.446266
vt 0.37657827 0.41319117
vt 0.4812274 0.4221779
vt 0.58108497 0.34376252
vt 0.29918477 0.28516594
vt 0.45896026 0.39924094
vt 0.50287515 0.3431123
vt 0.54694253 0.33702645
vt 0.48946267 0.2902223
vt 0.42073274 0.19647399
vt 0.5245487 0.30240396
vt 0.5574112 0.27001134
vt 0.6193161 0.23600261
vt 0.6377602 0.2817878
vt 0.67690575 0.2017362
vt 0.64172196 0.17997886
vt 0.57938486 0.12816165
vt 0.6451994 0.16030425
vt 0.59118414 0.10262833
vt 0.5240336 0.1117485
vt 0.5344556 0.2445019
vt 0.49872044 0.23084527
vt 0.4723795 0.16801105
vt 0.4848558 0.14855455
vt 0.46344393 0.23501682
vt 0.4550485 0.13348712
vt 0.33620024 0.07573935
vt 0.44403145 0.15514919
vt 0.44988742 0.17130126
vt 0.36006522 0.105939545
vt 0.38571593 0.17815298
vt 0.35240352 0.12681982
vt 0.28974274 0.0892576
vt 0.2877576 0.12480397
vt 0.22233394 0.056492906
vt 0.24490802 0.00011055017
vt 0.19674894 0.020589553
vt 0.15746692 0.059587117
vt 0.23572046 0.099330045
vt 0.124384284 0.050796
vt 0.12281053 0.085386045
vt 0.1307374 0.10555977
vt 0.17133118 0.09559523
vt 0.18899584 0.07267531
vt 0.24613512 0.11781581
vt 0.28739378 0.15896961
vt 0.3435205 0.17925832
vt 0.34375435 0.20162642
vt 0.3367055 0.26807326
vn 0.23084797 0.5465091 -0.8050075
vn 0.6129582 0.20906013 -0.7619555
vn 0.69708717 0.54443055 -0.46654576
vn 0.15113264 0.18806125 -0.9704596
vn -0.0024720647 0.35905975 -0.9333112
vn 0.060641624 -0.051150158 -0.99684817
vn 0.22666597 0.795574 -0.5618582
vn 0.33662716 -0.042147063 -0.94069433
vn 0.7725052 -0.08951319 -0.62866765
vn 0.62728244 -0.13861617 -0.7663564
vn 0.96085024 -0.05514726 -0.27152473
vn 0.33174554 -0.13486508 -0.933679
vn -0.08020504 0.7744914 -0.6274793
vn 0.091587655 0.9179518 -0.38597435
vn 0.23304757 0.9711638 -0.050296284
vn -0.23527323 0.95107275 -0.20026761
vn -0.38463542 0.7411015 -0.5502945
vn -0.19721353 0.52242357 -0.8295664
vn -0.5483217 0.545697 -0.63368607
vn -0.01959336 0.5368337 -0.8434606
vn -0.072726935 0.23905586 -0.96827847
vn -0.24543676 0.28718725 -0.9258966
vn -0.0479764 0.038545925 -0.99810445
vn -0.60846114 0.3137678 -0.72892034
vn -0.8440043 0.25269774 -0.47307575
vn -0.26408264 0.09070307 -0.96022564
vn -0.49715355 -0.013214702 -0.86756194
vn -0.7402245 -0.09400064 -0.66575646
vn -0.1851615 -0.08490511 -0.9790334
vn -0.54592097 -0.18235004 -0.81775224
vn -0.8567899 -0.16538236 -0.48842573
vn -0.05591142 -0.13709286 -0.98897904
vn -0.2557785 -0.23038681 -0.93888193
vn -0.5857226 -0.2393613 -0.77436113
vn -0.28465718 -0.2925313 -0.9129051
vn -0.7802576 -0.28669876 -0.5558794
vn -0.96074396 -0.1959637 -0.19639096
vn -0.62922376 -0.36086443 -0.6883708
vn -0.9110954 -0.32924318 -0.24800059
vn -0.8531892 -0.44936174 -0.26484388
vn -0.5598489 -0.36721012 -0.74278253
vn -0.1621803 -0.39217484 -0.90548134
vn -0.30412766 -0.62900865 -0.7154401
vn -0.021241296 -0.29484504 -0.955309
vn 0.3105975 -0.4588615 -0.83245134
vn 0.19639027 -0.20997126 -0.95778024
vn 0.51297045 -0.31456366 -0.79869324
vn 0.72726697 -0.50087726 -0.46925962
vn 0.7895278 -0.37211874 -0.4880301
vn 0.2978035 -0.1665722 -0.9399823
vn 0.5473557 -0.24360153 -0.8006622
vn 0.7581609 -0.3152951 -0.5707723
vn 0.8986749 -0.3224377 -0.29735073
vn 0.9205508 -0.38271084 -0.078220725
vn 0.797182 -0.21384536 -0.56459814
vn -0.8531892 -0.44936174 -0.26484388
vn -0.6457925 -0.7173607 -0.26143
vn -0.5598489 -0.36721012 -0.74278253
vn -0.30412766 -0.62900865 -0.7154401
vn -0.6868016 -0.61709595 0.38405222
vn -0.8165075 -0.42738923 0.38814166
vn -0.9110954 -0.32924318 -0.24800059
vn -0.15619881 -0.98333836 -0.092992924
vn -0.2896905 -0.8083378 0.51251286
vn 0.17658177 -0.9244449 -0.3379652
vn 0.3105975 -0.4588615 -0.83245134
vn 0.13843575 -0.8437073 0.5186458
vn -0.7634189 -0.30858433 0.56742156
vn -0.3666858 -0.28590202 0.88532573
vn -0.3999221 -0.10690835 0.91029274
vn -0.27022004 -0.44277748 0.85494393
vn 0.065372914 -0.4751591 0.87746805
vn 0.01461863 -0.49944445 0.8662225
vn -0.94661397 -0.31623992 0.06256435
vn -0.7802576 -0.28669876 -0.5558794
vn -0.96074396 -0.1959637 -0.19639096
vn -0.9266883 -0.13639079 0.35020912
vn -0.5410498 -0.19279173 0.8185942
vn -0.9869113 -0.13702863 -0.08502489
vn -0.8567899 -0.16538236 -0.48842573
vn -0.7981354 -0.006134338 0.6024469
vn -0.9787032 0.02432338 -0.20383418
vn -0.7402245 -0.09400064 -0.66575646
vn -0.8440043 0.25269774 -0.47307575
vn -0.9505687 0.051973496 0.30613393
vn -0.9534091 0.29572773 0.059633844
vn -0.7808669 0.45162463 0.431604
vn -0.8495795 0.5150641 -0.11368216
vn -0.5483217 0.545697 -0.63368607
vn -0.7989978 0.21339163 0.5621978
vn -0.5431785 0.8276468 -0.1412728
vn -0.38463542 0.7411015 -0.5502945
vn -0.23527323 0.95107275 -0.20026761
vn -0.61935616 0.0725746 0.78174865
vn -0.24510062 0.10382671 0.9639221
vn -0.5142148 0.2879774 0.80786884
vn -0.74145603 0.6676919 0.06656167
vn -0.46626604 0.7758486 0.42503518
vn -0.36195832 0.42009747 0.8321684
vn -0.18076372 0.95274055 0.2441516
vn 0.23304757 0.9711638 -0.050296284
vn -0.16492654 -0.13593316 0.9768937
vn -0.17154862 0.6041588 0.77817947
vn 0.021058124 0.6350398 0.77219224
vn 0.19706005 0.92490345 0.32514754
vn 0.1266543 0.34984055 0.9282082
vn 0.29405275 0.13788588 0.9457909
vn 0.35774648 0.6477403 0.67264396
vn 0.6438305 0.7346247 0.21403028
vn 0.6476816 0.7181813 -0.25440928
vn 0.22666597 0.795574 -0.5618582
vn 0.23084797 0.5465091 -0.8050075
vn 0.69708717 0.54443055 -0.46654576
vn 0.934045 0.2657626 -0.23860036
vn 0.6129582 0.20906013 -0.7619555
vn 0.7725052 -0.08951319 -0.62866765
vn 0.96085024 -0.05514726 -0.27152473
vn 0.75422275 0.54656965 0.3638813
vn 0.55416876 0.43145078 0.7118617
vn 0.8895118 0.27653423 0.3637275
vn 0.9790166 0.18967511 0.0744967
vn 0.3026567 0.31428447 0.8997911
vn 0.9719178 -0.23490708 0.013947323
vn 0.9205508 -0.38271084 -0.078220725
vn 0.86742234 -0.17286187 0.46658057
vn 0.6911742 0.1021181 0.7154371
vn 0.8942125 -0.3567694 0.2703696
vn 0.44276994 -0.11960405 0.88862234
vn 0.7119733 -0.30558485 0.63222766
vn 0.84952563 -0.42775366 0.30876026
vn 0.56808805 -0.3269543 0.755233
vn 0.84571445 -0.5317951 -0.044283196
vn 0.7895278 -0.37211874 -0.4880301
vn 0.72726697 -0.50087726 -0.46925962
vn 0.5518831 -0.7752243 -0.3073308
vn 0.61088026 -0.61460364 0.49908695
vn 0.07587154 -0.5436138 -0.8358993
vn 0.38472834 -0.8586041 -0.33879656
vn 0.37501842 -0.8889597 0.26289132
vn 0.3917446 -0.8047611 0.44597727
vn 0.62265635 -0.7735442 0.11801843
vn 0.40160307 -0.4543709 0.7951491
vn 0.06360115 -0.26526934 0.96207434
vn 0.252759 -0.17359252 0.951829
vn -0.007049858 -0.040437497 0.9991572
vn -0.079349354 0.143073 0.9865261
g FWGlacierChunk3Mesh_0
f 3/3/3 2/2/2 1/1/1
f 1/1/1 2/2/2 4/4/4
f 4/4/4 5/5/5 1/1/1
f 5/5/5 4/4/4 6/6/6
f 5/5/5 7/7/7 1/1/1
f 4/4/4 2/2/2 8/8/8
f 4/4/4 8/8/8 6/6/6
f 8/8/8 2/2/2 9/9/9
f 10/10/10 8/8/8 9/9/9
f 11/11/11 10/10/10 9/9/9
f 6/6/6 8/8/8 12/12/12
f 8/8/8 10/10/10 12/12/12
f 13/13/13 7/7/7 5/5/5
f 13/13/13 14/14/14 7/7/7
f 15/15/15 7/7/7 14/14/14
f 14/14/14 16/16/16 15/15/15
f 13/13/13 16/16/16 14/14/14
f 16/16/16 13/13/13 17/17/17
f 18/18/18 17/17/17 13/13/13
f 19/19/19 17/17/17 18/18/18
f 13/13/13 5/5/5 20/20/20
f 13/13/13 20/20/20 18/18/18
f 21/21/21 20/20/20 5/5/5
f 20/20/20 21/21/21 18/18/18
f 22/22/22 19/19/19 18/18/18
f 21/21/21 22/22/22 18/18/18
f 5/5/5 23/23/23 21/21/21
f 23/23/23 22/22/22 21/21/21
f 5/5/5 6/6/6 23/23/23
f 22/22/22 24/24/24 19/19/19
f 19/19/19 24/24/24 25/25/25
f 26/26/26 24/24/24 22/22/22
f 23/23/23 26/26/26 22/22/22
f 25/25/25 24/24/24 27/27/27
f 27/27/27 24/24/24 26/26/26
f 27/27/27 28/28/28 25/25/25
f 26/26/26 23/23/23 29/29/29
f 27/27/27 26/26/26 29/29/29
f 30/30/30 28/28/28 27/27/27
f 30/30/30 27/27/27 29/29/29
f 31/31/31 28/28/28 30/30/30
f 32/32/32 29/29/29 23/23/23
f 32/32/32 23/23/23 6/6/6
f 29/29/29 33/33/33 30/30/30
f 33/33/33 29/29/29 32/32/32
f 34/34/34 31/31/31 30/30/30
f 33/33/33 34/34/34 30/30/30
f 35/35/35 33/33/33 32/32/32
f 34/34/34 33/33/33 35/35/35
f 31/31/31 34/34/34 36/36/36
f 36/36/36 37/37/37 31/31/31
f 38/38/38 36/36/36 34/34/34
f 35/35/35 38/38/38 34/34/34
f 38/38/38 39/39/39 36/36/36
f 39/39/39 38/38/38 40/40/40
f 38/38/38 41/41/41 40/40/40
f 38/38/38 35/35/35 41/41/41
f 35/35/35 42/42/42 41/41/41
f 41/41/41 42/42/42 43/43/43
f 35/35/35 44/44/44 42/42/42
f 43/43/43 42/42/42 44/44/44
f 32/32/32 44/44/44 35/35/35
f 45/45/45 43/43/43 44/44/44
f 46/46/46 44/44/44 32/32/32
f 44/44/44 46/46/46 45/45/45
f 32/32/32 6/6/6 46/46/46
f 46/46/46 47/47/47 45/45/45
f 48/48/48 45/45/45 47/47/47
f 49/49/49 48/48/48 47/47/47
f 6/6/6 50/50/50 46/46/46
f 46/46/46 50/50/50 47/47/47
f 6/6/6 12/12/12 50/50/50
f 12/12/12 51/51/51 50/50/50
f 50/50/50 51/51/51 47/47/47
f 10/10/10 51/51/51 12/12/12
f 51/51/51 52/52/52 47/47/47
f 52/52/52 49/49/49 47/47/47
f 51/51/51 10/10/10 52/52/52
f 52/52/52 53/53/53 49/49/49
f 54/54/54 49/49/49 53/53/53
f 11/11/11 54/54/54 53/53/53
f 55/55/55 10/10/10 11/11/11
f 10/10/10 55/55/55 52/52/52
f 52/52/52 55/55/55 53/53/53
f 55/55/55 11/11/11 53/53/53
f 58/58/58 57/57/57 56/56/56
f 59/59/59 57/57/57 58/58/58
f 56/56/56 57/57/57 60/60/60
f 61/61/61 56/56/56 60/60/60
f 62/62/62 56/56/56 61/61/61
f 59/59/59 63/63/63 57/57/57
f 60/60/60 57/57/57 64/64/64
f 57/57/57 63/63/63 64/64/64
f 63/63/63 59/59/59 65/65/65
f 65/65/65 59/59/59 66/66/66
f 64/64/64 63/63/63 67/67/67
f 63/63/63 65/65/65 67/67/67
f 68/68/68 62/62/62 61/61/61
f 69/69/69 61/61/61 60/60/60
f 61/61/61 69/69/69 68/68/68
f 70/70/70 68/68/68 69/69/69
f 69/69/69 71/71/71 70/70/70
f 71/71/71 69/69/69 60/60/60
f 64/64/64 71/71/71 60/60/60
f 72/72/72 70/70/70 71/71/71
f 72/72/72 71/71/71 73/73/73
f 71/71/71 64/64/64 73/73/73
f 67/67/67 73/73/73 64/64/64
f 73/73/73 67/67/67 72/72/72
f 68/68/68 74/74/74 62/62/62
f 75/75/75 62/62/62 74/74/74
f 76/76/76 75/75/75 74/74/74
f 77/77/77 74/74/74 68/68/68
f 76/76/76 74/74/74 77/77/77
f 68/68/68 70/70/70 78/78/78
f 78/78/78 77/77/77 68/68/68
f 76/76/76 77/77/77 79/79/79
f 79/79/79 80/80/80 76/76/76
f 78/78/78 81/81/81 77/77/77
f 78/78/78 70/70/70 81/81/81
f 80/80/80 79/79/79 82/82/82
f 82/82/82 83/83/83 80/80/80
f 82/82/82 84/84/84 83/83/83
f 79/79/79 77/77/77 85/85/85
f 79/79/79 85/85/85 82/82/82
f 85/85/85 77/77/77 81/81/81
f 86/86/86 84/84/84 82/82/82
f 82/82/82 85/85/85 86/86/86
f 86/86/86 85/85/85 87/87/87
f 88/88/88 84/84/84 86/86/86
f 87/87/87 88/88/88 86/86/86
f 84/84/84 88/88/88 89/89/89
f 85/85/85 81/81/81 90/90/90
f 85/85/85 90/90/90 87/87/87
f 91/91/91 89/89/89 88/88/88
f 92/92/92 89/89/89 91/91/91
f 91/91/91 93/93/93 92/92/92
f 94/94/94 90/90/90 81/81/81
f 81/81/81 70/70/70 94/94/94
f 95/95/95 94/94/94 70/70/70
f 90/90/90 94/94/94 96/96/96
f 96/96/96 87/87/87 90/90/90
f 96/96/96 94/94/94 95/95/95
f 88/88/88 97/97/97 91/91/91
f 88/88/88 87/87/87 97/97/97
f 91/91/91 97/97/97 98/98/98
f 93/93/93 91/91/91 98/98/98
f 97/97/97 87/87/87 98/98/98
f 99/99/99 87/87/87 96/96/96
f 95/95/95 99/99/99 96/96/96
f 98/98/98 87/87/87 99/99/99
f 93/93/93 98/98/98 100/100/100
f 93/93/93 100/100/100 101/101/101
f 70/70/70 102/102/102 95/95/95
f 70/70/70 72/72/72 102/102/102
f 103/103/103 98/98/98 99/99/99
f 103/103/103 100/100/100 98/98/98
f 103/103/103 99/99/99 104/104/104
f 104/104/104 100/100/100 103/103/103
f 101/101/101 100/100/100 105/105/105
f 105/105/105 100/100/100 104/104/104
f 106/106/106 104/104/104 99/99/99
f 106/106/106 99/99/99 95/95/95
f 95/95/95 107/107/107 106/106/106
f 105/105/105 104/104/104 108/108/108
f 106/106/106 108/108/108 104/104/104
f 101/101/101 105/105/105 109/109/109
f 105/105/105 108/108/108 109/109/109
f 101/101/101 109/109/109 110/110/110
f 111/111/111 101/101/101 110/110/110
f 112/112/112 111/111/111 110/110/110
f 112/112/112 110/110/110 113/113/113
f 110/110/110 114/114/114 113/113/113
f 113/113/113 114/114/114 115/115/115
f 114/114/114 116/116/116 115/115/115
f 116/116/116 114/114/114 117/117/117
f 110/110/110 109/109/109 118/118/118
f 108/108/108 118/118/118 109/109/109
f 114/114/114 110/110/110 118/118/118
f 119/119/119 108/108/108 106/106/106
f 118/118/118 108/108/108 119/119/119
f 114/114/114 118/118/118 120/120/120
f 118/118/118 119/119/119 120/120/120
f 114/114/114 121/121/121 117/117/117
f 120/120/120 121/121/121 114/114/114
f 122/122/122 119/119/119 106/106/106
f 107/107/107 122/122/122 106/106/106
f 122/122/122 107/107/107 119/119/119
f 123/123/123 117/117/117 121/121/121
f 123/123/123 124/124/124 117/117/117
f 120/120/120 125/125/125 121/121/121
f 125/125/125 123/123/123 121/121/121
f 119/119/119 126/126/126 120/120/120
f 107/107/107 126/126/126 119/119/119
f 125/125/125 120/120/120 126/126/126
f 124/124/124 123/123/123 127/127/127
f 127/127/127 123/123/123 125/125/125
f 128/128/128 125/125/125 126/126/126
f 107/107/107 128/128/128 126/126/126
f 125/125/125 129/129/129 127/127/127
f 128/128/128 129/129/129 125/125/125
f 130/130/130 124/124/124 127/127/127
f 127/127/127 129/129/129 130/130/130
f 129/129/129 128/128/128 131/131/131
f 129/129/129 131/131/131 130/130/130
f 132/132/132 124/124/124 130/130/130
f 132/132/132 133/133/133 124/124/124
f 133/133/133 132/132/132 134/134/134
f 132/132/132 135/135/135 134/134/134
f 66/66/66 134/134/134 135/135/135
f 136/136/136 132/132/132 130/130/130
f 130/130/130 131/131/131 136/136/136
f 66/66/66 135/135/135 137/137/137
f 137/137/137 65/65/65 66/66/66
f 65/65/65 137/137/137 138/138/138
f 138/138/138 137/137/137 135/135/135
f 139/139/139 65/65/65 138/138/138
f 139/139/139 138/138/138 135/135/135
f 67/67/67 65/65/65 139/139/139
f 67/67/67 139/139/139 140/140/140
f 135/135/135 140/140/140 139/139/139
f 72/72/72 67/67/67 140/140/140
f 72/72/72 140/140/140 136/136/136
f 135/135/135 132/132/132 141/141/141
f 141/141/141 140/140/140 135/135/135
f 140/140/140 141/141/141 136/136/136
f 136/136/136 141/141/141 132/132/132
f 72/72/72 136/136/136 142/142/142
f 131/131/131 142/142/142 136/136/136
f 142/142/142 143/143/143 72/72/72
f 131/131/131 143/143/143 142/142/142
f 143/143/143 102/102/102 72/72/72
f 144/144/144 143/143/143 131/131/131
f 128/128/128 144/144/144 131/131/131
f 144/144/144 145/145/145 143/143/143
f 128/128/128 145/145/145 144/144/144
f 143/143/143 145/145/145 102/102/102
f 128/128/128 107/107/107 145/145/145
f 145/145/145 146/146/146 102/102/102
f 145/145/145 107/107/107 146/146/146
f 146/146/146 95/95/95 102/102/102
f 95/95/95 146/146/146 107/107/107
