g GoldTotemRing
v -8.397693E-08 2.628061 -0.1265133
v 0.6801922 2.538512 0.1265133
v -8.397693E-08 2.628061 0.1265133
v 0.6801922 2.538512 -0.1265133
v 1.3140304 2.2759676 0.1265133
v 1.3140304 2.2759676 -0.1265133
v 1.8583198 1.85832 0.1265133
v 1.8583198 1.85832 -0.1265133
v 2.2759676 1.3140308 0.1265133
v 2.2759676 1.3140308 -0.1265133
v 2.5385118 0.68019253 0.1265133
v 2.5385118 0.68019253 -0.1265133
v 2.6280608 4.1115464E-07 0.1265133
v 2.6280608 4.1115464E-07 -0.1265133
v 2.538512 -0.68019176 0.1265133
v 2.538512 -0.68019176 -0.1265133
v 2.2759678 -1.3140299 0.1265133
v 2.2759678 -1.3140299 -0.1265133
v 1.8583201 -1.858319 0.1265133
v 1.8583201 -1.858319 -0.1265133
v 1.314031 -2.2759671 0.1265133
v 1.314031 -2.2759671 -0.1265133
v 0.680193 -2.5385118 0.1265133
v 0.680193 -2.5385118 -0.1265133
v 9.394278E-07 -2.628061 0.1265133
v 9.394278E-07 -2.628061 -0.1265133
v -0.6801913 -2.5385122 0.1265133
v -0.6801913 -2.5385122 -0.1265133
v -1.3140296 -2.275968 0.1265133
v -1.3140296 -2.275968 -0.1265133
v -1.8583188 -1.8583207 0.1265133
v -1.8583188 -1.8583207 -0.1265133
v -2.2759674 -1.3140311 0.1265133
v -2.2759674 -1.3140311 -0.1265133
v -2.5385118 -0.68019307 0.1265133
v -2.5385118 -0.68019307 -0.1265133
v -2.628061 -1.0090763E-06 0.1265133
v -2.628061 -1.0090763E-06 -0.1265133
v -2.5385125 0.6801911 0.1265133
v -2.5385125 0.6801911 -0.1265133
v -2.2759686 1.3140293 0.1265133
v -2.2759686 1.3140293 -0.1265133
v -1.8583212 1.8583188 0.1265133
v -1.8583212 1.8583188 -0.1265133
v -1.3140322 2.275967 0.1265133
v -1.3140322 2.275967 -0.1265133
v -0.6801942 2.5385115 0.1265133
v -0.6801942 2.5385115 -0.1265133
v -8.397693E-08 2.628061 0.1265133
v -8.397693E-08 2.628061 -0.1265133
v 0.6801922 2.538512 -0.1265133
v -8.397693E-08 2.628061 -0.1265133
v -7.180855E-08 2.1732776 -0.1046203
v 0.5624856 2.0992248 -0.1046203
v 1.3140304 2.2759676 -0.1265133
v 0.5624856 2.0992248 0.1046203
v -7.180855E-08 2.1732776 0.1046203
v -8.397693E-08 2.628061 0.1265133
v 0.6801922 2.538512 0.1265133
v 1.0866387 1.8821136 0.1046203
v 1.3140304 2.2759676 0.1265133
v 1.0866387 1.8821136 -0.1046203
v 1.8583198 1.85832 -0.1265133
v 1.5367393 1.5367395 0.1046203
v 1.8583198 1.85832 0.1265133
v 1.5367393 1.5367395 -0.1046203
v 2.2759676 1.3140308 -0.1265133
v 1.8821136 1.0866389 0.1046203
v 2.2759676 1.3140308 0.1265133
v 1.8821136 1.0866389 -0.1046203
v 2.5385118 0.68019253 -0.1265133
v 2.0992248 0.5624858 0.1046203
v 2.5385118 0.68019253 0.1265133
v 2.0992248 0.5624858 -0.1046203
v 2.6280608 4.1115464E-07 -0.1265133
v 2.1732774 3.0734208E-07 0.1046203
v 2.6280608 4.1115464E-07 0.1265133
v 2.1732774 3.0734208E-07 -0.1046203
v 2.538512 -0.68019176 -0.1265133
v 2.099225 -0.5624853 0.1046203
v 2.538512 -0.68019176 0.1265133
v 2.099225 -0.5624853 -0.1046203
v 2.2759678 -1.3140299 -0.1265133
v 1.8821138 -1.0866383 0.1046203
v 2.2759678 -1.3140299 0.1265133
v 1.8821138 -1.0866383 -0.1046203
v 1.8583201 -1.858319 -0.1265133
v 1.5367396 -1.5367388 0.1046203
v 1.8583201 -1.858319 0.1265133
v 1.5367396 -1.5367388 -0.1046203
v 1.314031 -2.2759671 -0.1265133
v 1.0866392 -1.8821132 0.1046203
v 1.314031 -2.2759671 0.1265133
v 1.0866392 -1.8821132 -0.1046203
v 0.680193 -2.5385118 -0.1265133
v 0.5624863 -2.0992248 0.1046203
v 0.680193 -2.5385118 0.1265133
v 0.5624863 -2.0992248 -0.1046203
v 9.394278E-07 -2.628061 -0.1265133
v 7.74497E-07 -2.1732776 0.1046203
v 9.394278E-07 -2.628061 0.1265133
v 7.74497E-07 -2.1732776 -0.1046203
v -0.6801913 -2.5385122 -0.1265133
v -0.56248486 -2.0992253 0.1046203
v -0.6801913 -2.5385122 0.1265133
v -0.56248486 -2.0992253 -0.1046203
v -1.3140296 -2.275968 -0.1265133
v -1.086638 -1.882114 0.1046203
v -1.3140296 -2.275968 0.1265133
v -1.086638 -1.882114 -0.1046203
v -1.8583188 -1.8583207 -0.1265133
v -1.5367385 -1.5367402 0.1046203
v -1.8583188 -1.8583207 0.1265133
v -1.5367385 -1.5367402 -0.1046203
v -2.2759674 -1.3140311 -0.1265133
v -1.8821135 -1.0866394 0.1046203
v -2.2759674 -1.3140311 0.1265133
v -1.8821135 -1.0866394 -0.1046203
v -2.5385118 -0.68019307 -0.1265133
v -2.0992248 -0.56248635 0.1046203
v -2.5385118 -0.68019307 0.1265133
v -2.0992248 -0.56248635 -0.1046203
v -2.628061 -1.0090763E-06 -0.1265133
v -2.1732776 -8.671193E-07 0.1046203
v -2.628061 -1.0090763E-06 0.1265133
v -2.1732776 -8.671193E-07 -0.1046203
v -2.5385125 0.6801911 -0.1265133
v -2.0992253 0.5624847 0.1046203
v -2.5385125 0.6801911 0.1265133
v -2.0992253 0.5624847 -0.1046203
v -2.2759686 1.3140293 -0.1265133
v -1.8821144 1.0866377 0.1046203
v -2.2759686 1.3140293 0.1265133
v -1.8821144 1.0866377 -0.1046203
v -1.8583212 1.8583188 -0.1265133
v -1.5367405 1.5367385 0.1046203
v -1.8583212 1.8583188 0.1265133
v -1.5367405 1.5367385 -0.1046203
v -1.3140322 2.275967 -0.1265133
v -1.0866402 1.882113 0.1046203
v -1.3140322 2.275967 0.1265133
v -1.0866402 1.882113 -0.1046203
v -0.6801942 2.5385115 -0.1265133
v -0.56248724 2.0992246 0.1046203
v -0.6801942 2.5385115 0.1265133
v -0.56248724 2.0992246 -0.1046203
v -8.397693E-08 2.628061 -0.1265133
v -7.180855E-08 2.1732776 -0.1046203
v -7.180855E-08 2.1732776 0.1046203
v -8.397693E-08 2.628061 0.1265133
vt 1.7378746 0.3433921
vt 1.6347185 0.6566073
vt 1.7378746 0.6566074
vt 1.6347185 0.343392
vt 1.5315622 0.6566073
vt 1.5315622 0.34339195
vt 1.428406 0.6566073
vt 1.428406 0.34339195
vt 1.3252499 0.6566073
vt 1.3252499 0.343392
vt 1.2220936 0.6566073
vt 1.2220936 0.343392
vt 1.1189373 0.6566074
vt 1.1189373 0.3433921
vt 1.0157812 0.6566074
vt 1.0157812 0.3433922
vt 0.91262496 0.6566075
vt 0.91262496 0.3433923
vt 0.8094686 0.6566077
vt 0.8094686 0.34339237
vt 0.70631254 0.6566077
vt 0.70631254 0.34339246
vt 0.60315627 0.6566078
vt 0.60315627 0.3433926
vt 0.5000001 0.656608
vt 0.5000001 0.34339267
vt 0.39684397 0.656608
vt 0.39684397 0.34339276
vt 0.29368776 0.656608
vt 0.29368776 0.34339276
vt 0.19053155 0.656608
vt 0.19053155 0.34339276
vt 0.08737522 0.656608
vt 0.08737522 0.34339276
vt -0.015780926 0.656608
vt -0.015780926 0.34339276
vt -0.118937194 0.6566078
vt -0.118937194 0.3433926
vt -0.22209328 0.6566078
vt -0.22209328 0.3433926
vt -0.32524955 0.6566077
vt -0.32524955 0.34339246
vt -0.4284058 0.6566077
vt -0.4284058 0.34339237
vt -0.53156185 0.6566075
vt -0.53156185 0.34339225
vt -0.63471806 0.6566074
vt -0.63471806 0.3433922
vt -0.7378746 0.6566074
vt -0.7378745 0.3433921
vt 1.6347185 0.343392
vt 1.7378746 0.3433921
vt 1.7378746 0.37049294
vt 1.6347185 0.37049285
vt 1.5315622 0.34339195
vt 1.6347185 0.6295066
vt 1.7378746 0.6295066
vt 1.7378746 0.6566074
vt 1.6347185 0.6566073
vt 1.5315622 0.6295066
vt 1.5315622 0.6566073
vt 1.5315622 0.37049285
vt 1.428406 0.34339195
vt 1.428406 0.6295064
vt 1.428406 0.6566073
vt 1.428406 0.37049285
vt 1.3252499 0.343392
vt 1.3252499 0.6295066
vt 1.3252499 0.6566073
vt 1.3252499 0.37049285
vt 1.2220936 0.343392
vt 1.2220936 0.6295066
vt 1.2220936 0.6566073
vt 1.2220936 0.37049285
vt 1.1189373 0.3433921
vt 1.1189373 0.6295066
vt 1.1189373 0.6566074
vt 1.1189373 0.37049294
vt 1.0157812 0.3433922
vt 1.0157812 0.6295067
vt 1.0157812 0.6566074
vt 1.0157812 0.370493
vt 0.91262496 0.3433923
vt 0.91262496 0.6295067
vt 0.91262496 0.6566075
vt 0.91262496 0.37049305
vt 0.8094686 0.34339237
vt 0.8094686 0.6295068
vt 0.8094686 0.6566077
vt 0.8094686 0.37049314
vt 0.70631254 0.34339246
vt 0.70631254 0.6295068
vt 0.70631254 0.6566077
vt 0.70631254 0.3704933
vt 0.60315627 0.3433926
vt 0.60315627 0.629507
vt 0.60315627 0.6566078
vt 0.60315627 0.37049335
vt 0.5000001 0.34339267
vt 0.5000001 0.629507
vt 0.5000001 0.656608
vt 0.5000001 0.3704934
vt 0.39684397 0.34339276
vt 0.39684397 0.6295072
vt 0.39684397 0.656608
vt 0.39684397 0.3704934
vt 0.29368776 0.34339276
vt 0.29368776 0.6295072
vt 0.29368776 0.656608
vt 0.29368776 0.3704935
vt 0.19053155 0.34339276
vt 0.19053155 0.6295072
vt 0.19053155 0.656608
vt 0.19053155 0.3704935
vt 0.08737522 0.34339276
vt 0.08737522 0.6295072
vt 0.08737522 0.656608
vt 0.08737522 0.3704935
vt -0.015780926 0.34339276
vt -0.015780926 0.6295072
vt -0.015780926 0.656608
vt -0.015780926 0.3704934
vt -0.118937194 0.3433926
vt -0.118937194 0.629507
vt -0.118937194 0.6566078
vt -0.118937194 0.3704934
vt -0.22209328 0.3433926
vt -0.22209328 0.629507
vt -0.22209328 0.6566078
vt -0.22209328 0.37049335
vt -0.32524955 0.34339246
vt -0.3252495 0.6295068
vt -0.32524955 0.6566077
vt -0.3252495 0.3704933
vt -0.4284058 0.34339237
vt -0.4284058 0.6295068
vt -0.4284058 0.6566077
vt -0.4284058 0.37049314
vt -0.53156185 0.34339225
vt -0.53156185 0.6295067
vt -0.53156185 0.6566075
vt -0.53156185 0.37049305
vt -0.63471806 0.3433922
vt -0.63471806 0.6295067
vt -0.63471806 0.6566074
vt -0.63471806 0.370493
vt -0.7378745 0.3433921
vt -0.7378745 0.37049294
vt -0.7378746 0.6295066
vt -0.7378746 0.6566074
vn -0 0.719029 -0.69498
vn 0.18607636 0.69452846 0.6949862
vn -0 0.719029 0.69498
vn 0.18607636 0.69452846 -0.6949862
vn 0.35951832 0.622687 0.6949874
vn 0.35951832 0.622687 -0.6949874
vn 0.50842386 0.50842386 0.69498944
vn 0.50842386 0.50842386 -0.69498944
vn 0.622687 0.35951832 0.6949874
vn 0.622687 0.35951832 -0.6949874
vn 0.69452846 0.18607636 0.6949862
vn 0.69452846 0.18607636 -0.6949862
vn 0.719029 0 0.69498
vn 0.719029 0 -0.69498
vn 0.69452846 -0.18607636 0.6949862
vn 0.69452846 -0.18607636 -0.6949862
vn 0.622687 -0.35951832 0.6949874
vn 0.622687 -0.35951832 -0.6949874
vn 0.50842386 -0.50842386 0.69498944
vn 0.50842386 -0.50842386 -0.69498944
vn 0.35951832 -0.622687 0.6949874
vn 0.35951832 -0.622687 -0.6949874
vn 0.18607636 -0.69452846 0.6949862
vn 0.18607636 -0.69452846 -0.6949862
vn -0 -0.719029 0.69498
vn -0 -0.719029 -0.69498
vn -0.18607636 -0.69452846 0.6949862
vn -0.18607636 -0.69452846 -0.6949862
vn -0.35951832 -0.622687 0.6949874
vn -0.35951832 -0.622687 -0.6949874
vn -0.50842386 -0.50842386 0.69498944
vn -0.50842386 -0.50842386 -0.69498944
vn -0.622687 -0.35951832 0.6949874
vn -0.622687 -0.35951832 -0.6949874
vn -0.69452846 -0.18607636 0.6949862
vn -0.69452846 -0.18607636 -0.6949862
vn -0.719029 0 0.69498
vn -0.719029 0 -0.69498
vn -0.69452846 0.18607636 0.6949862
vn -0.69452846 0.18607636 -0.6949862
vn -0.622687 0.35951832 0.6949874
vn -0.622687 0.35951832 -0.6949874
vn -0.50842386 0.50842386 0.69498944
vn -0.50842386 0.50842386 -0.69498944
vn -0.35951832 0.622687 0.6949874
vn -0.35951832 0.622687 -0.6949874
vn -0.18607636 0.69452846 0.6949862
vn -0.18607636 0.69452846 -0.6949862
vn -0 0.719029 0.69498
vn -0 0.719029 -0.69498
vn 0.18607636 0.69452846 -0.6949862
vn -0 0.719029 -0.69498
vn -0 -0.6942191 -0.71976364
vn -0.1796663 -0.670567 -0.7197638
vn 0.35951832 0.622687 -0.6949874
vn -0.1796663 -0.670567 0.7197638
vn -0 -0.6942191 0.71976364
vn -0 0.719029 0.69498
vn 0.18607636 0.69452846 0.6949862
vn -0.34709918 -0.6012052 0.71977377
vn 0.35951832 0.622687 0.6949874
vn -0.34709918 -0.6012052 -0.71977377
vn 0.50842386 0.50842386 -0.69498944
vn -0.49087828 -0.49087828 0.71977574
vn 0.50842386 0.50842386 0.69498944
vn -0.49087828 -0.49087828 -0.71977574
vn 0.622687 0.35951832 -0.6949874
vn -0.6012052 -0.34709918 0.71977377
vn 0.622687 0.35951832 0.6949874
vn -0.6012052 -0.34709918 -0.71977377
vn 0.69452846 0.18607636 -0.6949862
vn -0.670567 -0.1796663 0.7197638
vn 0.69452846 0.18607636 0.6949862
vn -0.670567 -0.1796663 -0.7197638
vn 0.719029 0 -0.69498
vn -0.6942191 0 0.71976364
vn 0.719029 0 0.69498
vn -0.6942191 0 -0.71976364
vn 0.69452846 -0.18607636 -0.6949862
vn -0.670567 0.1796663 0.7197638
vn 0.69452846 -0.18607636 0.6949862
vn -0.670567 0.1796663 -0.7197638
vn 0.622687 -0.35951832 -0.6949874
vn -0.6012052 0.34709918 0.71977377
vn 0.622687 -0.35951832 0.6949874
vn -0.6012052 0.34709918 -0.71977377
vn 0.50842386 -0.50842386 -0.69498944
vn -0.49087828 0.49087828 0.71977574
vn 0.50842386 -0.50842386 0.69498944
vn -0.49087828 0.49087828 -0.71977574
vn 0.35951832 -0.622687 -0.6949874
vn -0.34709918 0.6012052 0.71977377
vn 0.35951832 -0.622687 0.6949874
vn -0.34709918 0.6012052 -0.71977377
vn 0.18607636 -0.69452846 -0.6949862
vn -0.1796663 0.670567 0.7197638
vn 0.18607636 -0.69452846 0.6949862
vn -0.1796663 0.670567 -0.7197638
vn -0 -0.719029 -0.69498
vn -0 0.6942191 0.71976364
vn -0 -0.719029 0.69498
vn -0 0.6942191 -0.71976364
vn -0.18607636 -0.69452846 -0.6949862
vn 0.1796663 0.670567 0.7197638
vn -0.18607636 -0.69452846 0.6949862
vn 0.1796663 0.670567 -0.7197638
vn -0.35951832 -0.622687 -0.6949874
vn 0.34709918 0.6012052 0.71977377
vn -0.35951832 -0.622687 0.6949874
vn 0.34709918 0.6012052 -0.71977377
vn -0.50842386 -0.50842386 -0.69498944
vn 0.49087828 0.49087828 0.71977574
vn -0.50842386 -0.50842386 0.69498944
vn 0.49087828 0.49087828 -0.71977574
vn -0.622687 -0.35951832 -0.6949874
vn 0.6012052 0.34709918 0.71977377
vn -0.622687 -0.35951832 0.6949874
vn 0.6012052 0.34709918 -0.71977377
vn -0.69452846 -0.18607636 -0.6949862
vn 0.670567 0.1796663 0.7197638
vn -0.69452846 -0.18607636 0.6949862
vn 0.670567 0.1796663 -0.7197638
vn -0.719029 0 -0.69498
vn 0.6942191 0 0.71976364
vn -0.719029 0 0.69498
vn 0.6942191 0 -0.71976364
vn -0.69452846 0.18607636 -0.6949862
vn 0.670567 -0.1796663 0.7197638
vn -0.69452846 0.18607636 0.6949862
vn 0.670567 -0.1796663 -0.7197638
vn -0.622687 0.35951832 -0.6949874
vn 0.6012052 -0.34709918 0.71977377
vn -0.622687 0.35951832 0.6949874
vn 0.6012052 -0.34709918 -0.71977377
vn -0.50842386 0.50842386 -0.69498944
vn 0.49087828 -0.49087828 0.71977574
vn -0.50842386 0.50842386 0.69498944
vn 0.49087828 -0.49087828 -0.71977574
vn -0.35951832 0.622687 -0.6949874
vn 0.34709918 -0.6012052 0.71977377
vn -0.35951832 0.622687 0.6949874
vn 0.34709918 -0.6012052 -0.71977377
vn -0.18607636 0.69452846 -0.6949862
vn 0.1796663 -0.670567 0.7197638
vn -0.18607636 0.69452846 0.6949862
vn 0.1796663 -0.670567 -0.7197638
vn -0 0.719029 -0.69498
vn -0 -0.6942191 -0.71976364
vn -0 -0.6942191 0.71976364
vn -0 0.719029 0.69498
g GoldTotemRing_0
f 3/3/3 2/2/2 1/1/1
f 2/2/2 4/4/4 1/1/1
f 2/2/2 5/5/5 4/4/4
f 5/5/5 6/6/6 4/4/4
f 5/5/5 7/7/7 6/6/6
f 7/7/7 8/8/8 6/6/6
f 7/7/7 9/9/9 8/8/8
f 9/9/9 10/10/10 8/8/8
f 9/9/9 11/11/11 10/10/10
f 11/11/11 12/12/12 10/10/10
f 11/11/11 13/13/13 12/12/12
f 13/13/13 14/14/14 12/12/12
f 13/13/13 15/15/15 14/14/14
f 15/15/15 16/16/16 14/14/14
f 15/15/15 17/17/17 16/16/16
f 17/17/17 18/18/18 16/16/16
f 17/17/17 19/19/19 18/18/18
f 19/19/19 20/20/20 18/18/18
f 19/19/19 21/21/21 20/20/20
f 21/21/21 22/22/22 20/20/20
f 21/21/21 23/23/23 22/22/22
f 23/23/23 24/24/24 22/22/22
f 23/23/23 25/25/25 24/24/24
f 25/25/25 26/26/26 24/24/24
f 25/25/25 27/27/27 26/26/26
f 27/27/27 28/28/28 26/26/26
f 27/27/27 29/29/29 28/28/28
f 29/29/29 30/30/30 28/28/28
f 29/29/29 31/31/31 30/30/30
f 31/31/31 32/32/32 30/30/30
f 31/31/31 33/33/33 32/32/32
f 33/33/33 34/34/34 32/32/32
f 33/33/33 35/35/35 34/34/34
f 35/35/35 36/36/36 34/34/34
f 35/35/35 37/37/37 36/36/36
f 37/37/37 38/38/38 36/36/36
f 37/37/37 39/39/39 38/38/38
f 39/39/39 40/40/40 38/38/38
f 39/39/39 41/41/41 40/40/40
f 41/41/41 42/42/42 40/40/40
f 41/41/41 43/43/43 42/42/42
f 43/43/43 44/44/44 42/42/42
f 43/43/43 45/45/45 44/44/44
f 45/45/45 46/46/46 44/44/44
f 45/45/45 47/47/47 46/46/46
f 47/47/47 48/48/48 46/46/46
f 47/47/47 49/49/49 48/48/48
f 49/49/49 50/50/50 48/48/48
f 53/53/53 52/52/52 51/51/51
f 54/54/54 53/53/53 51/51/51
f 54/54/54 51/51/51 55/55/55
f 54/54/54 56/56/56 53/53/53
f 56/56/56 57/57/57 53/53/53
f 57/57/57 56/56/56 58/58/58
f 56/56/56 59/59/59 58/58/58
f 56/56/56 60/60/60 59/59/59
f 60/60/60 56/56/56 54/54/54
f 60/60/60 61/61/61 59/59/59
f 62/62/62 54/54/54 55/55/55
f 62/62/62 60/60/60 54/54/54
f 62/62/62 55/55/55 63/63/63
f 60/60/60 64/64/64 61/61/61
f 64/64/64 60/60/60 62/62/62
f 64/64/64 65/65/65 61/61/61
f 66/66/66 62/62/62 63/63/63
f 66/66/66 64/64/64 62/62/62
f 66/66/66 63/63/63 67/67/67
f 64/64/64 68/68/68 65/65/65
f 68/68/68 64/64/64 66/66/66
f 68/68/68 69/69/69 65/65/65
f 70/70/70 66/66/66 67/67/67
f 70/70/70 68/68/68 66/66/66
f 70/70/70 67/67/67 71/71/71
f 68/68/68 72/72/72 69/69/69
f 72/72/72 68/68/68 70/70/70
f 72/72/72 73/73/73 69/69/69
f 74/74/74 70/70/70 71/71/71
f 74/74/74 72/72/72 70/70/70
f 74/74/74 71/71/71 75/75/75
f 72/72/72 76/76/76 73/73/73
f 76/76/76 72/72/72 74/74/74
f 76/76/76 77/77/77 73/73/73
f 78/78/78 74/74/74 75/75/75
f 78/78/78 76/76/76 74/74/74
f 78/78/78 75/75/75 79/79/79
f 76/76/76 80/80/80 77/77/77
f 80/80/80 76/76/76 78/78/78
f 80/80/80 81/81/81 77/77/77
f 82/82/82 78/78/78 79/79/79
f 82/82/82 80/80/80 78/78/78
f 82/82/82 79/79/79 83/83/83
f 80/80/80 84/84/84 81/81/81
f 84/84/84 80/80/80 82/82/82
f 84/84/84 85/85/85 81/81/81
f 86/86/86 82/82/82 83/83/83
f 86/86/86 84/84/84 82/82/82
f 86/86/86 83/83/83 87/87/87
f 84/84/84 88/88/88 85/85/85
f 88/88/88 84/84/84 86/86/86
f 88/88/88 89/89/89 85/85/85
f 90/90/90 86/86/86 87/87/87
f 90/90/90 88/88/88 86/86/86
f 90/90/90 87/87/87 91/91/91
f 88/88/88 92/92/92 89/89/89
f 92/92/92 88/88/88 90/90/90
f 92/92/92 93/93/93 89/89/89
f 94/94/94 90/90/90 91/91/91
f 94/94/94 92/92/92 90/90/90
f 94/94/94 91/91/91 95/95/95
f 92/92/92 96/96/96 93/93/93
f 96/96/96 92/92/92 94/94/94
f 96/96/96 97/97/97 93/93/93
f 98/98/98 94/94/94 95/95/95
f 98/98/98 96/96/96 94/94/94
f 98/98/98 95/95/95 99/99/99
f 96/96/96 100/100/100 97/97/97
f 100/100/100 96/96/96 98/98/98
f 100/100/100 101/101/101 97/97/97
f 102/102/102 98/98/98 99/99/99
f 102/102/102 100/100/100 98/98/98
f 102/102/102 99/99/99 103/103/103
f 100/100/100 104/104/104 101/101/101
f 104/104/104 100/100/100 102/102/102
f 104/104/104 105/105/105 101/101/101
f 106/106/106 102/102/102 103/103/103
f 106/106/106 104/104/104 102/102/102
f 106/106/106 103/103/103 107/107/107
f 104/104/104 108/108/108 105/105/105
f 108/108/108 104/104/104 106/106/106
f 108/108/108 109/109/109 105/105/105
f 110/110/110 106/106/106 107/107/107
f 110/110/110 108/108/108 106/106/106
f 110/110/110 107/107/107 111/111/111
f 108/108/108 112/112/112 109/109/109
f 112/112/112 108/108/108 110/110/110
f 112/112/112 113/113/113 109/109/109
f 114/114/114 110/110/110 111/111/111
f 114/114/114 112/112/112 110/110/110
f 114/114/114 111/111/111 115/115/115
f 112/112/112 116/116/116 113/113/113
f 116/116/116 112/112/112 114/114/114
f 116/116/116 117/117/117 113/113/113
f 118/118/118 114/114/114 115/115/115
f 118/118/118 116/116/116 114/114/114
f 118/118/118 115/115/115 119/119/119
f 116/116/116 120/120/120 117/117/117
f 120/120/120 116/116/116 118/118/118
f 120/120/120 121/121/121 117/117/117
f 122/122/122 118/118/118 119/119/119
f 122/122/122 120/120/120 118/118/118
f 122/122/122 119/119/119 123/123/123
f 120/120/120 124/124/124 121/121/121
f 124/124/124 120/120/120 122/122/122
f 124/124/124 125/125/125 121/121/121
f 126/126/126 122/122/122 123/123/123
f 126/126/126 124/124/124 122/122/122
f 126/126/126 123/123/123 127/127/127
f 124/124/124 128/128/128 125/125/125
f 128/128/128 124/124/124 126/126/126
f 128/128/128 129/129/129 125/125/125
f 130/130/130 126/126/126 127/127/127
f 130/130/130 128/128/128 126/126/126
f 130/130/130 127/127/127 131/131/131
f 128/128/128 132/132/132 129/129/129
f 132/132/132 128/128/128 130/130/130
f 132/132/132 133/133/133 129/129/129
f 134/134/134 130/130/130 131/131/131
f 134/134/134 132/132/132 130/130/130
f 134/134/134 131/131/131 135/135/135
f 132/132/132 136/136/136 133/133/133
f 136/136/136 132/132/132 134/134/134
f 136/136/136 137/137/137 133/133/133
f 138/138/138 134/134/134 135/135/135
f 138/138/138 136/136/136 134/134/134
f 138/138/138 135/135/135 139/139/139
f 136/136/136 140/140/140 137/137/137
f 140/140/140 136/136/136 138/138/138
f 140/140/140 141/141/141 137/137/137
f 142/142/142 138/138/138 139/139/139
f 142/142/142 140/140/140 138/138/138
f 142/142/142 139/139/139 143/143/143
f 140/140/140 144/144/144 141/141/141
f 144/144/144 140/140/140 142/142/142
f 144/144/144 145/145/145 141/141/141
f 146/146/146 142/142/142 143/143/143
f 146/146/146 144/144/144 142/142/142
f 146/146/146 143/143/143 147/147/147
f 148/148/148 146/146/146 147/147/147
f 148/148/148 149/149/149 146/146/146
f 149/149/149 144/144/144 146/146/146
f 144/144/144 149/149/149 145/145/145
f 149/149/149 150/150/150 145/145/145
