g GPRuinBlockQuarter__1_
v -0.46170935 0.40536925 1
v -0.3017884 0.24544828 1
v -0.3017884 -0.26816386 1
v -0.46170935 -0.4280848 1
v 0.45813262 -0.42029464 1
v 0.29821163 -0.2603737 1
v 0.29821163 0.24544828 1
v 0.45813262 0.40536925 1
v -0.4546994 0.4925373 -2.0120643E-10
v 0.4511226 0.4925373 -2.0120643E-10
v 0.4511226 0.4925373 0.959921
v -0.4546994 0.4925373 0.959921
v 0.4511226 -0.5074626 -2.0120643E-10
v -0.46248946 -0.5074626 -2.0120643E-10
v -0.46248946 -0.5074626 0.959921
v 0.4511226 -0.5074626 0.959921
v 0.4110436 0.4524583 1
v 0.25112265 0.29253733 1
v -0.2546994 0.29253733 1
v -0.4146204 0.4524583 1
v -0.4224105 -0.4673836 1
v -0.2624895 -0.3074627 1
v 0.25112265 -0.3074627 1
v 0.4110436 -0.4673836 1
v 0.4110436 -0.4673836 1
v 0.4511226 -0.5074626 0.959921
v -0.46248946 -0.5074626 0.959921
v -0.4224105 -0.4673836 1
v 0.25112265 0.29253733 1
v 0.29821163 0.24544828 1
v 0.29821163 -0.2603737 1
v 0.25112265 -0.3074627 1
v -0.2546994 0.29253733 1
v -0.2624895 -0.3074627 1
v -0.3017884 0.24544828 1
v -0.3017884 -0.26816386 1
v 0.49821162 0.44544825 -2.0120643E-10
v 0.49821162 -0.46037364 -2.0120643E-10
v 0.49821162 -0.46037364 0.959921
v 0.49821162 0.44544825 0.959921
v -0.4146204 0.4524583 1
v -0.4546994 0.4925373 0.959921
v 0.4511226 0.4925373 0.959921
v 0.4110436 0.4524583 1
v 0.45813262 0.40536925 1
v 0.49821162 0.44544825 0.959921
v 0.49821162 -0.46037364 0.959921
v 0.45813262 -0.42029464 1
v -0.46170935 -0.4280848 1
v -0.5017884 -0.4681638 0.959921
v -0.5017884 0.44544825 0.959921
v -0.46170935 0.40536925 1
v -0.5017884 -0.4681638 -2.0120643E-10
v -0.5017884 0.44544825 -2.0120643E-10
v -0.5017884 0.44544825 0.959921
v -0.5017884 -0.4681638 0.959921
v -0.5017884 -0.4681638 0.959921
v -0.46248946 -0.5074626 -2.0120643E-10
v -0.5017884 -0.4681638 -2.0120643E-10
v -0.46248946 -0.5074626 0.959921
v -0.46170935 -0.4280848 1
v -0.4224105 -0.4673836 1
v -0.3017884 -0.26816386 1
v -0.2624895 -0.3074627 1
v -0.4546994 0.4925373 0.959921
v -0.5017884 0.44544825 -2.0120643E-10
v -0.4546994 0.4925373 -2.0120643E-10
v -0.5017884 0.44544825 0.959921
v -0.4146204 0.4524583 1
v -0.46170935 0.40536925 1
v -0.2546994 0.29253733 1
v -0.3017884 0.24544828 1
v 0.49821162 0.44544825 0.959921
v 0.4511226 0.4925373 -2.0120643E-10
v 0.49821162 0.44544825 -2.0120643E-10
v 0.4511226 0.4925373 0.959921
v 0.45813262 0.40536925 1
v 0.4110436 0.4524583 1
v 0.29821163 0.24544828 1
v 0.25112265 0.29253733 1
v 0.49821162 -0.46037364 -2.0120643E-10
v 0.4511226 -0.5074626 -2.0120643E-10
v 0.4511226 -0.5074626 0.959921
v 0.49821162 -0.46037364 0.959921
v 0.4110436 -0.4673836 1
v 0.45813262 -0.42029464 1
v 0.25112265 -0.3074627 1
v 0.29821163 -0.2603737 1
v 0.4511226 -0.5074626 -2.0120643E-10
v 0.49821162 -0.46037364 -2.0120643E-10
v 0.49821162 0.44544825 -2.0120643E-10
v 0.4511226 0.4925373 -2.0120643E-10
v -0.46248946 -0.5074626 -2.0120643E-10
v -0.4546994 0.4925373 -2.0120643E-10
v -0.5017884 0.44544825 -2.0120643E-10
v -0.5017884 -0.4681638 -2.0120643E-10
vt 1.4258319 0.73800075
vt 1.416286 0.52956307
vt -0.4257662 0.52956307
vt -0.4337343 0.73800075
vt 1.4258319 0.73800075
vt 1.416286 0.52956307
vt -0.4162856 0.52956307
vt -0.42583317 0.73800075
vt 1.5009038 0.05116719
vt -0.51169217 0.051166713
vt -0.51169217 0.55801713
vt 1.5009035 0.5580173
vt 1.5091299 0.05125414
vt -0.5116923 0.05125414
vt -0.51169217 0.55810446
vt 1.5091299 0.55810434
vt 1.4258319 0.73800075
vt 1.416286 0.52956307
vt -0.41628563 0.52956307
vt -0.42583328 0.73800075
vt 1.433733 0.7380008
vt 1.4257663 0.52956307
vt -0.41628563 0.52956307
vt -0.42583328 0.73800075
vt -0.5295782 0.7853002
vt -0.53154445 0.843606
vt 1.3820679 0.84360635
vt 1.3804269 0.7853004
vt 0.97050273 0.4999999
vt 0.9999292 0.48528668
vt 0.99992925 0.0147839235
vt 0.9705028 7.0700684E-05
vt 0.029497163 0.49999997
vt 0.024629068 7.0700684E-05
vt 7.070178E-05 0.48528674
vt 7.073702E-05 0.0123499045
vt 1.5009032 0.051079825
vt -0.5116923 0.051079825
vt -0.51169217 0.5579302
vt 1.5009034 0.55792993
vt -0.5295782 0.7853002
vt -0.53154445 0.843606
vt 1.3742778 0.84360635
vt 1.3723116 0.7853004
vt -0.5295782 0.7853002
vt -0.5315442 0.843606
vt 1.3742778 0.84360635
vt 1.3723118 0.7853004
vt -0.5376936 0.7853002
vt -0.53933454 0.843606
vt 1.3742776 0.84360635
vt 1.3723118 0.7853004
vt 1.5094796 0.051341623
vt -0.5113423 0.05099252
vt -0.51169264 0.5578429
vt 1.5091295 0.5581918
vt 0.47489852 0.69652575
vt -1.0538328 0.58493096
vt -1.0538325 0.6965239
vt 0.47489852 0.5849287
vt 0.58545595 0.69652575
vt 0.5854561 0.5849288
vt 0.9456456 0.69652575
vt 0.9456455 0.5849288
vt 0.47491854 0.6953657
vt -1.0538328 0.5835757
vt -1.0538328 0.69536525
vt 0.47491854 0.5835756
vt 0.5854743 0.69536585
vt 0.5854743 0.5835756
vt 0.9456579 0.6953657
vt 0.9456579 0.5835756
vt 0.47491813 0.6951193
vt -1.0538328 0.58333075
vt -1.0538328 0.69512033
vt 0.474918 0.5833292
vt 0.58547366 0.69511944
vt 0.58547384 0.5833292
vt 0.9456577 0.6951196
vt 0.9456577 0.5833295
vt -1.0538328 0.5844993
vt -1.0538328 0.69628954
vt 0.4749204 0.69628865
vt 0.47492045 0.58449894
vt 0.58547574 0.6962884
vt 0.58547574 0.58449894
vt 0.9456579 0.6962884
vt 0.9456577 0.5844988
vt 0.97638816 0.5
vt 0.9999293 0.4882294
vt 0.9999293 0.011841296
vt 0.97638816 7.0700684E-05
vt 0.019717367 0.5
vt 0.02361192 7.0700684E-05
vt 7.075888E-05 0.011841311
vt 7.0701855E-05 0.4901767
vn -0.38473085 0.014345272 0.92291737
vn -0 0 1
vn -0 0 1
vn -0.39127076 -0.012251175 0.9201941
vn 0.38477105 -0.01447102 0.92289865
vn -0 0 1
vn -0 0 1
vn 0.38477102 0.014471009 0.92289865
vn -0.043974742 0.88988906 -0.45405245
vn 0.043978684 0.88996875 -0.45389572
vn 0.050136313 0.9983911 0.026486894
vn -0.050136313 0.9983911 0.026486894
vn 0.04367601 -0.8910705 -0.4517586
vn -0.036787674 -0.8920209 -0.45049474
vn -0.041863907 -0.998784 0.026037859
vn 0.049730632 -0.9984118 0.026473144
vn 0.014471037 0.38477108 0.92289853
vn -0 0 1
vn -0 0 1
vn -0.014471037 0.38477108 0.92289853
vn -0.01225115 -0.39127085 0.920194
vn -0 0 1
vn -0 0 1
vn 0.014345278 -0.38473096 0.92291725
vn 0.014345278 -0.38473096 0.92291725
vn 0.049730632 -0.9984118 0.026473144
vn -0.041863907 -0.998784 0.026037859
vn -0.01225115 -0.39127085 0.920194
vn -0 0 1
vn -0 0 1
vn -0 0 1
vn -0 0 1
vn -0 0 1
vn -0 0 1
vn -0 0 1
vn -0 0 1
vn 0.99804235 0.049319196 -0.03845775
vn 0.9981725 -0.04932563 -0.034909304
vn 0.9983911 -0.05013626 0.026486902
vn 0.9983911 0.050136264 0.026486903
vn -0.014471037 0.38477108 0.92289853
vn -0.050136313 0.9983911 0.026486894
vn 0.050136313 0.9983911 0.026486894
vn 0.014471037 0.38477108 0.92289853
vn 0.38477102 0.014471009 0.92289865
vn 0.9983911 0.050136264 0.026486903
vn 0.9983911 -0.05013626 0.026486902
vn 0.38477105 -0.01447102 0.92289865
vn -0.39127076 -0.012251175 0.9201941
vn -0.998784 -0.041863974 0.026037859
vn -0.9984118 0.049730636 0.02647315
vn -0.38473085 0.014345272 0.92291737
vn -0.99871874 -0.041188058 -0.029400771
vn -0.99808806 0.048921514 -0.037771694
vn -0.9984118 0.049730636 0.02647315
vn -0.998784 -0.041863974 0.026037859
vn -0.998784 -0.041863974 0.026037859
vn -0.036787674 -0.8920209 -0.45049474
vn -0.99871874 -0.041188058 -0.029400771
vn -0.041863907 -0.998784 0.026037859
vn -0.39127076 -0.012251175 0.9201941
vn -0.01225115 -0.39127085 0.920194
vn -0 0 1
vn -0 0 1
vn -0.050136313 0.9983911 0.026486894
vn -0.99808806 0.048921514 -0.037771694
vn -0.043974742 0.88988906 -0.45405245
vn -0.9984118 0.049730636 0.02647315
vn -0.014471037 0.38477108 0.92289853
vn -0.38473085 0.014345272 0.92291737
vn -0 0 1
vn -0 0 1
vn 0.9983911 0.050136264 0.026486903
vn 0.043978684 0.88996875 -0.45389572
vn 0.99804235 0.049319196 -0.03845775
vn 0.050136313 0.9983911 0.026486894
vn 0.38477102 0.014471009 0.92289865
vn 0.014471037 0.38477108 0.92289853
vn -0 0 1
vn -0 0 1
vn 0.9981725 -0.04932563 -0.034909304
vn 0.04367601 -0.8910705 -0.4517586
vn 0.049730632 -0.9984118 0.026473144
vn 0.9983911 -0.05013626 0.026486902
vn 0.014345278 -0.38473096 0.92291725
vn 0.38477105 -0.01447102 0.92289865
vn -0 0 1
vn -0 0 1
vn 0.04367601 -0.8910705 -0.4517586
vn 0.9981725 -0.04932563 -0.034909304
vn 0.99804235 0.049319196 -0.03845775
vn 0.043978684 0.88996875 -0.45389572
vn -0.036787674 -0.8920209 -0.45049474
vn -0.043974742 0.88988906 -0.45405245
vn -0.99808806 0.048921514 -0.037771694
vn -0.99871874 -0.041188058 -0.029400771
g GPRuinBlockQuarter__1__0
f 3/3/3 2/2/2 1/1/1
f 4/4/4 3/3/3 1/1/1
f 7/7/7 6/6/6 5/5/5
f 8/8/8 7/7/7 5/5/5
f 11/11/11 10/10/10 9/9/9
f 12/12/12 11/11/11 9/9/9
f 15/15/15 14/14/14 13/13/13
f 16/16/16 15/15/15 13/13/13
f 19/19/19 18/18/18 17/17/17
f 20/20/20 19/19/19 17/17/17
f 23/23/23 22/22/22 21/21/21
f 24/24/24 23/23/23 21/21/21
f 27/27/27 26/26/26 25/25/25
f 28/28/28 27/27/27 25/25/25
f 31/31/31 30/30/30 29/29/29
f 29/29/29 32/32/32 31/31/31
f 29/29/29 33/33/33 32/32/32
f 33/33/33 34/34/34 32/32/32
f 33/33/33 35/35/35 34/34/34
f 35/35/35 36/36/36 34/34/34
f 39/39/39 38/38/38 37/37/37
f 40/40/40 39/39/39 37/37/37
f 43/43/43 42/42/42 41/41/41
f 44/44/44 43/43/43 41/41/41
f 47/47/47 46/46/46 45/45/45
f 48/48/48 47/47/47 45/45/45
f 51/51/51 50/50/50 49/49/49
f 52/52/52 51/51/51 49/49/49
f 55/55/55 54/54/54 53/53/53
f 56/56/56 55/55/55 53/53/53
f 59/59/59 58/58/58 57/57/57
f 58/58/58 60/60/60 57/57/57
f 61/61/61 57/57/57 60/60/60
f 62/62/62 61/61/61 60/60/60
f 61/61/61 62/62/62 63/63/63
f 62/62/62 64/64/64 63/63/63
f 67/67/67 66/66/66 65/65/65
f 66/66/66 68/68/68 65/65/65
f 65/65/65 68/68/68 69/69/69
f 68/68/68 70/70/70 69/69/69
f 69/69/69 70/70/70 71/71/71
f 70/70/70 72/72/72 71/71/71
f 75/75/75 74/74/74 73/73/73
f 74/74/74 76/76/76 73/73/73
f 73/73/73 76/76/76 77/77/77
f 76/76/76 78/78/78 77/77/77
f 77/77/77 78/78/78 79/79/79
f 78/78/78 80/80/80 79/79/79
f 83/83/83 82/82/82 81/81/81
f 84/84/84 83/83/83 81/81/81
f 83/83/83 84/84/84 85/85/85
f 84/84/84 86/86/86 85/85/85
f 87/87/87 85/85/85 86/86/86
f 88/88/88 87/87/87 86/86/86
f 91/91/91 90/90/90 89/89/89
f 89/89/89 92/92/92 91/91/91
f 89/89/89 93/93/93 92/92/92
f 93/93/93 94/94/94 92/92/92
f 93/93/93 95/95/95 94/94/94
f 93/93/93 96/96/96 95/95/95
