g GravekeeperMaskMesh.001_cell.001
v -0.78928983 -0.43590263 0.20006824
v -0.838315 -0.17604485 -0.26339862
v -0.7916088 -0.3308048 0.23295522
v -0.83811307 -0.27411643 -0.3181255
v -0.838315 -0.17604485 -0.26339862
v -0.78928983 -0.43590263 0.20006824
v 0.4881255 -0.34147027 0.7771944
v 0.49682024 -0.18831727 0.7815838
v 0.59036815 -0.24684307 0.7469753
v 0.5825754 -0.108518004 0.7561903
v 0.59036815 -0.24684307 0.7469753
v 0.49682024 -0.18831727 0.7815838
v 0.6508693 -0.19048956 0.7290625
v 0.7805772 0.08141062 0.69782805
v 0.86009604 0.010154694 0.6673892
v 0.89257485 0.25571832 0.66798925
v 1.0040355 0.23585317 0.62912
v 0.9772112 0.37826622 0.64500487
v 0.87508965 0.3533484 0.6785714
v -0.8606982 -0.11716983 -0.51216394
v -0.838315 -0.17604485 -0.26339862
v -0.83811307 -0.27411643 -0.3181255
v -0.85804665 -0.03953877 -0.43327966
v -0.8776103 0.13665065 -0.5778573
v -0.88272595 0.08142471 -0.67482847
v -0.8899206 0.30205065 -0.63697916
v -0.8991952 0.30250067 -0.754042
v -0.9014033 0.44081843 -0.7011872
v -0.8915074 0.40182745 -0.5987756
v 0.4362345 -0.24415353 0.799502
v 0.038370788 -0.4868801 0.92311496
v 0.009163737 -0.38187918 0.93807966
v 0.4881255 -0.34147027 0.7771944
v 0.49682024 -0.18831727 0.7815838
v 0.9772112 0.37826622 0.64500487
v 0.87508965 0.3533484 0.6785714
v 0.86471844 0.3554034 0.6375501
v 0.89257485 0.25571832 0.66798925
v 0.96654725 0.3807449 0.60316634
v 1.0040355 0.23585317 0.62912
v 0.87238765 0.25950643 0.59011626
v 0.7805772 0.08141062 0.69782805
v 0.9835831 0.24063346 0.5498216
v 0.86009604 0.010154694 0.6673892
v 0.6961603 0.37131113 0.2612274
v 0.738099 0.09038088 0.53572345
v 0.5825754 -0.108518004 0.7561903
v 0.81824446 0.020619124 0.5028932
v 0.6508693 -0.19048956 0.7290625
v 0.7892251 0.40095827 0.20962885
v 0.70024323 0.2749762 0.21341017
v 0.5228145 -0.09449723 0.5279319
v 0.49682024 -0.18831727 0.7815838
v 0.5912206 -0.17553833 0.49802282
v 0.59036815 -0.24684307 0.7469753
v 0.8029684 0.26161116 0.15397051
v 0.47739848 0.38291997 -0.05478213
v 0.58054376 0.10746071 0.19484785
v 0.37127313 -0.22818068 0.55904746
v 0.4362345 -0.24415353 0.799502
v 0.65652966 0.04128167 0.1473234
v 0.5580193 0.41613933 -0.12268851
v 0.47836396 0.2860505 -0.100857
v 0.38970146 -0.07711059 0.23612574
v -0.023423284 -0.37147716 0.79222465
v 0.009163737 -0.38187918 0.93807966
v 0.038370788 -0.4868801 0.92311496
v 0.0049026906 -0.4764736 0.7755182
v 0.4881255 -0.34147027 0.7771944
v -0.08706525 -0.35983685 0.6304624
v 0.4224901 -0.32549885 0.5346086
v 0.37688264 0.12022823 -0.09248183
v 0.25582132 -0.21122625 0.30322722
v -0.061422676 -0.46476987 0.6095197
v 0.4533392 -0.15688112 0.19437388
v -0.17258778 -0.3495858 0.48888662
v 0.10426 -0.19764045 0.090030454
v 0.30282095 -0.30827168 0.27039507
v -0.15068164 -0.4545119 0.46401957
v 0.21733889 -0.06318408 -0.0087806955
v -0.2767428 -0.34114578 0.37281302
v 0.1446794 -0.29469278 0.04950025
v -0.072678894 -0.1875458 -0.07453368
v -0.2594439 -0.44609287 0.34461
v -0.3955846 -0.33485773 0.28658083
v 0.13923135 0.12870997 -0.31462786
v 0.016749531 -0.0521608 -0.20226309
v -0.26557282 -0.18084314 -0.18871519
v 0.21978536 0.2934782 -0.3449566
v 0.22078463 0.3913779 -0.30168936
v -0.040886313 -0.2848647 -0.121174075
v -0.38352987 -0.43983725 0.25588205
v -0.52441144 -0.33093837 0.23343161
v 0.27303055 -0.14212635 -0.06209395
v 0.44485995 0.057329595 -0.1548445
v 0.568089 0.27739924 -0.17870924
v 0.28533742 0.4272575 -0.3839495
v 0.2919753 0.2888624 -0.43903944
v 0.1952292 0.0687806 -0.3906748
v 0.0615032 -0.13086346 -0.26557943
v -0.06335768 0.397495 -0.47898123
v -0.017727107 0.4351348 -0.5723765
v -0.013908118 0.29683036 -0.62594056
v -0.06500456 0.29856366 -0.5192883
v -0.36496392 0.40140167 -0.5878413
v -0.12145111 0.13396853 -0.473901
v -0.24366537 -0.27858284 -0.23944876
v -0.08107075 0.076450765 -0.5611136
v -0.3409944 0.44021693 -0.68864083
v -0.6745738 0.4028274 -0.6243746
v -0.36608806 0.3016836 -0.6261685
v -0.20370367 -0.04418093 -0.34216234
v -0.33930293 0.30188817 -0.7412169
v -0.17193547 -0.12277511 -0.41327497
v -0.39523497 0.13682145 -0.5693371
v -0.4653789 -0.17636994 -0.25962755
v -0.6581998 -0.32958415 0.21541288
v -0.4361911 -0.038974583 -0.4276087
v -0.67457366 0.30290145 -0.66197896
v -0.67457485 0.13788289 -0.6013081
v -0.669135 -0.17482188 -0.2833149
v -0.51817095 -0.43598488 0.20124415
v -0.4540638 -0.27441052 -0.31290647
v -0.8899206 0.30205065 -0.63697916
v -0.8915074 0.40182745 -0.5987756
v -0.8776103 0.13665065 -0.5778573
v -0.9014033 0.44081843 -0.7011872
v -0.67454505 -0.037128508 -0.45641062
v -0.85804665 -0.03953877 -0.43327966
v -0.838315 -0.17604485 -0.26339862
v -0.7916088 -0.3308048 0.23295522
v -0.78928983 -0.43590263 0.20006824
v -0.674574 0.442099 -0.7278502
v -0.8991952 0.30250067 -0.754042
v -0.6581931 -0.43468454 0.18279627
v -0.83811307 -0.27411643 -0.3181255
v -0.6691117 -0.27302888 -0.33737013
v -0.8606982 -0.11716983 -0.51216394
v -0.6745739 0.30374545 -0.78008103
v -0.41954133 -0.11765841 -0.5038607
v -0.6745738 -0.11586696 -0.5345156
v -0.88272595 0.08142471 -0.67482847
v -0.6745738 0.08254045 -0.6988528
v -0.37384716 0.08092946 -0.6641438
vt 0.54047245 0.37487394
vt 0.39937136 0.06471685
vt 0.6184146 0.35826987
vt 0.31117618 0.00887252
vt 0.39937136 0.06471685
vt 0.54047245 0.37487394
vt 0.42740992 0.17687923
vt 0.38824505 0
vt 0.66440177 0
vt 0.66000855 0.11998059
vt 0.66440177 0
vt 0.38824505 0
vt 0.6984452 0.08469638
vt 0.7714219 0.40211144
vt 0.81617475 0.3827752
vt 0.834438 0.6218227
vt 0.8971629 0.66665685
vt 0.8820596 0.77960795
vt 0.82459265 0.6997638
vt 0.45225146 0.2645134
vt 0.39937136 0.06471685
vt 0.31117618 0.00887252
vt 0.5220729 0.28772113
vt 0.6804621 0.53145695
vt 0.63078237 0.5390678
vt 0.82916987 0.71503997
vt 0.82954717 0.78455997
vt 0.9539298 0.8776866
vt 0.9188944 0.78217274
vt 0.44259855 0.10454894
vt 0.77275074 0.65287733
vt 0.7704458 0.5561487
vt 0.42740992 0.17687923
vt 0.38824505 0
vt 0.9609374 0.94140613
vt 0.9609374 0.94140613
vt 0.9609374 0.94140613
vt 0.9609374 0.94140613
vt 0.9609374 0.94140613
vt 0.9609374 0.94140613
vt 0.9609374 0.94140613
vt 0.9609374 0.94140613
vt 0.9609374 0.94140613
vt 0.9609374 0.94140613
vt 0.9609374 0.94140613
vt 0.9609374 0.94140613
vt 0.9609374 0.9414061
vt 0.9609374 0.94140613
vt 0.9609374 0.94140613
vt 0.9609374 0.94140613
vt 0.9609374 0.94140613
vt 0.9609374 0.94140613
vt 0.9609373 0.9414061
vt 0.9609374 0.94140613
vt 0.9609374 0.9414061
vt 0.9609374 0.94140613
vt 0.9609374 0.94140613
vt 0.9609374 0.94140613
vt 0.9609374 0.94140613
vt 0.9609374 0.94140613
vt 0.9609374 0.94140613
vt 0.9609374 0.94140613
vt 0.9609374 0.94140613
vt 0.9609374 0.94140613
vt 0.9609374 0.94140613
vt 0.9609374 0.94140613
vt 0.9609374 0.94140613
vt 0.9609374 0.94140613
vt 0.9609373 0.94140613
vt 0.9609374 0.94140613
vt 0.9609374 0.94140613
vt 0.9609374 0.94140613
vt 0.9609374 0.94140613
vt 0.9609374 0.94140613
vt 0.9609374 0.94140613
vt 0.9609374 0.94140613
vt 0.9609374 0.94140613
vt 0.9609374 0.94140613
vt 0.9609374 0.94140613
vt 0.9609374 0.94140613
vt 0.9609374 0.94140613
vt 0.9609374 0.94140613
vt 0.9609374 0.94140613
vt 0.9609374 0.94140613
vt 0.9609374 0.94140613
vt 0.9609374 0.94140613
vt 0.9609374 0.94140613
vt 0.9609374 0.94140613
vt 0.9609374 0.94140613
vt 0.9609374 0.94140613
vt 0.9609374 0.94140613
vt 0.9609374 0.94140613
vt 0.9609374 0.94140613
vt 0.9609374 0.94140613
vt 0.9609374 0.94140613
vt 0.9609374 0.94140613
vt 0.9609374 0.94140613
vt 0.9609374 0.94140613
vt 0.9609374 0.94140613
vt 0.9609374 0.94140613
vt 0.9609374 0.94140613
vt 0.9609374 0.94140613
vt 0.9609374 0.94140613
vt 0.9609374 0.94140613
vt 0.9609374 0.94140613
vt 0.9609374 0.94140613
vt 0.9609374 0.94140613
vt 0.9609374 0.94140613
vt 0.9609374 0.94140613
vt 0.9609374 0.94140613
vt 0.9609374 0.94140613
vt 0.9609374 0.94140613
vt 0.9609374 0.94140613
vt 0.9609374 0.94140613
vt 0.9609374 0.94140613
vt 0.9609374 0.94140613
vt 0.9609374 0.94140613
vt 0.9609374 0.94140613
vt 0.9609374 0.94140613
vt 0.9609374 0.94140613
vt 0.9609374 0.94140613
vt 0.9609374 0.94140613
vt 0.9609374 0.94140613
vt 0.9609374 0.94140613
vt 0.9609374 0.94140613
vt 0.9609374 0.94140613
vt 0.9609374 0.94140613
vt 0.9609374 0.94140613
vt 0.9609374 0.94140613
vt 0.9609374 0.94140613
vt 0.9609374 0.94140613
vt 0.9609374 0.94140613
vt 0.9609374 0.94140613
vt 0.9609374 0.94140613
vt 0.9609374 0.94140613
vt 0.9609374 0.94140613
vt 0.9609374 0.94140613
vt 0.9609374 0.94140613
vt 0.9609374 0.94140613
vt 0.9609374 0.94140613
vt 0.9609374 0.94140613
vt 0.9609374 0.94140613
vt 0.9609374 0.94140613
vt 0.9609374 0.94140613
vn -0.9957684 -0.04673221 0.07912948
vn -0.9957684 -0.04673221 0.07912948
vn -0.9957684 -0.04673221 0.07912948
vn -0.99576914 -0.046332896 0.079353966
vn -0.99576914 -0.046332896 0.079353966
vn -0.99576914 -0.046332896 0.079353966
vn 0.3215297 -0.045360867 0.9458123
vn 0.3215297 -0.045360867 0.9458123
vn 0.3215297 -0.045360867 0.9458123
vn 0.32180634 -0.044874515 0.94574153
vn 0.32180634 -0.044874515 0.94574153
vn 0.32180634 -0.044874515 0.94574153
vn 0.32180762 -0.044874415 0.94574106
vn 0.3218078 -0.04487389 0.94574106
vn 0.3218078 -0.04487389 0.94574106
vn 0.321807 -0.04487398 0.9457413
vn 0.321807 -0.04487398 0.9457413
vn 0.32180718 -0.044874728 0.9457412
vn 0.3218082 -0.04487484 0.9457409
vn -0.9958358 -0.04597877 0.07872131
vn -0.9958358 -0.04597898 0.07872074
vn -0.9958358 -0.04597898 0.07872074
vn -0.9958358 -0.04597877 0.07872131
vn -0.9958358 -0.04597877 0.07872131
vn -0.9958359 -0.045979246 0.078719676
vn -0.9958358 -0.04597872 0.07872079
vn -0.9958358 -0.04597872 0.07872079
vn -0.9958358 -0.04597872 0.07872079
vn -0.9958358 -0.045977827 0.078721076
vn 0.32152978 -0.045360386 0.9458123
vn 0.32152978 -0.045360386 0.9458123
vn 0.32152978 -0.045360386 0.9458123
vn 0.3215292 -0.045360714 0.9458125
vn 0.32152936 -0.045360863 0.9458125
vn 0.5117508 0.8552782 -0.081303924
vn -0.818713 0.52468926 0.23325966
vn -0.78525364 0.5493418 0.28565773
vn -0.94661707 0.19828388 0.2541647
vn 0.537469 0.8325872 -0.13388659
vn 0.94709843 -0.19397923 -0.25568882
vn -0.92817837 0.15909624 0.3364124
vn -0.7231612 0.65302724 0.22492926
vn 0.92838866 -0.157997 -0.3363501
vn 0.7240826 -0.6517201 -0.22575505
vn -0.74223566 0.51455975 0.42931864
vn -0.7203842 0.6269332 0.29665032
vn -0.636637 0.7415936 0.2115002
vn 0.72058886 -0.62701696 -0.2959752
vn 0.6368118 -0.7413398 -0.21186368
vn 0.47350034 0.8531246 -0.21903396
vn -0.85911655 0.113165334 0.49911162
vn -0.62061703 0.73610336 0.27015993
vn -0.6263806 0.7491908 0.21531452
vn 0.62094 -0.73584414 -0.27012387
vn 0.62772405 -0.74827594 -0.21458225
vn 0.85949343 -0.11283103 -0.49853793
vn -0.66220236 0.48485613 0.5713166
vn -0.6809524 0.59412426 0.42815888
vn -0.44847906 0.86646956 0.21931072
vn -0.44890982 0.8755405 0.17863005
vn 0.6815459 -0.59395695 -0.42744634
vn 0.39854988 0.8686367 -0.2943269
vn -0.75232655 0.07306274 0.65472645
vn -0.57782704 0.7231002 0.37847322
vn -0.82592875 0.4854006 0.28675413
vn -0.86814797 0.44213104 0.22547555
vn -0.50725317 -0.8601726 0.052889094
vn -0.44115958 -0.89431334 0.07471177
vn 0.45015797 -0.8748935 -0.1786593
vn -0.77042985 0.48437226 0.41451347
vn 0.44976678 -0.8658705 -0.2190389
vn -0.60673136 0.56394273 0.56021935
vn -0.41216332 0.86235374 0.29405358
vn -0.4169518 -0.896956 0.14704096
vn 0.5780902 -0.72275 -0.3787403
vn -0.6859451 0.48558784 0.5419259
vn -0.353659 0.86214304 0.36281487
vn 0.41301987 -0.86183906 -0.2943602
vn -0.376915 -0.8994687 0.2211133
vn -0.5054282 0.71613264 0.48134857
vn -0.5672582 0.48781702 0.6635154
vn 0.35419977 -0.86160326 -0.363569
vn -0.2764723 0.86555153 0.41759256
vn -0.31568956 -0.90235823 0.2934106
vn -0.4101821 0.49029577 0.7689999
vn -0.4975558 0.53720033 0.68106824
vn -0.40840825 0.71277654 0.57022125
vn -0.19025709 0.87227106 0.45049483
vn -0.60650456 0.04117016 0.79401344
vn -0.54189956 0.46154243 0.70236975
vn 0.27665997 -0.8650164 -0.41857603
vn -0.23038758 -0.9053753 0.35667503
vn -0.21681227 0.4933517 0.8423755
vn 0.5056419 -0.71579695 -0.48162326
vn 0.6074534 -0.5638415 -0.5595383
vn 0.7524812 -0.07309347 -0.6545451
vn 0.31248897 0.8799682 -0.35777986
vn 0.60660166 -0.040773787 -0.7939596
vn 0.4985952 -0.536775 -0.6806433
vn 0.4085928 -0.7124738 -0.57046735
vn -0.38789985 0.44591698 0.8066547
vn 0.21796776 0.88737476 -0.40627092
vn 0.4309859 -0.01547301 -0.90222603
vn -0.43108356 0.015564786 0.9021778
vn -0.20462897 0.4373353 0.8757082
vn -0.35844845 0.5133946 0.77970546
vn 0.1902273 -0.8717556 -0.45150372
vn 0.35921276 -0.513366 -0.77937263
vn 0.1144774 0.8908545 -0.43962857
vn 9.1556096E-05 0.43412852 0.90085095
vn -0.22563061 0.00051883137 0.97421277
vn -0.2903316 0.71204954 0.6392911
vn 0.22586907 9.155617E-05 -0.97415763
vn 0.29057488 -0.7116505 -0.6396248
vn -0.18848468 0.4991975 0.84573954
vn -0.098699845 0.8757856 0.4725018
vn -0.00067141704 0.49556684 0.86856955
vn -0.15253632 0.7098829 0.6876038
vn 0.00021363368 -0.0047304602 0.9999888
vn -0.00015259792 0.49301335 0.87002176
vn -0.0003051883 0.8779352 0.4787794
vn -0.12210659 -0.907544 0.40181336
vn 0.09860664 -0.8754048 -0.47322646
vn 0.11575706 -0.014832041 0.99316686
vn 0.10443709 0.42009833 0.90144897
vn 0.09750994 0.49469134 0.86358106
vn -0.050021075 0.92101043 -0.38631287
vn -6.103854E-05 0.70996976 0.70423216
vn 0.07819154 0.713948 0.69581926
vn 0.048434068 0.8843261 0.46435052
vn 0.11075319 0.4708155 0.8752523
vn 0.07205529 -0.8707367 0.48644185
vn -6.103735E-05 0.8922745 -0.45149326
vn -0.115637735 0.014160968 -0.99319047
vn 0.0002441543 -0.908071 0.4188162
vn -0.047608934 -0.8832678 -0.46644548
vn 0.0004883071 -0.8775489 -0.47948706
vn -0.07806872 -0.7125372 -0.6972775
vn -6.1037914E-05 0.005646007 -0.99998415
vn 0.152749 -0.7096343 -0.68781304
vn -6.103728E-05 -0.7098025 -0.7044008
vn -0.0975092 -0.49480963 -0.8635134
vn 0.00021363141 -0.4930003 -0.87002915
vn 0.18915604 -0.49889222 -0.8457698
g GravekeeperMaskMesh.001_cell.001_0
f 3/3/3 2/2/2 1/1/1
f 6/6/6 5/5/5 4/4/4
f 9/9/9 8/8/8 7/7/7
f 12/12/12 11/11/11 10/10/10
f 13/13/13 10/10/10 11/11/11
f 14/14/14 10/10/10 13/13/13
f 15/15/15 14/14/14 13/13/13
f 14/14/14 15/15/15 16/16/16
f 17/17/17 16/16/16 15/15/15
f 18/18/18 16/16/16 17/17/17
f 19/19/19 16/16/16 18/18/18
f 22/22/22 21/21/21 20/20/20
f 21/21/21 23/23/23 20/20/20
f 23/23/23 24/24/24 20/20/20
f 20/20/20 24/24/24 25/25/25
f 26/26/26 25/25/25 24/24/24
f 25/25/25 26/26/26 27/27/27
f 27/27/27 26/26/26 28/28/28
f 29/29/29 28/28/28 26/26/26
f 32/32/32 31/31/31 30/30/30
f 33/33/33 30/30/30 31/31/31
f 33/33/33 34/34/34 30/30/30
f 37/37/37 36/36/36 35/35/35
f 36/36/36 37/37/37 38/38/38
f 39/39/39 37/37/37 35/35/35
f 39/39/39 35/35/35 40/40/40
f 37/37/37 41/41/41 38/38/38
f 38/38/38 41/41/41 42/42/42
f 43/43/43 39/39/39 40/40/40
f 40/40/40 44/44/44 43/43/43
f 45/45/45 37/37/37 39/39/39
f 37/37/37 45/45/45 41/41/41
f 41/41/41 46/46/46 42/42/42
f 42/42/42 46/46/46 47/47/47
f 44/44/44 48/48/48 43/43/43
f 44/44/44 49/49/49 48/48/48
f 50/50/50 39/39/39 43/43/43
f 50/50/50 45/45/45 39/39/39
f 45/45/45 51/51/51 41/41/41
f 41/41/41 51/51/51 46/46/46
f 46/46/46 52/52/52 47/47/47
f 47/47/47 52/52/52 53/53/53
f 49/49/49 54/54/54 48/48/48
f 49/49/49 55/55/55 54/54/54
f 43/43/43 48/48/48 56/56/56
f 56/56/56 50/50/50 43/43/43
f 57/57/57 45/45/45 50/50/50
f 45/45/45 57/57/57 51/51/51
f 51/51/51 58/58/58 46/46/46
f 46/46/46 58/58/58 52/52/52
f 59/59/59 53/53/53 52/52/52
f 60/60/60 53/53/53 59/59/59
f 48/48/48 54/54/54 61/61/61
f 48/48/48 61/61/61 56/56/56
f 62/62/62 50/50/50 56/56/56
f 62/62/62 57/57/57 50/50/50
f 57/57/57 63/63/63 51/51/51
f 51/51/51 63/63/63 58/58/58
f 58/58/58 64/64/64 52/52/52
f 52/52/52 64/64/64 59/59/59
f 60/60/60 59/59/59 65/65/65
f 66/66/66 60/60/60 65/65/65
f 66/66/66 65/65/65 67/67/67
f 65/65/65 68/68/68 67/67/67
f 69/69/69 67/67/67 68/68/68
f 65/65/65 59/59/59 70/70/70
f 65/65/65 70/70/70 68/68/68
f 71/71/71 69/69/69 68/68/68
f 71/71/71 55/55/55 69/69/69
f 54/54/54 55/55/55 71/71/71
f 63/63/63 72/72/72 58/58/58
f 58/58/58 72/72/72 64/64/64
f 64/64/64 73/73/73 59/59/59
f 59/59/59 73/73/73 70/70/70
f 70/70/70 74/74/74 68/68/68
f 71/71/71 68/68/68 74/74/74
f 54/54/54 71/71/71 75/75/75
f 54/54/54 75/75/75 61/61/61
f 70/70/70 73/73/73 76/76/76
f 70/70/70 76/76/76 74/74/74
f 73/73/73 64/64/64 77/77/77
f 73/73/73 77/77/77 76/76/76
f 78/78/78 71/71/71 74/74/74
f 71/71/71 78/78/78 75/75/75
f 76/76/76 79/79/79 74/74/74
f 78/78/78 74/74/74 79/79/79
f 72/72/72 80/80/80 64/64/64
f 64/64/64 80/80/80 77/77/77
f 76/76/76 77/77/77 81/81/81
f 76/76/76 81/81/81 79/79/79
f 82/82/82 78/78/78 79/79/79
f 75/75/75 78/78/78 82/82/82
f 77/77/77 80/80/80 83/83/83
f 77/77/77 83/83/83 81/81/81
f 81/81/81 84/84/84 79/79/79
f 82/82/82 79/79/79 84/84/84
f 81/81/81 83/83/83 85/85/85
f 81/81/81 85/85/85 84/84/84
f 72/72/72 86/86/86 80/80/80
f 80/80/80 87/87/87 83/83/83
f 86/86/86 87/87/87 80/80/80
f 83/83/83 88/88/88 85/85/85
f 83/83/83 87/87/87 88/88/88
f 89/89/89 86/86/86 72/72/72
f 63/63/63 89/89/89 72/72/72
f 90/90/90 89/89/89 63/63/63
f 57/57/57 90/90/90 63/63/63
f 90/90/90 57/57/57 62/62/62
f 91/91/91 82/82/82 84/84/84
f 85/85/85 92/92/92 84/84/84
f 91/91/91 84/84/84 92/92/92
f 85/85/85 88/88/88 93/93/93
f 85/85/85 93/93/93 92/92/92
f 94/94/94 82/82/82 91/91/91
f 94/94/94 75/75/75 82/82/82
f 75/75/75 94/94/94 95/95/95
f 61/61/61 75/75/75 95/95/95
f 61/61/61 95/95/95 96/96/96
f 56/56/56 61/61/61 96/96/96
f 96/96/96 62/62/62 56/56/56
f 97/97/97 90/90/90 62/62/62
f 97/97/97 62/62/62 96/96/96
f 96/96/96 95/95/95 98/98/98
f 98/98/98 97/97/97 96/96/96
f 95/95/95 94/94/94 99/99/99
f 95/95/95 99/99/99 98/98/98
f 100/100/100 94/94/94 91/91/91
f 94/94/94 100/100/100 99/99/99
f 101/101/101 90/90/90 97/97/97
f 90/90/90 101/101/101 89/89/89
f 102/102/102 97/97/97 98/98/98
f 102/102/102 101/101/101 97/97/97
f 98/98/98 99/99/99 103/103/103
f 103/103/103 102/102/102 98/98/98
f 101/101/101 104/104/104 89/89/89
f 89/89/89 104/104/104 86/86/86
f 105/105/105 101/101/101 102/102/102
f 101/101/101 105/105/105 104/104/104
f 104/104/104 106/106/106 86/86/86
f 86/86/86 106/106/106 87/87/87
f 100/100/100 91/91/91 107/107/107
f 107/107/107 91/91/91 92/92/92
f 99/99/99 100/100/100 108/108/108
f 99/99/99 108/108/108 103/103/103
f 109/109/109 102/102/102 103/103/103
f 109/109/109 105/105/105 102/102/102
f 110/110/110 105/105/105 109/109/109
f 105/105/105 111/111/111 104/104/104
f 104/104/104 111/111/111 106/106/106
f 105/105/105 110/110/110 111/111/111
f 106/106/106 112/112/112 87/87/87
f 87/87/87 112/112/112 88/88/88
f 113/113/113 109/109/109 103/103/103
f 103/103/103 108/108/108 113/113/113
f 100/100/100 114/114/114 108/108/108
f 114/114/114 100/100/100 107/107/107
f 111/111/111 115/115/115 106/106/106
f 106/106/106 115/115/115 112/112/112
f 88/88/88 112/112/112 116/116/116
f 88/88/88 116/116/116 93/93/93
f 93/93/93 116/116/116 117/117/117
f 112/112/112 118/118/118 116/116/116
f 115/115/115 118/118/118 112/112/112
f 111/111/111 119/119/119 115/115/115
f 110/110/110 119/119/119 111/111/111
f 119/119/119 120/120/120 115/115/115
f 115/115/115 120/120/120 118/118/118
f 116/116/116 118/118/118 121/121/121
f 116/116/116 121/121/121 117/117/117
f 93/93/93 117/117/117 122/122/122
f 93/93/93 122/122/122 92/92/92
f 107/107/107 92/92/92 122/122/122
f 123/123/123 107/107/107 122/122/122
f 114/114/114 107/107/107 123/123/123
f 124/124/124 119/119/119 110/110/110
f 120/120/120 119/119/119 124/124/124
f 125/125/125 124/124/124 110/110/110
f 126/126/126 120/120/120 124/124/124
f 125/125/125 110/110/110 127/127/127
f 128/128/128 120/120/120 126/126/126
f 120/120/120 128/128/128 118/118/118
f 129/129/129 128/128/128 126/126/126
f 118/118/118 128/128/128 121/121/121
f 121/121/121 128/128/128 129/129/129
f 130/130/130 121/121/121 129/129/129
f 117/117/117 121/121/121 130/130/130
f 131/131/131 117/117/117 130/130/130
f 117/117/117 131/131/131 132/132/132
f 110/110/110 133/133/133 127/127/127
f 133/133/133 110/110/110 109/109/109
f 127/127/127 133/133/133 134/134/134
f 133/133/133 109/109/109 113/113/113
f 135/135/135 117/117/117 132/132/132
f 117/117/117 135/135/135 122/122/122
f 135/135/135 132/132/132 136/136/136
f 123/123/123 122/122/122 135/135/135
f 137/137/137 135/135/135 136/136/136
f 137/137/137 123/123/123 135/135/135
f 137/137/137 136/136/136 138/138/138
f 133/133/133 139/139/139 134/134/134
f 139/139/139 133/133/133 113/113/113
f 140/140/140 123/123/123 137/137/137
f 140/140/140 114/114/114 123/123/123
f 141/141/141 137/137/137 138/138/138
f 141/141/141 140/140/140 137/137/137
f 141/141/141 138/138/138 142/142/142
f 143/143/143 142/142/142 134/134/134
f 143/143/143 141/141/141 142/142/142
f 139/139/139 143/143/143 134/134/134
f 140/140/140 141/141/141 143/143/143
f 113/113/113 144/144/144 139/139/139
f 144/144/144 143/143/143 139/139/139
f 144/144/144 140/140/140 143/143/143
f 114/114/114 140/140/140 144/144/144
f 108/108/108 144/144/144 113/113/113
f 108/108/108 114/114/114 144/144/144
