g GrayBoxCubeWalled
v -1 -1 -1
v -1 1 -1
v -1 1 1
v -0.6 0.9986754 -0.99999994
v -0.6 0.9986754 0.99999994
v -0.6 -0.6 -0.99999994
v -0.6 -0.6 0.99999994
v -1 -1 1
v 0.98989886 -0.6 -0.99999994
v 0.98989886 -0.6 0.99999994
v 1 -1 -1
v 1 -1 1
vn -0.57735026 -0.57735026 -0.57735026
vn -0.5764748 0.5783975 -0.5771768
vn -0.5764748 0.5783975 0.5771768
vn 0.5782246 0.5763019 -0.57752264
vn 0.5782246 0.5763019 0.57752264
vn 0.57735026 0.57735026 -0.57735026
vn 0.57735026 0.57735026 0.57735026
vn -0.57735026 -0.57735026 0.57735026
vn 0.5693636 0.5839212 -0.5786719
vn 0.5693636 0.5839212 0.5786719
vn 0.58527416 -0.5706553 -0.57602674
vn 0.58527416 -0.5706553 0.57602674
g GrayBoxCubeWalled_0
f 3/3/3 2/2/2 1/1/1
f 1/1/1 2/2/2 4/4/4
f 5/5/5 4/4/4 2/2/2
f 3/3/3 5/5/5 2/2/2
f 4/4/4 5/5/5 6/6/6
f 1/1/1 4/4/4 6/6/6
f 7/7/7 5/5/5 3/3/3
f 5/5/5 7/7/7 6/6/6
f 8/8/8 3/3/3 1/1/1
f 7/7/7 3/3/3 8/8/8
f 1/1/1 6/6/6 9/9/9
f 6/6/6 7/7/7 9/9/9
f 10/10/10 7/7/7 8/8/8
f 7/7/7 10/10/10 9/9/9
f 9/9/9 11/11/11 1/1/1
f 8/8/8 1/1/1 11/11/11
f 8/8/8 12/12/12 10/10/10
f 10/10/10 12/12/12 9/9/9
f 12/12/12 8/8/8 11/11/11
f 12/12/12 11/11/11 9/9/9
