g GrayBoxCylinder
v 0.98078525 0.19508988 -2
v 1 -4.0133926E-07 -2
v 1 -4.0133926E-07 0
v 0.9807853 -0.19509068 0
v 0.98078525 0.19508988 0
v 0.9807853 -0.19509068 -2
v 0.92387956 -0.38268375 0
v 0.92387956 -0.38268375 -2
v 0.9238795 0.38268295 -2
v 0.9238795 0.38268295 0
v 0.83146966 -0.55557066 0
v 0.83146966 -0.55557066 -2
v 0.83146966 0.5555697 -2
v 0.83146966 0.5555697 0
v 0.70710677 -0.70710725 0
v 0.70710677 -0.70710725 -2
v 0.70710677 0.7071063 -2
v 0.70710677 0.7071063 0
v 0.5555702 -0.83147013 0
v 0.5555702 -0.83147013 -2
v 0.55557024 0.8314691 -2
v 0.55557024 0.8314691 0
v 0.38268346 0.923879 -2
v 0.38268346 0.923879 0
v 0.38268328 -0.9238801 0
v 0.38268328 -0.9238801 -2
v 0.19509032 0.9807848 -2
v 0.19509032 0.9807848 0
v 0.19509009 -0.9807858 0
v 0.19509009 -0.9807858 -2
v -0 0.9999995 -2
v -0 0.9999995 0
v -3.2584137E-07 -1.0000005 0
v -3.2584137E-07 -1.0000005 -2
v -0.19508882 0.9807851 -2
v -0.19508882 0.9807851 0
v -0.19509073 -0.98078567 0
v -0.19509073 -0.98078567 -2
v -0.38268209 0.9238796 -2
v -0.38268209 0.9238796 0
v -0.38268387 -0.9238798 0
v -0.38268387 -0.9238798 -2
v -0.5555691 0.8314699 -2
v -0.5555691 0.8314699 0
v -0.5555707 -0.8314698 0
v -0.5555707 -0.8314698 -2
v -0.7071059 0.7071072 -2
v -0.7071059 0.7071072 0
v -0.70710725 -0.7071068 0
v -0.70710725 -0.7071068 -2
v -0.83146894 0.5555708 -2
v -0.83146894 0.5555708 0
v -0.83147 -0.5555701 0
v -0.83147 -0.5555701 -2
v -0.9238791 0.382684 -2
v -0.9238791 0.382684 0
v -0.92387986 -0.38268316 0
v -0.92387986 -0.38268316 -2
v -0.9807851 0.19509088 -2
v -0.9807851 0.19509088 0
v -0.9807854 -0.19508994 0
v -0.9807854 -0.19508994 -2
v -1 4.88762E-07 -2
v -1 4.88762E-07 0
vn 0.71389866 0.14200455 -0.68569916
vn 0.72788095 0 -0.6857035
vn 0.72788095 0 0.6857035
vn 0.71389866 -0.14200455 0.68569916
vn 0.71389866 0.14200455 0.68569916
vn 0.71389866 -0.14200455 -0.68569916
vn 0.67248225 -0.2785453 0.6856969
vn 0.67248225 -0.2785453 -0.6856969
vn 0.67248225 0.2785453 -0.6856969
vn 0.67248225 0.2785453 0.6856969
vn 0.60522217 -0.4043767 0.6857008
vn 0.60522217 -0.4043767 -0.6857008
vn 0.60522217 0.4043767 -0.6857008
vn 0.60522217 0.4043767 0.6857008
vn 0.5146824 -0.5146824 0.6857142
vn 0.5146824 -0.5146824 -0.6857142
vn 0.5146824 0.5146824 -0.6857142
vn 0.5146824 0.5146824 0.6857142
vn 0.4043767 -0.60522217 0.6857008
vn 0.4043767 -0.60522217 -0.6857008
vn 0.4043767 0.60522217 -0.6857008
vn 0.4043767 0.60522217 0.6857008
vn 0.2785453 0.67248225 -0.6856969
vn 0.2785453 0.67248225 0.6856969
vn 0.2785453 -0.67248225 0.6856969
vn 0.2785453 -0.67248225 -0.6856969
vn 0.14200455 0.71389866 -0.68569916
vn 0.14200455 0.71389866 0.68569916
vn 0.14200455 -0.71389866 0.68569916
vn 0.14200455 -0.71389866 -0.68569916
vn -0 0.72788095 -0.6857035
vn -0 0.72788095 0.6857035
vn -0 -0.72788095 0.6857035
vn -0 -0.72788095 -0.6857035
vn -0.14200455 0.71389866 -0.68569916
vn -0.14200455 0.71389866 0.68569916
vn -0.14200455 -0.71389866 0.68569916
vn -0.14200455 -0.71389866 -0.68569916
vn -0.2785453 0.67248225 -0.6856969
vn -0.2785453 0.67248225 0.6856969
vn -0.2785453 -0.67248225 0.6856969
vn -0.2785453 -0.67248225 -0.6856969
vn -0.4043767 0.60522217 -0.6857008
vn -0.4043767 0.60522217 0.6857008
vn -0.4043767 -0.60522217 0.6857008
vn -0.4043767 -0.60522217 -0.6857008
vn -0.51467437 0.5147049 -0.68570346
vn -0.51467437 0.5147049 0.68570346
vn -0.5146824 -0.5146824 0.6857142
vn -0.5146824 -0.5146824 -0.6857142
vn -0.60522217 0.4043767 -0.6857008
vn -0.60522217 0.4043767 0.6857008
vn -0.60522217 -0.4043767 0.6857008
vn -0.60522217 -0.4043767 -0.6857008
vn -0.67248225 0.2785453 -0.6856969
vn -0.67248225 0.2785453 0.6856969
vn -0.67248225 -0.2785453 0.6856969
vn -0.67248225 -0.2785453 -0.6856969
vn -0.71389866 0.14200455 -0.68569916
vn -0.71389866 0.14200455 0.68569916
vn -0.71389866 -0.14200455 0.68569916
vn -0.71389866 -0.14200455 -0.68569916
vn -0.72788095 0 -0.6857035
vn -0.72788095 0 0.6857035
g GrayBoxCylinder_0
f 3/3/3 2/2/2 1/1/1
f 3/3/3 4/4/4 2/2/2
f 5/5/5 3/3/3 1/1/1
f 4/4/4 3/3/3 5/5/5
f 4/4/4 6/6/6 2/2/2
f 1/1/1 2/2/2 6/6/6
f 4/4/4 7/7/7 6/6/6
f 5/5/5 7/7/7 4/4/4
f 6/6/6 8/8/8 1/1/1
f 7/7/7 8/8/8 6/6/6
f 5/5/5 1/1/1 9/9/9
f 8/8/8 9/9/9 1/1/1
f 5/5/5 10/10/10 7/7/7
f 10/10/10 5/5/5 9/9/9
f 7/7/7 11/11/11 8/8/8
f 10/10/10 11/11/11 7/7/7
f 8/8/8 12/12/12 9/9/9
f 11/11/11 12/12/12 8/8/8
f 10/10/10 9/9/9 13/13/13
f 12/12/12 13/13/13 9/9/9
f 10/10/10 14/14/14 11/11/11
f 14/14/14 10/10/10 13/13/13
f 11/11/11 15/15/15 12/12/12
f 12/12/12 16/16/16 13/13/13
f 15/15/15 16/16/16 12/12/12
f 14/14/14 13/13/13 17/17/17
f 16/16/16 17/17/17 13/13/13
f 14/14/14 18/18/18 11/11/11
f 18/18/18 15/15/15 11/11/11
f 18/18/18 14/14/14 17/17/17
f 15/15/15 19/19/19 16/16/16
f 16/16/16 20/20/20 17/17/17
f 19/19/19 20/20/20 16/16/16
f 18/18/18 17/17/17 21/21/21
f 20/20/20 21/21/21 17/17/17
f 18/18/18 22/22/22 15/15/15
f 22/22/22 18/18/18 21/21/21
f 22/22/22 19/19/19 15/15/15
f 22/22/22 21/21/21 23/23/23
f 20/20/20 23/23/23 21/21/21
f 22/22/22 24/24/24 19/19/19
f 24/24/24 22/22/22 23/23/23
f 19/19/19 25/25/25 20/20/20
f 24/24/24 25/25/25 19/19/19
f 20/20/20 26/26/26 23/23/23
f 25/25/25 26/26/26 20/20/20
f 24/24/24 23/23/23 27/27/27
f 26/26/26 27/27/27 23/23/23
f 24/24/24 28/28/28 25/25/25
f 28/28/28 24/24/24 27/27/27
f 25/25/25 29/29/29 26/26/26
f 28/28/28 29/29/29 25/25/25
f 26/26/26 30/30/30 27/27/27
f 29/29/29 30/30/30 26/26/26
f 28/28/28 27/27/27 31/31/31
f 30/30/30 31/31/31 27/27/27
f 28/28/28 32/32/32 29/29/29
f 32/32/32 28/28/28 31/31/31
f 29/29/29 33/33/33 30/30/30
f 32/32/32 33/33/33 29/29/29
f 30/30/30 34/34/34 31/31/31
f 33/33/33 34/34/34 30/30/30
f 32/32/32 31/31/31 35/35/35
f 34/34/34 35/35/35 31/31/31
f 32/32/32 36/36/36 33/33/33
f 36/36/36 32/32/32 35/35/35
f 33/33/33 37/37/37 34/34/34
f 36/36/36 37/37/37 33/33/33
f 34/34/34 38/38/38 35/35/35
f 37/37/37 38/38/38 34/34/34
f 36/36/36 35/35/35 39/39/39
f 38/38/38 39/39/39 35/35/35
f 36/36/36 40/40/40 37/37/37
f 40/40/40 36/36/36 39/39/39
f 37/37/37 41/41/41 38/38/38
f 40/40/40 41/41/41 37/37/37
f 38/38/38 42/42/42 39/39/39
f 41/41/41 42/42/42 38/38/38
f 40/40/40 39/39/39 43/43/43
f 42/42/42 43/43/43 39/39/39
f 40/40/40 44/44/44 41/41/41
f 44/44/44 40/40/40 43/43/43
f 41/41/41 45/45/45 42/42/42
f 44/44/44 45/45/45 41/41/41
f 42/42/42 46/46/46 43/43/43
f 45/45/45 46/46/46 42/42/42
f 44/44/44 43/43/43 47/47/47
f 46/46/46 47/47/47 43/43/43
f 44/44/44 48/48/48 45/45/45
f 48/48/48 44/44/44 47/47/47
f 45/45/45 49/49/49 46/46/46
f 48/48/48 49/49/49 45/45/45
f 46/46/46 50/50/50 47/47/47
f 49/49/49 50/50/50 46/46/46
f 48/48/48 47/47/47 51/51/51
f 50/50/50 51/51/51 47/47/47
f 48/48/48 52/52/52 49/49/49
f 52/52/52 48/48/48 51/51/51
f 49/49/49 53/53/53 50/50/50
f 52/52/52 53/53/53 49/49/49
f 50/50/50 54/54/54 51/51/51
f 53/53/53 54/54/54 50/50/50
f 52/52/52 51/51/51 55/55/55
f 54/54/54 55/55/55 51/51/51
f 52/52/52 56/56/56 53/53/53
f 56/56/56 52/52/52 55/55/55
f 53/53/53 57/57/57 54/54/54
f 56/56/56 57/57/57 53/53/53
f 54/54/54 58/58/58 55/55/55
f 57/57/57 58/58/58 54/54/54
f 56/56/56 55/55/55 59/59/59
f 58/58/58 59/59/59 55/55/55
f 56/56/56 60/60/60 57/57/57
f 60/60/60 56/56/56 59/59/59
f 57/57/57 61/61/61 58/58/58
f 60/60/60 61/61/61 57/57/57
f 58/58/58 62/62/62 59/59/59
f 61/61/61 62/62/62 58/58/58
f 60/60/60 59/59/59 63/63/63
f 62/62/62 63/63/63 59/59/59
f 61/61/61 64/64/64 62/62/62
f 60/60/60 64/64/64 61/61/61
f 64/64/64 63/63/63 62/62/62
f 64/64/64 60/60/60 63/63/63
