g HumanShippingContainerSnowBigMesh
v 9.536743E-07 -1.7573673 8.448549
v -7.482571 -1.5581074 7.7076035
v -7.5674663 -1.7573673 8.448549
v 9.536743E-07 -1.5581074 7.7076035
v 7.567468 -1.7573673 8.448549
v -7.482571 7.272664 7.7076015
v -7.5674663 7.1735945 8.448547
v 7.482573 -1.5581074 7.7076035
v 7.567468 7.1735945 8.448547
v -7.482571 15.993585 7.7076015
v -7.5674663 15.99346 8.448547
v 7.482573 7.272664 7.7076015
v 7.567468 15.993459 8.448547
v -7.482571 24.76943 7.7076015
v -7.5674663 24.868874 8.448547
v 7.482573 15.993584 7.7076015
v 7.567468 24.868874 8.448547
v -7.482571 33.545273 7.7076015
v -7.5674663 33.744286 8.448547
v 7.482573 24.76943 7.7076015
v 7.567468 33.744286 8.448547
v 9.536743E-07 33.545273 7.7076015
v 9.536743E-07 33.744286 8.448547
v 7.482573 33.545273 7.7076015
v -6.9675117 24.166105 7.2312794
v -6.9675117 32.337868 7.2312794
v 9.536743E-07 32.337868 7.2312794
v 6.9675136 32.337868 7.2312794
v 6.9675136 24.166105 7.2312794
v 9.536743E-07 24.166105 7.2312794
v 6.9675136 15.99434 7.2312794
v -6.9675117 15.994341 7.2312794
v 9.536743E-07 15.994341 7.2312794
v 6.9675136 7.873721 7.2312794
v -6.9675117 7.873721 7.2312794
v 9.536743E-07 7.873721 7.2312794
v 6.9675136 -0.34918785 7.2312813
v 9.536743E-07 -0.34918785 7.2312813
v -6.9675117 -0.34918785 7.2312813
v 7.567468 7.1735945 8.448547
v 7.0302677 15.994247 9.385099
v 7.567468 15.993459 8.448547
v 7.0302677 7.8004885 9.385099
v 7.567468 -1.7573673 8.448549
v 7.0302677 24.239613 9.385099
v 7.567468 24.868874 8.448547
v 7.0302677 -0.49648094 9.385101
v 9.536743E-07 -1.7573673 8.448549
v 7.0302677 32.484978 9.385099
v 7.567468 33.744286 8.448547
v 9.536743E-07 -0.49648094 9.385101
v -7.5674663 -1.7573673 8.448549
v 9.536743E-07 32.484978 9.385099
v 9.536743E-07 33.744286 8.448547
v -7.030266 -0.49648094 9.385101
v -7.5674663 7.1735945 8.448547
v -7.030266 32.484978 9.385099
v -7.5674663 33.744286 8.448547
v -7.030266 7.8004885 9.385099
v -7.5674663 15.99346 8.448547
v -7.030266 24.239613 9.385099
v -7.5674663 24.868874 8.448547
v -7.030266 15.994248 9.385099
v 9.536743E-07 30.063038 10.009468
v -5.9971066 30.063038 10.009468
v -5.9971066 23.0294 10.009468
v -5.9971066 15.995766 10.009468
v -5.9971066 9.00615 10.009468
v -5.9971066 1.9284935 10.00947
v 5.9971085 30.063038 10.009468
v 9.536743E-07 1.9284935 10.00947
v 5.9971085 23.0294 10.009468
v 5.9971085 1.9284935 10.00947
v 5.9971085 15.995765 10.009468
v 5.9971085 9.00615 10.009468
v -4.8705115 4.572775 10.321655
v 9.536743E-07 4.572775 10.321655
v 4.8705134 4.572775 10.321655
v 4.8705134 10.320848 10.321653
v 4.8705134 15.997418 10.321653
v 4.8705134 21.70974 10.321653
v -4.8705115 10.320848 10.321653
v 4.8705134 27.422064 10.321653
v -4.8705115 15.997419 10.321653
v 9.536743E-07 27.422064 10.321653
v -4.8705115 21.70974 10.321653
v -4.8705115 27.422064 10.321653
v 4.097291 20.80401 10.448141
v 4.097291 25.60947 10.448141
v 9.536743E-07 25.60947 10.448141
v -4.097289 25.60947 10.448141
v -4.097289 20.80401 10.448141
v 9.536743E-07 20.80401 10.448141
v 4.097291 15.998554 10.448141
v -4.097289 15.998555 10.448141
v 9.536743E-07 15.998555 10.448141
v 4.097291 11.223173 10.448141
v -4.097289 11.223173 10.448141
v 9.536743E-07 11.223174 10.448141
v 4.097291 6.38764 10.448143
v 9.536743E-07 6.38764 10.448143
v -4.097289 6.38764 10.448143
vt 0.569298 -0.49804512
vt 0.04267192 -0.48402125
vt 0.03669691 -0.49804512
vt 0.569298 -0.48402125
vt 1.1018991 -0.49804512
vt 0.04267192 0.13749164
vt 0.03669691 0.13051909
vt 1.0959244 -0.48402125
vt 1.1018991 0.13051909
vt 0.04267192 0.75127333
vt 0.03669691 0.7512645
vt 1.0959244 0.13749164
vt 1.1018991 0.7512645
vt 0.04267192 1.3689208
vt 0.03669691 1.3759196
vt 1.0959244 0.75127333
vt 1.1018991 1.3759196
vt 0.04267192 1.9865675
vt 0.03669691 2.0005746
vt 1.0959244 1.3689208
vt 1.1018991 2.0005746
vt 0.569298 1.9865675
vt 0.569298 2.0005746
vt 1.0959244 1.9865675
vt 0.078921914 1.3264587
vt 0.078921914 1.9015899
vt 0.569298 1.9015899
vt 1.0596743 1.9015899
vt 1.0596743 1.3264587
vt 0.569298 1.3264587
vt 1.0596743 0.75132626
vt 0.078921914 0.7513265
vt 0.569298 0.7513265
vt 1.0596743 0.17979449
vt 0.078921914 0.17979449
vt 0.569298 0.17979449
vt 1.0596743 -0.39893705
vt 0.569298 -0.39893705
vt 0.078921914 -0.39893705
vt 1.1018991 0.13051909
vt 1.0640907 0.75132006
vt 1.1018991 0.7512645
vt 1.0640907 0.17464036
vt 1.1018991 -0.49804512
vt 1.0640907 1.3316319
vt 1.1018991 1.3759196
vt 1.0640907 -0.40930364
vt 0.569298 -0.49804512
vt 1.0640907 1.9119439
vt 1.1018991 2.0005746
vt 0.569298 -0.40930364
vt 0.03669691 -0.49804512
vt 0.569298 1.9119439
vt 0.569298 2.0005746
vt 0.07450533 -0.40930364
vt 0.03669691 0.13051909
vt 0.07450533 1.9119439
vt 0.03669691 2.0005746
vt 0.07450533 0.17464036
vt 0.03669691 0.7512645
vt 0.07450533 1.3316319
vt 0.03669691 1.3759196
vt 0.07450533 0.75132006
vt 0.569298 1.7414868
vt 0.14721942 1.7414868
vt 0.14721942 1.2464569
vt 0.14721942 0.75142664
vt 0.14721942 0.25949496
vt 0.14721942 -0.23863298
vt 0.9913769 1.7414868
vt 0.569298 -0.23863298
vt 0.9913769 1.2464569
vt 0.9913769 -0.23863298
vt 0.9913769 0.75142664
vt 0.9913769 0.25949496
vt 0.22650969 -0.052527487
vt 0.569298 -0.052527487
vt 0.9120865 -0.052527487
vt 0.9120865 0.35202426
vt 0.9120865 0.751543
vt 0.9120865 1.1535785
vt 0.22650969 0.35202426
vt 0.9120865 1.5556142
vt 0.22650969 0.7515432
vt 0.569298 1.5556142
vt 0.22650969 1.1535785
vt 0.22650969 1.5556142
vt 0.85766673 1.0898328
vt 0.85766673 1.4280429
vt 0.569298 1.4280429
vt 0.2809292 1.4280429
vt 0.2809292 1.0898328
vt 0.569298 1.0898328
vt 0.85766673 0.7516231
vt 0.2809292 0.7516231
vt 0.569298 0.7516231
vt 0.85766673 0.4155299
vt 0.2809292 0.4155299
vt 0.569298 0.4155299
vt 0.85766673 0.07520336
vt 0.569298 0.07520336
vt 0.2809292 0.07520336
vn -0 -0.9445429 0.32838804
vn -0.59092325 -0.5593963 -0.581279
vn -0.63965917 -0.718186 0.27394345
vn -0 -0.74578226 -0.6661898
vn 0.63965917 -0.718186 0.27394345
vn -0.8918982 0 -0.45223606
vn -0.9793966 0 0.20194657
vn 0.59092325 -0.5593963 -0.581279
vn 0.9793966 0 0.20194657
vn -0.8918982 0 -0.45223606
vn -0.9793966 0 0.20194657
vn 0.8918982 0 -0.45223606
vn 0.9793966 0 0.20194657
vn -0.8918982 0 -0.45223606
vn -0.9793966 0 0.20194657
vn 0.8918982 0 -0.45223606
vn 0.9793966 0 0.20194657
vn -0.5909451 0.55954075 -0.5811179
vn -0.639738 0.7181412 0.27387697
vn 0.8918982 0 -0.45223606
vn 0.639738 0.7181412 0.27387697
vn -0 0.746027 -0.6659157
vn -0 0.94458735 0.3282602
vn 0.5909451 0.55954075 -0.5811179
vn -0.36455584 0 -0.9311816
vn -0.314929 0.12680784 -0.94060594
vn -0 0.1867755 -0.98240256
vn 0.314929 0.12680784 -0.94060594
vn 0.36455584 0 -0.9311816
vn -0 0 -1
vn 0.36455584 0 -0.9311816
vn -0.36455584 0 -0.9311816
vn -0 0 -1
vn 0.36455584 0 -0.9311816
vn -0.36455584 0 -0.9311816
vn -0 0 -1
vn 0.31495354 -0.12665284 -0.94061863
vn -0 -0.18656373 -0.98244286
vn -0.31495354 -0.12665284 -0.94061863
vn 0.9793966 0 0.20194657
vn 0.71513313 0 0.6989883
vn 0.9793966 0 0.20194657
vn 0.71513313 0 0.6989883
vn 0.63965917 -0.718186 0.27394345
vn 0.71513313 0 0.6989883
vn 0.9793966 0 0.20194657
vn 0.4623985 -0.280839 0.8410215
vn -0 -0.9445429 0.32838804
vn 0.46237043 0.28114566 0.8409344
vn 0.639738 0.7181412 0.27387697
vn -0 -0.43084195 0.9024273
vn -0.63965917 -0.718186 0.27394345
vn -0 0.43123627 0.902239
vn -0 0.94458735 0.3282602
vn -0.4623985 -0.280839 0.8410215
vn -0.9793966 0 0.20194657
vn -0.46237043 0.28114566 0.8409344
vn -0.639738 0.7181412 0.27387697
vn -0.71513313 0 0.6989883
vn -0.9793966 0 0.20194657
vn -0.71513313 0 0.6989883
vn -0.9793966 0 0.20194657
vn -0.71513313 0 0.6989883
vn -0 0.18391077 0.98294294
vn -0.2502573 0.104863934 0.96248364
vn -0.39580804 0 0.9183333
vn -0.39580804 0 0.9183333
vn -0.39580804 0 0.9183333
vn -0.25028995 -0.10471221 0.9624917
vn 0.2502573 0.104863934 0.96248364
vn -0 -0.18369332 0.9829836
vn 0.39580804 0 0.9183333
vn 0.25028995 -0.10471221 0.9624917
vn 0.39580804 0 0.9183333
vn 0.39580804 0 0.9183333
vn -0.1277534 -0.050265133 0.9905314
vn -0 -0.093388915 0.99562967
vn 0.1277534 -0.050265133 0.9905314
vn 0.21455143 0 0.97671264
vn 0.21455143 0 0.97671264
vn 0.21455143 0 0.97671264
vn -0.21455143 0 0.97671264
vn 0.12775283 0.050356463 0.9905269
vn -0.21455143 0 0.97671264
vn -0 0.093509935 0.99561834
vn -0.21455143 0 0.97671264
vn -0.12775283 0.050356463 0.9905269
vn 0.080966644 0 0.9967168
vn 0.0705597 0.021943092 0.9972662
vn -0 0.034821756 0.9993936
vn -0.0705597 0.021943092 0.9972662
vn -0.080966644 0 0.9967168
vn -0 0 1
vn 0.080966644 0 0.9967168
vn -0.080966644 0 0.9967168
vn -0 0 1
vn 0.080966644 0 0.9967168
vn -0.080966644 0 0.9967168
vn -0 0 1
vn 0.07055975 -0.021912588 0.9972669
vn -0 -0.034760796 0.9993957
vn -0.07055975 -0.021912588 0.9972669
g HumanShippingContainerSnowBigMesh_0
f 3/3/3 2/2/2 1/1/1
f 2/2/2 4/4/4 1/1/1
f 1/1/1 4/4/4 5/5/5
f 6/6/6 2/2/2 3/3/3
f 7/7/7 6/6/6 3/3/3
f 4/4/4 8/8/8 5/5/5
f 5/5/5 8/8/8 9/9/9
f 10/10/10 6/6/6 7/7/7
f 11/11/11 10/10/10 7/7/7
f 8/8/8 12/12/12 9/9/9
f 9/9/9 12/12/12 13/13/13
f 14/14/14 10/10/10 11/11/11
f 15/15/15 14/14/14 11/11/11
f 12/12/12 16/16/16 13/13/13
f 13/13/13 16/16/16 17/17/17
f 18/18/18 14/14/14 15/15/15
f 19/19/19 18/18/18 15/15/15
f 16/16/16 20/20/20 17/17/17
f 17/17/17 20/20/20 21/21/21
f 22/22/22 18/18/18 19/19/19
f 23/23/23 22/22/22 19/19/19
f 21/21/21 24/24/24 23/23/23
f 20/20/20 24/24/24 21/21/21
f 24/24/24 22/22/22 23/23/23
f 14/14/14 25/25/25 10/10/10
f 18/18/18 26/26/26 14/14/14
f 26/26/26 25/25/25 14/14/14
f 22/22/22 27/27/27 18/18/18
f 27/27/27 26/26/26 18/18/18
f 24/24/24 28/28/28 22/22/22
f 28/28/28 27/27/27 22/22/22
f 29/29/29 28/28/28 24/24/24
f 20/20/20 29/29/29 24/24/24
f 28/28/28 29/29/29 27/27/27
f 27/27/27 30/30/30 26/26/26
f 29/29/29 30/30/30 27/27/27
f 30/30/30 25/25/25 26/26/26
f 31/31/31 29/29/29 20/20/20
f 29/29/29 31/31/31 30/30/30
f 16/16/16 31/31/31 20/20/20
f 25/25/25 32/32/32 10/10/10
f 10/10/10 32/32/32 6/6/6
f 30/30/30 33/33/33 25/25/25
f 31/31/31 33/33/33 30/30/30
f 33/33/33 32/32/32 25/25/25
f 34/34/34 31/31/31 16/16/16
f 31/31/31 34/34/34 33/33/33
f 12/12/12 34/34/34 16/16/16
f 32/32/32 35/35/35 6/6/6
f 6/6/6 35/35/35 2/2/2
f 33/33/33 36/36/36 32/32/32
f 34/34/34 36/36/36 33/33/33
f 36/36/36 35/35/35 32/32/32
f 37/37/37 34/34/34 12/12/12
f 34/34/34 37/37/37 36/36/36
f 8/8/8 37/37/37 12/12/12
f 37/37/37 38/38/38 36/36/36
f 38/38/38 37/37/37 8/8/8
f 36/36/36 38/38/38 35/35/35
f 4/4/4 38/38/38 8/8/8
f 35/35/35 39/39/39 2/2/2
f 38/38/38 39/39/39 35/35/35
f 39/39/39 38/38/38 4/4/4
f 2/2/2 39/39/39 4/4/4
f 42/42/42 41/41/41 40/40/40
f 41/41/41 43/43/43 40/40/40
f 40/40/40 43/43/43 44/44/44
f 45/45/45 41/41/41 42/42/42
f 46/46/46 45/45/45 42/42/42
f 43/43/43 47/47/47 44/44/44
f 44/44/44 47/47/47 48/48/48
f 49/49/49 45/45/45 46/46/46
f 50/50/50 49/49/49 46/46/46
f 47/47/47 51/51/51 48/48/48
f 48/48/48 51/51/51 52/52/52
f 53/53/53 49/49/49 50/50/50
f 54/54/54 53/53/53 50/50/50
f 51/51/51 55/55/55 52/52/52
f 52/52/52 55/55/55 56/56/56
f 57/57/57 53/53/53 54/54/54
f 58/58/58 57/57/57 54/54/54
f 55/55/55 59/59/59 56/56/56
f 56/56/56 59/59/59 60/60/60
f 61/61/61 57/57/57 58/58/58
f 62/62/62 61/61/61 58/58/58
f 60/60/60 63/63/63 62/62/62
f 59/59/59 63/63/63 60/60/60
f 63/63/63 61/61/61 62/62/62
f 53/53/53 64/64/64 49/49/49
f 57/57/57 65/65/65 53/53/53
f 65/65/65 64/64/64 53/53/53
f 61/61/61 66/66/66 57/57/57
f 66/66/66 65/65/65 57/57/57
f 63/63/63 67/67/67 61/61/61
f 67/67/67 66/66/66 61/61/61
f 59/59/59 68/68/68 63/63/63
f 68/68/68 67/67/67 63/63/63
f 55/55/55 69/69/69 59/59/59
f 69/69/69 68/68/68 59/59/59
f 64/64/64 70/70/70 49/49/49
f 49/49/49 70/70/70 45/45/45
f 71/71/71 69/69/69 55/55/55
f 51/51/51 71/71/71 55/55/55
f 70/70/70 72/72/72 45/45/45
f 45/45/45 72/72/72 41/41/41
f 73/73/73 71/71/71 51/51/51
f 47/47/47 73/73/73 51/51/51
f 72/72/72 74/74/74 41/41/41
f 41/41/41 74/74/74 43/43/43
f 43/43/43 75/75/75 47/47/47
f 75/75/75 73/73/73 47/47/47
f 74/74/74 75/75/75 43/43/43
f 69/69/69 76/76/76 68/68/68
f 71/71/71 77/77/77 69/69/69
f 77/77/77 76/76/76 69/69/69
f 73/73/73 78/78/78 71/71/71
f 78/78/78 77/77/77 71/71/71
f 75/75/75 79/79/79 73/73/73
f 79/79/79 78/78/78 73/73/73
f 74/74/74 80/80/80 75/75/75
f 80/80/80 79/79/79 75/75/75
f 72/72/72 81/81/81 74/74/74
f 81/81/81 80/80/80 74/74/74
f 76/76/76 82/82/82 68/68/68
f 68/68/68 82/82/82 67/67/67
f 83/83/83 81/81/81 72/72/72
f 70/70/70 83/83/83 72/72/72
f 82/82/82 84/84/84 67/67/67
f 67/67/67 84/84/84 66/66/66
f 85/85/85 83/83/83 70/70/70
f 64/64/64 85/85/85 70/70/70
f 84/84/84 86/86/86 66/66/66
f 66/66/66 86/86/86 65/65/65
f 65/65/65 87/87/87 64/64/64
f 87/87/87 85/85/85 64/64/64
f 86/86/86 87/87/87 65/65/65
f 81/81/81 88/88/88 80/80/80
f 83/83/83 89/89/89 81/81/81
f 89/89/89 88/88/88 81/81/81
f 90/90/90 89/89/89 83/83/83
f 85/85/85 90/90/90 83/83/83
f 88/88/88 89/89/89 90/90/90
f 87/87/87 91/91/91 85/85/85
f 91/91/91 90/90/90 85/85/85
f 86/86/86 92/92/92 87/87/87
f 92/92/92 91/91/91 87/87/87
f 93/93/93 90/90/90 91/91/91
f 93/93/93 88/88/88 90/90/90
f 92/92/92 93/93/93 91/91/91
f 88/88/88 94/94/94 80/80/80
f 94/94/94 88/88/88 93/93/93
f 80/80/80 94/94/94 79/79/79
f 95/95/95 92/92/92 86/86/86
f 84/84/84 95/95/95 86/86/86
f 96/96/96 93/93/93 92/92/92
f 96/96/96 94/94/94 93/93/93
f 95/95/95 96/96/96 92/92/92
f 94/94/94 97/97/97 79/79/79
f 97/97/97 94/94/94 96/96/96
f 79/79/79 97/97/97 78/78/78
f 98/98/98 95/95/95 84/84/84
f 82/82/82 98/98/98 84/84/84
f 99/99/99 96/96/96 95/95/95
f 99/99/99 97/97/97 96/96/96
f 98/98/98 99/99/99 95/95/95
f 97/97/97 100/100/100 78/78/78
f 100/100/100 97/97/97 99/99/99
f 78/78/78 100/100/100 77/77/77
f 101/101/101 100/100/100 99/99/99
f 100/100/100 101/101/101 77/77/77
f 101/101/101 99/99/99 98/98/98
f 77/77/77 101/101/101 76/76/76
f 102/102/102 98/98/98 82/82/82
f 76/76/76 102/102/102 82/82/82
f 101/101/101 102/102/102 76/76/76
f 102/102/102 101/101/101 98/98/98
