g Icosphere.603
v 2.3467734 0.028770328 0.7622404
v 2.3467734 0.028770328 0.31276643
v 2.3467734 0.028770328 -0.033290282
v -0.21432042 0.43157077 0.6004238
v 0.56597316 0.4305645 0.7622514
v 0.56597316 0.23494591 0.80901176
v 1.2672633 0.13243088 0.8090075
v 1.2672633 0.31735015 0.76224715
v 1.788349 -0.012120012 0.8090044
v 1.788349 0.18512985 0.762244
v 2.3467734 -0.16768998 0.80900085
v 2.3467734 0.028770328 0.7622404
v 0.56597316 0.23494591 0.80901176
v -0.8944262 0.23511046 0.6004238
v -0.21432042 0.43157077 0.6004238
v -0.7236073 0.43157077 0.57478964
v -0.8944262 0.23511046 0.6004238
v -0.9510579 0.43157077 0.57774097
v -0.7236073 0.43157077 0.57478964
v -1.6781167 0.43157077 0.056207508
v -1.621485 0.06968805 -0.2528051
v -1.6781166 0.19746365 -0.56181777
v -1.5777066 0.43639 -0.25847927
v -1.4506661 0.43157077 -0.77741694
v -0.9510579 0.43157077 0.57774097
v -0.85064787 0.43157077 0.02475217
v -0.7236073 0.43157077 -0.6908322
v -0.7236073 0.43157077 0.57478964
v -0.2763241 0.43157077 -0.49007612
v -0.42532265 0.43157077 0.27196434
v 0.12614948 0.43154982 -0.036782056
v -0.95105785 0.21685682 -0.6908322
v -1.6781166 0.19746365 -0.56181777
v -1.621485 0.06968805 -0.2528051
v -0.8944262 0.23511046 0.6004238
v -0.6881894 0.23511046 -0.6908322
v 0.56597316 0.23410603 -0.6908321
v 0.56597316 0.23494591 0.80901176
v 1.2672633 0.12851302 -0.6908363
v 1.2672633 0.13243088 0.8090075
v 1.788349 -0.018418446 -0.6908394
v 1.788349 -0.012120012 0.8090044
v 2.3467734 -0.16768998 -0.690843
v 2.3467734 -0.16768998 0.80900085
v -0.7236073 0.43157077 0.57478964
v -0.42532265 0.43157077 0.27196434
v -0.21432042 0.43157077 0.6004238
v 0.32844546 0.43140537 0.50340027
v 0.12614948 0.43154982 -0.036782056
v 0.57844484 0.41950205 0.33459926
v 0.56597316 0.4305645 0.7622514
v 0.77429205 0.39519382 0.39265788
v 1.2672633 0.31735015 0.76224715
v 1.2672633 0.3110435 0.31277317
v 1.788349 0.18512985 0.762244
v 0.7116213 0.40732723 0.042154677
v 1.788349 0.17112538 0.31277004
v 2.3467734 0.028770328 0.7622404
v 2.3467734 0.028770328 0.31276643
v 0.51620996 0.4294492 -0.036886517
v 0.32844546 0.43140537 0.50340027
v 0.12614948 0.43154982 -0.036782056
v 1.2672633 0.3332091 -0.033283547
v 1.788349 0.17154217 -0.033286676
v 2.3467734 0.028770328 -0.033290282
v 0.6720501 0.40502954 -0.3452415
v 0.51620996 0.4294492 -0.036886517
v 1.2487493 0.31029704 -0.40838626
v 1.788349 0.1789885 -0.56358945
v 2.3467734 0.028770328 -0.56359303
v 0.32730627 0.4300873 -0.45350313
v 0.12614948 0.43154982 -0.036782056
v 0.5632425 0.4262999 -0.6863322
v 1.2672633 0.3239014 -0.6908363
v 1.788349 0.20642775 -0.6908394
v 2.3467734 0.028770328 -0.690843
v 0.5632425 0.4262999 -0.6863322
v 0.32730627 0.4300873 -0.45350313
v -0.2234921 0.43157077 -0.69083214
v -0.2763241 0.43157077 -0.49007612
v 0.12614948 0.43154982 -0.036782056
v -0.7236073 0.43157077 -0.6908322
v -0.7236073 0.43157077 -0.6908322
v -1.4506661 0.43157077 -0.77741694
v -1.6781166 0.19746365 -0.56181777
v -0.95105785 0.21685682 -0.6908322
v -0.6881894 0.23511046 -0.6908322
v -0.2234921 0.43157077 -0.69083214
v 0.5632425 0.4262999 -0.6863322
v 0.56597316 0.23410603 -0.6908321
v 1.2672633 0.3239014 -0.6908363
v 1.2672633 0.12851302 -0.6908363
v 1.788349 0.20642775 -0.6908394
v 1.788349 -0.018418446 -0.6908394
v 2.3467734 0.028770328 -0.690843
v 2.3467734 -0.16768998 -0.690843
v 2.3467734 0.028770328 -0.690843
v 2.3467734 -0.16768998 -0.690843
v 2.3467734 -0.16768998 0.80900085
v 2.3467734 0.028770328 0.7622404
v 2.3467734 0.028770328 0.7622404
v 2.3467734 0.028770328 -0.56359303
v 2.3467734 0.028770328 -0.690843
v 2.3467734 0.028770328 -0.033290282
vt 0.7727265 0.236191
vt 0.68181753 0.236191
vt 0.636363 0.314921
vt 0.9090905 0.314921
vt 0.7727265 0.236191
vt 0.818181 0.157461
vt 0.818181 0.157461
vt 0.7727265 0.236191
vt 0.818181 0.157461
vt 0.7727265 0.236191
vt 0.818181 0.157461
vt 0.7727265 0.236191
vt 0.818181 0.157461
vt 0.181818 0.157461
vt 0.9090905 0.314921
vt 0.090909 0.314921
vt 0.181818 0.157461
vt 0.13636349 0.236191
vt 0.090909 0.314921
vt 0.13636349 0.236191
vt 0.181818 0.157461
vt 0.22727251 0.236191
vt 0.18181801 0.314921
vt 0.272727 0.314921
vt 0.13636349 0.236191
vt 0.18181801 0.314921
vt 0.272727 0.314921
vt 0.090909 0.314921
vt 0.22727251 0.3936515
vt 0.13636349 0.3936515
vt 0.181818 0.472382
vt 0.22727251 0.236191
vt 0.22727251 0.236191
vt 0.181818 0.157461
vt 0.181818 0.157461
vt 0.27272698 0.157461
vt 0.545454 0.157461
vt 0.818181 0.157461
vt 0.545454 0.157461
vt 0.818181 0.157461
vt 0.545454 0.157461
vt 0.818181 0.157461
vt 0.545454 0.157461
vt 0.818181 0.157461
vt 1 0.314921
vt 0.954545 0.3936515
vt 0.9090905 0.314921
vt 0.8636355 0.3936515
vt 0.90909 0.472382
vt 0.72727203 0.314921
vt 0.7727265 0.236191
vt 0.68181753 0.236191
vt 0.7727265 0.236191
vt 0.68181753 0.236191
vt 0.7727265 0.236191
vt 0.636363 0.314921
vt 0.68181753 0.236191
vt 0.7727265 0.236191
vt 0.68181753 0.236191
vt 0.68181753 0.3936515
vt 0.7727265 0.3936515
vt 0.727272 0.472382
vt 0.636363 0.314921
vt 0.636363 0.314921
vt 0.636363 0.314921
vt 0.545454 0.314921
vt 0.5909085 0.3936515
vt 0.545454 0.314921
vt 0.545454 0.314921
vt 0.545454 0.314921
vt 0.49999952 0.3936515
vt 0.545454 0.472382
vt 0.454545 0.314921
vt 0.454545 0.314921
vt 0.454545 0.314921
vt 0.454545 0.314921
vt 0.454545 0.314921
vt 0.4090905 0.3936515
vt 0.36363602 0.314921
vt 0.3181815 0.3936515
vt 0.363636 0.472382
vt 0.272727 0.314921
vt 0.272727 0.314921
vt 0.272727 0.314921
vt 0.22727251 0.236191
vt 0.22727251 0.236191
vt 0.27272698 0.157461
vt 0.36363602 0.314921
vt 0.454545 0.314921
vt 0.545454 0.157461
vt 0.454545 0.314921
vt 0.545454 0.157461
vt 0.454545 0.314921
vt 0.545454 0.157461
vt 0.454545 0.314921
vt 0.545454 0.157461
vt 0.454545 0.314921
vt 0.545454 0.157461
vt 0.818181 0.157461
vt 0.7727265 0.236191
vt 0.7727265 0.236191
vt 0.545454 0.314921
vt 0.454545 0.314921
vt 0.636363 0.314921
vn -0 1 0
vn -0 1 0
vn -0 1 0
vn -0.12783124 0.42258072 0.89726514
vn -0.0573001 0.23583281 0.9701029
vn -0.045079112 0.26043543 0.96443826
vn 0.049565677 0.23789549 0.9700253
vn 0.04630758 0.23805152 0.970148
vn 0.06386454 0.23321876 0.9703249
vn 0.06363167 0.23430614 0.9700781
vn 0.06441897 0.23062675 0.9709075
vn 0.064418964 0.23062673 0.9709075
vn -0.045079112 0.26043543 0.96443826
vn -0.45046785 -0.13759501 0.882126
vn -0.12783124 0.42258072 0.89726514
vn -0.040617447 0.16392222 0.9856367
vn -0.45046785 -0.13759501 0.882126
vn -0.50568694 -0.046305977 0.86147344
vn -0.040617447 0.16392222 0.9856367
vn -0.5141159 0.76424104 0.3893846
vn -0.76466864 -0.48348004 0.42606208
vn -0.8717194 0.46198654 -0.16332087
vn -0.1882175 0.98077136 -0.051592693
vn -0.09255966 0.99528164 -0.029104283
vn 0.00017525778 0.9999894 0.0046103606
vn 0.0016167511 0.99999833 0.00088410766
vn 0.0030321185 0.99999285 -0.0022680084
vn -0 1 0
vn 0.00063832843 0.99999976 -0.00023350827
vn 5.7583067E-05 1 2.3213597E-05
vn 0.001844804 0.9999981 -0.00067521154
vn 0.14168604 -0.98824584 -0.05740382
vn 0.16427541 -0.9832523 -0.078920566
vn 0.1642754 -0.9832523 -0.078920566
vn 0.019001774 -0.99978226 -0.00863085
vn 0.004291141 -0.99999034 0.0010019601
vn -0.05300084 -0.9985942 0.0007355965
vn -0.056233607 -0.9984174 0.0007643647
vn -0.20023528 -0.9797451 0.0023142656
vn -0.20019303 -0.9797538 0.0023136763
vn -0.26622963 -0.963906 0.0026311635
vn -0.26623395 -0.9639049 0.00263206
vn -0.2633149 -0.9647078 0.0020255956
vn -0.2633149 -0.9647078 0.0020255954
vn -0 1 0
vn 5.7583067E-05 1 2.3213597E-05
vn 0.002139677 0.9999968 -0.001403781
vn 0.010168719 0.99994147 -0.0037085647
vn 0.001844804 0.9999981 -0.00067521154
vn 0.064375676 0.9979255 0.00071517966
vn 0.10074833 0.99486935 -0.009212281
vn 0.15621805 0.98770976 0.005033517
vn 0.20753264 0.9781075 -0.015355396
vn 0.21198964 0.97724813 0.0068113343
vn 0.25556177 0.9666186 -0.01834944
vn 0.14276442 0.98973477 -0.006580206
vn 0.25850844 0.96600235 -0.003593957
vn 0.25835055 0.96593404 -0.015048024
vn 0.2535905 0.9672764 -0.008260525
vn 0.044899244 0.9989698 -0.00658282
vn 0.010168719 0.99994147 -0.0037085647
vn 0.001844804 0.9999981 -0.00067521154
vn 0.21130773 0.9774086 -0.0046307486
vn 0.2597515 0.9656714 0.002802377
vn 0.2512291 0.9679179 0.0043423185
vn 0.13589902 0.9907088 -0.005242659
vn 0.044899244 0.9989698 -0.00658282
vn 0.19968289 0.97985876 0.0018712033
vn 0.2575727 0.9658875 0.02679254
vn 0.25912338 0.9655046 0.025611911
vn 0.018322986 0.9998282 -0.0028060013
vn 0.001844804 0.9999981 -0.00067521154
vn 0.11229886 0.99331564 0.026703693
vn 0.18684311 0.9805063 0.0608023
vn 0.25660995 0.96070874 0.10578304
vn 0.2801898 0.9544135 0.10290143
vn 0.11229886 0.99331564 0.026703693
vn 0.018322986 0.9998282 -0.0028060013
vn 0.002422522 0.99999595 -0.001536455
vn 0.00063832843 0.99999976 -0.00023350827
vn 0.001844804 0.9999981 -0.00067521154
vn 0.0030321185 0.99999285 -0.0022680084
vn -0.012645021 -0.25031582 -0.9680816
vn -0.020991517 -0.41553855 -0.9093333
vn -0.020991517 -0.41553858 -0.9093333
vn -0.020209426 -0.40005672 -0.9162675
vn 0.00077370973 0.0011972832 -0.99999905
vn 0.0051579694 -0.012200098 -0.99991226
vn -0.0005650729 0.016186168 -0.99986887
vn -0.00082244375 0.016828584 -0.999858
vn -0.00091545156 0.007102689 -0.99997437
vn -0.00073219376 0.005671553 -0.99998367
vn -0 0 -1
vn -0 0 -1
vn -0 0 -1
vn -0 0 -1
vn 1 0 0
vn 1 0 0
vn 1 0 0
vn 1 0 0
vn -0 1 0
vn -0 1 0
vn -0 1 0
vn -0 1 0
g Icosphere.603_0
f 3/3/3 2/2/2 1/1/1
f 6/6/6 5/5/5 4/4/4
f 6/6/6 7/7/7 5/5/5
f 7/7/7 8/8/8 5/5/5
f 7/7/7 9/9/9 8/8/8
f 9/9/9 10/10/10 8/8/8
f 9/9/9 11/11/11 10/10/10
f 11/11/11 12/12/12 10/10/10
f 15/15/15 14/14/14 13/13/13
f 15/15/15 16/16/16 14/14/14
f 19/19/19 18/18/18 17/17/17
f 18/18/18 20/20/20 17/17/17
f 20/20/20 21/21/21 17/17/17
f 20/20/20 22/22/22 21/21/21
f 20/20/20 23/23/23 22/22/22
f 23/23/23 24/24/24 22/22/22
f 23/23/23 20/20/20 25/25/25
f 24/24/24 23/23/23 26/26/26
f 26/26/26 23/23/23 25/25/25
f 27/27/27 24/24/24 26/26/26
f 28/28/28 26/26/26 25/25/25
f 26/26/26 29/29/29 27/27/27
f 28/28/28 30/30/30 26/26/26
f 26/26/26 30/30/30 29/29/29
f 30/30/30 31/31/31 29/29/29
f 34/34/34 33/33/33 32/32/32
f 35/35/35 34/34/34 32/32/32
f 35/35/35 32/32/32 36/36/36
f 35/35/35 36/36/36 37/37/37
f 38/38/38 35/35/35 37/37/37
f 37/37/37 39/39/39 38/38/38
f 39/39/39 40/40/40 38/38/38
f 39/39/39 41/41/41 40/40/40
f 41/41/41 42/42/42 40/40/40
f 41/41/41 43/43/43 42/42/42
f 43/43/43 44/44/44 42/42/42
f 47/47/47 46/46/46 45/45/45
f 47/47/47 48/48/48 46/46/46
f 48/48/48 49/49/49 46/46/46
f 50/50/50 48/48/48 47/47/47
f 51/51/51 50/50/50 47/47/47
f 52/52/52 50/50/50 51/51/51
f 51/51/51 53/53/53 52/52/52
f 53/53/53 54/54/54 52/52/52
f 53/53/53 55/55/55 54/54/54
f 56/56/56 50/50/50 52/52/52
f 52/52/52 54/54/54 56/56/56
f 55/55/55 57/57/57 54/54/54
f 55/55/55 58/58/58 57/57/57
f 58/58/58 59/59/59 57/57/57
f 56/56/56 60/60/60 50/50/50
f 50/50/50 60/60/60 61/61/61
f 60/60/60 62/62/62 61/61/61
f 54/54/54 63/63/63 56/56/56
f 54/54/54 57/57/57 63/63/63
f 57/57/57 59/59/59 64/64/64
f 57/57/57 64/64/64 63/63/63
f 59/59/59 65/65/65 64/64/64
f 56/56/56 63/63/63 66/66/66
f 66/66/66 67/67/67 56/56/56
f 63/63/63 64/64/64 68/68/68
f 63/63/63 68/68/68 66/66/66
f 64/64/64 65/65/65 69/69/69
f 64/64/64 69/69/69 68/68/68
f 65/65/65 70/70/70 69/69/69
f 66/66/66 71/71/71 67/67/67
f 71/71/71 72/72/72 67/67/67
f 73/73/73 71/71/71 66/66/66
f 66/66/66 68/68/68 73/73/73
f 68/68/68 74/74/74 73/73/73
f 68/68/68 69/69/69 74/74/74
f 69/69/69 75/75/75 74/74/74
f 69/69/69 70/70/70 75/75/75
f 70/70/70 76/76/76 75/75/75
f 79/79/79 78/78/78 77/77/77
f 79/79/79 80/80/80 78/78/78
f 80/80/80 81/81/81 78/78/78
f 82/82/82 80/80/80 79/79/79
f 85/85/85 84/84/84 83/83/83
f 86/86/86 85/85/85 83/83/83
f 87/87/87 86/86/86 83/83/83
f 87/87/87 83/83/83 88/88/88
f 87/87/87 88/88/88 89/89/89
f 89/89/89 90/90/90 87/87/87
f 89/89/89 91/91/91 90/90/90
f 91/91/91 92/92/92 90/90/90
f 91/91/91 93/93/93 92/92/92
f 93/93/93 94/94/94 92/92/92
f 93/93/93 95/95/95 94/94/94
f 95/95/95 96/96/96 94/94/94
f 99/99/99 98/98/98 97/97/97
f 97/97/97 100/100/100 99/99/99
f 103/103/103 102/102/102 101/101/101
f 102/102/102 104/104/104 101/101/101
