g Icosphere.370
v -0.16368161 -0.5405235 0.5703756
v -0.6881894 -0.064457506 0.49999693
v -0.27579796 -0.3002192 0.85332257
v 0.85064787 0.283283 1.1007746E-08
v 0.45613235 -0.552235 -0.33962175
v 0.4354721 -0.53152484 0.3544786
v -0.57767934 -0.55597794 -0.003450808
v -0.6881894 -0.064457506 0.49999693
v -0.16368161 -0.5405235 0.5703756
v -0.57767934 -0.55597794 -0.003450808
v -0.89442617 -0.24330768 -6.4512435E-09
v -0.18685058 -0.5788142 -0.55697685
v -0.6881894 -0.12463572 -0.49999693
v -0.57767934 -0.55597794 -0.003450808
v -0.57767934 -0.55597794 -0.003450808
v -0.89442617 -0.24330768 -6.4512435E-09
v 0.45613235 -0.552235 -0.33962175
v 0.7236073 -0.2601465 -0.5257253
v 0.26286882 -0.18252927 -0.8090116
v 0.45613235 -0.552235 -0.33962175
v -0.18685058 -0.5788142 -0.55697685
v 0.7236073 0.1265765 0.5257253
v 0.9510578 0.45267487 0.30901262
v 0.85064787 0.283283 1.1007746E-08
v -0.27579796 -0.3002192 0.85332257
v -1.4901161E-08 0.45267487 1
v 0.263413 -0.3865586 0.8114772
v -0.89442617 -0.24330768 -6.4512435E-09
v -0.95105785 0.45267487 0.30901262
v -0.6881894 -0.064457506 0.49999693
v 0.7236073 -0.2601465 -0.5257253
v 0.5877856 0.34242377 -0.8090167
v 0.26286882 -0.18252927 -0.8090116
v 0.7236073 0.1265765 0.5257253
v 0.5877856 0.45267487 0.8090167
v 0.9510578 0.45267487 0.30901262
v -0.27579796 -0.3002192 0.85332257
v -0.5877856 0.21364056 0.8090167
v -1.4901161E-08 0.45267487 1
v -0.89442617 -0.24330768 -6.4512435E-09
v -0.9510578 0.06789174 -0.30901262
v -0.95105785 0.45267487 0.30901262
v -0.27530184 -0.42847076 -0.84572804
v -0 0.45267487 -1
v -0.5877856 0.25254896 -0.8090167
v 0.7236073 -0.2601465 -0.5257253
v 0.9510578 0.34242377 -0.30901262
v 0.5877856 0.34242377 -0.8090167
v 0.9510578 0.34242377 -0.30901262
v 0.89442617 0.45267487 6.519258E-09
v 0.6881894 0.45267487 -0.4999969
v 0.9510578 0.34242377 -0.30901262
v 0.6881894 0.45267487 -0.4999969
v 0.5877856 0.34242377 -0.8090167
v 0.5877856 0.34242377 -0.8090167
v 0.6881894 0.45267487 -0.4999969
v 0.27638802 0.45267487 -0.85064924
v -0 0.45267487 -1
v -0.26286882 0.45267487 -0.8090116
v -0.5877856 0.25254896 -0.8090167
v -0.5877856 0.25254896 -0.8090167
v -0.26286882 0.45267487 -0.8090116
v -0.7236073 0.45267487 -0.5257253
v -0.9510578 0.06789174 -0.30901262
v -0.7236073 0.45267487 -0.5257253
v -0.85064787 0.45267487 -2.9802322E-08
v -0.9510578 0.06789174 -0.30901262
v -0.85064787 0.45267487 -2.9802322E-08
v -0.95105785 0.45267487 0.30901262
v -0.5877856 0.21364056 0.8090167
v -0.7236073 0.45267487 0.5257253
v -0.26286882 0.45267487 0.8090116
v -0.5877856 0.21364056 0.8090167
v -0.26286882 0.45267487 0.8090116
v -1.4901161E-08 0.45267487 1
v 0.5877856 0.34242377 -0.8090167
v 0.27638802 0.45267487 -0.85064924
v -0 0.45267487 -1
v 0.5877856 0.34242377 -0.8090167
v -0 0.45267487 -1
v 0.26286882 -0.18252927 -0.8090116
v 0.26286882 -0.18252927 -0.8090116
v -0 0.45267487 -1
v -0.27530184 -0.42847076 -0.84572804
v -0.5877856 0.25254896 -0.8090167
v -0.7236073 0.45267487 -0.5257253
v -0.9510578 0.06789174 -0.30901262
v -0.6881894 -0.12463572 -0.49999693
v -0.9510578 0.06789174 -0.30901262
v -0.89442617 -0.24330768 -6.4512435E-09
v -0.95105785 0.45267487 0.30901262
v -0.7236073 0.45267487 0.5257253
v -0.5877856 0.21364056 0.8090167
v -0.95105785 0.45267487 0.30901262
v -0.5877856 0.21364056 0.8090167
v -0.6881894 -0.064457506 0.49999693
v -0.6881894 -0.064457506 0.49999693
v -0.5877856 0.21364056 0.8090167
v -0.27579796 -0.3002192 0.85332257
v -1.4901161E-08 0.45267487 1
v 0.5877856 0.45267487 0.8090167
v 0.263413 -0.3865586 0.8114772
v 0.263413 -0.3865586 0.8114772
v 0.5877856 0.45267487 0.8090167
v 0.7236073 0.1265765 0.5257253
v 0.9510578 0.45267487 0.30901262
v 0.89442617 0.45267487 6.519258E-09
v 0.9510578 0.34242377 -0.30901262
v 0.9510578 0.45267487 0.30901262
v 0.9510578 0.34242377 -0.30901262
v 0.85064787 0.283283 1.1007746E-08
v 0.85064787 0.283283 1.1007746E-08
v 0.9510578 0.34242377 -0.30901262
v 0.7236073 -0.2601465 -0.5257253
v -0.0053718304 -0.6001342 -0.02433813
v -0.13880718 -0.6123189 -0.42867777
v -0.44724935 -0.60430646 -0.00500783
v -0.18685058 -0.5788142 -0.55697685
v 0.26286882 -0.18252927 -0.8090116
v -0.27530184 -0.42847076 -0.84572804
v -0.18685058 -0.5788142 -0.55697685
v -0.27530184 -0.42847076 -0.84572804
v -0.6881894 -0.12463572 -0.49999693
v -0.16368161 -0.5405235 0.5703756
v -0.27579796 -0.3002192 0.85332257
v 0.263413 -0.3865586 0.8114772
v 0.4354721 -0.53152484 0.3544786
v 0.263413 -0.3865586 0.8114772
v 0.7236073 0.1265765 0.5257253
v -0.0053718304 -0.6001342 -0.02433813
v 0.36183867 -0.6024598 -0.2579006
v -0.13880718 -0.6123189 -0.42867777
v 0.85064787 0.283283 1.1007746E-08
v 0.7236073 -0.2601465 -0.5257253
v 0.45613235 -0.552235 -0.33962175
v 0.7236073 0.1265765 0.5257253
v 0.85064787 0.283283 1.1007746E-08
v 0.4354721 -0.53152484 0.3544786
v -0.0053718304 -0.6001342 -0.02433813
v -0.13631883 -0.58937174 0.4318956
v 0.36115986 -0.5886053 0.26254687
v 0.36115986 -0.5886053 0.26254687
v 0.36183867 -0.6024598 -0.2579006
v -0.0053718304 -0.6001342 -0.02433813
v -0.0053718304 -0.6001342 -0.02433813
v -0.44724935 -0.60430646 -0.00500783
v -0.13631883 -0.58937174 0.4318956
v -0.27530184 -0.42847076 -0.84572804
v -0.5877856 0.25254896 -0.8090167
v -0.6881894 -0.12463572 -0.49999693
v -0.9510578 0.06789174 -0.30901262
v -0.7236073 0.45267487 0.5257253
v -0.42532265 0.45267487 0.3090114
v -0.26286882 0.45267487 0.8090116
v 0.16245556 0.45267487 0.4999953
v 1.4901161E-08 0.45267487 0
v 0.27638802 0.45267487 0.85064924
v -1.4901161E-08 0.45267487 1
v 0.5877856 0.45267487 0.8090167
v 0.6881894 0.45267487 0.49999693
v 0.9510578 0.45267487 0.30901262
v 0.16245556 0.45267487 0.4999953
v 0.89442617 0.45267487 6.519258E-09
v 0.5257298 0.45267487 3.7252903E-09
v 1.4901161E-08 0.45267487 0
v 0.5257298 0.45267487 3.7252903E-09
v 0.6881894 0.45267487 -0.4999969
v 0.16245557 0.45267487 -0.49999523
v 1.4901161E-08 0.45267487 0
v 0.27638802 0.45267487 -0.85064924
v -0 0.45267487 -1
v -0.26286882 0.45267487 -0.8090116
v 0.16245557 0.45267487 -0.49999523
v -0.42532265 0.45267487 -0.3090114
v 1.4901161E-08 0.45267487 0
v -0.7236073 0.45267487 -0.5257253
v -0.42532265 0.45267487 -0.3090114
v -0.85064787 0.45267487 -2.9802322E-08
v -0.42532265 0.45267487 0.3090114
v 1.4901161E-08 0.45267487 0
v -0.7236073 0.45267487 0.5257253
v -0.95105785 0.45267487 0.30901262
v -0.16368161 -0.5405235 0.5703756
v 0.263413 -0.3865586 0.8114772
v 0.4354721 -0.53152484 0.3544786
v -0.13631883 -0.58937174 0.4318956
v 0.36115986 -0.5886053 0.26254687
v 0.36183867 -0.6024598 -0.2579006
v 0.45613235 -0.552235 -0.33962175
v -0.18685058 -0.5788142 -0.55697685
v -0.13880718 -0.6123189 -0.42867777
v -0.13880718 -0.6123189 -0.42867777
v -0.18685058 -0.5788142 -0.55697685
v -0.57767934 -0.55597794 -0.003450808
v -0.44724935 -0.60430646 -0.00500783
v -0.44724935 -0.60430646 -0.00500783
v -0.57767934 -0.55597794 -0.003450808
v -0.16368161 -0.5405235 0.5703756
v -0.13631883 -0.58937174 0.4318956
v 0.45613235 -0.552235 -0.33962175
v 0.36183867 -0.6024598 -0.2579006
v 0.36115986 -0.5886053 0.26254687
v 0.4354721 -0.53152484 0.3544786
vt 0.03652334 0.09114451
vt 0.090909 0.157461
vt 0 0.157461
vt 0.636363 0.157461
vt 0.5850308 0.08349627
vt 0.6879708 0.08297616
vt 0.1408771 0.08621183
vt 0.090909 0.157461
vt 0.03905138 0.08551607
vt 0.14300728 0.08957478
vt 0.181818 0.157461
vt 0.32278705 0.08627413
vt 0.27272698 0.157461
vt 0.22304673 0.08664744
vt 0.2212266 0.08961392
vt 0.181818 0.157461
vt 0.5038331 0.08985551
vt 0.545454 0.157461
vt 0.45454502 0.157461
vt 0.50222546 0.08770765
vt 0.40322772 0.08624358
vt 0.727272 0.157461
vt 0.68181753 0.236191
vt 0.636363 0.157461
vt 0.90909 0.157461
vt 0.8636355 0.236191
vt 0.818181 0.157461
vt 0.181818 0.157461
vt 0.13636349 0.236191
vt 0.090909 0.157461
vt 0.545454 0.157461
vt 0.49999952 0.236191
vt 0.45454502 0.157461
vt 0.727272 0.157461
vt 0.7727265 0.236191
vt 0.68181753 0.236191
vt 0.90909 0.157461
vt 0.954545 0.236191
vt 0.8636355 0.236191
vt 0.181818 0.157461
vt 0.22727251 0.236191
vt 0.13636349 0.236191
vt 0.363636 0.157461
vt 0.4090905 0.236191
vt 0.3181815 0.236191
vt 0.545454 0.157461
vt 0.5909085 0.236191
vt 0.49999952 0.236191
vt 0.5909085 0.236191
vt 0.636363 0.314921
vt 0.545454 0.314921
vt 0.5909085 0.236191
vt 0.545454 0.314921
vt 0.49999952 0.236191
vt 0.49999952 0.236191
vt 0.545454 0.314921
vt 0.454545 0.314921
vt 0.4090905 0.236191
vt 0.36363602 0.314921
vt 0.3181815 0.236191
vt 0.3181815 0.236191
vt 0.36363602 0.314921
vt 0.272727 0.314921
vt 0.22727251 0.236191
vt 0.272727 0.314921
vt 0.18181801 0.314921
vt 0.22727251 0.236191
vt 0.18181801 0.314921
vt 0.13636349 0.236191
vt 0.954545 0.236191
vt 1 0.314921
vt 0.9090905 0.314921
vt 0.954545 0.236191
vt 0.9090905 0.314921
vt 0.8636355 0.236191
vt 0.49999952 0.236191
vt 0.454545 0.314921
vt 0.4090905 0.236191
vt 0.49999952 0.236191
vt 0.4090905 0.236191
vt 0.45454502 0.157461
vt 0.45454502 0.157461
vt 0.4090905 0.236191
vt 0.363636 0.157461
vt 0.3181815 0.236191
vt 0.272727 0.314921
vt 0.22727251 0.236191
vt 0.27272698 0.157461
vt 0.22727251 0.236191
vt 0.181818 0.157461
vt 0.13636349 0.236191
vt 0.090909 0.314921
vt 0.0454545 0.236191
vt 0.13636349 0.236191
vt 0.0454545 0.236191
vt 0.090909 0.157461
vt 0.090909 0.157461
vt 0.0454545 0.236191
vt 0 0.157461
vt 0.8636355 0.236191
vt 0.7727265 0.236191
vt 0.818181 0.157461
vt 0.818181 0.157461
vt 0.7727265 0.236191
vt 0.727272 0.157461
vt 0.68181753 0.236191
vt 0.636363 0.314921
vt 0.5909085 0.236191
vt 0.68181753 0.236191
vt 0.5909085 0.236191
vt 0.636363 0.157461
vt 0.636363 0.157461
vt 0.5909085 0.236191
vt 0.545454 0.157461
vt 0.272727 0
vt 0.31128246 0.066780835
vt 0.23415348 0.06681216
vt 0.40088198 0.09224965
vt 0.45454502 0.157461
vt 0.363636 0.157461
vt 0.32505167 0.09239323
vt 0.363636 0.157461
vt 0.27272698 0.157461
vt 0.8687809 0.092294335
vt 0.90909 0.157461
vt 0.818181 0.157461
vt 0.77247846 0.08797869
vt 0.818181 0.157461
vt 0.727272 0.157461
vt 0.454545 0
vt 0.49311352 0.0668035
vt 0.41598955 0.06678084
vt 0.636363 0.157461
vt 0.545454 0.157461
vt 0.58387804 0.08970174
vt 0.727272 0.157461
vt 0.636363 0.157461
vt 0.6897818 0.08515983
vt 0.818181 0
vt 0.8567764 0.066850066
vt 0.77958786 0.066846065
vt 0.67495614 0.06684606
vt 0.59779453 0.06680349
vt 0.636363 0
vt 0.090909 0
vt 0.12948251 0.06681215
vt 0.052313577 0.06685007
vt 0.363636 0.157461
vt 0.3181815 0.236191
vt 0.27272698 0.157461
vt 0.22727251 0.236191
vt 1 0.314921
vt 0.954545 0.3936515
vt 0.9090905 0.314921
vt 0.8636355 0.3936515
vt 0.90909 0.472382
vt 0.818181 0.314921
vt 0.8636355 0.236191
vt 0.7727265 0.236191
vt 0.72727203 0.314921
vt 0.68181753 0.236191
vt 0.7727265 0.3936515
vt 0.636363 0.314921
vt 0.68181753 0.3936515
vt 0.727272 0.472382
vt 0.5909085 0.3936515
vt 0.545454 0.314921
vt 0.49999952 0.3936515
vt 0.545454 0.472382
vt 0.454545 0.314921
vt 0.4090905 0.236191
vt 0.36363602 0.314921
vt 0.4090905 0.3936515
vt 0.3181815 0.3936515
vt 0.363636 0.472382
vt 0.272727 0.314921
vt 0.22727251 0.3936515
vt 0.18181801 0.314921
vt 0.13636349 0.3936515
vt 0.181818 0.472382
vt 0.090909 0.314921
vt 0.13636349 0.236191
vt 0.8668051 0.090276346
vt 0.818181 0.157461
vt 0.77328455 0.08913447
vt 0.8567764 0.066850066
vt 0.77958786 0.066846065
vt 0.49311352 0.0668035
vt 0.50222546 0.08770765
vt 0.40322772 0.08624358
vt 0.41598955 0.06678084
vt 0.31128246 0.066780835
vt 0.32278705 0.08627413
vt 0.22304673 0.08664744
vt 0.23415348 0.06681216
vt 0.12948251 0.06681215
vt 0.1408771 0.08621183
vt 0.03905138 0.08551607
vt 0.052313577 0.06685007
vt 0.5850308 0.08349627
vt 0.59779453 0.06680349
vt 0.67495614 0.06684606
vt 0.6879708 0.08297616
vn -0.6604625 -0.6808701 0.31655192
vn -0.6604625 -0.6808701 0.31655192
vn -0.6604625 -0.6808701 0.31655192
vn 0.89719784 -0.43982923 0.039828885
vn 0.89719784 -0.43982923 0.039828885
vn 0.89719784 -0.43982923 0.039828885
vn -0.6271934 -0.621643 0.4692424
vn -0.6271934 -0.621643 0.4692424
vn -0.6271934 -0.621643 0.4692424
vn -0.6144268 -0.6277129 0.47797093
vn -0.6144268 -0.6277129 0.47797093
vn -0.6347001 -0.64773506 -0.42142037
vn -0.6347001 -0.64773506 -0.42142037
vn -0.6347001 -0.64773506 -0.42142037
vn -0.6407346 -0.6444835 -0.41725293
vn -0.6407346 -0.6444835 -0.41725293
vn 0.29154378 -0.6894495 -0.66306984
vn 0.29154378 -0.6894495 -0.66306984
vn 0.29154378 -0.6894495 -0.66306984
vn 0.25257418 -0.70685226 -0.6607316
vn 0.25257418 -0.70685226 -0.6607316
vn 0.8304441 -0.55600506 0.034942802
vn 0.8304441 -0.55600506 0.034942802
vn 0.8304441 -0.55600506 0.034942802
vn 0.04285616 -0.20614955 0.97758156
vn 0.04285616 -0.20614955 0.97758156
vn 0.04285616 -0.20614955 0.97758156
vn -0.8529724 -0.26821417 0.44777155
vn -0.8529724 -0.26821417 0.44777155
vn -0.8529724 -0.26821417 0.44777155
vn 0.46581158 -0.2883197 -0.8365951
vn 0.46581158 -0.2883197 -0.8365951
vn 0.46581158 -0.2883197 -0.8365951
vn 0.7970879 -0.17110328 0.57911533
vn 0.7970879 -0.17110328 0.57911533
vn 0.7970879 -0.17110328 0.57911533
vn -0.27636337 -0.085255705 0.9572641
vn -0.27636337 -0.085255705 0.9572641
vn -0.27636337 -0.085255705 0.9572641
vn -0.9913396 -0.11148175 0.06940851
vn -0.9913396 -0.11148175 0.06940851
vn -0.9913396 -0.11148175 0.06940851
vn -0.28373086 -0.07867205 -0.95567125
vn -0.28373086 -0.07867205 -0.95567125
vn -0.28373086 -0.07867205 -0.95567125
vn 0.805469 -0.093571134 -0.5852045
vn 0.805469 -0.093571134 -0.5852045
vn 0.805469 -0.093571134 -0.5852045
vn 0.5026326 0.8392719 -0.20732392
vn 0.5026326 0.8392719 -0.20732392
vn 0.5026326 0.8392719 -0.20732392
vn 0.5981397 0.67333263 -0.4345712
vn 0.5981397 0.67333263 -0.4345712
vn 0.5981397 0.67333263 -0.4345712
vn 0.35249287 0.83927566 -0.41396278
vn 0.35249287 0.83927566 -0.41396278
vn 0.35249287 0.83927566 -0.41396278
vn -0.42522678 0.6903961 -0.5852653
vn -0.42522678 0.6903961 -0.5852653
vn -0.42522678 0.6903961 -0.5852653
vn -0.39900276 0.64782214 -0.6489401
vn -0.39900276 0.64782214 -0.6489401
vn -0.39900276 0.64782214 -0.6489401
vn -0.8889563 0.404489 -0.2148148
vn -0.8889563 0.404489 -0.2148148
vn -0.8889563 0.404489 -0.2148148
vn -0.85188365 0.44460177 -0.27680957
vn -0.85188365 0.44460177 -0.27680957
vn -0.85188365 0.44460177 -0.27680957
vn -0.42667478 0.57998925 0.69394606
vn -0.42667478 0.57998925 0.69394606
vn -0.42667478 0.57998925 0.69394606
vn -0.4592129 0.62421614 0.6320426
vn -0.4592129 0.62421614 0.6320426
vn -0.4592129 0.62421614 0.6320426
vn 0.33439398 0.7107967 -0.6188286
vn 0.33439398 0.7107967 -0.6188286
vn 0.33439398 0.7107967 -0.6188286
vn 0.27542472 -0.17048158 -0.94608516
vn 0.27542472 -0.17048158 -0.94608516
vn 0.27542472 -0.17048158 -0.94608516
vn 0.16621451 -0.22021668 -0.9611854
vn 0.16621451 -0.22021668 -0.9611854
vn 0.16621451 -0.22021668 -0.9611854
vn -0.8263191 0.18980458 -0.5302556
vn -0.8263191 0.18980458 -0.5302556
vn -0.8263191 0.18980458 -0.5302556
vn -0.71530133 -0.55361587 -0.42644274
vn -0.71530133 -0.55361587 -0.42644274
vn -0.71530133 -0.55361587 -0.42644274
vn -0.62523526 0.42244843 0.656215
vn -0.62523526 0.42244843 0.656215
vn -0.62523526 0.42244843 0.656215
vn -0.83631355 -0.24374963 0.4910864
vn -0.83631355 -0.24374963 0.4910864
vn -0.83631355 -0.24374963 0.4910864
vn -0.7174767 -0.38559327 0.580125
vn -0.7174767 -0.38559327 0.580125
vn -0.7174767 -0.38559327 0.580125
vn 0.3069361 -0.115864426 0.9446511
vn 0.3069361 -0.115864426 0.9446511
vn 0.3069361 -0.115864426 0.9446511
vn 0.70781386 -0.27166584 0.6520714
vn 0.70781386 -0.27166584 0.6520714
vn 0.70781386 -0.27166584 0.6520714
vn 0.6918843 0.710787 -0.12679926
vn 0.6918843 0.710787 -0.12679926
vn 0.6918843 0.710787 -0.12679926
vn 0.74602944 -0.6555633 0.11694777
vn 0.74602944 -0.6555633 0.11694777
vn 0.74602944 -0.6555633 0.11694777
vn 0.8874269 -0.41043136 0.2098083
vn 0.8874269 -0.41043136 0.2098083
vn 0.8874269 -0.41043136 0.2098083
vn 0.010602921 -0.99958926 0.026623338
vn 0.010602921 -0.99958926 0.026623338
vn 0.010602921 -0.99958926 0.026623338
vn 0.38486415 -0.7650911 -0.516251
vn 0.38486415 -0.7650911 -0.516251
vn 0.38486415 -0.7650911 -0.516251
vn -0.6721937 -0.7207446 -0.16935998
vn -0.6721937 -0.7207446 -0.16935998
vn -0.6721937 -0.7207446 -0.16935998
vn -0.07528897 -0.77456456 0.6279979
vn -0.07528897 -0.77456456 0.6279979
vn -0.07528897 -0.77456456 0.6279979
vn 0.77694064 -0.45373598 0.43644816
vn 0.77694064 -0.45373598 0.43644816
vn 0.77694064 -0.45373598 0.43644816
vn 0.010603113 -0.99958926 0.02662333
vn 0.010603113 -0.99958926 0.02662333
vn 0.010603113 -0.99958926 0.02662333
vn 0.79141587 -0.5104148 0.33635938
vn 0.79141587 -0.5104148 0.33635938
vn 0.79141587 -0.5104148 0.33635938
vn 0.90293556 -0.41956428 0.09313028
vn 0.90293556 -0.41956428 0.09313028
vn 0.90293556 -0.41956428 0.09313028
vn 0.010602936 -0.99958926 0.026623338
vn 0.010602936 -0.99958926 0.026623338
vn 0.010602936 -0.99958926 0.026623338
vn 0.010603076 -0.99958926 0.026623381
vn 0.010603076 -0.99958926 0.026623381
vn 0.010603076 -0.99958926 0.026623381
vn 0.010602533 -0.99958926 0.026623312
vn 0.010602533 -0.99958926 0.026623312
vn 0.010602533 -0.99958926 0.026623312
vn -0.73305273 -0.30354708 -0.6086813
vn -0.73305273 -0.30354708 -0.6086813
vn -0.73305273 -0.30354708 -0.6086813
vn -0.70117295 -0.33081144 -0.63160145
vn 1.6166307E-07 1 0
vn 1.6166307E-07 1 0
vn 1.6166307E-07 1 0
vn 1.1337719E-07 1 0
vn 1.1337719E-07 1 0
vn -0 1 0
vn -0 1 0
vn -0 1 0
vn -0 1 0
vn 4.8024873E-07 1 0
vn -0 1 0
vn -0 1 0
vn -0 1 0
vn -0 1 0
vn -0 1 0
vn -0 1 0
vn -0 1 0
vn -0 1 0
vn 1.6166283E-07 1 0
vn -0 1 0
vn 1.6166283E-07 1 0
vn 1.6166283E-07 1 0
vn -0 1 0
vn -0 1 0
vn -1.6166406E-07 1 0
vn -1.6166406E-07 1 0
vn -1.6166406E-07 1 0
vn -0 1 0
vn -0 1 0
vn 2.4249607E-07 1 0
vn -0 1 0
vn 0.13880496 -0.927708 0.34654152
vn 0.13880496 -0.927708 0.34654152
vn 0.13880496 -0.927708 0.34654152
vn 0.14469476 -0.9098799 0.38882127
vn 0.14469476 -0.9098799 0.38882127
vn 0.14460388 -0.9296816 -0.33879495
vn 0.14460388 -0.9296816 -0.33879495
vn 0.14460388 -0.9296816 -0.33879495
vn 0.14460388 -0.9296816 -0.33879495
vn -0.29861915 -0.9364423 -0.18412629
vn -0.29861915 -0.9364423 -0.18412629
vn -0.29861915 -0.9364423 -0.18412629
vn -0.29861915 -0.9364423 -0.18412629
vn -0.32691595 -0.908074 0.26177782
vn -0.32691595 -0.908074 0.26177782
vn -0.32691595 -0.908074 0.26177782
vn -0.32691595 -0.908074 0.26177782
vn 0.5351719 -0.84408164 0.033424396
vn 0.5351719 -0.84408164 0.033424396
vn 0.5351719 -0.84408164 0.033424396
vn 0.5351719 -0.84408164 0.033424396
g Icosphere.370_0
f 3/3/3 2/2/2 1/1/1
f 6/6/6 5/5/5 4/4/4
f 9/9/9 8/8/8 7/7/7
f 8/8/8 11/11/11 10/10/10
f 14/14/14 13/13/13 12/12/12
f 16/16/16 13/13/13 15/15/15
f 19/19/19 18/18/18 17/17/17
f 21/21/21 19/19/19 20/20/20
f 24/24/24 23/23/23 22/22/22
f 27/27/27 26/26/26 25/25/25
f 30/30/30 29/29/29 28/28/28
f 33/33/33 32/32/32 31/31/31
f 36/36/36 35/35/35 34/34/34
f 39/39/39 38/38/38 37/37/37
f 42/42/42 41/41/41 40/40/40
f 45/45/45 44/44/44 43/43/43
f 48/48/48 47/47/47 46/46/46
f 51/51/51 50/50/50 49/49/49
f 54/54/54 53/53/53 52/52/52
f 57/57/57 56/56/56 55/55/55
f 60/60/60 59/59/59 58/58/58
f 63/63/63 62/62/62 61/61/61
f 66/66/66 65/65/65 64/64/64
f 69/69/69 68/68/68 67/67/67
f 72/72/72 71/71/71 70/70/70
f 75/75/75 74/74/74 73/73/73
f 78/78/78 77/77/77 76/76/76
f 81/81/81 80/80/80 79/79/79
f 84/84/84 83/83/83 82/82/82
f 87/87/87 86/86/86 85/85/85
f 90/90/90 89/89/89 88/88/88
f 93/93/93 92/92/92 91/91/91
f 96/96/96 95/95/95 94/94/94
f 99/99/99 98/98/98 97/97/97
f 102/102/102 101/101/101 100/100/100
f 105/105/105 104/104/104 103/103/103
f 108/108/108 107/107/107 106/106/106
f 111/111/111 110/110/110 109/109/109
f 114/114/114 113/113/113 112/112/112
f 117/117/117 116/116/116 115/115/115
f 120/120/120 119/119/119 118/118/118
f 123/123/123 122/122/122 121/121/121
f 126/126/126 125/125/125 124/124/124
f 129/129/129 128/128/128 127/127/127
f 132/132/132 131/131/131 130/130/130
f 135/135/135 134/134/134 133/133/133
f 138/138/138 137/137/137 136/136/136
f 141/141/141 140/140/140 139/139/139
f 144/144/144 143/143/143 142/142/142
f 147/147/147 146/146/146 145/145/145
f 150/150/150 149/149/149 148/148/148
f 150/150/150 151/151/151 149/149/149
f 154/154/154 153/153/153 152/152/152
f 154/154/154 155/155/155 153/153/153
f 155/155/155 156/156/156 153/153/153
f 157/157/157 155/155/155 154/154/154
f 157/157/157 154/154/154 158/158/158
f 159/159/159 157/157/157 158/158/158
f 160/160/160 157/157/157 159/159/159
f 161/161/161 160/160/160 159/159/159
f 160/160/160 162/162/162 157/157/157
f 163/163/163 160/160/160 161/161/161
f 160/160/160 164/164/164 162/162/162
f 163/163/163 164/164/164 160/160/160
f 164/164/164 165/165/165 162/162/162
f 167/167/167 166/166/166 163/163/163
f 167/167/167 168/168/168 166/166/166
f 168/168/168 169/169/169 166/166/166
f 170/170/170 168/168/168 167/167/167
f 172/172/172 170/170/170 171/171/171
f 172/172/172 173/173/173 170/170/170
f 172/172/172 174/174/174 173/173/173
f 174/174/174 175/175/175 173/173/173
f 176/176/176 174/174/174 172/172/172
f 178/178/178 177/177/177 176/176/176
f 178/178/178 179/179/179 177/177/177
f 179/179/179 180/180/180 177/177/177
f 181/181/181 179/179/179 178/178/178
f 181/181/181 178/178/178 182/182/182
f 185/185/185 184/184/184 183/183/183
f 185/185/185 183/183/183 186/186/186
f 187/187/187 185/185/185 186/186/186
f 190/190/190 189/189/189 188/188/188
f 191/191/191 190/190/190 188/188/188
f 194/194/194 193/193/193 192/192/192
f 195/195/195 194/194/194 192/192/192
f 198/198/198 197/197/197 196/196/196
f 199/199/199 198/198/198 196/196/196
f 202/202/202 201/201/201 200/200/200
f 203/203/203 202/202/202 200/200/200
