g Icosphere
v -0.0045883465 0.010811476 -0.0058392594
v -0.010699904 0.006421753 0.0026646235
v -0.021659408 -0.00089419365 -0.0052647055
v 0.0009997939 -0.017011706 -0.0003481081
v -0.00071334717 -0.014728854 -0.005009217
v -0.021659408 -0.00089419365 -0.0052647055
v -0.007796986 -0.012748434 0.005780472
v -0.010699904 0.006421753 0.0026646235
v -0.0037471706 0.0017453976 0.008142499
v -0.004412855 -0.00860506 0.00813769
v -0.007796986 -0.012748434 0.005780472
v -0.021659408 -0.00089419365 -0.0052647055
v -0.004412855 -0.00860506 0.00813769
v -0.0037471706 0.0017453976 0.008142499
v 0.013706531 0.004311301 -0.0005194794
v 0.01081224 -0.013387563 5.787914E-06
v 0.009587445 -0.010837322 -0.0052471883
v 0.01278975 0.007913207 -0.005919467
v -0.0045883465 0.010811476 -0.0058392594
v -0.00071334717 -0.014728854 -0.005009217
v -0.021659408 -0.00089419365 -0.0052647055
v 0.01081224 -0.013387563 5.787914E-06
v 0.009587445 -0.010837322 -0.0052471883
v -0.00071334717 -0.014728854 -0.005009217
v 0.0009997939 -0.017011706 -0.0003481081
v 0.009587445 -0.010837322 -0.0052471883
v 0.01081224 -0.013387563 5.787914E-06
v 0.013706531 0.004311301 -0.0005194794
v 0.01278975 0.007913207 -0.005919467
v -0.0045883465 0.010811476 -0.0058392594
v 0.01278975 0.007913207 -0.005919467
v 0.013706531 0.004311301 -0.0005194794
v -0.010699904 0.006421753 0.0026646235
v -0.0037471706 0.0017453976 0.008142499
v 0.01081224 -0.013387563 5.787914E-06
v 0.0009997939 -0.017011706 -0.0003481081
v -0.007796986 -0.012748434 0.005780472
v -0.004412855 -0.00860506 0.00813769
vt 0.0039063096 0.99414057
vt 0.0039063096 0.99414057
vt 0.0039063096 0.99414057
vt 0.0039063096 0.99414057
vt 0.0039063096 0.99414057
vt 0.0039063096 0.99414057
vt 0.0039063096 0.99414057
vt 0.0039063096 0.99414057
vt 0.0039063096 0.99414057
vt 0.0039063096 0.99414057
vt 0.0039063096 0.99414057
vt 0.0039063096 0.99414057
vt 0.0039063096 0.99414057
vt 0.0039063096 0.99414057
vt 0.0039063096 0.99414057
vt 0.0039063096 0.99414057
vt 0.0039063096 0.99414057
vt 0.0039063096 0.99414057
vt 0.0039063096 0.99414057
vt 0.0039063096 0.99414057
vt 0.0039063096 0.99414057
vt 0.0039063096 0.99414057
vt 0.0039063096 0.99414057
vt 0.0039063096 0.99414057
vt 0.0039063096 0.99414057
vt 0.0039063096 0.99414057
vt 0.0039063096 0.99414057
vt 0.0039063096 0.99414057
vt 0.0039063096 0.99414057
vt 0.0039063096 0.99414057
vt 0.0039063096 0.99414057
vt 0.0039063096 0.99414057
vt 0.0039063096 0.99414057
vt 0.0039063096 0.99414057
vt 0.0039063096 0.99414057
vt 0.0039063096 0.99414057
vt 0.0039063096 0.99414057
vt 0.0039063096 0.99414057
vn -0.56495816 0.8248823 0.01978291
vn -0.56495816 0.8248823 0.01978291
vn -0.56495816 0.8248823 0.01978291
vn -0.53793156 -0.8181846 -0.20298676
vn -0.53793156 -0.8181846 -0.20298676
vn -0.53793156 -0.8181846 -0.20298676
vn -0.53793156 -0.8181846 -0.20298676
vn -0.60239935 0.038364056 0.7972724
vn -0.60239935 0.038364056 0.7972724
vn -0.60239935 0.038364056 0.7972724
vn -0.60239935 0.038364056 0.7972724
vn -0.60239935 0.038364056 0.7972724
vn 0.45448384 -0.04117201 0.889803
vn 0.45448384 -0.04117201 0.889803
vn 0.45448384 -0.04117201 0.889803
vn 0.45448384 -0.04117201 0.889803
vn -0.010278192 -0.034048002 -0.9993674
vn -0.010278192 -0.034048002 -0.9993674
vn -0.010278192 -0.034048002 -0.9993674
vn -0.010278192 -0.034048002 -0.9993674
vn -0.010278192 -0.034048002 -0.9993674
vn 0.30778277 -0.81613606 -0.48907238
vn 0.30778277 -0.81613606 -0.48907238
vn 0.30778277 -0.81613606 -0.48907238
vn 0.30778277 -0.81613606 -0.48907238
vn 0.9434588 -0.1672087 -0.28622845
vn 0.9434588 -0.1672087 -0.28622845
vn 0.9434588 -0.1672087 -0.28622845
vn 0.9434588 -0.1672087 -0.28622845
vn 0.14163332 0.8344583 0.53255934
vn 0.14163332 0.8344583 0.53255934
vn 0.14163332 0.8344583 0.53255934
vn 0.14163332 0.8344583 0.53255934
vn 0.14163332 0.8344583 0.53255934
vn 0.21217723 -0.6232034 0.75272727
vn 0.21217723 -0.6232034 0.75272727
vn 0.21217723 -0.6232034 0.75272727
vn 0.21217723 -0.6232034 0.75272727
g Icosphere_0
f 3/3/3 2/2/2 1/1/1
f 6/6/6 5/5/5 4/4/4
f 7/7/7 6/6/6 4/4/4
f 10/10/10 9/9/9 8/8/8
f 8/8/8 11/11/11 10/10/10
f 8/8/8 12/12/12 11/11/11
f 15/15/15 14/14/14 13/13/13
f 16/16/16 15/15/15 13/13/13
f 19/19/19 18/18/18 17/17/17
f 17/17/17 20/20/20 19/19/19
f 20/20/20 21/21/21 19/19/19
f 24/24/24 23/23/23 22/22/22
f 25/25/25 24/24/24 22/22/22
f 28/28/28 27/27/27 26/26/26
f 29/29/29 28/28/28 26/26/26
f 32/32/32 31/31/31 30/30/30
f 30/30/30 33/33/33 32/32/32
f 33/33/33 34/34/34 32/32/32
f 37/37/37 36/36/36 35/35/35
f 38/38/38 37/37/37 35/35/35
