g Icosphere.449
v 2.9802322E-08 -0.40116054 -1.2440723E-15
v -0.16245551 -0.4011608 0.49999526
v 0.4253227 -0.5065132 0.3090114
v 2.9802322E-08 -0.40116054 -1.2440723E-15
v 0.4253227 -0.4924836 -0.3090114
v -0.16245553 -0.4011608 -0.49999526
v -0.276388 -0.401161 0.85064924
v 7.182145E-08 -0.08458667 1
v 0.26286885 -0.38624495 0.8090116
v -0.8944262 -0.401162 -6.451243E-09
v -0.9510578 -0.18282905 0.30901262
v -0.6881894 -0.40116164 0.49999693
v -0.276388 -0.401161 -0.85064924
v -0.5877856 -0.06577271 -0.8090167
v -0.6881894 -0.40116164 -0.49999693
v 0.7236073 -0.274161 -0.5257253
v 0.5877856 0.34142074 -0.8090167
v 0.26286885 -0.28860757 -0.8090116
v 0.7236073 0.09692795 0.5257253
v 0.5877856 0.41624534 0.8090167
v 0.9510578 0.39314765 0.30901262
v -0.276388 -0.401161 0.85064924
v -0.5877856 0.0898004 0.8090167
v 7.182145E-08 -0.08458667 1
v -0.8944262 -0.401162 -6.451243E-09
v -0.9510578 -0.0037513375 -0.30901262
v -0.9510578 -0.18282905 0.30901262
v -0.276388 -0.401161 -0.85064924
v 6.9864214E-08 -0.052483138 -0.9999999
v -0.5877856 -0.06577271 -0.8090167
v 0.7236073 -0.274161 -0.5257253
v 0.9510578 0.37130114 -0.30901262
v 0.5877856 0.34142074 -0.8090167
v 0.27638805 0.34742343 0.85064924
v 0.16245562 0.07265025 0.4999953
v 0.6881894 0.33519238 0.49999693
v -0.7236073 -0.07321649 0.5257253
v -0.42532265 0.26786307 0.3090114
v -0.26286876 -0.20478755 0.8090116
v -0.7236073 -0.12902641 -0.5257253
v -0.42532265 0.3727427 -0.3090114
v -0.85064787 0.021783737 -2.9802319E-08
v 0.27638808 0.15909028 -0.85064924
v 0.16245563 0.015992403 -0.49999526
v -0.2628688 -0.11708951 -0.8090116
v 0.89442617 0.39740893 6.8521766E-09
v 0.5257298 0.33374915 3.6108374E-09
v 0.6881894 0.23299105 -0.49999693
v 0.5257298 0.33374915 3.6108374E-09
v 5.030872E-08 0.19063993 1.0804609E-15
v 0.16245563 0.015992403 -0.49999526
v 0.5257298 0.33374915 3.6108374E-09
v 0.16245563 0.015992403 -0.49999526
v 0.6881894 0.23299105 -0.49999693
v 0.6881894 0.23299105 -0.49999693
v 0.16245563 0.015992403 -0.49999526
v 0.27638808 0.15909028 -0.85064924
v 0.16245563 0.015992403 -0.49999526
v 5.030872E-08 0.19063993 1.0804609E-15
v -0.42532265 0.3727427 -0.3090114
v 0.16245563 0.015992403 -0.49999526
v -0.42532265 0.3727427 -0.3090114
v -0.2628688 -0.11708951 -0.8090116
v -0.2628688 -0.11708951 -0.8090116
v -0.42532265 0.3727427 -0.3090114
v -0.7236073 -0.12902641 -0.5257253
v -0.42532265 0.3727427 -0.3090114
v 5.030872E-08 0.19063993 1.0804609E-15
v -0.42532265 0.26786307 0.3090114
v -0.42532265 0.3727427 -0.3090114
v -0.42532265 0.26786307 0.3090114
v -0.85064787 0.021783737 -2.9802319E-08
v -0.42532265 0.26786307 0.3090114
v 5.030872E-08 0.19063993 1.0804609E-15
v 0.16245562 0.07265025 0.4999953
v -0.42532265 0.26786307 0.3090114
v 0.16245562 0.07265025 0.4999953
v -0.26286876 -0.20478755 0.8090116
v -0.26286876 -0.20478755 0.8090116
v 0.16245562 0.07265025 0.4999953
v 0.27638805 0.34742343 0.85064924
v 0.16245562 0.07265025 0.4999953
v 5.030872E-08 0.19063993 1.0804609E-15
v 0.5257298 0.33374915 3.6108374E-09
v 0.16245562 0.07265025 0.4999953
v 0.5257298 0.33374915 3.6108374E-09
v 0.6881894 0.33519238 0.49999693
v 0.9510578 0.37130114 -0.30901262
v 0.89442617 0.39740893 6.8521766E-09
v 0.6881894 0.23299105 -0.49999693
v 0.9510578 0.37130114 -0.30901262
v 0.6881894 0.23299105 -0.49999693
v 0.5877856 0.34142074 -0.8090167
v 0.5877856 0.34142074 -0.8090167
v 0.6881894 0.23299105 -0.49999693
v 0.27638808 0.15909028 -0.85064924
v 6.9864214E-08 -0.052483138 -0.9999999
v -0.2628688 -0.11708951 -0.8090116
v -0.5877856 -0.06577271 -0.8090167
v -0.5877856 -0.06577271 -0.8090167
v -0.2628688 -0.11708951 -0.8090116
v -0.7236073 -0.12902641 -0.5257253
v -0.9510578 -0.0037513375 -0.30901262
v -0.7236073 -0.12902641 -0.5257253
v -0.85064787 0.021783737 -2.9802319E-08
v -0.9510578 -0.0037513375 -0.30901262
v -0.85064787 0.021783737 -2.9802319E-08
v -0.9510578 -0.18282905 0.30901262
v -0.5877856 0.0898004 0.8090167
v -0.7236073 -0.07321649 0.5257253
v -0.26286876 -0.20478755 0.8090116
v -0.5877856 0.0898004 0.8090167
v -0.26286876 -0.20478755 0.8090116
v 7.182145E-08 -0.08458667 1
v 7.182145E-08 -0.08458667 1
v -0.26286876 -0.20478755 0.8090116
v 0.27638805 0.34742343 0.85064924
v 0.5877856 0.41624534 0.8090167
v 0.27638805 0.34742343 0.85064924
v 0.6881894 0.33519238 0.49999693
v 0.5877856 0.41624534 0.8090167
v 0.6881894 0.33519238 0.49999693
v 0.9510578 0.39314765 0.30901262
v 0.5877856 0.34142074 -0.8090167
v 6.9864214E-08 -0.052483138 -0.9999999
v 0.26286885 -0.28860757 -0.8090116
v 0.26286885 -0.28860757 -0.8090116
v 6.9864214E-08 -0.052483138 -0.9999999
v -0.276388 -0.401161 -0.85064924
v -0.5877856 -0.06577271 -0.8090167
v -0.7236073 -0.12902641 -0.5257253
v -0.9510578 -0.0037513375 -0.30901262
v -0.5877856 -0.06577271 -0.8090167
v -0.9510578 -0.0037513375 -0.30901262
v -0.6881894 -0.40116164 -0.49999693
v -0.6881894 -0.40116164 -0.49999693
v -0.9510578 -0.0037513375 -0.30901262
v -0.8944262 -0.401162 -6.451243E-09
v -0.9510578 -0.18282905 0.30901262
v -0.7236073 -0.07321649 0.5257253
v -0.5877856 0.0898004 0.8090167
v -0.9510578 -0.18282905 0.30901262
v -0.5877856 0.0898004 0.8090167
v -0.6881894 -0.40116164 0.49999693
v -0.6881894 -0.40116164 0.49999693
v -0.5877856 0.0898004 0.8090167
v -0.276388 -0.401161 0.85064924
v 7.182145E-08 -0.08458667 1
v 0.27638805 0.34742343 0.85064924
v 0.5877856 0.41624534 0.8090167
v 7.182145E-08 -0.08458667 1
v 0.5877856 0.41624534 0.8090167
v 0.26286885 -0.38624495 0.8090116
v 0.26286885 -0.38624495 0.8090116
v 0.5877856 0.41624534 0.8090167
v 0.7236073 0.09692795 0.5257253
v 0.9510578 0.39314765 0.30901262
v 0.89442617 0.39740893 6.8521766E-09
v 0.9510578 0.37130114 -0.30901262
v 0.9510578 0.39314765 0.30901262
v 0.9510578 0.37130114 -0.30901262
v 0.85064787 0.0435309 1.0873851E-08
v 0.85064787 0.0435309 1.0873851E-08
v 0.9510578 0.37130114 -0.30901262
v 0.7236073 -0.274161 -0.5257253
v 0.4253227 -0.4924836 -0.3090114
v 0.7236073 -0.274161 -0.5257253
v 0.26286885 -0.28860757 -0.8090116
v 0.4253227 -0.4924836 -0.3090114
v 0.26286885 -0.28860757 -0.8090116
v -0.16245553 -0.4011608 -0.49999526
v -0.16245553 -0.4011608 -0.49999526
v 0.26286885 -0.28860757 -0.8090116
v -0.276388 -0.401161 -0.85064924
v 0.85064787 0.0435309 1.0873851E-08
v 0.7236073 -0.274161 -0.5257253
v 0.4253227 -0.4924836 -0.3090114
v 0.85064787 0.0435309 1.0873851E-08
v 0.4253227 -0.4924836 -0.3090114
v 0.4253227 -0.5065132 0.3090114
v 0.4253227 -0.5065132 0.3090114
v 0.4253227 -0.4924836 -0.3090114
v 2.9802322E-08 -0.40116054 -1.2440723E-15
v -0.16245551 -0.4011608 0.49999526
v -0.276388 -0.401161 0.85064924
v 0.26286885 -0.38624495 0.8090116
v -0.16245551 -0.4011608 0.49999526
v 0.26286885 -0.38624495 0.8090116
v 0.4253227 -0.5065132 0.3090114
v 0.4253227 -0.5065132 0.3090114
v 0.26286885 -0.38624495 0.8090116
v 0.7236073 0.09692795 0.5257253
v 0.7236073 0.09692795 0.5257253
v 0.85064787 0.0435309 1.0873851E-08
v 0.4253227 -0.5065132 0.3090114
v 0.9510578 0.39314765 0.30901262
v 2.9802322E-08 -0.40116054 -1.2440723E-15
v -0.5257298 -0.40116137 -7.5878307E-16
v -0.16245551 -0.4011608 0.49999526
v -0.6881894 -0.40116164 0.49999693
v -0.276388 -0.401161 0.85064924
v -0.8944262 -0.401162 -6.451243E-09
v -0.5257298 -0.40116137 -7.5878307E-16
v -0.6881894 -0.40116164 -0.49999693
v -0.16245553 -0.4011608 -0.49999526
v 2.9802322E-08 -0.40116054 -1.2440723E-15
v -0.276388 -0.401161 -0.85064924
v -0.85064787 0.021783737 -2.9802319E-08
v -0.42532265 0.26786307 0.3090114
v -0.7236073 -0.07321649 0.5257253
v -0.9510578 -0.18282905 0.30901262
v 0.6881894 0.33519238 0.49999693
v 0.5257298 0.33374915 3.6108374E-09
v 0.89442617 0.39740893 6.8521766E-09
v 0.9510578 0.39314765 0.30901262
v 6.9864214E-08 -0.052483138 -0.9999999
v 0.27638808 0.15909028 -0.85064924
v -0.2628688 -0.11708951 -0.8090116
v 0.5877856 0.34142074 -0.8090167
vt 0.818181 0
vt 0.8636355 0.0787305
vt 0.7727265 0.0787305
vt 0.454545 0
vt 0.49999952 0.0787305
vt 0.4090905 0.0787305
vt 0.90909 0.157461
vt 0.8636355 0.236191
vt 0.818181 0.157461
vt 0.181818 0.157461
vt 0.13636349 0.236191
vt 0.090909 0.157461
vt 0.363636 0.157461
vt 0.3181815 0.236191
vt 0.27272698 0.157461
vt 0.545454 0.157461
vt 0.49999952 0.236191
vt 0.45454502 0.157461
vt 0.727272 0.157461
vt 0.7727265 0.236191
vt 0.68181753 0.236191
vt 0.90909 0.157461
vt 0.954545 0.236191
vt 0.8636355 0.236191
vt 0.181818 0.157461
vt 0.22727251 0.236191
vt 0.13636349 0.236191
vt 0.363636 0.157461
vt 0.4090905 0.236191
vt 0.3181815 0.236191
vt 0.545454 0.157461
vt 0.5909085 0.236191
vt 0.49999952 0.236191
vt 0.818181 0.314921
vt 0.7727265 0.3936515
vt 0.72727203 0.314921
vt 1 0.314921
vt 0.954545 0.3936515
vt 0.9090905 0.314921
vt 0.272727 0.314921
vt 0.22727251 0.3936515
vt 0.18181801 0.314921
vt 0.454545 0.314921
vt 0.4090905 0.3936515
vt 0.36363602 0.314921
vt 0.636363 0.314921
vt 0.5909085 0.3936515
vt 0.545454 0.314921
vt 0.5909085 0.3936515
vt 0.545454 0.472382
vt 0.49999952 0.3936515
vt 0.5909085 0.3936515
vt 0.49999952 0.3936515
vt 0.545454 0.314921
vt 0.545454 0.314921
vt 0.49999952 0.3936515
vt 0.454545 0.314921
vt 0.4090905 0.3936515
vt 0.363636 0.472382
vt 0.3181815 0.3936515
vt 0.4090905 0.3936515
vt 0.3181815 0.3936515
vt 0.36363602 0.314921
vt 0.36363602 0.314921
vt 0.3181815 0.3936515
vt 0.272727 0.314921
vt 0.22727251 0.3936515
vt 0.181818 0.472382
vt 0.13636349 0.3936515
vt 0.22727251 0.3936515
vt 0.13636349 0.3936515
vt 0.18181801 0.314921
vt 0.954545 0.3936515
vt 0.90909 0.472382
vt 0.8636355 0.3936515
vt 0.954545 0.3936515
vt 0.8636355 0.3936515
vt 0.9090905 0.314921
vt 0.9090905 0.314921
vt 0.8636355 0.3936515
vt 0.818181 0.314921
vt 0.7727265 0.3936515
vt 0.727272 0.472382
vt 0.68181753 0.3936515
vt 0.7727265 0.3936515
vt 0.68181753 0.3936515
vt 0.72727203 0.314921
vt 0.5909085 0.236191
vt 0.636363 0.314921
vt 0.545454 0.314921
vt 0.5909085 0.236191
vt 0.545454 0.314921
vt 0.49999952 0.236191
vt 0.49999952 0.236191
vt 0.545454 0.314921
vt 0.454545 0.314921
vt 0.4090905 0.236191
vt 0.36363602 0.314921
vt 0.3181815 0.236191
vt 0.3181815 0.236191
vt 0.36363602 0.314921
vt 0.272727 0.314921
vt 0.22727251 0.236191
vt 0.272727 0.314921
vt 0.18181801 0.314921
vt 0.22727251 0.236191
vt 0.18181801 0.314921
vt 0.13636349 0.236191
vt 0.954545 0.236191
vt 1 0.314921
vt 0.9090905 0.314921
vt 0.954545 0.236191
vt 0.9090905 0.314921
vt 0.8636355 0.236191
vt 0.8636355 0.236191
vt 0.9090905 0.314921
vt 0.818181 0.314921
vt 0.7727265 0.236191
vt 0.818181 0.314921
vt 0.72727203 0.314921
vt 0.7727265 0.236191
vt 0.72727203 0.314921
vt 0.68181753 0.236191
vt 0.49999952 0.236191
vt 0.4090905 0.236191
vt 0.45454502 0.157461
vt 0.45454502 0.157461
vt 0.4090905 0.236191
vt 0.363636 0.157461
vt 0.3181815 0.236191
vt 0.272727 0.314921
vt 0.22727251 0.236191
vt 0.3181815 0.236191
vt 0.22727251 0.236191
vt 0.27272698 0.157461
vt 0.27272698 0.157461
vt 0.22727251 0.236191
vt 0.181818 0.157461
vt 0.13636349 0.236191
vt 0.090909 0.314921
vt 0.0454545 0.236191
vt 0.13636349 0.236191
vt 0.0454545 0.236191
vt 0.090909 0.157461
vt 0.090909 0.157461
vt 0.0454545 0.236191
vt 0 0.157461
vt 0.8636355 0.236191
vt 0.818181 0.314921
vt 0.7727265 0.236191
vt 0.8636355 0.236191
vt 0.7727265 0.236191
vt 0.818181 0.157461
vt 0.818181 0.157461
vt 0.7727265 0.236191
vt 0.727272 0.157461
vt 0.68181753 0.236191
vt 0.636363 0.314921
vt 0.5909085 0.236191
vt 0.68181753 0.236191
vt 0.5909085 0.236191
vt 0.636363 0.157461
vt 0.636363 0.157461
vt 0.5909085 0.236191
vt 0.545454 0.157461
vt 0.49999952 0.0787305
vt 0.545454 0.157461
vt 0.45454502 0.157461
vt 0.49999952 0.0787305
vt 0.45454502 0.157461
vt 0.4090905 0.0787305
vt 0.4090905 0.0787305
vt 0.45454502 0.157461
vt 0.363636 0.157461
vt 0.636363 0.157461
vt 0.545454 0.157461
vt 0.5909085 0.0787305
vt 0.636363 0.157461
vt 0.5909085 0.0787305
vt 0.68181753 0.0787305
vt 0.68181753 0.0787305
vt 0.5909085 0.0787305
vt 0.636363 0
vt 0.8636355 0.0787305
vt 0.90909 0.157461
vt 0.818181 0.157461
vt 0.8636355 0.0787305
vt 0.818181 0.157461
vt 0.7727265 0.0787305
vt 0.7727265 0.0787305
vt 0.818181 0.157461
vt 0.727272 0.157461
vt 0.727272 0.157461
vt 0.636363 0.157461
vt 0.68181753 0.0787305
vt 0.68181753 0.236191
vt 0.090909 0
vt 0.13636349 0.0787305
vt 0.0454545 0.0787305
vt 0.090909 0.157461
vt 0 0.157461
vt 0.181818 0.157461
vt 0.22727251 0.0787305
vt 0.27272698 0.157461
vt 0.3181815 0.0787305
vt 0.272727 0
vt 0.363636 0.157461
vt 0.18181801 0.314921
vt 0.13636349 0.3936515
vt 0.090909 0.314921
vt 0.13636349 0.236191
vt 0.72727203 0.314921
vt 0.68181753 0.3936515
vt 0.636363 0.314921
vt 0.68181753 0.236191
vt 0.4090905 0.236191
vt 0.454545 0.314921
vt 0.36363602 0.314921
vt 0.49999952 0.236191
vn -0.19608907 -0.978514 -0.06371263
vn -0.19608907 -0.978514 -0.06371263
vn -0.19608907 -0.978514 -0.06371263
vn -0.17088157 -0.98372597 0.05552238
vn -0.17088157 -0.98372597 0.05552238
vn -0.17088157 -0.98372597 0.05552238
vn 0.08069589 -0.48203835 0.872426
vn 0.08069589 -0.48203835 0.872426
vn 0.08069589 -0.48203835 0.872426
vn -0.7291163 -0.61477023 0.3007439
vn -0.7291163 -0.61477023 0.3007439
vn -0.7291163 -0.61477023 0.3007439
vn -0.57814175 -0.45250577 -0.6789629
vn -0.57814175 -0.45250577 -0.6789629
vn -0.57814175 -0.45250577 -0.6789629
vn 0.5112222 -0.26365304 -0.8180091
vn 0.5112222 -0.26365304 -0.8180091
vn 0.5112222 -0.26365304 -0.8180091
vn 0.79166716 -0.180965 0.5835365
vn 0.79166716 -0.180965 0.5835365
vn 0.79166716 -0.180965 0.5835365
vn -0.34303287 -0.1387937 0.9290128
vn -0.34303287 -0.1387937 0.9290128
vn -0.34303287 -0.1387937 0.9290128
vn -0.98215115 -0.18066205 -0.052348316
vn -0.98215115 -0.18066205 -0.052348316
vn -0.98215115 -0.18066205 -0.052348316
vn -0.30152392 -0.1633503 -0.9393615
vn -0.30152392 -0.1633503 -0.9393615
vn -0.30152392 -0.1633503 -0.9393615
vn 0.80830944 -0.08945613 -0.58192223
vn 0.80830944 -0.08945613 -0.58192223
vn 0.80830944 -0.08945613 -0.58192223
vn -0.39049232 0.7819538 -0.4858642
vn -0.39049232 0.7819538 -0.4858642
vn -0.39049232 0.7819538 -0.4858642
vn -0.24514255 0.66351044 0.7068656
vn -0.24514255 0.66351044 0.7068656
vn -0.24514255 0.66351044 0.7068656
vn -0.7337092 0.58525044 -0.34518513
vn -0.7337092 0.58525044 -0.34518513
vn -0.7337092 0.58525044 -0.34518513
vn -0.43164775 0.8755397 0.21704938
vn -0.43164775 0.8755397 0.21704938
vn -0.43164775 0.8755397 0.21704938
vn -0.16491315 0.9551227 -0.24605761
vn -0.16491315 0.9551227 -0.24605761
vn -0.16491315 0.9551227 -0.24605761
vn -0.24195606 0.88885623 -0.38909104
vn -0.24195606 0.88885623 -0.38909104
vn -0.24195606 0.88885623 -0.38909104
vn -0.36439848 0.88284457 -0.2963093
vn -0.36439848 0.88284457 -0.2963093
vn -0.36439848 0.88284457 -0.2963093
vn -0.36985436 0.8960668 0.24550375
vn -0.36985436 0.8960668 0.24550375
vn -0.36985436 0.8960668 0.24550375
vn 0.47779113 0.8660418 -0.14726585
vn 0.47779113 0.8660418 -0.14726585
vn 0.47779113 0.8660418 -0.14726585
vn 0.23601492 0.73138225 -0.6398257
vn 0.23601492 0.73138225 -0.6398257
vn 0.23601492 0.73138225 -0.6398257
vn -0.44298643 0.5642448 -0.6966999
vn -0.44298643 0.5642448 -0.6966999
vn -0.44298643 0.5642448 -0.6966999
vn 0.28784046 0.9441793 0.16022906
vn 0.28784046 0.9441793 0.16022906
vn 0.28784046 0.9441793 0.16022906
vn -0.569021 0.8107319 0.13758267
vn -0.569021 0.8107319 0.13758267
vn -0.569021 0.8107319 0.13758267
vn 0.2720481 0.952568 0.1363962
vn 0.2720481 0.952568 0.1363962
vn 0.2720481 0.952568 0.1363962
vn 0.020373631 0.72984767 0.68330616
vn 0.020373631 0.72984767 0.68330616
vn 0.020373631 0.72984767 0.68330616
vn -0.6677399 0.6756365 -0.31247205
vn -0.6677399 0.6756365 -0.31247205
vn -0.6677399 0.6756365 -0.31247205
vn -0.2506591 0.92082775 0.2987411
vn -0.2506591 0.92082775 0.2987411
vn -0.2506591 0.92082775 0.2987411
vn -0.44229844 0.8856903 0.14115562
vn -0.44229844 0.8856903 0.14115562
vn -0.44229844 0.8856903 0.14115562
vn -0.37540668 0.9152684 -0.14612848
vn -0.37540668 0.9152684 -0.14612848
vn -0.37540668 0.9152684 -0.14612848
vn -0.64510477 0.6309429 0.43098837
vn -0.64510477 0.6309429 0.43098837
vn -0.64510477 0.6309429 0.43098837
vn -0.49876952 0.7543914 0.42675826
vn -0.49876952 0.7543914 0.42675826
vn -0.49876952 0.7543914 0.42675826
vn 0.13675323 0.865913 0.48113745
vn 0.13675323 0.865913 0.48113745
vn 0.13675323 0.865913 0.48113745
vn 0.14961137 0.9473058 0.28324568
vn 0.14961137 0.9473058 0.28324568
vn 0.14961137 0.9473058 0.28324568
vn 0.33326167 0.92456806 -0.18469033
vn 0.33326167 0.92456806 -0.18469033
vn 0.33326167 0.92456806 -0.18469033
vn -0.7401719 0.6458514 0.18714036
vn -0.7401719 0.6458514 0.18714036
vn -0.7401719 0.6458514 0.18714036
vn 0.5377707 0.59314656 -0.5991493
vn 0.5377707 0.59314656 -0.5991493
vn 0.5377707 0.59314656 -0.5991493
vn 0.39212003 0.43250412 -0.81190026
vn 0.39212003 0.43250412 -0.81190026
vn 0.39212003 0.43250412 -0.81190026
vn -0.6351237 0.5819268 0.5079164
vn -0.6351237 0.5819268 0.5079164
vn -0.6351237 0.5819268 0.5079164
vn -0.24502948 0.91529316 -0.31968555
vn -0.24502948 0.91529316 -0.31968555
vn -0.24502948 0.91529316 -0.31968555
vn -0.44218987 0.82183933 -0.35923272
vn -0.44218987 0.82183933 -0.35923272
vn -0.44218987 0.82183933 -0.35923272
vn 0.43346998 -0.22355512 -0.87299883
vn 0.43346998 -0.22355512 -0.87299883
vn 0.43346998 -0.22355512 -0.87299883
vn 0.16970699 -0.49862522 -0.8500426
vn 0.16970699 -0.49862522 -0.8500426
vn 0.16970699 -0.49862522 -0.8500426
vn 0.7229027 0.51429635 0.4614226
vn 0.7229027 0.51429635 0.4614226
vn 0.7229027 0.51429635 0.4614226
vn -0.79556096 -0.26420265 -0.5452336
vn -0.79556096 -0.26420265 -0.5452336
vn -0.79556096 -0.26420265 -0.5452336
vn -0.849805 -0.39365414 -0.35052493
vn -0.849805 -0.39365414 -0.35052493
vn -0.849805 -0.39365414 -0.35052493
vn 0.102624156 0.8401034 -0.5326298
vn 0.102624156 0.8401034 -0.5326298
vn 0.102624156 0.8401034 -0.5326298
vn -0.70273393 -0.2704675 0.65803677
vn -0.70273393 -0.2704675 0.65803677
vn -0.70273393 -0.2704675 0.65803677
vn -0.6125565 -0.3275189 0.71937877
vn -0.6125565 -0.3275189 0.71937877
vn -0.6125565 -0.3275189 0.71937877
vn 0.06372756 0.28941128 0.9550811
vn 0.06372756 0.28941128 0.9550811
vn 0.06372756 0.28941128 0.9550811
vn 0.4373649 -0.17708817 0.8816756
vn 0.4373649 -0.17708817 0.8816756
vn 0.4373649 -0.17708817 0.8816756
vn 0.70019126 -0.2835016 0.6552549
vn 0.70019126 -0.2835016 0.6552549
vn 0.70019126 -0.2835016 0.6552549
vn 0.25882906 0.96532017 -0.03412308
vn 0.25882906 0.96532017 -0.03412308
vn 0.25882906 0.96532017 -0.03412308
vn 0.95870626 -0.28422046 0.010046713
vn 0.95870626 -0.28422046 0.010046713
vn 0.95870626 -0.28422046 0.010046713
vn 0.94613844 -0.3219644 -0.034071986
vn 0.94613844 -0.3219644 -0.034071986
vn 0.94613844 -0.3219644 -0.034071986
vn 0.29821604 -0.84605795 -0.4418746
vn 0.29821604 -0.84605795 -0.4418746
vn 0.29821604 -0.84605795 -0.4418746
vn -0.02374949 -0.9283938 -0.3708379
vn -0.02374949 -0.9283938 -0.3708379
vn -0.02374949 -0.9283938 -0.3708379
vn 0.20886396 -0.9755873 -0.06786238
vn 0.20886396 -0.9755873 -0.06786238
vn 0.20886396 -0.9755873 -0.06786238
vn 0.6834088 -0.68609315 0.24945635
vn 0.6834088 -0.68609315 0.24945635
vn 0.6834088 -0.68609315 0.24945635
vn 0.7871845 -0.61655873 -0.013996247
vn 0.7871845 -0.61655873 -0.013996247
vn 0.7871845 -0.61655873 -0.013996247
vn -0.22520988 -0.97405934 -0.022111906
vn -0.22520988 -0.97405934 -0.022111906
vn -0.22520988 -0.97405934 -0.022111906
vn 0.028359398 -0.9995553 0.009213874
vn 0.028359398 -0.9995553 0.009213874
vn 0.028359398 -0.9995553 0.009213874
vn -0.110063426 -0.97390175 0.19849823
vn -0.110063426 -0.97390175 0.19849823
vn -0.110063426 -0.97390175 0.19849823
vn 0.7707804 -0.5154672 0.37442103
vn 0.7707804 -0.5154672 0.37442103
vn 0.7707804 -0.5154672 0.37442103
vn 0.82889426 -0.49989584 0.25107455
vn 0.82889426 -0.49989584 0.25107455
vn 0.82889426 -0.49989584 0.25107455
vn 0.8478187 -0.4664476 0.25225008
vn 1.5872657E-06 -1 0
vn 1.5872657E-06 -1 0
vn 1.5872657E-06 -1 0
vn 1.7783058E-06 -1 0
vn 1.6166119E-06 -1 0
vn 1.7783058E-06 -1 0
vn 1.5872661E-06 -1 0
vn 1.6166126E-06 -1 0
vn 1.5872661E-06 -1 0
vn 1.5872661E-06 -1 0
vn 1.6166126E-06 -1 0
vn -0.625886 0.72691405 0.28259978
vn -0.625886 0.72691405 0.28259978
vn -0.625886 0.72691405 0.28259978
vn -0.6212082 0.7310628 0.2822191
vn -0.16991071 0.9840671 0.052367125
vn -0.16991071 0.9840671 0.052367125
vn -0.16991071 0.9840671 0.052367125
vn -0.18240066 0.98210174 0.046970908
vn -0.44945192 0.8264669 -0.33903593
vn -0.44945192 0.8264669 -0.33903593
vn -0.44945192 0.8264669 -0.33903593
vn -0.43370354 0.8239741 -0.36464772
g Icosphere.449_0
f 3/3/3 2/2/2 1/1/1
f 6/6/6 5/5/5 4/4/4
f 9/9/9 8/8/8 7/7/7
f 12/12/12 11/11/11 10/10/10
f 15/15/15 14/14/14 13/13/13
f 18/18/18 17/17/17 16/16/16
f 21/21/21 20/20/20 19/19/19
f 24/24/24 23/23/23 22/22/22
f 27/27/27 26/26/26 25/25/25
f 30/30/30 29/29/29 28/28/28
f 33/33/33 32/32/32 31/31/31
f 36/36/36 35/35/35 34/34/34
f 39/39/39 38/38/38 37/37/37
f 42/42/42 41/41/41 40/40/40
f 45/45/45 44/44/44 43/43/43
f 48/48/48 47/47/47 46/46/46
f 51/51/51 50/50/50 49/49/49
f 54/54/54 53/53/53 52/52/52
f 57/57/57 56/56/56 55/55/55
f 60/60/60 59/59/59 58/58/58
f 63/63/63 62/62/62 61/61/61
f 66/66/66 65/65/65 64/64/64
f 69/69/69 68/68/68 67/67/67
f 72/72/72 71/71/71 70/70/70
f 75/75/75 74/74/74 73/73/73
f 78/78/78 77/77/77 76/76/76
f 81/81/81 80/80/80 79/79/79
f 84/84/84 83/83/83 82/82/82
f 87/87/87 86/86/86 85/85/85
f 90/90/90 89/89/89 88/88/88
f 93/93/93 92/92/92 91/91/91
f 96/96/96 95/95/95 94/94/94
f 99/99/99 98/98/98 97/97/97
f 102/102/102 101/101/101 100/100/100
f 105/105/105 104/104/104 103/103/103
f 108/108/108 107/107/107 106/106/106
f 111/111/111 110/110/110 109/109/109
f 114/114/114 113/113/113 112/112/112
f 117/117/117 116/116/116 115/115/115
f 120/120/120 119/119/119 118/118/118
f 123/123/123 122/122/122 121/121/121
f 126/126/126 125/125/125 124/124/124
f 129/129/129 128/128/128 127/127/127
f 132/132/132 131/131/131 130/130/130
f 135/135/135 134/134/134 133/133/133
f 138/138/138 137/137/137 136/136/136
f 141/141/141 140/140/140 139/139/139
f 144/144/144 143/143/143 142/142/142
f 147/147/147 146/146/146 145/145/145
f 150/150/150 149/149/149 148/148/148
f 153/153/153 152/152/152 151/151/151
f 156/156/156 155/155/155 154/154/154
f 159/159/159 158/158/158 157/157/157
f 162/162/162 161/161/161 160/160/160
f 165/165/165 164/164/164 163/163/163
f 168/168/168 167/167/167 166/166/166
f 171/171/171 170/170/170 169/169/169
f 174/174/174 173/173/173 172/172/172
f 177/177/177 176/176/176 175/175/175
f 180/180/180 179/179/179 178/178/178
f 183/183/183 182/182/182 181/181/181
f 186/186/186 185/185/185 184/184/184
f 189/189/189 188/188/188 187/187/187
f 192/192/192 191/191/191 190/190/190
f 195/195/195 194/194/194 193/193/193
f 194/194/194 196/196/196 193/193/193
f 199/199/199 198/198/198 197/197/197
f 199/199/199 200/200/200 198/198/198
f 201/201/201 200/200/200 199/199/199
f 200/200/200 202/202/202 198/198/198
f 202/202/202 204/204/204 203/203/203
f 203/203/203 204/204/204 205/205/205
f 203/203/203 205/205/205 206/206/206
f 204/204/204 207/207/207 205/205/205
f 210/210/210 209/209/209 208/208/208
f 210/210/210 208/208/208 211/211/211
f 214/214/214 213/213/213 212/212/212
f 214/214/214 212/212/212 215/215/215
f 218/218/218 217/217/217 216/216/216
f 216/216/216 217/217/217 219/219/219
