g Icosphere.200
v 0.35992354 -0.5567849 0
v 0.036950186 -0.36660972 0.49999526
v 0.48680776 -0.4102993 0.3090114
v 0.72518647 0.1964051 0.5257253
v 0.91781634 0.38890448 1.1007746E-08
v 0.48680776 -0.4102993 0.3090114
v 0.35992354 -0.5567849 0
v -0.51797855 -0.5747378 0
v 0.036950186 -0.36660972 0.49999526
v 0.35992354 -0.5567849 0
v -0.015535742 -0.527477 -0.49999526
v -0.51797855 -0.5747378 0
v 0.35992354 -0.5567849 0
v 0.6972055 -0.43347496 -0.3090114
v -0.015535742 -0.527477 -0.49999526
v 0.72518647 0.1964051 0.5257253
v 1.0554637 0.5123763 0.30901262
v 0.91781634 0.38890448 1.1007746E-08
v 0.008669972 -0.2193256 0.85064924
v 0.19691284 0.51292986 1
v 0.29354075 -0.2884621 0.8090116
v -0.5938132 -0.1957145 -6.4512435E-09
v -0.9338987 0.49641383 0.30901262
v -0.5060235 -0.030906111 0.49999693
v -0.17509492 -0.2805475 -0.85064924
v -0.46579975 0.3266904 -0.8090167
v -0.44452393 -0.056305606 -0.49999693
v 0.7773598 -0.19184764 -0.5257253
v 0.79357 0.4510986 -0.8090167
v 0.2732123 -0.050547626 -0.8090116
v 0.008669972 -0.2193256 0.85064924
v -0.47451094 0.32292482 0.8090167
v 0.19691284 0.51292986 1
v -0.5938132 -0.1957145 -6.4512435E-09
v -0.78184617 0.20103668 -0.30901262
v -0.9338987 0.49641383 0.30901262
v -0.17509492 -0.2805475 -0.85064924
v 0.1704176 0.5344773 -1
v -0.46579975 0.3266904 -0.8090167
v 0.7773598 -0.19184764 -0.5257253
v 1.0659826 0.45342377 -0.30901262
v 0.79357 0.4510986 -0.8090167
v 0.4587298 0.49575397 0.85064924
v 0.2614831 0.5333812 0.4999953
v 0.7356181 0.52314913 0.49999693
v -0.6238977 0.48255575 0.5257253
v -0.29169834 0.5225928 0.3090114
v -0.16275075 0.5387921 0.8090116
v -0.5581676 0.49844775 -0.5257253
v -0.21394168 0.48172876 -0.3090114
v -0.821787 0.51609284 -2.9802322E-08
v -0.14261295 0.46139506 -0.8090116
v -0.21394168 0.48172876 -0.3090114
v 0.46981663 0.535279 -0.85064924
v 0.31974638 0.5047386 -0.49999523
v -0.14261295 0.46139506 -0.8090116
v 1.0151561 0.5573988 6.519258E-09
v 0.61971676 0.51441467 3.7252903E-09
v 0.7551671 0.46175474 -0.4999969
v 0.61971676 0.51441467 3.7252903E-09
v 0.06315892 0.50441855 0
v 0.31974638 0.5047386 -0.49999523
v 0.61971676 0.51441467 3.7252903E-09
v 0.31974638 0.5047386 -0.49999523
v 0.7551671 0.46175474 -0.4999969
v 0.7551671 0.46175474 -0.4999969
v 0.31974638 0.5047386 -0.49999523
v 0.46981663 0.535279 -0.85064924
v -0.821787 0.51609284 -2.9802322E-08
v -0.29169834 0.5225928 0.3090114
v -0.6238977 0.48255575 0.5257253
v -0.16275075 0.5387921 0.8090116
v 0.2614831 0.5333812 0.4999953
v 0.4587298 0.49575397 0.85064924
v 0.2614831 0.5333812 0.4999953
v 0.06315892 0.50441855 0
v 0.61971676 0.51441467 3.7252903E-09
v 0.2614831 0.5333812 0.4999953
v 0.61971676 0.51441467 3.7252903E-09
v 0.7356181 0.52314913 0.49999693
v 0.7356181 0.52314913 0.49999693
v 0.61971676 0.51441467 3.7252903E-09
v 1.0151561 0.5573988 6.519258E-09
v 1.0659826 0.45342377 -0.30901262
v 1.0151561 0.5573988 6.519258E-09
v 0.7551671 0.46175474 -0.4999969
v 1.0659826 0.45342377 -0.30901262
v 0.7551671 0.46175474 -0.4999969
v 0.79357 0.4510986 -0.8090167
v 0.79357 0.4510986 -0.8090167
v 0.7551671 0.46175474 -0.4999969
v 0.46981663 0.535279 -0.85064924
v 0.1704176 0.5344773 -1
v 0.46981663 0.535279 -0.85064924
v -0.14261295 0.46139506 -0.8090116
v 0.1704176 0.5344773 -1
v -0.14261295 0.46139506 -0.8090116
v -0.46579975 0.3266904 -0.8090167
v -0.46579975 0.3266904 -0.8090167
v -0.14261295 0.46139506 -0.8090116
v -0.5581676 0.49844775 -0.5257253
v -0.78184617 0.20103668 -0.30901262
v -0.821787 0.51609284 -2.9802322E-08
v -0.9338987 0.49641383 0.30901262
v -0.9338987 0.49641383 0.30901262
v -0.821787 0.51609284 -2.9802322E-08
v -0.6238977 0.48255575 0.5257253
v -0.47451094 0.32292482 0.8090167
v -0.6238977 0.48255575 0.5257253
v -0.16275075 0.5387921 0.8090116
v -0.47451094 0.32292482 0.8090167
v -0.16275075 0.5387921 0.8090116
v 0.19691284 0.51292986 1
v 0.19691284 0.51292986 1
v -0.16275075 0.5387921 0.8090116
v 0.4587298 0.49575397 0.85064924
v 0.6230608 0.54947114 0.8090167
v 0.4587298 0.49575397 0.85064924
v 0.7356181 0.52314913 0.49999693
v 0.6230608 0.54947114 0.8090167
v 0.7356181 0.52314913 0.49999693
v 1.0554637 0.5123763 0.30901262
v 1.0554637 0.5123763 0.30901262
v 0.7356181 0.52314913 0.49999693
v 1.0151561 0.5573988 6.519258E-09
v 0.79357 0.4510986 -0.8090167
v 0.46981663 0.535279 -0.85064924
v 0.1704176 0.5344773 -1
v -0.46579975 0.3266904 -0.8090167
v -0.78184617 0.20103668 -0.30901262
v -0.44452393 -0.056305606 -0.49999693
v -0.44452393 -0.056305606 -0.49999693
v -0.78184617 0.20103668 -0.30901262
v -0.5938132 -0.1957145 -6.4512435E-09
v -0.9338987 0.49641383 0.30901262
v -0.6238977 0.48255575 0.5257253
v -0.47451094 0.32292482 0.8090167
v -0.9338987 0.49641383 0.30901262
v -0.47451094 0.32292482 0.8090167
v -0.5060235 -0.030906111 0.49999693
v -0.5060235 -0.030906111 0.49999693
v -0.47451094 0.32292482 0.8090167
v 0.008669972 -0.2193256 0.85064924
v 0.19691284 0.51292986 1
v 0.4587298 0.49575397 0.85064924
v 0.6230608 0.54947114 0.8090167
v 0.19691284 0.51292986 1
v 0.6230608 0.54947114 0.8090167
v 0.29354075 -0.2884621 0.8090116
v 1.0554637 0.5123763 0.30901262
v 1.0151561 0.5573988 6.519258E-09
v 1.0659826 0.45342377 -0.30901262
v 1.0554637 0.5123763 0.30901262
v 1.0659826 0.45342377 -0.30901262
v 0.91781634 0.38890448 1.1007746E-08
v 0.91781634 0.38890448 1.1007746E-08
v 1.0659826 0.45342377 -0.30901262
v 0.7773598 -0.19184764 -0.5257253
v 0.6972055 -0.43347496 -0.3090114
v 0.7773598 -0.19184764 -0.5257253
v 0.2732123 -0.050547626 -0.8090116
v 0.6972055 -0.43347496 -0.3090114
v 0.2732123 -0.050547626 -0.8090116
v -0.015535742 -0.527477 -0.49999526
v -0.015535742 -0.527477 -0.49999526
v 0.2732123 -0.050547626 -0.8090116
v -0.17509492 -0.2805475 -0.85064924
v -0.015535742 -0.527477 -0.49999526
v -0.17509492 -0.2805475 -0.85064924
v -0.44452393 -0.056305606 -0.49999693
v -0.015535742 -0.527477 -0.49999526
v -0.44452393 -0.056305606 -0.49999693
v -0.51797855 -0.5747378 0
v -0.51797855 -0.5747378 0
v -0.44452393 -0.056305606 -0.49999693
v -0.5938132 -0.1957145 -6.4512435E-09
v -0.51797855 -0.5747378 0
v -0.5938132 -0.1957145 -6.4512435E-09
v -0.5060235 -0.030906111 0.49999693
v -0.51797855 -0.5747378 0
v -0.5060235 -0.030906111 0.49999693
v 0.036950186 -0.36660972 0.49999526
v 0.036950186 -0.36660972 0.49999526
v -0.5060235 -0.030906111 0.49999693
v 0.008669972 -0.2193256 0.85064924
v 0.91781634 0.38890448 1.1007746E-08
v 0.7773598 -0.19184764 -0.5257253
v 0.6972055 -0.43347496 -0.3090114
v 0.91781634 0.38890448 1.1007746E-08
v 0.6972055 -0.43347496 -0.3090114
v 0.48680776 -0.4102993 0.3090114
v 0.48680776 -0.4102993 0.3090114
v 0.6972055 -0.43347496 -0.3090114
v 0.35992354 -0.5567849 0
v 0.036950186 -0.36660972 0.49999526
v 0.008669972 -0.2193256 0.85064924
v 0.29354075 -0.2884621 0.8090116
v 0.036950186 -0.36660972 0.49999526
v 0.29354075 -0.2884621 0.8090116
v 0.48680776 -0.4102993 0.3090114
v 0.48680776 -0.4102993 0.3090114
v 0.29354075 -0.2884621 0.8090116
v 0.72518647 0.1964051 0.5257253
v 0.72518647 0.1964051 0.5257253
v 0.6230608 0.54947114 0.8090167
v 1.0554637 0.5123763 0.30901262
v 0.29354075 -0.2884621 0.8090116
v 0.31974638 0.5047386 -0.49999523
v 0.06315892 0.50441855 0
v -0.21394168 0.48172876 -0.3090114
v -0.14261295 0.46139506 -0.8090116
v -0.21394168 0.48172876 -0.3090114
v 0.06315892 0.50441855 0
v -0.29169834 0.5225928 0.3090114
v -0.821787 0.51609284 -2.9802322E-08
v -0.29169834 0.5225928 0.3090114
v 0.06315892 0.50441855 0
v 0.2614831 0.5333812 0.4999953
v -0.16275075 0.5387921 0.8090116
v -0.78184617 0.20103668 -0.30901262
v -0.5581676 0.49844775 -0.5257253
v -0.821787 0.51609284 -2.9802322E-08
v -0.46579975 0.3266904 -0.8090167
v 0.79357 0.4510986 -0.8090167
v 0.1704176 0.5344773 -1
v 0.2732123 -0.050547626 -0.8090116
v -0.17509492 -0.2805475 -0.85064924
vt 0.818181 0
vt 0.8636355 0.0787305
vt 0.7727265 0.0787305
vt 0.727272 0.157461
vt 0.636363 0.157461
vt 0.68181753 0.0787305
vt 0.090909 0
vt 0.13636349 0.0787305
vt 0.0454545 0.0787305
vt 0.272727 0
vt 0.3181815 0.0787305
vt 0.22727251 0.0787305
vt 0.454545 0
vt 0.49999952 0.0787305
vt 0.4090905 0.0787305
vt 0.727272 0.157461
vt 0.68181753 0.236191
vt 0.636363 0.157461
vt 0.90909 0.157461
vt 0.8636355 0.236191
vt 0.818181 0.157461
vt 0.181818 0.157461
vt 0.13636349 0.236191
vt 0.090909 0.157461
vt 0.363636 0.157461
vt 0.3181815 0.236191
vt 0.27272698 0.157461
vt 0.545454 0.157461
vt 0.49999952 0.236191
vt 0.45454502 0.157461
vt 0.90909 0.157461
vt 0.954545 0.236191
vt 0.8636355 0.236191
vt 0.181818 0.157461
vt 0.22727251 0.236191
vt 0.13636349 0.236191
vt 0.363636 0.157461
vt 0.4090905 0.236191
vt 0.3181815 0.236191
vt 0.545454 0.157461
vt 0.5909085 0.236191
vt 0.49999952 0.236191
vt 0.818181 0.314921
vt 0.7727265 0.3936515
vt 0.72727203 0.314921
vt 1 0.314921
vt 0.954545 0.3936515
vt 0.9090905 0.314921
vt 0.272727 0.314921
vt 0.22727251 0.3936515
vt 0.18181801 0.314921
vt 0.36363602 0.314921
vt 0.3181815 0.3936515
vt 0.454545 0.314921
vt 0.4090905 0.3936515
vt 0.36363602 0.314921
vt 0.636363 0.314921
vt 0.5909085 0.3936515
vt 0.545454 0.314921
vt 0.5909085 0.3936515
vt 0.545454 0.472382
vt 0.49999952 0.3936515
vt 0.5909085 0.3936515
vt 0.49999952 0.3936515
vt 0.545454 0.314921
vt 0.545454 0.314921
vt 0.49999952 0.3936515
vt 0.454545 0.314921
vt 0.18181801 0.314921
vt 0.13636349 0.3936515
vt 0.090909 0.314921
vt 0.9090905 0.314921
vt 0.8636355 0.3936515
vt 0.818181 0.314921
vt 0.7727265 0.3936515
vt 0.727272 0.472382
vt 0.68181753 0.3936515
vt 0.7727265 0.3936515
vt 0.68181753 0.3936515
vt 0.72727203 0.314921
vt 0.72727203 0.314921
vt 0.68181753 0.3936515
vt 0.636363 0.314921
vt 0.5909085 0.236191
vt 0.636363 0.314921
vt 0.545454 0.314921
vt 0.5909085 0.236191
vt 0.545454 0.314921
vt 0.49999952 0.236191
vt 0.49999952 0.236191
vt 0.545454 0.314921
vt 0.454545 0.314921
vt 0.4090905 0.236191
vt 0.454545 0.314921
vt 0.36363602 0.314921
vt 0.4090905 0.236191
vt 0.36363602 0.314921
vt 0.3181815 0.236191
vt 0.3181815 0.236191
vt 0.36363602 0.314921
vt 0.272727 0.314921
vt 0.22727251 0.236191
vt 0.18181801 0.314921
vt 0.13636349 0.236191
vt 0.13636349 0.236191
vt 0.18181801 0.314921
vt 0.090909 0.314921
vt 0.954545 0.236191
vt 1 0.314921
vt 0.9090905 0.314921
vt 0.954545 0.236191
vt 0.9090905 0.314921
vt 0.8636355 0.236191
vt 0.8636355 0.236191
vt 0.9090905 0.314921
vt 0.818181 0.314921
vt 0.7727265 0.236191
vt 0.818181 0.314921
vt 0.72727203 0.314921
vt 0.7727265 0.236191
vt 0.72727203 0.314921
vt 0.68181753 0.236191
vt 0.68181753 0.236191
vt 0.72727203 0.314921
vt 0.636363 0.314921
vt 0.49999952 0.236191
vt 0.454545 0.314921
vt 0.4090905 0.236191
vt 0.3181815 0.236191
vt 0.22727251 0.236191
vt 0.27272698 0.157461
vt 0.27272698 0.157461
vt 0.22727251 0.236191
vt 0.181818 0.157461
vt 0.13636349 0.236191
vt 0.090909 0.314921
vt 0.0454545 0.236191
vt 0.13636349 0.236191
vt 0.0454545 0.236191
vt 0.090909 0.157461
vt 0.090909 0.157461
vt 0.0454545 0.236191
vt 0 0.157461
vt 0.8636355 0.236191
vt 0.818181 0.314921
vt 0.7727265 0.236191
vt 0.8636355 0.236191
vt 0.7727265 0.236191
vt 0.818181 0.157461
vt 0.68181753 0.236191
vt 0.636363 0.314921
vt 0.5909085 0.236191
vt 0.68181753 0.236191
vt 0.5909085 0.236191
vt 0.636363 0.157461
vt 0.636363 0.157461
vt 0.5909085 0.236191
vt 0.545454 0.157461
vt 0.49999952 0.0787305
vt 0.545454 0.157461
vt 0.45454502 0.157461
vt 0.49999952 0.0787305
vt 0.45454502 0.157461
vt 0.4090905 0.0787305
vt 0.4090905 0.0787305
vt 0.45454502 0.157461
vt 0.363636 0.157461
vt 0.3181815 0.0787305
vt 0.363636 0.157461
vt 0.27272698 0.157461
vt 0.3181815 0.0787305
vt 0.27272698 0.157461
vt 0.22727251 0.0787305
vt 0.22727251 0.0787305
vt 0.27272698 0.157461
vt 0.181818 0.157461
vt 0.13636349 0.0787305
vt 0.181818 0.157461
vt 0.090909 0.157461
vt 0.13636349 0.0787305
vt 0.090909 0.157461
vt 0.0454545 0.0787305
vt 0.0454545 0.0787305
vt 0.090909 0.157461
vt 0 0.157461
vt 0.636363 0.157461
vt 0.545454 0.157461
vt 0.5909085 0.0787305
vt 0.636363 0.157461
vt 0.5909085 0.0787305
vt 0.68181753 0.0787305
vt 0.68181753 0.0787305
vt 0.5909085 0.0787305
vt 0.636363 0
vt 0.8636355 0.0787305
vt 0.90909 0.157461
vt 0.818181 0.157461
vt 0.8636355 0.0787305
vt 0.818181 0.157461
vt 0.7727265 0.0787305
vt 0.7727265 0.0787305
vt 0.818181 0.157461
vt 0.727272 0.157461
vt 0.727272 0.157461
vt 0.7727265 0.236191
vt 0.68181753 0.236191
vt 0.818181 0.157461
vt 0.4090905 0.3936515
vt 0.363636 0.472382
vt 0.3181815 0.3936515
vt 0.36363602 0.314921
vt 0.22727251 0.3936515
vt 0.181818 0.472382
vt 0.13636349 0.3936515
vt 0.18181801 0.314921
vt 0.954545 0.3936515
vt 0.90909 0.472382
vt 0.8636355 0.3936515
vt 0.9090905 0.314921
vt 0.22727251 0.236191
vt 0.272727 0.314921
vt 0.18181801 0.314921
vt 0.3181815 0.236191
vt 0.49999952 0.236191
vt 0.4090905 0.236191
vt 0.45454502 0.157461
vt 0.363636 0.157461
vn 0.08097051 -0.9131041 0.39960584
vn 0.08097051 -0.9131041 0.39960584
vn 0.08097051 -0.9131041 0.39960584
vn 0.89325273 -0.41375875 0.17579302
vn 0.89325273 -0.41375875 0.17579302
vn 0.89325273 -0.41375875 0.17579302
vn 0.01902552 -0.9303592 0.36615548
vn 0.01902552 -0.9303592 0.36615548
vn 0.01902552 -0.9303592 0.36615548
vn 0.02038976 -0.99706787 -0.0737557
vn 0.02038976 -0.99706787 -0.0737557
vn 0.02038976 -0.99706787 -0.0737557
vn 0.17836998 -0.96534115 -0.1905275
vn 0.17836998 -0.96534115 -0.1905275
vn 0.17836998 -0.96534115 -0.1905275
vn 0.68606406 -0.72738737 -0.014960596
vn 0.68606406 -0.72738737 -0.014960596
vn 0.68606406 -0.72738737 -0.014960596
vn 0.08837536 -0.22082537 0.9713012
vn 0.08837536 -0.22082537 0.9713012
vn 0.08837536 -0.22082537 0.9713012
vn -0.7898383 -0.52766603 0.31260833
vn -0.7898383 -0.52766603 0.31260833
vn -0.7898383 -0.52766603 0.31260833
vn -0.8355888 -0.37233028 -0.40393248
vn -0.8355888 -0.37233028 -0.40393248
vn -0.8355888 -0.37233028 -0.40393248
vn 0.368794 -0.38255882 -0.8471362
vn 0.368794 -0.38255882 -0.8471362
vn 0.368794 -0.38255882 -0.8471362
vn -0.23531774 -0.13579424 0.96238524
vn -0.23531774 -0.13579424 0.96238524
vn -0.23531774 -0.13579424 0.96238524
vn -0.89968306 -0.4363561 -0.012797938
vn -0.89968306 -0.4363561 -0.012797938
vn -0.89968306 -0.4363561 -0.012797938
vn -0.2681768 -0.062474594 -0.9613418
vn -0.2681768 -0.062474594 -0.9613418
vn -0.2681768 -0.062474594 -0.9613418
vn 0.85574245 -0.22653726 -0.46517274
vn 0.85574245 -0.22653726 -0.46517274
vn 0.85574245 -0.22653726 -0.46517274
vn 0.021478225 0.9952726 0.094716914
vn 0.021478225 0.9952726 0.094716914
vn 0.021478225 0.9952726 0.094716914
vn -0.12037452 0.992728 -0.0011190447
vn -0.12037452 0.992728 -0.0011190447
vn -0.12037452 0.992728 -0.0011190447
vn 0.052900698 0.9985753 -0.006988978
vn 0.052900698 0.9985753 -0.006988978
vn 0.052900698 0.9985753 -0.006988978
vn 0.06787053 0.99721634 -0.030871937
vn 0.06787053 0.99721634 -0.030871937
vn -0.11726386 0.9924389 0.036251172
vn -0.11726386 0.9924389 0.036251172
vn -0.11726386 0.9924389 0.036251172
vn -0.10710618 0.9853398 -0.13279177
vn -0.10710618 0.9853398 -0.13279177
vn -0.10710618 0.9853398 -0.13279177
vn -0.017957114 0.99980205 -0.008575162
vn -0.017957114 0.99980205 -0.008575162
vn -0.017957114 0.99980205 -0.008575162
vn 0.09794117 0.992134 -0.07795951
vn 0.09794117 0.992134 -0.07795951
vn 0.09794117 0.992134 -0.07795951
vn 0.09743713 0.98701954 0.12766527
vn 0.09743713 0.98701954 0.12766527
vn 0.09743713 0.98701954 0.12766527
vn -0.06298211 0.9942041 0.087129615
vn -0.06298211 0.9942041 0.087129615
vn -0.06298211 0.9942041 0.087129615
vn 0.06419744 0.9954294 0.07070368
vn 0.06419744 0.9954294 0.07070368
vn 0.06419744 0.9954294 0.07070368
vn -0.01793445 0.9985514 -0.050728183
vn -0.01793445 0.9985514 -0.050728183
vn -0.01793445 0.9985514 -0.050728183
vn 0.021570222 0.99951494 -0.022460613
vn 0.021570222 0.99951494 -0.022460613
vn 0.021570222 0.99951494 -0.022460613
vn -0.10806002 0.9941147 0.007682502
vn -0.10806002 0.9941147 0.007682502
vn -0.10806002 0.9941147 0.007682502
vn 0.19901983 0.93825495 -0.28296444
vn 0.19901983 0.93825495 -0.28296444
vn 0.19901983 0.93825495 -0.28296444
vn 0.044525396 0.99859005 -0.028901918
vn 0.044525396 0.99859005 -0.028901918
vn 0.044525396 0.99859005 -0.028901918
vn 0.25189492 0.96775234 -0.0020680048
vn 0.25189492 0.96775234 -0.0020680048
vn 0.25189492 0.96775234 -0.0020680048
vn -0.10369567 0.9737457 0.20264879
vn -0.10369567 0.9737457 0.20264879
vn -0.10369567 0.9737457 0.20264879
vn -0.37072346 0.8894575 -0.26726317
vn -0.37072346 0.8894575 -0.26726317
vn -0.37072346 0.8894575 -0.26726317
vn -0.31737915 0.76148504 -0.5651647
vn -0.31737915 0.76148504 -0.5651647
vn -0.31737915 0.76148504 -0.5651647
vn -0.9251571 0.19946915 -0.3229495
vn -0.9251571 0.19946915 -0.3229495
vn -0.9251571 0.19946915 -0.3229495
vn 0.00014612143 0.99797493 0.06360768
vn 0.00014612143 0.99797493 0.06360768
vn 0.00014612143 0.99797493 0.06360768
vn -0.4524687 0.6534796 0.60682505
vn -0.4524687 0.6534796 0.60682505
vn -0.4524687 0.6534796 0.60682505
vn -0.36743143 0.5306702 0.7637953
vn -0.36743143 0.5306702 0.7637953
vn -0.36743143 0.5306702 0.7637953
vn 0.06870368 0.99762076 0.0057098838
vn 0.06870368 0.99762076 0.0057098838
vn 0.06870368 0.99762076 0.0057098838
vn -0.3507333 0.9136333 -0.20557344
vn -0.3507333 0.9136333 -0.20557344
vn -0.3507333 0.9136333 -0.20557344
vn -0.02185515 0.99544936 -0.09275207
vn -0.02185515 0.99544936 -0.09275207
vn -0.02185515 0.99544936 -0.09275207
vn 0.11033202 0.985463 0.12918833
vn 0.11033202 0.985463 0.12918833
vn 0.11033202 0.985463 0.12918833
vn 0.27539387 0.7840328 -0.55628294
vn 0.27539387 0.7840328 -0.55628294
vn 0.27539387 0.7840328 -0.55628294
vn -0.68042666 -0.48268765 -0.5513912
vn -0.68042666 -0.48268765 -0.5513912
vn -0.68042666 -0.48268765 -0.5513912
vn -0.6872626 -0.62022895 -0.3781349
vn -0.6872626 -0.62022895 -0.3781349
vn -0.6872626 -0.62022895 -0.3781349
vn -0.38751954 0.7006168 0.59913677
vn -0.38751954 0.7006168 0.59913677
vn -0.38751954 0.7006168 0.59913677
vn -0.7390441 -0.4045919 0.53862715
vn -0.7390441 -0.4045919 0.53862715
vn -0.7390441 -0.4045919 0.53862715
vn -0.6059759 -0.49197063 0.62510645
vn -0.6059759 -0.49197063 0.62510645
vn -0.6059759 -0.49197063 0.62510645
vn -0.37338468 0.58298856 -0.7216012
vn -0.37338468 0.58298856 -0.7216012
vn -0.37338468 0.58298856 -0.7216012
vn 0.41510618 -0.1632473 0.89500684
vn 0.41510618 -0.1632473 0.89500684
vn 0.41510618 -0.1632473 0.89500684
vn 0.8525487 0.5214589 -0.035230894
vn 0.8525487 0.5214589 -0.035230894
vn 0.8525487 0.5214589 -0.035230894
vn 0.54736024 -0.8321836 0.088697046
vn 0.54736024 -0.8321836 0.088697046
vn 0.54736024 -0.8321836 0.088697046
vn 0.8295061 -0.47154123 0.29928002
vn 0.8295061 -0.47154123 0.29928002
vn 0.8295061 -0.47154123 0.29928002
vn 0.19780688 -0.6900451 -0.69621134
vn 0.19780688 -0.6900451 -0.69621134
vn 0.19780688 -0.6900451 -0.69621134
vn 0.2769884 -0.6349677 -0.7211751
vn 0.2769884 -0.6349677 -0.7211751
vn 0.2769884 -0.6349677 -0.7211751
vn 0.3962469 -0.6560704 -0.64230835
vn 0.3962469 -0.6560704 -0.64230835
vn 0.3962469 -0.6560704 -0.64230835
vn -0.7325271 -0.6669454 -0.13633707
vn -0.7325271 -0.6669454 -0.13633707
vn -0.7325271 -0.6669454 -0.13633707
vn -0.57551634 -0.5239936 -0.6278628
vn -0.57551634 -0.5239936 -0.6278628
vn -0.57551634 -0.5239936 -0.6278628
vn -0.9262408 -0.18532142 -0.32822844
vn -0.9262408 -0.18532142 -0.32822844
vn -0.9262408 -0.18532142 -0.32822844
vn -0.9541704 -0.19090953 0.23046121
vn -0.9541704 -0.19090953 0.23046121
vn -0.9541704 -0.19090953 0.23046121
vn -0.38360488 -0.6204537 0.6840209
vn -0.38360488 -0.6204537 0.6840209
vn -0.38360488 -0.6204537 0.6840209
vn -0.5016007 -0.81130034 0.30031398
vn -0.5016007 -0.81130034 0.30031398
vn -0.5016007 -0.81130034 0.30031398
vn 0.96009487 -0.27554545 0.047880124
vn 0.96009487 -0.27554545 0.047880124
vn 0.96009487 -0.27554545 0.047880124
vn 0.88118184 -0.3540954 0.31326523
vn 0.88118184 -0.3540954 0.31326523
vn 0.88118184 -0.3540954 0.31326523
vn 0.49243227 -0.8471986 0.19941185
vn 0.49243227 -0.8471986 0.19941185
vn 0.49243227 -0.8471986 0.19941185
vn -0.16762803 -0.91368186 0.37025172
vn -0.16762803 -0.91368186 0.37025172
vn -0.16762803 -0.91368186 0.37025172
vn 0.007353789 -0.97088754 0.2394229
vn 0.007353789 -0.97088754 0.2394229
vn 0.007353789 -0.97088754 0.2394229
vn 0.7863271 -0.45732716 0.41538104
vn 0.7863271 -0.45732716 0.41538104
vn 0.7863271 -0.45732716 0.41538104
vn 0.70902 -0.3050567 0.6357917
vn 0.70902 -0.3050567 0.6357917
vn 0.70902 -0.3050567 0.6357917
vn 0.72967476 -0.2869509 0.6206721
vn -0.052442644 0.99827826 -0.026273457
vn -0.052442644 0.99827826 -0.026273457
vn -0.052442644 0.99827826 -0.026273457
vn -0.060584944 0.99695045 -0.04918627
vn -0.0071292515 0.99773633 -0.066867806
vn -0.0071292515 0.99773633 -0.066867806
vn -0.0071292515 0.99773633 -0.066867806
vn 0.02443072 0.997721 -0.062896065
vn 0.0005738245 0.9983132 -0.05805583
vn 0.0005738245 0.9983132 -0.05805583
vn 0.0005738245 0.9983132 -0.05805583
vn -0.009125545 0.9995074 -0.030029332
vn -0.84311116 0.31825173 -0.43345064
vn -0.84311116 0.31825173 -0.43345064
vn -0.84311116 0.31825173 -0.43345064
vn -0.8387235 0.29930004 -0.4549311
vn 0.2509208 -0.26028943 -0.9323563
vn 0.2509208 -0.26028943 -0.9323563
vn 0.2509208 -0.26028943 -0.9323563
vn 0.22388834 -0.2666917 -0.93741643
g Icosphere.200_0
f 3/3/3 2/2/2 1/1/1
f 6/6/6 5/5/5 4/4/4
f 9/9/9 8/8/8 7/7/7
f 12/12/12 11/11/11 10/10/10
f 15/15/15 14/14/14 13/13/13
f 18/18/18 17/17/17 16/16/16
f 21/21/21 20/20/20 19/19/19
f 24/24/24 23/23/23 22/22/22
f 27/27/27 26/26/26 25/25/25
f 30/30/30 29/29/29 28/28/28
f 33/33/33 32/32/32 31/31/31
f 36/36/36 35/35/35 34/34/34
f 39/39/39 38/38/38 37/37/37
f 42/42/42 41/41/41 40/40/40
f 45/45/45 44/44/44 43/43/43
f 48/48/48 47/47/47 46/46/46
f 51/51/51 50/50/50 49/49/49
f 49/49/49 53/53/53 52/52/52
f 56/56/56 55/55/55 54/54/54
f 59/59/59 58/58/58 57/57/57
f 62/62/62 61/61/61 60/60/60
f 65/65/65 64/64/64 63/63/63
f 68/68/68 67/67/67 66/66/66
f 71/71/71 70/70/70 69/69/69
f 74/74/74 73/73/73 72/72/72
f 77/77/77 76/76/76 75/75/75
f 80/80/80 79/79/79 78/78/78
f 83/83/83 82/82/82 81/81/81
f 86/86/86 85/85/85 84/84/84
f 89/89/89 88/88/88 87/87/87
f 92/92/92 91/91/91 90/90/90
f 95/95/95 94/94/94 93/93/93
f 98/98/98 97/97/97 96/96/96
f 101/101/101 100/100/100 99/99/99
f 104/104/104 103/103/103 102/102/102
f 107/107/107 106/106/106 105/105/105
f 110/110/110 109/109/109 108/108/108
f 113/113/113 112/112/112 111/111/111
f 116/116/116 115/115/115 114/114/114
f 119/119/119 118/118/118 117/117/117
f 122/122/122 121/121/121 120/120/120
f 125/125/125 124/124/124 123/123/123
f 128/128/128 127/127/127 126/126/126
f 131/131/131 130/130/130 129/129/129
f 134/134/134 133/133/133 132/132/132
f 137/137/137 136/136/136 135/135/135
f 140/140/140 139/139/139 138/138/138
f 143/143/143 142/142/142 141/141/141
f 146/146/146 145/145/145 144/144/144
f 149/149/149 148/148/148 147/147/147
f 152/152/152 151/151/151 150/150/150
f 155/155/155 154/154/154 153/153/153
f 158/158/158 157/157/157 156/156/156
f 161/161/161 160/160/160 159/159/159
f 164/164/164 163/163/163 162/162/162
f 167/167/167 166/166/166 165/165/165
f 170/170/170 169/169/169 168/168/168
f 173/173/173 172/172/172 171/171/171
f 176/176/176 175/175/175 174/174/174
f 179/179/179 178/178/178 177/177/177
f 182/182/182 181/181/181 180/180/180
f 185/185/185 184/184/184 183/183/183
f 188/188/188 187/187/187 186/186/186
f 191/191/191 190/190/190 189/189/189
f 194/194/194 193/193/193 192/192/192
f 197/197/197 196/196/196 195/195/195
f 200/200/200 199/199/199 198/198/198
f 203/203/203 202/202/202 201/201/201
f 206/206/206 205/205/205 204/204/204
f 204/204/204 205/205/205 207/207/207
f 210/210/210 209/209/209 208/208/208
f 211/211/211 210/210/210 208/208/208
f 214/214/214 213/213/213 212/212/212
f 215/215/215 214/214/214 212/212/212
f 218/218/218 217/217/217 216/216/216
f 219/219/219 218/218/218 216/216/216
f 222/222/222 221/221/221 220/220/220
f 220/220/220 221/221/221 223/223/223
f 226/226/226 225/225/225 224/224/224
f 227/227/227 225/225/225 226/226/226
