g LunarWispTracerLead_Mesh
v 0.14943314 0 -0.08329397
v 0.14934206 0.0038591116 -0.080901705
v 0.004200766 0.0038591116 -0.019999992
v -0 0 -0.020591395
v -0 0 -0.020591395
v 0.004200766 0.0038591116 -0.019999992
v 0.0042007444 0.0038591116 0.019999988
v -0 0 0.02059139
v -0 0 0.02059139
v 0.0042007444 0.0038591116 0.019999988
v 0.14934206 0.0038591116 0.080901705
v 0.14943314 0 0.08329397
v 0.14943314 0 0.08329397
v 0.14934206 0.0038591116 0.080901705
v 0.2883229 0.0038591116 2.7318796E-09
v 0.29252368 0 3.0683576E-09
v 0.29252368 0 3.0683576E-09
v 0.2883229 0.0038591116 2.7318796E-09
v 0.14934206 0.0038591116 -0.080901705
v 0.14943314 0 -0.08329397
v 0.14934206 0.0038591116 0.080901705
v 0.0042007444 0.0038591116 0.019999988
v 0.01801922 0.0038591085 0.009022532
v 0.14934164 0.0038591085 0.06263296
v 0.2883229 0.0038591116 2.7318796E-09
v 0.2556731 0.0038591085 0.00020914152
v 0.14934206 0.0038591116 -0.080901705
v 0.1493425 0.0038591085 -0.061180525
v 0.004200766 0.0038591116 -0.019999992
v 0.01801922 0.0038591085 -0.010014806
v 0.0042007444 0.0038591116 0.019999988
v 0.01801922 0.0038591085 0.009022532
v 0.01801922 0.0038591085 -0.010014806
v 0.1493425 0.0038591085 -0.061180525
v 0.2556731 0.0038591085 0.00020914152
v 0.01801922 0.0038591085 0.009022532
v 0.14934164 0.0038591085 0.06263296
v 0.14943314 0 -0.08329397
v -0 0 -0.020591395
v 0.004200766 -0.0038591109 -0.019999992
v 0.14934206 -0.0038591109 -0.080901705
v -0 0 -0.020591395
v -0 0 0.02059139
v 0.0042007444 -0.0038591109 0.019999988
v 0.004200766 -0.0038591109 -0.019999992
v -0 0 0.02059139
v 0.14943314 0 0.08329397
v 0.14934206 -0.0038591109 0.080901705
v 0.0042007444 -0.0038591109 0.019999988
v 0.14943314 0 0.08329397
v 0.29252368 0 3.0683576E-09
v 0.2883229 -0.0038591109 2.7318796E-09
v 0.14934206 -0.0038591109 0.080901705
v 0.29252368 0 3.0683576E-09
v 0.14943314 0 -0.08329397
v 0.14934206 -0.0038591109 -0.080901705
v 0.2883229 -0.0038591109 2.7318796E-09
v 0.14934206 -0.0038591109 0.080901705
v 0.01801922 -0.0038591085 0.009022532
v 0.0042007444 -0.0038591109 0.019999988
v 0.14934164 -0.0038591085 0.06263296
v 0.2883229 -0.0038591109 2.7318796E-09
v 0.2556731 -0.0038591085 0.00020914152
v 0.14934206 -0.0038591109 -0.080901705
v 0.1493425 -0.0038591085 -0.061180525
v 0.004200766 -0.0038591109 -0.019999992
v 0.01801922 -0.0038591085 -0.010014806
v 0.0042007444 -0.0038591109 0.019999988
v 0.01801922 -0.0038591085 0.009022532
v 0.2556731 -0.0038591085 0.00020914152
v 0.1493425 -0.0038591085 -0.061180525
v 0.01801922 -0.0038591085 -0.010014806
v 0.01801922 -0.0038591085 0.009022532
v 0.14934164 -0.0038591085 0.06263296
vt 0.6924143 0.044048443
vt 0.6924066 0.0741442
vt 0.9088724 0.07414393
vt 0.90887153 0.044037923
vt 0.9088667 0.04405354
vt 0.9088724 0.07414393
vt 0.9913249 0.0741428
vt 0.9913713 0.04405357
vt 0.008583963 0.044037893
vt 0.008583695 0.07414402
vt 0.2208986 0.0741442
vt 0.22089627 0.044037953
vt 0.22089556 0.044037893
vt 0.2208986 0.0741442
vt 0.4545308 0.0741442
vt 0.4545308 0.044037834
vt 0.4545308 0.044027343
vt 0.4545308 0.0741442
vt 0.6924066 0.0741442
vt 0.6923771 0.044039503
vt 0.2208986 0.0741442
vt 0.008583695 0.07414402
vt 0.008584201 0.19999975
vt 0.22089627 0.19999975
vt 0.4545308 0.0741442
vt 0.4545308 0.19999975
vt 0.6924066 0.0741442
vt 0.6923771 0.19999975
vt 0.9088724 0.07414393
vt 0.90887153 0.20000023
vt 0.9913249 0.0741428
vt 0.99133253 0.20000023
vt 0.439811 0.29841107
vt 0.11155319 0.67204
vt 0.5054036 0.97456205
vt 0.5619464 0.29841107
vt 0.90588844 0.67203736
vt 0.6924143 0.044048443
vt 0.90887153 0.044037923
vt 0.90887153 0.008251242
vt 0.6923958 0.008251242
vt 0.9088667 0.04405354
vt 0.9913713 0.04405357
vt 0.99141634 0.008251332
vt 0.90886104 0.008251332
vt 0.008583963 0.044037893
vt 0.22089627 0.044037953
vt 0.22089627 0.008251242
vt 0.008584768 0.008251242
vt 0.22089556 0.044037893
vt 0.4545308 0.044037834
vt 0.4545308 0.008251242
vt 0.22089112 0.008251242
vt 0.4545308 0.044027343
vt 0.6923771 0.044039503
vt 0.6923771 0.008251242
vt 0.45453057 0.008251242
vt 0.22089627 0.0741442
vt 0.008584201 0.19999975
vt 0.008584201 0.07414402
vt 0.22089627 0.19999975
vt 0.4545308 0.0741442
vt 0.4545308 0.19999975
vt 0.6923771 0.0741442
vt 0.6923771 0.19999975
vt 0.90887153 0.074143544
vt 0.90887153 0.20000023
vt 0.9913324 0.07414304
vt 0.99133253 0.20000023
vt 0.5054036 0.97456205
vt 0.11155319 0.67204
vt 0.439811 0.29841107
vt 0.5619464 0.29841107
vt 0.90588844 0.67203736
vn -0.33723292 0.49025267 -0.8036954
vn -0.33723295 0.49025264 -0.80369544
vn -0.33723292 0.49025267 -0.8036954
vn -0.33723295 0.49025264 -0.80369544
vn -0.6765262 0.73641855 -1.7697678E-07
vn -0.67652625 0.7364185 -1.769768E-07
vn -0.67652625 0.7364185 -1.7697677E-07
vn -0.6765263 0.7364184 -1.7697676E-07
vn -0.337233 0.49025217 0.8036957
vn -0.337233 0.49025217 0.8036957
vn -0.33723298 0.49025223 0.8036957
vn -0.337233 0.49025217 0.8036957
vn 0.44125032 0.48031193 0.75802284
vn 0.44125026 0.48031193 0.75802284
vn 0.4412503 0.4803119 0.7580229
vn 0.4412503 0.4803119 0.7580229
vn 0.44125035 0.48031178 -0.7580229
vn 0.44125038 0.48031178 -0.75802296
vn 0.44125035 0.48031178 -0.7580229
vn 0.44125035 0.48031178 -0.75802296
vn -0 1 -1.5269184E-07
vn -0 1 -1.3815357E-07
vn -0 1 0
vn -0 1 0
vn -0 1 0
vn -0 1 0
vn -0 1 1.4874512E-07
vn -0 1 0
vn -0 1 1.3545701E-07
vn -0 1 0
vn -0 1 -1.3815357E-07
vn -0 1 0
vn -0 1 0
vn -0 1 0
vn -0 1 0
vn -0 1 0
vn -0 1 0
vn -0.3372329 -0.49025276 -0.8036954
vn -0.3372329 -0.49025276 -0.8036954
vn -0.3372329 -0.4902528 -0.80369526
vn -0.33723295 -0.49025276 -0.8036954
vn -0.6765262 -0.73641866 -1.769768E-07
vn -0.6765262 -0.73641866 -1.769768E-07
vn -0.67652625 -0.7364185 -1.7697677E-07
vn -0.67652625 -0.7364185 -1.7697677E-07
vn -0.33723295 -0.49025235 0.80369556
vn -0.33723298 -0.49025238 0.80369556
vn -0.33723298 -0.49025235 0.80369556
vn -0.33723295 -0.49025235 0.80369556
vn 0.44125032 -0.48031187 0.75802284
vn 0.4412503 -0.4803119 0.7580229
vn 0.44125026 -0.48031187 0.7580229
vn 0.4412503 -0.4803119 0.7580229
vn 0.44125032 -0.48031187 -0.75802284
vn 0.44125032 -0.48031187 -0.75802284
vn 0.4412503 -0.4803119 -0.7580229
vn 0.4412503 -0.4803119 -0.7580229
vn -0 -1 -1.4062066E-07
vn -0 -1 0
vn -0 -1 -1.2261187E-07
vn -0 -1 0
vn -0 -1 0
vn -0 -1 0
vn -0 -1 1.3856152E-07
vn -0 -1 0
vn -0 -1 1.2059847E-07
vn -0 -1 0
vn -0 -1 -1.2261187E-07
vn -0 -1 0
vn -0 -1 0
vn -0 -1 0
vn -0 -1 0
vn -0 -1 0
vn -0 -1 0
g LunarWispTracerLead_Mesh_0
f 3/3/3 2/2/2 1/1/1
f 4/4/4 3/3/3 1/1/1
f 7/7/7 6/6/6 5/5/5
f 8/8/8 7/7/7 5/5/5
f 11/11/11 10/10/10 9/9/9
f 12/12/12 11/11/11 9/9/9
f 15/15/15 14/14/14 13/13/13
f 16/16/16 15/15/15 13/13/13
f 19/19/19 18/18/18 17/17/17
f 20/20/20 19/19/19 17/17/17
f 23/23/23 22/22/22 21/21/21
f 24/24/24 23/23/23 21/21/21
f 24/24/24 21/21/21 25/25/25
f 26/26/26 24/24/24 25/25/25
f 26/26/26 25/25/25 27/27/27
f 28/28/28 26/26/26 27/27/27
f 28/28/28 27/27/27 29/29/29
f 30/30/30 28/28/28 29/29/29
f 30/30/30 29/29/29 31/31/31
f 32/32/32 30/30/30 31/31/31
f 35/35/35 34/34/34 33/33/33
f 33/33/33 36/36/36 35/35/35
f 36/36/36 37/37/37 35/35/35
f 40/40/40 39/39/39 38/38/38
f 41/41/41 40/40/40 38/38/38
f 44/44/44 43/43/43 42/42/42
f 45/45/45 44/44/44 42/42/42
f 48/48/48 47/47/47 46/46/46
f 49/49/49 48/48/48 46/46/46
f 52/52/52 51/51/51 50/50/50
f 53/53/53 52/52/52 50/50/50
f 56/56/56 55/55/55 54/54/54
f 57/57/57 56/56/56 54/54/54
f 60/60/60 59/59/59 58/58/58
f 59/59/59 61/61/61 58/58/58
f 58/58/58 61/61/61 62/62/62
f 61/61/61 63/63/63 62/62/62
f 62/62/62 63/63/63 64/64/64
f 63/63/63 65/65/65 64/64/64
f 64/64/64 65/65/65 66/66/66
f 65/65/65 67/67/67 66/66/66
f 66/66/66 67/67/67 68/68/68
f 67/67/67 69/69/69 68/68/68
f 72/72/72 71/71/71 70/70/70
f 70/70/70 73/73/73 72/72/72
f 70/70/70 74/74/74 73/73/73
