g mdl2DPlanetRing
v -0.48677242 -0.9145993 0
v -0.18067226 -0.7724815 0
v -0.30092603 -0.95468384 0
v -0.027622215 -0.90002316 0
v -0.5596535 -0.81985414 0
v -0.63253444 -0.819854 0
v -0.6361785 -0.76519316 0
v -0.78194046 -0.69960046 0
v 0.1181398 -0.6267195 0
v -0.7054155 -0.521042 0
v 0.19102062 -0.8052779 0
v 0.3440709 -0.68502426 0
v 0.5116974 -0.5356182 0
v 0.53356147 -0.16392529 0
v 0.76313674 -0.18943352 0
v -0.86575365 -0.517398 0
v 0.69025576 0.15675107 0
v 0.89796627 0.12759876 0
v 0.9198306 0.43734288 0
v 0.7485604 0.46649516 0
v 0.7558484 0.575817 0
v 0.8469498 0.65234196 0
v 0.73034036 0.805392 0
v 0.65745914 0.8309003 0
v 0.658117 0.7968893 0
v 0.60644233 0.8418325 0
v -0.86575365 -0.28417885 0
v 0.62101877 0.8709849 0
v -0.74740624 -0.17414899 0
v -0.81109285 -0.029095411 0
v -0.6361785 -0.14570504 0
v -0.7347534 -0.08557844 0
v -0.6946856 -0.03496653 0
v -0.69812745 0.2041238 0
v 0.48836485 0.89713395 0
v 0.4133078 0.96208596 0
v 0.32585075 0.8345442 0
v 0.2331972 0.9076781 0
v 0.21421774 0.86971915 0
v 0.1472919 0.94022185 0
v 0.15822431 0.7798834 0
v 0.053946897 0.8444133 0
v -0.011426687 0.76427794 0
v -0.067706764 0.8564086 0
v -0.2054384 0.6440749 0
v -0.25355327 0.7288669 0
v -0.07863891 0.60496914 0
v -0.30877098 0.5407425 0
v -0.20122077 0.6272043 0
v -0.49770463 0.49929172 0
v -0.39944988 0.44795448 0
v -0.40295938 0.2733606 0
v -0.5091089 0.3235338 0
v -0.48802048 0.31088087 0
v -0.59135306 0.16748077 0
vt 0.2566138 0.04270035
vt 0.40966374 0.11375921
vt 0.349537 0.02265808
vt 0.4861889 0.04998842
vt 0.22017328 0.090072945
vt 0.18373278 0.09007299
vt 0.18191075 0.11740341
vt 0.10902978 0.15019977
vt 0.55906993 0.18664026
vt 0.14729224 0.23947896
vt 0.5955103 0.097361065
vt 0.67203546 0.15748788
vt 0.7558487 0.23219092
vt 0.7667808 0.4180374
vt 0.8815684 0.40528327
vt 0.06712318 0.241301
vt 0.84512794 0.5783756
vt 0.94898313 0.5637994
vt 0.9599153 0.7186714
vt 0.8742804 0.7332476
vt 0.8779241 0.7879084
vt 0.92347485 0.8261709
vt 0.86517024 0.9026961
vt 0.82872957 0.91545016
vt 0.8290584 0.89844465
vt 0.80322117 0.9209162
vt 0.06712317 0.35791057
vt 0.8105094 0.93549246
vt 0.12629688 0.41292548
vt 0.09445357 0.48545226
vt 0.18191074 0.42714748
vt 0.1326233 0.45721078
vt 0.15265721 0.48251674
vt 0.15093629 0.6020619
vt 0.74418247 0.9485669
vt 0.7066539 0.981043
vt 0.6629254 0.9172721
vt 0.6165986 0.95383906
vt 0.6071089 0.9348596
vt 0.57364595 0.97011095
vt 0.5791122 0.8899417
vt 0.52697355 0.9222068
vt 0.4942867 0.88213915
vt 0.46614662 0.9282043
vt 0.39728078 0.8220375
vt 0.37322336 0.8644334
vt 0.46068057 0.80248463
vt 0.34561458 0.77037144
vt 0.39938965 0.81360215
vt 0.2511477 0.7496459
vt 0.30027518 0.7239774
vt 0.29852033 0.6366803
vt 0.2454456 0.661767
vt 0.25598973 0.6554405
vt 0.20432346 0.58374035
vn -0 0 1
vn -0 0 1
vn -0 0 1
vn -0 0 1
vn -0 0 1
vn -0 0 1
vn -0 0 1
vn -0 0 1
vn -0 0 1
vn -0 0 1
vn -0 0 1
vn -0 0 1
vn -0 0 1
vn -0 0 1
vn -0 0 1
vn -0 0 1
vn -0 0 1
vn -0 0 1
vn -0 0 1
vn -0 0 1
vn -0 0 1
vn -0 0 1
vn -0 0 1
vn -0 0 1
vn -0 0 1
vn -0 0 1
vn -0 0 1
vn -0 0 1
vn -0 0 1
vn -0 0 1
vn -0 0 1
vn -0 0 1
vn -0 0 1
vn -0 0 1
vn -0 0 1
vn -0 0 1
vn -0 0 1
vn -0 0 1
vn -0 0 1
vn -0 0 1
vn -0 0 1
vn -0 0 1
vn -0 0 1
vn -0 0 1
vn -0 0 1
vn -0 0 1
vn -0 0 1
vn -0 0 1
vn -0 0 1
vn -0 0 1
vn -0 0 1
vn -0 0 1
vn -0 0 1
vn -0 0 1
vn -0 0 1
g mdl2DPlanetRing_0
f 3/3/3 2/2/2 1/1/1
f 4/4/4 2/2/2 3/3/3
f 5/5/5 1/1/1 2/2/2
f 1/1/1 5/5/5 6/6/6
f 7/7/7 6/6/6 5/5/5
f 6/6/6 7/7/7 8/8/8
f 4/4/4 9/9/9 2/2/2
f 10/10/10 8/8/8 7/7/7
f 11/11/11 9/9/9 4/4/4
f 12/12/12 9/9/9 11/11/11
f 13/13/13 9/9/9 12/12/12
f 14/14/14 9/9/9 13/13/13
f 15/15/15 14/14/14 13/13/13
f 16/16/16 8/8/8 10/10/10
f 15/15/15 17/17/17 14/14/14
f 18/18/18 17/17/17 15/15/15
f 19/19/19 17/17/17 18/18/18
f 20/20/20 17/17/17 19/19/19
f 21/21/21 20/20/20 19/19/19
f 22/22/22 21/21/21 19/19/19
f 22/22/22 23/23/23 21/21/21
f 23/23/23 24/24/24 21/21/21
f 21/21/21 24/24/24 25/25/25
f 25/25/25 24/24/24 26/26/26
f 16/16/16 10/10/10 27/27/27
f 24/24/24 28/28/28 26/26/26
f 27/27/27 10/10/10 29/29/29
f 30/30/30 27/27/27 29/29/29
f 31/31/31 29/29/29 10/10/10
f 29/29/29 32/32/32 30/30/30
f 33/33/33 30/30/30 32/32/32
f 33/33/33 29/29/29 31/31/31
f 30/30/30 33/33/33 34/34/34
f 35/35/35 26/26/26 28/28/28
f 28/28/28 36/36/36 35/35/35
f 26/26/26 35/35/35 37/37/37
f 35/35/35 36/36/36 38/38/38
f 39/39/39 37/37/37 35/35/35
f 36/36/36 40/40/40 38/38/38
f 37/37/37 39/39/39 41/41/41
f 38/38/38 40/40/40 42/42/42
f 43/43/43 41/41/41 39/39/39
f 44/44/44 42/42/42 40/40/40
f 45/45/45 42/42/42 44/44/44
f 46/46/46 45/45/45 44/44/44
f 41/41/41 43/43/43 47/47/47
f 48/48/48 45/45/45 46/46/46
f 49/49/49 47/47/47 43/43/43
f 48/48/48 47/47/47 49/49/49
f 50/50/50 48/48/48 46/46/46
f 47/47/47 48/48/48 51/51/51
f 50/50/50 51/51/51 48/48/48
f 47/47/47 51/51/51 52/52/52
f 53/53/53 51/51/51 50/50/50
f 51/51/51 54/54/54 52/52/52
f 34/34/34 53/53/53 50/50/50
f 54/54/54 55/55/55 52/52/52
f 55/55/55 53/53/53 34/34/34
f 52/52/52 55/55/55 31/31/31
f 34/34/34 33/33/33 55/55/55
f 31/31/31 55/55/55 33/33/33
