g mdl_Plant_Ash1
v -0.16870616 -0.29220852 -0.0540078
v 4.365704E-07 -0.33741337 -0.0540078
v 4.904966E-07 -1.6391277E-07 -0.063856065
v -0.29220793 -0.16870673 -0.0540078
v 0.16870704 -0.29220855 -0.0540078
v -0.3374128 -1.223954E-07 -0.0540078
v 0.29220888 -0.16870682 -0.0540078
v -0.292208 0.16870649 -0.0540078
v 0.33741373 -2.645141E-07 -0.0540078
v -0.1687061 0.29220834 -0.0540078
v 0.29220903 0.16870633 -0.0540078
v 4.875184E-07 0.33741313 -0.0540078
v 0.16870733 0.2922082 -0.0540078
v 0.30654344 0.1769823 -0.039310668
v 0.16870733 0.2922082 -0.0540078
v 0.29220903 0.16870633 -0.0540078
v 0.17698331 0.3065426 -0.039310668
v 4.875184E-07 0.33741313 -0.0540078
v 0.35396567 -2.696441E-07 -0.039310668
v 0.33741373 -2.645141E-07 -0.0540078
v 4.8804236E-07 0.35396507 -0.039310668
v -0.1687061 0.29220834 -0.0540078
v 0.3065433 -0.17698279 -0.039310668
v 0.29220888 -0.16870682 -0.0540078
v -0.17698207 0.30654275 -0.039310668
v -0.292208 0.16870649 -0.0540078
v 0.17698301 -0.30654296 -0.039310668
v 0.16870704 -0.29220855 -0.0540078
v -0.3065424 0.17698246 -0.039310668
v -0.3374128 -1.223954E-07 -0.0540078
v 4.3459508E-07 -0.3539653 -0.039310668
v 4.365704E-07 -0.33741337 -0.0540078
v -0.35396475 -1.2055368E-07 -0.039310668
v -0.29220793 -0.16870673 -0.0540078
v -0.17698213 -0.30654293 -0.039310668
v -0.16870616 -0.29220852 -0.0540078
v -0.30654234 -0.1769827 -0.039310668
v 0.17698301 -0.30654296 -0.029106531
v 4.3459508E-07 -0.3539653 -0.029106531
v -0.17698213 -0.30654293 -0.029106531
v -0.30654234 -0.1769827 -0.029106531
v -0.35396475 -1.2055368E-07 -0.029106531
v -0.3065424 0.17698246 -0.029106531
v 0.3065433 -0.17698279 -0.029106531
v -0.17698207 0.30654275 -0.029106531
v 0.35396567 -2.696441E-07 -0.029106531
v 4.8804236E-07 0.35396507 -0.029106531
v 0.30654344 0.1769823 -0.029106531
v 0.17698331 0.3065426 -0.029106531
v 0.1652327 -0.2861908 -0.008785045
v 0.28619114 -0.16523246 -0.008785045
v 0.33046502 -2.626903E-07 -0.008785045
v 0.28619128 0.16523199 -0.008785045
v 0.16523297 0.28619045 -0.008785045
v 4.872984E-07 0.33046442 -0.008785045
v 4.3739965E-07 -0.3304647 -0.008785045
v -0.16523176 0.2861906 -0.008785045
v -0.16523181 -0.28619078 -0.008785045
v -0.28619024 0.16523214 -0.008785045
v -0.28619018 -0.16523239 -0.008785045
v -0.3304641 -1.2349835E-07 -0.008785045
v 3.004418E-07 -0.28095922 0.008412699
v -0.14047922 -0.24331778 0.008412699
v -0.24331734 -0.14047967 0.008412699
v -0.28095877 -1.2970148E-07 0.008412699
v -0.24331738 0.1404794 0.008412699
v -0.14047918 0.2433176 0.008412699
v 0.14047983 -0.24331781 0.008412699
v 3.4286543E-07 0.28095895 0.008412699
v 0.243318 -0.14047973 0.008412699
v 0.14048006 0.24331748 0.008412699
v 0.2809594 -2.480417E-07 0.008412699
v 0.24331813 0.14047927 0.008412699
v 3.327405E-07 -0.22951446 0.0885818
v 0.11475749 -0.19876537 0.08858179
v 0.19876559 -0.11475735 0.08858179
v 0.22951469 -2.3281925E-07 0.08858179
v 0.19876568 0.11475691 0.08858179
v 0.11475768 0.19876504 0.08858179
v -0.11475682 -0.19876534 0.0885818
v 3.6739618E-07 0.22951421 0.0885818
v -0.19876486 -0.11475731 0.08858181
v -0.114756785 0.19876514 0.0885818
v -0.229514 -1.361476E-07 0.0885818
v -0.1987649 0.114757024 0.0885818
v 0.118664645 0.068510585 0.19203942
v 0.0685113 0.11866401 0.19203943
v 4.1150017E-07 0.13702147 0.19203947
v -0.06851038 0.11866407 0.19203947
v -0.118663795 0.06851065 0.1920395
v -0.13702121 -1.4473459E-07 0.19203953
v 0.137022 -2.024482E-07 0.19203943
v -0.118663765 -0.06851095 0.1920395
v 0.11866459 -0.06851097 0.19203942
v -0.068510406 -0.1186643 0.19203949
v 0.06851119 -0.118664324 0.19203946
v 3.908105E-07 -0.13702175 0.19203947
v -0.07247253 0.041841913 0.26109773
v -0.08368408 -1.4944472E-07 0.26109776
v -0.07247251 -0.04184222 0.26109773
v -0.04184201 -0.072472714 0.26109773
v 5.3067197E-08 -0.08368428 0.26109773
v 0.041842118 -0.07247273 0.26109773
v -0.041842 0.07247245 0.26109773
v 0.07247265 -0.041842233 0.26109773
v 6.570315E-08 0.083684 0.26109773
v 0.08368419 -1.8469255E-07 0.26109776
v 0.041842185 0.072472416 0.26109773
v 0.07247268 0.041841872 0.26109773
v 2.703856E-07 -0.040769245 0.3218163
v 0.020384818 -0.03530722 0.3218163
v 0.035307348 -0.02038471 0.32181627
v 0.040769372 -1.6881445E-07 0.32181627
v 0.035307363 0.020384375 0.32181627
v 0.020384852 0.035306916 0.3218163
v -0.020384276 -0.035307214 0.3218163
v 2.7654158E-07 0.040768955 0.3218163
v -0.035306796 -0.020384703 0.3218163
v -0.02038427 0.035306934 0.3218163
v -0.04076883 -1.5164247E-07 0.32181633
v -0.035306804 0.020384394 0.3218163
v 0.014587833 0.008422221 0.33581838
v 0.008422228 0.014587838 0.33581838
v -1.6556004E-07 0.016844615 0.33581838
v -0.008422547 0.014587846 0.33581838
v -1.6562021E-07 -1.5296973E-07 0.34040004
v 0.016844599 -1.5959834E-07 0.33581838
v -0.014588162 0.0084222285 0.33581835
v -0.016844932 -1.5250332E-07 0.33581838
v 0.014587827 -0.008422539 0.33581838
v -0.014588159 -0.008422535 0.33581835
v 0.008422214 -0.014588144 0.33581838
v -0.008422549 -0.01458814 0.33581838
v -1.6810353E-07 -0.016844915 0.33581838
vt 0.40095305 0.14052054
vt 0.5927949 0.1405206
vt 0.49687397 0.4985025
vt 0.23481297 0.23644146
vt 0.758935 0.23644161
vt 0.13889197 0.40258145
vt 0.8548559 0.40258157
vt 0.13889197 0.5944234
vt 0.8548559 0.59442353
vt 0.23481289 0.7605635
vt 0.758935 0.7605634
vt 0.40095276 0.85648453
vt 0.5927951 0.85648453
vt 0.8266597 0.16243014
vt 0.6224172 0.009739369
vt 0.84971094 0.13892594
vt 0.61431205 0.04156667
vt 0.3618849 0.011807233
vt 0.9490787 0.3740956
vt 0.98078537 0.36537024
vt 0.37076673 0.043308854
vt 0.13801128 0.14342049
vt 0.9490256 0.6181772
vt 0.98078537 0.62648886
vt 0.16135696 0.16619965
vt 0.010138363 0.3683809
vt 0.8270181 0.8291962
vt 0.8503294 0.8522526
vt 0.041642606 0.37652397
vt 0.010140479 0.62713355
vt 0.6160604 0.9507555
vt 0.62470293 0.9823457
vt 0.04157442 0.6185178
vt 0.13962683 0.8519509
vt 0.37284613 0.95048845
vt 0.36453718 0.9821308
vt 0.16261092 0.82873607
vt 0.8165591 0.818848
vt 0.6121844 0.93657887
vt 0.37657687 0.9362892
vt 0.17292663 0.8183191
vt 0.055683434 0.61465156
vt 0.05578533 0.3801814
vt 0.9347743 0.6144453
vt 0.17182997 0.17642853
vt 0.9348514 0.3780077
vt 0.37474376 0.057447195
vt 0.8163138 0.17296886
vt 0.6106671 0.05584389
vt 0.7870672 0.7896037
vt 0.8945567 0.60386634
vt 0.8946794 0.38901526
vt 0.7871088 0.20265207
vt 0.6003083 0.09612855
vt 0.38591167 0.09737262
vt 0.60128814 0.8965487
vt 0.20134333 0.20535213
vt 0.3871534 0.89622116
vt 0.09574926 0.39057583
vt 0.20207915 0.78894454
vt 0.095517695 0.6037658
vt 0.58474433 0.8335849
vt 0.40430474 0.8334958
vt 0.24823256 0.74325204
vt 0.15813872 0.58719647
vt 0.1574158 0.40695816
vt 0.24751659 0.2508561
vt 0.7411927 0.74330497
vt 0.40330225 0.16007975
vt 0.8315909 0.58670926
vt 0.5838672 0.15933952
vt 0.8314599 0.4057798
vt 0.740348 0.2496516
vt 0.55474794 0.7282021
vt 0.66240364 0.666965
vt 0.7250361 0.55997825
vt 0.72569966 0.43597376
vt 0.6642598 0.32846063
vt 0.55743545 0.2659174
vt 0.43102723 0.72736657
vt 0.43366918 0.2653331
vt 0.3243628 0.6647999
vt 0.32622465 0.32668918
vt 0.26313967 0.55723983
vt 0.26373804 0.4334392
vt 0.5761276 0.41932216
vt 0.5268083 0.38861987
vt 0.46845236 0.38678414
vt 0.41696894 0.41440463
vt 0.38618845 0.46410924
vt 0.3843993 0.5229012
vt 0.60391575 0.47049302
vt 0.4123432 0.57449263
vt 0.60231835 0.52904594
vt 0.46193612 0.605061
vt 0.5716445 0.5789168
vt 0.52023035 0.60671407
vt 0.44461402 0.48272052
vt 0.4445884 0.5087236
vt 0.45618302 0.5317428
vt 0.47810227 0.5460632
vt 0.50461787 0.54746234
vt 0.5284264 0.5353283
vt 0.45804608 0.4599023
vt 0.5430409 0.51274943
vt 0.48131385 0.44677126
vt 0.54438025 0.48549053
vt 0.5082543 0.44703645
vt 0.5318489 0.46089804
vt 0.49801695 0.5127934
vt 0.5054182 0.5086431
vt 0.50967807 0.5014485
vt 0.5097087 0.4933176
vt 0.5062142 0.48596996
vt 0.4992582 0.48129115
vt 0.48942253 0.51268226
vt 0.49081713 0.48076174
vt 0.48187244 0.5081943
vt 0.48322207 0.48455283
vt 0.4780386 0.5002997
vt 0.47853 0.4916755
vt 0.49856636 0.4926791
vt 0.49589068 0.49098417
vt 0.49272928 0.4908513
vt 0.48992687 0.49231592
vt 0.49406716 0.49682316
vt 0.5000514 0.49548328
vt 0.48823982 0.49498457
vt 0.48813844 0.49812657
vt 0.49990666 0.49865386
vt 0.48953307 0.5009529
vt 0.49821225 0.501336
vt 0.49221414 0.5026885
vt 0.4953997 0.50281835
vn -0.20786905 -0.3600398 -0.9094843
vn -0 -0.4157381 -0.9094843
vn -0 0 -1
vn -0.3600398 -0.20786905 -0.9094843
vn 0.20786905 -0.3600398 -0.9094843
vn -0.4157381 0 -0.9094843
vn 0.3600398 -0.20786905 -0.9094843
vn -0.3600398 0.20786905 -0.9094843
vn 0.4157381 0 -0.9094843
vn -0.20786905 0.3600398 -0.9094843
vn 0.3600398 0.20786905 -0.9094843
vn -0 0.4157381 -0.9094843
vn 0.20786905 0.3600398 -0.9094843
vn 0.79869646 0.4611198 -0.38659105
vn 0.20786905 0.3600398 -0.9094843
vn 0.3600398 0.20786905 -0.9094843
vn 0.4611198 0.79869646 -0.38659105
vn -0 0.4157381 -0.9094843
vn 0.922254 0 -0.38658434
vn 0.4157381 0 -0.9094843
vn -0 0.922254 -0.38658434
vn -0.20786905 0.3600398 -0.9094843
vn 0.79869646 -0.4611198 -0.38659105
vn 0.3600398 -0.20786905 -0.9094843
vn -0.4611198 0.79869646 -0.38659105
vn -0.3600398 0.20786905 -0.9094843
vn 0.4611198 -0.79869646 -0.38659105
vn 0.20786905 -0.3600398 -0.9094843
vn -0.79869646 0.4611198 -0.38659105
vn -0.4157381 0 -0.9094843
vn -0 -0.922254 -0.38658434
vn -0 -0.4157381 -0.9094843
vn -0.922254 0 -0.38658434
vn -0.3600398 -0.20786905 -0.9094843
vn -0.4611198 -0.79869646 -0.38659105
vn -0.20786905 -0.3600398 -0.9094843
vn -0.79869646 -0.4611198 -0.38659105
vn 0.45998463 -0.79673296 0.39195743
vn -0 -0.9199859 0.39195153
vn -0.45998463 -0.79673296 0.39195743
vn -0.79673296 -0.45998463 0.39195743
vn -0.9199859 0 0.39195153
vn -0.79673296 0.45998463 0.39195743
vn 0.79673296 -0.45998463 0.39195743
vn -0.45998463 0.79673296 0.39195743
vn 0.9199859 0 0.39195153
vn -0 0.9199859 0.39195153
vn 0.79673296 0.45998463 0.39195743
vn 0.45998463 0.79673296 0.39195743
vn 0.26139632 -0.45275125 0.8524602
vn 0.45275125 -0.26139632 0.8524602
vn 0.5227925 0 0.85246
vn 0.45275125 0.26139632 0.8524602
vn 0.26139632 0.45275125 0.8524602
vn -0 0.5227925 0.85246
vn -0 -0.5227925 0.85246
vn -0.26139632 0.45275125 0.8524602
vn -0.26139632 -0.45275125 0.8524602
vn -0.45275125 0.26139632 0.8524602
vn -0.45275125 -0.26139632 0.8524602
vn -0.5227925 0 0.85246
vn -0 -0.58310455 0.8123971
vn -0.29155353 -0.504977 0.81240064
vn -0.504977 -0.29155353 0.81240064
vn -0.58310455 0 0.8123971
vn -0.504977 0.29155353 0.81240064
vn -0.29155353 0.504977 0.81240064
vn 0.29155353 -0.504977 0.81240064
vn -0 0.58310455 0.8123971
vn 0.504977 -0.29155353 0.81240064
vn 0.29155353 0.504977 0.81240064
vn 0.58310455 0 0.8123971
vn 0.504977 0.29155353 0.81240064
vn -0 -0.800794 0.59893984
vn 0.40038118 -0.6935179 0.598939
vn 0.6935179 -0.40038118 0.598939
vn 0.800794 0 0.59893984
vn 0.6935179 0.40038118 0.598939
vn 0.40038118 0.6935179 0.598939
vn -0.40038118 -0.6935179 0.598939
vn -0 0.800794 0.59893984
vn -0.6935179 -0.40038118 0.598939
vn -0.40038118 0.6935179 0.598939
vn -0.800794 0 0.59893984
vn -0.6935179 0.40038118 0.598939
vn 0.6638264 0.383262 0.6422187
vn 0.383262 0.6638264 0.6422187
vn -0 0.76652247 0.64221746
vn -0.383262 0.6638264 0.6422187
vn -0.6638264 0.383262 0.6422187
vn -0.76652247 0 0.64221746
vn 0.76652247 0 0.64221746
vn -0.6638264 -0.383262 0.6422187
vn 0.6638264 -0.383262 0.6422187
vn -0.383262 -0.6638264 0.6422187
vn 0.383262 -0.6638264 0.6422187
vn -0 -0.76652247 0.64221746
vn -0.6953789 0.40147945 0.59603906
vn -0.8029567 0 0.59603745
vn -0.6953789 -0.40147945 0.59603906
vn -0.40147945 -0.6953789 0.59603906
vn -0 -0.8029567 0.59603745
vn 0.40147945 -0.6953789 0.59603906
vn -0.40147945 0.6953789 0.59603906
vn 0.6953789 -0.40147945 0.59603906
vn -0 0.8029567 0.59603745
vn 0.8029567 0 0.59603745
vn 0.40147945 0.6953789 0.59603906
vn 0.6953789 0.40147945 0.59603906
vn -0 -0.69431233 0.7196738
vn 0.34715664 -0.60129064 0.7196748
vn 0.60129064 -0.34715664 0.7196748
vn 0.69431233 0 0.7196738
vn 0.60129064 0.34715664 0.7196748
vn 0.34715664 0.60129064 0.7196748
vn -0.34715664 -0.60129064 0.7196748
vn -0 0.69431233 0.7196738
vn -0.60129064 -0.34715664 0.7196748
vn -0.34715664 0.60129064 0.7196748
vn -0.69431233 0 0.7196738
vn -0.60129064 0.34715664 0.7196748
vn 0.3511274 0.20271082 0.91412145
vn 0.20271082 0.3511274 0.91412145
vn -0 0.40545025 0.91411716
vn -0.20271082 0.3511274 0.91412145
vn -0 0 1
vn 0.40545025 0 0.91411716
vn -0.3511274 0.20271082 0.91412145
vn -0.40545025 0 0.91411716
vn 0.3511274 -0.20271082 0.91412145
vn -0.3511274 -0.20271082 0.91412145
vn 0.20271082 -0.3511274 0.91412145
vn -0.20271082 -0.3511274 0.91412145
vn -0 -0.40545025 0.91411716
g mdl_Plant_Ash1_0
f 3/3/3 2/2/2 1/1/1
f 3/3/3 1/1/1 4/4/4
f 3/3/3 5/5/5 2/2/2
f 3/3/3 4/4/4 6/6/6
f 3/3/3 7/7/7 5/5/5
f 3/3/3 6/6/6 8/8/8
f 3/3/3 9/9/9 7/7/7
f 3/3/3 8/8/8 10/10/10
f 3/3/3 11/11/11 9/9/9
f 3/3/3 10/10/10 12/12/12
f 3/3/3 13/13/13 11/11/11
f 3/3/3 12/12/12 13/13/13
f 16/16/16 15/15/15 14/14/14
f 15/15/15 17/17/17 14/14/14
f 15/15/15 18/18/18 17/17/17
f 16/16/16 14/14/14 19/19/19
f 20/20/20 16/16/16 19/19/19
f 18/18/18 21/21/21 17/17/17
f 18/18/18 22/22/22 21/21/21
f 20/20/20 19/19/19 23/23/23
f 24/24/24 20/20/20 23/23/23
f 22/22/22 25/25/25 21/21/21
f 22/22/22 26/26/26 25/25/25
f 24/24/24 23/23/23 27/27/27
f 28/28/28 24/24/24 27/27/27
f 26/26/26 29/29/29 25/25/25
f 26/26/26 30/30/30 29/29/29
f 28/28/28 27/27/27 31/31/31
f 32/32/32 28/28/28 31/31/31
f 30/30/30 33/33/33 29/29/29
f 30/30/30 34/34/34 33/33/33
f 32/32/32 31/31/31 35/35/35
f 36/36/36 32/32/32 35/35/35
f 34/34/34 36/36/36 37/37/37
f 34/34/34 37/37/37 33/33/33
f 36/36/36 35/35/35 37/37/37
f 27/27/27 23/23/23 38/38/38
f 31/31/31 27/27/27 39/39/39
f 27/27/27 38/38/38 39/39/39
f 35/35/35 31/31/31 40/40/40
f 31/31/31 39/39/39 40/40/40
f 37/37/37 35/35/35 41/41/41
f 35/35/35 40/40/40 41/41/41
f 33/33/33 37/37/37 42/42/42
f 37/37/37 41/41/41 42/42/42
f 29/29/29 33/33/33 43/43/43
f 33/33/33 42/42/42 43/43/43
f 23/23/23 44/44/44 38/38/38
f 23/23/23 19/19/19 44/44/44
f 29/29/29 43/43/43 45/45/45
f 25/25/25 29/29/29 45/45/45
f 19/19/19 46/46/46 44/44/44
f 19/19/19 14/14/14 46/46/46
f 25/25/25 45/45/45 47/47/47
f 21/21/21 25/25/25 47/47/47
f 14/14/14 48/48/48 46/46/46
f 14/14/14 17/17/17 48/48/48
f 17/17/17 21/21/21 49/49/49
f 21/21/21 47/47/47 49/49/49
f 17/17/17 49/49/49 48/48/48
f 38/38/38 44/44/44 50/50/50
f 44/44/44 46/46/46 51/51/51
f 44/44/44 51/51/51 50/50/50
f 46/46/46 48/48/48 52/52/52
f 46/46/46 52/52/52 51/51/51
f 48/48/48 49/49/49 53/53/53
f 48/48/48 53/53/53 52/52/52
f 49/49/49 47/47/47 54/54/54
f 49/49/49 54/54/54 53/53/53
f 47/47/47 45/45/45 55/55/55
f 47/47/47 55/55/55 54/54/54
f 38/38/38 50/50/50 56/56/56
f 39/39/39 38/38/38 56/56/56
f 45/45/45 57/57/57 55/55/55
f 45/45/45 43/43/43 57/57/57
f 39/39/39 56/56/56 58/58/58
f 40/40/40 39/39/39 58/58/58
f 43/43/43 59/59/59 57/57/57
f 43/43/43 42/42/42 59/59/59
f 40/40/40 58/58/58 60/60/60
f 41/41/41 40/40/40 60/60/60
f 42/42/42 41/41/41 61/61/61
f 42/42/42 61/61/61 59/59/59
f 41/41/41 60/60/60 61/61/61
f 56/56/56 50/50/50 62/62/62
f 58/58/58 56/56/56 63/63/63
f 56/56/56 62/62/62 63/63/63
f 60/60/60 58/58/58 64/64/64
f 58/58/58 63/63/63 64/64/64
f 61/61/61 60/60/60 65/65/65
f 60/60/60 64/64/64 65/65/65
f 59/59/59 61/61/61 66/66/66
f 61/61/61 65/65/65 66/66/66
f 57/57/57 59/59/59 67/67/67
f 59/59/59 66/66/66 67/67/67
f 50/50/50 68/68/68 62/62/62
f 50/50/50 51/51/51 68/68/68
f 57/57/57 67/67/67 69/69/69
f 55/55/55 57/57/57 69/69/69
f 51/51/51 70/70/70 68/68/68
f 51/51/51 52/52/52 70/70/70
f 55/55/55 69/69/69 71/71/71
f 54/54/54 55/55/55 71/71/71
f 52/52/52 72/72/72 70/70/70
f 52/52/52 53/53/53 72/72/72
f 53/53/53 54/54/54 73/73/73
f 54/54/54 71/71/71 73/73/73
f 53/53/53 73/73/73 72/72/72
f 74/74/74 62/62/62 68/68/68
f 75/75/75 68/68/68 70/70/70
f 75/75/75 74/74/74 68/68/68
f 76/76/76 70/70/70 72/72/72
f 76/76/76 75/75/75 70/70/70
f 77/77/77 72/72/72 73/73/73
f 77/77/77 76/76/76 72/72/72
f 78/78/78 73/73/73 71/71/71
f 78/78/78 77/77/77 73/73/73
f 79/79/79 71/71/71 69/69/69
f 79/79/79 78/78/78 71/71/71
f 74/74/74 80/80/80 62/62/62
f 80/80/80 63/63/63 62/62/62
f 81/81/81 79/79/79 69/69/69
f 81/81/81 69/69/69 67/67/67
f 80/80/80 82/82/82 63/63/63
f 82/82/82 64/64/64 63/63/63
f 83/83/83 81/81/81 67/67/67
f 83/83/83 67/67/67 66/66/66
f 82/82/82 84/84/84 64/64/64
f 84/84/84 65/65/65 64/64/64
f 85/85/85 66/66/66 65/65/65
f 85/85/85 83/83/83 66/66/66
f 84/84/84 85/85/85 65/65/65
f 86/86/86 78/78/78 79/79/79
f 87/87/87 79/79/79 81/81/81
f 87/87/87 86/86/86 79/79/79
f 88/88/88 81/81/81 83/83/83
f 88/88/88 87/87/87 81/81/81
f 89/89/89 83/83/83 85/85/85
f 89/89/89 88/88/88 83/83/83
f 90/90/90 85/85/85 84/84/84
f 90/90/90 89/89/89 85/85/85
f 91/91/91 84/84/84 82/82/82
f 91/91/91 90/90/90 84/84/84
f 86/86/86 92/92/92 78/78/78
f 92/92/92 77/77/77 78/78/78
f 93/93/93 91/91/91 82/82/82
f 93/93/93 82/82/82 80/80/80
f 92/92/92 94/94/94 77/77/77
f 94/94/94 76/76/76 77/77/77
f 95/95/95 93/93/93 80/80/80
f 95/95/95 80/80/80 74/74/74
f 94/94/94 96/96/96 76/76/76
f 96/96/96 75/75/75 76/76/76
f 97/97/97 74/74/74 75/75/75
f 97/97/97 95/95/95 74/74/74
f 96/96/96 97/97/97 75/75/75
f 98/98/98 90/90/90 91/91/91
f 99/99/99 91/91/91 93/93/93
f 99/99/99 98/98/98 91/91/91
f 100/100/100 93/93/93 95/95/95
f 100/100/100 99/99/99 93/93/93
f 101/101/101 95/95/95 97/97/97
f 101/101/101 100/100/100 95/95/95
f 102/102/102 97/97/97 96/96/96
f 102/102/102 101/101/101 97/97/97
f 103/103/103 96/96/96 94/94/94
f 103/103/103 102/102/102 96/96/96
f 98/98/98 104/104/104 90/90/90
f 104/104/104 89/89/89 90/90/90
f 105/105/105 103/103/103 94/94/94
f 105/105/105 94/94/94 92/92/92
f 104/104/104 106/106/106 89/89/89
f 106/106/106 88/88/88 89/89/89
f 107/107/107 105/105/105 92/92/92
f 107/107/107 92/92/92 86/86/86
f 106/106/106 108/108/108 88/88/88
f 108/108/108 87/87/87 88/88/88
f 109/109/109 86/86/86 87/87/87
f 109/109/109 107/107/107 86/86/86
f 108/108/108 109/109/109 87/87/87
f 110/110/110 102/102/102 103/103/103
f 111/111/111 103/103/103 105/105/105
f 111/111/111 110/110/110 103/103/103
f 112/112/112 105/105/105 107/107/107
f 112/112/112 111/111/111 105/105/105
f 113/113/113 107/107/107 109/109/109
f 113/113/113 112/112/112 107/107/107
f 114/114/114 109/109/109 108/108/108
f 114/114/114 113/113/113 109/109/109
f 115/115/115 108/108/108 106/106/106
f 115/115/115 114/114/114 108/108/108
f 110/110/110 116/116/116 102/102/102
f 116/116/116 101/101/101 102/102/102
f 117/117/117 115/115/115 106/106/106
f 117/117/117 106/106/106 104/104/104
f 116/116/116 118/118/118 101/101/101
f 118/118/118 100/100/100 101/101/101
f 119/119/119 117/117/117 104/104/104
f 119/119/119 104/104/104 98/98/98
f 118/118/118 120/120/120 100/100/100
f 120/120/120 99/99/99 100/100/100
f 121/121/121 98/98/98 99/99/99
f 121/121/121 119/119/119 98/98/98
f 120/120/120 121/121/121 99/99/99
f 122/122/122 114/114/114 115/115/115
f 123/123/123 115/115/115 117/117/117
f 123/123/123 122/122/122 115/115/115
f 124/124/124 117/117/117 119/119/119
f 124/124/124 123/123/123 117/117/117
f 125/125/125 119/119/119 121/121/121
f 125/125/125 124/124/124 119/119/119
f 126/126/126 123/123/123 124/124/124
f 126/126/126 122/122/122 123/123/123
f 126/126/126 124/124/124 125/125/125
f 126/126/126 127/127/127 122/122/122
f 122/122/122 127/127/127 114/114/114
f 126/126/126 125/125/125 128/128/128
f 128/128/128 125/125/125 121/121/121
f 128/128/128 121/121/121 120/120/120
f 127/127/127 113/113/113 114/114/114
f 129/129/129 128/128/128 120/120/120
f 126/126/126 128/128/128 129/129/129
f 129/129/129 120/120/120 118/118/118
f 127/127/127 130/130/130 113/113/113
f 126/126/126 130/130/130 127/127/127
f 130/130/130 112/112/112 113/113/113
f 131/131/131 129/129/129 118/118/118
f 126/126/126 129/129/129 131/131/131
f 131/131/131 118/118/118 116/116/116
f 130/130/130 132/132/132 112/112/112
f 126/126/126 132/132/132 130/130/130
f 132/132/132 111/111/111 112/112/112
f 133/133/133 131/131/131 116/116/116
f 126/126/126 131/131/131 133/133/133
f 133/133/133 116/116/116 110/110/110
f 134/134/134 110/110/110 111/111/111
f 132/132/132 134/134/134 111/111/111
f 126/126/126 134/134/134 132/132/132
f 134/134/134 133/133/133 110/110/110
f 126/126/126 133/133/133 134/134/134
