g mdlBrother_Unfinished_Implement
v 0.29814216 -0.07229783 0.040133953
v 0.27712312 0.07415379 0.0151462555
v 0.27712312 -0.07444205 0.0151462555
v 0.29814216 0.071661174 0.040133953
v 0.3023241 -0.06697891 0.08647144
v 0.3023241 0.06543813 0.08647144
v 0.20769244 0.14060195 0.06661689
v 0.2010384 0.14150108 0.018743634
v 0.18220493 0.13531987 -0.006753683
v -0.10590155 0.10802123 0.006340742
v -0.10359205 0.10733908 -0.036557198
v -0.10165919 0.101215184 -0.05411756
v -0.36745784 0.06556046 -0.079947114
v -0.36225328 0.06359349 -0.1125195
v -0.34505284 0.05832152 -0.11922312
v -0.34505284 -0.058569312 -0.11922312
v -0.36225328 -0.064144045 -0.1125195
v -0.36745784 -0.06689672 -0.079947114
v -0.10165919 -0.10150344 -0.05411756
v -0.10359205 -0.10797574 -0.036557198
v -0.10590155 -0.109562024 0.006340742
v 0.18220493 -0.13560814 -0.006753683
v 0.2010384 -0.14213777 0.018743634
v 0.27712312 -0.07444205 0.0151462555
v 0.20769244 -0.14214276 0.06661689
v 0.29814216 -0.07229783 0.040133953
v 0.3023241 -0.06697891 0.08647144
v 0.19358802 -0.024024794 0.04872942
v 0.1783738 -0.06787614 -0.015320778
v 0.2258329 -0.037293088 -0.0043708086
v 0.15796429 -0.045841668 0.037664413
v -0.087073974 -0.05082378 -0.057895064
v 0.20908898 -0.028875303 0.10891116
v -0.071171425 -0.03178919 0.0025689602
v -0.31720948 -0.029346606 -0.118023515
v 0.17454267 -0.054083515 0.09156561
v 0.20561817 -0.12984158 0.09156561
v 0.2881934 -0.050028536 0.10690558
v 0.3023241 -0.06697891 0.08647144
v 0.20769244 -0.14214276 0.06661689
v -0.2668971 -0.015412158 -0.056760073
v -0.31720948 0.02909881 -0.118023515
v -0.08333529 -0.035200138 0.036751986
v -0.29722762 -0.01417819 -0.04548633
v -0.2668971 0.018434325 -0.056760073
v -0.08707399 0.05053553 -0.057895064
v -0.09500796 -0.10283707 0.027810931
v -0.10590155 -0.109562024 0.006340742
v -0.06789101 -0.07307917 0.038453937
v -0.34435776 -0.06589845 -0.063984275
v -0.36745784 -0.06689672 -0.079947114
v -0.34435776 0.06565066 -0.063984275
v -0.36745784 0.06556046 -0.079947114
v -0.10590155 0.10802123 0.006340742
v -0.29722762 0.013930396 -0.04548633
v -0.071171425 0.035263762 0.0025689602
v 0.1783738 0.067587875 -0.015320778
v -0.09500793 0.10254882 0.027810931
v 0.20769244 0.14060195 0.06661689
v 0.15796429 0.049316246 0.037664413
v 0.2258329 0.037004832 -0.0043708086
v -0.08333529 0.03491188 0.036751986
v 0.20561817 0.12955333 0.09156561
v 0.3023241 0.06543813 0.08647144
v -0.06789101 0.07279092 0.038453937
v 0.17454267 0.05379526 0.09156561
v 0.19358802 0.027499361 0.04872942
v 0.2258329 -0.037293088 -0.0043708086
v 0.19358802 -0.024024794 0.04872942
v 0.20908898 0.028587045 0.10891116
v 0.20908898 -0.028875303 0.10891116
v 0.2881934 -0.050028536 0.10690558
v 0.3023241 -0.06697891 0.08647144
v 0.2881934 0.04974028 0.10690558
v -0.31720948 0.02909881 -0.118023515
v -0.34505284 0.05832152 -0.11922312
v -0.34505284 -0.058569312 -0.11922312
v -0.10165919 0.101215184 -0.05411756
v -0.31720948 -0.029346606 -0.118023515
v -0.10165919 -0.10150344 -0.05411756
v -0.08563915 0.084401526 -0.05342734
v -0.08707399 0.05053553 -0.057895064
v 0.18220493 0.13531987 -0.006753683
v 0.1783738 0.067587875 -0.015320778
v 0.2258329 0.037004832 -0.0043708086
v 0.27712312 0.07415379 0.0151462555
v 0.2258329 -0.037293088 -0.0043708086
v 0.27712312 -0.07444205 0.0151462555
v 0.1783738 -0.06787614 -0.015320778
v 0.18220493 -0.13560814 -0.006753683
v -0.08563915 -0.08468978 -0.05342734
v -0.087073974 -0.05082378 -0.057895064
vt 1.2856927 0.4286934
vt 1.1944225 0.3555255
vt 1.2488117 0.43648762
vt 1.2305448 0.35314667
vt 1.3342376 0.41647097
vt 1.2811539 0.34435505
vt 1.183056 0.29095274
vt 1.1335924 0.30690143
vt 1.097385 0.31076843
vt 0.86070126 0.18182233
vt 0.8248608 0.20202255
vt 0.8101863 0.2106902
vt 0.5482517 0.10487604
vt 0.5360939 0.12523021
vt 0.5372185 0.1346073
vt 0.41470867 0.13641508
vt 0.41441697 0.12562905
vt 0.3979355 0.1081914
vt 0.15346473 0.22714177
vt 0.13678256 0.21905887
vt 0.09659135 0.20039485
vt -0.117626846 0.34216547
vt -0.1557563 0.3400788
vt -0.20750076 0.39481786
vt -0.20788103 0.3263513
vt -0.24879843 0.39625153
vt -0.3029759 0.3856903
vt 0.13849998 0.23567805
vt 0.2223073 0.19289437
vt 0.13586962 0.18760175
vt 0.20681229 0.24466223
vt 0.6687411 0.25929117
vt 0.060841292 0.26237667
vt 0.601338 0.299344
vt 0.9827082 0.3120087
vt 0.13358444 0.2835918
vt 0.057961136 0.3480812
vt -0.08060041 0.27682942
vt -0.11769584 0.29811966
vt 0.0484145 0.37177828
vt 0.89664686 0.32833183
vt 0.9783207 0.34408504
vt 0.59530663 0.3274114
vt 0.91939664 0.34317318
vt 0.9109162 0.33265442
vt 0.7751012 0.36053824
vt 0.59487677 0.38107184
vt 0.6173204 0.39737847
vt 0.5582824 0.35330993
vt 0.9726325 0.38072228
vt 1.0076706 0.38408166
vt 0.9825523 0.30616203
vt 1.0140092 0.30538315
vt 0.7635958 0.29208127
vt 0.9291862 0.33025622
vt 0.7505423 0.33938265
vt 0.59150016 0.3672315
vt 0.7520056 0.29955283
vt 0.5451975 0.30267274
vt 0.5923737 0.34917974
vt 0.56562245 0.36608872
vt 0.7502074 0.32568187
vt 0.54778206 0.31063634
vt 0.49470612 0.3238759
vt 0.7348366 0.31233704
vt 0.569672 0.33374992
vt 0.56579256 0.3510944
vt 0.54170024 0.36526436
vt 0.5473509 0.3554103
vt 0.54192376 0.33849487
vt 0.5303042 0.34988052
vt 0.49422666 0.35193837
vt 0.48094466 0.35457742
vt 0.50388455 0.32950836
vt 0.0492345 0.2585572
vt 0.01578323 0.24087489
vt 0.015778044 0.31115663
vt 0.3183312 0.21452957
vt 0.049122572 0.29346514
vt 0.3181393 0.33762038
vt 0.33740762 0.2247811
vt 0.3346233 0.24537188
vt 0.66539 0.19453824
vt 0.65858686 0.2355178
vt 0.716973 0.25386494
vt 0.7827514 0.23136753
vt 0.7168705 0.29834574
vt 0.7827514 0.32080168
vt 0.6585151 0.3167165
vt 0.665345 0.35771602
vt 0.3372281 0.32737416
vt 0.3344634 0.3067844
vn 0.854758 -0.4042613 -0.32551733
vn 0.576168 0.30843285 -0.75690126
vn 0.57506526 -0.30492708 -0.759157
vn 0.8552939 0.40771952 -0.31974536
vn 0.84829587 -0.445571 0.2861129
vn 0.85249764 0.4411479 0.2804217
vn 0.24375339 0.9404177 0.23706284
vn 0.3121151 0.9231472 -0.22446246
vn 0.19109245 0.6685234 -0.7187212
vn -0.1870344 0.9645948 0.1859438
vn -0.09389315 0.97960746 -0.17763248
vn 0.08681209 0.642909 -0.76100695
vn -0.76759493 0.56298786 0.30633754
vn -0.63256687 0.57945514 -0.51389766
vn -0.09555809 0.45347404 -0.88613194
vn -0.09344485 -0.44570702 -0.8902883
vn -0.6303422 -0.57550776 -0.5210179
vn -0.7637018 -0.57188153 0.29951832
vn 0.08903094 -0.63600844 -0.76652914
vn -0.08913583 -0.97650856 -0.1961781
vn -0.1938285 -0.95865655 0.20834607
vn 0.19206548 -0.66236794 -0.7241405
vn 0.31325272 -0.9191349 -0.23888026
vn 0.57506526 -0.30492708 -0.759157
vn 0.2402018 -0.93893105 0.24639711
vn 0.854758 -0.4042613 -0.32551733
vn 0.84829587 -0.445571 0.2861129
vn -0.86086583 0.4913448 -0.13225065
vn 0.08080322 0.39357957 -0.9157325
vn -0.06927906 0.1741662 -0.98227626
vn -0.17564529 0.9750896 -0.13545848
vn 0.22293633 0.51534486 -0.8274775
vn -0.45600846 0.08138462 0.88624644
vn 0.093115054 0.9901147 -0.10489307
vn 0.30525744 0.041044954 -0.9513849
vn -0.42693418 0.41357195 0.80416757
vn 0.04820121 -0.5891608 0.80657685
vn 0.474807 -0.21649055 0.85304755
vn 0.84829587 -0.445571 0.2861129
vn 0.2402018 -0.93893105 0.24639711
vn 0.4585625 0.8870386 -0.053693812
vn 0.30914655 -0.04135347 -0.9501149
vn -0.19149752 0.6152353 0.76473147
vn -0.17435057 0.11022351 0.97849506
vn 0.4527966 -0.88672453 -0.093246974
vn 0.22139318 -0.5415716 -0.810978
vn -0.2963376 -0.5401267 0.7876847
vn -0.1938285 -0.95865655 0.20834607
vn -0.25937814 -0.0937872 0.96121114
vn -0.43532044 -0.456185 0.7761388
vn -0.7637018 -0.57188153 0.29951832
vn -0.43365163 0.49018368 0.7560862
vn -0.76759493 0.56298786 0.30633754
vn -0.1870344 0.9645948 0.1859438
vn -0.16371688 -0.109816626 0.980376
vn 0.10155399 -0.98651 -0.12839301
vn 0.071840145 -0.41462797 -0.90715086
vn -0.29520988 0.5622946 0.77244794
vn 0.24375339 0.9404177 0.23706284
vn -0.16976252 -0.9750318 -0.14315608
vn -0.08201036 -0.17394288 -0.9813349
vn -0.18116462 -0.65366286 0.73478174
vn 0.054645363 0.60523593 0.79416835
vn 0.85249764 0.4411479 0.2804217
vn -0.2593753 0.09378864 0.9612118
vn -0.43548205 -0.43905133 0.7858685
vn -0.8493351 -0.5102593 -0.13514943
vn -0.06927906 0.1741662 -0.98227626
vn -0.86086583 0.4913448 -0.13225065
vn -0.46379083 -0.079928145 0.8823319
vn -0.45600846 0.08138462 0.88624644
vn 0.474807 -0.21649055 0.85304755
vn 0.84829587 -0.445571 0.2861129
vn 0.47796878 0.22406046 0.849319
vn 0.30914655 -0.04135347 -0.9501149
vn -0.09555809 0.45347404 -0.88613194
vn -0.09344485 -0.44570702 -0.8902883
vn 0.08681209 0.642909 -0.76100695
vn 0.30525744 0.041044954 -0.9513849
vn 0.08903094 -0.63600844 -0.76652914
vn 0.1815386 0.122868724 -0.9756777
vn 0.22139318 -0.5415716 -0.810978
vn 0.19109245 0.6685234 -0.7187212
vn 0.071840145 -0.41462797 -0.90715086
vn -0.08201036 -0.17394288 -0.9813349
vn 0.576168 0.30843285 -0.75690126
vn -0.06927906 0.1741662 -0.98227626
vn 0.57506526 -0.30492708 -0.759157
vn 0.08080322 0.39357957 -0.9157325
vn 0.19206548 -0.66236794 -0.7241405
vn 0.18153037 -0.12286671 -0.9756796
vn 0.22293633 0.51534486 -0.8274775
g mdlBrother_Unfinished_Implement_0
f 3/3/3 2/2/2 1/1/1
f 2/2/2 4/4/4 1/1/1
f 1/1/1 4/4/4 5/5/5
f 4/4/4 6/6/6 5/5/5
f 6/6/6 4/4/4 7/7/7
f 4/4/4 2/2/2 8/8/8
f 4/4/4 8/8/8 7/7/7
f 2/2/2 9/9/9 8/8/8
f 10/10/10 7/7/7 8/8/8
f 11/11/11 8/8/8 9/9/9
f 11/11/11 10/10/10 8/8/8
f 12/12/12 11/11/11 9/9/9
f 13/13/13 10/10/10 11/11/11
f 14/14/14 11/11/11 12/12/12
f 14/14/14 13/13/13 11/11/11
f 15/15/15 14/14/14 12/12/12
f 14/14/14 15/15/15 16/16/16
f 13/13/13 14/14/14 17/17/17
f 17/17/17 14/14/14 16/16/16
f 18/18/18 13/13/13 17/17/17
f 16/16/16 19/19/19 17/17/17
f 17/17/17 20/20/20 18/18/18
f 19/19/19 20/20/20 17/17/17
f 20/20/20 21/21/21 18/18/18
f 19/19/19 22/22/22 20/20/20
f 20/20/20 23/23/23 21/21/21
f 22/22/22 23/23/23 20/20/20
f 22/22/22 24/24/24 23/23/23
f 23/23/23 25/25/25 21/21/21
f 24/24/24 26/26/26 23/23/23
f 23/23/23 26/26/26 25/25/25
f 26/26/26 27/27/27 25/25/25
f 30/30/30 29/29/29 28/28/28
f 29/29/29 31/31/31 28/28/28
f 29/29/29 32/32/32 31/31/31
f 28/28/28 31/31/31 33/33/33
f 32/32/32 34/34/34 31/31/31
f 32/32/32 35/35/35 34/34/34
f 31/31/31 36/36/36 33/33/33
f 31/31/31 34/34/34 36/36/36
f 36/36/36 37/37/37 33/33/33
f 37/37/37 38/38/38 33/33/33
f 39/39/39 38/38/38 37/37/37
f 40/40/40 39/39/39 37/37/37
f 35/35/35 41/41/41 34/34/34
f 35/35/35 42/42/42 41/41/41
f 34/34/34 43/43/43 36/36/36
f 37/37/37 36/36/36 43/43/43
f 34/34/34 41/41/41 43/43/43
f 41/41/41 44/44/44 43/43/43
f 42/42/42 45/45/45 41/41/41
f 41/41/41 45/45/45 44/44/44
f 42/42/42 46/46/46 45/45/45
f 40/40/40 37/37/37 47/47/47
f 48/48/48 40/40/40 47/47/47
f 49/49/49 37/37/37 43/43/43
f 49/49/49 43/43/43 44/44/44
f 47/47/47 37/37/37 49/49/49
f 47/47/47 49/49/49 44/44/44
f 48/48/48 47/47/47 50/50/50
f 50/50/50 47/47/47 44/44/44
f 51/51/51 48/48/48 50/50/50
f 50/50/50 52/52/52 51/51/51
f 52/52/52 50/50/50 44/44/44
f 52/52/52 53/53/53 51/51/51
f 53/53/53 52/52/52 54/54/54
f 45/45/45 55/55/55 44/44/44
f 55/55/55 52/52/52 44/44/44
f 46/46/46 56/56/56 45/45/45
f 45/45/45 56/56/56 55/55/55
f 46/46/46 57/57/57 56/56/56
f 52/52/52 58/58/58 54/54/54
f 58/58/58 52/52/52 55/55/55
f 54/54/54 58/58/58 59/59/59
f 57/57/57 60/60/60 56/56/56
f 57/57/57 61/61/61 60/60/60
f 56/56/56 62/62/62 55/55/55
f 56/56/56 60/60/60 62/62/62
f 58/58/58 63/63/63 59/59/59
f 64/64/64 59/59/59 63/63/63
f 65/65/65 58/58/58 55/55/55
f 62/62/62 65/65/65 55/55/55
f 63/63/63 58/58/58 65/65/65
f 62/62/62 66/66/66 65/65/65
f 60/60/60 66/66/66 62/62/62
f 66/66/66 63/63/63 65/65/65
f 61/61/61 67/67/67 60/60/60
f 60/60/60 67/67/67 66/66/66
f 61/61/61 68/68/68 67/67/67
f 68/68/68 69/69/69 67/67/67
f 67/67/67 70/70/70 66/66/66
f 67/67/67 69/69/69 70/70/70
f 63/63/63 66/66/66 70/70/70
f 69/69/69 71/71/71 70/70/70
f 71/71/71 72/72/72 70/70/70
f 73/73/73 64/64/64 72/72/72
f 74/74/74 63/63/63 70/70/70
f 72/72/72 74/74/74 70/70/70
f 64/64/64 74/74/74 72/72/72
f 74/74/74 64/64/64 63/63/63
f 77/77/77 76/76/76 75/75/75
f 76/76/76 78/78/78 75/75/75
f 79/79/79 77/77/77 75/75/75
f 80/80/80 77/77/77 79/79/79
f 78/78/78 81/81/81 75/75/75
f 81/81/81 82/82/82 75/75/75
f 78/78/78 83/83/83 81/81/81
f 81/81/81 83/83/83 82/82/82
f 83/83/83 84/84/84 82/82/82
f 84/84/84 83/83/83 85/85/85
f 83/83/83 86/86/86 85/85/85
f 85/85/85 86/86/86 87/87/87
f 86/86/86 88/88/88 87/87/87
f 87/87/87 88/88/88 89/89/89
f 88/88/88 90/90/90 89/89/89
f 91/91/91 80/80/80 79/79/79
f 90/90/90 80/80/80 91/91/91
f 89/89/89 90/90/90 91/91/91
f 92/92/92 91/91/91 79/79/79
f 92/92/92 89/89/89 91/91/91
