g mdlFastAttacksLowDamageGlow
v 0.018441215 0.9061007 1.2574213
v -0.5223963 0.86960566 0.79230475
v -0.82524693 0.80015635 0.88532746
v -0.45951855 0.85124075 1.0899343
v -0.99866736 0.93173414 0.36331612
v -1.0024964 1.0563121 0.35911533
v -1.1276773 1.0615014 0.69774634
v -1.1249121 0.88712156 0.7007801
v 0.018962279 1.147497 1.2588868
v -0.45914215 1.1891382 1.0909927
v -0.7738938 1.0906347 0.9186922
v -0.45128864 1.0771252 0.83850414
v -0.99866736 0.93173414 0.36331612
v -1.1249121 0.88712156 0.7007801
v -0.82524693 0.80015635 0.88532746
v -0.5223963 0.86960566 0.79230475
v -0.96138036 1.0535002 1.4976022
v -1.1094588 1.0575651 1.092047
v -0.6774387 1.2220336 1.1426077
v -0.39508808 1.1709976 1.409864
v -0.96138036 0.9494766 1.4976022
v -1.1094588 0.91195685 1.092047
v -1.1094588 1.0575651 1.092047
v -0.96138036 1.0535002 1.4976022
v -0.96138036 0.9494766 1.4976022
v -0.86916757 0.90693486 1.4835122
v -1.042864 0.85240847 1.0818715
v -1.1094588 0.91195685 1.092047
v 0.018962279 1.147497 1.2588868
v -0.456914 1.1902866 1.1392429
v -0.45914215 1.1891382 1.0909927
v 0.022047773 1.1483173 1.3256977
v -0.6774387 1.2220336 1.1426077
v -0.39508808 1.1709976 1.409864
v -0.91370213 1.0988092 0.43289357
v -0.45128864 1.0771252 0.83850414
v -0.7738938 1.0906347 0.9186922
v -1.0635508 1.120987 0.75102806
v 0.018441215 0.9061007 1.2574213
v -0.45951855 0.85124075 1.0899343
v -0.4569614 0.85240847 1.1384885
v 0.021982208 0.90693486 1.3246529
v 0.021982208 0.90693486 1.3246529
v -0.4569614 0.85240847 1.1384885
v -1.042864 0.85240847 1.0818715
v -0.86916757 0.90693486 1.4835122
v -1.0024964 1.0563121 0.35911533
v -0.91370213 1.0988092 0.43289357
v -1.0635508 1.120987 0.75102806
v -1.1276773 1.0615014 0.69774634
v 1.2552327 0.9061007 0.07640356
v 1.1099632 0.85124075 -0.4087709
v 0.9224379 0.80015635 -0.7835448
v 0.8155494 0.86960566 -0.4853057
v 0.40897852 0.93173414 -0.98085135
v 0.75190485 0.88712156 -1.0914006
v 0.7490018 1.0615014 -1.0943031
v 0.40495884 1.0563121 -0.9848699
v 1.2566725 1.147497 0.07699168
v 0.85842085 1.0771252 -0.4121434
v 0.9533992 1.0906347 -0.73070776
v 1.1110029 1.1891382 -0.40834594
v 0.40897852 0.93173414 -0.98085135
v 0.8155494 0.86960566 -0.4853057
v 0.9224379 0.80015635 -0.7835448
v 0.75190485 0.88712156 -1.0914006
v 1.5403386 1.0535002 -0.89130044
v 1.4265814 1.1709976 -0.32965654
v 1.172629 1.2220336 -0.6240304
v 1.142043 1.0575651 -1.0579221
v 1.5403386 0.9494766 -0.89130044
v 1.5403386 1.0535002 -0.89130044
v 1.142043 1.0575651 -1.0579221
v 1.142043 0.91195685 -1.0579221
v 1.5403386 0.9494766 -0.89130044
v 1.142043 0.91195685 -1.0579221
v 1.1288075 0.85240847 -0.9918675
v 1.5220116 0.90693486 -0.7998356
v 1.2566725 1.147497 0.07699168
v 1.1110029 1.1891382 -0.40834594
v 1.159099 1.1902866 -0.40389532
v 1.3232702 1.1483173 0.08315462
v 1.172629 1.2220336 -0.6240304
v 1.4265814 1.1709976 -0.32965654
v 0.47456414 1.0988092 -0.8927682
v 0.79927 1.120987 -1.0277879
v 0.9533992 1.0906347 -0.73070776
v 0.85842085 1.0771252 -0.4121434
v 1.2552327 0.9061007 0.07640356
v 1.3222295 0.90693486 0.08304089
v 1.1583477 0.85240847 -0.40397742
v 1.1099632 0.85124075 -0.4087709
v 1.3222295 0.90693486 0.08304089
v 1.5220116 0.90693486 -0.7998356
v 1.1288075 0.85240847 -0.9918675
v 1.1583477 0.85240847 -0.40397742
v 0.40495884 1.0563121 -0.9848699
v 0.7490018 1.0615014 -1.0943031
v 0.79927 1.120987 -1.0277879
v 0.47456414 1.0988092 -0.8927682
vt 0.26727772 -0.00060009956
vt 0.13541079 -0.00060009956
vt 0.13541147 0.99940026
vt 0.2672782 0.99940014
vt 0.9826871 -0.0006008148
vt 0.9506681 -0.0006008148
vt 0.9506686 0.9993994
vt 0.9826876 0.9993993
vt 0.6951751 -0.000600338
vt 0.6951759 0.99939966
vt 0.8129971 0.9993994
vt 0.81299675 -0.0006005764
vt 0.016061723 -0.0005992651
vt 0.016061991 0.9994005
vt 0.13541147 0.99940026
vt 0.13541079 -0.00060009956
vt 0.4938758 -0.0006002188
vt 0.49387628 0.9993998
vt 0.60415953 0.99939966
vt 0.60415924 -0.0006002188
vt 0.46715546 -0.0006002188
vt 0.46715584 0.9993998
vt 0.49387628 0.9993998
vt 0.4938758 -0.0006002188
vt 0.46715546 -0.0006002188
vt 0.4465568 -0.0006002188
vt 0.4465573 0.9993998
vt 0.46715584 0.9993998
vt 0.6951751 -0.000600338
vt 0.6828448 0.9993996
vt 0.6951759 0.99939966
vt 0.68284404 -0.000600338
vt 0.60415953 0.99939966
vt 0.60415924 -0.0006002188
vt 0.92653716 -0.0006008148
vt 0.81299675 -0.0006005764
vt 0.8129971 0.9993994
vt 0.92653763 0.9993993
vt 0.26727772 -0.00060009956
vt 0.2672782 0.99940014
vt 0.2796911 0.9994
vt 0.27969068 -0.00060009956
vt 0.27969068 -0.00060009956
vt 0.2796911 0.9994
vt 0.4465573 0.9993998
vt 0.4465568 -0.0006002188
vt 0.9506681 -0.0006008148
vt 0.92653716 -0.0006008148
vt 0.92653763 0.9993993
vt 0.9506686 0.9993994
vt 0.26727772 -0.00060009956
vt 0.2672782 0.99940014
vt 0.13541147 0.99940026
vt 0.13541079 -0.00060009956
vt 0.9826871 -0.0006008148
vt 0.9826876 0.9993993
vt 0.9506686 0.9993994
vt 0.9506681 -0.0006008148
vt 0.6951751 -0.000600338
vt 0.81299675 -0.0006005764
vt 0.8129971 0.9993994
vt 0.6951759 0.99939966
vt 0.016061723 -0.0005992651
vt 0.13541079 -0.00060009956
vt 0.13541147 0.99940026
vt 0.016061991 0.9994005
vt 0.4938758 -0.0006002188
vt 0.60415924 -0.0006002188
vt 0.60415953 0.99939966
vt 0.49387628 0.9993998
vt 0.46715546 -0.0006002188
vt 0.4938758 -0.0006002188
vt 0.49387628 0.9993998
vt 0.46715584 0.9993998
vt 0.46715546 -0.0006002188
vt 0.46715584 0.9993998
vt 0.4465573 0.9993998
vt 0.4465568 -0.0006002188
vt 0.6951751 -0.000600338
vt 0.6951759 0.99939966
vt 0.6828448 0.9993996
vt 0.68284404 -0.000600338
vt 0.60415953 0.99939966
vt 0.60415924 -0.0006002188
vt 0.92653716 -0.0006008148
vt 0.92653763 0.9993993
vt 0.8129971 0.9993994
vt 0.81299675 -0.0006005764
vt 0.26727772 -0.00060009956
vt 0.27969068 -0.00060009956
vt 0.2796911 0.9994
vt 0.2672782 0.99940014
vt 0.27969068 -0.00060009956
vt 0.4465568 -0.0006002188
vt 0.4465573 0.9993998
vt 0.2796911 0.9994
vt 0.9506681 -0.0006008148
vt 0.9506686 0.9993994
vt 0.92653763 0.9993993
vt 0.92653716 -0.0006008148
vn 0.16538338 -0.98159397 -0.09550738
vn 0.16538341 -0.98159397 -0.09550738
vn 0.1653834 -0.98159397 -0.09550739
vn 0.16538338 -0.98159397 -0.095507376
vn -0.9363339 -0.029120298 -0.34990123
vn -0.9363339 -0.029120296 -0.34990126
vn -0.9363339 -0.029120294 -0.34990123
vn -0.9363339 -0.029120298 -0.34990126
vn 0.10654817 0.9101066 -0.4004418
vn 0.10654817 0.9101066 -0.4004418
vn 0.10654816 0.9101066 -0.4004418
vn 0.10654816 0.9101066 -0.4004418
vn 0.009405412 -0.968883 -0.24734047
vn 0.009405412 -0.968883 -0.24734047
vn 0.009405412 -0.968883 -0.2473405
vn 0.009405412 -0.968883 -0.2473405
vn -0.25555798 0.93648297 0.2401871
vn -0.25555795 0.93648297 0.24018706
vn -0.25555798 0.93648297 0.24018706
vn -0.25555798 0.93648297 0.24018706
vn -0.9393435 0 0.34297794
vn -0.9393435 0 0.34297797
vn -0.9393435 0 0.34297794
vn -0.9393435 0 0.342978
vn -0.48633516 -0.82496524 0.2879416
vn -0.48633516 -0.82496524 0.2879416
vn -0.4863352 -0.82496536 0.2879416
vn -0.4863352 -0.82496536 0.28794163
vn 0.094874166 0.995259 -0.02141064
vn 0.09233896 0.9950354 0.03712283
vn 0.09487415 0.995259 -0.021410638
vn 0.09299218 0.99540734 0.02273222
vn 0.091741286 0.9945304 0.04992784
vn 0.091741286 0.9945304 0.04992784
vn 0.07201571 0.99739575 -0.0039422666
vn 0.07201572 0.99739575 -0.003942267
vn 0.07201571 0.99739575 -0.0039422666
vn 0.07201572 0.99739575 -0.003942267
vn 0.10939754 -0.9939324 0.011422917
vn 0.10939754 -0.9939324 0.011422917
vn 0.10939754 -0.9939324 0.011422917
vn 0.10939754 -0.9939324 0.011422918
vn 0.011751651 -0.98541343 0.16977137
vn 0.01175165 -0.98541343 0.16977137
vn 0.01175165 -0.98541343 0.16977136
vn 0.01175165 -0.98541343 0.16977137
vn -0.41513386 0.8850199 -0.21072145
vn -0.41513395 0.8850199 -0.21072146
vn -0.41513386 0.8850199 -0.21072145
vn -0.4151339 0.8850199 -0.21072146
vn -0.10303164 -0.98159397 0.16080348
vn -0.10303164 -0.98159397 0.16080348
vn -0.10303164 -0.98159397 0.1608035
vn -0.10303166 -0.98159397 0.16080351
vn -0.30635333 -0.029121134 -0.9514724
vn -0.30635333 -0.029121134 -0.9514724
vn -0.30635333 -0.029121129 -0.9514724
vn -0.30635333 -0.029121134 -0.9514724
vn -0.40492898 0.9101065 0.087970056
vn -0.404929 0.9101065 0.087970056
vn -0.404929 0.9101065 0.08797005
vn -0.404929 0.9101065 0.087970056
vn -0.24751116 -0.968883 -0.002009817
vn -0.2475112 -0.968883 -0.0020098172
vn -0.24751116 -0.968883 -0.0020098172
vn -0.2475112 -0.968883 -0.0020098172
vn 0.25171593 0.93648285 -0.24421097
vn 0.25171593 0.93648285 -0.244211
vn 0.25171596 0.93648285 -0.24421097
vn 0.25171593 0.93648285 -0.24421097
vn 0.3859278 0 -0.92252904
vn 0.38592777 0 -0.92252904
vn 0.3859278 0 -0.92252904
vn 0.3859278 0 -0.92252904
vn 0.31006122 -0.82496476 -0.4725412
vn 0.31006122 -0.82496476 -0.47254118
vn 0.31006122 -0.82496476 -0.4725412
vn 0.31006125 -0.82496476 -0.4725412
vn -0.025762575 0.995259 0.09378598
vn -0.025762575 0.995259 0.09378599
vn 0.032825455 0.9950354 0.0939525
vn 0.018420046 0.99540734 0.09394146
vn 0.045644406 0.9945304 0.09394592
vn 0.0456444 0.9945304 0.09394591
vn -0.007258819 0.99739575 0.07175734
vn -0.0072588185 0.99739575 0.07175734
vn -0.007258818 0.99739575 0.07175734
vn -0.007258819 0.99739575 0.07175734
vn 0.0063662427 -0.9939324 0.109807916
vn 0.006366242 -0.9939324 0.10980792
vn 0.0063662427 -0.9939324 0.109807916
vn 0.006366242 -0.9939324 0.10980791
vn 0.16904886 -0.98541343 0.019567497
vn 0.16904889 -0.98541343 0.019567499
vn 0.16904889 -0.98541343 0.019567499
vn 0.16904888 -0.98541343 0.019567497
vn -0.19135505 0.8850199 -0.42440897
vn -0.19135506 0.8850199 -0.42440903
vn -0.19135505 0.8850199 -0.42440903
vn -0.19135506 0.8850199 -0.424409
g mdlFastAttacksLowDamageGlow_0
f 3/3/3 2/2/2 1/1/1
f 4/4/4 3/3/3 1/1/1
f 7/7/7 6/6/6 5/5/5
f 8/8/8 7/7/7 5/5/5
f 11/11/11 10/10/10 9/9/9
f 12/12/12 11/11/11 9/9/9
f 15/15/15 14/14/14 13/13/13
f 16/16/16 15/15/15 13/13/13
f 19/19/19 18/18/18 17/17/17
f 20/20/20 19/19/19 17/17/17
f 23/23/23 22/22/22 21/21/21
f 24/24/24 23/23/23 21/21/21
f 27/27/27 26/26/26 25/25/25
f 28/28/28 27/27/27 25/25/25
f 31/31/31 30/30/30 29/29/29
f 30/30/30 32/32/32 29/29/29
f 30/30/30 33/33/33 32/32/32
f 33/33/33 34/34/34 32/32/32
f 37/37/37 36/36/36 35/35/35
f 38/38/38 37/37/37 35/35/35
f 41/41/41 40/40/40 39/39/39
f 42/42/42 41/41/41 39/39/39
f 45/45/45 44/44/44 43/43/43
f 46/46/46 45/45/45 43/43/43
f 49/49/49 48/48/48 47/47/47
f 50/50/50 49/49/49 47/47/47
f 53/53/53 52/52/52 51/51/51
f 54/54/54 53/53/53 51/51/51
f 57/57/57 56/56/56 55/55/55
f 58/58/58 57/57/57 55/55/55
f 61/61/61 60/60/60 59/59/59
f 62/62/62 61/61/61 59/59/59
f 65/65/65 64/64/64 63/63/63
f 66/66/66 65/65/65 63/63/63
f 69/69/69 68/68/68 67/67/67
f 70/70/70 69/69/69 67/67/67
f 73/73/73 72/72/72 71/71/71
f 74/74/74 73/73/73 71/71/71
f 77/77/77 76/76/76 75/75/75
f 78/78/78 77/77/77 75/75/75
f 81/81/81 80/80/80 79/79/79
f 82/82/82 81/81/81 79/79/79
f 83/83/83 81/81/81 82/82/82
f 84/84/84 83/83/83 82/82/82
f 87/87/87 86/86/86 85/85/85
f 88/88/88 87/87/87 85/85/85
f 91/91/91 90/90/90 89/89/89
f 92/92/92 91/91/91 89/89/89
f 95/95/95 94/94/94 93/93/93
f 96/96/96 95/95/95 93/93/93
f 99/99/99 98/98/98 97/97/97
f 100/100/100 99/99/99 97/97/97
