g mdlGreenhouseChainEnd
v 0.57925224 2.628879 1.4281868
v 3.5762787E-07 2.6288788 2.2386014
v -0.57925177 2.628879 1.4281868
v -5.9604645E-08 2.6288793 -2.2386022
v 0.57925206 2.6288793 -1.4281865
v -0.579252 2.6288793 -1.4281865
v 0.57925206 1.9455354 -1.4281865
v 0.57925206 2.6288793 -1.4281865
v -5.9604645E-08 2.6288793 -2.2386022
v -5.9604645E-08 1.9455355 -2.2386022
v 0.579252 1.134374 -1.3462384
v -8.940697E-08 1.1343741 -2.1101532
v 0.57925195 0.60092103 -0.8207031
v -1.1920929E-07 -0.08604494 -1.286406
v 0.57925206 0.32321244 1.1920929E-07
v 1.1920929E-07 -0.3637535 -4.7683716E-07
v 0.5792522 0.6009209 0.82070315
v 2.9802322E-07 -0.08604506 1.2864056
v 0.57925224 1.1343738 1.3462386
v 3.2782555E-07 1.1343737 2.1101522
v 0.57925224 1.9455352 1.4281868
v 3.5762787E-07 1.9455351 2.2386014
v 0.57925224 2.628879 1.4281868
v 3.5762787E-07 2.6288788 2.2386014
v 0.57925224 1.9455352 1.4281868
v 0.57925224 2.628879 1.4281868
v -0.57925177 2.628879 1.4281868
v -0.57925177 1.9455352 1.4281868
v 0.57925224 1.1343738 1.3462386
v -0.5792518 1.1343738 1.3462386
v 0.5792522 0.6009209 0.82070315
v -0.5792519 0.6009209 0.82070315
v 0.57925206 0.32321244 1.1920929E-07
v -0.579252 0.3232125 1.1920929E-07
v 0.57925195 0.60092103 -0.8207031
v -0.57925206 0.60092103 -0.8207031
v 0.579252 1.134374 -1.3462384
v -0.579252 1.134374 -1.3462384
v 0.57925206 1.9455354 -1.4281865
v -0.579252 1.9455354 -1.4281865
v 0.57925206 2.6288793 -1.4281865
v -0.579252 2.6288793 -1.4281865
v -5.9604645E-08 1.9455355 -2.2386022
v -5.9604645E-08 2.6288793 -2.2386022
v -0.579252 2.6288793 -1.4281865
v -0.579252 1.9455354 -1.4281865
v -8.940697E-08 1.1343741 -2.1101532
v -0.579252 1.134374 -1.3462384
v -1.1920929E-07 -0.08604494 -1.286406
v -0.57925206 0.60092103 -0.8207031
v 1.1920929E-07 -0.3637535 -4.7683716E-07
v -0.579252 0.3232125 1.1920929E-07
v 2.9802322E-07 -0.08604506 1.2864056
v -0.5792519 0.6009209 0.82070315
v 3.2782555E-07 1.1343737 2.1101522
v -0.5792518 1.1343738 1.3462386
v 3.5762787E-07 1.9455351 2.2386014
v -0.57925177 1.9455352 1.4281868
v 3.5762787E-07 2.6288788 2.2386014
v -0.57925177 2.628879 1.4281868
vt 0.4547745 0.10332844
vt 0.3809849 9.157026E-05
vt 0.30719525 0.103328384
vt 0.3809848 0.9999083
vt 0.45477444 0.8966713
vt 0.30719516 0.89667124
vt 0.29608697 0.11941846
vt 0.30701202 0.01104261
vt 0.15045561 9.157026E-05
vt 0.15322928 0.099048294
vt 0.2730261 0.24498822
vt 0.1535268 0.20003136
vt 0.26493207 0.3529105
vt 0.15359649 0.34557605
vt 0.24955593 0.46048295
vt 0.15355194 0.46042946
vt 0.26479435 0.5680501
vt 0.15350722 0.57528293
vt 0.27275798 0.67589235
vt 0.1535768 0.7208277
vt 0.29554874 0.800909
vt 0.15387444 0.8218108
vt 0.30701202 0.9040569
vt 0.15664805 0.9207675
vt 0.4547745 0.19037808
vt 0.4547745 0.10332844
vt 0.30719525 0.103328384
vt 0.30719525 0.19037808
vt 0.4547744 0.29423612
vt 0.30719516 0.29423612
vt 0.45477444 0.38962907
vt 0.3071952 0.38962907
vt 0.45477444 0.49999982
vt 0.3071952 0.49999982
vt 0.45477444 0.61037064
vt 0.3071952 0.61037064
vt 0.4547745 0.7057636
vt 0.30719525 0.7057636
vt 0.45477444 0.8096217
vt 0.30719525 0.8096216
vt 0.45477444 0.8966713
vt 0.30719516 0.89667124
vt 0.15322928 0.099048294
vt 0.15045561 9.157026E-05
vt 9.157026E-05 0.016802283
vt 0.01155498 0.119950205
vt 0.1535268 0.20003136
vt 0.0343457 0.2449667
vt 0.15359649 0.34557605
vt 0.042309318 0.35280892
vt 0.15355194 0.46042946
vt 0.057547793 0.46037608
vt 0.15350722 0.57528293
vt 0.042171605 0.5679486
vt 0.1535768 0.7208277
vt 0.034077644 0.67587084
vt 0.15387444 0.8218108
vt 0.011016698 0.8014407
vt 0.15664805 0.9207675
vt 9.169642E-05 0.90981644
vn -0 1 0
vn -0 1 0
vn -0 1 0
vn -0 1 0
vn -0 1 0
vn -0 1 0
vn 0.8087864 -0.0393228 -0.58678645
vn 0.81355125 0 -0.5814933
vn 0.81355125 0 -0.5814933
vn 0.8091413 -0.03672546 -0.5864654
vn 0.793117 -0.26551923 -0.5481469
vn 0.79980916 -0.2030493 -0.5648684
vn 0.7915982 -0.50957596 -0.33720115
vn 0.7914997 -0.50768864 -0.3402655
vn 0.7907804 -0.6121 0
vn 0.7907804 -0.6121 0
vn 0.79159814 -0.50957614 0.3372011
vn 0.79149956 -0.5076888 0.3402653
vn 0.79311675 -0.2655193 0.5481472
vn 0.79980886 -0.20304942 0.56486875
vn 0.80878603 -0.039322823 0.58678687
vn 0.8091409 -0.036725488 0.5864659
vn 0.8135509 0 0.5814936
vn 0.8135509 0 0.5814936
vn -0 0.050320785 -0.9987331
vn -0 0 -1
vn -0 0 -1
vn -0 0.050320785 -0.9987331
vn -0 0.4253088 -0.90504825
vn -0 0.4253088 -0.90504825
vn -0 0.8474784 -0.5308299
vn -0 0.84747845 -0.53082985
vn -0 1 0
vn -0 1 0
vn -0 0.8474783 0.5308299
vn -0 0.8474783 0.53082997
vn -0 0.42530867 0.9050484
vn -0 0.4253087 0.9050484
vn -0 0.0503208 0.9987331
vn -0 0.0503208 0.9987331
vn -0 0 1
vn -0 0 1
vn -0.80914134 -0.0367254 -0.58646536
vn -0.8135513 0 -0.5814932
vn -0.8135513 0 -0.5814932
vn -0.80878645 -0.039322734 -0.58678627
vn -0.7998092 -0.20304915 -0.5648683
vn -0.79311705 -0.26551908 -0.5481467
vn -0.79149973 -0.5076886 -0.34026524
vn -0.7915983 -0.50957596 -0.33720094
vn -0.7907803 -0.6121 0
vn -0.7907803 -0.61209995 0
vn -0.79149944 -0.5076889 0.34026545
vn -0.791598 -0.5095762 0.3372012
vn -0.7998087 -0.20304936 0.5648689
vn -0.7931167 -0.2655193 0.5481473
vn -0.80914074 -0.036725465 0.586466
vn -0.8087859 -0.039322793 0.586787
vn -0.81355083 0 0.58149374
vn -0.81355083 0 0.58149374
g mdlGreenhouseChainEnd_0
f 3/3/3 2/2/2 1/1/1
f 6/6/6 5/5/5 4/4/4
f 9/9/9 8/8/8 7/7/7
f 10/10/10 9/9/9 7/7/7
f 7/7/7 11/11/11 10/10/10
f 11/11/11 12/12/12 10/10/10
f 11/11/11 13/13/13 12/12/12
f 13/13/13 14/14/14 12/12/12
f 13/13/13 15/15/15 14/14/14
f 15/15/15 16/16/16 14/14/14
f 15/15/15 17/17/17 16/16/16
f 17/17/17 18/18/18 16/16/16
f 17/17/17 19/19/19 18/18/18
f 19/19/19 20/20/20 18/18/18
f 19/19/19 21/21/21 20/20/20
f 21/21/21 22/22/22 20/20/20
f 21/21/21 23/23/23 22/22/22
f 23/23/23 24/24/24 22/22/22
f 27/27/27 26/26/26 25/25/25
f 28/28/28 27/27/27 25/25/25
f 28/28/28 25/25/25 29/29/29
f 30/30/30 28/28/28 29/29/29
f 30/30/30 29/29/29 31/31/31
f 32/32/32 30/30/30 31/31/31
f 32/32/32 31/31/31 33/33/33
f 34/34/34 32/32/32 33/33/33
f 34/34/34 33/33/33 35/35/35
f 36/36/36 34/34/34 35/35/35
f 35/35/35 37/37/37 36/36/36
f 37/37/37 38/38/38 36/36/36
f 37/37/37 39/39/39 38/38/38
f 39/39/39 40/40/40 38/38/38
f 39/39/39 41/41/41 40/40/40
f 41/41/41 42/42/42 40/40/40
f 45/45/45 44/44/44 43/43/43
f 46/46/46 45/45/45 43/43/43
f 46/46/46 43/43/43 47/47/47
f 48/48/48 46/46/46 47/47/47
f 48/48/48 47/47/47 49/49/49
f 50/50/50 48/48/48 49/49/49
f 50/50/50 49/49/49 51/51/51
f 52/52/52 50/50/50 51/51/51
f 52/52/52 51/51/51 53/53/53
f 54/54/54 52/52/52 53/53/53
f 54/54/54 53/53/53 55/55/55
f 56/56/56 54/54/54 55/55/55
f 56/56/56 55/55/55 57/57/57
f 58/58/58 56/56/56 57/57/57
f 57/57/57 59/59/59 58/58/58
f 59/59/59 60/60/60 58/58/58
