g mdlGlassEyePickup
v 0.11919593 -1.5664783 0.4788794
v -0.10788962 -1.5682541 0.6234765
v 0.0521169 -1.4946315 0.67559785
v -0.06961686 -1.4105902 0.8383174
v -0.05552756 -1.6243378 0.46991795
v -0.5812407 -1.5719628 0.37643364
v 0.12418626 -1.6113019 0.29874676
v -0.3122813 -1.4441293 0.8254972
v -0.20972206 -1.3356197 0.93439937
v -0.09461871 -1.6874574 0.14443374
v 0.0691178 -1.6473386 0.06191328
v -0.0431374 -1.648437 -0.11751869
v -0.48048407 -1.3688782 0.8789958
v -0.42461556 -1.2395433 1.0024831
v -0.18224521 -1.6883148 0.0043689907
v -0.20374963 -1.6197865 -0.2475526
v -0.63585716 -1.3138026 0.8678984
v -0.6242435 -1.1686628 0.988718
v -0.30761927 -1.6659503 -0.09713563
v -0.7798504 -1.2760657 0.8018384
v -0.4516124 -1.6282134 -0.16319558
v -0.38821417 -1.5714432 -0.33217967
v -0.8084654 -1.1204029 0.90367067
v -0.5872571 -1.5008878 -0.34639612
v -0.90522456 -1.2537011 0.7003337
v -0.9693204 -1.091669 0.7740569
v -0.60698557 -1.5731378 -0.17429297
v -0.8027357 -1.4044863 -0.27786106
v -0.99285114 -1.2545584 0.560269
v -1.0815755 -1.0927672 0.59462494
v -0.8845547 -1.4393646 -0.04579279
v -0.942841 -1.3295157 -0.18177913
v -1.0645746 -1.2454743 -0.019059509
v -1.0358373 -1.2826889 0.3753966
v -1.136644 -1.1288041 0.35779148
v -1.1316535 -1.1736276 0.17765896
v -0.97958 -1.3737619 0.08122634
v -1.136644 -1.1288041 0.35779148
v -0.960759 -1.0805999 0.32718945
v -1.1316535 -1.1736276 0.17765896
v -1.0815755 -1.0927672 0.59462494
v -0.9045016 -1.1716729 0.03301918
v -0.4311506 -1.1679642 0.28006202
v -1.0645746 -1.2454743 -0.019059509
v -0.91777277 -1.0524695 0.51206183
v -0.9693204 -1.091669 0.7740569
v -0.8094763 -1.2372756 -0.09399995
v -0.942841 -1.3295157 -0.18177913
v -0.8027357 -1.4044863 -0.27786106
v -0.8301462 -1.0516121 0.65212655
v -0.8084654 -1.1204029 0.90367067
v -0.5319072 -1.3710488 -0.22250013
v -0.5872571 -1.5008878 -0.34639612
v -0.7047721 -1.0739768 0.75363123
v -0.6242435 -1.1686628 0.988718
v -0.37653404 -1.4261243 -0.21140274
v -0.5607788 -1.1117136 0.81969124
v -0.23254092 -1.4638613 -0.1453428
v -0.38821417 -1.5714432 -0.33217967
v -0.42461556 -1.2395433 1.0024831
v -0.20374963 -1.6197865 -0.2475526
v -0.4054057 -1.1667893 0.8307887
v -0.20972206 -1.3356197 0.93439937
v -0.10716684 -1.4862258 -0.043838173
v -0.0431374 -1.648437 -0.11751869
v -0.23720293 -1.2420403 0.77729005
v -0.06961686 -1.4105902 0.8383174
v -0.01954034 -1.4853685 0.09622657
v 0.0691178 -1.6473386 0.06191328
v 0.12418626 -1.6113019 0.29874676
v -0.03281125 -1.3661652 0.57526934
v 0.0521169 -1.4946315 0.67559785
v 0.11919593 -1.5664783 0.4788794
v 0.019550808 -1.4222488 0.4217108
vt 0 0
vt 0 0
vt 0 0
vt 0 0
vt 0 0
vt 0 0
vt 0 0
vt 0 0
vt 0 0
vt 0 0
vt 0 0
vt 0 0
vt 0 0
vt 0 0
vt 0 0
vt 0 0
vt 0 0
vt 0 0
vt 0 0
vt 0 0
vt 0 0
vt 0 0
vt 0 0
vt 0 0
vt 0 0
vt 0 0
vt 0 0
vt 0 0
vt 0 0
vt 0 0
vt 0 0
vt 0 0
vt 0 0
vt 0 0
vt 0 0
vt 0 0
vt 0 0
vt 0 0
vt 0 0
vt 0 0
vt 0 0
vt 0 0
vt 0 0
vt 0 0
vt 0 0
vt 0 0
vt 0 0
vt 0 0
vt 0 0
vt 0 0
vt 0 0
vt 0 0
vt 0 0
vt 0 0
vt 0 0
vt 0 0
vt 0 0
vt 0 0
vt 0 0
vt 0 0
vt 0 0
vt 0 0
vt 0 0
vt 0 0
vt 0 0
vt 0 0
vt 0 0
vt 0 0
vt 0 0
vt 0 0
vt 0 0
vt 0 0
vt 0 0
vt 0 0
vn 0.28237236 -0.90290093 0.32409215
vn 0.041735422 -0.90072495 0.43238026
vn 0.22955054 -0.8431306 0.48624825
vn 0.10509987 -0.7905819 0.60326964
vn 0.089383736 -0.9539347 0.28639
vn -0.33964685 -0.9149849 0.21781357
vn 0.25643423 -0.95268166 0.16321471
vn -0.0980507 -0.8192965 0.5649241
vn -0.0014074515 -0.7075615 0.7066503
vn 0.059017543 -0.99544585 0.07486379
vn 0.2296054 -0.9731261 -0.017521331
vn 0.113921344 -0.9753307 -0.18908136
vn -0.23032223 -0.759108 0.60885686
vn -0.1717262 -0.64092237 0.7481501
vn -0.027689137 -0.9975206 -0.064697094
vn -0.021435836 -0.951523 -0.3068297
vn -0.37418067 -0.7112095 0.5951217
vn -0.36831293 -0.5766123 0.72928995
vn -0.12857853 -0.9810162 -0.14517172
vn -0.48974952 -0.68253744 0.54248327
vn -0.24294214 -0.9494933 -0.19859879
vn -0.18385655 -0.90889037 -0.37431955
vn -0.5298409 -0.53101736 0.66127855
vn -0.37708384 -0.83776104 -0.39492282
vn -0.58928466 -0.66331744 0.4612523
vn -0.66584986 -0.5104682 0.5441195
vn -0.39714003 -0.8936676 -0.20889722
vn -0.5377577 -0.77548105 -0.33082595
vn -0.6724881 -0.6606796 0.33355978
vn -0.7790706 -0.50587183 0.3703276
vn -0.5793198 -0.80473304 -0.12958896
vn -0.67177457 -0.690011 -0.26945084
vn -0.7729199 -0.61945814 -0.13735515
vn -0.705158 -0.6839114 0.18712926
vn -0.8310422 -0.5226204 0.19035973
vn -0.8091427 -0.58659565 0.034548655
vn -0.6705325 -0.741803 -0.010698093
vn 0.2866607 -0.9446489 0.15957488
vn 0.089689456 -0.97393924 0.20832215
vn 0.25314564 -0.91190207 0.32303563
vn 0.23035862 -0.97294205 -0.017852621
vn 0.056374274 -0.91236794 0.40547103
vn -0.3400763 -0.91463023 0.21863115
vn 0.23029122 -0.8427899 0.48648867
vn 0.057260145 -0.99645907 0.061568193
vn 0.11456421 -0.97508836 -0.18994169
vn -0.035353824 -0.85051775 0.52475685
vn 0.12812138 -0.77461314 0.6193217
vn -0.019128192 -0.72430575 0.6892135
vn -0.027367465 -0.99749607 -0.06521191
vn -0.020638328 -0.95116764 -0.3079842
vn -0.21915892 -0.7654076 0.60507905
vn -0.1720919 -0.6406696 0.7482826
vn -0.12816364 -0.9809738 -0.14582339
vn -0.183525 -0.9084166 -0.37563
vn -0.37413162 -0.7111965 0.59516805
vn -0.24279855 -0.949372 -0.19935322
vn -0.48971638 -0.68263006 0.54239666
vn -0.36819616 -0.57659245 0.7293646
vn -0.37740517 -0.8369678 -0.3962954
vn -0.52980435 -0.531214 0.6611497
vn -0.38523155 -0.8976482 -0.21406609
vn -0.5438458 -0.7592971 -0.35735098
vn -0.5895977 -0.66312176 0.46113345
vn -0.6663231 -0.51007473 0.5439093
vn -0.5179901 -0.8383516 -0.16986158
vn -0.66219777 -0.70766944 -0.24636984
vn -0.67577136 -0.663528 0.32103533
vn -0.77948564 -0.5051477 0.37044278
vn -0.81427896 -0.5468912 0.194576
vn -0.65658605 -0.7532914 -0.03803777
vn -0.7733126 -0.6188644 -0.1378199
vn -0.8271083 -0.56148165 0.025104094
vn -0.7047094 -0.70117044 0.1083727
g mdlGlassEyePickup_0
f 3/3/3 2/2/2 1/1/1
f 4/4/4 2/2/2 3/3/3
f 2/2/2 5/5/5 1/1/1
f 2/2/2 6/6/6 5/5/5
f 1/1/1 5/5/5 7/7/7
f 8/8/8 2/2/2 4/4/4
f 8/8/8 6/6/6 2/2/2
f 9/9/9 8/8/8 4/4/4
f 5/5/5 10/10/10 7/7/7
f 5/5/5 6/6/6 10/10/10
f 7/7/7 10/10/10 11/11/11
f 11/11/11 10/10/10 12/12/12
f 13/13/13 8/8/8 9/9/9
f 13/13/13 6/6/6 8/8/8
f 14/14/14 13/13/13 9/9/9
f 10/10/10 15/15/15 12/12/12
f 10/10/10 6/6/6 15/15/15
f 12/12/12 15/15/15 16/16/16
f 17/17/17 13/13/13 14/14/14
f 17/17/17 6/6/6 13/13/13
f 18/18/18 17/17/17 14/14/14
f 15/15/15 19/19/19 16/16/16
f 15/15/15 6/6/6 19/19/19
f 20/20/20 6/6/6 17/17/17
f 20/20/20 17/17/17 18/18/18
f 19/19/19 6/6/6 21/21/21
f 16/16/16 19/19/19 22/22/22
f 19/19/19 21/21/21 22/22/22
f 23/23/23 20/20/20 18/18/18
f 22/22/22 21/21/21 24/24/24
f 25/25/25 20/20/20 23/23/23
f 25/25/25 6/6/6 20/20/20
f 26/26/26 25/25/25 23/23/23
f 21/21/21 27/27/27 24/24/24
f 21/21/21 6/6/6 27/27/27
f 24/24/24 27/27/27 28/28/28
f 29/29/29 25/25/25 26/26/26
f 29/29/29 6/6/6 25/25/25
f 30/30/30 29/29/29 26/26/26
f 28/28/28 27/27/27 31/31/31
f 27/27/27 6/6/6 31/31/31
f 28/28/28 31/31/31 32/32/32
f 32/32/32 31/31/31 33/33/33
f 34/34/34 29/29/29 30/30/30
f 34/34/34 6/6/6 29/29/29
f 35/35/35 34/34/34 30/30/30
f 36/36/36 34/34/34 35/35/35
f 31/31/31 37/37/37 33/33/33
f 31/31/31 6/6/6 37/37/37
f 37/37/37 6/6/6 34/34/34
f 33/33/33 37/37/37 36/36/36
f 36/36/36 37/37/37 34/34/34
f 40/40/40 39/39/39 38/38/38
f 38/38/38 39/39/39 41/41/41
f 40/40/40 42/42/42 39/39/39
f 42/42/42 43/43/43 39/39/39
f 44/44/44 42/42/42 40/40/40
f 39/39/39 45/45/45 41/41/41
f 39/39/39 43/43/43 45/45/45
f 41/41/41 45/45/45 46/46/46
f 47/47/47 42/42/42 44/44/44
f 47/47/47 43/43/43 42/42/42
f 48/48/48 47/47/47 44/44/44
f 49/49/49 47/47/47 48/48/48
f 45/45/45 50/50/50 46/46/46
f 45/45/45 43/43/43 50/50/50
f 46/46/46 50/50/50 51/51/51
f 49/49/49 52/52/52 47/47/47
f 52/52/52 43/43/43 47/47/47
f 53/53/53 52/52/52 49/49/49
f 50/50/50 54/54/54 51/51/51
f 50/50/50 43/43/43 54/54/54
f 51/51/51 54/54/54 55/55/55
f 56/56/56 43/43/43 52/52/52
f 56/56/56 52/52/52 53/53/53
f 54/54/54 43/43/43 57/57/57
f 54/54/54 57/57/57 55/55/55
f 58/58/58 43/43/43 56/56/56
f 59/59/59 56/56/56 53/53/53
f 58/58/58 56/56/56 59/59/59
f 55/55/55 57/57/57 60/60/60
f 61/61/61 58/58/58 59/59/59
f 57/57/57 62/62/62 60/60/60
f 57/57/57 43/43/43 62/62/62
f 60/60/60 62/62/62 63/63/63
f 64/64/64 58/58/58 61/61/61
f 64/64/64 43/43/43 58/58/58
f 65/65/65 64/64/64 61/61/61
f 62/62/62 66/66/66 63/63/63
f 62/62/62 43/43/43 66/66/66
f 63/63/63 66/66/66 67/67/67
f 68/68/68 64/64/64 65/65/65
f 68/68/68 43/43/43 64/64/64
f 69/69/69 68/68/68 65/65/65
f 70/70/70 68/68/68 69/69/69
f 66/66/66 71/71/71 67/67/67
f 66/66/66 43/43/43 71/71/71
f 67/67/67 71/71/71 72/72/72
f 72/72/72 71/71/71 73/73/73
f 74/74/74 43/43/43 68/68/68
f 74/74/74 68/68/68 70/70/70
f 73/73/73 74/74/74 70/70/70
f 71/71/71 43/43/43 74/74/74
f 71/71/71 74/74/74 73/73/73
