g mdlGTDirtPile3
v 0.7202056 -0.32216325 9.313226E-10
v 0.7314292 -0.50848657 4.656613E-10
v 0.6721196 -0.3930103 0.0006228443
v 0.5846604 -0.3474631 0.0041454583
v 0.8156175 -0.5670139 -0.045049705
v 0.803102 -0.35924464 -0.045049705
v 0.75295675 -0.7731862 -0.045049705
v 0.7061298 -0.09475201 0
v 0.7874061 -0.10565808 -0.045049705
v 0.67523634 -0.6933777 4.656613E-10
v 0.62941074 -0.942977 -0.045049705
v 0.6163718 -0.23252141 0.0030390844
v 0.7517212 0.16211538 0
v 0.8382451 0.18077505 -0.045049705
v 0.5006868 -0.1368504 0.015969168
v 0.39658564 -0.3138806 0.06666958
v 0.4309612 0.06493251 0.049790062
v 0.5702272 -0.48928815 0.0051913485
v 0.59045726 0.050850883 0.009830117
v 0.79523754 0.405226 0
v 0.8867702 0.451868 -0.045049705
v 0.6302037 0.20183839 0.0061351135
v 0.5581938 -0.55708265 0.0059335344
v 0.7753494 0.49623543 3.7252903E-09
v 0.8645929 0.55335265 -0.0450497
v 0.598494 0.317181 0.01787807
v 0.7000441 0.45363146 0.002768524
v 0.7406971 0.56814724 0
v 0.82595205 0.63354164 -0.045049705
v 0.594936 0.4795574 0.009880416
v 0.6733028 0.61734974 0
v 0.75080067 0.6884074 -0.045049705
v 0.60652226 0.65818095 0
v 0.67633355 0.73393834 -0.045049705
v 0.4492852 0.2937172 0.046339326
v 0.3983742 0.44789982 0.02643554
v 0.45017636 0.69733834 0
v 0.5019921 0.7776028 -0.045049705
v 0.23319623 0.1555825 0.114417166
v 0.2858377 0.7013197 0
v 0.3187379 0.7820424 -0.045049705
v 0.20218092 0.6778559 0
v 0.22545211 0.7558779 -0.045049705
v 0.21763977 0.5983771 0.0016576536
v 0.12334946 0.65236604 4.656613E-10
v 0.13754705 0.7274541 -0.045049705
v 0.27800363 0.5081957 0.013277069
v 0.17878959 0.34201127 0.04329777
v 0.14564985 0.455194 0.013285428
v 0.038618132 0.49628782 0.0028840154
v 0.04447061 0.61753637 4.656613E-10
v 0.049589153 0.6886155 -0.045049705
v 0.017952755 0.33045065 0.030425843
v -0.0047833845 0.5766048 3.1144824E-05
v -0.03003154 0.604024 4.656613E-10
v -0.033488274 0.67354786 -0.045049705
v -0.10527575 0.58439803 9.313226E-10
v -0.11739318 0.6516629 -0.045049705
v -0.10083301 0.5050995 -3.9050356E-06
v -0.19021744 0.5706141 0
v -0.21211174 0.63629246 -0.045049705
v -0.12728971 0.35564762 0.01015595
v 0.013020456 0.15128388 0.1025596
v 0.021656007 -0.11814314 0.19091712
v -0.22330329 0.44919848 -0.0017873552
v -0.34515795 0.5392272 0
v -0.3848861 0.60129285 -0.045049705
v -0.12579103 0.18012597 0.062186394
v -0.41115338 0.51174885 0
v -0.45847768 0.5706517 -0.045049705
v -0.35676092 0.4059574 -0.0027854107
v -0.4772848 0.48466742 0
v -0.5322209 0.5404532 -0.045049705
v -0.25407255 0.32473785 0.0016833835
v -0.5168401 0.43783587 0
v -0.57632905 0.4882313 -0.045049705
v -0.23297657 0.20286451 0.032825276
v -0.12035381 -0.0025252402 0.115249716
v -0.34347785 0.21550186 -0.0024844524
v -0.46437547 0.32161218 -0.003376402
v -0.5513402 0.39251125 0
v -0.6148002 0.43768978 -0.045049705
v -0.23226433 0.038940147 0.048141226
v -0.5884623 0.28470182 0
v -0.65619504 0.31747133 -0.045049705
v -0.545779 0.21978985 -0.0020838827
v -0.6282166 0.16474985 0
v -0.7005251 0.18371274 -0.045049705
v -0.4645935 0.09674363 -0.009465471
v -0.29800373 0.104313836 0.017176835
v -0.36397582 0.06365915 -0.0019738413
v -0.40511167 -0.096598536 -0.0003995616
v -0.3176512 0.005178541 0.013712574
v -0.57787406 0.059173986 -0.0050375015
v -0.72289044 0.025449336 0
v -0.806096 0.028378585 -0.045049705
v -0.2954992 -0.075371906 0.029795915
v -0.55229986 -0.09133124 -0.011049084
v -0.67590654 -0.07793123 -0.0034100078
v -0.8166933 -0.13649285 0
v -0.9106957 -0.15220332 -0.045049705
v -0.21072747 -0.13233894 0.077148564
v -0.8334055 -0.2975066 0
v -0.9293315 -0.33174992 -0.045049705
v -0.7199213 -0.27213797 -0.0016929116
v -0.7961201 -0.45491332 0
v -0.8877545 -0.5072744 -0.045049705
v -0.578516 -0.4071724 -0.0026209215
v -0.6116835 -0.22601862 -0.008128472
v -0.5087764 -0.2521248 -0.0069298716
v -0.7085587 -0.6128971 0
v -0.79011464 -0.68344223 -0.045049705
v -0.6658553 -0.5118809 -0.000940674
v -0.625784 -0.7817213 0
v -0.6978125 -0.8716983 -0.045049705
v -0.5899407 -0.5761465 -0.0010145716
v -0.60969985 -0.6617847 -0.0009826962
v -0.53817225 -0.68532234 -0.0011624955
v -0.5339611 -0.88510114 0
v -0.5954207 -0.9869773 -0.045049705
v -0.4413066 -0.57862157 -0.00080545666
v -0.53535867 -0.77438545 -0.0006525777
v -0.45636234 -0.75138485 -0.0013256436
v -0.28360325 -0.70007086 -0.0003454024
v -0.41364226 -0.88960767 0
v -0.46125302 -0.9920025 -0.045049705
v -0.2722262 -0.84508324 0
v -0.3035598 -0.94235325 -0.045049705
v -0.08592269 -0.8092406 0
v -0.09581256 -0.90238506 -0.045049705
v -0.17979848 -0.7524788 -0.00084746163
v 0.1037623 -0.8442937 4.656613E-10
v 0.115705386 -0.9414729 -0.045049705
v -0.08448442 -0.6759031 0.0015921295
v 0.049574703 -0.70988005 0.0027478803
v 0.27408138 -0.9094848 4.656613E-10
v 0.3056284 -1.0141674 -0.045049705
v 0.19049448 -0.72856814 0.0034138504
v 0.42907506 -0.9228364 4.656613E-10
v 0.478462 -1.0290558 -0.045049705
v 0.090098634 -0.61835915 0.02109189
v 0.34945124 -0.7165917 0.009553693
v 0.5644428 -0.8456426 4.656613E-10
v 0.5548436 -0.6374532 0.0014876965
v 0.41452134 -0.49042636 0.059716456
v 0.37493956 -0.57637775 0.059217155
v 0.2209898 -0.37169138 0.15642807
v 0.16748974 -0.5246729 0.06742913
v -0.058923945 -0.5054764 0.0383541
v 0.20747352 -0.11325834 0.1515629
v 0.02457963 -0.3720885 0.110322356
v -0.052415222 -0.59145695 0.014354888
v -0.1537862 -0.5988616 0.0083384905
v -0.26815587 -0.51929224 0.015303183
v -0.41171923 -0.42604032 0.008540147
v -0.47755328 -0.35299778 0.002048633
v -0.39178687 -0.2918748 0.020354208
v -0.3124145 -0.3937477 0.03633397
v -0.19022799 -0.40277162 0.05534244
v -0.3152652 -0.18102163 0.038525887
v -0.26191026 -0.28579015 0.07295313
v -0.087004595 -0.39426 0.0748646
v -0.11989028 -0.2678113 0.1079332
v -0.1129206 -0.13259889 0.13433121
vt 0 0
vt 0 0
vt 0 0
vt 0 0
vt 0 0
vt 0 0
vt 0 0
vt 0 0
vt 0 0
vt 0 0
vt 0 0
vt 0 0
vt 0 0
vt 0 0
vt 0 0
vt 0 0
vt 0 0
vt 0 0
vt 0 0
vt 0 0
vt 0 0
vt 0 0
vt 0 0
vt 0 0
vt 0 0
vt 0 0
vt 0 0
vt 0 0
vt 0 0
vt 0 0
vt 0 0
vt 0 0
vt 0 0
vt 0 0
vt 0 0
vt 0 0
vt 0 0
vt 0 0
vt 0 0
vt 0 0
vt 0 0
vt 0 0
vt 0 0
vt 0 0
vt 0 0
vt 0 0
vt 0 0
vt 0 0
vt 0 0
vt 0 0
vt 0 0
vt 0 0
vt 0 0
vt 0 0
vt 0 0
vt 0 0
vt 0 0
vt 0 0
vt 0 0
vt 0 0
vt 0 0
vt 0 0
vt 0 0
vt 0 0
vt 0 0
vt 0 0
vt 0 0
vt 0 0
vt 0 0
vt 0 0
vt 0 0
vt 0 0
vt 0 0
vt 0 0
vt 0 0
vt 0 0
vt 0 0
vt 0 0
vt 0 0
vt 0 0
vt 0 0
vt 0 0
vt 0 0
vt 0 0
vt 0 0
vt 0 0
vt 0 0
vt 0 0
vt 0 0
vt 0 0
vt 0 0
vt 0 0
vt 0 0
vt 0 0
vt 0 0
vt 0 0
vt 0 0
vt 0 0
vt 0 0
vt 0 0
vt 0 0
vt 0 0
vt 0 0
vt 0 0
vt 0 0
vt 0 0
vt 0 0
vt 0 0
vt 0 0
vt 0 0
vt 0 0
vt 0 0
vt 0 0
vt 0 0
vt 0 0
vt 0 0
vt 0 0
vt 0 0
vt 0 0
vt 0 0
vt 0 0
vt 0 0
vt 0 0
vt 0 0
vt 0 0
vt 0 0
vt 0 0
vt 0 0
vt 0 0
vt 0 0
vt 0 0
vt 0 0
vt 0 0
vt 0 0
vt 0 0
vt 0 0
vt 0 0
vt 0 0
vt 0 0
vt 0 0
vt 0 0
vt 0 0
vt 0 0
vt 0 0
vt 0 0
vt 0 0
vt 0 0
vt 0 0
vt 0 0
vt 0 0
vt 0 0
vt 0 0
vt 0 0
vt 0 0
vt 0 0
vt 0 0
vt 0 0
vt 0 0
vt 0 0
vt 0 0
vt 0 0
vt 0 0
vt 0 0
vt 0 0
vn 0.26524422 0.014130487 0.9640777
vn 0.27298868 -0.015991732 0.9618844
vn 0.03332662 0.00491354 0.9994324
vn 0.16233285 0.004944148 0.9867237
vn 0.43221048 -0.07028532 0.8990295
vn 0.48748055 0.029633988 0.87263083
vn 0.34447274 -0.1841542 0.9205573
vn 0.26652235 -0.020691875 0.9636066
vn 0.48208037 -0.024751024 0.87577724
vn 0.21095027 -0.098394625 0.97253203
vn 0.23719546 -0.2731471 0.9322709
vn 0.06411954 -0.012329507 0.9978661
vn 0.2713458 -0.04532094 0.9614143
vn 0.47445065 -0.08462959 0.87620467
vn 0.26807612 -0.0052492144 0.9633834
vn 0.39546582 0.020264648 0.91825706
vn 0.3048267 -0.0065616486 0.9523852
vn 0.16666198 -0.018433224 0.9858418
vn 0.1490856 -0.029298296 0.9883902
vn 0.28309762 -0.006195431 0.95907104
vn 0.43023372 0.027131854 0.90230966
vn 0.13929005 -0.024262838 0.98995435
vn 0.18702124 -0.032106124 0.981831
vn 0.22306566 0.07294116 0.97207063
vn 0.37580806 0.13580848 0.9166921
vn 0.15265785 0.0015564874 0.988278
vn 0.058382455 0.030030495 0.99784255
vn 0.19061999 0.15717146 0.96900016
vn 0.29841617 0.24619791 0.9221358
vn 0.07889078 0.056062806 0.9953056
vn 0.13303375 0.2011529 0.9704842
vn 0.22599459 0.33372736 0.91517895
vn 0.10254313 0.2532449 0.9619522
vn 0.17221797 0.38136375 0.90824145
vn 0.18491426 0.082065426 0.97932225
vn 0.026398594 0.15680459 0.98727685
vn 0.025727611 0.2960659 0.95482093
vn 0.073002435 0.45187044 0.88909155
vn 0.12265547 0.20469029 0.97111154
vn -0.050875038 0.29676595 0.9535941
vn -0.043398365 0.50030196 0.8647628
vn -0.08914641 0.28898576 0.9531738
vn -0.15589152 0.5283771 0.8345751
vn -0.022462051 0.060031053 0.9979437
vn -0.11804656 0.29682544 0.9476074
vn -0.19367392 0.53139776 0.8246859
vn -0.04049833 0.14041659 0.98926395
vn -0.08017495 0.29115686 0.95330983
vn -0.06555485 0.17157792 0.98298705
vn -0.035096712 0.090457946 0.99528164
vn -0.07434416 0.2618831 0.96223193
vn -0.17948428 0.5358281 0.82502943
vn -0.101903215 0.27421394 0.9562544
vn -0.008484159 0.013000905 0.9998795
vn -0.064212166 0.28611645 0.9560409
vn -0.11646188 0.5360115 0.8361389
vn -0.057589483 0.27345085 0.96016043
vn -0.1140825 0.53855 0.8348348
vn -0.01565637 0.031434823 0.9993832
vn -0.052859187 0.28041008 0.9584238
vn -0.09927886 0.5401283 0.8357064
vn -0.08954358 0.16834436 0.9816528
vn -0.1417026 0.32546127 0.93487716
vn -0.12467012 0.023133403 0.9919286
vn -0.026032658 0.019806793 0.9994649
vn -0.08050808 0.27530834 0.95797896
vn -0.16330847 0.50893897 0.8451695
vn -0.22514032 0.25581214 0.94014466
vn -0.100315966 0.24262609 0.9649193
vn -0.20121114 0.48793626 0.8493717
vn -0.0062869396 -0.0065005734 0.9999591
vn -0.1638864 0.2366129 0.9576825
vn -0.30198956 0.40102506 0.86485904
vn -0.09885225 0.09985938 0.9900789
vn -0.19428632 0.15555725 0.96853226
vn -0.390254 0.31325305 0.86577964
vn -0.24897188 0.15592024 0.9558775
vn -0.37974787 0.19370405 0.904583
vn -0.14334947 0.037813496 0.98894954
vn 0.0117497165 -0.01458796 0.9998246
vn -0.24201633 0.12485357 0.96220565
vn -0.44137126 0.24171348 0.8641562
vn -0.40309176 0.11059998 0.90845186
vn -0.23948091 0.08075271 0.96753705
vn -0.48937625 0.16553642 0.8562176
vn 0.040590268 -0.01986787 0.9989784
vn -0.20343949 0.09528024 0.97444034
vn -0.46703556 0.24049142 0.8509063
vn -0.013306222 -0.006653111 0.9998894
vn -0.32935983 0.053316496 0.94269794
vn -0.1788398 0.032410905 0.98334426
vn -0.18381566 0.0639372 0.9808791
vn -0.3197795 0.06747781 0.9450861
vn 0.04989865 -0.0277113 0.99836975
vn -0.22397968 0.14408068 0.9638848
vn -0.4500355 0.2763815 0.8491651
vn -0.36122733 0.1143561 0.92543906
vn 0.0006409071 -0.0017701244 0.9999982
vn 0.043794543 -0.013977631 0.9989428
vn -0.25120154 0.10406965 0.96232384
vn -0.44536 0.12091526 0.88714933
vn -0.4263193 0.062441785 0.902415
vn -0.23093624 -0.007324527 0.97294134
vn -0.4140472 -0.036622442 0.90951836
vn 0.027375685 0.0079044625 0.99959403
vn -0.20075573 -0.07416182 0.9768301
vn -0.36757597 -0.14682896 0.91832954
vn -0.016053006 0.01403875 0.9997726
vn 0.030610913 0.016999278 0.9993868
vn -0.09543244 0.040559545 0.99460924
vn -0.17066406 -0.090154074 0.98119617
vn -0.35060644 -0.1814071 0.9187854
vn 0.008911646 0.0070499666 0.9999355
vn -0.17478324 -0.109716386 0.97847486
vn -0.3083928 -0.21683629 0.92621595
vn 0.0035096859 0.004028509 0.9999858
vn 0.0076298327 0.0031740104 0.9999659
vn 0.00259414 0.001770119 0.9999951
vn -0.08746738 -0.20475179 0.9748981
vn -0.15729432 -0.31846452 0.9347934
vn -0.034181066 -0.026520845 0.9990638
vn 0.00674473 0.0059512323 0.9999596
vn -0.0010071341 0.0037233443 0.9999926
vn -0.011475076 -0.032685656 0.9993998
vn 0.048739206 -0.24323824 0.9687413
vn 0.03497487 -0.4160362 0.90867525
vn 0.05221885 -0.21909942 0.9743042
vn 0.12290032 -0.44939345 0.88483965
vn -0.006531118 -0.20289195 0.9791794
vn 0.007599363 -0.4360325 0.8998989
vn -0.004699862 -0.0058290497 0.999972
vn -0.057863634 -0.21994895 0.97379375
vn -0.13147783 -0.43017173 0.8931214
vn -0.028443335 -0.07553353 0.9967374
vn -0.024354218 -0.096409746 0.99504375
vn -0.06741695 -0.24400115 0.9674287
vn -0.07867817 -0.41399124 0.9068743
vn -0.0190439 -0.10126228 0.99467754
vn 0.038271118 -0.23524225 0.971183
vn 0.08911508 -0.35346952 0.9311916
vn -0.08508842 -0.26280355 0.96109015
vn 0.012054953 -0.17267576 0.98490494
vn 0.1534798 -0.16019396 0.97508043
vn 0.08820027 -0.0793192 0.9929397
vn 0.3506645 -0.07236079 0.93370146
vn 0.14258476 -0.28236175 0.94865245
vn 0.11856705 -0.21171162 0.97011346
vn -0.12271659 -0.4034907 0.9067172
vn -0.12192276 -0.31196356 0.9422386
vn 0.30045512 0.057069685 0.9520871
vn -0.20677008 -0.34569514 0.9152819
vn -0.0659818 -0.20612444 0.97629863
vn -0.036836084 -0.15091503 0.98786014
vn -0.09106847 -0.15610431 0.98353344
vn -0.1352927 -0.06628823 0.98858577
vn -0.123875275 0.016419044 0.9921619
vn -0.27363053 0.008606269 0.96179634
vn -0.22801176 -0.17997396 0.95688033
vn -0.14923695 -0.2692979 0.95142365
vn -0.35842133 0.10996185 0.9270612
vn -0.29075855 -0.07016415 0.9542203
vn -0.1889435 -0.32298324 0.9273522
vn -0.27070564 -0.20093867 0.94145745
vn -0.44081742 -0.027711313 0.897169
g mdlGTDirtPile3_0
f 3/3/3 2/2/2 1/1/1
f 1/1/1 4/4/4 3/3/3
f 2/2/2 3/3/3 4/4/4
f 2/2/2 5/5/5 1/1/1
f 5/5/5 6/6/6 1/1/1
f 7/7/7 5/5/5 2/2/2
f 1/1/1 6/6/6 8/8/8
f 6/6/6 9/9/9 8/8/8
f 10/10/10 7/7/7 2/2/2
f 11/11/11 7/7/7 10/10/10
f 12/12/12 4/4/4 1/1/1
f 1/1/1 8/8/8 12/12/12
f 8/8/8 9/9/9 13/13/13
f 9/9/9 14/14/14 13/13/13
f 12/12/12 8/8/8 15/15/15
f 15/15/15 4/4/4 12/12/12
f 4/4/4 15/15/15 16/16/16
f 17/17/17 16/16/16 15/15/15
f 18/18/18 2/2/2 4/4/4
f 18/18/18 10/10/10 2/2/2
f 16/16/16 18/18/18 4/4/4
f 8/8/8 19/19/19 15/15/15
f 19/19/19 8/8/8 13/13/13
f 17/17/17 15/15/15 19/19/19
f 13/13/13 14/14/14 20/20/20
f 14/14/14 21/21/21 20/20/20
f 13/13/13 22/22/22 19/19/19
f 19/19/19 22/22/22 17/17/17
f 22/22/22 13/13/13 20/20/20
f 10/10/10 18/18/18 23/23/23
f 23/23/23 18/18/18 16/16/16
f 20/20/20 21/21/21 24/24/24
f 21/21/21 25/25/25 24/24/24
f 20/20/20 26/26/26 22/22/22
f 22/22/22 26/26/26 17/17/17
f 24/24/24 27/27/27 20/20/20
f 27/27/27 26/26/26 20/20/20
f 24/24/24 25/25/25 28/28/28
f 28/28/28 27/27/27 24/24/24
f 25/25/25 29/29/29 28/28/28
f 26/26/26 27/27/27 30/30/30
f 28/28/28 30/30/30 27/27/27
f 28/28/28 29/29/29 31/31/31
f 31/31/31 30/30/30 28/28/28
f 29/29/29 32/32/32 31/31/31
f 31/31/31 32/32/32 33/33/33
f 33/33/33 30/30/30 31/31/31
f 32/32/32 34/34/34 33/33/33
f 26/26/26 30/30/30 35/35/35
f 17/17/17 26/26/26 35/35/35
f 30/30/30 33/33/33 36/36/36
f 35/35/35 30/30/30 36/36/36
f 33/33/33 34/34/34 37/37/37
f 36/36/36 33/33/33 37/37/37
f 34/34/34 38/38/38 37/37/37
f 17/17/17 35/35/35 39/39/39
f 39/39/39 35/35/35 36/36/36
f 37/37/37 38/38/38 40/40/40
f 38/38/38 41/41/41 40/40/40
f 40/40/40 41/41/41 42/42/42
f 41/41/41 43/43/43 42/42/42
f 44/44/44 37/37/37 40/40/40
f 42/42/42 44/44/44 40/40/40
f 42/42/42 43/43/43 45/45/45
f 45/45/45 44/44/44 42/42/42
f 43/43/43 46/46/46 45/45/45
f 37/37/37 47/47/47 36/36/36
f 47/47/47 37/37/37 44/44/44
f 36/36/36 47/47/47 48/48/48
f 36/36/36 48/48/48 39/39/39
f 47/47/47 44/44/44 49/49/49
f 48/48/48 47/47/47 49/49/49
f 44/44/44 50/50/50 49/49/49
f 44/44/44 45/45/45 50/50/50
f 45/45/45 46/46/46 51/51/51
f 46/46/46 52/52/52 51/51/51
f 48/48/48 49/49/49 53/53/53
f 53/53/53 49/49/49 50/50/50
f 51/51/51 54/54/54 45/45/45
f 54/54/54 50/50/50 45/45/45
f 51/51/51 52/52/52 55/55/55
f 55/55/55 54/54/54 51/51/51
f 52/52/52 56/56/56 55/55/55
f 55/55/55 56/56/56 57/57/57
f 57/57/57 54/54/54 55/55/55
f 56/56/56 58/58/58 57/57/57
f 50/50/50 54/54/54 59/59/59
f 59/59/59 54/54/54 57/57/57
f 57/57/57 58/58/58 60/60/60
f 57/57/57 60/60/60 59/59/59
f 58/58/58 61/61/61 60/60/60
f 50/50/50 59/59/59 62/62/62
f 53/53/53 50/50/50 62/62/62
f 63/63/63 48/48/48 53/53/53
f 48/48/48 63/63/63 39/39/39
f 39/39/39 63/63/63 64/64/64
f 59/59/59 60/60/60 65/65/65
f 62/62/62 59/59/59 65/65/65
f 60/60/60 61/61/61 66/66/66
f 65/65/65 60/60/60 66/66/66
f 61/61/61 67/67/67 66/66/66
f 53/53/53 68/68/68 63/63/63
f 62/62/62 68/68/68 53/53/53
f 66/66/66 67/67/67 69/69/69
f 67/67/67 70/70/70 69/69/69
f 66/66/66 71/71/71 65/65/65
f 71/71/71 66/66/66 69/69/69
f 69/69/69 70/70/70 72/72/72
f 72/72/72 71/71/71 69/69/69
f 70/70/70 73/73/73 72/72/72
f 74/74/74 62/62/62 65/65/65
f 65/65/65 71/71/71 74/74/74
f 72/72/72 73/73/73 75/75/75
f 73/73/73 76/76/76 75/75/75
f 62/62/62 74/74/74 77/77/77
f 68/68/68 62/62/62 77/77/77
f 63/63/63 68/68/68 78/78/78
f 78/78/78 64/64/64 63/63/63
f 74/74/74 71/71/71 79/79/79
f 77/77/77 74/74/74 79/79/79
f 80/80/80 71/71/71 72/72/72
f 75/75/75 80/80/80 72/72/72
f 79/79/79 71/71/71 80/80/80
f 75/75/75 76/76/76 81/81/81
f 81/81/81 80/80/80 75/75/75
f 76/76/76 82/82/82 81/81/81
f 83/83/83 68/68/68 77/77/77
f 68/68/68 83/83/83 78/78/78
f 81/81/81 82/82/82 84/84/84
f 82/82/82 85/85/85 84/84/84
f 81/81/81 86/86/86 80/80/80
f 86/86/86 81/81/81 84/84/84
f 84/84/84 85/85/85 87/87/87
f 84/84/84 87/87/87 86/86/86
f 85/85/85 88/88/88 87/87/87
f 80/80/80 86/86/86 89/89/89
f 89/89/89 79/79/79 80/80/80
f 90/90/90 77/77/77 79/79/79
f 77/77/77 90/90/90 83/83/83
f 90/90/90 79/79/79 91/91/91
f 79/79/79 89/89/89 91/91/91
f 89/89/89 92/92/92 91/91/91
f 91/91/91 93/93/93 90/90/90
f 83/83/83 90/90/90 93/93/93
f 91/91/91 92/92/92 93/93/93
f 86/86/86 94/94/94 89/89/89
f 86/86/86 87/87/87 94/94/94
f 87/87/87 88/88/88 95/95/95
f 88/88/88 96/96/96 95/95/95
f 93/93/93 97/97/97 83/83/83
f 93/93/93 92/92/92 97/97/97
f 89/89/89 94/94/94 98/98/98
f 92/92/92 89/89/89 98/98/98
f 94/94/94 87/87/87 99/99/99
f 87/87/87 95/95/95 99/99/99
f 99/99/99 98/98/98 94/94/94
f 95/95/95 96/96/96 100/100/100
f 99/99/99 95/95/95 100/100/100
f 96/96/96 101/101/101 100/100/100
f 83/83/83 97/97/97 102/102/102
f 102/102/102 78/78/78 83/83/83
f 100/100/100 101/101/101 103/103/103
f 101/101/101 104/104/104 103/103/103
f 105/105/105 99/99/99 100/100/100
f 105/105/105 100/100/100 103/103/103
f 103/103/103 104/104/104 106/106/106
f 103/103/103 106/106/106 105/105/105
f 104/104/104 107/107/107 106/106/106
f 105/105/105 106/106/106 108/108/108
f 105/105/105 108/108/108 109/109/109
f 109/109/109 99/99/99 105/105/105
f 98/98/98 99/99/99 109/109/109
f 110/110/110 98/98/98 109/109/109
f 108/108/108 110/110/110 109/109/109
f 98/98/98 110/110/110 92/92/92
f 106/106/106 107/107/107 111/111/111
f 107/107/107 112/112/112 111/111/111
f 106/106/106 113/113/113 108/108/108
f 106/106/106 111/111/111 113/113/113
f 111/111/111 112/112/112 114/114/114
f 112/112/112 115/115/115 114/114/114
f 113/113/113 111/111/111 116/116/116
f 113/113/113 116/116/116 108/108/108
f 117/117/117 111/111/111 114/114/114
f 111/111/111 117/117/117 116/116/116
f 117/117/117 118/118/118 116/116/116
f 114/114/114 118/118/118 117/117/117
f 114/114/114 115/115/115 119/119/119
f 115/115/115 120/120/120 119/119/119
f 121/121/121 108/108/108 116/116/116
f 118/118/118 121/121/121 116/116/116
f 114/114/114 122/122/122 118/118/118
f 122/122/122 114/114/114 119/119/119
f 122/122/122 123/123/123 118/118/118
f 119/119/119 123/123/123 122/122/122
f 118/118/118 123/123/123 121/121/121
f 124/124/124 121/121/121 123/123/123
f 119/119/119 120/120/120 125/125/125
f 119/119/119 125/125/125 123/123/123
f 125/125/125 124/124/124 123/123/123
f 120/120/120 126/126/126 125/125/125
f 125/125/125 126/126/126 127/127/127
f 124/124/124 125/125/125 127/127/127
f 126/126/126 128/128/128 127/127/127
f 127/127/127 128/128/128 129/129/129
f 128/128/128 130/130/130 129/129/129
f 127/127/127 131/131/131 124/124/124
f 127/127/127 129/129/129 131/131/131
f 129/129/129 130/130/130 132/132/132
f 130/130/130 133/133/133 132/132/132
f 131/131/131 129/129/129 134/134/134
f 131/131/131 134/134/134 124/124/124
f 135/135/135 129/129/129 132/132/132
f 129/129/129 135/135/135 134/134/134
f 132/132/132 133/133/133 136/136/136
f 133/133/133 137/137/137 136/136/136
f 135/135/135 132/132/132 138/138/138
f 132/132/132 136/136/136 138/138/138
f 136/136/136 137/137/137 139/139/139
f 136/136/136 139/139/139 138/138/138
f 137/137/137 140/140/140 139/139/139
f 141/141/141 135/135/135 138/138/138
f 135/135/135 141/141/141 134/134/134
f 138/138/138 139/139/139 142/142/142
f 141/141/141 138/138/138 142/142/142
f 139/139/139 140/140/140 143/143/143
f 139/139/139 143/143/143 142/142/142
f 140/140/140 11/11/11 143/143/143
f 143/143/143 11/11/11 10/10/10
f 144/144/144 143/143/143 10/10/10
f 143/143/143 144/144/144 142/142/142
f 23/23/23 144/144/144 10/10/10
f 144/144/144 23/23/23 145/145/145
f 16/16/16 145/145/145 23/23/23
f 144/144/144 146/146/146 142/142/142
f 144/144/144 145/145/145 146/146/146
f 145/145/145 16/16/16 147/147/147
f 146/146/146 145/145/145 147/147/147
f 142/142/142 146/146/146 148/148/148
f 141/141/141 142/142/142 148/148/148
f 146/146/146 147/147/147 148/148/148
f 141/141/141 148/148/148 149/149/149
f 16/16/16 150/150/150 147/147/147
f 17/17/17 150/150/150 16/16/16
f 17/17/17 39/39/39 150/150/150
f 39/39/39 64/64/64 150/150/150
f 147/147/147 150/150/150 64/64/64
f 147/147/147 151/151/151 148/148/148
f 149/149/149 148/148/148 151/151/151
f 147/147/147 64/64/64 151/151/151
f 141/141/141 149/149/149 152/152/152
f 141/141/141 152/152/152 134/134/134
f 153/153/153 134/134/134 152/152/152
f 153/153/153 152/152/152 149/149/149
f 124/124/124 134/134/134 153/153/153
f 124/124/124 153/153/153 154/154/154
f 153/153/153 149/149/149 154/154/154
f 121/121/121 124/124/124 154/154/154
f 121/121/121 154/154/154 155/155/155
f 155/155/155 108/108/108 121/121/121
f 108/108/108 155/155/155 156/156/156
f 110/110/110 108/108/108 156/156/156
f 110/110/110 156/156/156 157/157/157
f 156/156/156 155/155/155 157/157/157
f 92/92/92 110/110/110 157/157/157
f 155/155/155 154/154/154 158/158/158
f 158/158/158 157/157/157 155/155/155
f 154/154/154 149/149/149 159/159/159
f 159/159/159 158/158/158 154/154/154
f 160/160/160 92/92/92 157/157/157
f 92/92/92 160/160/160 97/97/97
f 97/97/97 160/160/160 102/102/102
f 157/157/157 158/158/158 161/161/161
f 161/161/161 160/160/160 157/157/157
f 158/158/158 159/159/159 161/161/161
f 160/160/160 161/161/161 102/102/102
f 149/149/149 162/162/162 159/159/159
f 149/149/149 151/151/151 162/162/162
f 163/163/163 161/161/161 159/159/159
f 162/162/162 163/163/163 159/159/159
f 162/162/162 151/151/151 163/163/163
f 161/161/161 163/163/163 102/102/102
f 151/151/151 64/64/64 163/163/163
f 102/102/102 163/163/163 164/164/164
f 164/164/164 163/163/163 64/64/64
f 164/164/164 78/78/78 102/102/102
f 164/164/164 64/64/64 78/78/78
