g mdlGTDirtPile
v 0.9247299 -0.32326537 1.6119331E-05
v 0.8802476 -0.49906194 1.6119331E-05
v 0.8606123 -0.3880456 0.058262147
v 0.78383476 -0.35347688 0.08270529
v 0.9488806 -0.5379739 -0.101874314
v 0.99683124 -0.34847042 -0.101874314
v 0.8539413 -0.7336148 -0.101874314
v 0.90552807 -0.14896181 1.6119331E-05
v 0.9761322 -0.16057639 -0.101874314
v 0.7921753 -0.68055207 1.6119331E-05
v 0.7339595 -0.89768404 -0.101874314
v 0.84238505 -0.26363328 0.06681217
v 0.83011025 0.03066212 1.6119331E-05
v 0.89483404 0.03305285 -0.101874314
v 0.7193366 -0.19499874 0.09843585
v 0.5849333 -0.34499058 0.13706166
v 0.56766635 -0.06766174 0.11634885
v 0.71502334 -0.48147255 0.09849337
v 0.73583776 -0.0427773 0.080418475
v 0.72803015 0.21728759 1.6119331E-05
v 0.78479475 0.23422953 -0.101874314
v 0.7125213 0.12476559 0.06752663
v 0.70117134 -0.5539153 0.10694979
v 0.6823323 0.30319118 1.6119331E-05
v 0.73553383 0.32683104 -0.101874314
v 0.61821693 0.16550918 0.08188823
v 0.62771136 0.3120578 0.0537977
v 0.65564674 0.3877579 1.6119331E-05
v 0.7067676 0.41799143 -0.101874314
v 0.5614324 0.29367578 0.069429606
v 0.6217503 0.46101767 1.6119331E-05
v 0.67022824 0.4969633 -0.101874314
v 0.59434724 0.53073007 1.6119331E-05
v 0.6406886 0.5721112 -0.101874314
v 0.47403732 0.16957568 0.099195674
v 0.40443292 0.38971376 0.07378336
v 0.5014171 0.6210369 1.6119331E-05
v 0.5405127 0.6694592 -0.101874314
v 0.3414624 -0.035810083 0.1286969
v 0.3667895 0.66755825 1.6119331E-05
v 0.39538813 0.7196079 -0.101874314
v 0.28479585 0.6754269 1.6119331E-05
v 0.3070014 0.72809005 -0.101874314
v 0.28727517 0.5389733 0.024845589
v 0.20256858 0.6901136 1.6119331E-05
v 0.21836288 0.7439219 -0.101874314
v 0.30915308 0.44431114 0.060954936
v 0.24115694 0.18516974 0.09163529
v 0.18312505 0.38176942 0.06876277
v 0.12312217 0.44156516 0.073443666
v 0.113235444 0.69353443 1.6119331E-05
v 0.12206443 0.74760944 -0.101874314
v 0.12390414 0.2555468 0.09214776
v 0.033174533 0.5097372 0.07258551
v 0.018671246 0.7084599 1.6119331E-05
v 0.020127047 0.76369864 -0.101874314
v -0.07781613 0.7140774 0.005264871
v -0.083883464 0.7697541 -0.09621631
v -0.10018042 0.4609095 0.08134332
v -0.18533872 0.7225631 1.6119331E-05
v -0.19978961 0.77890146 -0.101874314
v -0.10334386 0.33366734 0.11864239
v 0.12188585 0.06490205 0.1251267
v 0.18557876 -0.11917153 0.16236356
v -0.3405535 0.60486686 0.019595526
v -0.38519937 0.709894 1.6119331E-05
v -0.41523343 0.76524454 -0.101874314
v -0.011384208 0.17821215 0.15297604
v -0.47543862 0.68195283 -0.00077479146
v -0.51250863 0.7351248 -0.10272689
v -0.3705024 0.51046395 0.06651233
v -0.5648011 0.64902574 1.6119331E-05
v -0.60883874 0.6996304 -0.101874314
v -0.29744378 0.42136866 0.09066165
v -0.63062453 0.594986 1.6119331E-05
v -0.67979443 0.64137715 -0.101874314
v -0.1367749 0.18685873 0.19681504
v 0.083651274 -0.038699627 0.16471416
v -0.44886425 0.3637784 0.11634971
v -0.5803795 0.50059885 0.025297906
v -0.6880978 0.53997725 1.6119331E-05
v -0.74174887 0.58207935 -0.101874314
v -0.13787249 0.008003622 0.2727111
v -0.765047 0.40702945 1.6119331E-05
v -0.82469785 0.4387656 -0.101874314
v -0.6509555 0.30030072 0.06589189
v -0.8207053 0.2485513 1.6119331E-05
v -0.8846958 0.26793087 -0.101874314
v -0.5108525 0.16335122 0.1726629
v -0.24543703 0.15258099 0.21714333
v -0.42282248 0.106156304 0.21448876
v -0.47720885 -0.052136913 0.20781693
v -0.32956263 0.009660959 0.24401502
v -0.67065364 0.12938215 0.08983412
v -0.87921935 0.06032768 1.6119331E-05
v -0.9477722 0.06503144 -0.101874314
v -0.2404781 -0.08456027 0.2966739
v -0.66306037 -0.08639606 0.11154622
v -0.7593033 0.05674383 0.06927991
v -0.9369302 -0.14985517 1.6119331E-05
v -1.0099827 -0.16153939 -0.101874314
v -0.050910857 -0.19801757 0.30123478
v -0.9647625 -0.36339042 1.6119331E-05
v -1.0399852 -0.39172402 -0.101874314
v -0.8718652 -0.36620206 0.026626796
v -0.9351143 -0.56167 1.6119331E-05
v -1.0080253 -0.6054635 -0.101874314
v -0.7037833 -0.5370845 0.0972417
v -0.7795477 -0.37073374 0.079321474
v -0.60076785 -0.25662768 0.13217561
v -0.8435945 -0.73490584 1.6119331E-05
v -0.9093697 -0.7922065 -0.101874314
v -0.81132954 -0.6157636 0.020031929
v -0.7183901 -0.881857 1.6119331E-05
v -0.7744031 -0.9506155 -0.101874314
v -0.6866546 -0.6695083 0.07193433
v -0.6919436 -0.7877753 0.020032056
v -0.48715943 -0.7103975 0.11401349
v -0.55845034 -0.9484064 1.6119331E-05
v -0.6019928 -1.0223538 -0.101874314
v -0.4503844 -0.66779995 0.11661707
v -0.5521511 -0.8548409 0.022814088
v -0.41137475 -0.7656069 0.08511591
v -0.14387444 -0.6722946 0.09553106
v -0.37097007 -0.9165991 1.6119331E-05
v -0.39989465 -0.98806643 -0.101874314
v -0.16946149 -0.8395829 1.6119331E-05
v -0.18267442 -0.90504533 -0.101874314
v 0.030506346 -0.796352 1.6119331E-05
v 0.03288493 -0.85844374 -0.101874314
v -0.05068352 -0.7084404 0.05041317
v 0.22019133 -0.83140516 -0.0037722662
v 0.23735967 -0.8962299 -0.10595808
v 0.06049226 -0.6431223 0.103698656
v 0.1737433 -0.66252124 0.09891632
v 0.3905104 -0.89659625 1.6119331E-05
v 0.42095858 -0.966504 -0.101874314
v 0.29642436 -0.69545525 0.09980258
v 0.5455041 -0.9099479 -0.001281701
v 0.58803713 -0.98089665 -0.103273325
v 0.22118208 -0.58236146 0.13646387
v 0.46674404 -0.7066236 0.11399442
v 0.68087184 -0.8327541 1.6119331E-05
v 0.68118256 -0.62402165 0.094727665
v 0.55729777 -0.46923876 0.14217551
v 0.5151387 -0.5806862 0.13545498
v 0.3355833 -0.3953692 0.1716842
v 0.26722082 -0.49325836 0.17357112
v 0.11403319 -0.49417394 0.17921075
v 0.31546456 -0.20277546 0.1561475
v 0.21168748 -0.41836685 0.20823294
v 0.05059899 -0.5419413 0.14040035
v -0.08146544 -0.57733893 0.13084187
v -0.20296034 -0.5219654 0.15863223
v -0.3656898 -0.5212398 0.150628
v -0.5124993 -0.3706252 0.14921497
v -0.3510415 -0.28873292 0.24911027
v -0.2268 -0.42469203 0.25251353
v -0.09795304 -0.44463724 0.26679236
v -0.26081735 -0.20097561 0.30340022
v -0.1296679 -0.31793207 0.3220653
v 0.006816039 -0.42635846 0.27552998
v -0.013786591 -0.32280976 0.30248922
v 0.037141114 -0.15730947 0.23418127
vt 0 0
vt 0 0
vt 0 0
vt 0 0
vt 0 0
vt 0 0
vt 0 0
vt 0 0
vt 0 0
vt 0 0
vt 0 0
vt 0 0
vt 0 0
vt 0 0
vt 0 0
vt 0 0
vt 0 0
vt 0 0
vt 0 0
vt 0 0
vt 0 0
vt 0 0
vt 0 0
vt 0 0
vt 0 0
vt 0 0
vt 0 0
vt 0 0
vt 0 0
vt 0 0
vt 0 0
vt 0 0
vt 0 0
vt 0 0
vt 0 0
vt 0 0
vt 0 0
vt 0 0
vt 0 0
vt 0 0
vt 0 0
vt 0 0
vt 0 0
vt 0 0
vt 0 0
vt 0 0
vt 0 0
vt 0 0
vt 0 0
vt 0 0
vt 0 0
vt 0 0
vt 0 0
vt 0 0
vt 0 0
vt 0 0
vt 0 0
vt 0 0
vt 0 0
vt 0 0
vt 0 0
vt 0 0
vt 0 0
vt 0 0
vt 0 0
vt 0 0
vt 0 0
vt 0 0
vt 0 0
vt 0 0
vt 0 0
vt 0 0
vt 0 0
vt 0 0
vt 0 0
vt 0 0
vt 0 0
vt 0 0
vt 0 0
vt 0 0
vt 0 0
vt 0 0
vt 0 0
vt 0 0
vt 0 0
vt 0 0
vt 0 0
vt 0 0
vt 0 0
vt 0 0
vt 0 0
vt 0 0
vt 0 0
vt 0 0
vt 0 0
vt 0 0
vt 0 0
vt 0 0
vt 0 0
vt 0 0
vt 0 0
vt 0 0
vt 0 0
vt 0 0
vt 0 0
vt 0 0
vt 0 0
vt 0 0
vt 0 0
vt 0 0
vt 0 0
vt 0 0
vt 0 0
vt 0 0
vt 0 0
vt 0 0
vt 0 0
vt 0 0
vt 0 0
vt 0 0
vt 0 0
vt 0 0
vt 0 0
vt 0 0
vt 0 0
vt 0 0
vt 0 0
vt 0 0
vt 0 0
vt 0 0
vt 0 0
vt 0 0
vt 0 0
vt 0 0
vt 0 0
vt 0 0
vt 0 0
vt 0 0
vt 0 0
vt 0 0
vt 0 0
vt 0 0
vt 0 0
vt 0 0
vt 0 0
vt 0 0
vt 0 0
vt 0 0
vt 0 0
vt 0 0
vt 0 0
vt 0 0
vt 0 0
vt 0 0
vt 0 0
vt 0 0
vt 0 0
vt 0 0
vt 0 0
vt 0 0
vt 0 0
vt 0 0
vt 0 0
vt 0 0
vn 0.73486596 -0.02923716 0.6775819
vn 0.64157367 -0.25709337 0.7226936
vn 0.4402091 -0.12262618 0.8894823
vn 0.34746176 -0.06265604 0.9355984
vn 0.74463356 -0.27689907 0.6073285
vn 0.80620396 -0.0690657 0.58759254
vn 0.67051435 -0.40859565 0.61924154
vn 0.6887824 0.20304263 0.6959543
vn 0.8165192 0.19428726 0.54364413
vn 0.60608804 -0.34957108 0.714463
vn 0.5101526 -0.57979655 0.6352797
vn 0.46886882 0.04770175 0.8819788
vn 0.69062585 0.30769762 0.6544907
vn 0.78044385 0.36940762 0.50442576
vn 0.28736255 0.084688954 0.95407057
vn 0.18924879 0.035707314 0.98127973
vn 0.13843267 0.1010473 0.9852035
vn 0.42537165 -0.06189222 0.9029
vn 0.37508062 0.1212832 0.9190239
vn 0.6755259 0.37563807 0.6344767
vn 0.76472276 0.41289598 0.49468777
vn 0.43294266 0.29099876 0.85315895
vn 0.44402024 -0.12656209 0.8870333
vn 0.7478987 0.32432544 0.5791897
vn 0.8009165 0.33543697 0.49599877
vn 0.25117698 0.18650576 0.949803
vn 0.3555511 0.35942703 0.8627836
vn 0.6671243 0.29545864 0.6838489
vn 0.807263 0.31565994 0.49868354
vn 0.17347108 0.21867001 0.96025586
vn 0.6502972 0.2749145 0.7081917
vn 0.79761183 0.338821 0.4990148
vn 0.54152936 0.37730655 0.75125605
vn 0.7082393 0.48047104 0.51724726
vn 0.079991676 0.12717485 0.9886495
vn 0.058199745 0.20130335 0.9777984
vn 0.31462404 0.5472426 0.7755884
vn 0.4543168 0.72435546 0.5185608
vn 0.06921839 0.15369657 0.98569065
vn 0.12366567 0.58643526 0.8005002
vn 0.19413362 0.85045236 0.48892012
vn 0.080722526 0.5745796 0.81445825
vn 0.11649229 0.87172365 0.47594896
vn 0.040926162 0.25761205 0.9653814
vn 0.0909165 0.62625265 0.77430093
vn 0.09750898 0.8737354 0.47652745
vn -0.039003085 0.2574875 0.96549416
vn 0.023042183 0.15406218 0.98779243
vn 0.10129303 0.13748874 0.98531044
vn 0.15024734 0.16111225 0.9754326
vn 0.061740868 0.65009505 0.75734043
vn 0.08466028 0.87709147 0.47280356
vn 0.16764124 0.16446728 0.97203237
vn 0.05267647 0.21336105 0.97555226
vn 0.09210632 0.66040045 0.7452433
vn 0.106846035 0.8734457 0.47505435
vn 0.03494504 0.63108605 0.77492535
vn 0.060580887 0.87663746 0.47732246
vn -0.027650218 0.26820102 0.96296614
vn -0.024018355 0.63045895 0.77585083
vn -0.009613364 0.874511 0.48491034
vn 0.111545645 0.33774984 0.9346029
vn 0.22370735 0.20545673 0.9527553
vn 0.2320675 0.22324747 0.9467341
vn 0.13910846 0.29402608 0.9456202
vn -0.08801765 0.61661184 0.78233165
vn -0.16809846 0.8445819 0.5083544
vn 0.33232525 0.29185656 0.8968722
vn -0.20148738 0.5974732 0.77616274
vn -0.2754364 0.80766195 0.5213607
vn 0.02353047 0.34703627 0.93755645
vn -0.30879176 0.5353347 0.7861708
vn -0.42290837 0.72541744 0.5430636
vn 0.041139625 0.37593314 0.9257331
vn -0.38445556 0.43539277 0.8140191
vn -0.55423796 0.62354815 0.551369
vn 0.17814095 0.40550947 0.8965645
vn 0.35835207 0.29188207 0.8867855
vn -0.14807847 0.36580148 0.9188373
vn -0.19569156 0.25261056 0.94757193
vn -0.469759 0.39281887 0.79058194
vn -0.6534455 0.5134236 0.556242
vn 0.17658563 0.29967067 0.937558
vn -0.59369177 0.2757723 0.75596285
vn -0.75684637 0.34987247 0.5520624
vn -0.3774634 0.22080755 0.89931387
vn -0.62795395 0.22119993 0.74615306
vn -0.7938651 0.26255658 0.5484909
vn -0.3639736 0.21116328 0.9071567
vn -0.035310987 0.35890856 0.9327045
vn -0.22401007 0.19898441 0.954057
vn -0.402857 0.030336356 0.9147601
vn -0.20490508 0.21860813 0.95405674
vn -0.4173513 0.14051083 0.89781654
vn -0.6645249 0.19440727 0.7215348
vn -0.80172753 0.23349896 0.55019206
vn -0.1343748 0.19492432 0.9715697
vn -0.3901223 0.02630724 0.92038715
vn -0.39476085 0.11685654 0.9113223
vn -0.62732834 0.10779487 0.7712583
vn -0.8111435 0.15598443 0.56366205
vn 0.30516392 0.18214007 0.93471915
vn -0.5898095 0.0041505788 0.8075317
vn -0.80143636 -0.021607652 0.5976897
vn -0.3786475 -0.0069277813 0.925515
vn -0.567724 -0.18348332 0.8025106
vn -0.73255354 -0.25181434 0.6324199
vn -0.2989657 -0.14392838 0.9433473
vn -0.41014197 -0.03494401 0.91135204
vn -0.3487464 -0.053348098 0.93569756
vn -0.48163414 -0.31490403 0.81784105
vn -0.62830245 -0.43075052 0.6478349
vn -0.33278435 -0.21494865 0.9181784
vn -0.34254834 -0.46084106 0.81871
vn -0.44723672 -0.6078928 0.6560835
vn -0.29264715 -0.25370485 0.92194986
vn -0.28813073 -0.21967642 0.932053
vn -0.07168951 -0.2172964 0.97346956
vn -0.06653151 -0.61230344 0.7878185
vn -0.12048944 -0.7782372 0.6163029
vn -0.030610247 -0.18411925 0.9824271
vn -0.13910437 -0.3549633 0.9244733
vn 0.052736085 -0.40247887 0.913909
vn 0.09924769 -0.4504905 0.88724744
vn 0.1907455 -0.6813429 0.7066739
vn 0.20618744 -0.8276491 0.5219997
vn 0.21152773 -0.67709625 0.7048381
vn 0.25788555 -0.8277364 0.49834475
vn -0.0036623166 -0.6860129 0.7275802
vn 0.015717464 -0.85365665 0.52059907
vn 0.0703467 -0.5680839 0.8199586
vn -0.191755 -0.69832027 0.6896221
vn -0.25242394 -0.8357062 0.4877267
vn -0.028413406 -0.46093196 0.8869805
vn -0.080967665 -0.4688372 0.8795657
vn -0.16617657 -0.6888165 0.70563245
vn -0.1671834 -0.8355813 0.5233103
vn -0.1243358 -0.45138106 0.88362646
vn 0.12244262 -0.6573203 0.7435978
vn 0.19385819 -0.76560557 0.6134061
vn -0.060122646 -0.38597518 0.9205479
vn 0.052187257 -0.3808449 0.9231651
vn 0.42598322 -0.5035013 0.75168127
vn 0.34123996 -0.29536894 0.8923634
vn 0.16593017 -0.05884005 0.9843806
vn 0.14118232 -0.16449906 0.9762211
vn 0.17273623 0.013825001 0.9848711
vn 0.09180268 -0.27046388 0.9583431
vn 0.06753942 -0.5896957 0.8047964
vn 0.11032577 0.10736543 0.98807937
vn 0.26741067 -0.15531303 0.95098335
vn 0.03985859 -0.55399173 0.83156747
vn 0.015747827 -0.41454017 0.90989476
vn -0.017640177 -0.5610065 0.8276234
vn -0.16868015 -0.28712556 0.9429242
vn -0.29957613 -0.1758209 0.93773186
vn -0.39803147 -0.21189483 0.89256465
vn -0.25007644 -0.4881893 0.83614165
vn -0.029420005 -0.61708766 0.78634423
vn -0.24696277 -0.025666792 0.9686849
vn -0.050936267 -0.16153726 0.98555124
vn 0.14661261 -0.47877988 0.8656065
vn 0.2739962 -0.045259118 0.96066517
vn 0.43434572 0.27644065 0.85727733
g mdlGTDirtPile_0
f 3/3/3 2/2/2 1/1/1
f 1/1/1 4/4/4 3/3/3
f 2/2/2 3/3/3 4/4/4
f 2/2/2 5/5/5 1/1/1
f 5/5/5 6/6/6 1/1/1
f 7/7/7 5/5/5 2/2/2
f 1/1/1 6/6/6 8/8/8
f 6/6/6 9/9/9 8/8/8
f 10/10/10 7/7/7 2/2/2
f 11/11/11 7/7/7 10/10/10
f 12/12/12 4/4/4 1/1/1
f 1/1/1 8/8/8 12/12/12
f 8/8/8 9/9/9 13/13/13
f 9/9/9 14/14/14 13/13/13
f 12/12/12 8/8/8 15/15/15
f 15/15/15 4/4/4 12/12/12
f 4/4/4 15/15/15 16/16/16
f 17/17/17 16/16/16 15/15/15
f 18/18/18 2/2/2 4/4/4
f 18/18/18 10/10/10 2/2/2
f 16/16/16 18/18/18 4/4/4
f 8/8/8 19/19/19 15/15/15
f 19/19/19 8/8/8 13/13/13
f 17/17/17 15/15/15 19/19/19
f 13/13/13 14/14/14 20/20/20
f 14/14/14 21/21/21 20/20/20
f 13/13/13 22/22/22 19/19/19
f 19/19/19 22/22/22 17/17/17
f 22/22/22 13/13/13 20/20/20
f 10/10/10 18/18/18 23/23/23
f 23/23/23 18/18/18 16/16/16
f 20/20/20 21/21/21 24/24/24
f 21/21/21 25/25/25 24/24/24
f 20/20/20 26/26/26 22/22/22
f 22/22/22 26/26/26 17/17/17
f 24/24/24 27/27/27 20/20/20
f 27/27/27 26/26/26 20/20/20
f 24/24/24 25/25/25 28/28/28
f 28/28/28 27/27/27 24/24/24
f 25/25/25 29/29/29 28/28/28
f 26/26/26 27/27/27 30/30/30
f 28/28/28 30/30/30 27/27/27
f 28/28/28 29/29/29 31/31/31
f 31/31/31 30/30/30 28/28/28
f 29/29/29 32/32/32 31/31/31
f 31/31/31 32/32/32 33/33/33
f 33/33/33 30/30/30 31/31/31
f 32/32/32 34/34/34 33/33/33
f 26/26/26 30/30/30 35/35/35
f 17/17/17 26/26/26 35/35/35
f 30/30/30 33/33/33 36/36/36
f 35/35/35 30/30/30 36/36/36
f 33/33/33 34/34/34 37/37/37
f 36/36/36 33/33/33 37/37/37
f 34/34/34 38/38/38 37/37/37
f 17/17/17 35/35/35 39/39/39
f 39/39/39 35/35/35 36/36/36
f 37/37/37 38/38/38 40/40/40
f 38/38/38 41/41/41 40/40/40
f 40/40/40 41/41/41 42/42/42
f 41/41/41 43/43/43 42/42/42
f 44/44/44 37/37/37 40/40/40
f 42/42/42 44/44/44 40/40/40
f 42/42/42 43/43/43 45/45/45
f 45/45/45 44/44/44 42/42/42
f 43/43/43 46/46/46 45/45/45
f 37/37/37 47/47/47 36/36/36
f 47/47/47 37/37/37 44/44/44
f 36/36/36 47/47/47 48/48/48
f 36/36/36 48/48/48 39/39/39
f 47/47/47 44/44/44 49/49/49
f 48/48/48 47/47/47 49/49/49
f 44/44/44 50/50/50 49/49/49
f 44/44/44 45/45/45 50/50/50
f 45/45/45 46/46/46 51/51/51
f 46/46/46 52/52/52 51/51/51
f 48/48/48 49/49/49 53/53/53
f 53/53/53 49/49/49 50/50/50
f 51/51/51 54/54/54 45/45/45
f 54/54/54 50/50/50 45/45/45
f 51/51/51 52/52/52 55/55/55
f 55/55/55 54/54/54 51/51/51
f 52/52/52 56/56/56 55/55/55
f 55/55/55 56/56/56 57/57/57
f 57/57/57 54/54/54 55/55/55
f 56/56/56 58/58/58 57/57/57
f 50/50/50 54/54/54 59/59/59
f 59/59/59 54/54/54 57/57/57
f 57/57/57 58/58/58 60/60/60
f 57/57/57 60/60/60 59/59/59
f 58/58/58 61/61/61 60/60/60
f 50/50/50 59/59/59 62/62/62
f 53/53/53 50/50/50 62/62/62
f 63/63/63 48/48/48 53/53/53
f 48/48/48 63/63/63 39/39/39
f 39/39/39 63/63/63 64/64/64
f 59/59/59 60/60/60 65/65/65
f 62/62/62 59/59/59 65/65/65
f 60/60/60 61/61/61 66/66/66
f 65/65/65 60/60/60 66/66/66
f 61/61/61 67/67/67 66/66/66
f 53/53/53 68/68/68 63/63/63
f 62/62/62 68/68/68 53/53/53
f 66/66/66 67/67/67 69/69/69
f 67/67/67 70/70/70 69/69/69
f 66/66/66 71/71/71 65/65/65
f 71/71/71 66/66/66 69/69/69
f 69/69/69 70/70/70 72/72/72
f 72/72/72 71/71/71 69/69/69
f 70/70/70 73/73/73 72/72/72
f 74/74/74 62/62/62 65/65/65
f 65/65/65 71/71/71 74/74/74
f 72/72/72 73/73/73 75/75/75
f 73/73/73 76/76/76 75/75/75
f 62/62/62 74/74/74 77/77/77
f 68/68/68 62/62/62 77/77/77
f 63/63/63 68/68/68 78/78/78
f 78/78/78 64/64/64 63/63/63
f 74/74/74 71/71/71 79/79/79
f 77/77/77 74/74/74 79/79/79
f 80/80/80 71/71/71 72/72/72
f 75/75/75 80/80/80 72/72/72
f 79/79/79 71/71/71 80/80/80
f 75/75/75 76/76/76 81/81/81
f 81/81/81 80/80/80 75/75/75
f 76/76/76 82/82/82 81/81/81
f 83/83/83 68/68/68 77/77/77
f 68/68/68 83/83/83 78/78/78
f 81/81/81 82/82/82 84/84/84
f 82/82/82 85/85/85 84/84/84
f 81/81/81 86/86/86 80/80/80
f 86/86/86 81/81/81 84/84/84
f 84/84/84 85/85/85 87/87/87
f 84/84/84 87/87/87 86/86/86
f 85/85/85 88/88/88 87/87/87
f 80/80/80 86/86/86 89/89/89
f 89/89/89 79/79/79 80/80/80
f 90/90/90 77/77/77 79/79/79
f 77/77/77 90/90/90 83/83/83
f 90/90/90 79/79/79 91/91/91
f 79/79/79 89/89/89 91/91/91
f 89/89/89 92/92/92 91/91/91
f 91/91/91 93/93/93 90/90/90
f 83/83/83 90/90/90 93/93/93
f 91/91/91 92/92/92 93/93/93
f 86/86/86 94/94/94 89/89/89
f 86/86/86 87/87/87 94/94/94
f 87/87/87 88/88/88 95/95/95
f 88/88/88 96/96/96 95/95/95
f 93/93/93 97/97/97 83/83/83
f 93/93/93 92/92/92 97/97/97
f 89/89/89 94/94/94 98/98/98
f 92/92/92 89/89/89 98/98/98
f 94/94/94 87/87/87 99/99/99
f 87/87/87 95/95/95 99/99/99
f 99/99/99 98/98/98 94/94/94
f 95/95/95 96/96/96 100/100/100
f 99/99/99 95/95/95 100/100/100
f 96/96/96 101/101/101 100/100/100
f 83/83/83 97/97/97 102/102/102
f 102/102/102 78/78/78 83/83/83
f 100/100/100 101/101/101 103/103/103
f 101/101/101 104/104/104 103/103/103
f 105/105/105 99/99/99 100/100/100
f 105/105/105 100/100/100 103/103/103
f 103/103/103 104/104/104 106/106/106
f 103/103/103 106/106/106 105/105/105
f 104/104/104 107/107/107 106/106/106
f 105/105/105 106/106/106 108/108/108
f 105/105/105 108/108/108 109/109/109
f 109/109/109 99/99/99 105/105/105
f 98/98/98 99/99/99 109/109/109
f 110/110/110 98/98/98 109/109/109
f 108/108/108 110/110/110 109/109/109
f 98/98/98 110/110/110 92/92/92
f 106/106/106 107/107/107 111/111/111
f 107/107/107 112/112/112 111/111/111
f 106/106/106 113/113/113 108/108/108
f 106/106/106 111/111/111 113/113/113
f 111/111/111 112/112/112 114/114/114
f 112/112/112 115/115/115 114/114/114
f 113/113/113 111/111/111 116/116/116
f 113/113/113 116/116/116 108/108/108
f 117/117/117 111/111/111 114/114/114
f 111/111/111 117/117/117 116/116/116
f 117/117/117 118/118/118 116/116/116
f 114/114/114 118/118/118 117/117/117
f 114/114/114 115/115/115 119/119/119
f 115/115/115 120/120/120 119/119/119
f 121/121/121 108/108/108 116/116/116
f 118/118/118 121/121/121 116/116/116
f 114/114/114 122/122/122 118/118/118
f 122/122/122 114/114/114 119/119/119
f 122/122/122 123/123/123 118/118/118
f 119/119/119 123/123/123 122/122/122
f 118/118/118 123/123/123 121/121/121
f 124/124/124 121/121/121 123/123/123
f 119/119/119 120/120/120 125/125/125
f 119/119/119 125/125/125 123/123/123
f 125/125/125 124/124/124 123/123/123
f 120/120/120 126/126/126 125/125/125
f 125/125/125 126/126/126 127/127/127
f 124/124/124 125/125/125 127/127/127
f 126/126/126 128/128/128 127/127/127
f 127/127/127 128/128/128 129/129/129
f 128/128/128 130/130/130 129/129/129
f 127/127/127 131/131/131 124/124/124
f 127/127/127 129/129/129 131/131/131
f 129/129/129 130/130/130 132/132/132
f 130/130/130 133/133/133 132/132/132
f 131/131/131 129/129/129 134/134/134
f 131/131/131 134/134/134 124/124/124
f 135/135/135 129/129/129 132/132/132
f 129/129/129 135/135/135 134/134/134
f 132/132/132 133/133/133 136/136/136
f 133/133/133 137/137/137 136/136/136
f 135/135/135 132/132/132 138/138/138
f 132/132/132 136/136/136 138/138/138
f 136/136/136 137/137/137 139/139/139
f 136/136/136 139/139/139 138/138/138
f 137/137/137 140/140/140 139/139/139
f 141/141/141 135/135/135 138/138/138
f 135/135/135 141/141/141 134/134/134
f 138/138/138 139/139/139 142/142/142
f 141/141/141 138/138/138 142/142/142
f 139/139/139 140/140/140 143/143/143
f 139/139/139 143/143/143 142/142/142
f 140/140/140 11/11/11 143/143/143
f 143/143/143 11/11/11 10/10/10
f 144/144/144 143/143/143 10/10/10
f 143/143/143 144/144/144 142/142/142
f 23/23/23 144/144/144 10/10/10
f 144/144/144 23/23/23 145/145/145
f 16/16/16 145/145/145 23/23/23
f 144/144/144 146/146/146 142/142/142
f 144/144/144 145/145/145 146/146/146
f 145/145/145 16/16/16 147/147/147
f 146/146/146 145/145/145 147/147/147
f 142/142/142 146/146/146 148/148/148
f 141/141/141 142/142/142 148/148/148
f 146/146/146 147/147/147 148/148/148
f 141/141/141 148/148/148 149/149/149
f 16/16/16 150/150/150 147/147/147
f 17/17/17 150/150/150 16/16/16
f 17/17/17 39/39/39 150/150/150
f 39/39/39 64/64/64 150/150/150
f 147/147/147 150/150/150 64/64/64
f 147/147/147 151/151/151 148/148/148
f 149/149/149 148/148/148 151/151/151
f 147/147/147 64/64/64 151/151/151
f 141/141/141 149/149/149 152/152/152
f 141/141/141 152/152/152 134/134/134
f 153/153/153 134/134/134 152/152/152
f 153/153/153 152/152/152 149/149/149
f 124/124/124 134/134/134 153/153/153
f 124/124/124 153/153/153 154/154/154
f 153/153/153 149/149/149 154/154/154
f 121/121/121 124/124/124 154/154/154
f 121/121/121 154/154/154 155/155/155
f 155/155/155 108/108/108 121/121/121
f 108/108/108 155/155/155 156/156/156
f 110/110/110 108/108/108 156/156/156
f 110/110/110 156/156/156 157/157/157
f 156/156/156 155/155/155 157/157/157
f 92/92/92 110/110/110 157/157/157
f 155/155/155 154/154/154 158/158/158
f 158/158/158 157/157/157 155/155/155
f 154/154/154 149/149/149 159/159/159
f 159/159/159 158/158/158 154/154/154
f 160/160/160 92/92/92 157/157/157
f 92/92/92 160/160/160 97/97/97
f 97/97/97 160/160/160 102/102/102
f 157/157/157 158/158/158 161/161/161
f 161/161/161 160/160/160 157/157/157
f 158/158/158 159/159/159 161/161/161
f 160/160/160 161/161/161 102/102/102
f 149/149/149 162/162/162 159/159/159
f 149/149/149 151/151/151 162/162/162
f 163/163/163 161/161/161 159/159/159
f 162/162/162 163/163/163 159/159/159
f 162/162/162 151/151/151 163/163/163
f 161/161/161 163/163/163 102/102/102
f 151/151/151 64/64/64 163/163/163
f 102/102/102 163/163/163 164/164/164
f 164/164/164 163/163/163 64/64/64
f 164/164/164 78/78/78 102/102/102
f 164/164/164 64/64/64 78/78/78
