g mdlGreenhouseChainAttachUpCollision
v -1.1796389 2.283598 1.5802109
v -1.6237323 1.667539 2.9288483
v -1.308739 0.7906946 -0.4692017
v -0.5110078 1.4807378 3.2099268
v -0.21612775 0.39649144 -0.52268296
v -0.7414033 -1.0594122 -0.52268386
v -1.6237323 1.667539 2.9288483
v -1.8340145 -0.6652092 -0.46920258
v -1.308739 0.7906946 -0.4692017
v -0.5110078 1.4807378 3.2099268
v -0.06691438 2.0967968 1.8612895
v -0.21612775 0.39649144 -0.52268296
v -1.0820112 4.839399 2.0968146
v -1.503154 4.7997475 3.585652
v -1.2049017 1.7412553 1.3447164
v -0.38490826 4.751368 3.9006784
v -0.09494674 1.5018761 1.5952226
v -0.5503566 0.6708982 2.819007
v -1.503154 4.7997475 3.585652
v -1.6603116 0.91027737 2.5685008
v -1.2049017 1.7412553 1.3447164
v -0.38490826 4.751368 3.9006784
v 0.036234617 4.7910194 2.411841
v -0.09494674 1.5018761 1.5952226
v -0.9952866 7.6391935 1.8687925
v -1.4067872 7.90702 3.3366165
v -1.1055168 4.156206 2.0342982
v -0.28640407 7.926745 3.6471136
v 0.011891782 4.0832853 2.347566
v -0.41281027 3.9393055 3.82894
v -1.4067872 7.90702 3.3366165
v -1.5302188 4.012226 3.5156722
v -1.1055168 4.156206 2.0342982
v -0.28640407 7.926745 3.6471136
v 0.12509656 7.6589184 2.1792898
v 0.011891782 4.0832853 2.347566
v -0.9121134 10.281995 1.1079491
v -1.3113551 10.931976 2.4546862
v -1.0164309 6.943113 1.9757383
v -0.188546 11.02747 2.7414558
v 0.10346925 6.946977 2.2885716
v -0.31029478 7.1404614 3.7674003
v -1.3113551 10.931976 2.4546862
v -1.4301951 7.1365967 3.454567
v -1.0164309 6.943113 1.9757383
v -0.188546 11.02747 2.7414558
v 0.21069568 10.377488 1.3947186
v 0.10346925 6.946977 2.2885716
v 0.18919504 9.735349 1.658076
v 0.2911503 12.066467 -0.030480318
v -0.84357285 11.815062 -0.06590303
v -0.04172629 13.576937 -0.08745824
v -0.21431369 10.259589 3.057334
v -1.3363111 10.188036 2.760588
v -0.04172629 13.576937 -0.08745824
v -1.3363111 10.188036 2.760588
v -1.1764493 13.32553 -0.1228809
v -0.84357285 11.815062 -0.06590303
v -1.1764493 13.32553 -0.1228809
v -0.9328023 9.663795 1.3613299
v 0.18919504 9.735349 1.658076
v -0.84357285 11.815062 -0.06590303
v -0.9328023 9.663795 1.3613299
v -0.04172629 13.576937 -0.08745824
v 0.18919504 9.735349 1.658076
v -0.21431369 10.259589 3.057334
v -1.1764493 13.32553 -0.1228809
v -1.3363111 10.188036 2.760588
v -0.9328023 9.663795 1.3613299
v -0.04172629 13.576937 -0.08745824
v 0.2911503 12.066467 -0.030480318
v 0.18919504 9.735349 1.658076
v -0.7173227 13.356962 -2.8243737
v -1.0501993 14.867431 -2.8813517
v -0.8583519 11.521218 0.21596152
v 0.08452383 15.118837 -2.845929
v 0.27195078 11.752795 0.36033618
v -0.08575609 13.152541 0.91560996
v -1.0501993 14.867431 -2.8813517
v -1.2160587 12.920963 0.77123535
v -0.8583519 11.521218 0.21596152
v 0.08452383 15.118837 -2.845929
v 0.41740042 13.608368 -2.7889512
v 0.27195078 11.752795 0.36033618
v -0.5110078 1.4807378 3.2099268
v -1.6237323 1.667539 2.9288483
v -1.1796389 2.283598 1.5802109
v -0.06691438 2.0967968 1.8612895
v -0.21612775 0.39649144 -0.52268296
v -0.06691438 2.0967968 1.8612895
v -1.1796389 2.283598 1.5802109
v -1.308739 0.7906946 -0.4692017
v -1.8340145 -0.6652092 -0.46920258
v -0.7414033 -1.0594122 -0.52268386
v -0.21612775 0.39649144 -0.52268296
v -1.308739 0.7906946 -0.4692017
v -0.5110078 1.4807378 3.2099268
v -0.7414033 -1.0594122 -0.52268386
v -1.8340145 -0.6652092 -0.46920258
v -1.6237323 1.667539 2.9288483
v -0.38490826 4.751368 3.9006784
v -1.503154 4.7997475 3.585652
v -1.0820112 4.839399 2.0968146
v 0.036234617 4.7910194 2.411841
v -0.09494674 1.5018761 1.5952226
v 0.036234617 4.7910194 2.411841
v -1.0820112 4.839399 2.0968146
v -1.2049017 1.7412553 1.3447164
v -1.6603116 0.91027737 2.5685008
v -0.5503566 0.6708982 2.819007
v -0.09494674 1.5018761 1.5952226
v -1.2049017 1.7412553 1.3447164
v -0.38490826 4.751368 3.9006784
v -0.5503566 0.6708982 2.819007
v -1.6603116 0.91027737 2.5685008
v -1.503154 4.7997475 3.585652
v -0.28640407 7.926745 3.6471136
v -1.4067872 7.90702 3.3366165
v -0.9952866 7.6391935 1.8687925
v 0.12509656 7.6589184 2.1792898
v 0.011891782 4.0832853 2.347566
v 0.12509656 7.6589184 2.1792898
v -0.9952866 7.6391935 1.8687925
v -1.1055168 4.156206 2.0342982
v -1.5302188 4.012226 3.5156722
v -0.41281027 3.9393055 3.82894
v 0.011891782 4.0832853 2.347566
v -1.1055168 4.156206 2.0342982
v -0.28640407 7.926745 3.6471136
v -0.41281027 3.9393055 3.82894
v -1.5302188 4.012226 3.5156722
v -1.4067872 7.90702 3.3366165
v -0.188546 11.02747 2.7414558
v -1.3113551 10.931976 2.4546862
v -0.9121134 10.281995 1.1079491
v 0.21069568 10.377488 1.3947186
v 0.10346925 6.946977 2.2885716
v 0.21069568 10.377488 1.3947186
v -0.9121134 10.281995 1.1079491
v -1.0164309 6.943113 1.9757383
v -1.4301951 7.1365967 3.454567
v -0.31029478 7.1404614 3.7674003
v 0.10346925 6.946977 2.2885716
v -1.0164309 6.943113 1.9757383
v -0.188546 11.02747 2.7414558
v -0.31029478 7.1404614 3.7674003
v -1.4301951 7.1365967 3.454567
v -1.3113551 10.931976 2.4546862
v -0.04172629 13.576937 -0.08745824
v -1.1764493 13.32553 -0.1228809
v -0.84357285 11.815062 -0.06590303
v 0.2911503 12.066467 -0.030480318
v -1.3363111 10.188036 2.760588
v -0.21431369 10.259589 3.057334
v 0.18919504 9.735349 1.658076
v -0.9328023 9.663795 1.3613299
v 0.08452383 15.118837 -2.845929
v -1.0501993 14.867431 -2.8813517
v -0.7173227 13.356962 -2.8243737
v 0.41740042 13.608368 -2.7889512
v 0.27195078 11.752795 0.36033618
v 0.41740042 13.608368 -2.7889512
v -0.7173227 13.356962 -2.8243737
v -0.8583519 11.521218 0.21596152
v -1.2160587 12.920963 0.77123535
v -0.08575609 13.152541 0.91560996
v 0.27195078 11.752795 0.36033618
v -0.8583519 11.521218 0.21596152
v 0.08452383 15.118837 -2.845929
v -0.08575609 13.152541 0.91560996
v -1.2160587 12.920963 0.77123535
v -1.0501993 14.867431 -2.8813517
vt 0.625 0.75
vt 0.375 0.75
vt 0.625 0
vt 0.375 0.5
vt 0.875 0.5
vt 0.375 0.25
vt 0.375 0.75
vt 0.125 0.75
vt 0.625 0
vt 0.375 0.5
vt 0.625 0.5
vt 0.875 0.5
vt 0.625 0.75
vt 0.375 0.75
vt 0.625 0
vt 0.375 0.5
vt 0.875 0.5
vt 0.375 0.25
vt 0.375 0.75
vt 0.125 0.75
vt 0.625 0
vt 0.375 0.5
vt 0.625 0.5
vt 0.875 0.5
vt 0.625 0.75
vt 0.375 0.75
vt 0.625 0
vt 0.375 0.5
vt 0.875 0.5
vt 0.375 0.25
vt 0.375 0.75
vt 0.125 0.75
vt 0.625 0
vt 0.375 0.5
vt 0.625 0.5
vt 0.875 0.5
vt 0.625 0.75
vt 0.375 0.75
vt 0.625 0
vt 0.375 0.5
vt 0.875 0.5
vt 0.375 0.25
vt 0.375 0.75
vt 0.125 0.75
vt 0.625 0
vt 0.375 0.5
vt 0.625 0.5
vt 0.875 0.5
vt 0.875 0.5
vt 0.625 0.5
vt 0.625 0.75
vt 0.375 0.5
vt 0.125 0.5
vt 0.125 0.75
vt 0.375 0.5
vt 0.125 0.75
vt 0.375 0.75
vt 0.625 0.75
vt 0.375 0.75
vt 0.625 0
vt 0.875 0.5
vt 0.625 0.75
vt 0.875 0.75
vt 0.375 0.5
vt 0.875 0.5
vt 0.375 0.25
vt 0.375 0.75
vt 0.125 0.75
vt 0.625 0
vt 0.375 0.5
vt 0.625 0.5
vt 0.875 0.5
vt 0.625 0.75
vt 0.375 0.75
vt 0.625 0
vt 0.375 0.5
vt 0.875 0.5
vt 0.375 0.25
vt 0.375 0.75
vt 0.125 0.75
vt 0.625 0
vt 0.375 0.5
vt 0.625 0.5
vt 0.875 0.5
vt 0.375 0.5
vt 0.375 0.75
vt 0.625 0.75
vt 0.625 0.5
vt 0.875 0.5
vt 0.625 0.5
vt 0.625 0.75
vt 0.875 0.75
vt 0.375 0
vt 0.375 0.25
vt 0.625 0.25
vt 0.625 0
vt 0.375 0.5
vt 0.125 0.5
vt 0.125 0.75
vt 0.375 0.75
vt 0.375 0.5
vt 0.375 0.75
vt 0.625 0.75
vt 0.625 0.5
vt 0.875 0.5
vt 0.625 0.5
vt 0.625 0.75
vt 0.875 0.75
vt 0.375 0
vt 0.375 0.25
vt 0.625 0.25
vt 0.625 0
vt 0.375 0.5
vt 0.125 0.5
vt 0.125 0.75
vt 0.375 0.75
vt 0.375 0.5
vt 0.375 0.75
vt 0.625 0.75
vt 0.625 0.5
vt 0.875 0.5
vt 0.625 0.5
vt 0.625 0.75
vt 0.875 0.75
vt 0.375 0
vt 0.375 0.25
vt 0.625 0.25
vt 0.625 0
vt 0.375 0.5
vt 0.125 0.5
vt 0.125 0.75
vt 0.375 0.75
vt 0.375 0.5
vt 0.375 0.75
vt 0.625 0.75
vt 0.625 0.5
vt 0.875 0.5
vt 0.625 0.5
vt 0.625 0.75
vt 0.875 0.75
vt 0.375 0
vt 0.375 0.25
vt 0.625 0.25
vt 0.625 0
vt 0.375 0.5
vt 0.125 0.5
vt 0.125 0.75
vt 0.375 0.75
vt 0.375 0.5
vt 0.375 0.75
vt 0.625 0.75
vt 0.625 0.5
vt 0.375 0
vt 0.375 0.25
vt 0.625 0.25
vt 0.625 0
vt 0.375 0.5
vt 0.375 0.75
vt 0.625 0.75
vt 0.625 0.5
vt 0.875 0.5
vt 0.625 0.5
vt 0.625 0.75
vt 0.875 0.75
vt 0.375 0
vt 0.375 0.25
vt 0.625 0.25
vt 0.625 0
vt 0.375 0.5
vt 0.125 0.5
vt 0.125 0.75
vt 0.375 0.75
vn -0.9360679 0.3098106 -0.16671649
vn -0.9360679 0.3098106 -0.16671649
vn -0.9360679 0.3098106 -0.16671649
vn 0.92689866 -0.33441594 0.17036688
vn 0.92689866 -0.33441594 0.17036688
vn 0.92689866 -0.33441594 0.17036688
vn -0.92660534 0.33430994 -0.17216122
vn -0.92660534 0.33430994 -0.17216122
vn -0.92660534 0.33430994 -0.17216122
vn 0.9352497 -0.3132466 0.1648774
vn 0.9352497 -0.3132466 0.1648774
vn 0.9352497 -0.3132466 0.1648774
vn -0.9578324 0.103099234 -0.2681933
vn -0.9578324 0.103099234 -0.2681933
vn -0.9578324 0.103099234 -0.2681933
vn 0.95381 -0.112511784 0.27854544
vn 0.95381 -0.112511784 0.27854544
vn 0.95381 -0.112511784 0.27854544
vn -0.9537393 0.11154496 -0.27917564
vn -0.9537393 0.11154496 -0.27917564
vn -0.9537393 0.11154496 -0.27917564
vn 0.9576769 -0.10475947 0.26810503
vn 0.9576769 -0.10475947 0.26810503
vn 0.9576769 -0.10475947 0.26810503
vn -0.9618967 0.017476656 -0.272854
vn -0.9618967 0.017476656 -0.272854
vn -0.9618967 0.017476656 -0.272854
vn 0.96158093 -0.017991954 0.27393156
vn 0.96158093 -0.017991954 0.27393156
vn 0.96158093 -0.017991954 0.27393156
vn -0.9615799 0.017879864 -0.27394196
vn -0.9615799 0.017879864 -0.27394196
vn -0.9615799 0.017879864 -0.27394196
vn 0.961888 -0.017611358 0.2728762
vn 0.961888 -0.017611358 0.2728762
vn 0.961888 -0.017611358 0.2728762
vn -0.963018 -0.039195064 -0.26657075
vn -0.963018 -0.039195064 -0.26657075
vn -0.963018 -0.039195064 -0.26657075
vn 0.963593 0.039610643 0.26442283
vn 0.963593 0.039610643 0.26442283
vn 0.963593 0.039610643 0.26442283
vn -0.96359354 -0.039493665 -0.26443854
vn -0.96359354 -0.039493665 -0.26443854
vn -0.96359354 -0.039493665 -0.26443854
vn 0.96303046 0.0393393 0.26650482
vn 0.96303046 0.0393393 0.26650482
vn 0.96303046 0.0393393 0.26650482
vn 0.15427168 -0.5840184 -0.7969458
vn 0.15427168 -0.5840184 -0.7969458
vn 0.15427168 -0.5840184 -0.7969458
vn -0.2284032 0.6760265 0.70058554
vn -0.2284032 0.6760265 0.70058554
vn -0.2284032 0.6760265 0.70058554
vn -0.17126068 0.67139107 0.7210435
vn -0.17126068 0.67139107 0.7210435
vn -0.17126068 0.67139107 0.7210435
vn -0.9013364 -0.21286488 -0.3772018
vn -0.9013364 -0.21286488 -0.3772018
vn -0.9013364 -0.21286488 -0.3772018
vn 0.24692456 -0.54280835 -0.80273736
vn 0.24692456 -0.54280835 -0.80273736
vn 0.24692456 -0.54280835 -0.80273736
vn 0.9630137 0.15729474 0.21877627
vn 0.9630137 0.15729474 0.21877627
vn 0.9630137 0.15729474 0.21877627
vn -0.9632912 -0.15339693 -0.22031647
vn -0.9632912 -0.15339693 -0.22031647
vn -0.9632912 -0.15339693 -0.22031647
vn 0.91168195 0.21414451 0.3506824
vn 0.91168195 0.21414451 0.3506824
vn 0.91168195 0.21414451 0.3506824
vn -0.95985854 -0.21818228 -0.17626163
vn -0.95985854 -0.21818228 -0.17626163
vn -0.95985854 -0.21818228 -0.17626163
vn 0.97097945 0.19107538 0.14383708
vn 0.97097945 0.19107538 0.14383708
vn 0.97097945 0.19107538 0.14383708
vn -0.97086436 -0.19037235 -0.14553557
vn -0.97086436 -0.19037235 -0.14553557
vn -0.97086436 -0.19037235 -0.14553557
vn 0.96046495 0.21818963 0.17291726
vn 0.96046495 0.21818963 0.17291726
vn 0.96046495 0.21818963 0.17291726
vn 0.043766078 0.9031954 0.42699248
vn 0.043766078 0.9031954 0.42699248
vn 0.043766078 0.9031954 0.42699248
vn 0.043765943 0.9031953 0.4269927
vn 0.27399248 0.7747967 -0.56975275
vn 0.27399248 0.7747967 -0.56975275
vn 0.27399248 0.7747967 -0.56975275
vn 0.25113294 0.7747812 -0.58021235
vn -0.04326439 0.015609973 -0.9989417
vn -0.04326439 0.015609973 -0.9989417
vn -0.04326439 0.015609973 -0.9989417
vn -0.04326433 0.015609958 -0.9989417
vn -0.25831288 -0.79117465 0.5543619
vn -0.25831288 -0.79117465 0.5543619
vn -0.25831288 -0.79117465 0.5543619
vn -0.27228212 -0.7853345 0.55597854
vn 0.033081986 0.9988055 0.035958573
vn 0.033081986 0.9988055 0.035958573
vn 0.033081986 0.9988055 0.035958573
vn 0.033081975 0.9988055 0.035958845
vn 0.27329078 0.22150746 -0.93608046
vn 0.27329078 0.22150746 -0.93608046
vn 0.27329078 0.22150746 -0.93608046
vn 0.25937334 0.21810478 -0.9408272
vn -0.04710965 -0.81814903 -0.57307315
vn -0.04710965 -0.81814903 -0.57307315
vn -0.04710965 -0.81814903 -0.57307315
vn -0.04710951 -0.81814903 -0.57307315
vn -0.26228186 -0.23731424 0.93535566
vn -0.26228186 -0.23731424 0.93535566
vn -0.26228186 -0.23731424 0.93535566
vn -0.27302158 -0.2330529 0.93335176
vn 0.030119816 0.9847686 -0.17124127
vn 0.030119816 0.9847686 -0.17124127
vn 0.030119816 0.9847686 -0.17124127
vn 0.030119747 0.98476845 -0.1712421
vn 0.26756126 -0.05374644 -0.96204066
vn 0.26756126 -0.05374644 -0.96204066
vn 0.26756126 -0.05374644 -0.96204066
vn 0.26626974 -0.054157432 -0.962376
vn -0.034960367 -0.99368685 -0.10660356
vn -0.034960367 -0.99368685 -0.10660356
vn -0.034960367 -0.99368685 -0.10660356
vn -0.03496052 -0.993687 -0.10660212
vn -0.26640657 0.05233241 0.962439
vn -0.26640657 0.05233241 0.962439
vn -0.26640657 0.05233241 0.962439
vn -0.26755863 0.052709963 0.96209884
vn 0.03211092 0.90382385 -0.42669806
vn 0.03211092 0.90382385 -0.42669806
vn 0.03211092 0.90382385 -0.42669806
vn 0.03211103 0.9038249 -0.4266959
vn 0.2595247 -0.2510899 -0.93252385
vn 0.2595247 -0.2510899 -0.93252385
vn 0.2595247 -0.2510899 -0.93252385
vn 0.26126802 -0.25044808 -0.93220955
vn -0.030456701 -0.99215007 0.12128736
vn -0.030456701 -0.99215007 0.12128736
vn -0.030456701 -0.99215007 0.12128736
vn -0.030456824 -0.99215007 0.12128788
vn -0.26103058 0.25398964 0.9313175
vn -0.26103058 0.25398964 0.9313175
vn -0.26103058 0.25398964 0.9313175
vn -0.25956285 0.25361496 0.93182963
vn 0.037689216 -0.029373009 -0.99885774
vn 0.037689216 -0.029373009 -0.99885774
vn 0.037689216 -0.029373009 -0.99885774
vn 0.03768918 -0.029372986 -0.99885774
vn -0.03080779 -0.93887764 0.34286964
vn -0.03080779 -0.93887764 0.34286964
vn -0.03080779 -0.93887764 0.34286964
vn -0.030807752 -0.9388765 0.3428729
vn 0.037689555 -0.029373046 -0.99885774
vn 0.037689555 -0.029373046 -0.99885774
vn 0.037689555 -0.029373046 -0.99885774
vn 0.03768872 -0.029372908 -0.99885774
vn 0.20310909 -0.8476846 -0.4900791
vn 0.20310909 -0.8476846 -0.4900791
vn 0.20310909 -0.8476846 -0.4900791
vn 0.23462927 -0.83693653 -0.4944557
vn -0.0408392 -0.37743366 0.9251356
vn -0.0408392 -0.37743366 0.9251356
vn -0.0408392 -0.37743366 0.9251356
vn -0.040839445 -0.37743443 0.9251353
vn -0.2338837 0.8659491 0.44207543
vn -0.2338837 0.8659491 0.44207543
vn -0.2338837 0.8659491 0.44207543
vn -0.20631237 0.8673827 0.45286033
g mdlGreenhouseChainAttachUpCollision_0
f 3/3/3 2/2/2 1/1/1
f 6/6/6 5/5/5 4/4/4
f 9/9/9 8/8/8 7/7/7
f 12/12/12 11/11/11 10/10/10
f 15/15/15 14/14/14 13/13/13
f 18/18/18 17/17/17 16/16/16
f 21/21/21 20/20/20 19/19/19
f 24/24/24 23/23/23 22/22/22
f 27/27/27 26/26/26 25/25/25
f 30/30/30 29/29/29 28/28/28
f 33/33/33 32/32/32 31/31/31
f 36/36/36 35/35/35 34/34/34
f 39/39/39 38/38/38 37/37/37
f 42/42/42 41/41/41 40/40/40
f 45/45/45 44/44/44 43/43/43
f 48/48/48 47/47/47 46/46/46
f 51/51/51 50/50/50 49/49/49
f 54/54/54 53/53/53 52/52/52
f 57/57/57 56/56/56 55/55/55
f 60/60/60 59/59/59 58/58/58
f 63/63/63 62/62/62 61/61/61
f 66/66/66 65/65/65 64/64/64
f 69/69/69 68/68/68 67/67/67
f 72/72/72 71/71/71 70/70/70
f 75/75/75 74/74/74 73/73/73
f 78/78/78 77/77/77 76/76/76
f 81/81/81 80/80/80 79/79/79
f 84/84/84 83/83/83 82/82/82
f 87/87/87 86/86/86 85/85/85
f 88/88/88 87/87/87 85/85/85
f 91/91/91 90/90/90 89/89/89
f 92/92/92 91/91/91 89/89/89
f 95/95/95 94/94/94 93/93/93
f 96/96/96 95/95/95 93/93/93
f 99/99/99 98/98/98 97/97/97
f 100/100/100 99/99/99 97/97/97
f 103/103/103 102/102/102 101/101/101
f 104/104/104 103/103/103 101/101/101
f 107/107/107 106/106/106 105/105/105
f 108/108/108 107/107/107 105/105/105
f 111/111/111 110/110/110 109/109/109
f 112/112/112 111/111/111 109/109/109
f 115/115/115 114/114/114 113/113/113
f 116/116/116 115/115/115 113/113/113
f 119/119/119 118/118/118 117/117/117
f 120/120/120 119/119/119 117/117/117
f 123/123/123 122/122/122 121/121/121
f 124/124/124 123/123/123 121/121/121
f 127/127/127 126/126/126 125/125/125
f 128/128/128 127/127/127 125/125/125
f 131/131/131 130/130/130 129/129/129
f 132/132/132 131/131/131 129/129/129
f 135/135/135 134/134/134 133/133/133
f 136/136/136 135/135/135 133/133/133
f 139/139/139 138/138/138 137/137/137
f 140/140/140 139/139/139 137/137/137
f 143/143/143 142/142/142 141/141/141
f 144/144/144 143/143/143 141/141/141
f 147/147/147 146/146/146 145/145/145
f 148/148/148 147/147/147 145/145/145
f 151/151/151 150/150/150 149/149/149
f 152/152/152 151/151/151 149/149/149
f 155/155/155 154/154/154 153/153/153
f 156/156/156 155/155/155 153/153/153
f 159/159/159 158/158/158 157/157/157
f 160/160/160 159/159/159 157/157/157
f 163/163/163 162/162/162 161/161/161
f 164/164/164 163/163/163 161/161/161
f 167/167/167 166/166/166 165/165/165
f 168/168/168 167/167/167 165/165/165
f 171/171/171 170/170/170 169/169/169
f 172/172/172 171/171/171 169/169/169
