g mdlGTLRampLeftCollision
v -3.3848588 -5.1110573 0
v -3.3848588 4.8889503 0
v 1.6151407 4.8889503 0
v 1.6151407 -5.1110573 0
v -18.38486 -5.1110535 -15.035999
v -18.38486 4.888954 -15.035999
v -13.38486 4.888954 -15.035999
v -13.38486 -5.1110535 -15.035999
v -18.38486 4.888954 -15.035999
v -18.38486 -5.1110535 -15.035999
v -18.38486 -5.1110535 -22.036
v -18.38486 -5.1110535 -30.036
v -18.38486 4.888954 -30.036
v -18.38486 4.888954 -27.035997
v 1.6151409 4.8889503 -30.036
v 1.6151409 -5.1110573 -30.036
v 1.6151409 -5.1110573 -22.036
v 1.6151407 -5.1110573 0
v 1.6151407 4.8889503 0
v 1.6151409 4.8889503 -27.035997
v -3.384859 -5.1110554 -30.036
v 1.6151409 -5.1110573 -30.036
v 1.6151409 4.8889503 -30.036
v -3.384859 4.8889513 -30.036
v -13.38486 -5.1110544 -30.036
v -13.38486 4.8889523 -30.036
v -18.38486 -5.1110535 -30.036
v -18.38486 4.888954 -30.036
v -18.38486 4.888954 -15.035999
v -13.38486 4.888954 -27.035997
v -13.38486 4.888954 -15.035999
v -18.38486 4.888954 -27.035997
v -13.38486 4.8889523 -30.036
v -18.38486 4.888954 -30.036
v -3.3848588 4.8889503 0
v 1.6151409 4.8889503 -27.035997
v 1.6151407 4.8889503 0
v -3.384859 4.8889503 -27.035997
v -3.384859 4.8889513 -30.036
v 1.6151409 4.8889503 -30.036
v -13.38486 -5.1110535 -15.035999
v -18.38486 -5.1110535 -22.036
v -18.38486 -5.1110535 -15.035999
v -13.38486 -5.1110535 -22.036
v -18.38486 -5.1110535 -30.036
v -13.38486 -5.1110544 -30.036
v -13.38486 -5.1110535 -22.036
v -3.384859 -5.1110573 -22.036
v -3.384859 -5.1110554 -30.036
v 1.6151409 -5.1110573 -30.036
v 1.6151409 -5.1110573 -22.036
v 1.6151407 -5.1110573 0
v -3.3848588 -5.1110573 0
v -3.384859 4.8889503 -27.035997
v -3.384859 -5.1110573 -22.036
v -13.38486 -5.1110535 -22.036
v -13.38486 4.888954 -27.035997
v -13.38486 4.8889523 -30.036
v -3.384859 4.8889513 -30.036
v -3.384859 4.8889503 -27.035997
v -13.38486 4.888954 -27.035997
v -13.38486 4.888954 -15.035999
v -13.38486 4.888954 -27.035997
v -13.38486 -5.1110535 -22.036
v -13.38486 -5.1110535 -15.035999
v -3.3848588 -5.1110573 0
v -3.384859 -5.1110573 -22.036
v -3.384859 4.8889503 -27.035997
v -3.3848588 4.8889503 0
vt 0 0
vt 0 1
vt 1 1
vt 1 0
vt 0 0
vt 0 1
vt 1 1
vt 1 0
vt 0 1
vt 0 0
vt 0 0
vt 0 0
vt 0 1
vt 0 1
vt 1 1
vt 1 0
vt 1 0
vt 1 0
vt 1 1
vt 1 1
vt 0.5 0
vt 1 0
vt 1 1
vt 0.75 1
vt 0.25 0
vt 0.5 1
vt 0 0
vt 0 1
vt 0 1
vt 1 1
vt 1 1
vt 0 1
vt 0.5 1
vt 0 1
vt 0 1
vt 1 1
vt 1 1
vt 0 1
vt 0.75 1
vt 1 1
vt 1 0
vt 0 0
vt 0 0
vt 1 0
vt 0 0
vt 0.25 0
vt 0 0
vt 0 0
vt 0.5 0
vt 1 0
vt 1 0
vt 1 0
vt 0 0
vt 0 0
vt 0 0
vt 0 0
vt 0 0
vt 0.5 1
vt 0.75 1
vt 0 0
vt 0 0
vt 1 1
vt 1 1
vt 0 0
vt 1 0
vt 0 0
vt 0 0
vt 0 0
vt 0 1
vn -0 0 1
vn -0 0 1
vn -0 0 1
vn -0 0 1
vn -0 0 1
vn -0 0 1
vn -0 0 1
vn -0 0 1
vn -1 0 0
vn -1 0 0
vn -1 0 0
vn -1 0 0
vn -1 0 0
vn -1 0 0
vn 1 0 0
vn 1 0 0
vn 1 0 0
vn 1 0 0
vn 1 0 0
vn 1 0 0
vn -0 0 -1
vn -0 0 -1
vn -0 0 -1
vn -0 0 -1
vn -0 0 -1
vn -0 0 -1
vn -0 0 -1
vn -0 0 -1
vn -0 1 0
vn -0 1 0
vn -0 1 0
vn -0 1 0
vn -0 1 0
vn -0 1 0
vn -0 1 0
vn -0 1 0
vn -0 1 0
vn -0 1 0
vn -0 1 0
vn -0 1 0
vn -0 -1 0
vn -0 -1 0
vn -0 -1 0
vn -0 -1 0
vn -0 -1 0
vn -0 -1 0
vn -0 -1 0
vn -0 -1 0
vn -0 -1 0
vn -0 -1 0
vn -0 -1 0
vn -0 -1 0
vn -0 -1 0
vn -0 0.4472132 0.89442736
vn -0 0.4472132 0.89442736
vn -0 0.4472132 0.89442736
vn -0 0.4472132 0.89442736
vn -0 1 0
vn -0 1 0
vn -0 1 0
vn -0 1 0
vn 1 0 0
vn 1 0 0
vn 1 0 0
vn 1 0 0
vn -1 0 0
vn -1 0 0
vn -1 0 0
vn -1 0 0
g mdlGTLRampLeftCollision_0
f 3/3/3 2/2/2 1/1/1
f 4/4/4 3/3/3 1/1/1
f 7/7/7 6/6/6 5/5/5
f 8/8/8 7/7/7 5/5/5
f 11/11/11 10/10/10 9/9/9
f 9/9/9 12/12/12 11/11/11
f 9/9/9 13/13/13 12/12/12
f 9/9/9 14/14/14 13/13/13
f 17/17/17 16/16/16 15/15/15
f 15/15/15 18/18/18 17/17/17
f 15/15/15 19/19/19 18/18/18
f 15/15/15 20/20/20 19/19/19
f 23/23/23 22/22/22 21/21/21
f 21/21/21 24/24/24 23/23/23
f 21/21/21 25/25/25 24/24/24
f 25/25/25 26/26/26 24/24/24
f 25/25/25 27/27/27 26/26/26
f 27/27/27 28/28/28 26/26/26
f 31/31/31 30/30/30 29/29/29
f 30/30/30 32/32/32 29/29/29
f 30/30/30 33/33/33 32/32/32
f 33/33/33 34/34/34 32/32/32
f 37/37/37 36/36/36 35/35/35
f 36/36/36 38/38/38 35/35/35
f 39/39/39 38/38/38 36/36/36
f 40/40/40 39/39/39 36/36/36
f 43/43/43 42/42/42 41/41/41
f 42/42/42 44/44/44 41/41/41
f 44/44/44 42/42/42 45/45/45
f 46/46/46 44/44/44 45/45/45
f 48/48/48 47/47/47 46/46/46
f 49/49/49 48/48/48 46/46/46
f 49/49/49 50/50/50 48/48/48
f 50/50/50 51/51/51 48/48/48
f 48/48/48 51/51/51 52/52/52
f 53/53/53 48/48/48 52/52/52
f 56/56/56 55/55/55 54/54/54
f 57/57/57 56/56/56 54/54/54
f 60/60/60 59/59/59 58/58/58
f 61/61/61 60/60/60 58/58/58
f 64/64/64 63/63/63 62/62/62
f 65/65/65 64/64/64 62/62/62
f 68/68/68 67/67/67 66/66/66
f 69/69/69 68/68/68 66/66/66
