g mdlGreaterWispBeams
v 0.9346152 -1.5598246 0.6475701
v 0.18941262 -0.2896881 0.7017939
v 0.6013246 -0.034623418 0.3881086
v 1.3465272 -1.3047597 0.33388487
v 0.7435575 -1.2596593 0.44968882
v 0.24613516 -0.42829832 0.653968
v 0.51633275 -0.3306345 0.9144369
v 1.0137551 -1.1619955 0.71015793
v -0.30802962 -1.3273525 0.48096856
v -0.20570537 -0.34586847 0.40010726
v -0.023520939 -0.33666795 0.7423253
v -0.12584533 -1.3181522 0.82318676
v -0.12386963 -1.4449987 0.7174773
v -0.07043762 -0.17528412 0.5760079
v -0.13360064 -0.11764416 1.0694824
v -0.1870329 -1.387359 1.210952
v -0.36673346 -1.4870414 -0.6536421
v 0.11869039 -0.3451775 -0.3445243
v -0.31907198 -0.21466276 -0.13919751
v -0.8044962 -1.3565271 -0.44831544
v 0.29620302 -1.1318859 -0.48320162
v 0.2463385 -0.4315692 -0.32245955
v -0.0131107345 -0.42466792 -0.4330116
v 0.036753733 -1.124985 -0.59375393
v -1.2084123 -0.7070622 0.5266854
v -0.5928093 -0.3342838 0.55562145
v -0.69671935 -0.14833127 0.3706683
v -1.3123226 -0.5211098 0.3417321
v -0.92927665 -0.54018635 0.584253
v -0.54773676 -0.35914508 0.5440623
v -0.5910628 -0.24322313 0.65493566
v -0.9726029 -0.42426452 0.69512635
vt 0.9999001 0.0001000762
vt 0.000100016594 9.995699E-05
vt 9.9897385E-05 0.9999
vt 0.9999 0.9999001
vt 0.9999001 0.0001000762
vt 0.000100016594 9.995699E-05
vt 9.9897385E-05 0.9999
vt 0.9999 0.9999001
vt 0.9999001 0.0001000762
vt 0.000100016594 9.995699E-05
vt 9.9897385E-05 0.9999
vt 0.9999 0.9999001
vt 0.9999001 0.0001000762
vt 0.000100016594 9.995699E-05
vt 9.9897385E-05 0.9999
vt 0.9999 0.9999001
vt 0.9999001 0.0001000762
vt 0.000100016594 9.995699E-05
vt 9.9897385E-05 0.9999
vt 0.9999 0.9999001
vt 0.9999001 0.0001000762
vt 0.000100016594 9.995699E-05
vt 9.9897385E-05 0.9999
vt 0.9999 0.9999001
vt 0.9999001 0.0001000762
vt 0.000100016594 9.995699E-05
vt 9.9897385E-05 0.9999
vt 0.9999 0.9999001
vt 0.9999001 0.0001000762
vt 0.000100016594 9.995699E-05
vt 9.9897385E-05 0.9999
vt 0.9999 0.9999001
vn 0.48470512 0.24858025 0.83861125
vn 0.48470512 0.24858025 0.83861125
vn 0.48470512 0.24858025 0.83861125
vn 0.48470512 0.24858025 0.83861125
vn -0.51200736 -0.48118618 0.7115535
vn -0.51200736 -0.48118618 0.7115535
vn -0.51200736 -0.48118618 0.7115535
vn -0.51200736 -0.48118618 0.7115535
vn -0.87670827 0.12956618 0.46324414
vn -0.87670827 0.12956618 0.46324414
vn -0.87670827 0.12956618 0.46324414
vn -0.87670827 0.12956618 0.46324414
vn -0.9911349 0.02721993 -0.13004145
vn -0.9911349 0.02721993 -0.13004145
vn -0.9911349 0.02721993 -0.13004145
vn -0.9911349 0.02721993 -0.13004145
vn -0.3031071 0.3669417 -0.8794771
vn -0.3031071 0.3669417 -0.8794771
vn -0.3031071 0.3669417 -0.8794771
vn -0.3031071 0.3669417 -0.8794771
vn 0.38649374 0.23238137 -0.8925365
vn 0.38649374 0.23238137 -0.8925365
vn 0.38649374 0.23238137 -0.8925365
vn 0.38649374 0.23238137 -0.8925365
vn 0.36580592 -0.5455592 -0.7540233
vn 0.36580592 -0.5455592 -0.7540233
vn 0.36580592 -0.5455592 -0.7540233
vn 0.36580592 -0.5455592 -0.7540233
vn -0.35086748 0.57544273 -0.7387541
vn -0.35086748 0.57544273 -0.7387541
vn -0.35086748 0.57544273 -0.7387541
vn -0.35086748 0.57544273 -0.7387541
g mdlGreaterWispBeams_0
f 3/3/3 2/2/2 1/1/1
f 4/4/4 3/3/3 1/1/1
f 7/7/7 6/6/6 5/5/5
f 8/8/8 7/7/7 5/5/5
f 11/11/11 10/10/10 9/9/9
f 12/12/12 11/11/11 9/9/9
f 15/15/15 14/14/14 13/13/13
f 16/16/16 15/15/15 13/13/13
f 19/19/19 18/18/18 17/17/17
f 20/20/20 19/19/19 17/17/17
f 23/23/23 22/22/22 21/21/21
f 24/24/24 23/23/23 21/21/21
f 27/27/27 26/26/26 25/25/25
f 28/28/28 27/27/27 25/25/25
f 31/31/31 30/30/30 29/29/29
f 32/32/32 31/31/31 29/29/29
