g mdlLunarTool5Collision
v 0.026618786 0.12547259 0.0897782
v -0.012901105 0.056197613 0.13804217
v -0.09699308 0.09687308 0.0897782
v 0.026618786 -0.12687622 -0.05163394
v -0.0055623613 -0.056876764 -0.11784683
v -0.09699308 -0.09922631 -0.051633935
v 0.04118675 0.015920918 0.5006217
v 0.025482249 1.8626451E-09 0.5693687
v 0.009777745 0.015920918 0.5006217
v 0.04118675 -0.015920915 0.5006217
v 0.025482249 1.8626451E-09 0.5693687
v 0.04118675 0.015920918 0.5006217
v 0.009777745 0.015920918 0.5006217
v 0.025482249 1.8626451E-09 0.5693687
v 0.009777745 -0.015920915 0.5006217
v 0.009777745 -0.015920915 0.5006217
v 0.025482249 1.8626451E-09 0.5693687
v 0.04118675 -0.015920915 0.5006217
v -0.09699308 0.09922631 -0.051633935
v -0.0055623613 0.056876764 -0.11784683
v 0.026618786 0.12687622 -0.05163394
v -0.09699308 -0.09687308 0.0897782
v -0.012901105 -0.056197613 0.13804217
v 0.026618786 -0.12547259 0.0897782
v -0.09699308 -0.09922631 -0.051633935
v -0.09699308 0.09922631 -0.051633935
v -0.09699308 0.09687308 0.0897782
v -0.09699308 -0.09687308 0.0897782
v 0.026618786 0.12687622 -0.05163394
v 0.08256333 0.11348835 -0.051633935
v 0.08256333 0.11348835 0.08977821
v 0.026618786 0.12547259 0.0897782
v 0.08256333 0.11348835 -0.051633935
v 0.08256333 -0.11348835 -0.051633935
v 0.08256333 -0.11348835 0.08977821
v 0.08256333 0.11348835 0.08977821
v 0.026618786 -0.12687622 -0.05163394
v -0.09699308 -0.09922631 -0.051633935
v -0.09699308 -0.09687308 0.0897782
v 0.026618786 -0.12547259 0.0897782
v -0.09699308 -0.09922631 -0.051633935
v -0.0055623613 -0.056876764 -0.11784683
v -0.0055623613 0.056876764 -0.11784683
v -0.09699308 0.09922631 -0.051633935
v -0.09699308 0.09687308 0.0897782
v -0.012901105 0.056197613 0.13804217
v -0.012901105 -0.056197613 0.13804217
v -0.09699308 -0.09687308 0.0897782
v 0.0013030274 -0.02451269 0.12817265
v 0.0013030274 0.024512693 0.12817265
v 0.0013030274 0.024512693 0.41392046
v 0.0013030274 -0.02451269 0.41392046
v 0.0013030274 0.024512693 0.12817265
v 0.049662 0.024512693 0.12817265
v 0.049662 0.024512693 0.41392046
v 0.0013030274 0.024512693 0.41392046
v 0.049662 0.024512693 0.12817265
v 0.049662 -0.02451269 0.12817265
v 0.049662 -0.02451269 0.41392046
v 0.049662 0.024512693 0.41392046
v 0.049662 -0.02451269 0.12817265
v 0.0013030274 -0.02451269 0.12817265
v 0.0013030274 -0.02451269 0.41392046
v 0.049662 -0.02451269 0.41392046
v 0.0013030274 0.024512693 0.12817265
v 0.0013030274 -0.02451269 0.12817265
v 0.049662 -0.02451269 0.12817265
v 0.049662 0.024512693 0.12817265
v 0.0669119 -0.042000398 0.43516192
v 0.072427735 -0.04759228 0.45640337
v 0.072427735 0.04759228 0.45640337
v 0.0669119 0.0420004 0.43516192
v 0.07601236 0.056197613 0.13804217
v 0.07601236 -0.056197613 0.13804217
v -0.012901105 -0.056197613 0.13804217
v -0.012901105 0.056197613 0.13804217
v 0.026618786 -0.12547259 0.0897782
v -0.012901105 -0.056197613 0.13804217
v 0.07601236 -0.056197613 0.13804217
v 0.08256333 -0.11348835 0.08977821
v 0.08256333 -0.11348835 0.08977821
v 0.07601236 -0.056197613 0.13804217
v 0.07601236 0.056197613 0.13804217
v 0.08256333 0.11348835 0.08977821
v -0.0055623613 0.056876764 -0.11784683
v -0.0055623613 -0.056876764 -0.11784683
v 0.08442563 -0.056876764 -0.11784683
v 0.08442563 0.056876764 -0.11784683
v 0.08256333 0.11348835 -0.051633935
v 0.08442563 0.056876764 -0.11784683
v 0.08442563 -0.056876764 -0.11784683
v 0.08256333 -0.11348835 -0.051633935
v 0.026618786 0.12687622 -0.05163394
v -0.0055623613 0.056876764 -0.11784683
v 0.08442563 0.056876764 -0.11784683
v 0.08256333 0.11348835 -0.051633935
v 0.072427735 -0.04759228 0.45640337
v 0.059153922 -0.034135606 0.4835791
v 0.059153922 0.034135606 0.4835791
v 0.072427735 0.04759228 0.45640337
v -0.01594707 0.0420004 0.43516192
v -0.02146297 0.04759228 0.45640337
v -0.02146297 -0.04759228 0.45640337
v -0.01594707 -0.042000398 0.43516192
v -0.01594707 -0.042000398 0.43516192
v -0.02146297 -0.04759228 0.45640337
v 0.072427735 -0.04759228 0.45640337
v 0.0669119 -0.042000398 0.43516192
v 0.0669119 0.0420004 0.43516192
v 0.072427735 0.04759228 0.45640337
v -0.02146297 0.04759228 0.45640337
v -0.01594707 0.0420004 0.43516192
v -0.008189272 -0.034135606 0.4835791
v 0.009777745 -0.015920915 0.5006217
v 0.04118675 -0.015920915 0.5006217
v 0.059153922 -0.034135606 0.4835791
v -0.02146297 0.04759228 0.45640337
v -0.008189272 0.034135606 0.4835791
v -0.008189272 -0.034135606 0.4835791
v -0.02146297 -0.04759228 0.45640337
v -0.02146297 -0.04759228 0.45640337
v -0.008189272 -0.034135606 0.4835791
v 0.059153922 -0.034135606 0.4835791
v 0.072427735 -0.04759228 0.45640337
v 0.072427735 0.04759228 0.45640337
v 0.059153922 0.034135606 0.4835791
v -0.008189272 0.034135606 0.4835791
v -0.02146297 0.04759228 0.45640337
v 0.059153922 0.034135606 0.4835791
v 0.04118675 0.015920918 0.5006217
v 0.009777745 0.015920918 0.5006217
v -0.008189272 0.034135606 0.4835791
v 0.059153922 -0.034135606 0.4835791
v 0.04118675 -0.015920915 0.5006217
v 0.04118675 0.015920918 0.5006217
v 0.059153922 0.034135606 0.4835791
v -0.008189272 0.034135606 0.4835791
v 0.009777745 0.015920918 0.5006217
v 0.009777745 -0.015920915 0.5006217
v -0.008189272 -0.034135606 0.4835791
v 0.0013030274 -0.02451269 0.41392046
v -0.01594707 -0.042000398 0.43516192
v 0.0669119 -0.042000398 0.43516192
v 0.049662 -0.02451269 0.41392046
v 0.049662 0.024512693 0.41392046
v 0.0669119 0.0420004 0.43516192
v -0.01594707 0.0420004 0.43516192
v 0.0013030274 0.024512693 0.41392046
v 0.0013030274 0.024512693 0.41392046
v -0.01594707 0.0420004 0.43516192
v -0.01594707 -0.042000398 0.43516192
v 0.0013030274 -0.02451269 0.41392046
v 0.049662 -0.02451269 0.41392046
v 0.0669119 -0.042000398 0.43516192
v 0.0669119 0.0420004 0.43516192
v 0.049662 0.024512693 0.41392046
v 0.08256333 -0.11348835 -0.051633935
v 0.026618786 -0.12687622 -0.05163394
v 0.026618786 -0.12547259 0.0897782
v 0.08256333 -0.11348835 0.08977821
v -0.09699308 0.09922631 -0.051633935
v 0.026618786 0.12687622 -0.05163394
v 0.026618786 0.12547259 0.0897782
v -0.09699308 0.09687308 0.0897782
v 0.08256333 0.11348835 0.08977821
v 0.07601236 0.056197613 0.13804217
v -0.012901105 0.056197613 0.13804217
v 0.026618786 0.12547259 0.0897782
v 0.08256333 -0.11348835 -0.051633935
v 0.08442563 -0.056876764 -0.11784683
v -0.0055623613 -0.056876764 -0.11784683
v 0.026618786 -0.12687622 -0.05163394
vt 0.625 0.375
vt 0.625 0.25
vt 0.625 0.25
vt 0.375 0.875
vt 0.375 1
vt 0.375 1
vt 0.625 0.5
vt 0.625 0.5
vt 0.625 0.25
vt 0.625 0.75
vt 0.625 0.75
vt 0.625 0.5
vt 0.625 0.25
vt 0.625 0.25
vt 0.625 0
vt 0.625 1
vt 0.625 1
vt 0.625 0.75
vt 0.375 0.25
vt 0.375 0.25
vt 0.375 0.375
vt 0.625 1
vt 0.625 1
vt 0.625 0.875
vt 0.375 0
vt 0.375 0.25
vt 0.625 0.25
vt 0.625 0
vt 0.375 0.375
vt 0.375 0.5
vt 0.625 0.5
vt 0.625 0.375
vt 0.375 0.5
vt 0.375 0.75
vt 0.625 0.75
vt 0.625 0.5
vt 0.375 0.875
vt 0.375 1
vt 0.625 1
vt 0.625 0.875
vt 0.375 0
vt 0.375 0
vt 0.375 0.25
vt 0.375 0.25
vt 0.625 0.25
vt 0.625 0.25
vt 0.625 0
vt 0.625 0
vt 0.375 0
vt 0.375 0.25
vt 0.625 0.25
vt 0.625 0
vt 0.375 0.25
vt 0.375 0.5
vt 0.625 0.5
vt 0.625 0.25
vt 0.375 0.5
vt 0.375 0.75
vt 0.625 0.75
vt 0.625 0.5
vt 0.375 0.75
vt 0.375 1
vt 0.625 1
vt 0.625 0.75
vt 0.125 0.5
vt 0.125 0.75
vt 0.375 0.75
vt 0.375 0.5
vt 0.625 0.75
vt 0.625 0.75
vt 0.625 0.5
vt 0.625 0.5
vt 0.625 0.5
vt 0.625 0.75
vt 0.875 0.75
vt 0.875 0.5
vt 0.625 0.875
vt 0.625 1
vt 0.625 0.75
vt 0.625 0.75
vt 0.625 0.75
vt 0.625 0.75
vt 0.625 0.5
vt 0.625 0.5
vt 0.125 0.5
vt 0.125 0.75
vt 0.375 0.75
vt 0.375 0.5
vt 0.375 0.5
vt 0.375 0.5
vt 0.375 0.75
vt 0.375 0.75
vt 0.375 0.375
vt 0.375 0.25
vt 0.375 0.5
vt 0.375 0.5
vt 0.625 0.75
vt 0.625 0.75
vt 0.625 0.5
vt 0.625 0.5
vt 0.625 0.25
vt 0.625 0.25
vt 0.625 0
vt 0.625 0
vt 0.625 1
vt 0.625 1
vt 0.625 0.75
vt 0.625 0.75
vt 0.625 0.5
vt 0.625 0.5
vt 0.625 0.25
vt 0.625 0.25
vt 0.625 1
vt 0.625 1
vt 0.625 0.75
vt 0.625 0.75
vt 0.625 0.25
vt 0.625 0.25
vt 0.625 0
vt 0.625 0
vt 0.625 1
vt 0.625 1
vt 0.625 0.75
vt 0.625 0.75
vt 0.625 0.5
vt 0.625 0.5
vt 0.625 0.25
vt 0.625 0.25
vt 0.625 0.5
vt 0.625 0.5
vt 0.625 0.25
vt 0.625 0.25
vt 0.625 0.75
vt 0.625 0.75
vt 0.625 0.5
vt 0.625 0.5
vt 0.625 0.25
vt 0.625 0.25
vt 0.625 0
vt 0.625 0
vt 0.625 1
vt 0.625 1
vt 0.625 0.75
vt 0.625 0.75
vt 0.625 0.5
vt 0.625 0.5
vt 0.625 0.25
vt 0.625 0.25
vt 0.625 0.25
vt 0.625 0.25
vt 0.625 0
vt 0.625 0
vt 0.625 0.75
vt 0.625 0.75
vt 0.625 0.5
vt 0.625 0.5
vt 0.375 0.75
vt 0.375 0.875
vt 0.625 0.875
vt 0.625 0.75
vt 0.375 0.25
vt 0.375 0.375
vt 0.625 0.375
vt 0.625 0.25
vt 0.625 0.5
vt 0.625 0.5
vt 0.625 0.25
vt 0.625 0.375
vt 0.375 0.75
vt 0.375 0.75
vt 0.375 1
vt 0.375 0.875
vn -0.14332779 0.61948735 0.77181125
vn -0.14332779 0.61948735 0.77181125
vn -0.14332779 0.61948735 0.77181125
vn -0.16019805 -0.71618223 -0.6792788
vn -0.16019805 -0.71618223 -0.6792788
vn -0.16019805 -0.71618223 -0.6792788
vn -0 0.9742164 0.22561571
vn -0 0.9742164 0.22561571
vn -0 0.9742164 0.22561571
vn 0.97488654 0 0.22270232
vn 0.97488654 0 0.22270232
vn 0.97488654 0 0.22270232
vn -0.97488654 0 0.22270235
vn -0.97488654 0 0.22270235
vn -0.97488654 0 0.22270235
vn -0 -0.9742164 0.22561568
vn -0 -0.9742164 0.22561568
vn -0 -0.9742164 0.22561568
vn -0.16019803 0.7161822 -0.6792788
vn -0.16019803 0.7161822 -0.6792788
vn -0.16019803 0.7161822 -0.6792788
vn -0.1433278 -0.6194874 0.77181125
vn -0.1433278 -0.6194874 0.77181125
vn -0.1433278 -0.6194874 0.77181125
vn -1 0 0
vn -1 0 0
vn -1 0 0
vn -1 0 0
vn 0.22114424 0.97522914 0.004840024
vn 0.22114424 0.97522914 0.004840024
vn 0.22114424 0.97522914 0.004840024
vn 0.22114424 0.97522914 0.004840024
vn 1 0 0
vn 1 0 0
vn 1 0 0
vn 1 0 0
vn -0.22183578 -0.974998 0.01295127
vn -0.22183578 -0.974998 0.01295127
vn -0.22183578 -0.974998 0.01295127
vn -0.22183578 -0.974998 0.01295127
vn -0.5865357 0 -0.80992347
vn -0.5865357 0 -0.80992347
vn -0.5865357 0 -0.80992347
vn -0.5865357 0 -0.80992347
vn -0.4977818 0 0.86730224
vn -0.4977818 0 0.86730224
vn -0.4977818 0 0.86730224
vn -0.4977818 0 0.86730224
vn -1 0 0
vn -1 0 0
vn -1 0 0
vn -1 0 0
vn -0 1 0
vn -0 1 0
vn -0 1 0
vn -0 1 0
vn 1 0 0
vn 1 0 0
vn 1 0 0
vn 1 0 0
vn -0 -1 0
vn -0 -1 0
vn -0 -1 0
vn -0 -1 0
vn -0 0 -1
vn -0 0 -1
vn -0 0 -1
vn -0 0 -1
vn 0.9678995 0 -0.25133747
vn 0.9678995 0 -0.25133747
vn 0.9678995 0 -0.25133747
vn 0.9678995 0 -0.25133747
vn -0 0 1
vn -0 0 1
vn -0 0 1
vn -0 0 1
vn 0.049168404 -0.5943176 0.8027259
vn 0.049168404 -0.5943176 0.8027259
vn 0.049168404 -0.5943176 0.8027259
vn 0.049168404 -0.5943176 0.8027259
vn 0.99091375 0 0.13449895
vn 0.99091375 0 0.13449895
vn 0.99091375 0 0.13449895
vn 0.99091375 0 0.13449895
vn -0 0 -1
vn -0 0 -1
vn -0 0 -1
vn -0 0 -1
vn 0.99960476 0 0.028114747
vn 0.99960476 0 0.028114747
vn 0.99960476 0 0.028114747
vn 0.99960476 0 0.028114747
vn 0.06547648 0.7137161 -0.697368
vn 0.06547648 0.7137161 -0.697368
vn 0.06547648 0.7137161 -0.697368
vn 0.06547648 0.7137161 -0.697368
vn 0.89854205 0 0.43888727
vn 0.89854205 0 0.43888727
vn 0.89854205 0 0.43888727
vn 0.89854205 0 0.43888727
vn -0.96789885 0 -0.25134018
vn -0.96789885 0 -0.25134018
vn -0.96789885 0 -0.25134018
vn -0.96789885 0 -0.25134018
vn -0 -0.96705186 -0.2545795
vn -0 -0.96705186 -0.2545795
vn -0 -0.96705186 -0.2545795
vn -0 -0.96705186 -0.2545795
vn -0 0.96705186 -0.2545795
vn -0 0.96705186 -0.2545795
vn -0 0.96705186 -0.2545795
vn -0 0.96705186 -0.2545795
vn -0 -0.683222 0.7302108
vn -0 -0.683222 0.7302108
vn -0 -0.683222 0.7302108
vn -0 -0.683222 0.7302108
vn -0.8985436 0 0.4388842
vn -0.8985436 0 0.4388842
vn -0.8985436 0 0.4388842
vn -0.8985436 0 0.4388842
vn -0 -0.89615095 0.44374937
vn -0 -0.89615095 0.44374937
vn -0 -0.89615095 0.44374937
vn -0 -0.89615095 0.44374937
vn -0 0.89615095 0.44374946
vn -0 0.89615095 0.44374946
vn -0 0.89615095 0.44374946
vn -0 0.89615095 0.44374946
vn -0 0.683222 0.7302108
vn -0 0.683222 0.7302108
vn -0 0.683222 0.7302108
vn -0 0.683222 0.7302108
vn 0.6881921 0 0.72552854
vn 0.6881921 0 0.72552854
vn 0.6881921 0 0.72552854
vn 0.6881921 0 0.72552854
vn -0.6881952 0 0.72552556
vn -0.6881952 0 0.72552556
vn -0.6881952 0 0.72552556
vn -0.6881952 0 0.72552556
vn -0 -0.772024 -0.6355935
vn -0 -0.772024 -0.6355935
vn -0 -0.772024 -0.6355935
vn -0 -0.772024 -0.6355935
vn -0 0.772024 -0.6355935
vn -0 0.772024 -0.6355935
vn -0 0.772024 -0.6355935
vn -0 0.772024 -0.6355935
vn -0.7762675 0 -0.63040364
vn -0.7762675 0 -0.63040364
vn -0.7762675 0 -0.63040364
vn -0.7762675 0 -0.63040364
vn 0.77627116 0 -0.6303992
vn 0.77627116 0 -0.6303992
vn 0.77627116 0 -0.6303992
vn 0.77627116 0 -0.6303992
vn 0.22114423 -0.97522914 0.004840024
vn 0.22114423 -0.97522914 0.004840024
vn 0.22114423 -0.97522914 0.004840024
vn 0.22114423 -0.97522914 0.004840024
vn -0.22183578 0.974998 0.01295127
vn -0.22183578 0.974998 0.01295127
vn -0.22183578 0.974998 0.01295127
vn -0.22183578 0.974998 0.01295127
vn 0.04916841 0.5943177 0.8027259
vn 0.04916841 0.5943177 0.8027259
vn 0.04916841 0.5943177 0.8027259
vn 0.04916841 0.5943177 0.8027259
vn 0.06547647 -0.7137161 -0.69736797
vn 0.06547647 -0.7137161 -0.69736797
vn 0.06547647 -0.7137161 -0.69736797
vn 0.06547647 -0.7137161 -0.69736797
g mdlLunarTool5Collision_0
f 3/3/3 2/2/2 1/1/1
f 6/6/6 5/5/5 4/4/4
f 9/9/9 8/8/8 7/7/7
f 12/12/12 11/11/11 10/10/10
f 15/15/15 14/14/14 13/13/13
f 18/18/18 17/17/17 16/16/16
f 21/21/21 20/20/20 19/19/19
f 24/24/24 23/23/23 22/22/22
f 27/27/27 26/26/26 25/25/25
f 28/28/28 27/27/27 25/25/25
f 31/31/31 30/30/30 29/29/29
f 32/32/32 31/31/31 29/29/29
f 35/35/35 34/34/34 33/33/33
f 36/36/36 35/35/35 33/33/33
f 39/39/39 38/38/38 37/37/37
f 40/40/40 39/39/39 37/37/37
f 43/43/43 42/42/42 41/41/41
f 44/44/44 43/43/43 41/41/41
f 47/47/47 46/46/46 45/45/45
f 48/48/48 47/47/47 45/45/45
f 51/51/51 50/50/50 49/49/49
f 52/52/52 51/51/51 49/49/49
f 55/55/55 54/54/54 53/53/53
f 56/56/56 55/55/55 53/53/53
f 59/59/59 58/58/58 57/57/57
f 60/60/60 59/59/59 57/57/57
f 63/63/63 62/62/62 61/61/61
f 64/64/64 63/63/63 61/61/61
f 67/67/67 66/66/66 65/65/65
f 68/68/68 67/67/67 65/65/65
f 71/71/71 70/70/70 69/69/69
f 72/72/72 71/71/71 69/69/69
f 75/75/75 74/74/74 73/73/73
f 76/76/76 75/75/75 73/73/73
f 79/79/79 78/78/78 77/77/77
f 80/80/80 79/79/79 77/77/77
f 83/83/83 82/82/82 81/81/81
f 84/84/84 83/83/83 81/81/81
f 87/87/87 86/86/86 85/85/85
f 88/88/88 87/87/87 85/85/85
f 91/91/91 90/90/90 89/89/89
f 92/92/92 91/91/91 89/89/89
f 95/95/95 94/94/94 93/93/93
f 96/96/96 95/95/95 93/93/93
f 99/99/99 98/98/98 97/97/97
f 100/100/100 99/99/99 97/97/97
f 103/103/103 102/102/102 101/101/101
f 104/104/104 103/103/103 101/101/101
f 107/107/107 106/106/106 105/105/105
f 108/108/108 107/107/107 105/105/105
f 111/111/111 110/110/110 109/109/109
f 112/112/112 111/111/111 109/109/109
f 115/115/115 114/114/114 113/113/113
f 116/116/116 115/115/115 113/113/113
f 119/119/119 118/118/118 117/117/117
f 120/120/120 119/119/119 117/117/117
f 123/123/123 122/122/122 121/121/121
f 124/124/124 123/123/123 121/121/121
f 127/127/127 126/126/126 125/125/125
f 128/128/128 127/127/127 125/125/125
f 131/131/131 130/130/130 129/129/129
f 132/132/132 131/131/131 129/129/129
f 135/135/135 134/134/134 133/133/133
f 136/136/136 135/135/135 133/133/133
f 139/139/139 138/138/138 137/137/137
f 140/140/140 139/139/139 137/137/137
f 143/143/143 142/142/142 141/141/141
f 144/144/144 143/143/143 141/141/141
f 147/147/147 146/146/146 145/145/145
f 148/148/148 147/147/147 145/145/145
f 151/151/151 150/150/150 149/149/149
f 152/152/152 151/151/151 149/149/149
f 155/155/155 154/154/154 153/153/153
f 156/156/156 155/155/155 153/153/153
f 159/159/159 158/158/158 157/157/157
f 160/160/160 159/159/159 157/157/157
f 163/163/163 162/162/162 161/161/161
f 164/164/164 163/163/163 161/161/161
f 167/167/167 166/166/166 165/165/165
f 168/168/168 167/167/167 165/165/165
f 171/171/171 170/170/170 169/169/169
f 172/172/172 171/171/171 169/169/169
