g mdlLaserSightLaser
v 0.66502434 -0.536979 0.8743545
v 0.8376188 -0.55866814 0.8743545
v 0.66502434 -0.55866814 0.8743545
v 0.8376188 -0.536979 0.8743545
v 5.846078 -0.55866814 0.8743545
v 5.846078 -0.536979 0.8743545
v 0.66502434 -0.52164257 0.85901797
v 0.8376188 -0.52164257 0.85901797
v 0.66502434 -0.52164257 0.83732885
v 5.846078 -0.536979 0.8743545
v 0.8376188 -0.52164257 0.8373288
v 0.66502434 -0.536979 0.82199234
v 5.846078 -0.52164257 0.85901797
v 5.846078 -0.54782355 0.84817344
v 5.846078 -0.55866814 0.8743545
v 0.8376188 -0.536979 0.82199234
v 0.66502434 -0.55866814 0.82199234
v 5.846078 -0.52164257 0.83732885
v 0.8376188 -0.55866814 0.82199234
v 0.66502434 -0.57400465 0.83732885
v 5.846078 -0.536979 0.82199234
v 0.8376188 -0.55866814 0.82199234
v 5.846078 -0.55866814 0.82199234
v 0.8376188 -0.57400465 0.8373288
v 0.66502434 -0.57400465 0.85901797
v 5.846078 -0.55866814 0.82199234
v 5.846078 -0.57400465 0.85901797
v 0.8376188 -0.55866814 0.8743545
v 5.846078 -0.57400465 0.83732885
v 0.8376188 -0.57400465 0.85901797
v 0.66502434 -0.55866814 0.8743545
vt 0.009746462 0.590211
vt 0.04244473 0.59021103
vt 0.009746462 0.590211
vt 0.04244472 0.590211
vt 0.9913041 0.590211
vt 0.9913041 0.590211
vt 0.009746462 0.58509594
vt 0.04244472 0.58509594
vt 0.009746462 0.5778625
vt 0.9913041 0.590211
vt 0.042444725 0.57786244
vt 0.009746462 0.57274735
vt 0.9913041 0.58509594
vt 0.9913041 0.58147925
vt 0.9913041 0.590211
vt 0.042444725 0.57274735
vt 0.009746462 0.57274735
vt 0.9913041 0.5778625
vt 0.04244472 0.57274735
vt 0.009746462 0.5778625
vt 0.9913041 0.57274735
vt 0.04244472 0.57274735
vt 0.9913041 0.57274735
vt 0.04244473 0.5778625
vt 0.009746462 0.58509594
vt 0.9913041 0.57274735
vt 0.9913041 0.58509594
vt 0.04244473 0.59021103
vt 0.9913041 0.5778625
vt 0.04244472 0.5850959
vt 0.009746462 0.590211
vn -0 0.38268414 0.9238792
vn -0 -0.3826835 0.9238795
vn -0 -0.38268343 0.9238795
vn -0 0.38268417 0.9238792
vn 0.63026255 -0.29710868 0.71728355
vn 0.6302623 0.29710925 0.7172835
vn -0 0.9238798 0.38268277
vn -0 0.9238798 0.38268268
vn -0 0.9238796 -0.3826831
vn 0.6302623 0.29710925 0.7172835
vn -0 0.9238796 -0.38268316
vn -0 0.3826837 -0.92387944
vn 0.63025516 0.7172918 0.29710436
vn 1 0 0
vn 0.63026255 -0.29710868 0.71728355
vn -0 0.38268372 -0.92387944
vn -0 -0.38268307 -0.92387974
vn 0.63025904 0.71728754 -0.2971065
vn -0 -0.3826831 -0.92387974
vn -0 -0.92387944 -0.3826838
vn 0.6302638 0.2971014 -0.7172854
vn -0 -0.3826831 -0.92387974
vn 0.63026553 -0.29709327 -0.7172873
vn -0 -0.9238793 -0.38268387
vn -0 -0.9238795 0.38268343
vn 0.63026553 -0.29709327 -0.7172873
vn 0.63025874 -0.7172876 0.29710677
vn -0 -0.3826835 0.9238795
vn 0.6302663 -0.71727943 -0.29711062
vn -0 -0.9238795 0.38268334
vn -0 -0.38268343 0.9238795
g mdlLaserSightLaser_0
f 3/3/3 2/2/2 1/1/1
f 2/2/2 4/4/4 1/1/1
f 2/2/2 5/5/5 4/4/4
f 5/5/5 6/6/6 4/4/4
f 1/1/1 4/4/4 7/7/7
f 4/4/4 8/8/8 7/7/7
f 7/7/7 8/8/8 9/9/9
f 4/4/4 10/10/10 8/8/8
f 8/8/8 11/11/11 9/9/9
f 9/9/9 11/11/11 12/12/12
f 10/10/10 13/13/13 8/8/8
f 8/8/8 13/13/13 11/11/11
f 10/10/10 14/14/14 13/13/13
f 15/15/15 14/14/14 6/6/6
f 11/11/11 16/16/16 12/12/12
f 12/12/12 16/16/16 17/17/17
f 13/13/13 18/18/18 11/11/11
f 18/18/18 13/13/13 14/14/14
f 11/11/11 18/18/18 16/16/16
f 16/16/16 19/19/19 17/17/17
f 17/17/17 19/19/19 20/20/20
f 18/18/18 21/21/21 16/16/16
f 18/18/18 14/14/14 21/21/21
f 16/16/16 21/21/21 22/22/22
f 21/21/21 23/23/23 22/22/22
f 21/21/21 14/14/14 23/23/23
f 19/19/19 24/24/24 20/20/20
f 20/20/20 24/24/24 25/25/25
f 19/19/19 26/26/26 24/24/24
f 27/27/27 14/14/14 15/15/15
f 27/27/27 15/15/15 28/28/28
f 26/26/26 14/14/14 29/29/29
f 26/26/26 29/29/29 24/24/24
f 29/29/29 14/14/14 27/27/27
f 24/24/24 30/30/30 25/25/25
f 24/24/24 29/29/29 30/30/30
f 29/29/29 27/27/27 30/30/30
f 30/30/30 27/27/27 28/28/28
f 25/25/25 30/30/30 31/31/31
f 30/30/30 28/28/28 31/31/31
