g mdlMajorConstructStone1
v 0.10421586 -0.23480356 -0.1398943
v -0.034925044 -0.29266393 -0.086221434
v 0.15456091 -0.23843884 -0.07333023
v -0.059081137 0.2135678 -0.031120576
v -0.01369378 0.16504312 -0.1425008
v 0.10619849 0.18241155 -0.11076898
v -0.18394336 0.12424925 -0.041351497
v -0.18256125 0.026034176 -0.13990228
v -0.219919 -0.008901536 -0.045160174
v -0.16791317 -0.19753218 -0.10003547
v -0.073053926 -0.13242185 -0.17699723
v -0.034925044 -0.29266393 -0.086221434
v 0.10421586 -0.23480356 -0.1398943
v 0.1635174 -0.039652526 -0.15972894
v 0.10619849 0.18241155 -0.11076898
v 0.23787722 -0.023640811 -0.0833945
v 0.15456091 -0.23843884 -0.07333023
v 0.17970447 0.13580972 -0.045086548
v -0.16791317 -0.19753218 -0.10003547
v -0.15437546 -0.17406428 -0.06721098
v -0.034925044 -0.29266393 -0.086221434
v -0.219919 -0.008901536 -0.045160174
v -0.15780023 -0.02712214 0.023726583
v -0.11240122 0.0020458698 0.06340326
v -0.18394336 0.12424925 -0.041351497
v -0.1047236 0.0032650828 0.067774415
v -0.1047236 0.0032650828 0.067774415
v -0.0035883784 -0.01894486 0.101251334
v 0.06989515 -0.14311594 0.057535052
v 0.0729852 -0.21396929 0.014361531
v -0.034925044 -0.29266393 -0.086221434
v 0.090924025 -0.111231506 0.056695774
v -0.02112022 0.18208414 0.022840634
v -0.059081137 0.2135678 -0.031120576
v 0.045547485 0.031206787 0.0950751
v 0.055855364 0.12032965 0.06483574
v 0.04397598 0.15003073 0.05092728
v 0.15456091 -0.23843884 -0.07333023
v -0.034925044 -0.29266393 -0.086221434
v 0.17317306 0.02883774 0.043944106
v 0.23787722 -0.023640811 -0.0833945
v 0.17970447 0.13580972 -0.045086548
v 0.04397598 0.15003073 0.05092728
v 0.10619849 0.18241155 -0.11076898
v -0.02112022 0.18208414 0.022840634
v -0.059081137 0.2135678 -0.031120576
v 0.14691713 0.008628547 0.060513437
vt 0.19115543 0.93190306
vt 0.094473176 0.9734488
vt 0.23024297 0.9679966
vt 0.16333516 0.65418035
vt 0.1806202 0.7047076
vt 0.25625595 0.6831658
vt 0.07369113 0.65235573
vt 0.0752459 0.740856
vt 0.007996538 0.72897196
vt 0.016464628 0.8739477
vt 0.107216425 0.84688914
vt 0.094473176 0.9734488
vt 0.19115543 0.93190306
vt 0.25227302 0.8320921
vt 0.25625595 0.6831658
vt 0.32642055 0.8434307
vt 0.23024297 0.9679966
vt 0.3246184 0.71972865
vt 0.028085193 0.4285885
vt 0.048585355 0.44813925
vt 0.1129333 0.35989735
vt 0.026877267 0.5638225
vt 0.08311737 0.5439232
vt 0.11824827 0.5553924
vt 0.07369113 0.65235573
vt 0.12316873 0.55507785
vt 0.12316873 0.55507785
vt 0.16734007 0.533947
vt 0.18790099 0.46820056
vt 0.18664026 0.42560807
vt 0.116440184 0.35952252
vt 0.20238014 0.48082203
vt 0.17494072 0.62451327
vt 0.16333516 0.65418035
vt 0.19172366 0.5509883
vt 0.20395288 0.58795184
vt 0.20071399 0.6036168
vt 0.24890451 0.37674895
vt 0.109333225 0.3501082
vt 0.25095117 0.5408818
vt 0.3264206 0.5026433
vt 0.29010323 0.61387205
vt 0.20071399 0.6036168
vt 0.25625595 0.6831658
vt 0.17494072 0.62451327
vt 0.16333516 0.65418035
vt 0.23450844 0.5341649
vn 0.28192836 -0.9225093 -0.2636151
vn -0.18036869 -0.7525765 0.6333212
vn 0.5339061 -0.74060607 0.40797904
vn -0.34020272 0.8034169 -0.4886545
vn -0.12421166 0.5867806 -0.80016243
vn -0.024355734 0.9128294 -0.40761435
vn -0.64758986 0.5626197 -0.5138936
vn -0.65321916 0.19289161 -0.7321868
vn -0.93433833 0.03819482 -0.35433465
vn -0.514806 -0.351351 -0.78200203
vn -0.20417096 -0.2000468 -0.9582773
vn -0.18436055 -0.51729316 -0.8357147
vn 0.33149192 -0.33614808 -0.88154274
vn 0.46594453 0.014124062 -0.88470113
vn 0.4311788 0.32017386 -0.8435481
vn 0.7302055 0.07546196 -0.67904735
vn 0.7479014 -0.3174138 -0.58300245
vn 0.73855144 0.39986002 -0.5428202
vn -0.5888079 -0.5226804 0.6165311
vn -0.5626384 -0.474742 0.6767998
vn -0.18036869 -0.7525765 0.6333212
vn -0.7512565 -0.088414334 0.65406156
vn -0.63024473 -0.21174169 0.7469651
vn -0.53437936 -0.06421602 0.8428018
vn -0.56657016 0.35225484 0.744926
vn -0.3690853 -0.49529037 0.7864245
vn -0.37700504 0.37296948 0.84779775
vn -0.1395827 -0.122178964 0.9826439
vn 0.14710946 -0.44616997 0.8827747
vn 0.15415488 -0.6292844 0.7617332
vn -0.18036869 -0.7525765 0.6333212
vn 0.49360517 -0.27265456 0.82584107
vn -0.3675163 0.43333244 0.8228941
vn -0.4686805 0.57874423 0.6673782
vn 0.10667936 0.15430273 0.98224753
vn 0.18505031 0.42896932 0.88416153
vn -0.22852561 0.33640492 0.9135687
vn 0.5339061 -0.74060607 0.40797904
vn -0.18036869 -0.7525765 0.6333212
vn 0.7121604 0.11784798 0.6920545
vn 0.86681795 -0.11086594 0.4861434
vn 0.5979502 0.64020973 0.48227286
vn 0.41628906 0.7787285 0.46934563
vn 0.30956563 0.90228814 0.30007526
vn 0.31456295 0.89992887 0.30195713
vn 0.3154505 0.8993344 0.30280128
vn 0.50005984 -0.076732285 0.86258465
g mdlMajorConstructStone1_0
f 3/3/3 2/2/2 1/1/1
f 6/6/6 5/5/5 4/4/4
f 7/7/7 4/4/4 5/5/5
f 7/7/7 5/5/5 8/8/8
f 7/7/7 8/8/8 9/9/9
f 10/10/10 9/9/9 8/8/8
f 11/11/11 10/10/10 8/8/8
f 8/8/8 5/5/5 11/11/11
f 11/11/11 12/12/12 10/10/10
f 11/11/11 13/13/13 12/12/12
f 14/14/14 11/11/11 5/5/5
f 14/14/14 13/13/13 11/11/11
f 14/14/14 5/5/5 15/15/15
f 16/16/16 13/13/13 14/14/14
f 14/14/14 15/15/15 16/16/16
f 16/16/16 17/17/17 13/13/13
f 18/18/18 16/16/16 15/15/15
f 21/21/21 20/20/20 19/19/19
f 22/22/22 19/19/19 20/20/20
f 23/23/23 22/22/22 20/20/20
f 23/23/23 24/24/24 22/22/22
f 24/24/24 25/25/25 22/22/22
f 24/24/24 23/23/23 26/26/26
f 27/27/27 25/25/25 24/24/24
f 26/26/26 23/23/23 28/28/28
f 29/29/29 23/23/23 20/20/20
f 28/28/28 23/23/23 29/29/29
f 29/29/29 20/20/20 30/30/30
f 31/31/31 30/30/30 20/20/20
f 29/29/29 32/32/32 28/28/28
f 29/29/29 30/30/30 32/32/32
f 33/33/33 25/25/25 27/27/27
f 34/34/34 25/25/25 33/33/33
f 28/28/28 35/35/35 27/27/27
f 28/28/28 32/32/32 35/35/35
f 27/27/27 36/36/36 33/33/33
f 27/27/27 35/35/35 36/36/36
f 37/37/37 33/33/33 36/36/36
f 30/30/30 38/38/38 32/32/32
f 39/39/39 38/38/38 30/30/30
f 32/32/32 38/38/38 40/40/40
f 40/40/40 36/36/36 35/35/35
f 41/41/41 40/40/40 38/38/38
f 42/42/42 40/40/40 41/41/41
f 40/40/40 42/42/42 36/36/36
f 42/42/42 43/43/43 36/36/36
f 44/44/44 43/43/43 42/42/42
f 44/44/44 45/45/45 43/43/43
f 46/46/46 45/45/45 44/44/44
f 47/47/47 32/32/32 40/40/40
f 47/47/47 40/40/40 35/35/35
f 47/47/47 35/35/35 32/32/32
