g mdlMajorConstructDiamond3
v 0.10065812 -0.13665551 -0.046099424
v 0.03277111 -0.15283999 0
v 0.039211094 -0.13762245 0.043344498
v 0.039211094 -0.13762245 0.043344498
v 0.086435676 -0.15283999 0
v 0.10065812 -0.13665551 -0.046099424
v -0.018696725 0.018696785 0.3820858
v 0.045195162 0.045195043 0.3066101
v 0.009572923 0.009572864 0.40807438
v -0.12650037 0.12650049 0.07502365
v 0.06340134 0.12736243 0.07256889
v 0.15284002 0.11751187 0
v 0.14046818 0.13625544 -0.035239458
v 0.13702732 0.13702726 -0.04504013
v -0.13624716 0.13624728 -0.047261953
v -0.1528399 0.13240892 0
v 0.016140997 0.016140938 -0.38936663
v -0.0048686266 0.004868686 -0.42147398
v -0.13445306 -0.13445309 0.05237198
v -0.13761258 -0.15019643 0.0075292587
v -0.14269948 -0.1227957 -0.028883934
v -0.1528399 0.08140093 0
v -0.057872772 -0.05787283 -0.2704997
v -0.12650037 0.12650049 0.07502365
v -0.1528399 0.13240892 0
v -0.018696725 0.018696785 0.3820858
v -0.01573044 -0.0157305 0.39053535
v -0.13624716 0.13624728 -0.047261953
v -0.1528399 0.13240892 0
v -0.0048686266 0.004868686 -0.42147398
v -0.0062845945 -0.006284654 -0.41744065
v -0.14269948 -0.1227957 -0.028883934
v -0.13761258 -0.15019643 0.0075292587
v -0.13023472 -0.15283999 0
v -0.057872772 -0.05787283 -0.2704997
v -0.01573044 -0.0157305 0.39053535
v -0.018696725 0.018696785 0.3820858
v 0.009572923 0.009572864 0.40807438
v 0.008730054 -0.008729994 0.41047478
v 0.016140997 0.016140938 -0.38936663
v -0.0048686266 0.004868686 -0.42147398
v -0.0062845945 -0.006284654 -0.41744065
v 0.063786685 -0.063786626 -0.2536552
v 0.13702732 0.13702726 -0.04504013
v 0.15284002 -0.08576095 0
v 0.13789052 -0.13789052 -0.04258156
v 0.15284002 0.11751187 0
v 0.14046818 0.13625544 -0.035239458
v 0.11409104 -0.15283999 0
v 0.15284002 -0.08576095 0
v 0.13789052 -0.13789052 -0.04258156
v 0.08405405 -0.08405402 0.19592571
v 0.15284002 0.11751187 0
v 0.045195162 0.045195043 0.3066101
v 0.008730054 -0.008729994 0.41047478
v 0.009572923 0.009572864 0.40807438
v 0.086435676 -0.15283999 0
v 0.039211094 -0.13762245 0.043344498
v 0.11409104 -0.15283999 0
v 0.08405405 -0.08405402 0.19592571
v -0.13445306 -0.13445309 0.05237198
v 0.03277111 -0.15283999 0
v -0.13023472 -0.15283999 0
v -0.13761258 -0.15019643 0.0075292587
v -0.01573044 -0.0157305 0.39053535
v 0.008730054 -0.008729994 0.41047478
v -0.057872772 -0.05787283 -0.2704997
v 0.063786685 -0.063786626 -0.2536552
v -0.0062845945 -0.006284654 -0.41744065
v 0.10065812 -0.13665551 -0.046099424
v 0.13789052 -0.13789052 -0.04258156
v 0.11409104 -0.15283999 0
v 0.086435676 -0.15283999 0
v 0.03277111 -0.15283999 0
v -0.13023472 -0.15283999 0
vt 0.97313577 0.8208583
vt 0.97625154 0.6369047
vt 0.9049006 0.63883543
vt 0.9049006 0.63883543
vt 0.9051194 0.77510744
vt 0.97313577 0.8208583
vt 0.6985018 0.47732094
vt 0.7476868 0.4959458
vt 0.71656483 0.45780715
vt 0.74494296 0.56922126
vt 0.7745922 0.54318136
vt 0.7953542 0.5392981
vt 0.79371697 0.54512876
vt 0.79412496 0.5464954
vt 0.7535825 0.5809838
vt 0.7473648 0.5785771
vt 0.84940284 0.61583024
vt 0.858491 0.6354522
vt 0.6525091 0.6491905
vt 0.65603286 0.66499823
vt 0.67478335 0.6621161
vt 0.73529124 0.5885655
vt 0.792267 0.6737016
vt 0.74494296 0.56922126
vt 0.7473648 0.5785771
vt 0.6985018 0.47732094
vt 0.6753699 0.4821035
vt 0.7535825 0.5809838
vt 0.7473648 0.5785771
vt 0.858491 0.6354522
vt 0.8564265 0.64271134
vt 0.94141984 0.4398072
vt 0.92129266 0.42642328
vt 0.91856563 0.43134978
vt 0.94141984 0.57240176
vt 0.6753699 0.4821035
vt 0.6985018 0.47732094
vt 0.68556356 0.45917377
vt 0.6738652 0.4634258
vt 0.84940284 0.61583024
vt 0.858491 0.6354522
vt 0.8685518 0.63429177
vt 0.8616793 0.55741614
vt 0.79412496 0.5464954
vt 0.8218594 0.5186953
vt 0.8354794 0.5157887
vt 0.7953542 0.5392981
vt 0.79371697 0.54512876
vt 0.8367025 0.50796276
vt 0.8218594 0.5186953
vt 0.8354794 0.5157887
vt 0.8066382 0.4780058
vt 0.7953542 0.5392981
vt 0.7476868 0.4959458
vt 0.72078705 0.44462004
vt 0.71656483 0.45780715
vt 0.84285045 0.50245684
vt 0.84882724 0.48392954
vt 0.8367025 0.50796276
vt 0.8066382 0.4780058
vt 0.90804935 0.41147605
vt 0.85956436 0.49098644
vt 0.91856563 0.43134978
vt 0.92129266 0.42642328
vt 0.72757214 0.42725506
vt 0.72078705 0.44462004
vt 0.94141984 0.57240176
vt 0.8616793 0.55741614
vt 0.8685518 0.63429177
vt 0.8442608 0.51294684
vt 0.8354794 0.5157887
vt 0.8367025 0.50796276
vt 0.84285045 0.50245684
vt 0.85956436 0.49098644
vt 0.91856563 0.43134978
vn 0.3843552 -0.88742554 0.25445452
vn 0.2072034 -0.9322776 0.29652175
vn 0.051110636 -0.9446556 0.32405797
vn -0.60569483 -0.6737027 -0.4233893
vn -0.60569483 -0.6737027 -0.4233893
vn -0.60569483 -0.6737027 -0.4233893
vn -0 0.94354004 0.3312583
vn 0.032071203 0.94227207 0.33330896
vn -0 0.9435404 0.33125758
vn -0.002112183 0.9833191 0.18187615
vn 0.15230854 0.9562782 0.24966802
vn 0.36625317 0.8687074 0.3334756
vn 0.115055636 0.97988164 0.1630772
vn -0.0021641764 0.9964889 -0.0836976
vn -0.0021451549 0.9962997 -0.085920855
vn -0.0034928145 0.9968104 0.079729356
vn -0 0.94354004 -0.33125857
vn -0 0.94354004 -0.33125854
vn -0.9777565 -0.033032514 0.20712605
vn -0.9938128 -0.062355004 0.09191348
vn -0.9956398 -0.037353106 -0.08547494
vn -0.999992 -0.003988576 0.00013088547
vn -0.94354 0 -0.3312586
vn -0.9435396 0 0.3312598
vn -0.9435393 0 0.33126065
vn -0.9435403 0 0.33125782
vn -0.94354045 0 0.33125716
vn -0.94354004 0 -0.33125842
vn -0.94354004 0 -0.3312583
vn -0.9435396 0 -0.33125973
vn -0.9435393 0 -0.3312607
vn -0.6430758 -0.65237796 -0.40106896
vn -0.6430648 -0.6523825 -0.40107945
vn -0.64306843 -0.652381 -0.40107596
vn -0.643077 -0.65237755 -0.40106788
vn -0.6484251 0.12829192 0.75039065
vn -0.6484294 0.12829937 0.7503857
vn -0.64842224 0.12828706 0.7503939
vn -0.6484151 0.12827471 0.7504022
vn 0.88033193 -0.20309632 -0.42868128
vn 0.84610265 -0.27297422 -0.4578159
vn 0.8461026 -0.2729732 -0.45781654
vn 0.9400865 -0.017708814 -0.34047583
vn 0.94354004 0 -0.3312585
vn 0.94354004 0 -0.33125833
vn 0.94354016 0 -0.3312583
vn 0.94354016 0 -0.33125827
vn 0.9435395 -1.12298185E-05 -0.33126
vn 0.8274616 -0.47799268 0.2946697
vn 0.90407974 -0.28340808 0.31987447
vn 0.8274621 -0.4779929 0.29466808
vn 0.9418845 -0.0563964 0.33116913
vn 0.94353986 0 0.3312591
vn 0.94353986 0 0.33125886
vn 0.94354016 0 0.33125824
vn 0.94354045 0 0.33125737
vn -0 -0.9435393 0.33126062
vn 0.051110636 -0.9446556 0.32405797
vn -0 -0.9435395 0.33125994
vn -0 -0.94354 0.33125877
vn -0 -0.9435396 0.33125958
vn 0.2072034 -0.9322776 0.29652175
vn -0 -0.9435396 0.33125973
vn -2.2712347E-05 -0.94354016 0.33125815
vn -0 -0.9435396 0.33125967
vn -0 -0.94353944 0.33126023
vn -0 -0.94354 -0.3312588
vn -0 -0.94353986 -0.33125895
vn -0 -0.94353986 -0.33125895
vn -0 -0.9435403 -0.33125785
vn -0 -0.9435404 -0.3312577
vn -0 -0.943541 -0.33125585
vn -0 -0.943541 -0.33125564
vn -0 -0.94354016 -0.3312582
vn -0 -0.94354004 -0.33125842
g mdlMajorConstructDiamond3_0
f 3/3/3 2/2/2 1/1/1
f 6/6/6 5/5/5 4/4/4
f 9/9/9 8/8/8 7/7/7
f 7/7/7 8/8/8 10/10/10
f 11/11/11 10/10/10 8/8/8
f 11/11/11 8/8/8 12/12/12
f 13/13/13 11/11/11 12/12/12
f 13/13/13 14/14/14 11/11/11
f 15/15/15 10/10/10 11/11/11
f 15/15/15 11/11/11 14/14/14
f 16/16/16 10/10/10 15/15/15
f 15/15/15 14/14/14 17/17/17
f 18/18/18 15/15/15 17/17/17
f 21/21/21 20/20/20 19/19/19
f 22/22/22 21/21/21 19/19/19
f 21/21/21 22/22/22 23/23/23
f 19/19/19 24/24/24 22/22/22
f 22/22/22 24/24/24 25/25/25
f 24/24/24 19/19/19 26/26/26
f 27/27/27 26/26/26 19/19/19
f 22/22/22 28/28/28 23/23/23
f 22/22/22 29/29/29 28/28/28
f 30/30/30 23/23/23 28/28/28
f 31/31/31 23/23/23 30/30/30
f 34/34/34 33/33/33 32/32/32
f 35/35/35 34/34/34 32/32/32
f 38/38/38 37/37/37 36/36/36
f 39/39/39 38/38/38 36/36/36
f 42/42/42 41/41/41 40/40/40
f 43/43/43 42/42/42 40/40/40
f 40/40/40 44/44/44 43/43/43
f 43/43/43 44/44/44 45/45/45
f 43/43/43 45/45/45 46/46/46
f 45/45/45 44/44/44 47/47/47
f 48/48/48 47/47/47 44/44/44
f 51/51/51 50/50/50 49/49/49
f 50/50/50 52/52/52 49/49/49
f 53/53/53 52/52/52 50/50/50
f 54/54/54 52/52/52 53/53/53
f 52/52/52 54/54/54 55/55/55
f 56/56/56 55/55/55 54/54/54
f 59/59/59 58/58/58 57/57/57
f 60/60/60 58/58/58 59/59/59
f 61/61/61 58/58/58 60/60/60
f 58/58/58 61/61/61 62/62/62
f 62/62/62 61/61/61 63/63/63
f 64/64/64 63/63/63 61/61/61
f 61/61/61 60/60/60 65/65/65
f 66/66/66 65/65/65 60/60/60
f 69/69/69 68/68/68 67/67/67
f 67/67/67 68/68/68 70/70/70
f 71/71/71 70/70/70 68/68/68
f 72/72/72 70/70/70 71/71/71
f 73/73/73 70/70/70 72/72/72
f 74/74/74 67/67/67 70/70/70
f 75/75/75 67/67/67 74/74/74
