g mdlMajorConstructStone3.002
v 0.09300697 0.27873152 -0.10242273
v 0.15821284 0.14814132 -0.12002079
v 0.12971276 0.2692632 -0.07528735
v 0.18376905 -0.19927508 -0.05803155
v 0.18996829 -0.1496818 -0.12104365
v 0.057283282 -0.2825841 -0.09115197
v 0.21255583 -0.09972328 -0.070020415
v 0.21108776 -0.08904451 -0.10322732
v 0.19202703 -0.01260674 -0.03677187
v 0.19991785 -0.036282778 -0.12802505
v 0.18419224 0.03557527 -0.14354193
v 0.15821284 0.14814132 -0.12002079
v 0.1293652 0.26408118 -0.069200896
v 0.12971276 0.2692632 -0.07528735
v -0.0942145 -0.24693197 -0.111429915
v -0.16364521 -0.23207784 -0.04559493
v 0.057283282 -0.2825841 -0.09115197
v -0.24576467 -0.15516299 -0.089935645
v -0.13357443 -0.13258201 -0.15722044
v 0.051368415 -0.13072973 -0.16929622
v 0.057283282 -0.2825841 -0.09115197
v 0.18996829 -0.1496818 -0.12104365
v 0.19991785 -0.036282778 -0.12802505
v 0.21108776 -0.08904451 -0.10322732
v 0.14150113 0.009945333 -0.16232778
v 0.18419224 0.03557527 -0.14354193
v 0.15821284 0.14814132 -0.12002079
v 0.017754018 0.16223443 -0.1641906
v 0.09300697 0.27873152 -0.10242273
v 0.06595421 0.27869934 -0.11177361
v -0.043634713 0.2602697 -0.12185747
v -0.16656142 0.07959956 -0.14635284
v -0.24206436 -0.028871834 -0.1202286
v -0.13881141 0.12642401 -0.14787577
v -0.25372434 -0.04116088 -0.11101247
v -0.2655205 -0.10412282 -0.076732
v -0.26589745 -0.046355188 -0.09252459
v -0.24206436 -0.028871834 -0.1202286
v -0.22446191 0.08276206 -0.026055112
v -0.16656142 0.07959956 -0.14635284
v -0.20318758 0.12408835 -0.020918712
v -0.13881141 0.12642401 -0.14787577
v -0.18409497 0.15423459 -0.024370193
v -0.16854835 0.17344493 -0.033377916
v -0.09505695 0.21672392 -0.1311513
v -0.08590108 0.24627239 -0.11528207
v -0.08436406 0.24258083 -0.122664616
v -0.09505695 0.21672392 -0.1311513
v -0.068296015 0.2505409 -0.12659822
v -0.08436406 0.24258083 -0.122664616
v -0.06485736 0.2556072 -0.12214926
v -0.08590108 0.24627239 -0.11528207
v -0.043634713 0.2602697 -0.12185747
v -0.08590108 0.24627239 -0.11528207
v -0.06485736 0.2556072 -0.12214926
v -0.13305658 0.15857881 0.0015345663
v -0.16854835 0.17344493 -0.033377916
v 0.06595421 0.27869934 -0.11177361
v 0.1293652 0.26408118 -0.069200896
v 0.09300697 0.27873152 -0.10242273
v 0.12971276 0.2692632 -0.07528735
v -0.16748387 0.16506368 -0.020277485
v -0.18409497 0.15423459 -0.024370193
v -0.13573092 0.15191889 0.0031410903
v -0.20318758 0.12408835 -0.020918712
v -0.22446191 0.08276206 -0.026055112
v 0.19202703 -0.01260674 -0.03677187
v 0.1293652 0.26408118 -0.069200896
v 0.17112774 -0.06246847 -0.024566755
v 0.21255583 -0.09972328 -0.070020415
v 0.18376905 -0.19927508 -0.05803155
v -0.09577453 -0.12619913 0.03958088
v -0.021791518 -0.15512866 0.029257745
v 0.12683243 -0.15052241 -0.0015197247
v 0.07443577 -0.1695996 0.012124315
v 0.05804038 -0.23766646 -0.020861104
v 0.057283282 -0.2825841 -0.09115197
v -0.08762509 -0.17840588 0.02409041
v -0.16364521 -0.23207784 -0.04559493
v -0.09250444 -0.12949997 0.03944823
v -0.17786366 -0.14190799 0.008934513
v -0.24154025 -0.1063562 -0.018433303
v -0.26589745 -0.046355188 -0.09252459
v -0.2655205 -0.10412282 -0.076732
v -0.24576467 -0.15516299 -0.089935645
v -0.22143245 -0.13883263 -0.008190632
vt 0.35664502 0.23978388
vt 0.3939555 0.30419195
vt 0.3768153 0.25286382
vt 0.59159863 0.32784635
vt 0.581104 0.37584478
vt 0.6795403 0.29753655
vt 0.5400766 0.34448668
vt 0.5318709 0.36625046
vt 0.49420962 0.31669694
vt 0.49051112 0.37077492
vt 0.44340423 0.3572833
vt 0.3939555 0.30419195
vt 0.38088834 0.2534044
vt 0.3768153 0.25286382
vt 0.049195945 0.15680328
vt 0.02540335 0.10744006
vt 0.01719284 0.23950768
vt 0.08347115 0.058504447
vt 0.11320552 0.13317019
vt 0.11901352 0.23515765
vt 0.01719284 0.23950768
vt 0.10374832 0.3208009
vt 0.17449525 0.32589322
vt 0.14042205 0.3401019
vt 0.20119873 0.28435165
vt 0.21861073 0.3106718
vt 0.2876317 0.29215062
vt 0.28101164 0.21013705
vt 0.35664502 0.23978388
vt 0.34936258 0.22617455
vt 0.33801568 0.1747138
vt 0.229312 0.104675636
vt 0.16468692 0.06339444
vt 0.25744337 0.119319886
vt 0.15633103 0.055149883
vt 0.11446087 0.038813204
vt 0.15276793 0.041906714
vt 0.16468692 0.06339444
vt 0.24515393 0.025269926
vt 0.229312 0.104675636
vt 0.2735828 0.033601582
vt 0.25744337 0.119319886
vt 0.29303697 0.045109496
vt 0.3043226 0.057163104
vt 0.31683168 0.13931055
vt 0.33905512 0.1379243
vt 0.3353844 0.14185363
vt 0.31683168 0.13931055
vt 0.33264163 0.16157018
vt 0.33279425 0.15062302
vt 0.3360975 0.1635837
vt 0.33852583 0.14995351
vt 0.33801568 0.1747138
vt 0.33852583 0.14995351
vt 0.3360975 0.1635837
vt 0.42551813 0.11469313
vt 0.40772057 0.0888596
vt 0.34936258 0.22617455
vt 0.3785767 0.25261146
vt 0.35664502 0.23978388
vt 0.3768153 0.25286382
vt 0.4175379 0.0919245
vt 0.4231193 0.07985315
vt 0.42963666 0.1133397
vt 0.44417614 0.06729908
vt 0.47157732 0.051309302
vt 0.49420962 0.31669694
vt 0.38047624 0.2505988
vt 0.5233819 0.30730063
vt 0.5400766 0.34448668
vt 0.59159863 0.32784635
vt 0.585547 0.16691077
vt 0.591109 0.21178699
vt 0.5734185 0.28936243
vt 0.5873517 0.26454794
vt 0.6273821 0.27054393
vt 0.6795403 0.29753655
vt 0.61543626 0.17822562
vt 0.6795403 0.13397568
vt 0.5869499 0.16923103
vt 0.6082291 0.1204153
vt 0.59815466 0.07349909
vt 0.57438385 0.012165322
vt 0.6113418 0.034225687
vt 0.6507735 0.047805786
vt 0.6139244 0.09201877
vn 0.42694768 0.32680437 -0.84315753
vn 0.3391492 0.2736975 -0.9000374
vn 0.6096388 0.39687034 -0.6861736
vn 0.71554273 -0.5814315 -0.3872157
vn 0.67739755 -0.35713792 -0.6431058
vn 0.1875932 -0.50474876 -0.8426372
vn 0.9959324 -0.06309831 -0.06432201
vn 0.9658342 -0.032386445 -0.25712922
vn 0.9750431 0.22011536 0.02898355
vn 0.838361 0.041857056 -0.54350597
vn 0.97526044 0.21935178 0.027422005
vn 0.9741218 0.22255035 0.039473627
vn 0.9722916 0.17300786 0.1572172
vn 0.9690411 0.15792142 0.18978995
vn -0.24428444 -0.7848358 -0.56952417
vn -0.45654652 -0.84679234 0.2729613
vn 0.07113878 -0.8638199 0.49875286
vn -0.7898471 -0.51475215 -0.33342433
vn -0.24353518 -0.22048104 -0.94449914
vn 0.09834017 -0.22399901 -0.96961516
vn 0.1875932 -0.50474876 -0.8426372
vn 0.67739755 -0.35713792 -0.6431058
vn 0.838361 0.041857056 -0.54350597
vn 0.9658342 -0.032386445 -0.25712922
vn 0.2696823 0.01140531 -0.9628818
vn 0.34244114 0.113233894 -0.9326908
vn 0.3391492 0.2736975 -0.9000374
vn 0.06147784 0.21072029 -0.9756114
vn 0.42694768 0.32680437 -0.84315753
vn 0.2170476 0.32452163 -0.9206389
vn 0.004348166 0.4291167 -0.9032386
vn -0.15079966 0.016321588 -0.98842955
vn -0.40387997 -0.09807521 -0.9095396
vn -0.12502122 0.09674024 -0.9874265
vn -0.7420788 0.098576814 -0.66302454
vn -0.80261385 -0.16216625 -0.5740322
vn -0.8442653 0.117441766 -0.5228992
vn -0.7958542 0.4588039 -0.39511395
vn -0.7958537 0.45880517 -0.39511362
vn -0.795854 0.45880464 -0.3951136
vn -0.795854 0.4588046 -0.39511362
vn -0.79585373 0.45880494 -0.39511377
vn -0.79585433 0.45880395 -0.39511353
vn -0.795854 0.45880437 -0.39511395
vn -0.5278048 0.3995683 -0.7495113
vn -0.6850992 0.58440775 -0.43486392
vn -0.5910416 0.5505784 -0.58951956
vn -0.5278048 0.3995683 -0.7495113
vn -0.27605274 0.5621934 -0.7795726
vn -0.5910416 0.5505784 -0.58951956
vn -0.25924364 0.7306336 -0.6316384
vn -0.6850992 0.58440775 -0.43486392
vn -0.18766584 0.82040054 0.5401153
vn -0.18766537 0.82040054 0.5401154
vn -0.18766393 0.82039535 0.5401238
vn -0.11370809 0.49788344 0.8597572
vn -0.29132685 0.79490036 0.53222376
vn -0.18389176 0.81533504 0.5490105
vn -0.2177454 0.78481066 0.5802233
vn -0.20059349 0.7962949 0.5706808
vn -0.26436168 0.741723 0.61640894
vn -0.40064535 0.63989234 0.65575993
vn -0.47516915 0.4411498 0.76131535
vn -0.16432185 0.22683743 0.95997036
vn -0.38411075 0.1423775 0.9122432
vn -0.47329196 0.07810294 0.8774364
vn 0.33141142 0.09200694 0.93898946
vn 0.1972466 0.15806898 0.9675268
vn 0.46261978 0.018077422 0.8863725
vn 0.6869251 -0.112164035 0.7180202
vn 0.53721166 -0.39201376 0.7468125
vn -0.114769556 -0.028349202 0.9929876
vn 0.13925456 -0.1557112 0.9779377
vn 0.4003925 -0.14508903 0.9047845
vn 0.24145553 -0.21164842 0.94705033
vn 0.14371169 -0.70463306 0.69486636
vn 0.07113878 -0.8638199 0.49875286
vn -0.11782496 -0.5244929 0.8432226
vn -0.45654652 -0.84679234 0.2729613
vn -0.019602025 -0.113371745 0.99335927
vn -0.3612818 -0.24002865 0.90103364
vn -0.7455213 -0.0979655 0.6592426
vn -0.9190004 0.098376915 0.3817856
vn -0.9169069 -0.14564799 0.37157568
vn -0.7898471 -0.51475215 -0.33342433
vn -0.6092926 -0.32741824 0.722191
g mdlMajorConstructStone3.002_0
f 3/3/3 2/2/2 1/1/1
f 6/6/6 5/5/5 4/4/4
f 7/7/7 4/4/4 5/5/5
f 8/8/8 7/7/7 5/5/5
f 7/7/7 8/8/8 9/9/9
f 10/10/10 9/9/9 8/8/8
f 11/11/11 9/9/9 10/10/10
f 9/9/9 11/11/11 12/12/12
f 9/9/9 12/12/12 13/13/13
f 14/14/14 13/13/13 12/12/12
f 17/17/17 16/16/16 15/15/15
f 18/18/18 15/15/15 16/16/16
f 18/18/18 19/19/19 15/15/15
f 19/19/19 20/20/20 15/15/15
f 20/20/20 21/21/21 15/15/15
f 21/21/21 20/20/20 22/22/22
f 22/22/22 20/20/20 23/23/23
f 24/24/24 22/22/22 23/23/23
f 25/25/25 23/23/23 20/20/20
f 26/26/26 23/23/23 25/25/25
f 26/26/26 25/25/25 27/27/27
f 28/28/28 27/27/27 25/25/25
f 25/25/25 20/20/20 28/28/28
f 28/28/28 29/29/29 27/27/27
f 30/30/30 29/29/29 28/28/28
f 30/30/30 28/28/28 31/31/31
f 32/32/32 20/20/20 19/19/19
f 32/32/32 28/28/28 20/20/20
f 32/32/32 19/19/19 33/33/33
f 33/33/33 19/19/19 18/18/18
f 34/34/34 28/28/28 32/32/32
f 35/35/35 33/33/33 18/18/18
f 35/35/35 18/18/18 36/36/36
f 37/37/37 35/35/35 36/36/36
f 35/35/35 37/37/37 38/38/38
f 39/39/39 38/38/38 37/37/37
f 39/39/39 40/40/40 38/38/38
f 41/41/41 40/40/40 39/39/39
f 40/40/40 41/41/41 42/42/42
f 43/43/43 42/42/42 41/41/41
f 44/44/44 42/42/42 43/43/43
f 42/42/42 44/44/44 45/45/45
f 46/46/46 45/45/45 44/44/44
f 47/47/47 45/45/45 46/46/46
f 34/34/34 48/48/48 28/28/28
f 48/48/48 49/49/49 28/28/28
f 28/28/28 49/49/49 31/31/31
f 50/50/50 49/49/49 48/48/48
f 31/31/31 49/49/49 51/51/51
f 50/50/50 52/52/52 49/49/49
f 52/52/52 51/51/51 49/49/49
f 55/55/55 54/54/54 53/53/53
f 56/56/56 53/53/53 54/54/54
f 57/57/57 56/56/56 54/54/54
f 53/53/53 56/56/56 58/58/58
f 59/59/59 58/58/58 56/56/56
f 58/58/58 59/59/59 60/60/60
f 61/61/61 60/60/60 59/59/59
f 62/62/62 56/56/56 57/57/57
f 57/57/57 63/63/63 62/62/62
f 63/63/63 64/64/64 62/62/62
f 56/56/56 62/62/62 64/64/64
f 65/65/65 64/64/64 63/63/63
f 65/65/65 66/66/66 64/64/64
f 64/64/64 67/67/67 56/56/56
f 68/68/68 56/56/56 67/67/67
f 67/67/67 64/64/64 69/69/69
f 67/67/67 69/69/69 70/70/70
f 69/69/69 71/71/71 70/70/70
f 64/64/64 66/66/66 72/72/72
f 64/64/64 73/73/73 69/69/69
f 72/72/72 73/73/73 64/64/64
f 74/74/74 71/71/71 69/69/69
f 74/74/74 69/69/69 75/75/75
f 75/75/75 69/69/69 73/73/73
f 71/71/71 74/74/74 76/76/76
f 74/74/74 75/75/75 76/76/76
f 76/76/76 75/75/75 73/73/73
f 77/77/77 71/71/71 76/76/76
f 76/76/76 78/78/78 77/77/77
f 78/78/78 76/76/76 73/73/73
f 78/78/78 79/79/79 77/77/77
f 80/80/80 73/73/73 72/72/72
f 80/80/80 78/78/78 73/73/73
f 80/80/80 72/72/72 78/78/78
f 72/72/72 81/81/81 78/78/78
f 72/72/72 66/66/66 81/81/81
f 78/78/78 81/81/81 79/79/79
f 82/82/82 81/81/81 66/66/66
f 82/82/82 66/66/66 83/83/83
f 84/84/84 82/82/82 83/83/83
f 85/85/85 82/82/82 84/84/84
f 81/81/81 86/86/86 79/79/79
f 86/86/86 81/81/81 82/82/82
f 85/85/85 86/86/86 82/82/82
f 79/79/79 86/86/86 85/85/85
