g mdlMajorConstructDeathShard3
v -0.37562773 0.07316717 -0.1370625
v -0.36125514 0.13173747 -0.120567515
v -0.3740478 0.08515775 -0.0074713975
v -0.30648568 0.1033864 0.13883261
v -0.26451257 0.15624106 0.094098255
v 0.3817334 0.15392765 0.27930874
v 0.40538833 0.12888336 0.31281763
v 0.38430396 0.15909703 -0.1356553
v 0.3817334 0.15392765 0.27930874
v -0.26451257 0.15624106 0.094098255
v -0.33054402 0.15832579 -0.113825604
v -0.3723388 0.04485303 0.12936012
v -0.371994 -0.18803746 0.15699513
v -0.3735221 -0.23103362 0.03466186
v -0.3740478 0.08515775 -0.0074713975
v -0.37562773 0.07316717 -0.1370625
v -0.3756363 -0.2936247 -0.14351356
v -0.37522393 -0.332038 -0.25426042
v 0.40538833 0.12888336 0.31281763
v 0.43417114 0.09898285 0.3231967
v -0.022243358 -0.06404883 0.22756676
v -0.30648568 0.1033864 0.13883261
v -0.25633496 -0.14694053 0.18060596
v -0.3353648 -0.17498764 0.16457163
v -0.3723388 0.04485303 0.12936012
v -0.371994 -0.18803746 0.15699513
v 0.40538833 0.12888336 0.31281763
v 0.3817334 0.15392765 0.27930874
v 0.43417114 0.09898285 0.3231967
v 0.44093594 0.09245902 0.29891753
v 0.44634292 0.0950377 -0.13389488
v 0.38430396 0.15909703 -0.1356553
v 0.446261 0.09553781 -0.15594807
v -0.3723388 0.04485303 0.12936012
v -0.3740478 0.08515775 -0.0074713975
v -0.30648568 0.1033864 0.13883261
v -0.26451257 0.15624106 0.094098255
v -0.33054402 0.15832579 -0.113825604
v -0.36125514 0.13173747 -0.120567515
v 0.44497213 -0.018800303 -0.02416931
v 0.44093594 0.09245902 0.29891753
v 0.44634292 0.0950377 -0.13389488
v 0.44634292 -0.0645058 -0.13389488
v 0.446261 0.09553781 -0.15594807
v 0.44605428 -0.09692223 -0.21160114
v 0.44497213 -0.018800303 -0.02416931
v 0.43417114 0.09898285 0.3231967
v 0.44093594 0.09245902 0.29891753
v -0.022243358 -0.06404883 0.22756676
v 0.3926423 -0.09847094 -0.21040125
v 0.44634292 -0.0645058 -0.13389488
v 0.44605428 -0.09692223 -0.21160114
v -0.37522393 -0.332038 -0.25426042
v -0.25633496 -0.14694053 0.18060596
v -0.3735221 -0.23103362 0.03466186
v -0.3756363 -0.2936247 -0.14351356
v -0.3353648 -0.17498764 0.16457163
v -0.371994 -0.18803746 0.15699513
v 0.446261 0.09553781 -0.15594807
v 0.3926423 -0.09847094 -0.21040125
v 0.44605428 -0.09692223 -0.21160114
v 0.38430396 0.15909703 -0.1356553
v -0.33054402 0.15832579 -0.113825604
v -0.37522393 -0.332038 -0.25426042
v -0.37562773 0.07316717 -0.1370625
v -0.36125514 0.13173747 -0.120567515
vt 0.33241612 0.11636374
vt 0.3383775 0.115353756
vt 0.3355304 0.10409887
vt 0.34415573 0.09090205
vt 0.34898016 0.09674224
vt 0.40405664 0.08206627
vt 0.40646374 0.07832901
vt 0.40591645 0.11849326
vt 0.40405664 0.08206627
vt 0.34898016 0.09674224
vt 0.3423705 0.11539832
vt 0.61636686 0.09692489
vt 0.5948517 0.09605646
vt 0.5917887 0.107562035
vt 0.62103254 0.10916344
vt 0.62085015 0.12110918
vt 0.5881446 0.12403545
vt 0.58494025 0.13414714
vt 0.51472336 0.0073528523
vt 0.5113021 0.009081445
vt 0.54654646 0.035856932
vt 0.57652044 0.029658657
vt 0.56459427 0.049533647
vt 0.57068974 0.054155704
vt 0.5805488 0.03650049
vt 0.5735169 0.05630184
vt 0.40646374 0.07832901
vt 0.40405664 0.08206627
vt 0.41032207 0.076476105
vt 0.41135907 0.07849418
vt 0.41420662 0.11807817
vt 0.40591645 0.11849326
vt 0.41417915 0.12013135
vt 0.33556756 0.09023136
vt 0.3355304 0.10409887
vt 0.34415573 0.09090205
vt 0.34898016 0.09674224
vt 0.3423705 0.11539832
vt 0.3383775 0.115353756
vt 0.42405683 0.10772993
vt 0.41135907 0.07849418
vt 0.41420662 0.11807817
vt 0.42910886 0.11763694
vt 0.41417915 0.12013135
vt 0.4322045 0.124776974
vt 0.3933944 0.156785
vt 0.39930108 0.14176066
vt 0.3991472 0.1428754
vt 0.37788588 0.14094342
vt 0.387724 0.16421337
vt 0.39141697 0.16175131
vt 0.38996318 0.16524532
vt 0.35384193 0.15781628
vt 0.3669405 0.1404348
vt 0.3592152 0.14543481
vt 0.35585573 0.15305887
vt 0.36324194 0.14027084
vt 0.3615251 0.14020105
vt 0.5028584 0.16056104
vt 0.50763315 0.16829537
vt 0.5055135 0.16899444
vt 0.50441843 0.15688598
vt 0.532513 0.14665435
vt 0.54146695 0.1672762
vt 0.53545433 0.14973786
vt 0.5340852 0.14737885
vn -0.9956493 0.09315628 0.0021296334
vn -0.97044677 0.24108787 -0.010475583
vn -0.99928254 0.03681655 0.008882436
vn -0.18948634 0.71764994 0.6701294
vn -0.18948635 0.71765 0.6701294
vn -0.1894864 0.7176495 0.67012995
vn -0.1894864 0.71764946 0.67013
vn -0.00014695186 0.9999279 0.012014672
vn -0 0.9999224 0.012456451
vn -0.00054277346 0.9999405 0.010897089
vn -0.0007652414 0.99994695 0.010268954
vn -0.99992204 0 0.012489392
vn -0.99992204 0 0.012489865
vn -0.9999255 -8.664215E-05 0.012205562
vn -0.99928254 0.03681655 0.008882436
vn -0.9956493 0.09315628 0.0021296334
vn -0.9999974 -1.7439175E-05 0.0023212987
vn -0.99999297 8.931798E-05 -0.003754575
vn -0.2395699 0.10449438 0.9652395
vn -0.23955436 0.104456685 0.9652474
vn -0.2381493 0.10726558 0.965287
vn -0.2374703 0.11195713 0.96492153
vn -0.23521088 0.11395242 0.9652413
vn -0.23860851 0.113924995 0.96441025
vn -0.2400336 0.114038825 0.964043
vn -0.24003379 0.11403894 0.9640429
vn 0.718104 0.6958122 0.013114417
vn 0.7181028 0.6958133 0.013116382
vn 0.71810395 0.6958123 0.013116289
vn 0.7181033 0.69581294 0.013116643
vn 0.71810234 0.6958139 0.013114415
vn 0.7181025 0.6958138 0.013115892
vn 0.7181023 0.6958141 0.013112274
vn -0.6656643 0.71354824 0.21849473
vn -0.66568446 0.7135161 0.21853805
vn -0.6656649 0.7135476 0.21849512
vn -0.6656759 0.7135303 0.2185185
vn -0.66569537 0.7134986 0.21856213
vn -0.66569513 0.7134989 0.21856196
vn 0.99992204 0 0.012491763
vn 0.99992204 0 0.01249168
vn 0.9999907 0 0.004315115
vn 0.99999726 0 0.0023518032
vn 0.9999931 0 -0.003714814
vn 0.9999931 0 -0.0037144464
vn 0.24092749 -0.9149624 0.32372475
vn 0.25933042 -0.91215926 0.31735337
vn 0.25932938 -0.91216063 0.31735024
vn 0.25933084 -0.9121589 0.31735426
vn 0.17058839 -0.9223516 0.34665123
vn 0.035386916 -0.92238206 0.38465452
vn 0.035386156 -0.92238164 0.3846557
vn 0.25933105 -0.9121588 0.31735438
vn 0.2593309 -0.9121589 0.3173543
vn 0.25933117 -0.9121588 0.3173543
vn 0.25934952 -0.91215026 0.31736365
vn 0.25933057 -0.9121588 0.3173548
vn 0.2593307 -0.91215867 0.31735507
vn -0.02962335 0.27769384 -0.96021277
vn -0.029622484 0.2776936 -0.9602129
vn -0.029622732 0.2776934 -0.9602129
vn -0.029622532 0.27769384 -0.96021277
vn -0.02962273 0.27769324 -0.960213
vn -0.029622532 0.27769348 -0.9602129
vn -0.029626682 0.27769342 -0.96021277
vn -0.029620515 0.27769122 -0.96021366
g mdlMajorConstructDeathShard3_0
f 3/3/3 2/2/2 1/1/1
f 6/6/6 5/5/5 4/4/4
f 7/7/7 6/6/6 4/4/4
f 10/10/10 9/9/9 8/8/8
f 11/11/11 10/10/10 8/8/8
f 14/14/14 13/13/13 12/12/12
f 15/15/15 14/14/14 12/12/12
f 16/16/16 14/14/14 15/15/15
f 17/17/17 14/14/14 16/16/16
f 18/18/18 17/17/17 16/16/16
f 21/21/21 20/20/20 19/19/19
f 22/22/22 21/21/21 19/19/19
f 21/21/21 22/22/22 23/23/23
f 23/23/23 22/22/22 24/24/24
f 24/24/24 22/22/22 25/25/25
f 26/26/26 24/24/24 25/25/25
f 29/29/29 28/28/28 27/27/27
f 28/28/28 29/29/29 30/30/30
f 31/31/31 28/28/28 30/30/30
f 28/28/28 31/31/31 32/32/32
f 31/31/31 33/33/33 32/32/32
f 36/36/36 35/35/35 34/34/34
f 37/37/37 35/35/35 36/36/36
f 35/35/35 37/37/37 38/38/38
f 39/39/39 35/35/35 38/38/38
f 42/42/42 41/41/41 40/40/40
f 43/43/43 42/42/42 40/40/40
f 44/44/44 42/42/42 43/43/43
f 45/45/45 44/44/44 43/43/43
f 48/48/48 47/47/47 46/46/46
f 49/49/49 46/46/46 47/47/47
f 46/46/46 49/49/49 50/50/50
f 51/51/51 46/46/46 50/50/50
f 52/52/52 51/51/51 50/50/50
f 50/50/50 49/49/49 53/53/53
f 54/54/54 53/53/53 49/49/49
f 54/54/54 55/55/55 53/53/53
f 56/56/56 53/53/53 55/55/55
f 57/57/57 55/55/55 54/54/54
f 58/58/58 55/55/55 57/57/57
f 61/61/61 60/60/60 59/59/59
f 60/60/60 62/62/62 59/59/59
f 62/62/62 60/60/60 63/63/63
f 64/64/64 63/63/63 60/60/60
f 65/65/65 63/63/63 64/64/64
f 63/63/63 65/65/65 66/66/66
