g mdlMinorConstructSmallCubes
v 1.4605706 1.4605707 -1.4605705
v 1.4605706 -1.4605707 -1.4605705
v 1.4605706 -1.4605707 1.4605709
v 1.4605706 1.4605707 1.4605709
v 1.4605706 -1.4605707 -1.4605705
v -1.4605706 -1.4605707 -1.4605705
v -1.4605706 -1.4605707 1.4605709
v 1.4605706 -1.4605707 1.4605709
v -1.4605706 1.4605707 -1.4605705
v -1.4605706 -1.4605707 -1.4605705
v 1.4605706 -1.4605707 -1.4605705
v 1.4605706 1.4605707 -1.4605705
v -1.4605707 1.4605708 1.4605708
v -1.4605706 -1.4605707 1.4605709
v -1.4605706 -1.4605707 -1.4605705
v -1.4605706 1.4605707 -1.4605705
v -1.4605706 1.4605707 -1.4605705
v 1.4605706 1.4605707 -1.4605705
v -1.4605707 1.4605708 1.4605708
v 1.4605706 1.4605707 1.4605709
v 1.4605706 1.4605707 1.4605709
v 1.4605706 -1.4605707 1.4605709
v -1.4605707 1.4605708 1.4605708
v -1.4605706 -1.4605707 1.4605709
v -18.4321 1.944469 18.394169
v -18.4321 -0.97667265 18.394169
v -18.4321 -0.97667265 21.315311
v -18.4321 1.944469 21.315311
v -18.4321 -0.97667265 18.394169
v -21.353243 -0.97667265 18.394169
v -21.353243 -0.97667265 21.315311
v -18.4321 -0.97667265 21.315311
v -21.353243 1.944469 18.394169
v -21.353243 -0.97667265 18.394169
v -18.4321 -0.97667265 18.394169
v -18.4321 1.944469 18.394169
v -21.353243 1.9444691 21.315311
v -21.353243 -0.97667265 21.315311
v -21.353243 -0.97667265 18.394169
v -21.353243 1.944469 18.394169
v -21.353243 1.944469 18.394169
v -18.4321 1.944469 18.394169
v -21.353243 1.9444691 21.315311
v -18.4321 1.944469 21.315311
v -18.4321 1.944469 21.315311
v -18.4321 -0.97667265 21.315311
v -21.353243 1.9444691 21.315311
v -21.353243 -0.97667265 21.315311
v 2.4245186 3.4431236 16.895514
v 2.4245186 -2.4753296 16.895514
v 2.4245186 -2.4753296 22.813967
v 2.4245186 3.4431236 22.813967
v 2.4245186 -2.4753296 16.895514
v -3.4939337 -2.4753292 16.895514
v -3.4939337 -2.4753292 22.813967
v 2.4245186 -2.4753296 22.813967
v -3.4939337 3.443124 16.895515
v -3.4939337 -2.4753292 16.895514
v 2.4245186 -2.4753296 16.895514
v 2.4245186 3.4431236 16.895514
v -3.493934 3.4431243 22.813967
v -3.4939337 -2.4753292 22.813967
v -3.4939337 -2.4753292 16.895514
v -3.4939337 3.443124 16.895515
v -3.4939337 3.443124 16.895515
v 2.4245186 3.4431236 16.895514
v -3.493934 3.4431243 22.813967
v 2.4245186 3.4431236 22.813967
v 2.4245186 3.4431236 22.813967
v 2.4245186 -2.4753296 22.813967
v -3.493934 3.4431243 22.813967
v -3.4939337 -2.4753292 22.813967
v -16.583881 3.4431236 -2.3232355
v -16.583881 -2.4753296 -2.3232358
v -16.583881 -2.4753296 3.595217
v -16.583881 3.4431236 3.5952172
v -16.583881 -2.4753296 -2.3232358
v -22.502335 -2.4753292 -2.3232355
v -22.502335 -2.4753292 3.5952172
v -16.583881 -2.4753296 3.595217
v -22.502335 3.443124 -2.3232353
v -22.502335 -2.4753292 -2.3232355
v -16.583881 -2.4753296 -2.3232358
v -16.583881 3.4431236 -2.3232355
v -22.502335 3.4431243 3.5952172
v -22.502335 -2.4753292 3.5952172
v -22.502335 -2.4753292 -2.3232355
v -22.502335 3.443124 -2.3232353
v -22.502335 3.443124 -2.3232353
v -16.583881 3.4431236 -2.3232355
v -22.502335 3.4431243 3.5952172
v -16.583881 3.4431236 3.5952172
v -16.583881 3.4431236 3.5952172
v -16.583881 -2.4753296 3.595217
v -22.502335 3.4431243 3.5952172
v -22.502335 -2.4753292 3.5952172
v 2.1558108 22.332132 -2.3232348
v 2.1558108 16.41368 -2.323235
v 2.1558108 16.41368 3.5952177
v 2.1558108 22.332132 3.595218
v 2.1558108 16.41368 -2.323235
v -3.7626414 16.41368 -2.3232348
v -3.7626414 16.41368 3.595218
v 2.1558108 16.41368 3.5952177
v -3.7626414 22.332132 -2.3232346
v -3.7626414 16.41368 -2.3232348
v 2.1558108 16.41368 -2.323235
v 2.1558108 22.332132 -2.3232348
v -3.7626417 22.332132 3.595218
v -3.7626414 16.41368 3.595218
v -3.7626414 16.41368 -2.3232348
v -3.7626414 22.332132 -2.3232346
v -3.7626414 22.332132 -2.3232346
v 2.1558108 22.332132 -2.3232348
v -3.7626417 22.332132 3.595218
v 2.1558108 22.332132 3.595218
v 2.1558108 22.332132 3.595218
v 2.1558108 16.41368 3.5952177
v -3.7626417 22.332132 3.595218
v -3.7626414 16.41368 3.595218
v 1.5586857 21.688005 18.39417
v 1.5586854 18.766863 18.39417
v 1.5586854 18.766863 21.315313
v 1.5586857 21.688005 21.315313
v 1.5586854 18.766863 18.39417
v -1.3624557 18.766863 18.39417
v -1.3624557 18.766863 21.315313
v 1.5586854 18.766863 21.315313
v -1.3624555 21.688005 18.39417
v -1.3624557 18.766863 18.39417
v 1.5586854 18.766863 18.39417
v 1.5586857 21.688005 18.39417
v -1.3624556 21.688005 21.315313
v -1.3624557 18.766863 21.315313
v -1.3624557 18.766863 18.39417
v -1.3624555 21.688005 18.39417
v -1.3624555 21.688005 18.39417
v 1.5586857 21.688005 18.39417
v -1.3624556 21.688005 21.315313
v 1.5586857 21.688005 21.315313
v 1.5586857 21.688005 21.315313
v 1.5586854 18.766863 21.315313
v -1.3624556 21.688005 21.315313
v -1.3624557 18.766863 21.315313
vt 0.9142071 0.19836381
vt 0.9141057 0.22189167
vt 0.93763363 0.22199303
vt 0.93773496 0.19846514
vt 0.9145112 0.12778023
vt 0.9144098 0.1513081
vt 0.93793774 0.15140945
vt 0.93803906 0.12788153
vt 0.9143084 0.17483598
vt 0.9144098 0.1513081
vt 0.890882 0.15120669
vt 0.89078057 0.17473459
vt 0.9378363 0.1749373
vt 0.93793774 0.15140945
vt 0.9144098 0.1513081
vt 0.9143084 0.17483598
vt 0.9143084 0.17483598
vt 0.9142071 0.19836381
vt 0.9378363 0.1749373
vt 0.93773496 0.19846514
vt 0.93773496 0.19846514
vt 0.9612628 0.19856653
vt 0.9378363 0.1749373
vt 0.96136415 0.17503865
vt 0.91420704 0.3145469
vt 0.91410565 0.3380748
vt 0.93763345 0.33817616
vt 0.9377349 0.31464833
vt 0.9145112 0.24396339
vt 0.9144099 0.26749128
vt 0.93793774 0.2675926
vt 0.93803906 0.24406472
vt 0.9143085 0.29101905
vt 0.9144099 0.26749128
vt 0.89088196 0.26738983
vt 0.8907805 0.29091772
vt 0.9378364 0.2911205
vt 0.93793774 0.2675926
vt 0.9144099 0.26749128
vt 0.9143085 0.29101905
vt 0.9143085 0.29101905
vt 0.91420704 0.3145469
vt 0.9378364 0.2911205
vt 0.9377349 0.31464833
vt 0.9377349 0.31464833
vt 0.9612628 0.3147497
vt 0.9378364 0.2911205
vt 0.96136415 0.29122183
vt 0.46708855 0.7278503
vt 0.4666985 0.6801823
vt 0.41903043 0.68057233
vt 0.41942057 0.72824043
vt 0.46825883 0.8708545
vt 0.46786872 0.8231864
vt 0.42020068 0.8235765
vt 0.42059076 0.87124455
vt 0.4674787 0.77551836
vt 0.46786872 0.8231864
vt 0.5155368 0.8227963
vt 0.5151467 0.7751283
vt 0.4198106 0.77590847
vt 0.42020068 0.8235765
vt 0.46786872 0.8231864
vt 0.4674787 0.77551836
vt 0.4674787 0.77551836
vt 0.46708855 0.7278503
vt 0.4198106 0.77590847
vt 0.41942057 0.72824043
vt 0.41942057 0.72824043
vt 0.37175247 0.7286304
vt 0.4198106 0.77590847
vt 0.37214255 0.7762985
vt 0.11027433 0.7561186
vt 0.109884284 0.7084506
vt 0.062216233 0.7088406
vt 0.06260627 0.75650865
vt 0.111444525 0.8991228
vt 0.11105449 0.85145473
vt 0.06338638 0.8518448
vt 0.06377648 0.8995129
vt 0.110664375 0.8037867
vt 0.11105449 0.85145473
vt 0.15872249 0.8510647
vt 0.15833244 0.80339664
vt 0.06299634 0.80417675
vt 0.06338638 0.8518448
vt 0.11105449 0.85145473
vt 0.110664375 0.8037867
vt 0.110664375 0.8037867
vt 0.11027433 0.7561186
vt 0.06299634 0.80417675
vt 0.06260627 0.75650865
vt 0.06260627 0.75650865
vt 0.014938243 0.7568988
vt 0.06299634 0.80417675
vt 0.015328288 0.8045668
vt 0.23035029 0.8507127
vt 0.23074037 0.8983808
vt 0.27840838 0.8979907
vt 0.2780183 0.85032266
vt 0.22917996 0.70770854
vt 0.22957006 0.7553767
vt 0.27723813 0.7549866
vt 0.27684805 0.7073185
vt 0.22996017 0.8030447
vt 0.22957006 0.7553767
vt 0.1819021 0.75576663
vt 0.18229215 0.8034347
vt 0.2776282 0.80265456
vt 0.27723813 0.7549866
vt 0.22957006 0.7553767
vt 0.22996017 0.8030447
vt 0.22996017 0.8030447
vt 0.23035029 0.8507127
vt 0.2776282 0.80265456
vt 0.2780183 0.85032266
vt 0.2780183 0.85032266
vt 0.3256863 0.8499326
vt 0.2776282 0.80265456
vt 0.32529625 0.8022646
vt 0.9142071 0.082180634
vt 0.91410565 0.105708495
vt 0.93763363 0.10580988
vt 0.937735 0.08228204
vt 0.9145113 0.0115970895
vt 0.9144099 0.035124928
vt 0.93793774 0.035226334
vt 0.9380391 0.011698514
vt 0.91430855 0.058652777
vt 0.9144099 0.035124928
vt 0.890882 0.035023548
vt 0.8907806 0.058551393
vt 0.9378364 0.058754113
vt 0.93793774 0.035226334
vt 0.9144099 0.035124928
vt 0.91430855 0.058652777
vt 0.91430855 0.058652777
vt 0.9142071 0.082180634
vt 0.9378364 0.058754113
vt 0.937735 0.08228204
vt 0.937735 0.08228204
vt 0.9612628 0.08238342
vt 0.9378364 0.058754113
vt 0.9613642 0.058855608
vn 1 0 0
vn 1 0 0
vn 1 0 0
vn 1 0 0
vn -0 -1 0
vn -0 -1 0
vn -0 -1 0
vn -0 -1 0
vn -0 0 -1
vn -0 0 -1
vn -0 0 -1
vn -0 0 -1
vn -1 0 0
vn -1 0 0
vn -1 0 0
vn -1 0 0
vn -0 1 0
vn -0 1 0
vn -0 1 0
vn -0 1 0
vn -0 0 1
vn -0 0 1
vn -0 0 1
vn -0 0 1
vn 1 0 0
vn 1 0 0
vn 1 0 0
vn 1 0 0
vn -0 -1 0
vn -0 -1 0
vn -0 -1 0
vn -0 -1 0
vn -0 0 -1
vn -0 0 -1
vn -0 0 -1
vn -0 0 -1
vn -1 0 0
vn -1 0 0
vn -1 0 0
vn -1 0 0
vn -0 1 0
vn -0 1 0
vn -0 1 0
vn -0 1 0
vn -0 0 1
vn -0 0 1
vn -0 0 1
vn -0 0 1
vn 1 0 0
vn 1 0 0
vn 1 0 0
vn 1 0 0
vn -0 -1 0
vn -0 -1 0
vn -0 -1 0
vn -0 -1 0
vn -0 0 -1
vn -0 0 -1
vn -0 0 -1
vn -0 0 -1
vn -1 0 0
vn -1 0 0
vn -1 0 0
vn -1 0 0
vn -0 1 0
vn -0 1 0
vn -0 1 0
vn -0 1 0
vn -0 0 1
vn -0 0 1
vn -0 0 1
vn -0 0 1
vn 1 0 0
vn 1 0 0
vn 1 0 0
vn 1 0 0
vn -0 -1 0
vn -0 -1 0
vn -0 -1 0
vn -0 -1 0
vn -0 0 -1
vn -0 0 -1
vn -0 0 -1
vn -0 0 -1
vn -1 0 0
vn -1 0 0
vn -1 0 0
vn -1 0 0
vn -0 1 0
vn -0 1 0
vn -0 1 0
vn -0 1 0
vn -0 0 1
vn -0 0 1
vn -0 0 1
vn -0 0 1
vn 1 0 0
vn 1 0 0
vn 1 0 0
vn 1 0 0
vn -0 -1 0
vn -0 -1 0
vn -0 -1 0
vn -0 -1 0
vn -0 0 -1
vn -0 0 -1
vn -0 0 -1
vn -0 0 -1
vn -1 0 0
vn -1 0 0
vn -1 0 0
vn -1 0 0
vn -0 1 0
vn -0 1 0
vn -0 1 0
vn -0 1 0
vn -0 0 1
vn -0 0 1
vn -0 0 1
vn -0 0 1
vn 1 0 0
vn 1 0 0
vn 1 0 0
vn 1 0 0
vn -0 -1 0
vn -0 -1 0
vn -0 -1 0
vn -0 -1 0
vn -0 0 -1
vn -0 0 -1
vn -0 0 -1
vn -0 0 -1
vn -1 0 0
vn -1 0 0
vn -1 0 0
vn -1 0 0
vn -0 1 0
vn -0 1 0
vn -0 1 0
vn -0 1 0
vn -0 0 1
vn -0 0 1
vn -0 0 1
vn -0 0 1
g mdlMinorConstructSmallCubes_0
f 3/3/3 2/2/2 1/1/1
f 4/4/4 3/3/3 1/1/1
f 7/7/7 6/6/6 5/5/5
f 8/8/8 7/7/7 5/5/5
f 11/11/11 10/10/10 9/9/9
f 12/12/12 11/11/11 9/9/9
f 15/15/15 14/14/14 13/13/13
f 16/16/16 15/15/15 13/13/13
f 19/19/19 18/18/18 17/17/17
f 19/19/19 20/20/20 18/18/18
f 23/23/23 22/22/22 21/21/21
f 24/24/24 22/22/22 23/23/23
f 27/27/27 26/26/26 25/25/25
f 28/28/28 27/27/27 25/25/25
f 31/31/31 30/30/30 29/29/29
f 32/32/32 31/31/31 29/29/29
f 35/35/35 34/34/34 33/33/33
f 36/36/36 35/35/35 33/33/33
f 39/39/39 38/38/38 37/37/37
f 40/40/40 39/39/39 37/37/37
f 43/43/43 42/42/42 41/41/41
f 43/43/43 44/44/44 42/42/42
f 47/47/47 46/46/46 45/45/45
f 48/48/48 46/46/46 47/47/47
f 51/51/51 50/50/50 49/49/49
f 52/52/52 51/51/51 49/49/49
f 55/55/55 54/54/54 53/53/53
f 56/56/56 55/55/55 53/53/53
f 59/59/59 58/58/58 57/57/57
f 60/60/60 59/59/59 57/57/57
f 63/63/63 62/62/62 61/61/61
f 64/64/64 63/63/63 61/61/61
f 67/67/67 66/66/66 65/65/65
f 67/67/67 68/68/68 66/66/66
f 71/71/71 70/70/70 69/69/69
f 72/72/72 70/70/70 71/71/71
f 75/75/75 74/74/74 73/73/73
f 76/76/76 75/75/75 73/73/73
f 79/79/79 78/78/78 77/77/77
f 80/80/80 79/79/79 77/77/77
f 83/83/83 82/82/82 81/81/81
f 84/84/84 83/83/83 81/81/81
f 87/87/87 86/86/86 85/85/85
f 88/88/88 87/87/87 85/85/85
f 91/91/91 90/90/90 89/89/89
f 91/91/91 92/92/92 90/90/90
f 95/95/95 94/94/94 93/93/93
f 96/96/96 94/94/94 95/95/95
f 99/99/99 98/98/98 97/97/97
f 100/100/100 99/99/99 97/97/97
f 103/103/103 102/102/102 101/101/101
f 104/104/104 103/103/103 101/101/101
f 107/107/107 106/106/106 105/105/105
f 108/108/108 107/107/107 105/105/105
f 111/111/111 110/110/110 109/109/109
f 112/112/112 111/111/111 109/109/109
f 115/115/115 114/114/114 113/113/113
f 115/115/115 116/116/116 114/114/114
f 119/119/119 118/118/118 117/117/117
f 120/120/120 118/118/118 119/119/119
f 123/123/123 122/122/122 121/121/121
f 124/124/124 123/123/123 121/121/121
f 127/127/127 126/126/126 125/125/125
f 128/128/128 127/127/127 125/125/125
f 131/131/131 130/130/130 129/129/129
f 132/132/132 131/131/131 129/129/129
f 135/135/135 134/134/134 133/133/133
f 136/136/136 135/135/135 133/133/133
f 139/139/139 138/138/138 137/137/137
f 139/139/139 140/140/140 138/138/138
f 143/143/143 142/142/142 141/141/141
f 144/144/144 142/142/142 143/143/143
