g mdlMajorConstructStone2
v -0.16341917 -0.18385822 -0.1306575
v -0.21985777 0.03446603 -0.11746459
v -0.21713321 -0.032592475 -0.073453136
v -0.10850601 -0.24283373 -0.08444249
v -0.1077054 -0.05579412 -0.014510289
v -0.04284109 -0.20315486 -0.0400915
v -0.057206497 -0.2621116 -0.09240566
v -0.03569977 -0.20634824 -0.0416321
v -0.02122517 -0.2754116 -0.12803833
v 0.010729864 -0.2688716 -0.13892423
v 0.0735573 -0.24398905 -0.14672568
v 0.11514716 -0.21949857 -0.14281905
v 0.14122267 0.052438676 -0.04671576
v 0.20122685 -0.11457771 -0.073385775
v 0.20340176 -0.11520296 -0.07533756
v -0.12178303 -0.015142739 -0.008109525
v -0.14557986 0.092692494 -0.051895656
v -0.21985777 0.03446603 -0.11746459
v -0.16184671 0.09841508 -0.07736369
v -0.18793692 0.10806471 -0.11978512
v -0.107840255 0.0215438 -0.006914988
v -0.10847026 0.088623464 -0.023804411
v 0.044077173 0.10674238 -0.024695039
v 0.06687917 0.11047542 -0.028250277
v 0.07632278 0.110937834 -0.029828802
v 0.07542844 0.11220604 -0.030688643
v 0.088605866 0.14978093 -0.1510199
v 0.044077173 0.10674238 -0.024695039
v 0.0025857687 0.1445933 -0.16731377
v -0.013193786 0.14311117 -0.16853084
v -0.027430698 0.14147645 -0.16863573
v -0.10847026 0.088623464 -0.023804411
v -0.14557986 0.092692494 -0.051895656
v -0.16184671 0.09841508 -0.07736369
v -0.17112845 0.111958206 -0.1262184
v -0.18793692 0.10806471 -0.11978512
v 0.07632278 0.110937834 -0.029828802
v 0.12512915 0.11260438 -0.15046372
v 0.07542844 0.11220604 -0.030688643
v 0.088605866 0.14978093 -0.1510199
v 0.20473085 0.02048409 -0.12302451
v 0.21873389 0.0026100874 -0.11425279
v 0.23029338 -0.020801783 -0.1180037
v 0.20340176 -0.11520296 -0.07533756
v 0.23029338 -0.020801783 -0.1180037
v 0.18284763 -0.079334676 -0.17110226
v 0.12512915 0.11260438 -0.15046372
v -0.10850601 -0.24283373 -0.08444249
v -0.058281913 -0.26131177 -0.14592221
v -0.16341917 -0.18385822 -0.1306575
v -0.057206497 -0.2621116 -0.09240566
v -0.02122517 -0.2754116 -0.12803833
v 0.010729864 -0.2688716 -0.13892423
v 0.20340176 -0.11520296 -0.07533756
v 0.23029338 -0.020801783 -0.1180037
v 0.18284763 -0.079334676 -0.17110226
v 0.11514716 -0.21949857 -0.14281905
v -0.21985777 0.03446603 -0.11746459
v -0.17112845 0.111958206 -0.1262184
v -0.18793692 0.10806471 -0.11978512
v -0.10969578 -0.099731505 -0.18350375
v -0.16341917 -0.18385822 -0.1306575
v -0.027430698 0.14147645 -0.16863573
v -0.058281913 -0.26131177 -0.14592221
v -0.013193786 0.14311117 -0.16853084
v 0.03808625 -0.15782064 -0.18703401
v 0.010729864 -0.2688716 -0.13892423
v 0.0735573 -0.24398905 -0.14672568
v 0.11514716 -0.21949857 -0.14281905
v 0.18284763 -0.079334676 -0.17110226
v 0.0025857687 0.1445933 -0.16731377
v 0.12512915 0.11260438 -0.15046372
v 0.088605866 0.14978093 -0.1510199
vt 0.35829473 0.46343812
vt 0.33098748 0.5856539
vt 0.36237305 0.5508514
vt 0.40109095 0.44508022
vt 0.42149603 0.5373929
vt 0.4382117 0.46158522
vt 0.42063725 0.42797658
vt 0.44129944 0.45923585
vt 0.43381786 0.404262
vt 0.4526766 0.3910119
vt 0.49843413 0.3899322
vt 0.5289364 0.3984647
vt 0.5597475 0.5595129
vt 0.5614196 0.4763997
vt 0.5627616 0.4757295
vt 0.41731662 0.55929077
vt 0.40188503 0.6302282
vt 0.33098748 0.5856539
vt 0.37994435 0.6348062
vt 0.34383217 0.64271075
vt 0.42767695 0.5774399
vt 0.43143982 0.61513567
vt 0.51816547 0.605954
vt 0.53132886 0.6041074
vt 0.53699726 0.60222465
vt 0.5371132 0.6034681
vt 0.5648103 0.6831042
vt 0.51816547 0.605954
vt 0.50853217 0.6946708
vt 0.49899805 0.69645065
vt 0.49037963 0.6969954
vt 0.43143982 0.61513567
vt 0.40188503 0.6302282
vt 0.39374566 0.6504051
vt 0.39701876 0.68684226
vt 0.3841808 0.68629044
vt 0.53699726 0.60222465
vt 0.62309736 0.5989497
vt 0.5371132 0.6034681
vt 0.6159874 0.6328169
vt 0.5979017 0.5273135
vt 0.59196943 0.5172479
vt 0.5925942 0.5062131
vt 0.5627616 0.4757295
vt 0.5925942 0.5062131
vt 0.63337207 0.46433067
vt 0.62309736 0.5989497
vt 0.40109095 0.44508022
vt 0.40455756 0.39798012
vt 0.35829473 0.46343812
vt 0.42063725 0.42797658
vt 0.43381786 0.404262
vt 0.4526766 0.3910119
vt 0.5627616 0.4757295
vt 0.5925942 0.5062131
vt 0.63337207 0.46433067
vt 0.5289364 0.3984647
vt 0.3518018 0.7343221
vt 0.39701876 0.68684226
vt 0.3841808 0.68629044
vt 0.42822722 0.8394157
vt 0.3725536 0.89623946
vt 0.49037963 0.6969954
vt 0.4465746 0.96147037
vt 0.49899805 0.69645065
vt 0.52497584 0.887934
vt 0.49781883 0.9738009
vt 0.5464643 0.95792145
vt 0.57969224 0.9435737
vt 0.63337207 0.83874136
vt 0.50853217 0.6946708
vt 0.59189236 0.7058276
vt 0.5648103 0.6831042
vn -0.833936 -0.4259755 -0.3508498
vn -0.5738922 0.02246591 -0.81862265
vn -0.9085518 -0.12081596 0.3999214
vn -0.42289758 -0.47606355 0.771052
vn -0.17722866 -0.2164268 0.9600778
vn -0.08997881 -0.3561638 0.9300813
vn 0.1567204 -0.6972965 0.6994399
vn 0.15820442 -0.4852303 0.85995513
vn 0.3543732 -0.7005966 0.6193417
vn 0.35437328 -0.7005965 0.6193417
vn 0.3543741 -0.7005958 0.6193421
vn 0.3543738 -0.70059645 0.6193414
vn 0.55216485 0.32551616 0.76756316
vn 0.4722327 -0.27497065 0.8374888
vn 0.35438338 -0.7006004 0.6193315
vn -0.28342906 -0.058665313 0.9571972
vn -0.65934396 0.25485915 0.7073276
vn -0.7584434 0.33894452 0.5566688
vn -0.7587883 0.33992893 0.5555975
vn -0.761385 0.3474806 0.5473117
vn -0.20481326 0.09583012 0.9740986
vn -0.3257569 0.22796488 0.9175589
vn 0.14565355 -0.053553324 0.9878852
vn 0.040272165 0.56016606 0.8274008
vn 0.15613104 0.14612663 0.97686744
vn -0.011272192 0.8336597 0.5521634
vn -0.11141129 0.9520083 0.285075
vn -0.1114107 0.9520083 0.28507513
vn -0.111408785 0.95200884 0.28507426
vn -0.111410275 0.9520083 0.2850751
vn -0.11141143 0.9520081 0.28507537
vn -0.11141035 0.9520082 0.2850754
vn -0.11141085 0.9520084 0.28507483
vn -0.1114116 0.9520084 0.28507435
vn -0.11141154 0.9520082 0.28507504
vn -0.111412495 0.9520081 0.28507513
vn 0.6815961 0.6739149 0.28507093
vn 0.6816109 0.6738981 0.28507558
vn 0.68158823 0.67392397 0.2850687
vn 0.6816107 0.67389816 0.2850757
vn 0.76705956 0.56440234 -0.30507296
vn 0.86965126 0.44134194 0.2211879
vn 0.6115527 0.17731835 0.7710781
vn 0.6827008 0.13046552 0.7189564
vn 0.60640776 0.28519785 -0.74224776
vn 0.27920425 0.06341441 -0.95813555
vn 0.24302645 0.17565963 -0.9539821
vn -0.5337281 -0.8244429 -0.18822354
vn -0.3026581 -0.7333964 -0.60870993
vn -0.59694165 -0.75916296 -0.25948444
vn -0.3527022 -0.9357102 -0.006897155
vn -0.14981478 -0.9033844 -0.40181103
vn 0.035548307 -0.48456335 -0.8740336
vn 0.8328665 -0.43531826 -0.34180608
vn 0.857199 -0.39404467 -0.33156982
vn 0.83631957 -0.42972353 -0.34045178
vn 0.81453323 -0.46375445 -0.34852186
vn -0.5738922 0.02246591 -0.81862265
vn -0.34929264 0.14897458 -0.9250952
vn -0.38155237 0.13666107 -0.914189
vn -0.3065445 -0.0752365 -0.94887817
vn -0.833936 -0.4259755 -0.3508498
vn -0.109551 0.0983314 -0.9891054
vn -0.3026581 -0.7333964 -0.60870993
vn 0.033726584 0.06705952 -0.9971788
vn 0.07132066 -0.18548554 -0.98005533
vn 0.035548307 -0.48456335 -0.8740336
vn 0.15564166 -0.36526424 -0.91780055
vn 0.27054846 -0.31429428 -0.9099575
vn 0.27920425 0.06341441 -0.95813555
vn 0.1026001 0.099337384 -0.9897501
vn 0.24302645 0.17565963 -0.9539821
vn 0.17465018 0.15703905 -0.9720268
g mdlMajorConstructStone2_0
f 3/3/3 2/2/2 1/1/1
f 3/3/3 1/1/1 4/4/4
f 3/3/3 4/4/4 5/5/5
f 6/6/6 5/5/5 4/4/4
f 6/6/6 4/4/4 7/7/7
f 8/8/8 6/6/6 7/7/7
f 6/6/6 8/8/8 5/5/5
f 7/7/7 9/9/9 8/8/8
f 8/8/8 9/9/9 10/10/10
f 11/11/11 8/8/8 10/10/10
f 12/12/12 8/8/8 11/11/11
f 8/8/8 13/13/13 5/5/5
f 14/14/14 13/13/13 8/8/8
f 8/8/8 12/12/12 14/14/14
f 15/15/15 14/14/14 12/12/12
f 16/16/16 3/3/3 5/5/5
f 3/3/3 16/16/16 17/17/17
f 3/3/3 17/17/17 18/18/18
f 17/17/17 19/19/19 18/18/18
f 20/20/20 18/18/18 19/19/19
f 21/21/21 17/17/17 16/16/16
f 5/5/5 21/21/21 16/16/16
f 22/22/22 17/17/17 21/21/21
f 23/23/23 22/22/22 21/21/21
f 21/21/21 5/5/5 23/23/23
f 5/5/5 13/13/13 23/23/23
f 13/13/13 24/24/24 23/23/23
f 25/25/25 24/24/24 13/13/13
f 26/26/26 24/24/24 25/25/25
f 26/26/26 27/27/27 24/24/24
f 24/24/24 27/27/27 28/28/28
f 29/29/29 28/28/28 27/27/27
f 30/30/30 28/28/28 29/29/29
f 31/31/31 28/28/28 30/30/30
f 28/28/28 31/31/31 32/32/32
f 32/32/32 31/31/31 33/33/33
f 34/34/34 33/33/33 31/31/31
f 35/35/35 34/34/34 31/31/31
f 36/36/36 34/34/34 35/35/35
f 38/38/38 37/37/37 13/13/13
f 37/37/37 38/38/38 39/39/39
f 40/40/40 39/39/39 38/38/38
f 38/38/38 13/13/13 41/41/41
f 42/42/42 41/41/41 13/13/13
f 13/13/13 14/14/14 42/42/42
f 42/42/42 14/14/14 43/43/43
f 14/14/14 44/44/44 43/43/43
f 42/42/42 45/45/45 41/41/41
f 41/41/41 45/45/45 46/46/46
f 47/47/47 41/41/41 46/46/46
f 50/50/50 49/49/49 48/48/48
f 51/51/51 48/48/48 49/49/49
f 52/52/52 51/51/51 49/49/49
f 52/52/52 49/49/49 53/53/53
f 56/56/56 55/55/55 54/54/54
f 57/57/57 56/56/56 54/54/54
f 60/60/60 59/59/59 58/58/58
f 59/59/59 61/61/61 58/58/58
f 61/61/61 62/62/62 58/58/58
f 63/63/63 61/61/61 59/59/59
f 61/61/61 64/64/64 62/62/62
f 63/63/63 65/65/65 61/61/61
f 66/66/66 64/64/64 61/61/61
f 65/65/65 66/66/66 61/61/61
f 66/66/66 67/67/67 64/64/64
f 68/68/68 67/67/67 66/66/66
f 68/68/68 66/66/66 69/69/69
f 66/66/66 70/70/70 69/69/69
f 70/70/70 66/66/66 65/65/65
f 71/71/71 70/70/70 65/65/65
f 72/72/72 70/70/70 71/71/71
f 73/73/73 72/72/72 71/71/71
