g mdlPlatform_Column_Low_Straight
v 80.95894 1.2261528E-06 -2851.3396
v 87.22603 -18.666437 32.99907
v 87.22603 -16.799795 32.99907
v 87.22603 -18.666441 72.99907
v 87.22603 -16.799797 72.99907
v 87.22603 -18.666441 72.99907
v 87.226074 -18.666443 83.821175
v 87.226074 -16.799797 83.821175
v 80.95894 1.2261528E-06 -2851.3396
v 85.51289 19.501667 32.999077
v 76.40496 19.501667 32.999077
v 76.40496 19.501667 72.99908
v 85.51289 19.501667 72.99908
v 74.69182 16.799793 32.999077
v 80.95894 1.2261528E-06 -2851.3396
v 74.69182 18.666437 32.999077
v 74.69182 16.799791 72.99908
v 74.69182 18.666435 72.99908
v 74.69182 16.799791 83.82118
v 74.69182 18.666435 83.82118
v 80.95894 1.2261528E-06 -2851.3396
v 74.69182 -16.799795 32.99907
v 74.69182 -18.666437 32.99907
v 74.69182 -18.666441 72.99907
v 74.69182 -16.799797 72.99907
v 74.69182 -18.666441 83.821175
v 74.69182 -16.799797 83.821175
v 87.22603 16.799793 32.999077
v 87.22603 18.666437 32.999077
v 80.95894 1.2261528E-06 -2851.3396
v 87.22603 16.799791 72.99908
v 87.22603 18.666435 72.99908
v 87.22603 16.799791 72.99908
v 87.226074 18.666435 83.82118
v 87.226074 16.799791 83.82118
v 85.51289 -19.50167 32.99907
v 80.95894 1.2261528E-06 -2851.3396
v 76.405 -19.50167 32.99907
v 85.51289 -19.501675 72.99907
v 76.405 -19.501675 72.99907
v 85.51289 -19.50167 32.99907
v 87.22603 -18.666437 32.99907
v 80.95894 1.2261528E-06 -2851.3396
v 85.51289 -19.501675 72.99907
v 87.22603 -18.666441 72.99907
v 85.51289 19.501667 32.999077
v 87.22603 18.666435 72.99908
v 85.51289 19.501667 72.99908
v 87.22603 18.666437 32.999077
v 80.95894 1.2261528E-06 -2851.3396
v 74.69182 -18.666437 32.99907
v 76.405 -19.50167 32.99907
v 80.95894 1.2261528E-06 -2851.3396
v 74.69182 -18.666441 72.99907
v 76.405 -19.501675 72.99907
v 76.405 -19.501675 83.821175
v 74.69182 -18.666441 83.821175
v 80.95894 1.2261528E-06 -2851.3396
v 76.40496 19.501667 32.999077
v 74.69182 18.666437 32.999077
v 76.40496 19.501667 72.99908
v 74.69182 18.666435 72.99908
v 74.69182 18.666435 83.82118
v 76.40496 19.501667 83.82118
v 74.69182 16.799791 72.99908
v 74.69182 16.799791 83.82118
v 74.69182 -5.092161E-06 83.821175
v 74.69182 -5.092161E-06 72.99907
v 74.69182 -16.799797 83.821175
v 74.69182 16.799793 32.999077
v 74.69182 -16.799797 72.99907
v 74.69182 -2.4719388E-06 32.99907
v 80.95894 1.2261528E-06 -2851.3396
v 74.69182 -16.799795 32.99907
v 80.95894 1.2261528E-06 -2851.3396
v 87.226074 -5.722046E-06 83.821175
v 87.2252 16.798677 84.90844
v 87.226074 16.799791 83.82118
v 87.22518 -5.722046E-06 84.90843
v 87.226074 -16.799797 83.821175
v 86.59839 -5.722046E-06 85.53462
v 86.598404 16.79868 85.53463
v 87.22518 -16.798687 84.90843
v 87.226074 -18.666443 83.821175
v 87.22518 -18.665207 84.90843
v 86.59839 -18.665207 85.53462
v 86.59839 -16.798687 85.53462
v 85.51289 -18.666443 85.534485
v 85.51289 -16.799797 85.534485
v 76.405 -18.666441 85.534485
v 76.405 -16.799797 85.534485
v 85.51289 -5.722046E-06 85.5345
v 76.405 -5.793082E-06 85.5345
v 85.51289 16.799791 85.53451
v 76.405 -5.793082E-06 85.5345
v 85.51289 18.666435 85.53451
v 86.598404 18.665197 85.53463
v 87.2252 18.665197 84.90844
v 87.2252 16.798677 84.90844
v 87.226074 16.799791 83.82118
v 87.226074 18.666435 83.82118
v 76.405 16.799791 85.53451
v 75.3195 -5.1742904E-06 85.53462
v 76.405 -16.799797 85.534485
v 75.3195 -16.798687 85.53462
v 76.405 -18.666441 85.534485
v 75.3195 -18.665207 85.53462
v 74.69271 -16.798687 84.90843
v 74.69271 -18.665207 84.90843
v 74.69182 -18.666441 83.821175
v 74.69182 -16.799797 83.821175
v 74.69271 -4.9177474E-06 84.90843
v 74.69182 -5.092161E-06 83.821175
v 74.692696 16.798677 84.90844
v 74.69182 16.799791 83.82118
v 75.31949 16.79868 85.53463
v 76.405 18.666435 85.53451
v 75.31949 18.665197 85.53463
v 74.692696 18.665197 84.90844
v 74.692696 16.798677 84.90844
v 74.69182 16.799791 83.82118
v 74.69182 18.666435 83.82118
v 85.51289 18.666435 85.53451
v 85.51289 16.799791 85.53451
v 85.51293 19.501667 83.82118
v 76.40496 19.501667 83.82118
v 76.405 -18.666441 85.534485
v 76.405 -19.501675 83.821175
v 74.69182 -18.666441 83.821175
v 74.69271 -18.665207 84.90843
v 75.3195 -18.665207 85.53462
v 87.2252 18.665197 84.90844
v 86.598404 18.665197 85.53463
v 85.51289 18.666435 85.53451
v 87.226074 18.666435 83.82118
v 85.51293 19.501667 83.82118
v 85.51289 19.501667 72.99908
v 87.22603 18.666435 72.99908
v 87.22518 -18.665207 84.90843
v 87.226074 -18.666443 83.821175
v 85.51289 -19.501675 83.821175
v 86.59839 -18.665207 85.53462
v 76.405 -19.501675 83.821175
v 76.405 -18.666441 85.534485
v 85.51289 -19.501675 83.821175
v 74.692696 18.665197 84.90844
v 74.69182 18.666435 83.82118
v 76.40496 19.501667 83.82118
v 76.405 18.666435 85.53451
v 75.31949 18.665197 85.53463
v 87.22603 -1.6508786E-06 32.999077
v 87.22603 16.799793 32.999077
v 80.95894 1.2261528E-06 -2851.3396
v 87.22603 -4.2711004E-06 72.99907
v 87.22603 16.799791 72.99908
v 87.22603 -16.799797 72.99907
v 87.22603 -16.799795 32.99907
v 80.95894 1.2261528E-06 -2851.3396
v 85.51289 -19.501675 83.821175
v 87.226074 -18.666443 83.821175
v 87.22603 -18.666441 72.99907
v 85.51289 -19.501675 72.99907
v 87.22603 -16.799797 72.99907
v 87.226074 -16.799797 83.821175
v 87.226074 -5.722046E-06 83.821175
v 87.22603 -4.2711004E-06 72.99907
v 87.22603 16.799791 72.99908
v 87.226074 16.799791 83.82118
v 76.40496 19.501667 83.82118
v 76.40496 19.501667 72.99908
v 85.51289 19.501667 72.99908
v 85.51293 19.501667 83.82118
v 76.405 -19.501675 72.99907
v 76.405 -19.501675 83.821175
v 85.51289 -19.501675 83.821175
v 85.51289 -19.501675 72.99907
vt -3.0828075 0.74410456
vt -1.9999774 0.8704331
vt -1.9999774 0.7441044
vt -0.9171467 0.8704331
vt -0.9171467 0.7441044
vt -0.9211215 0.8912363
vt 0.11258006 0.8834
vt 0.1021388 0.7674506
vt -1.2156315 0.4309143
vt -0.7727676 0.38049448
vt -0.7727676 0.4309141
vt -0.39849144 0.40466464
vt -0.39849153 0.35424492
vt 0.34031025 0.75957286
vt -0.8401583 0.75957286
vt 0.34031025 0.86493516
vt 1.5207789 0.75957286
vt 1.5207791 0.86493516
vt 1.840158 0.75957286
vt 1.8401582 0.86493516
vt -0.8401579 0.75507545
vt 0.34031034 0.86043775
vt 0.34031034 0.75507545
vt 1.5207787 0.75507545
vt 1.5207787 0.86043775
vt 1.8401575 0.75507545
vt 1.8401577 0.86043775
vt -1.9999771 0.8704078
vt -1.9999769 0.74407923
vt -3.0828075 0.74407923
vt -0.9171467 0.8704076
vt -0.9171467 0.74407893
vt -0.9171467 0.8792424
vt -0.24135852 0.74407893
vt -0.24135852 0.8792424
vt -0.7849389 0.38049155
vt -1.2278016 0.3804949
vt -0.78493726 0.43091094
vt -0.41066417 0.35423884
vt -0.41066244 0.404658
vt 1.3676274 0.8096759
vt 1.3676274 0.7749212
vt 0.7892089 0.7749212
vt 1.9460459 0.8096759
vt 1.9460459 0.7749212
vt 1.3578565 0.77559966
vt 1.9294286 0.8092374
vt 1.9294286 0.77559966
vt 1.3578565 0.8092374
vt 0.7862847 0.77559966
vt 0.34278372 0.8663294
vt 0.34278294 0.77472186
vt -0.8189242 0.77474076
vt 1.5044818 0.86631256
vt 1.5044808 0.7747038
vt 1.8187853 0.77469885
vt 1.8187859 0.866308
vt -0.81892407 0.77194965
vt 0.3427868 0.8635561
vt 0.3427868 0.77194756
vt 1.5044808 0.86355275
vt 1.5044805 0.77194524
vt 1.8187805 0.7719443
vt 1.8187809 0.8635518
vt 1.352246 0.48389912
vt 1.618895 0.48389906
vt 1.618895 0.24805906
vt 1.352246 0.2480591
vt 1.6188948 0.012219146
vt 0.36667544 0.48389906
vt 1.352246 0.012219191
vt 0.36667544 0.24805912
vt -0.61889505 0.24805912
vt 0.36667553 0.012219235
vt -0.61889493 0.0122192055
vt 0.499582 0.73667747
vt 2.7146592 0.66578984
vt 2.7348156 0.7366813
vt 0.4998486 0.66449404
vt -1.7356399 0.732556
vt 0.5001556 0.58133775
vt 2.7149637 0.5841388
vt -1.7149602 0.6617023
vt -1.9752764 0.6914801
vt -1.9122491 0.6465952
vt -1.9120774 0.59482175
vt -1.7146615 0.5800513
vt -1.9747039 0.54989725
vt -1.7347895 0.509268
vt -1.9747039 0.54989725
vt -1.7347895 0.509268
vt 0.5004216 0.5092731
vt 0.5004216 0.5092731
vt 2.7356148 0.513392
vt 0.5004216 0.5092731
vt 2.9752288 0.5544666
vt 2.9122696 0.59927565
vt 2.9120588 0.6510487
vt 2.7146595 0.66578984
vt 2.7348156 0.7366813
vt 2.9747543 0.69604945
vt 2.7356148 0.513392
vt 0.5001556 0.58133775
vt -1.7347895 0.509268
vt -1.7146615 0.5800513
vt -1.9747039 0.54989725
vt -1.9120774 0.59482175
vt -1.7149602 0.6617023
vt -1.9122491 0.6465952
vt -1.9752764 0.6914801
vt -1.7356399 0.732556
vt 0.4998486 0.66449404
vt 0.499582 0.73667747
vt 2.7146592 0.66578984
vt 2.7348156 0.7366813
vt 2.7149637 0.5841388
vt 2.9752288 0.5544666
vt 2.9122696 0.59927565
vt 2.9120588 0.6510487
vt 2.7146595 0.66578984
vt 2.7348156 0.7366813
vt 2.9747543 0.69604945
vt 2.9752288 0.5544666
vt 2.7356148 0.513392
vt 3.1469603 0.6254088
vt 1.8187809 0.8635518
vt -1.9747039 0.54989725
vt -2.1469603 0.62052107
vt -1.9752764 0.6914801
vt -1.9122491 0.64659524
vt -1.9120777 0.59482145
vt 2.9120586 0.6510486
vt 2.9122696 0.5992756
vt 2.9752288 0.5544666
vt 2.9747543 0.69604945
vt 3.1469603 0.6254088
vt 1.9294286 0.77559966
vt -0.9171467 0.74407893
vt -1.9122491 0.64659524
vt -1.9752764 0.6914801
vt -2.1469603 0.62052107
vt -1.9120777 0.59482145
vt 1.8187853 0.77469885
vt -1.9747039 0.54989725
vt -2.1469603 0.62052107
vt 2.9120586 0.6510486
vt 2.9747543 0.69604945
vt 3.1469603 0.6254088
vt 2.9752288 0.5544666
vt 2.9122696 0.5992756
vt -1.9999774 0.26219258
vt -1.9999771 0.03595826
vt -3.0828075 0.035958365
vt -0.9171467 0.26219243
vt -0.9171467 0.035957888
vt -0.9171467 0.48842716
vt -1.9999774 0.48842725
vt -3.0828075 0.2621928
vt -2.1469603 0.62052107
vt -1.9752764 0.6914801
vt 1.9518616 0.82726294
vt 1.9460459 0.7049923
vt -1.7546154 0.23231786
vt -1.7356399 0.732556
vt -0.89038354 0.71341443
vt -0.9171467 0.26219243
vt 0.18203104 0.2802196
vt 0.15843582 0.7134183
vt -0.082971096 0.41573864
vt -0.39849144 0.40466464
vt -0.3968737 0.3510495
vt -0.08078408 0.3520683
vt -0.41066244 0.404658
vt 1.8187853 0.77469885
vt -2.1469603 0.62052107
vt -0.41066417 0.35423884
vn -0 1 0
vn 0.8480126 -0.529976 3.1580923E-05
vn 1 0 0.00025634005
vn 0.6894846 -0.5951869 0.41275123
vn 0.7071241 0.70708936 6.633676E-05
vn 0.6894846 -0.5951869 0.41275123
vn 0.822843 -0.56322575 0.07553959
vn 1 0 0.00040838562
vn -0 1 0
vn 0.2248786 0.9743868 -2.2440689E-05
vn -0.22487791 0.97438693 -0.00027973368
vn -0.14946367 0.9887672 0
vn 0.2234508 0.9682093 -0.11242979
vn -1 0 1.6560429E-05
vn -0 1 0
vn -0.8480126 0.52997607 3.1447395E-05
vn -1 0 0
vn -0.8480077 0.52998394 0
vn -1 0 0.00040523813
vn -0.822843 0.56322587 0.07553773
vn -0 1 0
vn -1 0 1.6560445E-05
vn -0.8480108 -0.5299791 3.1352043E-05
vn -0.8480056 -0.52998716 0
vn -1 0 0
vn -0.8228423 -0.5632267 0.07554054
vn -1 0 0.0004105001
vn 1 0 0.00025634016
vn 0.8480046 0.5299889 -2.2987866E-05
vn -0 1 0
vn 0.70712554 6.773916E-05 0.70708793
vn 0.5445618 0.8270706 -0.13930774
vn 0.70712554 6.773916E-05 0.70708793
vn 0.8228431 0.563226 0.07553599
vn 1 0 0.00040312306
vn 0.22487697 -0.9743871 2.8949464E-05
vn -0 1 0
vn -0.22487506 -0.9743876 -2.2519152E-05
vn 0.22345082 -0.9682093 -0.11242968
vn -0.29896075 -0.9542655 0
vn 0.22487697 -0.9743871 2.8949464E-05
vn 0.8480126 -0.529976 3.1580923E-05
vn -0 1 0
vn 0.22345082 -0.9682093 -0.11242968
vn 0.6894846 -0.5951869 0.41275123
vn 0.2248786 0.9743868 -2.2440689E-05
vn 0.5445618 0.8270706 -0.13930774
vn 0.2234508 0.9682093 -0.11242979
vn 0.8480046 0.5299889 -2.2987866E-05
vn -0 1 0
vn -0.8480108 -0.5299791 3.1352043E-05
vn -0.22487506 -0.9743876 -2.2519152E-05
vn -0 1 0
vn -0.8480056 -0.52998716 0
vn -0.29896075 -0.9542655 0
vn -0.3640245 -0.9136259 0.18103561
vn -0.8228423 -0.5632267 0.07554054
vn -0 1 0
vn -0.22487791 0.97438693 -0.00027973368
vn -0.8480126 0.52997607 3.1447395E-05
vn -0.14946367 0.9887672 0
vn -0.8480077 0.52998394 0
vn -0.822843 0.56322587 0.07553773
vn -0.17762633 0.9838606 -0.021614715
vn -1 0 0
vn -1 0 0.00040523813
vn -1 0 0.00040874683
vn -1 0 0
vn -1 0 0.0004105001
vn -1 0 1.6560429E-05
vn -1 0 0
vn -1 0 1.656008E-05
vn -0 1 0
vn -1 0 1.6560445E-05
vn -0 1 0
vn 1 0 0.0004066315
vn 0.92363256 0 0.3832793
vn 1 0 0.00040312306
vn 0.92363083 0 0.38328332
vn 1 0 0.00040838562
vn 0.3824085 0 0.9239934
vn 0.38240942 0 0.923993
vn 0.9236306 0 0.38328376
vn 0.822843 -0.56322575 0.07553959
vn 0.760662 -0.51551807 0.39450514
vn 0.39393783 -0.5155457 0.76093733
vn 0.38240424 0 0.92399514
vn 0.045222845 -0.5203232 0.8527711
vn -6.2577295E-05 0 1
vn -0.07963413 -0.48608565 0.8702753
vn 6.2365194E-05 0 1
vn -5.6899724E-05 0 1
vn 5.7178262E-05 0 1
vn -5.6911405E-05 0 1
vn 5.7178262E-05 0 1
vn 0.021382619 0.5870665 0.80925626
vn 0.39394215 0.51554507 0.7609356
vn 0.7606656 0.5155156 0.39450154
vn 0.92363256 0 0.3832793
vn 1 0 0.00040312306
vn 0.8228431 0.563226 0.07553599
vn 5.715428E-05 0 1
vn -0.38240817 0 0.92399347
vn 6.2365194E-05 0 1
vn -0.38240486 0 0.9239949
vn -0.07963413 -0.48608565 0.8702753
vn -0.3939397 -0.5155461 0.76093614
vn -0.9236306 0 0.38328376
vn -0.7606625 -0.5155183 0.3945041
vn -0.8228423 -0.5632267 0.07554054
vn -1 0 0.0004105001
vn -0.92363083 0 0.38328332
vn -1 0 0.00040874683
vn -0.92363274 0 0.3832787
vn -1 0 0.00040523813
vn -0.3824097 0 0.9239929
vn -0.16540979 0.55707896 0.8138198
vn -0.39394286 0.5155452 0.76093507
vn -0.76066613 0.5155155 0.39450076
vn -0.92363274 0 0.3832787
vn -1 0 0.00040523813
vn -0.822843 0.56322587 0.07553773
vn 0.021382619 0.5870665 0.80925626
vn -5.6911405E-05 0 1
vn 0.021942286 0.9811777 0.19185643
vn -0.17762633 0.9838606 -0.021614715
vn -0.07963413 -0.48608565 0.8702753
vn -0.3640245 -0.9136259 0.18103561
vn -0.8228423 -0.5632267 0.07554054
vn -0.7606625 -0.5155183 0.3945041
vn -0.3939397 -0.5155461 0.76093614
vn 0.7606656 0.5155156 0.39450154
vn 0.39394215 0.51554507 0.7609356
vn 0.021382619 0.5870665 0.80925626
vn 0.8228431 0.563226 0.07553599
vn 0.021942286 0.9811777 0.19185643
vn 0.2234508 0.9682093 -0.11242979
vn 0.5445618 0.8270706 -0.13930774
vn 0.760662 -0.51551807 0.39450514
vn 0.822843 -0.56322575 0.07553959
vn 0.16749278 -0.9309722 0.3244025
vn 0.39393783 -0.5155457 0.76093733
vn -0.3640245 -0.9136259 0.18103561
vn -0.07963413 -0.48608565 0.8702753
vn 0.16749278 -0.9309722 0.3244025
vn -0.76066613 0.5155155 0.39450076
vn -0.822843 0.56322587 0.07553773
vn -0.17762633 0.9838606 -0.021614715
vn -0.16540979 0.55707896 0.8138198
vn -0.39394286 0.5155452 0.76093507
vn 0.9999994 0 -0.0010863976
vn 1 0 0.00025634016
vn -0 1 0
vn 0.70712554 -6.78786E-05 0.70708793
vn 0.70712554 6.773916E-05 0.70708793
vn 0.7071241 0.70708936 6.633676E-05
vn 1 0 0.00025634005
vn -0 1 0
vn 0.16749278 -0.9309722 0.3244025
vn 0.822843 -0.56322575 0.07553959
vn 0.6894846 -0.5951869 0.41275123
vn 0.22345082 -0.9682093 -0.11242968
vn 0.7071241 0.70708936 6.633676E-05
vn 1 0 0.00040838562
vn 1 0 0.0004066315
vn 0.70712554 -6.78786E-05 0.70708793
vn 0.70712554 6.773916E-05 0.70708793
vn 1 0 0.00040312306
vn -0.17762633 0.9838606 -0.021614715
vn -0.14946367 0.9887672 0
vn 0.2234508 0.9682093 -0.11242979
vn 0.021942286 0.9811777 0.19185643
vn -0.29896075 -0.9542655 0
vn -0.3640245 -0.9136259 0.18103561
vn 0.16749278 -0.9309722 0.3244025
vn 0.22345082 -0.9682093 -0.11242968
g mdlPlatform_Column_Low_Straight_0
f 3/3/3 2/2/2 1/1/1
f 4/4/4 2/2/2 3/3/3
f 5/5/5 4/4/4 3/3/3
f 7/7/7 6/6/6 5/5/5
f 8/8/8 7/7/7 5/5/5
f 11/11/11 10/10/10 9/9/9
f 11/11/11 12/12/12 10/10/10
f 12/12/12 13/13/13 10/10/10
f 16/16/16 15/15/15 14/14/14
f 16/16/16 14/14/14 17/17/17
f 18/18/18 16/16/16 17/17/17
f 17/17/17 19/19/19 18/18/18
f 19/19/19 20/20/20 18/18/18
f 23/23/23 22/22/22 21/21/21
f 23/23/23 24/24/24 22/22/22
f 24/24/24 25/25/25 22/22/22
f 24/24/24 26/26/26 25/25/25
f 26/26/26 27/27/27 25/25/25
f 30/30/30 29/29/29 28/28/28
f 28/28/28 29/29/29 31/31/31
f 29/29/29 32/32/32 31/31/31
f 32/32/32 34/34/34 33/33/33
f 34/34/34 35/35/35 33/33/33
f 38/38/38 37/37/37 36/36/36
f 38/38/38 36/36/36 39/39/39
f 40/40/40 38/38/38 39/39/39
f 43/43/43 42/42/42 41/41/41
f 41/41/41 42/42/42 44/44/44
f 42/42/42 45/45/45 44/44/44
f 48/48/48 47/47/47 46/46/46
f 47/47/47 49/49/49 46/46/46
f 46/46/46 49/49/49 50/50/50
f 53/53/53 52/52/52 51/51/51
f 51/51/51 52/52/52 54/54/54
f 52/52/52 55/55/55 54/54/54
f 55/55/55 56/56/56 54/54/54
f 56/56/56 57/57/57 54/54/54
f 60/60/60 59/59/59 58/58/58
f 61/61/61 59/59/59 60/60/60
f 62/62/62 61/61/61 60/60/60
f 62/62/62 63/63/63 61/61/61
f 63/63/63 64/64/64 61/61/61
f 67/67/67 66/66/66 65/65/65
f 68/68/68 67/67/67 65/65/65
f 69/69/69 67/67/67 68/68/68
f 65/65/65 70/70/70 68/68/68
f 71/71/71 69/69/69 68/68/68
f 70/70/70 72/72/72 68/68/68
f 71/71/71 68/68/68 72/72/72
f 70/70/70 73/73/73 72/72/72
f 74/74/74 71/71/71 72/72/72
f 74/74/74 72/72/72 75/75/75
f 78/78/78 77/77/77 76/76/76
f 77/77/77 79/79/79 76/76/76
f 76/76/76 79/79/79 80/80/80
f 81/81/81 79/79/79 77/77/77
f 82/82/82 81/81/81 77/77/77
f 79/79/79 83/83/83 80/80/80
f 80/80/80 83/83/83 84/84/84
f 83/83/83 85/85/85 84/84/84
f 86/86/86 85/85/85 83/83/83
f 87/87/87 83/83/83 79/79/79
f 87/87/87 86/86/86 83/83/83
f 81/81/81 87/87/87 79/79/79
f 86/86/86 87/87/87 88/88/88
f 87/87/87 81/81/81 89/89/89
f 87/87/87 89/89/89 88/88/88
f 88/88/88 89/89/89 90/90/90
f 89/89/89 91/91/91 90/90/90
f 89/89/89 92/92/92 91/91/91
f 81/81/81 92/92/92 89/89/89
f 92/92/92 93/93/93 91/91/91
f 94/94/94 92/92/92 81/81/81
f 82/82/82 94/94/94 81/81/81
f 95/95/95 92/92/92 94/94/94
f 96/96/96 94/94/94 82/82/82
f 97/97/97 96/96/96 82/82/82
f 97/97/97 82/82/82 98/98/98
f 82/82/82 99/99/99 98/98/98
f 98/98/98 99/99/99 100/100/100
f 101/101/101 98/98/98 100/100/100
f 102/102/102 95/95/95 94/94/94
f 95/95/95 102/102/102 103/103/103
f 95/95/95 103/103/103 104/104/104
f 103/103/103 105/105/105 104/104/104
f 104/104/104 105/105/105 106/106/106
f 105/105/105 107/107/107 106/106/106
f 107/107/107 105/105/105 108/108/108
f 109/109/109 107/107/107 108/108/108
f 109/109/109 108/108/108 110/110/110
f 108/108/108 111/111/111 110/110/110
f 108/108/108 105/105/105 112/112/112
f 108/108/108 112/112/112 111/111/111
f 105/105/105 103/103/103 112/112/112
f 112/112/112 113/113/113 111/111/111
f 112/112/112 114/114/114 113/113/113
f 112/112/112 103/103/103 114/114/114
f 114/114/114 115/115/115 113/113/113
f 103/103/103 116/116/116 114/114/114
f 102/102/102 116/116/116 103/103/103
f 102/102/102 117/117/117 116/116/116
f 117/117/117 118/118/118 116/116/116
f 116/116/116 118/118/118 119/119/119
f 120/120/120 116/116/116 119/119/119
f 120/120/120 119/119/119 121/121/121
f 119/119/119 122/122/122 121/121/121
f 123/123/123 117/117/117 102/102/102
f 124/124/124 123/123/123 102/102/102
f 123/123/123 125/125/125 117/117/117
f 125/125/125 126/126/126 117/117/117
f 129/129/129 128/128/128 127/127/127
f 127/127/127 130/130/130 129/129/129
f 127/127/127 131/131/131 130/130/130
f 134/134/134 133/133/133 132/132/132
f 134/134/134 132/132/132 135/135/135
f 135/135/135 136/136/136 134/134/134
f 136/136/136 135/135/135 137/137/137
f 135/135/135 138/138/138 137/137/137
f 141/141/141 140/140/140 139/139/139
f 139/139/139 88/88/88 141/141/141
f 139/139/139 142/142/142 88/88/88
f 88/88/88 144/144/144 143/143/143
f 145/145/145 88/88/88 143/143/143
f 148/148/148 147/147/147 146/146/146
f 146/146/146 149/149/149 148/148/148
f 146/146/146 150/150/150 149/149/149
f 153/153/153 152/152/152 151/151/151
f 151/151/151 152/152/152 154/154/154
f 152/152/152 155/155/155 154/154/154
f 154/154/154 156/156/156 151/151/151
f 156/156/156 157/157/157 151/151/151
f 151/151/151 157/157/157 158/158/158
f 161/161/161 160/160/160 159/159/159
f 162/162/162 161/161/161 159/159/159
f 165/165/165 164/164/164 163/163/163
f 166/166/166 165/165/165 163/163/163
f 165/165/165 166/166/166 167/167/167
f 168/168/168 165/165/165 167/167/167
f 171/171/171 170/170/170 169/169/169
f 172/172/172 171/171/171 169/169/169
f 175/175/175 174/174/174 173/173/173
f 176/176/176 175/175/175 173/173/173
