g mdlVoidSuppressorEye
v -0 -3.2584137E-07 -1
v 0.18163571 0.24999978 -0.9510566
v -1.7091509E-08 0.30901682 -0.9510566
v 0.34549165 0.47552815 -0.80901706
v -0 0.5877852 -0.80901706
v -0.18163574 0.24999979 -0.9510566
v -0 -3.2584137E-07 -1
v 0.55901724 0.18163542 -0.80901706
v 0.29389274 0.09549122 -0.9510566
v -0 -3.2584137E-07 -1
v 0.47552845 0.6545085 -0.5877852
v 0.7694212 0.24999982 -0.5877852
v -0.34549177 0.47552812 -0.80901706
v -1.7091509E-08 0.8090171 -0.5877852
v -0.29389277 0.095491216 -0.9510566
v -0 -3.2584137E-07 -1
v 0.55901724 -0.18163599 -0.80901706
v 0.7694212 -0.25000042 -0.5877852
v 0.29389274 -0.095491864 -0.9510566
v -0 -3.2584137E-07 -1
v 0.90450877 0.2938924 -0.30901703
v 0.5590171 0.7694208 -0.30901703
v 0.90450877 -0.29389304 -0.30901703
v -0.5590173 0.18163534 -0.80901706
v -0.47552854 0.65450853 -0.5877852
v -0.29389274 -0.09549187 -0.9510566
v -0 -3.2584137E-07 -1
v -0.55901724 -0.1816361 -0.80901706
v -0.7694213 0.24999982 -0.5877852
v -0.7694213 -0.25000042 -0.5877852
v -0 0.9510565 -0.30901703
v -0.9045089 0.29389247 -0.30901703
v -0.9045089 -0.293893 -0.30901703
v -0.55901724 0.7694209 -0.30901703
v -0.9510568 0.30901662 -4.371139E-08
v -0.9510567 -0.30901754 -4.371139E-08
v -0.58778554 0.80901676 -4.371139E-08
v -1.9590544E-07 0.99999994 -4.371139E-08
v 0.5877854 0.80901694 -4.371139E-08
v -0.9045088 0.29389232 0.30901697
v -0.90450877 -0.29389313 0.30901697
v -0.55901724 0.76942074 0.30901697
v -1.06498476E-07 0.95105654 0.30901697
v -0.7694213 0.24999982 0.58778524
v -0.7694213 -0.25000042 0.58778524
v -0.47552854 0.65450853 0.58778524
v -0.55901736 0.18163535 0.809017
v -0.5590173 -0.18163611 0.809017
v 0.9510568 0.30901682 -4.371139E-08
v 0.5590172 0.76942086 0.30901697
v -1.7091509E-08 0.8090171 0.58778524
v -0.3454918 0.47552818 0.809017
v -0.29389295 0.09549126 0.95105654
v -0.29389292 -0.095491946 0.95105654
v -1.9152469E-07 -5.894526E-07 1
v -0.18163584 0.24999994 0.95105654
v -1.9152469E-07 -5.894526E-07 1
v -1.06498476E-07 0.5877853 0.809017
v -1.7091509E-08 0.309017 0.95105654
v -1.9152469E-07 -5.894526E-07 1
v 0.47552845 0.6545085 0.58778524
v 0.34549168 0.4755282 0.809017
v 0.18163583 0.24999994 0.95105654
v -1.9152469E-07 -5.894526E-07 1
v 0.29389292 0.09549129 0.95105654
v -1.9152469E-07 -5.894526E-07 1
v 0.5590173 0.18163542 0.809017
v 0.7694212 0.24999982 0.58778524
v 0.29389292 -0.09549191 0.95105654
v -1.9152469E-07 -5.894526E-07 1
v 0.5590173 -0.18163602 0.809017
v 0.9045088 0.29389244 0.30901697
v 0.7694212 -0.25000042 0.58778524
v 0.18163583 -0.25000057 0.95105654
v -1.9152469E-07 -5.894526E-07 1
v 0.9045088 -0.29389298 0.30901697
v 0.3454917 -0.47552878 0.809017
v 0.9510568 -0.3090173 -4.371139E-08
v 0.47552848 -0.6545091 0.58778524
v 2.7611975E-08 -0.30901763 0.95105654
v -1.9152469E-07 -5.894526E-07 1
v 0.55901724 -0.7694214 0.30901697
v 0.5877855 -0.8090174 -4.371139E-08
v 7.231546E-08 -0.5877859 0.809017
v -1.7091509E-08 -0.8090177 0.58778524
v -0.1816358 -0.2500006 0.95105654
v -1.9152469E-07 -5.894526E-07 1
v -0.34549165 -0.47552887 0.809017
v 1.0211778E-07 -0.95105714 0.30901697
v 0.5590171 -0.76942146 -0.30901703
v -0.29389292 -0.095491946 0.95105654
v -1.9152469E-07 -5.894526E-07 1
v -0.5590173 -0.18163611 0.809017
v -0.4755285 -0.6545091 0.58778524
v -0.7694213 -0.25000042 0.58778524
v -0.5590171 -0.7694215 0.30901697
v -0.90450877 -0.29389313 0.30901697
v 1.319201E-07 -1.0000006 -4.371139E-08
v -0.5877853 -0.8090176 -4.371139E-08
v -0.9510567 -0.30901754 -4.371139E-08
v -4.689383E-08 -0.95105714 -0.30901703
v -0.55901724 -0.76942146 -0.30901703
v -0.9045089 -0.293893 -0.30901703
v 0.47552848 -0.6545091 -0.5877852
v -1.7091509E-08 -0.8090177 -0.5877852
v -0.4755285 -0.6545091 -0.5877852
v -0.7694213 -0.25000042 -0.5877852
v 0.34549168 -0.47552875 -0.80901706
v 7.231546E-08 -0.58778584 -0.80901706
v -0.34549162 -0.47552884 -0.80901706
v -0.55901724 -0.1816361 -0.80901706
v 0.18163571 -0.25000042 -0.9510566
v -0 -3.2584137E-07 -1
v 1.2710814E-08 -0.30901745 -0.9510566
v -0 -3.2584137E-07 -1
v -0.1816357 -0.25000042 -0.9510566
v -0 -3.2584137E-07 -1
v -0.29389274 -0.09549187 -0.9510566
v -0 -3.2584137E-07 -1
vt 0.94253325 0.05267647
vt 0.93938816 0.058966696
vt 0.94567835 0.058966696
vt 0.93938816 0.06525695
vt 0.94567835 0.06525695
vt 0.95196855 0.058966696
vt 0.94882345 0.05267647
vt 0.93309784 0.06525695
vt 0.93309784 0.058966696
vt 0.93624294 0.05267647
vt 0.93938816 0.07154721
vt 0.93309784 0.07154721
vt 0.95196855 0.06525695
vt 0.94567835 0.07154721
vt 0.95825887 0.058966696
vt 0.95511377 0.05267647
vt 0.92680764 0.06525695
vt 0.92680764 0.07154721
vt 0.92680764 0.058966696
vt 0.92995274 0.05267647
vt 0.93309784 0.07783744
vt 0.93938816 0.07783744
vt 0.92680764 0.07783744
vt 0.95825887 0.06525695
vt 0.95196855 0.07154721
vt 0.96454906 0.058966696
vt 0.96140397 0.05267647
vt 0.96454906 0.06525695
vt 0.95825887 0.07154721
vt 0.96454906 0.07154721
vt 0.94567835 0.07783744
vt 0.95825887 0.07783744
vt 0.96454906 0.07783744
vt 0.95196855 0.07783744
vt 0.95825887 0.084127694
vt 0.96454906 0.084127694
vt 0.95196855 0.084127694
vt 0.94567835 0.084127694
vt 0.93938816 0.084127694
vt 0.95825887 0.09041795
vt 0.96454906 0.09041795
vt 0.95196855 0.09041795
vt 0.94567835 0.09041795
vt 0.95825887 0.09670821
vt 0.96454906 0.09670821
vt 0.95196855 0.09670821
vt 0.95825887 0.102998406
vt 0.96454906 0.102998406
vt 0.93309784 0.084127694
vt 0.93938816 0.09041795
vt 0.94567835 0.09670821
vt 0.95196855 0.102998406
vt 0.95825887 0.10928866
vt 0.96454906 0.10928866
vt 0.96140397 0.11557892
vt 0.95196855 0.10928866
vt 0.95511377 0.11557892
vt 0.94567835 0.102998406
vt 0.94567835 0.10928866
vt 0.94882345 0.11557892
vt 0.93938816 0.09670821
vt 0.93938816 0.102998406
vt 0.93938816 0.10928866
vt 0.94253325 0.11557892
vt 0.93309784 0.10928866
vt 0.93624294 0.11557892
vt 0.93309784 0.102998406
vt 0.93309784 0.09670821
vt 0.92680764 0.10928866
vt 0.92995274 0.11557892
vt 0.92680764 0.102998406
vt 0.93309784 0.09041795
vt 0.92680764 0.09670821
vt 0.9205173 0.10928866
vt 0.9236625 0.11557892
vt 0.92680764 0.09041795
vt 0.9205173 0.102998406
vt 0.92680764 0.084127694
vt 0.9205173 0.09670821
vt 0.9142271 0.10928866
vt 0.9173722 0.11557892
vt 0.9205173 0.09041795
vt 0.9205173 0.084127694
vt 0.9142271 0.102998406
vt 0.9142271 0.09670821
vt 0.9079369 0.10928866
vt 0.911082 0.11557892
vt 0.9079369 0.102998406
vt 0.9142271 0.09041795
vt 0.9205173 0.07783744
vt 0.9016466 0.10928866
vt 0.9047918 0.11557892
vt 0.9016466 0.102998406
vt 0.9079369 0.09670821
vt 0.9016466 0.09670821
vt 0.9079369 0.09041795
vt 0.9016466 0.09041795
vt 0.9142271 0.084127694
vt 0.9079369 0.084127694
vt 0.9016466 0.084127694
vt 0.9142271 0.07783744
vt 0.9079369 0.07783744
vt 0.9016466 0.07783744
vt 0.9205173 0.07154721
vt 0.9142271 0.07154721
vt 0.9079369 0.07154721
vt 0.9016466 0.07154721
vt 0.9205173 0.06525695
vt 0.9142271 0.06525695
vt 0.9079369 0.06525695
vt 0.9016466 0.06525695
vt 0.9205173 0.058966696
vt 0.9236625 0.05267647
vt 0.9142271 0.058966726
vt 0.9173722 0.05267647
vt 0.9079369 0.058966696
vt 0.911082 0.05267647
vt 0.9016466 0.058966696
vt 0.9047918 0.05267647
vn -0 0 -1
vn 0.19791785 0.27238503 -0.9416129
vn -0 0.33671725 -0.9416058
vn 0.35701382 0.49142045 -0.7943848
vn -0 0.6074207 -0.79438037
vn -0.19791785 0.27238503 -0.9416129
vn -0 0 -1
vn 0.577695 0.18769212 -0.79438025
vn 0.32023734 0.10403974 -0.941607
vn -0 0 -1
vn 0.4814992 0.66275185 -0.57351416
vn 0.7791011 0.2531285 -0.573522
vn -0.35701382 0.49142045 -0.7943848
vn -0 0.8191946 -0.5735156
vn -0.32023734 0.10403974 -0.941607
vn -0 0 -1
vn 0.577695 -0.18769212 -0.79438025
vn 0.7791011 -0.2531285 -0.573522
vn 0.32023734 -0.10403974 -0.941607
vn -0 0 -1
vn 0.9071564 0.29475567 -0.3003102
vn 0.56064135 0.77168304 -0.3003109
vn 0.9071564 -0.29475567 -0.3003102
vn -0.577695 0.18769212 -0.79438025
vn -0.4814992 0.66275185 -0.57351416
vn -0.32023734 -0.10403974 -0.941607
vn -0 0 -1
vn -0.577695 -0.18769212 -0.79438025
vn -0.7791011 0.2531285 -0.573522
vn -0.7791011 -0.2531285 -0.573522
vn -0 0.9538424 -0.30030748
vn -0.9071564 0.29475567 -0.3003102
vn -0.9071564 -0.29475567 -0.3003102
vn -0.56064135 0.77168304 -0.3003109
vn -0.9510608 0.30900395 0
vn -0.9510608 -0.30900395 0
vn -0.58776695 0.80903023 0
vn -0 1 0
vn 0.58776695 0.80903023 0
vn -0.9071564 0.29475567 0.3003102
vn -0.9071564 -0.29475567 0.3003102
vn -0.56064135 0.77168304 0.3003109
vn -0 0.9538424 0.30030748
vn -0.7791011 0.2531285 0.573522
vn -0.7791011 -0.2531285 0.573522
vn -0.4814992 0.66275185 0.57351416
vn -0.577695 0.18769212 0.79438025
vn -0.577695 -0.18769212 0.79438025
vn 0.9510608 0.30900395 0
vn 0.56064135 0.77168304 0.3003109
vn -0 0.8191946 0.5735156
vn -0.35701382 0.49142045 0.7943848
vn -0.32023734 0.10403974 0.941607
vn -0.32023734 -0.10403974 0.941607
vn -0 0 1
vn -0.19791785 0.27238503 0.9416129
vn -0 0 1
vn -0 0.6074207 0.79438037
vn -0 0.33671725 0.9416058
vn -0 0 1
vn 0.4814992 0.66275185 0.57351416
vn 0.35701382 0.49142045 0.7943848
vn 0.19791785 0.27238503 0.9416129
vn -0 0 1
vn 0.32023734 0.10403974 0.941607
vn -0 0 1
vn 0.577695 0.18769212 0.79438025
vn 0.7791011 0.2531285 0.573522
vn 0.32023734 -0.10403974 0.941607
vn -0 0 1
vn 0.577695 -0.18769212 0.79438025
vn 0.9071564 0.29475567 0.3003102
vn 0.7791011 -0.2531285 0.573522
vn 0.19791785 -0.27238503 0.9416129
vn -0 0 1
vn 0.9071564 -0.29475567 0.3003102
vn 0.35701382 -0.49142045 0.7943848
vn 0.9510608 -0.30900395 0
vn 0.4814992 -0.66275185 0.57351416
vn -0 -0.33671725 0.9416058
vn -0 0 1
vn 0.56064135 -0.77168304 0.3003109
vn 0.58776695 -0.80903023 0
vn -0 -0.6074207 0.79438037
vn -0 -0.8191946 0.5735156
vn -0.19791785 -0.27238503 0.9416129
vn -0 0 1
vn -0.35701382 -0.49142045 0.7943848
vn -0 -0.9538424 0.30030748
vn 0.56064135 -0.77168304 -0.3003109
vn -0.32023734 -0.10403974 0.941607
vn -0 0 1
vn -0.577695 -0.18769212 0.79438025
vn -0.4814992 -0.66275185 0.57351416
vn -0.7791011 -0.2531285 0.573522
vn -0.56064135 -0.77168304 0.3003109
vn -0.9071564 -0.29475567 0.3003102
vn -0 -1 0
vn -0.58776695 -0.80903023 0
vn -0.9510608 -0.30900395 0
vn -0 -0.9538424 -0.30030748
vn -0.56064135 -0.77168304 -0.3003109
vn -0.9071564 -0.29475567 -0.3003102
vn 0.4814992 -0.66275185 -0.57351416
vn -0 -0.8191946 -0.5735156
vn -0.4814992 -0.66275185 -0.57351416
vn -0.7791011 -0.2531285 -0.573522
vn 0.35701382 -0.49142045 -0.7943848
vn -0 -0.6074207 -0.79438037
vn -0.35701382 -0.49142045 -0.7943848
vn -0.577695 -0.18769212 -0.79438025
vn 0.19791785 -0.27238503 -0.9416129
vn -0 0 -1
vn -0 -0.33671725 -0.9416058
vn -0 0 -1
vn -0.19791785 -0.27238503 -0.9416129
vn -0 0 -1
vn -0.32023734 -0.10403974 -0.941607
vn -0 0 -1
g mdlVoidSuppressorEye_0
f 3/3/3 2/2/2 1/1/1
f 4/4/4 2/2/2 3/3/3
f 5/5/5 4/4/4 3/3/3
f 5/5/5 3/3/3 6/6/6
f 6/6/6 3/3/3 7/7/7
f 4/4/4 8/8/8 2/2/2
f 8/8/8 9/9/9 2/2/2
f 2/2/2 9/9/9 10/10/10
f 11/11/11 4/4/4 5/5/5
f 12/12/12 8/8/8 4/4/4
f 11/11/11 12/12/12 4/4/4
f 13/13/13 5/5/5 6/6/6
f 14/14/14 11/11/11 5/5/5
f 14/14/14 5/5/5 13/13/13
f 13/13/13 6/6/6 15/15/15
f 15/15/15 6/6/6 16/16/16
f 8/8/8 17/17/17 9/9/9
f 12/12/12 18/18/18 8/8/8
f 18/18/18 17/17/17 8/8/8
f 17/17/17 19/19/19 9/9/9
f 9/9/9 19/19/19 20/20/20
f 21/21/21 12/12/12 11/11/11
f 22/22/22 11/11/11 14/14/14
f 22/22/22 21/21/21 11/11/11
f 23/23/23 18/18/18 12/12/12
f 21/21/21 23/23/23 12/12/12
f 24/24/24 13/13/13 15/15/15
f 25/25/25 14/14/14 13/13/13
f 25/25/25 13/13/13 24/24/24
f 24/24/24 15/15/15 26/26/26
f 26/26/26 15/15/15 27/27/27
f 28/28/28 24/24/24 26/26/26
f 29/29/29 24/24/24 28/28/28
f 29/29/29 25/25/25 24/24/24
f 30/30/30 29/29/29 28/28/28
f 31/31/31 14/14/14 25/25/25
f 31/31/31 22/22/22 14/14/14
f 32/32/32 29/29/29 30/30/30
f 33/33/33 32/32/32 30/30/30
f 34/34/34 25/25/25 29/29/29
f 34/34/34 31/31/31 25/25/25
f 32/32/32 34/34/34 29/29/29
f 35/35/35 32/32/32 33/33/33
f 36/36/36 35/35/35 33/33/33
f 37/37/37 34/34/34 32/32/32
f 35/35/35 37/37/37 32/32/32
f 38/38/38 31/31/31 34/34/34
f 37/37/37 38/38/38 34/34/34
f 39/39/39 22/22/22 31/31/31
f 38/38/38 39/39/39 31/31/31
f 40/40/40 35/35/35 36/36/36
f 41/41/41 40/40/40 36/36/36
f 42/42/42 37/37/37 35/35/35
f 40/40/40 42/42/42 35/35/35
f 43/43/43 38/38/38 37/37/37
f 42/42/42 43/43/43 37/37/37
f 44/44/44 40/40/40 41/41/41
f 45/45/45 44/44/44 41/41/41
f 46/46/46 42/42/42 40/40/40
f 44/44/44 46/46/46 40/40/40
f 47/47/47 44/44/44 45/45/45
f 48/48/48 47/47/47 45/45/45
f 39/39/39 49/49/49 22/22/22
f 49/49/49 21/21/21 22/22/22
f 50/50/50 39/39/39 38/38/38
f 43/43/43 50/50/50 38/38/38
f 51/51/51 43/43/43 42/42/42
f 46/46/46 51/51/51 42/42/42
f 52/52/52 46/46/46 44/44/44
f 47/47/47 52/52/52 44/44/44
f 53/53/53 47/47/47 48/48/48
f 54/54/54 53/53/53 48/48/48
f 55/55/55 53/53/53 54/54/54
f 53/53/53 56/56/56 47/47/47
f 56/56/56 52/52/52 47/47/47
f 57/57/57 56/56/56 53/53/53
f 52/52/52 58/58/58 46/46/46
f 58/58/58 51/51/51 46/46/46
f 56/56/56 59/59/59 52/52/52
f 59/59/59 58/58/58 52/52/52
f 60/60/60 59/59/59 56/56/56
f 51/51/51 61/61/61 43/43/43
f 61/61/61 50/50/50 43/43/43
f 58/58/58 62/62/62 51/51/51
f 62/62/62 61/61/61 51/51/51
f 59/59/59 63/63/63 58/58/58
f 63/63/63 62/62/62 58/58/58
f 64/64/64 63/63/63 59/59/59
f 63/63/63 65/65/65 62/62/62
f 66/66/66 65/65/65 63/63/63
f 62/62/62 67/67/67 61/61/61
f 65/65/65 67/67/67 62/62/62
f 61/61/61 68/68/68 50/50/50
f 67/67/67 68/68/68 61/61/61
f 65/65/65 69/69/69 67/67/67
f 70/70/70 69/69/69 65/65/65
f 69/69/69 71/71/71 67/67/67
f 67/67/67 71/71/71 68/68/68
f 68/68/68 72/72/72 50/50/50
f 50/50/50 72/72/72 39/39/39
f 72/72/72 49/49/49 39/39/39
f 68/68/68 73/73/73 72/72/72
f 71/71/71 73/73/73 68/68/68
f 69/69/69 74/74/74 71/71/71
f 75/75/75 74/74/74 69/69/69
f 72/72/72 76/76/76 49/49/49
f 73/73/73 76/76/76 72/72/72
f 74/74/74 77/77/77 71/71/71
f 71/71/71 77/77/77 73/73/73
f 76/76/76 78/78/78 49/49/49
f 49/49/49 78/78/78 21/21/21
f 78/78/78 23/23/23 21/21/21
f 73/73/73 79/79/79 76/76/76
f 77/77/77 79/79/79 73/73/73
f 74/74/74 80/80/80 77/77/77
f 81/81/81 80/80/80 74/74/74
f 76/76/76 82/82/82 78/78/78
f 79/79/79 82/82/82 76/76/76
f 78/78/78 83/83/83 23/23/23
f 82/82/82 83/83/83 78/78/78
f 80/80/80 84/84/84 77/77/77
f 77/77/77 84/84/84 79/79/79
f 79/79/79 85/85/85 82/82/82
f 84/84/84 85/85/85 79/79/79
f 80/80/80 86/86/86 84/84/84
f 87/87/87 86/86/86 80/80/80
f 86/86/86 88/88/88 84/84/84
f 84/84/84 88/88/88 85/85/85
f 85/85/85 89/89/89 82/82/82
f 82/82/82 89/89/89 83/83/83
f 83/83/83 90/90/90 23/23/23
f 23/23/23 90/90/90 18/18/18
f 86/86/86 91/91/91 88/88/88
f 92/92/92 91/91/91 86/86/86
f 91/91/91 93/93/93 88/88/88
f 88/88/88 94/94/94 85/85/85
f 88/88/88 93/93/93 94/94/94
f 85/85/85 94/94/94 89/89/89
f 93/93/93 95/95/95 94/94/94
f 94/94/94 95/95/95 96/96/96
f 94/94/94 96/96/96 89/89/89
f 95/95/95 97/97/97 96/96/96
f 89/89/89 98/98/98 83/83/83
f 89/89/89 96/96/96 98/98/98
f 83/83/83 98/98/98 90/90/90
f 96/96/96 97/97/97 99/99/99
f 96/96/96 99/99/99 98/98/98
f 97/97/97 100/100/100 99/99/99
f 98/98/98 101/101/101 90/90/90
f 98/98/98 99/99/99 101/101/101
f 99/99/99 100/100/100 102/102/102
f 99/99/99 102/102/102 101/101/101
f 100/100/100 103/103/103 102/102/102
f 90/90/90 101/101/101 104/104/104
f 90/90/90 104/104/104 18/18/18
f 18/18/18 104/104/104 17/17/17
f 101/101/101 102/102/102 105/105/105
f 101/101/101 105/105/105 104/104/104
f 102/102/102 103/103/103 106/106/106
f 102/102/102 106/106/106 105/105/105
f 103/103/103 107/107/107 106/106/106
f 104/104/104 108/108/108 17/17/17
f 104/104/104 105/105/105 108/108/108
f 17/17/17 108/108/108 19/19/19
f 105/105/105 106/106/106 109/109/109
f 105/105/105 109/109/109 108/108/108
f 106/106/106 107/107/107 110/110/110
f 106/106/106 110/110/110 109/109/109
f 107/107/107 111/111/111 110/110/110
f 108/108/108 112/112/112 19/19/19
f 108/108/108 109/109/109 112/112/112
f 19/19/19 112/112/112 113/113/113
f 109/109/109 114/114/114 112/112/112
f 109/109/109 110/110/110 114/114/114
f 112/112/112 114/114/114 115/115/115
f 110/110/110 111/111/111 116/116/116
f 110/110/110 116/116/116 114/114/114
f 114/114/114 116/116/116 117/117/117
f 111/111/111 118/118/118 116/116/116
f 116/116/116 118/118/118 119/119/119
