g mdlVoidRaidWaterCircle
v 0.00010848045 3.33786E-06 -0.00010984671
v -3.003858 15.101966 -0.00010984673
v 0.00010984673 15.397831 -0.00010984673
v -5.8923855 14.22574 -0.00010984673
v 3.0040545 15.10197 -0.00010984673
v -8.554467 12.802828 -0.00010984673
v 5.892584 14.22575 -0.00010984673
v -10.8878 10.887911 -0.00010984673
v 8.554669 12.80284 -0.00010984673
v -12.802719 8.554576 -0.00010984673
v 10.888006 10.887924 -0.00010984673
v -14.225631 5.8924947 -0.00010984673
v 12.802928 8.554592 -0.00010984673
v -15.101855 3.0039682 -0.00010984673
v 14.225843 5.8925114 -0.00010984673
v -15.397721 1.162504E-06 -0.00010984673
v 15.102073 3.0039837 -0.00010984673
v -15.101856 -3.003966 -0.00010984673
v 15.397941 1.4868134E-05 -0.00010984673
v -14.225632 -5.8924923 -0.00010984673
v 15.102078 -3.0039544 -0.00010984673
v -12.802719 -8.554576 -0.00010984673
v 14.225856 -5.892483 -0.00010984673
v -10.8878 -10.887911 -0.00010984673
v 12.802944 -8.554567 -0.00010984673
v -8.554466 -12.802829 -0.00010984673
v 10.888028 -10.887904 -0.00010984673
v -5.8923826 -14.225742 -0.00010984673
v 8.554694 -12.802824 -0.00010984673
v -3.0038543 -15.101967 -0.00010984673
v 5.8926115 -14.225738 -0.00010984673
v 0.00011486397 -15.397831 -0.00010984673
v 3.0040839 -15.101965 -0.00010984673
vt 0.5 0.50000024
vt 0.40245473 0.9903927
vt 0.5 1
vt 0.30865818 0.96193963
vt 0.5975443 0.9903927
vt 0.22221485 0.9157345
vt 0.6913411 0.9619401
vt 0.14644651 0.85355324
vt 0.7777844 0.9157352
vt 0.08426524 0.7777851
vt 0.85355276 0.8535537
vt 0.038060345 0.6913418
vt 0.9157345 0.7777856
vt 0.00960766 0.59754527
vt 0.96193963 0.6913423
vt 0 0.5
vt 0.99039245 0.59754574
vt 0.00960766 0.40245485
vt 1 0.5000005
vt 0.038060345 0.30865842
vt 0.9903927 0.40245533
vt 0.08426524 0.22221497
vt 0.9619399 0.30865878
vt 0.14644651 0.14644663
vt 0.9157347 0.2222152
vt 0.22221485 0.08426524
vt 0.8535535 0.14644687
vt 0.30865842 0.03806023
vt 0.77778536 0.08426536
vt 0.40245497 0.009607306
vt 0.69134206 0.038060345
vt 0.50000024 0
vt 0.5975455 0.009607541
vn -0 0 1
vn -0 0 1
vn -0 0 1
vn -0 0 1
vn -0 0 1
vn -0 0 1
vn -0 0 1
vn -0 0 1
vn -0 0 1
vn -0 0 1
vn -0 0 1
vn -0 0 1
vn -0 0 1
vn -0 0 1
vn -0 0 1
vn -0 0 1
vn -0 0 1
vn -0 0 1
vn -0 0 1
vn -0 0 1
vn -0 0 1
vn -0 0 1
vn -0 0 1
vn -0 0 1
vn -0 0 1
vn -0 0 1
vn -0 0 1
vn -0 0 1
vn -0 0 1
vn -0 0 1
vn -0 0 1
vn -0 0 1
vn -0 0 1
g mdlVoidRaidWaterCircle_0
f 3/3/3 2/2/2 1/1/1
f 2/2/2 4/4/4 1/1/1
f 5/5/5 3/3/3 1/1/1
f 4/4/4 6/6/6 1/1/1
f 7/7/7 5/5/5 1/1/1
f 6/6/6 8/8/8 1/1/1
f 9/9/9 7/7/7 1/1/1
f 8/8/8 10/10/10 1/1/1
f 11/11/11 9/9/9 1/1/1
f 10/10/10 12/12/12 1/1/1
f 13/13/13 11/11/11 1/1/1
f 12/12/12 14/14/14 1/1/1
f 15/15/15 13/13/13 1/1/1
f 14/14/14 16/16/16 1/1/1
f 17/17/17 15/15/15 1/1/1
f 16/16/16 18/18/18 1/1/1
f 19/19/19 17/17/17 1/1/1
f 18/18/18 20/20/20 1/1/1
f 21/21/21 19/19/19 1/1/1
f 20/20/20 22/22/22 1/1/1
f 23/23/23 21/21/21 1/1/1
f 22/22/22 24/24/24 1/1/1
f 25/25/25 23/23/23 1/1/1
f 24/24/24 26/26/26 1/1/1
f 27/27/27 25/25/25 1/1/1
f 26/26/26 28/28/28 1/1/1
f 29/29/29 27/27/27 1/1/1
f 28/28/28 30/30/30 1/1/1
f 31/31/31 29/29/29 1/1/1
f 30/30/30 32/32/32 1/1/1
f 33/33/33 31/31/31 1/1/1
f 32/32/32 33/33/33 1/1/1
