g mdlVendingMachineGlass
v -0.5376582 -0.7534195 3.2338834
v -0.63341224 -0.6747261 3.2338834
v -0.45106572 -0.6747261 3.2338834
v -0.45106572 -0.6747261 3.2338834
v -0.4271943 -0.76440024 3.2338834
v -0.5376582 -0.7534195 3.2338834
v -0.26871917 -0.766122 3.2338834
v -0.2687192 -0.6747261 3.2338834
v -0.110244066 -0.76440024 3.2338834
v -0.08637266 -0.6747261 3.2338834
v -0.2687192 -0.6747261 1.35204
v -0.45146286 -0.6747261 1.35204
v -0.08597554 -0.6747261 1.35204
v -0.63341224 -0.6747261 3.2338834
v -0.63420653 -0.6747261 1.35204
v -0.08637266 -0.6747261 3.2338834
v -0.6059875 -0.7171881 3.2338834
v -0.5376582 -0.7534195 3.2338834
v -0.6067143 -0.7172002 1.35204
v -0.5383465 -0.7534093 1.35204
v 0.09676814 -0.6747261 1.35204
v 0.069275856 -0.7172002 1.35204
v 0.00090813637 -0.7534093 1.35204
v 0.09597385 -0.6747261 3.2338834
v 0.068549156 -0.7171881 3.2338834
v -0.08597554 -0.6747261 1.35204
v -0.109898955 -0.76440024 1.35204
v 0.00090813637 -0.7534093 1.35204
v -0.26871923 -0.766122 1.35204
v -0.2687192 -0.6747261 1.35204
v -0.42753947 -0.76440024 1.35204
v -0.45146286 -0.6747261 1.35204
v -0.5383465 -0.7534093 1.35204
v -0.63420653 -0.6747261 1.35204
v -0.26871917 -0.766122 3.2338834
v -0.4271943 -0.76440024 3.2338834
v -0.5376582 -0.7534195 3.2338834
v -0.5383465 -0.7534093 1.35204
v -0.6059875 -0.7171881 3.2338834
v -0.6067143 -0.7172002 1.35204
v -0.110244066 -0.76440024 3.2338834
v 0.00090813637 -0.7534093 1.35204
v 0.00021982193 -0.7534195 3.2338834
v 0.069275856 -0.7172002 1.35204
v 0.068549156 -0.7171881 3.2338834
vt 0.10047184 0.91046524
vt 0.10047184 0.9062755
vt 0.10047183 0.9201049
vt 0.10047183 0.9201049
vt 0.10047183 0.92010486
vt 0.10047184 0.91046524
vt 0.100471824 0.9339342
vt 0.10047184 0.93393433
vt 0.10047184 0.94776374
vt 0.10047184 0.94776374
vt 0.18315883 0.9339344
vt 0.18315884 0.9200998
vt 0.18315881 0.94776905
vt 0.10047184 0.9062755
vt 0.18315883 0.906265
vt 0.10047184 0.94776374
vt 0.10047184 0.9062755
vt 0.10047184 0.91046524
vt 0.18315883 0.906265
vt 0.18315881 0.9104475
vt 0.18315879 0.96160364
vt 0.18315879 0.96160364
vt 0.1831588 0.9574213
vt 0.10047184 0.96159315
vt 0.10047184 0.96159315
vt 0.18315881 0.94776905
vt 0.1831588 0.9477691
vt 0.1831588 0.9574213
vt 0.18315881 0.9339344
vt 0.18315883 0.9339344
vt 0.18315883 0.9200998
vt 0.18315884 0.9200998
vt 0.18315881 0.9104475
vt 0.18315883 0.906265
vt 0.100471824 0.9339342
vt 0.10047183 0.92010486
vt 0.10047184 0.91046524
vt 0.18315884 0.9104474
vt 0.10047184 0.9062755
vt 0.18315883 0.906265
vt 0.10047184 0.94776374
vt 0.18315879 0.9574213
vt 0.10047184 0.9574034
vt 0.18315879 0.96160364
vt 0.10047184 0.96159315
vn -0.2154768 -0.7139973 0.6661663
vn -0.7315722 0.39826572 0.55334127
vn -0 0.7071067 0.70710677
vn -0 0.7071067 0.70710677
vn -0.039335888 -0.7156803 0.6973195
vn -0.2154768 -0.7139973 0.6661663
vn -0 -0.7095351 0.70467
vn -0 0.70710677 0.7071067
vn 0.039336357 -0.7156803 0.69731945
vn -0 0.70710677 0.70710677
vn -0 0.70710677 -0.7071067
vn -0 0.7071067 -0.70710677
vn -0 0.7071067 -0.70710677
vn -0.7315722 0.39826572 0.55334127
vn -0.7320322 0.39830205 -0.5527063
vn -0 0.70710677 0.70710677
vn -0.5108755 -0.5572287 0.65460104
vn -0.2154768 -0.7139973 0.6661663
vn -0.5110004 -0.5572642 -0.6544731
vn -0.21554853 -0.714012 -0.6661274
vn 0.7320323 0.3983022 -0.552706
vn 0.51100016 -0.55726415 -0.6544735
vn 0.21554838 -0.7140121 -0.6661274
vn 0.7315724 0.3982653 0.55334127
vn 0.5108765 -0.55722845 0.65460044
vn -0 0.7071067 -0.70710677
vn 0.03934224 -0.71566707 -0.6973326
vn 0.21554838 -0.7140121 -0.6661274
vn -0 -0.7095305 -0.70467466
vn -0 0.70710677 -0.7071067
vn -0.039342333 -0.7156671 -0.6973326
vn -0 0.7071067 -0.70710677
vn -0.21554853 -0.714012 -0.6661274
vn -0.7320322 0.39830205 -0.5527063
vn -0 -0.7095351 0.70467
vn -0.039335888 -0.7156803 0.6973195
vn -0.2154768 -0.7139973 0.6661663
vn -0.21554853 -0.714012 -0.6661274
vn -0.5108755 -0.5572287 0.65460104
vn -0.5110004 -0.5572642 -0.6544731
vn 0.039336357 -0.7156803 0.69731945
vn 0.21554838 -0.7140121 -0.6661274
vn 0.21547785 -0.7139971 0.66616625
vn 0.51100016 -0.55726415 -0.6544735
vn 0.5108765 -0.55722845 0.65460044
g mdlVendingMachineGlass_0
f 3/3/3 2/2/2 1/1/1
f 6/6/6 5/5/5 4/4/4
f 4/4/4 5/5/5 7/7/7
f 8/8/8 4/4/4 7/7/7
f 8/8/8 7/7/7 9/9/9
f 10/10/10 8/8/8 9/9/9
f 4/4/4 8/8/8 11/11/11
f 12/12/12 4/4/4 11/11/11
f 11/11/11 8/8/8 13/13/13
f 14/14/14 4/4/4 12/12/12
f 15/15/15 14/14/14 12/12/12
f 8/8/8 16/16/16 13/13/13
f 14/14/14 15/15/15 17/17/17
f 14/14/14 17/17/17 18/18/18
f 15/15/15 19/19/19 17/17/17
f 20/20/20 19/19/19 15/15/15
f 13/13/13 16/16/16 21/21/21
f 13/13/13 21/21/21 22/22/22
f 22/22/22 23/23/23 13/13/13
f 16/16/16 24/24/24 21/21/21
f 21/21/21 24/24/24 22/22/22
f 25/25/25 24/24/24 16/16/16
f 24/24/24 25/25/25 22/22/22
f 28/28/28 27/27/27 26/26/26
f 26/26/26 27/27/27 29/29/29
f 30/30/30 26/26/26 29/29/29
f 30/30/30 29/29/29 31/31/31
f 32/32/32 30/30/30 31/31/31
f 32/32/32 31/31/31 33/33/33
f 33/33/33 34/34/34 32/32/32
f 35/35/35 29/29/29 27/27/27
f 35/35/35 36/36/36 29/29/29
f 36/36/36 31/31/31 29/29/29
f 36/36/36 37/37/37 31/31/31
f 37/37/37 38/38/38 31/31/31
f 37/37/37 39/39/39 38/38/38
f 39/39/39 40/40/40 38/38/38
f 41/41/41 35/35/35 27/27/27
f 41/41/41 27/27/27 42/42/42
f 43/43/43 41/41/41 42/42/42
f 42/42/42 44/44/44 43/43/43
f 10/10/10 41/41/41 43/43/43
f 44/44/44 45/45/45 43/43/43
f 10/10/10 43/43/43 45/45/45
