g mdlVoidWater.001
v -123.40279 20.90811 -11.940625
v -142.774 35.412403 -11.940625
v -139.86807 59.929646 -11.940625
v -114.29737 51.854862 -11.940625
v -81.36575 41.63696 -11.940625
v -92.8945 21.167715 -11.940625
v -80.42958 70.21185 -11.940625
v -98.4606 91.86963 -11.940625
v -128.2474 84.78938 -11.940625
vt 0.26938146 -0.17976837
vt -0.11244808 0.106128335
vt -0.055168625 0.58939207
vt 0.44886008 0.43022856
vt 1.097981 0.22882164
vt 0.87073565 -0.17465128
vt 1.1164341 0.79206634
vt 0.69228244 1.1784062
vt 0.17388836 1.0794069
vn -0 0 1
vn -0 0 1
vn -0 0 1
vn -0 0 1
vn -0 0 1
vn -0 0 1
vn -0 0 1
vn -0 0 1
vn -0 0 1
g mdlVoidWater.001_0
f 3/3/3 2/2/2 1/1/1
f 4/4/4 3/3/3 1/1/1
f 5/5/5 4/4/4 1/1/1
f 6/6/6 5/5/5 1/1/1
f 4/4/4 5/5/5 7/7/7
f 8/8/8 4/4/4 7/7/7
f 3/3/3 4/4/4 8/8/8
f 9/9/9 3/3/3 8/8/8
