g mdlVoidRepairsPlatformWallsEnergyBottom
v -31.18274 0.77657837 17.751944
v -38.828373 0.7482923 17.906498
v -31.204159 0.21692604 17.893286
v -38.764965 1.3022892 17.760666
v -31.16132 1.3362308 17.610598
v -47.36625 1.9358714 17.920969
v -38.701553 1.8562864 17.614836
v -47.252434 2.4801764 17.77047
v -55.17841 3.8875828 17.931236
v -47.138622 3.0244818 17.61997
v -55.016148 4.41902 17.77745
v -62.03929 6.3571115 17.93129
v -54.853893 4.9504576 17.623669
v -61.843433 6.878734 17.777489
v -68.02743 8.984732 17.82095
v -61.647583 7.4003572 17.623688
v -67.828026 9.505246 17.670923
v -73.02412 11.31131 17.123888
v -67.62863 10.0257635 17.520903
v -72.87309 11.837423 16.976215
v -76.955246 12.852017 15.557858
v -72.72208 12.363534 16.82854
v -76.92057 13.375931 15.406829
v -80.12264 13.118645 13.993052
v -76.885895 13.899848 15.255804
v -80.25823 13.57577 13.838281
v -82.68406 11.820465 13.070844
v -80.393814 14.032897 13.683508
v -83.01126 12.103297 12.917722
v -83.845375 9.460073 11.364878
v -83.33848 12.38613 12.764601
v -84.30885 9.516043 11.21692
v -82.83054 6.620267 7.7149897
v -84.77232 9.572013 11.068963
v -83.31333 6.466925 7.5710754
v -79.88774 3.411345 4.093468
v -83.79613 6.3135843 7.427162
v -80.315926 3.09926 3.944521
v -75.43546 -0.15084389 2.5610673
v -80.74412 2.7871752 3.7955737
v -75.79369 -0.5564626 2.3932729
v -69.549255 -3.9557378 2.3999193
v -76.151924 -0.96208143 2.2254794
v -69.83835 -4.411436 2.2109478
v -62.1876 -7.790756 2.7064047
v -70.12745 -4.867134 2.021976
v -62.4125 -8.279239 2.5059073
v -53.183777 -11.129955 4.6125107
v -62.6374 -8.767725 2.30541
v -53.347595 -11.64132 4.407907
v -42.52032 -13.490428 8.945972
v -53.51141 -12.152683 4.2033033
v -42.622917 -14.016835 8.739455
v -30.901926 -14.874774 13.281919
v -42.72552 -14.543246 8.532938
v -30.94025 -15.407964 13.072693
v -18.9715 -15.191191 15.19098
v -30.978579 -15.9411545 12.863467
v -18.940758 -15.722057 14.976702
v -6.402667 -13.48475 15.478443
v -18.910017 -16.252926 14.762424
v -6.3008094 -14.004206 15.258728
v 6.905196 -9.123694 15.218373
v -6.198951 -14.523663 15.039011
v 7.076089 -9.623589 14.995329
v 19.180408 -3.6320841 13.325322
v 7.246983 -10.123486 14.772286
v 19.413036 -4.108038 13.102208
v 28.806692 1.4514441 8.987283
v 19.645668 -4.583992 12.879093
v 29.090733 1.0013742 8.767546
v 36.661728 6.68579 4.645551
v 29.37478 0.5513046 8.547811
v 36.993683 6.269257 4.430375
v 43.883644 12.940181 2.742258
v 37.325638 5.852724 4.215198
v 44.26688 12.572485 2.5302873
v 50.158466 20.227642 2.4696097
v 44.65012 12.204792 2.3183174
v 50.593597 19.931334 2.2583373
v 54.88068 28.109943 2.707077
v 51.02872 19.635027 2.0470645
v 55.35931 27.915174 2.49256
v 57.730778 35.20005 4.3331227
v 55.83795 27.720411 2.2780428
v 58.22029 35.14642 4.107486
v 58.475952 40.221073 8.035161
v 58.7098 35.09279 3.8818495
v 58.916504 40.345966 7.7887917
v 56.944252 43.285538 11.737422
v 59.357063 40.470863 7.542424
v 57.252266 43.57572 11.470251
v 53.31697 44.718735 13.458525
v 57.560284 43.865906 11.203078
v 53.40547 45.10895 13.181345
v 49.127693 44.3077 14.35783
v 53.49398 45.499172 12.904165
v 48.984257 44.723484 14.0863285
v 45.80181 41.90003 15.867028
v 48.840816 45.139267 13.814828
v 45.491547 42.278976 15.617066
v 42.979786 38.123863 17.366402
v 45.181286 42.65793 15.3671055
v 42.579456 38.457973 17.141123
v 39.903675 33.688927 18.008196
v 42.17913 38.792076 16.915844
v 39.48147 34.020332 17.798256
v 36.00689 28.850716 18.083965
v 39.059265 34.35175 17.588312
v 35.607487 29.212502 17.881308
v 31.097399 23.914503 18.073029
v 35.20809 29.574287 17.67865
v 30.740381 24.317831 17.8739
v 26.290165 19.838978 18.06652
v 30.383362 24.72116 17.674768
v 25.97843 20.281004 17.86967
v 25.666697 20.723034 17.672825
v 25.97843 20.281004 17.86967
v 22.761593 17.467987 18.051998
v 26.290165 19.838978 18.06652
v 22.420744 17.88067 17.865534
v 25.666697 20.723034 17.672825
v 20.614063 16.523392 17.991856
v 22.22997 18.363916 17.679329
v 19.779282 16.534815 17.861317
v 20.267042 17.168041 17.733028
v -22.39505 0.83897054 17.74487
v -26.062914 0.15520974 17.879745
v -23.26108 0.4143066 17.8373
v -25.96736 0.69904155 17.74712
v -23.281849 1.1700149 17.653406
v -31.204159 0.21692604 17.893286
v -26.070711 1.2322499 17.614603
v -31.18274 0.77657837 17.751944
v -31.16132 1.3362308 17.610598
vt 20.891382 0.22499996
vt 19.851013 0.531725
vt 20.891382 0.5317248
vt 19.85101 0.22500004
vt 20.891382 -0.08172493
vt 18.70243 0.5317252
vt 19.851013 -0.08172492
vt 18.702433 0.22500017
vt 17.63216 0.53172535
vt 18.70243 -0.08172493
vt 17.632158 0.22500017
vt 16.66515 0.53172517
vt 17.63216 -0.08172491
vt 16.66515 0.22500016
vt 15.791859 0.53172475
vt 16.66515 -0.08172483
vt 15.791859 0.22500004
vt 15.026361 0.53172445
vt 15.791859 -0.08172464
vt 15.026362 0.22499995
vt 14.377872 0.53172445
vt 15.026362 -0.08172454
vt 14.377871 0.22499989
vt 13.812561 0.5317246
vt 14.377873 -0.08172464
vt 13.812561 0.22499986
vt 13.273396 0.5317244
vt 13.812561 -0.08172482
vt 13.273396 0.22499976
vt 12.653585 0.53172433
vt 13.273396 -0.081724904
vt 12.653586 0.22499971
vt 11.872056 0.53172445
vt 12.653586 -0.08172493
vt 11.872055 0.22499976
vt 11.000347 0.53172463
vt 11.872056 -0.081724934
vt 11.000347 0.22499982
vt 10.114048 0.5317247
vt 11.000347 -0.08172503
vt 10.114047 0.22499974
vt 9.152325 0.53172463
vt 10.114048 -0.08172523
vt 9.152325 0.2249996
vt 8.025197 0.53172445
vt 9.152325 -0.08172545
vt 8.025196 0.22499946
vt 6.6625404 0.53172433
vt 8.025196 -0.08172553
vt 6.6625404 0.2249994
vt 5.044174 0.53172445
vt 6.66254 -0.08172555
vt 5.0441737 0.22499944
vt 3.3298175 0.5317246
vt 5.044174 -0.081725545
vt 3.3298173 0.2249995
vt 1.6602911 0.5317244
vt 3.3298175 -0.08172555
vt 1.660291 0.22499943
vt -0.07908684 0.5317242
vt 1.6602912 -0.081725545
vt -0.07908684 0.22499935
vt -1.9909408 0.53172415
vt -0.07908678 -0.08172555
vt -1.9909407 0.22499928
vt -3.8741665 0.53172404
vt -1.9909408 -0.08172556
vt -3.8741665 0.22499919
vt -5.5176926 0.5317238
vt -3.8741665 -0.08172566
vt -5.517692 0.22499897
vt -6.9743013 0.5317237
vt -5.5176926 -0.08172586
vt -6.9743023 0.22499885
vt -8.345901 0.5317238
vt -6.9743013 -0.081725985
vt -8.345901 0.22499897
vt -9.667021 0.5317239
vt -8.345901 -0.08172586
vt -9.667021 0.22499914
vt -10.939859 0.5317238
vt -9.667021 -0.08172566
vt -10.939859 0.2249991
vt -12.1046715 0.53172356
vt -10.939859 -0.08172556
vt -12.104672 0.22499901
vt -13.106864 0.53172344
vt -12.1046715 -0.08172555
vt -13.106863 0.22499895
vt -13.974455 0.53172356
vt -13.106864 -0.081725545
vt -13.974453 0.22499901
vt -14.753039 0.5317238
vt -13.974453 -0.08172555
vt -14.753037 0.2249991
vt -15.475953 0.53172404
vt -14.753038 -0.08172556
vt -15.475952 0.22499919
vt -16.173424 0.53172415
vt -15.475952 -0.08172566
vt -16.173426 0.22499907
vt -16.875546 0.531724
vt -16.173424 -0.08172591
vt -16.875546 0.22499877
vt -17.61621 0.53172356
vt -16.875546 -0.08172639
vt -17.616213 0.22499822
vt -18.444736 0.53172314
vt -17.61621 -0.081727065
vt -18.444736 0.22499773
vt -19.370438 0.531723
vt -18.444736 -0.08172767
vt -19.370436 0.22499754
vt -20.227285 0.53172314
vt -19.370438 -0.08172789
vt -20.227287 0.2249977
vt -20.227285 -0.08172775
vt -20.227283 0.22499767
vt -20.86361 0.53172356
vt -20.227283 0.53172314
vt -20.86361 0.22499815
vt -20.227283 -0.08172774
vt -21.360569 0.53172415
vt -20.86361 -0.081727296
vt -21.360569 0.22499873
vt -21.360569 -0.08172668
vt 22.265795 0.22499992
vt 21.662373 0.53172475
vt 22.265793 0.53172475
vt 21.662369 0.22499992
vt 22.265793 -0.08172492
vt 20.891382 0.5317248
vt 21.662373 -0.08172493
vt 20.89138 0.22499995
vt 20.891382 -0.08172493
vn -0.011501361 -0.24513175 -0.9694215
vn -0.02777905 -0.25158545 -0.9674364
vn -0.011798563 -0.24439539 -0.96960384
vn -0.027414443 -0.25159952 -0.9674431
vn -0.011211725 -0.24589452 -0.9692318
vn -0.051048383 -0.25548008 -0.9654657
vn -0.027036607 -0.25161496 -0.9674498
vn -0.050673217 -0.25552076 -0.9654747
vn -0.07769872 -0.2534774 -0.9642158
vn -0.050287377 -0.25556493 -0.9654831
vn -0.077608034 -0.253498 -0.96421766
vn -0.09057731 -0.24884245 -0.96429926
vn -0.07751516 -0.25351918 -0.96421957
vn -0.09072575 -0.24875855 -0.964307
vn -0.04505409 -0.2606957 -0.96436924
vn -0.09088696 -0.24867055 -0.9643146
vn -0.043011334 -0.2612843 -0.96430314
vn 0.11199537 -0.29059976 -0.95026773
vn -0.04114571 -0.26181975 -0.9642393
vn 0.12432688 -0.29213107 -0.9482628
vn 0.31497568 -0.27567577 -0.9081812
vn 0.13521107 -0.29345265 -0.94636333
vn 0.32297915 -0.27067387 -0.9068738
vn 0.3995928 -0.19043957 -0.896693
vn 0.33065757 -0.26592478 -0.90551066
vn 0.39119053 -0.18858236 -0.90078115
vn 0.43136442 0.074024774 -0.8991357
vn 0.38487563 -0.18609901 -0.90401214
vn 0.4290689 0.09104701 -0.89867145
vn 0.3165939 0.56457084 -0.762252
vn 0.428738 0.11130643 -0.8965459
vn 0.2961497 0.5735007 -0.7638012
vn -0.004714454 0.74404883 -0.66810864
vn 0.2696699 0.5972261 -0.7553801
vn -0.000968554 0.7338807 -0.67927766
vn -0.05606676 0.54765654 -0.83482265
vn 0.00019669664 0.7249696 -0.68878084
vn -0.054362435 0.54725623 -0.8351978
vn 0.081683844 0.33812535 -0.93754953
vn -0.052846566 0.54686826 -0.8355492
vn 0.07942683 0.33981282 -0.9371332
vn 0.1702257 0.28215882 -0.94414496
vn 0.07729533 0.3414084 -0.93673146
vn 0.16896755 0.28262314 -0.944232
vn 0.24083097 0.27296275 -0.9313924
vn 0.16774745 0.2830627 -0.9443179
vn 0.23843402 0.2737503 -0.9317779
vn 0.35530436 0.25146788 -0.9002904
vn 0.2359618 0.2745405 -0.9321746
vn 0.35012615 0.25244495 -0.90204394
vn 0.3849916 0.27319837 -0.8815577
vn 0.344577 0.2534452 -0.90389836
vn 0.38625365 0.27091947 -0.8817089
vn 0.25532368 0.33509928 -0.90692794
vn 0.38764688 0.2685345 -0.88182724
vn 0.26069468 0.33327076 -0.90607333
vn 0.061186407 0.37313488 -0.9257573
vn 0.266035 0.3314443 -0.90519065
vn 0.06249003 0.37299633 -0.925726
vn -0.08494359 0.37137267 -0.9245901
vn 0.06390723 0.37285152 -0.9256876
vn -0.084110744 0.37148628 -0.92462057
vn -0.20731257 0.33412898 -0.9194451
vn -0.08318496 0.3716129 -0.9246535
vn -0.20694122 0.33429205 -0.9194695
vn -0.36994672 0.23458235 -0.89894974
vn -0.20657903 0.334451 -0.9194932
vn -0.37582424 0.22999832 -0.8976953
vn -0.490695 0.113336414 -0.8639289
vn -0.38143498 0.22558871 -0.89644694
vn -0.49220625 0.10923094 -0.86359805
vn -0.4516588 0.10673719 -0.885783
vn -0.4937933 0.10497688 -0.86321956
vn -0.44534385 0.11115289 -0.88843334
vn -0.3387424 0.18842855 -0.92181796
vn -0.43851647 0.11585051 -0.891225
vn -0.33711565 0.18990164 -0.9221119
vn -0.30681673 0.21933337 -0.9261513
vn -0.33542505 0.19142021 -0.92241436
vn -0.3070878 0.2190116 -0.9261377
vn -0.3177744 0.2718423 -0.90836185
vn -0.3073562 0.21870014 -0.92612225
vn -0.31852475 0.27074173 -0.90842766
vn -0.3679764 0.45827523 -0.80905944
vn -0.31919983 0.269775 -0.9084784
vn -0.36881948 0.44897357 -0.8138765
vn -0.5554178 0.48485667 -0.6755925
vn -0.3688289 0.4402532 -0.81862223
vn -0.539586 0.4819891 -0.69031405
vn -0.6079188 -0.059231244 -0.7917868
vn -0.51812637 0.48788434 -0.7025054
vn -0.62432104 0.023556802 -0.7808127
vn -0.28916916 -0.4816143 -0.82730216
vn -0.640226 0.11990717 -0.7587706
vn -0.31350783 -0.4677906 -0.8263685
vn -0.04714597 -0.55417484 -0.8310641
vn -0.33757037 -0.45384243 -0.8246656
vn -0.052846104 -0.5551529 -0.8300678
vn 0.082375586 -0.4935267 -0.8658208
vn -0.059390616 -0.5562479 -0.8288914
vn 0.07344008 -0.5001881 -0.86279684
vn 0.19459364 -0.3725816 -0.90736777
vn 0.06448449 -0.50678104 -0.8596597
vn 0.18838705 -0.3808357 -0.9052483
vn 0.25738856 -0.26786935 -0.928438
vn 0.1826177 -0.3883775 -0.9032241
vn 0.25623232 -0.26975653 -0.92821145
vn 0.26014087 -0.23996396 -0.9352775
vn 0.25502944 -0.2716467 -0.9279914
vn 0.2599265 -0.24024054 -0.9352661
vn 0.23620607 -0.25437984 -0.9378153
vn 0.25969204 -0.24054058 -0.9352541
vn 0.23622404 -0.25440046 -0.93780524
vn 0.20629005 -0.27038506 -0.9403916
vn 0.2362293 -0.25443205 -0.9377953
vn 0.20742829 -0.2718447 -0.9397201
vn 0.20857657 -0.27326414 -0.939054
vn 0.20742829 -0.2718447 -0.9397201
vn 0.1725293 -0.28259325 -0.9435966
vn 0.20629005 -0.27038506 -0.9403916
vn 0.17132741 -0.28991717 -0.9415917
vn 0.20857657 -0.27326414 -0.939054
vn 0.15078883 -0.28870943 -0.9454679
vn 0.17814022 -0.29405704 -0.93904024
vn 0.1548491 -0.29737145 -0.942121
vn 0.15921263 -0.3066842 -0.9384008
vn 0.008160798 -0.23760341 -0.97132796
vn 0.0005448486 -0.23755093 -0.97137487
vn 0.0078104334 -0.23369063 -0.9722796
vn 0.0024743546 -0.23952734 -0.9708864
vn 0.00852759 -0.24169706 -0.9703143
vn -0.011798563 -0.24439539 -0.96960384
vn 0.001225477 -0.24265666 -0.9701114
vn -0.011501361 -0.24513175 -0.9694215
vn -0.011211725 -0.24589452 -0.9692318
g mdlVoidRepairsPlatformWallsEnergyBottom_0
f 3/3/3 2/2/2 1/1/1
f 2/2/2 4/4/4 1/1/1
f 1/1/1 4/4/4 5/5/5
f 2/2/2 6/6/6 4/4/4
f 4/4/4 7/7/7 5/5/5
f 6/6/6 8/8/8 4/4/4
f 4/4/4 8/8/8 7/7/7
f 6/6/6 9/9/9 8/8/8
f 8/8/8 10/10/10 7/7/7
f 9/9/9 11/11/11 8/8/8
f 8/8/8 11/11/11 10/10/10
f 9/9/9 12/12/12 11/11/11
f 11/11/11 13/13/13 10/10/10
f 12/12/12 14/14/14 11/11/11
f 11/11/11 14/14/14 13/13/13
f 12/12/12 15/15/15 14/14/14
f 14/14/14 16/16/16 13/13/13
f 15/15/15 17/17/17 14/14/14
f 14/14/14 17/17/17 16/16/16
f 15/15/15 18/18/18 17/17/17
f 17/17/17 19/19/19 16/16/16
f 18/18/18 20/20/20 17/17/17
f 17/17/17 20/20/20 19/19/19
f 18/18/18 21/21/21 20/20/20
f 20/20/20 22/22/22 19/19/19
f 21/21/21 23/23/23 20/20/20
f 20/20/20 23/23/23 22/22/22
f 21/21/21 24/24/24 23/23/23
f 23/23/23 25/25/25 22/22/22
f 24/24/24 26/26/26 23/23/23
f 23/23/23 26/26/26 25/25/25
f 24/24/24 27/27/27 26/26/26
f 26/26/26 28/28/28 25/25/25
f 27/27/27 29/29/29 26/26/26
f 26/26/26 29/29/29 28/28/28
f 27/27/27 30/30/30 29/29/29
f 29/29/29 31/31/31 28/28/28
f 30/30/30 32/32/32 29/29/29
f 29/29/29 32/32/32 31/31/31
f 30/30/30 33/33/33 32/32/32
f 32/32/32 34/34/34 31/31/31
f 33/33/33 35/35/35 32/32/32
f 32/32/32 35/35/35 34/34/34
f 33/33/33 36/36/36 35/35/35
f 35/35/35 37/37/37 34/34/34
f 36/36/36 38/38/38 35/35/35
f 35/35/35 38/38/38 37/37/37
f 36/36/36 39/39/39 38/38/38
f 38/38/38 40/40/40 37/37/37
f 39/39/39 41/41/41 38/38/38
f 38/38/38 41/41/41 40/40/40
f 39/39/39 42/42/42 41/41/41
f 41/41/41 43/43/43 40/40/40
f 42/42/42 44/44/44 41/41/41
f 41/41/41 44/44/44 43/43/43
f 42/42/42 45/45/45 44/44/44
f 44/44/44 46/46/46 43/43/43
f 45/45/45 47/47/47 44/44/44
f 44/44/44 47/47/47 46/46/46
f 45/45/45 48/48/48 47/47/47
f 47/47/47 49/49/49 46/46/46
f 48/48/48 50/50/50 47/47/47
f 47/47/47 50/50/50 49/49/49
f 48/48/48 51/51/51 50/50/50
f 50/50/50 52/52/52 49/49/49
f 51/51/51 53/53/53 50/50/50
f 50/50/50 53/53/53 52/52/52
f 51/51/51 54/54/54 53/53/53
f 53/53/53 55/55/55 52/52/52
f 54/54/54 56/56/56 53/53/53
f 53/53/53 56/56/56 55/55/55
f 54/54/54 57/57/57 56/56/56
f 56/56/56 58/58/58 55/55/55
f 57/57/57 59/59/59 56/56/56
f 56/56/56 59/59/59 58/58/58
f 57/57/57 60/60/60 59/59/59
f 59/59/59 61/61/61 58/58/58
f 60/60/60 62/62/62 59/59/59
f 59/59/59 62/62/62 61/61/61
f 60/60/60 63/63/63 62/62/62
f 62/62/62 64/64/64 61/61/61
f 63/63/63 65/65/65 62/62/62
f 62/62/62 65/65/65 64/64/64
f 63/63/63 66/66/66 65/65/65
f 65/65/65 67/67/67 64/64/64
f 66/66/66 68/68/68 65/65/65
f 65/65/65 68/68/68 67/67/67
f 66/66/66 69/69/69 68/68/68
f 68/68/68 70/70/70 67/67/67
f 69/69/69 71/71/71 68/68/68
f 68/68/68 71/71/71 70/70/70
f 69/69/69 72/72/72 71/71/71
f 71/71/71 73/73/73 70/70/70
f 72/72/72 74/74/74 71/71/71
f 71/71/71 74/74/74 73/73/73
f 72/72/72 75/75/75 74/74/74
f 74/74/74 76/76/76 73/73/73
f 75/75/75 77/77/77 74/74/74
f 74/74/74 77/77/77 76/76/76
f 75/75/75 78/78/78 77/77/77
f 77/77/77 79/79/79 76/76/76
f 78/78/78 80/80/80 77/77/77
f 77/77/77 80/80/80 79/79/79
f 78/78/78 81/81/81 80/80/80
f 80/80/80 82/82/82 79/79/79
f 81/81/81 83/83/83 80/80/80
f 80/80/80 83/83/83 82/82/82
f 81/81/81 84/84/84 83/83/83
f 83/83/83 85/85/85 82/82/82
f 84/84/84 86/86/86 83/83/83
f 83/83/83 86/86/86 85/85/85
f 84/84/84 87/87/87 86/86/86
f 86/86/86 88/88/88 85/85/85
f 87/87/87 89/89/89 86/86/86
f 86/86/86 89/89/89 88/88/88
f 87/87/87 90/90/90 89/89/89
f 89/89/89 91/91/91 88/88/88
f 90/90/90 92/92/92 89/89/89
f 89/89/89 92/92/92 91/91/91
f 90/90/90 93/93/93 92/92/92
f 92/92/92 94/94/94 91/91/91
f 93/93/93 95/95/95 92/92/92
f 92/92/92 95/95/95 94/94/94
f 93/93/93 96/96/96 95/95/95
f 95/95/95 97/97/97 94/94/94
f 96/96/96 98/98/98 95/95/95
f 95/95/95 98/98/98 97/97/97
f 96/96/96 99/99/99 98/98/98
f 98/98/98 100/100/100 97/97/97
f 99/99/99 101/101/101 98/98/98
f 98/98/98 101/101/101 100/100/100
f 99/99/99 102/102/102 101/101/101
f 101/101/101 103/103/103 100/100/100
f 102/102/102 104/104/104 101/101/101
f 101/101/101 104/104/104 103/103/103
f 102/102/102 105/105/105 104/104/104
f 104/104/104 106/106/106 103/103/103
f 105/105/105 107/107/107 104/104/104
f 104/104/104 107/107/107 106/106/106
f 105/105/105 108/108/108 107/107/107
f 107/107/107 109/109/109 106/106/106
f 108/108/108 110/110/110 107/107/107
f 107/107/107 110/110/110 109/109/109
f 108/108/108 111/111/111 110/110/110
f 110/110/110 112/112/112 109/109/109
f 111/111/111 113/113/113 110/110/110
f 110/110/110 113/113/113 112/112/112
f 111/111/111 114/114/114 113/113/113
f 113/113/113 115/115/115 112/112/112
f 114/114/114 116/116/116 113/113/113
f 113/113/113 116/116/116 115/115/115
f 116/116/116 117/117/117 115/115/115
f 120/120/120 119/119/119 118/118/118
f 119/119/119 121/121/121 118/118/118
f 118/118/118 121/121/121 122/122/122
f 119/119/119 123/123/123 121/121/121
f 121/121/121 124/124/124 122/122/122
f 123/123/123 125/125/125 121/121/121
f 121/121/121 125/125/125 124/124/124
f 125/125/125 126/126/126 124/124/124
f 129/129/129 128/128/128 127/127/127
f 128/128/128 130/130/130 127/127/127
f 127/127/127 130/130/130 131/131/131
f 128/128/128 132/132/132 130/130/130
f 130/130/130 133/133/133 131/131/131
f 132/132/132 134/134/134 130/130/130
f 130/130/130 134/134/134 133/133/133
f 134/134/134 135/135/135 133/133/133
