g mdlVoidWater.003
v -194.36678 153.91446 -31.016249
v -218.0702 156.14304 -31.016249
v -221.67458 174.26497 -31.016249
v -192.71953 171.77841 -31.016249
v -147.66844 156.21393 -31.016249
v -160.54837 145.34235 -31.016249
v -151.37679 174.79572 -31.016249
v -183.54665 191.84541 -31.016249
v -215.19627 194.20966 -31.016249
vt 0.31088796 0.18666932
vt -0.15633489 0.23059693
vt -0.22738093 0.5878019
vt 0.34335724 0.53878856
vt 1.2313671 0.23199439
vt 0.97748864 0.017702796
vt 1.1582712 0.59826314
vt 0.5241655 0.9343331
vt -0.099686086 0.98093486
vn -0 0 1
vn -0 0 1
vn -0 0 1
vn -0 0 1
vn -0 0 1
vn -0 0 1
vn -0 0 1
vn -0 0 1
vn -0 0 1
g mdlVoidWater.003_0
f 3/3/3 2/2/2 1/1/1
f 4/4/4 3/3/3 1/1/1
f 5/5/5 4/4/4 1/1/1
f 6/6/6 5/5/5 1/1/1
f 4/4/4 5/5/5 7/7/7
f 8/8/8 4/4/4 7/7/7
f 3/3/3 4/4/4 8/8/8
f 9/9/9 3/3/3 8/8/8
