g meshVoidJailerDart
v -0.27467835 0 0
v -0 0.42378935 0
v -0 0 0
v -0 -0.42378935 0
v 0.27467835 0 0
v -0 0 -0.27467835
v -0 0.42378935 0
v -0 0 0
v -0 -0.42378935 0
v -0 0 0.27467835
vt 0 0.5
vt 0.5 1
vt 0.5 0.5
vt 0.5 0
vt 1 0.5
vt 0 0.5
vt 0.5 1
vt 0.5 0.5
vt 0.5 0
vt 1 0.5
vn -0 0 1
vn -0 0 1
vn -0 0 1
vn -0 0 1
vn -0 0 1
vn -1 0 0
vn -1 0 0
vn -1 0 0
vn -1 0 0
vn -1 0 0
g meshVoidJailerDart_0
f 3/3/3 2/2/2 1/1/1
f 4/4/4 3/3/3 1/1/1
f 5/5/5 2/2/2 3/3/3
f 5/5/5 3/3/3 4/4/4
f 8/8/8 7/7/7 6/6/6
f 9/9/9 8/8/8 6/6/6
f 10/10/10 7/7/7 8/8/8
f 10/10/10 8/8/8 9/9/9
