g meshSPWaterPPCollision.029
v -8.0127945 6.442538 0.5490379
v -12.087485 3.2737064 0.5490369
v -12.087485 3.2737064 -0.54903793
v -8.0127945 6.442538 -0.54903656
v -0.77029717 -15.764609 -0.5490402
v -3.4888537 9.131377 0.5490385
v -3.4888537 9.131377 -0.5490359
v 2.6992586 9.029679 -0.5490367
v 7.70859 8.640876 -0.5490366
v 13.059643 9.783491 -0.54903746
v -15.075818 -1.1006247 -0.5490385
v 16.388878 9.147301 -0.5490359
v -17.01846 -6.3961105 -0.54903907
v 20.216105 7.3560643 -0.54903734
v -15.075818 -1.1006247 0.5490363
v 20.216105 7.3560643 0.5490371
v 16.388878 9.147301 0.5490385
v 21.960955 5.7103324 -0.5490373
v 23.761364 3.745434 -0.5490372
v 21.960955 5.7103324 0.5490376
v 20.216105 7.3560643 0.5490371
v -0.77029717 -15.764609 0.54903424
v 16.388878 9.147301 0.5490385
v 23.761364 3.745434 0.5490372
v 21.960955 5.7103324 -0.5490373
v 23.761364 3.745434 -0.5490372
v -0.77029717 -15.764609 -0.5490402
v 13.059643 9.783491 0.5490374
v 13.059643 9.783491 -0.54903746
v 16.388878 9.147301 -0.5490359
v 7.70859 8.640876 -0.5490366
v 7.70859 8.640876 0.54903823
v 2.6992586 9.029679 -0.5490367
v 2.6992586 9.029679 0.5490382
v -3.4888537 9.131377 -0.5490359
v -3.4888537 9.131377 0.5490385
v -8.0127945 6.442538 0.5490379
v -12.087485 3.2737064 0.5490369
v -15.075818 -1.1006247 -0.5490385
v -12.087485 3.2737064 -0.54903793
v -17.01846 -6.3961105 0.5490354
v -17.462624 -11.977309 0.5490333
v -16.47402 -17.29672 0.5490324
v -15.404443 -19.725424 0.54903203
v -15.404443 -19.725424 -0.5490424
v -16.47402 -17.29672 -0.54904246
v -15.404443 -19.725424 -0.5490424
v -16.47402 -17.29672 -0.54904246
v -17.462624 -11.977309 -0.54904115
v -17.01846 -6.3961105 0.5490354
v -17.462624 -11.977309 0.5490333
v -16.47402 -17.29672 0.5490324
vt 0.2825314 0.6958711
vt 0.2173294 0.6327388
vt 0.2173294 0.6327388
vt 0.2825314 0.6958711
vt 0.4513247 0.32146376
vt 0.35649765 0.75146705
vt 0.35649765 0.75146705
vt 0.4648565 0.7614482
vt 0.5531558 0.7641709
vt 0.6445184 0.79431134
vt 0.1734069 0.5505992
vt 0.7039206 0.7895173
vt 0.1495125 0.45434535
vt 0.7742224 0.7654799
vt 0.1734069 0.5505992
vt 0.7742224 0.7654799
vt 0.7039206 0.7895173
vt 0.80784845 0.74002904
vt 0.8430519 0.70910466
vt 0.80784845 0.74002904
vt 0.7742224 0.7654799
vt 0.4513247 0.32146376
vt 0.7039206 0.7895173
vt 0.8430519 0.70910466
vt 0.80784845 0.74002904
vt 0.8430519 0.70910466
vt 0.4513247 0.32146376
vt 0.6445184 0.79431134
vt 0.6445184 0.79431134
vt 0.7039206 0.7895173
vt 0.5531558 0.7641709
vt 0.5531558 0.7641709
vt 0.4648565 0.7614482
vt 0.4648565 0.7614482
vt 0.35649765 0.75146705
vt 0.35649765 0.75146705
vt 0.2825314 0.6958711
vt 0.2173294 0.6327388
vt 0.1734069 0.5505992
vt 0.2173294 0.6327388
vt 0.1495125 0.45434535
vt 0.15235472 0.35594493
vt 0.17974243 0.26484287
vt 0.20305301 0.22442278
vt 0.20305301 0.22442278
vt 0.17974243 0.26484287
vt 0.20305301 0.22442278
vt 0.17974243 0.26484287
vt 0.15235472 0.35594493
vt 0.1495125 0.45434535
vt 0.15235472 0.35594493
vt 0.17974243 0.26484287
vn -0.40606567 0.59530133 0.69334483
vn -0.538278 0.5060718 0.6739052
vn -0.53827786 0.5060719 -0.6739052
vn -0.40606552 0.5953015 -0.6933447
vn 0.3372602 -0.6670854 -0.6642685
vn -0.19518189 0.7339618 0.6505414
vn -0.19518189 0.73396194 -0.6505412
vn 0.03350034 0.7130584 -0.70030385
vn -0.044602834 0.67017907 -0.74085796
vn -0.00804828 0.74672514 -0.66508406
vn -0.65161306 0.33549118 -0.68032795
vn 0.22590277 0.6973459 -0.6802035
vn -0.7182327 0.157228 -0.67780614
vn 0.4157218 0.6116443 -0.67310226
vn -0.6516131 0.33549103 0.680328
vn 0.4157219 0.6116444 0.67310226
vn 0.22590274 0.6973457 0.6802037
vn 0.50930476 0.50200695 -0.6989976
vn 0.81649196 -0.06430332 -0.57376474
vn 0.5093047 0.50200695 0.69899774
vn 0.4157219 0.6116444 0.67310226
vn 0.33726016 -0.6670854 0.66426843
vn 0.22590274 0.6973457 0.6802037
vn 0.81649196 -0.06430344 0.57376474
vn 0.50930476 0.50200695 -0.6989976
vn 0.81649196 -0.06430332 -0.57376474
vn 0.3372602 -0.6670854 -0.6642685
vn -0.008048518 0.7467252 0.6650839
vn -0.00804828 0.74672514 -0.66508406
vn 0.22590277 0.6973459 -0.6802035
vn -0.044602834 0.67017907 -0.74085796
vn -0.04460266 0.6701789 0.7408582
vn 0.03350034 0.7130584 -0.70030385
vn 0.033500385 0.7130583 0.70030403
vn -0.19518189 0.73396194 -0.6505412
vn -0.19518189 0.7339618 0.6505414
vn -0.40606567 0.59530133 0.69334483
vn -0.538278 0.5060718 0.6739052
vn -0.65161306 0.33549118 -0.68032795
vn -0.53827786 0.5060719 -0.6739052
vn -0.71823275 0.1572277 0.6778062
vn -0.73338556 -0.038294464 0.6787335
vn -0.6987901 -0.21562013 0.68205607
vn -0.3495037 -0.7313178 0.58568037
vn -0.3495036 -0.7313177 -0.5856805
vn -0.69878995 -0.21561992 -0.68205625
vn -0.3495036 -0.7313177 -0.5856805
vn -0.69878995 -0.21561992 -0.68205625
vn -0.73338544 -0.038294084 -0.67873365
vn -0.71823275 0.1572277 0.6778062
vn -0.73338556 -0.038294464 0.6787335
vn -0.6987901 -0.21562013 0.68205607
g meshSPWaterPPCollision.029_0
f 3/3/3 2/2/2 1/1/1
f 4/4/4 3/3/3 1/1/1
f 5/5/5 3/3/3 4/4/4
f 4/4/4 1/1/1 6/6/6
f 7/7/7 4/4/4 6/6/6
f 5/5/5 4/4/4 7/7/7
f 5/5/5 7/7/7 8/8/8
f 5/5/5 8/8/8 9/9/9
f 5/5/5 9/9/9 10/10/10
f 5/5/5 11/11/11 3/3/3
f 5/5/5 10/10/10 12/12/12
f 5/5/5 13/13/13 11/11/11
f 5/5/5 12/12/12 14/14/14
f 11/11/11 13/13/13 15/15/15
f 14/14/14 12/12/12 16/16/16
f 12/12/12 17/17/17 16/16/16
f 5/5/5 14/14/14 18/18/18
f 5/5/5 18/18/18 19/19/19
f 18/18/18 14/14/14 20/20/20
f 14/14/14 21/21/21 20/20/20
f 21/21/21 22/22/22 20/20/20
f 23/23/23 22/22/22 21/21/21
f 20/20/20 22/22/22 24/24/24
f 25/25/25 20/20/20 24/24/24
f 26/26/26 25/25/25 24/24/24
f 26/26/26 24/24/24 22/22/22
f 27/27/27 26/26/26 22/22/22
f 28/28/28 22/22/22 23/23/23
f 29/29/29 28/28/28 23/23/23
f 30/30/30 29/29/29 23/23/23
f 29/29/29 31/31/31 28/28/28
f 31/31/31 32/32/32 28/28/28
f 32/32/32 22/22/22 28/28/28
f 31/31/31 33/33/33 32/32/32
f 34/34/34 22/22/22 32/32/32
f 33/33/33 34/34/34 32/32/32
f 33/33/33 35/35/35 34/34/34
f 36/36/36 22/22/22 34/34/34
f 35/35/35 36/36/36 34/34/34
f 37/37/37 22/22/22 36/36/36
f 38/38/38 22/22/22 37/37/37
f 15/15/15 22/22/22 38/38/38
f 39/39/39 15/15/15 38/38/38
f 40/40/40 39/39/39 38/38/38
f 41/41/41 22/22/22 15/15/15
f 13/13/13 41/41/41 15/15/15
f 42/42/42 22/22/22 41/41/41
f 43/43/43 22/22/22 42/42/42
f 44/44/44 22/22/22 43/43/43
f 5/5/5 22/22/22 44/44/44
f 45/45/45 44/44/44 43/43/43
f 46/46/46 45/45/45 43/43/43
f 47/47/47 5/5/5 44/44/44
f 5/5/5 47/47/47 48/48/48
f 5/5/5 49/49/49 13/13/13
f 5/5/5 48/48/48 49/49/49
f 13/13/13 49/49/49 50/50/50
f 49/49/49 51/51/51 50/50/50
f 49/49/49 48/48/48 51/51/51
f 48/48/48 52/52/52 51/51/51
