g meshSPDioramaWaterLight
v -4.824282 6.550149 57.125404
v -7.576015 23.263187 57.125404
v -4.9421787 20.790112 57.125412
v -14.861896 26.150007 57.125404
v -21.903425 25.19257 57.125412
v -26.08417 20.009123 57.125404
v -29.350971 14.138932 57.125404
v -33.80315 5.641156 57.125404
v -33.76184 1.4357201 57.125404
v -31.758886 -2.3891253 57.125404
v -27.364426 -7.992653 57.125404
v -20.72163 -10.509436 57.125404
v -14.024341 -10.150487 57.125404
v -7.4010553 -7.725916 57.125404
v -3.3693013 -4.656708 57.125404
v -0.23383999 -0.6926709 57.125404
v 28.387346 5.999386 49.20981
v -11.895565 25.312737 49.209812
v -7.718394 34.711494 49.209816
v -2.5494258 39.394135 49.209816
v 14.826015 47.376976 49.209816
v 21.445879 48.158672 49.209816
v 27.563557 48.591427 49.209816
v 33.130207 47.130928 49.209816
v 36.569958 45.079628 49.209816
v 44.283775 39.02262 49.209816
v 54.717194 31.846813 49.209816
v 60.09893 26.931143 49.209816
v 62.03653 20.208118 49.209812
v 60.44183 7.3524566 49.20981
v 58.279213 0.9642078 49.20981
v 56.958153 -5.856734 49.20981
v 55.370586 -9.328881 49.20981
v 52.50541 -15.41194 49.209805
v 50.902176 -18.45824 49.209805
v 48.693436 -20.850845 49.209805
v 39.511654 -25.39378 49.209805
v 25.846193 -27.343447 49.209805
v -24.631916 -13.20129 56.058582
v -24.450891 -9.500394 56.058582
v 0.18075176 -0.07388076 56.058582
v -22.851313 -18.055418 56.058582
v -20.667978 -22.540695 56.058582
v -17.312908 -26.00387 56.058582
v -12.364771 -27.764153 56.058582
v -4.5092006 -29.269283 56.058582
v 0.6144679 -31.29221 56.058582
v 8.747007 -36.09353 56.058582
v 14.910419 -36.955814 56.058582
v 19.587332 -34.37413 56.058582
v 24.11629 -30.834743 56.058582
v 29.849768 -19.74481 56.058582
v 32.567818 -8.917756 56.058582
v 32.11996 -2.7927225 56.058582
v 29.929497 2.8727052 56.058582
v 28.341091 3.3928223 56.058582
v -58.07578 27.923864 42.77868
v -67.99196 55.439407 42.77868
v -47.221447 73.89139 42.77868
v -33.125313 37.620476 42.77868
v -22.27098 83.588 42.77868
v -8.1748495 47.317085 42.77868
v 3.587353 79.85884 42.77868
v 16.775608 57.013683 42.77868
vt 0.7016632 0.5548003
vt 0.5738282 0.823782
vt 0.63036466 0.7948175
vt 0.43668056 0.83709496
vt 0.3223698 0.78664726
vt 0.2769629 0.678723
vt 0.2503393 0.5636441
vt 0.21647753 0.3984009
vt 0.2376434 0.3275496
vt 0.29009974 0.27267578
vt 0.39161903 0.1993894
vt 0.51610035 0.18919863
vt 0.62750745 0.22785951
vt 0.7276101 0.30105895
vt 0.78079057 0.37253758
vt 0.81447184 0.4547717
vt 0.55733955 0.42356306
vt -0.14392534 0.75977945
vt -0.07120702 0.923398
vt 0.018776998 1.0049156
vt 0.32125723 1.1438851
vt 0.43676382 1.1802382
vt 0.54326344 1.1877722
vt 0.6401705 1.1623468
vt 0.7017523 1.1187283
vt 0.8340726 0.9984482
vt 1.0157027 0.8735276
vt 1.1093909 0.7879536
vt 1.1431216 0.67091584
vt 1.1153603 0.44711822
vt 1.0777122 0.33590814
vt 1.0547146 0.21716599
vt 1.0270774 0.15672104
vt 0.98782635 0.039672136
vt 0.95991635 -0.013359249
vt 0.92146564 -0.055011153
vt 0.75099707 -0.12294489
vt 0.51310205 -0.15688574
vt 0.0015601665 0.5777889
vt 0.0047126114 0.6422366
vt 0.43364808 0.8063895
vt 0.032567456 0.49325925
vt 0.07058795 0.41515258
vt 0.12901327 0.35484487
vt 0.2151802 0.32419103
vt 0.35197705 0.29798084
vt 0.44120067 0.26275346
vt 0.5828209 0.17914352
vt 0.69015044 0.16412775
vt 0.77159417 0.20908527
vt 0.8504615 0.27072006
vt 0.9503039 0.46384004
vt 0.99763596 0.6523824
vt 0.98983717 0.7590439
vt 0.95169246 0.857701
vt 0.9240321 0.8667588
vt -0.047170445 0.013367906
vt -0.21663643 0.4836043
vt 0.13832843 0.7989457
vt 0.37922913 0.1790815
vt 0.56472796 0.9646593
vt 0.80562854 0.3447951
vt 1.0066427 0.90092856
vt 1.2320279 0.51050836
vn -0 0 1
vn -4.938215E-07 0 1
vn -2.0887298E-06 -3.4390072E-07 1
vn 4.4833666E-07 0 1
vn -2.8451257E-07 -5.1013274E-07 1
vn -3.3311028E-07 0 1
vn -0 2.9562716E-07 1
vn -0 0 1
vn -0 -5.267974E-07 1
vn -0 -6.96272E-07 1
vn -0 0 1
vn -0 0 1
vn -0 -3.0254114E-07 1
vn -0 -2.9337107E-07 1
vn -4.0798955E-07 0 1
vn 1.274175E-06 0 1
vn -0 0 1
vn -0 0 1
vn -0 0 1
vn -0 0 1
vn -0 0 1
vn -0 0 1
vn -0 0 1
vn -0 0 1
vn -0 0 1
vn -0 0 1
vn -0 0 1
vn -0 0 1
vn -0 0 1
vn -0 0 1
vn -0 0 1
vn -0 0 1
vn -0 0 1
vn -0 -3.5989495E-07 1
vn -0 -2.707406E-07 1
vn -0 0 1
vn -0 0 1
vn -0 0 1
vn -0 0 1
vn -0 0 1
vn -0 0 1
vn -0 -3.0432028E-07 1
vn -0 -3.3161007E-07 1
vn -0 0 1
vn -0 0 1
vn -0 0 1
vn -0 0 1
vn -0 0 1
vn -0 0 1
vn -0 0 1
vn -0 0 1
vn -0 0 1
vn -0 0 1
vn -0 0 1
vn -0 0 1
vn -0 0 1
vn -0 0 1
vn -0 0 1
vn -0 0 1
vn -0 0 1
vn -0 0 1
vn -0 0 1
vn -0 0 1
vn -0 0 1
g meshSPDioramaWaterLight_0
f 3/3/3 2/2/2 1/1/1
f 2/2/2 4/4/4 1/1/1
f 4/4/4 5/5/5 1/1/1
f 5/5/5 6/6/6 1/1/1
f 7/7/7 1/1/1 6/6/6
f 7/7/7 8/8/8 1/1/1
f 8/8/8 9/9/9 1/1/1
f 10/10/10 1/1/1 9/9/9
f 10/10/10 11/11/11 1/1/1
f 11/11/11 12/12/12 1/1/1
f 12/12/12 13/13/13 1/1/1
f 13/13/13 14/14/14 1/1/1
f 15/15/15 1/1/1 14/14/14
f 15/15/15 16/16/16 1/1/1
f 19/19/19 18/18/18 17/17/17
f 20/20/20 19/19/19 17/17/17
f 21/21/21 20/20/20 17/17/17
f 22/22/22 21/21/21 17/17/17
f 23/23/23 22/22/22 17/17/17
f 24/24/24 23/23/23 17/17/17
f 25/25/25 24/24/24 17/17/17
f 26/26/26 25/25/25 17/17/17
f 27/27/27 26/26/26 17/17/17
f 28/28/28 27/27/27 17/17/17
f 29/29/29 28/28/28 17/17/17
f 30/30/30 29/29/29 17/17/17
f 31/31/31 30/30/30 17/17/17
f 32/32/32 31/31/31 17/17/17
f 33/33/33 32/32/32 17/17/17
f 34/34/34 33/33/33 17/17/17
f 35/35/35 34/34/34 17/17/17
f 36/36/36 35/35/35 17/17/17
f 37/37/37 36/36/36 17/17/17
f 38/38/38 37/37/37 17/17/17
f 41/41/41 40/40/40 39/39/39
f 39/39/39 42/42/42 41/41/41
f 42/42/42 43/43/43 41/41/41
f 43/43/43 44/44/44 41/41/41
f 41/41/41 44/44/44 45/45/45
f 45/45/45 46/46/46 41/41/41
f 46/46/46 47/47/47 41/41/41
f 41/41/41 47/47/47 48/48/48
f 41/41/41 48/48/48 49/49/49
f 41/41/41 49/49/49 50/50/50
f 41/41/41 50/50/50 51/51/51
f 51/51/51 52/52/52 41/41/41
f 52/52/52 53/53/53 41/41/41
f 41/41/41 53/53/53 54/54/54
f 41/41/41 54/54/54 55/55/55
f 56/56/56 41/41/41 55/55/55
f 59/59/59 58/58/58 57/57/57
f 60/60/60 59/59/59 57/57/57
f 61/61/61 59/59/59 60/60/60
f 62/62/62 61/61/61 60/60/60
f 63/63/63 61/61/61 62/62/62
f 64/64/64 63/63/63 62/62/62
