g meshSPWaterPPCollision.043
v 24.460888 21.616299 0.5490361
v 22.887707 22.131443 -0.54903877
v 24.460888 21.616299 -0.54903877
v 22.887707 22.131443 0.5490361
v -5.0028014 18.697952 -0.54903865
v -5.0028014 18.697952 0.5490362
v -29.398422 9.361792 -0.54904056
v -29.398422 9.361792 0.5490343
v -29.577698 5.6963406 0.5490345
v -27.81417 0.8887271 0.54903466
v -25.651762 -3.553569 0.54903334
v -22.328827 -6.983561 0.5490327
v -17.428114 -8.726977 0.5490335
v -9.647814 -10.2176895 0.5490328
v -4.5732403 -12.221238 0.5490314
v 3.4813688 -16.97654 0.54903156
v 9.585728 -17.830559 0.5490324
v 14.217823 -15.27361 0.54903305
v 18.703379 -11.768144 0.5490314
v 24.381916 -0.78447926 0.549034
v 27.07392 9.938823 0.5490343
v 26.630356 16.005169 0.5490348
v 24.460888 21.616299 -0.54903877
v 26.630356 16.005169 -0.5490401
v -5.0028014 18.697952 -0.54903865
v 22.887707 22.131443 -0.54903877
v 27.07392 9.938823 -0.54904056
v 27.07392 9.938823 0.5490343
v 26.630356 16.005169 0.5490348
v 24.381916 -0.78447926 0.549034
v 24.381916 -0.78447926 -0.54904085
v 18.703379 -11.768144 0.5490314
v 18.703379 -11.768144 -0.5490435
v 14.217823 -15.27361 0.54903305
v 14.217823 -15.27361 -0.5490418
v 9.585728 -17.830559 0.5490324
v 9.585728 -17.830559 -0.54904246
v 3.4813688 -16.97654 0.54903156
v 3.4813688 -16.97654 -0.5490433
v -4.5732403 -12.221238 -0.5490435
v -4.5732403 -12.221238 0.5490314
v -9.647814 -10.2176895 0.5490328
v -9.647814 -10.2176895 -0.54904205
v -17.428114 -8.726977 0.5490335
v -17.428114 -8.726977 -0.54904133
v -22.328827 -6.983561 0.5490327
v -22.328827 -6.983561 -0.54904217
v -25.651762 -3.553569 0.54903334
v -25.651762 -3.553569 -0.5490415
v -27.81417 0.8887271 0.54903466
v -27.81417 0.8887271 -0.5490402
v -29.577698 5.6963406 0.5490345
v -29.577698 5.6963406 -0.5490404
v -29.398422 9.361792 -0.54904056
v -29.398422 9.361792 0.5490343
vt 0.95169246 0.857701
vt 0.9240321 0.8667588
vt 0.95169246 0.857701
vt 0.9240321 0.8667588
vt 0.43364808 0.8063895
vt 0.43364808 0.8063895
vt 0.0047126114 0.6422366
vt 0.0047126114 0.6422366
vt 0.0015601665 0.5777889
vt 0.032567456 0.49325925
vt 0.07058795 0.41515258
vt 0.12901327 0.35484487
vt 0.2151802 0.32419103
vt 0.35197705 0.29798084
vt 0.44120067 0.26275346
vt 0.5828209 0.17914352
vt 0.69015044 0.16412775
vt 0.77159417 0.20908527
vt 0.8504615 0.27072006
vt 0.9503039 0.46384004
vt 0.99763596 0.6523824
vt 0.98983717 0.7590439
vt 0.95169246 0.857701
vt 0.98983717 0.7590439
vt 0.43364808 0.8063895
vt 0.9240321 0.8667588
vt 0.99763596 0.6523824
vt 0.99763596 0.6523824
vt 0.98983717 0.7590439
vt 0.9503039 0.46384004
vt 0.9503039 0.46384004
vt 0.8504615 0.27072006
vt 0.8504615 0.27072006
vt 0.77159417 0.20908527
vt 0.77159417 0.20908527
vt 0.69015044 0.16412775
vt 0.69015044 0.16412775
vt 0.5828209 0.17914352
vt 0.5828209 0.17914352
vt 0.44120067 0.26275346
vt 0.44120067 0.26275346
vt 0.35197705 0.29798084
vt 0.35197705 0.29798084
vt 0.2151802 0.32419103
vt 0.2151802 0.32419103
vt 0.12901327 0.35484487
vt 0.12901327 0.35484487
vt 0.07058795 0.41515258
vt 0.07058795 0.41515258
vt 0.032567456 0.49325925
vt 0.032567456 0.49325925
vt 0.0015601665 0.5777889
vt 0.0015601665 0.5777889
vt 0.0047126114 0.6422366
vt 0.0047126114 0.6422366
vn 0.53884757 0.56789726 0.62220263
vn 0.07263871 0.74665856 -0.6612296
vn 0.5388475 0.5678974 -0.6222025
vn 0.07263872 0.74665856 0.6612296
vn -0.17694806 0.7107593 -0.68081605
vn -0.17694803 0.71075934 0.6808161
vn -0.64637715 0.46840057 -0.60232675
vn -0.64637727 0.46840063 0.60232663
vn -0.73833996 -0.11261226 0.66496056
vn -0.66083 -0.28118518 0.6958725
vn -0.60548466 -0.42433932 0.67329377
vn -0.40671626 -0.6324187 0.6592636
vn -0.18986414 -0.6981092 0.69035864
vn -0.19101249 -0.65764946 0.7287053
vn -0.30237484 -0.61856216 0.7252243
vn -0.24619205 -0.70457006 0.6655604
vn 0.13923354 -0.7536289 0.64238423
vn 0.39918208 -0.6041668 0.68966377
vn 0.5769119 -0.47837684 0.6620636
vn 0.6840295 -0.25868708 0.68204445
vn 0.7368326 -0.06388467 0.6730501
vn 0.71954036 0.16162933 0.6753796
vn 0.5388475 0.5678974 -0.6222025
vn 0.71954024 0.16162948 -0.67537963
vn -0.17694806 0.7107593 -0.68081605
vn 0.07263871 0.74665856 -0.6612296
vn 0.7368326 -0.063884616 -0.67305017
vn 0.7368326 -0.06388467 0.6730501
vn 0.71954036 0.16162933 0.6753796
vn 0.6840295 -0.25868708 0.68204445
vn 0.6840295 -0.2586869 -0.6820444
vn 0.5769119 -0.47837684 0.6620636
vn 0.5769117 -0.4783768 -0.66206384
vn 0.39918208 -0.6041668 0.68966377
vn 0.39918202 -0.60416687 -0.68966377
vn 0.13923354 -0.7536289 0.64238423
vn 0.13923366 -0.75362885 -0.6423843
vn -0.24619205 -0.70457006 0.6655604
vn -0.24619189 -0.7045699 -0.66556054
vn -0.30237487 -0.6185619 -0.7252245
vn -0.30237484 -0.61856216 0.7252243
vn -0.19101249 -0.65764946 0.7287053
vn -0.19101278 -0.6576494 -0.72870535
vn -0.18986414 -0.6981092 0.69035864
vn -0.1898641 -0.69810927 -0.6903587
vn -0.40671626 -0.6324187 0.6592636
vn -0.4067161 -0.6324186 -0.65926385
vn -0.60548466 -0.42433932 0.67329377
vn -0.6054847 -0.4243391 -0.6732939
vn -0.66083 -0.28118518 0.6958725
vn -0.6608302 -0.28118503 -0.6958724
vn -0.73833996 -0.11261226 0.66496056
vn -0.73833996 -0.11261229 -0.6649606
vn -0.64637715 0.46840057 -0.60232675
vn -0.64637727 0.46840063 0.60232663
g meshSPWaterPPCollision.043_0
f 3/3/3 2/2/2 1/1/1
f 2/2/2 4/4/4 1/1/1
f 2/2/2 5/5/5 4/4/4
f 5/5/5 6/6/6 4/4/4
f 4/4/4 6/6/6 1/1/1
f 5/5/5 7/7/7 6/6/6
f 7/7/7 8/8/8 6/6/6
f 6/6/6 8/8/8 9/9/9
f 9/9/9 10/10/10 6/6/6
f 10/10/10 11/11/11 6/6/6
f 11/11/11 12/12/12 6/6/6
f 6/6/6 12/12/12 13/13/13
f 13/13/13 14/14/14 6/6/6
f 14/14/14 15/15/15 6/6/6
f 6/6/6 15/15/15 16/16/16
f 6/6/6 16/16/16 17/17/17
f 6/6/6 17/17/17 18/18/18
f 6/6/6 18/18/18 19/19/19
f 19/19/19 20/20/20 6/6/6
f 20/20/20 21/21/21 6/6/6
f 6/6/6 21/21/21 22/22/22
f 6/6/6 22/22/22 1/1/1
f 23/23/23 1/1/1 22/22/22
f 24/24/24 23/23/23 22/22/22
f 24/24/24 25/25/25 23/23/23
f 25/25/25 26/26/26 23/23/23
f 27/27/27 25/25/25 24/24/24
f 27/27/27 24/24/24 28/28/28
f 24/24/24 29/29/29 28/28/28
f 27/27/27 28/28/28 30/30/30
f 31/31/31 27/27/27 30/30/30
f 27/27/27 31/31/31 25/25/25
f 31/31/31 30/30/30 32/32/32
f 33/33/33 31/31/31 32/32/32
f 31/31/31 33/33/33 25/25/25
f 33/33/33 32/32/32 34/34/34
f 35/35/35 33/33/33 34/34/34
f 35/35/35 25/25/25 33/33/33
f 35/35/35 34/34/34 36/36/36
f 37/37/37 25/25/25 35/35/35
f 37/37/37 35/35/35 36/36/36
f 37/37/37 36/36/36 38/38/38
f 39/39/39 25/25/25 37/37/37
f 39/39/39 37/37/37 38/38/38
f 40/40/40 25/25/25 39/39/39
f 39/39/39 38/38/38 41/41/41
f 40/40/40 39/39/39 41/41/41
f 40/40/40 41/41/41 42/42/42
f 43/43/43 40/40/40 42/42/42
f 40/40/40 43/43/43 25/25/25
f 43/43/43 42/42/42 44/44/44
f 45/45/45 43/43/43 44/44/44
f 43/43/43 45/45/45 25/25/25
f 45/45/45 44/44/44 46/46/46
f 47/47/47 45/45/45 46/46/46
f 47/47/47 25/25/25 45/45/45
f 47/47/47 46/46/46 48/48/48
f 49/49/49 47/47/47 48/48/48
f 47/47/47 49/49/49 25/25/25
f 49/49/49 48/48/48 50/50/50
f 51/51/51 49/49/49 50/50/50
f 49/49/49 51/51/51 25/25/25
f 51/51/51 50/50/50 52/52/52
f 51/51/51 53/53/53 25/25/25
f 53/53/53 51/51/51 52/52/52
f 54/54/54 25/25/25 53/53/53
f 53/53/53 52/52/52 55/55/55
f 54/54/54 53/53/53 55/55/55
