g meshRaidALFLStone1
v 2.651992 2.5053418 9.347026
v -2.3408692 2.4936426 5.2846045
v 2.6591015 2.5037987 5.2933445
v 2.669248 -2.4961913 5.295244
v -2.3405273 -2.5042284 10.875357
v 2.6606152 -2.494326 10.220874
v -2.3405273 -2.5042284 10.875357
v 2.669248 -2.4961913 5.295244
v -2.3307323 -2.506338 5.286504
v 2.6606152 -2.494326 10.220874
v 2.6591015 2.5037987 5.2933445
v 2.669248 -2.4961913 5.295244
v 1.5277929 1.3789452 0.98307127
v 2.6641698 0.0038281248 5.294292
v 2.6591015 2.5037987 5.2933445
v -1.1042578 1.0823047 1.2751904
v 0.1591211 2.4987206 5.2889743
v -2.3408692 2.4936426 5.2846045
v -0.67051756 0.200625 -11.595141
v -1.079287 2.1997364 -6.9064355
v -2.6692772 0.834834 -6.999526
v 0.48996094 -0.68916017 -11.872006
v 0.8333789 0.30495116 -11.895417
v 0.18347655 0.34376952 -12.05134
v 0.8333789 0.30495116 -11.895417
v 0.48996094 -0.68916017 -11.872006
v 0.9552148 -0.15638672 -11.781406
v -2.6692772 0.834834 -6.999526
v -0.4659961 -0.35223633 -11.590193
v -0.67051756 0.200625 -11.595141
v -0.4659961 -0.35223633 -11.590193
v -2.6692772 0.834834 -6.999526
v -1.61875 -1.0032421 -6.8450537
v 0.18347655 0.34376952 -12.05134
v -0.67051756 0.200625 -11.595141
v -0.4659961 -0.35223633 -11.590193
v -2.3307323 -2.506338 5.286504
v 0.16407226 -1.8432715 1.2731738
v -0.94889647 -1.0537695 1.2723535
v 1.3130859 -2.3913574 -6.843667
v -0.16055664 -0.8029492 -11.504113
v -0.74898434 -2.4328907 -6.858142
v -0.16055664 -0.8029492 -11.504113
v 1.3130859 -2.3913574 -6.843667
v 0.48996094 -0.68916017 -11.872006
v -1.1042578 1.0823047 1.2751904
v -2.4471092 -0.87295896 -2.4613013
v -2.03208 0.93557614 -3.6304052
v 0.1572754 1.4926074 1.2745996
v 1.0642968 2.4976854 -2.262483
v 1.5277929 1.3789452 0.98307127
v 0.83480465 1.9474413 -6.213296
v 1.7633106 0.4143164 -3.1320775
v 1.0642968 2.4976854 -2.262483
v 2.0283983 -1.7500488 -2.2581177
v 1.3130859 -2.3913574 -6.843667
v 0.737666 -1.601543 -3.1135008
v 1.7697558 -0.56629884 -6.8816404
v 1.7633106 0.4143164 -3.1320775
v 2.400371 0.4594336 -5.176433
v -2.03208 0.93557614 -3.6304052
v -1.61875 -1.0032421 -6.8450537
v -2.6692772 0.834834 -6.999526
v -1.61875 -1.0032421 -6.8450537
v -2.03208 0.93557614 -3.6304052
v -2.4471092 -0.87295896 -2.4613013
v -2.3425488 -2.5037987 12.042592
v -2.3459864 2.494746 8.192798
v -2.3526855 2.496201 12.0406885
v -2.3459864 2.494746 8.192798
v -2.3425488 -2.5037987 12.042592
v -2.3405273 -2.5042284 10.875357
v 2.6574218 -2.4936426 12.051337
v -2.3405273 -2.5042284 10.875357
v -2.3425488 -2.5037987 12.042592
v -2.3405273 -2.5042284 10.875357
v 2.6574218 -2.4936426 12.051337
v 2.6606152 -2.494326 10.220874
v 2.6472754 2.5063477 12.049434
v 2.6606152 -2.494326 10.220874
v 2.6574218 -2.4936426 12.051337
v 2.6472754 2.5063477 12.049434
v -2.3425488 -2.5037987 12.042592
v -2.3526855 2.496201 12.0406885
v 2.6574218 -2.4936426 12.051337
v -2.3408692 2.4936426 5.2846045
v 2.651992 2.5053418 9.347026
v -2.3459864 2.494746 8.192798
v -2.3526855 2.496201 12.0406885
v 2.6472754 2.5063477 12.049434
v -2.3307323 -2.506338 5.286504
v -2.3459864 2.494746 8.192798
v -2.3405273 -2.5042284 10.875357
v -2.3408692 2.4936426 5.2846045
v 2.6591015 2.5037987 5.2933445
v 2.6606152 -2.494326 10.220874
v 2.651992 2.5053418 9.347026
v 2.6472754 2.5063477 12.049434
v 1.9899023 -1.4173242 1.2324902
v 0.16926758 -2.5012598 5.290874
v 2.669248 -2.4961913 5.295244
v 0.16407226 -1.8432715 1.2731738
v -2.3307323 -2.506338 5.286504
v 0.737666 -1.601543 -3.1135008
v 2.0283983 -1.7500488 -2.2581177
v -0.9247656 -1.3721386 -1.6223925
v -0.94889647 -1.0537695 1.2723535
v -0.74898434 -2.4328907 -6.858142
v 1.3130859 -2.3913574 -6.843667
v -0.94889647 -1.0537695 1.2723535
v -2.3358006 -0.0063378904 5.2855563
v -2.3307323 -2.506338 5.286504
v -0.72983396 0.005517578 1.2723389
v -2.3408692 2.4936426 5.2846045
v -1.1042578 1.0823047 1.2751904
v 0.48996094 -0.68916017 -11.872006
v 1.7697558 -0.56629884 -6.8816404
v 0.9552148 -0.15638672 -11.781406
v 1.3130859 -2.3913574 -6.843667
v 2.0283983 -1.7500488 -2.2581177
v -1.61875 -1.0032421 -6.8450537
v -0.16055664 -0.8029492 -11.504113
v -0.4659961 -0.35223633 -11.590193
v -0.74898434 -2.4328907 -6.858142
v -0.9247656 -1.3721386 -1.6223925
v -1.079287 2.1997364 -6.9064355
v -0.67051756 0.200625 -11.595141
v -0.12257812 0.64187497 -11.613596
v 0.52643555 0.97063476 -11.370671
v 2.400371 0.4594336 -5.176433
v 0.9552148 -0.15638672 -11.781406
v 1.7697558 -0.56629884 -6.8816404
v 0.8333789 0.30495116 -11.895417
v 0.52643555 0.97063476 -11.370671
v 0.83480465 1.9474413 -6.213296
v 1.7633106 0.4143164 -3.1320775
v -0.67051756 0.200625 -11.595141
v 0.18347655 0.34376952 -12.05134
v -0.12257812 0.64187497 -11.613596
v 0.52643555 0.97063476 -11.370671
v 0.8333789 0.30495116 -11.895417
v 0.1591211 2.4987206 5.2889743
v 1.5277929 1.3789452 0.98307127
v 2.6591015 2.5037987 5.2933445
v 0.1572754 1.4926074 1.2745996
v -1.1042578 1.0823047 1.2751904
v -0.658164 1.7942871 -4.1224217
v -2.03208 0.93557614 -3.6304052
v -1.079287 2.1997364 -6.9064355
v 0.52643555 0.97063476 -11.370671
v 0.83480465 1.9474413 -6.213296
v -0.658164 1.7942871 -4.1224217
v -0.16055664 -0.8029492 -11.504113
v 0.18347655 0.34376952 -12.05134
v -0.4659961 -0.35223633 -11.590193
v 0.48996094 -0.68916017 -11.872006
v -0.94889647 -1.0537695 1.2723535
v -2.4471092 -0.87295896 -2.4613013
v -0.72983396 0.005517578 1.2723389
v -1.1042578 1.0823047 1.2751904
v -2.4471092 -0.87295896 -2.4613013
v -0.94889647 -1.0537695 1.2723535
v -0.9247656 -1.3721386 -1.6223925
v -1.61875 -1.0032421 -6.8450537
v 1.0642968 2.4976854 -2.262483
v 0.1572754 1.4926074 1.2745996
v -0.658164 1.7942871 -4.1224217
v 0.83480465 1.9474413 -6.213296
v -1.079287 2.1997364 -6.9064355
v -2.03208 0.93557614 -3.6304052
v -2.6692772 0.834834 -6.999526
v -0.658164 1.7942871 -4.1224217
v 1.7633106 0.4143164 -3.1320775
v 1.7697558 -0.56629884 -6.8816404
v 2.0283983 -1.7500488 -2.2581177
v 1.9275194 0.20368163 1.2221826
v 1.9899023 -1.4173242 1.2324902
v 1.0642968 2.4976854 -2.262483
v 2.669248 -2.4961913 5.295244
v 1.5277929 1.3789452 0.98307127
v 2.6641698 0.0038281248 5.294292
vt 0.99667615 0.45705387
vt 0.9987187 0.298407
vt 0.98945117 0.3372003
vt 0.9005328 0.46127647
vt 0.87744886 0.5346782
vt 0.76478463 0.45994553
vt 0.87744886 0.5346782
vt 0.9005328 0.46127647
vt 0.92074716 0.38025782
vt 0.76478463 0.45994553
vt 0.77600926 0.36530042
vt 0.9005328 0.46127647
vt 0.82211894 0.2256545
vt 0.7510373 0.29938656
vt 0.7494985 0.28219306
vt 0.90435797 0.21454242
vt 0.79324186 0.13253781
vt 0.7368445 0.2506657
vt 0.27549976 -0.05549563
vt 1.2785637 0.011101954
vt 1.2019295 0.25284648
vt 0.89323837 0.27381325
vt 0.88219744 0.3008533
vt 0.9280327 0.31505856
vt 0.88219744 0.3008533
vt 0.89323837 0.27381325
vt 0.9930297 0.16564068
vt 0.7241506 0.15556535
vt 0.7310447 0.10043135
vt 0.67939687 0.09504398
vt 0.7310447 0.10043135
vt 0.7241506 0.15556535
vt 0.6835638 0.13672183
vt 0.9280327 0.31505856
vt 0.97079885 0.31813222
vt 0.9379046 0.33067662
vt 0.90465516 0.6737831
vt 0.95785284 0.2884999
vt 1.1174698 0.025258273
vt 0.600922 0.17257024
vt 0.4021249 0.21209508
vt 0.59006953 0.10129957
vt 0.4021249 0.21209508
vt 0.600922 0.17257024
vt 0.4814111 0.07062623
vt 0.73381793 0.20554675
vt 0.70541966 0.07536145
vt 0.7577914 0.14102174
vt 0.9921808 0.2844152
vt 1.1949925 0.20797393
vt 1.0864627 0.37234795
vt 1.0087852 0.18267459
vt 0.8086001 0.22535053
vt 0.8689957 0.20021021
vt 0.7403686 0.1760869
vt 0.600922 0.17257024
vt 0.75717366 0.2169353
vt 0.5404241 0.0137008345
vt 0.8086001 0.22535053
vt 0.76540893 0.1337216
vt 0.7577914 0.14102174
vt 0.6835638 0.13672183
vt 0.7241506 0.15556535
vt 0.6835638 0.13672183
vt 0.7577914 0.14102174
vt 0.70541966 0.07536145
vt 0.82438767 0.48963428
vt 0.9093763 0.4501947
vt 0.9769629 0.476021
vt 0.9093763 0.4501947
vt 0.82438767 0.48963428
vt 0.87744886 0.5346782
vt 0.8462064 0.48249167
vt 0.87744886 0.5346782
vt 0.82438767 0.48963428
vt 0.87744886 0.5346782
vt 0.8462064 0.48249167
vt 0.76478463 0.45994553
vt 0.78623384 0.49565804
vt 0.76478463 0.45994553
vt 0.8462064 0.48249167
vt 0.64600337 0.13437124
vt 0.55469733 0.04195906
vt 0.55464697 0.1342828
vt 0.6465837 0.04256083
vt 0.9987187 0.298407
vt 0.99667615 0.45705387
vt 0.9093763 0.4501947
vt 0.9769629 0.476021
vt 0.9775131 0.49994504
vt 0.92074716 0.38025782
vt 0.9093763 0.4501947
vt 0.87744886 0.5346782
vt 0.9987187 0.298407
vt 0.77600926 0.36530042
vt 0.76478463 0.45994553
vt 0.7735289 0.43303257
vt 0.78623384 0.49565804
vt 0.7934969 0.3068462
vt 0.7839458 0.5116362
vt 0.58535564 0.4462478
vt 0.95785284 0.2884999
vt 0.90465516 0.6737831
vt 0.75717366 0.2169353
vt 0.7403686 0.1760869
vt 0.8609611 0.23653632
vt 1.1174698 0.025258273
vt 0.59006953 0.10129957
vt 0.600922 0.17257024
vt 0.8052934 0.27199668
vt 0.87891436 0.42810106
vt 0.9306943 0.41706365
vt 0.791112 0.28338033
vt 0.8258322 0.44085506
vt 0.73381793 0.20554675
vt 0.4814111 0.07062623
vt 0.66794735 0.123825796
vt 0.58009213 -0.022013973
vt 0.600922 0.17257024
vt 0.7403686 0.1760869
vt 0.6835638 0.13672183
vt 0.67245096 0.15629253
vt 0.7310447 0.10043135
vt 0.66735154 0.105416164
vt 0.70625204 0.09729783
vt 1.2785637 0.011101954
vt 0.27549976 -0.05549563
vt 0.6199236 0.12096429
vt 1.6313746 0.6393567
vt 0.76540893 0.1337216
vt 0.61585736 -0.04225143
vt 0.5404241 0.0137008345
vt 0.7817928 -0.10234867
vt 0.8931249 -0.10401166
vt 1.0087852 0.18267459
vt 0.8086001 0.22535053
vt 0.97079885 0.31813222
vt 0.9280327 0.31505856
vt 0.93149704 0.36856303
vt 0.9178941 0.36420533
vt 0.88219744 0.3008533
vt 0.79324186 0.13253781
vt 1.0864627 0.37234795
vt 0.76705074 0.41033065
vt 0.9921808 0.2844152
vt 0.90435797 0.21454242
vt 1.1619525 0.29622075
vt 1.1713585 0.29579133
vt 1.2785637 0.011101954
vt 1.6313746 0.6393567
vt 1.2127557 0.26309356
vt 1.1619525 0.29622075
vt 0.9632073 0.28879517
vt 0.9280327 0.31505856
vt 0.9379046 0.33067662
vt 0.89323837 0.27381325
vt 0.8052934 0.27199668
vt 0.70541966 0.07536145
vt 0.791112 0.28338033
vt 0.73381793 0.20554675
vt 0.70541966 0.07536145
vt 0.8052934 0.27199668
vt 0.70625204 0.09729783
vt 0.6835638 0.13672183
vt 1.1949925 0.20797393
vt 0.9921808 0.2844152
vt 1.1619525 0.29622075
vt 1.2127557 0.26309356
vt 1.2785637 0.011101954
vt 1.1713585 0.29579133
vt 1.2019295 0.25284648
vt 1.1619525 0.29622075
vt 0.8086001 0.22535053
vt 0.5404241 0.0137008345
vt 0.70045835 0.21605657
vt 0.7635173 0.25476268
vt 0.6865382 0.25722086
vt 0.8689957 0.20021021
vt 0.6606782 0.30261394
vt 0.82211894 0.2256545
vt 0.7510373 0.29938656
vn -0.0020303512 0.99999785 -0.00038055846
vn -0.002031125 0.99999785 -0.00038353182
vn -0.0020305857 0.99999785 -0.00038419434
vn 0.0020292848 -0.99999785 0.00038156376
vn 0.002029875 -0.99999785 0.00037681687
vn 0.0020297198 -0.99999785 0.00037983502
vn 0.002029875 -0.99999785 0.00037681687
vn 0.0020292848 -0.99999785 0.00038156376
vn 0.0020286345 -0.99999785 0.00038098
vn 0.9999964 0.0020301293 0.0017477514
vn 0.9999964 0.0020305421 0.0017524478
vn 0.9999964 0.002029959 0.0017518561
vn 0.9592868 0.26525873 -0.0969882
vn 0.97783333 0.025939217 -0.20777169
vn 0.9671173 0.0018643229 -0.25432378
vn -0.2811278 0.95569444 -0.0872654
vn -0.027425012 0.9586422 -0.2832898
vn -0.0013346971 0.94313693 -0.33240154
vn -0.5676948 0.68476593 -0.45696637
vn -0.2884914 0.9521722 -0.10070175
vn -0.64087224 0.7557438 -0.13466272
vn 0.2720871 -0.11648731 -0.955196
vn 0.26373452 -0.11366498 -0.95787495
vn 0.22639385 -0.10102243 -0.9687829
vn 0.26373452 -0.11366498 -0.95787495
vn 0.2720871 -0.11648731 -0.955196
vn 0.34099054 -0.1396881 -0.92963046
vn -0.869501 -0.49218062 -0.041549116
vn -0.83032227 -0.4711293 -0.29766127
vn -0.88168263 -0.32918894 -0.338039
vn -0.83032227 -0.4711293 -0.29766127
vn -0.869501 -0.49218062 -0.041549116
vn -0.8548073 -0.51008654 -0.09547926
vn -0.39553005 -0.25941578 -0.8810558
vn -0.44172484 -0.17129126 -0.8806466
vn -0.33443794 -0.2834256 -0.8987888
vn -0.51845706 -0.73133445 -0.44311637
vn -0.51845706 -0.73133445 -0.44311637
vn -0.5184571 -0.73133445 -0.4431164
vn 0.01787795 -0.9446427 -0.32761315
vn -0.007765544 -0.94725245 -0.32039422
vn 0.021324852 -0.9442403 -0.32856598
vn -0.007765544 -0.94725245 -0.32039422
vn 0.01787795 -0.9446427 -0.32761315
vn -0.014336209 -0.94781196 -0.31850722
vn -0.93207866 0.32163778 0.16666886
vn -0.96974677 0.24220969 0.030426243
vn -0.9797349 0.1948566 -0.04637202
vn 0.14282705 0.9418242 0.30424908
vn 0.14282705 0.9418243 0.30424908
vn 0.14282703 0.9418242 0.30424908
vn 0.7667099 0.63640946 -0.08449205
vn 0.95530635 0.29504907 -0.018327862
vn 0.9399566 0.33693513 -0.05437195
vn -0.1877658 -0.9755809 0.11395584
vn -0.02482509 -0.978778 0.20341407
vn -0.084363416 -0.98747694 0.13331193
vn 0.66273755 -0.7242056 0.19053918
vn 0.66273755 -0.7242057 0.19053918
vn 0.66273755 -0.7242056 0.19053918
vn -0.86082065 -0.47710913 0.17707218
vn -0.8548073 -0.51008654 -0.09547926
vn -0.869501 -0.49218062 -0.041549116
vn -0.9768361 0.10286959 -0.1876414
vn -0.9797349 0.1948566 -0.04637202
vn -0.96974677 0.24220969 0.030426243
vn -0.9999964 -0.0020239025 -0.0017349186
vn -0.9999964 -0.0020289593 -0.0017496829
vn -0.9999964 -0.0020279991 -0.0017402377
vn -0.9999964 -0.0020289593 -0.0017496829
vn -0.9999964 -0.0020239025 -0.0017349186
vn -0.9999964 -0.00202478 -0.0017382136
vn 0.0020295319 -0.99999785 0.0003762117
vn 0.002029875 -0.99999785 0.00037681687
vn 0.0020306075 -0.99999785 0.00037163956
vn 0.002029875 -0.99999785 0.00037681687
vn 0.0020295319 -0.99999785 0.0003762117
vn 0.0020297198 -0.99999785 0.00037983502
vn 0.9999964 0.0020297181 0.0017444552
vn 0.9999964 0.0020301293 0.0017477514
vn 0.9999964 0.002029958 0.0017437991
vn -0.0017497991 0.00037731006 0.99999845
vn -0.0017497989 0.00037731006 0.99999845
vn -0.0017498003 0.0003773114 0.99999845
vn -0.0017497973 0.00037730864 0.99999845
vn -0.002031125 0.99999785 -0.00038353182
vn -0.0020303512 0.99999785 -0.00038055846
vn -0.00203167 0.99999785 -0.0003824513
vn -0.0020308387 0.99999785 -0.0003798134
vn -0.002028651 0.99999785 -0.0003757488
vn -0.9999964 -0.0020307128 -0.0017541534
vn -0.9999964 -0.0020289593 -0.0017496829
vn -0.9999964 -0.00202478 -0.0017382136
vn -0.9999964 -0.0020280129 -0.0017588005
vn 0.9999964 0.0020305421 0.0017524478
vn 0.9999964 0.0020301293 0.0017477514
vn 0.9999964 0.0020304618 0.0017492964
vn 0.9999964 0.0020297181 0.0017444552
vn 0.15162443 -0.9833318 -0.10034292
vn 0.031685792 -0.97987247 -0.1970939
vn 0.0024085443 -0.9664002 -0.257031
vn -0.021914266 -0.99767166 -0.0645835
vn 0.0022870484 -0.98685014 -0.16162176
vn -0.084363416 -0.98747694 0.13331193
vn -0.1877658 -0.9755809 0.11395584
vn -0.26988158 -0.962223 0.035928812
vn -0.5318444 -0.84223676 0.08819714
vn 0.024775328 -0.9779674 0.20728253
vn -0.02482509 -0.978778 0.20341407
vn -0.92534125 0.13385528 -0.35472012
vn -0.93576777 0.013085465 -0.35237387
vn -0.94531435 -0.0020400758 -0.32615438
vn -0.94944257 -0.00952274 -0.3137963
vn -0.9381272 -0.05649114 -0.34165207
vn -0.9303879 -0.32305863 -0.1732381
vn 0.8101779 -0.5530962 -0.19415557
vn 0.9562384 -0.23914321 -0.16857804
vn 0.9453548 -0.23899588 -0.22177711
vn 0.9546053 -0.24246354 -0.17303245
vn 0.99774396 0.056425806 -0.0363743
vn -0.8548073 -0.51008654 -0.09547926
vn -0.7824122 -0.5616552 -0.26902506
vn -0.83032227 -0.4711293 -0.29766127
vn -0.8503211 -0.516387 -0.101481885
vn -0.8515042 -0.5187362 0.0765071
vn -0.2884914 0.9521722 -0.10070175
vn -0.5676948 0.68476593 -0.45696637
vn -0.39856154 0.7434054 -0.53711927
vn -0.12086295 0.86471814 -0.4874985
vn 0.76775 0.6398247 0.034413625
vn 0.9453548 -0.23899588 -0.22177711
vn 0.9562384 -0.23914321 -0.16857804
vn 0.90922797 0.3533113 -0.22017218
vn 0.8069688 0.55633724 -0.19821763
vn 0.7667099 0.63640946 -0.08449205
vn 0.95530635 0.29504907 -0.018327862
vn -0.5676948 0.68476593 -0.45696637
vn -0.1032138 0.69259995 -0.7138993
vn -0.39856154 0.7434054 -0.53711927
vn -0.12086295 0.86471814 -0.4874985
vn 0.21180579 0.66338986 -0.71767145
vn -0.027425012 0.9586422 -0.2832898
vn 0.01835703 0.9690521 -0.24617271
vn -0.001524883 0.96769005 -0.25213817
vn -0.21380149 0.9695342 -0.1195508
vn -0.2811278 0.95569444 -0.0872654
vn -0.35842058 0.93091166 0.07027163
vn -0.52790916 0.84196955 0.11135229
vn -0.2884914 0.9521722 -0.10070175
vn -0.12086295 0.86471814 -0.4874985
vn 0.050670702 0.9976579 -0.04594724
vn -0.35842058 0.93091166 0.07027163
vn -0.3552867 -0.31362748 -0.8805731
vn -0.39553005 -0.25941578 -0.8810558
vn -0.33443794 -0.2834256 -0.8987888
vn -0.43559146 -0.27789196 -0.8561753
vn -0.90836793 0.1878573 0.37360045
vn -0.90224874 -0.05435807 0.42777604
vn -0.8975046 -0.084842965 0.43276677
vn -0.84043014 -0.2934435 0.45559648
vn -0.31519124 -0.94900024 0.0072805607
vn -0.5318444 -0.84223676 0.08819714
vn -0.26988158 -0.962223 0.035928812
vn -0.29755986 -0.9542964 -0.027866011
vn -0.43356124 0.8990218 0.061519083
vn -0.21380149 0.9695342 -0.1195508
vn -0.35842058 0.93091166 0.07027163
vn 0.050670702 0.9976579 -0.04594724
vn -0.2884914 0.9521722 -0.10070175
vn -0.52790916 0.84196955 0.11135229
vn -0.64087224 0.7557438 -0.13466272
vn -0.35842058 0.93091166 0.07027163
vn 0.95530635 0.29504907 -0.018327862
vn 0.9562384 -0.23914321 -0.16857804
vn 0.99774396 0.056425806 -0.0363743
vn 0.9799413 0.17640154 -0.092723414
vn 0.9962053 0.037839584 -0.078378774
vn 0.9399566 0.33693513 -0.05437195
vn 0.9849722 0.010525858 -0.17239204
vn 0.9592868 0.26525873 -0.0969882
vn 0.97783333 0.025939217 -0.20777169
g meshRaidALFLStone1_0
f 3/3/3 2/2/2 1/1/1
f 6/6/6 5/5/5 4/4/4
f 9/9/9 8/8/8 7/7/7
f 12/12/12 11/11/11 10/10/10
f 15/15/15 14/14/14 13/13/13
f 18/18/18 17/17/17 16/16/16
f 21/21/21 20/20/20 19/19/19
f 24/24/24 23/23/23 22/22/22
f 27/27/27 26/26/26 25/25/25
f 30/30/30 29/29/29 28/28/28
f 33/33/33 32/32/32 31/31/31
f 36/36/36 35/35/35 34/34/34
f 39/39/39 38/38/38 37/37/37
f 42/42/42 41/41/41 40/40/40
f 45/45/45 44/44/44 43/43/43
f 48/48/48 47/47/47 46/46/46
f 51/51/51 50/50/50 49/49/49
f 54/54/54 53/53/53 52/52/52
f 57/57/57 56/56/56 55/55/55
f 60/60/60 59/59/59 58/58/58
f 63/63/63 62/62/62 61/61/61
f 66/66/66 65/65/65 64/64/64
f 69/69/69 68/68/68 67/67/67
f 72/72/72 71/71/71 70/70/70
f 75/75/75 74/74/74 73/73/73
f 78/78/78 77/77/77 76/76/76
f 81/81/81 80/80/80 79/79/79
f 84/84/84 83/83/83 82/82/82
f 85/85/85 82/82/82 83/83/83
f 88/88/88 87/87/87 86/86/86
f 88/88/88 89/89/89 87/87/87
f 90/90/90 87/87/87 89/89/89
f 93/93/93 92/92/92 91/91/91
f 94/94/94 91/91/91 92/92/92
f 97/97/97 96/96/96 95/95/95
f 97/97/97 98/98/98 96/96/96
f 101/101/101 100/100/100 99/99/99
f 102/102/102 99/99/99 100/100/100
f 100/100/100 103/103/103 102/102/102
f 102/102/102 104/104/104 99/99/99
f 105/105/105 99/99/99 104/104/104
f 104/104/104 102/102/102 106/106/106
f 107/107/107 106/106/106 102/102/102
f 106/106/106 108/108/108 104/104/104
f 109/109/109 104/104/104 108/108/108
f 112/112/112 111/111/111 110/110/110
f 113/113/113 110/110/110 111/111/111
f 111/111/111 114/114/114 113/113/113
f 115/115/115 113/113/113 114/114/114
f 118/118/118 117/117/117 116/116/116
f 119/119/119 116/116/116 117/117/117
f 117/117/117 120/120/120 119/119/119
f 123/123/123 122/122/122 121/121/121
f 124/124/124 121/121/121 122/122/122
f 124/124/124 125/125/125 121/121/121
f 128/128/128 127/127/127 126/126/126
f 128/128/128 126/126/126 129/129/129
f 132/132/132 131/131/131 130/130/130
f 133/133/133 130/130/130 131/131/131
f 133/133/133 134/134/134 130/130/130
f 135/135/135 130/130/130 134/134/134
f 130/130/130 135/135/135 136/136/136
f 139/139/139 138/138/138 137/137/137
f 139/139/139 140/140/140 138/138/138
f 141/141/141 138/138/138 140/140/140
f 144/144/144 143/143/143 142/142/142
f 145/145/145 142/142/142 143/143/143
f 145/145/145 146/146/146 142/142/142
f 145/145/145 147/147/147 146/146/146
f 148/148/148 146/146/146 147/147/147
f 151/151/151 150/150/150 149/149/149
f 149/149/149 152/152/152 151/151/151
f 155/155/155 154/154/154 153/153/153
f 156/156/156 153/153/153 154/154/154
f 159/159/159 158/158/158 157/157/157
f 159/159/159 160/160/160 158/158/158
f 163/163/163 162/162/162 161/161/161
f 161/161/161 164/164/164 163/163/163
f 167/167/167 166/166/166 165/165/165
f 165/165/165 168/168/168 167/167/167
f 171/171/171 170/170/170 169/169/169
f 172/172/172 169/169/169 170/170/170
f 175/175/175 174/174/174 173/173/173
f 173/173/173 176/176/176 175/175/175
f 177/177/177 175/175/175 176/176/176
f 173/173/173 178/178/178 176/176/176
f 177/177/177 176/176/176 179/179/179
f 180/180/180 176/176/176 178/178/178
f 181/181/181 179/179/179 176/176/176
f 176/176/176 180/180/180 181/181/181
