g meshSPWaterRed
v 23.162344 5.088141 7.0249205
v 10.783225 -1.7221838 7.024921
v 22.653097 6.2490973 7.0249224
v 22.047653 7.3678536 7.024922
v 21.354277 8.429158 7.024922
v 20.572945 9.417799 7.024923
v 18.796684 10.986704 7.0249224
v 15.376979 12.244034 7.024922
v 10.351942 13.764371 7.024923
v 5.7284155 14.305722 7.024923
v 1.9638977 10.49961 7.024923
v -2.3864062 8.433778 7.024922
v -5.721327 5.088159 7.0249205
v -6.022628 0.6153004 7.0249205
v -2.9020226 -4.122361 7.02492
v -1.4566174 -6.4812036 7.0249195
v -1.1519208 -8.915184 7.0249205
v 0.5340539 -12.325536 7.0249195
v 4.735991 -13.062432 7.02492
v 7.4022665 -13.372337 7.024918
v 10.212296 -13.9724865 7.024918
v 11.52751 -14.214127 7.0249186
v 12.764462 -14.116891 7.024918
v 14.569742 -13.698602 7.024918
v 24.55113 1.9783227 6.216978
v 15.008102 8.143554 6.2169785
v 24.986053 2.844083 6.2169766
v 25.483284 4.7699957 6.2169766
v 25.195202 8.428723 6.2169776
v 24.096004 12.13247 6.216978
v 23.036974 15.486324 6.2169785
v 20.054726 17.897194 6.216979
v 16.222359 19.215502 6.216979
v 12.1663885 18.736628 6.216979
v 8.568716 17.173662 6.21698
v 5.695354 15.199641 6.2169785
v 4.585807 13.699705 6.21698
v 16.124525 1.4714515 10.314174
v 14.889962 -3.0359213 10.314174
v 13.321307 1.2848648 10.314175
v 18.721066 0.66025686 10.314177
v 10.918536 -0.06603324 10.314177
v 20.320927 -1.3924769 10.314178
v 9.452006 -2.1607115 10.314178
v 20.092285 -3.945268 10.314174
v 9.534509 -4.426556 10.314174
v 18.272783 -6.1435666 10.314175
v 11.526613 -6.3000293 10.314175
v 16.308947 -7.6900473 10.314177
v 14.030285 -7.6724644 10.314177
v 17.261974 8.222838 8.045849
v 14.814645 -2.6903024 7.840222
v 13.570029 8.078079 7.840224
v 20.835157 6.7106442 7.8402243
v 10.081394 7.1689944 7.8402233
v 23.456991 4.0038915 7.8402233
v 6.4730625 5.532992 7.8402233
v 25.257044 0.8969473 7.840223
v 5.0612783 1.5418211 7.840222
v 25.565443 -2.4099367 7.840222
v 3.6853104 -1.8047994 7.840224
v 23.97327 -5.6938996 7.8402214
v 3.9781044 -5.0786114 7.8402233
v 21.669357 -8.430279 7.840222
v 6.1157074 -7.654843 7.840221
v 19.909746 -11.320766 7.840221
v 8.634589 -9.507725 7.840223
v 18.019823 -13.746313 7.84022
v 11.7877655 -11.850644 7.840221
v 14.816871 -13.663472 7.84022
vt 1.149976 0.7416754
vt 0.5975591 0.43569505
vt 1.1270661 0.79349947
vt 1.0998619 0.8434253
vt 1.0687345 0.89077175
vt 1.0336856 0.9348593
vt 0.9540932 1.0047543
vt 0.8010863 1.0605123
vt 0.57629466 1.1278195
vt 0.36957407 1.1514218
vt 0.20180556 0.98082256
vt 0.0076315105 0.8879304
vt -0.14099494 0.7379682
vt -0.15388754 0.5380126
vt -0.013802215 0.3266609
vt 0.051103815 0.2214168
vt 0.076193556 0.11614992
vt 0.14082816 -0.03954318
vt 0.32873058 -0.07193977
vt 0.44794095 -0.08544889
vt 0.57361376 -0.11191204
vt 0.63242894 -0.122543484
vt 0.6877028 -0.118038565
vt 0.76833713 -0.09911123
vt 0.2464359 -0.011092007
vt 0.34489295 0.49225304
vt 0.29001492 -0.0148097575
vt 0.37907544 -0.0033690631
vt 0.53361505 0.08575329
vt 0.6644243 0.17819104
vt 0.7805538 0.2836509
vt 0.8292831 0.44884568
vt 0.81658876 0.6213106
vt 0.7285991 0.78223604
vt 0.6154572 0.9135287
vt 0.48455086 1.0008785
vt 0.40308166 1.0222436
vt 0.57390666 0.31706187
vt 0.49977943 0.5121658
vt 0.67011976 0.39759225
vt 0.45888144 0.27796754
vt 0.7212343 0.50958216
vt 0.3471254 0.30990028
vt 0.7189932 0.6237558
vt 0.28816727 0.40801066
vt 0.6563649 0.70332336
vt 0.29593155 0.5352149
vt 0.5351782 0.7184628
vt 0.32606274 0.64270484
vt 0.4087277 0.70206
vt 0.6206635 0.99880964
vt 0.5071303 0.5271777
vt 0.45394218 1.006846
vt 0.7759198 0.93964386
vt 0.2938806 0.9611936
vt 0.9028698 0.8313056
vt 0.16013828 0.8572934
vt 0.98451257 0.68914187
vt 0.062566146 0.7220955
vt 0.98450947 0.53906643
vt 0.011945441 0.5696192
vt 0.92475474 0.38845304
vt 0.027161494 0.41703826
vt 0.8190917 0.26392138
vt 0.109108314 0.30202878
vt 0.73825216 0.1322591
vt 0.23370509 0.22608386
vt 0.65154415 0.021846637
vt 0.37291306 0.1200017
vt 0.5090451 0.030086279
vn 7.0068273E-07 -1.2531583E-06 1
vn -0 -1.5581244E-07 1
vn 6.9507735E-07 -3.7487322E-07 1
vn 3.1323717E-07 1.5036422E-07 1
vn -0 -4.082028E-07 1
vn -1.8884107E-07 -3.0028212E-07 1
vn -1.8099239E-07 0 1
vn -0 0 1
vn -0 -1.1600727E-07 1
vn -0 -1.03075266E-07 1
vn -0 -1.7490679E-07 1
vn -1.4598766E-07 -2.4419916E-07 1
vn -0 -1.1168343E-07 1
vn -0 0 1
vn -1.1968716E-07 -2.1137697E-07 1
vn -0 0 1
vn -1.394226E-07 0 1
vn -1.3180924E-07 -1.767065E-07 1
vn 3.021185E-07 -1.9003727E-07 1
vn 5.8451246E-07 -3.537906E-07 1
vn -6.8061826E-07 -2.350962E-07 1
vn 1.5739603E-07 -1.930859E-07 1
vn 8.022617E-07 -2.014744E-07 1
vn -0 -2.3742156E-07 1
vn 1.7133643E-06 1.040241E-06 1
vn 1.2924795E-07 0 1
vn 9.97427E-07 5.469914E-07 1
vn -0 0 1
vn -0 -1.4413459E-07 1
vn -0 -1.351724E-07 1
vn -0 -1.2874742E-07 1
vn -0 0 1
vn -1.4075594E-07 0 1
vn 1.5227305E-07 0 1
vn 2.7113634E-07 -1.6336053E-07 1
vn 3.1825726E-07 1.5857259E-07 1
vn 5.734583E-07 5.215306E-07 1
vn -0 1.4286584E-07 1
vn -0 0 1
vn 2.4090525E-07 0 1
vn -7.319569E-07 1.0061426E-07 1
vn 7.7500925E-07 0 1
vn -4.5647712E-07 -9.78898E-07 1
vn 1.0304926E-06 -1.1951289E-06 1
vn 1.4839625E-07 -9.017378E-07 1
vn 2.2997916E-07 -1.0049382E-06 1
vn -0 7.041612E-07 1
vn -2.7319098E-07 6.737388E-07 1
vn -2.681685E-07 8.623618E-07 1
vn -0 8.3241207E-07 1
vn -0.0035900713 -0.018033821 0.99983096
vn -0.0004471842 -0.0019528507 0.999998
vn -0.028296452 -0.0032706761 0.9995943
vn 0.02313064 -0.014813507 0.9996227
vn -1.449812E-07 -1.4019105E-07 1
vn -0 -2.6454032E-07 1
vn -0 -1.8091885E-07 1
vn -0 -1.8816606E-07 1
vn -0 0 1
vn -0 -1.8585492E-07 1
vn 1.9931377E-07 1.2867012E-07 1
vn -0 0 1
vn 1.3077145E-07 -4.0990133E-07 1
vn -1.2496038E-07 0 1
vn 1.1396527E-07 -2.5618033E-07 1
vn -4.2953357E-07 -2.213417E-07 1
vn 1.6270923E-07 1.16521726E-07 1
vn -1.8652152E-07 -1.7631079E-07 1
vn 1.4288413E-07 -2.0558508E-07 1
vn -0 -1.6685884E-07 1
g meshSPWaterRed_0
f 3/3/3 2/2/2 1/1/1
f 4/4/4 2/2/2 3/3/3
f 5/5/5 2/2/2 4/4/4
f 6/6/6 2/2/2 5/5/5
f 7/7/7 2/2/2 6/6/6
f 8/8/8 2/2/2 7/7/7
f 9/9/9 2/2/2 8/8/8
f 10/10/10 2/2/2 9/9/9
f 11/11/11 2/2/2 10/10/10
f 12/12/12 2/2/2 11/11/11
f 13/13/13 2/2/2 12/12/12
f 14/14/14 2/2/2 13/13/13
f 15/15/15 2/2/2 14/14/14
f 16/16/16 2/2/2 15/15/15
f 17/17/17 2/2/2 16/16/16
f 18/18/18 2/2/2 17/17/17
f 19/19/19 2/2/2 18/18/18
f 20/20/20 2/2/2 19/19/19
f 21/21/21 2/2/2 20/20/20
f 22/22/22 2/2/2 21/21/21
f 23/23/23 2/2/2 22/22/22
f 24/24/24 2/2/2 23/23/23
f 27/27/27 26/26/26 25/25/25
f 28/28/28 26/26/26 27/27/27
f 29/29/29 26/26/26 28/28/28
f 30/30/30 26/26/26 29/29/29
f 31/31/31 26/26/26 30/30/30
f 32/32/32 26/26/26 31/31/31
f 33/33/33 26/26/26 32/32/32
f 34/34/34 26/26/26 33/33/33
f 35/35/35 26/26/26 34/34/34
f 36/36/36 26/26/26 35/35/35
f 37/37/37 26/26/26 36/36/36
f 40/40/40 39/39/39 38/38/38
f 38/38/38 39/39/39 41/41/41
f 42/42/42 39/39/39 40/40/40
f 41/41/41 39/39/39 43/43/43
f 44/44/44 39/39/39 42/42/42
f 43/43/43 39/39/39 45/45/45
f 46/46/46 39/39/39 44/44/44
f 45/45/45 39/39/39 47/47/47
f 48/48/48 39/39/39 46/46/46
f 47/47/47 39/39/39 49/49/49
f 50/50/50 39/39/39 48/48/48
f 49/49/49 39/39/39 50/50/50
f 53/53/53 52/52/52 51/51/51
f 51/51/51 52/52/52 54/54/54
f 55/55/55 52/52/52 53/53/53
f 54/54/54 52/52/52 56/56/56
f 57/57/57 52/52/52 55/55/55
f 56/56/56 52/52/52 58/58/58
f 59/59/59 52/52/52 57/57/57
f 58/58/58 52/52/52 60/60/60
f 61/61/61 52/52/52 59/59/59
f 60/60/60 52/52/52 62/62/62
f 63/63/63 52/52/52 61/61/61
f 62/62/62 52/52/52 64/64/64
f 65/65/65 52/52/52 63/63/63
f 64/64/64 52/52/52 66/66/66
f 67/67/67 52/52/52 65/65/65
f 66/66/66 52/52/52 68/68/68
f 69/69/69 52/52/52 67/67/67
f 68/68/68 52/52/52 70/70/70
f 70/70/70 52/52/52 69/69/69
