g meshVoidJailerEyes
v -0.25575423 4.0850058 1.3873634
v -0.29816693 4.0978866 1.3845756
v -0.2809288 4.0845494 1.3694932
v -0.27315485 4.0996585 1.4011462
v -0.30946544 4.1001873 1.4028251
v -0.25399354 4.0785108 1.432673
v -0.2401194 4.0577335 1.418523
v -0.28670287 4.103528 1.4134092
v -0.27621415 4.088063 1.4424478
v -0.3108156 4.07994 1.4355743
v -0.2651352 4.0392833 1.4408449
v -0.25063235 4.019494 1.4292779
v -0.2702886 4.00464 1.424566
v -0.27972752 4.0551925 1.4504275
v -0.28507155 4.0247073 1.436172
v -0.29418346 4.0031824 1.4039102
v -0.29635802 4.0402527 1.4443377
v -0.30977446 4.022912 1.4173427
v -0.31752604 4.036309 1.4291319
v -0.3361975 4.046497 1.3965031
v -0.31728038 4.0283775 1.3797555
v -0.33760375 4.0611362 1.415662
v -0.30946544 4.1001873 1.4028251
v -0.31915033 4.0805697 1.3779696
v -0.3026741 4.065345 1.3617692
v -0.2809288 4.0845494 1.3694932
v -0.29816693 4.0978866 1.3845756
v -0.32515326 4.087415 1.3940982
v 0.2557543 4.0850058 1.3873634
v 0.2809288 4.0845494 1.3694932
v 0.29816702 4.0978866 1.3845756
v 0.2731549 4.0996585 1.4011462
v 0.30946547 4.1001873 1.4028251
v 0.25399363 4.0785108 1.432673
v 0.24011946 4.0577335 1.418523
v 0.28670296 4.103528 1.4134092
v 0.27621418 4.088063 1.4424478
v 0.31081563 4.07994 1.4355743
v 0.26513523 4.0392833 1.4408449
v 0.2506324 4.019494 1.4292779
v 0.27028865 4.00464 1.424566
v 0.27972758 4.0551925 1.4504275
v 0.28507155 4.0247073 1.436172
v 0.29418346 4.0031824 1.4039102
v 0.29635802 4.0402527 1.4443377
v 0.30977452 4.022912 1.4173427
v 0.31752604 4.036309 1.4291319
v 0.33619758 4.046497 1.3965031
v 0.3172804 4.0283775 1.3797555
v 0.33760375 4.0611362 1.415662
v 0.30946547 4.1001873 1.4028251
v 0.3191504 4.0805697 1.3779696
v 0.3026742 4.065345 1.3617692
v 0.2809288 4.0845494 1.3694932
v 0.29816702 4.0978866 1.3845756
v 0.32515335 4.087415 1.3940982
v -0.22228979 3.9168615 1.4922291
v -0.25886187 3.926766 1.4864613
v -0.2446287 3.9180095 1.4752476
v -0.2364681 3.9276156 1.5026207
v -0.26835868 3.926574 1.5006633
v -0.22671048 3.9138591 1.524684
v -0.21413793 3.8987744 1.5136508
v -0.24919975 3.9294991 1.5113362
v -0.24548846 3.9196248 1.5309633
v -0.27106336 3.911667 1.5242279
v -0.23096195 3.8869522 1.5324246
v -0.2178127 3.8719072 1.5226218
v -0.23292682 3.855103 1.5173776
v -0.24354891 3.8966167 1.5378344
v -0.24730171 3.8700325 1.5267558
v -0.25144193 3.8524163 1.5011714
v -0.259392 3.884841 1.5335711
v -0.2669901 3.866158 1.5114197
v -0.2741723 3.8783624 1.5208114
v -0.28655702 3.8845947 1.4941648
v -0.26950535 3.8725533 1.4819698
v -0.28912875 3.8971083 1.5098503
v -0.26835868 3.926574 1.5006633
v -0.27524748 3.9077818 1.4811761
v -0.2610237 3.8974614 1.4692236
v -0.2446287 3.9180095 1.4752476
v -0.25886187 3.926766 1.4864613
v -0.2817471 3.9140573 1.495564
v 0.22228986 3.9168615 1.4922291
v 0.24462877 3.9180095 1.4752476
v 0.25886196 3.926766 1.4864613
v 0.23646818 3.9276156 1.5026207
v 0.26835868 3.926574 1.5006633
v 0.22671054 3.9138591 1.524684
v 0.21413799 3.8987744 1.5136508
v 0.24919982 3.9294991 1.5113362
v 0.24548852 3.9196248 1.5309633
v 0.27106345 3.911667 1.5242279
v 0.23096201 3.8869522 1.5324246
v 0.21781276 3.8719072 1.5226218
v 0.23292689 3.855103 1.5173776
v 0.24354896 3.8966167 1.5378344
v 0.24730176 3.8700325 1.5267558
v 0.251442 3.8524163 1.5011714
v 0.25939208 3.884841 1.5335711
v 0.26699018 3.866158 1.5114197
v 0.27417237 3.8783624 1.5208114
v 0.2865571 3.8845947 1.4941648
v 0.2695054 3.8725533 1.4819698
v 0.28912875 3.8971083 1.5098503
v 0.26835868 3.926574 1.5006633
v 0.27524754 3.9077818 1.4811761
v 0.26102373 3.8974614 1.4692236
v 0.24462877 3.9180095 1.4752476
v 0.25886196 3.926766 1.4864613
v 0.2817472 3.9140573 1.495564
vt 0.33891416 0.85157883
vt 0.33637545 0.8571754
vt 0.34011504 0.85579085
vt 0.33626178 0.8531223
vt 0.33320338 0.8567365
vt 0.33490717 0.84897244
vt 0.33689606 0.8464198
vt 0.33429754 0.85357684
vt 0.33309925 0.8504749
vt 0.32923484 0.85252106
vt 0.33248308 0.8454681
vt 0.33337325 0.8418593
vt 0.32981777 0.84116215
vt 0.3316337 0.84787226
vt 0.3297448 0.8448001
vt 0.32563803 0.84217495
vt 0.32961604 0.8470506
vt 0.32652035 0.8455954
vt 0.32722884 0.8474616
vt 0.3242757 0.8485671
vt 0.3226157 0.8462061
vt 0.32569182 0.8498187
vt 0.32433063 0.85495174
vt 0.32216585 0.8515905
vt 0.3197709 0.84992564
vt 0.3177321 0.85348773
vt 0.32127574 0.8549901
vt 0.32381317 0.8522897
vt 0.33891416 0.85157883
vt 0.34011504 0.85579085
vt 0.33637545 0.8571754
vt 0.33626178 0.8531223
vt 0.33320338 0.8567365
vt 0.33490717 0.84897244
vt 0.33689606 0.8464198
vt 0.33429754 0.85357684
vt 0.33309925 0.8504749
vt 0.32923484 0.85252106
vt 0.33248308 0.8454681
vt 0.33337325 0.8418593
vt 0.32981777 0.84116215
vt 0.3316337 0.84787226
vt 0.3297448 0.8448001
vt 0.32563803 0.84217495
vt 0.32961604 0.8470506
vt 0.32652035 0.8455954
vt 0.32722884 0.8474616
vt 0.3242757 0.8485671
vt 0.3226157 0.8462061
vt 0.32569182 0.8498187
vt 0.32433063 0.85495174
vt 0.32216585 0.8515905
vt 0.3197709 0.84992564
vt 0.3177321 0.85348773
vt 0.32127574 0.8549901
vt 0.32381317 0.8522897
vt 0.33965135 0.89066356
vt 0.3374317 0.8966904
vt 0.3408262 0.8953306
vt 0.33725145 0.8922624
vt 0.33439794 0.8963227
vt 0.3357282 0.8892502
vt 0.33749387 0.8867588
vt 0.33538365 0.8929564
vt 0.3340263 0.89069545
vt 0.33062303 0.8928217
vt 0.3336618 0.8865295
vt 0.3344394 0.88309085
vt 0.3306111 0.8821374
vt 0.33292338 0.8884718
vt 0.33071294 0.8856564
vt 0.32683662 0.8834458
vt 0.33080432 0.88818973
vt 0.32778904 0.8866443
vt 0.32867718 0.88836545
vt 0.326094 0.88948107
vt 0.32425043 0.8874807
vt 0.32751057 0.8906031
vt 0.32640558 0.8953616
vt 0.3242811 0.8918906
vt 0.32200345 0.89056015
vt 0.32027844 0.8946247
vt 0.32356504 0.8957378
vt 0.32613474 0.8925775
vt 0.33965135 0.89066356
vt 0.3408262 0.8953306
vt 0.3374317 0.8966904
vt 0.33725145 0.8922624
vt 0.33439794 0.8963227
vt 0.3357282 0.8892502
vt 0.33749387 0.8867588
vt 0.33538365 0.8929564
vt 0.3340263 0.89069545
vt 0.33062303 0.8928217
vt 0.3336618 0.8865295
vt 0.3344394 0.88309085
vt 0.3306111 0.8821374
vt 0.33292338 0.8884718
vt 0.33071294 0.8856564
vt 0.32683662 0.8834458
vt 0.33080432 0.88818973
vt 0.32778904 0.8866443
vt 0.32867718 0.88836545
vt 0.326094 0.88948107
vt 0.32425043 0.8874807
vt 0.32751057 0.8906031
vt 0.32640558 0.8953616
vt 0.3242811 0.8918906
vt 0.32200345 0.89056015
vt 0.32027844 0.8946247
vt 0.32356504 0.8957378
vt 0.32613474 0.8925775
vn 0.5742885 0.7911853 -0.21028182
vn -0.084668666 0.83389944 -0.5453832
vn 0.003935172 0.73997676 -0.67262095
vn 0.4916313 0.8671691 -0.079475954
vn -0.47746715 0.85562146 0.19984238
vn 0.7264083 0.47030926 0.5011388
vn 0.77426636 0.31937715 0.54636055
vn 0.0037514453 0.9488421 0.31572863
vn 0.111437224 0.59907675 0.792899
vn -0.53265357 0.43051457 0.72865444
vn 0.45430526 -0.15418828 0.87740105
vn 0.33930337 -0.22109535 0.9143249
vn -0.21596557 -0.57405144 0.78982514
vn 0.057434097 0.0495577 0.9971186
vn -0.18672217 -0.6052016 0.7738643
vn -0.54541177 -0.7218626 0.4259583
vn -0.3682588 -0.20136596 0.90765476
vn -0.63929677 -0.6999564 0.31837186
vn -0.6616948 -0.34620675 0.6650572
vn -0.91157615 -0.28531998 -0.29600915
vn -0.8037351 -0.52952623 -0.2713151
vn -0.91386646 0.11294567 0.38998896
vn -0.47746715 0.85562146 0.19984238
vn -0.6692253 0.30745223 -0.67646927
vn -0.58630526 0.24041876 -0.77359223
vn 0.003935172 0.73997676 -0.67262095
vn -0.084668666 0.83389944 -0.5453832
vn -0.8118681 0.58265495 -0.037195437
vn -0.6218668 0.77093893 -0.13760413
vn -0.06129547 0.7847308 -0.6167986
vn 0.08467013 0.8339015 -0.54538
vn -0.49163228 0.86716837 -0.07947747
vn 0.47747502 0.8556173 0.1998413
vn -0.72640854 0.4703045 0.501143
vn -0.79021883 0.23736785 0.56498736
vn -0.0037456083 0.94884235 0.31572795
vn -0.11143461 0.5990739 0.79290164
vn 0.5326546 0.43051532 0.7286534
vn -0.45430782 -0.15419394 0.8773989
vn -0.30575362 -0.3192744 0.8969831
vn 0.18694484 -0.55455595 0.8108756
vn -0.057430234 0.04955653 0.99711883
vn 0.1867235 -0.60519975 0.7738654
vn 0.60672307 -0.69084376 0.39321986
vn 0.36826983 -0.20137271 0.9076488
vn 0.639301 -0.6999519 0.31837332
vn 0.6616917 -0.3462056 0.6650607
vn 0.91157615 -0.28531882 -0.29601032
vn 0.8556297 -0.40368077 -0.32394403
vn 0.91386557 0.112943694 0.38999146
vn 0.47747502 0.8556173 0.1998413
vn 0.6692322 0.30745366 -0.67646176
vn 0.47491515 0.35016963 -0.80736417
vn -0.06129547 0.7847308 -0.6167986
vn 0.08467013 0.8339015 -0.54538
vn 0.8118677 0.5826556 -0.037192214
vn 0.6008034 0.795443 -0.07940876
vn -0.15098792 0.8343251 -0.5301927
vn -0.001028104 0.7616795 -0.6479532
vn 0.4355332 0.8998949 -0.022359936
vn -0.50181836 0.8584638 0.105915345
vn 0.65525854 0.52141035 0.5465963
vn 0.7727257 0.36394507 0.5200375
vn -0.06800152 0.9486172 0.30903265
vn -0.031570323 0.6172795 0.7861103
vn -0.5742577 0.42818275 0.6977734
vn 0.4310117 -0.104739875 0.89624697
vn 0.39172974 -0.22690915 0.8916614
vn -0.120797046 -0.6250146 0.77120996
vn 0.013806487 0.07850011 0.9968184
vn -0.12857257 -0.59960157 0.7899032
vn -0.48255756 -0.79547423 0.3665501
vn -0.3771166 -0.18234225 0.90803874
vn -0.60148716 -0.7524053 0.26851362
vn -0.677335 -0.38972428 0.6239649
vn -0.8752521 -0.3692886 -0.31234527
vn -0.7360117 -0.5219304 -0.4311327
vn -0.9387155 0.06287139 0.33891055
vn -0.50181836 0.8584638 0.105915345
vn -0.65946704 0.26358268 -0.70400816
vn -0.54940104 0.20410345 -0.810247
vn -0.001028104 0.7616795 -0.6479532
vn -0.15098792 0.8343251 -0.5301927
vn -0.836017 0.53848773 -0.10538726
vn -0.59841245 0.7973788 -0.07803617
vn -0.01494468 0.76974857 -0.6381723
vn 0.15098931 0.8343251 -0.53019226
vn -0.4355357 0.89989406 -0.022348477
vn 0.5018204 0.8584631 0.10591192
vn -0.65525687 0.5214128 0.546596
vn -0.7762257 0.34591314 0.5270843
vn 0.06800379 0.9486181 0.3090293
vn 0.031570673 0.6172766 0.7861125
vn 0.5742622 0.42823127 0.69773984
vn -0.43101203 -0.10474264 0.8962464
vn -0.39823252 -0.22408006 0.88949364
vn 0.11606725 -0.61570245 0.7793837
vn -0.013808305 0.078509375 0.9968177
vn 0.1285738 -0.59960186 0.7899028
vn 0.5305057 -0.778157 0.3362073
vn 0.37711227 -0.18233716 0.9080416
vn 0.60148567 -0.75240785 0.2685097
vn 0.6773485 -0.38967618 0.62398046
vn 0.8752515 -0.36928463 -0.3123518
vn 0.736468 -0.5216292 -0.43071768
vn 0.9387162 0.06287715 0.3389079
vn 0.5018204 0.8584631 0.10591192
vn 0.65946597 0.26358393 -0.70400864
vn 0.5518699 0.18119329 -0.81400776
vn -0.01494468 0.76974857 -0.6381723
vn 0.15098931 0.8343251 -0.53019226
vn 0.8360292 0.53847945 -0.10533298
g meshVoidJailerEyes_0
f 3/3/3 2/2/2 1/1/1
f 2/2/2 4/4/4 1/1/1
f 2/2/2 5/5/5 4/4/4
f 4/4/4 6/6/6 1/1/1
f 6/6/6 7/7/7 1/1/1
f 5/5/5 8/8/8 4/4/4
f 4/4/4 8/8/8 6/6/6
f 9/9/9 8/8/8 5/5/5
f 8/8/8 9/9/9 6/6/6
f 10/10/10 9/9/9 5/5/5
f 6/6/6 11/11/11 7/7/7
f 6/6/6 9/9/9 11/11/11
f 11/11/11 12/12/12 7/7/7
f 12/12/12 11/11/11 13/13/13
f 9/9/9 14/14/14 11/11/11
f 14/14/14 9/9/9 10/10/10
f 11/11/11 15/15/15 13/13/13
f 11/11/11 14/14/14 15/15/15
f 13/13/13 15/15/15 16/16/16
f 14/14/14 17/17/17 15/15/15
f 17/17/17 14/14/14 10/10/10
f 15/15/15 18/18/18 16/16/16
f 15/15/15 17/17/17 18/18/18
f 17/17/17 10/10/10 19/19/19
f 17/17/17 19/19/19 18/18/18
f 18/18/18 20/20/20 16/16/16
f 18/18/18 19/19/19 20/20/20
f 20/20/20 21/21/21 16/16/16
f 10/10/10 22/22/22 19/19/19
f 19/19/19 22/22/22 20/20/20
f 10/10/10 23/23/23 22/22/22
f 20/20/20 24/24/24 21/21/21
f 20/20/20 22/22/22 24/24/24
f 24/24/24 25/25/25 21/21/21
f 25/25/25 24/24/24 26/26/26
f 24/24/24 27/27/27 26/26/26
f 28/28/28 23/23/23 27/27/27
f 23/23/23 28/28/28 22/22/22
f 24/24/24 28/28/28 27/27/27
f 22/22/22 28/28/28 24/24/24
f 31/31/31 30/30/30 29/29/29
f 32/32/32 31/31/31 29/29/29
f 33/33/33 31/31/31 32/32/32
f 34/34/34 32/32/32 29/29/29
f 35/35/35 34/34/34 29/29/29
f 36/36/36 33/33/33 32/32/32
f 36/36/36 32/32/32 34/34/34
f 36/36/36 37/37/37 33/33/33
f 37/37/37 36/36/36 34/34/34
f 37/37/37 38/38/38 33/33/33
f 39/39/39 34/34/34 35/35/35
f 37/37/37 34/34/34 39/39/39
f 40/40/40 39/39/39 35/35/35
f 39/39/39 40/40/40 41/41/41
f 42/42/42 37/37/37 39/39/39
f 37/37/37 42/42/42 38/38/38
f 43/43/43 39/39/39 41/41/41
f 42/42/42 39/39/39 43/43/43
f 43/43/43 41/41/41 44/44/44
f 45/45/45 42/42/42 43/43/43
f 42/42/42 45/45/45 38/38/38
f 46/46/46 43/43/43 44/44/44
f 45/45/45 43/43/43 46/46/46
f 38/38/38 45/45/45 47/47/47
f 47/47/47 45/45/45 46/46/46
f 48/48/48 46/46/46 44/44/44
f 47/47/47 46/46/46 48/48/48
f 49/49/49 48/48/48 44/44/44
f 50/50/50 38/38/38 47/47/47
f 50/50/50 47/47/47 48/48/48
f 51/51/51 38/38/38 50/50/50
f 52/52/52 48/48/48 49/49/49
f 50/50/50 48/48/48 52/52/52
f 53/53/53 52/52/52 49/49/49
f 52/52/52 53/53/53 54/54/54
f 55/55/55 52/52/52 54/54/54
f 51/51/51 56/56/56 55/55/55
f 56/56/56 51/51/51 50/50/50
f 56/56/56 52/52/52 55/55/55
f 56/56/56 50/50/50 52/52/52
f 59/59/59 58/58/58 57/57/57
f 58/58/58 60/60/60 57/57/57
f 58/58/58 61/61/61 60/60/60
f 60/60/60 62/62/62 57/57/57
f 62/62/62 63/63/63 57/57/57
f 61/61/61 64/64/64 60/60/60
f 60/60/60 64/64/64 62/62/62
f 65/65/65 64/64/64 61/61/61
f 64/64/64 65/65/65 62/62/62
f 66/66/66 65/65/65 61/61/61
f 62/62/62 67/67/67 63/63/63
f 62/62/62 65/65/65 67/67/67
f 67/67/67 68/68/68 63/63/63
f 68/68/68 67/67/67 69/69/69
f 65/65/65 70/70/70 67/67/67
f 70/70/70 65/65/65 66/66/66
f 67/67/67 71/71/71 69/69/69
f 67/67/67 70/70/70 71/71/71
f 69/69/69 71/71/71 72/72/72
f 70/70/70 73/73/73 71/71/71
f 73/73/73 70/70/70 66/66/66
f 71/71/71 74/74/74 72/72/72
f 71/71/71 73/73/73 74/74/74
f 73/73/73 66/66/66 75/75/75
f 73/73/73 75/75/75 74/74/74
f 74/74/74 76/76/76 72/72/72
f 74/74/74 75/75/75 76/76/76
f 76/76/76 77/77/77 72/72/72
f 66/66/66 78/78/78 75/75/75
f 75/75/75 78/78/78 76/76/76
f 66/66/66 79/79/79 78/78/78
f 76/76/76 80/80/80 77/77/77
f 76/76/76 78/78/78 80/80/80
f 80/80/80 81/81/81 77/77/77
f 81/81/81 80/80/80 82/82/82
f 80/80/80 83/83/83 82/82/82
f 84/84/84 79/79/79 83/83/83
f 79/79/79 84/84/84 78/78/78
f 80/80/80 84/84/84 83/83/83
f 78/78/78 84/84/84 80/80/80
f 87/87/87 86/86/86 85/85/85
f 88/88/88 87/87/87 85/85/85
f 89/89/89 87/87/87 88/88/88
f 90/90/90 88/88/88 85/85/85
f 91/91/91 90/90/90 85/85/85
f 92/92/92 89/89/89 88/88/88
f 92/92/92 88/88/88 90/90/90
f 92/92/92 93/93/93 89/89/89
f 93/93/93 92/92/92 90/90/90
f 93/93/93 94/94/94 89/89/89
f 95/95/95 90/90/90 91/91/91
f 93/93/93 90/90/90 95/95/95
f 96/96/96 95/95/95 91/91/91
f 95/95/95 96/96/96 97/97/97
f 98/98/98 93/93/93 95/95/95
f 93/93/93 98/98/98 94/94/94
f 99/99/99 95/95/95 97/97/97
f 98/98/98 95/95/95 99/99/99
f 99/99/99 97/97/97 100/100/100
f 101/101/101 98/98/98 99/99/99
f 98/98/98 101/101/101 94/94/94
f 102/102/102 99/99/99 100/100/100
f 101/101/101 99/99/99 102/102/102
f 94/94/94 101/101/101 103/103/103
f 103/103/103 101/101/101 102/102/102
f 104/104/104 102/102/102 100/100/100
f 103/103/103 102/102/102 104/104/104
f 105/105/105 104/104/104 100/100/100
f 106/106/106 94/94/94 103/103/103
f 106/106/106 103/103/103 104/104/104
f 107/107/107 94/94/94 106/106/106
f 108/108/108 104/104/104 105/105/105
f 106/106/106 104/104/104 108/108/108
f 109/109/109 108/108/108 105/105/105
f 108/108/108 109/109/109 110/110/110
f 111/111/111 108/108/108 110/110/110
f 107/107/107 112/112/112 111/111/111
f 112/112/112 107/107/107 106/106/106
f 112/112/112 108/108/108 111/111/111
f 112/112/112 106/106/106 108/108/108
