g meshRaidVoidGravityFieldCollision.001
v 1.3273367 1.9246272 1.1069255
v 1.3633741 1.8492247 1.0630081
v 1.3612117 1.8631077 1.1328934
v 1.3382189 1.891492 1.0503416
v 1.3050071 1.9580407 1.0660886
v 1.3280754 1.8239275 1.020122
v 1.3250859 1.915516 1.0257335
v 1.2877246 1.9812721 1.0109195
v 1.3184216 1.8533742 1.0128263
v 1.283951 1.8020686 1.0033612
v 1.3160214 1.9310826 0.99345136
v 1.294874 2.0153449 0.9142509
v 1.3137343 1.8677815 0.9957687
v 1.2790195 1.8191967 0.99414486
v 1.2385653 1.7845938 1.0102692
v 1.3322351 1.9499897 0.9108171
v 1.287388 1.9975511 0.558719
v 1.3100474 1.8770747 0.9770648
v 1.2767196 1.8268367 0.9712683
v 1.2364907 1.8054831 0.9978102
v 1.1953536 1.7700868 1.0395907
v 1.3231392 1.9415084 0.55753696
v 1.2799022 1.9797565 0.20318694
v 1.3140434 1.9330268 0.20425682
v 1.3225411 1.8811436 0.90693325
v 1.318391 1.8779244 0.55609417
v 1.3142407 1.8747058 0.20525517
v 1.2737 1.8328196 0.96647644
v 1.230441 1.8094766 0.9773216
v 1.1888591 1.7997469 1.0286378
v 1.166182 1.7667323 1.0961633
v 1.2799284 1.8299171 0.5552975
v 1.2802137 1.827212 0.2058554
v 1.2801219 1.8326101 0.9047398
v 1.2278287 1.8171624 0.97057
v 1.17767 1.8167937 1.0087855
v 1.1540457 1.8110354 1.0793366
v 1.1822014 1.7842113 1.1618893
v 1.2222698 1.81071 0.55551434
v 1.2245001 1.8094001 0.20587955
v 1.2206162 1.8120096 0.90514904
v 1.1717643 1.8299798 0.98363936
v 1.1410403 1.847399 1.0448167
v 1.1595483 1.847923 1.1419439
v 1.2370046 1.8164456 1.1996063
v 1.161957 1.8267969 0.55656034
v 1.168431 1.8281034 0.20531043
v 1.1556467 1.8254962 0.9078102
v 1.1336945 1.8714569 0.99993485
v 1.1353873 1.8985744 1.0863345
v 1.212116 1.8935865 1.1742122
v 1.3078941 1.8499143 1.1896951
v 1.1207423 1.8768613 0.55787194
v 1.1347085 1.8755137 0.20430233
v 1.1067761 1.8782085 0.9114416
v 1.1276253 1.932614 1.0141509
v 1.1779158 1.9543774 1.1141065
v 1.2768363 1.9259851 1.1583995
v 1.3612117 1.8631077 1.1328934
v 1.3273367 1.9246272 1.1069255
v 1.2511245 1.9777826 1.1035414
v 1.3050071 1.9580407 1.0660886
v 1.1184762 1.9439559 0.55863965
v 1.1353163 1.9334276 0.20319968
v 1.1016362 1.9544839 0.9140797
v 1.1634225 1.9879463 1.0203314
v 1.2280581 2.0067904 1.0206114
v 1.2877246 1.9812721 1.0109195
v 1.1462951 2.0188282 0.9151437
v 1.1580168 1.99944 0.5588113
v 1.1697387 1.9800515 0.20247895
v 1.2213683 2.04283 0.9154542
v 1.294874 2.0153449 0.9142509
v 1.2231399 2.0202606 0.55896616
v 1.2249113 1.9976915 0.20247824
v 1.287388 1.9975511 0.558719
v 1.2799022 1.9797565 0.20318694
vt 1.1324883E-06 0.9894361
vt 0.1000011 1.2371799
vt 1.1324883E-06 1.2371799
vt 0.1000011 0.9894361
vt 1.0728836E-06 0.7416922
vt 0.20000106 1.2371799
vt 0.1000011 0.7416922
vt 1.0728836E-06 0.49394834
vt 0.20000106 0.9894361
vt 0.30000108 1.2371799
vt 0.1000011 0.49394834
vt 1.0728836E-06 0.24620506
vt 0.20000106 0.7416927
vt 0.30000108 0.9894361
vt 0.40000105 1.2371795
vt 0.1000011 0.24620506
vt 1.0728836E-06 0.12233341
vt 0.20000106 0.49394888
vt 0.30000108 0.7416927
vt 0.40000105 0.9894359
vt 0.5000011 1.2371795
vt 0.1000011 0.12233341
vt 1.0728836E-06 -0.0015382449
vt 0.1000011 -0.0015382449
vt 0.20000106 0.24620506
vt 0.20000106 0.12233314
vt 0.20000106 -0.0015387764
vt 0.30000108 0.49394888
vt 0.40000105 0.7416922
vt 0.5000011 0.9894359
vt 0.6000011 1.2371795
vt 0.30000108 0.12233314
vt 0.30000108 -0.0015387764
vt 0.30000108 0.24620506
vt 0.40000105 0.49394834
vt 0.5000011 0.7416922
vt 0.6000011 0.9894359
vt 0.70000106 1.2371793
vt 0.40000105 0.12233262
vt 0.40000105 -0.0015393081
vt 0.40000105 0.24620454
vt 0.5000011 0.49394834
vt 0.6000011 0.7416922
vt 0.70000106 0.9894355
vt 0.800001 1.2371793
vt 0.5000011 0.122332744
vt 0.5000011 -0.0015393081
vt 0.5000011 0.2462048
vt 0.60000104 0.49394834
vt 0.70000106 0.74169195
vt 0.800001 0.9894355
vt 0.90000105 1.2371793
vt 0.60000104 0.12233288
vt 0.60000104 -0.0015390423
vt 0.60000104 0.2462048
vt 0.70000106 0.49394804
vt 0.800001 0.74169195
vt 0.90000105 0.9894355
vt 1.0000011 1.2371793
vt 1.0000011 0.9894355
vt 0.90000105 0.74169195
vt 1.0000011 0.74169195
vt 0.70000106 0.12233275
vt 0.70000106 -0.0015390423
vt 0.70000106 0.24620454
vt 0.800001 0.49394804
vt 0.90000105 0.49394804
vt 1.0000011 0.49394804
vt 0.800001 0.24620454
vt 0.800001 0.12233275
vt 0.800001 -0.0015390423
vt 0.90000105 0.24620454
vt 1.0000011 0.24620454
vt 0.90000105 0.12233248
vt 0.90000105 -0.0015395739
vt 1.0000011 0.12233248
vt 1.0000011 -0.0015395739
vn 0.7442893 0.61007327 0.27174282
vn 0.8603597 0.35154092 -0.36905292
vn 0.77680033 0.5432641 0.31850484
vn 0.9054916 0.312396 -0.28721735
vn 0.6982031 0.7005181 0.14760365
vn 0.62090594 0.0046200063 -0.7838714
vn 0.94690996 0.25698152 -0.19318917
vn 0.654037 0.730444 0.19669032
vn 0.78411025 -0.113610715 -0.61013424
vn 0.2709705 -0.3406421 -0.90029883
vn 0.97451615 0.22174104 0.03389937
vn 0.6386512 0.7600639 0.12011481
vn 0.8797416 -0.2500376 -0.40439585
vn 0.45571682 -0.5733613 -0.6808663
vn -0.24342962 -0.47071558 -0.84803826
vn 0.9739909 0.2071688 0.091775656
vn 0.62030095 0.78273004 -0.050599292
vn 0.9348799 -0.33109543 -0.12796669
vn 0.50832576 -0.66551083 -0.5465348
vn -0.06454462 -0.7760066 -0.6274136
vn -0.6715961 -0.414487 -0.61413294
vn 0.96885306 0.24579252 -0.030162394
vn 0.6047986 0.7947574 -0.050787862
vn 0.9604143 0.2768758 -0.030728174
vn 0.9171451 -0.39394757 0.060416367
vn 0.9312454 -0.3642856 -0.008833481
vn 0.94174707 -0.33619714 -0.009167691
vn 0.5669646 -0.75635946 -0.32629982
vn -0.044205032 -0.8613057 -0.50616044
vn -0.59815556 -0.6184612 -0.50962305
vn -0.9496842 -0.3073531 -0.060283657
vn 0.57248265 -0.8199086 0.0036629874
vn 0.5801414 -0.8145068 0.003817964
vn 0.56853354 -0.8219315 0.034615383
vn -0.035675436 -0.9494989 -0.31173566
vn -0.5519029 -0.7658066 -0.33006594
vn -0.9303105 -0.36280948 -0.053773157
vn -0.8100723 -0.076325506 0.58134097
vn 0.029903674 -0.99955136 0.0016877381
vn 0.012857782 -0.9999161 0.0015889229
vn 0.046740327 -0.99822897 0.03680115
vn -0.5529407 -0.8282797 -0.09060517
vn -0.9148589 -0.4011709 -0.04577342
vn -0.8370205 0.005586722 0.547143
vn -0.3213996 0.21117118 0.9230975
vn -0.5415971 -0.84053254 -0.0133309625
vn -0.5672491 -0.82342833 -0.013936543
vn -0.5099676 -0.8576931 0.06554058
vn -0.9164458 -0.39021063 0.08867149
vn -0.9322894 0.13446777 0.33578992
vn -0.3568929 0.3797692 0.85346514
vn 0.28806564 0.46007058 0.83985317
vn -0.93533945 -0.3520751 -0.03439801
vn -0.9442457 -0.3273899 -0.034869175
vn -0.9194271 -0.38127622 0.096345305
vn -0.9401739 0.2265038 0.25449756
vn -0.5188849 0.6409636 0.56561834
vn 0.24512063 0.62721413 0.7392687
vn 0.77680033 0.5432641 0.31850484
vn 0.7442893 0.61007327 0.27174282
vn 0.13817756 0.86767757 0.47753793
vn 0.6982031 0.7005181 0.14760365
vn -0.95588917 0.2889639 -0.052686684
vn -0.951851 0.3019779 -0.052810065
vn -0.95616394 0.26730177 0.11958334
vn -0.56647044 0.7485874 0.34456939
vn 0.05315939 0.9445345 0.32408142
vn 0.654037 0.730444 0.19669032
vn -0.58821625 0.7980801 0.13065122
vn -0.5881905 0.80630153 -0.0625289
vn -0.5851673 0.8085005 -0.062498286
vn 0.027023451 0.9908137 0.13250664
vn 0.6386512 0.7600639 0.12011481
vn 0.014857241 0.9979594 -0.06210058
vn 0.009457957 0.99802774 -0.062056944
vn 0.62030095 0.78273004 -0.050599292
vn 0.6047986 0.7947574 -0.050787862
g meshRaidVoidGravityFieldCollision.001_0
f 3/3/3 2/2/2 1/1/1
f 2/2/2 4/4/4 1/1/1
f 1/1/1 4/4/4 5/5/5
f 2/2/2 6/6/6 4/4/4
f 4/4/4 7/7/7 5/5/5
f 5/5/5 7/7/7 8/8/8
f 6/6/6 9/9/9 4/4/4
f 4/4/4 9/9/9 7/7/7
f 6/6/6 10/10/10 9/9/9
f 7/7/7 11/11/11 8/8/8
f 8/8/8 11/11/11 12/12/12
f 9/9/9 13/13/13 7/7/7
f 7/7/7 13/13/13 11/11/11
f 10/10/10 14/14/14 9/9/9
f 9/9/9 14/14/14 13/13/13
f 10/10/10 15/15/15 14/14/14
f 11/11/11 16/16/16 12/12/12
f 12/12/12 16/16/16 17/17/17
f 13/13/13 18/18/18 11/11/11
f 11/11/11 18/18/18 16/16/16
f 14/14/14 19/19/19 13/13/13
f 13/13/13 19/19/19 18/18/18
f 15/15/15 20/20/20 14/14/14
f 14/14/14 20/20/20 19/19/19
f 15/15/15 21/21/21 20/20/20
f 16/16/16 22/22/22 17/17/17
f 17/17/17 22/22/22 23/23/23
f 22/22/22 24/24/24 23/23/23
f 18/18/18 25/25/25 16/16/16
f 16/16/16 25/25/25 22/22/22
f 22/22/22 26/26/26 24/24/24
f 25/25/25 26/26/26 22/22/22
f 26/26/26 27/27/27 24/24/24
f 19/19/19 28/28/28 18/18/18
f 18/18/18 28/28/28 25/25/25
f 20/20/20 29/29/29 19/19/19
f 19/19/19 29/29/29 28/28/28
f 21/21/21 30/30/30 20/20/20
f 20/20/20 30/30/30 29/29/29
f 21/21/21 31/31/31 30/30/30
f 26/26/26 32/32/32 27/27/27
f 32/32/32 33/33/33 27/27/27
f 25/25/25 34/34/34 26/26/26
f 28/28/28 34/34/34 25/25/25
f 34/34/34 32/32/32 26/26/26
f 29/29/29 35/35/35 28/28/28
f 28/28/28 35/35/35 34/34/34
f 30/30/30 36/36/36 29/29/29
f 29/29/29 36/36/36 35/35/35
f 31/31/31 37/37/37 30/30/30
f 30/30/30 37/37/37 36/36/36
f 31/31/31 38/38/38 37/37/37
f 32/32/32 39/39/39 33/33/33
f 39/39/39 40/40/40 33/33/33
f 34/34/34 41/41/41 32/32/32
f 35/35/35 41/41/41 34/34/34
f 41/41/41 39/39/39 32/32/32
f 36/36/36 42/42/42 35/35/35
f 35/35/35 42/42/42 41/41/41
f 37/37/37 43/43/43 36/36/36
f 36/36/36 43/43/43 42/42/42
f 38/38/38 44/44/44 37/37/37
f 37/37/37 44/44/44 43/43/43
f 38/38/38 45/45/45 44/44/44
f 39/39/39 46/46/46 40/40/40
f 46/46/46 47/47/47 40/40/40
f 41/41/41 48/48/48 39/39/39
f 42/42/42 48/48/48 41/41/41
f 48/48/48 46/46/46 39/39/39
f 43/43/43 49/49/49 42/42/42
f 42/42/42 49/49/49 48/48/48
f 44/44/44 50/50/50 43/43/43
f 43/43/43 50/50/50 49/49/49
f 45/45/45 51/51/51 44/44/44
f 44/44/44 51/51/51 50/50/50
f 45/45/45 52/52/52 51/51/51
f 46/46/46 53/53/53 47/47/47
f 53/53/53 54/54/54 47/47/47
f 48/48/48 55/55/55 46/46/46
f 49/49/49 55/55/55 48/48/48
f 55/55/55 53/53/53 46/46/46
f 50/50/50 56/56/56 49/49/49
f 49/49/49 56/56/56 55/55/55
f 51/51/51 57/57/57 50/50/50
f 50/50/50 57/57/57 56/56/56
f 52/52/52 58/58/58 51/51/51
f 51/51/51 58/58/58 57/57/57
f 52/52/52 59/59/59 58/58/58
f 59/59/59 60/60/60 58/58/58
f 58/58/58 60/60/60 61/61/61
f 58/58/58 61/61/61 57/57/57
f 60/60/60 62/62/62 61/61/61
f 53/53/53 63/63/63 54/54/54
f 63/63/63 64/64/64 54/54/54
f 55/55/55 65/65/65 53/53/53
f 56/56/56 65/65/65 55/55/55
f 65/65/65 63/63/63 53/53/53
f 57/57/57 66/66/66 56/56/56
f 57/57/57 61/61/61 66/66/66
f 56/56/56 66/66/66 65/65/65
f 61/61/61 62/62/62 67/67/67
f 61/61/61 67/67/67 66/66/66
f 62/62/62 68/68/68 67/67/67
f 66/66/66 69/69/69 65/65/65
f 65/65/65 69/69/69 63/63/63
f 66/66/66 67/67/67 69/69/69
f 63/63/63 70/70/70 64/64/64
f 69/69/69 70/70/70 63/63/63
f 70/70/70 71/71/71 64/64/64
f 67/67/67 68/68/68 72/72/72
f 67/67/67 72/72/72 69/69/69
f 69/69/69 72/72/72 70/70/70
f 68/68/68 73/73/73 72/72/72
f 70/70/70 74/74/74 71/71/71
f 72/72/72 74/74/74 70/70/70
f 72/72/72 73/73/73 74/74/74
f 74/74/74 75/75/75 71/71/71
f 73/73/73 76/76/76 74/74/74
f 74/74/74 76/76/76 75/75/75
f 76/76/76 77/77/77 75/75/75
