g meshSnowyForestTreeTrunk3Collision
v -0.7250452 0.24774288 -0.09741667
v -0.7665057 0.20619453 0.099917375
v -0.8063284 0.09923551 -0.09741664
v -0.41701925 0.38512745 -0.09741672
v -0.44235876 -0.010384798 0.47358948
v -0.4928531 -0.09141693 0.2564069
v -0.68928075 -0.2184312 -0.09741664
v -0.5636271 -0.29725817 0.2900091
v -0.46692985 -0.5087642 -0.09741665
v -0.55796325 0.26786128 0.31710508
v -0.5213557 0.15400913 0.5105344
v -0.43459827 -0.034772143 0.85027647
v -0.4173928 -0.09289534 0.466693
v -0.49277195 -0.16864692 0.6639988
v -0.17596504 0.31335306 0.49410576
v -0.19239354 0.49866697 -0.09741677
v -0.082662396 0.35309386 0.4946987
v -0.13541584 0.40312332 0.68018293
v 0.12469934 0.74325156 -0.09741684
v 0.08055229 0.6942744 0.11617353
v 0.2541166 0.7417184 -0.097416855
v -0.16275719 0.2964427 0.6870831
v 0.17964455 0.55896443 0.5314914
v 0.13632494 0.5197382 0.88051856
v 0.2970517 0.38864243 0.079131894
v 0.43571445 0.35015646 -0.09741686
v 0.20678997 0.47444266 0.6964223
v 0.47540602 0.22485916 0.10720375
v 0.6172252 0.12928881 -0.097416885
v -0.3160757 0.23737292 0.8737584
v -0.20401986 0.3975748 0.8685568
v -0.38271987 0.18773797 1.0553951
v -0.4135854 0.09292385 1.5274457
v -0.27394927 0.3224877 1.06165
v -0.42745098 0.12510717 1.0514287
v -0.081683196 0.3412827 1.2274301
v -0.29856816 0.22363591 1.5382446
v -0.39910397 -0.042384695 1.3546696
v -0.016866423 0.3659562 1.0423726
v 0.05696651 0.45195878 1.3899896
v 0.17692363 0.40367502 1.0502818
v -0.13601255 0.3003581 1.538602
v -0.41629398 0.1591932 1.8575709
v -0.44475827 -0.15597823 1.4990822
v -0.4545771 -0.067080915 1.6541668
v -0.48440704 -0.035303857 1.8009961
v -0.5096141 -0.1797926 1.0081215
v -0.46526915 -0.23894142 1.6433619
v -0.29673678 -0.32116514 1.4736916
v -0.45843798 -0.24127811 1.3391021
v -0.3460425 -0.41002226 1.1710216
v -0.33682173 -0.33566764 0.828305
v -0.26541921 -0.43789127 1.0106246
v -0.45065624 -0.35101238 0.49137202
v -0.18792303 -0.41855255 1.1744362
v -0.08886194 -0.44501364 1.0171533
v -0.25398687 -0.490434 0.8592783
v -0.46060234 -0.36543936 0.29255363
v -0.24518135 -0.5678001 0.70303136
v -0.17394578 -0.60849977 0.3034798
v -0.4117357 -0.6214706 0.0940887
v -0.367425 -0.6382054 -0.09741667
v -0.18066142 -0.6066047 0.07569652
v -0.047510248 -0.76933736 -0.09741671
v 0.0044065965 -0.7811125 0.1129784
v 0.07412471 -0.7894241 -0.09741672
v 0.024692101 -0.6574354 0.53933966
v 0.10141345 -0.6083836 0.30344123
v -0.06796999 -0.52777237 0.6911366
v 0.12853126 -0.5260091 0.69573766
v 0.0990238 -0.3904682 1.0441447
v 0.40178138 -0.5173114 0.08419965
v 0.42984903 -0.5326864 -0.097416796
v -0.02918467 -0.4743249 1.343876
v 0.52347 -0.32345656 0.07389968
v 0.7702997 -0.23682673 -0.097416885
v 0.7486156 -0.19052377 0.118781775
v 0.8079374 -0.12848979 -0.09741689
v 0.60783464 -0.17303783 0.31991538
v 0.7193846 -0.077524476 0.10711668
v 0.54424226 -0.083471745 0.30695266
v 0.3808984 0.075315185 0.28024462
v 0.3935414 0.19267459 0.29951593
v 0.3615897 0.12815148 1.0524989
v 0.4324833 -0.037583604 0.5106695
v 0.54088587 -0.045031786 0.7213119
v 0.19632311 0.34851715 0.4970717
v 0.22845207 0.36151865 0.86478376
v 0.20353256 0.30338454 1.2230697
v 0.37748793 0.2532051 0.8727796
v 0.14000016 0.4626581 1.2272533
v 0.11984533 0.43674904 1.5323082
v 0.25914156 0.2600567 1.5274247
v 0.2920666 0.10540014 1.3804704
v 0.32146594 0.11784582 1.5290508
v 0.36646333 0.029287538 1.2241619
v 0.1763658 0.291831 1.5274751
v 0.21342935 0.34238404 1.9826331
v 0.53980243 -0.120281786 0.9204888
v 0.56496173 -0.24814479 0.5260458
v 0.52068734 -0.19866346 0.9246046
v 0.26758862 -0.5005458 0.28080606
v 0.32046932 -0.39568847 0.49282786
v 0.20808142 -0.5512248 0.50679964
v 0.4470715 -0.45113716 0.9238555
v 0.38050082 -0.117274374 1.2350899
v 0.37913424 -0.42083988 1.1189069
v 0.43725866 -0.36547598 1.1320642
v 0.1438072 -0.3935568 1.2229875
v 0.26038232 -0.10828356 1.5181973
v 0.25750726 -0.34952712 1.2397444
v 0.09196809 -0.20459962 1.3301743
v 0.118366994 -0.42604625 1.3668116
v 0.035539594 -0.263331 1.4640827
v 0.1131958 -0.10242931 1.5711279
v 0.315411 -0.13243113 1.664734
v 0.2686698 0.063985944 1.8790414
v 0.044924837 -0.14508168 1.548698
v 0.28813952 -0.114977226 1.7689844
v -0.03360471 0.009310369 1.804752
v 0.27726388 0.2975679 1.9695734
v 0.20847084 0.36217433 2.2745905
v 0.152684 0.068085074 1.8386514
v 0.30582073 0.15732384 2.0950754
v -0.09688939 -0.1053892 1.7809145
v -0.10616327 -0.016347233 1.8472838
v -0.10343773 -0.031331796 1.8994442
v -0.08012144 0.0808592 1.9580853
v 0.035003826 0.068428054 2.0044522
v -0.1349512 0.0140444655 1.9548265
v -0.0949697 -0.07571533 1.9043542
v -0.05832971 0.11598453 2.012558
v -0.07984926 0.13463616 2.1564817
v 0.27604553 0.15935183 2.1495209
v 0.09723382 -0.41600922 1.7823993
v 0.016693112 -0.20211002 1.9252043
v 0.012210821 -0.2051753 1.9688603
v 0.05929302 -0.45725703 1.8127403
v -0.016123014 -0.18862422 1.9926853
v 0.00088609336 -0.4003427 2.0056548
v -0.052297242 -0.37836224 1.9967712
v -0.13901614 -0.352127 1.6155725
v -0.18374419 -0.22654213 1.871248
v -0.14004299 -0.14880946 1.9475192
v -0.22551341 -0.3299949 1.6142946
v -0.21911246 -0.2586402 1.8714412
v -0.3588109 -0.32036513 1.6351435
v -0.2855894 -0.3118608 1.955408
v -0.3173931 -0.26477966 2.156862
v -0.21387036 -0.2206003 2.0336983
v -0.35905376 -0.22571668 2.1651583
v -0.2201938 -0.10424602 2.0439782
v -0.19851089 -0.094197385 1.9295105
v -0.41105276 -0.087828346 2.0989888
v -0.33520624 -0.069499545 2.0937657
v -0.43776038 0.028226947 1.9103323
v -0.27108982 -0.039389513 1.986152
v -0.22935507 -0.00086050894 1.9304587
v -0.37177923 0.21393804 2.0288622
v -0.39413702 0.07224755 1.9592584
v -0.26379946 0.06606565 2.0117884
v -0.2017509 0.089809895 1.9541419
v -0.14749081 0.13371703 1.9766831
v -0.14522249 0.22462651 2.1259053
v -0.31304875 0.31862265 2.0777452
v -0.10770418 0.32167584 2.2786272
v -0.08638327 0.39717096 2.0481968
v -0.055491842 0.23778026 2.2887702
v -0.2277207 0.37855944 2.188702
v 0.056168854 0.43949607 1.6777123
v 0.008364657 0.4068711 2.3465533
v -0.047900252 0.4707464 2.310035
v 0.115249574 0.45119694 1.8348359
v 0.1301326 0.13556407 2.2807672
v 0.22968139 0.18525888 2.2490802
v 0.1503255 0.11536922 2.231551
v 0.12471527 0.11100017 2.1171415
vn -0.63345873 0.7732061 0.029705582
vn -0.8874473 0.32553285 0.3262907
vn -0.94119495 -0.10240908 0.3219698
vn -0.37245357 0.9055533 0.20310475
vn -0.89708465 -0.39763665 0.1926763
vn -0.93077564 -0.0624908 0.36021033
vn -0.86420774 -0.32735032 0.38208216
vn -0.91612196 -0.3130035 0.25049838
vn -0.8374591 -0.5429256 0.062403325
vn -0.4843097 0.82418364 0.29353955
vn -0.9545217 -0.12582065 0.27029142
vn -0.9890726 0.13801324 0.051843036
vn -0.9235702 0.3386056 0.17990117
vn -0.99614596 0.04254402 0.07670274
vn -0.36374143 0.92735046 0.08782606
vn -0.5066089 0.81236345 0.28881326
vn -0.7357243 0.6675699 -0.11428154
vn -0.76558524 0.6430776 -0.018174833
vn -0.31866163 0.91946054 0.23031943
vn -0.5507293 0.8284683 0.101673305
vn 0.55589217 0.75794756 0.34132007
vn -0.72606456 0.683898 -0.07151159
vn 0.731151 0.6664556 0.14579116
vn 0.18768966 0.92138064 0.3403383
vn 0.82538354 0.45891336 0.32884726
vn 0.7284125 0.57389486 0.37424594
vn 0.9390638 0.33390763 0.081639014
vn 0.7887415 0.44687045 0.42212975
vn 0.73134184 0.5825659 0.35462102
vn -0.5348978 0.84488237 0.007618757
vn -0.42877942 0.89884806 -0.09066676
vn -0.5406174 0.82552046 0.16201487
vn -0.9224675 0.3781555 -0.0777956
vn -0.6394179 0.76295614 0.095092624
vn -0.9579953 0.26562592 0.108110465
vn -0.4078478 0.911132 0.05915006
vn -0.5762351 0.8167687 0.029017821
vn -0.98606133 0.1663541 0.0030759082
vn -0.2401723 0.9622783 0.1278193
vn -0.30268094 0.9529906 -0.013900994
vn 0.55223024 0.8110185 0.19310816
vn -0.5397841 0.8408716 -0.039599255
vn -0.8598325 0.51037246 -0.014417932
vn -0.9886129 -0.13115822 -0.07377019
vn -0.97825944 0.09043209 -0.18662928
vn -0.9954899 0.0705418 0.0634329
vn -0.99624395 -0.08640159 -0.005731818
vn -0.8836869 -0.45948982 -0.08925606
vn -0.45157978 -0.8851308 0.112334475
vn -0.8626016 -0.45642322 0.21816565
vn -0.49027795 -0.86684364 0.09060721
vn -0.817408 -0.56566393 0.10894248
vn -0.42779025 -0.9000346 0.08326593
vn -0.7887912 -0.5762265 0.2139427
vn -0.20282947 -0.97113097 0.12555791
vn 0.0829137 -0.9865002 0.14121789
vn -0.5602149 -0.76063967 0.3280038
vn -0.72639537 -0.6548708 0.20855206
vn -0.27033412 -0.92878747 0.25352174
vn -0.2742145 -0.94967294 0.15141954
vn -0.61202466 -0.78254116 0.11425882
vn -0.44996563 -0.8862012 0.110354714
vn -0.2975563 -0.9426149 0.15145104
vn -0.40643945 -0.89663696 0.17563945
vn 0.012800573 -0.97542393 0.21996437
vn 0.29740056 -0.9396281 0.16926886
vn 0.111545615 -0.9331599 0.3417168
vn 0.63221616 -0.7538596 0.17888108
vn -0.11849589 -0.92684364 0.3562577
vn 0.10021628 -0.9416117 0.32144034
vn 0.06751006 -0.98918694 0.13019788
vn 0.66187257 -0.71419233 0.22771463
vn 0.66864765 -0.7012147 0.24740317
vn -0.04915475 -0.99879044 -0.0012565439
vn 0.6898699 -0.6764239 0.2579347
vn 0.74669 -0.6062146 0.2737846
vn 0.8230706 -0.3354806 0.45826575
vn 0.961364 0.15663992 0.22636968
vn 0.9748157 -0.026622506 0.22141692
vn 0.7562411 0.47978228 0.44486886
vn 0.6821144 0.6713398 0.28986657
vn 0.9005009 0.31449297 0.30032042
vn 0.9258277 0.3081903 0.21877314
vn 0.8804678 0.43539664 0.18763356
vn 0.6398879 0.7680235 -0.026141517
vn 0.7892874 0.61391205 -0.01172214
vn 0.95057225 0.29799613 0.08724018
vn 0.7927244 0.60424006 0.080510765
vn 0.828142 0.5541136 0.08449216
vn 0.88925904 0.44888288 0.087877624
vn 0.172783 0.9604145 -0.21851754
vn 0.595115 0.8033825 0.020360757
vn 0.71791095 0.6942487 -0.051210895
vn 0.8705251 0.49211848 0.0023215176
vn 0.98318684 0.18217422 -0.012497648
vn 0.93444407 0.26886418 0.23350878
vn 0.7064711 0.7074293 -0.021031594
vn 0.59409505 0.80439013 -0.0027670572
vn 0.9451537 0.113604456 0.3062328
vn 0.8115648 -0.56297004 0.15629226
vn 0.94598913 -0.2501576 0.20621763
vn 0.5480308 -0.79010725 0.2745776
vn 0.6889625 -0.7236568 0.040639002
vn 0.4689467 -0.8816846 0.052165736
vn 0.68769217 -0.72534186 0.030962048
vn 0.9353743 0.04357442 0.3509646
vn 0.27974606 -0.8506797 0.44506875
vn 0.763222 -0.40491873 0.50352055
vn 0.38660154 -0.8656299 0.31815737
vn 0.57991755 -0.7935475 0.18433131
vn 0.34664744 -0.38052556 0.85734224
vn 0.5536458 -0.563674 0.61298287
vn 0.88195246 -0.46895337 0.04735594
vn 0.9632183 0.117183976 0.24182343
vn 0.07556295 -0.9426872 0.32500926
vn 0.66611665 -0.74540716 0.025629342
vn 0.7065022 -0.5902254 0.3904979
vn 0.61131674 -0.63456815 0.47287953
vn 0.4289624 -0.7189239 0.54693645
vn 0.32815957 -0.78229004 0.52946526
vn 0.8652694 0.50036937 -0.030648017
vn 0.62839884 0.49782807 0.5977308
vn -0.070798896 -0.8295479 0.55392945
vn 0.920832 -0.32745793 0.21175413
vn 0.96641135 0.15431109 0.2055171
vn 0.7893335 -0.6123691 0.044233773
vn 0.95174295 -0.13441959 0.27589282
vn 0.45943913 -0.810421 0.36350173
vn -0.080892 -0.9783562 0.1904617
vn 0.15543701 -0.22927599 0.9608704
vn 0.8948742 0.44204316 -0.061627287
vn -0.30644408 -0.8749575 0.37488854
vn -0.5169691 -0.768158 0.3777252
vn 0.630688 -0.6735505 0.385438
vn 0.9829761 -0.121650495 0.13769229
vn 0.8624692 0.5052363 -0.02971755
vn 0.83280706 0.36411148 0.4169595
vn 0.28549957 -0.9261245 0.24654296
vn 0.260655 0.3641178 0.8941349
vn 0.2749061 -0.58200896 0.7653052
vn -0.56154615 -0.46376586 0.6852642
vn -0.6310305 -0.7500747 0.1979607
vn 0.095632784 -0.8384048 0.5365928
vn 0.13901873 -0.21778361 0.9660456
vn -0.13744897 -0.98541343 0.10034031
vn 0.6533469 -0.7287008 0.20526305
vn -0.39628986 -0.91760206 -0.030997645
vn 0.15395473 -0.97051996 0.18544245
vn 0.11754977 -0.6072523 0.7857651
vn 0.7931227 -0.4176024 0.44335613
vn -0.40382886 -0.20835942 0.890791
vn 0.6804287 0.45180643 0.57696426
vn 0.3253877 0.42990175 0.84220386
vn -0.67933613 0.33428064 0.65326786
vn 0.19036046 0.668625 0.7188209
vn -0.8618358 0.24333414 0.4450029
vn 0.5068184 0.50408494 0.6993092
vn 0.39827177 -0.118281156 0.9096093
vn -0.8201064 0.03316835 0.5712491
vn -0.4902454 -0.31610763 0.8122411
vn 0.127416 -0.4744203 0.8710285
vn 0.29957184 -0.54800457 0.78099144
vn -0.060680963 -0.7029598 0.7086363
vn -0.47934136 -0.66063666 0.57774645
vn -0.75005347 0.6009318 0.27622592
vn -0.5904355 -0.19130145 0.7840852
vn -0.4618888 0.87355757 -0.15347937
vn -0.4078829 -0.4216445 0.8098441
vn -0.76208484 0.49721482 0.4147337
vn -0.12505503 0.9921234 -0.007235548
vn 0.050099343 0.18626225 0.981222
vn -0.23954159 0.7905481 0.5636075
vn 0.39889288 0.9169903 -0.0036304817
vn 0.09041561 -0.60043377 0.7945466
vn 0.67126644 -0.30588728 0.67515504
vn 0.21445167 -0.9355708 0.2805672
vn 0.13396977 -0.98164845 0.13571468
g meshSnowyForestTreeTrunk3Collision_0
f 3/3/3 2/2/2 1/1/1
f 1/1/1 2/2/2 4/4/4
f 3/3/3 5/5/5 2/2/2
f 3/3/3 6/6/6 5/5/5
f 7/7/7 6/6/6 3/3/3
f 6/6/6 7/7/7 8/8/8
f 9/9/9 8/8/8 7/7/7
f 2/2/2 10/10/10 4/4/4
f 11/11/11 2/2/2 5/5/5
f 11/11/11 10/10/10 2/2/2
f 12/12/12 11/11/11 5/5/5
f 5/5/5 6/6/6 13/13/13
f 12/12/12 5/5/5 13/13/13
f 13/13/13 6/6/6 14/14/14
f 14/14/14 6/6/6 8/8/8
f 12/12/12 13/13/13 14/14/14
f 15/15/15 4/4/4 10/10/10
f 15/15/15 16/16/16 4/4/4
f 15/15/15 17/17/17 16/16/16
f 17/17/17 15/15/15 18/18/18
f 16/16/16 17/17/17 19/19/19
f 17/17/17 20/20/20 19/19/19
f 17/17/17 18/18/18 20/20/20
f 19/19/19 20/20/20 21/21/21
f 15/15/15 10/10/10 22/22/22
f 22/22/22 18/18/18 15/15/15
f 23/23/23 21/21/21 20/20/20
f 18/18/18 24/24/24 20/20/20
f 20/20/20 24/24/24 23/23/23
f 25/25/25 21/21/21 23/23/23
f 21/21/21 25/25/25 26/26/26
f 24/24/24 27/27/27 23/23/23
f 23/23/23 27/27/27 25/25/25
f 26/26/26 25/25/25 28/28/28
f 26/26/26 28/28/28 29/29/29
f 10/10/10 30/30/30 22/22/22
f 22/22/22 31/31/31 18/18/18
f 31/31/31 22/22/22 30/30/30
f 30/30/30 10/10/10 32/32/32
f 10/10/10 11/11/11 32/32/32
f 32/32/32 33/33/33 30/30/30
f 34/34/34 30/30/30 33/33/33
f 31/31/31 30/30/30 34/34/34
f 35/35/35 32/32/32 11/11/11
f 35/35/35 33/33/33 32/32/32
f 11/11/11 12/12/12 35/35/35
f 18/18/18 31/31/31 36/36/36
f 36/36/36 31/31/31 34/34/34
f 37/37/37 34/34/34 33/33/33
f 36/36/36 34/34/34 37/37/37
f 33/33/33 35/35/35 38/38/38
f 12/12/12 38/38/38 35/35/35
f 18/18/18 36/36/36 39/39/39
f 40/40/40 39/39/39 36/36/36
f 18/18/18 39/39/39 24/24/24
f 41/41/41 24/24/24 39/39/39
f 39/39/39 40/40/40 41/41/41
f 27/27/27 24/24/24 41/41/41
f 42/42/42 36/36/36 37/37/37
f 40/40/40 36/36/36 42/42/42
f 33/33/33 43/43/43 37/37/37
f 37/37/37 43/43/43 42/42/42
f 38/38/38 12/12/12 44/44/44
f 38/38/38 45/45/45 33/33/33
f 38/38/38 44/44/44 45/45/45
f 45/45/45 46/46/46 33/33/33
f 43/43/43 33/33/33 46/46/46
f 47/47/47 44/44/44 12/12/12
f 12/12/12 14/14/14 47/47/47
f 48/48/48 45/45/45 44/44/44
f 46/46/46 45/45/45 48/48/48
f 44/44/44 49/49/49 48/48/48
f 47/47/47 50/50/50 44/44/44
f 44/44/44 50/50/50 49/49/49
f 47/47/47 51/51/51 50/50/50
f 50/50/50 51/51/51 49/49/49
f 14/14/14 52/52/52 47/47/47
f 53/53/53 51/51/51 47/47/47
f 53/53/53 47/47/47 52/52/52
f 14/14/14 54/54/54 52/52/52
f 8/8/8 54/54/54 14/14/14
f 51/51/51 55/55/55 49/49/49
f 51/51/51 53/53/53 55/55/55
f 56/56/56 55/55/55 53/53/53
f 52/52/52 57/57/57 53/53/53
f 57/57/57 52/52/52 54/54/54
f 57/57/57 56/56/56 53/53/53
f 58/58/58 54/54/54 8/8/8
f 9/9/9 58/58/58 8/8/8
f 54/54/54 59/59/59 57/57/57
f 54/54/54 58/58/58 59/59/59
f 57/57/57 59/59/59 56/56/56
f 56/56/56 59/59/59 60/60/60
f 9/9/9 61/61/61 58/58/58
f 59/59/59 58/58/58 61/61/61
f 59/59/59 61/61/61 60/60/60
f 62/62/62 61/61/61 9/9/9
f 62/62/62 60/60/60 61/61/61
f 62/62/62 63/63/63 60/60/60
f 64/64/64 63/63/63 62/62/62
f 65/65/65 63/63/63 64/64/64
f 60/60/60 63/63/63 65/65/65
f 66/66/66 65/65/65 64/64/64
f 60/60/60 65/65/65 67/67/67
f 68/68/68 65/65/65 66/66/66
f 67/67/67 65/65/65 68/68/68
f 60/60/60 67/67/67 69/69/69
f 56/56/56 60/60/60 69/69/69
f 69/69/69 67/67/67 70/70/70
f 68/68/68 70/70/70 67/67/67
f 71/71/71 56/56/56 69/69/69
f 70/70/70 71/71/71 69/69/69
f 72/72/72 68/68/68 66/66/66
f 73/73/73 72/72/72 66/66/66
f 71/71/71 74/74/74 56/56/56
f 55/55/55 56/56/56 74/74/74
f 73/73/73 75/75/75 72/72/72
f 76/76/76 75/75/75 73/73/73
f 77/77/77 75/75/75 76/76/76
f 78/78/78 77/77/77 76/76/76
f 79/79/79 72/72/72 75/75/75
f 75/75/75 77/77/77 79/79/79
f 80/80/80 77/77/77 78/78/78
f 29/29/29 80/80/80 78/78/78
f 80/80/80 81/81/81 77/77/77
f 79/79/79 77/77/77 81/81/81
f 29/29/29 82/82/82 80/80/80
f 82/82/82 81/81/81 80/80/80
f 29/29/29 28/28/28 82/82/82
f 83/83/83 82/82/82 28/28/28
f 82/82/82 83/83/83 84/84/84
f 83/83/83 28/28/28 25/25/25
f 82/82/82 85/85/85 81/81/81
f 82/82/82 84/84/84 85/85/85
f 81/81/81 85/85/85 86/86/86
f 81/81/81 86/86/86 79/79/79
f 86/86/86 85/85/85 84/84/84
f 25/25/25 87/87/87 83/83/83
f 87/87/87 25/25/25 27/27/27
f 88/88/88 87/87/87 27/27/27
f 87/87/87 88/88/88 83/83/83
f 27/27/27 41/41/41 88/88/88
f 41/41/41 89/89/89 88/88/88
f 88/88/88 90/90/90 83/83/83
f 83/83/83 90/90/90 84/84/84
f 88/88/88 89/89/89 90/90/90
f 84/84/84 90/90/90 89/89/89
f 89/89/89 41/41/41 91/91/91
f 91/91/91 41/41/41 40/40/40
f 92/92/92 89/89/89 91/91/91
f 92/92/92 91/91/91 40/40/40
f 89/89/89 93/93/93 84/84/84
f 84/84/84 94/94/94 86/86/86
f 94/94/94 84/84/84 93/93/93
f 95/95/95 94/94/94 93/93/93
f 96/96/96 86/86/86 94/94/94
f 94/94/94 95/95/95 96/96/96
f 89/89/89 92/92/92 97/97/97
f 97/97/97 93/93/93 89/89/89
f 97/97/97 98/98/98 93/93/93
f 97/97/97 92/92/92 98/98/98
f 86/86/86 96/96/96 99/99/99
f 99/99/99 79/79/79 86/86/86
f 99/99/99 100/100/100 79/79/79
f 79/79/79 100/100/100 72/72/72
f 96/96/96 101/101/101 99/99/99
f 101/101/101 100/100/100 99/99/99
f 72/72/72 100/100/100 102/102/102
f 72/72/72 102/102/102 68/68/68
f 103/103/103 102/102/102 100/100/100
f 101/101/101 103/103/103 100/100/100
f 104/104/104 68/68/68 102/102/102
f 102/102/102 103/103/103 104/104/104
f 68/68/68 104/104/104 70/70/70
f 103/103/103 105/105/105 104/104/104
f 70/70/70 104/104/104 105/105/105
f 105/105/105 103/103/103 101/101/101
f 96/96/96 106/106/106 101/101/101
f 96/96/96 95/95/95 106/106/106
f 105/105/105 107/107/107 70/70/70
f 107/107/107 71/71/71 70/70/70
f 105/105/105 101/101/101 108/108/108
f 101/101/101 106/106/106 108/108/108
f 107/107/107 105/105/105 108/108/108
f 107/107/107 109/109/109 71/71/71
f 74/74/74 71/71/71 109/109/109
f 110/110/110 106/106/106 95/95/95
f 106/106/106 110/110/110 108/108/108
f 108/108/108 111/111/111 107/107/107
f 109/109/109 107/107/107 111/111/111
f 111/111/111 108/108/108 112/112/112
f 112/112/112 108/108/108 110/110/110
f 112/112/112 109/109/109 111/111/111
f 113/113/113 74/74/74 109/109/109
f 112/112/112 114/114/114 109/109/109
f 109/109/109 114/114/114 113/113/113
f 115/115/115 112/112/112 110/110/110
f 95/95/95 116/116/116 110/110/110
f 110/110/110 116/116/116 115/115/115
f 95/95/95 117/117/117 116/116/116
f 114/114/114 112/112/112 118/118/118
f 118/118/118 112/112/112 115/115/115
f 119/119/119 115/115/115 116/116/116
f 119/119/119 116/116/116 117/117/117
f 120/120/120 115/115/115 119/119/119
f 115/115/115 120/120/120 118/118/118
f 117/117/117 95/95/95 121/121/121
f 95/95/95 93/93/93 121/121/121
f 121/121/121 93/93/93 98/98/98
f 98/98/98 122/122/122 121/121/121
f 120/120/120 119/119/119 123/123/123
f 123/123/123 119/119/119 117/117/117
f 124/124/124 117/117/117 121/121/121
f 124/124/124 121/121/121 122/122/122
f 114/114/114 118/118/118 125/125/125
f 126/126/126 118/118/118 120/120/120
f 126/126/126 125/125/125 118/118/118
f 120/120/120 127/127/127 126/126/126
f 126/126/126 127/127/127 125/125/125
f 123/123/123 128/128/128 120/120/120
f 120/120/120 128/128/128 127/127/127
f 117/117/117 129/129/129 123/123/123
f 128/128/128 123/123/123 129/129/129
f 128/128/128 130/130/130 127/127/127
f 127/127/127 130/130/130 131/131/131
f 131/131/131 125/125/125 127/127/127
f 128/128/128 132/132/132 130/130/130
f 132/132/132 128/128/128 129/129/129
f 133/133/133 132/132/132 129/129/129
f 134/134/134 117/117/117 124/124/124
f 129/129/129 117/117/117 134/134/134
f 135/135/135 114/114/114 125/125/125
f 113/113/113 114/114/114 135/135/135
f 131/131/131 136/136/136 125/125/125
f 136/136/136 135/135/135 125/125/125
f 136/136/136 131/131/131 137/137/137
f 135/135/135 136/136/136 137/137/137
f 113/113/113 135/135/135 138/138/138
f 74/74/74 113/113/113 138/138/138
f 131/131/131 139/139/139 137/137/137
f 131/131/131 130/130/130 139/139/139
f 135/135/135 137/137/137 140/140/140
f 140/140/140 138/138/138 135/135/135
f 139/139/139 140/140/140 137/137/137
f 74/74/74 138/138/138 141/141/141
f 141/141/141 138/138/138 140/140/140
f 140/140/140 139/139/139 141/141/141
f 141/141/141 55/55/55 74/74/74
f 142/142/142 55/55/55 141/141/141
f 55/55/55 142/142/142 49/49/49
f 141/141/141 139/139/139 143/143/143
f 142/142/142 141/141/141 143/143/143
f 139/139/139 130/130/130 144/144/144
f 144/144/144 143/143/143 139/139/139
f 49/49/49 142/142/142 145/145/145
f 142/142/142 143/143/143 146/146/146
f 146/146/146 145/145/145 142/142/142
f 147/147/147 49/49/49 145/145/145
f 147/147/147 48/48/48 49/49/49
f 148/148/148 145/145/145 146/146/146
f 146/146/146 143/143/143 148/148/148
f 145/145/145 148/148/148 147/147/147
f 147/147/147 149/149/149 48/48/48
f 149/149/149 147/147/147 148/148/148
f 143/143/143 150/150/150 148/148/148
f 150/150/150 143/143/143 144/144/144
f 148/148/148 150/150/150 149/149/149
f 149/149/149 150/150/150 144/144/144
f 151/151/151 48/48/48 149/149/149
f 48/48/48 151/151/151 46/46/46
f 149/149/149 144/144/144 152/152/152
f 151/151/151 149/149/149 152/152/152
f 153/153/153 144/144/144 130/130/130
f 144/144/144 153/153/153 152/152/152
f 154/154/154 46/46/46 151/151/151
f 152/152/152 155/155/155 151/151/151
f 155/155/155 154/154/154 151/151/151
f 156/156/156 46/46/46 154/154/154
f 155/155/155 156/156/156 154/154/154
f 46/46/46 156/156/156 43/43/43
f 157/157/157 155/155/155 152/152/152
f 153/153/153 157/157/157 152/152/152
f 156/156/156 155/155/155 157/157/157
f 158/158/158 153/153/153 130/130/130
f 158/158/158 157/157/157 153/153/153
f 159/159/159 43/43/43 156/156/156
f 157/157/157 160/160/160 156/156/156
f 156/156/156 160/160/160 159/159/159
f 157/157/157 158/158/158 161/161/161
f 160/160/160 157/157/157 161/161/161
f 162/162/162 158/158/158 130/130/130
f 158/158/158 162/162/162 161/161/161
f 162/162/162 130/130/130 163/163/163
f 162/162/162 163/163/163 161/161/161
f 163/163/163 130/130/130 132/132/132
f 163/163/163 132/132/132 133/133/133
f 160/160/160 161/161/161 164/164/164
f 164/164/164 161/161/161 163/163/163
f 160/160/160 164/164/164 159/159/159
f 163/163/163 133/133/133 164/164/164
f 43/43/43 159/159/159 165/165/165
f 165/165/165 42/42/42 43/43/43
f 164/164/164 166/166/166 159/159/159
f 159/159/159 166/166/166 165/165/165
f 167/167/167 42/42/42 165/165/165
f 167/167/167 40/40/40 42/42/42
f 168/168/168 164/164/164 133/133/133
f 166/166/166 164/164/164 168/168/168
f 169/169/169 165/165/165 166/166/166
f 165/165/165 169/169/169 167/167/167
f 167/167/167 170/170/170 40/40/40
f 40/40/40 170/170/170 92/92/92
f 169/169/169 166/166/166 171/171/171
f 166/166/166 168/168/168 171/171/171
f 172/172/172 167/167/167 169/169/169
f 167/167/167 172/172/172 170/170/170
f 171/171/171 172/172/172 169/169/169
f 92/92/92 170/170/170 173/173/173
f 170/170/170 172/172/172 173/173/173
f 173/173/173 98/98/98 92/92/92
f 173/173/173 172/172/172 98/98/98
f 122/122/122 98/98/98 172/172/172
f 172/172/172 171/171/171 122/122/122
f 122/122/122 171/171/171 168/168/168
f 168/168/168 174/174/174 122/122/122
f 168/168/168 133/133/133 174/174/174
f 175/175/175 122/122/122 174/174/174
f 175/175/175 124/124/124 122/122/122
f 134/134/134 124/124/124 175/175/175
f 176/176/176 175/175/175 174/174/174
f 176/176/176 174/174/174 133/133/133
f 134/134/134 175/175/175 176/176/176
f 133/133/133 177/177/177 176/176/176
f 176/176/176 177/177/177 134/134/134
f 133/133/133 129/129/129 177/177/177
f 134/134/134 177/177/177 129/129/129
