g meshSPWaterPPCollision.003
v -7.360741 29.043873 0.549042
v -13.760499 29.92941 -0.5490325
v -7.360741 29.043873 -0.54903245
v -13.760499 29.92941 0.5490419
v -20.344866 27.504736 -0.54903394
v -20.344866 27.504736 0.54904085
v -27.062832 24.878609 -0.54903305
v -27.062832 24.878609 0.54904175
v -31.88846 -34.563698 0.5490257
v -33.902847 23.14486 0.5490391
v -40.675804 21.928574 0.5490384
v -42.25125 21.651308 0.5490384
v -43.74318 21.087088 0.54903847
v -45.223495 20.477436 0.54903924
v -46.68386 19.776554 0.54903924
v -31.88846 -34.563698 -0.5490491
v -46.68386 19.776554 -0.5490352
v -45.223495 20.477436 -0.5490352
v -43.74318 21.087088 -0.54903597
v -0.93307793 24.928284 0.54904175
v 5.5169964 20.325274 0.54903924
v 11.839042 16.988436 0.54903865
v -7.360741 29.043873 -0.54903245
v -0.93307793 24.928284 -0.54903305
v -13.760499 29.92941 -0.5490325
v -20.344866 27.504736 -0.54903394
v -27.062832 24.878609 -0.54903305
v -45.223495 20.477436 0.54903924
v -46.68386 19.776554 0.54903924
v -43.74318 21.087088 0.54903847
v -42.25125 21.651308 0.5490384
v -42.25125 21.651308 -0.549036
v -40.675804 21.928574 0.5490384
v -33.902847 23.14486 -0.5490353
v -40.675804 21.928574 -0.549036
v -27.062832 24.878609 0.54904175
v -33.902847 23.14486 0.5490391
v 13.651321 -52.77021 -0.54905134
v 15.051472 -51.68176 -0.5490506
v 19.945698 -46.639282 -0.5490501
v 15.051472 -51.68176 0.5490238
v 19.945698 -46.639282 0.5490247
v 23.427431 -40.703293 -0.54904956
v 23.427431 -40.703293 0.5490249
v 26.635435 -34.411793 -0.5490483
v 23.427431 -40.703293 0.5490249
v 30.133764 -27.82665 -0.5490447
v 26.635435 -34.411793 0.5490265
v 35.005466 -20.886433 -0.549045
v 30.133764 -27.82665 0.5490297
v 35.005466 -20.886433 0.5490294
v 37.405468 -14.281615 -0.54904145
v 35.8298 -7.9466305 -0.5490409
v 37.405468 -14.281615 0.549033
v 37.405468 -14.281615 0.549033
v 32.28515 -1.0816262 -0.5490412
v 35.8298 -7.9466305 0.5490335
v 19.945698 -46.639282 0.5490247
v 35.005466 -20.886433 0.5490294
v 15.051472 -51.68176 0.5490238
v 30.133764 -27.82665 0.5490297
v 13.651321 -52.77021 0.5490231
v 30.133764 -27.82665 -0.5490447
v 26.635435 -34.411793 -0.5490483
v 15.051472 -51.68176 -0.5490506
v 13.651321 -52.77021 -0.54905134
v -31.88846 -34.563698 -0.5490491
v 32.28515 -1.0816262 0.5490336
v 32.28515 -1.0816262 -0.5490412
v 35.8298 -7.9466305 -0.5490409
v 27.281424 5.981546 0.54903793
v 22.261637 10.84793 0.5490389
v 17.559908 14.299064 0.549038
v 11.839042 16.988436 -0.5490358
v 17.559908 14.299064 -0.54903644
v 22.261637 10.84793 -0.54903555
v 5.5169964 20.325274 0.54903924
v -0.93307793 24.928284 0.54904175
v 5.5169964 20.325274 -0.5490352
v 11.839042 16.988436 0.54903865
v 11.839042 16.988436 -0.5490358
v 17.559908 14.299064 -0.54903644
v 22.261637 10.84793 -0.54903555
v 27.281424 5.981546 -0.54903686
v 32.28515 -1.0816262 0.5490336
v 27.281424 5.981546 0.54903793
v 22.261637 10.84793 0.5490389
vt 0.46097517 1.227847
vt 0.34878418 1.2456543
vt 0.46097517 1.227847
vt 0.34878418 1.2456543
vt 0.23218867 1.2053362
vt 0.23218867 1.2053362
vt 0.11317438 1.1615236
vt 0.11317438 1.1615236
vt 0.00753358 0.11827762
vt -0.007673517 1.1334407
vt -0.12716082 1.1144309
vt -0.15495238 1.1101084
vt -0.18137673 1.1007123
vt -0.20761225 1.0905137
vt -0.23352975 1.0787039
vt 0.00753358 0.11827762
vt -0.23352975 1.0787039
vt -0.20761225 1.0905137
vt -0.18137673 1.1007123
vt 0.5725261 1.1532488
vt 0.6843004 1.0700743
vt 0.7942674 1.0092027
vt 0.46097517 1.227847
vt 0.5725261 1.1532488
vt 0.34878418 1.2456543
vt 0.23218867 1.2053362
vt 0.11317438 1.1615236
vt -0.20761225 1.0905137
vt -0.23352975 1.0787039
vt -0.18137673 1.1007123
vt -0.15495238 1.1101084
vt -0.15495238 1.1101084
vt -0.12716082 1.1144309
vt -0.007673517 1.1334407
vt -0.12716082 1.1144309
vt 0.11317438 1.1615236
vt -0.007673517 1.1334407
vt 0.8017026 -0.21771827
vt 0.8266969 -0.19907454
vt 0.9144976 -0.11214629
vt 0.8266969 -0.19907454
vt 0.9144976 -0.11214629
vt 0.97778153 -0.009016514
vt 0.97778153 -0.009016514
vt 1.0363773 0.10045841
vt 0.97778153 -0.009016514
vt 1.1001803 0.21499386
vt 1.0363773 0.10045841
vt 1.1882498 0.33529025
vt 1.1001803 0.21499386
vt 1.1882498 0.33529025
vt 1.2327514 0.4505561
vt 1.2072706 0.5624703
vt 1.2327514 0.4505561
vt 1.2327514 0.4505561
vt 1.1473627 0.6843911
vt 1.2072706 0.5624703
vt 0.9144976 -0.11214629
vt 1.1882498 0.33529025
vt 0.8266969 -0.19907454
vt 1.1001803 0.21499386
vt 0.8017026 -0.21771827
vt 1.1001803 0.21499386
vt 1.0363773 0.10045841
vt 0.8266969 -0.19907454
vt 0.8017026 -0.21771827
vt 0.00753358 0.11827762
vt 1.1473627 0.6843911
vt 1.1473627 0.6843911
vt 1.2072706 0.5624703
vt 1.0618755 0.8103063
vt 0.97533643 0.8976099
vt 0.89389265 0.9599233
vt 0.7942674 1.0092027
vt 0.89389265 0.9599233
vt 0.97533643 0.8976099
vt 0.6843004 1.0700743
vt 0.5725261 1.1532488
vt 0.6843004 1.0700743
vt 0.7942674 1.0092027
vt 0.7942674 1.0092027
vt 0.89389265 0.9599233
vt 0.97533643 0.8976099
vt 1.0618755 0.8103063
vt 1.1473627 0.6843911
vt 1.0618755 0.8103063
vt 0.97533643 0.8976099
vn 0.25950426 0.70324343 0.6618959
vn -0.08107654 0.7500983 -0.65633774
vn 0.2595043 0.70324355 -0.6618957
vn -0.08107661 0.7500981 0.65633786
vn -0.25169525 0.6631649 -0.7048843
vn -0.25169528 0.66316473 0.70488435
vn -0.211562 0.65944505 -0.72136945
vn -0.21156195 0.65944475 0.7213697
vn -0.5861329 -0.5225897 0.6191511
vn -0.14773738 0.68319774 0.7151326
vn -0.123703666 0.69580406 0.70749843
vn -0.1924273 0.70106167 0.68664706
vn -0.26091897 0.660699 0.70384514
vn -0.29028392 0.65165544 0.7007713
vn -0.7359729 0.3364195 0.5875081
vn -0.58613294 -0.5225897 -0.61915123
vn -0.73597294 0.33641958 -0.5875079
vn -0.29028437 0.65165555 -0.700771
vn -0.2609193 0.66069907 -0.7038451
vn 0.39926833 0.5903355 0.7014905
vn 0.3629744 0.5884106 0.7225113
vn 0.31317574 0.6280826 0.71234345
vn 0.2595043 0.70324355 -0.6618957
vn 0.39926818 0.5903357 -0.7014902
vn -0.08107654 0.7500983 -0.65633774
vn -0.25169525 0.6631649 -0.7048843
vn -0.211562 0.65944505 -0.72136945
vn -0.29028392 0.65165544 0.7007713
vn -0.7359729 0.3364195 0.5875081
vn -0.26091897 0.660699 0.70384514
vn -0.1924273 0.70106167 0.68664706
vn -0.19242735 0.7010618 -0.68664694
vn -0.123703666 0.69580406 0.70749843
vn -0.14773703 0.68319786 -0.7151325
vn -0.12370361 0.69580424 -0.7074983
vn -0.21156195 0.65944475 0.7213697
vn -0.14773738 0.68319774 0.7151326
vn 0.11071112 -0.7842914 -0.6104343
vn 0.48187113 -0.53785026 -0.69174945
vn 0.5826544 -0.4433725 -0.68112767
vn 0.48187092 -0.5378505 0.69174945
vn 0.58265436 -0.44337252 0.6811276
vn 0.62591636 -0.3427529 -0.70053494
vn 0.62591636 -0.3427531 0.7005348
vn 0.6255368 -0.32560635 -0.70900226
vn 0.62591636 -0.3427531 0.7005348
vn 0.59042245 -0.3621395 -0.72128797
vn 0.6255367 -0.32560685 0.709002
vn 0.65132624 -0.33932424 -0.67869955
vn 0.5904223 -0.36213952 0.721288
vn 0.6513263 -0.33932474 0.6786994
vn 0.76149714 -0.039923247 -0.6469377
vn 0.6845293 0.25781894 -0.6818717
vn 0.76149696 -0.03992351 0.6469378
vn 0.76149696 -0.03992351 0.6469378
vn 0.61697733 0.37530285 -0.6917273
vn 0.68452924 0.25781888 0.68187183
vn 0.58265436 -0.44337252 0.6811276
vn 0.6513263 -0.33932474 0.6786994
vn 0.48187092 -0.5378505 0.69174945
vn 0.5904223 -0.36213952 0.721288
vn 0.11071104 -0.7842918 0.6104339
vn 0.59042245 -0.3621395 -0.72128797
vn 0.6255368 -0.32560635 -0.70900226
vn 0.48187113 -0.53785026 -0.69174945
vn 0.11071112 -0.7842914 -0.6104343
vn -0.58613294 -0.5225897 -0.61915123
vn 0.6169776 0.3753026 0.6917272
vn 0.61697733 0.37530285 -0.6917273
vn 0.6845293 0.25781894 -0.6818717
vn 0.55175614 0.4729425 0.6869429
vn 0.46587372 0.5513827 0.692054
vn 0.37179878 0.62546754 0.6859708
vn 0.31317568 0.62808275 -0.71234334
vn 0.3717989 0.6254676 -0.6859708
vn 0.46587384 0.5513829 -0.69205385
vn 0.3629744 0.5884106 0.7225113
vn 0.39926833 0.5903355 0.7014905
vn 0.3629743 0.58841085 -0.72251123
vn 0.31317574 0.6280826 0.71234345
vn 0.31317568 0.62808275 -0.71234334
vn 0.3717989 0.6254676 -0.6859708
vn 0.46587384 0.5513829 -0.69205385
vn 0.5517561 0.47294304 -0.6869427
vn 0.6169776 0.3753026 0.6917272
vn 0.55175614 0.4729425 0.6869429
vn 0.46587372 0.5513827 0.692054
g meshSPWaterPPCollision.003_0
f 3/3/3 2/2/2 1/1/1
f 2/2/2 4/4/4 1/1/1
f 2/2/2 5/5/5 4/4/4
f 5/5/5 6/6/6 4/4/4
f 5/5/5 7/7/7 6/6/6
f 7/7/7 8/8/8 6/6/6
f 6/6/6 9/9/9 4/4/4
f 8/8/8 9/9/9 6/6/6
f 4/4/4 9/9/9 1/1/1
f 10/10/10 9/9/9 8/8/8
f 11/11/11 9/9/9 10/10/10
f 12/12/12 9/9/9 11/11/11
f 13/13/13 9/9/9 12/12/12
f 14/14/14 9/9/9 13/13/13
f 15/15/15 9/9/9 14/14/14
f 16/16/16 9/9/9 15/15/15
f 17/17/17 16/16/16 15/15/15
f 16/16/16 17/17/17 18/18/18
f 16/16/16 18/18/18 19/19/19
f 1/1/1 9/9/9 20/20/20
f 20/20/20 9/9/9 21/21/21
f 21/21/21 9/9/9 22/22/22
f 23/23/23 1/1/1 20/20/20
f 24/24/24 23/23/23 20/20/20
f 16/16/16 23/23/23 24/24/24
f 16/16/16 25/25/25 23/23/23
f 16/16/16 26/26/26 25/25/25
f 16/16/16 27/27/27 26/26/26
f 18/18/18 17/17/17 28/28/28
f 17/17/17 29/29/29 28/28/28
f 18/18/18 28/28/28 30/30/30
f 19/19/19 18/18/18 30/30/30
f 19/19/19 30/30/30 31/31/31
f 32/32/32 19/19/19 31/31/31
f 16/16/16 19/19/19 32/32/32
f 32/32/32 31/31/31 33/33/33
f 16/16/16 34/34/34 27/27/27
f 16/16/16 32/32/32 35/35/35
f 16/16/16 35/35/35 34/34/34
f 35/35/35 32/32/32 33/33/33
f 27/27/27 34/34/34 36/36/36
f 35/35/35 33/33/33 37/37/37
f 34/34/34 37/37/37 36/36/36
f 34/34/34 35/35/35 37/37/37
f 16/16/16 39/39/39 38/38/38
f 16/16/16 40/40/40 39/39/39
f 39/39/39 40/40/40 41/41/41
f 40/40/40 42/42/42 41/41/41
f 40/40/40 43/43/43 42/42/42
f 16/16/16 43/43/43 40/40/40
f 43/43/43 44/44/44 42/42/42
f 16/16/16 45/45/45 43/43/43
f 43/43/43 45/45/45 46/46/46
f 16/16/16 47/47/47 45/45/45
f 45/45/45 48/48/48 46/46/46
f 16/16/16 49/49/49 47/47/47
f 47/47/47 49/49/49 50/50/50
f 49/49/49 51/51/51 50/50/50
f 16/16/16 52/52/52 49/49/49
f 49/49/49 52/52/52 51/51/51
f 16/16/16 53/53/53 52/52/52
f 52/52/52 54/54/54 51/51/51
f 52/52/52 53/53/53 55/55/55
f 16/16/16 56/56/56 53/53/53
f 53/53/53 57/57/57 55/55/55
f 48/48/48 9/9/9 46/46/46
f 57/57/57 9/9/9 55/55/55
f 46/46/46 9/9/9 58/58/58
f 55/55/55 9/9/9 59/59/59
f 58/58/58 9/9/9 60/60/60
f 59/59/59 9/9/9 61/61/61
f 61/61/61 9/9/9 48/48/48
f 60/60/60 9/9/9 62/62/62
f 63/63/63 61/61/61 48/48/48
f 64/64/64 63/63/63 48/48/48
f 65/65/65 60/60/60 62/62/62
f 66/66/66 65/65/65 62/62/62
f 66/66/66 62/62/62 9/9/9
f 67/67/67 66/66/66 9/9/9
f 68/68/68 9/9/9 57/57/57
f 69/69/69 68/68/68 57/57/57
f 70/70/70 69/69/69 57/57/57
f 71/71/71 9/9/9 68/68/68
f 72/72/72 9/9/9 71/71/71
f 73/73/73 9/9/9 72/72/72
f 22/22/22 9/9/9 73/73/73
f 74/74/74 22/22/22 73/73/73
f 75/75/75 74/74/74 73/73/73
f 75/75/75 73/73/73 72/72/72
f 76/76/76 75/75/75 72/72/72
f 24/24/24 78/78/78 77/77/77
f 79/79/79 24/24/24 77/77/77
f 79/79/79 77/77/77 80/80/80
f 81/81/81 79/79/79 80/80/80
f 16/16/16 24/24/24 79/79/79
f 16/16/16 79/79/79 81/81/81
f 16/16/16 81/81/81 82/82/82
f 16/16/16 82/82/82 83/83/83
f 16/16/16 83/83/83 84/84/84
f 16/16/16 84/84/84 56/56/56
f 56/56/56 84/84/84 85/85/85
f 84/84/84 86/86/86 85/85/85
f 84/84/84 83/83/83 86/86/86
f 83/83/83 87/87/87 86/86/86
