g meshSPWaterPPCollision.051
v 13.805545 4.164488 0.5490392
v 9.741895 9.378432 -0.54903823
v 13.805545 4.164488 -0.5490349
v 9.741895 9.378432 0.54903585
v 3.1466823 11.438867 -0.5490476
v 0.010889257 -0.009861389 0.54902697
v 13.2247925 -2.3196025 0.5490271
v 3.1466823 11.438867 0.5490265
v 8.603261 -7.9032817 0.5490304
v -3.9734938 10.964937 0.5490296
v -3.9734938 10.964937 -0.5490445
v -10.076532 7.5336547 -0.5490382
v -10.076532 7.5336547 0.5490359
v 13.2247925 -2.3196025 -0.549047
v 8.603261 -7.9032817 -0.54904366
v 0.010889257 -0.009861438 -0.5490471
v 3.6151156 -11.831345 -0.5490373
v 13.805545 4.164488 -0.5490349
v 13.2247925 -2.3196025 0.5490271
v 13.805545 4.164488 0.5490392
v 9.741895 9.378432 -0.54903823
v 3.1466823 11.438867 -0.5490476
v -3.9734938 10.964937 -0.5490445
v -10.076532 7.5336547 -0.5490382
v -13.801518 2.213171 -0.54903483
v -13.801518 2.213171 0.54903924
v -13.591963 -3.5420744 -0.54904693
v -8.532016 -8.300696 -0.54904366
v -13.591963 -3.5420744 0.54902714
v -8.532016 -8.300696 0.5490304
v -2.172689 -11.786682 -0.5490373
v -2.172689 -11.786682 0.5490368
v -2.172689 -11.786682 0.5490368
v 3.6151156 -11.831345 0.5490368
v -8.532016 -8.300696 0.5490304
v -13.591963 -3.5420744 0.54902714
v -13.591963 -3.5420744 -0.54904693
v -13.801518 2.213171 -0.54903483
v 8.603261 -7.9032817 -0.54904366
v 3.6151156 -11.831345 -0.5490373
vt 0.3471254 0.30990028
vt 0.45888144 0.27796754
vt 0.3471254 0.30990028
vt 0.45888144 0.27796754
vt 0.57390666 0.31706187
vt 0.49977943 0.5121658
vt 0.28816727 0.40801066
vt 0.57390666 0.31706187
vt 0.29593155 0.5352149
vt 0.67011976 0.39759225
vt 0.67011976 0.39759225
vt 0.7212343 0.50958216
vt 0.7212343 0.50958216
vt 0.28816727 0.40801066
vt 0.29593155 0.5352149
vt 0.49977943 0.5121658
vt 0.32606274 0.64270484
vt 0.3471254 0.30990028
vt 0.28816727 0.40801066
vt 0.3471254 0.30990028
vt 0.45888144 0.27796754
vt 0.57390666 0.31706187
vt 0.67011976 0.39759225
vt 0.7212343 0.50958216
vt 0.7189932 0.6237558
vt 0.7189932 0.6237558
vt 0.6563649 0.70332336
vt 0.5351782 0.7184628
vt 0.6563649 0.70332336
vt 0.5351782 0.7184628
vt 0.4087277 0.70206
vt 0.4087277 0.70206
vt 0.4087277 0.70206
vt 0.32606274 0.64270484
vt 0.5351782 0.7184628
vt 0.6563649 0.70332336
vt 0.6563649 0.70332336
vt 0.7189932 0.6237558
vt 0.29593155 0.5352149
vt 0.32606274 0.64270484
vn 0.7425531 0.21864422 0.63309515
vn 0.43478656 0.6277078 -0.6457117
vn 0.7425539 0.21864514 -0.63309413
vn 0.43478552 0.62770796 0.6457122
vn 0.08773167 0.7389487 -0.6680254
vn -0 0 1
vn 0.70586574 -0.29044855 0.6460598
vn 0.087731086 0.73894924 0.66802484
vn 0.5094977 -0.5220496 0.68401486
vn -0.21419244 0.71955365 0.66057867
vn -0.2141932 0.7195535 -0.66057867
vn -0.5041706 0.5565186 -0.660378
vn -0.5041697 0.5565188 0.66037846
vn 0.70586556 -0.2904475 -0.6460604
vn 0.509497 -0.52205026 -0.6840148
vn -0 0 -1
vn 0.24884574 -0.72728384 -0.63963586
vn 0.7425539 0.21864514 -0.63309413
vn 0.70586574 -0.29044855 0.6460598
vn 0.7425531 0.21864422 0.63309515
vn 0.43478656 0.6277078 -0.6457117
vn 0.08773167 0.7389487 -0.6680254
vn -0.2141932 0.7195535 -0.66057867
vn -0.5041706 0.5565186 -0.660378
vn -0.7352616 0.2171767 -0.64204717
vn -0.7352609 0.21717553 0.64204836
vn -0.7065683 -0.3208336 -0.6307353
vn -0.43096247 -0.5934705 -0.67975295
vn -0.7065685 -0.32083467 0.63073456
vn -0.43096307 -0.5934699 0.6797531
vn -0.19007124 -0.73041916 -0.6560188
vn -0.19007157 -0.7304185 0.65601957
vn -0.19007157 -0.7304185 0.65601957
vn 0.24884601 -0.7272831 0.6396365
vn -0.43096307 -0.5934699 0.6797531
vn -0.7065685 -0.32083467 0.63073456
vn -0.7065683 -0.3208336 -0.6307353
vn -0.7352616 0.2171767 -0.64204717
vn 0.509497 -0.52205026 -0.6840148
vn 0.24884574 -0.72728384 -0.63963586
g meshSPWaterPPCollision.051_0
f 3/3/3 2/2/2 1/1/1
f 2/2/2 4/4/4 1/1/1
f 2/2/2 5/5/5 4/4/4
f 4/4/4 6/6/6 1/1/1
f 1/1/1 6/6/6 7/7/7
f 5/5/5 8/8/8 4/4/4
f 8/8/8 6/6/6 4/4/4
f 7/7/7 6/6/6 9/9/9
f 10/10/10 6/6/6 8/8/8
f 5/5/5 11/11/11 8/8/8
f 11/11/11 10/10/10 8/8/8
f 11/11/11 12/12/12 10/10/10
f 12/12/12 13/13/13 10/10/10
f 13/13/13 6/6/6 10/10/10
f 14/14/14 7/7/7 9/9/9
f 15/15/15 14/14/14 9/9/9
f 16/16/16 14/14/14 15/15/15
f 16/16/16 15/15/15 17/17/17
f 16/16/16 18/18/18 14/14/14
f 14/14/14 18/18/18 19/19/19
f 18/18/18 20/20/20 19/19/19
f 16/16/16 21/21/21 18/18/18
f 16/16/16 22/22/22 21/21/21
f 16/16/16 23/23/23 22/22/22
f 16/16/16 24/24/24 23/23/23
f 24/24/24 25/25/25 13/13/13
f 16/16/16 25/25/25 24/24/24
f 25/25/25 26/26/26 13/13/13
f 16/16/16 27/27/27 25/25/25
f 26/26/26 6/6/6 13/13/13
f 16/16/16 28/28/28 27/27/27
f 27/27/27 28/28/28 29/29/29
f 28/28/28 30/30/30 29/29/29
f 16/16/16 31/31/31 28/28/28
f 28/28/28 31/31/31 30/30/30
f 31/31/31 32/32/32 30/30/30
f 16/16/16 17/17/17 31/31/31
f 31/31/31 17/17/17 33/33/33
f 17/17/17 34/34/34 33/33/33
f 34/34/34 6/6/6 33/33/33
f 33/33/33 6/6/6 35/35/35
f 35/35/35 6/6/6 36/36/36
f 36/36/36 6/6/6 26/26/26
f 37/37/37 36/36/36 26/26/26
f 38/38/38 37/37/37 26/26/26
f 9/9/9 6/6/6 34/34/34
f 39/39/39 9/9/9 34/34/34
f 40/40/40 39/39/39 34/34/34
