g meshSPWaterPPCollision.040
v -19.072126 -5.7497015 0.54903805
v -16.956913 -9.448242 -0.54903585
v -19.072126 -5.7497015 -0.5490368
v -16.956913 -9.448242 0.549039
v -9.931661 -16.556818 -0.5490371
v -9.931661 -16.556818 0.54903775
v -0.11347524 -19.156399 -0.549037
v -0.11347524 -19.156399 0.5490379
v -1.3137555 0.8074918 0.5490401
v -19.817997 -0.51093936 0.54903704
v -19.89486 3.2282805 0.54904
v -19.072126 -5.7497015 -0.5490368
v -17.61843 8.470317 0.5490398
v -19.817997 -0.51093936 -0.5490378
v -15.357828 12.030224 0.5490419
v -17.61843 8.470317 -0.5490351
v -15.357828 12.030224 -0.5490329
v -10.660453 14.866205 0.5490426
v -10.660453 14.866205 -0.5490323
v -2.3180723 18.223557 0.5490409
v 7.6503363 16.990194 0.54904175
v -2.3180723 18.223557 -0.54903394
v 11.762643 14.647255 0.5490426
v 14.77738 11.014522 0.5490412
v 16.59121 7.096844 0.5490406
v 17.315731 1.9990717 0.5490401
v 7.6503363 16.990194 -0.5490331
v 11.762643 14.647255 -0.5490323
v 11.762643 14.647255 -0.5490323
v 7.6503363 16.990194 -0.5490331
v 14.77738 11.014522 -0.54903364
v -1.3137555 0.8074918 -0.5490348
v -10.660453 14.866205 -0.5490323
v -15.357828 12.030224 -0.5490329
v -2.3180723 18.223557 0.5490409
v -10.660453 14.866205 0.5490426
v -17.61843 8.470317 -0.5490351
v -19.89486 3.2282805 -0.54903483
v -17.61843 8.470317 0.5490398
v -19.89486 3.2282805 0.54904
v -19.817997 -0.51093936 0.54903704
v -16.956913 -9.448242 -0.54903585
v -9.931661 -16.556818 -0.5490371
v -0.11347524 -19.156399 -0.549037
v 6.03343 -18.28521 -0.54903704
v 6.03343 -18.28521 0.5490378
v 9.707624 -15.88161 -0.5490371
v 14.070037 -13.096652 -0.54903567
v 9.707624 -15.88161 0.54903775
v 14.070037 -13.096652 0.5490392
v 16.860477 -8.226822 -0.54903513
v 16.860477 -8.226822 0.5490397
v 18.286785 -2.4611583 -0.5490346
v 16.860477 -8.226822 0.5490397
v 17.315731 1.9990717 -0.5490348
v 18.286785 -2.4611583 0.54904026
v 14.070037 -13.096652 0.5490392
v 9.707624 -15.88161 0.54903775
v 9.707624 -15.88161 -0.5490371
v 6.03343 -18.28521 -0.54903704
v 17.315731 1.9990717 -0.5490348
v 18.286785 -2.4611583 -0.5490346
v 16.59121 7.096844 -0.54903424
v 17.315731 1.9990717 0.5490401
v 16.59121 7.096844 0.5490406
v 14.77738 11.014522 0.5490412
vt 0.19158396 0.3896975
vt 0.2291307 0.32320246
vt 0.19158396 0.3896975
vt 0.2291307 0.32320246
vt 0.36619258 0.21019477
vt 0.36619258 0.21019477
vt 0.54703176 0.1911993
vt 0.54703176 0.1911993
vt 0.48899993 0.53702366
vt 0.16884343 0.47964525
vt 0.16055381 0.54469275
vt 0.19158396 0.3896975
vt 0.19049819 0.6403146
vt 0.16884343 0.47964525
vt 0.22329386 0.70657945
vt 0.19049819 0.6403146
vt 0.22329386 0.70657945
vt 0.29991758 0.764754
vt 0.29991758 0.764754
vt 0.43912047 0.8387922
vt 0.61520445 0.8358168
vt 0.43912047 0.8387922
vt 0.6912539 0.80261344
vt 0.7505653 0.7448823
vt 0.7894695 0.67995226
vt 0.8115761 0.59242254
vt 0.61520445 0.8358168
vt 0.6912539 0.80261344
vt 0.6912539 0.80261344
vt 0.61520445 0.8358168
vt 0.7505653 0.7448823
vt 0.48899993 0.53702366
vt 0.29991758 0.764754
vt 0.22329386 0.70657945
vt 0.43912047 0.8387922
vt 0.29991758 0.764754
vt 0.19049819 0.6403146
vt 0.16055381 0.54469275
vt 0.19049819 0.6403146
vt 0.16055381 0.54469275
vt 0.16884343 0.47964525
vt 0.2291307 0.32320246
vt 0.36619258 0.21019477
vt 0.54703176 0.1911993
vt 0.6525787 0.21781285
vt 0.6525787 0.21781285
vt 0.71216834 0.2665467
vt 0.78304756 0.32320845
vt 0.71216834 0.2665467
vt 0.78304756 0.32320845
vt 0.8226453 0.41329592
vt 0.8226453 0.41329592
vt 0.83679545 0.5164671
vt 0.8226453 0.41329592
vt 0.8115761 0.59242254
vt 0.83679545 0.5164671
vt 0.78304756 0.32320845
vt 0.71216834 0.2665467
vt 0.71216834 0.2665467
vt 0.6525787 0.21781285
vt 0.8115761 0.59242254
vt 0.83679545 0.5164671
vt 0.7894695 0.67995226
vt 0.8115761 0.59242254
vt 0.7894695 0.67995226
vt 0.7505653 0.7448823
vn -0.7046123 -0.24171317 0.6671554
vn -0.58461165 -0.44396698 -0.6790599
vn -0.70461214 -0.24171339 -0.6671554
vn -0.5846117 -0.44396698 0.67906004
vn -0.37989584 -0.65577936 -0.6524053
vn -0.37989578 -0.6557794 0.6524052
vn -0.044051778 -0.74550605 -0.66504145
vn -0.04405178 -0.7455061 0.6650414
vn -0 0 1
vn -0.7178442 -0.05826512 0.6937614
vn -0.7353029 0.1449002 0.66206765
vn -0.70461214 -0.24171339 -0.6671554
vn -0.6394345 0.33920512 0.6899734
vn -0.7178439 -0.058264684 -0.69376177
vn -0.5257784 0.5378009 0.65903515
vn -0.6394344 0.33920532 -0.68997353
vn -0.5257783 0.53780127 -0.6590349
vn -0.32341987 0.64807045 0.6894956
vn -0.32342 0.6480706 -0.6894955
vn -0.097784 0.7493678 0.654894
vn 0.23513177 0.70837945 0.6655161
vn -0.09778406 0.7493678 -0.65489405
vn 0.47772205 0.5694965 0.66892093
vn 0.6206518 0.39184535 0.6791529
vn 0.7069093 0.20894296 0.67573816
vn 0.68766785 0.123553805 0.7154351
vn 0.23513192 0.7083794 -0.6655161
vn 0.47772214 0.56949675 -0.66892076
vn 0.47772214 0.56949675 -0.66892076
vn 0.23513192 0.7083794 -0.6655161
vn 0.62065166 0.39184552 -0.6791529
vn -0 0 -1
vn -0.32342 0.6480706 -0.6894955
vn -0.5257783 0.53780127 -0.6590349
vn -0.097784 0.7493678 0.654894
vn -0.32341987 0.64807045 0.6894956
vn -0.6394344 0.33920532 -0.68997353
vn -0.735303 0.14490068 -0.6620674
vn -0.6394345 0.33920512 0.6899734
vn -0.7353029 0.1449002 0.66206765
vn -0.7178442 -0.05826512 0.6937614
vn -0.58461165 -0.44396698 -0.6790599
vn -0.37989584 -0.65577936 -0.6524053
vn -0.044051778 -0.74550605 -0.66504145
vn 0.26429343 -0.70204765 -0.66127
vn 0.26429346 -0.70204777 0.66126996
vn 0.38312095 -0.59282506 -0.7083621
vn 0.54561806 -0.52011955 -0.65709704
vn 0.3831209 -0.59282523 0.70836186
vn 0.5456179 -0.5201196 0.6570971
vn 0.682897 -0.2738847 -0.67722875
vn 0.682897 -0.27388483 0.67722875
vn 0.75162107 -0.010576845 -0.6595104
vn 0.682897 -0.27388483 0.67722875
vn 0.6876678 0.12355385 -0.71543515
vn 0.751621 -0.010576888 0.65951043
vn 0.5456179 -0.5201196 0.6570971
vn 0.3831209 -0.59282523 0.70836186
vn 0.38312095 -0.59282506 -0.7083621
vn 0.26429343 -0.70204765 -0.66127
vn 0.6876678 0.12355385 -0.71543515
vn 0.75162107 -0.010576845 -0.6595104
vn 0.70690924 0.2089431 -0.67573816
vn 0.68766785 0.123553805 0.7154351
vn 0.7069093 0.20894296 0.67573816
vn 0.6206518 0.39184535 0.6791529
g meshSPWaterPPCollision.040_0
f 3/3/3 2/2/2 1/1/1
f 2/2/2 4/4/4 1/1/1
f 2/2/2 5/5/5 4/4/4
f 5/5/5 6/6/6 4/4/4
f 5/5/5 7/7/7 6/6/6
f 7/7/7 8/8/8 6/6/6
f 9/9/9 4/4/4 6/6/6
f 4/4/4 9/9/9 1/1/1
f 9/9/9 6/6/6 8/8/8
f 10/10/10 1/1/1 9/9/9
f 10/10/10 9/9/9 11/11/11
f 12/12/12 1/1/1 10/10/10
f 13/13/13 11/11/11 9/9/9
f 14/14/14 12/12/12 10/10/10
f 13/13/13 9/9/9 15/15/15
f 16/16/16 13/13/13 15/15/15
f 17/17/17 16/16/16 15/15/15
f 17/17/17 15/15/15 18/18/18
f 18/18/18 15/15/15 9/9/9
f 19/19/19 17/17/17 18/18/18
f 9/9/9 20/20/20 18/18/18
f 9/9/9 21/21/21 20/20/20
f 22/22/22 20/20/20 21/21/21
f 21/21/21 9/9/9 23/23/23
f 24/24/24 23/23/23 9/9/9
f 24/24/24 9/9/9 25/25/25
f 26/26/26 25/25/25 9/9/9
f 27/27/27 21/21/21 23/23/23
f 28/28/28 27/27/27 23/23/23
f 29/29/29 23/23/23 24/24/24
f 30/30/30 22/22/22 21/21/21
f 31/31/31 29/29/29 24/24/24
f 32/32/32 30/30/30 29/29/29
f 30/30/30 32/32/32 22/22/22
f 29/29/29 31/31/31 32/32/32
f 22/22/22 32/32/32 33/33/33
f 34/34/34 33/33/33 32/32/32
f 22/22/22 33/33/33 35/35/35
f 33/33/33 36/36/36 35/35/35
f 32/32/32 37/37/37 34/34/34
f 38/38/38 37/37/37 32/32/32
f 37/37/37 38/38/38 39/39/39
f 38/38/38 40/40/40 39/39/39
f 38/38/38 14/14/14 40/40/40
f 32/32/32 14/14/14 38/38/38
f 14/14/14 41/41/41 40/40/40
f 12/12/12 14/14/14 32/32/32
f 32/32/32 42/42/42 12/12/12
f 42/42/42 32/32/32 43/43/43
f 43/43/43 32/32/32 44/44/44
f 45/45/45 44/44/44 32/32/32
f 44/44/44 45/45/45 8/8/8
f 45/45/45 46/46/46 8/8/8
f 32/32/32 47/47/47 45/45/45
f 8/8/8 46/46/46 9/9/9
f 48/48/48 47/47/47 32/32/32
f 47/47/47 48/48/48 49/49/49
f 48/48/48 50/50/50 49/49/49
f 48/48/48 51/51/51 50/50/50
f 32/32/32 51/51/51 48/48/48
f 51/51/51 52/52/52 50/50/50
f 53/53/53 51/51/51 32/32/32
f 51/51/51 53/53/53 54/54/54
f 32/32/32 55/55/55 53/53/53
f 53/53/53 56/56/56 54/54/54
f 54/54/54 56/56/56 9/9/9
f 54/54/54 9/9/9 57/57/57
f 58/58/58 57/57/57 9/9/9
f 58/58/58 9/9/9 46/46/46
f 59/59/59 58/58/58 46/46/46
f 60/60/60 59/59/59 46/46/46
f 26/26/26 9/9/9 56/56/56
f 61/61/61 26/26/26 56/56/56
f 62/62/62 61/61/61 56/56/56
f 63/63/63 55/55/55 32/32/32
f 55/55/55 63/63/63 64/64/64
f 32/32/32 31/31/31 63/63/63
f 63/63/63 65/65/65 64/64/64
f 63/63/63 31/31/31 65/65/65
f 31/31/31 66/66/66 65/65/65
