g meshSPDistantLowFog
v -0.01 -0.01 0
v -0.01 0.01 0
v 0.01 0.01 0
v 0.01 -0.01 0
v -0.010000001 -0.004447312 0.102413684
v -0.009999994 -0.013496281 0.0767815
v 0.009999999 -0.013496281 0.0767815
v 0.009999992 -0.004447312 0.102413684
v -0.010000007 0.0053653587 0.10387599
v -0.010000001 -0.004447312 0.102413684
v 0.009999992 -0.004447312 0.102413684
v 0.009999987 0.0053653587 0.10387599
v -0.013662409 0.0015383385 0.12727062
v -0.013662407 -0.0019378387 0.13164563
v 0.017582742 -0.0019378386 0.13164563
v 0.01758274 0.0015383384 0.12727062
v -0.013662413 0.0073426184 0.1048508
v -0.013662412 0.0047248704 0.11965572
v 0.017582739 0.00472487 0.11965572
v 0.017582739 0.0073426184 0.1048508
v -0.013662415 0.009287602 0.08430976
v -0.013662413 0.0073426184 0.1048508
v 0.017582739 0.0073426184 0.1048508
v 0.017582737 0.009287602 0.08430976
v -0.013662412 0.0047248704 0.11965572
v -0.013662409 0.0015383385 0.12727062
v 0.01758274 0.0015383384 0.12727062
v 0.017582739 0.00472487 0.11965572
v -0.013662396 -0.015324334 0.05833636
v -0.013662396 -0.015216675 0.037832774
v 0.0010732556 -0.015216675 0.037832774
v 0.011769497 -0.015324334 0.05833636
v -0.0136624 -0.014231975 0.08495407
v 0.015506268 -0.014231975 0.08495407
v -0.013662403 -0.0112919975 0.1078961
v -0.0136624 -0.014231975 0.08495407
v 0.015506268 -0.014231975 0.08495407
v 0.01758274 -0.0112919975 0.1078961
v -0.013662407 -0.006925445 0.13225521
v -0.013662403 -0.0112919975 0.1078961
v 0.01758274 -0.0112919975 0.1078961
v 0.016239293 -0.006925445 0.13225523
v -0.009999999 0.01107069 -0.022415834
v -0.010000001 0.012396846 0.0036687397
v -0.0011550582 0.012396846 0.0036687388
v 0.0064195287 0.01107069 -0.022415834
v -0.009999997 -0.0037510335 -0.04877367
v -0.009999997 0.0004803039 -0.05391394
v 0.017811486 0.0004803034 -0.05391394
v 0.017204786 -0.0037510337 -0.04877367
v -0.009999997 -0.010904173 -0.02390892
v -0.009999997 -0.0075240773 -0.03987349
v 0.013733154 -0.0075240773 -0.03987349
v 0.0064669847 -0.010904173 -0.02390892
v -0.009999998 0.004746919 -0.05126133
v -0.009999999 0.008579006 -0.040765833
v 0.01278182 0.008579006 -0.040765833
v 0.017204786 0.0047469186 -0.05126133
v -0.009999997 0.0004803039 -0.05391394
v -0.009999998 0.004746919 -0.05126133
v 0.017204786 0.0047469186 -0.05126133
v 0.017811486 0.0004803034 -0.05391394
v -0.009999999 -0.013492544 -0.00016654372
v -0.009999997 -0.010904173 -0.02390892
v 0.0064669847 -0.010904173 -0.02390892
v -0.003389673 -0.013492544 -0.00016654479
v -0.009999997 -0.0075240773 -0.03987349
v -0.009999997 -0.0037510335 -0.04877367
v 0.017204786 -0.0037510337 -0.04877367
v 0.013733154 -0.0075240773 -0.03987349
v -0.009999999 0.008579006 -0.040765833
v -0.009999999 0.01107069 -0.022415834
v 0.0064195287 0.01107069 -0.022415834
v 0.01278182 0.008579006 -0.040765833
vt 0 0
vt 0 1
vt 1 1
vt 1 0
vt 0 0.5
vt 0 1
vt 1 1
vt 1 0.5
vt 0 0
vt 0 0.5
vt 1 0.5
vt 1 0
vt 0 0.75
vt 0 1
vt 1 1
vt 1 0.75
vt 0 0.25
vt 0 0.5
vt 1 0.5
vt 1 0.25
vt 0 0
vt 0 0.25
vt 1 0.25
vt 1 0
vt 0 0.5
vt 0 0.75
vt 1 0.75
vt 1 0.5
vt 0 0.75
vt 0 1
vt 1 1
vt 1 0.75
vt 0 0.5
vt 1 0.5
vt 0 0.25
vt 0 0.5
vt 1 0.5
vt 1 0.25
vt 0 0
vt 0 0.25
vt 1 0.25
vt 1 0
vt 0 0.875
vt 0 1
vt 1 1
vt 1 0.875
vt 0 0.375
vt 0 0.5
vt 1 0.5
vt 1 0.375
vt 0 0.125
vt 0 0.25
vt 1 0.25
vt 1 0.125
vt 0 0.625
vt 0 0.75
vt 1 0.75
vt 1 0.625
vt 0 0.5
vt 0 0.625
vt 1 0.625
vt 1 0.5
vt 0 0
vt 0 0.125
vt 1 0.125
vt 1 0
vt 0 0.25
vt 0 0.375
vt 1 0.375
vt 1 0.25
vt 0 0.75
vt 0 0.875
vt 1 0.875
vt 1 0.75
vn -0 0 1
vn -0 0 1
vn -0 0 1
vn -0 0 1
vn -0 0.9429636 -0.33289596
vn -0 0.9429636 -0.33289596
vn -0 0.9429636 -0.33289596
vn -0 0.9429636 -0.33289596
vn -0 0.14739467 -0.9890778
vn -0 0.14739467 -0.9890778
vn -0 0.14739467 -0.9890778
vn -0 0.14739467 -0.9890778
vn -4.338666E-07 -0.78294474 -0.62209123
vn -4.338666E-07 -0.78294474 -0.62209123
vn -4.338666E-07 -0.78294474 -0.62209123
vn -4.338666E-07 -0.78294474 -0.62209123
vn -0 -0.9847253 -0.17411524
vn -0 -0.9847253 -0.17411524
vn -0 -0.9847253 -0.17411524
vn -0 -0.9847253 -0.17411524
vn -0 -0.99554706 -0.094266035
vn -0 -0.99554706 -0.094266035
vn -0 -0.99554706 -0.094266035
vn -0 -0.99554706 -0.094266035
vn -0 -0.92248845 -0.38602465
vn -0 -0.92248845 -0.38602465
vn -0 -0.92248845 -0.38602465
vn -0 -0.92248845 -0.38602465
vn -0 0.9999863 0.0052507147
vn -0 0.9999863 0.0052507147
vn -0 0.9999863 0.0052507147
vn -0 0.9999863 0.0052507147
vn -0 0.999159 -0.041004285
vn -0 0.999159 -0.041004285
vn -0 0.9918888 -0.12710865
vn -0 0.9918888 -0.12710865
vn -0 0.9918888 -0.12710865
vn -0 0.9918888 -0.12710865
vn -0 0.9843105 -0.1764449
vn -0 0.9843105 -0.1764449
vn -0 0.9843105 -0.1764449
vn -0 0.9843105 -0.1764449
vn -0 -0.99871004 0.050775055
vn -0 -0.99871004 0.050775055
vn -0 -0.99871004 0.050775055
vn -0 -0.99871004 0.050775055
vn -0 0.7720649 0.6355437
vn -0 0.7720649 0.6355437
vn -0 0.7720649 0.6355437
vn -0 0.7720649 0.6355437
vn -0 0.97831273 0.20713319
vn -0 0.97831273 0.20713319
vn -0 0.97831273 0.20713319
vn -0 0.97831273 0.20713319
vn -0 -0.93934584 0.34297156
vn -0 -0.93934584 0.34297156
vn -0 -0.93934584 0.34297156
vn -0 -0.93934584 0.34297156
vn -1.2394754E-07 -0.52799034 0.8492504
vn -1.2394754E-07 -0.52799034 0.8492504
vn -1.2394754E-07 -0.52799034 0.8492504
vn -1.2394754E-07 -0.52799034 0.8492504
vn -0 0.99410987 0.108376935
vn -0 0.99410987 0.108376935
vn -0 0.99410987 0.108376935
vn -0 0.99410987 0.108376935
vn -0 0.9206855 0.39030528
vn -0 0.9206855 0.39030528
vn -0 0.9206855 0.39030528
vn -0 0.9206855 0.39030528
vn -0 -0.9909066 0.13455175
vn -0 -0.9909066 0.13455175
vn -0 -0.9909066 0.13455175
vn -0 -0.9909066 0.13455175
g meshSPDistantLowFog_0
f 3/3/3 2/2/2 1/1/1
f 4/4/4 3/3/3 1/1/1
f 7/7/7 6/6/6 5/5/5
f 8/8/8 7/7/7 5/5/5
f 11/11/11 10/10/10 9/9/9
f 12/12/12 11/11/11 9/9/9
f 15/15/15 14/14/14 13/13/13
f 16/16/16 15/15/15 13/13/13
f 19/19/19 18/18/18 17/17/17
f 20/20/20 19/19/19 17/17/17
f 23/23/23 22/22/22 21/21/21
f 24/24/24 23/23/23 21/21/21
f 27/27/27 26/26/26 25/25/25
f 28/28/28 27/27/27 25/25/25
f 31/31/31 30/30/30 29/29/29
f 32/32/32 31/31/31 29/29/29
f 32/32/32 29/29/29 33/33/33
f 34/34/34 32/32/32 33/33/33
f 37/37/37 36/36/36 35/35/35
f 38/38/38 37/37/37 35/35/35
f 41/41/41 40/40/40 39/39/39
f 42/42/42 41/41/41 39/39/39
f 45/45/45 44/44/44 43/43/43
f 46/46/46 45/45/45 43/43/43
f 49/49/49 48/48/48 47/47/47
f 50/50/50 49/49/49 47/47/47
f 53/53/53 52/52/52 51/51/51
f 54/54/54 53/53/53 51/51/51
f 57/57/57 56/56/56 55/55/55
f 58/58/58 57/57/57 55/55/55
f 61/61/61 60/60/60 59/59/59
f 62/62/62 61/61/61 59/59/59
f 65/65/65 64/64/64 63/63/63
f 66/66/66 65/65/65 63/63/63
f 69/69/69 68/68/68 67/67/67
f 70/70/70 69/69/69 67/67/67
f 73/73/73 72/72/72 71/71/71
f 74/74/74 73/73/73 71/71/71
