g meshSPWaterPPCollision.026
v 5.4852095 15.875729 0.54903865
v 2.4563835 17.476028 -0.5490343
v 5.4852095 15.875729 -0.5490358
v 2.4563835 17.476028 0.54904014
v -0.93605447 17.943907 -0.5490343
v -0.93605447 17.943907 0.54904014
v -4.581748 17.207027 -0.5490343
v -0.0381 0.04682197 0.5490374
v -4.581748 17.207027 0.54904014
v 8.347423 13.554059 0.54903835
v 11.120165 10.87937 0.5490381
v 5.4852095 15.875729 -0.5490358
v -8.153934 15.482612 -0.54903495
v 8.347423 13.554059 -0.54903644
v -8.153934 15.482612 0.5490395
v -11.463163 12.764068 -0.5490356
v -11.463163 12.764068 0.5490388
v 13.838944 8.094266 0.54903823
v 11.120165 10.87937 -0.5490363
v -0.0381 0.046821926 -0.5490374
v 2.4563835 17.476028 -0.5490343
v -0.93605447 17.943907 -0.5490343
v -4.581748 17.207027 -0.5490343
v -8.153934 15.482612 -0.54903495
v -11.463163 12.764068 -0.5490356
v 11.120165 10.87937 0.5490381
v 8.347423 13.554059 0.54903835
v 13.838944 8.094266 -0.5490362
v 16.157885 5.3168473 -0.54903764
v -14.466243 9.355627 -0.5490378
v -14.466243 9.355627 0.5490366
v -16.720654 5.643426 0.54903716
v 16.157885 5.3168473 0.54903716
v 13.838944 8.094266 -0.5490362
v 16.157885 5.3168473 -0.54903764
v 17.512556 2.4581785 0.5490346
v 18.262253 -0.66738564 0.5490351
v 17.512556 2.4581785 -0.54903984
v -16.720654 5.643426 -0.54903764
v -18.80772 1.1469067 -0.549039
v -14.466243 9.355627 0.5490366
v -16.720654 5.643426 0.54903716
v 17.341118 -4.2007356 0.5490349
v -19.0658 -3.160821 -0.5490404
v 15.548632 -7.621048 0.5490335
v 17.341118 -4.2007356 -0.54903954
v 15.548632 -7.621048 -0.5490409
v 13.263748 -11.07587 0.549034
v 13.263748 -11.07587 -0.5490408
v 10.982858 -14.250411 0.54903144
v 6.748624 -15.88159 0.5490319
v 10.982858 -14.250411 -0.549043
v 2.8301404 -16.07529 0.54903233
v -0.9881939 -16.379282 0.5490319
v -5.397562 -15.845664 0.54903233
v -9.750834 -15.407766 0.54903185
v 6.748624 -15.88159 -0.5490429
v 2.8301404 -16.07529 -0.5490421
v 2.8301404 -16.07529 -0.5490421
v 6.748624 -15.88159 -0.5490429
v -0.9881939 -16.379282 -0.5490429
v 13.263748 -11.07587 -0.5490408
v 10.982858 -14.250411 0.54903144
v 13.263748 -11.07587 0.549034
v 15.548632 -7.621048 -0.5490409
v 17.341118 -4.2007356 -0.54903954
v 18.262253 -0.66738564 -0.5490397
v 17.341118 -4.2007356 0.5490349
v 18.262253 -0.66738564 0.5490351
v 17.512556 2.4581785 0.5490346
v -5.397562 -15.845664 -0.5490421
v -5.397562 -15.845664 0.54903233
v -0.9881939 -16.379282 0.5490319
v -9.750834 -15.407766 0.54903185
v -9.750834 -15.407766 -0.54904294
v -13.822102 -13.858093 -0.54904145
v -16.97437 -11.256602 -0.54904157
v -16.97437 -11.256602 0.5490332
v -13.822102 -13.858093 0.549033
v -18.729387 -7.564453 -0.5490409
v -19.0658 -3.160821 0.5490344
v -18.729387 -7.564453 0.5490335
v -16.97437 -11.256602 0.5490332
v -18.729387 -7.564453 0.5490335
v -9.750834 -15.407766 -0.54904294
v -13.822102 -13.858093 -0.54904145
v -18.80772 1.1469067 0.54903543
v -19.0658 -3.160821 -0.5490404
v -18.80772 1.1469067 -0.549039
v -16.720654 5.643426 -0.54903764
vt 0.6130678 0.7752399
vt 0.56100476 0.80552286
vt 0.6130678 0.7752399
vt 0.56100476 0.80552286
vt 0.50174105 0.81617224
vt 0.50174105 0.81617224
vt 0.43716618 0.8058379
vt 0.5046985 0.5011152
vt 0.43716618 0.8058379
vt 0.6616881 0.7324029
vt 0.7084842 0.6834285
vt 0.6130678 0.7752399
vt 0.37317538 0.77810204
vt 0.6616881 0.7324029
vt 0.37317538 0.77810204
vt 0.3130924 0.7327131
vt 0.3130924 0.7327131
vt 0.7542523 0.63255286
vt 0.7084842 0.6834285
vt 0.5046985 0.5011152
vt 0.56100476 0.80552286
vt 0.50174105 0.81617224
vt 0.43716618 0.8058379
vt 0.37317538 0.77810204
vt 0.3130924 0.7327131
vt 0.7084842 0.6834285
vt 0.6616881 0.7324029
vt 0.7542523 0.63255286
vt 0.79300225 0.5820986
vt 0.2578933 0.67498493
vt 0.2578933 0.67498493
vt 0.21562932 0.61138403
vt 0.79300225 0.5820986
vt 0.7542523 0.63255286
vt 0.79300225 0.5820986
vt 0.8147532 0.5309075
vt 0.8256854 0.47546107
vt 0.8147532 0.5309075
vt 0.21562932 0.61138403
vt 0.17574334 0.5338845
vt 0.2578933 0.67498493
vt 0.21562932 0.61138403
vt 0.8069725 0.41404742
vt 0.16812435 0.4583917
vt 0.77303195 0.3552435
vt 0.8069725 0.41404742
vt 0.77303195 0.3552435
vt 0.73041785 0.29618603
vt 0.73041785 0.29618603
vt 0.688073 0.24204975
vt 0.6125184 0.21642606
vt 0.688073 0.24204975
vt 0.54354 0.21582961
vt 0.47624233 0.21322387
vt 0.39916182 0.22575647
vt 0.32299715 0.23656726
vt 0.6125184 0.21642606
vt 0.54354 0.21582961
vt 0.54354 0.21582961
vt 0.6125184 0.21642606
vt 0.47624233 0.21322387
vt 0.73041785 0.29618603
vt 0.688073 0.24204975
vt 0.73041785 0.29618603
vt 0.77303195 0.3552435
vt 0.8069725 0.41404742
vt 0.8256854 0.47546107
vt 0.8069725 0.41404742
vt 0.8256854 0.47546107
vt 0.8147532 0.5309075
vt 0.39916182 0.22575647
vt 0.39916182 0.22575647
vt 0.47624233 0.21322387
vt 0.32299715 0.23656726
vt 0.32299715 0.23656726
vt 0.25258362 0.26670754
vt 0.19906856 0.31466797
vt 0.19906856 0.31466797
vt 0.25258362 0.26670754
vt 0.17088047 0.38078833
vt 0.16812435 0.4583917
vt 0.17088047 0.38078833
vt 0.19906856 0.31466797
vt 0.17088047 0.38078833
vt 0.32299715 0.23656726
vt 0.25258362 0.26670754
vt 0.17574334 0.5338845
vt 0.16812435 0.4583917
vt 0.17574334 0.5338845
vt 0.21562932 0.61138403
vn 0.4011523 0.607259 0.68579394
vn 0.22755922 0.70659 -0.67003536
vn 0.40115196 0.6072592 -0.685794
vn 0.2275594 0.7065898 0.67003554
vn -0.023115257 0.7408366 -0.67128736
vn -0.02311524 0.74083656 0.67128754
vn -0.2338167 0.69487184 -0.6800609
vn -0 0 1
vn -0.23381679 0.6948717 0.6800611
vn 0.4748532 0.5365741 0.69756913
vn 0.5008725 0.5038605 0.7037409
vn 0.40115196 0.6072592 -0.685794
vn -0.39420912 0.6167468 -0.6813389
vn 0.47485307 0.5365742 -0.69756913
vn -0.3942092 0.61674654 0.6813389
vn -0.50324804 0.52093893 -0.68946654
vn -0.5032482 0.5209386 0.6894666
vn 0.53111583 0.4796388 0.69847155
vn 0.50087255 0.5038605 -0.70374084
vn -0 0 -1
vn 0.22755922 0.70659 -0.67003536
vn -0.023115257 0.7408366 -0.67128736
vn -0.2338167 0.69487184 -0.6800609
vn -0.39420912 0.6167468 -0.6813389
vn -0.50324804 0.52093893 -0.68946654
vn 0.5008725 0.5038605 0.7037409
vn 0.4748532 0.5365741 0.69756913
vn 0.53111583 0.4796391 -0.6984715
vn 0.6178266 0.39522973 -0.67976743
vn -0.5848276 0.4300119 -0.6877982
vn -0.58482796 0.43001184 0.6877981
vn -0.63451296 0.3385752 0.6948093
vn 0.6178269 0.39522904 0.6797676
vn 0.53111583 0.4796391 -0.6984715
vn 0.6178266 0.39522973 -0.67976743
vn 0.6874742 0.24239181 0.68456227
vn 0.754439 -0.007396821 0.6563285
vn 0.6874738 0.24239205 -0.6845625
vn -0.63451296 0.33857542 -0.6948093
vn -0.72198623 0.18220128 -0.6674867
vn -0.58482796 0.43001184 0.6877981
vn -0.63451296 0.3385752 0.6948093
vn 0.6818023 -0.26355988 0.6824089
vn -0.72175896 -0.0059209387 -0.6921192
vn 0.6183719 -0.3652441 0.695854
vn 0.6818023 -0.2635597 -0.6824089
vn 0.61837184 -0.36524376 -0.6958543
vn 0.5856721 -0.40384817 0.7027765
vn 0.5856724 -0.4038479 -0.7027765
vn 0.46558934 -0.60271275 0.6480463
vn 0.15311784 -0.7235147 0.6731131
vn 0.46558928 -0.6027123 -0.6480467
vn 0.04529999 -0.7022331 0.7105045
vn -0.01492327 -0.72808504 0.6853243
vn -0.07761465 -0.70053494 0.7093848
vn -0.16884351 -0.7147394 0.67870426
vn 0.15311767 -0.72351456 -0.6731134
vn 0.04529995 -0.7022329 -0.7105046
vn 0.04529995 -0.7022329 -0.7105046
vn 0.15311767 -0.72351456 -0.6731134
vn -0.014923249 -0.7280848 -0.6853246
vn 0.5856724 -0.4038479 -0.7027765
vn 0.46558934 -0.60271275 0.6480463
vn 0.5856721 -0.40384817 0.7027765
vn 0.61837184 -0.36524376 -0.6958543
vn 0.6818023 -0.2635597 -0.6824089
vn 0.75443894 -0.007396864 -0.65632856
vn 0.6818023 -0.26355988 0.6824089
vn 0.754439 -0.007396821 0.6563285
vn 0.6874742 0.24239181 0.68456227
vn -0.07761459 -0.70053476 -0.709385
vn -0.07761465 -0.70053494 0.7093848
vn -0.01492327 -0.72808504 0.6853243
vn -0.16884351 -0.7147394 0.67870426
vn -0.1688436 -0.714739 -0.6787046
vn -0.37220514 -0.6398886 -0.67231387
vn -0.5914673 -0.46120328 -0.66140604
vn -0.5914674 -0.46120346 0.66140586
vn -0.37220505 -0.6398888 0.6723138
vn -0.7189772 -0.1912517 -0.66820246
vn -0.7217591 -0.00592122 0.69211906
vn -0.7189772 -0.19125189 0.66820234
vn -0.5914674 -0.46120346 0.66140586
vn -0.7189772 -0.19125189 0.66820234
vn -0.1688436 -0.714739 -0.6787046
vn -0.37220514 -0.6398886 -0.67231387
vn -0.72198635 0.18220094 0.66748667
vn -0.72175896 -0.0059209387 -0.6921192
vn -0.72198623 0.18220128 -0.6674867
vn -0.63451296 0.33857542 -0.6948093
g meshSPWaterPPCollision.026_0
f 3/3/3 2/2/2 1/1/1
f 2/2/2 4/4/4 1/1/1
f 2/2/2 5/5/5 4/4/4
f 5/5/5 6/6/6 4/4/4
f 5/5/5 7/7/7 6/6/6
f 4/4/4 8/8/8 1/1/1
f 6/6/6 8/8/8 4/4/4
f 7/7/7 9/9/9 6/6/6
f 9/9/9 8/8/8 6/6/6
f 1/1/1 8/8/8 10/10/10
f 10/10/10 8/8/8 11/11/11
f 12/12/12 1/1/1 10/10/10
f 7/7/7 13/13/13 9/9/9
f 14/14/14 12/12/12 10/10/10
f 13/13/13 15/15/15 9/9/9
f 15/15/15 8/8/8 9/9/9
f 13/13/13 16/16/16 15/15/15
f 16/16/16 17/17/17 15/15/15
f 17/17/17 8/8/8 15/15/15
f 11/11/11 8/8/8 18/18/18
f 19/19/19 11/11/11 18/18/18
f 20/20/20 12/12/12 14/14/14
f 20/20/20 14/14/14 19/19/19
f 20/20/20 21/21/21 12/12/12
f 20/20/20 22/22/22 21/21/21
f 20/20/20 23/23/23 22/22/22
f 20/20/20 24/24/24 23/23/23
f 20/20/20 25/25/25 24/24/24
f 19/19/19 14/14/14 26/26/26
f 14/14/14 27/27/27 26/26/26
f 28/28/28 19/19/19 18/18/18
f 20/20/20 19/19/19 28/28/28
f 20/20/20 28/28/28 29/29/29
f 20/20/20 30/30/30 25/25/25
f 25/25/25 30/30/30 17/17/17
f 30/30/30 31/31/31 17/17/17
f 31/31/31 8/8/8 17/17/17
f 32/32/32 8/8/8 31/31/31
f 18/18/18 8/8/8 33/33/33
f 34/34/34 18/18/18 33/33/33
f 35/35/35 34/34/34 33/33/33
f 33/33/33 8/8/8 36/36/36
f 29/29/29 33/33/33 36/36/36
f 36/36/36 8/8/8 37/37/37
f 38/38/38 29/29/29 36/36/36
f 20/20/20 29/29/29 38/38/38
f 20/20/20 39/39/39 30/30/30
f 20/20/20 40/40/40 39/39/39
f 30/30/30 39/39/39 41/41/41
f 39/39/39 42/42/42 41/41/41
f 37/37/37 8/8/8 43/43/43
f 20/20/20 44/44/44 40/40/40
f 43/43/43 8/8/8 45/45/45
f 46/46/46 43/43/43 45/45/45
f 47/47/47 46/46/46 45/45/45
f 47/47/47 45/45/45 48/48/48
f 45/45/45 8/8/8 48/48/48
f 49/49/49 47/47/47 48/48/48
f 48/48/48 8/8/8 50/50/50
f 50/50/50 8/8/8 51/51/51
f 52/52/52 50/50/50 51/51/51
f 51/51/51 8/8/8 53/53/53
f 53/53/53 8/8/8 54/54/54
f 54/54/54 8/8/8 55/55/55
f 55/55/55 8/8/8 56/56/56
f 57/57/57 51/51/51 53/53/53
f 58/58/58 57/57/57 53/53/53
f 59/59/59 53/53/53 54/54/54
f 60/60/60 52/52/52 51/51/51
f 61/61/61 59/59/59 54/54/54
f 20/20/20 60/60/60 59/59/59
f 20/20/20 52/52/52 60/60/60
f 20/20/20 59/59/59 61/61/61
f 20/20/20 62/62/62 52/52/52
f 52/52/52 62/62/62 63/63/63
f 62/62/62 64/64/64 63/63/63
f 20/20/20 65/65/65 62/62/62
f 20/20/20 66/66/66 65/65/65
f 20/20/20 67/67/67 66/66/66
f 66/66/66 67/67/67 68/68/68
f 67/67/67 69/69/69 68/68/68
f 67/67/67 38/38/38 69/69/69
f 20/20/20 38/38/38 67/67/67
f 38/38/38 70/70/70 69/69/69
f 20/20/20 61/61/61 71/71/71
f 71/71/71 61/61/61 72/72/72
f 61/61/61 73/73/73 72/72/72
f 71/71/71 72/72/72 74/74/74
f 75/75/75 71/71/71 74/74/74
f 20/20/20 71/71/71 75/75/75
f 20/20/20 75/75/75 76/76/76
f 20/20/20 76/76/76 77/77/77
f 77/77/77 76/76/76 78/78/78
f 76/76/76 79/79/79 78/78/78
f 20/20/20 77/77/77 80/80/80
f 20/20/20 80/80/80 44/44/44
f 44/44/44 80/80/80 81/81/81
f 80/80/80 77/77/77 82/82/82
f 77/77/77 83/83/83 82/82/82
f 80/80/80 84/84/84 81/81/81
f 78/78/78 8/8/8 84/84/84
f 84/84/84 8/8/8 81/81/81
f 79/79/79 8/8/8 78/78/78
f 56/56/56 8/8/8 79/79/79
f 85/85/85 56/56/56 79/79/79
f 86/86/86 85/85/85 79/79/79
f 81/81/81 8/8/8 87/87/87
f 88/88/88 81/81/81 87/87/87
f 87/87/87 8/8/8 32/32/32
f 89/89/89 88/88/88 87/87/87
f 89/89/89 87/87/87 32/32/32
f 90/90/90 89/89/89 32/32/32
