g meshSnowyForestDioramaAurora
v 69.2161 347.97278 0
v 2.67859E-05 354.78998 411.99292
v 2.67859E-05 354.78998 0
v 69.2161 347.97278 411.99292
v 135.77225 327.7832 0
v 135.77225 327.7832 411.99292
v 197.11073 294.9971 0
v 197.11073 294.9971 411.99292
v 250.87439 250.87439 0
v 250.87439 250.87439 411.99292
v 294.99707 197.11075 0
v 294.99707 197.11075 411.99292
v 327.7832 135.77225 0
v 327.7832 135.77225 411.99292
v 347.97278 69.216095 0
v 347.97278 69.216095 411.99292
v 354.78998 0 0
v 354.78998 0 411.99292
v 347.97287 -69.21556 0
v 347.97287 -69.21556 411.99292
v 327.7834 -135.77177 0
v 327.7834 -135.77177 411.99292
v 294.99734 -197.11035 0
v 294.99734 -197.11035 411.99292
v 250.87471 -250.87408 0
v 250.87471 -250.87408 411.99292
v 197.11111 -294.99686 0
v 197.11111 -294.99686 411.99292
v 135.77261 -327.78305 0
v 135.77261 -327.78305 411.99292
v 69.21645 -347.97272 0
v 69.21645 -347.97272 411.99292
v 0.0003425849 -354.78998 0
v 0.0003425849 -354.78998 411.99292
v -69.21578 -347.97284 0
v -69.21578 -347.97284 411.99292
v -135.77197 -327.78333 0
v -135.77197 -327.78333 411.99292
v -197.11055 -294.99722 0
v -197.11055 -294.99722 411.99292
v -250.87425 -250.87456 0
v -250.87425 -250.87456 411.99292
v -294.99698 -197.11093 0
v -294.99698 -197.11093 411.99292
v -327.7831 -135.7724 0
v -327.7831 -135.7724 411.99292
v -347.97275 -69.21623 0
v -347.97275 -69.21623 411.99292
v -354.78998 -0.00011560525 0
v -354.78998 -0.00011560525 411.99292
v -347.9728 69.216 0
v -347.9728 69.216 411.99292
v -327.78323 135.77219 0
v -327.78323 135.77219 411.99292
v -294.9971 197.11073 0
v -294.9971 197.11073 411.99292
v -250.87439 250.87439 0
v -250.87439 250.87439 411.99292
v -197.11073 294.9971 0
v -197.11073 294.9971 411.99292
v -135.77219 327.7832 0
v -135.77219 327.7832 411.99292
v -69.21605 347.9728 0
v -69.21605 347.9728 411.99292
v 2.67859E-05 354.78998 0
v 2.67859E-05 354.78998 411.99292
vt 0.96875 0
vt 0.99999994 1
vt 0.99999994 0
vt 0.96875 1
vt 0.9375 0
vt 0.9375 1
vt 0.90624994 0
vt 0.90624994 1
vt 0.875 0
vt 0.875 1
vt 0.84375 0
vt 0.84375 1
vt 0.8125 0
vt 0.8125 1
vt 0.78125 0
vt 0.78125 1
vt 0.75 0
vt 0.75 1
vt 0.7187502 0
vt 0.7187502 1
vt 0.68750024 0
vt 0.68750024 1
vt 0.6562502 0
vt 0.6562502 1
vt 0.6250002 0
vt 0.6250002 1
vt 0.5937502 0
vt 0.5937502 1
vt 0.5625002 0
vt 0.5625002 1
vt 0.5312502 0
vt 0.5312502 1
vt 0.5000002 0
vt 0.5000002 1
vt 0.46875015 0
vt 0.46875015 1
vt 0.43750012 0
vt 0.43750012 1
vt 0.40625012 0
vt 0.40625012 1
vt 0.37500012 0
vt 0.37500012 1
vt 0.3437501 0
vt 0.3437501 1
vt 0.3125001 0
vt 0.3125001 1
vt 0.2812501 0
vt 0.2812501 1
vt 0.25000006 0
vt 0.25000006 1
vt 0.21875004 0
vt 0.21875004 1
vt 0.18750006 0
vt 0.18750006 1
vt 0.15625001 0
vt 0.15625001 1
vt 0.12500001 0
vt 0.12500001 1
vt 0.09375 0
vt 0.09375 1
vt 0.062499985 0
vt 0.062499985 1
vt 0.03125001 0
vt 0.03125001 1
vt -5.9604645E-08 0
vt -5.9604645E-08 1
vn 0.1950903 0.98078525 0
vn -0 1 0
vn -0 1 0
vn 0.1950903 0.98078525 0
vn 0.38268334 0.9238795 0
vn 0.38268334 0.9238795 0
vn 0.55557036 0.83146954 0
vn 0.55557036 0.83146954 0
vn 0.7071068 0.70710665 0
vn 0.7071068 0.70710665 0
vn 0.83146954 0.55557036 0
vn 0.83146954 0.55557036 0
vn 0.9238795 0.3826835 0
vn 0.9238795 0.3826835 0
vn 0.98078525 0.1950903 0
vn 0.98078525 0.1950903 0
vn 1 0 0
vn 1 0 0
vn 0.9807854 -0.19508925 0
vn 0.9807854 -0.19508925 0
vn 0.9238801 -0.38268197 0
vn 0.9238801 -0.38268197 0
vn 0.8314704 -0.5555691 0
vn 0.8314704 -0.5555691 0
vn 0.7071077 -0.70710576 0
vn 0.7071077 -0.70710576 0
vn 0.55557126 -0.8314689 0
vn 0.55557126 -0.8314689 0
vn 0.3826844 -0.9238791 0
vn 0.3826844 -0.9238791 0
vn 0.19509132 -0.98078513 0
vn 0.19509132 -0.98078513 0
vn -0 -1 0
vn -0 -1 0
vn -0.19508934 -0.9807854 0
vn -0.19508934 -0.9807854 0
vn -0.38268262 -0.9238799 0
vn -0.38268262 -0.9238799 0
vn -0.55556965 -0.83146995 0
vn -0.55556965 -0.83146995 0
vn -0.7071063 -0.7071072 0
vn -0.7071063 -0.7071072 0
vn -0.8314695 -0.55557054 0
vn -0.8314695 -0.55557054 0
vn -0.92387944 -0.38268375 0
vn -0.92387944 -0.38268375 0
vn -0.98078513 -0.19509088 0
vn -0.98078513 -0.19509088 0
vn -1 0 0
vn -1 0 0
vn -0.98078537 0.19509001 0
vn -0.98078537 0.19509001 0
vn -0.9238796 0.38268328 0
vn -0.9238796 0.38268328 0
vn -0.83146954 0.55557024 0
vn -0.83146954 0.55557024 0
vn -0.70710677 0.70710677 0
vn -0.70710677 0.70710677 0
vn -0.55557007 0.8314697 0
vn -0.55557007 0.8314697 0
vn -0.38268337 0.9238795 0
vn -0.38268337 0.9238795 0
vn -0.19509034 0.98078525 0
vn -0.19509034 0.98078525 0
vn -0 1 0
vn -0 1 0
g meshSnowyForestDioramaAurora_0
f 3/3/3 2/2/2 1/1/1
f 2/2/2 4/4/4 1/1/1
f 1/1/1 4/4/4 5/5/5
f 4/4/4 6/6/6 5/5/5
f 5/5/5 6/6/6 7/7/7
f 6/6/6 8/8/8 7/7/7
f 7/7/7 8/8/8 9/9/9
f 8/8/8 10/10/10 9/9/9
f 9/9/9 10/10/10 11/11/11
f 10/10/10 12/12/12 11/11/11
f 11/11/11 12/12/12 13/13/13
f 12/12/12 14/14/14 13/13/13
f 13/13/13 14/14/14 15/15/15
f 14/14/14 16/16/16 15/15/15
f 15/15/15 16/16/16 17/17/17
f 16/16/16 18/18/18 17/17/17
f 17/17/17 18/18/18 19/19/19
f 18/18/18 20/20/20 19/19/19
f 19/19/19 20/20/20 21/21/21
f 20/20/20 22/22/22 21/21/21
f 21/21/21 22/22/22 23/23/23
f 22/22/22 24/24/24 23/23/23
f 23/23/23 24/24/24 25/25/25
f 24/24/24 26/26/26 25/25/25
f 25/25/25 26/26/26 27/27/27
f 26/26/26 28/28/28 27/27/27
f 27/27/27 28/28/28 29/29/29
f 28/28/28 30/30/30 29/29/29
f 29/29/29 30/30/30 31/31/31
f 30/30/30 32/32/32 31/31/31
f 31/31/31 32/32/32 33/33/33
f 32/32/32 34/34/34 33/33/33
f 33/33/33 34/34/34 35/35/35
f 34/34/34 36/36/36 35/35/35
f 35/35/35 36/36/36 37/37/37
f 36/36/36 38/38/38 37/37/37
f 37/37/37 38/38/38 39/39/39
f 38/38/38 40/40/40 39/39/39
f 39/39/39 40/40/40 41/41/41
f 40/40/40 42/42/42 41/41/41
f 41/41/41 42/42/42 43/43/43
f 42/42/42 44/44/44 43/43/43
f 43/43/43 44/44/44 45/45/45
f 44/44/44 46/46/46 45/45/45
f 45/45/45 46/46/46 47/47/47
f 46/46/46 48/48/48 47/47/47
f 47/47/47 48/48/48 49/49/49
f 48/48/48 50/50/50 49/49/49
f 49/49/49 50/50/50 51/51/51
f 50/50/50 52/52/52 51/51/51
f 51/51/51 52/52/52 53/53/53
f 52/52/52 54/54/54 53/53/53
f 53/53/53 54/54/54 55/55/55
f 54/54/54 56/56/56 55/55/55
f 55/55/55 56/56/56 57/57/57
f 56/56/56 58/58/58 57/57/57
f 57/57/57 58/58/58 59/59/59
f 58/58/58 60/60/60 59/59/59
f 59/59/59 60/60/60 61/61/61
f 60/60/60 62/62/62 61/61/61
f 61/61/61 62/62/62 63/63/63
f 62/62/62 64/64/64 63/63/63
f 63/63/63 64/64/64 65/65/65
f 64/64/64 66/66/66 65/65/65
