g MissileProjectileMesh
v -1.8037888E-08 -1.1447718 -0.39474905
v 0.19737443 -1.1447718 -0.34186268
v 0.19737443 1.744772 -0.34186262
v -1.8037888E-08 1.744772 -0.39474893
v -2.9697519E-08 2.044772 -0.23684916
v 0.11842465 2.044772 -0.20511737
v 0.34186256 1.7447718 -0.19737446
v 0.19737443 1.744772 -0.34186262
v 0.20511754 2.0447717 -0.11842448
v 0.39474893 1.7447718 4.509472E-09
v 0.23684935 2.0447717 2.0200882E-07
v 0.34186256 -1.144772 -0.19737452
v 0.19737443 -1.1447718 -0.34186268
v 0.19737443 1.744772 -0.34186262
v 0.20511758 -1.5158662 -0.11842514
v 0.118424706 -1.5158662 -0.20511803
v -1.8037888E-08 -1.1447718 -0.39474905
v 3.4356454E-08 -1.5158662 -0.23684984
v 0.2368494 -1.5158662 -4.6793392E-07
v 0.39474893 -1.144772 -6.6077135E-08
v 0.20511758 -1.5158662 0.11842421
v 0.34186256 1.7447716 0.19737446
v 0.34186256 -1.144772 0.19737437
v 0.11842472 -1.5158664 0.20511714
v 0.19737446 -1.1447722 0.34186256
v 7.011971E-08 -1.5158664 0.23684886
v 0.19737446 1.7447716 0.34186256
v 4.1567546E-08 -1.1447722 0.3947488
v -0.11842461 -1.5158664 0.20511714
v 0.20511754 2.0447717 0.11842488
v 4.1567546E-08 1.7447716 0.39474887
v -0.1973744 -1.1447722 0.34186256
v -0.2051175 -1.5158662 0.1184243
v 0.11842466 2.0447717 0.20511775
v -0.1973744 1.7447716 0.34186262
v -0.34186256 -1.144772 0.19737452
v -0.23684934 -1.5158662 -3.6911266E-07
v 6.0657435E-09 2.0447717 0.23684953
v -0.34186256 1.7447716 0.19737455
v -0.11842466 2.0447717 0.20511779
v -0.20511755 2.0447717 0.11842494
v -0.39474893 -1.144772 9.862495E-08
v -0.20511761 -1.5158662 -0.11842505
v -0.39474893 1.7447718 1.6921155E-07
v -0.23684937 2.0447717 3.0083007E-07
v -0.34186274 -1.144772 -0.19737437
v -0.1184248 -1.5158662 -0.20511797
v -0.34186274 1.7447718 -0.19737425
v -0.20511766 2.0447717 -0.118424356
v 0.20511754 2.0447717 -0.11842448
v -0.19737473 1.744772 -0.34186256
v -0.11842486 2.044772 -0.20511734
v -0.19737473 -1.144772 -0.34186256
v 3.4356454E-08 -1.5158662 -0.23684984
v -1.8037888E-08 -1.1447718 -0.39474905
v -0.20511766 2.0447717 -0.118424356
v -0.11842486 2.044772 -0.20511734
v 0.11842465 2.044772 -0.20511737
v -2.9697519E-08 2.044772 -0.23684916
v -1.8037888E-08 1.744772 -0.39474893
v -0.19737473 1.744772 -0.34186256
v -0.19737473 -1.144772 -0.34186256
v -1.8037888E-08 -1.1447718 -0.39474905
v 0.118424706 -1.5158662 -0.20511803
v 3.4356454E-08 -1.5158662 -0.23684984
v -0.1184248 -1.5158662 -0.20511797
v 0.20511758 -1.5158662 -0.11842514
v -0.20511761 -1.5158662 -0.11842505
v 0.2368494 -1.5158662 -4.6793392E-07
v -0.23684934 -1.5158662 -3.6911266E-07
v 0.20511758 -1.5158662 0.11842421
v -0.2051175 -1.5158662 0.1184243
v 0.11842472 -1.5158664 0.20511714
v -0.11842461 -1.5158664 0.20511714
v 7.011971E-08 -1.5158664 0.23684886
v 0.22474892 1.4711584 -0.030579496
v 0.6447489 1.4711584 -0.030579496
v 0.6447489 1.4711584 0.030579258
v 0.22474892 1.4711584 0.030579258
v 0.6447489 1.4711584 -0.030579496
v 0.7847489 1.0511584 -0.030579496
v 0.7847489 1.0511584 0.030579258
v 0.6447489 1.4711584 0.030579258
v 0.7847489 1.0511584 -0.030579496
v 0.22474892 1.0511584 -0.030579496
v 0.22474892 1.0511584 0.030579258
v 0.7847489 1.0511584 0.030579258
v 0.22474892 1.4711584 -0.030579496
v 0.22474892 1.0511584 -0.030579496
v 0.7847489 1.0511584 -0.030579496
v 0.6447489 1.4711584 -0.030579496
v 0.6447489 1.4711584 0.030579258
v 0.7847489 1.0511584 0.030579258
v 0.22474892 1.0511584 0.030579258
v 0.22474892 1.4711584 0.030579258
v -0.030579403 1.4711585 -0.224749
v -0.030579388 1.4711585 -0.644749
v 0.030579388 1.4711585 -0.644749
v 0.030579343 1.4711585 -0.22474901
v -0.030579388 1.4711585 -0.644749
v -0.030579329 1.0511584 -0.78474903
v 0.030579448 1.0511584 -0.78474903
v 0.030579388 1.4711585 -0.644749
v -0.030579329 1.0511584 -0.78474903
v -0.030579343 1.0511584 -0.22474906
v 0.030579403 1.0511584 -0.22474907
v 0.030579448 1.0511584 -0.78474903
v -0.030579403 1.4711585 -0.224749
v -0.030579343 1.0511584 -0.22474906
v -0.030579329 1.0511584 -0.78474903
v -0.030579388 1.4711585 -0.644749
v 0.030579388 1.4711585 -0.644749
v 0.030579448 1.0511584 -0.78474903
v 0.030579403 1.0511584 -0.22474907
v 0.030579343 1.4711585 -0.22474901
v -0.22474892 1.4711584 0.030579329
v -0.6447489 1.4711584 0.030579269
v -0.6447489 1.4711584 -0.030579507
v -0.22474895 1.4711584 -0.030579433
v -0.6447489 1.4711584 0.030579269
v -0.7847489 1.0511584 0.03057915
v -0.7847489 1.0511584 -0.030579627
v -0.6447489 1.4711584 -0.030579507
v -0.7847489 1.0511584 0.03057915
v -0.22474894 1.0511584 0.03057921
v -0.22474895 1.0511584 -0.030579552
v -0.7847489 1.0511584 -0.030579627
v -0.22474892 1.4711584 0.030579329
v -0.22474894 1.0511584 0.03057921
v -0.7847489 1.0511584 0.03057915
v -0.6447489 1.4711584 0.030579269
v -0.6447489 1.4711584 -0.030579507
v -0.7847489 1.0511584 -0.030579627
v -0.22474895 1.0511584 -0.030579552
v -0.22474895 1.4711584 -0.030579433
v 0.030579373 1.4711583 0.22474885
v 0.030579269 1.4711583 0.64474887
v -0.030579507 1.4711583 0.64474887
v -0.030579373 1.4711583 0.22474886
v 0.030579269 1.4711583 0.64474887
v 0.03057921 1.0511582 0.7847488
v -0.030579567 1.0511582 0.7847488
v -0.030579507 1.4711583 0.64474887
v 0.03057921 1.0511582 0.7847488
v 0.030579329 1.0511583 0.2247488
v -0.030579448 1.0511583 0.2247488
v -0.030579567 1.0511582 0.7847488
v 0.030579373 1.4711583 0.22474885
v 0.030579329 1.0511583 0.2247488
v 0.03057921 1.0511582 0.7847488
v 0.030579269 1.4711583 0.64474887
v -0.030579507 1.4711583 0.64474887
v -0.030579567 1.0511582 0.7847488
v -0.030579448 1.0511583 0.2247488
v -0.030579373 1.4711583 0.22474886
vt 0.10422161 0.49999997
vt 0.10422161 0.5
vt 0.915746 0.5
vt 0.915746 0.49999997
vt 0.99999994 0.49999994
vt 0.99999994 0.49999997
vt 0.915746 0.49999997
vt 0.915746 0.5
vt 0.99999994 0.49999997
vt 0.915746 0.49999997
vt 0.99999994 0.49999997
vt 0.10422099 0.49999997
vt 0.10422161 0.5
vt 0.915746 0.5
vt 0 0.49999997
vt 0 0.49999997
vt 0.10422161 0.49999997
vt 0 0.5
vt 0 0.49999997
vt 0.10422099 0.49999997
vt 0 0.49999997
vt 0.9157448 0.49999997
vt 0.10422099 0.49999997
vt 0 0.49999997
vt 0.10422099 0.49999997
vt 0 0.49999997
vt 0.9157448 0.49999997
vt 0.10422099 0.49999997
vt 0 0.49999997
vt 0.99999994 0.49999997
vt 0.9157448 0.49999997
vt 0.10422099 0.49999997
vt 0 0.49999997
vt 0.99999994 0.49999997
vt 0.9157448 0.49999997
vt 0.10422099 0.49999997
vt 0 0.49999997
vt 0.99999994 0.49999997
vt 0.9157448 0.49999997
vt 0.99999994 0.49999997
vt 0.99999994 0.49999997
vt 0.10422099 0.49999997
vt 0 0.49999997
vt 0.915746 0.49999997
vt 0.99999994 0.49999997
vt 0.10422099 0.49999997
vt 0 0.49999997
vt 0.915746 0.49999997
vt 0.99999994 0.49999997
vt 0.99999994 0.49999997
vt 0.915746 0.5
vt 0.99999994 0.49999997
vt 0.10422099 0.5
vt 0 0.5
vt 0.10422161 0.49999997
vt 0.99999994 0.49999997
vt 0.99999994 0.49999997
vt 0.99999994 0.49999997
vt 0.99999994 0.49999994
vt 0.915746 0.49999997
vt 0.915746 0.5
vt 0.10422099 0.5
vt 0.10422161 0.49999997
vt 0.2441406 0.62499994
vt 0.2441406 0.625
vt 0.2441406 0.62499994
vt 0.2441406 0.62499994
vt 0.2441406 0.62499994
vt 0.2441406 0.62499994
vt 0.2441406 0.62499994
vt 0.2441406 0.62499994
vt 0.2441406 0.62499994
vt 0.2441406 0.62499994
vt 0.2441406 0.62499994
vt 0.2441406 0.62499994
vt 0.46347862 0.49999997
vt 0.46347862 0.49999997
vt 0.46347862 0.49999997
vt 0.46347862 0.49999997
vt 0.46347862 0.49999997
vt 0.379224 0.49999997
vt 0.379224 0.49999997
vt 0.46347862 0.49999997
vt 0.379224 0.49999997
vt 0.379224 0.49999997
vt 0.379224 0.49999997
vt 0.379224 0.49999997
vt 0.46347862 0.49999997
vt 0.379224 0.49999997
vt 0.379224 0.49999997
vt 0.46347862 0.49999997
vt 0.46347862 0.49999997
vt 0.379224 0.49999997
vt 0.379224 0.49999997
vt 0.46347862 0.49999997
vt 0.46347862 0.49999997
vt 0.46347862 0.49999997
vt 0.46347862 0.49999997
vt 0.46347862 0.49999997
vt 0.46347862 0.49999997
vt 0.379224 0.49999997
vt 0.379224 0.49999997
vt 0.46347862 0.49999997
vt 0.379224 0.49999997
vt 0.379224 0.49999997
vt 0.379224 0.49999997
vt 0.379224 0.49999997
vt 0.46347862 0.49999997
vt 0.379224 0.49999997
vt 0.379224 0.49999997
vt 0.46347862 0.49999997
vt 0.46347862 0.49999997
vt 0.379224 0.49999997
vt 0.379224 0.49999997
vt 0.46347862 0.49999997
vt 0.46347862 0.49999997
vt 0.46347862 0.49999997
vt 0.46347862 0.49999997
vt 0.46347862 0.49999997
vt 0.46347862 0.49999997
vt 0.379224 0.49999997
vt 0.379224 0.49999997
vt 0.46347862 0.49999997
vt 0.379224 0.49999997
vt 0.379224 0.49999997
vt 0.379224 0.49999997
vt 0.379224 0.49999997
vt 0.46347862 0.49999997
vt 0.379224 0.49999997
vt 0.379224 0.49999997
vt 0.46347862 0.49999997
vt 0.46347862 0.49999997
vt 0.379224 0.49999997
vt 0.379224 0.49999997
vt 0.46347862 0.49999997
vt 0.46347862 0.49999997
vt 0.46347862 0.49999997
vt 0.46347862 0.49999997
vt 0.46347862 0.49999997
vt 0.46347862 0.49999997
vt 0.379224 0.49999997
vt 0.379224 0.49999997
vt 0.46347862 0.49999997
vt 0.379224 0.49999997
vt 0.379224 0.49999997
vt 0.379224 0.49999997
vt 0.379224 0.49999997
vt 0.46347862 0.49999997
vt 0.379224 0.49999997
vt 0.379224 0.49999997
vt 0.46347862 0.49999997
vt 0.46347862 0.49999997
vt 0.379224 0.49999997
vt 0.379224 0.49999997
vt 0.46347862 0.49999997
vn -0 -0.19361524 -0.9810775
vn 0.490542 -0.19361652 -0.84963596
vn 0.48644754 0.23115337 -0.8425775
vn -0 0.23115152 -0.9729178
vn -0 0.81855315 -0.57443076
vn 0.2872168 0.8185572 -0.497464
vn 0.8425775 0.23115337 -0.48644754
vn 0.48644754 0.23115337 -0.8425775
vn 0.497464 0.8185572 -0.2872168
vn 0.9729178 0.23115152 0
vn 0.57443076 0.81855315 0
vn 0.84963596 -0.19361652 -0.490542
vn 0.490542 -0.19361652 -0.84963596
vn 0.48644754 0.23115337 -0.8425775
vn 0.5276071 -0.7929976 -0.30460703
vn 0.30460703 -0.7929976 -0.5276071
vn -0 -0.19361524 -0.9810775
vn -0 -0.7930028 -0.60921806
vn 0.60921806 -0.7930028 0
vn 0.9810775 -0.19361524 0
vn 0.5276071 -0.7929976 0.30460703
vn 0.8425775 0.23115337 0.48644754
vn 0.84963596 -0.19361652 0.490542
vn 0.30460703 -0.7929976 0.5276071
vn 0.490542 -0.19361652 0.84963596
vn -0 -0.7930028 0.60921806
vn 0.48644754 0.23115337 0.8425775
vn -0 -0.19361524 0.9810775
vn -0.30460703 -0.7929976 0.5276071
vn 0.497464 0.8185572 0.2872168
vn -0 0.23115152 0.9729178
vn -0.490542 -0.19361652 0.84963596
vn -0.5276071 -0.7929976 0.30460703
vn 0.2872168 0.8185572 0.497464
vn -0.48644754 0.23115337 0.8425775
vn -0.84963596 -0.19361652 0.490542
vn -0.60921806 -0.7930028 0
vn -0 0.81855315 0.57443076
vn -0.8425775 0.23115337 0.48644754
vn -0.2872168 0.8185572 0.497464
vn -0.497464 0.8185572 0.2872168
vn -0.9810775 -0.19361524 0
vn -0.5276071 -0.7929976 -0.30460703
vn -0.9729178 0.23115152 0
vn -0.57443076 0.81855315 0
vn -0.8496444 -0.19361149 -0.49052927
vn -0.30460703 -0.7929976 -0.5276071
vn -0.8425775 0.23115337 -0.48644754
vn -0.49746838 0.8185644 -0.2871888
vn 0.497464 0.8185572 -0.2872168
vn -0.48644754 0.23115337 -0.8425775
vn -0.2872168 0.8185572 -0.497464
vn -0.490542 -0.19361652 -0.84963596
vn -0 -0.7930028 -0.60921806
vn -0 -0.19361524 -0.9810775
vn -0.49746838 0.8185644 -0.2871888
vn -0.2872168 0.8185572 -0.497464
vn 0.2872168 0.8185572 -0.497464
vn -0 0.81855315 -0.57443076
vn -0 0.23115152 -0.9729178
vn -0.48644754 0.23115337 -0.8425775
vn -0.490542 -0.19361652 -0.84963596
vn -0 -0.19361524 -0.9810775
vn 0.30460703 -0.7929976 -0.5276071
vn -0 -0.7930028 -0.60921806
vn -0.30460703 -0.7929976 -0.5276071
vn 0.5276071 -0.7929976 -0.30460703
vn -0.5276071 -0.7929976 -0.30460703
vn 0.60921806 -0.7930028 0
vn -0.60921806 -0.7930028 0
vn 0.5276071 -0.7929976 0.30460703
vn -0.5276071 -0.7929976 0.30460703
vn 0.30460703 -0.7929976 0.5276071
vn -0.30460703 -0.7929976 0.5276071
vn -0 -0.7930028 0.60921806
vn -0 1 0
vn -0 1 0
vn -0 1 0
vn -0 1 0
vn 0.9486833 0.31622782 0
vn 0.9486833 0.31622782 0
vn 0.9486833 0.31622782 0
vn 0.9486833 0.31622782 0
vn -0 -1 0
vn -0 -1 0
vn -0 -1 0
vn -0 -1 0
vn -0 0 -1
vn -0 0 -1
vn -0 0 -1
vn -0 0 -1
vn -0 0 1
vn -0 0 1
vn -0 0 1
vn -0 0 1
vn -0 1 0
vn -0 1 0
vn -0 1 0
vn -0 1 0
vn -0 0.31622782 -0.9486833
vn -0 0.31622782 -0.9486833
vn -0 0.31622782 -0.9486833
vn -0 0.31622782 -0.9486833
vn -0 -1 0
vn -0 -1 0
vn -0 -1 0
vn -0 -1 0
vn -1 0 0
vn -1 0 0
vn -1 0 0
vn -1 0 0
vn 1 0 0
vn 1 0 0
vn 1 0 0
vn 1 0 0
vn -0 1 0
vn -0 1 0
vn -0 1 0
vn -0 1 0
vn -0.9486833 0.3162277 0
vn -0.9486833 0.3162277 0
vn -0.9486833 0.3162277 0
vn -0.9486833 0.3162277 0
vn -0 -1 0
vn -0 -1 0
vn -0 -1 0
vn -0 -1 0
vn -0 0 1
vn -0 0 1
vn -0 0 1
vn -0 0 1
vn -0 0 -1
vn -0 0 -1
vn -0 0 -1
vn -0 0 -1
vn -0 1 0
vn -0 1 0
vn -0 1 0
vn -0 1 0
vn -0 0.31622759 0.94868344
vn -0 0.31622759 0.94868344
vn -0 0.31622759 0.94868344
vn -0 0.31622759 0.94868344
vn -0 -1 0
vn -0 -1 0
vn -0 -1 0
vn -0 -1 0
vn 1 0 0
vn 1 0 0
vn 1 0 0
vn 1 0 0
vn -1 0 0
vn -1 0 0
vn -1 0 0
vn -1 0 0
g MissileProjectileMesh_0
f 3/3/3 2/2/2 1/1/1
f 4/4/4 3/3/3 1/1/1
f 4/4/4 5/5/5 3/3/3
f 5/5/5 6/6/6 3/3/3
f 8/8/8 6/6/6 7/7/7
f 6/6/6 9/9/9 7/7/7
f 7/7/7 9/9/9 10/10/10
f 9/9/9 11/11/11 10/10/10
f 7/7/7 10/10/10 12/12/12
f 7/7/7 12/12/12 13/13/13
f 14/14/14 7/7/7 13/13/13
f 12/12/12 15/15/15 13/13/13
f 15/15/15 16/16/16 13/13/13
f 13/13/13 16/16/16 17/17/17
f 16/16/16 18/18/18 17/17/17
f 19/19/19 15/15/15 12/12/12
f 20/20/20 19/19/19 12/12/12
f 10/10/10 20/20/20 12/12/12
f 21/21/21 19/19/19 20/20/20
f 10/10/10 22/22/22 20/20/20
f 10/10/10 11/11/11 22/22/22
f 23/23/23 21/21/21 20/20/20
f 22/22/22 23/23/23 20/20/20
f 24/24/24 21/21/21 23/23/23
f 25/25/25 24/24/24 23/23/23
f 26/26/26 24/24/24 25/25/25
f 22/22/22 27/27/27 23/23/23
f 27/27/27 25/25/25 23/23/23
f 28/28/28 26/26/26 25/25/25
f 29/29/29 26/26/26 28/28/28
f 11/11/11 30/30/30 22/22/22
f 22/22/22 30/30/30 27/27/27
f 27/27/27 31/31/31 25/25/25
f 31/31/31 28/28/28 25/25/25
f 32/32/32 29/29/29 28/28/28
f 33/33/33 29/29/29 32/32/32
f 30/30/30 34/34/34 27/27/27
f 27/27/27 34/34/34 31/31/31
f 31/31/31 35/35/35 28/28/28
f 35/35/35 32/32/32 28/28/28
f 36/36/36 33/33/33 32/32/32
f 37/37/37 33/33/33 36/36/36
f 34/34/34 38/38/38 31/31/31
f 31/31/31 38/38/38 35/35/35
f 35/35/35 39/39/39 32/32/32
f 39/39/39 36/36/36 32/32/32
f 38/38/38 40/40/40 35/35/35
f 40/40/40 38/38/38 34/34/34
f 35/35/35 40/40/40 39/39/39
f 41/41/41 40/40/40 34/34/34
f 41/41/41 34/34/34 30/30/30
f 40/40/40 41/41/41 39/39/39
f 42/42/42 37/37/37 36/36/36
f 43/43/43 37/37/37 42/42/42
f 39/39/39 44/44/44 36/36/36
f 39/39/39 41/41/41 44/44/44
f 44/44/44 42/42/42 36/36/36
f 45/45/45 41/41/41 30/30/30
f 41/41/41 45/45/45 44/44/44
f 45/45/45 30/30/30 11/11/11
f 46/46/46 43/43/43 42/42/42
f 47/47/47 43/43/43 46/46/46
f 44/44/44 48/48/48 42/42/42
f 44/44/44 45/45/45 48/48/48
f 48/48/48 46/46/46 42/42/42
f 49/49/49 45/45/45 11/11/11
f 45/45/45 49/49/49 48/48/48
f 49/49/49 11/11/11 50/50/50
f 48/48/48 49/49/49 51/51/51
f 48/48/48 51/51/51 46/46/46
f 49/49/49 52/52/52 51/51/51
f 51/51/51 53/53/53 46/46/46
f 53/53/53 47/47/47 46/46/46
f 54/54/54 47/47/47 53/53/53
f 55/55/55 54/54/54 53/53/53
f 57/57/57 56/56/56 50/50/50
f 57/57/57 50/50/50 58/58/58
f 58/58/58 59/59/59 57/57/57
f 57/57/57 59/59/59 60/60/60
f 61/61/61 57/57/57 60/60/60
f 61/61/61 60/60/60 62/62/62
f 60/60/60 63/63/63 62/62/62
f 66/66/66 65/65/65 64/64/64
f 64/64/64 67/67/67 66/66/66
f 67/67/67 68/68/68 66/66/66
f 67/67/67 69/69/69 68/68/68
f 69/69/69 70/70/70 68/68/68
f 69/69/69 71/71/71 70/70/70
f 71/71/71 72/72/72 70/70/70
f 71/71/71 73/73/73 72/72/72
f 73/73/73 74/74/74 72/72/72
f 73/73/73 75/75/75 74/74/74
f 78/78/78 77/77/77 76/76/76
f 79/79/79 78/78/78 76/76/76
f 82/82/82 81/81/81 80/80/80
f 83/83/83 82/82/82 80/80/80
f 86/86/86 85/85/85 84/84/84
f 87/87/87 86/86/86 84/84/84
f 90/90/90 89/89/89 88/88/88
f 91/91/91 90/90/90 88/88/88
f 94/94/94 93/93/93 92/92/92
f 95/95/95 94/94/94 92/92/92
f 98/98/98 97/97/97 96/96/96
f 99/99/99 98/98/98 96/96/96
f 102/102/102 101/101/101 100/100/100
f 103/103/103 102/102/102 100/100/100
f 106/106/106 105/105/105 104/104/104
f 107/107/107 106/106/106 104/104/104
f 110/110/110 109/109/109 108/108/108
f 111/111/111 110/110/110 108/108/108
f 114/114/114 113/113/113 112/112/112
f 115/115/115 114/114/114 112/112/112
f 118/118/118 117/117/117 116/116/116
f 119/119/119 118/118/118 116/116/116
f 122/122/122 121/121/121 120/120/120
f 123/123/123 122/122/122 120/120/120
f 126/126/126 125/125/125 124/124/124
f 127/127/127 126/126/126 124/124/124
f 130/130/130 129/129/129 128/128/128
f 131/131/131 130/130/130 128/128/128
f 134/134/134 133/133/133 132/132/132
f 135/135/135 134/134/134 132/132/132
f 138/138/138 137/137/137 136/136/136
f 139/139/139 138/138/138 136/136/136
f 142/142/142 141/141/141 140/140/140
f 143/143/143 142/142/142 140/140/140
f 146/146/146 145/145/145 144/144/144
f 147/147/147 146/146/146 144/144/144
f 150/150/150 149/149/149 148/148/148
f 151/151/151 150/150/150 148/148/148
f 154/154/154 153/153/153 152/152/152
f 155/155/155 154/154/154 152/152/152
