g MoonArenaColumn2
v -0.779414 -8.466853 -0.37324905
v 0.7794141 -4.621815 6.856777
v 0.7794141 -8.466854 -0.37324905
v -0.779414 -4.621815 6.856777
v 0.7794141 -4.0704246 5.5101104
v -0.779414 -4.070424 5.5101104
v 0.7794141 -3.519033 4.163443
v -0.779414 -3.519033 4.163443
v 0.7794141 -2.9941509 4.163443
v -0.779414 -2.994151 4.163443
v 0.60540605 -2.469269 4.163443
v -0.60540605 -2.4692688 4.163443
v 0.3971456 -1.9443867 4.163443
v -0.39714557 -1.944387 4.163443
v 0.29381323 -1.4195051 4.163443
v -0.2938132 -1.419505 4.163443
vn -0 -0.88291407 0.46953452
vn -0 0.05005178 0.99874663
vn -0 -0.88291407 0.46953452
vn -0 0.05005178 0.99874663
vn -0 0.9254385 0.37889785
vn -0 0.9254385 0.37889785
vn -0 0.55725414 0.830342
vn -0 0.55725414 0.830342
vn -0 0 1
vn -0 0 1
vn -0 0 1
vn -0 0 1
vn -0 0 1
vn -0 0 1
vn -0 0 1
vn -0 0 1
g MoonArenaColumn2_0
f 3/3/3 2/2/2 1/1/1
f 2/2/2 4/4/4 1/1/1
f 2/2/2 5/5/5 4/4/4
f 5/5/5 6/6/6 4/4/4
f 5/5/5 7/7/7 6/6/6
f 7/7/7 8/8/8 6/6/6
f 7/7/7 9/9/9 8/8/8
f 9/9/9 10/10/10 8/8/8
f 9/9/9 11/11/11 10/10/10
f 11/11/11 12/12/12 10/10/10
f 11/11/11 13/13/13 12/12/12
f 13/13/13 14/14/14 12/12/12
f 13/13/13 15/15/15 14/14/14
f 15/15/15 16/16/16 14/14/14
