g Moon_Barrier_Small
v -0.30972797 0.30972824 0
v -0.1676234 0.40467942 0
v -0.1676234 0.40467942 2
v -0.30972797 0.30972824 2
v -0.40467924 0.16762373 0
v -0.40467924 0.16762373 2
v -0.43802166 3.1298244E-09 0
v -0.43802166 3.1298244E-09 2
v -0.40467924 -0.16762371 0
v -0.40467924 -0.16762371 2
v -0.309728 -0.30972824 0
v -0.309728 -0.30972824 2
v -0.1676235 -0.4046793 0
v -0.1676235 -0.4046793 2
v 1.1952451E-07 -0.43802172 0
v 1.1952451E-07 -0.43802172 2
v 0.16762373 -0.4046793 0
v 0.16762373 -0.4046793 2
v 0.30972815 -0.30972812 0
v 0.30972815 -0.30972812 2
v 0.4046793 -0.1676237 0
v 0.4046793 -0.1676237 2
v 0.43802178 -2.124007E-08 0
v 0.43802178 -2.124007E-08 2
v 0.4046793 0.16762365 0
v 0.4046793 0.16762365 2
v 0.30972815 0.30972812 0
v 0.30972815 0.30972812 2
v 0.16762371 0.4046793 0
v 0.16762371 0.4046793 2
v 5.3385072E-08 0.43802172 0
v 5.3385072E-08 0.43802172 2
v -0.1676234 0.40467942 0
v -0.1676234 0.40467942 2
v 2.690272 0.30972824 0
v 2.8323765 0.40467942 0
v 2.8323765 0.40467942 2
v 2.690272 0.30972824 2
v 2.5953207 0.16762373 0
v 2.5953207 0.16762373 2
v 2.5619783 3.1298244E-09 0
v 2.5619783 3.1298244E-09 2
v 2.5953207 -0.16762371 0
v 2.5953207 -0.16762371 2
v 2.690272 -0.30972824 0
v 2.690272 -0.30972824 2
v 2.8323765 -0.4046793 0
v 2.8323765 -0.4046793 2
v 3.0000002 -0.43802172 0
v 3.0000002 -0.43802172 2
v 3.1676238 -0.4046793 0
v 3.1676238 -0.4046793 2
v 3.3097281 -0.30972812 0
v 3.3097281 -0.30972812 2
v 3.4046793 -0.1676237 0
v 3.4046793 -0.1676237 2
v 3.4380217 -2.124007E-08 0
v 3.4380217 -2.124007E-08 2
v 3.4046793 0.16762365 0
v 3.4046793 0.16762365 2
v 3.3097281 0.30972812 0
v 3.3097281 0.30972812 2
v 3.1676238 0.4046793 0
v 3.1676238 0.4046793 2
v 3 0.43802172 0
v 3 0.43802172 2
v 2.8323765 0.40467942 0
v 2.8323765 0.40467942 2
v -1.5 -0.5 1.9
v -1.5 0.5 1.9
v -1.5 0.5 2.3999999
v -1.5 -0.5 2.3999999
v 4.5 -0.5 1.9
v 4.5 -0.5 2.3999999
v 4.5 0.5 1.9
v 4.5 0.5 2.3999999
v -1.5 0.5 1.9
v -1.5 0.5 2.3999999
v -1.5 0.5 1.9
v -1.5 -0.5 1.9
v 4.5 -0.5 1.9
v 4.5 0.5 1.9
v 4.5 0.5 2.3999999
v 4.5 -0.5 2.3999999
v -1.5 -0.5 2.3999999
v -1.5 0.5 2.3999999
v 5.3385072E-08 0.43802172 0
v 0.16762371 0.4046793 0
v 0.16762371 0.4046793 2
v 5.3385072E-08 0.43802172 2
v 0.30972815 0.30972812 2
v -0.1676234 0.40467942 0
v 0.30972815 0.30972812 0
v -0.1676234 0.40467942 2
v 0.4046793 0.16762365 2
v -0.30972797 0.30972824 0
v 0.4046793 0.16762365 0
v -0.30972797 0.30972824 2
v 0.43802178 -2.124007E-08 2
v -0.40467924 0.16762373 0
v 0.43802178 -2.124007E-08 0
v -0.40467924 0.16762373 2
v 0.4046793 -0.1676237 2
v -0.43802166 3.1298244E-09 0
v 0.4046793 -0.1676237 0
v -0.43802166 3.1298244E-09 2
v 0.30972815 -0.30972812 2
v -0.40467924 -0.16762371 0
v 0.30972815 -0.30972812 0
v -0.40467924 -0.16762371 2
v 0.16762373 -0.4046793 2
v -0.309728 -0.30972824 0
v 0.16762373 -0.4046793 0
v -0.309728 -0.30972824 2
v 1.1952451E-07 -0.43802172 2
v -0.1676235 -0.4046793 0
v 1.1952451E-07 -0.43802172 0
v -0.1676235 -0.4046793 2
v 3 0.43802172 0
v 3.1676238 0.4046793 0
v 3.1676238 0.4046793 2
v 3 0.43802172 2
v 3.3097281 0.30972812 2
v 2.8323765 0.40467942 0
v 3.3097281 0.30972812 0
v 2.8323765 0.40467942 2
v 3.4046793 0.16762365 2
v 2.690272 0.30972824 0
v 3.4046793 0.16762365 0
v 2.690272 0.30972824 2
v 3.4380217 -2.124007E-08 2
v 2.5953207 0.16762373 0
v 3.4380217 -2.124007E-08 0
v 2.5953207 0.16762373 2
v 3.4046793 -0.1676237 2
v 2.5619783 3.1298244E-09 0
v 3.4046793 -0.1676237 0
v 2.5619783 3.1298244E-09 2
v 3.3097281 -0.30972812 2
v 2.5953207 -0.16762371 0
v 3.3097281 -0.30972812 0
v 2.5953207 -0.16762371 2
v 3.1676238 -0.4046793 2
v 2.690272 -0.30972824 0
v 3.1676238 -0.4046793 0
v 2.690272 -0.30972824 2
v 3.0000002 -0.43802172 2
v 2.8323765 -0.4046793 0
v 3.0000002 -0.43802172 0
v 2.8323765 -0.4046793 2
vt 0.19596557 0.46382797
vt 0.15467636 0.46382797
vt 0.15467627 0.8106796
vt 0.19596554 0.8106796
vt 0.23725481 0.46382797
vt 0.23725472 0.8106796
vt 0.27854407 0.46382797
vt 0.27854398 0.8106796
vt 0.31983334 0.46382797
vt 0.31983325 0.8106796
vt 0.36112252 0.46382797
vt 0.36112252 0.8106796
vt 0.40241176 0.46382797
vt 0.40241176 0.8106796
vt 0.4437009 0.46382797
vt 0.44370097 0.8106796
vt 0.4849901 0.46382797
vt 0.48499018 0.8106796
vt 0.5262793 0.46382797
vt 0.5262794 0.8106796
vt 0.5675685 0.46382797
vt 0.56756854 0.8106796
vt 0.60885775 0.46382797
vt 0.60885775 0.8106796
vt 0.6501469 0.46382797
vt 0.6501469 0.8106796
vt 0.69143605 0.46382797
vt 0.69143605 0.8106796
vt 0.7327253 0.46382797
vt 0.7327253 0.8106796
vt 0.7740146 0.46382797
vt 0.7740144 0.8106796
vt 0.8153036 0.46382797
vt 0.8153036 0.8106796
vt 0.19596557 0.46382797
vt 0.15467636 0.46382797
vt 0.15467627 0.8106796
vt 0.19596554 0.8106796
vt 0.23725481 0.46382797
vt 0.23725472 0.8106796
vt 0.27854407 0.46382797
vt 0.27854398 0.8106796
vt 0.31983334 0.46382797
vt 0.31983325 0.8106796
vt 0.36112252 0.46382797
vt 0.36112252 0.8106796
vt 0.40241176 0.46382797
vt 0.40241176 0.8106796
vt 0.4437009 0.46382797
vt 0.44370097 0.8106796
vt 0.4849901 0.46382797
vt 0.48499018 0.8106796
vt 0.5262793 0.46382797
vt 0.5262794 0.8106796
vt 0.5675685 0.46382797
vt 0.56756854 0.8106796
vt 0.60885775 0.46382797
vt 0.60885775 0.8106796
vt 0.6501469 0.46382797
vt 0.6501469 0.8106796
vt 0.69143605 0.46382797
vt 0.69143605 0.8106796
vt 0.7327253 0.46382797
vt 0.7327253 0.8106796
vt 0.7740146 0.46382797
vt 0.7740144 0.8106796
vt 0.8153036 0.46382797
vt 0.8153036 0.8106796
vt 0.91691977 0.73956764
vt 1.0002477 0.73956764
vt 1.000248 0.42708775
vt 0.9169199 0.42708775
vt 0.5002801 0.73956794
vt 0.50028026 0.42708808
vt 0.41695213 0.73956794
vt 0.41695237 0.42708808
vt 0.00031244755 0.7395675
vt 0.00031244755 0.42708766
vt 8.9426714E-05 0.20023257
vt 8.9426714E-05 0.40019673
vt 0.9999106 0.40019673
vt 0.9999106 0.20023249
vt 0.9999106 0.20005365
vt 0.9999106 8.949823E-05
vt 8.9426714E-05 8.9426714E-05
vt 8.9426714E-05 0.20005365
vt 0 0
vt 0 0
vt 0 0
vt 0 0
vt 0 0
vt 0 0
vt 0 0
vt 0 0
vt 0 0
vt 0 0
vt 0 0
vt 0 0
vt 0 0
vt 0 0
vt 0 0
vt 0 0
vt 0 0
vt 0 0
vt 0 0
vt 0 0
vt 0 0
vt 0 0
vt 0 0
vt 0 0
vt 0 0
vt 0 0
vt 0 0
vt 0 0
vt 0 0
vt 0 0
vt 0 0
vt 0 0
vt 0 0
vt 0 0
vt 0 0
vt 0 0
vt 0 0
vt 0 0
vt 0 0
vt 0 0
vt 0 0
vt 0 0
vt 0 0
vt 0 0
vt 0 0
vt 0 0
vt 0 0
vt 0 0
vt 0 0
vt 0 0
vt 0 0
vt 0 0
vt 0 0
vt 0 0
vt 0 0
vt 0 0
vt 0 0
vt 0 0
vt 0 0
vt 0 0
vt 0 0
vt 0 0
vt 0 0
vt 0 0
vn -0.70710677 0.70710677 0
vn -0.38268155 0.92388034 0
vn -0.38268155 0.92388034 0
vn -0.70710677 0.70710677 0
vn -0.92388034 0.38268155 0
vn -0.92388034 0.38268155 0
vn -1 0 0
vn -1 0 0
vn -0.92388034 -0.38268155 0
vn -0.92388034 -0.38268155 0
vn -0.70710677 -0.70710677 0
vn -0.70710677 -0.70710677 0
vn -0.38268155 -0.92388034 0
vn -0.38268155 -0.92388034 0
vn -0 -1 0
vn -0 -1 0
vn 0.38268155 -0.92388034 0
vn 0.38268155 -0.92388034 0
vn 0.70710677 -0.70710677 0
vn 0.70710677 -0.70710677 0
vn 0.92388034 -0.38268155 0
vn 0.92388034 -0.38268155 0
vn 1 0 0
vn 1 0 0
vn 0.92388034 0.38268155 0
vn 0.92388034 0.38268155 0
vn 0.70710677 0.70710677 0
vn 0.70710677 0.70710677 0
vn 0.38268155 0.92388034 0
vn 0.38268155 0.92388034 0
vn -0 1 0
vn -0 1 0
vn -0.38268155 0.92388034 0
vn -0.38268155 0.92388034 0
vn -0.70710677 0.70710677 0
vn -0.38268155 0.92388034 0
vn -0.38268155 0.92388034 0
vn -0.70710677 0.70710677 0
vn -0.92388034 0.38268155 0
vn -0.92388034 0.38268155 0
vn -1 0 0
vn -1 0 0
vn -0.92388034 -0.38268155 0
vn -0.92388034 -0.38268155 0
vn -0.70710677 -0.70710677 0
vn -0.70710677 -0.70710677 0
vn -0.38268155 -0.92388034 0
vn -0.38268155 -0.92388034 0
vn -0 -1 0
vn -0 -1 0
vn 0.38268155 -0.92388034 0
vn 0.38268155 -0.92388034 0
vn 0.70710677 -0.70710677 0
vn 0.70710677 -0.70710677 0
vn 0.92388034 -0.38268155 0
vn 0.92388034 -0.38268155 0
vn 1 0 0
vn 1 0 0
vn 0.92388034 0.38268155 0
vn 0.92388034 0.38268155 0
vn 0.70710677 0.70710677 0
vn 0.70710677 0.70710677 0
vn 0.38268155 0.92388034 0
vn 0.38268155 0.92388034 0
vn -0 1 0
vn -0 1 0
vn -0.38268155 0.92388034 0
vn -0.38268155 0.92388034 0
vn -0.57735026 -0.57735026 -0.57735026
vn -0.57735026 0.57735026 -0.57735026
vn -0.57735026 0.57735026 0.57735026
vn -0.57735026 -0.57735026 0.57735026
vn 0.57735026 -0.57735026 -0.57735026
vn 0.57735026 -0.57735026 0.57735026
vn 0.57735026 0.57735026 -0.57735026
vn 0.57735026 0.57735026 0.57735026
vn -0.57735026 0.57735026 -0.57735026
vn -0.57735026 0.57735026 0.57735026
vn -0.57735026 0.57735026 -0.57735026
vn -0.57735026 -0.57735026 -0.57735026
vn 0.57735026 -0.57735026 -0.57735026
vn 0.57735026 0.57735026 -0.57735026
vn 0.57735026 0.57735026 0.57735026
vn 0.57735026 -0.57735026 0.57735026
vn -0.57735026 -0.57735026 0.57735026
vn -0.57735026 0.57735026 0.57735026
vn -0 1 0
vn 0.38268155 0.92388034 0
vn 0.38268155 0.92388034 0
vn -0 1 0
vn 0.70710677 0.70710677 0
vn -0.38268155 0.92388034 0
vn 0.70710677 0.70710677 0
vn -0.38268155 0.92388034 0
vn 0.92388034 0.38268155 0
vn -0.70710677 0.70710677 0
vn 0.92388034 0.38268155 0
vn -0.70710677 0.70710677 0
vn 1 0 0
vn -0.92388034 0.38268155 0
vn 1 0 0
vn -0.92388034 0.38268155 0
vn 0.92388034 -0.38268155 0
vn -1 0 0
vn 0.92388034 -0.38268155 0
vn -1 0 0
vn 0.70710677 -0.70710677 0
vn -0.92388034 -0.38268155 0
vn 0.70710677 -0.70710677 0
vn -0.92388034 -0.38268155 0
vn 0.38268155 -0.92388034 0
vn -0.70710677 -0.70710677 0
vn 0.38268155 -0.92388034 0
vn -0.70710677 -0.70710677 0
vn -0 -1 0
vn -0.38268155 -0.92388034 0
vn -0 -1 0
vn -0.38268155 -0.92388034 0
vn -0 1 0
vn 0.38268155 0.92388034 0
vn 0.38268155 0.92388034 0
vn -0 1 0
vn 0.70710677 0.70710677 0
vn -0.38268155 0.92388034 0
vn 0.70710677 0.70710677 0
vn -0.38268155 0.92388034 0
vn 0.92388034 0.38268155 0
vn -0.70710677 0.70710677 0
vn 0.92388034 0.38268155 0
vn -0.70710677 0.70710677 0
vn 1 0 0
vn -0.92388034 0.38268155 0
vn 1 0 0
vn -0.92388034 0.38268155 0
vn 0.92388034 -0.38268155 0
vn -1 0 0
vn 0.92388034 -0.38268155 0
vn -1 0 0
vn 0.70710677 -0.70710677 0
vn -0.92388034 -0.38268155 0
vn 0.70710677 -0.70710677 0
vn -0.92388034 -0.38268155 0
vn 0.38268155 -0.92388034 0
vn -0.70710677 -0.70710677 0
vn 0.38268155 -0.92388034 0
vn -0.70710677 -0.70710677 0
vn -0 -1 0
vn -0.38268155 -0.92388034 0
vn -0 -1 0
vn -0.38268155 -0.92388034 0
g Moon_Barrier_Small_0
f 3/3/3 2/2/2 1/1/1
f 4/4/4 3/3/3 1/1/1
f 4/4/4 1/1/1 5/5/5
f 6/6/6 4/4/4 5/5/5
f 6/6/6 5/5/5 7/7/7
f 8/8/8 6/6/6 7/7/7
f 8/8/8 7/7/7 9/9/9
f 10/10/10 8/8/8 9/9/9
f 10/10/10 9/9/9 11/11/11
f 12/12/12 10/10/10 11/11/11
f 12/12/12 11/11/11 13/13/13
f 14/14/14 12/12/12 13/13/13
f 14/14/14 13/13/13 15/15/15
f 16/16/16 14/14/14 15/15/15
f 16/16/16 15/15/15 17/17/17
f 18/18/18 16/16/16 17/17/17
f 18/18/18 17/17/17 19/19/19
f 20/20/20 18/18/18 19/19/19
f 20/20/20 19/19/19 21/21/21
f 22/22/22 20/20/20 21/21/21
f 22/22/22 21/21/21 23/23/23
f 24/24/24 22/22/22 23/23/23
f 24/24/24 23/23/23 25/25/25
f 26/26/26 24/24/24 25/25/25
f 26/26/26 25/25/25 27/27/27
f 28/28/28 26/26/26 27/27/27
f 28/28/28 27/27/27 29/29/29
f 30/30/30 28/28/28 29/29/29
f 30/30/30 29/29/29 31/31/31
f 32/32/32 30/30/30 31/31/31
f 32/32/32 31/31/31 33/33/33
f 34/34/34 32/32/32 33/33/33
f 37/37/37 36/36/36 35/35/35
f 38/38/38 37/37/37 35/35/35
f 38/38/38 35/35/35 39/39/39
f 40/40/40 38/38/38 39/39/39
f 40/40/40 39/39/39 41/41/41
f 42/42/42 40/40/40 41/41/41
f 42/42/42 41/41/41 43/43/43
f 44/44/44 42/42/42 43/43/43
f 44/44/44 43/43/43 45/45/45
f 46/46/46 44/44/44 45/45/45
f 46/46/46 45/45/45 47/47/47
f 48/48/48 46/46/46 47/47/47
f 48/48/48 47/47/47 49/49/49
f 50/50/50 48/48/48 49/49/49
f 50/50/50 49/49/49 51/51/51
f 52/52/52 50/50/50 51/51/51
f 52/52/52 51/51/51 53/53/53
f 54/54/54 52/52/52 53/53/53
f 54/54/54 53/53/53 55/55/55
f 56/56/56 54/54/54 55/55/55
f 56/56/56 55/55/55 57/57/57
f 58/58/58 56/56/56 57/57/57
f 58/58/58 57/57/57 59/59/59
f 60/60/60 58/58/58 59/59/59
f 60/60/60 59/59/59 61/61/61
f 62/62/62 60/60/60 61/61/61
f 62/62/62 61/61/61 63/63/63
f 64/64/64 62/62/62 63/63/63
f 64/64/64 63/63/63 65/65/65
f 66/66/66 64/64/64 65/65/65
f 66/66/66 65/65/65 67/67/67
f 68/68/68 66/66/66 67/67/67
f 71/71/71 70/70/70 69/69/69
f 72/72/72 71/71/71 69/69/69
f 72/72/72 69/69/69 73/73/73
f 74/74/74 72/72/72 73/73/73
f 74/74/74 73/73/73 75/75/75
f 76/76/76 74/74/74 75/75/75
f 76/76/76 75/75/75 77/77/77
f 78/78/78 76/76/76 77/77/77
f 81/81/81 80/80/80 79/79/79
f 82/82/82 81/81/81 79/79/79
f 85/85/85 84/84/84 83/83/83
f 86/86/86 85/85/85 83/83/83
f 89/89/89 88/88/88 87/87/87
f 90/90/90 89/89/89 87/87/87
f 89/89/89 91/91/91 88/88/88
f 90/90/90 87/87/87 92/92/92
f 91/91/91 93/93/93 88/88/88
f 94/94/94 90/90/90 92/92/92
f 91/91/91 95/95/95 93/93/93
f 94/94/94 92/92/92 96/96/96
f 95/95/95 97/97/97 93/93/93
f 98/98/98 94/94/94 96/96/96
f 95/95/95 99/99/99 97/97/97
f 98/98/98 96/96/96 100/100/100
f 99/99/99 101/101/101 97/97/97
f 102/102/102 98/98/98 100/100/100
f 99/99/99 103/103/103 101/101/101
f 102/102/102 100/100/100 104/104/104
f 103/103/103 105/105/105 101/101/101
f 106/106/106 102/102/102 104/104/104
f 103/103/103 107/107/107 105/105/105
f 106/106/106 104/104/104 108/108/108
f 107/107/107 109/109/109 105/105/105
f 110/110/110 106/106/106 108/108/108
f 107/107/107 111/111/111 109/109/109
f 110/110/110 108/108/108 112/112/112
f 111/111/111 113/113/113 109/109/109
f 114/114/114 110/110/110 112/112/112
f 111/111/111 115/115/115 113/113/113
f 114/114/114 112/112/112 116/116/116
f 115/115/115 117/117/117 113/113/113
f 118/118/118 114/114/114 116/116/116
f 118/118/118 116/116/116 117/117/117
f 115/115/115 118/118/118 117/117/117
f 121/121/121 120/120/120 119/119/119
f 122/122/122 121/121/121 119/119/119
f 121/121/121 123/123/123 120/120/120
f 122/122/122 119/119/119 124/124/124
f 123/123/123 125/125/125 120/120/120
f 126/126/126 122/122/122 124/124/124
f 123/123/123 127/127/127 125/125/125
f 126/126/126 124/124/124 128/128/128
f 127/127/127 129/129/129 125/125/125
f 130/130/130 126/126/126 128/128/128
f 127/127/127 131/131/131 129/129/129
f 130/130/130 128/128/128 132/132/132
f 131/131/131 133/133/133 129/129/129
f 134/134/134 130/130/130 132/132/132
f 131/131/131 135/135/135 133/133/133
f 134/134/134 132/132/132 136/136/136
f 135/135/135 137/137/137 133/133/133
f 138/138/138 134/134/134 136/136/136
f 135/135/135 139/139/139 137/137/137
f 138/138/138 136/136/136 140/140/140
f 139/139/139 141/141/141 137/137/137
f 142/142/142 138/138/138 140/140/140
f 139/139/139 143/143/143 141/141/141
f 142/142/142 140/140/140 144/144/144
f 143/143/143 145/145/145 141/141/141
f 146/146/146 142/142/142 144/144/144
f 143/143/143 147/147/147 145/145/145
f 146/146/146 144/144/144 148/148/148
f 147/147/147 149/149/149 145/145/145
f 150/150/150 146/146/146 148/148/148
f 150/150/150 148/148/148 149/149/149
f 147/147/147 150/150/150 149/149/149
