g Moon_Barrier_Small
v -0.30972797 0.30972824 0
v -0.1676234 0.40467942 0
v -0.1676234 0.40467942 2
v -0.30972797 0.30972824 2
v -0.40467924 0.16762373 0
v -0.40467924 0.16762373 2
v -0.43802166 3.1298244E-09 0
v -0.43802166 3.1298244E-09 2
v -0.40467924 -0.16762371 0
v -0.40467924 -0.16762371 2
v -0.309728 -0.30972824 0
v -0.309728 -0.30972824 2
v -0.1676235 -0.4046793 0
v -0.1676235 -0.4046793 2
v 1.1952451E-07 -0.43802172 0
v 1.1952451E-07 -0.43802172 2
v 0.16762373 -0.4046793 0
v 0.16762373 -0.4046793 2
v 0.30972815 -0.30972812 0
v 0.30972815 -0.30972812 2
v 0.4046793 -0.1676237 0
v 0.4046793 -0.1676237 2
v 0.43802178 -2.124007E-08 0
v 0.43802178 -2.124007E-08 2
v 0.4046793 0.16762365 0
v 0.4046793 0.16762365 2
v 0.30972815 0.30972812 0
v 0.30972815 0.30972812 2
v 0.16762371 0.4046793 0
v 0.16762371 0.4046793 2
v 5.3385072E-08 0.43802172 0
v 5.3385072E-08 0.43802172 2
v -0.1676234 0.40467942 0
v -0.1676234 0.40467942 2
v 2.690272 0.30972824 0
v 2.8323765 0.40467942 0
v 2.8323765 0.40467942 2
v 2.690272 0.30972824 2
v 2.5953207 0.16762373 0
v 2.5953207 0.16762373 2
v 2.5619783 3.1298244E-09 0
v 2.5619783 3.1298244E-09 2
v 2.5953207 -0.16762371 0
v 2.5953207 -0.16762371 2
v 2.690272 -0.30972824 0
v 2.690272 -0.30972824 2
v 2.8323765 -0.4046793 0
v 2.8323765 -0.4046793 2
v 3.0000002 -0.43802172 0
v 3.0000002 -0.43802172 2
v 3.1676238 -0.4046793 0
v 3.1676238 -0.4046793 2
v 3.3097281 -0.30972812 0
v 3.3097281 -0.30972812 2
v 3.4046793 -0.1676237 0
v 3.4046793 -0.1676237 2
v 3.4380217 -2.124007E-08 0
v 3.4380217 -2.124007E-08 2
v 3.4046793 0.16762365 0
v 3.4046793 0.16762365 2
v 3.3097281 0.30972812 0
v 3.3097281 0.30972812 2
v 3.1676238 0.4046793 0
v 3.1676238 0.4046793 2
v 3 0.43802172 0
v 3 0.43802172 2
v 2.8323765 0.40467942 0
v 2.8323765 0.40467942 2
v -1.5 -0.5 1.9
v -1.5 0.5 1.9
v -1.5 0.5 2.3999999
v -1.5 -0.5 2.3999999
v -1.5 0.5 1.9
v 4.5 0.5 1.9
v 4.5 0.5 2.3999999
v -1.5 0.5 2.3999999
v 4.5 0.5 1.9
v 4.5 -0.5 1.9
v 4.5 -0.5 2.3999999
v 4.5 0.5 2.3999999
v 4.5 -0.5 1.9
v -1.5 -0.5 1.9
v -1.5 -0.5 2.3999999
v 4.5 -0.5 2.3999999
v -1.5 0.5 1.9
v -1.5 -0.5 1.9
v 4.5 -0.5 1.9
v 4.5 0.5 1.9
v 4.5 0.5 2.3999999
v 4.5 -0.5 2.3999999
v -1.5 -0.5 2.3999999
v -1.5 0.5 2.3999999
v 5.3385072E-08 0.43802172 0
v 0.16762371 0.4046793 0
v 0.16762371 0.4046793 2
v 5.3385072E-08 0.43802172 2
v 0.30972815 0.30972812 2
v -0.1676234 0.40467942 0
v 0.30972815 0.30972812 0
v -0.1676234 0.40467942 2
v 0.4046793 0.16762365 2
v -0.30972797 0.30972824 0
v 0.4046793 0.16762365 0
v -0.30972797 0.30972824 2
v 0.43802178 -2.124007E-08 2
v -0.40467924 0.16762373 0
v 0.43802178 -2.124007E-08 0
v -0.40467924 0.16762373 2
v 0.4046793 -0.1676237 2
v -0.43802166 3.1298244E-09 0
v 0.4046793 -0.1676237 0
v -0.43802166 3.1298244E-09 2
v 0.30972815 -0.30972812 2
v -0.40467924 -0.16762371 0
v 0.30972815 -0.30972812 0
v -0.40467924 -0.16762371 2
v 0.16762373 -0.4046793 2
v -0.309728 -0.30972824 0
v 0.16762373 -0.4046793 0
v -0.309728 -0.30972824 2
v 1.1952451E-07 -0.43802172 2
v -0.1676235 -0.4046793 0
v 1.1952451E-07 -0.43802172 0
v -0.1676235 -0.4046793 2
v 3 0.43802172 0
v 3.1676238 0.4046793 0
v 3.1676238 0.4046793 2
v 3 0.43802172 2
v 3.3097281 0.30972812 2
v 2.8323765 0.40467942 0
v 3.3097281 0.30972812 0
v 2.8323765 0.40467942 2
v 3.4046793 0.16762365 2
v 2.690272 0.30972824 0
v 3.4046793 0.16762365 0
v 2.690272 0.30972824 2
v 3.4380217 -2.124007E-08 2
v 2.5953207 0.16762373 0
v 3.4380217 -2.124007E-08 0
v 2.5953207 0.16762373 2
v 3.4046793 -0.1676237 2
v 2.5619783 3.1298244E-09 0
v 3.4046793 -0.1676237 0
v 2.5619783 3.1298244E-09 2
v 3.3097281 -0.30972812 2
v 2.5953207 -0.16762371 0
v 3.3097281 -0.30972812 0
v 2.5953207 -0.16762371 2
v 3.1676238 -0.4046793 2
v 2.690272 -0.30972824 0
v 3.1676238 -0.4046793 0
v 2.690272 -0.30972824 2
v 3.0000002 -0.43802172 2
v 2.8323765 -0.4046793 0
v 3.0000002 -0.43802172 0
v 2.8323765 -0.4046793 2
vt 0.19596557 0.46382797
vt 0.15467636 0.46382797
vt 0.15467627 0.8106796
vt 0.19596554 0.8106796
vt 0.23725481 0.46382797
vt 0.23725472 0.8106796
vt 0.27854407 0.46382797
vt 0.27854398 0.8106796
vt 0.31983334 0.46382797
vt 0.31983325 0.8106796
vt 0.36112252 0.46382797
vt 0.36112252 0.8106796
vt 0.40241176 0.46382797
vt 0.40241176 0.8106796
vt 0.4437009 0.46382797
vt 0.44370097 0.8106796
vt 0.4849901 0.46382797
vt 0.48499018 0.8106796
vt 0.5262793 0.46382797
vt 0.5262794 0.8106796
vt 0.5675685 0.46382797
vt 0.56756854 0.8106796
vt 0.60885775 0.46382797
vt 0.60885775 0.8106796
vt 0.6501469 0.46382797
vt 0.6501469 0.8106796
vt 0.69143605 0.46382797
vt 0.69143605 0.8106796
vt 0.7327253 0.46382797
vt 0.7327253 0.8106796
vt 0.7740146 0.46382797
vt 0.7740144 0.8106796
vt 0.8153036 0.46382797
vt 0.8153036 0.8106796
vt 0.19596557 0.46382797
vt 0.15467636 0.46382797
vt 0.15467627 0.8106796
vt 0.19596554 0.8106796
vt 0.23725481 0.46382797
vt 0.23725472 0.8106796
vt 0.27854407 0.46382797
vt 0.27854398 0.8106796
vt 0.31983334 0.46382797
vt 0.31983325 0.8106796
vt 0.36112252 0.46382797
vt 0.36112252 0.8106796
vt 0.40241176 0.46382797
vt 0.40241176 0.8106796
vt 0.4437009 0.46382797
vt 0.44370097 0.8106796
vt 0.4849901 0.46382797
vt 0.48499018 0.8106796
vt 0.5262793 0.46382797
vt 0.5262794 0.8106796
vt 0.5675685 0.46382797
vt 0.56756854 0.8106796
vt 0.60885775 0.46382797
vt 0.60885775 0.8106796
vt 0.6501469 0.46382797
vt 0.6501469 0.8106796
vt 0.69143605 0.46382797
vt 0.69143605 0.8106796
vt 0.7327253 0.46382797
vt 0.7327253 0.8106796
vt 0.7740146 0.46382797
vt 0.7740144 0.8106796
vt 0.8153036 0.46382797
vt 0.8153036 0.8106796
vt 0.91691977 0.73956764
vt 1.0002477 0.73956764
vt 1.000248 0.42708775
vt 0.9169199 0.42708775
vt 0.00031244755 0.7395675
vt 0.41695213 0.73956794
vt 0.41695237 0.42708808
vt 0.00031244755 0.42708766
vt 0.41695213 0.73956794
vt 0.5002801 0.73956794
vt 0.50028026 0.42708808
vt 0.41695237 0.42708808
vt 0.5002801 0.73956794
vt 0.91691977 0.73956764
vt 0.9169199 0.42708775
vt 0.50028026 0.42708808
vt 8.9426714E-05 0.20023257
vt 8.9426714E-05 0.40019673
vt 0.9999106 0.40019673
vt 0.9999106 0.20023249
vt 0.9999106 0.20005365
vt 0.9999106 8.949823E-05
vt 8.9426714E-05 8.9426714E-05
vt 8.9426714E-05 0.20005365
vt 0 0
vt 0 0
vt 0 0
vt 0 0
vt 0 0
vt 0 0
vt 0 0
vt 0 0
vt 0 0
vt 0 0
vt 0 0
vt 0 0
vt 0 0
vt 0 0
vt 0 0
vt 0 0
vt 0 0
vt 0 0
vt 0 0
vt 0 0
vt 0 0
vt 0 0
vt 0 0
vt 0 0
vt 0 0
vt 0 0
vt 0 0
vt 0 0
vt 0 0
vt 0 0
vt 0 0
vt 0 0
vt 0 0
vt 0 0
vt 0 0
vt 0 0
vt 0 0
vt 0 0
vt 0 0
vt 0 0
vt 0 0
vt 0 0
vt 0 0
vt 0 0
vt 0 0
vt 0 0
vt 0 0
vt 0 0
vt 0 0
vt 0 0
vt 0 0
vt 0 0
vt 0 0
vt 0 0
vt 0 0
vt 0 0
vt 0 0
vt 0 0
vt 0 0
vt 0 0
vt 0 0
vt 0 0
vt 0 0
vt 0 0
vn -0.70710677 0.70710677 0
vn -0.38268155 0.92388034 0
vn -0.38268155 0.92388034 0
vn -0.70710677 0.70710677 0
vn -0.92388034 0.38268155 0
vn -0.92388034 0.38268155 0
vn -1 0 0
vn -1 0 0
vn -0.92388034 -0.38268155 0
vn -0.92388034 -0.38268155 0
vn -0.70710677 -0.70710677 0
vn -0.70710677 -0.70710677 0
vn -0.38268155 -0.92388034 0
vn -0.38268155 -0.92388034 0
vn -0 -1 0
vn -0 -1 0
vn 0.38268155 -0.92388034 0
vn 0.38268155 -0.92388034 0
vn 0.70710677 -0.70710677 0
vn 0.70710677 -0.70710677 0
vn 0.92388034 -0.38268155 0
vn 0.92388034 -0.38268155 0
vn 1 0 0
vn 1 0 0
vn 0.92388034 0.38268155 0
vn 0.92388034 0.38268155 0
vn 0.70710677 0.70710677 0
vn 0.70710677 0.70710677 0
vn 0.38268155 0.92388034 0
vn 0.38268155 0.92388034 0
vn -0 1 0
vn -0 1 0
vn -0.38268155 0.92388034 0
vn -0.38268155 0.92388034 0
vn -0.70710677 0.70710677 0
vn -0.38268155 0.92388034 0
vn -0.38268155 0.92388034 0
vn -0.70710677 0.70710677 0
vn -0.92388034 0.38268155 0
vn -0.92388034 0.38268155 0
vn -1 0 0
vn -1 0 0
vn -0.92388034 -0.38268155 0
vn -0.92388034 -0.38268155 0
vn -0.70710677 -0.70710677 0
vn -0.70710677 -0.70710677 0
vn -0.38268155 -0.92388034 0
vn -0.38268155 -0.92388034 0
vn -0 -1 0
vn -0 -1 0
vn 0.38268155 -0.92388034 0
vn 0.38268155 -0.92388034 0
vn 0.70710677 -0.70710677 0
vn 0.70710677 -0.70710677 0
vn 0.92388034 -0.38268155 0
vn 0.92388034 -0.38268155 0
vn 1 0 0
vn 1 0 0
vn 0.92388034 0.38268155 0
vn 0.92388034 0.38268155 0
vn 0.70710677 0.70710677 0
vn 0.70710677 0.70710677 0
vn 0.38268155 0.92388034 0
vn 0.38268155 0.92388034 0
vn -0 1 0
vn -0 1 0
vn -0.38268155 0.92388034 0
vn -0.38268155 0.92388034 0
vn -1 0 0
vn -1 0 0
vn -1 0 0
vn -1 0 0
vn -0 1 0
vn -0 1 0
vn -0 1 0
vn -0 1 0
vn 1 0 0
vn 1 0 0
vn 1 0 0
vn 1 0 0
vn -0 -1 0
vn -0 -1 0
vn -0 -1 0
vn -0 -1 0
vn -0 0 -1
vn -0 0 -1
vn -0 0 -1
vn -0 0 -1
vn -0 0 1
vn -0 0 1
vn -0 0 1
vn -0 0 1
vn -0 1 0
vn 0.38268155 0.92388034 0
vn 0.38268155 0.92388034 0
vn -0 1 0
vn 0.70710677 0.70710677 0
vn -0.38268155 0.92388034 0
vn 0.70710677 0.70710677 0
vn -0.38268155 0.92388034 0
vn 0.92388034 0.38268155 0
vn -0.70710677 0.70710677 0
vn 0.92388034 0.38268155 0
vn -0.70710677 0.70710677 0
vn 1 0 0
vn -0.92388034 0.38268155 0
vn 1 0 0
vn -0.92388034 0.38268155 0
vn 0.92388034 -0.38268155 0
vn -1 0 0
vn 0.92388034 -0.38268155 0
vn -1 0 0
vn 0.70710677 -0.70710677 0
vn -0.92388034 -0.38268155 0
vn 0.70710677 -0.70710677 0
vn -0.92388034 -0.38268155 0
vn 0.38268155 -0.92388034 0
vn -0.70710677 -0.70710677 0
vn 0.38268155 -0.92388034 0
vn -0.70710677 -0.70710677 0
vn -0 -1 0
vn -0.38268155 -0.92388034 0
vn -0 -1 0
vn -0.38268155 -0.92388034 0
vn -0 1 0
vn 0.38268155 0.92388034 0
vn 0.38268155 0.92388034 0
vn -0 1 0
vn 0.70710677 0.70710677 0
vn -0.38268155 0.92388034 0
vn 0.70710677 0.70710677 0
vn -0.38268155 0.92388034 0
vn 0.92388034 0.38268155 0
vn -0.70710677 0.70710677 0
vn 0.92388034 0.38268155 0
vn -0.70710677 0.70710677 0
vn 1 0 0
vn -0.92388034 0.38268155 0
vn 1 0 0
vn -0.92388034 0.38268155 0
vn 0.92388034 -0.38268155 0
vn -1 0 0
vn 0.92388034 -0.38268155 0
vn -1 0 0
vn 0.70710677 -0.70710677 0
vn -0.92388034 -0.38268155 0
vn 0.70710677 -0.70710677 0
vn -0.92388034 -0.38268155 0
vn 0.38268155 -0.92388034 0
vn -0.70710677 -0.70710677 0
vn 0.38268155 -0.92388034 0
vn -0.70710677 -0.70710677 0
vn -0 -1 0
vn -0.38268155 -0.92388034 0
vn -0 -1 0
vn -0.38268155 -0.92388034 0
g Moon_Barrier_Small_0
f 3/3/3 2/2/2 1/1/1
f 4/4/4 3/3/3 1/1/1
f 4/4/4 1/1/1 5/5/5
f 6/6/6 4/4/4 5/5/5
f 6/6/6 5/5/5 7/7/7
f 8/8/8 6/6/6 7/7/7
f 8/8/8 7/7/7 9/9/9
f 10/10/10 8/8/8 9/9/9
f 10/10/10 9/9/9 11/11/11
f 12/12/12 10/10/10 11/11/11
f 12/12/12 11/11/11 13/13/13
f 14/14/14 12/12/12 13/13/13
f 14/14/14 13/13/13 15/15/15
f 16/16/16 14/14/14 15/15/15
f 16/16/16 15/15/15 17/17/17
f 18/18/18 16/16/16 17/17/17
f 18/18/18 17/17/17 19/19/19
f 20/20/20 18/18/18 19/19/19
f 20/20/20 19/19/19 21/21/21
f 22/22/22 20/20/20 21/21/21
f 22/22/22 21/21/21 23/23/23
f 24/24/24 22/22/22 23/23/23
f 24/24/24 23/23/23 25/25/25
f 26/26/26 24/24/24 25/25/25
f 26/26/26 25/25/25 27/27/27
f 28/28/28 26/26/26 27/27/27
f 28/28/28 27/27/27 29/29/29
f 30/30/30 28/28/28 29/29/29
f 30/30/30 29/29/29 31/31/31
f 32/32/32 30/30/30 31/31/31
f 32/32/32 31/31/31 33/33/33
f 34/34/34 32/32/32 33/33/33
f 37/37/37 36/36/36 35/35/35
f 38/38/38 37/37/37 35/35/35
f 38/38/38 35/35/35 39/39/39
f 40/40/40 38/38/38 39/39/39
f 40/40/40 39/39/39 41/41/41
f 42/42/42 40/40/40 41/41/41
f 42/42/42 41/41/41 43/43/43
f 44/44/44 42/42/42 43/43/43
f 44/44/44 43/43/43 45/45/45
f 46/46/46 44/44/44 45/45/45
f 46/46/46 45/45/45 47/47/47
f 48/48/48 46/46/46 47/47/47
f 48/48/48 47/47/47 49/49/49
f 50/50/50 48/48/48 49/49/49
f 50/50/50 49/49/49 51/51/51
f 52/52/52 50/50/50 51/51/51
f 52/52/52 51/51/51 53/53/53
f 54/54/54 52/52/52 53/53/53
f 54/54/54 53/53/53 55/55/55
f 56/56/56 54/54/54 55/55/55
f 56/56/56 55/55/55 57/57/57
f 58/58/58 56/56/56 57/57/57
f 58/58/58 57/57/57 59/59/59
f 60/60/60 58/58/58 59/59/59
f 60/60/60 59/59/59 61/61/61
f 62/62/62 60/60/60 61/61/61
f 62/62/62 61/61/61 63/63/63
f 64/64/64 62/62/62 63/63/63
f 64/64/64 63/63/63 65/65/65
f 66/66/66 64/64/64 65/65/65
f 66/66/66 65/65/65 67/67/67
f 68/68/68 66/66/66 67/67/67
f 71/71/71 70/70/70 69/69/69
f 72/72/72 71/71/71 69/69/69
f 75/75/75 74/74/74 73/73/73
f 76/76/76 75/75/75 73/73/73
f 79/79/79 78/78/78 77/77/77
f 80/80/80 79/79/79 77/77/77
f 83/83/83 82/82/82 81/81/81
f 84/84/84 83/83/83 81/81/81
f 87/87/87 86/86/86 85/85/85
f 88/88/88 87/87/87 85/85/85
f 91/91/91 90/90/90 89/89/89
f 92/92/92 91/91/91 89/89/89
f 95/95/95 94/94/94 93/93/93
f 96/96/96 95/95/95 93/93/93
f 95/95/95 97/97/97 94/94/94
f 96/96/96 93/93/93 98/98/98
f 97/97/97 99/99/99 94/94/94
f 100/100/100 96/96/96 98/98/98
f 97/97/97 101/101/101 99/99/99
f 100/100/100 98/98/98 102/102/102
f 101/101/101 103/103/103 99/99/99
f 104/104/104 100/100/100 102/102/102
f 101/101/101 105/105/105 103/103/103
f 104/104/104 102/102/102 106/106/106
f 105/105/105 107/107/107 103/103/103
f 108/108/108 104/104/104 106/106/106
f 105/105/105 109/109/109 107/107/107
f 108/108/108 106/106/106 110/110/110
f 109/109/109 111/111/111 107/107/107
f 112/112/112 108/108/108 110/110/110
f 109/109/109 113/113/113 111/111/111
f 112/112/112 110/110/110 114/114/114
f 113/113/113 115/115/115 111/111/111
f 116/116/116 112/112/112 114/114/114
f 113/113/113 117/117/117 115/115/115
f 116/116/116 114/114/114 118/118/118
f 117/117/117 119/119/119 115/115/115
f 120/120/120 116/116/116 118/118/118
f 117/117/117 121/121/121 119/119/119
f 120/120/120 118/118/118 122/122/122
f 121/121/121 123/123/123 119/119/119
f 124/124/124 120/120/120 122/122/122
f 124/124/124 122/122/122 123/123/123
f 121/121/121 124/124/124 123/123/123
f 127/127/127 126/126/126 125/125/125
f 128/128/128 127/127/127 125/125/125
f 127/127/127 129/129/129 126/126/126
f 128/128/128 125/125/125 130/130/130
f 129/129/129 131/131/131 126/126/126
f 132/132/132 128/128/128 130/130/130
f 129/129/129 133/133/133 131/131/131
f 132/132/132 130/130/130 134/134/134
f 133/133/133 135/135/135 131/131/131
f 136/136/136 132/132/132 134/134/134
f 133/133/133 137/137/137 135/135/135
f 136/136/136 134/134/134 138/138/138
f 137/137/137 139/139/139 135/135/135
f 140/140/140 136/136/136 138/138/138
f 137/137/137 141/141/141 139/139/139
f 140/140/140 138/138/138 142/142/142
f 141/141/141 143/143/143 139/139/139
f 144/144/144 140/140/140 142/142/142
f 141/141/141 145/145/145 143/143/143
f 144/144/144 142/142/142 146/146/146
f 145/145/145 147/147/147 143/143/143
f 148/148/148 144/144/144 146/146/146
f 145/145/145 149/149/149 147/147/147
f 148/148/148 146/146/146 150/150/150
f 149/149/149 151/151/151 147/147/147
f 152/152/152 148/148/148 150/150/150
f 149/149/149 153/153/153 151/151/151
f 152/152/152 150/150/150 154/154/154
f 153/153/153 155/155/155 151/151/151
f 156/156/156 152/152/152 154/154/154
f 156/156/156 154/154/154 155/155/155
f 153/153/153 156/156/156 155/155/155
