g mVoidRaidPortalEdge
v -0.5624726 0.27651215 9.479682
v -1.532394 0.10125962 49.14765
v -0.3113593 0.28071868 11.645962
v -3.032972 0.08948586 40.26136
v -0.6949781 0.2729793 6.4941816
v -4.565963 0.06700242 29.060366
v -0.730059 0.27373156 4.0580196
v -4.9441867 0.08021794 17.834263
v -0.765323 0.27605328 1.9575498
v -5.0206413 0.07941348 8.374017
v -0.81660074 0.27723962 -0.06724238
v -5.610159 0.08760813 -0.18630858
v -0.8355576 0.27647644 -2.0649014
v -5.721324 0.08115302 -8.826462
v -0.7768609 0.2746042 -4.1039267
v -5.06006 0.08301257 -17.920568
v -0.6521773 0.27402702 -6.4865746
v -4.1590004 0.07185107 -28.886208
v -0.49366698 0.27724108 -9.469075
v -2.7580376 0.09207866 -40.127144
v -0.2937647 0.28099054 -11.633405
v -1.4365729 0.10273791 -49.05443
v -0.11671029 0.28218463 -12.29198
v -0.036783017 0.10642638 -53.344193
v 0.058590055 0.28098932 -11.629444
v 1.2176855 0.10273678 -49.05443
v 0.24799332 0.2772487 -9.466768
v 2.5005116 0.09207812 -40.127148
v 0.36022702 0.27403918 -6.4869637
v 3.5333796 0.07185098 -28.886206
v 0.44622493 0.2745957 -4.1072206
v 4.589527 0.08301257 -17.920568
v 0.53950006 0.27646956 -2.062381
v 5.004685 0.081152946 -8.826461
v 0.6190823 0.2772284 -0.05503785
v 5.53458 0.08760757 -0.18630798
v 0.6295717 0.27601716 1.962235
v 5.8438263 0.07941226 8.374019
v 0.52825147 0.27364567 4.048482
v 4.9519563 0.08021739 17.834265
v 0.3615913 0.27293763 6.477753
v 3.4115565 0.06700234 29.060366
v 0.21958292 0.27657303 9.463131
v 2.4811063 0.08948586 40.26136
v 0.061981156 0.2806975 11.609231
v 1.2670356 0.10125962 49.14765
v -0.10513241 0.2820384 12.287935
v -0.036781654 0.10545893 53.435463
v -0.3113593 0.28071868 11.645962
v -1.532394 0.10125962 49.14765
vt 12.213704 0
vt 13.20478 1
vt 13.20478 0
vt 12.213704 1
vt 10.905717 0
vt 10.905717 1
vt 9.658442 0
vt 9.658442 1
vt 8.662176 0
vt 8.662176 1
vt 7.7315917 0
vt 7.7315917 1
vt 6.7843046 0
vt 6.7843046 1
vt 5.8303003 0
vt 5.8303003 1
vt 4.6022167 0
vt 4.6022167 1
vt 3.3032408 0
vt 3.3032408 1
vt 2.3189306 0
vt 2.3189306 1
vt 1.6447562 0
vt 1.6447562 1
vt 1 0
vt 1 1
vt 0 0
vt 0 1
vt -1.2660117 0
vt -1.2660117 1
vt -2.5183496 0
vt -2.5183496 1
vt -3.4576707 0
vt -3.4576707 1
vt -4.413673 0
vt -4.413673 1
vt -5.3315477 0
vt -5.3315477 1
vt -6.347302 0
vt -6.347302 1
vt -7.657755 0
vt -7.657755 1
vt -8.909528 0
vt -8.909528 1
vt -9.905865 0
vt -9.905865 1
vt -10.555761 0
vt -10.555761 1
vt -11.240343 0
vt -11.240343 1
vn 0.038533814 -0.99925333 -0.0027850377
vn 0.016939895 -0.99984753 -0.004245595
vn 0.030554328 -0.99952626 -0.0036926281
vn 0.03256571 -0.99946326 -0.0035634062
vn 0.039372258 -0.99922204 -0.0022629453
vn 0.03893604 -0.999238 -0.0027107128
vn 0.04404054 -0.9990294 -0.0007630717
vn 0.039839435 -0.999204 -0.002082336
vn 0.04117446 -0.99914813 -0.0027939146
vn 0.043793026 -0.99903995 -0.0011264633
vn 0.039975103 -0.99919945 -0.001594351
vn 0.03994968 -0.99920064 -0.0014724868
vn 0.03896568 -0.9992403 0.00069477543
vn 0.037322436 -0.9993013 0.0019888724
vn 0.036478776 -0.99933124 0.0025305487
vn 0.034473453 -0.9993999 0.0033942985
vn 0.034725957 -0.99939096 0.0034566578
vn 0.04048983 -0.9991757 0.002885693
vn 0.04068748 -0.9991678 0.0028739856
vn 0.035833646 -0.99935156 0.0035088244
vn 0.03389413 -0.99941885 0.003620587
vn 0.017777095 -0.999833 0.004239292
vn -0 -0.99999094 0.0042577935
vn 0.0007696588 -0.9999907 0.004259164
vn -0.034885082 -0.999385 0.0035707431
vn -0.019271094 -0.9998056 0.0041778428
vn -0.048262246 -0.9988319 0.0023532691
vn -0.0369414 -0.99931145 0.0034515334
vn -0.03553163 -0.99936146 0.003762032
vn -0.047825642 -0.99885285 0.0024096046
vn -0.039724212 -0.9992085 0.0021143646
vn -0.03522488 -0.99937266 0.0036785472
vn -0.03919956 -0.99922776 0.0026878095
vn -0.040162142 -0.9991911 0.0020606876
vn -0.03856616 -0.99925476 0.0015748385
vn -0.03856272 -0.9992549 0.0015598212
vn -0.037119374 -0.9993106 -0.0006329973
vn -0.034788862 -0.9993917 -0.0024639869
vn -0.03345934 -0.99943453 -0.0033131582
vn -0.030544356 -0.9995228 -0.0046003023
vn -0.031192992 -0.99950254 -0.0046585156
vn -0.05019392 -0.99873656 -0.002402438
vn -0.05186101 -0.9986519 -0.0021876674
vn -0.03953526 -0.9992126 -0.0033250637
vn -0.0372427 -0.99930024 -0.0034539744
vn -0.01931469 -0.9998048 -0.00418054
vn -0.000250546 -0.99999094 -0.004266388
vn 0.0009269845 -0.99999046 -0.0042686416
vn 0.030554328 -0.99952626 -0.0036926281
vn 0.016939895 -0.99984753 -0.004245595
g mVoidRaidPortalEdge_0
f 3/3/3 2/2/2 1/1/1
f 2/2/2 4/4/4 1/1/1
f 1/1/1 4/4/4 5/5/5
f 4/4/4 6/6/6 5/5/5
f 5/5/5 6/6/6 7/7/7
f 6/6/6 8/8/8 7/7/7
f 7/7/7 8/8/8 9/9/9
f 8/8/8 10/10/10 9/9/9
f 9/9/9 10/10/10 11/11/11
f 10/10/10 12/12/12 11/11/11
f 11/11/11 12/12/12 13/13/13
f 12/12/12 14/14/14 13/13/13
f 13/13/13 14/14/14 15/15/15
f 14/14/14 16/16/16 15/15/15
f 15/15/15 16/16/16 17/17/17
f 16/16/16 18/18/18 17/17/17
f 17/17/17 18/18/18 19/19/19
f 18/18/18 20/20/20 19/19/19
f 19/19/19 20/20/20 21/21/21
f 20/20/20 22/22/22 21/21/21
f 21/21/21 22/22/22 23/23/23
f 22/22/22 24/24/24 23/23/23
f 23/23/23 24/24/24 25/25/25
f 24/24/24 26/26/26 25/25/25
f 25/25/25 26/26/26 27/27/27
f 26/26/26 28/28/28 27/27/27
f 27/27/27 28/28/28 29/29/29
f 28/28/28 30/30/30 29/29/29
f 29/29/29 30/30/30 31/31/31
f 30/30/30 32/32/32 31/31/31
f 31/31/31 32/32/32 33/33/33
f 32/32/32 34/34/34 33/33/33
f 33/33/33 34/34/34 35/35/35
f 34/34/34 36/36/36 35/35/35
f 35/35/35 36/36/36 37/37/37
f 36/36/36 38/38/38 37/37/37
f 37/37/37 38/38/38 39/39/39
f 38/38/38 40/40/40 39/39/39
f 39/39/39 40/40/40 41/41/41
f 40/40/40 42/42/42 41/41/41
f 41/41/41 42/42/42 43/43/43
f 42/42/42 44/44/44 43/43/43
f 43/43/43 44/44/44 45/45/45
f 44/44/44 46/46/46 45/45/45
f 45/45/45 46/46/46 47/47/47
f 46/46/46 48/48/48 47/47/47
f 47/47/47 48/48/48 49/49/49
f 48/48/48 50/50/50 49/49/49
