g pb_Mesh393364
v 32 -160 -90
v 3 -160 -90
v 32 54 -90
v 3 58 -90
v 3 -160 -90
v 3 -160 -100
v 3 58 -90
v 3 58 -100
v 3 -160 -100
v 32 -160 -100
v 3 58 -100
v 32 54 -100
v 32 -160 -100
v 32 -160 -90
v 32 54 -100
v 32 54 -90
v 32 54 -90
v 3 58 -90
v 32 54 -100
v 3 58 -100
v 32 -160 -100
v 3 -160 -100
v 32 -160 -90
v 3 -160 -90
vt 32 -160
vt 3 -160
vt 32 54
vt 3 58
vt -90 -160
vt -100 -160
vt -90 58
vt -100 58
vt -3 -160
vt -32 -160
vt -3 58
vt -32 54
vt 100 -160
vt 90 -160
vt 100 54
vt 90 54
vt -24.321457 -90
vt 4.953106 -90
vt -24.321457 -100
vt 4.953106 -100
vt 32 -100
vt 3 -100
vt 32 -90
vt 3 -90
vn -0 0 1
vn -0 0 1
vn -0 0 1
vn -0 0 1
vn -1 0 0
vn -1 0 0
vn -1 0 0
vn -1 0 0
vn -0 0 -1
vn -0 0 -1
vn -0 0 -1
vn -0 0 -1
vn 1 0 0
vn 1 0 0
vn 1 0 0
vn 1 0 0
vn 0.13663739 0.9906211 0
vn 0.13663739 0.9906211 0
vn 0.13663739 0.9906211 0
vn 0.13663739 0.9906211 0
vn -0 -1 0
vn -0 -1 0
vn -0 -1 0
vn -0 -1 0
g pb_Mesh393364_0
f 3/3/3 2/2/2 1/1/1
f 3/3/3 4/4/4 2/2/2
f 7/7/7 6/6/6 5/5/5
f 7/7/7 8/8/8 6/6/6
f 11/11/11 10/10/10 9/9/9
f 11/11/11 12/12/12 10/10/10
f 15/15/15 14/14/14 13/13/13
f 15/15/15 16/16/16 14/14/14
f 19/19/19 18/18/18 17/17/17
f 19/19/19 20/20/20 18/18/18
f 23/23/23 22/22/22 21/21/21
f 23/23/23 24/24/24 22/22/22
