g pb_Mesh393700
v -108 -160 0
v -118 -160 0
v -108 63 0
v -118 70 0
v -118 -160 0
v -118 -160 -10
v -118 70 0
v -118 70 -10
v -118 -160 -10
v -113 -160 -10
v -118 70 -10
v -113 70 -10
v -113 -160 -10
v -108 -160 0
v -113 70 -10
v -108 63 0
v -108 63 0
v -118 70 0
v -113 70 -10
v -118 70 -10
v -113 -160 -10
v -118 -160 -10
v -108 -160 0
v -118 -160 0
vt -108 -160
vt -118 -160
vt -108 63
vt -118 70
vt 0 -160
vt -10 -160
vt 0 70
vt -10 70
vt 118 -160
vt 113 -160
vt 118 70
vt 113 70
vt 59.47941 -160
vt 48.29907 -160
vt 59.47941 70
vt 48.29907 63
vt 124.60518 2.845088
vt 136.81174 2.845088
vt 132.71558 -7.5578675
vt 136.81174 -6.7675653
vt -113 -10
vt -118 -10
vt -108 0
vt -118 0
vn -0 0 1
vn -0 0 1
vn -0 0 1
vn -0 0 1
vn -1 0 0
vn -1 0 0
vn -1 0 0
vn -1 0 0
vn -0 0 -1
vn -0 0 -1
vn -0 0 -1
vn -0 0 -1
vn 0.8944271 0 -0.44721356
vn 0.89442724 0 -0.44721362
vn 0.89442724 0 -0.44721362
vn 0.8944272 0 -0.4472136
vn 0.55124944 0.7874992 0.27562472
vn 0.4137379 0.8865812 0.20686895
vn 0.4137379 0.8865812 0.20686895
vn -0 1 0
vn -0 -1 0
vn -0 -1 0
vn -0 -1 0
vn -0 -1 0
g pb_Mesh393700_0
f 3/3/3 2/2/2 1/1/1
f 3/3/3 4/4/4 2/2/2
f 7/7/7 6/6/6 5/5/5
f 7/7/7 8/8/8 6/6/6
f 11/11/11 10/10/10 9/9/9
f 11/11/11 12/12/12 10/10/10
f 15/15/15 14/14/14 13/13/13
f 15/15/15 16/16/16 14/14/14
f 19/19/19 18/18/18 17/17/17
f 19/19/19 20/20/20 18/18/18
f 23/23/23 22/22/22 21/21/21
f 23/23/23 24/24/24 22/22/22
