g pb_Mesh393182
v -91 -160 -59
v -100 -160 -59
v -91 75 -59
v -100 75 -59
v -100 -160 -59
v -100 -160 -64
v -100 75 -59
v -100 75 -64
v -100 -160 -64
v -92 -160 -64
v -100 75 -64
v -92 75 -64
v -92 -160 -64
v -91 -160 -59
v -92 75 -64
v -91 75 -59
v -91 75 -59
v -100 75 -59
v -92 75 -64
v -100 75 -64
v -92 -160 -64
v -100 -160 -64
v -91 -160 -59
v -100 -160 -59
vt -91 -160
vt -100 -160
vt -91 75
vt -100 75
vt -59 -160
vt -64 -160
vt -59 75
vt -64 75
vt 100 -160
vt 92 -160
vt 100 75
vt 92 75
vt 80.79985 -160
vt 75.700836 -160
vt 80.79985 75
vt 75.700836 75
vt 91 -59
vt 100 -59
vt 92 -64
vt 100 -64
vt -92 -64
vt -100 -64
vt -91 -59
vt -100 -59
vn -0 0 1
vn -0 0 1
vn -0 0 1
vn -0 0 1
vn -1 0 0
vn -1 0 0
vn -1 0 0
vn -1 0 0
vn -0 0 -0.99999994
vn -0 0 -0.99999994
vn -0 0 -0.99999994
vn -0 0 -0.99999994
vn 0.98058075 0 -0.19611615
vn 0.98058075 0 -0.19611615
vn 0.98058075 0 -0.19611615
vn 0.98058075 0 -0.19611615
vn -0 1 0
vn -0 1 0
vn -0 1 0
vn -0 1 0
vn -0 -1 0
vn -0 -1 0
vn -0 -1 0
vn -0 -1 0
g pb_Mesh393182_0
f 3/3/3 2/2/2 1/1/1
f 3/3/3 4/4/4 2/2/2
f 7/7/7 6/6/6 5/5/5
f 7/7/7 8/8/8 6/6/6
f 11/11/11 10/10/10 9/9/9
f 11/11/11 12/12/12 10/10/10
f 15/15/15 14/14/14 13/13/13
f 15/15/15 16/16/16 14/14/14
f 19/19/19 18/18/18 17/17/17
f 19/19/19 20/20/20 18/18/18
f 23/23/23 22/22/22 21/21/21
f 23/23/23 24/24/24 22/22/22
