g pb_Mesh398486
v 10 -150 3
v 2 -150 3
v 10 43 3
v 2 44 3
v 2 -150 3
v -0 -150 -5
v 2 44 3
v -0 44 -5
v -0 -150 -5
v 8 -150 -8
v -0 44 -5
v 8 43 -8
v 8 -150 -8
v 10 -150 3
v 8 43 -8
v 10 43 3
v 10 43 3
v 2 44 3
v 8 43 -8
v -0 44 -5
v 8 -150 -8
v -0 -150 -5
v 10 -150 3
v 2 -150 3
vt 10 -150
vt 2 -150
vt 10 43
vt 2 44
vt 3.395499 -150
vt -4.850713 -150
vt 3.395499 44
vt -4.850713 44
vt -1.7556173 -150
vt -10.299622 -150
vt -1.7556173 44
vt -10.299622 43
vt 6.4398756 -150
vt -4.740464 -150
vt 6.4398756 43
vt -4.740464 43
vt -4.589285 3.9891956
vt 3.4729724 3.9891956
vt -2.6047294 -7.013602
vt 5.457528 -4.0143642
vt 8 -8
vt -0 -5
vt 10 3
vt 2 3
vn -0 0 1
vn -0 0 1
vn -0 0 1
vn -0 0 0.99999994
vn -0.9701424 0 0.2425356
vn -0.9701424 0 0.2425356
vn -0.9701424 0 0.2425356
vn -0.9701424 0 0.2425356
vn -0.35112345 0 -0.9363292
vn -0.35112345 0 -0.9363292
vn -0.35112345 0 -0.9363292
vn -0.35112345 0 -0.9363292
vn 0.9838699 0 -0.17888543
vn 0.9838699 0 -0.17888543
vn 0.9838699 0 -0.17888543
vn 0.9838699 0 -0.17888543
vn 0.12400321 0.9920257 -0.022546038
vn 0.119355306 0.9925336 -0.025127433
vn 0.119355306 0.9925336 -0.025127433
vn 0.11350087 0.9931326 -0.028375218
vn -0 -0.99999994 0
vn -0 -1 0
vn -0 -1 0
vn -0 -1 0
g pb_Mesh398486_0
f 3/3/3 2/2/2 1/1/1
f 3/3/3 4/4/4 2/2/2
f 7/7/7 6/6/6 5/5/5
f 7/7/7 8/8/8 6/6/6
f 11/11/11 10/10/10 9/9/9
f 11/11/11 12/12/12 10/10/10
f 15/15/15 14/14/14 13/13/13
f 15/15/15 16/16/16 14/14/14
f 19/19/19 18/18/18 17/17/17
f 19/19/19 20/20/20 18/18/18
f 23/23/23 22/22/22 21/21/21
f 23/23/23 24/24/24 22/22/22
