g pb_Mesh389304
v -117 -160 0
v -118 -160 0
v -117 70 0
v -118 70 0
v -118 -160 0
v -118 -160 -10
v -118 70 0
v -118 70 -10
v -118 -160 -10
v -114 -160 -10
v -118 70 -10
v -114 70 -10
v -114 -160 -10
v -117 -160 0
v -114 70 -10
v -117 70 0
v -117 70 0
v -118 70 0
v -114 70 -10
v -118 70 -10
v -114 -160 -10
v -118 -160 -10
v -117 -160 0
v -118 -160 0
vt -117 -160
vt -118 -160
vt -117 70
vt -118 70
vt 0 -160
vt -10 -160
vt 0 70
vt -10 70
vt 118 -160
vt 114 -160
vt 118 70
vt 114 70
vt -23.1794 -160
vt -33.619705 -160
vt -23.1794 70
vt -33.619705 70
vt 117 0
vt 118 0
vt 114 -10
vt 118 -10
vt -114 -10
vt -118 -10
vt -117 0
vt -118 0
vn -0 0 0.99999994
vn -0 0 0.99999994
vn -0 0 0.99999994
vn -0 0 0.99999994
vn -1 0 0
vn -1 0 0
vn -1 0 0
vn -1 0 0
vn -0 0 -0.99999994
vn -0 0 -0.99999994
vn -0 0 -0.99999994
vn -0 0 -0.99999994
vn 0.9578263 0 0.28734788
vn 0.9578263 0 0.28734788
vn 0.9578263 0 0.28734788
vn 0.9578263 0 0.28734788
vn -0 1 0
vn -0 1 0
vn -0 1 0
vn -0 1 0
vn -0 -1 0
vn -0 -1 0
vn -0 -1 0
vn -0 -1 0
g pb_Mesh389304_0
f 3/3/3 2/2/2 1/1/1
f 3/3/3 4/4/4 2/2/2
f 7/7/7 6/6/6 5/5/5
f 7/7/7 8/8/8 6/6/6
f 11/11/11 10/10/10 9/9/9
f 11/11/11 12/12/12 10/10/10
f 15/15/15 14/14/14 13/13/13
f 15/15/15 16/16/16 14/14/14
f 19/19/19 18/18/18 17/17/17
f 19/19/19 20/20/20 18/18/18
f 23/23/23 22/22/22 21/21/21
f 23/23/23 24/24/24 22/22/22
