g pb_Mesh401254
v -10 37 20
v -11 37 20
v -10 41 20
v -11 41 20
v -11 37 20
v -11 17 -40
v -11 41 20
v -11 21 -40
v -11 17 -40
v -10 17 -40
v -11 21 -40
v -10 21 -40
v -10 17 -40
v -10 37 20
v -10 21 -40
v -10 41 20
v -10 41 20
v -11 41 20
v -10 21 -40
v -11 21 -40
v -10 17 -40
v -11 17 -40
v -10 37 20
v -11 37 20
vt -10 37
vt -11 37
vt -10 41
vt -11 41
vt 20 37
vt -40 17
vt 20 41
vt -40 21
vt 11 17
vt 10 17
vt 11 21
vt 10 21
vt 40 17
vt -20 37
vt 40 21
vt -20 41
vt 10 31.939005
vt 11 31.939005
vt 10 -31.30655
vt 11 -31.30655
vt -10 -32.57146
vt -11 -32.57146
vt -10 30.674093
vt -11 30.674093
vn -0 0 1
vn -0 0 1
vn -0 0 1
vn -0 0 1
vn -1 0 0
vn -1 0 0
vn -1 0 0
vn -1 0 0
vn -0 0 -1
vn -0 0 -1
vn -0 0 -1
vn -0 0 -1
vn 1 0 0
vn 1 0 0
vn 1 0 0
vn 1 0 0
vn -0 0.9486834 -0.3162278
vn -0 0.9486834 -0.3162278
vn -0 0.9486834 -0.3162278
vn -0 0.9486834 -0.3162278
vn -0 -0.9486834 0.3162278
vn -0 -0.9486834 0.3162278
vn -0 -0.9486834 0.3162278
vn -0 -0.9486834 0.3162278
g pb_Mesh401254_0
f 3/3/3 2/2/2 1/1/1
f 3/3/3 4/4/4 2/2/2
f 7/7/7 6/6/6 5/5/5
f 7/7/7 8/8/8 6/6/6
f 11/11/11 10/10/10 9/9/9
f 11/11/11 12/12/12 10/10/10
f 15/15/15 14/14/14 13/13/13
f 15/15/15 16/16/16 14/14/14
f 19/19/19 18/18/18 17/17/17
f 19/19/19 20/20/20 18/18/18
f 23/23/23 22/22/22 21/21/21
f 23/23/23 24/24/24 22/22/22
