g pb_Mesh388988
v 10 -150 3
v -0 -150 3
v 10 45 3
v -0 47 3
v -0 -150 3
v -0 -150 -5
v -0 47 3
v -0 47 -5
v -0 -150 -5
v 10 -150 -5
v -0 47 -5
v 10 45 -5
v 10 -150 -5
v 10 -150 3
v 10 45 -5
v 10 45 3
v 10 45 3
v -0 47 3
v 10 45 -5
v -0 47 -5
v 10 -150 -5
v -0 -150 -5
v 10 -150 3
v -0 -150 3
vt 10 -150
vt 0 -150
vt 10 45
vt 0 47
vt 3 -150
vt -5 -150
vt 3 47
vt -5 47
vt 0 -150
vt -10 -150
vt 0 47
vt -10 45
vt 5 -150
vt -3 -150
vt 5 45
vt -3 45
vt -0.9805808 3
vt 9.217459 3
vt -0.9805808 -5
vt 9.217459 -5
vt 10 -5
vt -0 -5
vt 10 3
vt 0 3
vn -0 0 0.99999994
vn -0 0 0.99999994
vn -0 0 0.99999994
vn -0 0 1
vn -1 0 0
vn -1 0 0
vn -1 0 0
vn -1 0 0
vn -0 0 -1
vn -0 0 -0.99999994
vn -0 0 -0.99999994
vn -0 0 -0.99999994
vn 1 0 0
vn 1 0 0
vn 1 0 0
vn 1 0 0
vn 0.19611613 0.9805807 0
vn 0.19611613 0.9805807 0
vn 0.19611613 0.9805807 0
vn 0.19611613 0.9805807 0
vn -0 -1 0
vn -0 -1 0
vn -0 -1 0
vn -0 -1 0
g pb_Mesh388988_0
f 3/3/3 2/2/2 1/1/1
f 3/3/3 4/4/4 2/2/2
f 7/7/7 6/6/6 5/5/5
f 7/7/7 8/8/8 6/6/6
f 11/11/11 10/10/10 9/9/9
f 11/11/11 12/12/12 10/10/10
f 15/15/15 14/14/14 13/13/13
f 15/15/15 16/16/16 14/14/14
f 19/19/19 18/18/18 17/17/17
f 19/19/19 20/20/20 18/18/18
f 23/23/23 22/22/22 21/21/21
f 23/23/23 24/24/24 22/22/22
