g pb_Mesh398196
v 19 -160 -90
v -60 -160 -90
v 19 58 -90
v -60 58 -90
v -60 -160 -90
v -60 -160 -100
v -60 58 -90
v -60 58 -100
v -60 -160 -100
v 20 -160 -100
v -60 58 -100
v 20 58 -100
v 20 -160 -100
v 19 -160 -90
v 20 58 -100
v 19 58 -90
v 19 58 -90
v -60 58 -90
v 20 58 -100
v -60 58 -100
v 20 -160 -100
v -60 -160 -100
v 19 -160 -90
v -60 -160 -90
vt 19 -160
vt -60 -160
vt 19 58
vt -60 58
vt -90 -160
vt -100 -160
vt -90 58
vt -100 58
vt 60 -160
vt -20 -160
vt 60 58
vt -20 58
vt 101.4938 -160
vt 91.44392 -160
vt 101.4938 58
vt 91.44392 58
vt -19 -90
vt 60 -90
vt -20 -100
vt 60 -100
vt 20 -100
vt -60 -100
vt 19 -90
vt -60 -90
vn -0 0 1
vn -0 0 1
vn -0 0 1
vn -0 0 1
vn -1 0 0
vn -1 0 0
vn -1 0 0
vn -1 0 0
vn -0 0 -1
vn -0 0 -1
vn -0 0 -1
vn -0 0 -1
vn 0.99503726 0 0.099503726
vn 0.99503726 0 0.099503726
vn 0.99503726 0 0.099503726
vn 0.99503726 0 0.099503726
vn -0 1 0
vn -0 1 0
vn -0 1 0
vn -0 1 0
vn -0 -1 0
vn -0 -1 0
vn -0 -1 0
vn -0 -1 0
g pb_Mesh398196_0
f 3/3/3 2/2/2 1/1/1
f 3/3/3 4/4/4 2/2/2
f 7/7/7 6/6/6 5/5/5
f 7/7/7 8/8/8 6/6/6
f 11/11/11 10/10/10 9/9/9
f 11/11/11 12/12/12 10/10/10
f 15/15/15 14/14/14 13/13/13
f 15/15/15 16/16/16 14/14/14
f 19/19/19 18/18/18 17/17/17
f 19/19/19 20/20/20 18/18/18
f 23/23/23 22/22/22 21/21/21
f 23/23/23 24/24/24 22/22/22
