g pb_Mesh395198
v -95 -160 -64
v -100 -160 -57
v -95 75 -64
v -100 76 -57
v -100 -160 -57
v -100 -160 -65
v -100 76 -57
v -100 76 -65
v -100 -160 -65
v -95 -160 -65
v -100 76 -65
v -95 75 -65
v -95 -160 -65
v -95 -160 -64
v -95 75 -65
v -95 75 -64
v -95 75 -64
v -100 76 -57
v -95 75 -65
v -100 76 -65
v -95 -160 -65
v -100 -160 -65
v -95 -160 -64
v -100 -160 -57
vt -3.1386847 -160
vt -11.741011 -160
vt -3.1386847 75
vt -11.741011 76
vt -57 -160
vt -65 -160
vt -57 76
vt -65 76
vt 100 -160
vt 95 -160
vt 100 76
vt 95 75
vt 65 -160
vt 64 -160
vt 65 75
vt 64 75
vt 107.86388 -64
vt 112.9629 -57
vt 107.86388 -65
vt 112.9629 -65
vt -95 -65
vt -100 -65
vt -95 -64
vt -100 -57
vn 0.8137335 0 0.5812382
vn 0.81373346 0 0.58123815
vn 0.81373346 0 0.58123815
vn 0.8137334 0 0.58123815
vn -1 0 0
vn -1 0 0
vn -1 0 0
vn -1 0 0
vn -0 0 -1
vn -0 0 -0.99999994
vn -0 0 -0.99999994
vn -0 0 -1
vn 0.99999994 0 0
vn 0.99999994 0 0
vn 0.99999994 0 0
vn 0.99999994 0 0
vn 0.19611613 0.9805807 0
vn 0.19611613 0.9805807 0
vn 0.19611613 0.9805807 0
vn 0.19611613 0.9805807 0
vn -0 -1 0
vn -0 -1 0
vn -0 -1 0
vn -0 -1 0
g pb_Mesh395198_0
f 3/3/3 2/2/2 1/1/1
f 3/3/3 4/4/4 2/2/2
f 7/7/7 6/6/6 5/5/5
f 7/7/7 8/8/8 6/6/6
f 11/11/11 10/10/10 9/9/9
f 11/11/11 12/12/12 10/10/10
f 15/15/15 14/14/14 13/13/13
f 15/15/15 16/16/16 14/14/14
f 19/19/19 18/18/18 17/17/17
f 19/19/19 20/20/20 18/18/18
f 23/23/23 22/22/22 21/21/21
f 23/23/23 24/24/24 22/22/22
