g pb_Mesh395246
v -115 -160 0
v -134 -160 0
v -115 70 0
v -134 70 0
v -134 -160 0
v -134 -160 -5
v -134 70 0
v -134 70 -5
v -134 -160 -5
v -104 -160 -5
v -134 70 -5
v -104 70 -5
v -104 -160 -5
v -115 -160 0
v -104 70 -5
v -115 70 0
v -115 70 0
v -134 70 0
v -104 70 -5
v -134 70 -5
v -104 -160 -5
v -134 -160 -5
v -115 -160 0
v -134 -160 0
vt -115 -160
vt -134 -160
vt -115 70
vt -134 70
vt 0 -160
vt -5 -160
vt 0 70
vt -5 70
vt 134 -160
vt 104 -160
vt 134 70
vt 104 70
vt -92.6091 -160
vt -104.69215 -160
vt -92.6091 70
vt -104.69215 70
vt 115 0
vt 134 0
vt 104 -5
vt 134 -5
vt -104 -5
vt -134 -5
vt -115 0
vt -134 0
vn -0 0 1
vn -0 0 1
vn -0 0 1
vn -0 0 1
vn -1 0 0
vn -1 0 0
vn -1 0 0
vn -1 0 0
vn -0 0 -0.99999994
vn -0 0 -0.99999994
vn -0 0 -0.99999994
vn -0 0 -0.99999994
vn 0.41380295 0 0.9103665
vn 0.41380295 0 0.9103665
vn 0.41380295 0 0.9103665
vn 0.41380295 0 0.9103665
vn -0 1 0
vn -0 0.99999994 0
vn -0 0.99999994 0
vn -0 1 0
vn -0 -1 0
vn -0 -0.99999994 0
vn -0 -0.99999994 0
vn -0 -1 0
g pb_Mesh395246_0
f 3/3/3 2/2/2 1/1/1
f 3/3/3 4/4/4 2/2/2
f 7/7/7 6/6/6 5/5/5
f 7/7/7 8/8/8 6/6/6
f 11/11/11 10/10/10 9/9/9
f 11/11/11 12/12/12 10/10/10
f 15/15/15 14/14/14 13/13/13
f 15/15/15 16/16/16 14/14/14
f 19/19/19 18/18/18 17/17/17
f 19/19/19 20/20/20 18/18/18
f 23/23/23 22/22/22 21/21/21
f 23/23/23 24/24/24 22/22/22
