g pb_Mesh393714
v -41 13 -81
v -66 18 -81
v -41 17 -81
v -66 22 -81
v -66 18 -81
v -66 18 -82
v -66 22 -81
v -66 22 -82
v -66 18 -82
v -41 13 -82
v -66 22 -82
v -41 17 -82
v -41 13 -82
v -41 13 -81
v -41 17 -82
v -41 17 -81
v -41 17 -81
v -66 22 -81
v -41 17 -82
v -66 22 -82
v -41 13 -82
v -66 18 -82
v -41 13 -81
v -66 18 -81
vt -41 13
vt -66 18
vt -41 17
vt -66 22
vt -81 18
vt -82 18
vt -81 22
vt -82 22
vt 66 18
vt 41 13
vt 66 22
vt 41 17
vt 82 13
vt 81 13
vt 82 17
vt 81 17
vt 43.537785 -81
vt 69.03288 -81
vt 43.537785 -82
vt 69.03288 -82
vt -42.75332 -82
vt -68.24841 -82
vt -42.75332 -81
vt -68.24841 -81
vn -0 0 1
vn -0 0 1
vn -0 0 1
vn -0 0 1
vn -1 0 0
vn -1 0 0
vn -1 0 0
vn -1 0 0
vn -0 0 -1
vn -0 0 -1
vn -0 0 -1
vn -0 0 -1
vn 1 0 0
vn 1 0 0
vn 1 0 0
vn 1 0 0
vn 0.19611613 0.9805807 0
vn 0.19611613 0.9805807 0
vn 0.19611613 0.9805807 0
vn 0.19611613 0.9805807 0
vn -0.19611613 -0.9805807 0
vn -0.19611613 -0.9805807 0
vn -0.19611613 -0.9805807 0
vn -0.19611613 -0.9805807 0
g pb_Mesh393714_0
f 3/3/3 2/2/2 1/1/1
f 3/3/3 4/4/4 2/2/2
f 7/7/7 6/6/6 5/5/5
f 7/7/7 8/8/8 6/6/6
f 11/11/11 10/10/10 9/9/9
f 11/11/11 12/12/12 10/10/10
f 15/15/15 14/14/14 13/13/13
f 15/15/15 16/16/16 14/14/14
f 19/19/19 18/18/18 17/17/17
f 19/19/19 20/20/20 18/18/18
f 23/23/23 22/22/22 21/21/21
f 23/23/23 24/24/24 22/22/22
