g pb_Mesh390668
v 10 -150 3
v -0 -150 3
v 10 48 3
v -0 50 3
v -0 -150 3
v -0 -150 -6
v -0 50 3
v -0 50 -6
v -0 -150 -6
v 10 -150 -7
v -0 50 -6
v 10 48 -7
v 10 -150 -7
v 10 -150 3
v 10 48 -7
v 10 48 3
v 10 48 3
v -0 50 3
v 10 48 -7
v -0 50 -6
v 10 -150 -7
v -0 -150 -6
v 10 -150 3
v -0 -150 3
vt 10 -150
vt 0 -150
vt 10 48
vt 0 50
vt 3 -150
vt -6 -150
vt 3 50
vt -6 50
vt -0.5970223 -150
vt -10.646898 -150
vt -0.5970223 50
vt -10.646898 48
vt 7 -150
vt -3 -150
vt 7 48
vt -3 48
vt -0.3922317 3
vt 9.805807 3
vt -0.3922317 -7
vt 9.805807 -6
vt 10 -7
vt -0 -6
vt 10 3
vt 0 3
vn -0 0 1
vn -0 0 1
vn -0 0 1
vn -0 0 1
vn -1 0 0
vn -1 0 0
vn -1 0 0
vn -1 0 0
vn -0.09950371 0 -0.99503714
vn -0.09950371 0 -0.99503714
vn -0.09950371 0 -0.99503714
vn -0.09950372 0 -0.9950372
vn 1 0 0
vn 1 0 0
vn 1 0 0
vn 1 0 0
vn 0.19611613 0.9805807 0
vn 0.19611613 0.9805807 0
vn 0.19611613 0.9805807 0
vn 0.19611613 0.9805807 0
vn -0 -1 0
vn -0 -1 0
vn -0 -1 0
vn -0 -1 0
g pb_Mesh390668_0
f 3/3/3 2/2/2 1/1/1
f 3/3/3 4/4/4 2/2/2
f 7/7/7 6/6/6 5/5/5
f 7/7/7 8/8/8 6/6/6
f 11/11/11 10/10/10 9/9/9
f 11/11/11 12/12/12 10/10/10
f 15/15/15 14/14/14 13/13/13
f 15/15/15 16/16/16 14/14/14
f 19/19/19 18/18/18 17/17/17
f 19/19/19 20/20/20 18/18/18
f 23/23/23 22/22/22 21/21/21
f 23/23/23 24/24/24 22/22/22
