g pb_Mesh398980
v -89 -160 -59
v -100 -160 -59
v -89 75 -59
v -100 75 -59
v -100 -160 -59
v -100 -160 -65
v -100 75 -59
v -100 75 -65
v -100 -160 -65
v -91 -160 -65
v -100 75 -65
v -91 75 -65
v -91 -160 -65
v -89 -160 -59
v -91 75 -65
v -89 75 -59
v -89 75 -59
v -100 75 -59
v -91 75 -65
v -100 75 -65
v -91 -160 -65
v -100 -160 -65
v -89 -160 -59
v -100 -160 -59
vt -89 -160
vt -100 -160
vt -89 75
vt -100 75
vt -59 -160
vt -65 -160
vt -59 75
vt -65 75
vt 100 -160
vt 91 -160
vt 100 75
vt 91 75
vt 90.44114 -160
vt 84.116585 -160
vt 90.44114 75
vt 84.116585 75
vt 89 -59
vt 100 -59
vt 91 -65
vt 100 -65
vt -91 -65
vt -100 -65
vt -89 -59
vt -100 -59
vn -0 0 0.99999994
vn -0 0 0.99999994
vn -0 0 0.99999994
vn -0 0 0.99999994
vn -0.99999994 0 0
vn -0.99999994 0 0
vn -0.99999994 0 0
vn -0.99999994 0 0
vn -0 0 -1
vn -0 0 -1
vn -0 0 -1
vn -0 0 -1
vn 0.9486833 0 -0.31622776
vn 0.9486833 0 -0.31622776
vn 0.9486833 0 -0.31622776
vn 0.9486833 0 -0.31622776
vn -0 1 0
vn -0 1 0
vn -0 1 0
vn -0 1 0
vn -0 -1 0
vn -0 -1 0
vn -0 -1 0
vn -0 -1 0
g pb_Mesh398980_0
f 3/3/3 2/2/2 1/1/1
f 3/3/3 4/4/4 2/2/2
f 7/7/7 6/6/6 5/5/5
f 7/7/7 8/8/8 6/6/6
f 11/11/11 10/10/10 9/9/9
f 11/11/11 12/12/12 10/10/10
f 15/15/15 14/14/14 13/13/13
f 15/15/15 16/16/16 14/14/14
f 19/19/19 18/18/18 17/17/17
f 19/19/19 20/20/20 18/18/18
f 23/23/23 22/22/22 21/21/21
f 23/23/23 24/24/24 22/22/22
