g pb_Mesh391592
v -12 54 -40
v -43 54 -40
v -12 64 -40
v -43 64 -40
v -43 54 -40
v -43 54 -58
v -43 64 -40
v -43 64 -60
v -43 54 -58
v -12 54 -58
v -43 64 -60
v -12 64 -60
v -12 54 -58
v -12 54 -40
v -12 64 -60
v -12 64 -40
v -12 64 -40
v -43 64 -40
v -12 64 -60
v -43 64 -60
v -12 54 -58
v -43 54 -58
v -12 54 -40
v -43 54 -40
vt -12 54
vt -43 54
vt -12 64
vt -43 64
vt -40 54
vt -58 54
vt -40 64
vt -60 64
vt 43 64.326096
vt 12 64.326096
vt 43 74.52413
vt 12 74.52413
vt 58 54
vt 40 54
vt 60 64
vt 40 64
vt 12 -40
vt 43 -40
vt 12 -60
vt 43 -60
vt -12 -58
vt -43 -58
vt -12 -40
vt -43 -40
vn -0 0 1
vn -0 0 1
vn -0 0 1
vn -0 0 1
vn -1 0 0
vn -1 0 0
vn -1 0 0
vn -1 0 0
vn -0 -0.19611612 -0.9805806
vn -0 -0.19611612 -0.9805806
vn -0 -0.19611612 -0.9805806
vn -0 -0.19611612 -0.9805806
vn 1 0 0
vn 1 0 0
vn 1 0 0
vn 1 0 0
vn -0 1 0
vn -0 1 0
vn -0 1 0
vn -0 1 0
vn -0 -1 0
vn -0 -1 0
vn -0 -1 0
vn -0 -1 0
g pb_Mesh391592_0
f 3/3/3 2/2/2 1/1/1
f 3/3/3 4/4/4 2/2/2
f 7/7/7 6/6/6 5/5/5
f 7/7/7 8/8/8 6/6/6
f 11/11/11 10/10/10 9/9/9
f 11/11/11 12/12/12 10/10/10
f 15/15/15 14/14/14 13/13/13
f 15/15/15 16/16/16 14/14/14
f 19/19/19 18/18/18 17/17/17
f 19/19/19 20/20/20 18/18/18
f 23/23/23 22/22/22 21/21/21
f 23/23/23 24/24/24 22/22/22
