g pb_Mesh394146
v 34 -160 -90
v 3 -160 -90
v 34 54 -90
v 3 58 -90
v 3 -160 -90
v 3 -160 -100
v 3 58 -90
v 3 58 -100
v 3 -160 -100
v 32 -160 -100
v 3 58 -100
v 32 54 -100
v 32 -160 -100
v 34 -160 -90
v 32 54 -100
v 34 54 -90
v 34 54 -90
v 3 58 -90
v 32 54 -100
v 3 58 -100
v 32 -160 -100
v 3 -160 -100
v 34 -160 -90
v 3 -160 -90
vt 34 -160
vt 3 -160
vt 34 54
vt 3 58
vt -90 -160
vt -100 -160
vt -90 58
vt -100 58
vt -3 -160
vt -32 -160
vt -3 58
vt -32 54
vt 91.78235 -160
vt 81.58431 -160
vt 91.78235 54
vt 81.58431 54
vt -26.809996 -88.48894
vt 4.447004 -88.48894
vt -24.82644 -98.49221
vt 4.447004 -98.485664
vt 32 -100
vt 3 -100
vt 34 -90
vt 3 -90
vn -0 0 1
vn -0 0 0.99999994
vn -0 0 0.99999994
vn -0 0 1
vn -1 0 0
vn -1 0 0
vn -1 0 0
vn -1 0 0
vn -0 0 -1
vn -0 0 -1
vn -0 0 -1
vn -0 0 -1
vn 0.9805807 0 -0.19611613
vn 0.9805807 0 -0.19611613
vn 0.9805807 0 -0.19611613
vn 0.9805807 0 -0.19611613
vn 0.12792943 0.9914532 -0.025585888
vn 0.13215218 0.9911414 -0.013215219
vn 0.13215218 0.9911414 -0.013215219
vn 0.13663739 0.9906211 0
vn -0 -1 0
vn -0 -1 0
vn -0 -1 0
vn -0 -1 0
g pb_Mesh394146_0
f 3/3/3 2/2/2 1/1/1
f 3/3/3 4/4/4 2/2/2
f 7/7/7 6/6/6 5/5/5
f 7/7/7 8/8/8 6/6/6
f 11/11/11 10/10/10 9/9/9
f 11/11/11 12/12/12 10/10/10
f 15/15/15 14/14/14 13/13/13
f 15/15/15 16/16/16 14/14/14
f 19/19/19 18/18/18 17/17/17
f 19/19/19 20/20/20 18/18/18
f 23/23/23 22/22/22 21/21/21
f 23/23/23 24/24/24 22/22/22
