g pb_Mesh401724
v -112 -56 -2
v -114 -56 -2
v -112 4 -2
v -114 4 -2
v -114 -56 -2
v -113 -56 -6
v -114 4 -2
v -113 4 -6
v -113 -56 -6
v -111 -56 -5
v -113 4 -6
v -111 4 -5
v -113 4 -6
v -111 -56 -5
v -112 -56 -2
v -111 4 -5
v -112 4 -2
v -112 4 -2
v -114 4 -2
v -111 4 -5
v -113 4 -6
v -111 -56 -5
v -113 -56 -6
v -112 -56 -2
v -114 -56 -2
vt -112 -56
vt -114 -56
vt -112 4
vt -114 4
vt 25.708776 -56
vt 21.585672 -56
vt 25.708776 4
vt 21.585672 4
vt 103.753555 -56
vt 101.51749 -56
vt 103.753555 4
vt 101.51749 4
vt 103.753555 4
vt -30.357868 -56
vt -33.520145 -56
vt -30.357868 4
vt -33.520145 4
vt 112 -2
vt 114 -2
vt 111 -5
vt 113 -6
vt -111 -5
vt -113 -6
vt -112 -2
vt -114 -2
vn -0 0 1
vn -0 0 1
vn -0 0 1
vn -0 0 1
vn -0.9701425 0 -0.24253562
vn -0.9701425 0 -0.24253562
vn -0.9701425 0 -0.24253562
vn -0.9701425 0 -0.24253562
vn 0.4472136 0 -0.8944272
vn 0.4472136 0 -0.8944272
vn 0.4472136 0 -0.8944272
vn 0.4472136 0 -0.8944272
vn 0.4472136 0 -0.8944272
vn 0.94868326 0 0.31622773
vn 0.94868326 0 0.31622773
vn 0.94868326 0 0.31622773
vn 0.94868326 0 0.31622773
vn -0 1 0
vn -0 1 0
vn -0 1 0
vn -0 1 0
vn -0 -1 0
vn -0 -1 0
vn -0 -1 0
vn -0 -1 0
g pb_Mesh401724_0
f 3/3/3 2/2/2 1/1/1
f 3/3/3 4/4/4 2/2/2
f 7/7/7 6/6/6 5/5/5
f 7/7/7 8/8/8 6/6/6
f 11/11/11 10/10/10 9/9/9
f 13/13/13 12/12/12 10/10/10
f 16/16/16 15/15/15 14/14/14
f 16/16/16 17/17/17 15/15/15
f 20/20/20 19/19/19 18/18/18
f 20/20/20 21/21/21 19/19/19
f 24/24/24 23/23/23 22/22/22
f 24/24/24 25/25/25 23/23/23
