g pb_Mesh398502
v -3 -160 20
v -38 -160 20
v -3 60 20
v -38 60 20
v -38 -160 20
v -34 -160 10
v -38 60 20
v -34 60 10
v -34 -160 10
v -0 -160 10
v -34 60 10
v -0 60 10
v -0 -160 10
v -3 -160 20
v -0 60 10
v -3 60 20
v -3 60 20
v -38 60 20
v -0 60 10
v -34 60 10
v -0 -160 10
v -34 -160 10
v -3 -160 20
v -38 -160 20
vt -3 -160
vt -38 -160
vt -3 60
vt -38 60
vt 32.68238 -160
vt 21.912052 -160
vt 32.68238 60
vt 21.912052 60
vt 34 -160
vt 0 -160
vt 34 60
vt 0 60
vt -9.578263 -160
vt -20.01857 -160
vt -9.578263 60
vt -20.01857 60
vt 3 20
vt 38 20
vt 0 10
vt 34 10
vt 0 10
vt -34 10
vt -3 20
vt -38 20
vn -0 0 0.99999994
vn -0 0 0.99999994
vn -0 0 0.99999994
vn -0 0 0.99999994
vn -0.92847675 0 -0.3713907
vn -0.92847675 0 -0.3713907
vn -0.92847675 0 -0.3713907
vn -0.92847675 0 -0.3713907
vn -0 0 -1
vn -0 0 -1
vn -0 0 -1
vn -0 0 -1
vn 0.95782626 0 0.28734788
vn 0.95782626 0 0.28734788
vn 0.95782626 0 0.28734788
vn 0.95782626 0 0.28734788
vn -0 1 0
vn -0 1 0
vn -0 1 0
vn -0 1 0
vn -0 -1 0
vn -0 -1 0
vn -0 -1 0
vn -0 -1 0
g pb_Mesh398502_0
f 3/3/3 2/2/2 1/1/1
f 3/3/3 4/4/4 2/2/2
f 7/7/7 6/6/6 5/5/5
f 7/7/7 8/8/8 6/6/6
f 11/11/11 10/10/10 9/9/9
f 11/11/11 12/12/12 10/10/10
f 15/15/15 14/14/14 13/13/13
f 15/15/15 16/16/16 14/14/14
f 19/19/19 18/18/18 17/17/17
f 19/19/19 20/20/20 18/18/18
f 23/23/23 22/22/22 21/21/21
f 23/23/23 24/24/24 22/22/22
