g pb_Mesh390408
v 19 -150 3
v 2 -150 14
v 19 41 3
v 2 42 14
v 2 -150 14
v -0 -150 -5
v 2 42 14
v -0 42 -5
v -0 -150 -5
v 8 -150 -6
v -0 42 -5
v 8 41 -6
v 8 -150 -6
v 19 -150 3
v 8 41 -6
v 19 41 3
v 19 41 3
v 2 42 14
v 8 41 -6
v -0 42 -5
v 8 -150 -6
v -0 -150 -5
v 19 -150 3
v 2 -150 14
vt 14.32208 -150
vt -5.9263773 -150
vt 14.32208 41
vt -5.9263773 42
vt 14.132446 -150
vt -4.9725275 -150
vt 14.132446 42
vt -4.9725275 42
vt -0.6201737 -150
vt -8.682432 -150
vt -0.6201737 42
vt -8.682432 41
vt -2.3922315 -150
vt -16.604902 -150
vt -2.3922315 41
vt -16.604902 41
vt -17.64377 4.665485
vt -0.6201035 15.674336
vt -6.6496983 -4.341757
vt 1.3788185 -3.31302
vt 8 -6
vt -0 -5
vt 19 3
vt 2 14
vn 0.5432513 0 0.8395701
vn 0.5432513 0 0.83957016
vn 0.5432513 0 0.83957016
vn 0.5432513 0 0.83957016
vn -0.99450547 0 0.104684785
vn -0.99450547 0 0.104684785
vn -0.99450547 0 0.104684785
vn -0.99450547 0 0.104684785
vn -0.12403473 0 -0.99227786
vn -0.12403474 0 -0.9922779
vn -0.12403474 0 -0.9922779
vn -0.12403473 0 -0.99227786
vn 0.6332378 0 -0.7739573
vn 0.6332378 0 -0.7739573
vn 0.6332378 0 -0.7739573
vn 0.6332378 0 -0.7739573
vn 0.032802615 0.99865735 -0.040092085
vn 0.06525105 0.9974089 -0.030295132
vn 0.06525105 0.9974089 -0.030295132
vn 0.12243803 0.9923924 -0.012888214
vn -0 -0.99999994 0
vn -0 -0.99999994 0
vn -0 -0.99999994 0
vn -0 -1 0
g pb_Mesh390408_0
f 3/3/3 2/2/2 1/1/1
f 3/3/3 4/4/4 2/2/2
f 7/7/7 6/6/6 5/5/5
f 7/7/7 8/8/8 6/6/6
f 11/11/11 10/10/10 9/9/9
f 11/11/11 12/12/12 10/10/10
f 15/15/15 14/14/14 13/13/13
f 15/15/15 16/16/16 14/14/14
f 19/19/19 18/18/18 17/17/17
f 19/19/19 20/20/20 18/18/18
f 23/23/23 22/22/22 21/21/21
f 23/23/23 24/24/24 22/22/22
