g pb_Mesh399136
v -30 56 -10
v -80 46 -10
v -30 60 -10
v -80 50 -10
v -80 46 -10
v -80 46 -30
v -80 50 -10
v -80 50 -30
v -80 46 -30
v -30 56 -30
v -80 50 -30
v -30 60 -30
v -30 56 -30
v -30 56 -10
v -30 60 -30
v -30 60 -10
v -30 60 -10
v -80 50 -10
v -30 60 -30
v -80 50 -30
v -30 56 -30
v -80 46 -30
v -30 56 -10
v -80 46 -10
vt -30 56
vt -80 46
vt -30 60
vt -80 50
vt -10 46
vt -30 46
vt -10 50
vt -30 50
vt 80 46
vt 30 56
vt 80 50
vt 30 60
vt 30 56
vt 10 56
vt 30 60
vt 10 60
vt 17.650452 -10
vt 68.64065 -10
vt 17.650452 -30
vt 68.64065 -30
vt -18.434917 -30
vt -69.42511 -30
vt -18.434917 -10
vt -69.42511 -10
vn -0 0 1
vn -0 0 1
vn -0 0 1
vn -0 0 1
vn -1 0 0
vn -1 0 0
vn -1 0 0
vn -1 0 0
vn -0 0 -1
vn -0 0 -1
vn -0 0 -1
vn -0 0 -1
vn 1 0 0
vn 1 0 0
vn 1 0 0
vn 1 0 0
vn -0.19611613 0.9805807 0
vn -0.19611613 0.9805807 0
vn -0.19611613 0.9805807 0
vn -0.19611613 0.9805807 0
vn 0.19611613 -0.9805807 0
vn 0.19611613 -0.9805807 0
vn 0.19611613 -0.9805807 0
vn 0.19611613 -0.9805807 0
g pb_Mesh399136_0
f 3/3/3 2/2/2 1/1/1
f 3/3/3 4/4/4 2/2/2
f 7/7/7 6/6/6 5/5/5
f 7/7/7 8/8/8 6/6/6
f 11/11/11 10/10/10 9/9/9
f 11/11/11 12/12/12 10/10/10
f 15/15/15 14/14/14 13/13/13
f 15/15/15 16/16/16 14/14/14
f 19/19/19 18/18/18 17/17/17
f 19/19/19 20/20/20 18/18/18
f 23/23/23 22/22/22 21/21/21
f 23/23/23 24/24/24 22/22/22
