g pb_Mesh393284
v -80 20 0
v -100 20 0
v -80 32 0
v -100 22 0
v -100 20 0
v -100 20 -20
v -100 22 0
v -100 22 -20
v -100 20 -20
v -80 20 -20
v -100 22 -20
v -80 32 -20
v -80 20 -20
v -80 20 0
v -80 32 -20
v -80 32 0
v -80 32 0
v -100 22 0
v -80 32 -20
v -100 22 -20
v -80 20 -20
v -100 20 -20
v -80 20 0
v -100 20 0
vt -80 20
vt -100 20
vt -80 32
vt -100 22
vt 0 20
vt -20 20
vt 0 22
vt -20 22
vt 100 20
vt 80 20
vt 100 22
vt 80 32
vt 20 20
vt 0 20
vt 20 32
vt 0 32
vt 57.24334 0
vt 79.60402 0
vt 57.24334 -20
vt 79.60402 -20
vt -80 -20
vt -100 -20
vt -80 0
vt -100 0
vn -0 0 1
vn -0 0 1
vn -0 0 1
vn -0 0 1
vn -1 0 0
vn -1 0 0
vn -1 0 0
vn -1 0 0
vn -0 0 -1
vn -0 0 -1
vn -0 0 -1
vn -0 0 -1
vn 1 0 0
vn 1 0 0
vn 1 0 0
vn 1 0 0
vn -0.4472136 0.8944272 0
vn -0.4472136 0.8944272 0
vn -0.4472136 0.8944272 0
vn -0.4472136 0.8944272 0
vn -0 -1 0
vn -0 -1 0
vn -0 -1 0
vn -0 -1 0
g pb_Mesh393284_0
f 3/3/3 2/2/2 1/1/1
f 3/3/3 4/4/4 2/2/2
f 7/7/7 6/6/6 5/5/5
f 7/7/7 8/8/8 6/6/6
f 11/11/11 10/10/10 9/9/9
f 11/11/11 12/12/12 10/10/10
f 15/15/15 14/14/14 13/13/13
f 15/15/15 16/16/16 14/14/14
f 19/19/19 18/18/18 17/17/17
f 19/19/19 20/20/20 18/18/18
f 23/23/23 22/22/22 21/21/21
f 23/23/23 24/24/24 22/22/22
