g pb_Mesh403862
v 5 -180 -5
v -45 -180 -5
v 5 60 -5
v -45 60 -5
v -45 -180 -5
v -45 -180 -35
v -45 60 -5
v -45 60 -35
v -45 -180 -35
v 5 -180 -35
v -45 60 -35
v 5 60 -35
v 5 -180 -35
v 5 -180 -5
v 5 60 -35
v 5 60 -5
v 5 60 -5
v -45 60 -5
v 5 60 -35
v -45 60 -35
v 5 -180 -35
v -45 -180 -35
v 5 -180 -5
v -45 -180 -5
vt 5 -180
vt -45 -180
vt 5 60
vt -45 60
vt -5 -180
vt -35 -180
vt -5 60
vt -35 60
vt 45 -180
vt -5 -180
vt 45 60
vt -5 60
vt 35 -180
vt 5 -180
vt 35 60
vt 5 60
vt -5 -5
vt 45 -5
vt -5 -35
vt 45 -35
vt 5 -35
vt -45 -35
vt 5 -5
vt -45 -5
vn -0 0 1
vn -0 0 1
vn -0 0 1
vn -0 0 1
vn -1 0 0
vn -1 0 0
vn -1 0 0
vn -1 0 0
vn -0 0 -1
vn -0 0 -1
vn -0 0 -1
vn -0 0 -1
vn 1 0 0
vn 1 0 0
vn 1 0 0
vn 1 0 0
vn -0 1 0
vn -0 1 0
vn -0 1 0
vn -0 1 0
vn -0 -1 0
vn -0 -1 0
vn -0 -1 0
vn -0 -1 0
g pb_Mesh403862_0
f 3/3/3 2/2/2 1/1/1
f 3/3/3 4/4/4 2/2/2
f 7/7/7 6/6/6 5/5/5
f 7/7/7 8/8/8 6/6/6
f 11/11/11 10/10/10 9/9/9
f 11/11/11 12/12/12 10/10/10
f 15/15/15 14/14/14 13/13/13
f 15/15/15 16/16/16 14/14/14
f 19/19/19 18/18/18 17/17/17
f 19/19/19 20/20/20 18/18/18
f 23/23/23 22/22/22 21/21/21
f 23/23/23 24/24/24 22/22/22
