g pb_Mesh1510508
v -10 0 0
v -10 10 0
v -7.071068 0 7.071068
v -7.071068 10 7.071068
v -7.071068 0 7.071068
v -7.071068 10 7.071068
v 4.371139E-07 0 10
v 4.371139E-07 10 10
v 4.371139E-07 0 10
v 4.371139E-07 10 10
v 7.071068 0 7.071068
v 7.071068 10 7.071068
v 7.071068 0 7.071068
v 7.071068 10 7.071068
v 10 0 -8.742278E-07
v 10 10 -8.742278E-07
v 10 0 -8.742278E-07
v 10 10 -8.742278E-07
v 7.0710683 0 -7.071067
v 7.0710683 10 -7.071067
v 7.0710683 0 -7.071067
v 7.0710683 10 -7.071067
v -1.1924881E-07 0 -10
v -1.1924881E-07 10 -10
v -1.1924881E-07 0 -10
v -1.1924881E-07 10 -10
v -7.0710664 0 -7.071069
v -7.0710664 10 -7.071069
v -7.0710664 0 -7.071069
v -7.0710664 10 -7.071069
v -10 0 0
v -10 10 0
v -10 0 0
v -0 0 0
v -7.071068 0 7.071068
v -10 10 0
v -0 10 0
v -7.071068 10 7.071068
v -7.071068 0 7.071068
v -0 0 0
v 4.371139E-07 0 10
v -7.071068 10 7.071068
v -0 10 0
v 4.371139E-07 10 10
v 4.371139E-07 0 10
v -0 0 0
v 7.071068 0 7.071068
v 4.371139E-07 10 10
v -0 10 0
v 7.071068 10 7.071068
v 7.071068 0 7.071068
v -0 0 0
v 10 0 -8.742278E-07
v 7.071068 10 7.071068
v -0 10 0
v 10 10 -8.742278E-07
v 10 0 -8.742278E-07
v -0 0 0
v 7.0710683 0 -7.071067
v 10 10 -8.742278E-07
v -0 10 0
v 7.0710683 10 -7.071067
v 7.0710683 0 -7.071067
v -0 0 0
v -1.1924881E-07 0 -10
v 7.0710683 10 -7.071067
v -0 10 0
v -1.1924881E-07 10 -10
v -1.1924881E-07 0 -10
v -0 0 0
v -7.0710664 0 -7.071069
v -1.1924881E-07 10 -10
v -0 10 0
v -7.0710664 10 -7.071069
v -7.0710664 0 -7.071069
v -0 0 0
v -10 0 0
v -7.0710664 10 -7.071069
v -0 10 0
v -10 10 0
vt -3.8268342 0
vt -3.8268342 10
vt 3.8268342 0
vt 3.8268342 10
vt -3.8268347 0
vt -3.8268347 10
vt 3.8268347 0
vt 3.8268347 10
vt -3.8268342 0
vt -3.8268342 10
vt 3.826834 0
vt 3.826834 10
vt -3.8268347 0
vt -3.8268347 10
vt 3.8268352 0
vt 3.8268352 10
vt -3.8268337 0
vt -3.8268337 10
vt 3.826833 0
vt 3.826833 10
vt -3.8268344 0
vt -3.8268344 10
vt 3.8268352 0
vt 3.8268352 10
vt -3.826834 0
vt -3.826834 10
vt 3.826833 0
vt 3.826833 10
vt -3.8268344 0
vt -3.8268344 10
vt 3.8268356 0
vt 3.8268356 10
vt -10 0
vt 0 0
vt -7.071068 7.071068
vt 10 0
vt 0 0
vt 7.071068 7.071068
vt -7.071068 7.071068
vt 0 0
vt 4.371139E-07 10
vt 7.071068 7.071068
vt 0 0
vt -4.371139E-07 10
vt 4.371139E-07 10
vt 0 0
vt 7.071068 7.071068
vt -4.371139E-07 10
vt 0 0
vt -7.071068 7.071068
vt 7.071068 7.071068
vt 0 0
vt 10 -8.742278E-07
vt -7.071068 7.071068
vt 0 0
vt -10 -8.742278E-07
vt 10 -8.742278E-07
vt 0 0
vt 7.0710683 -7.071067
vt -10 -8.742278E-07
vt 0 0
vt -7.0710683 -7.071067
vt 7.0710683 -7.071067
vt 0 0
vt -1.1924881E-07 -10
vt -7.0710683 -7.071067
vt 0 0
vt 1.1924881E-07 -10
vt -1.1924881E-07 -10
vt 0 0
vt -7.0710664 -7.071069
vt 1.1924881E-07 -10
vt 0 0
vt 7.0710664 -7.071069
vt -7.0710664 -7.071069
vt 0 0
vt -10 0
vt 7.0710664 -7.071069
vt 0 0
vt 10 0
vn -1 0 -8.0644504E-08
vn -1 0 -8.0644504E-08
vn -0.70710677 0 0.7071068
vn -0.70710677 0 0.7071068
vn -0.70710677 0 0.7071068
vn -0.70710677 0 0.7071068
vn 1.61289E-08 0 1
vn 1.61289E-08 0 1
vn 1.61289E-08 0 1
vn 1.61289E-08 0 1
vn 0.7071068 0 0.70710677
vn 0.7071068 0 0.70710677
vn 0.7071068 0 0.70710677
vn 0.7071068 0 0.70710677
vn 1 0 -1.61289E-08
vn 1 0 -1.61289E-08
vn 1 0 -1.61289E-08
vn 1 0 -1.61289E-08
vn 0.7071068 0 -0.70710677
vn 0.7071068 0 -0.70710677
vn 0.7071068 0 -0.70710677
vn 0.7071068 0 -0.70710677
vn 6.45156E-08 0 -1
vn 6.45156E-08 0 -1
vn 6.45156E-08 0 -1
vn 6.45156E-08 0 -1
vn -0.7071067 0 -0.7071068
vn -0.7071067 0 -0.7071068
vn -0.7071067 0 -0.7071068
vn -0.7071067 0 -0.7071068
vn -1 0 -8.0644504E-08
vn -1 0 -8.0644504E-08
vn -0 -1 0
vn -0 -1 0
vn -0 -1 0
vn -0 1 0
vn -0 1 0
vn -0 1 0
vn -0 -1 0
vn -0 -1 0
vn -0 -1 0
vn -0 1 0
vn -0 1 0
vn -0 1 0
vn -0 -1 0
vn -0 -1 0
vn -0 -1 0
vn -0 1 0
vn -0 1 0
vn -0 1 0
vn -0 -1 0
vn -0 -1 0
vn -0 -1 0
vn -0 1 0
vn -0 1 0
vn -0 1 0
vn -0 -1 0
vn -0 -1 0
vn -0 -1 0
vn -0 1 0
vn -0 1 0
vn -0 1 0
vn -0 -1 0
vn -0 -1 0
vn -0 -1 0
vn -0 1 0
vn -0 1 0
vn -0 1 0
vn -0 -1 0
vn -0 -1 0
vn -0 -1 0
vn -0 1 0
vn -0 1 0
vn -0 1 0
vn -0 -1 0
vn -0 -1 0
vn -0 -1 0
vn -0 1 0
vn -0 1 0
vn -0 1 0
g pb_Mesh1510508_0
f 3/3/3 2/2/2 1/1/1
f 3/3/3 4/4/4 2/2/2
f 7/7/7 6/6/6 5/5/5
f 7/7/7 8/8/8 6/6/6
f 11/11/11 10/10/10 9/9/9
f 11/11/11 12/12/12 10/10/10
f 15/15/15 14/14/14 13/13/13
f 15/15/15 16/16/16 14/14/14
f 19/19/19 18/18/18 17/17/17
f 19/19/19 20/20/20 18/18/18
f 23/23/23 22/22/22 21/21/21
f 23/23/23 24/24/24 22/22/22
f 27/27/27 26/26/26 25/25/25
f 27/27/27 28/28/28 26/26/26
f 31/31/31 30/30/30 29/29/29
f 31/31/31 32/32/32 30/30/30
f 33/33/33 34/34/34 35/35/35
f 39/39/39 40/40/40 41/41/41
f 45/45/45 46/46/46 47/47/47
f 51/51/51 52/52/52 53/53/53
f 57/57/57 58/58/58 59/59/59
f 63/63/63 64/64/64 65/65/65
f 69/69/69 70/70/70 71/71/71
f 75/75/75 76/76/76 77/77/77
f 38/38/38 37/37/37 36/36/36
f 44/44/44 43/43/43 42/42/42
f 50/50/50 49/49/49 48/48/48
f 56/56/56 55/55/55 54/54/54
f 62/62/62 61/61/61 60/60/60
f 68/68/68 67/67/67 66/66/66
f 74/74/74 73/73/73 72/72/72
f 80/80/80 79/79/79 78/78/78
