g pb_Mesh403878
v 17 -160 -90
v -60 -160 -90
v 17 60 -90
v -60 60 -90
v -60 -160 -90
v -60 -160 -100
v -60 60 -90
v -60 60 -100
v -60 -160 -100
v 20 -160 -100
v -60 60 -100
v 20 60 -100
v 20 -160 -100
v 17 -160 -90
v 20 60 -100
v 17 60 -90
v 17 60 -90
v -60 60 -90
v 20 60 -100
v -60 60 -100
v 20 -160 -100
v -60 -160 -100
v 17 -160 -90
v -60 -160 -90
vt 17 -160
vt -60 -160
vt 17 60
vt -60 60
vt -90 -160
vt -100 -160
vt -90 60
vt -100 60
vt 60 -160
vt -20 -160
vt 60 60
vt -20 60
vt 101.52959 -160
vt 91.08928 -160
vt 101.52959 60
vt 91.08928 60
vt -17 -90
vt 60 -90
vt -20 -100
vt 60 -100
vt 20 -100
vt -60 -100
vt 17 -90
vt -60 -90
vn -0 0 1
vn -0 0 1
vn -0 0 1
vn -0 0 1
vn -1 0 0
vn -1 0 0
vn -1 0 0
vn -1 0 0
vn -0 0 -1
vn -0 0 -1
vn -0 0 -1
vn -0 0 -1
vn 0.95782626 0 0.28734788
vn 0.95782626 0 0.28734788
vn 0.95782626 0 0.28734788
vn 0.95782626 0 0.28734788
vn -0 1 0
vn -0 1 0
vn -0 1 0
vn -0 1 0
vn -0 -1 0
vn -0 -1 0
vn -0 -1 0
vn -0 -1 0
g pb_Mesh403878_0
f 3/3/3 2/2/2 1/1/1
f 3/3/3 4/4/4 2/2/2
f 7/7/7 6/6/6 5/5/5
f 7/7/7 8/8/8 6/6/6
f 11/11/11 10/10/10 9/9/9
f 11/11/11 12/12/12 10/10/10
f 15/15/15 14/14/14 13/13/13
f 15/15/15 16/16/16 14/14/14
f 19/19/19 18/18/18 17/17/17
f 19/19/19 20/20/20 18/18/18
f 23/23/23 22/22/22 21/21/21
f 23/23/23 24/24/24 22/22/22
