g pb_Mesh396362
v -0 -160 30
v -40 -160 20
v -0 55 30
v -40 55 20
v -40 -160 20
v -40 -160 0
v -40 55 20
v -40 60 0
v -40 -160 0
v 5 -160 0
v -40 60 0
v 5 59.65437 0
v 5 -160 0
v -0 -160 30
v 5 59.65437 0
v -0 55 30
v -0 55 30
v -40 55 20
v 5 59.65437 0
v -40 60 0
v 5 -160 0
v -40 -160 0
v -0 -160 30
v -40 -160 20
vt 7.276069 -160
vt -33.95499 -160
vt 7.276069 55
vt -33.95499 55
vt 20 -160
vt 0 -160
vt 20 55
vt 0 60
vt 40 -160
vt -5 -160
vt 40 60
vt -5 59.65437
vt 0.8219949 -160
vt -29.591818 -160
vt 0.8219949 59.65437
vt -29.591818 55
vt -2.0465043 21.581915
vt 37.925793 11.471761
vt -7.2162266 -8.748549
vt 37.73975 -9.045895
vt 5 0
vt -40 0
vt 0 30
vt -40 20
vn -0.24253564 0 0.97014254
vn -0.24253564 0 0.97014254
vn -0.24253564 0 0.97014254
vn -0.24253564 0 0.97014254
vn -1 0 0
vn -1 0 0
vn -1 0 0
vn -1 0 0
vn -0 0 -1
vn -0 0 -1
vn -0 0 -1
vn -0 0 -1
vn 0.986394 0 0.164399
vn 0.9863939 0 0.164399
vn 0.9863939 0 0.164399
vn 0.9863939 0 0.16439898
vn -0.036803756 0.98841953 0.14721502
vn -0.018101979 0.98203874 0.1878091
vn -0.018101979 0.98203874 0.1878091
vn 0.007451148 0.9701155 0.24252887
vn -0 -1 0
vn -0 -1 0
vn -0 -1 0
vn -0 -1 0
g pb_Mesh396362_0
f 3/3/3 2/2/2 1/1/1
f 3/3/3 4/4/4 2/2/2
f 7/7/7 6/6/6 5/5/5
f 7/7/7 8/8/8 6/6/6
f 11/11/11 10/10/10 9/9/9
f 11/11/11 12/12/12 10/10/10
f 15/15/15 14/14/14 13/13/13
f 15/15/15 16/16/16 14/14/14
f 19/19/19 18/18/18 17/17/17
f 19/19/19 20/20/20 18/18/18
f 23/23/23 22/22/22 21/21/21
f 23/23/23 24/24/24 22/22/22
