g pb_Mesh399194
v 15 -150 -2
v 9 -150 -2
v 15 58 -2
v 9 58 -2
v 9 -150 -2
v 5 -150 -7
v 9 58 -2
v 5 58 -7
v 5 -150 -7
v 15 -150 -7
v 5 58 -7
v 15 58 -7
v 15 -150 -7
v 15 -150 -2
v 15 58 -7
v 15 58 -2
v 15 58 -2
v 9 58 -2
v 15 58 -7
v 5 58 -7
v 15 -150 -7
v 5 -150 -7
v 15 -150 -2
v 9 -150 -2
vt 15 -150
vt 9 -150
vt 15 58
vt 9 58
vt 4.060518 -150
vt -2.3426065 -150
vt 4.060518 58
vt -2.3426065 58
vt -5 -150
vt -15 -150
vt -5 58
vt -15 58
vt 7 -150
vt 2 -150
vt 7 58
vt 2 58
vt -15 -2
vt -9 -2
vt -15 -7
vt -5 -7
vt 15 -7
vt 5 -7
vt 15 -2
vt 9 -2
vn -0 0 1
vn -0 0 1
vn -0 0 1
vn -0 0 1
vn -0.7808688 0 0.62469506
vn -0.7808688 0 0.62469506
vn -0.7808688 0 0.62469506
vn -0.7808688 0 0.62469506
vn -0 0 -1
vn -0 0 -1
vn -0 0 -1
vn -0 0 -1
vn 1 0 0
vn 1 0 0
vn 1 0 0
vn 1 0 0
vn -0 1 0
vn -0 1 0
vn -0 1 0
vn -0 1 0
vn -0 -1 0
vn -0 -1 0
vn -0 -1 0
vn -0 -1 0
g pb_Mesh399194_0
f 3/3/3 2/2/2 1/1/1
f 3/3/3 4/4/4 2/2/2
f 7/7/7 6/6/6 5/5/5
f 7/7/7 8/8/8 6/6/6
f 11/11/11 10/10/10 9/9/9
f 11/11/11 12/12/12 10/10/10
f 15/15/15 14/14/14 13/13/13
f 15/15/15 16/16/16 14/14/14
f 19/19/19 18/18/18 17/17/17
f 19/19/19 20/20/20 18/18/18
f 23/23/23 22/22/22 21/21/21
f 23/23/23 24/24/24 22/22/22
