g pb_Mesh394528
v -45 18 -80
v -55 13 -80
v -45 22 -80
v -55 17 -80
v -55 13 -80
v -55 13 -81
v -55 17 -80
v -55 17 -81
v -55 13 -81
v -45 18 -81
v -55 17 -81
v -45 22 -81
v -45 18 -81
v -45 18 -80
v -45 22 -81
v -45 22 -80
v -45 22 -80
v -55 17 -80
v -45 22 -81
v -55 17 -81
v -45 18 -81
v -55 13 -81
v -45 18 -80
v -55 13 -80
vt -45 18
vt -55 13
vt -45 22
vt -55 17
vt -80 13
vt -81 13
vt -80 17
vt -81 17
vt 55 13
vt 45 18
vt 55 17
vt 45 22
vt 81 18
vt 80 18
vt 81 22
vt 80 22
vt 30.410524 -80
vt 41.590862 -80
vt 30.410524 -81
vt 41.590862 -81
vt -32.19938 -81
vt -43.37972 -81
vt -32.19938 -80
vt -43.37972 -80
vn -0 0 1
vn -0 0 1
vn -0 0 1
vn -0 0 1
vn -1 0 0
vn -1 0 0
vn -1 0 0
vn -1 0 0
vn -0 0 -1
vn -0 0 -1
vn -0 0 -1
vn -0 0 -1
vn 1 0 0
vn 1 0 0
vn 1 0 0
vn 1 0 0
vn -0.44721362 0.89442724 0
vn -0.44721362 0.89442724 0
vn -0.44721362 0.89442724 0
vn -0.44721362 0.89442724 0
vn 0.44721362 -0.89442724 0
vn 0.44721362 -0.89442724 0
vn 0.44721362 -0.89442724 0
vn 0.44721362 -0.89442724 0
g pb_Mesh394528_0
f 3/3/3 2/2/2 1/1/1
f 3/3/3 4/4/4 2/2/2
f 7/7/7 6/6/6 5/5/5
f 7/7/7 8/8/8 6/6/6
f 11/11/11 10/10/10 9/9/9
f 11/11/11 12/12/12 10/10/10
f 15/15/15 14/14/14 13/13/13
f 15/15/15 16/16/16 14/14/14
f 19/19/19 18/18/18 17/17/17
f 19/19/19 20/20/20 18/18/18
f 23/23/23 22/22/22 21/21/21
f 23/23/23 24/24/24 22/22/22
