g PillowMesh.001
v -0.7262166 -0.5449581 0
v -0.8740843 -0.6559191 0
v -0.9989536 0 0
v -0.82996184 0 0
v -0.8740843 0.6559191 0
v 5.9604638E-08 -0.5618414 0
v 5.9604638E-08 -0.6762401 0
v -0.7262166 0.5449581 0
v 5.9604638E-08 0.6762401 0
v 0.72621673 -0.5449581 0
v 0.8740844 -0.6559191 0
v 5.9604638E-08 0.5618414 0
v 0.8740844 0.6559191 0
v 0.82996196 0 0
v 0.9989537 0 0
v 0.72621673 0.5449581 0
v -0.6916349 -0.51900774 -0.09968134
v -0.6916349 0.51900774 -0.09968134
v -0.7262166 0 -0.1046654
v 5.9604638E-08 0.49161124 -0.1046654
v 5.9604638E-08 0 -0.11961761
v 5.9604638E-08 -0.49161124 -0.1046654
v 0.6916351 0.51900774 -0.09968134
v 0.72621673 0 -0.1046654
v 0.6916351 -0.51900774 -0.09968134
v -0.7262166 0 0.1046654
v -0.6916349 0.51900774 0.09968134
v 5.9604638E-08 0.49161124 0.1046654
v 0.6916351 0.51900774 0.09968134
v 0.72621673 0 0.1046654
v 5.9604638E-08 0 0.11961761
v 0.6916351 -0.51900774 0.09968134
v 5.9604638E-08 -0.49161124 0.1046654
v -0.6916349 -0.51900774 0.09968134
vt 0.003414398 0.9965468
vt 0.003414398 0.9965468
vt 0.003414398 0.9965468
vt 0.003414398 0.9965468
vt 0.003414398 0.9965468
vt 0.003414398 0.9965468
vt 0.003414398 0.9965468
vt 0.003414398 0.9965468
vt 0.003414398 0.9965468
vt 0.003414398 0.9965468
vt 0.003414398 0.9965468
vt 0.003414398 0.9965468
vt 0.003414398 0.9965468
vt 0.003414398 0.9965468
vt 0.003414398 0.9965468
vt 0.003414398 0.9965468
vt 0.003414398 0.9965468
vt 0.003414398 0.9965468
vt 0.003414398 0.9965468
vt 0.003414398 0.9965468
vt 0.003414398 0.9965468
vt 0.003414398 0.9965468
vt 0.003414398 0.9965468
vt 0.003414398 0.9965468
vt 0.003414398 0.9965468
vt 0.003414398 0.9965468
vt 0.003414398 0.9965468
vt 0.003414398 0.9965468
vt 0.003414398 0.9965468
vt 0.003414398 0.9965468
vt 0.003414398 0.9965468
vt 0.003414398 0.9965468
vt 0.003414398 0.9965468
vt 0.003414398 0.9965468
vn -0.40041512 -0.45455658 0.7956419
vn -0 0 1
vn -0 0 1
vn -0.8006112 0 0.5991842
vn -0 0 1
vn -0 -0.8705606 0.49206126
vn -0 0 1
vn -0.40041512 0.45455658 0.7956419
vn -0 0 1
vn 0.40041512 -0.45455658 0.7956419
vn -0 0 1
vn -0 0.8705606 0.49206126
vn -0 0 1
vn 0.8006112 0 0.5991842
vn -0 0 1
vn 0.40041512 0.45455658 0.7956419
vn -0.35115522 -0.4642903 -0.81309557
vn -0.35115522 0.4642903 -0.81309557
vn -0.48382017 0 -0.87516737
vn -0 0.53338546 -0.84587234
vn -0 0 -1
vn -0 -0.53338546 -0.84587234
vn 0.35115522 0.4642903 -0.81309557
vn 0.48382017 0 -0.87516737
vn 0.35115522 -0.4642903 -0.81309557
vn -0.48382017 0 0.87516737
vn -0.35115522 0.4642903 0.81309557
vn -0 0.53338546 0.84587234
vn 0.35115522 0.4642903 0.81309557
vn 0.48382017 0 0.87516737
vn -0 0 1
vn 0.35115522 -0.4642903 0.81309557
vn -0 -0.53338546 0.84587234
vn -0.35115522 -0.4642903 0.81309557
g PillowMesh.001_0
f 3/3/3 2/2/2 1/1/1
f 4/4/4 3/3/3 1/1/1
f 5/5/5 3/3/3 4/4/4
f 1/1/1 2/2/2 6/6/6
f 2/2/2 7/7/7 6/6/6
f 8/8/8 5/5/5 4/4/4
f 9/9/9 5/5/5 8/8/8
f 6/6/6 7/7/7 10/10/10
f 7/7/7 11/11/11 10/10/10
f 12/12/12 9/9/9 8/8/8
f 13/13/13 9/9/9 12/12/12
f 10/10/10 11/11/11 14/14/14
f 11/11/11 15/15/15 14/14/14
f 15/15/15 13/13/13 16/16/16
f 16/16/16 13/13/13 12/12/12
f 14/14/14 15/15/15 16/16/16
f 1/1/1 17/17/17 6/6/6
f 8/8/8 18/18/18 4/4/4
f 18/18/18 19/19/19 4/4/4
f 19/19/19 17/17/17 1/1/1
f 4/4/4 19/19/19 1/1/1
f 18/18/18 20/20/20 19/19/19
f 20/20/20 18/18/18 8/8/8
f 12/12/12 20/20/20 8/8/8
f 19/19/19 21/21/21 17/17/17
f 20/20/20 21/21/21 19/19/19
f 17/17/17 22/22/22 6/6/6
f 21/21/21 22/22/22 17/17/17
f 20/20/20 23/23/23 21/21/21
f 23/23/23 20/20/20 12/12/12
f 16/16/16 23/23/23 12/12/12
f 23/23/23 24/24/24 21/21/21
f 21/21/21 24/24/24 22/22/22
f 24/24/24 23/23/23 16/16/16
f 14/14/14 24/24/24 16/16/16
f 24/24/24 25/25/25 22/22/22
f 25/25/25 24/24/24 14/14/14
f 22/22/22 25/25/25 10/10/10
f 6/6/6 22/22/22 10/10/10
f 10/10/10 25/25/25 14/14/14
f 8/8/8 4/4/4 26/26/26
f 12/12/12 8/8/8 27/27/27
f 27/27/27 8/8/8 26/26/26
f 16/16/16 12/12/12 28/28/28
f 28/28/28 12/12/12 27/27/27
f 14/14/14 16/16/16 29/29/29
f 29/29/29 16/16/16 28/28/28
f 30/30/30 14/14/14 29/29/29
f 10/10/10 14/14/14 30/30/30
f 29/29/29 28/28/28 30/30/30
f 28/28/28 27/27/27 31/31/31
f 28/28/28 31/31/31 30/30/30
f 27/27/27 26/26/26 31/31/31
f 32/32/32 10/10/10 30/30/30
f 6/6/6 10/10/10 32/32/32
f 30/30/30 31/31/31 32/32/32
f 33/33/33 6/6/6 32/32/32
f 31/31/31 33/33/33 32/32/32
f 31/31/31 26/26/26 33/33/33
f 1/1/1 6/6/6 33/33/33
f 4/4/4 1/1/1 34/34/34
f 26/26/26 4/4/4 34/34/34
f 26/26/26 34/34/34 33/33/33
f 34/34/34 1/1/1 33/33/33
