g Pit
v -0.03033406 -0.009999999 -0.01
v -0.03033406 -0.009999999 0.01890083
v -0.030333813 0.01614629 0.01
v -0.030333813 0.01614629 -0.01
v -0.030333813 0.01614629 -0.01
v -0.030333813 0.01614629 0.01
v 0.031071208 0.01614629 0.01
v 0.031071208 0.01614629 -0.01
v 0.031071208 0.01614629 -0.01
v 0.031071208 0.01614629 0.01
v 0.031070964 -0.009999999 0.01890083
v 0.031070964 -0.009999999 -0.01
v 0.031070964 -0.009999999 -0.01
v 0.031070964 -0.009999999 0.01890083
v -0.03033406 -0.009999999 0.01890083
v -0.03033406 -0.009999999 -0.01
v -0.030333813 0.01614629 -0.01
v 0.031071208 0.01614629 -0.01
v 0.031070964 -0.009999999 -0.01
v -0.03033406 -0.009999999 -0.01
vn 1 -9.323605E-06 0
vn 1 -9.323605E-06 0
vn 1 -9.323605E-06 0
vn 1 -9.323605E-06 0
vn -0 -1 0
vn -0 -1 0
vn -0 -1 0
vn -0 -1 0
vn -1 9.3609E-06 0
vn -1 9.3609E-06 0
vn -1 9.3609E-06 0
vn -1 9.3609E-06 0
vn -0 1 0
vn -0 1 0
vn -0 1 0
vn -0 1 0
vn -0 0 1
vn -0 0 1
vn -0 0 1
vn -0 0 1
g Pit_0
f 3/3/3 2/2/2 1/1/1
f 4/4/4 3/3/3 1/1/1
f 7/7/7 6/6/6 5/5/5
f 8/8/8 7/7/7 5/5/5
f 11/11/11 10/10/10 9/9/9
f 12/12/12 11/11/11 9/9/9
f 15/15/15 14/14/14 13/13/13
f 16/16/16 15/15/15 13/13/13
f 19/19/19 18/18/18 17/17/17
f 20/20/20 19/19/19 17/17/17
