g QuestionMarkMesh
v -0.8090174 2.3841858E-07 0.587785
v -1.3908952 5.2302124E-07 0.45192847
v -0.9510568 3.5762787E-07 0.30901653
v -0.95105654 -0.6918155 0.30901653
v -1.390895 -0.6918153 0.45192847
v -0.8090172 -0.6918156 0.587785
v -1.1831663 -0.6918155 0.85962
v -1.1831665 3.4868083E-07 0.85962
v -0.5877857 2.3841858E-07 0.80901694
v -0.5877855 -0.6918156 0.80901694
v -0.85962075 -0.6918155 1.1831658
v -0.859621 3.4868083E-07 1.1831658
v -0.30901742 2.3841858E-07 0.95105666
v -0.30901718 -0.6918156 0.95105666
v -0.4519295 -0.6918155 1.3908951
v -0.45192975 3.4868083E-07 1.3908951
v -3.2584137E-07 2.3841858E-07 1.0000004
v -8.742279E-08 -0.6918156 1.0000004
v -2.3811575E-07 -0.6918155 1.4624739
v -4.7653432E-07 3.4868083E-07 1.4624739
v 0.3090168 2.3841858E-07 0.9510569
v 0.30901703 -0.6918156 0.9510569
v 0.4519291 -0.6918155 1.3908954
v 0.45192885 3.4868083E-07 1.3908954
v 0.5877852 2.3841858E-07 0.80901736
v 0.5877854 -0.6918156 0.80901736
v 0.85962045 -0.6918155 1.1831664
v 0.8596202 3.4868083E-07 1.1831664
v 0.809017 2.3841858E-07 0.5877855
v 0.80901724 -0.6918156 0.5877855
v 1.1831661 -0.6918155 0.8596207
v 1.1831659 3.4868083E-07 0.8596207
v 0.9510565 3.5762787E-07 0.3090173
v 0.9510567 -0.6918155 0.3090173
v 1.3908951 -0.6918153 0.45192963
v 1.3908949 5.230213E-07 0.45192963
v 1 3.5762787E-07 3.2782555E-07
v 1.0000002 -0.6918155 3.2782555E-07
v 1.4624738 -0.6918153 4.7943615E-07
v 1.4624735 5.230213E-07 4.7943615E-07
v 0.95105654 3.5762787E-07 -0.30901667
v 0.9510568 -0.6918155 -0.30901667
v 1.3908952 -0.6918153 -0.45192873
v 1.390895 5.230213E-07 -0.45192873
v 0.809017 3.5762787E-07 -0.58778495
v 0.80901724 -0.6918155 -0.58778495
v 1.1831663 -0.6918153 -0.85962
v 1.183166 5.230213E-07 -0.85962
v 0.54763997 3.5982262E-07 -0.83131963
v 0.5476402 -0.6918155 -0.83131963
v 0.85962063 -0.6918153 -1.1831656
v 0.8596204 5.230213E-07 -1.1831656
v 0.26441112 3.6452806E-07 -1.1015385
v 0.26441136 -0.6918155 -1.1015385
v 0.5880636 -0.6918154 -1.4420283
v 0.58806336 5.035549E-07 -1.4420283
v 0.08777814 3.60481E-07 -1.3251023
v 0.08777838 -0.6918155 -1.3251023
v 0.3577178 -0.6918154 -1.7545755
v 0.35771757 4.7235298E-07 -1.7545755
v -0 3.5762787E-07 -1.6894423
v 2.3841858E-07 -0.6918155 -1.6894423
v 0.35970187 -0.6918154 -2.0359406
v 0.35970163 4.6274187E-07 -2.0359406
v -0 3.5762787E-07 -2.516913
v 2.3841858E-07 -0.6918155 -2.516913
v 0.35970163 4.299887E-07 -2.516913
v 0.35970187 -0.69181544 -2.516913
v 0.35970163 4.299887E-07 -2.7404418
v -0 3.5762787E-07 -2.7404418
v -0 3.5762787E-07 -3.14896
v 2.3841858E-07 -0.6918155 -2.7404418
v 2.3841858E-07 -0.6918155 -3.14896
v 0.35970187 -0.69181544 -2.7404418
v 0.35970163 4.299887E-07 -3.14896
v 0.35970187 -0.69181544 -3.14896
vn 0.540505 0.7440718 -0.39269778
vn -0.7594022 0.5695441 -0.31452796
vn 0.3100786 0.5860668 -0.7485834
vn 0.3100786 -0.5860668 -0.7485834
vn -0.7594022 -0.5695441 -0.31452796
vn 0.540505 -0.7440718 -0.39269778
vn -0.5979928 -0.6735278 0.43447104
vn -0.5979928 0.6735278 0.43447104
vn 0.39269778 0.7440718 -0.540505
vn 0.39269778 -0.7440718 -0.540505
vn -0.43447104 -0.6735278 0.5979928
vn -0.43447104 0.6735278 0.5979928
vn 0.20643373 0.7440648 -0.63541543
vn 0.20643373 -0.7440648 -0.63541543
vn -0.22840689 -0.67353183 0.70298296
vn -0.22840689 0.67353183 0.70298296
vn -0 0.7440676 -0.66810435
vn -0 -0.7440676 -0.66810435
vn -0 -0.67353666 0.73915374
vn -0 0.67353666 0.73915374
vn -0.20643373 0.7440648 -0.63541543
vn -0.20643373 -0.7440648 -0.63541543
vn 0.22840689 -0.67353183 0.70298296
vn 0.22840689 0.67353183 0.70298296
vn -0.39269778 0.7440718 -0.540505
vn -0.39269778 -0.7440718 -0.540505
vn 0.43447104 -0.6735278 0.5979928
vn 0.43447104 0.6735278 0.5979928
vn -0.540505 0.7440718 -0.39269778
vn -0.540505 -0.7440718 -0.39269778
vn 0.5979928 -0.6735278 0.43447104
vn 0.5979928 0.6735278 0.43447104
vn -0.63541543 0.7440648 -0.20643373
vn -0.63541543 -0.7440648 -0.20643373
vn 0.70298296 -0.67353183 0.22840689
vn 0.70298296 0.67353183 0.22840689
vn -0.66810435 0.7440676 0
vn -0.66810435 -0.7440676 0
vn 0.73915374 -0.67353666 0
vn 0.73915374 0.67353666 0
vn -0.63541543 0.7440648 0.20643373
vn -0.63541543 -0.7440648 0.20643373
vn 0.70298296 -0.67353183 -0.22840689
vn 0.70298296 0.67353183 -0.22840689
vn -0.5295959 0.7484171 0.39924937
vn -0.5295959 -0.7484171 0.39924937
vn 0.5979928 -0.6735278 -0.43447104
vn 0.5979928 0.6735278 -0.43447104
vn -0.48598862 0.70578825 0.5154397
vn -0.48598862 -0.70578825 0.5154397
vn 0.49584714 -0.70441604 -0.5078717
vn 0.4958548 0.70442694 -0.50784904
vn -0.5339263 0.691678 0.486317
vn -0.5339263 -0.691678 0.486317
vn 0.5150414 -0.7272106 -0.4537589
vn 0.5150414 0.7272106 -0.4537589
vn -0.6741648 0.6618656 0.3277741
vn -0.6741648 -0.6618656 0.3277741
vn 0.58859545 -0.7855061 -0.19114247
vn 0.58859545 0.7855061 -0.19114247
vn -0.72672164 0.6814923 0.08627759
vn -0.72672164 -0.6814923 0.08627759
vn 0.7078976 -0.70631063 0.002472072
vn 0.7078976 0.70631063 0.002472072
vn -0.57735026 0.57735026 -0.57735026
vn -0.57735026 -0.57735026 -0.57735026
vn 0.57735026 0.57735026 -0.57735026
vn 0.57735026 -0.57735026 -0.57735026
vn 0.57735026 0.57735026 0.57735026
vn -0.57735026 0.57735026 0.57735026
vn -0.57735026 0.57735026 -0.57735026
vn -0.57735026 -0.57735026 0.57735026
vn -0.57735026 -0.57735026 -0.57735026
vn 0.57735026 -0.57735026 0.57735026
vn 0.57735026 0.57735026 -0.57735026
vn 0.57735026 -0.57735026 -0.57735026
g QuestionMarkMesh_0
f 3/3/3 2/2/2 1/1/1
f 4/4/4 3/3/3 1/1/1
f 4/4/4 5/5/5 3/3/3
f 5/5/5 2/2/2 3/3/3
f 5/5/5 4/4/4 6/6/6
f 6/6/6 4/4/4 1/1/1
f 5/5/5 7/7/7 2/2/2
f 7/7/7 5/5/5 6/6/6
f 2/2/2 8/8/8 1/1/1
f 7/7/7 8/8/8 2/2/2
f 6/6/6 1/1/1 9/9/9
f 1/1/1 8/8/8 9/9/9
f 7/7/7 6/6/6 10/10/10
f 10/10/10 6/6/6 9/9/9
f 7/7/7 11/11/11 8/8/8
f 11/11/11 7/7/7 10/10/10
f 8/8/8 12/12/12 9/9/9
f 11/11/11 12/12/12 8/8/8
f 10/10/10 9/9/9 13/13/13
f 9/9/9 12/12/12 13/13/13
f 11/11/11 10/10/10 14/14/14
f 14/14/14 10/10/10 13/13/13
f 11/11/11 15/15/15 12/12/12
f 15/15/15 11/11/11 14/14/14
f 12/12/12 16/16/16 13/13/13
f 15/15/15 16/16/16 12/12/12
f 14/14/14 13/13/13 17/17/17
f 13/13/13 16/16/16 17/17/17
f 15/15/15 14/14/14 18/18/18
f 18/18/18 14/14/14 17/17/17
f 15/15/15 19/19/19 16/16/16
f 19/19/19 15/15/15 18/18/18
f 16/16/16 20/20/20 17/17/17
f 19/19/19 20/20/20 16/16/16
f 18/18/18 17/17/17 21/21/21
f 17/17/17 20/20/20 21/21/21
f 19/19/19 18/18/18 22/22/22
f 22/22/22 18/18/18 21/21/21
f 19/19/19 23/23/23 20/20/20
f 23/23/23 19/19/19 22/22/22
f 20/20/20 24/24/24 21/21/21
f 23/23/23 24/24/24 20/20/20
f 22/22/22 21/21/21 25/25/25
f 21/21/21 24/24/24 25/25/25
f 23/23/23 22/22/22 26/26/26
f 26/26/26 22/22/22 25/25/25
f 23/23/23 27/27/27 24/24/24
f 27/27/27 23/23/23 26/26/26
f 24/24/24 28/28/28 25/25/25
f 27/27/27 28/28/28 24/24/24
f 26/26/26 25/25/25 29/29/29
f 25/25/25 28/28/28 29/29/29
f 27/27/27 26/26/26 30/30/30
f 30/30/30 26/26/26 29/29/29
f 27/27/27 31/31/31 28/28/28
f 31/31/31 27/27/27 30/30/30
f 28/28/28 32/32/32 29/29/29
f 31/31/31 32/32/32 28/28/28
f 30/30/30 29/29/29 33/33/33
f 29/29/29 32/32/32 33/33/33
f 31/31/31 30/30/30 34/34/34
f 34/34/34 30/30/30 33/33/33
f 31/31/31 35/35/35 32/32/32
f 35/35/35 31/31/31 34/34/34
f 32/32/32 36/36/36 33/33/33
f 35/35/35 36/36/36 32/32/32
f 34/34/34 33/33/33 37/37/37
f 33/33/33 36/36/36 37/37/37
f 35/35/35 34/34/34 38/38/38
f 38/38/38 34/34/34 37/37/37
f 35/35/35 39/39/39 36/36/36
f 39/39/39 35/35/35 38/38/38
f 36/36/36 40/40/40 37/37/37
f 39/39/39 40/40/40 36/36/36
f 38/38/38 37/37/37 41/41/41
f 37/37/37 40/40/40 41/41/41
f 39/39/39 38/38/38 42/42/42
f 42/42/42 38/38/38 41/41/41
f 39/39/39 43/43/43 40/40/40
f 43/43/43 39/39/39 42/42/42
f 40/40/40 44/44/44 41/41/41
f 43/43/43 44/44/44 40/40/40
f 42/42/42 41/41/41 45/45/45
f 41/41/41 44/44/44 45/45/45
f 43/43/43 42/42/42 46/46/46
f 46/46/46 42/42/42 45/45/45
f 43/43/43 47/47/47 44/44/44
f 47/47/47 43/43/43 46/46/46
f 44/44/44 48/48/48 45/45/45
f 47/47/47 48/48/48 44/44/44
f 46/46/46 45/45/45 49/49/49
f 45/45/45 48/48/48 49/49/49
f 47/47/47 46/46/46 50/50/50
f 50/50/50 46/46/46 49/49/49
f 47/47/47 51/51/51 48/48/48
f 51/51/51 47/47/47 50/50/50
f 48/48/48 52/52/52 49/49/49
f 51/51/51 52/52/52 48/48/48
f 50/50/50 49/49/49 53/53/53
f 49/49/49 52/52/52 53/53/53
f 51/51/51 50/50/50 54/54/54
f 54/54/54 50/50/50 53/53/53
f 51/51/51 55/55/55 52/52/52
f 55/55/55 51/51/51 54/54/54
f 52/52/52 56/56/56 53/53/53
f 55/55/55 56/56/56 52/52/52
f 54/54/54 53/53/53 57/57/57
f 53/53/53 56/56/56 57/57/57
f 55/55/55 54/54/54 58/58/58
f 58/58/58 54/54/54 57/57/57
f 55/55/55 59/59/59 56/56/56
f 59/59/59 55/55/55 58/58/58
f 56/56/56 60/60/60 57/57/57
f 59/59/59 60/60/60 56/56/56
f 58/58/58 57/57/57 61/61/61
f 57/57/57 60/60/60 61/61/61
f 59/59/59 58/58/58 62/62/62
f 62/62/62 58/58/58 61/61/61
f 59/59/59 63/63/63 60/60/60
f 63/63/63 59/59/59 62/62/62
f 60/60/60 64/64/64 61/61/61
f 63/63/63 64/64/64 60/60/60
f 62/62/62 61/61/61 65/65/65
f 61/61/61 64/64/64 65/65/65
f 63/63/63 62/62/62 66/66/66
f 66/66/66 62/62/62 65/65/65
f 64/64/64 67/67/67 65/65/65
f 66/66/66 65/65/65 67/67/67
f 68/68/68 63/63/63 66/66/66
f 63/63/63 68/68/68 64/64/64
f 68/68/68 67/67/67 64/64/64
f 68/68/68 66/66/66 67/67/67
f 71/71/71 70/70/70 69/69/69
f 70/70/70 72/72/72 69/69/69
f 73/73/73 72/72/72 70/70/70
f 71/71/71 73/73/73 70/70/70
f 72/72/72 74/74/74 69/69/69
f 72/72/72 73/73/73 74/74/74
f 75/75/75 71/71/71 69/69/69
f 69/69/69 74/74/74 75/75/75
f 73/73/73 76/76/76 74/74/74
f 76/76/76 73/73/73 71/71/71
f 75/75/75 76/76/76 71/71/71
f 74/74/74 76/76/76 75/75/75
