g robotScrap4Mesh
v -0.15484904 0.16135098 0.20309223
v 0.38200796 -0.11346428 0.40937594
v 0.3667922 -0.13981873 0.5039863
v -0.13963328 0.18770541 0.10848187
v 0.38200796 -0.11346428 -0.09528521
v 0.18440998 0.0006189858 -0.32345176
v -0.13963328 0.18770541 -0.32345176
v -0.26474312 0.21471034 -0.32345176
v -0.26474312 0.21471037 0.057986517
v -0.26848313 0.20823246 0.081241526
v 0.33563745 -0.19378035 -0.09528521
v 0.28926694 -0.27409643 -0.09528516
v 0.28926694 -0.27409643 0.40937594
v 0.30448267 -0.24774197 0.5039863
v 0.33563742 -0.1937803 0.5039863
v 0.38200796 -0.11346428 -0.09528521
v 0.3667922 -0.13981873 0.5039863
v 0.38200796 -0.11346428 0.40937594
v -0.26474312 0.21471034 -0.32345176
v -0.26474312 0.21471037 0.057986517
v -0.26848313 0.20823246 0.081241526
v -0.29152963 0.16831473 -0.32345176
v -0.29152963 0.16831473 0.081241526
v -0.31457612 0.12839697 0.081241526
v -0.31831616 0.12191912 0.057986517
v -0.31831613 0.121919096 -0.32345176
v -0.29152963 0.16831473 -0.32345176
v -0.31831613 0.121919096 -0.32345176
v -0.23237433 0.027073309 -0.32345176
v 0.09166892 -0.16001314 -0.32345173
v 0.13803941 -0.07969709 -0.32345176
v -0.13963328 0.18770541 -0.32345176
v 0.18440998 0.0006189858 -0.32345176
v -0.26474312 0.21471034 -0.32345176
v -0.21715854 0.053427786 0.20309223
v 0.30448267 -0.24774197 0.5039863
v 0.28926694 -0.27409643 0.40937594
v -0.23237433 0.027073309 0.10848187
v 0.28926694 -0.27409643 -0.09528516
v 0.09166892 -0.16001314 -0.32345173
v -0.23237433 0.027073309 -0.32345176
v -0.31831613 0.121919096 -0.32345176
v -0.31831616 0.12191912 0.057986517
v -0.31457612 0.12839697 0.081241526
v 0.38200796 -0.11346428 -0.09528521
v 0.18440998 0.0006189858 -0.32345176
v 0.13803941 -0.07969709 -0.32345176
v 0.33563745 -0.19378035 -0.09528521
v 0.09166892 -0.16001314 -0.32345173
v 0.28926694 -0.27409643 -0.09528516
v -0.1860038 0.10738936 0.20309223
v -0.15484904 0.16135098 0.20309223
v 0.3667922 -0.13981873 0.5039863
v 0.33563742 -0.1937803 0.5039863
v -0.26848313 0.20823246 0.081241526
v 0.30448267 -0.24774197 0.5039863
v -0.29152963 0.16831473 0.081241526
v -0.21715854 0.053427786 0.20309223
v -0.31457612 0.12839697 0.081241526
vt 0.08904919 0.9896958
vt 0.08904919 0.9896958
vt 0.08904919 0.9896958
vt 0.08904919 0.9896958
vt 0.08904919 0.9896958
vt 0.08904919 0.9896958
vt 0.08904919 0.9896958
vt 0.08904919 0.9896958
vt 0.08904919 0.9896958
vt 0.08904919 0.9896958
vt 0.0890492 0.9896958
vt 0.08904919 0.9896958
vt 0.08904919 0.9896958
vt 0.08904919 0.9896958
vt 0.08904919 0.9896958
vt 0.08904919 0.9896958
vt 0.08904919 0.9896958
vt 0.08904919 0.9896958
vt 0.08904919 0.9896958
vt 0.08904919 0.9896958
vt 0.08904919 0.9896958
vt 0.08904919 0.9896958
vt 0.08904919 0.9896958
vt 0.08904919 0.9896958
vt 0.08904919 0.9896958
vt 0.08904919 0.9896958
vt 0.08904919 0.9896958
vt 0.08904919 0.9896958
vt 0.08904919 0.9896958
vt 0.08904919 0.9896958
vt 0.08904919 0.9896958
vt 0.08904919 0.9896958
vt 0.08904919 0.9896958
vt 0.08904919 0.9896958
vt 0.08904919 0.9896958
vt 0.08904919 0.9896958
vt 0.08904919 0.9896958
vt 0.08904919 0.9896958
vt 0.08904919 0.9896958
vt 0.08904919 0.9896958
vt 0.08904919 0.9896958
vt 0.08904919 0.9896958
vt 0.08904919 0.9896958
vt 0.08904919 0.9896958
vt 0.08904919 0.9896958
vt 0.08904919 0.9896958
vt 0.08904919 0.9896958
vt 0.0890492 0.9896958
vt 0.08904919 0.9896958
vt 0.08904919 0.9896958
vt 0.08904919 0.9896958
vt 0.08904919 0.9896958
vt 0.08904919 0.9896958
vt 0.08904919 0.9896958
vt 0.08904919 0.9896958
vt 0.08904919 0.9896958
vt 0.08904919 0.9896958
vt 0.08904919 0.9896958
vt 0.08904919 0.9896958
vn 0.26661527 0.91652054 0.29817206
vn 0.40203008 0.8940004 0.19782577
vn 0.33955988 0.8905588 0.3026618
vn 0.30204475 0.9426348 0.14215666
vn 0.49998927 0.8660316 0
vn 0.49998927 0.8660316 0
vn 0.3598174 0.93302274 0
vn 0.21097739 0.9774909 0
vn 0.16538414 0.97960883 0.11408118
vn 0.09274767 0.9552187 0.28098977
vn 0.8660316 -0.49998927 0
vn 0.8660316 -0.49998927 0
vn 0.8660316 -0.49998927 0
vn 0.8660316 -0.49998927 0
vn 0.8660316 -0.49998927 0
vn 0.8660316 -0.49998927 0
vn 0.8660316 -0.49998927 0
vn 0.8660316 -0.49998927 0
vn -0.8660316 0.49998927 0
vn -0.8660316 0.49998927 0
vn -0.8660316 0.49998927 0
vn -0.8660316 0.49998927 0
vn -0.8660316 0.49998927 0
vn -0.8660316 0.49998927 0
vn -0.8660316 0.49998927 0
vn -0.8660316 0.49998927 0
vn -0 0 -1
vn -0 0 -1
vn -0 0 -1
vn -0 0 -1
vn -0 0 -1
vn -0 0 -1
vn -0 0 -1
vn -0 0 -1
vn -0.66043043 -0.6891488 0.2981703
vn -0.60144633 -0.7393636 0.30266115
vn -0.5732075 -0.79517215 0.19782406
vn -0.6653094 -0.7329085 0.14215648
vn -0.49998927 -0.8660316 0
vn -0.49998927 -0.8660316 0
vn -0.62808347 -0.77814597 0
vn -0.74104244 -0.6714582 0
vn -0.7656717 -0.63303417 0.11408166
vn -0.7808584 -0.5579478 0.28098816
vn 0.61237687 -0.35353965 -0.7071098
vn 0.61237687 -0.35353965 -0.7071098
vn 0.61237687 -0.35353965 -0.7071098
vn 0.61237687 -0.35353965 -0.7071098
vn 0.61237687 -0.35353965 -0.7071098
vn 0.61237687 -0.35353965 -0.7071098
vn -0.5062489 0.2922803 0.8113472
vn -0.5027212 0.29024276 0.81426686
vn -0.38700873 0.22342803 0.8945972
vn -0.38700873 0.22342803 0.8945972
vn -0.61237687 0.35353965 0.7071098
vn -0.38700873 0.22342803 0.8945972
vn -0.61237687 0.35353965 0.7071098
vn -0.5027212 0.29024276 0.81426686
vn -0.61237687 0.35353965 0.7071098
g robotScrap4Mesh_0
f 3/3/3 2/2/2 1/1/1
f 2/2/2 4/4/4 1/1/1
f 4/4/4 2/2/2 5/5/5
f 4/4/4 5/5/5 6/6/6
f 6/6/6 7/7/7 4/4/4
f 7/7/7 8/8/8 4/4/4
f 8/8/8 9/9/9 4/4/4
f 1/1/1 4/4/4 9/9/9
f 10/10/10 1/1/1 9/9/9
f 13/13/13 12/12/12 11/11/11
f 11/11/11 14/14/14 13/13/13
f 11/11/11 15/15/15 14/14/14
f 11/11/11 16/16/16 15/15/15
f 16/16/16 17/17/17 15/15/15
f 16/16/16 18/18/18 17/17/17
f 21/21/21 20/20/20 19/19/19
f 21/21/21 19/19/19 22/22/22
f 22/22/22 23/23/23 21/21/21
f 24/24/24 23/23/23 22/22/22
f 25/25/25 24/24/24 22/22/22
f 22/22/22 26/26/26 25/25/25
f 29/29/29 28/28/28 27/27/27
f 30/30/30 29/29/29 27/27/27
f 27/27/27 31/31/31 30/30/30
f 31/31/31 27/27/27 32/32/32
f 32/32/32 33/33/33 31/31/31
f 27/27/27 34/34/34 32/32/32
f 37/37/37 36/36/36 35/35/35
f 38/38/38 37/37/37 35/35/35
f 39/39/39 37/37/37 38/38/38
f 40/40/40 39/39/39 38/38/38
f 38/38/38 41/41/41 40/40/40
f 42/42/42 41/41/41 38/38/38
f 43/43/43 42/42/42 38/38/38
f 38/38/38 35/35/35 43/43/43
f 35/35/35 44/44/44 43/43/43
f 47/47/47 46/46/46 45/45/45
f 48/48/48 47/47/47 45/45/45
f 47/47/47 48/48/48 49/49/49
f 48/48/48 50/50/50 49/49/49
f 53/53/53 52/52/52 51/51/51
f 54/54/54 53/53/53 51/51/51
f 51/51/51 52/52/52 55/55/55
f 56/56/56 54/54/54 51/51/51
f 57/57/57 51/51/51 55/55/55
f 58/58/58 56/56/56 51/51/51
f 51/51/51 57/57/57 59/59/59
f 58/58/58 51/51/51 59/59/59
