g SeedpodLeafMesh
v 0.2634551 -0.15613705 -0.33291507
v 0.11295296 -0.059526026 -0.51102155
v -0.09810516 -0.05615288 -0.56337833
v -0.093440086 -0.17224246 -0.4010679
v -0.2596575 -0.012855947 -0.5344818
v 0.2734735 -0.20440012 -0.17699447
v -0.27920562 -0.099092245 -0.40039068
v -0.082161985 -0.24334979 -0.23723423
v 0.2977699 -0.20465934 0.013670538
v -0.38381046 -0.1277979 -0.24760203
v -0.03909135 -0.26391935 -0.033952862
v 0.33641303 -0.17117083 0.19131315
v -0.3743133 -0.15020394 -0.08124377
v 0.05369425 -0.22269207 0.16937815
v 0.3483171 -0.11194432 0.32309866
v -0.31358302 -0.12987852 0.08480549
v 0.08734459 -0.1392296 0.33675957
v 0.34522742 -0.039761484 0.43102464
v -0.24887 -0.06943089 0.256161
v 0.068955705 -0.059336185 0.4553885
v 0.36048007 0.05520469 0.5161067
v -0.23058401 0.0042601824 0.3779446
v 0.07566982 0.03395477 0.5466832
v 0.3995154 0.17629632 0.59571
v -0.22548263 0.09686801 0.46916926
v 0.11426103 0.17280352 0.64213043
v 0.3737312 0.29690406 0.64096797
v -0.21271963 0.21587145 0.5516923
v 0.13635898 0.32529625 0.6768601
v 0.3249752 0.42036486 0.65413594
v -0.12607369 0.32395697 0.60853565
v 0.14720425 0.4683515 0.66036505
v 0.14397404 0.49733332 0.64533746
v -0.03532315 0.44267443 0.62712455
v -0.09810516 -0.05615288 -0.56337833
v -0.26491934 0.08384621 -0.63029075
v -0.2596575 -0.012855947 -0.5344818
v -0.10416968 0.034968913 -0.6474017
v 0.11295296 -0.059526026 -0.51102155
v -0.26904607 0.19844142 -0.70798635
v 0.07793562 0.04525733 -0.6127217
v -0.089685716 0.15970704 -0.7226331
v -0.27524102 0.32452422 -0.76998997
v 0.0758746 0.16388068 -0.68739694
v -0.11707574 0.30614114 -0.79358786
v -0.25632876 0.44086525 -0.80660444
v 0.068121545 0.2921246 -0.74593616
v -0.101501465 0.45565718 -0.8295981
v -0.21454574 0.5089046 -0.8180089
v 0.06537383 0.41011 -0.7810166
v -0.07403619 0.5549237 -0.8275545
v 0.04723563 0.48318785 -0.79601634
vt 0.3349718 0.37090477
vt 0.3474235 0.31232294
vt 0.23595284 0.30000377
vt 0.2344233 0.36409697
vt 0.12402134 0.3069917
vt 0.32361394 0.4304825
vt 0.13366452 0.36610076
vt 0.232878 0.42885068
vt 0.3145796 0.4910449
vt 0.14216748 0.4261524
vt 0.2313103 0.49454305
vt 0.30876982 0.5525843
vt 0.14830261 0.48707685
vt 0.22972095 0.5611426
vt 0.3065843 0.6150813
vt 0.1511703 0.54882336
vt 0.22811529 0.6284256
vt 0.30706817 0.67850465
vt 0.15037212 0.6113534
vt 0.22650313 0.6959804
vt 0.30763352 0.74276954
vt 0.14686346 0.67468154
vt 0.22490548 0.76292825
vt 0.3075289 0.80772555
vt 0.14323325 0.7388463
vt 0.22337043 0.8272522
vt 0.3047162 0.873182
vt 0.14023921 0.80373335
vt 0.22201431 0.8840792
vt 0.29291815 0.93818855
vt 0.1399264 0.8692494
vt 0.22106144 0.9240081
vt 0.21986699 0.9740595
vt 0.14861014 0.93474466
vt 0.73204654 0.30000377
vt 0.6098899 0.24831665
vt 0.62011504 0.3069917
vt 0.73357075 0.236132
vt 0.8435172 0.31232294
vt 0.60196966 0.18946677
vt 0.8565296 0.25420249
vt 0.735092 0.17238635
vt 0.59844375 0.13044898
vt 0.867248 0.19579734
vt 0.7366222 0.108264014
vt 0.5970881 0.07118936
vt 0.8735851 0.13701496
vt 0.7381828 0.042870965
vt 0.5970881 0.011547916
vt 0.8777659 0.077887535
vt 0.73982 -0.025735918
vt 0.88061094 0.018313993
vn 0.13733664 -0.8956486 -0.4230274
vn 0.15107043 -0.76524043 -0.6257673
vn -0.06924749 -0.7493012 -0.65859884
vn -0.09564757 -0.87407357 -0.47628462
vn -0.29967007 -0.7279489 -0.61667514
vn 0.14627714 -0.9692806 -0.19773203
vn -0.32097325 -0.832571 -0.45144397
vn -0.10736654 -0.9684352 -0.22495702
vn 0.15729457 -0.9862498 0.050691944
vn -0.33540994 -0.92074454 -0.19932324
vn -0.10342771 -0.9911542 0.08316333
vn 0.14032726 -0.94307375 0.30152968
vn -0.3324178 -0.94024307 0.0737655
vn -0.06360169 -0.94557166 0.3191377
vn 0.11819894 -0.8637709 0.48982522
vn -0.31336826 -0.8862999 0.34098786
vn -0.071049295 -0.8654097 0.4960022
vn 0.116399474 -0.7561082 0.644012
vn -0.29863647 -0.82885724 0.4730877
vn -0.10867871 -0.7609952 0.63958997
vn 0.1279656 -0.62905484 0.766756
vn -0.30708292 -0.7412778 0.596831
vn -0.10428327 -0.62032837 0.77737886
vn 0.13709185 -0.43828496 0.8883198
vn -0.3100721 -0.5834299 0.75064296
vn -0.06903478 -0.4088983 0.90996504
vn 0.12708263 -0.17026752 0.9771689
vn -0.29264858 -0.40202937 0.86759967
vn -0.05905364 -0.093448184 0.9938712
vn 0.11005159 0.05743679 0.99226487
vn -0.25876927 -0.13477121 0.9564911
vn -0.03418195 0.28355756 0.95834583
vn -0.058811214 0.4543448 0.88888246
vn -0.22694011 0.10455847 0.96827984
vn -0.06924749 -0.7493012 -0.65859884
vn -0.24708323 -0.58993566 -0.768717
vn -0.29967007 -0.7279489 -0.61667514
vn -0.047091674 -0.61338204 -0.78838116
vn 0.15107043 -0.76524043 -0.6257673
vn -0.19141488 -0.48094815 -0.8555988
vn 0.18113418 -0.5999555 -0.7792585
vn 0.016419273 -0.48082834 -0.876661
vn -0.1614459 -0.34843627 -0.9233241
vn 0.19483647 -0.464934 -0.86364067
vn 0.0075993896 -0.34450564 -0.9387535
vn -0.13373493 -0.1676417 -0.97673494
vn 0.20667675 -0.33766562 -0.91829544
vn 0.041689146 -0.13779391 -0.98958313
vn -0.10721172 -0.011230831 -0.99417275
vn 0.22150905 -0.19999295 -0.95443
vn 0.08945176 -0.054507285 -0.99449855
vn 0.23444587 -0.08548333 -0.9683634
g SeedpodLeafMesh_0
f 3/3/3 2/2/2 1/1/1
f 4/4/4 3/3/3 1/1/1
f 5/5/5 3/3/3 4/4/4
f 4/4/4 1/1/1 6/6/6
f 7/7/7 5/5/5 4/4/4
f 8/8/8 4/4/4 6/6/6
f 7/7/7 4/4/4 8/8/8
f 8/8/8 6/6/6 9/9/9
f 10/10/10 7/7/7 8/8/8
f 11/11/11 8/8/8 9/9/9
f 10/10/10 8/8/8 11/11/11
f 11/11/11 9/9/9 12/12/12
f 13/13/13 10/10/10 11/11/11
f 14/14/14 11/11/11 12/12/12
f 13/13/13 11/11/11 14/14/14
f 14/14/14 12/12/12 15/15/15
f 16/16/16 13/13/13 14/14/14
f 17/17/17 14/14/14 15/15/15
f 16/16/16 14/14/14 17/17/17
f 17/17/17 15/15/15 18/18/18
f 19/19/19 16/16/16 17/17/17
f 20/20/20 17/17/17 18/18/18
f 19/19/19 17/17/17 20/20/20
f 20/20/20 18/18/18 21/21/21
f 22/22/22 19/19/19 20/20/20
f 23/23/23 20/20/20 21/21/21
f 22/22/22 20/20/20 23/23/23
f 23/23/23 21/21/21 24/24/24
f 25/25/25 22/22/22 23/23/23
f 26/26/26 23/23/23 24/24/24
f 25/25/25 23/23/23 26/26/26
f 26/26/26 24/24/24 27/27/27
f 28/28/28 25/25/25 26/26/26
f 29/29/29 26/26/26 27/27/27
f 28/28/28 26/26/26 29/29/29
f 29/29/29 27/27/27 30/30/30
f 31/31/31 28/28/28 29/29/29
f 32/32/32 29/29/29 30/30/30
f 31/31/31 29/29/29 32/32/32
f 33/33/33 32/32/32 30/30/30
f 34/34/34 31/31/31 32/32/32
f 34/34/34 32/32/32 33/33/33
f 37/37/37 36/36/36 35/35/35
f 36/36/36 38/38/38 35/35/35
f 35/35/35 38/38/38 39/39/39
f 36/36/36 40/40/40 38/38/38
f 38/38/38 41/41/41 39/39/39
f 40/40/40 42/42/42 38/38/38
f 38/38/38 42/42/42 41/41/41
f 40/40/40 43/43/43 42/42/42
f 42/42/42 44/44/44 41/41/41
f 43/43/43 45/45/45 42/42/42
f 42/42/42 45/45/45 44/44/44
f 43/43/43 46/46/46 45/45/45
f 45/45/45 47/47/47 44/44/44
f 46/46/46 48/48/48 45/45/45
f 45/45/45 48/48/48 47/47/47
f 46/46/46 49/49/49 48/48/48
f 48/48/48 50/50/50 47/47/47
f 49/49/49 51/51/51 48/48/48
f 48/48/48 51/51/51 50/50/50
f 51/51/51 52/52/52 50/50/50
