g SeedMesh
v 0.02910503 0.1267821 0.13177338
v 0.2988328 0.19128884 0.54303634
v -0.029915346 0.21461602 0.28705946
v 0.048265275 0.2818049 0.58480644
v 0.24065326 0.2768888 0.8248189
v 0.024478529 0.30696583 0.7476834
v 0.10222936 0.30143717 0.9788469
v -0.112706214 0.31440756 0.8256401
v -0.07148424 0.2723815 1.0435427
v 0.11636787 0.2351869 1.1066213
v -0.0029630708 0.18492845 1.1567626
v 0.21777368 0.2558129 1.0140396
v 0.12734948 0.10112592 1.1106421
v -0.0018297186 0.08534677 1.1653373
v 0.00043062866 -0.008210726 1.1302203
v 0.23414713 0.19316602 1.0117456
v 0.29253405 0.24042697 0.8912283
v 0.13156936 -0.04641997 1.0514611
v 0.0016328275 -0.16625082 0.94423467
v 0.33639538 0.20221111 0.7588493
v 0.24044815 -0.029503332 0.94362575
v 0.13784564 -0.16209659 0.8501139
v -0.006370798 -0.30181375 0.4998755
v 0.318972 0.13147421 0.8555939
v 0.098582566 -0.28646135 0.3536314
v -0.005503391 -0.3533474 0.09841149
v 0.25327787 -0.113669775 0.6982699
v 0.30528057 -0.007849529 0.8188228
v 0.35865384 0.06891367 0.6480805
v 0.35655534 0.12467596 0.7283282
v 0.3477017 0.14861256 0.5907349
v 0.2974597 0.035007004 0.2739091
v 0.3235813 -0.023635572 0.43169862
v 0.23706806 -0.15055445 0.3616479
v 0.0366854 -0.30660468 -0.058571804
v -0.013369445 -0.31394526 -0.1331756
v 0.25279868 -0.084228836 0.16072617
v 0.17462908 -0.19016144 0.099020205
v 0.040867638 -0.23790866 -0.1661904
v -0.014567671 -0.2392192 -0.21562639
v 0.14966482 -0.10107193 -0.063516006
v 0.019502878 -0.18279572 -0.211049
v -0.01847541 -0.16482587 -0.2276336
v -0.009935392 -0.10964919 -0.21306191
v 0.049265232 -0.05497049 -0.121345736
v -0.046505813 0.054752313 -0.07574539
v 0.19991939 -0.037304565 0.024936078
v 0.22858767 0.056556236 0.17813389
v 0.21503624 0.14480747 0.3390433
v -0.0029630708 0.18492845 1.1567626
v -0.0018297186 0.08534677 1.1653373
v -0.10078266 0.08559562 1.1224357
v 0.00043062866 -0.008210726 1.1302203
v -0.13767955 0.22769397 1.0759364
v -0.07148424 0.2723815 1.0435427
v -0.12462105 -0.06775101 1.0257338
v 0.0016328275 -0.16625082 0.94423467
v -0.11844139 -0.17036346 0.8410983
v -0.006370798 -0.30181375 0.4998755
v -0.2371347 0.233763 0.9471648
v -0.21925218 0.1510187 1.0042579
v -0.2548714 0.03185325 0.9236918
v -0.26069155 -0.047864955 0.8484921
v -0.29962745 0.15577139 0.86641926
v -0.22003928 0.30356294 0.77080107
v -0.112706214 0.31440756 0.8256401
v -0.22504416 -0.14292553 0.6671559
v -0.32036883 0.007364634 0.5966001
v -0.31963193 0.0681552 0.77459824
v -0.28760877 0.24540178 0.72601986
v -0.32618272 0.13362074 0.6685912
v -0.1251189 0.3004445 0.52719194
v 0.024478529 0.30696583 0.7476834
v 0.048265275 0.2818049 0.58480644
v -0.029915346 0.21461602 0.28705946
v -0.16630723 0.15432355 0.09462104
v 0.02910503 0.1267821 0.13177338
v -0.046505813 0.054752313 -0.07574539
v -0.2118169 0.2676181 0.44152823
v -0.28607908 0.20072441 0.45890582
v -0.29790238 0.124911524 0.34118366
v -0.23956832 0.14796881 0.2030665
v -0.20928803 0.031569418 -0.003707309
v -0.108692996 0.021237025 -0.120174736
v -0.009935392 -0.10964919 -0.21306191
v -0.27598384 0.05337346 0.1785581
v -0.094712414 -0.0577642 -0.1686769
v -0.01847541 -0.16482587 -0.2276336
v -0.06671596 -0.17658083 -0.20717403
v -0.014567671 -0.2392192 -0.21562639
v -0.25467488 -0.04622762 0.12838036
v -0.04186976 -0.2804561 -0.15961419
v -0.013369445 -0.31394526 -0.1331756
v -0.14513241 -0.1622539 -0.08381262
v -0.23584838 -0.1407046 0.27074713
v -0.16371067 -0.19528873 0.0037154774
v -0.058823615 -0.31706813 -0.017913193
v -0.005503391 -0.3533474 0.09841149
v -0.16277714 -0.22792086 0.31717837
v -0.06833845 -0.3107439 0.28660262
v -0.5654984 0.09676619 0.21806535
v -0.57279086 0.08500218 0.09113033
v -0.48961177 0.04731447 0.08031642
v -0.6698742 0.117244124 0.27873856
v -0.4999501 0.018927924 -0.036291048
v -0.628723 0.099597774 0.3936387
v -0.75215554 0.09741631 0.44978854
v -0.45056644 -0.014315876 -0.015360992
v -0.47591105 -0.052768975 -0.066511534
v -0.51820934 0.0647615 0.26758036
v -0.6932443 0.069349416 0.5261892
v -0.78866315 0.033130858 0.53593683
v -0.45341963 -0.06412246 0.025394449
v -0.50492394 -0.10770105 0.0001691943
v -0.45597383 0.0031170812 0.12620744
v -0.58373517 0.051876955 0.4468342
v -0.6776586 0.0056190263 0.5374462
v -0.76441324 -0.046940744 0.5010127
v -0.49707094 -0.10531072 0.111593716
v -0.58178866 -0.12985449 0.15441483
v -0.4805168 -0.047080077 0.20681828
v -0.49625087 0.019141454 0.30553836
v -0.56380916 -0.09412387 0.29234886
v -0.6838534 -0.10877197 0.35166317
v -0.65162516 -0.06405076 0.46241283
v -0.5599308 -0.02014324 0.40915912
v -0.58637416 0.056411326 0.0063389754
v -0.55151814 -0.010408916 -0.052111194
v -0.4999501 0.018927924 -0.036291048
v -0.57279086 0.08500218 0.09113033
v -0.47591105 -0.052768975 -0.066511534
v -0.6855012 0.097763404 0.15185364
v -0.6698742 0.117244124 0.27873856
v -0.67077166 0.038812086 0.059684064
v -0.5361542 -0.07604427 -0.048334755
v -0.50492394 -0.10770105 0.0001691943
v -0.7714952 0.10817303 0.320981
v -0.75215554 0.09741631 0.44978854
v -0.6382338 -0.040253818 0.026625011
v -0.6056515 -0.10652308 0.058177527
v -0.58178866 -0.12985449 0.15441483
v -0.78439105 0.06565087 0.23580852
v -0.8329104 0.059678987 0.41665426
v -0.78866315 0.033130858 0.53593683
v -0.75014323 0.0034471503 0.15027809
v -0.73278946 -0.06480123 0.17810473
v -0.6880013 -0.11691333 0.21511334
v -0.6838534 -0.10877197 0.35166317
v -0.82585454 -0.0017487942 0.31363356
v -0.8422264 -0.00894033 0.4642964
v -0.76441324 -0.046940744 0.5010127
v -0.78795147 -0.071800485 0.35894185
vt 0.7433907 0.036734194
vt 0.51694506 0.3322566
vt 0.7731756 0.1918068
vt 0.6863049 0.4430187
vt 0.48903364 0.5275364
vt 0.6353467 0.5929923
vt 0.4959733 0.67795146
vt 0.5855173 0.74251974
vt 0.44421497 0.7900901
vt 0.35467088 0.7255218
vt 0.30291256 0.83766043
vt 0.40642917 0.6133832
vt 0.2740654 0.6850624
vt 0.20643508 0.79967153
vt 0.10995767 0.7616826
vt 0.37647545 0.59333396
vt 0.42619708 0.53518796
vt 0.17734718 0.6289909
vt 0.01926718 0.52308965
vt 0.44596502 0.45699283
vt 0.2559532 0.5048162
vt 0.10137469 0.41288772
vt 0.0877497 0.0738267
vt 0.37746555 0.49686775
vt 0.25454584 -0.028066635
vt 0.3040845 -0.27792883
vt 0.27743155 0.3087308
vt 0.31028318 0.44147226
vt 0.3971323 0.3595409
vt 0.41089737 0.42181906
vt 0.4665863 0.35096297
vt 0.51675934 0.13337114
vt 0.4273617 0.19698799
vt 0.36446145 0.09734672
vt 0.44603133 -0.3257742
vt 0.48032945 -0.38932014
vt 0.49207354 0.011078745
vt 0.4548375 -0.1167776
vt 0.5545703 -0.35225838
vt 0.5886421 -0.4106325
vt 0.5819623 -0.18083519
vt 0.61945313 -0.36026484
vt 0.65371734 -0.3690856
vt 0.7006403 -0.3281402
vt 0.6940639 -0.23351383
vt 0.7564736 -0.18728673
vt 0.5795773 -0.05606714
vt 0.5785824 0.07590255
vt 0.5929131 0.20576307
vt 0.58708394 0.54410714
vt 0.6144748 0.483943
vt 0.5608599 0.4621239
vt 0.6418656 0.4237789
vt 0.5108504 0.506926
vt 0.47917867 0.5577252
vt 0.56249654 0.38343847
vt 0.5853447 0.29503807
vt 0.51441145 0.27391246
vt 0.39699543 0.115224764
vt 0.4346168 0.46974486
vt 0.47651517 0.45109266
vt 0.47086525 0.39897326
vt 0.45917195 0.3517533
vt 0.41727898 0.42144924
vt 0.35647354 0.46652728
vt 0.37526983 0.53527135
vt 0.40416738 0.27679712
vt 0.3448018 0.31764936
vt 0.3999412 0.37315363
vt 0.3545295 0.430009
vt 0.35098124 0.38228118
vt 0.2402542 0.47654057
vt 0.3134338 0.5596305
vt 0.20703113 0.52423227
vt 0.11349441 0.41400507
vt 0.1220617 0.3026032
vt 0.019957721 0.30377784
vt 0.016425997 0.23902474
vt 0.23951101 0.40393823
vt 0.26122844 0.38244265
vt 0.23025772 0.32722422
vt 0.17136562 0.3142966
vt 0.10057558 0.23229454
vt 0.039820492 0.21146174
vt -0.010684967 0.14170428
vt 0.18028072 0.26765373
vt 0.026365161 0.16554326
vt 0.003951229 0.10237369
vt 0.022641808 0.10270047
vt 0.01858738 0.06304312
vt 0.17227507 0.22234806
vt 0.06036383 0.057681352
vt 0.07209818 0.03651309
vt 0.07804921 0.13971008
vt 0.2428377 0.21106276
vt 0.1323829 0.13529697
vt 0.1293451 0.05061899
vt 0.19117753 0.029390335
vt 0.2676109 0.16209815
vt 0.2607925 0.092114
vt 0.71756357 0.6340044
vt 0.68065655 0.6006704
vt 0.64920187 0.61086315
vt 0.7732748 0.6389957
vt 0.61667013 0.59707874
vt 0.7761816 0.6858329
vt 0.8296451 0.6969001
vt 0.6106528 0.6136917
vt 0.5906552 0.6184713
vt 0.7190653 0.6644746
vt 0.7907785 0.72533846
vt 0.83031845 0.7619386
vt 0.60939705 0.64035696
vt 0.5865389 0.6525806
vt 0.6654848 0.6486612
vt 0.76100487 0.7065888
vt 0.7777232 0.73560864
vt 0.8015435 0.7968389
vt 0.6112261 0.67354214
vt 0.6077993 0.70863366
vt 0.6749549 0.67689615
vt 0.7197986 0.68373024
vt 0.6868557 0.72157776
vt 0.7069251 0.8014652
vt 0.7555852 0.75098115
vt 0.7416818 0.7163921
vt 0.22007465 0.47574607
vt 0.18895605 0.4537355
vt 0.17881285 0.4630871
vt 0.22418696 0.50430876
vt 0.16988698 0.43319786
vt 0.28817275 0.4851934
vt 0.3290385 0.52782965
vt 0.2547459 0.46187347
vt 0.18663591 0.42038667
vt 0.18406358 0.40487456
vt 0.35020694 0.4843455
vt 0.4080197 0.5011915
vt 0.23471302 0.4362353
vt 0.21632278 0.40203023
vt 0.23216811 0.37176493
vt 0.32748342 0.46716
vt 0.3843571 0.4607153
vt 0.44623637 0.4486431
vt 0.296594 0.44228676
vt 0.29923856 0.41895798
vt 0.28731745 0.39532873
vt 0.3579805 0.35722637
vt 0.3524461 0.43982288
vt 0.39899042 0.43427622
vt 0.4355502 0.40068185
vt 0.37039605 0.41228363
vn 0.32273775 0.8422616 -0.43178192
vn 0.56506205 0.7766819 -0.27833465
vn 0.1952924 0.9194216 -0.34135732
vn 0.22071482 0.95332813 -0.20603509
vn 0.383164 0.92288965 -0.038209584
vn 0.10834328 0.9920277 -0.06436507
vn 0.121618934 0.96516913 0.23164059
vn -0.08386749 0.99240136 0.09003241
vn -0.17887197 0.8814198 0.43715444
vn 0.33794564 0.5370262 0.7729137
vn -0.052858643 0.37007153 0.9274983
vn 0.59570825 0.62180233 0.50842273
vn 0.553467 -0.11963554 0.82423395
vn 0.39961386 -0.12277735 0.9084242
vn 0.33861265 -0.47964278 0.80949634
vn 0.78703696 0.032747425 0.6160362
vn 0.7907819 0.5474526 0.27378735
vn 0.47848487 -0.5636038 0.67335194
vn 0.27015597 -0.8491052 0.45391205
vn 0.8505292 0.5238862 0.046297062
vn 0.7475638 -0.45833486 0.4807053
vn 0.45113522 -0.8346398 0.31599608
vn 0.36061317 -0.91346586 0.1885162
vn 0.92908347 -0.041200366 0.36756825
vn 0.5319201 -0.8444983 0.062320314
vn 0.57470655 -0.8170593 -0.04611447
vn 0.731198 -0.6687567 0.13458757
vn 0.8756355 -0.4065505 0.26072824
vn 0.98134184 -0.19144635 0.01779264
vn 0.9858167 -0.04351974 0.16208509
vn 0.9165594 0.36104482 -0.17194645
vn 0.9126714 0.25214815 -0.32163998
vn 0.94820744 -0.3060181 -0.085179664
vn 0.77748287 -0.62793756 -0.03485321
vn 0.6233256 -0.7484546 -0.22645299
vn 0.5820084 -0.71131986 -0.39406884
vn 0.9174516 -0.29512513 -0.2668029
vn 0.79162097 -0.57621264 -0.20326146
vn 0.72047186 -0.44799453 -0.5293592
vn 0.54645234 -0.40917543 -0.7307293
vn 0.80889636 0.02563565 -0.58739215
vn 0.6121537 -0.032258775 -0.79008055
vn 0.0011902433 0.06167902 -0.99809533
vn 0.24940476 0.40001816 -0.8819199
vn 0.5315186 0.5574902 -0.63772464
vn 0.26511776 0.7869301 -0.5571837
vn 0.77305436 0.3378794 -0.53686535
vn 0.5827329 0.6746566 -0.453057
vn 0.38392907 0.8496186 -0.36158916
vn -0.052858643 0.37007153 0.9274983
vn -0.39479643 -0.12757027 0.9098691
vn -0.55881256 -0.1395658 0.81746554
vn -0.3608558 -0.50090706 0.7866863
vn -0.520536 0.5183386 0.6785036
vn -0.17887197 0.8814198 0.43715444
vn -0.50796306 -0.60315275 0.6149637
vn -0.27073815 -0.8475255 0.45651007
vn -0.43563405 -0.84389216 0.31315967
vn -0.48385158 -0.8605503 0.15918821
vn -0.70554435 0.5713512 0.41924313
vn -0.7908804 0.02273697 0.61154824
vn -0.8276846 -0.25804102 0.49835032
vn -0.796927 -0.5155976 0.31474832
vn -0.9364522 0.14957477 0.31730852
vn -0.42980057 0.899398 0.07971591
vn -0.08386749 0.99240136 0.09003241
vn -0.70292395 -0.69996357 0.12628949
vn -0.9618752 -0.2734525 -0.004455811
vn -0.9729571 -0.14777473 0.17753111
vn -0.82184154 0.5689014 0.030457791
vn -0.987992 0.15448722 -0.002380483
vn -0.024995016 0.9832593 -0.18048905
vn 0.10834328 0.9920277 -0.06436507
vn 0.22071482 0.95332813 -0.20603509
vn 0.1952924 0.9194216 -0.34135732
vn -0.283429 0.84302354 -0.45714256
vn 0.32273775 0.8422616 -0.43178192
vn 0.26511776 0.7869301 -0.5571837
vn -0.40343764 0.88167864 -0.24470559
vn -0.8333246 0.5310937 -0.15332806
vn -0.9500194 0.25040668 -0.18643929
vn -0.72553504 0.6019014 -0.33363688
vn -0.8188453 0.27489153 -0.50391185
vn -0.3230444 0.59902835 -0.7326714
vn 0.24940476 0.40001816 -0.8819199
vn -0.9559088 0.13519815 -0.2606913
vn -0.53903055 0.2706445 -0.79761994
vn 0.0011902433 0.06167902 -0.99809533
vn -0.6422127 -0.14112015 -0.75342417
vn -0.5260312 -0.42870504 -0.73450875
vn -0.94555324 -0.22056398 -0.23933342
vn -0.5793536 -0.6368219 -0.5087311
vn -0.5135136 -0.788826 -0.33772385
vn -0.8600046 -0.27043194 -0.4327338
vn -0.8578879 -0.5094835 -0.06674496
vn -0.8418729 -0.49493033 -0.21516055
vn -0.5817882 -0.7993598 -0.15015465
vn -0.50280684 -0.86437 -0.007049978
vn -0.6893656 -0.7232113 0.041719623
vn -0.49987602 -0.8602177 0.1007443
vn 0.35188627 0.9360236 -0.0059817615
vn 0.18149762 0.9577226 -0.22321734
vn 0.6122215 0.78313076 -0.10904623
vn 0.0369275 0.99917895 -0.016663155
vn 0.31422433 0.7047463 -0.6360784
vn 0.3026853 0.9255737 0.22736496
vn -0.22727601 0.9310473 0.28547597
vn 0.9020575 0.29570103 -0.31440932
vn 0.86708724 -0.16309579 -0.470701
vn 0.6661362 0.7291272 0.15695874
vn 0.186044 0.64953655 0.73721766
vn -0.48766896 0.2140018 0.84639364
vn 0.90029764 -0.43240166 -0.049930062
vn 0.61517614 -0.77909493 -0.12070356
vn 0.9641534 0.24329673 0.105900615
vn 0.7085091 0.4209853 0.56637996
vn 0.33687022 -0.21186383 0.9174052
vn -0.009125243 -0.67844194 0.7345973
vn 0.59064317 -0.7982061 0.118354484
vn 0.3175191 -0.93522257 0.15665375
vn 0.8691505 -0.41255578 0.27271774
vn 0.92299604 0.14872068 0.35490924
vn 0.48864585 -0.816424 0.30769643
vn 0.18882076 -0.9349176 0.30045912
vn 0.33165607 -0.7711378 0.5434618
vn 0.75974965 -0.36904043 0.5353406
vn -0.20804833 0.7613586 -0.6140431
vn -0.3559103 0.21573743 -0.9092773
vn 0.31422433 0.7047463 -0.6360784
vn 0.18149762 0.9577226 -0.22321734
vn -0.036287386 -0.2149776 -0.97594464
vn -0.32518584 0.87899363 -0.34874693
vn 0.0369275 0.99917895 -0.016663155
vn -0.6651292 0.36497566 -0.6514567
vn -0.2982978 -0.5636345 -0.77028215
vn -0.12189364 -0.8935102 -0.43218222
vn -0.4463697 0.8915796 -0.076419376
vn -0.22727601 0.9310473 0.28547597
vn -0.6977987 -0.2876772 -0.65598696
vn -0.4204059 -0.81932604 -0.38982537
vn -0.17475447 -0.9745477 -0.1404201
vn -0.79175407 0.4754248 -0.3835321
vn -0.83987296 0.5347476 0.09305133
vn -0.48766896 0.2140018 0.84639364
vn -0.83928305 -0.056582935 -0.54074246
vn -0.72275484 -0.57372975 -0.38530445
vn -0.38927048 -0.9121228 -0.12845467
vn -0.28648332 -0.9515874 0.11139493
vn -0.95057946 -0.16919807 -0.26032823
vn -0.902478 -0.28278926 0.3249055
vn -0.5090557 -0.74765265 0.42647144
vn -0.61028147 -0.7921727 -0.0043641673
g SeedMesh_0
f 3/3/3 2/2/2 1/1/1
f 3/3/3 4/4/4 2/2/2
f 4/4/4 5/5/5 2/2/2
f 4/4/4 6/6/6 5/5/5
f 6/6/6 7/7/7 5/5/5
f 8/8/8 7/7/7 6/6/6
f 8/8/8 9/9/9 7/7/7
f 7/7/7 9/9/9 10/10/10
f 9/9/9 11/11/11 10/10/10
f 7/7/7 12/12/12 5/5/5
f 7/7/7 10/10/10 12/12/12
f 11/11/11 13/13/13 10/10/10
f 11/11/11 14/14/14 13/13/13
f 14/14/14 15/15/15 13/13/13
f 10/10/10 16/16/16 12/12/12
f 10/10/10 13/13/13 16/16/16
f 5/5/5 12/12/12 17/17/17
f 12/12/12 16/16/16 17/17/17
f 15/15/15 18/18/18 13/13/13
f 15/15/15 19/19/19 18/18/18
f 5/5/5 17/17/17 20/20/20
f 2/2/2 5/5/5 20/20/20
f 13/13/13 21/21/21 16/16/16
f 13/13/13 18/18/18 21/21/21
f 18/18/18 19/19/19 22/22/22
f 18/18/18 22/22/22 21/21/21
f 22/22/22 19/19/19 23/23/23
f 17/17/17 16/16/16 24/24/24
f 17/17/17 24/24/24 20/20/20
f 16/16/16 21/21/21 24/24/24
f 25/25/25 22/22/22 23/23/23
f 25/25/25 23/23/23 26/26/26
f 21/21/21 22/22/22 27/27/27
f 27/27/27 22/22/22 25/25/25
f 24/24/24 21/21/21 28/28/28
f 21/21/21 27/27/27 28/28/28
f 24/24/24 28/28/28 29/29/29
f 28/28/28 27/27/27 29/29/29
f 20/20/20 24/24/24 30/30/30
f 30/30/30 24/24/24 29/29/29
f 20/20/20 30/30/30 31/31/31
f 31/31/31 30/30/30 29/29/29
f 2/2/2 20/20/20 31/31/31
f 31/31/31 29/29/29 32/32/32
f 2/2/2 31/31/31 32/32/32
f 29/29/29 27/27/27 33/33/33
f 29/29/29 33/33/33 32/32/32
f 33/33/33 27/27/27 34/34/34
f 27/27/27 25/25/25 34/34/34
f 25/25/25 26/26/26 35/35/35
f 35/35/35 26/26/26 36/36/36
f 33/33/33 34/34/34 37/37/37
f 32/32/32 33/33/33 37/37/37
f 34/34/34 25/25/25 38/38/38
f 25/25/25 35/35/35 38/38/38
f 34/34/34 38/38/38 37/37/37
f 39/39/39 35/35/35 36/36/36
f 38/38/38 35/35/35 39/39/39
f 39/39/39 36/36/36 40/40/40
f 41/41/41 37/37/37 38/38/38
f 41/41/41 38/38/38 39/39/39
f 39/39/39 40/40/40 42/42/42
f 41/41/41 39/39/39 42/42/42
f 42/42/42 40/40/40 43/43/43
f 44/44/44 42/42/42 43/43/43
f 42/42/42 44/44/44 45/45/45
f 41/41/41 42/42/42 45/45/45
f 45/45/45 44/44/44 46/46/46
f 45/45/45 46/46/46 1/1/1
f 47/47/47 37/37/37 41/41/41
f 47/47/47 41/41/41 45/45/45
f 32/32/32 37/37/37 47/47/47
f 48/48/48 47/47/47 45/45/45
f 32/32/32 47/47/47 48/48/48
f 48/48/48 45/45/45 1/1/1
f 2/2/2 32/32/32 48/48/48
f 1/1/1 2/2/2 49/49/49
f 2/2/2 48/48/48 49/49/49
f 49/49/49 48/48/48 1/1/1
f 52/52/52 51/51/51 50/50/50
f 52/52/52 53/53/53 51/51/51
f 54/54/54 52/52/52 50/50/50
f 55/55/55 54/54/54 50/50/50
f 52/52/52 56/56/56 53/53/53
f 53/53/53 56/56/56 57/57/57
f 57/57/57 56/56/56 58/58/58
f 58/58/58 59/59/59 57/57/57
f 55/55/55 60/60/60 54/54/54
f 54/54/54 61/61/61 52/52/52
f 60/60/60 61/61/61 54/54/54
f 52/52/52 62/62/62 56/56/56
f 61/61/61 62/62/62 52/52/52
f 56/56/56 63/63/63 58/58/58
f 62/62/62 63/63/63 56/56/56
f 64/64/64 62/62/62 61/61/61
f 64/64/64 61/61/61 60/60/60
f 65/65/65 60/60/60 55/55/55
f 66/66/66 65/65/65 55/55/55
f 58/58/58 67/67/67 59/59/59
f 63/63/63 67/67/67 58/58/58
f 63/63/63 68/68/68 67/67/67
f 69/69/69 63/63/63 62/62/62
f 69/69/69 62/62/62 64/64/64
f 69/69/69 68/68/68 63/63/63
f 70/70/70 64/64/64 60/60/60
f 70/70/70 60/60/60 65/65/65
f 71/71/71 69/69/69 64/64/64
f 68/68/68 69/69/69 71/71/71
f 70/70/70 71/71/71 64/64/64
f 65/65/65 66/66/66 72/72/72
f 72/72/72 66/66/66 73/73/73
f 72/72/72 73/73/73 74/74/74
f 75/75/75 72/72/72 74/74/74
f 75/75/75 76/76/76 72/72/72
f 77/77/77 76/76/76 75/75/75
f 78/78/78 76/76/76 77/77/77
f 79/79/79 65/65/65 72/72/72
f 79/79/79 70/70/70 65/65/65
f 76/76/76 79/79/79 72/72/72
f 80/80/80 71/71/71 70/70/70
f 79/79/79 80/80/80 70/70/70
f 81/81/81 71/71/71 80/80/80
f 81/81/81 68/68/68 71/71/71
f 79/79/79 82/82/82 80/80/80
f 80/80/80 82/82/82 81/81/81
f 76/76/76 82/82/82 79/79/79
f 76/76/76 83/83/83 82/82/82
f 84/84/84 76/76/76 78/78/78
f 84/84/84 83/83/83 76/76/76
f 85/85/85 84/84/84 78/78/78
f 82/82/82 86/86/86 81/81/81
f 86/86/86 68/68/68 81/81/81
f 83/83/83 86/86/86 82/82/82
f 85/85/85 87/87/87 84/84/84
f 87/87/87 83/83/83 84/84/84
f 85/85/85 88/88/88 87/87/87
f 87/87/87 88/88/88 89/89/89
f 89/89/89 83/83/83 87/87/87
f 88/88/88 90/90/90 89/89/89
f 91/91/91 68/68/68 86/86/86
f 83/83/83 91/91/91 86/86/86
f 90/90/90 92/92/92 89/89/89
f 93/93/93 92/92/92 90/90/90
f 89/89/89 94/94/94 83/83/83
f 83/83/83 94/94/94 91/91/91
f 89/89/89 92/92/92 94/94/94
f 91/91/91 95/95/95 68/68/68
f 68/68/68 95/95/95 67/67/67
f 94/94/94 96/96/96 91/91/91
f 92/92/92 96/96/96 94/94/94
f 96/96/96 95/95/95 91/91/91
f 93/93/93 97/97/97 92/92/92
f 92/92/92 97/97/97 96/96/96
f 93/93/93 98/98/98 97/97/97
f 95/95/95 99/99/99 67/67/67
f 95/95/95 96/96/96 99/99/99
f 96/96/96 97/97/97 99/99/99
f 67/67/67 99/99/99 59/59/59
f 59/59/59 100/100/100 98/98/98
f 97/97/97 98/98/98 100/100/100
f 59/59/59 99/99/99 100/100/100
f 97/97/97 100/100/100 99/99/99
f 103/103/103 102/102/102 101/101/101
f 102/102/102 104/104/104 101/101/101
f 103/103/103 105/105/105 102/102/102
f 104/104/104 106/106/106 101/101/101
f 104/104/104 107/107/107 106/106/106
f 108/108/108 105/105/105 103/103/103
f 108/108/108 109/109/109 105/105/105
f 110/110/110 103/103/103 101/101/101
f 101/101/101 106/106/106 110/110/110
f 107/107/107 111/111/111 106/106/106
f 107/107/107 112/112/112 111/111/111
f 113/113/113 109/109/109 108/108/108
f 113/113/113 114/114/114 109/109/109
f 115/115/115 108/108/108 103/103/103
f 110/110/110 115/115/115 103/103/103
f 115/115/115 113/113/113 108/108/108
f 106/106/106 111/111/111 116/116/116
f 110/110/110 106/106/106 116/116/116
f 112/112/112 117/117/117 111/111/111
f 111/111/111 117/117/117 116/116/116
f 112/112/112 118/118/118 117/117/117
f 119/119/119 114/114/114 113/113/113
f 119/119/119 120/120/120 114/114/114
f 115/115/115 121/121/121 113/113/113
f 121/121/121 119/119/119 113/113/113
f 122/122/122 115/115/115 110/110/110
f 110/110/110 116/116/116 122/122/122
f 122/122/122 121/121/121 115/115/115
f 123/123/123 120/120/120 119/119/119
f 123/123/123 119/119/119 121/121/121
f 123/123/123 124/124/124 120/120/120
f 118/118/118 124/124/124 125/125/125
f 118/118/118 125/125/125 117/117/117
f 125/125/125 124/124/124 123/123/123
f 116/116/116 126/126/126 122/122/122
f 126/126/126 121/121/121 122/122/122
f 116/116/116 117/117/117 126/126/126
f 126/126/126 123/123/123 121/121/121
f 125/125/125 123/123/123 126/126/126
f 117/117/117 125/125/125 126/126/126
f 129/129/129 128/128/128 127/127/127
f 129/129/129 127/127/127 130/130/130
f 129/129/129 131/131/131 128/128/128
f 127/127/127 132/132/132 130/130/130
f 130/130/130 132/132/132 133/133/133
f 128/128/128 134/134/134 127/127/127
f 127/127/127 134/134/134 132/132/132
f 131/131/131 135/135/135 128/128/128
f 136/136/136 135/135/135 131/131/131
f 132/132/132 137/137/137 133/133/133
f 137/137/137 138/138/138 133/133/133
f 135/135/135 139/139/139 128/128/128
f 128/128/128 139/139/139 134/134/134
f 136/136/136 140/140/140 135/135/135
f 135/135/135 140/140/140 139/139/139
f 136/136/136 141/141/141 140/140/140
f 132/132/132 142/142/142 137/137/137
f 132/132/132 134/134/134 142/142/142
f 137/137/137 143/143/143 138/138/138
f 142/142/142 143/143/143 137/137/137
f 138/138/138 143/143/143 144/144/144
f 139/139/139 145/145/145 134/134/134
f 134/134/134 145/145/145 142/142/142
f 139/139/139 140/140/140 146/146/146
f 139/139/139 146/146/146 145/145/145
f 141/141/141 147/147/147 140/140/140
f 140/140/140 147/147/147 146/146/146
f 148/148/148 147/147/147 141/141/141
f 145/145/145 149/149/149 142/142/142
f 142/142/142 149/149/149 143/143/143
f 145/145/145 146/146/146 149/149/149
f 143/143/143 150/150/150 144/144/144
f 149/149/149 150/150/150 143/143/143
f 150/150/150 151/151/151 144/144/144
f 152/152/152 147/147/147 148/148/148
f 146/146/146 147/147/147 152/152/152
f 149/149/149 146/146/146 152/152/152
f 151/151/151 152/152/152 148/148/148
f 149/149/149 152/152/152 150/150/150
f 150/150/150 152/152/152 151/151/151
