g Ship Wrecked Head Interior
v -0.11961653 -0.009999826 -0.026135635
v -0.11961665 0.11061833 -0.026135582
v -0.119616576 0.11061819 0.064191625
v -0.11961646 -0.009999968 0.06419157
v -0.11961665 0.11061833 -0.026135582
v 0.20634776 0.110618256 -0.026136395
v 0.20634784 0.110618114 0.06419081
v -0.119616576 0.11061819 0.064191625
v 0.20634776 0.110618256 -0.026136395
v 0.20634788 -0.009999899 -0.02613645
v 0.20634796 -0.010000042 0.06419076
v 0.20634784 0.110618114 0.06419081
v 0.20634788 -0.009999899 -0.02613645
v -0.11961653 -0.009999826 -0.026135635
v -0.11961646 -0.009999968 0.06419157
v 0.20634796 -0.010000042 0.06419076
v -0.11961665 0.11061833 -0.026135582
v -0.11961653 -0.009999826 -0.026135635
v 0.20634788 -0.009999899 -0.02613645
v 0.20634776 0.110618256 -0.026136395
v 0.20634784 0.110618114 0.06419081
v 0.20634796 -0.010000042 0.06419076
v -0.11961646 -0.009999968 0.06419157
v -0.119616576 0.11061819 0.064191625
vn -1 -9.1033684E-07 8.446383E-07
vn -1 -9.1033684E-07 8.446383E-07
vn -1 -9.1033684E-07 8.446383E-07
vn -1 -9.1033684E-07 8.446383E-07
vn 2.3406002E-07 1 1.530411E-06
vn 2.3406002E-07 1 1.530411E-06
vn 2.3406002E-07 1 1.530411E-06
vn 2.3406002E-07 1 1.530411E-06
vn 1 8.4031103E-07 -8.446383E-07
vn 1 8.4031103E-07 -8.446383E-07
vn 1 8.4031103E-07 -8.446383E-07
vn 1 8.4031103E-07 -8.446383E-07
vn -2.249172E-07 -1 -1.5676771E-06
vn -2.249172E-07 -1 -1.5676771E-06
vn -2.249172E-07 -1 -1.5676771E-06
vn -2.249172E-07 -1 -1.5676771E-06
vn -2.4884312E-06 4.447415E-07 -1
vn -2.4884312E-06 4.447415E-07 -1
vn -2.4884312E-06 4.447415E-07 -1
vn -2.4884312E-06 4.447415E-07 -1
vn 2.5064749E-06 -4.3485815E-07 1
vn 2.5064749E-06 -4.3485815E-07 1
vn 2.5064749E-06 -4.3485815E-07 1
vn 2.5064749E-06 -4.3485815E-07 1
g Ship Wrecked Head Interior_0
f 3/3/3 2/2/2 1/1/1
f 4/4/4 3/3/3 1/1/1
f 7/7/7 6/6/6 5/5/5
f 8/8/8 7/7/7 5/5/5
f 11/11/11 10/10/10 9/9/9
f 12/12/12 11/11/11 9/9/9
f 15/15/15 14/14/14 13/13/13
f 16/16/16 15/15/15 13/13/13
f 19/19/19 18/18/18 17/17/17
f 20/20/20 19/19/19 17/17/17
f 23/23/23 22/22/22 21/21/21
f 24/24/24 23/23/23 21/21/21
