g Sphere
v 0.062127076 -0.062127307 -0.024316784
v 0.087860726 9.313225E-09 -0.024316784
v 0.062127076 0.06212733 -0.024316784
v -2.4159357E-07 -0.08786094 -0.024316784
v -2.3850777E-07 0.08786096 -0.024316784
v -0.062127568 0.06212733 -0.024316784
v -0.06212756 -0.062127307 -0.024316784
v -0.0878612 7.4505797E-09 -0.024316784
v -0.7071067 0 4.9305005
v -0.27059805 0.2705979 5.3349395
v -0.3826834 0 5.3349395
v -2.5776592E-07 0 5.498957
v -1.4853377E-07 0.38268322 5.3349395
v -0.49999994 0.49999994 4.9305005
v 0.27059776 0.2705979 5.3349395
v 0.38268307 0 5.3349395
v -1.6343493E-07 0.70710653 4.9305005
v 0.4999996 0.49999994 4.9305005
v -0.65328145 0.6532816 4.4225297
v -0.9238794 0 4.42253
v -1.6343493E-07 0.9238795 4.4225297
v 0.7071063 0 4.9305005
v 0.6532811 0.6532816 4.4225297
v 0.27059776 -0.2705979 5.3349395
v -2.5776592E-07 0 5.498957
v -0.70710677 0.70710677 3.9280086
v -0.9999999 0 3.9280086
v -1.3363261E-07 0.99999964 3.9280086
v -0.70710665 -0.70710653 3.9280086
v 0.70710635 0.7071063 3.9280086
v -0.6532813 -0.65328115 4.42253
v -1.6343493E-07 -0.9999994 3.9280086
v 0.92387897 0 4.42253
v 0.9999994 0 3.9280086
v -1.0383028E-07 -0.923879 4.42253
v 0.7071063 -0.70710653 3.9280086
v -0.4999999 -0.49999946 4.9305005
v -0.3826834 0 5.3349395
v 0.6532811 -0.65328115 4.42253
v 0.4999996 -0.49999946 4.9305005
v -1.6343493E-07 -0.70710653 4.9305005
v -0.27059805 -0.2705979 5.3349395
v -1.6343493E-07 -0.38268322 5.3349395
v -0.30001062 0.3000104 2.8905418
v -1.4853377E-07 0.42427725 2.8905418
v -1.6343493E-07 0.7789241 3.1292138
v -0.5507832 0.5507831 3.1292138
v -1.6556264E-07 0.31041643 2.6444585
v -0.42427737 0 2.8905418
v -0.2194986 0.21949837 2.6444585
v -0.7789242 0 3.1292138
v -0.31041664 0 2.6444585
v -0.71115124 0.71115106 3.466263
v -1.0057214 0 3.466263
v -1.6343493E-07 1.0057214 3.4840643
v -1.6343493E-07 0.7789241 3.1292138
v 0.7111509 0.71115106 3.494745
v 0.5507829 0.5507831 3.1292138
v 1.005721 0 3.4637244
v 0.7789238 0 3.1292138
v 0.3000103 0.3000104 2.8905418
v 0.424277 0 2.8905418
v 0.31041628 0 2.6444585
v 0.21949825 0.21949837 2.6444585
v 0.2519936 0 2.0354018
v 0.178187 0.17818724 2.0354018
v 0.29336733 0 1.3709766
v -2.344107E-07 0.25199375 2.0354018
v 0.20744275 0.20744297 1.3709766
v -0.1781875 0.17818724 2.0354018
v -0.25199407 0 2.0354018
v -2.3314104E-07 0.2933676 1.3709766
v -0.20744324 0.20744297 1.3709766
v 0.12539624 0.12539653 0.64749116
v 0.17733648 0 0.64749116
v -2.3670177E-07 0.17733674 0.64749116
v -0.2933678 0 1.3709766
v -0.12539673 0.12539653 0.64749116
v -0.17733696 0 0.64749116
v 0.062127076 0.06212733 -0.024316784
v -2.3850777E-07 0.08786096 -0.024316784
v 0.087860726 9.313225E-09 -0.024316784
v -0.062127568 0.06212733 -0.024316784
v 0.062127076 -0.062127307 -0.024316784
v -0.0878612 7.4505797E-09 -0.024316784
v 0.12539624 -0.12539642 0.64749116
v -2.4159357E-07 -0.08786094 -0.024316784
v -0.12539671 -0.12539642 0.64749116
v -0.06212756 -0.062127307 -0.024316784
v -2.4293007E-07 -0.17733668 0.64749116
v 0.20744275 -0.20744297 1.3709766
v 0.2519936 0 2.0354018
v -0.20744322 -0.20744297 1.3709766
v -0.2933678 0 1.3709766
v -2.434445E-07 -0.29336748 1.3709766
v 0.178187 -0.17818712 2.0354018
v 0.31041628 0 2.6444585
v -0.17818747 -0.17818712 2.0354018
v -2.4326107E-07 -0.25199386 2.0354018
v 0.21949825 -0.21949837 2.6444585
v 0.424277 0 2.8905418
v -0.21949857 -0.21949837 2.6444585
v -0.31041664 0 2.6444585
v -1.7646485E-07 -0.31041643 2.6444585
v 0.3000103 -0.3000104 2.8905418
v -0.3000106 -0.3000104 2.8905418
v -0.42427737 0 2.8905418
v -0.7789242 0 3.1292138
v -1.6343493E-07 -0.424277 2.8905418
v -0.5507832 -0.5507831 3.1292138
v -0.71115106 -0.71115106 3.5018654
v -1.6343493E-07 -0.7789241 3.1292138
v -1.0377854E-07 -1.005721 3.4876246
v 0.5507829 -0.5507831 3.1292138
v 0.7789238 0 3.1292138
v 0.7111509 -0.71115106 3.508986
v -0.9238794 0 3.5138283
v -0.65328145 0.65328115 3.5209482
v -0.70710677 0.70710677 3.9280086
v -0.9999999 0 3.9280086
v -1.3363261E-07 0.99999964 3.9280086
v -0.6532813 -0.65328115 3.520949
v -1.6343493E-07 0.92387927 3.5268903
v -0.70710665 -0.70710653 3.9280086
v 0.70710635 0.7071063 3.9280086
v -1.03816134E-07 -0.923879 3.5267882
v 0.6532811 0.65328115 3.5238311
v -1.6343493E-07 -0.9999994 3.9280086
v 0.9999994 0 3.9280086
v 0.6532811 -0.65328115 3.520949
v 0.92387897 0 3.5138283
v 0.7071063 -0.70710653 3.9280086
v -0.9238794 0 3.5138283
v -1.0057214 0 3.466263
v -0.71115124 0.71115106 3.466263
v -0.65328145 0.65328115 3.5209482
v -0.6532813 -0.65328115 3.520949
v -1.6343493E-07 1.0057214 3.4840643
v -0.71115106 -0.71115106 3.5018654
v -1.6343493E-07 0.92387927 3.5268903
v -1.03816134E-07 -0.923879 3.5267882
v 0.7111509 0.71115106 3.494745
v -1.0377854E-07 -1.005721 3.4876246
v 0.6532811 0.65328115 3.5238311
v 0.6532811 -0.65328115 3.520949
v 1.005721 0 3.4637244
v 0.7111509 -0.71115106 3.508986
v 0.92387897 0 3.5138283
vt 0.051920183 0.96417737
vt 0.051920183 0.96417737
vt 0.051920183 0.96417737
vt 0.051920183 0.96417737
vt 0.051920183 0.96417737
vt 0.051920183 0.96417737
vt 0.051920183 0.96417737
vt 0.051920183 0.96417737
vt 0.29530096 0.98432994
vt 0.29530096 0.98432994
vt 0.29530096 0.98432994
vt 0.29530096 0.98432994
vt 0.29530096 0.98432994
vt 0.29530096 0.98432994
vt 0.29530096 0.98432994
vt 0.29530096 0.98432994
vt 0.29530096 0.98432994
vt 0.29530096 0.98432994
vt 0.29530096 0.98432994
vt 0.29530096 0.98432994
vt 0.29530096 0.98432994
vt 0.29530096 0.98432994
vt 0.29530096 0.98432994
vt 0.29530096 0.98432994
vt 0.29530096 0.98432994
vt 0.29530096 0.98432994
vt 0.29530096 0.98432994
vt 0.29530096 0.98432994
vt 0.29530096 0.98432994
vt 0.29530096 0.98432994
vt 0.29530096 0.98432994
vt 0.29530096 0.98432994
vt 0.29530096 0.98432994
vt 0.29530096 0.98432994
vt 0.29530096 0.98432994
vt 0.29530096 0.98432994
vt 0.29530096 0.98432994
vt 0.29530096 0.98432994
vt 0.29530096 0.98432994
vt 0.29530096 0.98432994
vt 0.29530096 0.98432994
vt 0.29530096 0.98432994
vt 0.29530096 0.98432994
vt 0.051920183 0.96417737
vt 0.051920183 0.96417737
vt 0.051920183 0.96417737
vt 0.051920183 0.96417737
vt 0.051920183 0.96417737
vt 0.051920183 0.96417737
vt 0.051920183 0.96417737
vt 0.051920183 0.96417737
vt 0.051920183 0.96417737
vt 0.051920183 0.96417737
vt 0.051920183 0.96417737
vt 0.051920183 0.96417737
vt 0.051920183 0.96417737
vt 0.051920183 0.96417737
vt 0.051920183 0.96417737
vt 0.051920183 0.96417737
vt 0.051920183 0.96417737
vt 0.051920183 0.96417737
vt 0.051920183 0.96417737
vt 0.051920183 0.96417737
vt 0.051920183 0.96417737
vt 0.051920183 0.96417737
vt 0.051920183 0.96417737
vt 0.051920183 0.96417737
vt 0.051920183 0.96417737
vt 0.051920183 0.96417737
vt 0.051920183 0.96417737
vt 0.051920183 0.96417737
vt 0.051920183 0.96417737
vt 0.051920183 0.96417737
vt 0.051920183 0.96417737
vt 0.051920183 0.96417737
vt 0.051920183 0.96417737
vt 0.051920183 0.96417737
vt 0.051920183 0.96417737
vt 0.051920183 0.96417737
vt 0.051920183 0.96417737
vt 0.051920183 0.96417737
vt 0.051920183 0.96417737
vt 0.051920183 0.96417737
vt 0.051920183 0.96417737
vt 0.051920183 0.96417737
vt 0.051920183 0.96417737
vt 0.051920183 0.96417737
vt 0.051920183 0.96417737
vt 0.051920183 0.96417737
vt 0.051920183 0.96417737
vt 0.051920183 0.96417737
vt 0.051920183 0.96417737
vt 0.051920183 0.96417737
vt 0.051920183 0.96417737
vt 0.051920183 0.96417737
vt 0.051920183 0.96417737
vt 0.051920183 0.96417737
vt 0.051920183 0.96417737
vt 0.051920183 0.96417737
vt 0.051920183 0.96417737
vt 0.051920183 0.96417737
vt 0.051920183 0.96417737
vt 0.051920183 0.96417737
vt 0.051920183 0.96417737
vt 0.051920183 0.96417737
vt 0.051920183 0.96417737
vt 0.051920183 0.96417737
vt 0.051920183 0.96417737
vt 0.051920183 0.96417737
vt 0.051920183 0.96417737
vt 0.051920183 0.96417737
vt 0.051920183 0.96417737
vt 0.051920183 0.96417737
vt 0.051920183 0.96417737
vt 0.051920183 0.96417737
vt 0.051920183 0.96417737
vt 0.27669862 0.9486754
vt 0.27669862 0.9486754
vt 0.27669862 0.9486754
vt 0.27669862 0.9486754
vt 0.27669862 0.9486754
vt 0.27669862 0.9486754
vt 0.27669862 0.9486754
vt 0.27669862 0.9486754
vt 0.27669862 0.9486754
vt 0.27669862 0.9486754
vt 0.27669862 0.9486754
vt 0.27669862 0.9486754
vt 0.27669862 0.9486754
vt 0.27669862 0.9486754
vt 0.27669862 0.9486754
vt 0.27669862 0.9486754
vt 0.18678725 0.97037816
vt 0.18678725 0.97037816
vt 0.18678725 0.97037816
vt 0.18678725 0.97037816
vt 0.18678725 0.97037816
vt 0.18678725 0.97037816
vt 0.18678725 0.97037816
vt 0.18678725 0.97037816
vt 0.18678725 0.97037816
vt 0.18678725 0.97037816
vt 0.18678725 0.97037816
vt 0.18678725 0.97037816
vt 0.18678725 0.97037816
vt 0.18678725 0.97037816
vt 0.18678725 0.97037816
vt 0.18678725 0.97037816
vn 0.51892996 -0.51892996 -0.67928153
vn 0.7338643 0 -0.679296
vn 0.51892996 0.51892996 -0.67928153
vn -0 -0.7338643 -0.679296
vn -0 0.7338643 -0.679296
vn -0.51892996 0.51892996 -0.67928153
vn -0.51892996 -0.51892996 -0.67928153
vn -0.7338643 0 -0.679296
vn -0.86618865 0 0.4997172
vn -0.45287633 0.45287633 0.7679884
vn -0.6404546 0 0.76799613
vn -0 0 1
vn -0 0.6404546 0.76799613
vn -0.6124871 0.6124871 0.49971914
vn 0.45287633 0.45287633 0.7679884
vn 0.6404546 0 0.76799613
vn -0 0.86618865 0.4997172
vn 0.6124871 0.6124871 0.49971914
vn -0.6814881 0.6814881 0.2667356
vn -0.9637689 0 0.26673865
vn -0 0.9637689 0.26673865
vn 0.86618865 0 0.4997172
vn 0.6814881 0.6814881 0.2667356
vn 0.45287633 -0.45287633 0.7679884
vn -0 0 1
vn -0.7067942 0.70725197 -0.015381679
vn -0.99989176 0 -0.014710125
vn 6.1038314E-05 0.99986863 -0.016205674
vn -0.7067942 -0.70725197 -0.015381679
vn 0.70679116 0.7072489 -0.015656281
vn -0.6814881 -0.6814881 0.2667356
vn -0 -0.9998716 -0.016022604
vn 0.9637689 0 0.26673865
vn 0.9998896 6.103773E-05 -0.014862687
vn -0 -0.9637689 0.26673865
vn 0.7067942 -0.70725197 -0.015381679
vn -0.6124871 -0.6124871 0.49971914
vn -0.6404546 0 0.76799613
vn 0.6814881 -0.6814881 0.2667356
vn 0.6124871 -0.6124871 0.49971914
vn -0 -0.86618865 0.4997172
vn -0.45287633 -0.45287633 0.7679884
vn -0 -0.6404546 0.76799613
vn -0.51626605 0.51626605 -0.6833292
vn -0 0.7301128 -0.6833267
vn 0.0041505597 0.7374568 -0.6753815
vn -0.51519746 0.5189819 -0.6820773
vn -0 0.9621879 -0.27238643
vn -0.7301128 0 -0.6833267
vn -0.6803697 0.6803697 -0.27238595
vn -0.7331942 -0.005249309 -0.6799992
vn -0.9621879 0 -0.27238643
vn -0.6976708 0.6922079 0.18467218
vn -0.9774386 0.019929042 0.21027735
vn -0.014435576 0.9743251 0.22468227
vn 0.0041505597 0.7374568 -0.6753815
vn 0.6893713 0.68073434 0.24772565
vn 0.5204431 0.52468526 -0.6736797
vn 0.9718479 0.010773216 0.23536274
vn 0.73636675 -0.0020142659 -0.67657965
vn 0.51626605 0.51626605 -0.6833292
vn 0.7301128 0 -0.6833267
vn 0.9621879 0 -0.27238643
vn 0.6803697 0.6803697 -0.27238595
vn 0.99985504 0 -0.017029459
vn 0.70700425 0.70700425 -0.017029628
vn 0.99888915 0 -0.047121447
vn -0 0.99985504 -0.017029459
vn 0.70632136 0.70632136 -0.047120646
vn -0.70700425 0.70700425 -0.017029628
vn -0.99985504 0 -0.017029459
vn -0 0.99888915 -0.047121447
vn -0.70632136 0.70632136 -0.047120646
vn 0.6995644 0.6995644 -0.14566883
vn 0.9893337 0 -0.14566708
vn -0 0.9893337 -0.14566708
vn -0.99888915 0 -0.047121447
vn -0.6995644 0.6995644 -0.14566883
vn -0.9893337 0 -0.14566708
vn 0.51892996 0.51892996 -0.67928153
vn -0 0.7338643 -0.679296
vn 0.7338643 0 -0.679296
vn -0.51892996 0.51892996 -0.67928153
vn 0.51892996 -0.51892996 -0.67928153
vn -0.7338643 0 -0.679296
vn 0.6995644 -0.6995644 -0.14566883
vn -0 -0.7338643 -0.679296
vn -0.6995644 -0.6995644 -0.14566883
vn -0.51892996 -0.51892996 -0.67928153
vn -0 -0.9893337 -0.14566708
vn 0.70630604 -0.70633656 -0.047121663
vn 0.99985504 0 -0.017029459
vn -0.70632136 -0.70632136 -0.047120646
vn -0.99888915 0 -0.047121447
vn -0 -0.99888915 -0.047121447
vn 0.70700425 -0.70700425 -0.017029628
vn 0.9621879 0 -0.27238643
vn -0.70700425 -0.70700425 -0.017029628
vn -0 -0.99985504 -0.017029459
vn 0.6803697 -0.6803697 -0.27238595
vn 0.7301128 0 -0.6833267
vn -0.6803697 -0.6803697 -0.27238595
vn -0.9621879 0 -0.27238643
vn -0 -0.9621879 -0.27238643
vn 0.51626605 -0.51626605 -0.6833292
vn -0.51626605 -0.51626605 -0.6833292
vn -0.7301128 0 -0.6833267
vn -0.7331942 -0.005249309 -0.6799992
vn -0 -0.7301128 -0.6833267
vn -0.5221616 -0.5265565 -0.6708841
vn -0.6846151 -0.67393327 0.27769762
vn 0.0009766271 -0.7435184 -0.6687148
vn -0.005371293 -0.95740247 0.288707
vn 0.5230379 -0.5279515 -0.6691028
vn 0.73636675 -0.0020142659 -0.67657965
vn 0.6826534 -0.6689808 0.29402193
vn -0.98323894 0 -0.18232204
vn -0.6962064 0.693948 -0.18366517
vn -0.7067942 0.70725197 -0.015381679
vn -0.99989176 0 -0.014710125
vn 6.1038314E-05 0.99986863 -0.016205674
vn -0.6962064 -0.693948 -0.18366517
vn -0.00033571475 0.9826676 -0.18537559
vn -0.7067942 -0.70725197 -0.015381679
vn 0.70679116 0.7072489 -0.015656281
vn -0 -0.982732 -0.18503474
vn 0.69611055 0.69388264 -0.18427442
vn -0 -0.9998716 -0.016022604
vn 0.9998896 6.103773E-05 -0.014862687
vn 0.6962064 -0.693948 -0.18366517
vn 0.9831766 -0.00033571137 -0.18265751
vn 0.7067942 -0.70725197 -0.015381679
vn -0.4590373 0.041139703 0.887464
vn -0.9774386 0.019929042 0.21027735
vn -0.6976708 0.6922079 0.18467218
vn -0.37712687 0.36125684 0.8528006
vn -0.26090366 -0.23517646 0.9362806
vn -0.014435576 0.9743251 0.22468227
vn -0.6846151 -0.67393327 0.27769762
vn -0.030396694 0.45604196 0.889439
vn -0.00970497 -0.31937894 0.9475774
vn 0.6893713 0.68073434 0.24772565
vn -0.005371293 -0.95740247 0.288707
vn 0.30396873 0.2817204 0.91007507
vn 0.24109957 -0.20993972 0.9475212
vn 0.9718479 0.010773216 0.23536274
vn 0.6826534 -0.6689808 0.29402193
vn 0.40459695 0.020173386 0.91427255
g Sphere_0
f 3/3/3 2/2/2 1/1/1
f 1/1/1 4/4/4 3/3/3
f 4/4/4 5/5/5 3/3/3
f 4/4/4 6/6/6 5/5/5
f 4/4/4 7/7/7 6/6/6
f 7/7/7 8/8/8 6/6/6
f 11/11/11 10/10/10 9/9/9
f 12/12/12 10/10/10 11/11/11
f 12/12/12 13/13/13 10/10/10
f 10/10/10 14/14/14 9/9/9
f 10/10/10 13/13/13 14/14/14
f 12/12/12 15/15/15 13/13/13
f 12/12/12 16/16/16 15/15/15
f 13/13/13 15/15/15 17/17/17
f 13/13/13 17/17/17 14/14/14
f 15/15/15 16/16/16 18/18/18
f 15/15/15 18/18/18 17/17/17
f 14/14/14 17/17/17 19/19/19
f 9/9/9 14/14/14 20/20/20
f 14/14/14 19/19/19 20/20/20
f 17/17/17 18/18/18 21/21/21
f 17/17/17 21/21/21 19/19/19
f 16/16/16 22/22/22 18/18/18
f 18/18/18 23/23/23 21/21/21
f 18/18/18 22/22/22 23/23/23
f 16/16/16 24/24/24 22/22/22
f 25/25/25 24/24/24 16/16/16
f 19/19/19 21/21/21 26/26/26
f 19/19/19 26/26/26 27/27/27
f 20/20/20 19/19/19 27/27/27
f 21/21/21 28/28/28 26/26/26
f 21/21/21 23/23/23 28/28/28
f 20/20/20 27/27/27 29/29/29
f 23/23/23 30/30/30 28/28/28
f 31/31/31 20/20/20 29/29/29
f 31/31/31 29/29/29 32/32/32
f 9/9/9 20/20/20 31/31/31
f 23/23/23 33/33/33 30/30/30
f 33/33/33 34/34/34 30/30/30
f 22/22/22 33/33/33 23/23/23
f 35/35/35 31/31/31 32/32/32
f 35/35/35 32/32/32 36/36/36
f 37/37/37 9/9/9 31/31/31
f 37/37/37 31/31/31 35/35/35
f 38/38/38 9/9/9 37/37/37
f 39/39/39 36/36/36 34/34/34
f 33/33/33 39/39/39 34/34/34
f 39/39/39 35/35/35 36/36/36
f 22/22/22 40/40/40 33/33/33
f 40/40/40 39/39/39 33/33/33
f 24/24/24 40/40/40 22/22/22
f 41/41/41 35/35/35 39/39/39
f 41/41/41 37/37/37 35/35/35
f 40/40/40 41/41/41 39/39/39
f 42/42/42 38/38/38 37/37/37
f 42/42/42 37/37/37 41/41/41
f 25/25/25 38/38/38 42/42/42
f 24/24/24 43/43/43 40/40/40
f 43/43/43 41/41/41 40/40/40
f 43/43/43 42/42/42 41/41/41
f 25/25/25 43/43/43 24/24/24
f 25/25/25 42/42/42 43/43/43
f 46/46/46 45/45/45 44/44/44
f 47/47/47 46/46/46 44/44/44
f 45/45/45 48/48/48 44/44/44
f 47/47/47 44/44/44 49/49/49
f 44/44/44 50/50/50 49/49/49
f 48/48/48 50/50/50 44/44/44
f 51/51/51 47/47/47 49/49/49
f 50/50/50 52/52/52 49/49/49
f 53/53/53 47/47/47 51/51/51
f 54/54/54 53/53/53 51/51/51
f 53/53/53 55/55/55 47/47/47
f 55/55/55 56/56/56 47/47/47
f 55/55/55 57/57/57 56/56/56
f 57/57/57 58/58/58 56/56/56
f 56/56/56 58/58/58 45/45/45
f 57/57/57 59/59/59 58/58/58
f 59/59/59 60/60/60 58/58/58
f 58/58/58 60/60/60 61/61/61
f 58/58/58 61/61/61 45/45/45
f 60/60/60 62/62/62 61/61/61
f 62/62/62 63/63/63 61/61/61
f 61/61/61 64/64/64 45/45/45
f 63/63/63 64/64/64 61/61/61
f 63/63/63 65/65/65 64/64/64
f 64/64/64 48/48/48 45/45/45
f 65/65/65 66/66/66 64/64/64
f 64/64/64 66/66/66 48/48/48
f 65/65/65 67/67/67 66/66/66
f 66/66/66 68/68/68 48/48/48
f 48/48/48 68/68/68 50/50/50
f 67/67/67 69/69/69 66/66/66
f 66/66/66 69/69/69 68/68/68
f 68/68/68 70/70/70 50/50/50
f 50/50/50 70/70/70 52/52/52
f 70/70/70 71/71/71 52/52/52
f 68/68/68 72/72/72 70/70/70
f 69/69/69 72/72/72 68/68/68
f 70/70/70 73/73/73 71/71/71
f 72/72/72 73/73/73 70/70/70
f 69/69/69 74/74/74 72/72/72
f 67/67/67 75/75/75 69/69/69
f 75/75/75 74/74/74 69/69/69
f 72/72/72 76/76/76 73/73/73
f 74/74/74 76/76/76 72/72/72
f 73/73/73 77/77/77 71/71/71
f 73/73/73 78/78/78 77/77/77
f 76/76/76 78/78/78 73/73/73
f 78/78/78 79/79/79 77/77/77
f 74/74/74 80/80/80 76/76/76
f 80/80/80 81/81/81 76/76/76
f 76/76/76 81/81/81 78/78/78
f 82/82/82 80/80/80 74/74/74
f 75/75/75 82/82/82 74/74/74
f 81/81/81 83/83/83 78/78/78
f 78/78/78 83/83/83 79/79/79
f 84/84/84 82/82/82 75/75/75
f 83/83/83 85/85/85 79/79/79
f 86/86/86 84/84/84 75/75/75
f 86/86/86 75/75/75 67/67/67
f 87/87/87 84/84/84 86/86/86
f 79/79/79 85/85/85 88/88/88
f 85/85/85 89/89/89 88/88/88
f 89/89/89 87/87/87 90/90/90
f 90/90/90 87/87/87 86/86/86
f 88/88/88 89/89/89 90/90/90
f 91/91/91 86/86/86 67/67/67
f 90/90/90 86/86/86 91/91/91
f 91/91/91 67/67/67 92/92/92
f 79/79/79 88/88/88 93/93/93
f 94/94/94 79/79/79 93/93/93
f 88/88/88 90/90/90 95/95/95
f 95/95/95 90/90/90 91/91/91
f 93/93/93 88/88/88 95/95/95
f 96/96/96 91/91/91 92/92/92
f 95/95/95 91/91/91 96/96/96
f 96/96/96 92/92/92 97/97/97
f 94/94/94 93/93/93 98/98/98
f 71/71/71 94/94/94 98/98/98
f 93/93/93 95/95/95 99/99/99
f 99/99/99 95/95/95 96/96/96
f 98/98/98 93/93/93 99/99/99
f 100/100/100 96/96/96 97/97/97
f 99/99/99 96/96/96 100/100/100
f 100/100/100 97/97/97 101/101/101
f 71/71/71 98/98/98 102/102/102
f 103/103/103 71/71/71 102/102/102
f 98/98/98 99/99/99 104/104/104
f 104/104/104 99/99/99 100/100/100
f 102/102/102 98/98/98 104/104/104
f 105/105/105 100/100/100 101/101/101
f 104/104/104 100/100/100 105/105/105
f 103/103/103 102/102/102 106/106/106
f 107/107/107 103/103/103 106/106/106
f 108/108/108 107/107/107 106/106/106
f 102/102/102 104/104/104 109/109/109
f 106/106/106 102/102/102 109/109/109
f 109/109/109 104/104/104 105/105/105
f 110/110/110 108/108/108 106/106/106
f 110/110/110 106/106/106 109/109/109
f 54/54/54 108/108/108 110/110/110
f 111/111/111 54/54/54 110/110/110
f 112/112/112 110/110/110 109/109/109
f 111/111/111 110/110/110 112/112/112
f 112/112/112 109/109/109 105/105/105
f 113/113/113 111/111/111 112/112/112
f 114/114/114 105/105/105 101/101/101
f 114/114/114 112/112/112 105/105/105
f 113/113/113 112/112/112 114/114/114
f 115/115/115 114/114/114 101/101/101
f 116/116/116 113/113/113 114/114/114
f 116/116/116 114/114/114 115/115/115
f 59/59/59 116/116/116 115/115/115
f 119/119/119 118/118/118 117/117/117
f 120/120/120 119/119/119 117/117/117
f 119/119/119 121/121/121 118/118/118
f 120/120/120 117/117/117 122/122/122
f 121/121/121 123/123/123 118/118/118
f 124/124/124 120/120/120 122/122/122
f 121/121/121 125/125/125 123/123/123
f 124/124/124 122/122/122 126/126/126
f 125/125/125 127/127/127 123/123/123
f 128/128/128 124/124/124 126/126/126
f 125/125/125 129/129/129 127/127/127
f 128/128/128 126/126/126 130/130/130
f 129/129/129 131/131/131 127/127/127
f 132/132/132 128/128/128 130/130/130
f 132/132/132 130/130/130 131/131/131
f 129/129/129 132/132/132 131/131/131
f 135/135/135 134/134/134 133/133/133
f 136/136/136 135/135/135 133/133/133
f 133/133/133 134/134/134 137/137/137
f 138/138/138 135/135/135 136/136/136
f 134/134/134 139/139/139 137/137/137
f 140/140/140 138/138/138 136/136/136
f 137/137/137 139/139/139 141/141/141
f 142/142/142 138/138/138 140/140/140
f 139/139/139 143/143/143 141/141/141
f 144/144/144 142/142/142 140/140/140
f 141/141/141 143/143/143 145/145/145
f 146/146/146 142/142/142 144/144/144
f 143/143/143 147/147/147 145/145/145
f 148/148/148 146/146/146 144/144/144
f 145/145/145 147/147/147 148/148/148
f 147/147/147 146/146/146 148/148/148
