g Sphere_cell.087_cell_cell.006
v -0.010181702 -0.0156212635 -0.0097851595
v -0.01971767 -0.012594301 -0.01732449
v -0.013615226 -0.0020535786 -0.002317473
v 0.0027035696 -0.0075133634 0.009733214
v 0.001292549 -0.019069035 -0.0009969323
v -0.0041718255 0.014038481 0.020163013
v 0.001292549 -0.019069035 -0.0009969323
v 0.0027035696 -0.0075133634 0.009733214
v 0.0039311866 -0.002878507 0.0121459495
v 0.011151812 -0.0075429273 -0.01458828
v 0.015698453 0.019928135 0.0074557206
v 0.0073614633 0.010141053 0.018924488
v 0.0073614633 0.010141053 0.018924488
v -0.0041718255 0.014038481 0.020163013
v 0.010908506 0.024744427 0.0052878405
v 0.015698453 0.019928135 0.0074557206
v 0.011151812 -0.0075429273 -0.01458828
v -0.005361117 -0.0015791256 -0.02869789
v -0.01971767 -0.012594301 -0.01732449
v -0.010181702 -0.0156212635 -0.0097851595
v 0.001292549 -0.019069035 -0.0009969323
v 0.011151812 -0.0075429273 -0.01458828
v 0.015698453 0.019928135 0.0074557206
v 0.010908506 0.024744427 0.0052878405
v -0.005361117 -0.0015791256 -0.02869789
v 0.0073614633 0.010141053 0.018924488
v 0.0039311866 -0.002878507 0.0121459495
v 0.0027035696 -0.0075133634 0.009733214
v -0.0041718255 0.014038481 0.020163013
v -0.013615226 -0.0020535786 -0.002317473
v -0.01971767 -0.012594301 -0.01732449
v -0.005361117 -0.0015791256 -0.02869789
v -0.0041718255 0.014038481 0.020163013
v 0.010908506 0.024744427 0.0052878405
vn -0.6309385 -0.49051282 0.60109377
vn -0.6309385 -0.49051282 0.60109377
vn -0.6309385 -0.49051282 0.60109377
vn -0.61745834 -0.4934341 0.6125912
vn -0.61745834 -0.4934341 0.6125912
vn -0.61745834 -0.4934341 0.6125912
vn 0.86964625 -0.38874325 0.30429253
vn 0.86964625 -0.38874325 0.30429253
vn 0.86964625 -0.38874325 0.30429253
vn 0.8708321 -0.38727376 0.3027714
vn 0.8708321 -0.38727376 0.3027714
vn 0.8708321 -0.38727376 0.3027714
vn 0.28687188 0.6156683 0.7339327
vn 0.28687188 0.6156683 0.7339327
vn 0.28687188 0.6156683 0.7339327
vn 0.28687188 0.6156683 0.7339327
vn 0.18199849 -0.81111956 -0.55584323
vn 0.18199849 -0.81111956 -0.55584323
vn 0.18199849 -0.81111956 -0.55584323
vn 0.18199849 -0.81111956 -0.55584323
vn 0.18199849 -0.81111956 -0.55584323
vn 0.67551035 0.39022672 -0.62562674
vn 0.67551035 0.39022672 -0.62562674
vn 0.67551035 0.39022672 -0.62562674
vn 0.67551035 0.39022672 -0.62562674
vn -0.056063756 -0.44936457 0.8915876
vn -0.056063756 -0.44936457 0.8915876
vn -0.056063756 -0.44936457 0.8915876
vn -0.056063756 -0.44936457 0.8915876
vn -0.69260293 0.69179314 -0.20426308
vn -0.69260293 0.69179314 -0.20426308
vn -0.69260293 0.69179314 -0.20426308
vn -0.69260293 0.69179314 -0.20426308
vn -0.69260293 0.69179314 -0.20426308
g Sphere_cell.087_cell_cell.006_0
f 3/3/3 2/2/2 1/1/1
f 4/4/4 3/3/3 1/1/1
f 1/1/1 5/5/5 4/4/4
f 4/4/4 6/6/6 3/3/3
f 9/9/9 8/8/8 7/7/7
f 9/9/9 7/7/7 10/10/10
f 10/10/10 11/11/11 9/9/9
f 11/11/11 12/12/12 9/9/9
f 15/15/15 14/14/14 13/13/13
f 16/16/16 15/15/15 13/13/13
f 19/19/19 18/18/18 17/17/17
f 17/17/17 20/20/20 19/19/19
f 17/17/17 21/21/21 20/20/20
f 24/24/24 23/23/23 22/22/22
f 25/25/25 24/24/24 22/22/22
f 28/28/28 27/27/27 26/26/26
f 29/29/29 28/28/28 26/26/26
f 32/32/32 31/31/31 30/30/30
f 30/30/30 33/33/33 32/32/32
f 33/33/33 34/34/34 32/32/32
