g Sphere_cell.003_cell.007
v -0.080632515 0.13107954 -0.15432477
v -0.048410363 0.1267985 -0.19054602
v 0.06018234 0.18748079 -0.16987109
v 0.05694235 0.19416675 -0.15505463
v 0.04501487 0.21836075 -0.099764824
v 0.044044983 0.22026905 -0.095164
v -0.048410363 0.1267985 -0.19054602
v -0.061048932 0.07791172 -0.19215159
v -0.038497668 -0.070257545 -0.18478042
v 0.037759673 -0.0773679 -0.16930991
v 0.06018234 0.18748079 -0.16987109
v 0.075213976 0.11523876 -0.16546547
v 0.085336275 0.06606756 -0.1624887
v 0.06157524 -0.07960045 -0.16444951
v 0.09209127 -0.08228791 -0.15822506
v 0.11617559 -0.08412373 -0.15331805
v -0.061048932 0.07791172 -0.19215159
v -0.042668443 -0.0771693 -0.16777629
v -0.038497668 -0.070257545 -0.18478042
v -0.0804236 0.12606154 -0.15612012
v -0.14149353 -0.008493549 0.1139594
v -0.11324829 -0.112724416 0.07931385
v -0.07580931 -0.13295041 -0.030559674
v -0.084460445 -0.14745079 0.005226593
v -0.0977321 -0.16978751 0.06035057
v 0.04140128 0.19854602 -0.03484787
v 0.037959587 0.17128502 0.04051081
v 0.024882149 0.1492518 0.07366673
v 0.044044983 0.22026905 -0.095164
v -0.080632515 0.13107954 -0.15432477
v -0.14149353 -0.008493549 0.1139594
v -0.0804236 0.12606154 -0.15612012
v -0.104564875 0.0075691855 0.16370448
v 0.037959587 0.17128502 0.04051081
v 0.037929486 0.16855203 0.045501567
v 0.024882149 0.1492518 0.07366673
v 0.03785951 0.15934859 0.062053178
v 0.03783561 0.1549276 0.06992451
v 0.04140128 0.19854602 -0.03484787
v 0.044044983 0.22026905 -0.095164
v 0.04501487 0.21836075 -0.099764824
v 0.05694235 0.19416675 -0.15505463
v 0.06018234 0.18748079 -0.16987109
v 0.075213976 0.11523876 -0.16546547
v 0.03783561 0.1549276 0.06992451
v 0.085336275 0.06606756 -0.1624887
v 0.03785951 0.15934859 0.062053178
v 0.037929486 0.16855203 0.045501567
v 0.037959587 0.17128502 0.04051081
v 0.05873812 0.0029910724 0.16358855
v 0.061463363 -0.007877714 0.16027519
v 0.11617559 -0.08412373 -0.15331805
v 0.10819012 -0.17518745 0.06919376
v 0.03783561 0.1549276 0.06992451
v 0.05873812 0.0029910724 0.16358855
v 0.003092661 -0.004880316 0.16946813
v 0.024882149 0.1492518 0.07366673
v -0.104564875 0.0075691855 0.16370448
v -0.06593884 -0.010213978 0.1740205
v -0.08409534 -0.010445005 0.17449287
v -0.07089759 -0.05601442 0.16027519
v -0.06073884 -0.18307553 0.09182493
v -0.0977321 -0.16978751 0.06035057
v -0.11324829 -0.112724416 0.07931385
v -0.14149353 -0.008493549 0.1139594
v -0.08409534 -0.010445005 0.17449287
v -0.104564875 0.0075691855 0.16370448
v 0.11617559 -0.08412373 -0.15331805
v 0.10275322 -0.17569147 0.07033155
v 0.10819012 -0.17518745 0.06919376
v 0.09209127 -0.08228791 -0.15822506
v 0.036946308 -0.17984568 0.08126841
v 0.07480205 -0.17800198 0.07631389
v 0.06157524 -0.07960045 -0.16444951
v -0.07580931 -0.13295041 -0.030559674
v -0.01352076 -0.1820768 0.0879902
v -0.042668443 -0.0771693 -0.16777629
v 0.037759673 -0.0773679 -0.16930991
v -0.038497668 -0.070257545 -0.18478042
v -0.084460445 -0.14745079 0.005226593
v -0.0977321 -0.16978751 0.06035057
v -0.06073884 -0.18307553 0.09182493
v -0.03159971 -0.18284832 0.0904123
v 0.061463363 -0.007877714 0.16027519
v 0.10819012 -0.17518745 0.06919376
v 0.10275322 -0.17569147 0.07033155
v 0.07480205 -0.17800198 0.07631389
v 0.014689876 -0.03287852 0.16027519
v 0.036946308 -0.17984568 0.08126841
v -0.01352076 -0.1820768 0.0879902
v 0.003092661 -0.004880316 0.16946813
v 0.05873812 0.0029910724 0.16358855
v -0.06593884 -0.010213978 0.1740205
v -0.057098873 -0.054655433 0.16027519
v -0.08409534 -0.010445005 0.17449287
v -0.03159971 -0.18284832 0.0904123
v -0.07089759 -0.05601442 0.16027519
v -0.06073884 -0.18307553 0.09182493
v -0.080632515 0.13107954 -0.15432477
v -0.0804236 0.12606154 -0.15612012
v -0.061048932 0.07791172 -0.19215159
v -0.048410363 0.1267985 -0.19054602
vn -0.37562823 0.8174592 -0.43665078
vn -0.37562823 0.8174592 -0.43665078
vn -0.37562823 0.8174592 -0.43665078
vn -0.37562823 0.8174592 -0.43665078
vn -0.37656778 0.81611365 -0.4383551
vn -0.38662845 0.82017964 -0.42169157
vn 0.19710608 -0.018764345 -0.98020256
vn 0.19710608 -0.018764345 -0.98020256
vn 0.19710608 -0.018764345 -0.98020256
vn 0.19710608 -0.018764345 -0.98020256
vn 0.19710608 -0.018764345 -0.98020256
vn 0.19710608 -0.018764345 -0.98020256
vn 0.19710608 -0.018764345 -0.98020256
vn 0.19820371 -0.019139167 -0.97997403
vn 0.19820371 -0.019139167 -0.97997403
vn 0.19820371 -0.019139167 -0.97997403
vn -0.9422111 -0.15809822 -0.29536965
vn -0.9422111 -0.15809822 -0.29536965
vn -0.9422111 -0.15809822 -0.29536965
vn -0.9422111 -0.15809822 -0.29536965
vn -0.94313866 -0.1584523 -0.29220265
vn -0.94313866 -0.1584523 -0.29220265
vn -0.94313866 -0.1584523 -0.29220265
vn -0.94313866 -0.1584523 -0.29220265
vn -0.94311666 -0.1595077 -0.291699
vn -0.63702023 0.73372513 0.23633158
vn -0.63702023 0.73372513 0.23633158
vn -0.63702023 0.73372513 0.23633158
vn -0.63702023 0.73372513 0.23633158
vn -0.63702023 0.73372513 0.23633158
vn -0.6511213 0.7236727 0.2287772
vn -0.6511213 0.7236727 0.2287772
vn -0.6511213 0.7236727 0.2287772
vn -0.25547698 0.84864163 0.4631833
vn -0.25547698 0.84864163 0.4631833
vn -0.25547698 0.84864163 0.4631833
vn -0.23900323 0.8490751 0.47111446
vn -0.23416139 0.8479521 0.47554773
vn 0.9707465 0.20917597 0.11788387
vn 0.9707465 0.20917597 0.11788387
vn 0.9707465 0.20917597 0.11788387
vn 0.9707465 0.20917597 0.11788387
vn 0.9707465 0.20917597 0.11788387
vn 0.9707465 0.20917597 0.11788387
vn 0.9710957 0.2067686 0.11924769
vn 0.9710957 0.2067686 0.11924769
vn 0.9710957 0.2067686 0.11924769
vn 0.9710957 0.2067686 0.11924769
vn 0.9710957 0.2067686 0.11924769
vn 0.9710957 0.2067686 0.11924769
vn 0.9710957 0.2067686 0.11924769
vn 0.9710957 0.2067686 0.11924769
vn 0.9710957 0.2067686 0.11924769
vn 0.015337369 0.52627456 0.85017633
vn 0.015337369 0.52627456 0.85017633
vn 0.015337369 0.52627456 0.85017633
vn 0.015337369 0.52627456 0.85017633
vn 0.015337369 0.52627456 0.85017633
vn 0.015337369 0.52627456 0.85017633
vn 0.015337369 0.52627456 0.85017633
vn -0.67403483 -0.39115968 0.6266348
vn -0.67403483 -0.39115968 0.6266348
vn -0.67403483 -0.39115968 0.6266348
vn -0.67403483 -0.39115968 0.6266348
vn -0.67403483 -0.39115968 0.6266348
vn -0.67403483 -0.39115968 0.6266348
vn -0.67403483 -0.39115968 0.6266348
vn 0.0065777265 -0.9255569 -0.37855154
vn 0.0065777265 -0.9255569 -0.37855154
vn 0.0065777265 -0.9255569 -0.37855154
vn 0.0065777265 -0.9255569 -0.37855154
vn -0.0044018514 -0.9257474 -0.37811708
vn -0.0044018514 -0.9257474 -0.37811708
vn -0.0044018514 -0.9257474 -0.37811708
vn -0.011101317 -0.92581326 -0.37781808
vn -0.011101317 -0.92581326 -0.37781808
vn -0.009503654 -0.92553514 -0.37854254
vn -0.009503654 -0.92553514 -0.37854254
vn -0.009503654 -0.92553514 -0.37854254
vn -0.011101317 -0.92581326 -0.37781808
vn -0.011101317 -0.92581326 -0.37781808
vn -0.011101317 -0.92581326 -0.37781808
vn -0.011101317 -0.92581326 -0.37781808
vn 0.17530255 -0.32799032 0.9282734
vn 0.22303681 -0.41729367 0.88097703
vn 0.22303681 -0.41729367 0.88097703
vn 0.19037826 -0.43132675 0.8818805
vn 0.14841513 -0.35835707 0.92171204
vn 0.137338 -0.4527881 0.88097745
vn 0.137338 -0.4527881 0.88097745
vn 0.10617605 -0.27021635 0.95692724
vn 0.13742708 -0.25712264 0.9565572
vn 0.053836208 -0.28526476 0.9569355
vn 0.0756573 -0.38042286 0.9217128
vn 0.02856577 -0.29014397 0.95655656
vn 0.09753955 -0.46120703 0.88191503
vn 0.037203472 -0.37801656 0.92505103
vn 0.0463591 -0.47088516 0.88097554
vn -0.71856487 0.20756821 -0.663762
vn -0.71856487 0.20756821 -0.663762
vn -0.71856487 0.20756821 -0.663762
vn -0.71856487 0.20756821 -0.663762
g Sphere_cell.003_cell.007_0
f 3/3/3 2/2/2 1/1/1
f 4/4/4 3/3/3 1/1/1
f 5/5/5 4/4/4 1/1/1
f 6/6/6 5/5/5 1/1/1
f 9/9/9 8/8/8 7/7/7
f 10/10/10 9/9/9 7/7/7
f 10/10/10 7/7/7 11/11/11
f 10/10/10 11/11/11 12/12/12
f 12/12/12 13/13/13 10/10/10
f 14/14/14 10/10/10 13/13/13
f 15/15/15 14/14/14 13/13/13
f 13/13/13 16/16/16 15/15/15
f 19/19/19 18/18/18 17/17/17
f 18/18/18 20/20/20 17/17/17
f 21/21/21 20/20/20 18/18/18
f 22/22/22 21/21/21 18/18/18
f 22/22/22 18/18/18 23/23/23
f 23/23/23 24/24/24 22/22/22
f 24/24/24 25/25/25 22/22/22
f 28/28/28 27/27/27 26/26/26
f 28/28/28 26/26/26 29/29/29
f 29/29/29 30/30/30 28/28/28
f 31/31/31 28/28/28 30/30/30
f 30/30/30 32/32/32 31/31/31
f 31/31/31 33/33/33 28/28/28
f 36/36/36 35/35/35 34/34/34
f 36/36/36 37/37/37 35/35/35
f 36/36/36 38/38/38 37/37/37
f 41/41/41 40/40/40 39/39/39
f 42/42/42 41/41/41 39/39/39
f 43/43/43 42/42/42 39/39/39
f 39/39/39 44/44/44 43/43/43
f 44/44/44 39/39/39 45/45/45
f 46/46/46 44/44/44 45/45/45
f 39/39/39 47/47/47 45/45/45
f 39/39/39 48/48/48 47/47/47
f 39/39/39 49/49/49 48/48/48
f 46/46/46 45/45/45 50/50/50
f 46/46/46 50/50/50 51/51/51
f 52/52/52 46/46/46 51/51/51
f 51/51/51 53/53/53 52/52/52
f 56/56/56 55/55/55 54/54/54
f 54/54/54 57/57/57 56/56/56
f 57/57/57 58/58/58 56/56/56
f 58/58/58 59/59/59 56/56/56
f 58/58/58 60/60/60 59/59/59
f 63/63/63 62/62/62 61/61/61
f 61/61/61 64/64/64 63/63/63
f 61/61/61 65/65/65 64/64/64
f 61/61/61 66/66/66 65/65/65
f 66/66/66 67/67/67 65/65/65
f 70/70/70 69/69/69 68/68/68
f 69/69/69 71/71/71 68/68/68
f 71/71/71 69/69/69 72/72/72
f 69/69/69 73/73/73 72/72/72
f 72/72/72 74/74/74 71/71/71
f 74/74/74 72/72/72 75/75/75
f 72/72/72 76/76/76 75/75/75
f 74/74/74 75/75/75 77/77/77
f 78/78/78 74/74/74 77/77/77
f 77/77/77 79/79/79 78/78/78
f 80/80/80 75/75/75 76/76/76
f 76/76/76 81/81/81 80/80/80
f 76/76/76 82/82/82 81/81/81
f 76/76/76 83/83/83 82/82/82
f 86/86/86 85/85/85 84/84/84
f 84/84/84 87/87/87 86/86/86
f 84/84/84 88/88/88 87/87/87
f 89/89/89 87/87/87 88/88/88
f 88/88/88 90/90/90 89/89/89
f 88/88/88 84/84/84 91/91/91
f 84/84/84 92/92/92 91/91/91
f 88/88/88 91/91/91 93/93/93
f 88/88/88 94/94/94 90/90/90
f 94/94/94 88/88/88 93/93/93
f 94/94/94 93/93/93 95/95/95
f 94/94/94 96/96/96 90/90/90
f 97/97/97 94/94/94 95/95/95
f 94/94/94 97/97/97 96/96/96
f 97/97/97 98/98/98 96/96/96
f 101/101/101 100/100/100 99/99/99
f 102/102/102 101/101/101 99/99/99
