g Sphere_cell.087_cell.005
v 0.10927936 0.014583787 0.03803827
v 0.1121644 0.0320818 0.039778307
v 0.11251905 0.026116092 0.035788193
v 0.07115537 -0.02355722 -0.039765693
v 0.00065522635 -0.042751107 -0.12696913
v -0.035023812 -0.06003979 -0.11391923
v -0.012570908 -0.06672886 0.010494488
v 0.08862957 -0.018815553 -0.018031577
v 0.11200472 -0.012487685 0.0111541925
v -0.061268672 -0.08602074 -0.0034680176
v -0.11467538 -0.09846785 -0.08472077
v 0.0071560955 -0.058876067 0.016159432
v -0.18560673 -0.13256337 -0.058670077
v 0.08259234 -0.028237138 0.033216134
v 0.07026544 -0.033459935 0.032059982
v 0.10341086 -0.019250905 0.0346653
v -0.18392448 -0.13267066 -0.052302096
v -0.19163546 -0.13542892 -0.056443427
v -0.1320927 -0.113911174 -0.024390556
v -0.10659111 -0.10392191 -0.016450087
v 0.10341086 -0.019250905 0.0346653
v 0.10927936 0.014583787 0.03803827
v 0.11251905 0.026116092 0.035788193
v 0.11200472 -0.012487685 0.0111541925
v 0.09340012 0.061195806 0.037025407
v 0.10808175 0.03623076 0.04005398
v 0.101735584 0.042515952 0.04046692
v 0.0865725 0.058349803 0.041141525
v 0.086078376 0.0722415 0.036051705
v 0.07187146 0.07454057 0.041474715
v 0.07340145 0.091245845 0.034411862
v 0.06721184 0.1004271 0.03355004
v 0.06080094 0.08718248 0.041421488
v 0.06080094 0.08718248 0.041421488
v 0.054955572 0.10236735 0.021689491
v 0.06721184 0.1004271 0.03355004
v 0.015237993 0.0552866 0.03593321
v -0.03763965 0.022973975 0.024334744
v -0.013008943 0.035265166 0.032515183
v 0.047923148 0.103368945 0.014814215
v -0.054782897 0.014343461 0.018626468
v 0.027935836 0.106055446 -0.004826288
v -0.13138674 -0.023682151 -0.0074301763
v -0.015930912 0.08628674 -0.02179108
v 0.007798708 0.108725734 -0.02457676
v 0.007798708 0.108725734 -0.02457676
v -0.015930912 0.08628674 -0.02179108
v -0.016535288 0.075280145 -0.07150606
v -0.18920863 -0.08685258 -0.03888432
v -0.1712295 -0.0662227 -0.024390556
v -0.13138674 -0.023682151 -0.0074301763
v -0.16438471 -0.058890134 -0.02135978
v 0.027935836 0.106055446 -0.004826288
v 0.007798708 0.108725734 -0.02457676
v -0.016535288 0.075280145 -0.07150606
v 0.07340145 0.091245845 0.034411862
v 0.06721184 0.1004271 0.03355004
v 0.054955572 0.10236735 0.021689491
v 0.047923148 0.103368945 0.014814215
v 0.086078376 0.0722415 0.036051705
v 0.07115537 -0.02355722 -0.039765693
v 0.00065522635 -0.042751107 -0.12696913
v 0.09340012 0.061195806 0.037025407
v 0.08862957 -0.018815553 -0.018031577
v 0.11200472 -0.012487685 0.0111541925
v 0.11251905 0.026116092 0.035788193
v 0.1121644 0.0320818 0.039778307
v 0.10808175 0.03623076 0.04005398
v -0.18392448 -0.13267066 -0.052302096
v -0.19163546 -0.13542892 -0.056443427
v -0.18920863 -0.08685258 -0.03888432
v -0.1712295 -0.0662227 -0.024390556
v -0.1320927 -0.113911174 -0.024390556
v -0.16438471 -0.058890134 -0.02135978
v -0.10659111 -0.10392191 -0.016450087
v -0.054782897 0.014343461 0.018626468
v -0.13138674 -0.023682151 -0.0074301763
v -0.03763965 0.022973975 0.024334744
v -0.013008943 0.035265166 0.032515183
v 0.0075477874 0.010216913 0.032515183
v 0.015237993 0.0552866 0.03593321
v 0.06080094 0.08718248 0.041421488
v 0.07187146 0.07454057 0.041474715
v 0.0865725 0.058349803 0.041141525
v 0.0071560955 -0.058876067 0.016159432
v -0.012570908 -0.06672886 0.010494488
v -0.061268672 -0.08602074 -0.0034680176
v 0.037111137 -0.014045274 0.032515183
v 0.07026544 -0.033459935 0.032059982
v 0.101735584 0.042515952 0.04046692
v 0.08259234 -0.028237138 0.033216134
v 0.10341086 -0.019250905 0.0346653
v 0.10808175 0.03623076 0.04005398
v 0.10927936 0.014583787 0.03803827
v 0.1121644 0.0320818 0.039778307
v -0.035023812 -0.06003979 -0.11391923
v 0.00065522635 -0.042751107 -0.12696913
v -0.016535288 0.075280145 -0.07150606
v -0.18920863 -0.08685258 -0.03888432
v -0.11467538 -0.09846785 -0.08472077
v -0.18560673 -0.13256337 -0.058670077
v -0.19163546 -0.13542892 -0.056443427
vn 0.9140712 -0.18652174 0.36011598
vn 0.9140712 -0.18652174 0.36011598
vn 0.9140712 -0.18652174 0.36011598
vn 0.3968336 -0.90994143 -0.120538674
vn 0.3968336 -0.90994143 -0.120538674
vn 0.3952537 -0.91066134 -0.12029268
vn 0.3952537 -0.91066134 -0.12029268
vn 0.3968336 -0.90994143 -0.120538674
vn 0.3968336 -0.90994143 -0.120538674
vn 0.3952537 -0.91066134 -0.12029268
vn 0.3952537 -0.91066134 -0.12029268
vn 0.3968336 -0.90994143 -0.120538674
vn 0.39414388 -0.91125023 -0.11947177
vn 0.3968336 -0.90994143 -0.120538674
vn 0.3968336 -0.90994143 -0.120538674
vn 0.40041223 -0.909072 -0.115144
vn 0.39414388 -0.91125023 -0.11947177
vn 0.39023483 -0.9130615 -0.11847156
vn 0.39414388 -0.91125023 -0.11947177
vn 0.39414388 -0.91125023 -0.11947177
vn 0.93643475 -0.19521992 0.2915117
vn 0.93643475 -0.19521992 0.2915117
vn 0.93643475 -0.19521992 0.2915117
vn 0.93643475 -0.19521992 0.2915117
vn 0.38277945 0.32979873 0.8629674
vn 0.38277945 0.32979873 0.8629674
vn 0.38277945 0.32979873 0.8629674
vn 0.38277945 0.32979873 0.8629674
vn 0.38277945 0.32979873 0.8629674
vn 0.38277945 0.32979873 0.8629674
vn 0.38277945 0.32979873 0.8629674
vn 0.3743732 0.33239195 0.8656561
vn 0.3743732 0.33239195 0.8656561
vn -0.5000978 0.6083396 0.6162995
vn -0.5000978 0.6083396 0.6162995
vn -0.5000978 0.6083396 0.6162995
vn -0.5000978 0.6083396 0.6162995
vn -0.50691974 0.6114559 0.60758036
vn -0.50691974 0.6114559 0.60758036
vn -0.50691974 0.6114559 0.60758036
vn -0.5097522 0.6138971 0.60272974
vn -0.5097522 0.6138971 0.60272974
vn -0.5097522 0.6138971 0.60272974
vn -0.5097522 0.6138971 0.60272974
vn -0.5097522 0.6138971 0.60272974
vn -0.68859035 0.70972824 -0.14875849
vn -0.68859035 0.70972824 -0.14875849
vn -0.68859035 0.70972824 -0.14875849
vn -0.6916828 0.7068559 -0.14808647
vn -0.69209486 0.7067347 -0.1467337
vn -0.69209486 0.7067347 -0.1467337
vn -0.69209486 0.7067347 -0.1467337
vn 0.6693169 0.39553022 -0.6289441
vn 0.6693169 0.39553022 -0.6289441
vn 0.6693169 0.39553022 -0.6289441
vn 0.6707869 0.39319098 -0.62884486
vn 0.6707869 0.39319098 -0.62884486
vn 0.6707869 0.39319098 -0.62884486
vn 0.6707869 0.39319098 -0.62884486
vn 0.6736529 0.3912677 -0.626978
vn 0.6736529 0.3912677 -0.626978
vn 0.6707869 0.39319098 -0.62884486
vn 0.68299913 0.3955781 -0.6140278
vn 0.68299913 0.3955781 -0.6140278
vn 0.68299913 0.3955781 -0.6140278
vn 0.68299913 0.3955781 -0.6140278
vn 0.68299913 0.3955781 -0.6140278
vn 0.68299913 0.3955781 -0.6140278
vn -0.3657486 -0.30016166 0.880983
vn -0.3657486 -0.30016166 0.880983
vn -0.3657486 -0.30016166 0.880983
vn -0.2908181 -0.23866066 0.9265344
vn -0.28339905 -0.23258498 0.93037045
vn -0.22761303 -0.18165094 0.95665836
vn -0.22035009 -0.19007483 0.9567222
vn -0.22663276 -0.18311292 0.9566124
vn -0.25712264 -0.13742708 0.9565572
vn -0.22538243 -0.18494481 0.95655537
vn -0.15799609 -0.12964408 0.9788921
vn -0.14203689 -0.14209792 0.97960895
vn -0.07611493 -0.06247284 0.9951401
vn -0.07611493 -0.06247284 0.9951401
vn -0.06927764 -0.069308154 0.995187
vn -0.0538046 -0.08264483 0.9951256
vn -0.1762199 -0.2313077 0.956788
vn -0.18494481 -0.22538243 0.95655537
vn -0.18494481 -0.22538243 0.95655537
vn -0.11020598 -0.16688073 0.9797987
vn -0.06979782 -0.14121316 0.98751557
vn -0.040559366 -0.091250956 0.9950016
vn -0.036562074 -0.0920766 0.9950805
vn -0.036562074 -0.0920766 0.9950805
vn -0.036562074 -0.0920766 0.9950805
vn -0.036562074 -0.0920766 0.9950805
vn -0.036562074 -0.0920766 0.9950805
vn -0.45896733 0.32221612 -0.82796484
vn -0.45896733 0.32221612 -0.82796484
vn -0.45896733 0.32221612 -0.82796484
vn -0.45896733 0.32221612 -0.82796484
vn -0.45896733 0.32221612 -0.82796484
vn -0.45896733 0.32221612 -0.82796484
vn -0.45896733 0.32221612 -0.82796484
g Sphere_cell.087_cell.005_0
f 3/3/3 2/2/2 1/1/1
f 6/6/6 5/5/5 4/4/4
f 4/4/4 7/7/7 6/6/6
f 4/4/4 8/8/8 7/7/7
f 8/8/8 9/9/9 7/7/7
f 7/7/7 10/10/10 6/6/6
f 10/10/10 11/11/11 6/6/6
f 9/9/9 12/12/12 7/7/7
f 13/13/13 11/11/11 10/10/10
f 9/9/9 14/14/14 12/12/12
f 14/14/14 15/15/15 12/12/12
f 16/16/16 14/14/14 9/9/9
f 10/10/10 17/17/17 13/13/13
f 17/17/17 18/18/18 13/13/13
f 10/10/10 19/19/19 17/17/17
f 10/10/10 20/20/20 19/19/19
f 23/23/23 22/22/22 21/21/21
f 24/24/24 23/23/23 21/21/21
f 27/27/27 26/26/26 25/25/25
f 25/25/25 28/28/28 27/27/27
f 25/25/25 29/29/29 28/28/28
f 29/29/29 30/30/30 28/28/28
f 29/29/29 31/31/31 30/30/30
f 31/31/31 32/32/32 30/30/30
f 32/32/32 33/33/33 30/30/30
f 36/36/36 35/35/35 34/34/34
f 35/35/35 37/37/37 34/34/34
f 38/38/38 37/37/37 35/35/35
f 38/38/38 39/39/39 37/37/37
f 35/35/35 40/40/40 38/38/38
f 41/41/41 38/38/38 40/40/40
f 41/41/41 40/40/40 42/42/42
f 43/43/43 41/41/41 42/42/42
f 44/44/44 43/43/43 42/42/42
f 42/42/42 45/45/45 44/44/44
f 48/48/48 47/47/47 46/46/46
f 47/47/47 48/48/48 49/49/49
f 49/49/49 50/50/50 47/47/47
f 50/50/50 51/51/51 47/47/47
f 50/50/50 52/52/52 51/51/51
f 55/55/55 54/54/54 53/53/53
f 55/55/55 53/53/53 56/56/56
f 53/53/53 57/57/57 56/56/56
f 53/53/53 58/58/58 57/57/57
f 53/53/53 59/59/59 58/58/58
f 55/55/55 56/56/56 60/60/60
f 55/55/55 60/60/60 61/61/61
f 61/61/61 62/62/62 55/55/55
f 60/60/60 63/63/63 61/61/61
f 63/63/63 64/64/64 61/61/61
f 65/65/65 64/64/64 63/63/63
f 63/63/63 66/66/66 65/65/65
f 63/63/63 67/67/67 66/66/66
f 63/63/63 68/68/68 67/67/67
f 71/71/71 70/70/70 69/69/69
f 72/72/72 71/71/71 69/69/69
f 69/69/69 73/73/73 72/72/72
f 74/74/74 72/72/72 73/73/73
f 74/74/74 73/73/73 75/75/75
f 76/76/76 74/74/74 75/75/75
f 74/74/74 76/76/76 77/77/77
f 78/78/78 76/76/76 75/75/75
f 79/79/79 78/78/78 75/75/75
f 75/75/75 80/80/80 79/79/79
f 81/81/81 79/79/79 80/80/80
f 82/82/82 81/81/81 80/80/80
f 80/80/80 83/83/83 82/82/82
f 80/80/80 84/84/84 83/83/83
f 80/80/80 75/75/75 85/85/85
f 75/75/75 86/86/86 85/85/85
f 75/75/75 87/87/87 86/86/86
f 85/85/85 88/88/88 80/80/80
f 80/80/80 88/88/88 84/84/84
f 88/88/88 85/85/85 89/89/89
f 88/88/88 89/89/89 84/84/84
f 89/89/89 90/90/90 84/84/84
f 90/90/90 89/89/89 91/91/91
f 90/90/90 91/91/91 92/92/92
f 93/93/93 90/90/90 92/92/92
f 93/93/93 92/92/92 94/94/94
f 94/94/94 95/95/95 93/93/93
f 98/98/98 97/97/97 96/96/96
f 96/96/96 99/99/99 98/98/98
f 96/96/96 100/100/100 99/99/99
f 100/100/100 101/101/101 99/99/99
f 101/101/101 102/102/102 99/99/99
