g Sphere_cell.006
v 0.45635387 0.5353899 -0.45351106
v 0.5879359 -0.19714105 0.19117856
v 0.590011 -0.15730393 0.23947126
v 0.45635387 0.5353899 -0.45351106
v -0.18712515 0.34659284 0.27253962
v 0.45408967 0.5408231 -0.4593184
v 0.45635387 0.5353899 -0.45351106
v 0.45408967 0.5408231 -0.4593184
v 0.5879359 -0.19714105 0.19117856
v 0.45635387 0.5353899 -0.45351106
v 0.590011 -0.15730393 0.23947126
v 0.59018064 -0.15138671 0.24666113
v 0.5899612 -0.1308699 0.26351658
v 0.58981144 -0.1198726 0.27223092
v -0.093432635 -0.279805 -0.3486149
v 0.45408967 0.5408231 -0.4593184
v -0.4918203 0.25371504 -0.5045993
v -0.2462629 -0.15977478 -0.39115685
v -0.3734606 -0.011733651 -0.43613726
v -0.42408842 0.07792996 -0.46044555
v -0.46587032 0.16064766 -0.48232374
v 0.4560183 -0.2651128 0.124186315
v 0.5879359 -0.19714105 0.19117856
v 0.45408967 0.5408231 -0.4593184
v 0.40734938 -0.28416964 0.09512455
v -0.093432635 -0.279805 -0.3486149
v 0.28505668 -0.31697595 0.011214271
v 0.1715847 -0.33201438 -0.07776221
v 0.09445137 -0.33039367 -0.14679426
v -0.022371382 -0.30853444 -0.2653553
v -0.495968 0.25247908 -0.46044555
v -0.4918203 0.25371504 -0.5045993
v 0.45408967 0.5408231 -0.4593184
v -0.4776978 0.25812516 -0.2653553
v -0.18712515 0.34659284 0.27253962
v -0.42353427 0.274661 -0.07776221
v -0.3355576 0.30145153 0.09512455
v -0.21715006 0.33746684 0.24666113
v -0.18712515 0.34659284 0.27253962
v 0.45635387 0.5353899 -0.45351106
v 0.58981144 -0.1198726 0.27223092
v 0.4560183 -0.07650298 0.31896096
v -0.13825062 0.29635203 0.2990817
v -0.042007715 0.20973587 0.33540598
v 0.34202608 -0.03057158 0.34744194
v 0.050733507 0.13722138 0.356589
v 0.239333 0.019381374 0.36227885
v 0.14342889 0.07468305 0.36521694
v -0.495968 0.25247908 -0.46044555
v -0.46587032 0.16064766 -0.48232374
v -0.4918203 0.25371504 -0.5045993
v -0.46786115 0.15982303 -0.46044555
v -0.4776978 0.25812516 -0.2653553
v -0.42408842 0.07792996 -0.46044555
v -0.4501088 0.16717634 -0.2653553
v -0.42353427 0.274661 -0.07776221
v -0.35947457 -0.0023884773 -0.2653553
v -0.3734606 -0.011733651 -0.43613726
v -0.397535 0.18895286 -0.07776221
v -0.3355576 0.30145153 0.09512455
v -0.23750141 -0.15101331 -0.2653553
v -0.2462629 -0.15977478 -0.39115685
v -0.31215933 0.029226303 -0.07776221
v -0.3121591 0.2243169 0.09512455
v -0.21715006 0.33746684 0.24666113
v -0.088876694 -0.2729866 -0.2653553
v -0.093432635 -0.279805 -0.3486149
v -0.022371382 -0.30853444 -0.2653553
v 0.09445137 -0.33039367 -0.14679426
v -0.19726303 -0.11077517 -0.07776221
v -0.23532316 0.08056679 0.09512455
v -0.19726309 0.2719083 0.24666113
v -0.18712515 0.34659284 0.27253962
v -0.13825062 0.29635203 0.2990817
v -0.13191941 0.14965886 0.24666113
v -0.042007715 0.20973587 0.33540598
v -0.057261556 -0.22567147 -0.07776221
v -0.1319193 -0.045431197 0.09512455
v -0.04398164 0.042506337 0.24666113
v 0.050733507 0.13722138 0.356589
v 0.102465004 -0.31104714 -0.07776221
v 0.1715847 -0.33201438 -0.07776221
v 0.28505668 -0.31697595 0.011214271
v -0.005921334 -0.14883512 0.09512455
v 0.06317088 -0.045431495 0.24666113
v 0.14342889 0.07468305 0.36521694
v 0.13782868 -0.22567117 0.09512455
v 0.1854203 -0.11077517 0.24666113
v 0.239333 0.019381374 0.36227885
v 0.29380664 -0.27298665 0.09512455
v 0.40734938 -0.28416964 0.09512455
v 0.4560183 -0.2651128 0.124186315
v 0.31806865 -0.15101361 0.24666113
v 0.45601836 -0.16460049 0.24666113
v 0.5879359 -0.19714105 0.19117856
v 0.34202608 -0.03057158 0.34744194
v 0.590011 -0.15730393 0.23947126
v 0.4560183 -0.07650298 0.31896096
v 0.59018064 -0.15138671 0.24666113
v 0.58981144 -0.1198726 0.27223092
v 0.5899612 -0.1308699 0.26351658
vt 0 0
vt 0.70202017 0.70202017
vt 0.66415197 0
vt 0 0
vt 0.6967019 0.6967019
vt 1 0
vt 0 0
vt 1 1
vt 1 0.29627907
vt 0 0
vt 0.66415197 0.66415197
vt 0.6710474 0.5411642
vt 0.68721527 0.18698041
vt 0.6955742 0
vt 0.7827992 0
vt 0 0
vt 0.9021917 0.9021917
vt 0.86208844 0.27792332
vt 0.90917003 0.54842436
vt 0.9156834 0.68065953
vt 0.91759026 0.7967601
vt 0.39339402 0.23134567
vt 0.29627907 0.29627907
vt 1 1
vt 0.43373805 0.21313122
vt 1 0.21720082
vt 0.5464214 0.1817443
vt 0.66252816 0.16731043
vt 0.7503347 0.1687943
vt 0.89787585 0.18954866
vt 0.9594268 0.8705765
vt 1 0.9021917
vt 1 0
vt 0.7817596 0.69738674
vt 0.30242163 0
vt 0.61252266 0.49735364
vt 0.45821956 0.27816293
vt 0.32478023 0.048239395
vt 1 0.6967019
vt 1 0
vt 0.30442578 0
vt 0.38752645 0.12789285
vt 0.93705523 0.6583878
vt 0.8217973 0.5779413
vt 0.4673189 0.2349862
vt 0.7216953 0.49813896
vt 0.547786 0.3296768
vt 0.6315942 0.41630417
vt 0.29706502 0.5000001
vt 0.31250003 0.49299115
vt 0.29706907 0.48585486
vt 0.31250003 0.5000001
vt 0.2970526 0.5625001
vt 0.32730255 0.5000001
vt 0.31250003 0.5625001
vt 0.29704612 0.62500006
vt 0.34375003 0.56250006
vt 0.34375003 0.50778764
vt 0.31250006 0.62500006
vt 0.29704618 0.6875001
vt 0.37500003 0.56250006
vt 0.37500003 0.5221977
vt 0.34375006 0.62500006
vt 0.31250003 0.6875001
vt 0.29705542 0.75000006
vt 0.40625003 0.56250006
vt 0.40625 0.5358267
vt 0.41850662 0.5625
vt 0.4375 0.6020007
vt 0.37500006 0.62500006
vt 0.34375003 0.68750006
vt 0.31250006 0.75000006
vt 0.29705784 0.7630056
vt 0.31250006 0.77634466
vt 0.34375006 0.75000006
vt 0.3437501 0.7945998
vt 0.40625006 0.62500006
vt 0.37500003 0.68750006
vt 0.37500006 0.75000006
vt 0.37500006 0.8052455
vt 0.43750003 0.625
vt 0.44996297 0.625
vt 0.46875 0.6571657
vt 0.40625003 0.68750006
vt 0.40625006 0.75
vt 0.40625006 0.80958164
vt 0.4375 0.6875
vt 0.43750003 0.75
vt 0.43750006 0.808105
vt 0.46875 0.6875
vt 0.49062395 0.6875
vt 0.5 0.69948626
vt 0.46875003 0.75
vt 0.5 0.75
vt 0.52818125 0.727182
vt 0.46875006 0.80064857
vt 0.5301335 0.7470346
vt 0.5 0.7863351
vt 0.53039205 0.74999994
vt 0.53125 0.7633238
vt 0.53125 0.7584709
vn 0.990626 0.08139143 -0.10970665
vn 0.990626 0.08139143 -0.10970665
vn 0.990626 0.08139143 -0.10970665
vn 0.39325607 0.7428973 0.54171336
vn 0.39325607 0.7428973 0.54171336
vn 0.39325607 0.7428973 0.54171336
vn 0.5395798 -0.4995455 -0.67772263
vn 0.5395798 -0.4995455 -0.67772263
vn 0.5395798 -0.4995455 -0.67772263
vn 0.9908118 0.0920255 -0.09911312
vn 0.9908118 0.0920255 -0.09911312
vn 0.9908118 0.0920255 -0.09911312
vn 0.9908118 0.0920255 -0.09911312
vn 0.9908118 0.0920255 -0.09911312
vn 0.10867839 -0.20331024 -0.9730641
vn 0.10867839 -0.20331024 -0.9730641
vn 0.10867839 -0.20331024 -0.9730641
vn 0.10867839 -0.20331024 -0.9730641
vn 0.10867839 -0.20331024 -0.9730641
vn 0.10867839 -0.20331024 -0.9730641
vn 0.10867839 -0.20331024 -0.9730641
vn 0.5807307 -0.476507 -0.6600703
vn 0.5807307 -0.476507 -0.6600703
vn 0.5807307 -0.476507 -0.6600703
vn 0.5807307 -0.476507 -0.6600703
vn 0.5807307 -0.476507 -0.6600703
vn 0.5807307 -0.476507 -0.6600703
vn 0.5807307 -0.476507 -0.6600703
vn 0.5807307 -0.476507 -0.6600703
vn 0.5807307 -0.476507 -0.6600703
vn -0.29041988 0.9568992 -0.00049556483
vn -0.29041988 0.9568992 -0.00049556483
vn -0.29041988 0.9568992 -0.00049556483
vn -0.29041988 0.9568992 -0.00049556483
vn -0.29041988 0.9568992 -0.00049556483
vn -0.29041988 0.9568992 -0.00049556483
vn -0.29041988 0.9568992 -0.00049556483
vn -0.29041988 0.9568992 -0.00049556483
vn 0.4260038 0.7091453 0.56181294
vn 0.4260038 0.7091453 0.56181294
vn 0.4260038 0.7091453 0.56181294
vn 0.4260038 0.7091453 0.56181294
vn 0.4260038 0.7091453 0.56181294
vn 0.4260038 0.7091453 0.56181294
vn 0.4260038 0.7091453 0.56181294
vn 0.4260038 0.7091453 0.56181294
vn 0.4260038 0.7091453 0.56181294
vn 0.4260038 0.7091453 0.56181294
vn -0.95694655 -0.290264 3.051877E-05
vn -0.9248179 -0.3675711 -0.09799658
vn -0.95237935 -0.28889388 -0.097539075
vn -0.92388034 -0.38268155 0
vn -0.9387199 -0.2847473 0.19422632
vn -0.87887007 -0.46975616 0.083165646
vn -0.90634596 -0.37541118 0.19391616
vn -0.8847036 -0.26835927 0.38115987
vn -0.8156919 -0.54501534 0.19392022
vn -0.8354029 -0.54083127 0.09799725
vn -0.85438013 -0.35386813 0.38054174
vn -0.7968185 -0.24170986 0.55376583
vn -0.6936837 -0.6936837 0.19392258
vn -0.7134468 -0.693823 0.09799708
vn -0.7689242 -0.51375544 0.3805404
vn -0.76990783 -0.31889513 0.55276376
vn -0.678235 -0.20573199 0.7054584
vn -0.54501534 -0.8156919 0.19392022
vn -0.5864814 -0.80402005 0.0979351
vn -0.45770332 -0.8563205 0.23921306
vn -0.41005203 -0.86475325 0.28992963
vn -0.6539058 -0.6539058 0.38054475
vn -0.6929023 -0.46297252 0.5527593
vn -0.6560855 -0.27174887 0.7040627
vn -0.60883397 -0.18467362 0.771503
vn -0.5781608 -0.2616129 0.77284455
vn -0.59046465 -0.39452815 0.70405895
vn -0.5194429 -0.3643425 0.7729384
vn -0.51375544 -0.7689242 0.3805404
vn -0.5892607 -0.5892607 0.55275995
vn -0.50214326 -0.50214326 0.7040627
vn -0.44286773 -0.45425147 0.7729966
vn -0.35386813 -0.85438013 0.38054174
vn -0.26249665 -0.8653753 0.4268737
vn -0.21104468 -0.85650873 0.47101268
vn -0.46297252 -0.6929023 0.5527593
vn -0.39452815 -0.59046465 0.70405895
vn -0.35112327 -0.52834815 0.7730205
vn -0.31889513 -0.76990783 0.55276376
vn -0.27174887 -0.6560855 0.7040627
vn -0.24729788 -0.58423096 0.77299285
vn -0.16257459 -0.8173287 0.5527597
vn -0.078434035 -0.7965786 0.5994253
vn -0.030031247 -0.7726637 0.6341049
vn -0.13852684 -0.69651014 0.70404834
vn 0.000213635 -0.70987856 0.70432407
vn 0.07590013 -0.7707816 0.63256216
vn -0.13483341 -0.61996514 0.77295744
vn 0.07590013 -0.7707816 0.63256216
vn -0.017151766 -0.63385236 0.7732639
vn 0.06961483 -0.70145863 0.7093021
vn 0.06326713 -0.63187784 0.77248156
vn 0.06326713 -0.63187784 0.77248156
g Sphere_cell.006_0
f 3/3/3 2/2/2 1/1/1
f 6/6/6 5/5/5 4/4/4
f 9/9/9 8/8/8 7/7/7
f 12/12/12 11/11/11 10/10/10
f 10/10/10 13/13/13 12/12/12
f 10/10/10 14/14/14 13/13/13
f 17/17/17 16/16/16 15/15/15
f 15/15/15 18/18/18 17/17/17
f 18/18/18 19/19/19 17/17/17
f 19/19/19 20/20/20 17/17/17
f 20/20/20 21/21/21 17/17/17
f 24/24/24 23/23/23 22/22/22
f 22/22/22 25/25/25 24/24/24
f 25/25/25 26/26/26 24/24/24
f 25/25/25 27/27/27 26/26/26
f 27/27/27 28/28/28 26/26/26
f 28/28/28 29/29/29 26/26/26
f 29/29/29 30/30/30 26/26/26
f 33/33/33 32/32/32 31/31/31
f 31/31/31 34/34/34 33/33/33
f 34/34/34 35/35/35 33/33/33
f 34/34/34 36/36/36 35/35/35
f 36/36/36 37/37/37 35/35/35
f 37/37/37 38/38/38 35/35/35
f 41/41/41 40/40/40 39/39/39
f 39/39/39 42/42/42 41/41/41
f 39/39/39 43/43/43 42/42/42
f 43/43/43 44/44/44 42/42/42
f 44/44/44 45/45/45 42/42/42
f 44/44/44 46/46/46 45/45/45
f 46/46/46 47/47/47 45/45/45
f 46/46/46 48/48/48 47/47/47
f 51/51/51 50/50/50 49/49/49
f 50/50/50 52/52/52 49/49/49
f 53/53/53 49/49/49 52/52/52
f 54/54/54 52/52/52 50/50/50
f 55/55/55 53/53/53 52/52/52
f 55/55/55 52/52/52 54/54/54
f 56/56/56 53/53/53 55/55/55
f 57/57/57 55/55/55 54/54/54
f 54/54/54 58/58/58 57/57/57
f 59/59/59 56/56/56 55/55/55
f 59/59/59 55/55/55 57/57/57
f 60/60/60 56/56/56 59/59/59
f 61/61/61 57/57/57 58/58/58
f 62/62/62 61/61/61 58/58/58
f 63/63/63 59/59/59 57/57/57
f 63/63/63 57/57/57 61/61/61
f 64/64/64 60/60/60 59/59/59
f 64/64/64 59/59/59 63/63/63
f 65/65/65 60/60/60 64/64/64
f 66/66/66 61/61/61 62/62/62
f 67/67/67 66/66/66 62/62/62
f 68/68/68 66/66/66 67/67/67
f 66/66/66 68/68/68 69/69/69
f 70/70/70 63/63/63 61/61/61
f 70/70/70 61/61/61 66/66/66
f 71/71/71 64/64/64 63/63/63
f 71/71/71 63/63/63 70/70/70
f 72/72/72 65/65/65 64/64/64
f 72/72/72 64/64/64 71/71/71
f 73/73/73 65/65/65 72/72/72
f 74/74/74 73/73/73 72/72/72
f 74/74/74 72/72/72 75/75/75
f 75/75/75 72/72/72 71/71/71
f 76/76/76 74/74/74 75/75/75
f 69/69/69 77/77/77 66/66/66
f 77/77/77 70/70/70 66/66/66
f 78/78/78 71/71/71 70/70/70
f 75/75/75 71/71/71 78/78/78
f 78/78/78 70/70/70 77/77/77
f 76/76/76 75/75/75 79/79/79
f 79/79/79 75/75/75 78/78/78
f 80/80/80 76/76/76 79/79/79
f 69/69/69 81/81/81 77/77/77
f 82/82/82 81/81/81 69/69/69
f 81/81/81 82/82/82 83/83/83
f 84/84/84 78/78/78 77/77/77
f 79/79/79 78/78/78 84/84/84
f 84/84/84 77/77/77 81/81/81
f 80/80/80 79/79/79 85/85/85
f 85/85/85 79/79/79 84/84/84
f 86/86/86 80/80/80 85/85/85
f 87/87/87 84/84/84 81/81/81
f 83/83/83 87/87/87 81/81/81
f 85/85/85 84/84/84 87/87/87
f 86/86/86 85/85/85 88/88/88
f 88/88/88 85/85/85 87/87/87
f 89/89/89 86/86/86 88/88/88
f 83/83/83 90/90/90 87/87/87
f 88/88/88 87/87/87 90/90/90
f 91/91/91 90/90/90 83/83/83
f 90/90/90 91/91/91 92/92/92
f 89/89/89 88/88/88 93/93/93
f 93/93/93 88/88/88 90/90/90
f 92/92/92 93/93/93 90/90/90
f 92/92/92 94/94/94 93/93/93
f 94/94/94 92/92/92 95/95/95
f 96/96/96 89/89/89 93/93/93
f 96/96/96 93/93/93 94/94/94
f 95/95/95 97/97/97 94/94/94
f 98/98/98 96/96/96 94/94/94
f 97/97/97 99/99/99 94/94/94
f 100/100/100 98/98/98 94/94/94
f 94/94/94 99/99/99 101/101/101
f 101/101/101 100/100/100 94/94/94
