g Sphere_cell.079
v 0.12812687 5.6730576E-05 0.06108369
v 0.09625931 0.0776057 0.033810575
v 0.09922071 -0.04989148 -0.038760934
v 0.104199246 0.06896017 0.049187496
v 0.09625931 0.0776057 0.033810575
v 0.12812687 5.6730576E-05 0.06108369
v 0.06458791 0.103961915 0.0061276024
v 0.063000314 0.101100534 0.0021369678
v 0.09625931 0.0776057 0.033810575
v 0.049635552 0.07720218 -0.030972425
v 0.016934661 0.018805608 -0.11178433
v 0.006887405 -0.0077397944 -0.14184071
v -0.01672229 -0.12238479 -0.24425781
v 0.09922071 -0.04989148 -0.038760934
v -0.026783433 -0.17089498 -0.28749067
v -0.029052641 -0.19525038 -0.30531204
v 0.037731614 0.10243687 0.0855048
v 0.047577642 0.10547671 0.04575232
v 0.06458791 0.103961915 0.0061276024
v 0.09625931 0.0776057 0.033810575
v 0.031800833 0.10058436 0.10927991
v 0.104199246 0.06896017 0.049187496
v 0.09922071 -0.04989148 -0.038760934
v -0.029052641 -0.19525038 -0.30531204
v -0.10079537 -0.14500618 -0.14184071
v -0.11168508 -0.114165545 -0.06186977
v -0.11785151 -0.07046581 0.04575232
v -0.07908069 -0.0016363987 0.18546794
v -0.06345569 0.025958402 0.24084258
v 0.12812687 5.6730576E-05 0.06108369
v -0.006058513 0.076310016 0.16287692
v 0.031800833 0.10058436 0.10927991
v 0.104199246 0.06896017 0.049187496
v 0.12812687 5.6730576E-05 0.06108369
v -0.006058513 0.076310016 0.16287692
v 0.12812687 5.6730576E-05 0.06108369
v -0.06345569 0.025958402 0.24084258
v -0.027010705 0.06275115 0.19155225
v -0.059095643 0.03127108 0.24084258
v -0.10079537 -0.14500618 -0.14184071
v -0.029052641 -0.19525038 -0.30531204
v -0.026783433 -0.17089498 -0.28749067
v -0.09151458 -0.12764299 -0.14184071
v -0.11168508 -0.114165545 -0.06186977
v 0.006887405 -0.0077397944 -0.14184071
v -0.01672229 -0.12238479 -0.24425781
v -0.11785151 -0.07046581 0.04575232
v -0.016856609 0.052596904 0.04575232
v 0.016934661 0.018805608 -0.11178433
v -0.07908069 -0.0016363987 0.18546794
v 0.049635552 0.07720218 -0.030972425
v -0.06345569 0.025958402 0.24084258
v 0.063000314 0.101100534 0.0021369678
v -0.059095643 0.03127108 0.24084258
v 0.06458791 0.103961915 0.0061276024
v 0.047577642 0.10547671 0.04575232
v -0.027010705 0.06275115 0.19155225
v 0.037731614 0.10243687 0.0855048
v 0.031800833 0.10058436 0.10927991
v -0.006058513 0.076310016 0.16287692
vn 0.89573497 0.23546077 -0.37711695
vn 0.89573497 0.23546077 -0.37711695
vn 0.89573497 0.23546077 -0.37711695
vn 0.9097715 0.26007044 -0.3235417
vn 0.9097715 0.26007044 -0.3235417
vn 0.9097715 0.26007044 -0.3235417
vn 0.7633804 0.34130174 -0.548419
vn 0.76316243 0.33705556 -0.55134076
vn 0.76316243 0.33705556 -0.55134076
vn 0.76316243 0.33705556 -0.55134076
vn 0.76366436 0.33553055 -0.5515758
vn 0.76366436 0.33553055 -0.5515758
vn 0.7672721 0.33061635 -0.5495329
vn 0.7672721 0.33061635 -0.5495329
vn 0.7672721 0.33061635 -0.5495329
vn 0.7672721 0.33061635 -0.5495329
vn 0.5227214 0.8304133 0.19281091
vn 0.5227214 0.8304133 0.19281091
vn 0.5227214 0.8304133 0.19281091
vn 0.5227214 0.8304133 0.19281091
vn 0.524208 0.8288811 0.19535168
vn 0.524208 0.8288811 0.19535168
vn 0.23188826 -0.8965733 0.37733826
vn 0.23188826 -0.8965733 0.37733826
vn 0.23188826 -0.8965733 0.37733826
vn 0.23188826 -0.8965733 0.37733826
vn 0.23188826 -0.8965733 0.37733826
vn 0.23188826 -0.8965733 0.37733826
vn 0.23514965 -0.89478934 0.37954807
vn 0.23514965 -0.89478934 0.37954807
vn 0.6840818 0.34821153 0.64092183
vn 0.6840818 0.34821153 0.64092183
vn 0.6840818 0.34821153 0.64092183
vn 0.6840818 0.34821153 0.64092183
vn 0.6910713 0.25899112 0.6747919
vn 0.6910713 0.25899112 0.6747919
vn 0.6910713 0.25899112 0.6747919
vn 0.6910713 0.25899112 0.6747919
vn 0.6910713 0.25899112 0.6747919
vn -0.81178176 0.43389228 -0.39082962
vn -0.77861834 0.41616648 -0.46963698
vn -0.75682175 0.4532446 -0.4709459
vn -0.7689242 0.51375544 -0.3805404
vn -0.7487073 0.59641445 -0.28935653
vn -0.7272358 0.5968284 -0.33900437
vn -0.68246466 0.56008375 -0.46962556
vn -0.75416094 0.61889964 -0.21955542
vn -0.6936837 0.6936837 -0.1939226
vn -0.71394193 0.6373991 -0.28984338
vn -0.7693196 0.63137424 -0.09753829
vn -0.60732937 0.74002624 -0.288985
vn -0.7693196 0.63137424 -0.09753829
vn -0.60732937 0.74002624 -0.288985
vn -0.7693196 0.63137424 -0.09753829
vn -0.60732937 0.74002624 -0.288985
vn -0.6202659 0.7558003 -0.20984788
vn -0.7405806 0.66480124 -0.097875305
vn -0.63137424 0.7693196 -0.09753829
vn -0.63137424 0.7693196 -0.09753829
vn -0.63137424 0.7693196 -0.09753829
g Sphere_cell.079_0
f 3/3/3 2/2/2 1/1/1
f 6/6/6 5/5/5 4/4/4
f 9/9/9 8/8/8 7/7/7
f 9/9/9 10/10/10 8/8/8
f 11/11/11 10/10/10 9/9/9
f 12/12/12 11/11/11 9/9/9
f 9/9/9 13/13/13 12/12/12
f 13/13/13 9/9/9 14/14/14
f 15/15/15 13/13/13 14/14/14
f 14/14/14 16/16/16 15/15/15
f 19/19/19 18/18/18 17/17/17
f 20/20/20 19/19/19 17/17/17
f 20/20/20 17/17/17 21/21/21
f 22/22/22 20/20/20 21/21/21
f 25/25/25 24/24/24 23/23/23
f 23/23/23 26/26/26 25/25/25
f 23/23/23 27/27/27 26/26/26
f 23/23/23 28/28/28 27/27/27
f 29/29/29 28/28/28 23/23/23
f 30/30/30 29/29/29 23/23/23
f 33/33/33 32/32/32 31/31/31
f 34/34/34 33/33/33 31/31/31
f 37/37/37 36/36/36 35/35/35
f 35/35/35 38/38/38 37/37/37
f 38/38/38 39/39/39 37/37/37
f 42/42/42 41/41/41 40/40/40
f 43/43/43 42/42/42 40/40/40
f 43/43/43 40/40/40 44/44/44
f 43/43/43 45/45/45 42/42/42
f 45/45/45 43/43/43 44/44/44
f 45/45/45 46/46/46 42/42/42
f 44/44/44 47/47/47 45/45/45
f 47/47/47 48/48/48 45/45/45
f 48/48/48 49/49/49 45/45/45
f 48/48/48 47/47/47 50/50/50
f 51/51/51 49/49/49 48/48/48
f 50/50/50 52/52/52 48/48/48
f 48/48/48 53/53/53 51/51/51
f 52/52/52 54/54/54 48/48/48
f 48/48/48 55/55/55 53/53/53
f 48/48/48 56/56/56 55/55/55
f 54/54/54 57/57/57 48/48/48
f 56/56/56 48/48/48 57/57/57
f 57/57/57 58/58/58 56/56/56
f 57/57/57 59/59/59 58/58/58
f 57/57/57 60/60/60 59/59/59
