g Sphere_cell.078
v 0.0039922292 -0.1394839 0.028026517
v 0.016834049 -0.13505551 0.029248413
v 0.0094372025 -0.13563034 0.020920692
v -0.08213854 0.18535733 -0.036979314
v -0.11689953 0.2095673 -0.05724799
v -0.1250021 0.21499394 -0.062261812
v -0.11264067 0.13557959 -0.14966957
v 0.016994534 0.10074043 1.1920927E-05
v 0.07490995 0.05003596 0.019926427
v 0.079994224 0.044759523 0.020572184
v 0.11677532 0.006202235 0.024726506
v 0.12816404 -0.0058903536 0.025807079
v 0.14079328 -0.019405348 0.027015682
v 0.15872134 -0.038885336 0.028345462
v 0.07513439 -0.045297127 -0.10537784
v 0.16633655 -0.05157516 0.029097792
v -0.1250021 0.21499394 -0.062261812
v -0.12981068 0.21225141 -0.06276166
v -0.11264067 0.13557959 -0.14966957
v -0.23785843 0.14561844 -0.077038996
v -0.19662794 0.17325139 -0.06933623
v 0.079012625 -0.102389544 0.033881303
v 0.08817663 -0.09735128 0.034071203
v 0.09700127 -0.09241364 0.03405195
v 0.10623388 -0.087157466 0.033819374
v 0.06864148 -0.107990235 0.033439513
v 0.11677517 -0.08105705 0.03332078
v 0.13008492 -0.07323954 0.032421764
v 0.14920093 -0.0618696 0.03079575
v 0.16633655 -0.05157516 0.029097792
v 0.07513439 -0.045297127 -0.10537784
v 0.0094372025 -0.13563034 0.020920692
v 0.016834049 -0.13505551 0.029248413
v 0.037481125 -0.124379605 0.031178411
v 0.05569815 -0.114853114 0.032629963
v -0.005212664 -0.13195702 0.027046915
v 0.0039922292 -0.1394839 0.028026517
v 0.0094372025 -0.13563034 0.020920692
v 0.07513439 -0.045297127 -0.10537784
v -0.11264067 0.13557959 -0.14966957
v -0.030961249 -0.11076543 0.02430534
v -0.06784047 -0.07991836 0.019926427
v -0.0904202 -0.054328896 0.011075913
v -0.19238444 0.06642199 -0.033684846
v -0.23785843 0.14561844 -0.077038996
v -0.19937283 0.07494355 -0.036979314
v 0.0039922292 -0.1394839 0.028026517
v -0.005212664 -0.13195702 0.027046915
v -0.030961249 -0.11076543 0.02430534
v 0.016834049 -0.13505551 0.029248413
v 0.037481125 -0.124379605 0.031178411
v -0.06346488 -0.06549404 0.019926427
v 0.05569815 -0.114853114 0.032629963
v -0.06784047 -0.07991836 0.019926427
v 0.06864148 -0.107990235 0.033439513
v -0.0904202 -0.054328896 0.011075913
v -0.045436565 -0.031765442 0.019926427
v 0.079012625 -0.102389544 0.033881303
v -0.19238444 0.06642199 -0.033684846
v -0.15382288 0.13044643 -0.036979314
v -0.19937283 0.07494355 -0.036979314
v -0.19662794 0.17325139 -0.06933623
v -0.23785843 0.14561844 -0.077038996
v -0.12981068 0.21225141 -0.06276166
v -0.1250021 0.21499394 -0.062261812
v -0.11689953 0.2095673 -0.05724799
v -0.021174548 -0.0022020189 0.019926427
v 0.008388846 0.02205993 0.019926427
v 0.08817663 -0.09735128 0.034071203
v 0.09700127 -0.09241364 0.03405195
v -0.095832326 0.17803788 -0.036979314
v -0.08213854 0.18535733 -0.036979314
v 0.016994534 0.10074043 1.1920927E-05
v 0.042117443 0.040088188 0.019926427
v 0.07490995 0.05003596 0.019926427
v 0.079994224 0.044759523 0.020572184
v 0.10623388 -0.087157466 0.033819374
v 0.11677517 -0.08105705 0.03332078
v 0.11677532 0.006202235 0.024726506
v 0.12816404 -0.0058903536 0.025807079
v 0.13008492 -0.07323954 0.032421764
v 0.14079328 -0.019405348 0.027015682
v 0.14920093 -0.0618696 0.03079575
v 0.15872134 -0.038885336 0.028345462
v 0.16633655 -0.05157516 0.029097792
vn 0.33678782 -0.9114661 -0.23622769
vn 0.33678782 -0.9114661 -0.23622769
vn 0.33678782 -0.9114661 -0.23622769
vn 0.6718128 0.5930477 -0.44380394
vn 0.6718128 0.5930477 -0.44380394
vn 0.6718128 0.5930477 -0.44380394
vn 0.6718128 0.5930477 -0.44380394
vn 0.6718128 0.5930477 -0.44380394
vn 0.6718128 0.5930477 -0.44380394
vn 0.6718128 0.5930477 -0.44380394
vn 0.6718128 0.5930477 -0.44380394
vn 0.6718128 0.5930477 -0.44380394
vn 0.677303 0.5810813 -0.45122623
vn 0.677303 0.5810813 -0.45122623
vn 0.677303 0.5810813 -0.45122623
vn 0.677303 0.5810813 -0.45122623
vn -0.3183553 0.6787896 -0.66173595
vn -0.3183553 0.6787896 -0.66173595
vn -0.3183553 0.6787896 -0.66173595
vn -0.32897532 0.6749605 -0.66045713
vn -0.32897532 0.6749605 -0.66045713
vn 0.45711434 -0.8183943 -0.34824893
vn 0.45711434 -0.8183943 -0.34824893
vn 0.45711434 -0.8183943 -0.34824893
vn 0.45711434 -0.8183943 -0.34824893
vn 0.45711434 -0.8183943 -0.34824893
vn 0.45711434 -0.8183943 -0.34824893
vn 0.45711434 -0.8183943 -0.34824893
vn 0.45711434 -0.8183943 -0.34824893
vn 0.45711434 -0.8183943 -0.34824893
vn 0.45711434 -0.8183943 -0.34824893
vn 0.45600525 -0.81890315 -0.3485067
vn 0.45600525 -0.81890315 -0.3485067
vn 0.45600525 -0.81890315 -0.3485067
vn 0.45600525 -0.81890315 -0.3485067
vn -0.43069887 -0.61293226 -0.6624292
vn -0.43069887 -0.61293226 -0.6624292
vn -0.43069887 -0.61293226 -0.6624292
vn -0.43069887 -0.61293226 -0.6624292
vn -0.4328691 -0.61135 -0.66247684
vn -0.4328691 -0.61135 -0.66247684
vn -0.4328691 -0.61135 -0.66247684
vn -0.4328691 -0.61135 -0.66247684
vn -0.4328691 -0.61135 -0.66247684
vn -0.4328691 -0.61135 -0.66247684
vn -0.4328691 -0.61135 -0.66247684
vn -0.097997196 0.009644071 0.99513996
vn -0.097997196 0.009644071 0.99513996
vn -0.09482266 0.025605476 0.9951649
vn -0.097997196 0.009644071 0.99513996
vn -0.095036894 0.024537466 0.99517125
vn -0.18564765 0.07690812 0.979602
vn -0.0889031 0.041445386 0.9951776
vn -0.1586384 0.048098143 0.9861645
vn -0.079806104 0.056978203 0.9951806
vn -0.26026693 0.1300114 0.95674354
vn -0.16709179 0.11163869 0.9796005
vn -0.06802625 0.07055931 0.9951853
vn -0.22812977 0.18088631 0.9566802
vn -0.27427542 0.27427542 0.9217083
vn -0.28440747 0.23341008 0.92985594
vn -0.33867037 0.32792765 0.88191026
vn -0.36577505 0.3001583 0.8809731
vn -0.3001583 0.36577505 0.8809731
vn -0.3001583 0.36577505 0.8809731
vn -0.29200894 0.37145075 0.8813372
vn -0.14209668 0.14209668 0.9796005
vn -0.11163869 0.16709179 0.9796005
vn -0.05401825 0.081759825 0.9951871
vn -0.03817902 0.0902441 0.99518764
vn -0.21549688 0.32249758 0.9217138
vn -0.17014539 0.31834736 0.93257993
vn -0.12998138 0.26026794 0.9567473
vn -0.07690812 0.18564765 0.979602
vn -0.04761021 0.15702213 0.98644686
vn -0.025178261 0.09491443 0.995167
vn -0.021088399 0.09573707 0.9951833
vn -0.0032349736 0.097995274 0.9951816
vn -0.0050051687 0.097997546 0.9951741
vn 0.009644071 0.097997196 0.99513996
vn 0.014679837 0.0969907 0.99517703
vn 0.015320779 0.09686883 0.9951792
vn 0.032197718 0.092747726 0.99516886
vn 0.034241837 0.09189141 0.99518013
vn 0.046419658 0.086857565 0.99513865
g Sphere_cell.078_0
f 3/3/3 2/2/2 1/1/1
f 6/6/6 5/5/5 4/4/4
f 7/7/7 6/6/6 4/4/4
f 7/7/7 4/4/4 8/8/8
f 7/7/7 8/8/8 9/9/9
f 7/7/7 9/9/9 10/10/10
f 7/7/7 10/10/10 11/11/11
f 11/11/11 12/12/12 7/7/7
f 7/7/7 12/12/12 13/13/13
f 7/7/7 13/13/13 14/14/14
f 15/15/15 7/7/7 14/14/14
f 14/14/14 16/16/16 15/15/15
f 19/19/19 18/18/18 17/17/17
f 19/19/19 20/20/20 18/18/18
f 20/20/20 21/21/21 18/18/18
f 24/24/24 23/23/23 22/22/22
f 25/25/25 24/24/24 22/22/22
f 25/25/25 22/22/22 26/26/26
f 27/27/27 25/25/25 26/26/26
f 28/28/28 27/27/27 26/26/26
f 29/29/29 28/28/28 26/26/26
f 30/30/30 29/29/29 26/26/26
f 26/26/26 31/31/31 30/30/30
f 32/32/32 31/31/31 26/26/26
f 26/26/26 33/33/33 32/32/32
f 26/26/26 34/34/34 33/33/33
f 26/26/26 35/35/35 34/34/34
f 38/38/38 37/37/37 36/36/36
f 39/39/39 38/38/38 36/36/36
f 40/40/40 39/39/39 36/36/36
f 36/36/36 41/41/41 40/40/40
f 41/41/41 42/42/42 40/40/40
f 42/42/42 43/43/43 40/40/40
f 43/43/43 44/44/44 40/40/40
f 44/44/44 45/45/45 40/40/40
f 44/44/44 46/46/46 45/45/45
f 49/49/49 48/48/48 47/47/47
f 49/49/49 47/47/47 50/50/50
f 50/50/50 51/51/51 49/49/49
f 52/52/52 49/49/49 51/51/51
f 51/51/51 53/53/53 52/52/52
f 52/52/52 54/54/54 49/49/49
f 52/52/52 53/53/53 55/55/55
f 52/52/52 56/56/56 54/54/54
f 57/57/57 52/52/52 55/55/55
f 52/52/52 57/57/57 56/56/56
f 55/55/55 58/58/58 57/57/57
f 57/57/57 59/59/59 56/56/56
f 60/60/60 59/59/59 57/57/57
f 60/60/60 61/61/61 59/59/59
f 60/60/60 62/62/62 61/61/61
f 62/62/62 63/63/63 61/61/61
f 64/64/64 62/62/62 60/60/60
f 65/65/65 64/64/64 60/60/60
f 66/66/66 65/65/65 60/60/60
f 58/58/58 67/67/67 57/57/57
f 57/57/57 67/67/67 60/60/60
f 67/67/67 68/68/68 60/60/60
f 67/67/67 58/58/58 69/69/69
f 68/68/68 67/67/67 69/69/69
f 68/68/68 69/69/69 70/70/70
f 60/60/60 71/71/71 66/66/66
f 68/68/68 71/71/71 60/60/60
f 71/71/71 72/72/72 66/66/66
f 72/72/72 71/71/71 68/68/68
f 73/73/73 72/72/72 68/68/68
f 68/68/68 74/74/74 73/73/73
f 74/74/74 68/68/68 70/70/70
f 74/74/74 75/75/75 73/73/73
f 76/76/76 75/75/75 74/74/74
f 76/76/76 74/74/74 70/70/70
f 70/70/70 77/77/77 76/76/76
f 77/77/77 78/78/78 76/76/76
f 78/78/78 79/79/79 76/76/76
f 80/80/80 79/79/79 78/78/78
f 80/80/80 78/78/78 81/81/81
f 81/81/81 82/82/82 80/80/80
f 81/81/81 83/83/83 82/82/82
f 83/83/83 84/84/84 82/82/82
f 83/83/83 85/85/85 84/84/84
