g Sphere_cell.033_cell.001
v -0.07020729 0.02633899 -0.22194025
v 0.2187021 0.13885944 -0.2508657
v 0.11731732 0.20716801 0.0160229
v -0.19509175 0.03201669 -0.080070354
v -0.016314942 0.15256731 0.023315797
v -0.24607654 0.03418177 -0.02202438
v -0.23823701 0.0527355 0.0142875705
v -0.1596647 0.09382908 0.031250753
v -0.23605749 0.057743244 0.024164088
v -0.20207188 0.07639568 0.03363613
v 0.12952633 0.19601527 0.026144601
v 0.11731732 0.20716801 0.0160229
v 0.2187021 0.13885944 -0.2508657
v 0.28514534 0.07935064 -0.2129096
v -0.07020729 0.02633899 -0.22194025
v 0.28514534 0.07935064 -0.2129096
v 0.2187021 0.13885944 -0.2508657
v -0.059473246 -0.011008321 -0.2013195
v 0.23426725 -0.18047385 -0.08120162
v 0.13510932 -0.1747685 -0.09458795
v -0.023504864 -0.13800626 -0.13057604
v 0.12833638 0.19099894 0.029237188
v 0.12952633 0.19601527 0.026144601
v 0.28514534 0.07935064 -0.2129096
v 0.08927121 0.03934544 0.12205669
v 0.09599301 -0.05245214 0.12743106
v 0.087003715 0.030486759 0.12747177
v 0.14787486 -0.11059146 0.05115271
v 0.17900336 -0.13876896 0.004172485
v 0.23426725 -0.18047385 -0.08120162
v 0.2085522 -0.1656435 -0.040661052
v -0.21692799 0.048351698 0.03333012
v -0.23605749 0.057743244 0.024164088
v -0.20207188 0.07639568 0.03363613
v -0.1743318 0.06671255 0.04616923
v -0.1654947 0.022993026 0.057818983
v -0.00017841531 -0.022052584 0.12963715
v 0.0063190116 -0.022584496 0.13222566
v 0.042155165 -0.007547437 0.1431047
v 0.06263619 -0.021447001 0.1535751
v 0.06305913 -0.014811812 0.15248254
v 0.087003715 0.030486759 0.12747177
v 0.09599301 -0.05245214 0.12743106
v 0.0918741 -0.048537306 0.13222566
v 0.06263619 -0.021447001 0.1535751
v 0.06305913 -0.014811812 0.15248254
v 0.08927121 0.03934544 0.12205669
v 0.087003715 0.030486759 0.12747177
v 0.06305913 -0.014811812 0.15248254
v 0.042155165 -0.007547437 0.1431047
v -0.016314942 0.15256731 0.023315797
v -0.1743318 0.06671255 0.04616923
v -0.1596647 0.09382908 0.031250753
v -0.20207188 0.07639568 0.03363613
v 0.11731732 0.20716801 0.0160229
v 0.12833638 0.19099894 0.029237188
v 0.12952633 0.19601527 0.026144601
v 0.13510932 -0.1747685 -0.09458795
v -0.023504864 -0.13800626 -0.13057604
v -0.04378437 -0.12732677 -0.116223425
v -0.035012636 -0.106150195 -0.040661052
v -0.18449886 -0.026248034 -0.040661052
v -0.00017841531 -0.022052584 0.12963715
v -0.19351834 -0.018947182 -0.03654985
v -0.1654947 0.022993026 0.057818983
v -0.24607654 0.03418177 -0.02202438
v -0.23823701 0.0527355 0.0142875705
v -0.23605749 0.057743244 0.024164088
v -0.21692799 0.048351698 0.03333012
v 0.13830076 -0.15872435 -0.040661052
v 0.14787486 -0.11059146 0.05115271
v 0.2085522 -0.1656435 -0.040661052
v 0.23426725 -0.18047385 -0.08120162
v 0.17900336 -0.13876896 0.004172485
v 0.09599301 -0.05245214 0.12743106
v 0.0918741 -0.048537306 0.13222566
v 0.0063190116 -0.022584496 0.13222566
v 0.06263619 -0.021447001 0.1535751
v -0.04378437 -0.12732677 -0.116223425
v -0.023504864 -0.13800626 -0.13057604
v -0.059473246 -0.011008321 -0.2013195
v -0.18449886 -0.026248034 -0.040661052
v -0.19351834 -0.018947182 -0.03654985
v -0.24607654 0.03418177 -0.02202438
v -0.07020729 0.02633899 -0.22194025
v -0.19509175 0.03201669 -0.080070354
vn -0.3696739 0.85671264 -0.35970086
vn -0.3696739 0.85671264 -0.35970086
vn -0.3696739 0.85671264 -0.35970086
vn -0.3696739 0.85671264 -0.35970086
vn -0.3696739 0.85671264 -0.35970086
vn -0.3709494 0.85696274 -0.35778692
vn -0.3709494 0.85696274 -0.35778692
vn -0.3709494 0.85696274 -0.35778692
vn -0.3726682 0.85823584 -0.3529161
vn -0.3726682 0.85823584 -0.3529161
vn 0.6494231 0.75861007 0.052538764
vn 0.6494231 0.75861007 0.052538764
vn 0.6494231 0.75861007 0.052538764
vn 0.6494231 0.75861007 0.052538764
vn 0.091220185 -0.46111712 -0.88263804
vn 0.091220185 -0.46111712 -0.88263804
vn 0.091220185 -0.46111712 -0.88263804
vn 0.091220185 -0.46111712 -0.88263804
vn 0.092174426 -0.4645142 -0.8807556
vn 0.092174426 -0.4645142 -0.8807556
vn 0.092174426 -0.4645142 -0.8807556
vn 0.8564475 0.1080461 0.5048007
vn 0.8564475 0.1080461 0.5048007
vn 0.8564475 0.1080461 0.5048007
vn 0.8546901 0.092491396 0.51083285
vn 0.8546901 0.092491396 0.51083285
vn 0.85548735 0.092471376 0.50950015
vn 0.8546901 0.092491396 0.51083285
vn 0.8546901 0.092491396 0.51083285
vn 0.8556461 0.09074343 0.50954425
vn 0.8556461 0.09074343 0.50954425
vn -0.35322207 0.17709304 0.91862524
vn -0.35322207 0.17709304 0.91862524
vn -0.35322207 0.17709304 0.91862524
vn -0.35322207 0.17709304 0.91862524
vn -0.35214537 0.17387636 0.91965246
vn -0.35214537 0.17387636 0.91965246
vn -0.35214537 0.17387636 0.91965246
vn -0.35214537 0.17387636 0.91965246
vn -0.35214537 0.17387636 0.91965246
vn -0.35214537 0.17387636 0.91965246
vn 0.66141725 0.0855886 0.7451186
vn 0.66141725 0.0855886 0.7451186
vn 0.66141725 0.0855886 0.7451186
vn 0.66141725 0.0855886 0.7451186
vn 0.66141725 0.0855886 0.7451186
vn -0.17759456 0.54595023 0.8187787
vn -0.17759456 0.54595023 0.8187787
vn -0.17759456 0.54595023 0.8187787
vn -0.17759456 0.54595023 0.8187787
vn -0.17873621 0.5467195 0.8180166
vn -0.17873621 0.5467195 0.8180166
vn -0.17873621 0.5467195 0.8180166
vn -0.17873621 0.5467195 0.8180166
vn -0.17873621 0.5467195 0.8180166
vn -0.17873621 0.5467195 0.8180166
vn -0.17873621 0.5467195 0.8180166
vn -0.19736977 -0.93636954 0.2902712
vn -0.27787533 -0.91611874 0.2889842
vn -0.33870304 -0.8950391 0.29014683
vn -0.35389477 -0.8543709 0.38053763
vn -0.42187017 -0.7892631 0.44619414
vn -0.31529585 -0.8237185 0.47124997
vn -0.476307 -0.7422784 0.4713325
vn -0.4693562 -0.746746 0.47124845
vn -0.56008375 -0.68246466 0.46962556
vn -0.56008375 -0.68246466 0.46962556
vn -0.56008375 -0.68246466 0.46962556
vn -0.56008375 -0.68246466 0.46962556
vn -0.18039837 -0.906997 0.38054264
vn -0.22377096 -0.85342443 0.47073698
vn -0.091862455 -0.93287706 0.34828386
vn -0.09381668 -0.95272464 0.28898835
vn -0.086521655 -0.8786145 0.46962798
vn -0.25626722 -0.8448548 0.46962485
vn -0.25016382 -0.82474405 0.50716394
vn -0.25218084 -0.83140635 0.49514484
vn -0.22480443 -0.7411587 0.63257146
vn -0.6600808 -0.49949843 -0.5610657
vn -0.6600808 -0.49949843 -0.5610657
vn -0.6600808 -0.49949843 -0.5610657
vn -0.6600808 -0.49949843 -0.5610657
vn -0.6600808 -0.49949843 -0.5610657
vn -0.6600808 -0.49949843 -0.5610657
vn -0.6600808 -0.49949843 -0.5610657
vn -0.6600808 -0.49949843 -0.5610657
g Sphere_cell.033_cell.001_0
f 3/3/3 2/2/2 1/1/1
f 1/1/1 4/4/4 3/3/3
f 4/4/4 5/5/5 3/3/3
f 5/5/5 4/4/4 6/6/6
f 6/6/6 7/7/7 5/5/5
f 7/7/7 8/8/8 5/5/5
f 7/7/7 9/9/9 8/8/8
f 9/9/9 10/10/10 8/8/8
f 13/13/13 12/12/12 11/11/11
f 14/14/14 13/13/13 11/11/11
f 17/17/17 16/16/16 15/15/15
f 16/16/16 18/18/18 15/15/15
f 18/18/18 16/16/16 19/19/19
f 19/19/19 20/20/20 18/18/18
f 20/20/20 21/21/21 18/18/18
f 24/24/24 23/23/23 22/22/22
f 24/24/24 22/22/22 25/25/25
f 24/24/24 25/25/25 26/26/26
f 26/26/26 25/25/25 27/27/27
f 24/24/24 26/26/26 28/28/28
f 28/28/28 29/29/29 24/24/24
f 24/24/24 29/29/29 30/30/30
f 29/29/29 31/31/31 30/30/30
f 34/34/34 33/33/33 32/32/32
f 35/35/35 34/34/34 32/32/32
f 35/35/35 32/32/32 36/36/36
f 35/35/35 36/36/36 37/37/37
f 35/35/35 37/37/37 38/38/38
f 39/39/39 35/35/35 38/38/38
f 39/39/39 38/38/38 40/40/40
f 40/40/40 41/41/41 39/39/39
f 44/44/44 43/43/43 42/42/42
f 42/42/42 45/45/45 44/44/44
f 42/42/42 46/46/46 45/45/45
f 49/49/49 48/48/48 47/47/47
f 50/50/50 49/49/49 47/47/47
f 51/51/51 50/50/50 47/47/47
f 51/51/51 52/52/52 50/50/50
f 51/51/51 53/53/53 52/52/52
f 53/53/53 54/54/54 52/52/52
f 55/55/55 51/51/51 47/47/47
f 55/55/55 47/47/47 56/56/56
f 56/56/56 57/57/57 55/55/55
f 60/60/60 59/59/59 58/58/58
f 58/58/58 61/61/61 60/60/60
f 61/61/61 62/62/62 60/60/60
f 62/62/62 61/61/61 63/63/63
f 63/63/63 64/64/64 62/62/62
f 63/63/63 65/65/65 64/64/64
f 66/66/66 64/64/64 65/65/65
f 65/65/65 67/67/67 66/66/66
f 65/65/65 68/68/68 67/67/67
f 65/65/65 69/69/69 68/68/68
f 58/58/58 70/70/70 61/61/61
f 61/61/61 70/70/70 71/71/71
f 71/71/71 63/63/63 61/61/61
f 70/70/70 58/58/58 72/72/72
f 70/70/70 72/72/72 71/71/71
f 58/58/58 73/73/73 72/72/72
f 72/72/72 74/74/74 71/71/71
f 71/71/71 75/75/75 63/63/63
f 75/75/75 76/76/76 63/63/63
f 76/76/76 77/77/77 63/63/63
f 77/77/77 76/76/76 78/78/78
f 81/81/81 80/80/80 79/79/79
f 79/79/79 82/82/82 81/81/81
f 82/82/82 83/83/83 81/81/81
f 83/83/83 84/84/84 81/81/81
f 84/84/84 85/85/85 81/81/81
f 84/84/84 86/86/86 85/85/85
