g Sphere_cell.033_cell.007
v -0.024729606 -0.10347827 -0.107412726
v 0.04298603 -0.16355856 -0.06921627
v -0.020270286 -0.09925373 -0.12315181
v -0.12525119 -0.034734096 0.1602476
v -0.11248593 -0.046267834 0.17074546
v 0.04298603 -0.16355856 -0.06921627
v -0.024729606 -0.10347827 -0.107412726
v -0.013510434 0.018201975 -0.22937827
v -0.024729606 -0.10347827 -0.107412726
v -0.020270286 -0.09925373 -0.12315181
v -0.12525119 -0.034734096 0.1602476
v -0.12734659 0.08122387 0.08228917
v -0.060134836 0.12263049 -0.15848044
v -0.12757932 0.10304417 0.0673703
v -0.12217794 0.11037506 0.045149934
v -0.10949747 0.12735666 -0.006851419
v -0.107835814 0.12954701 -0.013640685
v -0.09642853 0.14452685 -0.06005592
v -0.07956233 0.16656007 -0.12860152
v 0.008434921 0.013115792 -0.2270497
v -0.013510434 0.018201975 -0.22937827
v -0.020270286 -0.09925373 -0.12315181
v 0.021664886 -0.045851078 -0.17541814
v 0.039257582 -0.12494619 -0.10614666
v 0.04298603 -0.16355856 -0.06921627
v 0.045885976 -0.15113361 -0.08164387
v 0.049400292 -0.16515453 -0.06852027
v 0.049400292 -0.16515453 -0.06852027
v 0.04298603 -0.16355856 -0.06921627
v -0.11248593 -0.046267834 0.17074546
v 0.12986703 -0.14276154 0.07932813
v 0.17099728 -0.13113911 0.1554792
v 0.08692249 -0.08775576 0.21986626
v -0.019133864 -0.063069664 0.20237298
v 0.07021489 -0.079181515 0.23249604
v -0.10949747 0.12735666 -0.006851419
v -0.107835814 0.12954701 -0.013640685
v -0.09642853 0.14452685 -0.06005592
v 0.19497219 0.13301052 0.08551065
v -0.12217794 0.11037506 0.045149934
v -0.12757932 0.10304417 0.0673703
v 0.15815489 0.11859812 0.119693965
v 0.12718575 0.1700951 -0.064981766
v -0.07956233 0.16656007 -0.12860152
v 0.12986703 -0.14276154 0.07932813
v 0.17099728 -0.13113911 0.1554792
v 0.19497219 0.13301052 0.08551065
v 0.12718575 0.1700951 -0.064981766
v 0.045885976 -0.15113361 -0.08164387
v 0.049400292 -0.16515453 -0.06852027
v 0.021664886 -0.045851078 -0.17541814
v 0.039257582 -0.12494619 -0.10614666
v 0.008434921 0.013115792 -0.2270497
v -0.12734659 0.08122387 0.08228917
v -0.12757932 0.10304417 0.0673703
v 0.15815489 0.11859812 0.119693965
v -0.019133864 -0.063069664 0.20237298
v 0.07021489 -0.079181515 0.23249604
v -0.11248593 -0.046267834 0.17074546
v -0.12525119 -0.034734096 0.1602476
v 0.08692249 -0.08775576 0.21986626
v 0.07021489 -0.079181515 0.23249604
v 0.15815489 0.11859812 0.119693965
v 0.19497219 0.13301052 0.08551065
v 0.17099728 -0.13113911 0.1554792
v 0.008434921 0.013115792 -0.2270497
v 0.12718575 0.1700951 -0.064981766
v -0.07956233 0.16656007 -0.12860152
v -0.013510434 0.018201975 -0.22937827
v -0.060134836 0.12263049 -0.15848044
vn -0.5010452 -0.7897371 -0.35393366
vn -0.5010452 -0.7897371 -0.35393366
vn -0.5010452 -0.7897371 -0.35393366
vn -0.6476514 -0.7604281 -0.04792635
vn -0.6476514 -0.7604281 -0.04792635
vn -0.6476514 -0.7604281 -0.04792635
vn -0.6476514 -0.7604281 -0.04792635
vn -0.9151674 -0.24012247 -0.32374355
vn -0.9151674 -0.24012247 -0.32374355
vn -0.9151674 -0.24012247 -0.32374355
vn -0.93097943 -0.21343009 -0.29618376
vn -0.93097943 -0.21343009 -0.29618376
vn -0.9315475 -0.21012767 -0.29675817
vn -0.93097943 -0.21343009 -0.29618376
vn -0.93097943 -0.21343009 -0.29618376
vn -0.93097943 -0.21343009 -0.29618376
vn -0.9315475 -0.21012767 -0.29675817
vn -0.9315475 -0.21012767 -0.29675817
vn -0.9315475 -0.21012767 -0.29675817
vn -0.07575507 -0.66643476 -0.7417047
vn -0.07575507 -0.66643476 -0.7417047
vn -0.07575507 -0.66643476 -0.7417047
vn -0.07575507 -0.66643476 -0.7417047
vn -0.07575507 -0.66643476 -0.7417047
vn -0.09483214 -0.6928439 -0.7148245
vn -0.09483214 -0.6928439 -0.7148245
vn -0.09483214 -0.6928439 -0.7148245
vn -0.26121575 -0.9232463 0.28174913
vn -0.26121575 -0.9232463 0.28174913
vn -0.26121575 -0.9232463 0.28174913
vn -0.26121575 -0.9232463 0.28174913
vn -0.26121575 -0.9232463 0.28174913
vn -0.26121575 -0.9232463 0.28174913
vn -0.26121575 -0.9232463 0.28174913
vn -0.26121575 -0.9232463 0.28174913
vn -0.10337436 0.95371336 0.28239065
vn -0.10337436 0.95371336 0.28239065
vn -0.10337436 0.95371336 0.28239065
vn -0.10337436 0.95371336 0.28239065
vn -0.104343 0.95263666 0.28565
vn -0.10464774 0.95172715 0.28855532
vn -0.10464774 0.95172715 0.28855532
vn -0.10288826 0.95405424 0.28141537
vn -0.10288826 0.95405424 0.28141537
vn 0.87492186 -0.19663294 -0.4425465
vn 0.87492186 -0.19663294 -0.4425465
vn 0.87492186 -0.19663294 -0.4425465
vn 0.87492186 -0.19663294 -0.4425465
vn 0.8732412 -0.1979117 -0.44528738
vn 0.8732412 -0.1979117 -0.44528738
vn 0.87235594 -0.19759032 -0.44716123
vn 0.87235594 -0.19759032 -0.44716123
vn 0.87196803 -0.19684693 -0.44824433
vn -0.17904146 0.5539832 0.81304777
vn -0.17904146 0.5539832 0.81304777
vn -0.17904146 0.5539832 0.81304777
vn -0.17874148 0.5467205 0.81801474
vn -0.17759475 0.5459494 0.8187792
vn -0.17874148 0.5467205 0.81801474
vn -0.17874148 0.5467205 0.81801474
vn 0.6426021 0.14353573 0.75263536
vn 0.6426021 0.14353573 0.75263536
vn 0.6426021 0.14353573 0.75263536
vn 0.6426021 0.14353573 0.75263536
vn 0.6465412 0.13996142 0.7499302
vn 0.22260924 0.61368054 -0.7575231
vn 0.22260924 0.61368054 -0.7575231
vn 0.22260924 0.61368054 -0.7575231
vn 0.22260924 0.61368054 -0.7575231
vn 0.22260924 0.61368054 -0.7575231
g Sphere_cell.033_cell.007_0
f 3/3/3 2/2/2 1/1/1
f 6/6/6 5/5/5 4/4/4
f 7/7/7 6/6/6 4/4/4
f 10/10/10 9/9/9 8/8/8
f 8/8/8 9/9/9 11/11/11
f 11/11/11 12/12/12 8/8/8
f 12/12/12 13/13/13 8/8/8
f 12/12/12 14/14/14 13/13/13
f 14/14/14 15/15/15 13/13/13
f 15/15/15 16/16/16 13/13/13
f 16/16/16 17/17/17 13/13/13
f 17/17/17 18/18/18 13/13/13
f 18/18/18 19/19/19 13/13/13
f 22/22/22 21/21/21 20/20/20
f 22/22/22 20/20/20 23/23/23
f 23/23/23 24/24/24 22/22/22
f 25/25/25 22/22/22 24/24/24
f 25/25/25 24/24/24 26/26/26
f 26/26/26 27/27/27 25/25/25
f 30/30/30 29/29/29 28/28/28
f 28/28/28 31/31/31 30/30/30
f 31/31/31 32/32/32 30/30/30
f 32/32/32 33/33/33 30/30/30
f 33/33/33 34/34/34 30/30/30
f 33/33/33 35/35/35 34/34/34
f 38/38/38 37/37/37 36/36/36
f 39/39/39 38/38/38 36/36/36
f 39/39/39 36/36/36 40/40/40
f 39/39/39 40/40/40 41/41/41
f 42/42/42 39/39/39 41/41/41
f 39/39/39 43/43/43 38/38/38
f 43/43/43 44/44/44 38/38/38
f 47/47/47 46/46/46 45/45/45
f 48/48/48 47/47/47 45/45/45
f 48/48/48 45/45/45 49/49/49
f 45/45/45 50/50/50 49/49/49
f 48/48/48 49/49/49 51/51/51
f 49/49/49 52/52/52 51/51/51
f 48/48/48 51/51/51 53/53/53
f 56/56/56 55/55/55 54/54/54
f 57/57/57 56/56/56 54/54/54
f 56/56/56 57/57/57 58/58/58
f 54/54/54 59/59/59 57/57/57
f 54/54/54 60/60/60 59/59/59
f 63/63/63 62/62/62 61/61/61
f 64/64/64 63/63/63 61/61/61
f 64/64/64 61/61/61 65/65/65
f 68/68/68 67/67/67 66/66/66
f 66/66/66 69/69/69 68/68/68
f 69/69/69 70/70/70 68/68/68
