g Sphere_cell.026
v -0.2547561 0.15765372 -0.14854369
v -0.25209302 0.1606032 -0.14536336
v -0.2663741 0.14419845 -0.059704877
v -0.11553743 -0.12829345 0.2147644
v -0.111658715 -0.1186499 0.22913583
v 0.07545419 -0.25352517 0.050740786
v 0.11760224 -0.18232745 0.1546399
v -0.11553743 -0.12829345 0.2147644
v -0.20024192 -0.022401525 0.15860751
v -0.111658715 -0.1186499 0.22913583
v -0.16354014 -0.015223457 0.22560923
v -0.20744109 -0.011577799 0.15515304
v 0.23703623 -0.076703735 0.084713764
v 0.2569636 -0.1332888 0.08968366
v 0.11760224 -0.18232745 0.1546399
v -0.111658715 -0.1186499 0.22913583
v 0.23514473 -0.0713541 0.08423031
v 0.15672125 0.07268027 0.081850894
v 0.05627294 0.20286442 0.09113807
v -0.06530866 0.3161874 0.11081934
v -0.16354014 -0.015223457 0.22560923
v 0.15645756 -0.26664725 -0.078030385
v 0.1492274 -0.27365103 -0.08453015
v 0.07545419 -0.25352517 0.050740786
v 0.16984846 -0.25087205 -0.059820212
v 0.1730416 -0.24671166 -0.054600157
v 0.21451735 -0.19232766 0.013325466
v 0.11760224 -0.18232745 0.1546399
v 0.25120962 -0.14396495 0.073506184
v 0.2569636 -0.1332888 0.08968366
v -0.03727642 -0.056944795 -0.16378811
v -0.118982516 0.02760915 -0.17163816
v -0.20354742 0.108893305 -0.16406283
v -0.20024192 -0.022401525 0.15860751
v -0.24677646 0.14777175 -0.15262857
v 0.046016414 -0.14969367 -0.1392661
v 0.06496258 -0.17235702 -0.12974009
v 0.13653971 -0.2574977 -0.09363691
v 0.1492274 -0.27365103 -0.08453015
v 0.07545419 -0.25352517 0.050740786
v -0.11553743 -0.12829345 0.2147644
v -0.24677646 0.14777175 -0.15262857
v -0.20744109 -0.011577799 0.15515304
v -0.20024192 -0.022401525 0.15860751
v -0.2663741 0.14419845 -0.059704877
v -0.2547561 0.15765372 -0.14854369
v -0.20744109 -0.011577799 0.15515304
v -0.2663741 0.14419845 -0.059704877
v -0.16354014 -0.015223457 0.22560923
v -0.08138749 0.31195703 0.08955682
v -0.06530866 0.3161874 0.11081934
v -0.17142667 0.23304822 -0.053216316
v -0.088386565 0.30601707 0.073506184
v -0.08138749 0.31195703 0.08955682
v -0.2663741 0.14419845 -0.059704877
v -0.21664399 0.1926787 -0.10825524
v -0.18765932 0.21874513 -0.078030385
v -0.25209302 0.1606032 -0.14536336
v -0.06530866 0.3161874 0.11081934
v -0.08138749 0.31195703 0.08955682
v -0.088386565 0.30601707 0.073506184
v -0.076389104 0.29960433 0.073506184
v 0.05627294 0.20286442 0.09113807
v -0.17142667 0.23304822 -0.053216316
v 0.0496089 0.19620039 0.073506184
v 0.15672125 0.07268027 0.081850894
v -0.14548142 0.1962005 -0.078030385
v -0.18765932 0.21874513 -0.078030385
v 0.15301265 0.07020227 0.073506184
v 0.23514473 -0.0713541 0.08423031
v -0.20354742 0.108893305 -0.16406283
v -0.21664399 0.1926787 -0.10825524
v -0.03832892 0.10826257 -0.078030385
v -0.24677646 0.14777175 -0.15262857
v -0.25209302 0.1606032 -0.14536336
v -0.2547561 0.15765372 -0.14854369
v -0.118982516 0.02760915 -0.17163816
v 0.0496089 0.0011101215 -0.078030385
v -0.03727642 -0.056944795 -0.16378811
v 0.22984886 -0.07354779 0.073506184
v 0.23703623 -0.076703735 0.084713764
v 0.2569636 -0.1332888 0.08968366
v 0.25120962 -0.14396495 0.073506184
v 0.11495257 -0.12113947 -0.078030385
v 0.046016414 -0.14969367 -0.1392661
v 0.21451735 -0.19232766 0.013325466
v 0.06496258 -0.17235702 -0.12974009
v 0.1730416 -0.24671166 -0.054600157
v 0.16984846 -0.25087205 -0.059820212
v 0.13653971 -0.2574977 -0.09363691
v 0.15519096 -0.25378767 -0.078030385
v 0.15645756 -0.26664725 -0.078030385
v 0.1492274 -0.27365103 -0.08453015
vn -0.7442608 0.66787815 0.0038225148
vn -0.7442608 0.66787815 0.0038225148
vn -0.7442608 0.66787815 0.0038225148
vn -0.053031944 -0.82252824 0.5662462
vn -0.053031944 -0.82252824 0.5662462
vn -0.053031944 -0.82252824 0.5662462
vn -0.03974576 -0.8166611 0.5757474
vn -0.7934005 -0.38432828 0.47202468
vn -0.7934005 -0.38432828 0.47202468
vn -0.7934005 -0.38432828 0.47202468
vn -0.7928685 -0.38152078 0.47518572
vn -0.79479235 -0.37680483 0.47573435
vn 0.3534439 0.20464316 0.9127972
vn 0.3534439 0.20464316 0.9127972
vn 0.3534439 0.20464316 0.9127972
vn 0.3534439 0.20464316 0.9127972
vn 0.3503872 0.20886634 0.91301906
vn 0.3503872 0.20886634 0.91301906
vn 0.3503872 0.20886634 0.91301906
vn 0.3562886 0.20977046 0.9105244
vn 0.3562886 0.20977046 0.9105244
vn 0.45437202 -0.81103444 0.36846855
vn 0.45437202 -0.81103444 0.36846855
vn 0.45579442 -0.80959225 0.3698808
vn 0.45437202 -0.81103444 0.36846855
vn 0.45579442 -0.80959225 0.3698808
vn 0.45579442 -0.80959225 0.3698808
vn 0.45579442 -0.80959225 0.3698808
vn 0.45726934 -0.8083371 0.37080434
vn 0.45726934 -0.8083371 0.37080434
vn -0.6796363 -0.68185884 -0.27048668
vn -0.6796363 -0.68185884 -0.27048668
vn -0.6796363 -0.68185884 -0.27048668
vn -0.6796363 -0.68185884 -0.27048668
vn -0.6823925 -0.67949414 -0.26949632
vn -0.6796363 -0.68185884 -0.27048668
vn -0.6796363 -0.68185884 -0.27048668
vn -0.67835987 -0.68412346 -0.26796088
vn -0.67835987 -0.68412346 -0.26796088
vn -0.67835987 -0.68412346 -0.26796088
vn -0.67835987 -0.68412346 -0.26796088
vn -0.78405666 -0.5864145 -0.20340401
vn -0.78405666 -0.5864145 -0.20340401
vn -0.78405666 -0.5864145 -0.20340401
vn -0.8015906 -0.5665961 -0.19084376
vn -0.8015906 -0.5665961 -0.19084376
vn -0.76905465 0.3984271 0.49981084
vn -0.76905465 0.3984271 0.49981084
vn -0.76905465 0.3984271 0.49981084
vn -0.7673478 0.40081125 0.5005273
vn -0.7673478 0.40081125 0.5005273
vn -0.68403256 0.7288931 0.028532252
vn -0.68403256 0.7288931 0.028532252
vn -0.68403256 0.7288931 0.028532252
vn -0.68403256 0.7288931 0.028532252
vn -0.6840111 0.7289614 0.027277889
vn -0.6840111 0.7289614 0.027277889
vn -0.6851068 0.7280066 0.025201393
vn 0.5279913 0.7067453 -0.47088885
vn 0.41616648 0.77861834 -0.46963698
vn 0.38912216 0.7280399 -0.564395
vn 0.46297252 0.6929023 -0.5527593
vn 0.61972034 0.6275027 -0.47136712
vn 0.36510056 0.6830491 -0.63257045
vn 0.5892607 0.5892607 -0.55276
vn 0.732558 0.49105775 -0.47140324
vn 0.3945268 0.5904321 -0.704087
vn 0.32896855 0.6151794 -0.7164733
vn 0.6929023 0.46297252 -0.5527593
vn 0.8159897 0.33458108 -0.47139832
vn 0.35945174 0.52272797 -0.7730136
vn 0.3000637 0.5609104 -0.77158374
vn 0.50214326 0.50214326 -0.70406264
vn 0.3000637 0.5609104 -0.77158374
vn 0.3000637 0.5609104 -0.77158374
vn 0.3000637 0.5609104 -0.77158374
vn 0.448536 0.44862756 -0.7730128
vn 0.59046465 0.3945282 -0.70405895
vn 0.522824 0.35936326 -0.7729897
vn 0.76990795 0.31889516 -0.5527638
vn 0.8448548 0.25626722 -0.46962485
vn 0.8448548 0.25626722 -0.46962485
vn 0.78213936 0.23725423 -0.57616705
vn 0.6560855 0.27174887 -0.7040627
vn 0.5797733 0.25785676 -0.7728989
vn 0.7411587 0.22480443 -0.63257146
vn 0.6088339 0.18467359 -0.771503
vn 0.7411587 0.22480443 -0.63257146
vn 0.74688977 0.20203534 -0.63351196
vn 0.6173432 0.14731637 -0.77277774
vn 0.69651014 0.13852684 -0.70404834
vn 0.6807882 0.06705033 -0.729405
vn 0.63315994 0.06235158 -0.7715054
g Sphere_cell.026_0
f 3/3/3 2/2/2 1/1/1
f 6/6/6 5/5/5 4/4/4
f 7/7/7 5/5/5 6/6/6
f 10/10/10 9/9/9 8/8/8
f 10/10/10 11/11/11 9/9/9
f 11/11/11 12/12/12 9/9/9
f 15/15/15 14/14/14 13/13/13
f 16/16/16 15/15/15 13/13/13
f 16/16/16 13/13/13 17/17/17
f 17/17/17 18/18/18 16/16/16
f 18/18/18 19/19/19 16/16/16
f 19/19/19 20/20/20 16/16/16
f 21/21/21 16/16/16 20/20/20
f 24/24/24 23/23/23 22/22/22
f 22/22/22 25/25/25 24/24/24
f 25/25/25 26/26/26 24/24/24
f 24/24/24 26/26/26 27/27/27
f 28/28/28 24/24/24 27/27/27
f 27/27/27 29/29/29 28/28/28
f 29/29/29 30/30/30 28/28/28
f 33/33/33 32/32/32 31/31/31
f 31/31/31 34/34/34 33/33/33
f 35/35/35 33/33/33 34/34/34
f 31/31/31 36/36/36 34/34/34
f 36/36/36 37/37/37 34/34/34
f 34/34/34 37/37/37 38/38/38
f 38/38/38 39/39/39 34/34/34
f 39/39/39 40/40/40 34/34/34
f 40/40/40 41/41/41 34/34/34
f 44/44/44 43/43/43 42/42/42
f 43/43/43 45/45/45 42/42/42
f 45/45/45 46/46/46 42/42/42
f 49/49/49 48/48/48 47/47/47
f 50/50/50 48/48/48 49/49/49
f 51/51/51 50/50/50 49/49/49
f 54/54/54 53/53/53 52/52/52
f 55/55/55 54/54/54 52/52/52
f 55/55/55 52/52/52 56/56/56
f 52/52/52 57/57/57 56/56/56
f 55/55/55 56/56/56 58/58/58
f 61/61/61 60/60/60 59/59/59
f 62/62/62 61/61/61 59/59/59
f 59/59/59 63/63/63 62/62/62
f 64/64/64 61/61/61 62/62/62
f 63/63/63 65/65/65 62/62/62
f 65/65/65 63/63/63 66/66/66
f 64/64/64 62/62/62 67/67/67
f 62/62/62 65/65/65 67/67/67
f 67/67/67 68/68/68 64/64/64
f 69/69/69 65/65/65 66/66/66
f 69/69/69 66/66/66 70/70/70
f 68/68/68 67/67/67 71/71/71
f 71/71/71 72/72/72 68/68/68
f 65/65/65 73/73/73 67/67/67
f 67/67/67 73/73/73 71/71/71
f 65/65/65 69/69/69 73/73/73
f 71/71/71 74/74/74 72/72/72
f 74/74/74 75/75/75 72/72/72
f 74/74/74 76/76/76 75/75/75
f 73/73/73 77/77/77 71/71/71
f 73/73/73 78/78/78 77/77/77
f 69/69/69 78/78/78 73/73/73
f 78/78/78 79/79/79 77/77/77
f 80/80/80 69/69/69 70/70/70
f 69/69/69 80/80/80 78/78/78
f 80/80/80 70/70/70 81/81/81
f 80/80/80 81/81/81 82/82/82
f 82/82/82 83/83/83 80/80/80
f 78/78/78 84/84/84 79/79/79
f 80/80/80 84/84/84 78/78/78
f 84/84/84 80/80/80 83/83/83
f 84/84/84 85/85/85 79/79/79
f 84/84/84 83/83/83 86/86/86
f 87/87/87 85/85/85 84/84/84
f 84/84/84 86/86/86 88/88/88
f 84/84/84 88/88/88 89/89/89
f 90/90/90 87/87/87 84/84/84
f 89/89/89 91/91/91 84/84/84
f 84/84/84 91/91/91 90/90/90
f 91/91/91 89/89/89 92/92/92
f 91/91/91 92/92/92 90/90/90
f 92/92/92 93/93/93 90/90/90
