g Sphere_cell.071_cell.006_cell.005
v 0.0071661165 -0.0019286273 -0.0036681588
v 0.007528453 0.007031142 0.0021437106
v -0.01188877 -0.0006285309 -0.0051380093
v -0.01188877 -0.0006285309 -0.0051380093
v 0.007528453 0.007031142 0.0021437106
v -0.002805799 -0.004473984 0.0066624573
v 0.0071661165 -0.0019286273 -0.0036681588
v -0.01188877 -0.0006285309 -0.0051380093
v -0.002805799 -0.004473984 0.0066624573
v 0.007528453 0.007031142 0.0021437106
v 0.0071661165 -0.0019286273 -0.0036681588
v -0.002805799 -0.004473984 0.0066624573
vn 0.10126871 0.5385161 -0.8365076
vn 0.10126871 0.5385161 -0.8365076
vn 0.10126871 0.5385161 -0.8365076
vn -0.4778269 0.65784925 0.58216476
vn -0.4778269 0.65784925 0.58216476
vn -0.4778269 0.65784925 0.58216476
vn -0.043949436 -0.95934415 -0.27879584
vn -0.043949436 -0.95934415 -0.27879584
vn -0.043949436 -0.95934415 -0.27879584
vn 0.7055725 -0.4055081 0.58114594
vn 0.7055725 -0.4055081 0.58114594
vn 0.7055725 -0.4055081 0.58114594
g Sphere_cell.071_cell.006_cell.005_0
f 3/3/3 2/2/2 1/1/1
f 6/6/6 5/5/5 4/4/4
f 9/9/9 8/8/8 7/7/7
f 12/12/12 11/11/11 10/10/10
