g Sphere_cell.034_cell.005
v -0.028279208 -0.06232724 0.04266009
v -0.021174634 -0.035281755 -0.020478746
v -0.044882618 -0.05455861 0.045070026
v 0.005756769 -0.01363788 -0.032483775
v -0.014506543 -0.024948217 -0.034814257
v -0.021174634 -0.035281755 -0.020478746
v 0.04899111 -0.002471309 0.0021044982
v -0.028279208 -0.06232724 0.04266009
v 0.014850767 -0.034152605 0.027017388
v 0.013186546 -0.009226422 -0.03158011
v 0.005756769 -0.01363788 -0.032483775
v 0.04899111 -0.002471309 0.0021044982
v 0.05367991 0.002373833 -0.0014930589
v -0.028279208 -0.06232724 0.04266009
v -0.044882618 -0.05455861 0.045070026
v -0.023363555 0.012577193 0.027017388
v 0.014850767 -0.034152605 0.027017388
v 0.008012864 0.065319665 -0.0039805393
v 0.04899111 -0.002471309 0.0021044982
v 0.05367991 0.002373833 -0.0014930589
v -0.009807016 0.047499787 0.009489751
v 0.00077030424 0.073754676 -0.0050148587
v -0.023363555 0.012577193 0.027017388
v -0.044882618 -0.05455861 0.045070026
v -0.021174634 -0.035281755 -0.020478746
v -0.014506543 -0.024948217 -0.034814257
v -0.00323471 0.035078898 -0.023513753
v -0.009807016 0.047499787 0.009489751
v 0.00077030424 0.073754676 -0.0050148587
v 0.013186546 -0.009226422 -0.03158011
v 0.05367991 0.002373833 -0.0014930589
v 0.008012864 0.065319665 -0.0039805393
v -0.00323471 0.035078898 -0.023513753
v 0.00077030424 0.073754676 -0.0050148587
v -0.014506543 -0.024948217 -0.034814257
v 0.005756769 -0.01363788 -0.032483775
v 0.013186546 -0.009226422 -0.03158011
v -0.00323471 0.035078898 -0.023513753
vn -0.4357226 -0.80858815 -0.39538732
vn -0.4357226 -0.80858815 -0.39538732
vn -0.4357226 -0.80858815 -0.39538732
vn 0.4691645 -0.81650984 -0.3364468
vn 0.4691645 -0.81650984 -0.3364468
vn 0.4691645 -0.81650984 -0.3364468
vn 0.4691645 -0.81650984 -0.3364468
vn 0.4691645 -0.81650984 -0.3364468
vn 0.4691645 -0.81650984 -0.3364468
vn 0.50568366 -0.77332675 -0.38242608
vn 0.50568366 -0.77332675 -0.38242608
vn 0.50568366 -0.77332675 -0.38242608
vn 0.50568366 -0.77332675 -0.38242608
vn 0.2258735 0.18491656 0.956445
vn 0.2258735 0.18491656 0.956445
vn 0.32051226 0.26261744 0.9101121
vn 0.2983279 0.24443051 0.92263436
vn 0.33048844 0.33595133 0.88199437
vn 0.3657165 0.29976362 0.88113177
vn 0.3657165 0.29976362 0.88113177
vn 0.35839304 0.30742514 0.881501
vn 0.3001583 0.36577505 0.8809731
vn -0.9353138 0.22676292 -0.2716002
vn -0.9353138 0.22676292 -0.2716002
vn -0.9353138 0.22676292 -0.2716002
vn -0.9353138 0.22676292 -0.2716002
vn -0.9353138 0.22676292 -0.2716002
vn -0.9353138 0.22676292 -0.2716002
vn -0.9353138 0.22676292 -0.2716002
vn 0.49987 0.33101285 -0.80035025
vn 0.49987 0.33101285 -0.80035025
vn 0.49987 0.33101285 -0.80035025
vn 0.49987 0.33101285 -0.80035025
vn 0.49987 0.33101285 -0.80035025
vn 0.010903937 0.18301733 -0.9830493
vn 0.010903937 0.18301733 -0.9830493
vn 0.010903937 0.18301733 -0.9830493
vn 0.010903937 0.18301733 -0.9830493
g Sphere_cell.034_cell.005_0
f 3/3/3 2/2/2 1/1/1
f 6/6/6 5/5/5 4/4/4
f 4/4/4 7/7/7 6/6/6
f 7/7/7 8/8/8 6/6/6
f 7/7/7 9/9/9 8/8/8
f 12/12/12 11/11/11 10/10/10
f 13/13/13 12/12/12 10/10/10
f 16/16/16 15/15/15 14/14/14
f 17/17/17 16/16/16 14/14/14
f 18/18/18 16/16/16 17/17/17
f 18/18/18 17/17/17 19/19/19
f 19/19/19 20/20/20 18/18/18
f 18/18/18 21/21/21 16/16/16
f 21/21/21 18/18/18 22/22/22
f 25/25/25 24/24/24 23/23/23
f 23/23/23 26/26/26 25/25/25
f 23/23/23 27/27/27 26/26/26
f 23/23/23 28/28/28 27/27/27
f 28/28/28 29/29/29 27/27/27
f 32/32/32 31/31/31 30/30/30
f 30/30/30 33/33/33 32/32/32
f 33/33/33 34/34/34 32/32/32
f 37/37/37 36/36/36 35/35/35
f 38/38/38 37/37/37 35/35/35
