g Sphere_cell.005
v -0.0948725 0.2502687 0.05023426
v -0.043979976 0.007978111 0.24616304
v -0.118239425 0.089253806 0.010926968
v -0.025396261 0.11713065 0.28069416
v -0.077408284 0.2452501 0.10189056
v 0.07669069 0.25853622 0.07355505
v 0.08909954 0.20158732 0.03696126
v 0.12425894 0.08881345 0.3841331
v 0.094051965 0.17779638 0.022682553
v 0.09300925 0.18268622 0.02473474
v 0.12104345 0.052565716 -0.020114115
v 0.14211328 -0.044023838 -0.04427736
v 0.16336359 -0.08566102 0.37831658
v 0.16034551 -0.12652428 -0.05652915
v 0.16724999 -0.1573449 -0.057785735
v 0.12425894 0.08881345 0.3841331
v 0.16336359 -0.08566102 0.37831658
v -0.018066918 -0.1774381 0.22898045
v -0.043979976 0.007978111 0.24616304
v -0.025396261 0.11713065 0.28069416
v 0.117071815 0.09933318 0.38094115
v 0.06886943 0.26794112 0.07735455
v 0.07669069 0.25853622 0.07355505
v 0.12425894 0.08881345 0.3841331
v 0.057556167 0.25362766 0.16563778
v 0.117071815 0.09933318 0.38094115
v -0.08871898 -0.26434928 -0.13144587
v -0.09722709 -0.26761466 -0.1323155
v -0.018066918 -0.1774381 0.22898045
v 0.16336359 -0.08566102 0.37831658
v -0.04609338 -0.2478562 -0.12708758
v -0.022409594 -0.2386778 -0.1245809
v 0.15040155 -0.16523345 -0.06767522
v 0.16724999 -0.1573449 -0.057785735
v 0.033264775 0.2655511 0.061775506
v 0.06886943 0.26794112 0.07735455
v 0.057556167 0.25362766 0.16563778
v -0.077408284 0.2452501 0.10189056
v 0.013319215 0.26416028 0.053010464
v -0.0948725 0.2502687 0.05023426
v -0.0006712451 0.2629261 0.04868734
v -0.0772759 0.25581098 0.02473474
v 0.117071815 0.09933318 0.38094115
v -0.077408284 0.2452501 0.10189056
v 0.057556167 0.25362766 0.16563778
v -0.025396261 0.11713065 0.28069416
v -0.018066918 -0.1774381 0.22898045
v -0.09722709 -0.26761466 -0.1323155
v -0.098763876 -0.2583328 -0.13237683
v -0.10242825 -0.23536879 -0.13206415
v -0.10622283 -0.21078473 -0.1312484
v -0.118239425 0.089253806 0.010926968
v -0.11021345 -0.18245967 -0.12978868
v -0.043979976 0.007978111 0.24616304
v -0.0948725 0.2502687 0.05023426
v -0.07480535 0.14105476 -0.033861447
v -0.0772759 0.25581098 0.02473474
v -0.118239425 0.089253806 0.010926968
v -0.07328543 0.07480445 -0.06767522
v -0.076170206 0.048113726 -0.075715765
v -0.09405633 -0.10372765 -0.119104125
v -0.096844934 -0.12468274 -0.1245809
v -0.10163089 -0.14466889 -0.12641041
v -0.11021345 -0.18245967 -0.12978868
v -0.10907253 -0.17755039 -0.12939315
v 0.013319215 0.26416028 0.053010464
v -0.0006712451 0.2629261 0.04868734
v -0.0772759 0.25581098 0.02473474
v 0.000134252 0.23232889 0.02473474
v 0.033264775 0.2655511 0.061775506
v 0.06886943 0.26794112 0.07735455
v 0.07669069 0.25853622 0.07355505
v 0.08909954 0.20158732 0.03696126
v 0.09300925 0.18268622 0.02473474
v 0.00013419239 0.037238505 -0.06767522
v 0.094051965 0.17779638 0.022682553
v 0.12104345 0.052565716 -0.020114115
v -0.06602672 0.07260241 -0.06767522
v -0.07328543 0.07480445 -0.06767522
v -0.07480535 0.14105476 -0.033861447
v -0.076170206 0.048113726 -0.075715765
v -0.09405633 -0.10372765 -0.119104125
v -0.0745236 -0.14300139 -0.1245809
v -0.096844934 -0.12468274 -0.1245809
v 0.058124736 -0.010352938 -0.06767522
v 0.14211328 -0.044023838 -0.04427736
v 0.105716296 -0.06834348 -0.06767522
v 0.16034551 -0.12652428 -0.05652915
v 0.14108004 -0.1345044 -0.06767522
v 0.16724999 -0.1573449 -0.057785735
v 0.15040155 -0.16523345 -0.06767522
v -0.022409594 -0.2386778 -0.1245809
v -0.050261647 -0.17256482 -0.1245809
v -0.03223339 -0.20629317 -0.1245809
v -0.04609338 -0.2478562 -0.12708758
v -0.10907253 -0.17755039 -0.12939315
v -0.10163089 -0.14466889 -0.12641041
v -0.10622283 -0.21078473 -0.1312484
v -0.11021345 -0.18245967 -0.12978868
v -0.10242825 -0.23536879 -0.13206415
v -0.098763876 -0.2583328 -0.13237683
v -0.08871898 -0.26434928 -0.13144587
v -0.09722709 -0.26761466 -0.1323155
vn -0.94576603 0.05957804 0.31933856
vn -0.94576603 0.05957804 0.31933856
vn -0.94576603 0.05957804 0.31933856
vn -0.94576603 0.05957804 0.31933856
vn -0.94273865 0.07183504 0.3257049
vn 0.973381 0.22787352 -0.024556438
vn 0.973381 0.22787352 -0.024556438
vn 0.973381 0.22787352 -0.024556438
vn 0.9752161 0.21954769 -0.02742679
vn 0.9752161 0.21954769 -0.02742679
vn 0.9752161 0.21954769 -0.02742679
vn 0.9752161 0.21954769 -0.02742679
vn 0.9752161 0.21954769 -0.02742679
vn 0.9752161 0.21954769 -0.02742679
vn 0.9752161 0.21954769 -0.02742679
vn -0.5792838 -0.15650243 0.7999608
vn -0.5792838 -0.15650243 0.7999608
vn -0.5792838 -0.15650243 0.7999608
vn -0.5807727 -0.1552223 0.79913026
vn -0.5813466 -0.15378875 0.7989901
vn -0.58138514 -0.15484194 0.79875857
vn 0.79140663 0.57924265 0.19532904
vn 0.79140663 0.57924265 0.19532904
vn 0.79140663 0.57924265 0.19532904
vn 0.79140663 0.57924265 0.19532904
vn 0.7759727 0.5942899 0.21139026
vn 0.33985713 -0.9272834 0.15697993
vn 0.33985713 -0.9272834 0.15697993
vn 0.33985713 -0.9272834 0.15697993
vn 0.33985713 -0.9272834 0.15697993
vn 0.3426218 -0.92653984 0.15535225
vn 0.3426218 -0.92653984 0.15535225
vn 0.3426218 -0.92653984 0.15535225
vn 0.3426218 -0.92653984 0.15535225
vn -0.12830834 0.9814176 0.14267609
vn -0.12830834 0.9814176 0.14267609
vn -0.12830834 0.9814176 0.14267609
vn -0.12830834 0.9814176 0.14267609
vn -0.12962624 0.981743 0.1392045
vn -0.12962624 0.981743 0.1392045
vn -0.12962624 0.981743 0.1392045
vn -0.13014056 0.98371106 0.12400035
vn -0.33209395 0.7208298 0.6083733
vn -0.33209395 0.7208298 0.6083733
vn -0.33209395 0.7208298 0.6083733
vn -0.3407225 0.7144919 0.6110724
vn -0.95603555 -0.15614924 0.24822038
vn -0.95603555 -0.15614924 0.24822038
vn -0.95603555 -0.15614924 0.24822038
vn -0.95603555 -0.15614924 0.24822038
vn -0.95603555 -0.15614924 0.24822038
vn -0.95603555 -0.15614924 0.24822038
vn -0.96203804 -0.147376 0.229702
vn -0.95603555 -0.15614924 0.24822038
vn -0.8220668 0.24479921 -0.51408124
vn -0.8220668 0.24479921 -0.51408124
vn -0.8220668 0.24479921 -0.51408124
vn -0.8220668 0.24479921 -0.51408124
vn -0.8218354 0.24392909 -0.51486415
vn -0.8218354 0.24392909 -0.51486415
vn -0.8218354 0.24392909 -0.51486415
vn -0.8218354 0.24392909 -0.51486415
vn -0.83405364 0.23407747 -0.49956197
vn -0.83405364 0.23407747 -0.49956197
vn -0.83405364 0.23407747 -0.49956197
vn 0.26374698 0.5772403 -0.77280736
vn 0.18467359 0.6088339 -0.771503
vn 0.15088746 0.4974037 -0.8542965
vn 0.214214 0.5171472 -0.82865626
vn 0.2999152 0.56110114 -0.7715027
vn 0.2999152 0.56110114 -0.7715027
vn 0.2999152 0.56110114 -0.7715027
vn 0.2999152 0.56110114 -0.7715027
vn 0.24799976 0.46398476 -0.85042006
vn 0.21549688 0.32249758 -0.9217138
vn 0.24149838 0.40538648 -0.881669
vn 0.3202361 0.3462688 -0.88178605
vn 0.14841513 0.35835707 -0.92171204
vn 0.1152702 0.38002238 -0.9177668
vn 0.137338 0.4527881 -0.88097745
vn 0.13287996 0.25904572 -0.95668083
vn 0.1781706 0.22999208 -0.9567439
vn 0.14209792 0.14203689 -0.97960895
vn 0.1430455 0.1742976 -0.97424763
vn 0.27427542 0.27427542 -0.9217083
vn 0.3851588 0.27196115 -0.8818672
vn 0.32249758 0.21549688 -0.9217138
vn 0.43331262 0.18564871 -0.8819154
vn 0.35835707 0.14841513 -0.92171204
vn 0.4527881 0.137338 -0.88097745
vn 0.36125377 0.10956333 -0.92600846
vn 0.18222836 0.055269737 -0.9817016
vn 0.16709235 0.11160854 -0.9796038
vn 0.18564765 0.07690812 -0.979602
vn 0.094424635 0.027527802 -0.9951514
vn 0.07370439 0.06473168 -0.99517715
vn 0.06247284 0.07611493 -0.9951401
vn 0.083041586 0.052034512 -0.99518675
vn 0.07614396 0.06225799 -0.9951513
vn 0.09109848 0.036134206 -0.99518615
vn 0.09616461 0.01889111 -0.99518615
vn 0.097997196 0.009644071 -0.99513996
vn 0.097997196 0.009644071 -0.99513996
g Sphere_cell.005_0
f 3/3/3 2/2/2 1/1/1
f 2/2/2 4/4/4 1/1/1
f 5/5/5 1/1/1 4/4/4
f 8/8/8 7/7/7 6/6/6
f 9/9/9 7/7/7 8/8/8
f 9/9/9 10/10/10 7/7/7
f 11/11/11 9/9/9 8/8/8
f 12/12/12 11/11/11 8/8/8
f 12/12/12 8/8/8 13/13/13
f 14/14/14 12/12/12 13/13/13
f 13/13/13 15/15/15 14/14/14
f 18/18/18 17/17/17 16/16/16
f 19/19/19 18/18/18 16/16/16
f 20/20/20 19/19/19 16/16/16
f 20/20/20 16/16/16 21/21/21
f 24/24/24 23/23/23 22/22/22
f 25/25/25 24/24/24 22/22/22
f 26/26/26 24/24/24 25/25/25
f 29/29/29 28/28/28 27/27/27
f 30/30/30 29/29/29 27/27/27
f 30/30/30 27/27/27 31/31/31
f 31/31/31 32/32/32 30/30/30
f 32/32/32 33/33/33 30/30/30
f 33/33/33 34/34/34 30/30/30
f 37/37/37 36/36/36 35/35/35
f 38/38/38 37/37/37 35/35/35
f 38/38/38 35/35/35 39/39/39
f 40/40/40 38/38/38 39/39/39
f 39/39/39 41/41/41 40/40/40
f 40/40/40 41/41/41 42/42/42
f 45/45/45 44/44/44 43/43/43
f 44/44/44 46/46/46 43/43/43
f 49/49/49 48/48/48 47/47/47
f 47/47/47 50/50/50 49/49/49
f 47/47/47 51/51/51 50/50/50
f 47/47/47 52/52/52 51/51/51
f 53/53/53 51/51/51 52/52/52
f 47/47/47 54/54/54 52/52/52
f 57/57/57 56/56/56 55/55/55
f 56/56/56 58/58/58 55/55/55
f 58/58/58 56/56/56 59/59/59
f 58/58/58 59/59/59 60/60/60
f 58/58/58 60/60/60 61/61/61
f 58/58/58 61/61/61 62/62/62
f 62/62/62 63/63/63 58/58/58
f 58/58/58 63/63/63 64/64/64
f 63/63/63 65/65/65 64/64/64
f 68/68/68 67/67/67 66/66/66
f 69/69/69 68/68/68 66/66/66
f 69/69/69 66/66/66 70/70/70
f 69/69/69 70/70/70 71/71/71
f 69/69/69 71/71/71 72/72/72
f 69/69/69 72/72/72 73/73/73
f 73/73/73 74/74/74 69/69/69
f 75/75/75 69/69/69 74/74/74
f 74/74/74 76/76/76 75/75/75
f 76/76/76 77/77/77 75/75/75
f 68/68/68 69/69/69 78/78/78
f 75/75/75 78/78/78 69/69/69
f 78/78/78 79/79/79 68/68/68
f 79/79/79 80/80/80 68/68/68
f 78/78/78 81/81/81 79/79/79
f 78/78/78 75/75/75 81/81/81
f 75/75/75 82/82/82 81/81/81
f 83/83/83 82/82/82 75/75/75
f 83/83/83 84/84/84 82/82/82
f 77/77/77 85/85/85 75/75/75
f 75/75/75 85/85/85 83/83/83
f 85/85/85 77/77/77 86/86/86
f 87/87/87 85/85/85 86/86/86
f 85/85/85 87/87/87 83/83/83
f 87/87/87 86/86/86 88/88/88
f 89/89/89 87/87/87 88/88/88
f 88/88/88 90/90/90 89/89/89
f 90/90/90 91/91/91 89/89/89
f 89/89/89 91/91/91 92/92/92
f 87/87/87 89/89/89 93/93/93
f 87/87/87 93/93/93 83/83/83
f 94/94/94 89/89/89 92/92/92
f 89/89/89 94/94/94 93/93/93
f 94/94/94 92/92/92 95/95/95
f 83/83/83 96/96/96 84/84/84
f 96/96/96 97/97/97 84/84/84
f 83/83/83 93/93/93 98/98/98
f 98/98/98 96/96/96 83/83/83
f 93/93/93 94/94/94 98/98/98
f 98/98/98 99/99/99 96/96/96
f 94/94/94 100/100/100 98/98/98
f 95/95/95 100/100/100 94/94/94
f 95/95/95 101/101/101 100/100/100
f 95/95/95 102/102/102 101/101/101
f 102/102/102 103/103/103 101/101/101
