g Sphere_cell.056
v 0.2068847 -0.14024305 0.44107348
v 0.24839674 -0.20884608 0.3981117
v 0.23996554 -0.21299408 0.40355375
v 0.25343558 -0.1295855 0.40523636
v 0.24839674 -0.20884608 0.3981117
v 0.2068847 -0.14024305 0.44107348
v -0.24099107 0.19642802 0.40871936
v 0.17115834 -0.10013509 0.4477485
v 0.2068847 -0.14024305 0.44107348
v 0.097250134 -0.35699555 -0.011042505
v 0.036708634 -0.39524788 0.11420034
v 0.07997725 -0.37763995 0.0626125
v 0.011171176 -0.33389565 -0.123724416
v -0.0073599657 -0.34656855 -0.08177026
v -0.048418798 -0.38769168 0.061912768
v -0.030940544 -0.3623936 -0.028651234
v 0.097250134 -0.35699555 -0.011042505
v 0.07997725 -0.37763995 0.0626125
v 0.26921192 -0.19869898 0.078062706
v 0.25393608 -0.22439025 0.2942693
v 0.009083553 -0.3075497 -0.1436107
v 0.011171176 -0.33389565 -0.123724416
v 0.097250134 -0.35699555 -0.011042505
v 0.26921192 -0.19869898 0.078062706
v 0.0028432158 -0.2305076 -0.20153812
v 0.0042378153 -0.19353698 -0.22438273
v 0.10378957 0.20140739 -0.37288764
v 0.0049160267 -0.17541313 -0.23557582
v 0.026660454 -0.011254801 -0.31939927
v 0.046016824 0.07281349 -0.3530747
v 0.06364731 0.13208625 -0.3723348
v 0.08130143 0.17848179 -0.38307303
v 0.20407437 0.14743778 -0.22292665
v 0.2787269 -0.10163832 0.025869604
v 0.25393608 -0.22439025 0.2942693
v 0.07997725 -0.37763995 0.0626125
v 0.24839674 -0.20884608 0.3981117
v 0.036708634 -0.39524788 0.11420034
v 0.23996554 -0.21299408 0.40355375
v 0.27477857 0.089170195 0.2991895
v 0.25343558 -0.1295855 0.40523636
v 0.2068847 -0.14024305 0.44107348
v 0.25065818 0.20047946 0.26874888
v 0.0051208283 0.17578527 0.441605
v 0.17115834 -0.10013509 0.4477485
v 0.25393608 -0.22439025 0.2942693
v 0.24839674 -0.20884608 0.3981117
v 0.25343558 -0.1295855 0.40523636
v 0.27477857 0.089170195 0.2991895
v 0.26921192 -0.19869898 0.078062706
v 0.2787269 -0.10163832 0.025869604
v 0.23996554 -0.21299408 0.40355375
v 0.036708634 -0.39524788 0.11420034
v 0.2068847 -0.14024305 0.44107348
v -0.048418798 -0.38769168 0.061912768
v -0.06753368 -0.35876557 0.07258626
v -0.16435573 -0.20088409 0.13569081
v -0.14703599 -0.23835371 0.116819024
v -0.24099107 0.19642802 0.40871936
v -0.18573925 -0.15457201 0.1589418
v -0.2198524 -0.06028939 0.21276326
v -0.2521474 0.13208625 0.34827507
v -0.2520325 0.1390104 0.35403207
v 0.07843212 0.19194956 -0.3796296
v 0.08130143 0.17848179 -0.38307303
v 0.10378957 0.20140739 -0.37288764
v 0.072767206 0.21807714 -0.3728687
v 0.0691388 0.3718166 -0.32815602
v 0.06176404 0.268445 -0.3597674
v 0.06400327 0.37238786 -0.32869145
v 0.060397394 0.29189798 -0.3530747
v -0.051659234 0.34885046 -0.20153812
v 0.06400327 0.37238786 -0.32869145
v 0.0691388 0.3718166 -0.32815602
v 0.17938605 0.31848833 -0.15975253
v -0.15884188 0.31232616 -0.028651234
v 0.25065818 0.20047946 0.26874888
v -0.22005768 0.26856562 0.1589418
v -0.24410804 0.21946831 0.35403207
v 0.0051208283 0.17578527 0.441605
v -0.24123086 0.20877714 0.39393547
v -0.24013455 0.20428105 0.4095622
v 0.0691388 0.3718166 -0.32815602
v 0.10378957 0.20140739 -0.37288764
v 0.20407437 0.14743778 -0.22292665
v 0.17938605 0.31848833 -0.15975253
v 0.20407437 0.14743778 -0.22292665
v 0.25065818 0.20047946 0.26874888
v 0.17938605 0.31848833 -0.15975253
v 0.2787269 -0.10163832 0.025869604
v 0.27477857 0.089170195 0.2991895
v -0.24099107 0.19642802 0.40871936
v -0.24013455 0.20428105 0.4095622
v 0.0051208283 0.17578527 0.441605
v 0.17115834 -0.10013509 0.4477485
v -0.24410804 0.21946831 0.35403207
v -0.24123086 0.20877714 0.39393547
v -0.24013455 0.20428105 0.4095622
v -0.24099107 0.19642802 0.40871936
v -0.2520325 0.1390104 0.35403207
v -0.22005768 0.26856562 0.1589418
v -0.23349972 0.13208625 0.1589418
v -0.2521474 0.13208625 0.34827507
v -0.17659399 0.13208625 -0.028651234
v -0.1588414 -0.048153646 -0.028651234
v -0.15884188 0.31232616 -0.028651234
v -0.21465327 -0.05925513 0.1589418
v -0.2198524 -0.06028939 0.21276326
v -0.18573925 -0.15457201 0.1589418
v -0.16435573 -0.20088409 0.13569081
v -0.10626736 -0.221467 -0.028651234
v -0.14703599 -0.23835371 0.116819024
v -0.06753368 -0.35876557 0.07258626
v -0.030940544 -0.3623936 -0.028651234
v -0.048418798 -0.38769168 0.061912768
v -0.0073599657 -0.34656855 -0.08177026
v 0.011171176 -0.33389565 -0.123724416
v 0.009083553 -0.3075497 -0.1436107
v 0.0028432158 -0.2305076 -0.20153812
v -0.02089153 -0.18610287 -0.20153812
v -0.068206824 -0.030125152 -0.20153812
v 0.0049160267 -0.17541313 -0.23557582
v 0.0042378153 -0.19353698 -0.22438273
v 0.026660454 -0.011254801 -0.31939927
v -0.08418409 0.13208625 -0.20153812
v 0.046016824 0.07281349 -0.3530747
v -0.0682076 0.2942979 -0.20153812
v -0.051659234 0.34885046 -0.20153812
v 0.06400327 0.37238786 -0.32869145
v 0.060397394 0.29189798 -0.3530747
v 0.040178787 0.13208625 -0.3530747
v 0.06364731 0.13208625 -0.3723348
v 0.053765662 0.27003595 -0.3530747
v 0.06176404 0.268445 -0.3597674
v 0.072767206 0.21807714 -0.3728687
v 0.07843212 0.19194956 -0.3796296
v 0.08130143 0.17848179 -0.38307303
vn 0.58589715 -0.1447985 0.79734427
vn 0.58589715 -0.1447985 0.79734427
vn 0.58589715 -0.1447985 0.79734427
vn 0.6219505 -0.10923919 0.77539945
vn 0.6219505 -0.10923919 0.77539945
vn 0.6219505 -0.10923919 0.77539945
vn -0.4397641 -0.51426244 0.73630273
vn -0.4397641 -0.51426244 0.73630273
vn -0.4397641 -0.51426244 0.73630273
vn 0.09737691 -0.9640169 -0.24736452
vn 0.09737691 -0.9640169 -0.24736452
vn 0.09737691 -0.9640169 -0.24736452
vn 0.07756215 -0.9633627 -0.25674173
vn 0.07756215 -0.9633627 -0.25674173
vn 0.07138364 -0.9641569 -0.25555015
vn 0.07138364 -0.9641569 -0.25555015
vn 0.6882647 -0.7242662 -0.041595917
vn 0.6882647 -0.7242662 -0.041595917
vn 0.6882647 -0.7242662 -0.041595917
vn 0.6881995 -0.72455305 -0.0374728
vn 0.6854065 -0.40330738 -0.60626805
vn 0.6854065 -0.40330738 -0.60626805
vn 0.6854065 -0.40330738 -0.60626805
vn 0.6854065 -0.40330738 -0.60626805
vn 0.6855622 -0.40122503 -0.60747266
vn 0.6855622 -0.40122503 -0.60747266
vn 0.6855622 -0.40122503 -0.60747266
vn 0.6846964 -0.40134424 -0.6083696
vn 0.6846964 -0.40134424 -0.6083696
vn 0.6846964 -0.40134424 -0.6083696
vn 0.6846964 -0.40134424 -0.6083696
vn 0.6846964 -0.40134424 -0.6083696
vn 0.69122285 -0.39571851 -0.6046634
vn 0.69679374 -0.39149272 -0.6010091
vn 0.53057194 -0.83369905 0.15309913
vn 0.526389 -0.8357655 0.15623897
vn 0.526389 -0.8357655 0.15623897
vn 0.526389 -0.8357655 0.15623897
vn 0.51872224 -0.83904487 0.16410616
vn 0.5275634 0.32841602 0.7834666
vn 0.5275634 0.32841602 0.7834666
vn 0.5275634 0.32841602 0.7834666
vn 0.5275634 0.32841602 0.7834666
vn 0.5163951 0.32835504 0.7908976
vn 0.5163951 0.32835504 0.7908976
vn 0.995598 -0.06899549 0.063436866
vn 0.995598 -0.06899549 0.063436866
vn 0.995598 -0.06899549 0.063436866
vn 0.9960543 -0.06536781 0.060023073
vn 0.9960543 -0.06536781 0.060023073
vn 0.9960543 -0.06536781 0.060023073
vn -0.46577725 -0.5636195 0.68219095
vn -0.46873334 -0.56139874 0.6819974
vn -0.46873334 -0.56139874 0.6819974
vn -0.46873334 -0.56139874 0.6819974
vn -0.46873334 -0.56139874 0.6819974
vn -0.46953738 -0.5605854 0.6821134
vn -0.46953738 -0.5605854 0.6821134
vn -0.47002107 -0.5596816 0.6825222
vn -0.47002107 -0.5596816 0.6825222
vn -0.47002107 -0.5596816 0.6825222
vn -0.47002107 -0.5596816 0.6825222
vn -0.47002107 -0.5596816 0.6825222
vn 0.15002054 0.27478722 -0.9497294
vn 0.15002054 0.27478722 -0.9497294
vn 0.15002054 0.27478722 -0.9497294
vn 0.14870751 0.27782613 -0.94905144
vn 0.148405 0.27954003 -0.94859546
vn 0.148405 0.27954003 -0.94859546
vn 0.148405 0.27954003 -0.94859546
vn 0.148405 0.27954003 -0.94859546
vn 0.08054287 0.96430224 0.25225762
vn 0.08054287 0.96430224 0.25225762
vn 0.08054287 0.96430224 0.25225762
vn 0.08054287 0.96430224 0.25225762
vn 0.08054287 0.96430224 0.25225762
vn 0.08054287 0.96430224 0.25225762
vn 0.08054287 0.96430224 0.25225762
vn 0.08054287 0.96430224 0.25225762
vn 0.08054287 0.96430224 0.25225762
vn 0.08054287 0.96430224 0.25225762
vn 0.076122105 0.9596315 0.27076346
vn 0.8402573 0.29065832 -0.45769572
vn 0.8402573 0.29065832 -0.45769572
vn 0.8402573 0.29065832 -0.45769572
vn 0.8402573 0.29065832 -0.45769572
vn 0.9767924 0.18243265 -0.112226985
vn 0.9767924 0.18243265 -0.112226985
vn 0.9767924 0.18243265 -0.112226985
vn 0.9770858 0.18091778 -0.1121253
vn 0.9770858 0.18091778 -0.1121253
vn -0.13725366 -0.061426736 0.98862946
vn -0.13725366 -0.061426736 0.98862946
vn -0.13725366 -0.061426736 0.98862946
vn -0.13725366 -0.061426736 0.98862946
vn -0.99506074 0.09799541 -0.015839184
vn -0.99044037 0.09753945 0.09753945
vn -0.99044037 0.09753945 0.09753945
vn -0.99044037 0.09753945 0.09753945
vn -0.99385965 0.09787526 -0.051608067
vn -0.97307837 0.0958307 -0.20960678
vn -0.9810172 0 -0.19392058
vn -0.9943931 0.03988803 -0.09793474
vn -0.9247627 0 -0.38054413
vn -0.906997 -0.18039837 -0.38054264
vn -0.9123851 0.10538438 -0.39553475
vn -0.9621686 -0.19138387 -0.19391693
vn -0.9820451 -0.16123265 -0.097935945
vn -0.9240613 -0.28028864 -0.25990176
vn -0.91611874 -0.27787533 -0.2889842
vn -0.85438013 -0.3538681 -0.38054174
vn -0.89238924 -0.3455719 -0.2902096
vn -0.84428847 -0.45129025 -0.2889881
vn -0.817336 -0.43685257 -0.37566146
vn -0.84428847 -0.45129025 -0.2889881
vn -0.77861834 -0.41616648 -0.46963698
vn -0.77861834 -0.41616648 -0.46963698
vn -0.77861834 -0.41616648 -0.46963698
vn -0.7585693 -0.40545538 -0.5100772
vn -0.76990795 -0.31889516 -0.5527638
vn -0.8173287 -0.16257457 -0.5527597
vn -0.7264536 -0.26506108 -0.63404083
vn -0.6830491 -0.36510056 -0.63257045
vn -0.7631588 -0.124242954 -0.6341548
vn -0.8333439 0 -0.5527549
vn -0.7513552 -0.073978834 -0.6557381
vn -0.8173287 0.16257457 -0.5527597
vn -0.7858155 0.2383571 -0.57068366
vn -0.7411587 0.22480443 -0.63257146
vn -0.7244333 0.21973795 -0.65338475
vn -0.71015215 0 -0.7040482
vn -0.634314 0.016358366 -0.77290237
vn -0.69651014 0.13852684 -0.70404834
vn -0.6252866 0.107825935 -0.77291024
vn -0.63315994 0.06235158 -0.7715054
vn -0.63315994 0.06235158 -0.7715054
vn -0.63315994 0.06235158 -0.7715054
g Sphere_cell.056_0
f 3/3/3 2/2/2 1/1/1
f 6/6/6 5/5/5 4/4/4
f 9/9/9 8/8/8 7/7/7
f 12/12/12 11/11/11 10/10/10
f 10/10/10 11/11/11 13/13/13
f 11/11/11 14/14/14 13/13/13
f 11/11/11 15/15/15 14/14/14
f 15/15/15 16/16/16 14/14/14
f 19/19/19 18/18/18 17/17/17
f 20/20/20 18/18/18 19/19/19
f 23/23/23 22/22/22 21/21/21
f 24/24/24 23/23/23 21/21/21
f 24/24/24 21/21/21 25/25/25
f 25/25/25 26/26/26 24/24/24
f 26/26/26 27/27/27 24/24/24
f 27/27/27 26/26/26 28/28/28
f 28/28/28 29/29/29 27/27/27
f 29/29/29 30/30/30 27/27/27
f 30/30/30 31/31/31 27/27/27
f 31/31/31 32/32/32 27/27/27
f 33/33/33 24/24/24 27/27/27
f 34/34/34 24/24/24 33/33/33
f 37/37/37 36/36/36 35/35/35
f 37/37/37 38/38/38 36/36/36
f 39/39/39 38/38/38 37/37/37
f 42/42/42 41/41/41 40/40/40
f 43/43/43 42/42/42 40/40/40
f 44/44/44 42/42/42 43/43/43
f 45/45/45 42/42/42 44/44/44
f 48/48/48 47/47/47 46/46/46
f 48/48/48 46/46/46 49/49/49
f 46/46/46 50/50/50 49/49/49
f 49/49/49 50/50/50 51/51/51
f 54/54/54 53/53/53 52/52/52
f 53/53/53 54/54/54 55/55/55
f 54/54/54 56/56/56 55/55/55
f 54/54/54 57/57/57 56/56/56
f 57/57/57 58/58/58 56/56/56
f 57/57/57 54/54/54 59/59/59
f 59/59/59 60/60/60 57/57/57
f 59/59/59 61/61/61 60/60/60
f 59/59/59 62/62/62 61/61/61
f 59/59/59 63/63/63 62/62/62
f 66/66/66 65/65/65 64/64/64
f 66/66/66 64/64/64 67/67/67
f 68/68/68 66/66/66 67/67/67
f 67/67/67 69/69/69 68/68/68
f 69/69/69 70/70/70 68/68/68
f 69/69/69 71/71/71 70/70/70
f 74/74/74 73/73/73 72/72/72
f 72/72/72 75/75/75 74/74/74
f 72/72/72 76/76/76 75/75/75
f 76/76/76 77/77/77 75/75/75
f 76/76/76 78/78/78 77/77/77
f 78/78/78 79/79/79 77/77/77
f 79/79/79 80/80/80 77/77/77
f 79/79/79 81/81/81 80/80/80
f 80/80/80 81/81/81 82/82/82
f 85/85/85 84/84/84 83/83/83
f 86/86/86 85/85/85 83/83/83
f 89/89/89 88/88/88 87/87/87
f 90/90/90 87/87/87 88/88/88
f 91/91/91 90/90/90 88/88/88
f 94/94/94 93/93/93 92/92/92
f 95/95/95 94/94/94 92/92/92
f 98/98/98 97/97/97 96/96/96
f 99/99/99 98/98/98 96/96/96
f 96/96/96 100/100/100 99/99/99
f 100/100/100 96/96/96 101/101/101
f 100/100/100 101/101/101 102/102/102
f 102/102/102 103/103/103 100/100/100
f 102/102/102 101/101/101 104/104/104
f 102/102/102 104/104/104 105/105/105
f 101/101/101 106/106/106 104/104/104
f 102/102/102 107/107/107 103/103/103
f 107/107/107 102/102/102 105/105/105
f 107/107/107 108/108/108 103/103/103
f 107/107/107 109/109/109 108/108/108
f 109/109/109 107/107/107 105/105/105
f 110/110/110 109/109/109 105/105/105
f 110/110/110 105/105/105 111/111/111
f 111/111/111 112/112/112 110/110/110
f 113/113/113 112/112/112 111/111/111
f 113/113/113 111/111/111 114/114/114
f 114/114/114 115/115/115 113/113/113
f 116/116/116 114/114/114 111/111/111
f 111/111/111 117/117/117 116/116/116
f 111/111/111 118/118/118 117/117/117
f 111/111/111 119/119/119 118/118/118
f 111/111/111 105/105/105 120/120/120
f 111/111/111 120/120/120 119/119/119
f 105/105/105 121/121/121 120/120/120
f 105/105/105 104/104/104 121/121/121
f 120/120/120 122/122/122 119/119/119
f 120/120/120 121/121/121 122/122/122
f 122/122/122 123/123/123 119/119/119
f 121/121/121 124/124/124 122/122/122
f 104/104/104 125/125/125 121/121/121
f 124/124/124 121/121/121 125/125/125
f 104/104/104 106/106/106 125/125/125
f 125/125/125 126/126/126 124/124/124
f 106/106/106 127/127/127 125/125/125
f 106/106/106 128/128/128 127/127/127
f 127/127/127 128/128/128 129/129/129
f 127/127/127 129/129/129 130/130/130
f 125/125/125 131/131/131 126/126/126
f 125/125/125 127/127/127 131/131/131
f 131/131/131 132/132/132 126/126/126
f 130/130/130 133/133/133 127/127/127
f 127/127/127 133/133/133 131/131/131
f 133/133/133 130/130/130 134/134/134
f 131/131/131 133/133/133 134/134/134
f 132/132/132 131/131/131 134/134/134
f 132/132/132 134/134/134 135/135/135
f 132/132/132 135/135/135 136/136/136
f 136/136/136 137/137/137 132/132/132
