g Sphere_cell.023_cell.004
v 0.14809735 -0.19834036 0.12583423
v 0.12527068 -0.18962044 0.14336313
v 0.13203909 -0.16426297 0.15199886
v 0.007919333 0.2468028 0.12308501
v -0.002637714 0.28798127 0.11096832
v 0.022591894 0.2890637 -0.008507217
v 0.01621673 0.21446466 0.13256878
v 0.09501054 0.1015873 -0.06711646
v 0.038007934 0.1287129 0.15779819
v 0.12009554 0.036421794 -0.0875664
v 0.11159506 -0.100325786 0.15330638
v 0.15977035 -0.16065498 0.01878178
v 0.14809735 -0.19834036 0.12583423
v 0.13203909 -0.16426297 0.15199886
v 0.022591894 0.2890637 -0.008507217
v -0.002637714 0.28798127 0.11096832
v -0.010574258 0.2804978 0.1169838
v -0.0401651 0.25256753 0.13928536
v -0.040279154 0.19447947 -0.11644636
v -0.22863364 0.008328459 -0.011157955
v -0.20760217 0.0056410055 -0.12608263
v -0.19718298 0.007432244 -0.16842566
v -0.20324755 0.0050456743 -0.14957002
v -0.050390504 0.17915799 -0.13387363
v 0.1370296 -0.19984001 0.01262627
v 0.15977035 -0.16065498 0.01878178
v 0.12009554 0.036421794 -0.0875664
v 0.052157864 -0.16506858 -0.07549421
v 0.08624445 0.032887 -0.116436034
v -0.0054682414 -0.12704511 -0.14046992
v 0.1370296 -0.19984001 0.01262627
v 0.1379356 -0.20348424 0.04552024
v 0.14809735 -0.19834036 0.12583423
v 0.15977035 -0.16065498 0.01878178
v 0.01621673 0.21446466 0.13256878
v 0.038007934 0.1287129 0.15779819
v -0.0401651 0.25256753 0.13928536
v 0.007919333 0.2468028 0.12308501
v -0.010574258 0.2804978 0.1169838
v -0.002637714 0.28798127 0.11096832
v -0.20760217 0.0056410055 -0.12608263
v -0.22863364 0.008328459 -0.011157955
v -0.12433665 -0.08224341 0.028096668
v -0.20324755 0.0050456743 -0.14957002
v -0.11461481 -0.06769368 -0.14957002
v -0.11337861 -0.06584355 -0.15690519
v -0.19718298 0.007432244 -0.16842566
v -0.06492765 -0.09425207 -0.14957002
v -0.0054682414 -0.12704511 -0.14046992
v 0.052157864 -0.16506858 -0.07549421
v 0.04759665 -0.17608018 0.04552024
v -0.084013194 -0.10573336 0.04552024
v 0.04987374 -0.17058273 0.10593419
v 0.1379356 -0.20348424 0.04552024
v 0.1370296 -0.19984001 0.01262627
v 0.14809735 -0.19834036 0.12583423
v 0.12527068 -0.18962044 0.14336313
v 0.11159506 -0.100325786 0.15330638
v 0.13203909 -0.16426297 0.15199886
v 0.12527068 -0.18962044 0.14336313
v 0.04987374 -0.17058273 0.10593419
v 0.038007934 0.1287129 0.15779819
v -0.084013194 -0.10573336 0.04552024
v -0.0401651 0.25256753 0.13928536
v -0.22863364 0.008328459 -0.011157955
v -0.12433665 -0.08224341 0.028096668
v 0.08624445 0.032887 -0.116436034
v 0.12009554 0.036421794 -0.0875664
v 0.09501054 0.1015873 -0.06711646
v 0.022591894 0.2890637 -0.008507217
v -0.050390504 0.17915799 -0.13387363
v -0.040279154 0.19447947 -0.11644636
v -0.0054682414 -0.12704511 -0.14046992
v 0.08624445 0.032887 -0.116436034
v -0.050390504 0.17915799 -0.13387363
v -0.06492765 -0.09425207 -0.14957002
v -0.19718298 0.007432244 -0.16842566
v -0.11337861 -0.06584355 -0.15690519
vn 0.46045616 -0.39383176 0.79553545
vn 0.46045616 -0.39383176 0.79553545
vn 0.46045616 -0.39383176 0.79553545
vn 0.9333922 0.29808876 0.19980472
vn 0.9333922 0.29808876 0.19980472
vn 0.9333922 0.29808876 0.19980472
vn 0.9333922 0.29808876 0.19980472
vn 0.9333922 0.29808876 0.19980472
vn 0.93378156 0.29582205 0.20134863
vn 0.93378156 0.29582205 0.20134863
vn 0.93378156 0.29582205 0.20134863
vn 0.93378156 0.29582205 0.20134863
vn 0.93378156 0.29582205 0.20134863
vn 0.93630266 0.2955039 0.18977565
vn -0.7361026 0.660102 -0.14972763
vn -0.7361026 0.660102 -0.14972763
vn -0.7361026 0.660102 -0.14972763
vn -0.7361026 0.660102 -0.14972763
vn -0.7361026 0.660102 -0.14972763
vn -0.7361026 0.660102 -0.14972763
vn -0.7361026 0.660102 -0.14972763
vn -0.7357387 0.65972644 -0.15313232
vn -0.7357387 0.65972644 -0.15313232
vn -0.7357387 0.65972644 -0.15313232
vn 0.64222395 -0.25974202 -0.72116745
vn 0.64222395 -0.25974202 -0.72116745
vn 0.64222395 -0.25974202 -0.72116745
vn 0.64222395 -0.25974202 -0.72116745
vn 0.64222395 -0.25974202 -0.72116745
vn 0.64222395 -0.25974202 -0.72116745
vn 0.86753833 -0.49116707 -0.078308254
vn 0.86753833 -0.49116707 -0.078308254
vn 0.86753833 -0.49116707 -0.078308254
vn 0.86753833 -0.49116707 -0.078308254
vn 0.33657756 0.34349006 0.8767725
vn 0.33657756 0.34349006 0.8767725
vn 0.33657756 0.34349006 0.8767725
vn 0.33657756 0.34349006 0.8767725
vn 0.33657756 0.34349006 0.8767725
vn 0.33878896 0.3444807 0.8755313
vn -0.63137424 -0.7693196 -0.09753829
vn -0.63137424 -0.7693196 -0.09753829
vn -0.53658205 -0.83813864 -0.09799597
vn -0.62350774 -0.7597456 -0.1844582
vn -0.54501534 -0.8156919 -0.19392024
vn -0.53765124 -0.7916295 -0.29026514
vn -0.60732937 -0.74002624 -0.288985
vn -0.4687432 -0.876967 -0.10587084
vn -0.46913624 -0.877723 -0.097538345
vn -0.42431414 -0.90020645 -0.09790692
vn -0.38268155 -0.92388034 0
vn -0.4701086 -0.8795157 -0.0738245
vn -0.3571684 -0.9288882 0.097967245
vn -0.290269 -0.9569325 0.004913606
vn -0.28889388 -0.95237935 -0.097539075
vn -0.28889388 -0.95237935 0.097539075
vn -0.28889388 -0.95237935 0.097539075
vn -0.47211772 -0.16865423 0.8652518
vn -0.47211772 -0.16865423 0.8652518
vn -0.47211772 -0.16865423 0.8652518
vn -0.47211772 -0.16865423 0.8652518
vn -0.47211772 -0.16865423 0.8652518
vn -0.47211772 -0.16865423 0.8652518
vn -0.47211772 -0.16865423 0.8652518
vn -0.47211772 -0.16865423 0.8652518
vn -0.47211772 -0.16865423 0.8652518
vn 0.55713063 0.43615714 -0.7066629
vn 0.55713063 0.43615714 -0.7066629
vn 0.55713063 0.43615714 -0.7066629
vn 0.55713063 0.43615714 -0.7066629
vn 0.55713063 0.43615714 -0.7066629
vn 0.55713063 0.43615714 -0.7066629
vn 0.17615117 0.047035124 -0.9832388
vn 0.17615117 0.047035124 -0.9832388
vn 0.17615117 0.047035124 -0.9832388
vn 0.17615117 0.047035124 -0.9832388
vn 0.17615117 0.047035124 -0.9832388
vn 0.17615117 0.047035124 -0.9832388
g Sphere_cell.023_cell.004_0
f 3/3/3 2/2/2 1/1/1
f 6/6/6 5/5/5 4/4/4
f 6/6/6 4/4/4 7/7/7
f 7/7/7 8/8/8 6/6/6
f 8/8/8 7/7/7 9/9/9
f 10/10/10 8/8/8 9/9/9
f 10/10/10 9/9/9 11/11/11
f 12/12/12 10/10/10 11/11/11
f 11/11/11 13/13/13 12/12/12
f 13/13/13 11/11/11 14/14/14
f 17/17/17 16/16/16 15/15/15
f 18/18/18 17/17/17 15/15/15
f 18/18/18 15/15/15 19/19/19
f 20/20/20 18/18/18 19/19/19
f 19/19/19 21/21/21 20/20/20
f 21/21/21 19/19/19 22/22/22
f 22/22/22 23/23/23 21/21/21
f 19/19/19 24/24/24 22/22/22
f 27/27/27 26/26/26 25/25/25
f 25/25/25 28/28/28 27/27/27
f 28/28/28 29/29/29 27/27/27
f 28/28/28 30/30/30 29/29/29
f 33/33/33 32/32/32 31/31/31
f 34/34/34 33/33/33 31/31/31
f 37/37/37 36/36/36 35/35/35
f 35/35/35 38/38/38 37/37/37
f 38/38/38 39/39/39 37/37/37
f 38/38/38 40/40/40 39/39/39
f 43/43/43 42/42/42 41/41/41
f 43/43/43 41/41/41 44/44/44
f 44/44/44 45/45/45 43/43/43
f 45/45/45 44/44/44 46/46/46
f 44/44/44 47/47/47 46/46/46
f 45/45/45 46/46/46 48/48/48
f 45/45/45 48/48/48 49/49/49
f 49/49/49 43/43/43 45/45/45
f 49/49/49 50/50/50 43/43/43
f 50/50/50 51/51/51 43/43/43
f 51/51/51 52/52/52 43/43/43
f 51/51/51 53/53/53 52/52/52
f 51/51/51 50/50/50 54/54/54
f 50/50/50 55/55/55 54/54/54
f 51/51/51 54/54/54 56/56/56
f 56/56/56 53/53/53 51/51/51
f 56/56/56 57/57/57 53/53/53
f 60/60/60 59/59/59 58/58/58
f 58/58/58 61/61/61 60/60/60
f 58/58/58 62/62/62 61/61/61
f 62/62/62 63/63/63 61/61/61
f 62/62/62 64/64/64 63/63/63
f 64/64/64 65/65/65 63/63/63
f 65/65/65 66/66/66 63/63/63
f 69/69/69 68/68/68 67/67/67
f 67/67/67 70/70/70 69/69/69
f 67/67/67 71/71/71 70/70/70
f 71/71/71 72/72/72 70/70/70
f 75/75/75 74/74/74 73/73/73
f 73/73/73 76/76/76 75/75/75
f 76/76/76 77/77/77 75/75/75
f 76/76/76 78/78/78 77/77/77
