g Sphere_cell.085_cell.004
v 0.0117225405 -0.0761764 -0.013828
v 0.04325298 -0.060140364 -0.012472859
v 0.017252361 -0.0050516124 -0.04747857
v -0.0634789 0.1045842 0.03666014
v 0.021692788 0.022893665 -0.024872143
v 0.049950033 -0.034050222 0.0029230488
v 0.04393998 0.0014173983 -0.040962864
v 0.062106878 -0.040119406 -0.015082141
v 0.03643206 0.008689403 -0.03557225
v 0.027641151 0.017176865 -0.029215861
v -0.0634789 0.1045842 0.03666014
v 0.049950033 -0.034050222 0.0029230488
v 0.044823203 -0.068025105 0.0019910408
v 0.03768668 -0.072629206 0.0033000181
v -0.0033253054 -0.09882663 0.010838396
v -0.053787187 -0.0065984717 0.027712617
v -0.089510754 0.11402081 0.043036375
v -0.113453515 0.1226003 0.048820943
v -0.12696017 0.12739323 0.052081615
v 0.05401489 -0.057158463 -0.007879517
v 0.044823203 -0.068025105 0.0019910408
v 0.049950033 -0.034050222 0.0029230488
v 0.062106878 -0.040119406 -0.015082141
v 0.03768668 -0.072629206 0.0033000181
v 0.044823203 -0.068025105 0.0019910408
v 0.05401489 -0.057158463 -0.007879517
v 0.04325298 -0.060140364 -0.012472859
v 0.0117225405 -0.0761764 -0.013828
v -0.0033253054 -0.09882663 0.010838396
v 0.04393998 0.0014173983 -0.040962864
v 0.03643206 0.008689403 -0.03557225
v 0.017252361 -0.0050516124 -0.04747857
v 0.027641151 0.017176865 -0.029215861
v 0.021692788 0.022893665 -0.024872143
v -0.0634789 0.1045842 0.03666014
v -0.12696017 0.12739323 0.052081615
v -0.089510754 0.11402081 0.043036375
v -0.113453515 0.1226003 0.048820943
v -0.053787187 -0.0065984717 0.027712617
v -0.0033253054 -0.09882663 0.010838396
v 0.0117225405 -0.0761764 -0.013828
v 0.017252361 -0.0050516124 -0.04747857
v -0.12696017 0.12739323 0.052081615
v 0.05401489 -0.057158463 -0.007879517
v 0.062106878 -0.040119406 -0.015082141
v 0.04393998 0.0014173983 -0.040962864
v 0.04325298 -0.060140364 -0.012472859
v 0.017252361 -0.0050516124 -0.04747857
vn 0.2557235 -0.42962402 -0.86604196
vn 0.2557235 -0.42962402 -0.86604196
vn 0.2557235 -0.42962402 -0.86604196
vn 0.767109 0.54547197 0.33764502
vn 0.767109 0.54547197 0.33764502
vn 0.767109 0.54547197 0.33764502
vn 0.7685303 0.54498273 0.33519387
vn 0.7685303 0.54498273 0.33519387
vn 0.7685303 0.54498273 0.33519387
vn 0.7685303 0.54498273 0.33519387
vn 0.21709056 -0.059487052 0.9743372
vn 0.21709056 -0.059487052 0.9743372
vn 0.21709056 -0.059487052 0.9743372
vn 0.21709056 -0.059487052 0.9743372
vn 0.21709056 -0.059487052 0.9743372
vn 0.21709056 -0.059487052 0.9743372
vn 0.21709056 -0.059487052 0.9743372
vn 0.21388027 -0.06051772 0.9749835
vn 0.21388027 -0.06051772 0.9749835
vn 0.7953343 -0.13621973 0.590667
vn 0.7953343 -0.13621973 0.590667
vn 0.7953343 -0.13621973 0.590667
vn 0.80012506 -0.13271283 0.5849676
vn 0.415614 -0.7795586 -0.4685653
vn 0.41616648 -0.77861834 -0.46963698
vn 0.41616648 -0.77861834 -0.46963698
vn 0.41616648 -0.77861834 -0.46963698
vn 0.4146313 -0.7811646 -0.46675774
vn 0.41402754 -0.78215367 -0.46563596
vn 0.040335737 0.6215664 -0.7823223
vn 0.040335737 0.6215664 -0.7823223
vn 0.040335737 0.6215664 -0.7823223
vn 0.037746407 0.6237707 -0.7806953
vn 0.035147388 0.62457883 -0.7801705
vn 0.035147388 0.62457883 -0.7801705
vn 0.035147388 0.62457883 -0.7801705
vn 0.035147388 0.62457883 -0.7801705
vn 0.035147388 0.62457883 -0.7801705
vn -0.6990766 -0.26067045 -0.6658399
vn -0.6990766 -0.26067045 -0.6658399
vn -0.6990766 -0.26067045 -0.6658399
vn -0.6990766 -0.26067045 -0.6658399
vn -0.6990766 -0.26067045 -0.6658399
vn 0.3177928 -0.4106511 -0.85461885
vn 0.3177928 -0.4106511 -0.85461885
vn 0.3177928 -0.4106511 -0.85461885
vn 0.3177928 -0.4106511 -0.85461885
vn 0.3177928 -0.4106511 -0.85461885
g Sphere_cell.085_cell.004_0
f 3/3/3 2/2/2 1/1/1
f 6/6/6 5/5/5 4/4/4
f 7/7/7 5/5/5 6/6/6
f 6/6/6 8/8/8 7/7/7
f 7/7/7 9/9/9 5/5/5
f 9/9/9 10/10/10 5/5/5
f 13/13/13 12/12/12 11/11/11
f 11/11/11 14/14/14 13/13/13
f 11/11/11 15/15/15 14/14/14
f 11/11/11 16/16/16 15/15/15
f 11/11/11 17/17/17 16/16/16
f 16/16/16 17/17/17 18/18/18
f 19/19/19 16/16/16 18/18/18
f 22/22/22 21/21/21 20/20/20
f 22/22/22 20/20/20 23/23/23
f 26/26/26 25/25/25 24/24/24
f 27/27/27 26/26/26 24/24/24
f 24/24/24 28/28/28 27/27/27
f 28/28/28 24/24/24 29/29/29
f 32/32/32 31/31/31 30/30/30
f 32/32/32 33/33/33 31/31/31
f 34/34/34 33/33/33 32/32/32
f 32/32/32 35/35/35 34/34/34
f 32/32/32 36/36/36 35/35/35
f 36/36/36 37/37/37 35/35/35
f 36/36/36 38/38/38 37/37/37
f 41/41/41 40/40/40 39/39/39
f 39/39/39 42/42/42 41/41/41
f 39/39/39 43/43/43 42/42/42
f 46/46/46 45/45/45 44/44/44
f 44/44/44 47/47/47 46/46/46
f 47/47/47 48/48/48 46/46/46
