g Sphere_cell.085_cell.005_cell.010
v 0.01610273 0.010547197 0.04473579
v -0.0640667 0.07128933 0.011889594
v 0.038394865 0.03060082 0.012587743
v 0.01611775 0.0066511994 0.040541187
v 0.01610273 0.010547197 0.04473579
v 0.038394865 0.03060082 0.012587743
v 0.015684722 -0.100274034 -0.07562079
v 0.01611775 0.0066511994 0.040541187
v 0.015684722 -0.100274034 -0.07562079
v -0.022233365 -0.018814525 -0.03413353
v -0.0640667 0.07128933 0.011889594
v 0.01610273 0.010547197 0.04473579
v 0.038394865 0.03060082 0.012587743
v -0.0640667 0.07128933 0.011889594
v -0.022233365 -0.018814525 -0.03413353
v 0.015684722 -0.100274034 -0.07562079
vn 0.2797385 0.7154213 0.640249
vn 0.2797385 0.7154213 0.640249
vn 0.2797385 0.7154213 0.640249
vn 0.85414296 -0.37950614 0.35554868
vn 0.85414296 -0.37950614 0.35554868
vn 0.85414296 -0.37950614 0.35554868
vn 0.8537841 -0.3846354 0.350868
vn -0.6406898 -0.5637195 0.5212838
vn -0.6406898 -0.5637195 0.5212838
vn -0.6406898 -0.5637195 0.5212838
vn -0.6406898 -0.5637195 0.5212838
vn -0.6406898 -0.5637195 0.5212838
vn 0.21279664 0.52065986 -0.8268197
vn 0.21279664 0.52065986 -0.8268197
vn 0.21279664 0.52065986 -0.8268197
vn 0.21279664 0.52065986 -0.8268197
g Sphere_cell.085_cell.005_cell.010_0
f 3/3/3 2/2/2 1/1/1
f 6/6/6 5/5/5 4/4/4
f 6/6/6 4/4/4 7/7/7
f 10/10/10 9/9/9 8/8/8
f 8/8/8 11/11/11 10/10/10
f 8/8/8 12/12/12 11/11/11
f 15/15/15 14/14/14 13/13/13
f 16/16/16 15/15/15 13/13/13
