g Sphere_cell.028_cell.004
v -0.047886178 -0.072603494 -0.030586917
v 0.001611538 0.02292343 0.041032795
v -0.018879106 -0.10818913 0.006184942
v -0.018220594 -0.07150915 -0.050481215
v 0.013671821 -0.07485011 -0.06493972
v 0.018248385 -0.04300836 -0.048828557
v -0.013354352 0.061972097 0.022982156
v -0.04768519 -0.068439275 -0.03707691
v 0.032639805 0.065142825 0.006555385
v 0.03303534 0.060365632 0.0037006508
v -0.013354352 0.061972097 0.022982156
v 0.032639805 0.065142825 0.006555385
v 0.02443618 0.062076285 0.0213382
v 0.013884729 0.057112172 0.037610892
v 0.0020830107 0.05543585 0.04339156
v 0.006414718 0.05357118 0.04911679
v 0.001611538 0.02292343 0.041032795
v -0.047886178 -0.072603494 -0.030586917
v -0.04768519 -0.068439275 -0.03707691
v -0.013354352 0.061972097 0.022982156
v 0.006414718 0.05357118 0.04911679
v 0.0020830107 0.05543585 0.04339156
v -0.018879106 -0.10818913 0.006184942
v 0.013671821 -0.07485011 -0.06493972
v -0.018220594 -0.07150915 -0.050481215
v -0.04768519 -0.068439275 -0.03707691
v -0.047886178 -0.072603494 -0.030586917
v 0.03303534 0.060365632 0.0037006508
v 0.018248385 -0.04300836 -0.048828557
v 0.013671821 -0.07485011 -0.06493972
v -0.018879106 -0.10818913 0.006184942
v 0.001611538 0.02292343 0.041032795
v 0.006414718 0.05357118 0.04911679
v 0.013884729 0.057112172 0.037610892
v 0.02443618 0.062076285 0.0213382
v 0.032639805 0.065142825 0.006555385
vn -0.8004015 -0.033983834 0.5985002
vn -0.8004015 -0.033983834 0.5985002
vn -0.8004015 -0.033983834 0.5985002
vn -0.325066 0.46373847 -0.82418376
vn -0.325066 0.46373847 -0.82418376
vn -0.325066 0.46373847 -0.82418376
vn -0.32603157 0.46491286 -0.8231401
vn -0.32603157 0.46491286 -0.8231401
vn -0.32603157 0.46491286 -0.8231401
vn -0.32603157 0.46491286 -0.8231401
vn 0.008862633 0.9642504 0.26484454
vn 0.008862633 0.9642504 0.26484454
vn 0.008862633 0.9642504 0.26484454
vn 0.008862633 0.9642504 0.26484454
vn 0.008862633 0.9642504 0.26484454
vn 0.012166227 0.9534439 0.3013253
vn -0.8437845 0.002885278 0.53667426
vn -0.8437845 0.002885278 0.53667426
vn -0.8437845 0.002885278 0.53667426
vn -0.8437845 0.002885278 0.53667426
vn -0.8437845 0.002885278 0.53667426
vn -0.8437845 0.002885278 0.53667426
vn -0.31798416 -0.79417616 -0.51785165
vn -0.31798416 -0.79417616 -0.51785165
vn -0.31798416 -0.79417616 -0.51785165
vn -0.31798416 -0.79417616 -0.51785165
vn -0.31798416 -0.79417616 -0.51785165
vn 0.8715302 -0.24058102 0.42726558
vn 0.91611874 -0.27787533 0.2889842
vn 0.91611874 -0.27787533 0.2889842
vn 0.9038842 -0.27400047 0.32850757
vn 0.8501404 -0.25709298 0.4595263
vn 0.8501404 -0.25709298 0.4595263
vn 0.8501404 -0.25709298 0.4595263
vn 0.852453 -0.251506 0.45833236
vn 0.87433547 -0.19355074 0.4450569
g Sphere_cell.028_cell.004_0
f 3/3/3 2/2/2 1/1/1
f 6/6/6 5/5/5 4/4/4
f 6/6/6 4/4/4 7/7/7
f 4/4/4 8/8/8 7/7/7
f 6/6/6 7/7/7 9/9/9
f 9/9/9 10/10/10 6/6/6
f 13/13/13 12/12/12 11/11/11
f 11/11/11 14/14/14 13/13/13
f 11/11/11 15/15/15 14/14/14
f 15/15/15 16/16/16 14/14/14
f 19/19/19 18/18/18 17/17/17
f 17/17/17 20/20/20 19/19/19
f 17/17/17 21/21/21 20/20/20
f 21/21/21 22/22/22 20/20/20
f 25/25/25 24/24/24 23/23/23
f 23/23/23 26/26/26 25/25/25
f 23/23/23 27/27/27 26/26/26
f 30/30/30 29/29/29 28/28/28
f 31/31/31 30/30/30 28/28/28
f 32/32/32 31/31/31 28/28/28
f 28/28/28 33/33/33 32/32/32
f 28/28/28 34/34/34 33/33/33
f 28/28/28 35/35/35 34/34/34
f 28/28/28 36/36/36 35/35/35
