g Sphere_cell.085_cell.005_cell.003
v -0.11884247 -0.02010071 -0.17453943
v -0.11949073 -0.0012253522 -0.17319904
v -0.14361094 -0.024446841 -0.15866543
v -0.1283351 0.04715263 0.1191534
v -0.19626638 -0.06919681 -0.090170845
v -0.14361094 -0.024446841 -0.15866543
v -0.013664423 0.15743409 0.035130117
v -0.11949073 -0.0012253522 -0.17319904
v -0.11212157 0.0649563 0.118500434
v -0.098612174 0.079775445 0.11787888
v -0.08423328 0.04272973 -0.14646469
v 0.0025309918 0.17183791 0.019677019
v -0.003135025 0.16679989 0.025090072
v -0.10740434 -0.032388326 -0.16833712
v -0.11884247 -0.02010071 -0.17453943
v -0.14361094 -0.024446841 -0.15866543
v -0.19626638 -0.06919681 -0.090170845
v -0.05689483 -0.08583128 -0.14087237
v -0.024169143 -0.21270666 -0.033887643
v 0.02871519 -0.18838534 -0.08274318
v 0.03549939 -0.18378316 -0.090443626
v 0.0025309918 0.17183791 0.019677019
v -0.08423328 0.04272973 -0.14646469
v 0.059668474 0.13811623 -0.045168895
v 0.114445135 0.1744629 -0.006555072
v 0.09779458 0.17407237 -0.0026521904
v 0.1274622 -0.037114736 -0.017709216
v 0.1717029 0.1213287 0.02539483
v 0.114445135 0.1744629 -0.006555072
v 0.03549939 -0.18378316 -0.090443626
v 0.059668474 0.13811623 -0.045168895
v -0.05689483 -0.08583128 -0.14087237
v -0.08423328 0.04272973 -0.14646469
v -0.10740434 -0.032388326 -0.16833712
v -0.11949073 -0.0012253522 -0.17319904
v -0.11884247 -0.02010071 -0.17453943
v 0.16798882 0.093840465 0.04908648
v 0.114445135 0.1744629 -0.006555072
v 0.1717029 0.1213287 0.02539483
v 0.09779458 0.17407237 -0.0026521904
v 0.06850081 0.009043097 0.13888519
v 0.0025309918 0.17183791 0.019677019
v -0.04565173 0.028884288 0.14908682
v -0.003135025 0.16679989 0.025090072
v -0.098612174 0.079775445 0.11787888
v -0.013664423 0.15743409 0.035130117
v 0.1717029 0.1213287 0.02539483
v 0.1274622 -0.037114736 -0.017709216
v 0.12953715 -0.031740066 -0.011728099
v 0.14560167 0.017975925 0.01897291
v 0.16798882 0.093840465 0.04908648
v 0.02871519 -0.18838534 -0.08274318
v -0.024169143 -0.21270666 -0.033887643
v -0.009737431 -0.18021928 0.01897291
v 0.006897389 -0.16656743 0.01897291
v 0.03549939 -0.18378316 -0.090443626
v -0.005706131 -0.15396391 0.05231926
v 0.12179367 -0.026565906 0.01897291
v 0.1274622 -0.037114736 -0.017709216
v -0.0028408167 -0.08481418 0.13062368
v 0.12953715 -0.031740066 -0.011728099
v 0.06328922 0.0022372005 0.13834189
v 0.14560167 0.017975925 0.01897291
v 0.06850081 0.009043097 0.13888519
v 0.16798882 0.093840465 0.04908648
v -0.04565173 0.028884288 0.14908682
v 0.06850081 0.009043097 0.13888519
v 0.06328922 0.0022372005 0.13834189
v -0.07071119 0.008402704 0.14807664
v -0.0028408167 -0.08481418 0.13062368
v -0.11212157 0.0649563 0.118500434
v -0.098612174 0.079775445 0.11787888
v -0.04565173 0.028884288 0.14908682
v -0.07071119 0.008402704 0.14807664
v -0.1283351 0.04715263 0.1191534
v -0.009737431 -0.18021928 0.01897291
v -0.024169143 -0.21270666 -0.033887643
v -0.19626638 -0.06919681 -0.090170845
v -0.005706131 -0.15396391 0.05231926
v -0.0028408167 -0.08481418 0.13062368
v -0.07071119 0.008402704 0.14807664
v -0.1283351 0.04715263 0.1191534
vn -0.5442054 0.040815305 -0.8379586
vn -0.5442054 0.040815305 -0.8379586
vn -0.5442054 0.040815305 -0.8379586
vn -0.73537457 0.66489375 -0.1309221
vn -0.73537457 0.66489375 -0.1309221
vn -0.73537457 0.66489375 -0.1309221
vn -0.73537457 0.66489375 -0.1309221
vn -0.7291702 0.6699039 -0.13978432
vn -0.73537457 0.66489375 -0.1309221
vn -0.73537457 0.66489375 -0.1309221
vn -0.7291702 0.6699039 -0.13978432
vn -0.7291702 0.6699039 -0.13978432
vn -0.7291702 0.6699039 -0.13978432
vn -0.32594818 -0.64994824 -0.6865312
vn -0.32594818 -0.64994824 -0.6865312
vn -0.32594818 -0.64994824 -0.6865312
vn -0.32571304 -0.6571733 -0.67973095
vn -0.32571304 -0.6571733 -0.67973095
vn -0.32571304 -0.6571733 -0.67973095
vn -0.32571304 -0.6571733 -0.67973095
vn -0.32571304 -0.6571733 -0.67973095
vn -0.1496709 0.8170669 -0.55677664
vn -0.1496709 0.8170669 -0.55677664
vn -0.1496709 0.8170669 -0.55677664
vn -0.1496709 0.8170669 -0.55677664
vn -0.1496709 0.8170669 -0.55677664
vn 0.53961945 0.07739593 -0.83834404
vn 0.53961945 0.07739593 -0.83834404
vn 0.53961945 0.07739593 -0.83834404
vn 0.53961945 0.07739593 -0.83834404
vn 0.53961945 0.07739593 -0.83834404
vn 0.53961945 0.07739593 -0.83834404
vn 0.538735 0.07807231 -0.83884996
vn 0.538735 0.07807231 -0.83884996
vn 0.538735 0.07807231 -0.83884996
vn 0.538735 0.07807231 -0.83884996
vn 0.16290006 0.63141704 0.75813985
vn 0.16290006 0.63141704 0.75813985
vn 0.16290006 0.63141704 0.75813985
vn 0.16290006 0.63141704 0.75813985
vn 0.16589813 0.62662727 0.76145655
vn 0.16589813 0.62662727 0.76145655
vn 0.16589813 0.62662727 0.76145655
vn 0.16589813 0.62662727 0.76145655
vn 0.16064364 0.6320565 0.7580885
vn 0.16064364 0.6320565 0.7580885
vn 0.9640359 -0.2358504 -0.12251247
vn 0.9640359 -0.2358504 -0.12251247
vn 0.9640359 -0.2358504 -0.12251247
vn 0.9640359 -0.2358504 -0.12251247
vn 0.9640359 -0.2358504 -0.12251247
vn 0.70840657 -0.64349264 0.28996083
vn 0.60732937 -0.74002624 0.288985
vn 0.59371465 -0.7234504 0.35231015
vn 0.6539058 -0.6539058 0.38054478
vn 0.74002624 -0.60732937 0.288985
vn 0.663377 -0.5817672 0.47061434
vn 0.7689242 -0.51375544 0.3805404
vn 0.74002624 -0.60732937 0.288985
vn 0.68246466 -0.56008375 0.46962556
vn 0.7732306 -0.5639005 0.290053
vn 0.68246466 -0.56008375 0.46962556
vn 0.7919069 -0.42326796 0.440145
vn 0.72089344 -0.50814426 0.47127712
vn 0.77861834 -0.41616648 0.46963698
vn 0.06591989 -0.12945361 0.9893919
vn 0.06591989 -0.12945361 0.9893919
vn 0.06591989 -0.12945361 0.9893919
vn 0.06591989 -0.12945361 0.9893919
vn 0.06548045 -0.13737316 0.9883526
vn -0.26927665 0.28407574 0.92021257
vn -0.26927665 0.28407574 0.92021257
vn -0.26927665 0.28407574 0.92021257
vn -0.26927665 0.28407574 0.92021257
vn -0.27232683 0.28174764 0.9200307
vn -0.64059746 -0.56381935 0.5212893
vn -0.64059746 -0.56381935 0.5212893
vn -0.64059746 -0.56381935 0.5212893
vn -0.64059746 -0.56381935 0.5212893
vn -0.64059746 -0.56381935 0.5212893
vn -0.64059746 -0.56381935 0.5212893
vn -0.64059746 -0.56381935 0.5212893
g Sphere_cell.085_cell.005_cell.003_0
f 3/3/3 2/2/2 1/1/1
f 6/6/6 5/5/5 4/4/4
f 4/4/4 7/7/7 6/6/6
f 8/8/8 6/6/6 7/7/7
f 4/4/4 9/9/9 7/7/7
f 9/9/9 10/10/10 7/7/7
f 7/7/7 11/11/11 8/8/8
f 7/7/7 12/12/12 11/11/11
f 7/7/7 13/13/13 12/12/12
f 16/16/16 15/15/15 14/14/14
f 17/17/17 16/16/16 14/14/14
f 17/17/17 14/14/14 18/18/18
f 19/19/19 17/17/17 18/18/18
f 20/20/20 19/19/19 18/18/18
f 18/18/18 21/21/21 20/20/20
f 24/24/24 23/23/23 22/22/22
f 22/22/22 25/25/25 24/24/24
f 22/22/22 26/26/26 25/25/25
f 29/29/29 28/28/28 27/27/27
f 27/27/27 30/30/30 29/29/29
f 30/30/30 31/31/31 29/29/29
f 30/30/30 32/32/32 31/31/31
f 33/33/33 31/31/31 32/32/32
f 32/32/32 34/34/34 33/33/33
f 34/34/34 35/35/35 33/33/33
f 34/34/34 36/36/36 35/35/35
f 39/39/39 38/38/38 37/37/37
f 38/38/38 40/40/40 37/37/37
f 41/41/41 37/37/37 40/40/40
f 40/40/40 42/42/42 41/41/41
f 42/42/42 43/43/43 41/41/41
f 42/42/42 44/44/44 43/43/43
f 43/43/43 44/44/44 45/45/45
f 44/44/44 46/46/46 45/45/45
f 49/49/49 48/48/48 47/47/47
f 47/47/47 50/50/50 49/49/49
f 47/47/47 51/51/51 50/50/50
f 54/54/54 53/53/53 52/52/52
f 55/55/55 54/54/54 52/52/52
f 55/55/55 52/52/52 56/56/56
f 55/55/55 57/57/57 54/54/54
f 57/57/57 55/55/55 58/58/58
f 56/56/56 59/59/59 55/55/55
f 59/59/59 58/58/58 55/55/55
f 58/58/58 60/60/60 57/57/57
f 59/59/59 61/61/61 58/58/58
f 58/58/58 62/62/62 60/60/60
f 58/58/58 61/61/61 63/63/63
f 58/58/58 64/64/64 62/62/62
f 58/58/58 63/63/63 64/64/64
f 63/63/63 65/65/65 64/64/64
f 68/68/68 67/67/67 66/66/66
f 69/69/69 68/68/68 66/66/66
f 69/69/69 70/70/70 68/68/68
f 73/73/73 72/72/72 71/71/71
f 74/74/74 73/73/73 71/71/71
f 74/74/74 71/71/71 75/75/75
f 78/78/78 77/77/77 76/76/76
f 76/76/76 79/79/79 78/78/78
f 79/79/79 80/80/80 78/78/78
f 80/80/80 81/81/81 78/78/78
f 81/81/81 82/82/82 78/78/78
