g Sphere_cell.033_cell.003
v -0.12271653 0.058262996 -0.061354883
v -0.15413076 0.05036729 -0.062942006
v -0.15038264 0.043098386 -0.06903524
v 0.086074956 -0.0371173 0.03659184
v 0.14641215 -0.035995062 0.059579678
v 0.12495281 -0.026703652 0.049550004
v -0.0139000155 0.021625934 -0.013091398
v -0.037015934 -0.0037270184 -0.017130358
v -0.12271653 0.058262996 -0.061354883
v -0.07908258 0.007802426 -0.035294306
v -0.15038264 0.043098386 -0.06903524
v -0.07493744 0.014006076 -0.021335674
v -0.15413076 0.05036729 -0.062942006
v -0.12271653 0.058262996 -0.061354883
v -0.0139000155 0.021625934 -0.013091398
v 0.06782404 -0.026968535 0.037244093
v 0.08851989 -0.03121477 0.044604193
v 0.11838198 -0.03343683 0.05261434
v 0.12495281 -0.026703652 0.049550004
v 0.14641215 -0.035995062 0.059579678
v 0.11838198 -0.03343683 0.05261434
v 0.14641215 -0.035995062 0.059579678
v 0.086074956 -0.0371173 0.03659184
v 0.08851989 -0.03121477 0.044604193
v 0.06782404 -0.026968535 0.037244093
v -0.037015934 -0.0037270184 -0.017130358
v -0.07493744 0.014006076 -0.021335674
v -0.07908258 0.007802426 -0.035294306
v -0.15413076 0.05036729 -0.062942006
v -0.15038264 0.043098386 -0.06903524
vn -0.11190187 0.6038548 -0.7892004
vn -0.11190187 0.6038548 -0.7892004
vn -0.11190187 0.6038548 -0.7892004
vn 0.35333553 -0.17578058 -0.9188336
vn 0.35333553 -0.17578058 -0.9188336
vn 0.35333553 -0.17578058 -0.9188336
vn 0.35333553 -0.17578058 -0.9188336
vn 0.35333553 -0.17578058 -0.9188336
vn 0.35020196 -0.17263754 -0.9206274
vn 0.35020196 -0.17263754 -0.9206274
vn 0.35020196 -0.17263754 -0.9206274
vn -0.17874081 0.5467219 0.81801397
vn -0.17874081 0.5467219 0.81801397
vn -0.17874081 0.5467219 0.81801397
vn -0.17874081 0.5467219 0.81801397
vn -0.17874081 0.5467219 0.81801397
vn -0.17874081 0.5467219 0.81801397
vn -0.17874081 0.5467219 0.81801397
vn -0.17874081 0.5467219 0.81801397
vn -0.15800807 0.5326117 0.8314795
vn -0.22282213 -0.7508077 0.6218022
vn -0.22282213 -0.7508077 0.6218022
vn -0.32523966 -0.73092705 0.5999706
vn -0.2765985 -0.73124796 0.62351406
vn -0.40911528 -0.7674765 0.493563
vn -0.41616648 -0.77861834 0.46963698
vn -0.46831152 -0.7474062 0.4712413
vn -0.511262 -0.71870273 0.471251
vn -0.56008375 -0.68246466 0.46962556
vn -0.56008375 -0.68246466 0.46962556
g Sphere_cell.033_cell.003_0
f 3/3/3 2/2/2 1/1/1
f 6/6/6 5/5/5 4/4/4
f 4/4/4 7/7/7 6/6/6
f 4/4/4 8/8/8 7/7/7
f 9/9/9 7/7/7 8/8/8
f 8/8/8 10/10/10 9/9/9
f 10/10/10 11/11/11 9/9/9
f 14/14/14 13/13/13 12/12/12
f 15/15/15 14/14/14 12/12/12
f 15/15/15 12/12/12 16/16/16
f 15/15/15 16/16/16 17/17/17
f 15/15/15 17/17/17 18/18/18
f 18/18/18 19/19/19 15/15/15
f 18/18/18 20/20/20 19/19/19
f 23/23/23 22/22/22 21/21/21
f 24/24/24 23/23/23 21/21/21
f 23/23/23 24/24/24 25/25/25
f 26/26/26 23/23/23 25/25/25
f 26/26/26 25/25/25 27/27/27
f 27/27/27 28/28/28 26/26/26
f 27/27/27 29/29/29 28/28/28
f 29/29/29 30/30/30 28/28/28
