g Sphere_cell.071_cell_cell.004
v -0.008681797 0.03298108 0.020228444
v -0.02209296 0.01871149 0.019459544
v -0.028431138 0.01224105 0.01863086
v -0.028029105 0.041395348 -0.03540915
v 0.023900004 0.025904339 0.012260554
v -0.008681797 0.03298108 0.020228444
v -0.028029105 0.041395348 -0.03540915
v 0.077055424 0.012580558 -0.008725165
v 0.038055513 0.022719784 0.008772909
v -0.011142992 -0.05289132 -0.009085833
v 0.015145514 -0.0370198 -0.008223771
v -0.014382742 -0.03462417 -0.014445422
v -0.018549167 -0.011320664 -0.021008788
v 0.077055424 0.012580558 -0.008725165
v -0.028029105 0.041395348 -0.03540915
v 0.015145514 -0.0370198 -0.008223771
v -0.011142992 -0.05289132 -0.009085833
v -0.020325743 -0.020097328 0.008772909
v -0.0025208236 -0.010580374 0.008772909
v 0.077055424 0.012580558 -0.008725165
v -0.028431138 0.01224105 0.01863086
v 0.038055513 0.022719784 0.008772909
v -0.02209296 0.01871149 0.019459544
v 0.023900004 0.025904339 0.012260554
v -0.008681797 0.03298108 0.020228444
v -0.020325743 -0.020097328 0.008772909
v -0.011142992 -0.05289132 -0.009085833
v -0.014382742 -0.03462417 -0.014445422
v -0.018549167 -0.011320664 -0.021008788
v -0.028431138 0.01224105 0.01863086
v -0.028029105 0.041395348 -0.03540915
vn -0.6944848 0.63529265 0.3377782
vn -0.6944848 0.63529265 0.3377782
vn -0.6944848 0.63529265 0.3377782
vn -0.6944848 0.63529265 0.3377782
vn 0.22756241 0.9714019 0.06777636
vn 0.22756241 0.9714019 0.06777636
vn 0.22756241 0.9714019 0.06777636
vn 0.2538063 0.96681887 0.029043306
vn 0.2538063 0.96681887 0.029043306
vn 0.18051986 -0.24729425 -0.9519759
vn 0.18179551 -0.23648478 -0.9544764
vn 0.18179551 -0.23648478 -0.9544764
vn 0.18179551 -0.23648478 -0.9544764
vn 0.18179551 -0.23648478 -0.9544764
vn 0.18014304 -0.22892623 -0.95663023
vn 0.26130933 -0.39233023 0.8819266
vn 0.22303681 -0.41729367 0.88097703
vn 0.18701993 -0.3499299 0.91791755
vn 0.21549688 -0.32249758 0.9217138
vn 0.30016166 -0.3657486 0.880983
vn 0.13742708 -0.25712264 0.9565572
vn 0.2663713 -0.32457134 0.90757906
vn 0.16468304 -0.23905902 0.95693797
vn 0.18494481 -0.22538243 0.95655537
vn 0.18494481 -0.22538243 0.95655537
vn -0.97105473 -0.20712274 -0.11896543
vn -0.97105473 -0.20712274 -0.11896543
vn -0.97105473 -0.20712274 -0.11896543
vn -0.97105473 -0.20712274 -0.11896543
vn -0.97105473 -0.20712274 -0.11896543
vn -0.97105473 -0.20712274 -0.11896543
g Sphere_cell.071_cell_cell.004_0
f 3/3/3 2/2/2 1/1/1
f 4/4/4 3/3/3 1/1/1
f 7/7/7 6/6/6 5/5/5
f 7/7/7 5/5/5 8/8/8
f 5/5/5 9/9/9 8/8/8
f 12/12/12 11/11/11 10/10/10
f 12/12/12 13/13/13 11/11/11
f 13/13/13 14/14/14 11/11/11
f 13/13/13 15/15/15 14/14/14
f 18/18/18 17/17/17 16/16/16
f 19/19/19 18/18/18 16/16/16
f 19/19/19 16/16/16 20/20/20
f 18/18/18 19/19/19 21/21/21
f 22/22/22 19/19/19 20/20/20
f 19/19/19 23/23/23 21/21/21
f 19/19/19 22/22/22 24/24/24
f 25/25/25 23/23/23 19/19/19
f 24/24/24 25/25/25 19/19/19
f 28/28/28 27/27/27 26/26/26
f 26/26/26 29/29/29 28/28/28
f 26/26/26 30/30/30 29/29/29
f 30/30/30 31/31/31 29/29/29
