g Sphere_cell.077_cell.001
v -0.024419483 0.059226215 0.2579281
v -0.036768135 0.04027528 0.24448158
v -0.03386527 0.048636377 0.25060233
v -0.03386527 0.048636377 0.25060233
v -0.030188259 0.062830865 0.25154826
v -0.024419483 0.059226215 0.2579281
v -0.026626404 0.13191335 0.14772454
v -0.025101956 0.20927134 0.013355095
v 0.020529686 0.21801129 -0.012806622
v 0.042061266 -0.06607656 -0.1925005
v 0.047634654 -0.05597453 -0.19093576
v -0.08550232 -0.02431612 -0.19334596
v 0.035171326 -0.07896666 -0.1925005
v -0.097701356 -0.03495412 -0.19530118
v 0.028445538 -0.094409026 -0.17875004
v 0.035171326 -0.07896666 -0.1925005
v -0.097701356 -0.03495412 -0.19530118
v -0.11864285 -0.09081201 -0.14637342
v -0.111096546 -0.038883496 -0.18900599
v -0.11304693 -0.050789163 -0.1791789
v 0.00063270325 -0.15834765 -0.121497884
v -0.12331788 -0.12439922 -0.11867796
v 0.047634654 -0.05597453 -0.19093576
v 0.06354635 -0.0060833013 -0.18334696
v 0.027655896 0.023648683 -0.18110818
v -0.08550232 -0.02431612 -0.19334596
v -0.0027843115 0.04836291 -0.17927782
v -0.016048608 0.03683466 -0.18151651
v -0.024268087 0.029654924 -0.1829087
v -0.12331788 -0.12439922 -0.11867796
v 0.0049242373 -0.16191415 -0.06573271
v 0.00063270325 -0.15834765 -0.121497884
v -0.12011711 -0.12653165 -0.08941189
v 0.010359346 -0.16545658 0.00020720062
v -0.107397124 -0.13356261 0.024122555
v 0.0056237574 -0.16544513 0.047637157
v -0.09911387 -0.13785987 0.097515985
v 0.003257453 -0.16531615 0.069547676
v -0.098105356 -0.13834767 0.10638479
v -0.0075778356 0.055812776 0.25304636
v 0.0666539 0.040995065 0.23012726
v 0.0648294 0.0012368633 0.19768
v 0.051730208 -0.057671115 0.1511069
v 0.003257453 -0.16531615 0.069547676
v -0.098105356 -0.13834767 0.10638479
v -0.024419483 0.059226215 0.2579281
v -0.036768135 0.04027528 0.24448158
v -0.039370354 0.03289241 0.23878336
v -0.059759073 -0.02634554 0.19299223
v -0.030188259 0.062830865 0.25154826
v -0.025101956 0.20927134 0.013355095
v -0.026626404 0.13191335 0.14772454
v -0.03386527 0.048636377 0.25060233
v -0.036768135 0.04027528 0.24448158
v -0.039370354 0.03289241 0.23878336
v -0.059759073 -0.02634554 0.19299223
v -0.11304693 -0.050789163 -0.1791789
v -0.111096546 -0.038883496 -0.18900599
v -0.11864285 -0.09081201 -0.14637342
v -0.12331788 -0.12439922 -0.11867796
v -0.12011711 -0.12653165 -0.08941189
v -0.107397124 -0.13356261 0.024122555
v -0.09911387 -0.13785987 0.097515985
v -0.098105356 -0.13834767 0.10638479
v -0.0075778356 0.055812776 0.25304636
v -0.024419483 0.059226215 0.2579281
v -0.030188259 0.062830865 0.25154826
v -0.026626404 0.13191335 0.14772454
v 0.068861656 0.22128955 -0.046785895
v 0.020529686 0.21801129 -0.012806622
v 0.10953586 0.113344364 0.093227826
v 0.12485115 0.1935834 -0.03924923
v 0.12622707 0.16571395 0.002589747
v 0.11557715 0.1256315 0.070636794
v 0.08151894 0.056254804 0.19768
v 0.0666539 0.040995065 0.23012726
v 0.11379628 0.12598579 -0.08389274
v 0.12485115 0.1935834 -0.03924923
v 0.068861656 0.22128955 -0.046785895
v 0.06354635 -0.0060833013 -0.18334696
v 0.027655896 0.023648683 -0.18110818
v -0.0027843115 0.04836291 -0.17927782
v -0.111096546 -0.038883496 -0.18900599
v -0.097701356 -0.03495412 -0.19530118
v -0.08550232 -0.02431612 -0.19334596
v -0.024268087 0.029654924 -0.1829087
v -0.025101956 0.20927134 0.013355095
v 0.020529686 0.21801129 -0.012806622
v -0.016048608 0.03683466 -0.18151651
v 0.068861656 0.22128955 -0.046785895
v -0.0027843115 0.04836291 -0.17927782
v 0.0648294 0.0012368633 0.19768
v 0.0666539 0.040995065 0.23012726
v 0.08151894 0.056254804 0.19768
v 0.122150466 0.124324016 0.002589747
v 0.10953586 0.113344364 0.093227826
v 0.11557715 0.1256315 0.070636794
v 0.051730208 -0.057671115 0.1511069
v 0.12622707 0.16571395 0.002589747
v 0.06524461 -0.063268945 0.002589747
v 0.003257453 -0.16531615 0.069547676
v 0.0056237574 -0.16544513 0.047637157
v 0.010359346 -0.16545658 0.00020720062
v 0.0049242373 -0.16191415 -0.06573271
v 0.00063270325 -0.15834765 -0.121497884
v 0.028445538 -0.094409026 -0.17875004
v 0.035171326 -0.07896666 -0.1925005
v 0.042061266 -0.06607656 -0.1925005
v 0.047634654 -0.05597453 -0.19093576
v 0.06354635 -0.0060833013 -0.18334696
v 0.11379628 0.12598579 -0.08389274
v 0.12485115 0.1935834 -0.03924923
vn 0.05881402 -0.6028859 0.79565656
vn 0.05881402 -0.6028859 0.79565656
vn 0.05881402 -0.6028859 0.79565656
vn -0.6964324 0.13341865 0.70511085
vn -0.6964324 0.13341865 0.70511085
vn -0.6964324 0.13341865 0.70511085
vn 0.11989344 0.85979974 0.4963566
vn 0.11989344 0.85979974 0.4963566
vn 0.11989344 0.85979974 0.4963566
vn 0.036993373 0.076463446 -0.99638593
vn 0.036993373 0.076463446 -0.99638593
vn 0.036993373 0.076463446 -0.99638593
vn 0.036993373 0.076463446 -0.99638593
vn 0.036993373 0.076463446 -0.99638593
vn -0.1849098 -0.60739976 -0.7725761
vn -0.1849098 -0.60739976 -0.7725761
vn -0.1849098 -0.60739976 -0.7725761
vn -0.1849098 -0.60739976 -0.7725761
vn -0.1849098 -0.60739976 -0.7725761
vn -0.1849098 -0.60739976 -0.7725761
vn -0.18456365 -0.6098449 -0.77073044
vn -0.18456365 -0.6098449 -0.77073044
vn 0.04991294 0.13469405 -0.9896293
vn 0.04991294 0.13469405 -0.9896293
vn 0.04991294 0.13469405 -0.9896293
vn 0.04991294 0.13469405 -0.9896293
vn 0.04991294 0.13469405 -0.9896293
vn 0.04991294 0.13469405 -0.9896293
vn 0.04991294 0.13469405 -0.9896293
vn -0.26480612 -0.96341956 -0.041237175
vn -0.26480612 -0.96341956 -0.041237175
vn -0.26480612 -0.96341956 -0.041237175
vn -0.26480612 -0.96341956 -0.041237175
vn -0.26693577 -0.9632551 -0.029745856
vn -0.26693577 -0.9632551 -0.029745856
vn -0.26632053 -0.96352404 -0.026357997
vn -0.26632053 -0.96352404 -0.026357997
vn -0.26481658 -0.96402645 -0.022920325
vn -0.26481658 -0.96402645 -0.022920325
vn 0.11083431 -0.6313286 0.7675546
vn 0.11083431 -0.6313286 0.7675546
vn 0.11083431 -0.6313286 0.7675546
vn 0.11083431 -0.6313286 0.7675546
vn 0.11083431 -0.6313286 0.7675546
vn 0.11083431 -0.6313286 0.7675546
vn 0.11083431 -0.6313286 0.7675546
vn 0.11083431 -0.6313286 0.7675546
vn 0.11083431 -0.6313286 0.7675546
vn 0.11083431 -0.6313286 0.7675546
vn -0.96218026 0.24075133 0.12746711
vn -0.9638217 0.23609523 0.123720236
vn -0.96043575 0.24593368 0.13069014
vn -0.96218026 0.24075133 0.12746711
vn -0.96218026 0.24075133 0.12746711
vn -0.9638217 0.23609523 0.123720236
vn -0.9638217 0.23609523 0.123720236
vn -0.9632329 0.24632923 0.10725866
vn -0.9632329 0.24632923 0.10725866
vn -0.9641617 0.2352923 0.12259563
vn -0.9641617 0.2352923 0.12259563
vn -0.9641617 0.2352923 0.12259563
vn -0.9641617 0.2352923 0.12259563
vn -0.9641617 0.2352923 0.12259563
vn -0.9641617 0.2352923 0.12259563
vn 0.29786903 0.79961157 0.52143604
vn 0.29786903 0.79961157 0.52143604
vn 0.29786903 0.79961157 0.52143604
vn 0.29786903 0.79961157 0.52143604
vn 0.29786903 0.79961157 0.52143604
vn 0.31049183 0.79670894 0.5185073
vn 0.32258478 0.7926297 0.51737523
vn 0.32258478 0.7926297 0.51737523
vn 0.32258478 0.7926297 0.51737523
vn 0.32258478 0.7926297 0.51737523
vn 0.3185705 0.793202 0.5189831
vn 0.3185705 0.793202 0.5189831
vn 0.3449984 0.47732398 -0.8081695
vn 0.3449984 0.47732398 -0.8081695
vn 0.3449984 0.47732398 -0.8081695
vn 0.3449984 0.47732398 -0.8081695
vn 0.3449984 0.47732398 -0.8081695
vn 0.34024778 0.47900796 -0.80918646
vn -0.47099045 0.64975667 -0.5966442
vn -0.47099045 0.64975667 -0.5966442
vn -0.47099045 0.64975667 -0.5966442
vn -0.4674977 0.65113306 -0.5978893
vn -0.4674977 0.65113306 -0.5978893
vn -0.4674977 0.65113306 -0.5978893
vn -0.4674977 0.65113306 -0.5978893
vn -0.46530846 0.6517028 -0.5989753
vn -0.46530846 0.6517028 -0.5989753
vn 0.94736797 -0.28736603 0.14111944
vn 0.91611874 -0.27787533 0.2889842
vn 0.9442526 -0.2864192 0.16232964
vn 0.9807879 -0.19507721 0
vn 0.95237935 -0.28889388 0.097539075
vn 0.96161234 -0.25638723 0.0978123
vn 0.9335171 -0.34507903 0.09729477
vn 0.99459594 -0.09793668 -0.034456376
vn 0.92380667 -0.38285944 9.1556656E-05
vn 0.8775152 -0.46996334 0.09540266
vn 0.8775152 -0.46996334 0.09540266
vn 0.8817252 -0.4717631 -0.0006103805
vn 0.877723 -0.46913624 -0.097538345
vn 0.877723 -0.46913624 -0.097538345
vn 0.877723 -0.46913624 -0.097538345
vn 0.877723 -0.46913624 -0.097538345
vn 0.877723 -0.46913624 -0.097538345
vn 0.9160636 -0.38887537 -0.09799708
vn 0.95237935 -0.28889388 -0.097539075
vn 0.968252 -0.22999266 -0.0979361
vn 0.99044037 -0.09753945 -0.09753945
g Sphere_cell.077_cell.001_0
f 3/3/3 2/2/2 1/1/1
f 6/6/6 5/5/5 4/4/4
f 9/9/9 8/8/8 7/7/7
f 12/12/12 11/11/11 10/10/10
f 10/10/10 13/13/13 12/12/12
f 13/13/13 14/14/14 12/12/12
f 17/17/17 16/16/16 15/15/15
f 15/15/15 18/18/18 17/17/17
f 18/18/18 19/19/19 17/17/17
f 18/18/18 20/20/20 19/19/19
f 18/18/18 15/15/15 21/21/21
f 22/22/22 18/18/18 21/21/21
f 25/25/25 24/24/24 23/23/23
f 23/23/23 26/26/26 25/25/25
f 26/26/26 27/27/27 25/25/25
f 26/26/26 28/28/28 27/27/27
f 26/26/26 29/29/29 28/28/28
f 32/32/32 31/31/31 30/30/30
f 31/31/31 33/33/33 30/30/30
f 31/31/31 34/34/34 33/33/33
f 34/34/34 35/35/35 33/33/33
f 34/34/34 36/36/36 35/35/35
f 36/36/36 37/37/37 35/35/35
f 36/36/36 38/38/38 37/37/37
f 38/38/38 39/39/39 37/37/37
f 42/42/42 41/41/41 40/40/40
f 40/40/40 43/43/43 42/42/42
f 40/40/40 44/44/44 43/43/43
f 40/40/40 45/45/45 44/44/44
f 40/40/40 46/46/46 45/45/45
f 46/46/46 47/47/47 45/45/45
f 47/47/47 48/48/48 45/45/45
f 48/48/48 49/49/49 45/45/45
f 52/52/52 51/51/51 50/50/50
f 53/53/53 50/50/50 51/51/51
f 54/54/54 53/53/53 51/51/51
f 51/51/51 55/55/55 54/54/54
f 51/51/51 56/56/56 55/55/55
f 56/56/56 51/51/51 57/57/57
f 51/51/51 58/58/58 57/57/57
f 56/56/56 57/57/57 59/59/59
f 56/56/56 59/59/59 60/60/60
f 56/56/56 60/60/60 61/61/61
f 56/56/56 61/61/61 62/62/62
f 56/56/56 62/62/62 63/63/63
f 63/63/63 64/64/64 56/56/56
f 67/67/67 66/66/66 65/65/65
f 68/68/68 67/67/67 65/65/65
f 65/65/65 69/69/69 68/68/68
f 68/68/68 69/69/69 70/70/70
f 71/71/71 69/69/69 65/65/65
f 72/72/72 69/69/69 71/71/71
f 71/71/71 73/73/73 72/72/72
f 71/71/71 74/74/74 73/73/73
f 65/65/65 75/75/75 71/71/71
f 65/65/65 76/76/76 75/75/75
f 79/79/79 78/78/78 77/77/77
f 77/77/77 80/80/80 79/79/79
f 80/80/80 81/81/81 79/79/79
f 79/79/79 81/81/81 82/82/82
f 85/85/85 84/84/84 83/83/83
f 83/83/83 86/86/86 85/85/85
f 83/83/83 87/87/87 86/86/86
f 87/87/87 88/88/88 86/86/86
f 88/88/88 89/89/89 86/86/86
f 88/88/88 90/90/90 89/89/89
f 90/90/90 91/91/91 89/89/89
f 94/94/94 93/93/93 92/92/92
f 95/95/95 94/94/94 92/92/92
f 95/95/95 96/96/96 94/94/94
f 95/95/95 97/97/97 96/96/96
f 95/95/95 92/92/92 98/98/98
f 95/95/95 99/99/99 97/97/97
f 98/98/98 100/100/100 95/95/95
f 100/100/100 98/98/98 101/101/101
f 100/100/100 101/101/101 102/102/102
f 102/102/102 103/103/103 100/100/100
f 100/100/100 103/103/103 104/104/104
f 104/104/104 105/105/105 100/100/100
f 105/105/105 106/106/106 100/100/100
f 106/106/106 107/107/107 100/100/100
f 107/107/107 108/108/108 100/100/100
f 108/108/108 109/109/109 100/100/100
f 95/95/95 100/100/100 109/109/109
f 109/109/109 110/110/110 95/95/95
f 110/110/110 111/111/111 95/95/95
f 95/95/95 111/111/111 99/99/99
f 111/111/111 112/112/112 99/99/99
