g Sphere_cell.004_cell.005
v -0.051967107 0.022092847 -0.14951855
v 0.021573974 0.0092060855 -0.12476176
v -0.062095664 0.063444875 -0.02998669
v 0.10319102 -0.0053009684 -0.09714913
v 0.06563953 0.04004767 0.011063679
v 0.035069596 0.077001594 0.09927043
v 0.049949862 0.0590389 0.056412853
v -0.062095664 0.063444875 -0.02998669
v -0.109120876 -0.10070725 -0.08005024
v -0.051967107 0.022092847 -0.14951855
v -0.09933014 -0.0037402804 0.03704409
v -0.09825343 0.0039656456 0.046455484
v -0.062095664 0.063444875 -0.02998669
v 0.035069596 0.077001594 0.09927043
v 0.02290052 0.059416316 0.11943123
v -0.09825343 0.0039656456 0.046455484
v -0.09825343 0.0039656456 0.046455484
v 0.02290052 0.059416316 0.11943123
v 0.024434756 0.047519945 0.1104106
v 0.009387954 -0.028125253 0.047113933
v -0.09933014 -0.0037402804 0.03704409
v 0.036156785 -0.030761685 0.047113933
v -0.006555899 -0.10828014 -0.052468963
v -0.109120876 -0.10070725 -0.08005024
v 0.059019096 -0.1048183 -0.040380906
v 0.06563953 0.04004767 0.011063679
v 0.10319102 -0.0053009684 -0.09714913
v 0.059019096 -0.1048183 -0.040380906
v 0.049949862 0.0590389 0.056412853
v 0.036156785 -0.030761685 0.047113933
v 0.024434756 0.047519945 0.1104106
v 0.02290052 0.059416316 0.11943123
v 0.035069596 0.077001594 0.09927043
v 0.059019096 -0.1048183 -0.040380906
v 0.10319102 -0.0053009684 -0.09714913
v 0.021573974 0.0092060855 -0.12476176
v -0.006555899 -0.10828014 -0.052468963
v -0.051967107 0.022092847 -0.14951855
v -0.109120876 -0.10070725 -0.08005024
vn 0.26062906 0.91899425 -0.29584152
vn 0.26062906 0.91899425 -0.29584152
vn 0.26062906 0.91899425 -0.29584152
vn 0.26279107 0.9189915 -0.2939307
vn 0.26279107 0.9189915 -0.2939307
vn 0.26279107 0.9189915 -0.2939307
vn 0.26279107 0.9189915 -0.2939307
vn -0.9268204 0.32360384 -0.19048469
vn -0.9268204 0.32360384 -0.19048469
vn -0.9268204 0.32360384 -0.19048469
vn -0.9268204 0.32360384 -0.19048469
vn -0.9244201 0.34004843 -0.17266865
vn -0.5511982 0.764537 0.3341615
vn -0.5511982 0.764537 0.3341615
vn -0.5511982 0.764537 0.3341615
vn -0.5511982 0.764537 0.3341615
vn -0.21165314 -0.6959985 0.68614066
vn -0.18607679 -0.6085264 0.77140844
vn -0.17566939 -0.6109974 0.7718954
vn -0.13883184 -0.696265 0.70423055
vn -0.22480443 -0.7411587 0.63257146
vn -0.0704079 -0.71503544 0.69553363
vn -0.1645873 -0.7553377 0.63433105
vn -0.22480443 -0.7411587 0.63257146
vn -0.07590013 -0.7707816 0.6325621
vn 0.9037107 -0.1793574 0.38876447
vn 0.9037107 -0.1793574 0.38876447
vn 0.9037107 -0.1793574 0.38876447
vn 0.90418726 -0.17903759 0.38780278
vn 0.90418726 -0.17903759 0.38780278
vn 0.9037249 -0.1790573 0.3888697
vn 0.9037249 -0.1790573 0.3888697
vn 0.9037249 -0.1790573 0.3888697
vn 0.17964292 -0.54637957 -0.81804514
vn 0.17964292 -0.54637957 -0.81804514
vn 0.17964292 -0.54637957 -0.81804514
vn 0.17964292 -0.54637957 -0.81804514
vn 0.17964292 -0.54637957 -0.81804514
vn 0.17964292 -0.54637957 -0.81804514
g Sphere_cell.004_cell.005_0
f 3/3/3 2/2/2 1/1/1
f 4/4/4 2/2/2 3/3/3
f 3/3/3 5/5/5 4/4/4
f 3/3/3 6/6/6 5/5/5
f 6/6/6 7/7/7 5/5/5
f 10/10/10 9/9/9 8/8/8
f 9/9/9 11/11/11 8/8/8
f 8/8/8 11/11/11 12/12/12
f 15/15/15 14/14/14 13/13/13
f 16/16/16 15/15/15 13/13/13
f 19/19/19 18/18/18 17/17/17
f 20/20/20 19/19/19 17/17/17
f 20/20/20 17/17/17 21/21/21
f 20/20/20 22/22/22 19/19/19
f 23/23/23 20/20/20 21/21/21
f 20/20/20 23/23/23 22/22/22
f 21/21/21 24/24/24 23/23/23
f 23/23/23 25/25/25 22/22/22
f 28/28/28 27/27/27 26/26/26
f 28/28/28 26/26/26 29/29/29
f 30/30/30 28/28/28 29/29/29
f 31/31/31 30/30/30 29/29/29
f 29/29/29 32/32/32 31/31/31
f 29/29/29 33/33/33 32/32/32
f 36/36/36 35/35/35 34/34/34
f 34/34/34 37/37/37 36/36/36
f 37/37/37 38/38/38 36/36/36
f 37/37/37 39/39/39 38/38/38
