g Sphere_cell.087_cell_cell.003
v -0.0065904744 -0.011753796 0.00028885526
v 0.015773157 -0.009437322 0.000349652
v 0.0003322465 -0.0012335776 -0.011205363
v -0.018944936 -0.0085783 0.0026366224
v -0.0033499193 0.00245285 -0.012881743
v 0.01277993 0.028550144 0.020811984
v -0.018944936 -0.0085783 0.0026366224
v -0.0065904744 -0.011753796 0.00028885526
v 0.0003322465 -0.0012335776 -0.011205363
v -0.0033499193 0.00245285 -0.012881743
v 0.015773157 -0.009437322 0.000349652
v -0.0065904744 -0.011753796 0.00028885526
v -0.018944936 -0.0085783 0.0026366224
v 0.01277993 0.028550144 0.020811984
v 0.01277993 0.028550144 0.020811984
v -0.0033499193 0.00245285 -0.012881743
v 0.0003322465 -0.0012335776 -0.011205363
v 0.015773157 -0.009437322 0.000349652
vn 0.080367304 -0.7589194 -0.6462062
vn 0.080367304 -0.7589194 -0.6462062
vn 0.080367304 -0.7589194 -0.6462062
vn -0.6926014 0.6917945 -0.20426382
vn -0.6926014 0.6917945 -0.20426382
vn -0.6926014 0.6917945 -0.20426382
vn -0.29309124 -0.61319554 -0.7335454
vn -0.29309124 -0.61319554 -0.7335454
vn -0.29309124 -0.61319554 -0.7335454
vn -0.29309124 -0.61319554 -0.7335454
vn 0.0463591 -0.47088516 0.88097554
vn 0.0463591 -0.47088516 0.88097554
vn 0.0463591 -0.47088516 0.88097554
vn 0.0463591 -0.47088516 0.88097554
vn 0.6755087 0.39022756 -0.625628
vn 0.6755087 0.39022756 -0.625628
vn 0.6755087 0.39022756 -0.625628
vn 0.6755087 0.39022756 -0.625628
g Sphere_cell.087_cell_cell.003_0
f 3/3/3 2/2/2 1/1/1
f 6/6/6 5/5/5 4/4/4
f 9/9/9 8/8/8 7/7/7
f 10/10/10 9/9/9 7/7/7
f 13/13/13 12/12/12 11/11/11
f 14/14/14 13/13/13 11/11/11
f 17/17/17 16/16/16 15/15/15
f 18/18/18 17/17/17 15/15/15
