g Sphere_cell.052_cell
v 0.11980291 0.14627762 -0.23717636
v 0.15760697 0.18942732 -0.086151935
v -0.0515854 0.32252568 -0.022920912
v -0.08391263 -0.20326948 0.069465965
v -0.120683745 -0.17692639 0.11650057
v -0.07227083 -0.11630966 0.17820781
v -0.120683745 -0.17692639 0.11650057
v -0.08391263 -0.20326948 0.069465965
v -0.05985763 -0.18991446 0.035852987
v 0.07421597 -0.11323859 -0.1517017
v -0.09421028 0.24739689 0.041425142
v 0.09298094 -0.10187365 -0.17801076
v 0.0989802 -0.04685357 -0.19119933
v 0.11980291 0.14627762 -0.23717636
v -0.0515854 0.32252568 -0.022920912
v -0.07227083 -0.11630966 0.17820781
v -0.120683745 -0.17692639 0.11650057
v -0.09421028 0.24739689 0.041425142
v -0.0686964 -0.108731285 0.18190055
v -0.06003543 -0.090217136 0.19080622
v -0.08520015 0.15896364 0.0806484
v 0.0989802 -0.04685357 -0.19119933
v 0.09298094 -0.10187365 -0.17801076
v 0.15286572 0.08274313 -0.02764666
v 0.15760697 0.18942732 -0.086151935
v 0.11980291 0.14627762 -0.23717636
v 0.09298094 -0.10187365 -0.17801076
v 0.07421597 -0.11323859 -0.1517017
v 0.15286572 0.08274313 -0.02764666
v -0.0686964 -0.108731285 0.18190055
v -0.06003543 -0.090217136 0.19080622
v -0.05985763 -0.18991446 0.035852987
v -0.07227083 -0.11630966 0.17820781
v -0.08391263 -0.20326948 0.069465965
v -0.0515854 0.32252568 -0.022920912
v 0.15760697 0.18942732 -0.086151935
v 0.15286572 0.08274313 -0.02764666
v -0.08520015 0.15896364 0.0806484
v -0.06003543 -0.090217136 0.19080622
v -0.09421028 0.24739689 0.041425142
vn 0.42712674 0.8355223 -0.34563735
vn 0.42712674 0.8355223 -0.34563735
vn 0.42712674 0.8355223 -0.34563735
vn 0.20880099 -0.77455413 0.5970495
vn 0.20880099 -0.77455413 0.5970495
vn 0.20880099 -0.77455413 0.5970495
vn -0.80142146 -0.055366784 -0.5955318
vn -0.80142146 -0.055366784 -0.5955318
vn -0.80142146 -0.055366784 -0.5955318
vn -0.80142146 -0.055366784 -0.5955318
vn -0.80142146 -0.055366784 -0.5955318
vn -0.80142146 -0.055366784 -0.5955318
vn -0.80142146 -0.055366784 -0.5955318
vn -0.80142146 -0.055366784 -0.5955318
vn -0.80142146 -0.055366784 -0.5955318
vn -0.842434 0.14440158 0.51908875
vn -0.842434 0.14440158 0.51908875
vn -0.842434 0.14440158 0.51908875
vn -0.842434 0.14440158 0.51908875
vn -0.842434 0.14440158 0.51908875
vn -0.842434 0.14440158 0.51908875
vn 0.9682348 -0.15298335 -0.1977815
vn 0.9682348 -0.15298335 -0.1977815
vn 0.9682348 -0.15298335 -0.1977815
vn 0.96820205 -0.15184073 -0.1988196
vn 0.96820205 -0.15184073 -0.1988196
vn 0.78368944 -0.5248201 0.3322569
vn 0.78368944 -0.5248201 0.3322569
vn 0.78368944 -0.5248201 0.3322569
vn 0.7781403 -0.5277983 0.3404799
vn 0.7781403 -0.5277983 0.3404799
vn 0.7781403 -0.5277983 0.3404799
vn 0.77422756 -0.53212994 0.34265047
vn 0.77422756 -0.53212994 0.34265047
vn 0.48477852 0.39799786 0.77883726
vn 0.48477852 0.39799786 0.77883726
vn 0.48477852 0.39799786 0.77883726
vn 0.48477852 0.39799786 0.77883726
vn 0.48214495 0.39450514 0.7822416
vn 0.48477852 0.39799786 0.77883726
g Sphere_cell.052_cell_0
f 3/3/3 2/2/2 1/1/1
f 6/6/6 5/5/5 4/4/4
f 9/9/9 8/8/8 7/7/7
f 7/7/7 10/10/10 9/9/9
f 7/7/7 11/11/11 10/10/10
f 11/11/11 12/12/12 10/10/10
f 11/11/11 13/13/13 12/12/12
f 11/11/11 14/14/14 13/13/13
f 11/11/11 15/15/15 14/14/14
f 18/18/18 17/17/17 16/16/16
f 16/16/16 19/19/19 18/18/18
f 19/19/19 20/20/20 18/18/18
f 20/20/20 21/21/21 18/18/18
f 24/24/24 23/23/23 22/22/22
f 24/24/24 22/22/22 25/25/25
f 22/22/22 26/26/26 25/25/25
f 29/29/29 28/28/28 27/27/27
f 28/28/28 29/29/29 30/30/30
f 29/29/29 31/31/31 30/30/30
f 30/30/30 32/32/32 28/28/28
f 30/30/30 33/33/33 32/32/32
f 33/33/33 34/34/34 32/32/32
f 37/37/37 36/36/36 35/35/35
f 35/35/35 38/38/38 37/37/37
f 37/37/37 38/38/38 39/39/39
f 35/35/35 40/40/40 38/38/38
