g Sphere_cell.049
v -0.07871591 -0.055164777 0.28754723
v 0.13870876 -0.13284107 0.15408583
v -0.09412359 -0.053969346 0.2730482
v 0.2007533 -0.17065425 0.019834725
v 0.13967578 -0.16318579 -0.029686715
v 0.07465678 -0.15487404 -0.082374595
v 0.03605848 -0.14816685 -0.10265274
v -0.08985477 -0.12548585 -0.1638322
v -0.04960125 0.011911184 0.33273095
v 0.13870876 -0.13284107 0.15408583
v -0.07871591 -0.055164777 0.28754723
v 0.14132135 -0.11305089 0.16849233
v -0.07871591 -0.055164777 0.28754723
v -0.09412359 -0.053969346 0.2730482
v -0.04960125 0.011911184 0.33273095
v -0.13236211 0.11677696 0.27793902
v 0.2099478 -0.14654703 0.029329028
v 0.2007533 -0.17065425 0.019834725
v 0.13870876 -0.13284107 0.15408583
v 0.21479306 -0.13298507 0.03440168
v 0.14132135 -0.11305089 0.16849233
v -0.04960125 0.011911184 0.33273095
v -0.13236211 0.11677696 0.27793902
v 0.14132135 -0.11305089 0.16849233
v 0.21479306 -0.13298507 0.03440168
v 0.20106694 -0.11534448 0.024562743
v 0.13189064 -0.03236815 -0.0101638725
v 0.11128299 -0.0077025564 -0.020521669
v -0.1798067 0.28803933 -0.034191336
v 0.028223392 0.084837936 -0.04495516
v -0.13778149 0.25048447 -0.045167234
v -0.053265862 0.16920997 -0.052762054
v -0.15732138 0.17984368 -0.09412797
v -0.164052 0.21116781 -0.08341601
v -0.16869853 0.23364198 -0.06943496
v -0.13236211 0.11677696 0.27793902
v -0.1798067 0.28803933 -0.034191336
v -0.09412359 -0.053969346 0.2730482
v -0.115461156 -0.011168924 -0.15037097
v -0.13680385 0.08567216 -0.12623538
v -0.09698199 -0.09396835 -0.16258146
v -0.08985477 -0.12548585 -0.1638322
v -0.13778149 0.25048447 -0.045167234
v -0.1798067 0.28803933 -0.034191336
v -0.16869853 0.23364198 -0.06943496
v -0.164052 0.21116781 -0.08341601
v -0.053265862 0.16920997 -0.052762054
v -0.078780346 0.14369561 -0.082374595
v 0.028223392 0.084837936 -0.04495516
v -0.13680385 0.08567216 -0.12623538
v -0.15732138 0.17984368 -0.09412797
v -0.009688078 0.05950644 -0.082374595
v -0.115461156 -0.011168924 -0.15037097
v 0.11128299 -0.0077025564 -0.020521669
v 0.04165208 -0.036544528 -0.082374595
v 0.073267214 -0.14076562 -0.082374595
v 0.13189064 -0.03236815 -0.0101638725
v -0.09698199 -0.09396835 -0.16258146
v 0.20106694 -0.11534448 0.024562743
v 0.03605848 -0.14816685 -0.10265274
v -0.08985477 -0.12548585 -0.1638322
v 0.07465678 -0.15487404 -0.082374595
v 0.13967578 -0.16318579 -0.029686715
v 0.2007533 -0.17065425 0.019834725
v 0.2099478 -0.14654703 0.029329028
v 0.21479306 -0.13298507 0.03440168
vn -0.23608176 -0.95638543 0.17202364
vn -0.23608176 -0.95638543 0.17202364
vn -0.23608176 -0.95638543 0.17202364
vn -0.24410075 -0.9569997 0.15673636
vn -0.24410075 -0.9569997 0.15673636
vn -0.24722964 -0.95661175 0.15418005
vn -0.24722964 -0.95661175 0.15418005
vn -0.24722964 -0.95661175 0.15418005
vn 0.24306221 -0.61229414 0.7523408
vn 0.24306221 -0.61229414 0.7523408
vn 0.24306221 -0.61229414 0.7523408
vn 0.2689759 -0.5898046 0.7614345
vn -0.681324 -0.18188117 0.7090254
vn -0.681324 -0.18188117 0.7090254
vn -0.681324 -0.18188117 0.7090254
vn -0.68744123 -0.17414734 0.70505124
vn 0.7428816 -0.4707705 0.4759223
vn 0.7428816 -0.4707705 0.4759223
vn 0.7428816 -0.4707705 0.4759223
vn 0.7539002 -0.44880417 0.4798014
vn 0.7539002 -0.44880417 0.4798014
vn 0.68035877 0.6798959 0.2735938
vn 0.68035877 0.6798959 0.2735938
vn 0.68035877 0.6798959 0.2735938
vn 0.68028796 0.6807893 0.27154046
vn 0.68028796 0.6807893 0.27154046
vn 0.68028796 0.6807893 0.27154046
vn 0.67980385 0.68162096 0.27066535
vn 0.67980385 0.68162096 0.27066535
vn 0.67980385 0.68162096 0.27066535
vn 0.67980385 0.68162096 0.27066535
vn 0.67980385 0.68162096 0.27066535
vn -0.975266 -0.21921995 0.028264906
vn -0.975266 -0.21921995 0.028264906
vn -0.975266 -0.21921995 0.028264906
vn -0.975266 -0.21921995 0.028264906
vn -0.97555953 -0.21784544 0.028758159
vn -0.975266 -0.21921995 0.028264906
vn -0.9747945 -0.22149688 0.02673371
vn -0.9747945 -0.22149688 0.02673371
vn -0.9747945 -0.22149688 0.02673371
vn -0.9747945 -0.22149688 0.02673371
vn 0.3460601 0.5290853 -0.7747975
vn 0.3032406 0.5571619 -0.7730561
vn 0.3032406 0.5571619 -0.7730561
vn 0.35597458 0.4761588 -0.8040864
vn 0.4468619 0.4480216 -0.7743327
vn 0.3951597 0.3958921 -0.82892585
vn 0.53194755 0.3457201 -0.7729873
vn 0.34652007 0.3199985 -0.88177365
vn 0.3001583 0.36577505 -0.8809731
vn 0.46541741 0.31099033 -0.82865655
vn 0.39882556 0.25153965 -0.8818537
vn 0.5921007 0.2280386 -0.77292633
vn 0.5171472 0.214214 -0.82865626
vn 0.5490075 0.10919721 -0.82865363
vn 0.6088339 0.18467359 -0.771503
vn 0.437735 0.17499633 -0.88190955
vn 0.6265874 0.10080456 -0.77280444
vn 0.45485538 0.1279357 -0.88132805
vn 0.4527881 0.137338 -0.88097745
vn 0.56564295 0.055697545 -0.8227672
vn 0.63315994 0.06235158 -0.7715054
vn 0.63315994 0.06235158 -0.7715054
vn 0.63315994 0.06235158 -0.7715054
vn 0.63315994 0.06235158 -0.7715054
g Sphere_cell.049_0
f 3/3/3 2/2/2 1/1/1
f 2/2/2 3/3/3 4/4/4
f 3/3/3 5/5/5 4/4/4
f 6/6/6 5/5/5 3/3/3
f 7/7/7 6/6/6 3/3/3
f 3/3/3 8/8/8 7/7/7
f 11/11/11 10/10/10 9/9/9
f 9/9/9 10/10/10 12/12/12
f 15/15/15 14/14/14 13/13/13
f 16/16/16 14/14/14 15/15/15
f 19/19/19 18/18/18 17/17/17
f 19/19/19 17/17/17 20/20/20
f 21/21/21 19/19/19 20/20/20
f 24/24/24 23/23/23 22/22/22
f 23/23/23 24/24/24 25/25/25
f 23/23/23 25/25/25 26/26/26
f 26/26/26 27/27/27 23/23/23
f 23/23/23 27/27/27 28/28/28
f 29/29/29 23/23/23 28/28/28
f 29/29/29 28/28/28 30/30/30
f 31/31/31 29/29/29 30/30/30
f 30/30/30 32/32/32 31/31/31
f 35/35/35 34/34/34 33/33/33
f 36/36/36 35/35/35 33/33/33
f 36/36/36 37/37/37 35/35/35
f 33/33/33 38/38/38 36/36/36
f 38/38/38 33/33/33 39/39/39
f 33/33/33 40/40/40 39/39/39
f 38/38/38 39/39/39 41/41/41
f 41/41/41 42/42/42 38/38/38
f 45/45/45 44/44/44 43/43/43
f 46/46/46 45/45/45 43/43/43
f 46/46/46 43/43/43 47/47/47
f 48/48/48 46/46/46 47/47/47
f 48/48/48 47/47/47 49/49/49
f 48/48/48 50/50/50 46/46/46
f 50/50/50 51/51/51 46/46/46
f 52/52/52 48/48/48 49/49/49
f 48/48/48 52/52/52 50/50/50
f 52/52/52 53/53/53 50/50/50
f 52/52/52 49/49/49 54/54/54
f 52/52/52 55/55/55 53/53/53
f 55/55/55 52/52/52 54/54/54
f 56/56/56 55/55/55 54/54/54
f 56/56/56 54/54/54 57/57/57
f 55/55/55 58/58/58 53/53/53
f 57/57/57 59/59/59 56/56/56
f 60/60/60 58/58/58 55/55/55
f 55/55/55 56/56/56 60/60/60
f 60/60/60 61/61/61 58/58/58
f 56/56/56 62/62/62 60/60/60
f 63/63/63 62/62/62 56/56/56
f 64/64/64 63/63/63 56/56/56
f 64/64/64 56/56/56 59/59/59
f 65/65/65 64/64/64 59/59/59
f 59/59/59 66/66/66 65/65/65
