g Sphere_cell.050
v 0.039148707 -0.07394623 0.030102145
v 0.054038376 -0.026873108 0.08489562
v 0.12273828 -0.017216919 0.016819013
v -0.14301078 -0.053220265 -0.043600243
v -0.15119205 -0.026229735 -0.02163483
v -0.14440669 -0.021722076 -0.013710318
v -0.031216566 0.023133395 0.08899234
v 0.054038376 -0.026873108 0.08489562
v -0.042379294 -0.0890783 -0.026646595
v 0.039148707 -0.07394623 0.030102145
v 0.039340887 0.049471132 0.15115106
v 0.037157405 0.049738996 0.14624733
v 0.0322042 0.04823648 0.14624733
v -0.14694358 -0.032712456 -0.06558142
v -0.14909945 -0.028135177 -0.04884293
v -0.15119205 -0.026229735 -0.02163483
v -0.14301078 -0.053220265 -0.043600243
v 0.039340887 0.049471132 0.15115106
v 0.044504512 0.050462596 0.14624733
v 0.17213966 0.04943358 0.008165582
v 0.054038376 -0.026873108 0.08489562
v 0.12273828 -0.017216919 0.016819013
v 0.19928023 0.04918789 -0.021469412
v -0.042379294 -0.0890783 -0.026646595
v 0.044735197 0.011642694 -0.11354715
v -0.0009015276 -0.006733655 -0.12791476
v 0.16182075 0.04280233 -0.04884293
v 0.19089693 0.047738783 -0.02779917
v 0.039148707 -0.07394623 0.030102145
v 0.19928023 0.04918789 -0.021469412
v 0.12273828 -0.017216919 0.016819013
v -0.14440669 -0.021722076 -0.013710318
v -0.15119205 -0.026229735 -0.02163483
v -0.14909945 -0.028135177 -0.04884293
v -0.14308248 -0.02491903 -0.04884293
v -0.14070694 -0.030654188 -0.06930689
v -0.14694358 -0.032712456 -0.06558142
v 0.04090606 0.030893322 -0.04884293
v 0.037157405 0.049738996 0.14624733
v -0.031216566 0.023133395 0.08899234
v 0.0322042 0.04823648 0.14624733
v -0.08597175 -0.02129936 -0.09228533
v 0.044735197 0.011642694 -0.11354715
v -0.0009015276 -0.006733655 -0.12791476
v 0.16182075 0.04280233 -0.04884293
v 0.19089693 0.047738783 -0.02779917
v 0.19928023 0.04918789 -0.021469412
v 0.17213966 0.04943358 0.008165582
v 0.044504512 0.050462596 0.14624733
v 0.039340887 0.049471132 0.15115106
v -0.042379294 -0.0890783 -0.026646595
v -0.0009015276 -0.006733655 -0.12791476
v -0.08597175 -0.02129936 -0.09228533
v -0.14070694 -0.030654188 -0.06930689
v -0.14694358 -0.032712456 -0.06558142
v -0.14301078 -0.053220265 -0.043600243
vn 0.54860693 -0.7020466 0.45404953
vn 0.54860693 -0.7020466 0.45404953
vn 0.54860693 -0.7020466 0.45404953
vn -0.3506202 -0.6527778 0.67152566
vn -0.3506202 -0.6527778 0.67152566
vn -0.3506202 -0.6527778 0.67152566
vn -0.3506202 -0.6527778 0.67152566
vn -0.3506202 -0.6527778 0.67152566
vn -0.34718123 -0.658743 0.667475
vn -0.33880842 -0.66618264 0.6643865
vn -0.3510656 -0.649507 0.674458
vn -0.3510656 -0.649507 0.674458
vn -0.3510656 -0.649507 0.674458
vn -0.96739525 -0.2467455 -0.057123154
vn -0.96739525 -0.2467455 -0.057123154
vn -0.96739525 -0.2467455 -0.057123154
vn -0.96739525 -0.2467455 -0.057123154
vn 0.6682349 -0.41006055 0.6207354
vn 0.6682349 -0.41006055 0.6207354
vn 0.6682349 -0.41006055 0.6207354
vn 0.6682349 -0.41006055 0.6207354
vn 0.6689557 -0.4158407 0.61609644
vn 0.6689557 -0.4158407 0.61609644
vn 0.45196941 -0.77434874 -0.44284058
vn 0.4514622 -0.77380866 -0.44429955
vn 0.4514622 -0.77380866 -0.44429955
vn 0.45196941 -0.77434874 -0.44284058
vn 0.45196941 -0.77434874 -0.44284058
vn 0.45196941 -0.77434874 -0.44284058
vn 0.45914716 -0.777267 -0.4301626
vn 0.45914716 -0.777267 -0.4301626
vn -0.33650628 0.9365777 -0.09790606
vn -0.46913624 0.877723 -0.097538345
vn -0.46248174 0.8652382 -0.19358067
vn -0.3754112 0.90634596 -0.19391617
vn -0.3390102 0.8949223 -0.29014856
vn -0.45129025 0.84428847 -0.2889881
vn -0.19138387 0.9621686 -0.19391693
vn -0.16867939 0.98463964 -0.045076795
vn -0.28889388 0.95237935 -0.097539075
vn -0.28889388 0.95237935 -0.097539075
vn -0.27787533 0.91611874 -0.2889842
vn -0.21177278 0.93324685 -0.29017663
vn -0.27787533 0.91611874 -0.2889842
vn -0.09717363 0.98669076 -0.13037868
vn -0.09753945 0.99044037 -0.09753945
vn -0.09753945 0.99044037 -0.09753945
vn -0.09753945 0.99044037 -0.09753945
vn -0.097875886 0.9939575 -0.04968567
vn -0.09753974 0.9904433 0.097509205
vn -0.15080325 -0.7360588 -0.6599059
vn -0.15080325 -0.7360588 -0.6599059
vn -0.15080325 -0.7360588 -0.6599059
vn -0.15080325 -0.7360588 -0.6599059
vn -0.15080325 -0.7360588 -0.6599059
vn -0.15080325 -0.7360588 -0.6599059
g Sphere_cell.050_0
f 3/3/3 2/2/2 1/1/1
f 6/6/6 5/5/5 4/4/4
f 7/7/7 6/6/6 4/4/4
f 4/4/4 8/8/8 7/7/7
f 4/4/4 9/9/9 8/8/8
f 8/8/8 9/9/9 10/10/10
f 7/7/7 8/8/8 11/11/11
f 11/11/11 12/12/12 7/7/7
f 12/12/12 13/13/13 7/7/7
f 16/16/16 15/15/15 14/14/14
f 17/17/17 16/16/16 14/14/14
f 20/20/20 19/19/19 18/18/18
f 21/21/21 20/20/20 18/18/18
f 21/21/21 22/22/22 20/20/20
f 22/22/22 23/23/23 20/20/20
f 26/26/26 25/25/25 24/24/24
f 25/25/25 27/27/27 24/24/24
f 24/24/24 27/27/27 28/28/28
f 29/29/29 24/24/24 28/28/28
f 29/29/29 28/28/28 30/30/30
f 31/31/31 29/29/29 30/30/30
f 34/34/34 33/33/33 32/32/32
f 35/35/35 34/34/34 32/32/32
f 35/35/35 36/36/36 34/34/34
f 36/36/36 37/37/37 34/34/34
f 36/36/36 35/35/35 38/38/38
f 38/38/38 35/35/35 32/32/32
f 32/32/32 39/39/39 38/38/38
f 32/32/32 40/40/40 39/39/39
f 40/40/40 41/41/41 39/39/39
f 42/42/42 36/36/36 38/38/38
f 42/42/42 38/38/38 43/43/43
f 43/43/43 44/44/44 42/42/42
f 38/38/38 45/45/45 43/43/43
f 45/45/45 38/38/38 39/39/39
f 39/39/39 46/46/46 45/45/45
f 39/39/39 47/47/47 46/46/46
f 39/39/39 48/48/48 47/47/47
f 39/39/39 49/49/49 48/48/48
f 50/50/50 49/49/49 39/39/39
f 53/53/53 52/52/52 51/51/51
f 51/51/51 54/54/54 53/53/53
f 51/51/51 55/55/55 54/54/54
f 51/51/51 56/56/56 55/55/55
