g Spikes In Play.020
v -0 0.00433249 0.0013350201
v 0.0030635328 0.0030635328 0.0013350201
v -0 0 0.01
v 0.0030635328 0.0030635328 0.0013350201
v 0.00433249 -1.8937914E-10 0.0013350201
v -0 0 0.01
v 0.00433249 -1.8937914E-10 0.0013350201
v 0.0030635328 -0.0030635328 0.0013350201
v -0 0 0.01
v 0.0030635328 -0.0030635328 0.0013350201
v -3.7875827E-10 -0.00433249 0.0013350201
v -0 0 0.01
v -3.7875827E-10 -0.00433249 0.0013350201
v -0.0030635332 -0.0030635323 0.0013350201
v -0 0 0.01
v -0.0030635332 -0.0030635323 0.0013350201
v -0.00433249 5.1664423E-11 0.0013350201
v -0 0 0.01
v -0.00433249 5.1664423E-11 0.0013350201
v -0.0030635335 0.003063533 0.0013350189
v -0 0 0.01
v -0.0030635335 0.003063533 0.0013350189
v -0 0.00433249 0.0013350201
v -0 0 0.01
v 0.0030635328 -0.0030635328 0.0013350201
v 0.00433249 -1.8937914E-10 0.0013350201
v 0.0030635328 0.0030635328 0.0013350201
v -3.7875827E-10 -0.00433249 0.0013350201
v -0 0.00433249 0.0013350201
v -0.0030635335 0.003063533 0.0013350189
v -0.0030635332 -0.0030635323 0.0013350201
v -0.00433249 5.1664423E-11 0.0013350201
vn 0.3474081 0.838717 0.4193585
vn 0.3474081 0.838717 0.4193585
vn 0.3474081 0.838717 0.4193585
vn 0.838717 0.3474081 0.4193585
vn 0.838717 0.3474081 0.4193585
vn 0.838717 0.3474081 0.4193585
vn 0.838717 -0.34740812 0.4193585
vn 0.838717 -0.34740812 0.4193585
vn 0.838717 -0.34740812 0.4193585
vn 0.34740803 -0.838717 0.41935843
vn 0.34740803 -0.838717 0.41935843
vn 0.34740803 -0.838717 0.41935843
vn -0.34740815 -0.838717 0.4193585
vn -0.34740815 -0.838717 0.4193585
vn -0.34740815 -0.838717 0.4193585
vn -0.838717 -0.34740794 0.4193585
vn -0.838717 -0.34740794 0.4193585
vn -0.838717 -0.34740794 0.4193585
vn -0.838717 0.34740797 0.41935858
vn -0.838717 0.34740797 0.41935858
vn -0.838717 0.34740797 0.41935858
vn -0.3474081 0.838717 0.4193585
vn -0.3474081 0.838717 0.4193585
vn -0.3474081 0.838717 0.4193585
vn -0 0 -1
vn -0 0 -1
vn -0 0 -1
vn -0 0 -1
vn -0 0 -1
vn -0 0 -1
vn -0 0 -1
vn -0 0 -1
g Spikes In Play.020_0
f 3/3/3 2/2/2 1/1/1
f 6/6/6 5/5/5 4/4/4
f 9/9/9 8/8/8 7/7/7
f 12/12/12 11/11/11 10/10/10
f 15/15/15 14/14/14 13/13/13
f 18/18/18 17/17/17 16/16/16
f 21/21/21 20/20/20 19/19/19
f 24/24/24 23/23/23 22/22/22
f 27/27/27 26/26/26 25/25/25
f 25/25/25 28/28/28 27/27/27
f 28/28/28 29/29/29 27/27/27
f 28/28/28 30/30/30 29/29/29
f 28/28/28 31/31/31 30/30/30
f 31/31/31 32/32/32 30/30/30
