g StibLarge
v -1.7807892E-08 0.65855217 -3.761178
v 0.46566668 0.4656667 -3.761178
v 0.46566668 0.4656667 2.7965894
v -1.7807892E-08 0.65855217 2.7965894
v -1.7807892E-08 0.65855217 2.8995616
v 0.46566668 0.4656667 2.8995616
v -0.0088169435 0.6269197 2.9611597
v 0.43810165 0.44643578 2.9666467
v 0.46566668 0.4656667 -3.761178
v 0.6585521 -2.6242244E-08 -3.761178
v 0.6585521 -2.6242244E-08 2.796548
v 0.46566668 0.4656667 2.7965894
v 0.46566668 0.4656667 2.8995616
v 0.6585521 -2.6242244E-08 2.8995616
v 0.43810165 0.44643578 2.9666467
v 0.6238433 0.0017726682 2.9683337
v 0.6585521 -2.6242244E-08 -3.761178
v 0.46566668 -0.4656667 -3.761178
v 0.46566668 -0.4656667 2.6876354
v 0.6585521 -2.6242244E-08 2.796548
v 0.6585521 -2.6242244E-08 2.8995616
v 0.46566668 -0.4656667 2.829355
v 0.6238433 0.0017726682 2.9683337
v 0.43568426 -0.4375998 2.8937602
v 0.46566668 -0.4656667 -3.761178
v -7.538035E-08 -0.65855217 -3.761178
v -7.538035E-08 -0.65855217 2.162856
v 0.46566668 -0.4656667 2.6876354
v 0.46566668 -0.4656667 2.829355
v -7.538035E-08 -0.65855217 2.3076768
v 0.43568426 -0.4375998 2.8937602
v -0.0010522351 -0.6084629 2.3769724
v -0.4656668 -0.46566662 -3.761178
v -0.65855217 1.0397141E-08 -3.761178
v -0.65855217 1.0397141E-08 2.4480274
v -0.4656668 -0.46566662 2.003444
v -0.46566677 -0.46566665 2.1101677
v -0.65855217 1.0397141E-08 2.5733974
v -0.43305594 -0.43788168 2.1673386
v -0.63105214 -0.0056534843 2.605086
v -7.538035E-08 -0.65855217 -3.761178
v -0.4656668 -0.46566662 2.003444
v -7.538035E-08 -0.65855217 2.162856
v -7.538035E-08 -0.65855217 2.3076768
v -0.46566677 -0.46566665 2.1101677
v -0.0010522351 -0.6084629 2.3769724
v -0.43305594 -0.43788168 2.1673386
v -0.63105214 -0.0056534843 2.605086
v -0.3565293 -0.37267983 2.2063012
v -0.43305594 -0.43788168 2.1673386
v -0.51614743 -0.029275753 2.5679867
v -0.44946697 0.43622184 2.9359496
v -0.3886107 0.32560942 2.9453955
v -0.27121088 -0.27165526 2.4929638
v -0.3845747 -0.027763192 2.6603591
v -0.29399568 0.22428295 2.9006248
v -0.020311158 -0.3645246 2.615859
v -0.052533742 0.33683795 3.040683
v -0.048628207 0.48408878 3.0561187
v -0.0088169435 0.6269197 2.9611597
v -0.44946697 0.43622184 2.9359496
v -0.0032582842 -0.50344145 2.4372063
v -0.43305594 -0.43788168 2.1673386
v -0.0010522351 -0.6084629 2.3769724
v 0.3367242 -0.34496212 2.972439
v 0.43568426 -0.4375998 2.8937602
v 0.22115079 -0.2519696 2.901009
v 0.19836597 0.24396864 3.0910716
v 0.3046428 0.35332724 3.095032
v 0.43810165 0.44643578 2.9666467
v -0.0088169435 0.6269197 2.9611597
v 0.3117298 7.655328E-05 3.0567951
v 0.46426094 0.009923073 3.0980113
v 0.43568426 -0.4375998 2.8937602
v 0.6238433 0.0017726682 2.9683337
v 0.43810165 0.44643578 2.9666467
v -0.65855217 1.0397141E-08 -3.761178
v -0.4656668 0.46566665 -3.761178
v -0.4656668 0.46566665 2.7871711
v -0.65855217 1.0397141E-08 2.4480274
v -0.65855217 1.0397141E-08 2.5733974
v -0.4656668 0.46566665 2.8928673
v -0.63105214 -0.0056534843 2.605086
v -0.44946697 0.43622184 2.9359496
v -0.4656668 0.46566665 -3.761178
v -1.7807892E-08 0.65855217 -3.761178
v -1.7807892E-08 0.65855217 2.7965894
v -0.4656668 0.46566665 2.7871711
v -0.4656668 0.46566665 2.8928673
v -1.7807892E-08 0.65855217 2.8995616
v -0.44946697 0.43622184 2.9359496
v -0.0088169435 0.6269197 2.9611597
v 0.46566668 -0.4656667 -3.761178
v 0.6585521 -2.6242244E-08 -3.761178
v 0.46566668 0.4656667 -3.761178
v -7.538035E-08 -0.65855217 -3.761178
v -1.7807892E-08 0.65855217 -3.761178
v -0.4656668 0.46566665 -3.761178
v -0.4656668 -0.46566662 -3.761178
v -0.65855217 1.0397141E-08 -3.761178
vt 0.28002036 0.5754417
vt 0.27866402 0.6506113
vt 0.31991726 0.6513556
vt 0.32127357 0.57618624
vt 0.32192135 0.5761979
vt 0.32056504 0.6513673
vt 0.32216588 0.576793
vt 0.32086897 0.6486714
vt 0.27729204 0.72664964
vt 0.2759357 0.80181986
vt 0.31718853 0.80256414
vt 0.31854507 0.7273947
vt 0.31919286 0.7274064
vt 0.31783658 0.8025759
vt 0.31942862 0.7284876
vt 0.3181319 0.8003553
vt 0.2813845 0.4998373
vt 0.2800282 0.5750073
vt 0.3205957 0.57573926
vt 0.3226372 0.5005817
vt 0.32328522 0.50059336
vt 0.32148725 0.5757554
vt 0.3235134 0.5017267
vt 0.32180467 0.5731595
vt 0.2841128 0.34862944
vt 0.2827565 0.42379886
vt 0.32002297 0.42447084
vt 0.32468054 0.34936032
vt 0.32557207 0.34937638
vt 0.320934 0.42448726
vt 0.32582727 0.34938097
vt 0.3214021 0.42104343
vt 0.28548482 0.27258945
vt 0.28412068 0.34819388
vt 0.32318118 0.34889844
vt 0.3217407 0.27367884
vt 0.32241207 0.27369088
vt 0.32396984 0.34891266
vt 0.32271495 0.27599716
vt 0.32418498 0.34698305
vt 0.28684115 0.19741955
vt 0.32174852 0.27324378
vt 0.32410765 0.19809255
vt 0.32501864 0.19810899
vt 0.3224199 0.2732559
vt 0.32523414 0.1992617
vt 0.32279134 0.26989993
vt 0.38576177 0.43255103
vt 0.33999094 0.21674484
vt 0.32989427 0.17709517
vt 0.38413784 0.41839153
vt 0.44720355 0.6897924
vt 0.43945873 0.6507882
vt 0.3689639 0.3352877
vt 0.39461282 0.45479468
vt 0.43147972 0.6099973
vt 0.3780286 0.35734344
vt 0.4550335 0.698351
vt 0.4687383 0.7591819
vt 0.4871078 0.8393072
vt 0.44720352 0.6897924
vt 0.35491785 0.2566281
vt 0.3298943 0.17709517
vt 0.34285975 0.20307487
vt 0.41296667 0.4851287
vt 0.4049864 0.44374287
vt 0.41160136 0.4880739
vt 0.45756024 0.69399595
vt 0.47148392 0.74980795
vt 0.49084723 0.8252778
vt 0.48710784 0.83930725
vt 0.44060364 0.61163676
vt 0.4484716 0.6377727
vt 0.40498644 0.44374287
vt 0.45423132 0.65040225
vt 0.49084726 0.82527786
vt 0.28274867 0.42423326
vt 0.28139237 0.4994024
vt 0.3225864 0.5001462
vt 0.32180926 0.4249382
vt 0.32259795 0.42495242
vt 0.3232513 0.5001582
vt 0.32285315 0.42495704
vt 0.32348856 0.49809667
vt 0.27865618 0.6510459
vt 0.27729988 0.72621524
vt 0.31855318 0.72695947
vt 0.31985024 0.65178895
vt 0.32051513 0.65180093
vt 0.31920096 0.72697115
vt 0.3207606 0.65236205
vt 0.31950822 0.7239978
vt 0.8535534 0.14644662
vt 1 0.49999997
vt 0.8535534 0.8535534
vt 0.49999997 0
vt 0.5 1
vt 0.14644656 0.85355335
vt 0.14644656 0.14644668
vt 0 0.5
vn -0 0.7763856 -0.63025826
vn 0.54898643 0.54898643 -0.6302601
vn 0.38268155 0.92388034 0
vn 0.38268155 0.92388034 0
vn 0.011871925 0.9708731 0.23930015
vn 0.69465894 0.6840075 0.22267173
vn -0.024323614 0.7417024 0.67028797
vn 0.54837 0.5646062 0.6168552
vn 0.54898643 0.54898643 -0.6302601
vn 0.7763856 0 -0.63025826
vn 0.92388034 0.38268155 0
vn 0.92388034 0.38268155 0
vn 0.69465894 0.6840075 0.22267173
vn 0.96852756 -0.017731668 0.24827388
vn 0.54837 0.5646062 0.6168552
vn 0.75779027 -0.04590079 0.6508817
vn 0.7763856 0 -0.63025826
vn 0.54898643 -0.54898643 -0.6302601
vn 0.92388034 -0.38268155 0
vn 0.92388034 -0.38268155 0
vn 0.96852756 -0.017731668 0.24827388
vn 0.53208125 -0.7798101 0.32982692
vn 0.75779027 -0.04590079 0.6508817
vn 0.21326913 -0.68882143 0.69285
vn 0.54898643 -0.54898643 -0.6302601
vn -0 -0.7763856 -0.63025826
vn -0 -1 0
vn 0.38268155 -0.92388034 0
vn 0.53208125 -0.7798101 0.32982692
vn -0.10257472 -0.96617395 0.23661464
vn 0.21326913 -0.68882143 0.69285
vn -0.41386402 -0.67556185 0.61019075
vn -0.54898643 -0.54898643 -0.6302601
vn -0.7763856 0 -0.63025826
vn -0.92388034 -0.38268155 0
vn -0.92388034 -0.38268155 0
vn -0.68345535 -0.7095191 0.17167261
vn -0.93968064 -0.16608451 0.29902536
vn -0.41735473 -0.654461 0.63047266
vn -0.5444599 -0.47417453 0.6918974
vn -0 -0.7763856 -0.63025826
vn -0.38268155 -0.92388034 0
vn -0 -1 0
vn -0.10257472 -0.96617395 0.23661464
vn -0.68345535 -0.7095191 0.17167261
vn -0.41386402 -0.67556185 0.61019075
vn -0.41735473 -0.654461 0.63047266
vn -0.5444599 -0.47417453 0.6918974
vn -0.33400312 -0.57177895 0.7493402
vn -0.41735473 -0.654461 0.63047266
vn -0.23603778 -0.67271066 0.70124644
vn -0.5601307 0.26060894 0.7863438
vn -0.33818108 -0.2837352 0.8972892
vn -0.50823593 -0.6466405 0.56881654
vn -0.45107865 -0.572821 0.68440044
vn -0.37703475 -0.47393334 0.7957588
vn -0.5076936 -0.5868919 0.63071805
vn -0.29652032 -0.2944145 0.90851307
vn -0.13425265 0.23966494 0.9615285
vn -0.024323614 0.7417024 0.67028797
vn -0.5601307 0.26060894 0.7863438
vn -0.53860503 -0.5751061 0.6157578
vn -0.41735473 -0.654461 0.63047266
vn -0.41386402 -0.67556185 0.61019075
vn -0.16397916 -0.51913 0.8388176
vn 0.21326913 -0.68882143 0.69285
vn -0.4842812 -0.46593904 0.7405217
vn -0.25470844 -0.22391516 0.94073665
vn 0.194865 0.27079672 0.9427072
vn 0.54837 0.5646062 0.6168552
vn -0.024323614 0.7417024 0.67028797
vn -0.34923327 -0.29863214 0.888175
vn 0.25245407 -0.10007217 0.96242017
vn 0.21326913 -0.68882143 0.69285
vn 0.75779027 -0.04590079 0.6508817
vn 0.54837 0.5646062 0.6168552
vn -0.7763856 0 -0.63025826
vn -0.54898643 0.54898643 -0.6302601
vn -0.92388034 0.38268155 0
vn -0.92388034 0.38268155 0
vn -0.93968064 -0.16608451 0.29902536
vn -0.7165226 0.6193504 0.32093668
vn -0.5444599 -0.47417453 0.6918974
vn -0.5601307 0.26060894 0.7863438
vn -0.54898643 0.54898643 -0.6302601
vn -0 0.7763856 -0.63025826
vn -0.38268155 0.92388034 0
vn -0.38268155 0.92388034 0
vn -0.7165226 0.6193504 0.32093668
vn 0.011871925 0.9708731 0.23930015
vn -0.5601307 0.26060894 0.7863438
vn -0.024323614 0.7417024 0.67028797
vn 0.54898643 -0.54898643 -0.6302601
vn 0.7763856 0 -0.63025826
vn 0.54898643 0.54898643 -0.6302601
vn -0 -0.7763856 -0.63025826
vn -0 0.7763856 -0.63025826
vn -0.54898643 0.54898643 -0.6302601
vn -0.54898643 -0.54898643 -0.6302601
vn -0.7763856 0 -0.63025826
g StibLarge_0
f 3/3/3 2/2/2 1/1/1
f 4/4/4 3/3/3 1/1/1
f 4/4/4 5/5/5 3/3/3
f 5/5/5 6/6/6 3/3/3
f 5/5/5 7/7/7 6/6/6
f 7/7/7 8/8/8 6/6/6
f 11/11/11 10/10/10 9/9/9
f 12/12/12 11/11/11 9/9/9
f 12/12/12 13/13/13 11/11/11
f 13/13/13 14/14/14 11/11/11
f 13/13/13 15/15/15 14/14/14
f 15/15/15 16/16/16 14/14/14
f 19/19/19 18/18/18 17/17/17
f 20/20/20 19/19/19 17/17/17
f 20/20/20 21/21/21 19/19/19
f 21/21/21 22/22/22 19/19/19
f 21/21/21 23/23/23 22/22/22
f 23/23/23 24/24/24 22/22/22
f 27/27/27 26/26/26 25/25/25
f 28/28/28 27/27/27 25/25/25
f 28/28/28 29/29/29 27/27/27
f 29/29/29 30/30/30 27/27/27
f 29/29/29 31/31/31 30/30/30
f 31/31/31 32/32/32 30/30/30
f 35/35/35 34/34/34 33/33/33
f 36/36/36 35/35/35 33/33/33
f 36/36/36 37/37/37 35/35/35
f 37/37/37 38/38/38 35/35/35
f 37/37/37 39/39/39 38/38/38
f 39/39/39 40/40/40 38/38/38
f 42/42/42 33/33/33 41/41/41
f 43/43/43 42/42/42 41/41/41
f 43/43/43 44/44/44 42/42/42
f 44/44/44 45/45/45 42/42/42
f 44/44/44 46/46/46 45/45/45
f 46/46/46 47/47/47 45/45/45
f 50/50/50 49/49/49 48/48/48
f 49/49/49 51/51/51 48/48/48
f 48/48/48 51/51/51 52/52/52
f 51/51/51 53/53/53 52/52/52
f 49/49/49 54/54/54 51/51/51
f 51/51/51 55/55/55 53/53/53
f 54/54/54 55/55/55 51/51/51
f 55/55/55 56/56/56 53/53/53
f 56/56/56 55/55/55 54/54/54
f 57/57/57 54/54/54 49/49/49
f 58/58/58 56/56/56 54/54/54
f 58/58/58 54/54/54 57/57/57
f 53/53/53 56/56/56 59/59/59
f 56/56/56 58/58/58 59/59/59
f 53/53/53 59/59/59 60/60/60
f 61/61/61 53/53/53 60/60/60
f 62/62/62 57/57/57 49/49/49
f 62/62/62 49/49/49 63/63/63
f 64/64/64 62/62/62 63/63/63
f 65/65/65 62/62/62 64/64/64
f 66/66/66 65/65/65 64/64/64
f 67/67/67 57/57/57 62/62/62
f 65/65/65 67/67/67 62/62/62
f 68/68/68 58/58/58 57/57/57
f 68/68/68 57/57/57 67/67/67
f 59/59/59 58/58/58 69/69/69
f 58/58/58 68/68/68 69/69/69
f 59/59/59 69/69/69 70/70/70
f 71/71/71 59/59/59 70/70/70
f 72/72/72 67/67/67 65/65/65
f 67/67/67 72/72/72 68/68/68
f 73/73/73 72/72/72 65/65/65
f 68/68/68 72/72/72 73/73/73
f 69/69/69 68/68/68 73/73/73
f 73/73/73 65/65/65 74/74/74
f 75/75/75 73/73/73 74/74/74
f 69/69/69 73/73/73 75/75/75
f 76/76/76 69/69/69 75/75/75
f 79/79/79 78/78/78 77/77/77
f 80/80/80 79/79/79 77/77/77
f 80/80/80 81/81/81 79/79/79
f 81/81/81 82/82/82 79/79/79
f 81/81/81 83/83/83 82/82/82
f 83/83/83 84/84/84 82/82/82
f 87/87/87 86/86/86 85/85/85
f 88/88/88 87/87/87 85/85/85
f 88/88/88 89/89/89 87/87/87
f 89/89/89 90/90/90 87/87/87
f 89/89/89 91/91/91 90/90/90
f 91/91/91 92/92/92 90/90/90
f 95/95/95 94/94/94 93/93/93
f 93/93/93 96/96/96 95/95/95
f 96/96/96 97/97/97 95/95/95
f 96/96/96 98/98/98 97/97/97
f 96/96/96 99/99/99 98/98/98
f 99/99/99 100/100/100 98/98/98
