g StibMedium
v -0 0.28664267 -1.2866427
v 0.24823982 0.1433213 -1.2866427
v 0.24823982 0.1433213 5.5183463
v -0 0.28664267 5.613134
v 0.24823982 0.1433213 -1.2866427
v 0.24823982 -0.14332134 -1.2866427
v 0.24823982 -0.14332134 5.4446225
v 0.24823982 0.1433213 5.5183463
v 0.24823982 -0.14332134 -1.2866427
v -2.5059094E-08 -0.28664267 -1.2866427
v -2.5059094E-08 -0.28664267 5.2866426
v 0.24823982 -0.14332134 5.4446225
v -2.5059094E-08 -0.28664267 -1.2866427
v -0.24823982 -0.1433213 -1.2866427
v -0.24823982 -0.1433213 5.3486996
v -2.5059094E-08 -0.28664267 5.2866426
v -0 0.28664267 5.613134
v 0.24823982 0.1433213 5.5183463
v 0.24823982 -0.14332134 5.4446225
v -2.5059094E-08 -0.28664267 5.2866426
v -0.24823982 0.1433213 5.4224234
v -0.24823982 -0.1433213 5.3486996
v -0.24823982 -0.1433213 -1.2866427
v -0.24823982 0.1433213 -1.2866427
v -0.24823982 0.1433213 5.4224234
v -0.24823982 -0.1433213 5.3486996
v -0.24823982 0.1433213 -1.2866427
v -0 0.28664267 -1.2866427
v -0 0.28664267 5.613134
v -0.24823982 0.1433213 5.4224234
v -2.5059094E-08 -0.28664267 -1.2866427
v 0.24823982 -0.14332134 -1.2866427
v 0.24823982 0.1433213 -1.2866427
v -0 0.28664267 -1.2866427
v -0.24823982 0.1433213 -1.2866427
v -0.24823982 -0.1433213 -1.2866427
vt 0.4289647 0.4574863
vt 0.33655232 0.45748627
vt 0.33655232 0.5412366
vt 0.4289647 0.5424033
vt 0.5219136 0.45748627
vt 0.42950416 0.45748627
vt 0.42950416 0.54033196
vt 0.5219136 0.5412393
vt 0.6148621 0.45748627
vt 0.52245307 0.45748627
vt 0.5224535 0.5383869
vt 0.6148654 0.5403313
vt 0.80076534 0.45748627
vt 0.7083554 0.4574863
vt 0.7083576 0.5391513
vt 0.800767 0.53838754
vt 0.3961816 0.476731
vt 0.38395217 0.43637264
vt 0.3795761 0.4424937
vt 0.38736206 0.49639034
vt 0.40386224 0.5320491
vt 0.39948615 0.5381703
vt 0.707816 0.4574863
vt 0.61540616 0.45748627
vt 0.6154045 0.54005855
vt 0.70781434 0.5391512
vt 0.33601287 0.4574863
vt 0.24360028 0.45748627
vt 0.24359924 0.5424049
vt 0.33600807 0.54005766
vt 0.300318 0.5803146
vt 0.33108565 0.63360566
vt 0.39262095 0.63360566
vt 0.4233886 0.5803146
vt 0.39262095 0.52702343
vt 0.33108562 0.52702343
vn -0 0.7924073 -0.60999244
vn 0.68625313 0.39619935 -0.6099858
vn 0.49998927 0.8660316 0
vn 0.49998927 0.8660316 0
vn 0.68625313 0.39619935 -0.6099858
vn 0.68625313 -0.39619935 -0.6099858
vn 1 0 0
vn 1 0 0
vn 0.68625313 -0.39619935 -0.6099858
vn -0 -0.7924073 -0.60999244
vn 0.49998927 -0.8660316 0
vn 0.49998927 -0.8660316 0
vn -0 -0.7924073 -0.60999244
vn -0.68625313 -0.39619935 -0.6099858
vn -0.49998927 -0.8660316 0
vn -0.49998927 -0.8660316 0
vn -0.17252629 -0.41561347 0.89302874
vn -0.17252629 -0.41561347 0.89302874
vn -0.17252629 -0.41561347 0.89302874
vn -0.17252629 -0.41561347 0.89302874
vn -0.17252629 -0.41561347 0.89302874
vn -0.17252629 -0.41561347 0.89302874
vn -0.68625313 -0.39619935 -0.6099858
vn -0.68625313 0.39619935 -0.6099858
vn -1 0 0
vn -1 0 0
vn -0.68625313 0.39619935 -0.6099858
vn -0 0.7924073 -0.60999244
vn -0.49998927 0.8660316 0
vn -0.49998927 0.8660316 0
vn -0 -0.7924073 -0.60999244
vn 0.68625313 -0.39619935 -0.6099858
vn 0.68625313 0.39619935 -0.6099858
vn -0 0.7924073 -0.60999244
vn -0.68625313 0.39619935 -0.6099858
vn -0.68625313 -0.39619935 -0.6099858
g StibMedium_0
f 3/3/3 2/2/2 1/1/1
f 4/4/4 3/3/3 1/1/1
f 7/7/7 6/6/6 5/5/5
f 8/8/8 7/7/7 5/5/5
f 11/11/11 10/10/10 9/9/9
f 12/12/12 11/11/11 9/9/9
f 15/15/15 14/14/14 13/13/13
f 16/16/16 15/15/15 13/13/13
f 19/19/19 18/18/18 17/17/17
f 17/17/17 20/20/20 19/19/19
f 17/17/17 21/21/21 20/20/20
f 21/21/21 22/22/22 20/20/20
f 25/25/25 24/24/24 23/23/23
f 26/26/26 25/25/25 23/23/23
f 29/29/29 28/28/28 27/27/27
f 30/30/30 29/29/29 27/27/27
f 33/33/33 32/32/32 31/31/31
f 31/31/31 34/34/34 33/33/33
f 31/31/31 35/35/35 34/34/34
f 31/31/31 36/36/36 35/35/35
