g Stool
v -0 0.01 -0.01
v 0.0019509032 0.009807852 -0.01
v 0.0019509032 0.009807852 0.01
v -0 0.01 0.01
v 0.0019509032 0.009807852 -0.01
v 0.0038268345 0.009238794 -0.01
v 0.0038268345 0.009238794 0.01
v 0.0019509032 0.009807852 0.01
v 0.0038268345 0.009238794 -0.01
v 0.0055557024 0.008314696 -0.01
v 0.0055557024 0.008314696 0.01
v 0.0038268345 0.009238794 0.01
v 0.0055557024 0.008314696 -0.01
v 0.0070710676 0.0070710676 -0.01
v 0.0070710676 0.0070710676 0.01
v 0.0055557024 0.008314696 0.01
v 0.0070710676 0.0070710676 -0.01
v 0.008314696 0.005555702 -0.01
v 0.008314696 0.005555702 0.01
v 0.0070710676 0.0070710676 0.01
v 0.008314696 0.005555702 -0.01
v 0.009238794 0.0038268343 -0.01
v 0.009238794 0.0038268343 0.01
v 0.008314696 0.005555702 0.01
v 0.009238794 0.0038268343 -0.01
v 0.009807852 0.0019509034 -0.01
v 0.009807852 0.0019509034 0.01
v 0.009238794 0.0038268343 0.01
v 0.009807852 0.0019509034 -0.01
v 0.01 7.5497897E-10 -0.01
v 0.01 7.5497897E-10 0.01
v 0.009807852 0.0019509034 0.01
v 0.01 7.5497897E-10 -0.01
v 0.009807853 -0.001950902 -0.01
v 0.009807853 -0.001950902 0.01
v 0.01 7.5497897E-10 0.01
v 0.009807853 -0.001950902 -0.01
v 0.009238795 -0.0038268326 -0.01
v 0.009238795 -0.0038268326 0.01
v 0.009807853 -0.001950902 0.01
v 0.009238795 -0.0038268326 -0.01
v 0.008314696 -0.005555702 -0.01
v 0.008314696 -0.005555702 0.01
v 0.009238795 -0.0038268326 0.01
v 0.008314696 -0.005555702 -0.01
v 0.0070710676 -0.0070710676 -0.01
v 0.0070710676 -0.0070710676 0.01
v 0.008314696 -0.005555702 0.01
v 0.0070710676 -0.0070710676 -0.01
v 0.005555702 -0.008314696 -0.01
v 0.005555702 -0.008314696 0.01
v 0.0070710676 -0.0070710676 0.01
v 0.005555702 -0.008314696 -0.01
v 0.0038268326 -0.009238796 -0.01
v 0.0038268326 -0.009238796 0.01
v 0.005555702 -0.008314696 0.01
v 0.0038268326 -0.009238796 -0.01
v 0.0019509008 -0.009807853 -0.01
v 0.0019509008 -0.009807853 0.01
v 0.0038268326 -0.009238796 0.01
v 0.0019509008 -0.009807853 -0.01
v -3.2584135E-09 -0.01 -0.01
v -3.2584135E-09 -0.01 0.01
v 0.0019509008 -0.009807853 0.01
v -3.2584135E-09 -0.01 -0.01
v -0.0019509072 -0.009807852 -0.01
v -0.0019509072 -0.009807852 0.01
v -3.2584135E-09 -0.01 0.01
v -0.0019509072 -0.009807852 -0.01
v -0.0038268387 -0.009238793 -0.01
v -0.0038268387 -0.009238793 0.01
v -0.0019509072 -0.009807852 0.01
v -0.0038268387 -0.009238793 -0.01
v -0.005555707 -0.008314692 -0.01
v -0.005555707 -0.008314692 0.01
v -0.0038268387 -0.009238793 0.01
v -0.005555707 -0.008314692 -0.01
v -0.0070710722 -0.0070710634 -0.01
v -0.0070710722 -0.0070710634 0.01
v -0.005555707 -0.008314692 0.01
v -0.0070710722 -0.0070710634 -0.01
v -0.0083147 -0.0055556963 -0.01
v -0.0083147 -0.0055556963 0.01
v -0.0070710722 -0.0070710634 0.01
v -0.0083147 -0.0055556963 -0.01
v -0.009238798 -0.0038268268 -0.01
v -0.009238798 -0.0038268268 0.01
v -0.0083147 -0.0055556963 0.01
v -0.009238798 -0.0038268268 -0.01
v -0.009807854 -0.0019508946 -0.01
v -0.009807854 -0.0019508946 0.01
v -0.009238798 -0.0038268268 0.01
v -0.009807854 -0.0019508946 -0.01
v -0.01 9.655992E-09 -0.01
v -0.01 9.655992E-09 0.01
v -0.009807854 -0.0019508946 0.01
v -0.01 9.655992E-09 -0.01
v -0.00980785 0.0019509135 -0.01
v -0.00980785 0.0019509135 0.01
v -0.01 9.655992E-09 0.01
v -0.00980785 0.0019509135 -0.01
v -0.009238791 0.0038268445 -0.01
v -0.009238791 0.0038268445 0.01
v -0.00980785 0.0019509135 0.01
v -0.009238791 0.0038268445 -0.01
v -0.00831469 0.0055557126 -0.01
v -0.00831469 0.0055557126 0.01
v -0.009238791 0.0038268445 0.01
v -0.00831469 0.0055557126 -0.01
v -0.0070710587 0.0070710764 -0.01
v -0.0070710587 0.0070710764 0.01
v -0.00831469 0.0055557126 0.01
v -0.0070710587 0.0070710764 -0.01
v -0.005555691 0.008314704 -0.01
v -0.005555691 0.008314704 0.01
v -0.0070710587 0.0070710764 0.01
v -0.005555691 0.008314704 -0.01
v -0.0038268208 0.009238801 -0.01
v -0.0038268208 0.009238801 0.01
v -0.005555691 0.008314704 0.01
v 0.009807852 0.0019509034 0.01
v 0.01 7.5497897E-10 0.01
v 0.009807853 -0.001950902 0.01
v 0.009238795 -0.0038268326 0.01
v 0.009238794 0.0038268343 0.01
v 0.008314696 -0.005555702 0.01
v 0.008314696 0.005555702 0.01
v 0.0070710676 0.0070710676 0.01
v 0.0070710676 -0.0070710676 0.01
v 0.0055557024 0.008314696 0.01
v 0.005555702 -0.008314696 0.01
v 0.0038268345 0.009238794 0.01
v 0.0038268326 -0.009238796 0.01
v 0.0019509032 0.009807852 0.01
v 0.0019509008 -0.009807853 0.01
v -0 0.01 0.01
v -3.2584135E-09 -0.01 0.01
v -0.0019508882 0.009807855 0.01
v -0.0019509072 -0.009807852 0.01
v -0.0038268208 0.009238801 0.01
v -0.0038268387 -0.009238793 0.01
v -0.005555691 0.008314704 0.01
v -0.005555707 -0.008314692 0.01
v -0.0070710587 0.0070710764 0.01
v -0.0070710722 -0.0070710634 0.01
v -0.00831469 0.0055557126 0.01
v -0.0083147 -0.0055556963 0.01
v -0.009238791 0.0038268445 0.01
v -0.009238798 -0.0038268268 0.01
v -0.00980785 0.0019509135 0.01
v -0.009807854 -0.0019508946 0.01
v -0.01 9.655992E-09 0.01
v -0.0038268208 0.009238801 -0.01
v -0.0019508882 0.009807855 -0.01
v -0.0019508882 0.009807855 0.01
v -0.0038268208 0.009238801 0.01
v -0.0019508882 0.009807855 -0.01
v -0 0.01 -0.01
v -0 0.01 0.01
v -0.0019508882 0.009807855 0.01
v 0.009807853 -0.001950902 -0.01
v 0.01 7.5497897E-10 -0.01
v 0.009807852 0.0019509034 -0.01
v 0.009238795 -0.0038268326 -0.01
v 0.009238794 0.0038268343 -0.01
v 0.008314696 -0.005555702 -0.01
v 0.008314696 0.005555702 -0.01
v 0.0070710676 -0.0070710676 -0.01
v 0.0070710676 0.0070710676 -0.01
v 0.005555702 -0.008314696 -0.01
v 0.0055557024 0.008314696 -0.01
v 0.0038268345 0.009238794 -0.01
v 0.0038268326 -0.009238796 -0.01
v 0.0019509032 0.009807852 -0.01
v 0.0019509008 -0.009807853 -0.01
v -0 0.01 -0.01
v -3.2584135E-09 -0.01 -0.01
v -0.0019508882 0.009807855 -0.01
v -0.0019509072 -0.009807852 -0.01
v -0.0038268208 0.009238801 -0.01
v -0.0038268387 -0.009238793 -0.01
v -0.005555691 0.008314704 -0.01
v -0.005555707 -0.008314692 -0.01
v -0.0070710587 0.0070710764 -0.01
v -0.0070710722 -0.0070710634 -0.01
v -0.00831469 0.0055557126 -0.01
v -0.0083147 -0.0055556963 -0.01
v -0.009238791 0.0038268445 -0.01
v -0.009238798 -0.0038268268 -0.01
v -0.00980785 0.0019509135 -0.01
v -0.009807854 -0.0019508946 -0.01
v -0.01 9.655992E-09 -0.01
vn 0.09801729 0.9951847 0
vn 0.09801729 0.9951847 0
vn 0.09801729 0.9951847 0
vn 0.09801729 0.9951847 0
vn 0.29028463 0.95694035 0
vn 0.29028463 0.95694035 0
vn 0.29028463 0.95694035 0
vn 0.29028463 0.95694035 0
vn 0.4713967 0.8819213 0
vn 0.4713967 0.8819213 0
vn 0.4713967 0.8819213 0
vn 0.4713967 0.8819213 0
vn 0.6343934 0.77301043 0
vn 0.6343934 0.77301043 0
vn 0.6343934 0.77301043 0
vn 0.6343934 0.77301043 0
vn 0.77301043 0.6343934 0
vn 0.77301043 0.6343934 0
vn 0.77301043 0.6343934 0
vn 0.77301043 0.6343934 0
vn 0.8819214 0.4713965 0
vn 0.8819214 0.4713965 0
vn 0.8819214 0.4713965 0
vn 0.8819214 0.4713965 0
vn 0.95694035 0.29028475 0
vn 0.95694035 0.29028475 0
vn 0.95694035 0.29028475 0
vn 0.95694035 0.29028475 0
vn 0.9951847 0.09801731 0
vn 0.9951847 0.09801731 0
vn 0.9951847 0.09801731 0
vn 0.9951847 0.09801731 0
vn 0.9951847 -0.09801701 0
vn 0.9951847 -0.09801701 0
vn 0.9951847 -0.09801701 0
vn 0.9951847 -0.09801701 0
vn 0.95694035 -0.29028475 0
vn 0.95694035 -0.29028475 0
vn 0.95694035 -0.29028475 0
vn 0.95694035 -0.29028475 0
vn 0.8819214 -0.47139645 0
vn 0.8819214 -0.47139645 0
vn 0.8819214 -0.47139645 0
vn 0.8819214 -0.47139645 0
vn 0.77301043 -0.6343934 0
vn 0.77301043 -0.6343934 0
vn 0.77301043 -0.6343934 0
vn 0.77301043 -0.6343934 0
vn 0.6343934 -0.77301043 0
vn 0.6343934 -0.77301043 0
vn 0.6343934 -0.77301043 0
vn 0.6343934 -0.77301043 0
vn 0.4713967 -0.8819213 0
vn 0.4713967 -0.8819213 0
vn 0.4713967 -0.8819213 0
vn 0.4713967 -0.8819213 0
vn 0.29028428 -0.9569405 0
vn 0.29028428 -0.9569405 0
vn 0.29028428 -0.9569405 0
vn 0.29028428 -0.9569405 0
vn 0.09801695 -0.9951847 0
vn 0.09801695 -0.9951847 0
vn 0.09801695 -0.9951847 0
vn 0.09801695 -0.9951847 0
vn -0.09801756 -0.9951847 0
vn -0.09801756 -0.9951847 0
vn -0.09801756 -0.9951847 0
vn -0.09801756 -0.9951847 0
vn -0.29028517 -0.9569401 0
vn -0.29028517 -0.9569401 0
vn -0.29028517 -0.9569401 0
vn -0.29028517 -0.9569401 0
vn -0.47139704 -0.88192105 0
vn -0.47139704 -0.88192105 0
vn -0.47139704 -0.88192105 0
vn -0.47139704 -0.88192105 0
vn -0.6343937 -0.77301013 0
vn -0.6343937 -0.77301013 0
vn -0.6343937 -0.77301013 0
vn -0.6343937 -0.77301013 0
vn -0.77301085 -0.6343927 0
vn -0.77301085 -0.6343927 0
vn -0.77301085 -0.6343927 0
vn -0.77301085 -0.6343927 0
vn -0.8819216 -0.4713961 0
vn -0.8819216 -0.4713961 0
vn -0.8819216 -0.4713961 0
vn -0.8819216 -0.4713961 0
vn -0.95694065 -0.2902837 0
vn -0.95694065 -0.2902837 0
vn -0.95694065 -0.2902837 0
vn -0.95694065 -0.2902837 0
vn -0.99518484 -0.098016344 0
vn -0.99518484 -0.098016344 0
vn -0.99518484 -0.098016344 0
vn -0.99518484 -0.098016344 0
vn -0.9951846 0.09801815 0
vn -0.9951846 0.09801815 0
vn -0.9951846 0.09801815 0
vn -0.9951846 0.09801815 0
vn -0.95694 0.29028577 0
vn -0.95694 0.29028577 0
vn -0.95694 0.29028577 0
vn -0.95694 0.29028577 0
vn -0.88192075 0.47139764 0
vn -0.88192075 0.47139764 0
vn -0.88192075 0.47139764 0
vn -0.88192075 0.47139764 0
vn -0.7730096 0.63439435 0
vn -0.7730096 0.63439435 0
vn -0.7730096 0.63439435 0
vn -0.7730096 0.63439435 0
vn -0.6343924 0.77301115 0
vn -0.6343924 0.77301115 0
vn -0.6343924 0.77301115 0
vn -0.6343924 0.77301115 0
vn -0.4713955 0.88192195 0
vn -0.4713955 0.88192195 0
vn -0.4713955 0.88192195 0
vn -0.4713955 0.88192195 0
vn -0 0 1
vn -0 0 1
vn -0 0 1
vn -0 0 1
vn -0 0 1
vn -0 0 1
vn -0 0 1
vn -0 0 1
vn -0 0 1
vn -0 0 1
vn -0 0 1
vn -0 0 1
vn -0 0 1
vn -0 0 1
vn -0 0 1
vn -0 0 1
vn -0 0 1
vn -0 0 1
vn -0 0 1
vn -0 0 1
vn -0 0 1
vn -0 0 1
vn -0 0 1
vn -0 0 1
vn -0 0 1
vn -0 0 1
vn -0 0 1
vn -0 0 1
vn -0 0 1
vn -0 0 1
vn -0 0 1
vn -0 0 1
vn -0.29028302 0.9569409 0
vn -0.29028302 0.9569409 0
vn -0.29028302 0.9569409 0
vn -0.29028302 0.9569409 0
vn -0.09801653 0.99518484 0
vn -0.09801653 0.99518484 0
vn -0.09801653 0.99518484 0
vn -0.09801653 0.99518484 0
vn -0 0 -1
vn -0 0 -1
vn -0 0 -1
vn -0 0 -1
vn -0 0 -1
vn -0 0 -1
vn -0 0 -1
vn -0 0 -1
vn -0 0 -1
vn -0 0 -1
vn -0 0 -1
vn -0 0 -1
vn -0 0 -1
vn -0 0 -1
vn -0 0 -1
vn -0 0 -1
vn -0 0 -1
vn -0 0 -1
vn -0 0 -1
vn -0 0 -1
vn -0 0 -1
vn -0 0 -1
vn -0 0 -1
vn -0 0 -1
vn -0 0 -1
vn -0 0 -1
vn -0 0 -1
vn -0 0 -1
vn -0 0 -1
vn -0 0 -1
vn -0 0 -1
vn -0 0 -1
g Stool_0
f 3/3/3 2/2/2 1/1/1
f 4/4/4 3/3/3 1/1/1
f 7/7/7 6/6/6 5/5/5
f 8/8/8 7/7/7 5/5/5
f 11/11/11 10/10/10 9/9/9
f 12/12/12 11/11/11 9/9/9
f 15/15/15 14/14/14 13/13/13
f 16/16/16 15/15/15 13/13/13
f 19/19/19 18/18/18 17/17/17
f 20/20/20 19/19/19 17/17/17
f 23/23/23 22/22/22 21/21/21
f 24/24/24 23/23/23 21/21/21
f 27/27/27 26/26/26 25/25/25
f 28/28/28 27/27/27 25/25/25
f 31/31/31 30/30/30 29/29/29
f 32/32/32 31/31/31 29/29/29
f 35/35/35 34/34/34 33/33/33
f 36/36/36 35/35/35 33/33/33
f 39/39/39 38/38/38 37/37/37
f 40/40/40 39/39/39 37/37/37
f 43/43/43 42/42/42 41/41/41
f 44/44/44 43/43/43 41/41/41
f 47/47/47 46/46/46 45/45/45
f 48/48/48 47/47/47 45/45/45
f 51/51/51 50/50/50 49/49/49
f 52/52/52 51/51/51 49/49/49
f 55/55/55 54/54/54 53/53/53
f 56/56/56 55/55/55 53/53/53
f 59/59/59 58/58/58 57/57/57
f 60/60/60 59/59/59 57/57/57
f 63/63/63 62/62/62 61/61/61
f 64/64/64 63/63/63 61/61/61
f 67/67/67 66/66/66 65/65/65
f 68/68/68 67/67/67 65/65/65
f 71/71/71 70/70/70 69/69/69
f 72/72/72 71/71/71 69/69/69
f 75/75/75 74/74/74 73/73/73
f 76/76/76 75/75/75 73/73/73
f 79/79/79 78/78/78 77/77/77
f 80/80/80 79/79/79 77/77/77
f 83/83/83 82/82/82 81/81/81
f 84/84/84 83/83/83 81/81/81
f 87/87/87 86/86/86 85/85/85
f 88/88/88 87/87/87 85/85/85
f 91/91/91 90/90/90 89/89/89
f 92/92/92 91/91/91 89/89/89
f 95/95/95 94/94/94 93/93/93
f 96/96/96 95/95/95 93/93/93
f 99/99/99 98/98/98 97/97/97
f 100/100/100 99/99/99 97/97/97
f 103/103/103 102/102/102 101/101/101
f 104/104/104 103/103/103 101/101/101
f 107/107/107 106/106/106 105/105/105
f 108/108/108 107/107/107 105/105/105
f 111/111/111 110/110/110 109/109/109
f 112/112/112 111/111/111 109/109/109
f 115/115/115 114/114/114 113/113/113
f 116/116/116 115/115/115 113/113/113
f 119/119/119 118/118/118 117/117/117
f 120/120/120 119/119/119 117/117/117
f 123/123/123 122/122/122 121/121/121
f 121/121/121 124/124/124 123/123/123
f 121/121/121 125/125/125 124/124/124
f 125/125/125 126/126/126 124/124/124
f 125/125/125 127/127/127 126/126/126
f 127/127/127 128/128/128 126/126/126
f 128/128/128 129/129/129 126/126/126
f 128/128/128 130/130/130 129/129/129
f 130/130/130 131/131/131 129/129/129
f 130/130/130 132/132/132 131/131/131
f 132/132/132 133/133/133 131/131/131
f 132/132/132 134/134/134 133/133/133
f 134/134/134 135/135/135 133/133/133
f 134/134/134 136/136/136 135/135/135
f 136/136/136 137/137/137 135/135/135
f 136/136/136 138/138/138 137/137/137
f 138/138/138 139/139/139 137/137/137
f 138/138/138 140/140/140 139/139/139
f 140/140/140 141/141/141 139/139/139
f 140/140/140 142/142/142 141/141/141
f 142/142/142 143/143/143 141/141/141
f 142/142/142 144/144/144 143/143/143
f 144/144/144 145/145/145 143/143/143
f 144/144/144 146/146/146 145/145/145
f 146/146/146 147/147/147 145/145/145
f 146/146/146 148/148/148 147/147/147
f 148/148/148 149/149/149 147/147/147
f 148/148/148 150/150/150 149/149/149
f 150/150/150 151/151/151 149/149/149
f 150/150/150 152/152/152 151/151/151
f 155/155/155 154/154/154 153/153/153
f 156/156/156 155/155/155 153/153/153
f 159/159/159 158/158/158 157/157/157
f 160/160/160 159/159/159 157/157/157
f 163/163/163 162/162/162 161/161/161
f 161/161/161 164/164/164 163/163/163
f 164/164/164 165/165/165 163/163/163
f 164/164/164 166/166/166 165/165/165
f 166/166/166 167/167/167 165/165/165
f 166/166/166 168/168/168 167/167/167
f 168/168/168 169/169/169 167/167/167
f 168/168/168 170/170/170 169/169/169
f 170/170/170 171/171/171 169/169/169
f 170/170/170 172/172/172 171/171/171
f 170/170/170 173/173/173 172/172/172
f 173/173/173 174/174/174 172/172/172
f 173/173/173 175/175/175 174/174/174
f 175/175/175 176/176/176 174/174/174
f 175/175/175 177/177/177 176/176/176
f 177/177/177 178/178/178 176/176/176
f 177/177/177 179/179/179 178/178/178
f 179/179/179 180/180/180 178/178/178
f 179/179/179 181/181/181 180/180/180
f 181/181/181 182/182/182 180/180/180
f 181/181/181 183/183/183 182/182/182
f 183/183/183 184/184/184 182/182/182
f 183/183/183 185/185/185 184/184/184
f 185/185/185 186/186/186 184/184/184
f 185/185/185 187/187/187 186/186/186
f 187/187/187 188/188/188 186/186/186
f 187/187/187 189/189/189 188/188/188
f 189/189/189 190/190/190 188/188/188
f 189/189/189 191/191/191 190/190/190
f 191/191/191 192/192/192 190/190/190
