g Tile_Mid_01
v -1.1858842 -2.7736795 0.0058994098
v -1.1296341 -2.7350411 0.12523258
v 0.79080755 -2.7350447 0.12523253
v 0.8470568 -2.773678 0.005899434
v -1.1858842 -1.3773136 0.005899458
v 0.79080755 -1.4159489 0.12523253
v 0.8470568 -1.3773136 0.005899434
v -1.1296357 -1.415952 0.12523243
v 0.8543463 2.1336737 -0.13420554
v 0.87060887 2.1499362 0.04402821
v 1.1580921 2.1499362 0.044028282
v 1.1743485 2.1336782 -0.13420554
v 0.8543463 2.4536774 -0.13420554
v 1.1580921 2.4374194 0.044028282
v 1.1743485 2.4536788 -0.13420554
v 0.87060887 2.4374177 0.044028234
v -2.8799994 -1.3773136 -0.04403315
v -2.7768786 -1.2710665 0.1342005
v 0.743936 -1.2710665 0.1342004
v 0.84705526 -1.3773136 -0.04403315
v -2.8799994 2.4626846 -0.04403308
v 0.743936 2.3564384 0.1342005
v 0.84705526 2.462686 -0.044033103
v -2.7768786 2.3564384 0.1342005
v 0.8470568 1.4154136 -0.06851378
v 0.90330607 1.2995098 0.093670696
v 0.90330607 -2.657771 0.09367065
v 0.8470568 -2.773678 -0.068513826
v 2.8799994 1.4154121 -0.06851376
v 2.82375 -2.6577725 0.09367063
v 2.8799963 -2.773678 -0.068513826
v 2.82375 1.2995067 0.093670696
v 0.53434724 2.4536774 -0.09696452
v 0.55060667 2.4699352 0.0812693
v 0.83808994 2.4699352 0.0812693
v 0.8543463 2.4536774 -0.09696449
v 0.53434724 2.7736795 -0.09696449
v 0.83808994 2.7574215 0.0812693
v 0.8543463 2.7736764 -0.09696452
v 0.55060667 2.7574184 0.08126927
vt 0.8293334 0.7396461
vt 0.8316011 0.74174684
vt 0.8699033 0.7415236
vt 0.87285954 0.73949534
vt 0.8294392 0.76969635
vt 0.87004876 0.76745
vt 0.87285954 0.76954573
vt 0.8317375 0.7676564
vt 0.6149619 0.6576796
vt 0.6176642 0.6549661
vt 0.61765534 0.6507193
vt 0.6149419 0.64801705
vt 0.6246246 0.6576595
vt 0.6219022 0.6507104
vt 0.6246044 0.64799696
vt 0.621911 0.6549573
vt 0.74155587 0.64583147
vt 0.7449471 0.6494124
vt 0.81731415 0.64909476
vt 0.82093173 0.64583147
vt 0.74155587 0.7255844
vt 0.81747144 0.72149
vt 0.821221 0.7253035
vt 0.7450429 0.72186387
vt 0.82885987 0.73270243
vt 0.8316593 0.7290295
vt 0.8314801 0.64982724
vt 0.8285474 0.64560926
vt 0.8732978 0.732546
vt 0.8701012 0.64958596
vt 0.8732978 0.64560926
vt 0.87050015 0.728818
vt 0.6149916 0.66553825
vt 0.6176865 0.662784
vt 0.6176777 0.65854865
vt 0.61497164 0.6558538
vt 0.62462777 0.66553825
vt 0.6219129 0.6585398
vt 0.6246078 0.6558337
vt 0.6219218 0.66277504
vn -0.5353012 -0.69651496 0.47782806
vn -0.069770224 -0.109057195 0.99158394
vn 0.069769196 -0.10905755 0.99158394
vn 0.5353098 -0.69650704 0.4778299
vn -0.53529716 0.6965153 0.47783208
vn 0.06976958 0.1090574 0.99158394
vn 0.5353045 0.6965084 0.47783378
vn -0.0697704 0.10905672 0.99158394
vn -0.7012908 -0.7012956 0.12796745
vn -0.46407136 -0.4640749 0.7545013
vn 0.46407858 -0.4640739 0.7544976
vn 0.70129484 -0.7012961 0.12794246
vn -0.7012992 0.70128787 0.12796362
vn 0.46407717 0.4640762 0.75449693
vn 0.70128894 0.7013024 0.12794025
vn -0.4640723 0.46407467 0.75450087
vn -0.54834116 -0.5395676 0.63889664
vn -0.062736854 -0.060441826 0.99619824
vn 0.06273697 -0.060441684 0.99619824
vn 0.5483409 -0.539571 0.63889384
vn -0.54834217 0.53956664 0.6388965
vn 0.06273705 0.060441617 0.99619824
vn 0.54833996 0.5395719 0.63889384
vn -0.0627368 0.060441818 0.99619824
vn -0.69583607 0.44790173 0.56142336
vn -0.11043078 0.04569746 0.9928328
vn -0.11043126 -0.04569728 0.99283266
vn -0.69583106 -0.4479043 0.5614276
vn 0.69583696 0.44790524 0.5614195
vn 0.110431224 -0.04569712 0.99283266
vn 0.6958315 -0.4479083 0.56142384
vn 0.11043103 0.045697298 0.99283266
vn -0.70129895 -0.7012913 0.12794593
vn -0.4640736 -0.46407354 0.75450075
vn 0.4640776 -0.46407273 0.7544988
vn 0.70129603 -0.7012964 0.1279339
vn -0.70129514 0.70129514 0.12794594
vn 0.4640755 0.46407583 0.75449824
vn 0.70129997 0.7012925 0.12793393
vn -0.46407568 0.46407056 0.7545013
g Tile_Mid_01_0
f 3/3/3 2/2/2 1/1/1
f 4/4/4 3/3/3 1/1/1
f 1/1/1 2/2/2 5/5/5
f 6/6/6 3/3/3 4/4/4
f 3/3/3 6/6/6 2/2/2
f 7/7/7 6/6/6 4/4/4
f 5/5/5 8/8/8 7/7/7
f 2/2/2 8/8/8 5/5/5
f 6/6/6 8/8/8 2/2/2
f 8/8/8 6/6/6 7/7/7
f 11/11/11 10/10/10 9/9/9
f 12/12/12 11/11/11 9/9/9
f 9/9/9 10/10/10 13/13/13
f 14/14/14 11/11/11 12/12/12
f 11/11/11 14/14/14 10/10/10
f 15/15/15 14/14/14 12/12/12
f 13/13/13 16/16/16 15/15/15
f 10/10/10 16/16/16 13/13/13
f 14/14/14 16/16/16 10/10/10
f 16/16/16 14/14/14 15/15/15
f 19/19/19 18/18/18 17/17/17
f 20/20/20 19/19/19 17/17/17
f 17/17/17 18/18/18 21/21/21
f 22/22/22 19/19/19 20/20/20
f 19/19/19 22/22/22 18/18/18
f 23/23/23 22/22/22 20/20/20
f 21/21/21 24/24/24 23/23/23
f 18/18/18 24/24/24 21/21/21
f 22/22/22 24/24/24 18/18/18
f 24/24/24 22/22/22 23/23/23
f 27/27/27 26/26/26 25/25/25
f 28/28/28 27/27/27 25/25/25
f 25/25/25 26/26/26 29/29/29
f 30/30/30 27/27/27 28/28/28
f 27/27/27 30/30/30 26/26/26
f 31/31/31 30/30/30 28/28/28
f 29/29/29 32/32/32 31/31/31
f 26/26/26 32/32/32 29/29/29
f 30/30/30 32/32/32 26/26/26
f 32/32/32 30/30/30 31/31/31
f 35/35/35 34/34/34 33/33/33
f 36/36/36 35/35/35 33/33/33
f 33/33/33 34/34/34 37/37/37
f 38/38/38 35/35/35 36/36/36
f 35/35/35 38/38/38 34/34/34
f 39/39/39 38/38/38 36/36/36
f 37/37/37 40/40/40 39/39/39
f 34/34/34 40/40/40 37/37/37
f 38/38/38 40/40/40 34/34/34
f 40/40/40 38/38/38 39/39/39
