g Tile_SM_01
v -2.4830794 0.95999795 -0.15144841
v -2.46682 0.97625744 0.02678547
v -2.1793368 0.97625744 0.02678547
v -2.1630805 0.9600003 -0.15144838
v -2.4830794 1.2799985 -0.15144841
v -2.1793368 1.2637384 0.02678547
v -2.1630805 1.2799978 -0.15144838
v -2.46682 1.2637384 0.02678547
v -1.2439767 -2.8799994 -0.026790304
v -1.1408575 -2.7737515 0.15144327
v 2.379958 -2.7737532 0.15144318
v 2.4830787 -2.8799977 -0.026790304
v -1.2439767 0.9599987 -0.026790256
v 2.379958 0.853751 0.15144338
v 2.4830787 0.9599995 -0.026790231
v -1.1408575 0.85374945 0.15144332
v -2.1630805 0.9599987 -0.026790231
v -2.0568326 1.0131258 0.1353943
v 1.5706747 1.0131227 0.13539426
v 1.6769209 0.9599995 -0.026790256
v -2.1630805 2.8799987 -0.026790231
v 1.5706747 2.826876 0.13539426
v 1.6769209 2.88 -0.026790183
v -2.0568326 2.8268785 0.13539435
vt 0.5989867 0.657808
vt 0.6019896 0.6550409
vt 0.60198057 0.6507102
vt 0.5989867 0.64795464
vt 0.6090874 0.6577874
vt 0.60631126 0.65070117
vt 0.6090667 0.6479341
vt 0.6063204 0.65503186
vt 0.7403225 0.64459676
vt 0.74381864 0.64828855
vt 0.81842655 0.647961
vt 0.82215625 0.64459676
vt 0.7403225 0.7268191
vt 0.8185887 0.72259784
vt 0.8224544 0.72652954
vt 0.7439176 0.72298336
vt 0.60238415 0.77602077
vt 0.60520494 0.77242464
vt 0.6048363 0.69643486
vt 0.60238415 0.692758
vt 0.6449933 0.77586925
vt 0.64199185 0.6962584
vt 0.6449933 0.692758
vt 0.6423703 0.7722372
vn -0.7012934 -0.70129657 0.12794764
vn -0.46407467 -0.46407697 0.75449795
vn 0.464077 -0.464077 0.75449663
vn 0.70129406 -0.70129836 0.12793516
vn -0.70129263 0.7012963 0.12795348
vn 0.46407735 0.46407494 0.75449765
vn 0.70128965 0.70130163 0.12794133
vn -0.46407512 0.46407503 0.7544989
vn -0.54834074 -0.5395728 0.6388925
vn -0.06273703 -0.060441703 0.99619824
vn 0.06273665 -0.060442 0.99619824
vn 0.5483445 -0.53956574 0.6388953
vn -0.54833597 0.539572 0.6388973
vn 0.062737 0.06044176 0.99619824
vn 0.54833686 0.5395676 0.6389003
vn -0.062737174 0.060441546 0.99619824
vn -0.45750582 -0.711844 0.53288496
vn -0.04965138 -0.11493596 0.9921313
vn 0.04965096 -0.11493605 0.9921313
vn 0.45750934 -0.7118432 0.53288317
vn -0.45751774 0.71184075 0.53287923
vn 0.049651213 0.11493603 0.9921313
vn 0.45751137 0.71184915 0.53287345
vn -0.049650595 0.11493665 0.9921312
g Tile_SM_01_0
f 3/3/3 2/2/2 1/1/1
f 4/4/4 3/3/3 1/1/1
f 1/1/1 2/2/2 5/5/5
f 6/6/6 3/3/3 4/4/4
f 3/3/3 6/6/6 2/2/2
f 7/7/7 6/6/6 4/4/4
f 5/5/5 8/8/8 7/7/7
f 2/2/2 8/8/8 5/5/5
f 6/6/6 8/8/8 2/2/2
f 8/8/8 6/6/6 7/7/7
f 11/11/11 10/10/10 9/9/9
f 12/12/12 11/11/11 9/9/9
f 9/9/9 10/10/10 13/13/13
f 14/14/14 11/11/11 12/12/12
f 11/11/11 14/14/14 10/10/10
f 15/15/15 14/14/14 12/12/12
f 13/13/13 16/16/16 15/15/15
f 10/10/10 16/16/16 13/13/13
f 14/14/14 16/16/16 10/10/10
f 16/16/16 14/14/14 15/15/15
f 19/19/19 18/18/18 17/17/17
f 20/20/20 19/19/19 17/17/17
f 17/17/17 18/18/18 21/21/21
f 22/22/22 19/19/19 20/20/20
f 19/19/19 22/22/22 18/18/18
f 23/23/23 22/22/22 20/20/20
f 21/21/21 24/24/24 23/23/23
f 18/18/18 24/24/24 21/21/21
f 22/22/22 24/24/24 18/18/18
f 24/24/24 22/22/22 23/23/23
