g VineEnd
v -1.4258413 -1.9865012 1.5272641
v 1.5374475 -1.968352 1.1509005
v 0.08356853 -2.5648854 1.3285636
v 1.5374475 -1.968352 1.1509005
v 2.7813592 0.82623243 1.0260758
v 2.5309405 -0.79526013 1.0386047
v 2.7813592 0.82623243 1.0260758
v 0.27489236 2.5438836 1.3650407
v 1.5920603 1.899815 1.1899887
v 1.5374475 -1.968352 1.1509005
v 0.27489236 2.5438836 1.3650407
v 2.7813592 0.82623243 1.0260758
v 0.27489236 2.5438836 1.3650407
v -2.1061032 0.9359292 1.4440303
v -1.2720032 2.2902548 1.5586047
v 1.5374475 -1.968352 1.1509005
v -2.1061032 0.9359292 1.4440303
v 0.27489236 2.5438836 1.3650407
v -1.4258413 -1.9865012 1.5272641
v -2.1061032 0.9359292 1.4440303
v 1.5374475 -1.968352 1.1509005
v -2.281257 -0.6177988 1.6522585
v -2.1061032 0.9359292 1.4440303
v -1.4258413 -1.9865012 1.5272641
v -1.6300471 -1.4829079 -2.620136
v -1.6300471 1.4829069 -2.620135
v 0.44851166 -4.4455913E-07 -2.5680768
v -2.1478403 -0.26566118 -4.943047
v -1.8898776 0.97128695 -4.919446
v -3.237521 -0.7809823 0.6449204
v -3.008033 1.2292058 0.33949763
v -2.281257 -0.6177988 1.6522585
v -1.1858318 2.1231673 -4.9201274
v -2.1061032 0.9359292 1.4440303
v -1.9092557 2.9799912 0.421313
v 0.18998504 2.0867953 -4.988385
v -1.2720032 2.2902548 1.5586047
v 0.087716095 3.2913554 0.085130125
v 1.131103 1.2462789 -5.058949
v 0.27489236 2.5438836 1.3650407
v 1.7801661 2.4407978 -0.19978797
v 1.5920603 1.899815 1.1899887
v 1.7750057 0.061566856 -5.125059
v 3.3037646 1.0345097 -0.4562807
v 2.7813592 0.82623243 1.0260758
v 2.9658685 -1.0661248 -0.39939776
v 1.053913 -1.1126932 -5.1242127
v 2.5309405 -0.79526013 1.0386047
v 1.6739714 -2.5765867 -0.18191206
v -0.14516056 -1.5091257 -5.0772505
v 1.5374475 -1.968352 1.1509005
v -0.20623228 -3.333848 0.13461319
v -1.4931161 -1.4762933 -5.010456
v 0.08356853 -2.5648854 1.3285636
v -2.1471736 -2.5663056 0.46136385
v -2.1478403 -0.26566118 -4.943047
v -1.4258413 -1.9865012 1.5272641
v -3.237521 -0.7809823 0.6449204
v -2.281257 -0.6177988 1.6522585
v 0.44851166 -4.4455913E-07 -2.5680768
v -1.6300471 1.4829069 -2.620135
v 1.1514877 2.3994155 -3.0883946
v -1.1024475 3.8823476 -4.1821895
v 1.375765 4.0821605 -5.049636
v -0.42825532 4.798876 -7.7761993
v -3.2098286 3.8823724 -7.307933
v -2.3036623 4.0821624 -10.926786
v 0.14650631 3.8823493 -11.9607935
v -2.2812788 2.3994186 -14.087285
v 0.5002563 1.4829102 -14.555543
v -1.6958711 3.0024335E-06 -15.306021
v 0.5002563 1.4829102 -14.555543
v -1.6958711 3.0024335E-06 -15.306021
v 0.5002563 -1.4829047 -14.555544
v 2.9280515 2.1315666E-06 -12.429044
v 2.4286046 2.522893 -11.723443
v 0.14650631 3.8823493 -11.9607935
v 2.3533137 3.8823724 -8.244466
v -0.42825532 4.798876 -7.7761993
v 1.375765 4.0821605 -5.049636
v 4.07242 1.4829143 -8.533871
v 3.3982308 2.3994238 -4.939869
v 1.1514877 2.3994155 -3.0883946
v 2.8706079 -2.8250327E-07 -3.3778117
v 0.44851166 -4.4455913E-07 -2.5680768
v 4.3004913 2.6313148E-07 -5.5420284
v 4.07242 -1.4829123 -8.533872
v 1.1514875 -2.399416 -3.088396
v -1.6300471 -1.4829079 -2.620136
v 3.398231 -2.3994234 -4.93987
v 2.4286046 -2.522889 -11.723445
v 2.353314 -3.8823705 -8.244468
v 1.3757646 -4.082161 -5.0496373
v 0.14650655 -3.8823454 -11.960795
v -1.1024477 -3.882347 -4.1821914
v -0.42825556 -4.7988744 -7.776202
v -2.281279 -2.3994129 -14.087286
v -1.6958711 3.0024335E-06 -15.306021
v -2.3036625 -4.082159 -10.926789
v -3.2098289 -3.8823705 -7.307935
v -3.3565013 -2.5228908 -4.25298
v -4.3541718 -2.3994217 -11.203113
v -3.883988 -4.2146212E-08 -3.7139382
v -1.6300471 1.4829069 -2.620135
v -4.9289355 -1.4829125 -7.018529
v -4.0003934 2.6513776E-06 -13.797857
v -1.6958711 3.0024335E-06 -15.306021
v -2.2812788 2.3994186 -14.087285
v -3.3565013 2.522891 -4.252979
v -1.1024475 3.8823476 -4.1821895
v -3.2098286 3.8823724 -7.307933
v -4.9289355 1.4829141 -7.018528
v -5.2283916 1.7812143E-06 -10.434386
v -4.3541718 2.3994255 -11.203112
v -2.3036623 4.0821624 -10.926786
vt 0.71270835 0.20446017
vt 0.7297562 0.2045495
vt 0.72123224 0.20450482
vt 0.7297562 0.2045495
vt 0.746804 0.20463884
vt 0.7382801 0.20459418
vt 0.746804 0.20463884
vt 0.7638519 0.20472819
vt 0.75532794 0.20468351
vt 0.7297562 0.2045495
vt 0.7638519 0.20472819
vt 0.746804 0.20463884
vt 0.7638519 0.20472819
vt 0.78089976 0.20481753
vt 0.7723758 0.20477289
vt 0.7297562 0.2045495
vt 0.78089976 0.20481753
vt 0.7638519 0.20472819
vt 0.71270835 0.20446017
vt 0.78089976 0.20481753
vt 0.7297562 0.2045495
vt 0.78942364 0.20486222
vt 0.78089976 0.20481753
vt 0.71270835 0.20446017
vt 0.65534455 0.086196445
vt 0.2992888 0.086196385
vt 0.47731677 0.03911545
vt 0.79107773 0.15558754
vt 0.7816067 0.15553792
vt 0.78942364 0.20486222
vt 0.78089976 0.20481753
vt 0.78942364 0.20486222
vt 0.7721356 0.15548828
vt 0.78089976 0.20481753
vt 0.7723758 0.20477289
vt 0.7626646 0.15543866
vt 0.7723758 0.20477289
vt 0.7638519 0.20472819
vt 0.7531936 0.15538901
vt 0.7638519 0.20472819
vt 0.75532794 0.20468351
vt 0.75532794 0.20468351
vt 0.74372256 0.15533936
vt 0.746804 0.20463884
vt 0.746804 0.20463884
vt 0.7382801 0.20459418
vt 0.73425156 0.15528974
vt 0.7382801 0.20459418
vt 0.7297562 0.2045495
vt 0.72478056 0.15524012
vt 0.7297562 0.2045495
vt 0.72123224 0.20450482
vt 0.7153095 0.15519045
vt 0.72123224 0.20450482
vt 0.71270835 0.20446017
vt 0.70583844 0.1551408
vt 0.71270835 0.20446017
vt 0.7041844 0.20441547
vt 0.7041844 0.20441547
vt 0.47731677 0.03911545
vt 0.2992888 0.086196385
vt 0.39947075 0.1400174
vt 0.3393453 0.21385773
vt 0.38601074 0.2662401
vt 0.35290858 0.41827437
vt 0.3033298 0.38875923
vt 0.31862262 0.62692803
vt 0.3647277 0.70256686
vt 0.30073267 0.8254681
vt 0.39819503 0.8967366
vt 0.22731677 0.93300223
vt 0.39819503 0.8967366
vt 0.22731677 0.93300223
vt 0.5564382 0.8967368
vt 0.47731665 0.7484436
vt 0.42024025 0.69369936
vt 0.3647277 0.70256686
vt 0.4022704 0.4481774
vt 0.35290858 0.41827437
vt 0.38601074 0.2662401
vt 0.45217457 0.46699405
vt 0.43307903 0.2642697
vt 0.39947075 0.1400174
vt 0.47731665 0.16579987
vt 0.47731677 0.03911545
vt 0.47731665 0.29674986
vt 0.50245875 0.46699414
vt 0.5551626 0.14001746
vt 0.65534455 0.086196445
vt 0.5215543 0.26426974
vt 0.534393 0.6936996
vt 0.5523629 0.4481775
vt 0.5686226 0.26624027
vt 0.5899056 0.702567
vt 0.615288 0.21385778
vt 0.6017248 0.41827458
vt 0.6539007 0.8254684
vt 0.7273168 0.93300235
vt 0.6360107 0.6269282
vt 0.6513036 0.38875943
vt 0.6702402 0.2123303
vt 0.6833367 0.6403285
vt 0.7273167 0.17835571
vt 0.7992889 0.086196564
vt 0.7017995 0.37057254
vt 0.7273167 0.79361224
vt 0.7273168 0.93300235
vt 0.8007327 0.8254683
vt 0.78439313 0.21233042
vt 0.8393454 0.2138579
vt 0.8033298 0.38875937
vt 0.7528339 0.37057248
vt 0.7273167 0.59074575
vt 0.7712967 0.64032847
vt 0.81862265 0.6269282
vn 0.12605889 -0.011803368 0.9919526
vn 0.12605889 -0.011803368 0.9919526
vn 0.12605889 -0.011803368 0.9919526
vn 0.12605847 -0.011803612 0.9919526
vn 0.12605847 -0.011803612 0.9919526
vn 0.12605847 -0.011803612 0.9919526
vn 0.1260601 -0.011803355 0.99195236
vn 0.1260601 -0.011803355 0.99195236
vn 0.1260601 -0.011803355 0.99195236
vn 0.12605895 -0.011803573 0.9919525
vn 0.12605895 -0.011803573 0.9919525
vn 0.12605895 -0.011803573 0.9919525
vn 0.15044145 -0.17496951 0.9730123
vn 0.15044145 -0.17496951 0.9730123
vn 0.15044145 -0.17496951 0.9730123
vn 0.0547479 -0.032043234 0.99798596
vn 0.0547479 -0.032043234 0.99798596
vn 0.0547479 -0.032043234 0.99798596
vn 0.1254428 0.05740835 0.9904385
vn 0.1254428 0.05740835 0.9904385
vn 0.1254428 0.05740835 0.9904385
vn 0.29081857 0.09481051 0.95206916
vn 0.29081857 0.09481051 0.95206916
vn 0.29081857 0.09481051 0.95206916
vn -0.23965561 -0.28368935 0.9284857
vn -0.2396556 0.28368875 0.92848575
vn 0.16601144 0 0.9861238
vn -0.9716053 -0.13383138 -0.19512106
vn -0.91566825 0.35205436 -0.19393133
vn -0.94073737 -0.19807863 0.27527785
vn -0.9227117 0.3255678 0.20641913
vn -0.7074219 -0.15002055 0.69068676
vn -0.44926834 0.8698798 -0.20363486
vn -0.7087955 0.2802598 0.6473511
vn -0.536883 0.8126034 0.22678703
vn 0.36532253 0.9132808 -0.1801601
vn -0.3848004 0.67866623 0.6255724
vn 0.15251645 0.9820488 0.110989824
vn 0.7498698 0.6253242 -0.2160204
vn 0.2204927 0.85507256 0.46929088
vn 0.5751678 0.81745374 0.03084554
vn 0.56401294 0.7404993 0.36544514
vn 0.9425239 0.0015997841 -0.33413494
vn 0.9393007 0.34281775 -0.013788862
vn 0.88398945 0.29878196 0.3595719
vn 0.90555894 -0.42401654 0.013156278
vn 0.58123386 -0.74569947 -0.32572937
vn 0.86450404 -0.37513414 0.3345253
vn 0.5709611 -0.8201037 0.037859444
vn 0.13894786 -0.9363974 -0.3222629
vn 0.58662087 -0.7118297 0.38623103
vn 0.0105156535 -0.9927585 0.11966631
vn -0.53871846 -0.792653 -0.28545332
vn 0.10859533 -0.84801286 0.5187304
vn -0.61792195 -0.7549208 0.21969779
vn -0.9716053 -0.13383138 -0.19512106
vn -0.42689317 -0.64456034 0.6342745
vn -0.94073737 -0.19807863 0.27527785
vn -0.7074219 -0.15002055 0.69068676
vn 0.16601144 0 0.9861238
vn -0.2396556 0.28368875 0.92848575
vn 0.29246837 0.4590216 0.8389049
vn -0.1766264 0.81671625 0.54934293
vn 0.34622842 0.86383283 0.3659491
vn 0.00088278635 0.9999273 0.012030596
vn -0.5766949 0.8096199 0.10926343
vn -0.34151644 0.90258723 -0.26211187
vn 0.21596438 0.87588847 -0.43148434
vn -0.3264306 0.63126856 -0.70352197
vn 0.40537184 0.3901435 -0.8267174
vn -0.16601147 0 -0.9861238
vn 0.40537184 0.3901435 -0.8267174
vn -0.16601147 0 -0.9861238
vn 0.40537193 -0.39014307 -0.8267176
vn 0.8435015 0 -0.5371269
vn 0.704813 0.5578259 -0.4382567
vn 0.21596438 0.87588847 -0.43148434
vn 0.58248097 0.8082951 -0.08587895
vn 0.00088278635 0.9999273 0.012030596
vn 0.34622842 0.86383283 0.3659491
vn 0.9394425 0.31006446 -0.1459721
vn 0.7701651 0.50475955 0.38995317
vn 0.29246837 0.4590216 0.8389049
vn 0.6213445 0 0.7835375
vn 0.16601144 0 0.9861238
vn 0.9651347 0 0.2617537
vn 0.9394425 -0.31006446 -0.1459723
vn 0.2924683 -0.45902178 0.83890474
vn -0.23965561 -0.28368935 0.9284857
vn 0.7701652 -0.50475955 0.38995284
vn 0.70481294 -0.5578257 -0.43825707
vn 0.5824809 -0.8082949 -0.08587939
vn 0.34622827 -0.863833 0.36594877
vn 0.21596438 -0.87588817 -0.43148488
vn -0.17662665 -0.81671643 0.5493425
vn 0.0008826763 -0.9999273 0.012030046
vn -0.32643062 -0.6312681 -0.70352226
vn -0.16601147 0 -0.9861238
vn -0.34151664 -0.9025872 -0.2621125
vn -0.57669514 -0.80961984 0.10926305
vn -0.655176 -0.5338747 0.53453
vn -0.79942316 -0.54132956 -0.26054728
vn -0.76176983 0 0.64784783
vn -0.2396556 0.28368875 0.92848575
vn -0.93614155 -0.3079211 0.16977476
vn -0.7787139 0 -0.6273792
vn -0.16601147 0 -0.9861238
vn -0.3264306 0.63126856 -0.70352197
vn -0.6551759 0.5338744 0.5345303
vn -0.1766264 0.81671625 0.54934293
vn -0.5766949 0.8096199 0.10926343
vn -0.93614167 0.30792084 0.16977493
vn -0.98818845 0 -0.1532441
vn -0.79942304 0.54132986 -0.26054698
vn -0.34151644 0.90258723 -0.26211187
g VineEnd_0
f 3/3/3 2/2/2 1/1/1
f 6/6/6 5/5/5 4/4/4
f 9/9/9 8/8/8 7/7/7
f 12/12/12 11/11/11 10/10/10
f 15/15/15 14/14/14 13/13/13
f 18/18/18 17/17/17 16/16/16
f 21/21/21 20/20/20 19/19/19
f 24/24/24 23/23/23 22/22/22
f 27/27/27 26/26/26 25/25/25
f 30/30/30 29/29/29 28/28/28
f 29/29/29 30/30/30 31/31/31
f 30/30/30 32/32/32 31/31/31
f 31/31/31 33/33/33 29/29/29
f 32/32/32 34/34/34 31/31/31
f 33/33/33 31/31/31 35/35/35
f 31/31/31 34/34/34 35/35/35
f 35/35/35 36/36/36 33/33/33
f 34/34/34 37/37/37 35/35/35
f 36/36/36 35/35/35 38/38/38
f 35/35/35 37/37/37 38/38/38
f 38/38/38 39/39/39 36/36/36
f 37/37/37 40/40/40 38/38/38
f 39/39/39 38/38/38 41/41/41
f 38/38/38 40/40/40 41/41/41
f 40/40/40 42/42/42 41/41/41
f 41/41/41 43/43/43 39/39/39
f 41/41/41 42/42/42 44/44/44
f 43/43/43 41/41/41 44/44/44
f 42/42/42 45/45/45 44/44/44
f 43/43/43 44/44/44 46/46/46
f 44/44/44 45/45/45 46/46/46
f 46/46/46 47/47/47 43/43/43
f 45/45/45 48/48/48 46/46/46
f 47/47/47 46/46/46 49/49/49
f 46/46/46 48/48/48 49/49/49
f 49/49/49 50/50/50 47/47/47
f 48/48/48 51/51/51 49/49/49
f 50/50/50 49/49/49 52/52/52
f 49/49/49 51/51/51 52/52/52
f 52/52/52 53/53/53 50/50/50
f 51/51/51 54/54/54 52/52/52
f 53/53/53 52/52/52 55/55/55
f 52/52/52 54/54/54 55/55/55
f 55/55/55 56/56/56 53/53/53
f 54/54/54 57/57/57 55/55/55
f 56/56/56 55/55/55 58/58/58
f 55/55/55 57/57/57 58/58/58
f 57/57/57 59/59/59 58/58/58
f 62/62/62 61/61/61 60/60/60
f 62/62/62 63/63/63 61/61/61
f 64/64/64 63/63/63 62/62/62
f 64/64/64 65/65/65 63/63/63
f 63/63/63 65/65/65 66/66/66
f 65/65/65 67/67/67 66/66/66
f 68/68/68 67/67/67 65/65/65
f 68/68/68 69/69/69 67/67/67
f 68/68/68 70/70/70 69/69/69
f 70/70/70 71/71/71 69/69/69
f 74/74/74 73/73/73 72/72/72
f 75/75/75 74/74/74 72/72/72
f 75/75/75 72/72/72 76/76/76
f 76/76/76 72/72/72 77/77/77
f 76/76/76 77/77/77 78/78/78
f 78/78/78 77/77/77 79/79/79
f 78/78/78 79/79/79 80/80/80
f 81/81/81 76/76/76 78/78/78
f 75/75/75 76/76/76 81/81/81
f 82/82/82 78/78/78 80/80/80
f 82/82/82 81/81/81 78/78/78
f 82/82/82 80/80/80 83/83/83
f 84/84/84 82/82/82 83/83/83
f 84/84/84 83/83/83 85/85/85
f 86/86/86 81/81/81 82/82/82
f 86/86/86 82/82/82 84/84/84
f 87/87/87 75/75/75 81/81/81
f 87/87/87 81/81/81 86/86/86
f 88/88/88 84/84/84 85/85/85
f 89/89/89 88/88/88 85/85/85
f 90/90/90 86/86/86 84/84/84
f 90/90/90 87/87/87 86/86/86
f 88/88/88 90/90/90 84/84/84
f 91/91/91 75/75/75 87/87/87
f 91/91/91 74/74/74 75/75/75
f 90/90/90 92/92/92 87/87/87
f 92/92/92 91/91/91 87/87/87
f 93/93/93 90/90/90 88/88/88
f 93/93/93 92/92/92 90/90/90
f 94/94/94 74/74/74 91/91/91
f 94/94/94 91/91/91 92/92/92
f 95/95/95 93/93/93 88/88/88
f 89/89/89 95/95/95 88/88/88
f 96/96/96 92/92/92 93/93/93
f 96/96/96 94/94/94 92/92/92
f 95/95/95 96/96/96 93/93/93
f 94/94/94 97/97/97 74/74/74
f 97/97/97 98/98/98 74/74/74
f 99/99/99 94/94/94 96/96/96
f 99/99/99 97/97/97 94/94/94
f 95/95/95 100/100/100 96/96/96
f 100/100/100 99/99/99 96/96/96
f 101/101/101 95/95/95 89/89/89
f 101/101/101 100/100/100 95/95/95
f 102/102/102 97/97/97 99/99/99
f 102/102/102 99/99/99 100/100/100
f 89/89/89 103/103/103 101/101/101
f 89/89/89 104/104/104 103/103/103
f 105/105/105 100/100/100 101/101/101
f 105/105/105 102/102/102 100/100/100
f 103/103/103 105/105/105 101/101/101
f 102/102/102 106/106/106 97/97/97
f 106/106/106 107/107/107 97/97/97
f 108/108/108 107/107/107 106/106/106
f 104/104/104 109/109/109 103/103/103
f 110/110/110 109/109/109 104/104/104
f 110/110/110 111/111/111 109/109/109
f 109/109/109 112/112/112 103/103/103
f 103/103/103 112/112/112 105/105/105
f 111/111/111 112/112/112 109/109/109
f 113/113/113 102/102/102 105/105/105
f 113/113/113 106/106/106 102/102/102
f 112/112/112 113/113/113 105/105/105
f 114/114/114 108/108/108 106/106/106
f 114/114/114 106/106/106 113/113/113
f 114/114/114 113/113/113 112/112/112
f 111/111/111 114/114/114 112/112/112
f 115/115/115 108/108/108 114/114/114
f 115/115/115 114/114/114 111/111/111
