g VoidJailerDeathCube
v 1 -0.27556318 -1
v 0.9999998 1.0000002 -0.99999994
v 0.9999998 1.0000001 1.0000001
v 1 -0.27556336 1
v 0.82870644 -0.6891029 0.99999994
v 0.82870644 -0.68910277 -1
v 0.68910307 -0.82870626 0.99999994
v 0.68910307 -0.82870615 -1.0000001
v 0.27556354 -1.0000001 0.99999994
v 0.27556357 -0.9999999 -1.0000001
v -0.27556324 -1 -1.0000001
v -0.27556327 -1.0000001 0.99999994
v -0.6891028 -0.8287065 0.99999994
v -0.6891028 -0.8287064 -1.0000001
v -0.8287062 -0.6891031 0.99999994
v -0.8287062 -0.689103 -1
v -0.99999994 -0.27556366 1
v -0.99999994 -0.27556348 -1
v -1.0000001 0.99999994 -0.99999994
v -1.0000001 0.99999976 1.0000001
vn -0.9807879 0.19507721 0
vn -1 0 0
vn -1 0 0
vn -0.9807879 0.19507721 0
vn -0.8314676 0.5555732 0
vn -0.8314676 0.5555732 0
vn -0.5555732 0.8314676 0
vn -0.5555732 0.8314676 0
vn -0.19507721 0.9807879 0
vn -0.19507721 0.9807879 0
vn 0.19507721 0.9807879 0
vn 0.19507721 0.9807879 0
vn 0.5555732 0.8314676 0
vn 0.5555732 0.8314676 0
vn 0.8314676 0.5555732 0
vn 0.8314676 0.5555732 0
vn 0.9807879 0.19507721 0
vn 0.9807879 0.19507721 0
vn 1 0 0
vn 1 0 0
g VoidJailerDeathCube_0
f 3/3/3 2/2/2 1/1/1
f 4/4/4 3/3/3 1/1/1
f 5/5/5 4/4/4 1/1/1
f 6/6/6 5/5/5 1/1/1
f 5/5/5 6/6/6 7/7/7
f 6/6/6 8/8/8 7/7/7
f 7/7/7 8/8/8 9/9/9
f 8/8/8 10/10/10 9/9/9
f 10/10/10 11/11/11 9/9/9
f 11/11/11 12/12/12 9/9/9
f 13/13/13 12/12/12 11/11/11
f 14/14/14 13/13/13 11/11/11
f 15/15/15 13/13/13 14/14/14
f 16/16/16 15/15/15 14/14/14
f 15/15/15 16/16/16 17/17/17
f 16/16/16 18/18/18 17/17/17
f 18/18/18 19/19/19 17/17/17
f 19/19/19 20/20/20 17/17/17
