g VoidRaidCrabCollision_thigh
v 0.06919713 -0.10588698 -0.36305115
v 0.074288644 0.0315006 -0.36467573
v -0.15287696 0.011827843 -0.6464754
v 0.080046535 -0.033634793 -0.2687595
v -0.034757007 -0.22895199 -0.28933397
v -0.057081107 -0.23790278 -0.15833005
v -0.24632384 -0.20735562 -0.56223357
v -0.16402657 -0.08269103 -0.66047543
v -0.46720627 -0.21963191 -0.71449345
v -0.34103107 -0.101301946 -0.7932728
v -0.2718552 -0.31943223 -0.505845
v -0.31821188 0.01598622 -0.7936614
v -0.552016 -0.08473023 -0.85728014
v -2.215056 -0.0992022 -0.9445455
v -0.09809409 -0.37055796 -0.24117953
v -3.001783 -0.2597678 -0.8015988
v -3.4942224 -0.10881465 -0.943605
v -0.35842478 -0.2714273 -0.020834437
v -0.25731227 0.12544252 -0.019319747
v -0.41707614 0.039612304 -0.01755487
v -0.51321214 -0.21652468 -0.28086615
v -0.3159412 -0.33921057 -0.09014718
v -0.44559723 -0.32615036 -0.41681656
v -0.39269817 -0.34379303 -0.6036405
v -3.3906891 -0.4064984 -0.5294167
v -0.56244814 -0.26628006 -0.34713885
v -0.5782799 -0.104503684 -0.29508507
v -2.126897 -0.29859197 -0.38149774
v -2.2091193 -0.121359065 -0.32151607
v -4.111428 -0.25704566 -0.25774336
v -3.9737272 0.12502047 -0.2546308
v -4.348536 -0.13769493 -0.19337513
v -4.1207533 -0.36596456 -0.33613896
v -5.3746614 -0.40333256 -0.11787378
v -5.3541603 -0.2519304 0.003457864
v -5.3047857 0.17588568 -0.022829242
v -5.902957 0.016219363 0.30004936
v -5.862757 -0.30348858 0.2599226
v -5.9099503 -0.39731547 0.15257393
v -5.8229036 -0.537211 0.03203704
v -5.832604 -0.32106566 0.029644137
v -5.824057 0.12452356 0.062883295
v -5.930397 -0.5340759 -0.10511583
v -5.9427905 -0.4901541 -0.3635625
v -5.882116 -0.5653565 -0.34579775
v -5.437702 -0.43481782 -0.41479978
v -5.872661 -0.40598735 -0.457924
v -5.940253 -0.31763256 -0.472538
v -4.176579 -0.4335089 -0.6763857
v -5.406563 -0.24516124 -0.53722733
v -5.901488 -0.2605845 -0.59604764
v -6.0432105 -0.057636432 -0.5943459
v -5.5317035 -0.033357453 -0.67070574
v -4.3851485 -0.11633489 -0.88960326
v -4.3448343 -0.2809071 -0.7272816
v -2.208994 -0.37053245 -0.7341864
v -0.54034495 -0.32790393 -0.66758907
v -4.348536 -0.13769493 -0.19337513
v -5.3047857 0.17588568 -0.022829242
v -3.9737272 0.12502047 -0.2546308
v -4.1214123 0.26193315 -0.33635727
v -2.1714835 0.13768533 -0.34164783
v -2.2091193 -0.121359065 -0.32151607
v -0.5756522 0.12308818 -0.31159562
v -0.5782799 -0.104503684 -0.29508507
v -0.48677 0.19306494 -0.29850754
v -0.51321214 -0.21652468 -0.28086615
v -0.41707614 0.039612304 -0.01755487
v -0.5575002 0.21552788 -0.3735546
v -2.5292702 0.27510864 -0.45858768
v -5.366119 0.31417298 -0.22977354
v -0.31704867 0.2693314 -0.0811446
v -0.25731227 0.12544252 -0.019319747
v -0.101035185 0.30171567 -0.2411793
v -0.052572206 0.16614982 -0.1677493
v -0.03646132 0.16066897 -0.28933385
v 0.080046535 -0.033634793 -0.2687595
v 0.074288644 0.0315006 -0.36467573
v -0.2641018 0.24325414 -0.49662557
v -0.33844903 0.2757575 -0.57220596
v -0.4992724 0.25784963 -0.4373317
v -0.24776271 0.13704404 -0.56239253
v -0.15287696 0.011827843 -0.6464754
v -0.46887004 0.14764802 -0.71444607
v -4.0617747 0.32852498 -0.68097186
v -0.54289013 0.2552098 -0.66757905
v -2.2119732 0.2832273 -0.7341847
v -3.0038009 0.16551894 -0.80160123
v -2.702674 0.031354062 -0.9473106
v -4.3477855 0.17590089 -0.7264546
v -5.460335 0.31595156 -0.42261297
v -5.8674846 0.46845093 -0.14890066
v -5.8051744 0.3175739 0.16070572
v -5.902957 0.016219363 0.30004936
v -5.9076943 0.22297049 0.20091075
v -5.824057 0.12452356 0.062883295
v -5.941423 0.406448 -0.16793078
v -5.944454 0.31784663 -0.37562904
v -5.8901086 0.40536734 -0.3732723
v -5.9424725 0.181846 -0.47344986
v -5.9012356 0.16932097 -0.5715438
v -6.0432105 -0.057636432 -0.5943459
v -5.940253 -0.31763256 -0.472538
v -5.5317035 -0.033357453 -0.67070574
v -4.3865166 0.026426038 -0.87730813
v -4.3851485 -0.11633489 -0.88960326
v -3.4942224 -0.10881465 -0.943605
v -2.215056 -0.0992022 -0.9445455
v -0.552016 -0.08473023 -0.85728014
v -0.5291262 0.029253535 -0.8422084
v -0.31821188 0.01598622 -0.7936614
v -0.16402657 -0.08269103 -0.66047543
v 0.06919713 -0.10588698 -0.36305115
v -5.944454 0.31784663 -0.37562904
v -5.824057 0.12452356 0.062883295
v -5.940253 -0.31763256 -0.472538
v -5.9424725 0.181846 -0.47344986
v -5.832604 -0.32106566 0.029644137
v -5.9427905 -0.4901541 -0.3635625
v -5.940253 -0.31763256 -0.472538
v -5.824057 0.12452356 0.062883295
v -0.25731227 0.12544252 -0.019319747
v -0.052572206 0.16614982 -0.1677493
v 0.080046535 -0.033634793 -0.2687595
v -0.057081107 -0.23790278 -0.15833005
vt -1.1398584 0.5553807
vt -1.1432848 0.5563948
vt -1.0193893 0.61690015
vt -1.1636704 0.5357501
vt -1.0790962 0.52986515
vt -1.0908033 0.50107276
vt -0.97277474 0.58450854
vt -1.0157459 0.6208014
vt -0.8516969 0.60958457
vt -0.9209789 0.6433529
vt -0.94643855 0.5584312
vt -0.93686694 0.64541227
vt -0.810663 0.6660551
vt 0.019942148 0.6937912
vt -1.0376073 0.51375747
vt 0.41593415 0.6455313
vt 0.66307247 0.71004003
vt -0.9956361 0.45606896
vt -1.0466799 0.4578837
vt -0.98127776 0.42963138
vt -0.86277556 0.47442028
vt -0.9959568 0.4788817
vt -0.87391645 0.52623045
vt -0.8803158 0.5754235
vt 0.6563238 0.54977286
vt -0.8125989 0.4953295
vt -0.8005582 0.4483978
vt 0.012895709 0.5123886
vt 0.030802533 0.46082535
vt 1.0551033 0.48844832
vt 0.93564457 0.4821782
vt 1.1905 0.45342895
vt 1.044725 0.51912284
vt 1.979845 0.6382822
vt 2.0594401 0.60535485
vt 2.0320601 0.595571
vt 2.389879 0.7513852
vt 2.3344355 0.7430374
vt 2.2774413 0.76880693
vt 2.213807 0.7407967
vt 2.2811491 0.8245534
vt 2.2972355 0.8258753
vt 2.1904116 0.7816983
vt 2.126587 0.80153036
vt 2.1008785 0.7677895
vt 1.86197 0.69073534
vt 2.0487053 0.7927218
vt 2.0611794 0.8327563
vt 1.035995 0.61053175
vt 1.7755313 0.72854257
vt 1.9752986 0.8058797
vt 1.9479804 0.8599283
vt 1.7084315 0.7601389
vt 1.1320785 0.7078401
vt 1.1174519 0.6505836
vt 0.028190821 0.605289
vt -0.81247514 0.58855236
vt 1.1905 0.45342895
vt 2.0320601 0.595571
vt 0.93564457 0.4821782
vt 1.041641 0.51893115
vt 0.02795317 0.48911607
vt 0.030802533 0.46082535
vt -0.8134454 0.47537008
vt -0.8005582 0.4483978
vt -0.8726829 0.48776793
vt -0.86277556 0.47442028
vt -0.98127776 0.42963138
vt -0.822845 0.50647914
vt 0.18923475 0.54151976
vt 1.9203669 0.6474093
vt -0.9981122 0.47763985
vt -1.0466799 0.4578837
vt -1.037601 0.5137557
vt -1.0892885 0.50614864
vt -1.0790883 0.5298639
vt -1.1636704 0.5357501
vt -1.1432848 0.5563948
vt -0.9518496 0.557056
vt -0.9067925 0.5679142
vt -0.8494835 0.5308074
vt -0.97282785 0.5845835
vt -1.0193893 0.61690015
vt -0.85172254 0.6095891
vt 0.9590228 0.6094839
vt -0.8124717 0.58854413
vt 0.028250864 0.6052756
vt 0.41596955 0.6455077
vt 0.27443036 0.69179237
vt 1.1185067 0.6504531
vt 1.8627833 0.6939098
vt 2.1563954 0.7503268
vt 2.2640944 0.7342076
vt 2.389879 0.7513852
vt 2.298019 0.76712406
vt 2.2972355 0.8258753
vt 2.1707108 0.78475004
vt 2.1178439 0.80249614
vt 2.09501 0.77231085
vt 2.0605023 0.8285422
vt 1.9917076 0.80113655
vt 1.9479804 0.8599283
vt 2.0611794 0.8327563
vt 1.7084315 0.7601389
vt 1.1267414 0.70265675
vt 1.1320785 0.7078401
vt 0.66307247 0.71004003
vt 0.019942148 0.6937912
vt -0.810663 0.6660551
vt -0.8286304 0.6556492
vt -0.93686694 0.64541227
vt -1.0157459 0.6208014
vt -1.1398584 0.5553807
vt 0.13946432 0.09260313
vt 0.12624845 0.102952346
vt 0.11059713 0.07976881
vt 0.12487437 0.08329888
vt 0.15188897 0.10209395
vt 0.14108014 0.09004471
vt 0.1580711 0.08281283
vt 0.17061734 0.10433209
vt 0.49627438 0.1620632
vt 0.6438771 0.24901018
vt 0.5263431 0.34674466
vt 0.2770338 0.3074297
vn 0.8649877 -0.4130045 -0.28499764
vn 0.87693703 0.3807232 -0.2933108
vn 0.6643504 0.38581696 -0.64014363
vn 0.9320451 0.0016152532 0.3623389
vn 0.8009691 -0.57182956 -0.17736812
vn 0.691956 -0.34250337 0.6355221
vn 0.5557772 -0.59807104 -0.5774278
vn 0.65480596 -0.3745741 -0.6564476
vn 0.25756022 -0.614267 -0.74588126
vn 0.4128975 -0.43333292 -0.8010856
vn 0.41536713 -0.8096351 -0.41468215
vn 0.46021533 0.34348622 -0.81866896
vn 0.12283676 -0.31299108 -0.9417791
vn 0.043676935 -0.34652144 -0.93702465
vn 0.5406757 -0.8383535 0.06952068
vn -0.0018949059 -0.616832 -0.7870926
vn -0.04040674 -0.3124185 -0.9490849
vn -0.28579077 -0.46844175 0.835994
vn 0.26098734 0.2304198 0.93743926
vn -0.59564185 0.12994656 0.7926694
vn -0.6893082 -0.43434548 0.579826
vn -0.10616182 -0.87394005 0.4742978
vn -0.12060006 -0.9734558 0.19452368
vn 0.33478454 -0.8452417 -0.41651624
vn 0.031134946 -0.9778522 0.20696755
vn -0.10539671 -0.6528823 0.7500908
vn -0.13720694 -0.06496137 0.98841
vn 0.00726439 -0.58805966 0.8087849
vn 0.023633162 -0.1196095 0.9925397
vn 0.12686159 -0.35461324 0.9263669
vn 0.0931482 0.32287055 0.9418482
vn 0.19413292 -0.06615907 0.97874177
vn 0.117060386 -0.677164 0.72646105
vn 0.24385723 -0.8653143 0.4379095
vn 0.33669716 -0.32363978 0.8842468
vn 0.3055081 0.4922724 0.8150661
vn -0.598188 0.114530556 0.7931292
vn -0.17970422 -0.3561988 0.9169673
vn -0.8702871 -0.35187638 0.3446496
vn -0.0023361817 -0.8912016 0.45360154
vn -0.96844673 0.22543441 -0.10625566
vn -0.9855376 -0.1573212 -0.06297432
vn -0.8487627 -0.50683975 0.1507156
vn -0.88437104 -0.34880227 -0.31020117
vn -0.24675094 -0.8935375 -0.3751063
vn 0.06684103 -0.8833563 -0.4639116
vn -0.21324204 -0.5862774 -0.7815412
vn -0.9319734 -0.31931424 -0.1716505
vn -0.03829467 -0.84748095 -0.5294426
vn -0.07298462 -0.5601134 -0.82519466
vn -0.31650975 -0.495699 -0.80876696
vn -0.9217703 0.0152258435 -0.38743746
vn -0.06034104 0.04361649 -0.99722445
vn -0.11648863 -0.32993984 -0.93678707
vn -0.11424578 -0.6007484 -0.79123276
vn 0.036787912 -0.7457146 -0.66524905
vn 0.09871256 -0.7701724 -0.6301509
vn 0.19413292 -0.06615907 0.97874177
vn 0.3055081 0.4922724 0.8150661
vn 0.0931482 0.32287055 0.9418482
vn 0.10981088 0.26690513 0.95744616
vn 0.0038746956 0.35893536 0.9333543
vn 0.023633162 -0.1196095 0.9925397
vn -0.14903124 0.29630047 0.94339585
vn -0.13720694 -0.06496137 0.98841
vn -0.49244785 0.7264372 0.47935796
vn -0.6893082 -0.43434548 0.579826
vn -0.59564185 0.12994656 0.7926694
vn -0.14355408 0.77453935 0.6160203
vn 0.023508249 0.86744034 0.49698544
vn 0.18068446 0.95794755 0.22291148
vn -0.20366982 0.7986791 0.5662423
vn 0.26098734 0.2304198 0.93743926
vn 0.49189124 0.86848265 0.061489698
vn 0.7255414 0.35164547 0.59155315
vn 0.79453194 0.57769215 -0.1870582
vn 0.9320451 0.0016152532 0.3623389
vn 0.87693703 0.3807232 -0.2933108
vn 0.45360526 0.8409868 -0.29492977
vn 0.41782776 0.84785175 -0.32644644
vn 0.03360158 0.9478543 0.3169277
vn 0.56844074 0.5914498 -0.57189363
vn 0.6643504 0.38581696 -0.64014363
vn 0.25159228 0.6136746 -0.7484016
vn -0.030914636 0.8518453 -0.52288026
vn 0.098771974 0.77277595 -0.6269461
vn 0.03077988 0.74656075 -0.664605
vn -0.01593045 0.6304695 -0.77605045
vn 0.009721071 0.40978837 -0.9121288
vn -0.11531361 0.61842185 -0.7773398
vn 0.05911504 0.8653866 -0.49760565
vn -0.17531316 0.972629 0.15250641
vn 0.018053554 0.70477706 0.7091991
vn -0.598188 0.114530556 0.7931292
vn -0.8066381 0.26572797 0.5279427
vn -0.9855376 -0.1573212 -0.06297432
vn -0.92819536 0.3653798 0.0703629
vn -0.94200087 0.23007366 -0.24433678
vn -0.36216676 0.79855 -0.4807838
vn -0.9670925 0.23775415 -0.09058105
vn -0.37571487 0.50412303 -0.7776236
vn -0.9217703 0.0152258435 -0.38743746
vn -0.9319734 -0.31931424 -0.1716505
vn -0.06034104 0.04361649 -0.99722445
vn -0.11435585 0.44430098 -0.888549
vn -0.11648863 -0.32993984 -0.93678707
vn -0.04040674 -0.3124185 -0.9490849
vn 0.043676935 -0.34652144 -0.93702465
vn 0.12283676 -0.31299108 -0.9417791
vn 0.13136314 0.4305831 -0.89294004
vn 0.46021533 0.34348622 -0.81866896
vn 0.65480596 -0.3745741 -0.6564476
vn 0.8649877 -0.4130045 -0.28499764
vn -0.94200087 0.23007366 -0.24433678
vn -0.9855376 -0.1573212 -0.06297432
vn -0.9319734 -0.31931424 -0.1716505
vn -0.9670925 0.23775415 -0.09058105
vn -0.96844673 0.22543441 -0.10625566
vn -0.88437104 -0.34880227 -0.31020117
vn -0.9319734 -0.31931424 -0.1716505
vn -0.9855376 -0.1573212 -0.06297432
vn 0.26098734 0.2304198 0.93743926
vn 0.7255414 0.35164547 0.59155315
vn 0.9320451 0.0016152532 0.3623389
vn 0.691956 -0.34250337 0.6355221
g VoidRaidCrabCollision_thigh_0
f 3/3/3 2/2/2 1/1/1
f 1/1/1 2/2/2 4/4/4
f 1/1/1 4/4/4 5/5/5
f 4/4/4 6/6/6 5/5/5
f 5/5/5 7/7/7 1/1/1
f 7/7/7 8/8/8 1/1/1
f 7/7/7 9/9/9 8/8/8
f 9/9/9 10/10/10 8/8/8
f 7/7/7 11/11/11 9/9/9
f 5/5/5 11/11/11 7/7/7
f 12/12/12 8/8/8 10/10/10
f 13/13/13 12/12/12 10/10/10
f 13/13/13 10/10/10 9/9/9
f 14/14/14 13/13/13 9/9/9
f 6/6/6 15/15/15 5/5/5
f 5/5/5 15/15/15 11/11/11
f 14/14/14 9/9/9 16/16/16
f 17/17/17 14/14/14 16/16/16
f 15/15/15 6/6/6 18/18/18
f 19/19/19 18/18/18 6/6/6
f 20/20/20 18/18/18 19/19/19
f 21/21/21 18/18/18 20/20/20
f 22/22/22 15/15/15 18/18/18
f 22/22/22 18/18/18 21/21/21
f 22/22/22 23/23/23 15/15/15
f 23/23/23 11/11/11 15/15/15
f 23/23/23 22/22/22 21/21/21
f 11/11/11 24/24/24 9/9/9
f 24/24/24 11/11/11 23/23/23
f 25/25/25 24/24/24 23/23/23
f 26/26/26 23/23/23 21/21/21
f 23/23/23 26/26/26 25/25/25
f 26/26/26 21/21/21 27/27/27
f 28/28/28 26/26/26 27/27/27
f 26/26/26 28/28/28 25/25/25
f 28/28/28 27/27/27 29/29/29
f 28/28/28 29/29/29 30/30/30
f 30/30/30 29/29/29 31/31/31
f 30/30/30 31/31/31 32/32/32
f 33/33/33 25/25/25 28/28/28
f 30/30/30 33/33/33 28/28/28
f 33/33/33 30/30/30 34/34/34
f 34/34/34 25/25/25 33/33/33
f 35/35/35 30/30/30 32/32/32
f 30/30/30 35/35/35 34/34/34
f 36/36/36 35/35/35 32/32/32
f 36/36/36 37/37/37 35/35/35
f 35/35/35 38/38/38 34/34/34
f 37/37/37 38/38/38 35/35/35
f 37/37/37 39/39/39 38/38/38
f 38/38/38 40/40/40 34/34/34
f 39/39/39 40/40/40 38/38/38
f 37/37/37 41/41/41 39/39/39
f 42/42/42 41/41/41 37/37/37
f 39/39/39 41/41/41 43/43/43
f 39/39/39 43/43/43 40/40/40
f 41/41/41 44/44/44 43/43/43
f 43/43/43 45/45/45 40/40/40
f 34/34/34 40/40/40 45/45/45
f 44/44/44 45/45/45 43/43/43
f 34/34/34 46/46/46 25/25/25
f 46/46/46 34/34/34 45/45/45
f 47/47/47 45/45/45 44/44/44
f 46/46/46 45/45/45 47/47/47
f 48/48/48 47/47/47 44/44/44
f 46/46/46 49/49/49 25/25/25
f 49/49/49 24/24/24 25/25/25
f 50/50/50 46/46/46 47/47/47
f 49/49/49 46/46/46 50/50/50
f 51/51/51 47/47/47 48/48/48
f 47/47/47 51/51/51 50/50/50
f 52/52/52 51/51/51 48/48/48
f 52/52/52 53/53/53 51/51/51
f 53/53/53 50/50/50 51/51/51
f 50/50/50 53/53/53 54/54/54
f 50/50/50 54/54/54 55/55/55
f 55/55/55 49/49/49 50/50/50
f 55/55/55 54/54/54 17/17/17
f 16/16/16 55/55/55 17/17/17
f 55/55/55 16/16/16 49/49/49
f 49/49/49 16/16/16 56/56/56
f 24/24/24 49/49/49 56/56/56
f 16/16/16 9/9/9 56/56/56
f 9/9/9 24/24/24 57/57/57
f 57/57/57 24/24/24 56/56/56
f 56/56/56 9/9/9 57/57/57
f 60/60/60 59/59/59 58/58/58
f 61/61/61 59/59/59 60/60/60
f 60/60/60 62/62/62 61/61/61
f 60/60/60 63/63/63 62/62/62
f 64/64/64 62/62/62 63/63/63
f 65/65/65 64/64/64 63/63/63
f 66/66/66 64/64/64 65/65/65
f 67/67/67 66/66/66 65/65/65
f 66/66/66 67/67/67 68/68/68
f 64/64/64 69/69/69 62/62/62
f 69/69/69 64/64/64 66/66/66
f 62/62/62 70/70/70 61/61/61
f 69/69/69 70/70/70 62/62/62
f 71/71/71 59/59/59 61/61/61
f 70/70/70 71/71/71 61/61/61
f 72/72/72 66/66/66 68/68/68
f 73/73/73 72/72/72 68/68/68
f 72/72/72 73/73/73 74/74/74
f 72/72/72 74/74/74 66/66/66
f 73/73/73 75/75/75 74/74/74
f 76/76/76 74/74/74 75/75/75
f 76/76/76 75/75/75 77/77/77
f 78/78/78 76/76/76 77/77/77
f 79/79/79 74/74/74 76/76/76
f 74/74/74 79/79/79 66/66/66
f 66/66/66 79/79/79 80/80/80
f 81/81/81 66/66/66 80/80/80
f 80/80/80 70/70/70 81/81/81
f 81/81/81 69/69/69 66/66/66
f 81/81/81 70/70/70 69/69/69
f 76/76/76 78/78/78 82/82/82
f 82/82/82 79/79/79 76/76/76
f 82/82/82 80/80/80 79/79/79
f 78/78/78 83/83/83 82/82/82
f 82/82/82 84/84/84 80/80/80
f 84/84/84 82/82/82 83/83/83
f 80/80/80 85/85/85 70/70/70
f 85/85/85 71/71/71 70/70/70
f 86/86/86 80/80/80 84/84/84
f 80/80/80 86/86/86 87/87/87
f 85/85/85 80/80/80 87/87/87
f 84/84/84 87/87/87 86/86/86
f 88/88/88 85/85/85 87/87/87
f 84/84/84 88/88/88 87/87/87
f 88/88/88 84/84/84 89/89/89
f 88/88/88 90/90/90 85/85/85
f 88/88/88 89/89/89 90/90/90
f 85/85/85 91/91/91 71/71/71
f 90/90/90 91/91/91 85/85/85
f 91/91/91 92/92/92 71/71/71
f 59/59/59 71/71/71 92/92/92
f 93/93/93 59/59/59 92/92/92
f 93/93/93 94/94/94 59/59/59
f 94/94/94 93/93/93 95/95/95
f 96/96/96 94/94/94 95/95/95
f 97/97/97 95/95/95 93/93/93
f 95/95/95 97/97/97 96/96/96
f 92/92/92 97/97/97 93/93/93
f 97/97/97 98/98/98 96/96/96
f 97/97/97 92/92/92 99/99/99
f 97/97/97 99/99/99 98/98/98
f 99/99/99 92/92/92 91/91/91
f 98/98/98 99/99/99 100/100/100
f 101/101/101 99/99/99 91/91/91
f 100/100/100 99/99/99 101/101/101
f 102/102/102 100/100/100 101/101/101
f 100/100/100 102/102/102 103/103/103
f 102/102/102 101/101/101 104/104/104
f 101/101/101 91/91/91 104/104/104
f 104/104/104 91/91/91 90/90/90
f 105/105/105 104/104/104 90/90/90
f 106/106/106 104/104/104 105/105/105
f 107/107/107 106/106/106 105/105/105
f 89/89/89 105/105/105 90/90/90
f 89/89/89 107/107/107 105/105/105
f 107/107/107 89/89/89 108/108/108
f 109/109/109 108/108/108 89/89/89
f 110/110/110 109/109/109 89/89/89
f 89/89/89 84/84/84 110/110/110
f 111/111/111 109/109/109 110/110/110
f 111/111/111 110/110/110 84/84/84
f 111/111/111 84/84/84 83/83/83
f 111/111/111 83/83/83 112/112/112
f 112/112/112 83/83/83 113/113/113
f 116/116/116 115/115/115 114/114/114
f 117/117/117 116/116/116 114/114/114
f 120/120/120 119/119/119 118/118/118
f 121/121/121 120/120/120 118/118/118
f 124/124/124 123/123/123 122/122/122
f 125/125/125 124/124/124 122/122/122
