g Wall_001
v -0.6746929 1.0355424 0.674691
v -0.98943555 -0.97887105 0.9894355
v -0.96448714 -0.928974 -0.9644871
v -0.67625976 1.0304252 -0.6762593
v -0.49521697 3.2386882 0.4952148
v -0.4952168 3.2386882 -0.4952156
v -0.98943555 -0.97887105 0.9894355
v 0.96455204 -0.92910427 0.96455204
v 0.9999214 -0.9998429 -0.9999214
v -0.96448714 -0.928974 -0.9644871
v 0.96455204 -0.92910427 0.96455204
v 0.6770597 1.0278059 -0.6770613
v 0.9999214 -0.9998429 -0.9999214
v 0.67429936 1.0368185 0.6743002
v 0.49521366 3.2386882 -0.49521556
v 0.49521345 3.2386882 0.49521488
v -0.98943555 -0.97887105 0.9894355
v 0.67429936 1.0368185 0.6743002
v 0.96455204 -0.92910427 0.96455204
v -0.6746929 1.0355424 0.674691
v 0.49521345 3.2386882 0.49521488
v -0.49521697 3.2386882 0.4952148
v 0.9999214 -0.9998429 -0.9999214
v -0.67625976 1.0304252 -0.6762593
v -0.96448714 -0.928974 -0.9644871
v 0.6770597 1.0278059 -0.6770613
v -0.4952168 3.2386882 -0.4952156
v 0.49521366 3.2386882 -0.49521556
v 0.49521345 3.2386882 0.49521488
v -0.49521697 3.2386882 0.4952148
v -0.4952168 3.2386882 -0.4952156
v 0.49521366 3.2386882 -0.49521556
v 0.24826574 -0.80000114 -0.060711384
v 0.04447794 -0.80000114 -0.40490723
v 0.04447794 2.399999 -0.40490723
v 0.24826574 2.399999 -0.060711384
v 0.04447794 -0.80000114 -0.40490723
v 11.05874 -0.8000009 -6.9261045
v 11.05874 2.3999991 -6.9261045
v 0.04447794 2.399999 -0.40490723
v 11.05874 -0.8000009 -6.9261045
v 11.262529 -0.8000009 -6.581909
v 11.262529 2.3999991 -6.581909
v 11.05874 2.3999991 -6.9261045
v 11.262529 -0.8000009 -6.581909
v 0.24826574 -0.80000114 -0.060711384
v 0.24826574 2.399999 -0.060711384
v 11.262529 2.3999991 -6.581909
v 0.04447794 -0.80000114 -0.40490723
v 0.24826574 -0.80000114 -0.060711384
v 11.262529 -0.8000009 -6.581909
v 11.05874 -0.8000009 -6.9261045
v 11.05874 2.3999991 -6.9261045
v 11.262529 2.3999991 -6.581909
v 0.24826574 2.399999 -0.060711384
v 0.04447794 2.399999 -0.40490723
vt 0.375 0
vt 0.375 0.25
vt 0.625 0.25
vt 0.625 0
vt 0.375 0
vt 0.625 0
vt 0.375 0.25
vt 0.375 0.5
vt 0.625 0.5
vt 0.625 0.25
vt 0.375 0.5
vt 0.625 0.75
vt 0.625 0.5
vt 0.375 0.75
vt 0.625 0.75
vt 0.375 0.75
vt 0.125 0.5
vt 0.375 0.75
vt 0.375 0.5
vt 0.125 0.75
vt 0.375 0.75
vt 0.125 0.75
vt 0.625 0.5
vt 0.875 0.75
vt 0.875 0.5
vt 0.625 0.75
vt 0.875 0.75
vt 0.625 0.75
vt 0.375 0.75
vt 0.375 1
vt 0.625 1
vt 0.625 0.75
vt 0.9328692 0.88113296
vt 0.9328692 0.875322
vt 0.92688495 0.875322
vt 0.92688495 0.88113296
vt 0.8730269 0.8985659
vt 0.8730269 0.8927549
vt 0.8670427 0.8927549
vt 0.8670427 0.8985659
vt 0.31601998 0.8347592
vt 0.31601998 0.8289482
vt 0.31003577 0.8289482
vt 0.31003577 0.8347592
vt 0.9309913 0.23022412
vt 0.9369755 0.23022412
vt 0.9369755 0.22441313
vt 0.9309913 0.22441313
vt 0.96689665 0.32319987
vt 0.96689665 0.31738886
vt 0.9609124 0.31738886
vt 0.9609124 0.32319987
vt 0.7832635 0.92180985
vt 0.7772793 0.92180985
vt 0.7772793 0.9276208
vt 0.7832635 0.9276208
vn -0.99248004 0.12237574 -0.0027623528
vn -0.98867583 0.14998448 -0.0049625216
vn -0.98867583 0.14998448 -0.004962521
vn -0.9924697 0.12245933 -0.0027690069
vn -0.99667716 0.08145245 0.0004888764
vn -0.99667716 0.08145245 0.00048887637
vn -0.0053046364 -0.9999722 0.0052370876
vn -0.005304636 -0.9999722 0.0052370876
vn -0.005304636 -0.9999722 0.0052370876
vn -0.005304636 -0.9999722 0.0052370885
vn 0.98839927 0.1516813 0.007717692
vn 0.99229264 0.12381574 0.004990214
vn 0.98839927 0.15168129 0.007717692
vn 0.9923435 0.12340917 0.0049504624
vn 0.9966714 0.081520125 0.0008611383
vn 0.9966714 0.081520125 0.0008611383
vn 0.0052432767 0.15023673 0.9886361
vn 0.0031795686 0.12243455 0.99247146
vn 0.0052432776 0.15023673 0.9886361
vn 0.0031884976 0.12255495 0.99245656
vn 0.00012219639 0.081130125 0.99670345
vn 0.0001221964 0.08113014 0.99670345
vn -0.007441538 0.15143177 -0.9884397
vn -0.0045433706 0.123436496 -0.99234205
vn -0.0074415384 0.15143177 -0.9884397
vn -0.0045637996 0.12363404 -0.9923173
vn -0.0002495665 0.08184203 -0.9966453
vn -0.00024956645 0.08184203 -0.9966453
vn -0 1 0
vn -0 1 0
vn -0 1 0
vn -0 1 0
vn -0.86048895 0 0.5094691
vn -0.86048895 0 0.5094691
vn -0.86048895 0 0.5094691
vn -0.86048895 0 0.5094691
vn -0.50946856 0 -0.8604893
vn -0.50946856 0 -0.8604893
vn -0.50946856 0 -0.8604893
vn -0.50946856 0 -0.8604893
vn 0.86048734 0 -0.5094718
vn 0.86048734 0 -0.5094718
vn 0.86048734 0 -0.5094718
vn 0.86048734 0 -0.5094718
vn 0.50946844 0 0.8604893
vn 0.50946844 0 0.8604893
vn 0.50946844 0 0.8604893
vn 0.50946844 0 0.8604893
vn -0 -1 0
vn -0 -1 0
vn -0 -1 0
vn -0 -1 0
vn -0 1 0
vn -0 1 0
vn -0 1 0
vn -0 1 0
g Wall_001_0
f 3/3/3 2/2/2 1/1/1
f 4/4/4 3/3/3 1/1/1
f 1/1/1 5/5/5 4/4/4
f 5/5/5 6/6/6 4/4/4
f 9/9/9 8/8/8 7/7/7
f 10/10/10 9/9/9 7/7/7
f 13/13/13 12/12/12 11/11/11
f 12/12/12 14/14/14 11/11/11
f 12/12/12 15/15/15 14/14/14
f 15/15/15 16/16/16 14/14/14
f 19/19/19 18/18/18 17/17/17
f 18/18/18 20/20/20 17/17/17
f 18/18/18 21/21/21 20/20/20
f 21/21/21 22/22/22 20/20/20
f 25/25/25 24/24/24 23/23/23
f 24/24/24 26/26/26 23/23/23
f 24/24/24 27/27/27 26/26/26
f 27/27/27 28/28/28 26/26/26
f 31/31/31 30/30/30 29/29/29
f 32/32/32 31/31/31 29/29/29
f 35/35/35 34/34/34 33/33/33
f 36/36/36 35/35/35 33/33/33
f 39/39/39 38/38/38 37/37/37
f 40/40/40 39/39/39 37/37/37
f 43/43/43 42/42/42 41/41/41
f 44/44/44 43/43/43 41/41/41
f 47/47/47 46/46/46 45/45/45
f 48/48/48 47/47/47 45/45/45
f 51/51/51 50/50/50 49/49/49
f 52/52/52 51/51/51 49/49/49
f 55/55/55 54/54/54 53/53/53
f 56/56/56 55/55/55 53/53/53
