g WaterFenceTypeB
v -3.5373886 2.0072522 3.1970701
v -3.728374 1.6734943 3.1968236
v -3.7925527 1.4692621 2.949745
v -5.3473797 -1.3122995 2.7749517
v -5.6379204 -1.6628509 3.1962032
v -7.2217584 -2.3689346 1.447801
v -7.80421 -1.3782408 0.9855895
v -7.6860385 -2.3995848 -1.0278755
v -8.83608 -3.6169775 0.6197604
v -7.6860385 -2.3995848 -1.0278755
v -7.8307796 -2.049275 -0.9611828
v -7.778033 -2.360601 -1.0438815
v -7.6473203 -0.79173183 -0.23072243
v -7.6860385 -2.3995848 -1.0278755
v -7.80421 -1.3782408 0.9855895
v -11.416744 1.2580415 -0.6031462
v -9.345327 1.775592 -0.5593144
v -11.261549 2.2406855 -0.030338049
v -9.345327 1.775592 -0.5593144
v -9.360828 1.583702 -0.41090053
v -9.316437 1.744727 -0.48041266
v -10.002409 0.98354447 -0.49207336
v -9.345327 1.775592 -0.5593144
v -11.416744 1.2580415 -0.6031462
v 10.506396 -2.3689346 1.4420009
v 10.377335 2.4003983 0.0038203
v 10.506396 -2.3689346 -0.0038205385
v 10.377335 2.4003983 0.0038203
v -8.855764 2.372012 0.9095535
v -10.871416 2.3690362 0.0038203
v -3.7925527 1.4692621 2.949745
v 9.377624 1.3397409 2.7757623
v -4.1012607 1.3234065 2.7755976
v -7.648773 2.3737926 1.4496416
v -7.241448 -2.3689322 0.45715415
v -8.855764 2.372012 0.9095535
v -3.7428112 2.3795576 3.1974316
v -4.1012607 1.3234065 2.7755976
v -3.7925527 1.4692621 2.949745
v -3.5373886 2.0072522 3.1970701
v -7.241448 -2.3689322 0.45715415
v -7.648773 2.3737926 1.4496416
v -7.165734 -2.3689344 1.1852461
v -7.165734 -2.3689344 1.1852461
v -7.648773 2.3737926 1.4496416
v -4.1012607 1.3234065 2.7755976
v -5.3473797 -1.3122995 2.7749517
v -7.165734 -2.3689344 1.1852461
v -4.1012607 1.3234065 2.7755976
v -7.165734 -2.3689344 1.1852461
v -5.3473797 -1.3122995 2.7749517
v -7.2217584 -2.3689346 1.447801
v -7.2217584 -2.3689346 1.447801
v -5.6379204 -1.6628509 3.1962032
v -6.041968 -2.3689346 3.1957211
v 10.377335 2.4003983 0.0038203
v -7.648773 2.3737926 1.4496416
v -8.855764 2.372012 0.9095535
v 10.377335 2.4003983 1.4496417
v 10.506396 -2.3689346 1.4420009
v 10.506396 -2.3689346 3.1897907
v 10.506396 -2.3689346 3.1897907
v 10.377335 2.4003983 3.1974316
v 10.377335 2.4003983 1.4496417
v -3.7428112 2.3795576 3.1974316
v -7.648773 2.3737926 1.4496416
v -3.728374 1.6734943 3.1968236
v 9.377624 1.3397409 2.7757623
v -3.7925527 1.4692621 2.949745
v 9.749788 1.6933873 3.1969821
v 9.32502 -1.3122995 2.7692719
v 9.712085 -1.6628509 3.1904917
v 9.32502 -1.3122995 2.7692719
v -5.6379204 -1.6628509 3.1962032
v -5.3473797 -1.3122995 2.7749517
v -4.1012607 1.3234065 2.7755976
v 9.377624 1.3397409 2.7757623
v 9.32502 -1.3122995 2.7692719
v -5.3473797 -1.3122995 2.7749517
v -3.5373886 2.0072522 3.1970701
v 9.749788 1.6933873 3.1969821
v -3.728374 1.6734943 3.1968236
v -3.7428112 2.3795576 3.1974316
v 10.377335 2.4003983 3.1974316
v 9.712085 -1.6628509 3.1904917
v 10.506396 -2.3689346 3.1897907
v -6.041968 -2.3689346 3.1957211
v -5.6379204 -1.6628509 3.1962032
v -8.253227 -2.3689346 0.002881988
v 10.506396 -2.3689346 -0.0038205385
v -10.862066 2.3520188 0.0037930198
v 10.377335 2.4003983 0.0038203
v -10.871416 2.3690362 0.0038203
v -7.2217584 -2.3689346 1.447801
v -6.041968 -2.3689346 3.1957211
v 10.506396 -2.3689346 3.1897907
v 10.506396 -2.3689346 1.4420009
v -7.165734 -2.3689344 1.1852461
v 10.506396 -2.3689346 -0.0038205385
v -7.165734 -2.3689344 1.1852461
v 10.506396 -2.3689346 1.4420009
v -7.241448 -2.3689322 0.45715415
v -8.253227 -2.3689346 0.002881988
v -9.391661 -0.30130437 0.68023574
v -7.80421 -1.3782408 0.9855895
v -8.83608 -3.6169775 0.6197604
v -9.765455 -2.9864862 0.44099218
v -9.921781 -0.3747609 0.63853955
v -10.089521 -0.7309097 0.21874845
v -9.921781 -0.3747609 0.63853955
v -9.765455 -2.9864862 0.44099218
v -10.087212 -2.403233 -0.110942066
v -8.610172 -0.029374272 -0.24639231
v -8.308862 -0.17658606 -0.39815652
v -7.6473203 -0.79173183 -0.23072243
v -7.80421 -1.3782408 0.9855895
v -7.8307796 -2.049275 -0.9611828
v -7.6860385 -2.3995848 -1.0278755
v -7.6473203 -0.79173183 -0.23072243
v -8.308862 -0.17658606 -0.39815652
v -7.6860385 -2.3995848 -1.0278755
v -7.778033 -2.360601 -1.0438815
v -9.48914 -2.5240211 -0.37848726
v -8.83608 -3.6169775 0.6197604
v -7.80421 -1.3782408 0.9855895
v -9.391661 -0.30130437 0.68023574
v -9.017812 0.052954525 -0.06403485
v -8.610172 -0.029374272 -0.24639231
v -9.765455 -2.9864862 0.44099218
v -8.83608 -3.6169775 0.6197604
v -9.48914 -2.5240211 -0.37848726
v -10.087212 -2.403233 -0.110942066
v -9.48914 -2.5240211 -0.37848726
v -7.778033 -2.360601 -1.0438815
v -7.8307796 -2.049275 -0.9611828
v -8.308862 -0.17658606 -0.39815652
v -8.610172 -0.029374272 -0.24639231
v -9.017812 0.052954525 -0.06403485
v -10.089521 -0.7309097 0.21874845
v -10.087212 -2.403233 -0.110942066
v -9.391661 -0.30130437 0.68023574
v -9.921781 -0.3747609 0.63853955
v -10.089521 -0.7309097 0.21874845
v -9.017812 0.052954525 -0.06403485
v -10.917765 1.8113171 0.79875803
v -10.76054 0.4949957 1.2235292
v -10.829533 0.5246482 0.8130169
v -11.416744 1.2580415 -0.6031462
v -11.261549 2.2406855 -0.030338049
v -10.336626 0.6500616 1.3649882
v -10.76054 0.4949957 1.2235292
v -10.917765 1.8113171 0.79875803
v -10.206955 1.4802862 1.1961309
v -9.818046 0.48487318 0.3583306
v -9.690084 0.5951967 0.12429674
v -10.002409 0.98354447 -0.49207336
v -11.416744 1.2580415 -0.6031462
v -9.360828 1.583702 -0.41090053
v -9.345327 1.775592 -0.5593144
v -10.002409 0.98354447 -0.49207336
v -9.690084 0.5951967 0.12429674
v -9.345327 1.775592 -0.5593144
v -9.316437 1.744727 -0.48041266
v -9.966162 1.6142026 0.74872804
v -11.261549 2.2406855 -0.030338049
v -11.416744 1.2580415 -0.6031462
v -10.829533 0.5246482 0.8130169
v -9.982167 0.3935969 0.66327906
v -9.818046 0.48487318 0.3583306
v -10.917765 1.8113171 0.79875803
v -11.261549 2.2406855 -0.030338049
v -9.966162 1.6142026 0.74872804
v -10.206955 1.4802862 1.1961309
v -9.818046 0.48487318 0.3583306
v -9.982167 0.3935969 0.66327906
v -10.336626 0.6500616 1.3649882
v -9.690084 0.5951967 0.12429674
v -9.360828 1.583702 -0.41090053
v -10.206955 1.4802862 1.1961309
v -9.966162 1.6142026 0.74872804
v -9.316437 1.744727 -0.48041266
v -10.829533 0.5246482 0.8130169
v -10.76054 0.4949957 1.2235292
v -10.336626 0.6500616 1.3649882
v -9.982167 0.3935969 0.66327906
v -8.253227 -2.3689346 0.002881988
v -8.855764 2.372012 0.9095535
v -7.241448 -2.3689322 0.45715415
v -10.862066 2.3520188 0.0037930198
v -10.871416 2.3690362 0.0038203
vt 0.3202759 0.058388714
vt 0.3202663 0.05858984
vt 0.3201114 0.058296878
vt 0.31992713 0.059682056
vt 0.32017142 0.060603477
vt 0.31909615 0.058084078
vt 0.6456717 0.23746355
vt 0.5213318 0.057300553
vt 0.48533037 0.23746355
vt 0.31832656 0.057300553
vt 0.32501438 0.083333105
vt 0.32216725 0.059444427
vt 0.6446351 0.11804293
vt 0.5213318 0.057300553
vt 0.6456717 0.23746355
vt 0.6456717 0.23746355
vt 0.5213318 0.057300553
vt 0.48533037 0.23746355
vt 0.31832656 0.057300553
vt 0.32501438 0.083333105
vt 0.32216725 0.059444427
vt 0.6446351 0.11804293
vt 0.5213318 0.057300553
vt 0.6456717 0.23746355
vt 0.18942356 -6.5820155
vt 0.17441157 -6.2705526
vt 0.18942356 -6.582016
vt 0.17441157 -6.2705526
vt -0.3708923 -6.2707615
vt -0.4280408 -6.2707834
vt -0.26089922 -6.316716
vt 0.15287164 -6.3166523
vt -0.2724357 -6.3167176
vt 0.7441566 0.25902063
vt 0.74532676 0.24551089
vt 0.74532676 0.26460004
vt 0.74213594 0.2397128
vt 0.74261564 0.2389355
vt 0.7424711 0.23772113
vt 0.7422079 0.23774487
vt 0.74532676 0.24551089
vt 0.7441566 0.25902063
vt 0.74434894 0.23755175
vt 0.74434894 0.23755175
vt 0.7441566 0.25902063
vt 0.74261564 0.2389355
vt 0.31992713 0.059682056
vt 0.31893772 0.05764171
vt 0.3199367 0.05796238
vt 0.31893772 0.05764171
vt 0.31992713 0.059682056
vt 0.31909615 0.058084078
vt 0.31909615 0.058084078
vt 0.32017142 0.060603477
vt 0.32015115 0.061029043
vt 0.17441157 -6.2705526
vt -0.33667123 -6.270749
vt -0.3708923 -6.2707615
vt 0.17441157 -6.2705526
vt 0.18942356 -6.5820155
vt 0.18942356 -6.582016
vt 0.18942356 -6.582016
vt 0.17441157 -6.2705526
vt 0.17441157 -6.2705526
vt -0.22592801 -6.270706
vt -0.33667123 -6.270749
vt -0.25641406 -6.3167152
vt 0.15287164 -6.3166523
vt -0.26089922 -6.316716
vt 0.15287164 -6.3166523
vt 0.15951343 -6.535821
vt 0.15951343 -6.535821
vt 0.15951343 -6.535821
vt -0.48467654 -6.533866
vt -0.48112124 -6.533877
vt -0.2724357 -6.3167176
vt 0.15287164 -6.3166523
vt 0.15951343 -6.535821
vt -0.48112124 -6.533877
vt -0.236204 -6.2949843
vt 0.15287164 -6.3166523
vt -0.25641406 -6.3167152
vt -0.22592801 -6.270706
vt 0.17441157 -6.2705526
vt 0.15951343 -6.535821
vt 0.18942356 -6.582016
vt -0.536963 -6.57981
vt -0.48467654 -6.533866
vt -0.6315464 -6.579523
vt 0.18942356 -6.582016
vt -0.42777908 -6.2718954
vt 0.17441157 -6.2705526
vt -0.4280408 -6.2707834
vt -0.5210099 -6.5798583
vt -0.536963 -6.57981
vt 0.18942356 -6.582016
vt 0.18942356 -6.5820155
vt -0.5186135 -6.5798655
vt 0.18942356 -6.582016
vt -0.5186135 -6.5798655
vt 0.18942356 -6.5820155
vt -0.588269 -6.579654
vt -0.6315464 -6.579523
vt 0.51644677 0.4261884
vt 0.63422114 0.40962484
vt 0.63422114 0.23746355
vt 0.56527 0.2471607
vt 0.4892811 0.40766844
vt 0.48533037 0.36781812
vt 0.4892811 0.40766844
vt 0.56527 0.2471607
vt 0.5265842 0.25575176
vt 0.33529696 0.38076007
vt 0.3507363 0.40353924
vt 0.40655532 0.40955904
vt 0.4483132 0.2977616
vt 0.4301919 0.47312897
vt 0.4483132 0.48430076
vt 0.40655532 0.40955904
vt 0.3507363 0.40353924
vt 0.74532676 0.23746355
vt 0.7391821 0.23801783
vt 0.66492933 0.34154958
vt 0.74532676 0.42323434
vt 0.4483132 0.2977616
vt 0.33155552 0.27580637
vt 0.31832656 0.35232636
vt 0.33529696 0.38076007
vt 0.67601526 0.42440888
vt 0.74532676 0.42323434
vt 0.66492933 0.34154958
vt 0.63422114 0.37848043
vt 0.4434428 0.0859845
vt 0.32216725 0.059444427
vt 0.32501438 0.083333105
vt 0.35349485 0.2306435
vt 0.37435457 0.24815102
vt 0.40290466 0.26331672
vt 0.48078248 0.23024088
vt 0.48533037 0.10823503
vt 0.45781663 0.27580637
vt 0.48533037 0.27135682
vt 0.48078248 0.23024088
vt 0.40290466 0.26331672
vt 0.56527 0.2471607
vt 0.4892811 0.40766844
vt 0.51644677 0.4261884
vt 0.63422114 0.40962484
vt 0.63422114 0.23746355
vt 0.48533037 0.36781812
vt 0.4892811 0.40766844
vt 0.56527 0.2471607
vt 0.5265842 0.25575176
vt 0.33529696 0.38076007
vt 0.3507363 0.40353924
vt 0.40655532 0.40955904
vt 0.4483132 0.2977616
vt 0.4301919 0.47312897
vt 0.4483132 0.48430076
vt 0.40655532 0.40955904
vt 0.3507363 0.40353924
vt 0.74532676 0.23746355
vt 0.7391821 0.23801783
vt 0.66492933 0.34154958
vt 0.74532676 0.42323434
vt 0.4483132 0.2977616
vt 0.33155552 0.27580637
vt 0.31832656 0.35232636
vt 0.33529696 0.38076007
vt 0.67601526 0.42440888
vt 0.74532676 0.42323434
vt 0.66492933 0.34154958
vt 0.63422114 0.37848043
vt 0.37435457 0.24815102
vt 0.40290466 0.26331672
vt 0.48078248 0.23024088
vt 0.35349485 0.2306435
vt 0.32501438 0.083333105
vt 0.48533037 0.10823503
vt 0.4434428 0.0859845
vt 0.32216725 0.059444427
vt 0.45781663 0.27580637
vt 0.48533037 0.27135682
vt 0.48078248 0.23024088
vt 0.40290466 0.26331672
vt 0.52329457 0.06711313
vt 0.51607287 0.08361787
vt 0.51977223 0.06510498
vt 0.52309674 0.08753539
vt 0.52309585 0.08760889
vn -0.8533755 0.48845994 -0.18209085
vn -0.8533755 0.48845994 -0.18209085
vn -0.8533755 0.48845994 -0.18209085
vn -0.59609 0.76950157 0.22922492
vn -0.59609 0.76950157 0.22922492
vn -0.59609 0.76950157 0.22922492
vn 0.8559466 -0.4391281 0.27298686
vn 0.8559466 -0.4391281 0.27298686
vn 0.8559466 -0.4391281 0.27298686
vn 0.28224683 0.29067376 -0.91424584
vn 0.28224683 0.29067376 -0.91424584
vn 0.28224683 0.29067376 -0.91424584
vn 0.9930623 -0.070552886 0.09407227
vn 0.9930623 -0.070552886 0.09407227
vn 0.9930623 -0.070552886 0.09407227
vn -0.110287435 0.51347923 -0.8509852
vn -0.110287435 0.51347923 -0.8509852
vn -0.110287435 0.51347923 -0.8509852
vn 0.7911627 -0.41288617 -0.45120576
vn 0.7911627 -0.41288617 -0.45120576
vn 0.7911627 -0.41288617 -0.45120576
vn 0.052935645 -0.12799242 -0.99036145
vn 0.052935645 -0.12799242 -0.99036145
vn 0.052935645 -0.12799242 -0.99036145
vn 0.71660733 -0.69747686 0
vn 0.69730455 0.71677494 0
vn 0.716323 -0.6977688 0
vn 0.69730455 0.71677494 0
vn -0.0014759334 0.9999989 0
vn -0.0014759466 0.9999989 0
vn 0.0008904661 -0.76867163 0.63964295
vn -0.3293221 -0.33251572 0.8837309
vn 0.0005211824 -0.1974885 0.980305
vn -0.39811438 -0.220528 0.8904337
vn -0.3981139 -0.22052857 0.89043385
vn -0.3981139 -0.22052857 0.89043385
vn -0.39811438 -0.220528 0.8904337
vn -0.39811438 -0.220528 0.8904337
vn -0.39811614 -0.22052763 0.8904331
vn -0.39811435 -0.22052826 0.8904337
vn -0.98898405 -0.106459714 0.102843896
vn -0.98898405 -0.106459714 0.102843896
vn -0.98898405 -0.106459714 0.102843896
vn -0.37182492 -0.08937997 0.92399
vn -0.37182492 -0.08937997 0.92399
vn -0.37182492 -0.08937997 0.92399
vn -0.7232405 0.34178916 0.60008615
vn -0.7232405 0.34178916 0.60008615
vn -0.7232405 0.34178916 0.60008615
vn -0.43789953 0.89415497 -0.09343908
vn -0.43789953 0.89415497 -0.09343908
vn -0.43789953 0.89415497 -0.09343908
vn -0.74900347 0.42826334 0.5055535
vn -0.74900347 0.42826334 0.5055535
vn -0.74900347 0.42826334 0.5055535
vn 0.69730455 0.71677494 0
vn -0.0014758719 0.9999989 0
vn -0.0014759334 0.9999989 0
vn 0.69694823 0.7171215 0
vn 0.71660733 -0.69747686 0
vn 0.71689034 -0.69718593 0
vn 0.71689034 -0.69718593 0
vn 0.6965916 0.7174679 0
vn 0.69694823 0.7171215 0
vn -0.0014759467 0.9999989 0
vn -0.0014758719 0.9999989 0
vn 0.0014719366 -0.770916 0.63693523
vn -0.3293221 -0.33251572 0.8837309
vn 0.0008904661 -0.76867163 0.63964295
vn -0.45163435 -0.44301662 0.7744435
vn -0.42517933 0.4659056 0.77598614
vn -0.44817156 0.4398109 0.77827287
vn -0.42517933 0.4659056 0.77598614
vn 0.00024735153 0.768584 0.63974893
vn 0.00042679955 0.7688626 0.6394139
vn 0.0005211824 -0.1974885 0.980305
vn -0.3293221 -0.33251572 0.8837309
vn -4.4603083E-05 -0.002526041 0.9999968
vn 0.00038714518 -0.0004280683 0.9999999
vn -1.3628838E-05 -0.0008571725 0.99999964
vn 0.0003572196 -0.00077773834 0.99999964
vn -1.0658744E-05 -0.0007325214 0.99999976
vn 0.000734802 -0.001121462 0.99999917
vn 0.0002955548 -0.0017687568 0.99999845
vn -2.0296087E-05 -0.0011029002 0.9999994
vn -0.00020443602 -0.0014594183 0.9999989
vn 0.00037152457 -0.000882634 0.9999995
vn 0.0005004194 -0.00058560754 0.99999976
vn -0.00035728473 0 -1
vn -5.235571E-05 0.0013757371 -0.99999905
vn -9.8299424E-05 0.001167649 -0.9999993
vn -0 0.0016020108 -0.9999987
vn -0 0.0016018111 -0.9999987
vn -0 -1 0
vn -0 -1 0
vn 0.71689034 -0.69718593 0
vn 0.71660733 -0.69747686 0
vn -0 -1 0
vn 0.716323 -0.6977688 0
vn -0 -1 0
vn 0.71660733 -0.69747686 0
vn -0 -1 0
vn -0 -1 0
vn -0.20051387 -0.05921621 0.9778997
vn -0.20051387 -0.05921621 0.9778997
vn -0.20051387 -0.05921621 0.9778997
vn -0.20051387 -0.05921621 0.9778997
vn -0.20051387 -0.05921621 0.9778997
vn -0.8977149 -0.08641047 0.43202
vn -0.8977149 -0.08641047 0.43202
vn -0.8977149 -0.08641047 0.43202
vn -0.8977149 -0.08641047 0.43202
vn 0.5599188 0.71575123 0.41736197
vn 0.5599188 0.71575123 0.41736197
vn 0.5599188 0.71575123 0.41736197
vn 0.5599188 0.71575123 0.41736197
vn 0.53299993 0.3654989 -0.7631001
vn 0.53299993 0.3654989 -0.7631001
vn 0.53299993 0.3654989 -0.7631001
vn 0.53299993 0.3654989 -0.7631001
vn -0.18997441 -0.72158074 -0.66575587
vn -0.18997441 -0.72158074 -0.66575587
vn -0.18997441 -0.72158074 -0.66575587
vn -0.18997441 -0.72158074 -0.66575587
vn 0.39439693 0.73699296 0.5489011
vn 0.39439693 0.73699296 0.5489011
vn 0.39439693 0.73699296 0.5489011
vn 0.39439693 0.73699296 0.5489011
vn -0.3943954 -0.7369949 -0.54889965
vn -0.3943954 -0.7369949 -0.54889965
vn -0.3943954 -0.7369949 -0.54889965
vn -0.3943954 -0.7369949 -0.54889965
vn -0.3713817 0.17909415 -0.9110438
vn -0.3713817 0.17909415 -0.9110438
vn -0.3713817 0.17909415 -0.9110438
vn -0.3713817 0.17909415 -0.9110438
vn -0.3713817 0.17909415 -0.9110438
vn -0.3713817 0.17909415 -0.9110438
vn -0.3713817 0.17909415 -0.9110438
vn -0.3713817 0.17909415 -0.9110438
vn -0.4801935 0.87289315 -0.08643997
vn -0.4801935 0.87289315 -0.08643997
vn -0.4801935 0.87289315 -0.08643997
vn -0.4801935 0.87289315 -0.08643997
vn -0.9428395 -0.061023816 0.32761225
vn -0.9428395 -0.061023816 0.32761225
vn -0.9428395 -0.061023816 0.32761225
vn -0.9428395 -0.061023816 0.32761225
vn -0.9428395 -0.061023816 0.32761225
vn -0.3854787 0.24134648 0.89059424
vn -0.3854787 0.24134648 0.89059424
vn -0.3854787 0.24134648 0.89059424
vn -0.3854787 0.24134648 0.89059424
vn -0.13061637 -0.86733437 -0.4802818
vn -0.13061637 -0.86733437 -0.4802818
vn -0.13061637 -0.86733437 -0.4802818
vn -0.13061637 -0.86733437 -0.4802818
vn 0.57422376 -0.52939045 -0.62451
vn 0.57422376 -0.52939045 -0.62451
vn 0.57422376 -0.52939045 -0.62451
vn 0.57422376 -0.52939045 -0.62451
vn 0.2936029 0.9218155 0.25308803
vn 0.2936029 0.9218155 0.25308803
vn 0.2936029 0.9218155 0.25308803
vn 0.2936029 0.9218155 0.25308803
vn -0.20669998 -0.90117896 -0.38098785
vn -0.20669998 -0.90117896 -0.38098785
vn -0.20669998 -0.90117896 -0.38098785
vn -0.20669998 -0.90117896 -0.38098785
vn 0.20669976 0.90117854 0.3809886
vn 0.20669976 0.90117854 0.3809886
vn 0.20669976 0.90117854 0.3809886
vn 0.20669976 0.90117854 0.3809886
vn 0.8851525 -0.044037063 0.46321243
vn 0.8851525 -0.044037063 0.46321243
vn 0.8851525 -0.044037063 0.46321243
vn 0.8851525 -0.044037063 0.46321243
vn 0.8851525 -0.044037063 0.46321243
vn 0.8851525 -0.044037063 0.46321243
vn 0.8851525 -0.044037063 0.46321243
vn 0.8851525 -0.044037063 0.46321243
vn 0.019819174 -0.9786331 0.20465696
vn 0.019819174 -0.9786331 0.20465696
vn 0.019819174 -0.9786331 0.20465696
vn 0.019819174 -0.9786331 0.20465696
vn -0.3994727 -0.22092372 0.88972706
vn -0.3994727 -0.22092372 0.88972706
vn -0.39947218 -0.2209237 0.8897273
vn -0.3994727 -0.22092372 0.88972706
vn -0.3994709 -0.22091262 0.8897307
g WaterFenceTypeB_0
f 3/3/3 2/2/2 1/1/1
f 6/6/6 5/5/5 4/4/4
f 9/9/9 8/8/8 7/7/7
f 12/12/12 11/11/11 10/10/10
f 15/15/15 14/14/14 13/13/13
f 18/18/18 17/17/17 16/16/16
f 21/21/21 20/20/20 19/19/19
f 24/24/24 23/23/23 22/22/22
f 27/27/27 26/26/26 25/25/25
f 30/30/30 29/29/29 28/28/28
f 33/33/33 32/32/32 31/31/31
f 36/36/36 35/35/35 34/34/34
f 34/34/34 38/38/38 37/37/37
f 39/39/39 37/37/37 38/38/38
f 40/40/40 37/37/37 39/39/39
f 43/43/43 42/42/42 41/41/41
f 46/46/46 45/45/45 44/44/44
f 49/49/49 48/48/48 47/47/47
f 52/52/52 51/51/51 50/50/50
f 55/55/55 54/54/54 53/53/53
f 58/58/58 57/57/57 56/56/56
f 59/59/59 56/56/56 57/57/57
f 56/56/56 59/59/59 60/60/60
f 60/60/60 59/59/59 61/61/61
f 64/64/64 63/63/63 62/62/62
f 65/65/65 63/63/63 64/64/64
f 66/66/66 65/65/65 64/64/64
f 69/69/69 68/68/68 67/67/67
f 70/70/70 67/67/67 68/68/68
f 68/68/68 71/71/71 70/70/70
f 73/73/73 72/72/72 70/70/70
f 72/72/72 73/73/73 74/74/74
f 73/73/73 75/75/75 74/74/74
f 78/78/78 77/77/77 76/76/76
f 79/79/79 78/78/78 76/76/76
f 82/82/82 81/81/81 80/80/80
f 80/80/80 81/81/81 83/83/83
f 83/83/83 81/81/81 84/84/84
f 84/84/84 81/81/81 85/85/85
f 86/86/86 84/84/84 85/85/85
f 87/87/87 86/86/86 85/85/85
f 88/88/88 87/87/87 85/85/85
f 91/91/91 90/90/90 89/89/89
f 92/92/92 90/90/90 91/91/91
f 93/93/93 92/92/92 91/91/91
f 96/96/96 95/95/95 94/94/94
f 97/97/97 96/96/96 94/94/94
f 94/94/94 98/98/98 97/97/97
f 101/101/101 100/100/100 99/99/99
f 102/102/102 99/99/99 100/100/100
f 103/103/103 99/99/99 102/102/102
f 106/106/106 105/105/105 104/104/104
f 104/104/104 107/107/107 106/106/106
f 104/104/104 108/108/108 107/107/107
f 111/111/111 110/110/110 109/109/109
f 112/112/112 111/111/111 109/109/109
f 115/115/115 114/114/114 113/113/113
f 116/116/116 115/115/115 113/113/113
f 119/119/119 118/118/118 117/117/117
f 120/120/120 119/119/119 117/117/117
f 123/123/123 122/122/122 121/121/121
f 124/124/124 123/123/123 121/121/121
f 127/127/127 126/126/126 125/125/125
f 128/128/128 127/127/127 125/125/125
f 131/131/131 130/130/130 129/129/129
f 132/132/132 131/131/131 129/129/129
f 135/135/135 134/134/134 133/133/133
f 133/133/133 136/136/136 135/135/135
f 133/133/133 137/137/137 136/136/136
f 133/133/133 138/138/138 137/137/137
f 133/133/133 139/139/139 138/138/138
f 133/133/133 140/140/140 139/139/139
f 143/143/143 142/142/142 141/141/141
f 144/144/144 143/143/143 141/141/141
f 147/147/147 146/146/146 145/145/145
f 145/145/145 148/148/148 147/147/147
f 145/145/145 149/149/149 148/148/148
f 152/152/152 151/151/151 150/150/150
f 153/153/153 152/152/152 150/150/150
f 156/156/156 155/155/155 154/154/154
f 157/157/157 156/156/156 154/154/154
f 160/160/160 159/159/159 158/158/158
f 161/161/161 160/160/160 158/158/158
f 164/164/164 163/163/163 162/162/162
f 165/165/165 164/164/164 162/162/162
f 168/168/168 167/167/167 166/166/166
f 169/169/169 168/168/168 166/166/166
f 172/172/172 171/171/171 170/170/170
f 173/173/173 172/172/172 170/170/170
f 176/176/176 175/175/175 174/174/174
f 174/174/174 177/177/177 176/176/176
f 177/177/177 178/178/178 176/176/176
f 178/178/178 179/179/179 176/176/176
f 178/178/178 180/180/180 179/179/179
f 178/178/178 181/181/181 180/180/180
f 184/184/184 183/183/183 182/182/182
f 185/185/185 184/184/184 182/182/182
f 188/188/188 187/187/187 186/186/186
f 189/189/189 186/186/186 187/187/187
f 190/190/190 189/189/189 187/187/187
